<?xml version="1.0"?>
<svg xmlns:rdf="http://www.w3.org/1999/02/22-rdf-syntax-ns#" xmlns="http://www.w3.org/2000/svg" xmlns:cc="http://creativecommons.org/ns#" xmlns:dc="http://purl.org/dc/elements/1.1/" xmlns:svg="http://www.w3.org/2000/svg" id="svg2" viewBox="0 0 128 128" version="1.0">
  <defs id="defs4">
    <filter id="filter3443" y="-.32663" width="1.2503" x="-.12514" height="1.6533">
      <feGaussianBlur id="feGaussianBlur3445" stdDeviation="1.9634296"/>
    </filter>
  </defs>
  <g id="layer1">
    <path id="path2478" fill-opacity=".7284" filter="url(#filter3443)" fill-rule="evenodd" d="m55.945 112.23c-1.872 0.61-6.114-0.64-8.895-1.33-2.357-0.59-4.728 1.17-5.782 2.22-1.414 1.42-1.726 4.22-1.335 5.78 0.832 3.33 5.383 3.11 7.561 2.67 2.008-0.4 4.245 1.29 6.227 1.78 2.276 0.57 8.513-0.36 11.366-0.36 2.9 0 11.184 2.69 14.061 1.25 2.231-1.11 4.29-0.77 6.226-2.22 1.513-1.14 2.227-3.13 2.669-4.89 0.784-3.14-1.877-3.61-3.558-4.45-2.161-1.08-5.907-0.42-7.561 0-1.773 0.44-14.066-2.23-16.532-2.23-1.999 0-1.059 1.78-4.447 1.78z"/>
    <g id="g2584" stroke="#333" stroke-width="1px" transform="matrix(.72386 -.68995 .68995 .72386 -206.79 225.01)">
      <path id="path2480" fill-rule="evenodd" fill="#e6e6e6" d="m282.9 109.14c2.36 1.64 6.34 1.45 8.57 3.84 0.32 0.94-0.1 3.29-0.09 4.28-0.29 1.27-1.15 1.99-2.18 2.68-2.67 0.69-5.42-0.42-7.96-1.2-2.27-0.35-4.9-1.19-6.28-3.12-2.18-2.58-1.52-4.71-0.88-7.87 2.92 0.57 5.86 1.04 8.82 1.39z"/>
      <path id="path2484" fill="none" d="m290.5 118.79c-2.89 1.59-6.5-0.1-8.84-1.55-2.85-0.72-5.36-1.63-7.69-4.79"/>
    </g>
    <path id="path2482" d="m70.404 90.91c2.177 2.725 1.962 3.797 4.825 8.186-0.519 2.544 0.446 4.984 0.625 7.504-0.515 2.2 0.137 5.69-1.375 7.25-2.63 1.98-6.665 1.89-8.125-0.63 0.25-1 0.06-1.6 0.5-2.62 1.286-2.74 0.677-5.87 0.25-8.75-0.058-3.795-4.126-6.576-3.984-10.37 2.168-0.801 5.916-2.166 7.284-0.57z" fill-rule="evenodd" stroke="#00192e" stroke-width="1px" fill="#00325c"/>
    <g id="g2600" stroke="#333" stroke-width="1px" transform="matrix(.84447 .53561 -.53561 .84447 -106.57 -121.77)">
      <path id="path2492" fill-rule="evenodd" fill="#e6e6e6" d="m260.46 110.09c-3.16 0.67-5.55-2.15-8.48 3.18-0.6 0.72-0.58 1.42-0.53 2.3 0.71 2.29 6.08 3.81 9.37 3.28 3.02 0.04 6.07-1.02 8.57-2.84 0.58-1.71-0.04-4.02-0.18-5.92-2.78 0.88-5.95 0.73-8.75 0z"/>
      <path id="path2494" fill="none" d="m251.51 115.52c3.75 1.82 7.14 2.42 10.53 1.97 3.14-0.1 4.78-2.39 7.08-2.54"/>
    </g>
    <path id="path2496" d="m55.936 90.871c-0.145 0.779-3.187 5.63-2.923 6.954 0.944 2.795 1.212 5.175 0.513 8.025-0.555 2.79-2.248 7.32-0.25 9.37 2.845 1.13 5.706 1.85 8.125-0.62-1.246-3.86-0.335-7.17 0.259-11.18 0.028-3.801 2.764-6.922 2.621-10.742-2.167-0.801-6.977-3.403-8.345-1.807z" fill-rule="evenodd" stroke="#00192e" stroke-width="1px" fill="#00325c"/>
    <path id="path2532" d="m46.774 80.301c-1.218 3.075-1.946 6.777-1.1 9.99 0.839 1.334 2.733 0.062 3.19 1.828-0.612 1.313-2.021 1.383-3.376 1.455 0.532 2.011 1.971 3.914-0.288 5.561-1.055-0.859-1.58-2.398-1.647-3.672-0.433 1.377 0.16 4.42-2.239 2.719-1.079-1.234-0.155-2.507 0.071-3.946-1.362 1.366-2.177 3.683-2.949 0.651 0.125-1.26 0.9-1.989 1.75-2.823 0.431-1.205 0.262-2.6 0.316-3.895-0.999-2.966-0.817-5.994-0.627-9.078 2.271-1.957 1.161-5.615 3.156-7.636 0.641-0.959 1.231-1.772 2.065-2.5 2.921-0.203 4.991 1.075 5.69 3.892 0.745 3.685-2.787 4.841-4.012 7.454z" fill-rule="evenodd" stroke="#3f2d10" stroke-width="1px" fill="#e9d2af"/>
    <path id="path2528" d="m79.853 80.837c0.553 3.261 0.495 7.033-1 10-1.098 1.131-2.687-0.507-3.5 1.125 0.325 1.412 1.689 1.773 3 2.125-0.94 1.857-2.742 3.419-0.875 5.5 1.21-0.621 2.044-2.017 2.375-3.25 0.137 1.437-1.076 4.293 1.625 3.125 1.311-0.983 0.672-2.419 0.75-3.875 1.048 1.62 1.364 4.056 2.75 1.25 0.139-1.258-0.468-2.133-1.125-3.125-0.171-1.268 0.283-2.597 0.5-3.875 1.593-2.694 2.045-5.694 2.5-8.75-1.815-2.386 0.031-5.733-1.5-8.125-0.427-1.071-0.836-1.989-1.5-2.875-2.815-0.805-5.105 0.014-6.375 2.625-1.495 3.45 1.719 5.314 2.375 8.125z" fill-rule="evenodd" stroke="#3f2d10" stroke-width="1px" fill="#e9d2af"/>
    <path id="path2498" d="m78.71 94.851c-2.805-3.461-2.26-8.706-1.902-12.67-1.228-4.957 1.431-9.842 0.378-14.797-0.465-3.106 2.397-5.976 0.836-8.684-1.784-2.413-6.292-3.536-9.321-3.691-3.886 0.57-7.808 0.045-11.667 0.884-2.847 1.239-7.81 2.166-8.127 5.239-0.137 2.774 2.756 7.192 1.47 9.696-0.387 4.452-0.334 9.48 0.293 13.944 0.894 5.194-1.39 6.356-0.814 11.535 4.481-2.566 8.733 2.97 13.822 2.4 4.268-1.526 12.384-0.619 15.032-3.856z" fill-rule="evenodd" stroke="#000" stroke-width="1px" fill="#1a1a1a"/>
    <path id="path2534" d="m51.339 69.455c-1.052 3.601-1.561 6.371-2.59 10.74-4.193-0.544-5.309-3.312-9.477-4.732 0.489-2.06 2.429-4.473 2.881-6.547 0.732-2.728 1.953-2.929 3.218-5.271 1.297-1.477 1.416-3.136 4.565-3.897" fill-rule="evenodd" stroke="#000" stroke-width="1px" fill="#1a1a1a"/>
    <path id="path2502" d="m50.14 21.542c-1.409 4.801 0.633 10.454 1.891 15.156-1.823 5.854 0.535 10.131 6.088 14.801 6.425 2.088 13.614 1.64 19.172-5.283 1.367-11.378-0.052-4.471 2.534-13.976 0.855-12.313-3.514-20.66-15.09-19.765-8.002-0.262-11.436 3.864-14.595 9.067z" fill-rule="evenodd" stroke="#3f2d10" stroke-width="1px" fill="#e9d2af"/>
    <path id="path2500" d="m61.488 51.518c-1.304 0.695-2.281 2.765-2.556 4.636 2.18 2.574 8.822 2.589 12.002 0.201-0.625-2.688-0.211-3.069-2.517-4.937" fill-rule="evenodd" stroke="#3f2d10" stroke-width="1px" fill="#e9d2af"/>
    <path id="path2520" d="m79.115 26.661c7.413-2.957 4.337 7.177 0.15 6.004" fill-rule="evenodd" stroke="#3f2d10" stroke-width="1px" fill="#e9d2af"/>
    <path id="path2524" d="m51.598 28.739c-7.747-1.92-3.319 7.701 0.669 5.968" fill-rule="evenodd" stroke="#3f2d10" stroke-width="1px" fill="#e9d2af"/>
    <path id="path2530" d="m76.926 70.877c0.701 2.425 0.731 4.093 0.795 6.599 4.197-0.51 5.304-1.483 9.483-2.869-0.472-2.064-1.319-4.126-1.754-6.204-0.71-2.733-2.399-3.59-3.645-5.942-1.598-1.711-4.961-4.585-6.858-6.092" fill-rule="evenodd" stroke="#000" stroke-width="1px" fill="#1a1a1a"/>
    <path id="path2580" d="m51.95 44.081c-1.003 2.166-0.102 3.657 0.796 5.657 1.311 1.877 2.766 1.597 4.949 1.856 1.465-1.188 1.72-1.499 1.768-3.358-0.356-2.505-0.816-1.84-2.828-2.917-1.352-0.347-3.285-1.238-4.685-1.238z" fill-rule="evenodd" stroke="#120a04" stroke-width="1px" fill="#28170b"/>
    <path id="path2582" d="m77.864 43.302c1.275 2.018 0.574 3.612-0.058 5.712-1.057 2.031-2.536 1.942-4.668 2.481-1.606-0.989-1.899-1.265-2.187-3.102 0.03-2.53 0.571-1.93 2.427-3.258 1.296-0.519 3.098-1.652 4.486-1.833z" fill-rule="evenodd" stroke="#120a04" stroke-width="1px" fill="#28170b"/>
    <path id="path2506" d="m65.48 50.433c16.673-8.414 10.322-9.711 13.695-13.408 4.477-2.717 5.29-14.654 0.515-21.191-3.522-4.824-8.318-8.6924-14.547-6.5288-15.372-3.1767-21.264 17.564-13.706 30.763 5.169 4.303 2.623 6.639 14.043 10.365z" fill-rule="evenodd" stroke="#120a04" stroke-width="1px" fill="#28170b"/>
    <path id="path2476" d="m63.653 36.438c-1.745 0.209 3.438 6.788 3.933 7.898 0.767 1.72 7.978 4.27 9.458 5.667 1.257 1.186 7.019 1.272 8.095 0.698 1.811-0.966 4.233-0.234 5.265 0.503 3.221 2.302 0.912-1.349-0.046-2.64-0.753-1.013-3.46-3.064-4.858-2.82-3.697 0.648-6.388-3.814-7.891-5.566-1.428-1.665-5.296-1.7-7.381-1.45-1.302 0.156-4.932-2.178-6.575-2.29z" fill-rule="evenodd" stroke="#120a04" stroke-width="1px" fill="#28170b"/>
    <path id="path2623" d="m57.915 66.002c-0.127 0.005-0.312 0.09-0.205-0.117-0.005-0.974-0.233-1.931-0.244-2.905-0.012-0.477-0.029-0.957 0.009-1.432 0.139-0.259 0.476-0.289 0.736-0.35 0.54-0.085 1.093-0.122 1.639-0.107 0.269 0.15 0.449 0.422 0.622 0.669 0.229 0.346 0.127 0.809-0.145 1.099-0.313 0.405-0.815 0.585-1.162 0.95-0.26 0.212-0.148 0.592 0.13 0.725 0.351 0.223 0.776 0.344 1.05 0.676 0.152 0.187 0.316 0.414 0.302 0.665-0.242 0.156-0.682 0.117-0.855-0.161-0.222-0.192-0.412-0.45-0.65-0.606-0.255-0.08-0.428-0.648-0.721-0.282-0.157 0.253-0.113 0.576-0.137 0.863 0.032 0.148-0.162 0.164-0.25 0.242-0.04 0.024-0.08 0.047-0.119 0.071zm0.367-2.312c0.55-0.309 1.135-0.612 1.538-1.113 0.189-0.207 0.169-0.559-0.083-0.706-0.384-0.279-0.888-0.199-1.332-0.18-0.41-0.054-0.221 0.465-0.216 0.707 0.064 0.427 0.061 0.862 0.093 1.292zm4.451 2.143c-0.002-0.673 0.042-1.356-0.112-2.017-0.083-0.467-0.164-0.934-0.245-1.401-0.211-0.21-0.566-0.161-0.843-0.207-0.34-0.018-0.804-0.085-0.903-0.476-0.035-0.302 0.483-0.136 0.684-0.209 1.087-0.043 2.181-0.126 3.265 0 0.247 0.024 0.713 0.122 0.569 0.47-0.192 0.232-0.539 0.195-0.811 0.208-0.32 0.003-0.64-0.006-0.959 0.011-0.239 0.329-0.065 0.752-0.006 1.113 0.116 0.76 0.136 1.537 0.074 2.304 0.016 0.304-0.186 0.592-0.514 0.42-0.1-0.026-0.205-0.1-0.199-0.216zm3.482-1.61c-0.199 0.199 0.025 0.561 0.07 0.809 0.089 0.304 0.266 0.65 0.113 0.96-0.223 0.243-0.727 0.11-0.727-0.253-0.146-1.002-0.177-2.018-0.234-3.028 0-0.325-0.051-0.661 0.024-0.979 0.332-0.318 0.824-0.356 1.257-0.422 0.418-0.031 0.862-0.107 1.265 0.043 0.153 0.179 0.512 0.451 0.413 0.694-0.647-0.051-1.313-0.182-1.956-0.023-0.341 0.091-0.249 0.539-0.256 0.806-0.035 0.33 0.128 0.741 0.52 0.72 0.439 0.031 0.887-0.258 1.315-0.063 0.367 0.225 0.016 0.637-0.305 0.641-0.49 0.11-0.999 0.11-1.499 0.095zm6.319 2.773c-0.121-0.381-0.09-0.793-0.114-1.189-0.038-1.291 0.039-2.585-0.022-3.875-0.065-0.062-0.241 0.303-0.348 0.398-0.285 0.358-0.651 0.667-1.006 0.936 0.16 0.157 0.617 0.342 0.504 0.586-0.225 0.324-0.608 0.199-0.779-0.098-0.476-0.48-0.945-0.968-1.436-1.433 0.069 1.137 0.149 2.276 0.159 3.415 0.011 0.313-0.457 0.499-0.658 0.265-0.161-0.275-0.097-0.614-0.131-0.918-0.024-1.038-0.044-2.077-0.019-3.116-0.001-0.322 0.365-0.418 0.624-0.357 0.323 0.102 0.61 0.34 0.737 0.66 0.136 0.184 0.284 0.661 0.553 0.512 0.365-0.371 0.741-0.73 1.099-1.107 0.173-0.239 0.463-0.422 0.491-0.74 0.15-0.219 0.687-0.267 0.695 0.088 0.075 0.664 0.068 1.335 0.134 2 0.053 1.029 0.026 2.063 0.136 3.088 0.07 0.27 0.137 0.607-0.155 0.778-0.116 0.094-0.334 0.281-0.464 0.107z" fill="#fff"/>
  </g>
  <metadata>
    <rdf:RDF>
      <cc:Work>
        <dc:format>image/svg+xml</dc:format>
        <dc:type rdf:resource="http://purl.org/dc/dcmitype/StillImage"/>
        <cc:license rdf:resource="http://creativecommons.org/licenses/publicdomain/"/>
        <dc:publisher>
          <cc:Agent rdf:about="http://openclipart.org/">
            <dc:title>Openclipart</dc:title>
          </cc:Agent>
        </dc:publisher>
        <dc:title>Comic characters: Back</dc:title>
        <dc:date>2009-03-05T13:55:07</dc:date>
        <dc:description>Comic characters: a bearded guy seen from the back</dc:description>
        <dc:source>http://openclipart.org/detail/21843/comic-characters:-back-by-nicubunu</dc:source>
        <dc:creator>
          <cc:Agent>
            <dc:title>nicubunu</dc:title>
          </cc:Agent>
        </dc:creator>
        <dc:subject>
          <rdf:Bag>
            <rdf:li>cartoon</rdf:li>
            <rdf:li>character</rdf:li>
            <rdf:li>clip art</rdf:li>
            <rdf:li>clipart</rdf:li>
            <rdf:li>comic</rdf:li>
            <rdf:li>funny</rdf:li>
            <rdf:li>guy</rdf:li>
            <rdf:li>human</rdf:li>
            <rdf:li>image</rdf:li>
            <rdf:li>media</rdf:li>
            <rdf:li>people</rdf:li>
            <rdf:li>png</rdf:li>
            <rdf:li>public domain</rdf:li>
            <rdf:li>svg</rdf:li>
          </rdf:Bag>
        </dc:subject>
      </cc:Work>
      <cc:License rdf:about="http://creativecommons.org/licenses/publicdomain/">
        <cc:permits rdf:resource="http://creativecommons.org/ns#Reproduction"/>
        <cc:permits rdf:resource="http://creativecommons.org/ns#Distribution"/>
        <cc:permits rdf:resource="http://creativecommons.org/ns#DerivativeWorks"/>
      </cc:License>
    </rdf:RDF>
  </metadata>
</svg>
