<?xml version="1.0" encoding="UTF-8" standalone="no"?>
<!-- Created with Inkscape (http://www.inkscape.org/) -->

<svg
   xmlns:dc="http://purl.org/dc/elements/1.1/"
   xmlns:cc="http://creativecommons.org/ns#"
   xmlns:rdf="http://www.w3.org/1999/02/22-rdf-syntax-ns#"
   xmlns:svg="http://www.w3.org/2000/svg"
   xmlns="http://www.w3.org/2000/svg"
   xmlns:sodipodi="http://sodipodi.sourceforge.net/DTD/sodipodi-0.dtd"
   xmlns:inkscape="http://www.inkscape.org/namespaces/inkscape"
   width="22.444777mm"
   height="36.395657mm"
   viewBox="0 0 79.528736 128.96099"
   id="svg5223"
   version="1.1"
   inkscape:version="0.91 r13725"
   sodipodi:docname="mix-and-match-characters32.svg">
  <defs
     id="defs5225">
    <filter
       style="color-interpolation-filters:sRGB"
       id="filter4468">
      <feGaussianBlur
         id="feGaussianBlur4470"
         stdDeviation="0.18874514" />
    </filter>
    <filter
       style="color-interpolation-filters:sRGB"
       id="filter4468-3">
      <feGaussianBlur
         id="feGaussianBlur4470-9"
         stdDeviation="0.18874514" />
    </filter>
    <filter
       style="color-interpolation-filters:sRGB"
       id="filter4468-9">
      <feGaussianBlur
         id="feGaussianBlur4470-1"
         stdDeviation="0.18874514" />
    </filter>
    <filter
       style="color-interpolation-filters:sRGB"
       id="filter4468-39">
      <feGaussianBlur
         id="feGaussianBlur4470-17"
         stdDeviation="0.18874514" />
    </filter>
  </defs>
  <sodipodi:namedview
     id="base"
     pagecolor="#ffffff"
     bordercolor="#666666"
     borderopacity="1.0"
     inkscape:pageopacity="0.0"
     inkscape:pageshadow="2"
     inkscape:zoom="2.8"
     inkscape:cx="4.9025012"
     inkscape:cy="59.004623"
     inkscape:document-units="px"
     inkscape:current-layer="g4275"
     showgrid="false"
     fit-margin-top="0"
     fit-margin-left="0"
     fit-margin-right="0"
     fit-margin-bottom="0"
     inkscape:window-width="1855"
     inkscape:window-height="1056"
     inkscape:window-x="1985"
     inkscape:window-y="24"
     inkscape:window-maximized="1" />
  <metadata
     id="metadata5228">
    <rdf:RDF>
      <cc:Work
         rdf:about="">
        <dc:format>image/svg+xml</dc:format>
        <dc:type
           rdf:resource="http://purl.org/dc/dcmitype/StillImage" />
        <dc:title></dc:title>
      </cc:Work>
    </rdf:RDF>
  </metadata>
  <g
     inkscape:label="Layer 1"
     inkscape:groupmode="layer"
     id="layer1"
     transform="translate(-186.31528,-374.39189)">
    <g
       transform="translate(247.3811,385.33246)"
       id="g4275">
      <path
         style="fill:#e4cfa3;fill-rule:evenodd;stroke:#000000;stroke-width:2.0000174;stroke-linecap:round;stroke-linejoin:round"
         inkscape:connector-curvature="0"
         d="m 13.347625,86.754612 c -1.58087,2.979894 -5.4170208,4.642074 -8.5683014,3.712574 -3.1512806,-0.9295 -4.42433075,-4.098673 -2.8434605,-7.078575 1.5808803,-2.979901 5.417031,-4.642078 8.5683119,-3.712579 3.15128,0.929498 4.42433,4.098678 2.84345,7.07858 z"
         id="path3954-8-5-3-0-1-4-1-0-3" />
      <path
         style="fill:#ff5034;stroke:#000000;stroke-width:1.59420002"
         inkscape:connector-curvature="0"
         d="M -5.4744282,85.453999 C -4.624068,88.0338 13.976575,82.116199 13.183575,79.158899 6.1179739,41.564894 -2.4614277,44.472895 -5.7194282,45.058895 c -4.9847018,3.52 -4.1068003,16.431002 0.24491,40.395004 z"
         id="path4553-8-2-8-8-9-0-6" />
      <rect
         style="fill:#9cb5cd;fill-rule:evenodd;stroke:#000000;stroke-width:1.91180003;stroke-linecap:round;stroke-linejoin:round"
         height="35.894043"
         x="-49.423046"
         y="78.323402"
         width="56.771011"
         transform="matrix(1,-7.6207995e-5,0.0014447,0.99999896,0,0)"
         ry="9.8779116"
         rx="27.897005"
         id="rect3252-6-7-2-7-1-6-3-5-6" />
      <path
         style="fill:#ffffff;stroke:#000000;stroke-width:1.26810002;stroke-linecap:round;stroke-linejoin:round"
         inkscape:connector-curvature="0"
         d="m -8.7444285,110.38399 -0.29,-11.389993"
         id="path3928-9-81-8-0-49-3-5-5" />
      <path
         style="fill:#ff5034;fill-rule:evenodd;stroke:#000000;stroke-width:1.91869998;stroke-linecap:round;stroke-linejoin:round"
         inkscape:connector-curvature="0"
         d="m -18.234431,35.573994 c -0.0992,-9.5e-4 -0.19888,9.6e-4 -0.29796,0.003 -0.0562,-0.003 -0.11251,-0.007 -0.16873,-0.009 -0.0867,-0.003 -0.17531,-0.005 -0.26226,-0.007 l 0,0.0234 c -6.655001,0.23316 -12.931002,4.3773 -17.209003,9.696001 -9.167502,11.323001 -12.969002,26.433003 -13.679003,41.003005 0.12644,3.744196 -0.6793,8.215997 0.69306,11.492997 5.220601,3.638503 14.585003,4.449603 20.957004,5.422603 1.694901,0.12208 4.389901,0.20891 7.316102,0.29619 l 0,0.01 c 0.30723,0.006 0.59945,0.0113 0.90233,0.0168 0.0301,0 0.0588,9.6e-4 0.0888,0.002 2.9272,0.0521 5.623501,0.0935 7.323001,0.0523 6.4183017,-0.66853 15.8160034,-1.033 21.2360043,-4.418203 1.5559007,-3.207 1.0043002,-7.711101 1.3424007,-11.443997 C 10.122315,73.130088 7.1806141,57.860086 -1.3336874,46.116085 -5.3049882,40.601084 -11.33869,36.163884 -17.971691,35.614084 l 0,-0.0328 c -0.0869,-0.002 -0.17537,-0.006 -0.26219,-0.007 z"
         id="path3932-5-3-3-6-1-5-5-0-2" />
      <g
         id="g5838"
         transform="translate(44.183336,82.641832)">
        <g
           id="g5291">
          <rect
             style="fill:#ffffff;fill-rule:evenodd;stroke:#000000;stroke-width:2;stroke-linecap:round;stroke-linejoin:bevel"
             id="rect4240-5-1-7"
             rx="33.5"
             ry="29"
             height="60"
             width="70"
             y="-91.464462"
             x="-101.73383" />
          <g
             id="g456-8-2-3-1"
             transform="matrix(0.4234,0,0,-0.44752,-67.85382,-53.93446)">
            <path
               style="fill:#231f20"
               inkscape:connector-curvature="0"
               id="path458-3-6-1-3"
               d="m 0,0 c 0,-2.958 -2.396,-5.355 -5.355,-5.355 -2.958,0 -5.356,2.397 -5.356,5.355 0,2.957 2.398,5.356 5.356,5.356 C -2.396,5.356 0,2.957 0,0" />
          </g>
          <g
             id="g456-1-7-4-0"
             transform="matrix(0.4234,0,0,-0.44752,-41.29382,-54.44446)">
            <path
               style="fill:#231f20"
               inkscape:connector-curvature="0"
               id="path458-9-9-8-4"
               d="m 0,0 c 0,-2.958 -2.396,-5.355 -5.355,-5.355 -2.958,0 -5.356,2.397 -5.356,5.355 0,2.957 2.398,5.356 5.356,5.356 C -2.396,5.356 0,2.957 0,0" />
          </g>
          <path
             style="fill:none;stroke:#000000;stroke-width:1.68570006;stroke-linecap:round;stroke-linejoin:round"
             inkscape:connector-curvature="0"
             id="path3831-18-3"
             d="m -59.95382,-41.63446 6.1713,0" />
          <path
             style="fill:none;stroke:#000000;stroke-width:1.95039999;stroke-linecap:round;stroke-linejoin:round"
             inkscape:connector-curvature="0"
             id="path4738-9-2-4-0-4"
             d="m -63.52382,-53.82446 c -0.2102,0.085 -10.669,-4.1944 -10.669,-4.1944" />
          <path
             style="fill:none;stroke:#000000;stroke-width:1.95039999;stroke-linecap:round;stroke-linejoin:round"
             inkscape:connector-curvature="0"
             id="path4738-9-2-4-0-7-33"
             d="m -38.27382,-60.00446 c -0.2102,-0.085 -10.669,4.1945 -10.669,4.1945" />
          <path
             style="fill:none;stroke:#000000;stroke-width:1.55079043;stroke-linecap:round;stroke-linejoin:round"
             inkscape:connector-curvature="0"
             id="path4494-63-0-5-8-1-1"
             d="m -93.865666,-55.928349 c -0.960774,0.869574 -2.659917,0.495532 -3.69763,-0.564345 -1.429643,-1.460155 -1.312711,-3.57318 -0.08241,-4.660088 0.716988,-0.633352 1.741616,-0.9078 2.805048,-0.803526" />
        </g>
        <path
           inkscape:connector-curvature="0"
           id="path5531"
           d="m -72.855264,-32.959505 c -7.841084,-1.088958 -14.454655,-4.272175 -19.689849,-9.47705 -6.790849,-6.751516 -9.378187,-15.509978 -7.383382,-24.993709 2.072426,-9.852778 10.764153,-18.352319 21.994587,-21.508258 4.394229,-1.234851 12.870224,-1.710988 17.575499,-0.9873 12.406641,1.908186 21.917099,8.869831 25.750759,18.849522 1.458717,3.797298 2.004496,11.295835 1.129082,15.512673 -0.695899,3.35212 -3.136808,8.403356 -5.336921,11.044263 -4.017345,4.822226 -10.763448,9.013115 -17.1292,10.641201 -4.099639,1.048514 -12.63631,1.512263 -16.910575,0.918658 z m 19.170272,-7.675184 c 0.402672,-0.154517 0.732126,-0.675219 0.732126,-1.157117 0,-0.790949 -0.382681,-0.876173 -3.934195,-0.876173 -3.568613,0 -3.934195,0.08243 -3.934195,0.887124 0,0.487915 0.260352,0.992177 0.578559,1.120575 0.836465,0.337521 5.695418,0.356484 6.557705,0.0256 l 0,-4e-6 z m -14.634376,-11.382788 c 0.305478,-0.305479 0.555415,-0.905778 0.555415,-1.333999 0,-0.701249 0.172398,-0.717059 1.735675,-0.159169 0.954621,0.340677 2.087873,0.628555 2.518339,0.639729 1.090375,0.0283 1.536045,-0.877681 0.776352,-1.578211 -0.94413,-0.870605 -11.496729,-4.944291 -12.000812,-4.632751 -0.995651,0.615346 -0.399751,2.018522 1.085275,2.555514 1.375122,0.497251 1.502868,0.699705 1.337157,2.119143 -0.100768,0.863154 0.07369,1.878922 0.387687,2.257265 0.686302,0.826943 2.831608,0.905782 3.604912,0.132479 z m 26.786619,-1.12226 c 0.752986,-1.149202 0.752783,-1.290109 -0.0037,-2.608345 -0.439875,-0.766434 -0.741198,-1.432176 -0.669605,-1.479427 0.07159,-0.04725 1.171567,-0.524884 2.444394,-1.061407 1.572938,-0.663025 2.314233,-1.245527 2.314233,-1.818498 0,-1.239957 -1.817742,-0.902381 -7.59171,1.409872 -3.876186,1.552265 -4.905145,2.153096 -4.905145,2.864227 0,0.952659 1.483881,1.170292 3.124214,0.458214 0.650896,-0.282557 0.809981,-0.121118 0.809981,0.821958 0,2.608274 3.061318,3.574653 4.477419,1.413406 l -7.8e-5,0 z m -51.663075,-2.286262 c 0.815713,-0.982874 0.05028,-1.680236 -1.476245,-1.344955 -0.816731,0.179384 -1.634217,0.07473 -2.038745,-0.260999 -0.825455,-0.685066 -0.895184,-3.176035 -0.09675,-3.456408 2.869589,-1.007674 3.09443,-1.158227 2.815456,-1.88522 -0.222004,-0.578536 -0.672855,-0.696578 -1.899951,-0.497448 -1.988688,0.32272 -3.2032,1.376411 -3.583794,3.109242 -0.769327,3.502696 4.151732,6.900233 6.280033,4.335788 z"
           style="fill:#e4cfa3;fill-opacity:1" />
      </g>
      <path
         style="fill:#473535;stroke:#000000;stroke-width:2"
         inkscape:connector-curvature="0"
         d="m 17.455575,111.38399 c 0,0 -1.5448,-7.30839 -11.1610011,-6.4511 -12.9350023,1.1533 -13.3050024,8.5187 -13.3050024,8.5187 -0.7582101,2.28161 25.1110045,0.91908 24.4660035,-2.0676 z"
         id="path4010-7-3-7-4-8-5-4-5-9" />
      <path
         style="fill:#e4cfa3;fill-rule:evenodd;stroke:#000000;stroke-width:2.00001311;stroke-linecap:round;stroke-linejoin:round"
         inkscape:connector-curvature="0"
         d="m -52.751158,94.100067 c 1.944721,2.75631 5.960122,3.92055 8.968692,2.6004 3.008571,-1.32015 3.870991,-4.624761 1.926271,-7.381081 -1.944711,-2.756308 -5.960121,-3.92055 -8.968692,-2.600398 -3.008571,1.320151 -3.870981,4.624758 -1.926271,7.381079 z"
         id="path3954-8-5-7-3-4-8-9-1" />
      <path
         style="fill:#473535;stroke:#000000;stroke-width:2"
         inkscape:connector-curvature="0"
         d="m -46.514436,113.79399 c 0,0 1.0852,-9.1626 14.886003,-8.543 18.565003,0.83347 20.211003,9.97801 20.211003,9.97801 1.4247015,2.8028 -35.560006,2.3101 -35.097006,-1.43501 z"
         id="path4010-1-9-2-6-6-6-8-1-7-3" />
      <path
         style="fill:#ff5034;stroke:#000000;stroke-width:1.74489999"
         inkscape:connector-curvature="0"
         d="m -38.644435,89.873996 c -0.79431,2.784 -22.238004,-2.017096 -21.534004,-5.194397 5.544401,-40.159004 15.447003,-37.756004 19.173004,-37.390004 6.022401,1.3034 5.722001,16.997002 2.3602,42.584001 z"
         id="path4553-7-9-8-3-7-1" />
      <path
         style="fill:#e7d687;fill-rule:evenodd;stroke:#5e3b08;stroke-width:0.82359093;stroke-linejoin:round"
         inkscape:connector-curvature="0"
         d="m 5.1469737,83.254808 c -0.4867501,0.664398 -5.77624105,-2.354055 -6.4301211,-1.879663 -0.6445002,0.467688 0.19943,6.725289 -0.5543801,6.947685 -0.7645902,0.225826 -3.4316307,-5.504408 -4.2282608,-5.535196 -0.7853501,-0.03036 -3.5425502,5.50093 -4.2825517,5.206245 -0.75037,-0.299001 0.22384,-6.55208 -0.41142,-7.076657 -0.6262,-0.516821 -5.931611,2.175678 -6.374701,1.476071 -0.44955,-0.709639 3.793731,-5.097323 3.562631,-5.914608 -0.22788,-0.805869 -6.054681,-1.980717 -6.032071,-2.817845 0.023,-0.849181 5.914671,-1.695416 6.175861,-2.493839 0.25751,-0.787087 -3.865191,-5.380368 -3.385281,-6.035315 0.48675,-0.664397 5.776231,2.354055 6.430111,1.879664 0.6445115,-0.467684 -0.19943,-6.725289 0.5543915,-6.947685 0.76458,-0.225822 3.4316201,5.504408 4.2282503,5.535196 0.7853501,0.03036 3.5425606,-5.500931 4.2825508,-5.206245 0.75038005,0.299001 -0.2238401,6.552079 0.41142995,7.076656 0.6261901,0.516822 5.93160115,-2.175677 6.37469125,-1.476076 0.44955,0.70964 -3.7937308,5.097324 -3.5626307,5.914608 0.22788,0.805869 6.0546811,1.980718 6.0320711,2.817846 -0.023,0.84918 -5.9146711,1.695415 -6.1758611,2.493839 -0.2575101,0.787087 3.8651907,5.380367 3.3852906,6.035314 z"
         id="path4026-4" />
      <g
         transform="translate(-401.0345,-459.76607)"
         id="g4333">
        <path
           style="fill:none;stroke:#000000;stroke-width:0.85228997;stroke-linecap:round;stroke-linejoin:round"
           inkscape:connector-curvature="0"
           d="m 394.18,534.8 c -2.3012,8.5427 8.8856,3.5184 4.9046,-0.45522"
           id="path4058-5" />
        <path
           inkscape:connector-curvature="0"
           d="m 211.8,444.06 c 0,1.2703 -0.53726,2.3 -1.2,2.3 -0.66275,0 -1.2,-1.0297 -1.2,-2.3 0,-1.2702 0.53725,-2.3 1.2,-2.3 0.66274,0 1.2,1.0297 1.2,2.3 z"
           transform="matrix(0.78229,-0.12507,0.14475,0.90542,165.22,154.47)"
           id="path4235-32" />
        <path
           inkscape:connector-curvature="0"
           d="m 211.8,444.06 c 0,1.2703 -0.53726,2.3 -1.2,2.3 -0.66275,0 -1.2,-1.0297 -1.2,-2.3 0,-1.2702 0.53725,-2.3 1.2,-2.3 0.66274,0 1.2,1.0297 1.2,2.3 z"
           transform="matrix(0.78229,-0.12507,0.14475,0.90542,167.98,154.67)"
           id="path4235-3-8" />
      </g>
      <path
         style="fill:#624808;filter:url(#filter4468-39)"
         inkscape:connector-curvature="0"
         d="m 348.6,482.76 c -1.1668,-5.7067 10.883,-19.568 38.8,-33.6 -9.1347,-0.99592 -19.011,0.23265 -30.8,7.2 -7.5575,7.7397 -11.36,16.665 -8.8,27.6"
         transform="matrix(0.78209014,0,0,0.91669011,-327.51649,-418.40807)"
         id="path4466" />
      <g
         style="fill:#4a2f2b;stroke:#000000;stroke-linecap:round;stroke-linejoin:round"
         transform="translate(-361.63449,-337.56606)"
         id="g4458">
        <path
           style="stroke-width:13.43500042"
           inkscape:connector-curvature="0"
           d="m -213.36,635.21 c -16.012,-9.545 -20.184,-31.021 -10.797,-46.673 11.003,-18.346 35.656,-23.109 53.602,-12.284 20.937,12.63 26.356,40.817 13.926,61.312 -14.439,23.808 -46.546,29.95 -69.866,15.735 -26.978,-16.445 -33.917,-52.887 -17.722,-79.327 18.663,-30.469 59.886,-38.284 89.764,-19.899 34.305,21.109 43.08,67.591 22.28,101.25 -3.987,6.4516 -8.9211,12.309 -14.585,17.352"
           transform="matrix(0.089135,0.013325,-0.013413,0.089724,358.4,282.24)"
           id="path3920-6-93-3-4-1-7-2-9-2-6-0-0" />
        <path
           style="stroke-width:13.43500042"
           inkscape:connector-curvature="0"
           d="m -213.36,635.21 c -16.012,-9.545 -20.184,-31.021 -10.797,-46.673 11.003,-18.346 35.656,-23.109 53.602,-12.284 20.937,12.63 26.356,40.817 13.926,61.312 -14.439,23.808 -46.546,29.95 -69.866,15.735 -26.978,-16.445 -33.917,-52.887 -17.722,-79.327 18.663,-30.469 59.886,-38.284 89.764,-19.899 34.305,21.109 43.08,67.591 22.28,101.25 -3.987,6.4516 -8.9211,12.309 -14.585,17.352"
           transform="matrix(0.089135,0.013325,-0.013413,0.089724,393.15,288.77)"
           id="path3920-7-7-5-27-8-9-3-5-7-9-7-2-9-6" />
        <path
           style="stroke-width:13.43500042"
           inkscape:connector-curvature="0"
           d="m -213.36,635.21 c -16.012,-9.545 -20.184,-31.021 -10.797,-46.673 11.003,-18.346 35.656,-23.109 53.602,-12.284 20.937,12.63 26.356,40.817 13.926,61.312 -14.439,23.808 -46.546,29.95 -69.866,15.735 -26.978,-16.445 -33.917,-52.887 -17.722,-79.327 18.663,-30.469 59.886,-38.284 89.764,-19.899 34.305,21.109 43.08,67.591 22.28,101.25 -3.987,6.4516 -8.9211,12.309 -14.585,17.352"
           transform="matrix(-0.10154,-0.015179,-0.015279,0.10221,348.65,270.82)"
           id="path3920-7-7-473-9-4-9-2-5-4-2-1-8-8" />
        <path
           style="stroke-width:17.17399979"
           inkscape:connector-curvature="0"
           d="m -213.36,635.21 c -16.012,-9.545 -20.184,-31.021 -10.797,-46.673 11.003,-18.346 35.656,-23.109 53.602,-12.284 20.937,12.63 26.356,40.817 13.926,61.312 -14.439,23.808 -46.546,29.95 -69.866,15.735 -26.978,-16.445 -33.917,-52.887 -17.722,-79.327 18.663,-30.469 59.886,-38.284 89.764,-19.899 34.305,21.109 43.08,67.591 22.28,101.25 -3.987,6.4516 -8.9211,12.309 -14.585,17.352"
           transform="matrix(0.074938,0.011203,-0.0097641,0.065315,343.63,300.08)"
           id="path3920-7-6-47-3-3-9-9-4-5-3-3-4-2-5" />
        <path
           style="stroke-width:13.43500042"
           inkscape:connector-curvature="0"
           d="m -213.36,635.21 c -16.012,-9.545 -20.184,-31.021 -10.797,-46.673 11.003,-18.346 35.656,-23.109 53.602,-12.284 20.937,12.63 26.356,40.817 13.926,61.312 -14.439,23.808 -46.546,29.95 -69.866,15.735 -26.978,-16.445 -33.917,-52.887 -17.722,-79.327 18.663,-30.469 59.886,-38.284 89.764,-19.899 34.305,21.109 43.08,67.591 22.28,101.25 -3.987,6.4516 -8.9211,12.309 -14.585,17.352"
           transform="matrix(0.099287,0.014843,-0.014941,0.099944,373.45,275.8)"
           id="path3920-7-7-50-9-4-5-7-3-1-5-7-6-2-2" />
        <path
           style="stroke-width:17.17399979"
           inkscape:connector-curvature="0"
           d="m -213.36,635.21 c -16.012,-9.545 -20.184,-31.021 -10.797,-46.673 11.003,-18.346 35.656,-23.109 53.602,-12.284 20.937,12.63 26.356,40.817 13.926,61.312 -14.439,23.808 -46.546,29.95 -69.866,15.735 -26.978,-16.445 -33.917,-52.887 -17.722,-79.327 18.663,-30.469 59.886,-38.284 89.764,-19.899 34.305,21.109 43.08,67.591 22.28,101.25 -3.987,6.4516 -8.9211,12.309 -14.585,17.352"
           transform="matrix(0.056979,0.0085179,-0.0074241,0.049662,334.67,314.56)"
           id="path3920-7-6-47-3-3-9-9-4-5-3-3-0-8-3-9" />
      </g>
    </g>
  </g>
</svg>
