<?xml version="1.0"?>
<svg xmlns:rdf="http://www.w3.org/1999/02/22-rdf-syntax-ns#" xmlns="http://www.w3.org/2000/svg" xmlns:cc="http://web.resource.org/cc/" xmlns:xlink="http://www.w3.org/1999/xlink" xmlns:dc="http://purl.org/dc/elements/1.1/" xmlns:svg="http://www.w3.org/2000/svg" id="svg1350" height="6.1cm" width="10.15cm">
  <rect id="rect2081" fill-rule="evenodd" height="215.83" width="359.49" y=".23885" x=".1092" fill="#ffd700"/>
  <g id="g916" fill-rule="evenodd" transform="matrix(.5 0 0 .5 179.44 108.13)">
    <rect id="rect625" height="215.71" width="361.29" y=".61842" x=".34703" fill="#009"/>
    <g id="g897" stroke="#000" fill="#ffd700" transform="translate(-14.621 -1.8966)">
      <path id="path628" d="m128.29 96.943c11.19-4.432 16.71-11.14 17.3-20.611 0.38-5.694-5.3-12.371-11.39-12.526-19-0.514-25.36 30.472-25.24 38.034 0.8 0 4.75-0.08 5.73-0.04 0.87-4.778 0.13-10.629 6.2-15.564 6.07-4.934 8.76-1.174 9.52 1.862 0.76 3.037-2.81 9.154-2.12 8.845z" stroke-width="1.2875" transform="translate(-1.875,-6.09e-6)"/>
      <path id="path629" d="m77.526 96.943c-11.198-4.432-16.711-11.141-17.302-20.611-0.38-5.694 5.303-12.371 11.386-12.526 19.006-0.514 25.36 30.472 25.245 38.034-0.802 0-4.756-0.08-5.736-0.04-0.867-4.778-0.123-10.629-6.196-15.564-6.073-4.934-8.758-1.174-9.517 1.862-0.759 3.037 2.803 9.154 2.12 8.845z" stroke-width="1.2875" transform="translate(-1.875,-6.09e-6)"/>
      <path id="path630" d="m103.06 27.664c12.92 13.428 16.39 27.086 7.78 48.964-2.96 7.307-4.21 16.075-4.09 25.192-1.25 0.03-6.57-0.03-7.829-0.12 0.111-9.007-1.382-18.482-4.325-25.911-9.971-22.342-2.785-37.497 8.124-48.125h0.34z" stroke-width="1.2875" transform="translate(-1.875,-6.09e-6)"/>
      <path id="path631" d="m109.85 106.98c2.64 7.05 7.31 9.72 11.12 11.59-5.81 2.75-12.53-0.24-13.79-1.66 0.15 1.99 0.31 7.37-0.42 11-0.49 2.93-1.74 4.61-3.84 6.95-2.18-2.28-3.525-4.12-4.251-6.72-0.883-3.76 0.051-9.1-0.027-11.1-1.008 1.24-9.05 4.23-14.342 1.63 4.927-2.14 9.701-4.64 11.255-11.82 0.576 0.03 12.845 0.02 14.295 0.02v0.11z" stroke-width="1.2875" transform="translate(-1.875,-6.09e-6)"/>
      <rect id="rect639" transform="translate(-1.875,-6.09e-6)" height="4.5518" width="30.6" y="102.03" x="87.443" stroke-width="1.1786"/>
    </g>
    <g id="g903" stroke="#000" fill="#ffd700" transform="translate(14.129 -1.6294)">
      <path id="path614" d="m289.32 96.943c11.2-4.432 16.71-11.14 17.3-20.611 0.38-5.694-5.3-12.371-11.38-12.526-19.01-0.514-25.36 30.472-25.25 38.034 0.8 0 4.76-0.08 5.74-0.04 0.87-4.778 0.12-10.629 6.19-15.564 6.08-4.934 8.76-1.174 9.52 1.862 0.76 3.037-2.8 9.154-2.12 8.845z" stroke-width="1.2875" transform="translate(-1.875,-6.09e-6)"/>
      <path id="path615" d="m238.56 96.943c-11.2-4.432-16.71-11.141-17.3-20.611-0.38-5.694 5.3-12.371 11.39-12.526 19-0.514 25.36 30.472 25.24 38.034-0.8 0-4.76-0.08-5.74-0.04-0.86-4.778-0.12-10.629-6.19-15.564-6.07-4.934-8.76-1.174-9.52 1.862-0.76 3.037 2.8 9.154 2.12 8.845z" stroke-width="1.2875" transform="translate(-1.875,-6.09e-6)"/>
      <path id="path616" d="m264.1 27.664c12.91 13.428 16.38 27.086 7.77 48.964-2.95 7.307-4.2 16.075-4.08 25.192-1.25 0.03-6.57-0.03-7.83-0.12 0.11-9.007-1.39-18.482-4.33-25.911-9.97-22.342-2.78-37.497 8.13-48.125h0.34z" stroke-width="1.2875" transform="translate(-1.875,-6.09e-6)"/>
      <path id="path617" d="m270.88 106.98c2.65 7.05 7.31 9.72 11.13 11.59-5.81 2.75-12.53-0.24-13.8-1.66 0.15 1.99 0.31 7.37-0.41 11-0.5 2.93-1.74 4.61-3.84 6.95-2.18-2.28-3.53-4.12-4.26-6.72-0.88-3.76 0.06-9.1-0.02-11.1-1.01 1.24-9.05 4.23-14.34 1.63 4.92-2.14 9.7-4.64 11.25-11.82 0.58 0.03 12.84 0.02 14.29 0.02v0.11z" stroke-width="1.2875" transform="translate(-1.875,-6.09e-6)"/>
      <rect id="rect618" transform="translate(-1.875,-6.09e-6)" height="4.5518" width="30.6" y="102.03" x="248.48" stroke-width="1.1786"/>
    </g>
    <g id="g909" stroke="#000" fill="#ffd700" transform="translate(0 13.75)">
      <path id="path619" d="m208.8 151.7c11.2-4.44 16.71-11.15 17.31-20.62 0.38-5.69-5.31-12.37-11.39-12.52-19.01-0.52-25.36 30.47-25.25 38.03 0.81 0 4.76-0.08 5.74-0.04 0.87-4.78 0.12-10.63 6.2-15.56 6.07-4.94 8.75-1.18 9.51 1.86s-2.8 9.15-2.12 8.85z" stroke-width="1.2875" transform="translate(-1.875,-6.09e-6)"/>
      <path id="path620" d="m158.04 151.7c-11.19-4.44-16.71-11.15-17.3-20.62-0.38-5.69 5.3-12.37 11.39-12.52 19-0.52 25.36 30.47 25.24 38.03-0.8 0-4.75-0.08-5.73-0.04-0.87-4.78-0.13-10.63-6.2-15.56-6.07-4.94-8.76-1.18-9.52 1.86s2.81 9.15 2.12 8.85z" stroke-width="1.2875" transform="translate(-1.875,-6.09e-6)"/>
      <path id="path621" d="m183.58 82.416c12.92 13.428 16.38 27.084 7.77 48.964-2.95 7.31-4.2 16.08-4.08 25.19-1.25 0.03-6.57-0.03-7.83-0.12 0.11-9.01-1.38-18.48-4.33-25.91-9.97-22.34-2.78-37.496 8.13-48.124h0.34z" stroke-width="1.2875" transform="translate(-1.875,-6.09e-6)"/>
      <path id="path622" d="m190.37 161.73c2.64 7.06 7.31 9.72 11.12 11.59-5.81 2.75-12.53-0.24-13.8-1.66 0.16 1.99 0.31 7.37-0.41 11-0.49 2.93-1.74 4.62-3.84 6.95-2.18-2.28-3.53-4.12-4.25-6.71-0.89-3.77 0.05-9.11-0.03-11.11-1.01 1.24-9.05 4.23-14.34 1.63 4.92-2.14 9.7-4.64 11.25-11.82 0.58 0.03 12.84 0.03 14.3 0.03v0.1z" stroke-width="1.2875" transform="translate(-1.875,-6.09e-6)"/>
      <rect id="rect623" transform="translate(-1.875,-6.09e-6)" height="4.5518" width="30.6" y="156.78" x="167.96" stroke-width="1.1786"/>
    </g>
  </g>
  <g id="g5486" fill-rule="evenodd" transform="matrix(.5 0 0 .5 -.10930 .37353)">
    <rect id="rect5487" height="215.71" width="361.29" y=".61842" x=".34703" fill="#009"/>
    <g id="g5488" stroke="#000" fill="#ffd700" transform="translate(-14.621 -1.8966)">
      <path id="path5489" d="m128.29 96.943c11.19-4.432 16.71-11.14 17.3-20.611 0.38-5.694-5.3-12.371-11.39-12.526-19-0.514-25.36 30.472-25.24 38.034 0.8 0 4.75-0.08 5.73-0.04 0.87-4.778 0.13-10.629 6.2-15.564 6.07-4.934 8.76-1.174 9.52 1.862 0.76 3.037-2.81 9.154-2.12 8.845z" stroke-width="1.2875" transform="translate(-1.875,-6.09e-6)"/>
      <path id="path5490" d="m77.526 96.943c-11.198-4.432-16.711-11.141-17.302-20.611-0.38-5.694 5.303-12.371 11.386-12.526 19.006-0.514 25.36 30.472 25.245 38.034-0.802 0-4.756-0.08-5.736-0.04-0.867-4.778-0.123-10.629-6.196-15.564-6.073-4.934-8.758-1.174-9.517 1.862-0.759 3.037 2.803 9.154 2.12 8.845z" stroke-width="1.2875" transform="translate(-1.875,-6.09e-6)"/>
      <path id="path5491" d="m103.06 27.664c12.92 13.428 16.39 27.086 7.78 48.964-2.96 7.307-4.21 16.075-4.09 25.192-1.25 0.03-6.57-0.03-7.829-0.12 0.111-9.007-1.382-18.482-4.325-25.911-9.971-22.342-2.785-37.497 8.124-48.125h0.34z" stroke-width="1.2875" transform="translate(-1.875,-6.09e-6)"/>
      <path id="path5492" d="m109.85 106.98c2.64 7.05 7.31 9.72 11.12 11.59-5.81 2.75-12.53-0.24-13.79-1.66 0.15 1.99 0.31 7.37-0.42 11-0.49 2.93-1.74 4.61-3.84 6.95-2.18-2.28-3.525-4.12-4.251-6.72-0.883-3.76 0.051-9.1-0.027-11.1-1.008 1.24-9.05 4.23-14.342 1.63 4.927-2.14 9.701-4.64 11.255-11.82 0.576 0.03 12.845 0.02 14.295 0.02v0.11z" stroke-width="1.2875" transform="translate(-1.875,-6.09e-6)"/>
      <rect id="rect5493" transform="translate(-1.875,-6.09e-6)" height="4.5518" width="30.6" y="102.03" x="87.443" stroke-width="1.1786"/>
    </g>
    <g id="g5494" stroke="#000" fill="#ffd700" transform="translate(14.129 -1.6294)">
      <path id="path5495" d="m289.32 96.943c11.2-4.432 16.71-11.14 17.3-20.611 0.38-5.694-5.3-12.371-11.38-12.526-19.01-0.514-25.36 30.472-25.25 38.034 0.8 0 4.76-0.08 5.74-0.04 0.87-4.778 0.12-10.629 6.19-15.564 6.08-4.934 8.76-1.174 9.52 1.862 0.76 3.037-2.8 9.154-2.12 8.845z" stroke-width="1.2875" transform="translate(-1.875,-6.09e-6)"/>
      <path id="path5496" d="m238.56 96.943c-11.2-4.432-16.71-11.141-17.3-20.611-0.38-5.694 5.3-12.371 11.39-12.526 19-0.514 25.36 30.472 25.24 38.034-0.8 0-4.76-0.08-5.74-0.04-0.86-4.778-0.12-10.629-6.19-15.564-6.07-4.934-8.76-1.174-9.52 1.862-0.76 3.037 2.8 9.154 2.12 8.845z" stroke-width="1.2875" transform="translate(-1.875,-6.09e-6)"/>
      <path id="path5497" d="m264.1 27.664c12.91 13.428 16.38 27.086 7.77 48.964-2.95 7.307-4.2 16.075-4.08 25.192-1.25 0.03-6.57-0.03-7.83-0.12 0.11-9.007-1.39-18.482-4.33-25.911-9.97-22.342-2.78-37.497 8.13-48.125h0.34z" stroke-width="1.2875" transform="translate(-1.875,-6.09e-6)"/>
      <path id="path5498" d="m270.88 106.98c2.65 7.05 7.31 9.72 11.13 11.59-5.81 2.75-12.53-0.24-13.8-1.66 0.15 1.99 0.31 7.37-0.41 11-0.5 2.93-1.74 4.61-3.84 6.95-2.18-2.28-3.53-4.12-4.26-6.72-0.88-3.76 0.06-9.1-0.02-11.1-1.01 1.24-9.05 4.23-14.34 1.63 4.92-2.14 9.7-4.64 11.25-11.82 0.58 0.03 12.84 0.02 14.29 0.02v0.11z" stroke-width="1.2875" transform="translate(-1.875,-6.09e-6)"/>
      <rect id="rect5499" transform="translate(-1.875,-6.09e-6)" height="4.5518" width="30.6" y="102.03" x="248.48" stroke-width="1.1786"/>
    </g>
    <g id="g5500" stroke="#000" fill="#ffd700" transform="translate(0 13.75)">
      <path id="path5501" d="m208.8 151.7c11.2-4.44 16.71-11.15 17.31-20.62 0.38-5.69-5.31-12.37-11.39-12.52-19.01-0.52-25.36 30.47-25.25 38.03 0.81 0 4.76-0.08 5.74-0.04 0.87-4.78 0.12-10.63 6.2-15.56 6.07-4.94 8.75-1.18 9.51 1.86s-2.8 9.15-2.12 8.85z" stroke-width="1.2875" transform="translate(-1.875,-6.09e-6)"/>
      <path id="path5502" d="m158.04 151.7c-11.19-4.44-16.71-11.15-17.3-20.62-0.38-5.69 5.3-12.37 11.39-12.52 19-0.52 25.36 30.47 25.24 38.03-0.8 0-4.75-0.08-5.73-0.04-0.87-4.78-0.13-10.63-6.2-15.56-6.07-4.94-8.76-1.18-9.52 1.86s2.81 9.15 2.12 8.85z" stroke-width="1.2875" transform="translate(-1.875,-6.09e-6)"/>
      <path id="path5503" d="m183.58 82.416c12.92 13.428 16.38 27.084 7.77 48.964-2.95 7.31-4.2 16.08-4.08 25.19-1.25 0.03-6.57-0.03-7.83-0.12 0.11-9.01-1.38-18.48-4.33-25.91-9.97-22.34-2.78-37.496 8.13-48.124h0.34z" stroke-width="1.2875" transform="translate(-1.875,-6.09e-6)"/>
      <path id="path5504" d="m190.37 161.73c2.64 7.06 7.31 9.72 11.12 11.59-5.81 2.75-12.53-0.24-13.8-1.66 0.16 1.99 0.31 7.37-0.41 11-0.49 2.93-1.74 4.62-3.84 6.95-2.18-2.28-3.53-4.12-4.25-6.71-0.89-3.77 0.05-9.11-0.03-11.11-1.01 1.24-9.05 4.23-14.34 1.63 4.92-2.14 9.7-4.64 11.25-11.82 0.58 0.03 12.84 0.03 14.3 0.03v0.1z" stroke-width="1.2875" transform="translate(-1.875,-6.09e-6)"/>
      <rect id="rect5505" transform="translate(-1.875,-6.09e-6)" height="4.5518" width="30.6" y="156.78" x="167.96" stroke-width="1.1786"/>
    </g>
  </g>
  <g id="g2039" transform="translate(7.5 237.5)">
    <path id="path2032" d="m67.396-95.869c3.094 2.43 8.614 4.347 4.857 8.766 3.315 0.442 4.645-2.8 4.645-5.231 0-2.43-9.281-3.314-9.502-3.535z" fill-rule="evenodd" stroke="#000" stroke-width=".625" fill="#d70000"/>
    <path id="path2018" d="m71.216-44.392c36.904-12.418 23.823-55.249-7.857-51.194-2.449 0.239-4.325 0.655-6.082 1.774-2.788 1.298-7.222 1.708-7.857 0.253 0.46-0.948 2.907-1.848 2.788-3.294-2.09-0.999-5.486-2.221-4.815-6.087 6.04 1.09 7.856-3.54 7.603-6.08-0.254-1.7-1.774-6.08 9.631-10.14 20.275-4.56 46.633 2.79 50.683 37.513 1.52 23.823-17.23 32.186-22.298 35.988-5.069 3.801-10.898 6.589-13.686 14.699-1.014-7.096-4.815-10.898-8.11-13.432z" fill-rule="evenodd" stroke="#000" stroke-width=".625" fill="#0000d7"/>
    <path id="path2019" d="m54.801-106.48c1.768 1.55 4.64 2.87 7.292-1.76 2.651-3.76 6.42-0.22 6.42-0.22" stroke="#000" stroke-width=".625" fill="none"/>
    <path id="path2020" d="m64.746-104.54c3.535 6.192 11.526 6.161 20.187 5.303" stroke="#000" stroke-width=".625" fill="none"/>
    <path id="path2021" d="m86.625-102.2c25.945 7.074 22.705 38.231 6.024 50.384" stroke="#000" stroke-width="1.9199" fill="none"/>
    <path id="path2022" d="m84.632-45.488c-10.828 2.652-21.655 0.884-29.831-13.479-2.873-5.303-9.539-4.912-9.92-1.403 4.409-3.808 6.544 3.077 6.044 5.675-5.249 0.076-6.514 1.749-9 3.653 1.803 0.022 4.996-1.435 9.119 4.007 4.824 6.025 11.491 6.458 13.7 6.458 2.652 0.221 3.681 0.7 6.923-0.602-1.867 2.652-8.984 3.791-12.447 1.292-0.948 3.68 2.276 2.786 8.397 5.89 4.299 2.506 7.37 6.871 11.933 8.839 4.556 1.874 7.86 1.567 12.5-2.41-10.164 2.21-16.699-2.673-7.418-17.92z" fill-rule="evenodd" stroke="#000" stroke-width=".625" fill="#d70000"/>
    <path id="path2023" d="m108.72-58.967c-2.65 6.85-6 14.443-1.14 19.526-6.41 0.221-11.02-6.336-11.02-8.767 2.431-1.546 9.51-6.782 12.16-10.759z" fill-rule="evenodd" stroke="#000" stroke-width=".625" fill="#d70000"/>
    <path id="path2024" d="m93.692-68.69c-3.094 8.176-6.417 9.944-13.046 9.944 3.536 1.768 5.312 2.21 4.207 6.629 4.419-3.756 8.839-10.828 8.839-16.573z" fill-rule="evenodd" stroke="#000" stroke-width=".625" fill="#d70000"/>
    <path id="path2025" d="m89.714-111.56c1.547 1.11 1.989 2.65 1.768 5.53 2.431-3.98 5.303-4.2 7.513-1.77 0.221-2.65 3.095-2.87 5.085-1.33" stroke="#000" stroke-width=".625" fill="none"/>
    <path id="path2026" d="m79.991-95.206c7.072 0.884 11.933 6.408 13.259 9.28" stroke="#000" stroke-width=".625" fill="none"/>
    <path id="path2028" d="m92.145-117.52c4.419-0.45 9.805-0.75 13.925-4.2-0.89 3.31-4.35 4.71-5.45 6.7 1.32 0.22 4.56 0.37 5.45-0.07 2.21-0.45 5.08-1.99 7.95-3.1 2.87-1.1 5.31-2.06 7.52-0.29-4.64 0.44-9.14 4.2-6.41 8.47-3.54-0.66-7.36 1.63-7.14 6.49-1.99-4.42-12.752-13.34-15.624-13.78l-0.221-0.22z" fill-rule="evenodd" stroke="#000" stroke-width=".625" fill="#d70000"/>
    <path id="path2029" d="m112.92-92.776c3.09 4.42 8.17 10.165 9.94 10.828-4.64 0.884-5.96 3.909-2.65 10.165-2.43-2.21-3.54-3.094-5.08-1.547 1.32-3.536-2.43-19.667-2.21-19.446z" fill-rule="evenodd" stroke="#000" stroke-width=".625" fill="#d70000"/>
    <path id="path2030" d="m52.513-97.299c9.566-5.291 12.05 0.691-0.039 1.156-0.209-0.324-0.078-0.74-0.078-0.96l0.117-0.196z" fill-rule="evenodd" stroke="#000" stroke-width=".625" fill="#d70000"/>
    <path id="path2031" d="m67.617-100.73c3.978 2.872 9.723 2.43 12.816 2.209 3.094-0.221-0.663 1.326-0.663 3.315 0 1.988 0.573 2.932 1.326 4.64 0.87 1.972 0.519 4.942-2.282 6.561 1.398-4.343-3.242-8.329-5.01-9.654-2.095-1.31-6.187-7.291-6.187-7.071z" fill-rule="evenodd" stroke="#000" stroke-width=".625" fill="#d70000"/>
    <path id="path2033" d="m66.512-105.26a1.9887 1.8782 0 1 0 -3.977 0 1.9887 1.8782 0 1 0 3.977 0z" fill="#fff" transform="matrix(.81 0 0 .81 11.597 -20.662)" fill-rule="evenodd"/>
    <path id="path2034" d="m51.016-55.781c0.43 1.329 1.178 1.811 2.155 3.209-1.295-0.296-2.706-1.588-3.416-1.807" stroke="#000" stroke-width=".625" fill="none"/>
    <path id="path2035" d="m70.716-31.786c2.023-0.425 1.973-0.838 2.452-1.148-0.093 0.698-1.366 1.044-0.785 2.644" stroke="#000" stroke-width=".625" fill="none"/>
    <path id="path2036" d="m59.22-99.456c1.583-0.52 3.164 0.694 3.99 1.52 1.057 1.008 3.13 1.779 4.616 2.119" stroke="#000" stroke-width=".625" fill="none"/>
    <path id="path2037" d="m77.357-120.12c3.536-1.77 5.434-3.24 6.097-4.56 0.663 1.54-0.442 3.09-0.442 4.41 2.652 0 6.85-1.98 7.734-2.87 1.989 1.55 0.793 4.93 0.286 5.94" fill-rule="evenodd" stroke="#000" stroke-width=".625" fill="#0000d7"/>
    <path id="path2038" d="m99.972-112.24c3.438 1.25 4.408 0.57 6.908-0.37-1.57 2.5-3.13 2.81-5.32 2.19" stroke="#000" stroke-width=".75" fill="none"/>
  </g>
  <g id="g2060" transform="translate(191.25,128.75)">
    <path id="path2061" d="m67.396-95.869c3.094 2.43 8.614 4.347 4.857 8.766 3.315 0.442 4.645-2.8 4.645-5.231 0-2.43-9.281-3.314-9.502-3.535z" fill-rule="evenodd" stroke="#000" stroke-width=".625" fill="#d70000"/>
    <path id="path2062" d="m71.216-44.392c36.904-12.418 23.823-55.249-7.857-51.194-2.449 0.239-4.325 0.655-6.082 1.774-2.788 1.298-7.222 1.708-7.857 0.253 0.46-0.948 2.907-1.848 2.788-3.294-2.09-0.999-5.486-2.221-4.815-6.087 6.04 1.09 7.856-3.54 7.603-6.08-0.254-1.7-1.774-6.08 9.631-10.14 20.275-4.56 46.633 2.79 50.683 37.513 1.52 23.823-17.23 32.186-22.298 35.988-5.069 3.801-10.898 6.589-13.686 14.699-1.014-7.096-4.815-10.898-8.11-13.432z" fill-rule="evenodd" stroke="#000" stroke-width=".625" fill="#0000d7"/>
    <path id="path2063" d="m54.801-106.48c1.768 1.55 4.64 2.87 7.292-1.76 2.651-3.76 6.42-0.22 6.42-0.22" stroke="#000" stroke-width=".625" fill="none"/>
    <path id="path2064" d="m64.746-104.54c3.535 6.192 11.526 6.161 20.187 5.303" stroke="#000" stroke-width=".625" fill="none"/>
    <path id="path2065" d="m86.625-102.2c25.945 7.074 22.705 38.231 6.024 50.384" stroke="#000" stroke-width="1.9199" fill="none"/>
    <path id="path2066" d="m84.632-45.488c-10.828 2.652-21.655 0.884-29.831-13.479-2.873-5.303-9.539-4.912-9.92-1.403 4.409-3.808 6.544 3.077 6.044 5.675-5.249 0.076-6.514 1.749-9 3.653 1.803 0.022 4.996-1.435 9.119 4.007 4.824 6.025 11.491 6.458 13.7 6.458 2.652 0.221 3.681 0.7 6.923-0.602-1.867 2.652-8.984 3.791-12.447 1.292-0.948 3.68 2.276 2.786 8.397 5.89 4.299 2.506 7.37 6.871 11.933 8.839 4.556 1.874 7.86 1.567 12.5-2.41-10.164 2.21-16.699-2.673-7.418-17.92z" fill-rule="evenodd" stroke="#000" stroke-width=".625" fill="#d70000"/>
    <path id="path2067" d="m108.72-58.967c-2.65 6.85-6 14.443-1.14 19.526-6.41 0.221-11.02-6.336-11.02-8.767 2.431-1.546 9.51-6.782 12.16-10.759z" fill-rule="evenodd" stroke="#000" stroke-width=".625" fill="#d70000"/>
    <path id="path2068" d="m93.692-68.69c-3.094 8.176-6.417 9.944-13.046 9.944 3.536 1.768 5.312 2.21 4.207 6.629 4.419-3.756 8.839-10.828 8.839-16.573z" fill-rule="evenodd" stroke="#000" stroke-width=".625" fill="#d70000"/>
    <path id="path2069" d="m89.714-111.56c1.547 1.11 1.989 2.65 1.768 5.53 2.431-3.98 5.303-4.2 7.513-1.77 0.221-2.65 3.095-2.87 5.085-1.33" stroke="#000" stroke-width=".625" fill="none"/>
    <path id="path2070" d="m79.991-95.206c7.072 0.884 11.933 6.408 13.259 9.28" stroke="#000" stroke-width=".625" fill="none"/>
    <path id="path2071" d="m92.145-117.52c4.419-0.45 9.805-0.75 13.925-4.2-0.89 3.31-4.35 4.71-5.45 6.7 1.32 0.22 4.56 0.37 5.45-0.07 2.21-0.45 5.08-1.99 7.95-3.1 2.87-1.1 5.31-2.06 7.52-0.29-4.64 0.44-9.14 4.2-6.41 8.47-3.54-0.66-7.36 1.63-7.14 6.49-1.99-4.42-12.752-13.34-15.624-13.78l-0.221-0.22z" fill-rule="evenodd" stroke="#000" stroke-width=".625" fill="#d70000"/>
    <path id="path2072" d="m112.92-92.776c3.09 4.42 8.17 10.165 9.94 10.828-4.64 0.884-5.96 3.909-2.65 10.165-2.43-2.21-3.54-3.094-5.08-1.547 1.32-3.536-2.43-19.667-2.21-19.446z" fill-rule="evenodd" stroke="#000" stroke-width=".625" fill="#d70000"/>
    <path id="path2073" d="m52.513-97.299c9.566-5.291 12.05 0.691-0.039 1.156-0.209-0.324-0.078-0.74-0.078-0.96l0.117-0.196z" fill-rule="evenodd" stroke="#000" stroke-width=".625" fill="#d70000"/>
    <path id="path2074" d="m67.617-100.73c3.978 2.872 9.723 2.43 12.816 2.209 3.094-0.221-0.663 1.326-0.663 3.315 0 1.988 0.573 2.932 1.326 4.64 0.87 1.972 0.519 4.942-2.282 6.561 1.398-4.343-3.242-8.329-5.01-9.654-2.095-1.31-6.187-7.291-6.187-7.071z" fill-rule="evenodd" stroke="#000" stroke-width=".625" fill="#d70000"/>
    <path id="path2075" d="m66.512-105.26a1.9887 1.8782 0 1 0 -3.977 0 1.9887 1.8782 0 1 0 3.977 0z" fill="#fff" transform="matrix(.81 0 0 .81 11.597 -20.662)" fill-rule="evenodd"/>
    <path id="path2076" d="m51.016-55.781c0.43 1.329 1.178 1.811 2.155 3.209-1.295-0.296-2.706-1.588-3.416-1.807" stroke="#000" stroke-width=".625" fill="none"/>
    <path id="path2077" d="m70.716-31.786c2.023-0.425 1.973-0.838 2.452-1.148-0.093 0.698-1.366 1.044-0.785 2.644" stroke="#000" stroke-width=".625" fill="none"/>
    <path id="path2078" d="m59.22-99.456c1.583-0.52 3.164 0.694 3.99 1.52 1.057 1.008 3.13 1.779 4.616 2.119" stroke="#000" stroke-width=".625" fill="none"/>
    <path id="path2079" d="m77.357-120.12c3.536-1.77 5.434-3.24 6.097-4.56 0.663 1.54-0.442 3.09-0.442 4.41 2.652 0 6.85-1.98 7.734-2.87 1.989 1.55 0.793 4.93 0.286 5.94" fill-rule="evenodd" stroke="#000" stroke-width=".625" fill="#0000d7"/>
    <path id="path2080" d="m99.972-112.24c3.438 1.25 4.408 0.57 6.908-0.37-1.57 2.5-3.13 2.81-5.32 2.19" stroke="#000" stroke-width=".75" fill="none"/>
  </g>
  <metadata>
    <rdf:RDF>
      <cc:Work>
        <dc:format>image/svg+xml</dc:format>
        <dc:type rdf:resource="http://purl.org/dc/dcmitype/StillImage"/>
        <cc:license rdf:resource="http://creativecommons.org/licenses/publicdomain/"/>
        <dc:publisher>
          <cc:Agent rdf:about="http://openclipart.org/">
            <dc:title>Openclipart</dc:title>
          </cc:Agent>
        </dc:publisher>
        <dc:title>france dauphine</dc:title>
        <dc:date>2010-05-19T03:01:30</dc:date>
        <dc:description>originally uploaded by Patricia Fidi from OCAL 0.18</dc:description>
        <dc:source>http://openclipart.org/detail/60949/france-dauphine-by-anonymous</dc:source>
        <dc:creator>
          <cc:Agent>
            <dc:title>Anonymous</dc:title>
          </cc:Agent>
        </dc:creator>
        <dc:subject>
          <rdf:Bag>
            <rdf:li>clip art</rdf:li>
            <rdf:li>clipart</rdf:li>
            <rdf:li>dauphine</rdf:li>
            <rdf:li>europe</rdf:li>
            <rdf:li>flag</rdf:li>
            <rdf:li>france</rdf:li>
          </rdf:Bag>
        </dc:subject>
      </cc:Work>
      <cc:License rdf:about="http://creativecommons.org/licenses/publicdomain/">
        <cc:permits rdf:resource="http://creativecommons.org/ns#Reproduction"/>
        <cc:permits rdf:resource="http://creativecommons.org/ns#Distribution"/>
        <cc:permits rdf:resource="http://creativecommons.org/ns#DerivativeWorks"/>
      </cc:License>
    </rdf:RDF>
  </metadata>
</svg>
