<?xml version="1.0" encoding="UTF-8" standalone="no"?>
<!-- Created with Inkscape (http://www.inkscape.org/) -->
<!-- ClipArt by Arvin61r58 (http://openclipart.org/user-detail/Arvin61r58) -->

<svg
   xmlns:dc="http://purl.org/dc/elements/1.1/"
   xmlns:cc="http://creativecommons.org/ns#"
   xmlns:rdf="http://www.w3.org/1999/02/22-rdf-syntax-ns#"
   xmlns:svg="http://www.w3.org/2000/svg"
   xmlns="http://www.w3.org/2000/svg"
   xmlns:xlink="http://www.w3.org/1999/xlink"
   version="1.1"
   id="svg2"
   viewBox="0 0 990 765"
   height="8.5in"
   width="11in">
  <title
     id="title3535">Security Cameras</title>
  <defs
     id="defs4">
    <linearGradient
       id="linearGradient4161">
      <stop
         id="stop4163"
         offset="0"
         style="stop-color:#ffffff;stop-opacity:1" />
      <stop
         id="stop4165"
         offset="1"
         style="stop-color:#303030;stop-opacity:1" />
    </linearGradient>
    <radialGradient
       gradientTransform="matrix(0.89324544,0.13793212,-0.12978244,0.66057723,24.231874,255.72861)"
       gradientUnits="userSpaceOnUse"
       r="20"
       fy="584.12238"
       fx="39.899696"
       cy="584.12238"
       cx="39.899696"
       id="radialGradient4167"
       xlink:href="#linearGradient4161" />
  </defs>
  <metadata
     id="metadata7">
    <rdf:RDF>
      <cc:Work
         rdf:about="">
        <dc:format>image/svg+xml</dc:format>
        <dc:type
           rdf:resource="http://purl.org/dc/dcmitype/StillImage" />
        <dc:title>Security Cameras</dc:title>
        <dc:creator>
          <cc:Agent>
            <dc:title>Arvin61r58</dc:title>
          </cc:Agent>
        </dc:creator>
        <dc:publisher>
          <cc:Agent>
            <dc:title>Openclipart.org</dc:title>
          </cc:Agent>
        </dc:publisher>
        <dc:identifier>https://openclipart.org/</dc:identifier>
        <dc:source>https://openclipart.org/user-detail/Arvin61r58</dc:source>
        <dc:subject>
          <rdf:Bag>
            <rdf:li>security</rdf:li>
            <rdf:li>camera</rdf:li>
            <rdf:li>cameras</rdf:li>
            <rdf:li>video</rdf:li>
            <rdf:li>surveillance</rdf:li>
          </rdf:Bag>
        </dc:subject>
        <dc:description>security camera sign</dc:description>
        <cc:license
           rdf:resource="http://creativecommons.org/publicdomain/zero/1.0/" />
      </cc:Work>
      <cc:License
         rdf:about="http://creativecommons.org/publicdomain/zero/1.0/">
        <cc:permits
           rdf:resource="http://creativecommons.org/ns#Reproduction" />
        <cc:permits
           rdf:resource="http://creativecommons.org/ns#Distribution" />
        <cc:permits
           rdf:resource="http://creativecommons.org/ns#DerivativeWorks" />
      </cc:License>
    </rdf:RDF>
  </metadata>
  <g
     transform="translate(0,-287.3622)"
     id="layer1">
    <rect
       rx="50.000004"
       ry="50"
       y="317.86221"
       x="30.499969"
       height="704"
       width="929.00006"
       id="rect4390"
       style="opacity:1;fill:none;fill-opacity:1;stroke:#000000;stroke-width:16;stroke-miterlimit:4;stroke-dasharray:none;stroke-opacity:1" />
    <flowRoot
       style="fill:black;stroke:none;stroke-opacity:1;stroke-width:1px;stroke-linejoin:miter;stroke-linecap:butt;fill-opacity:1;font-family:sans-serif;font-style:normal;font-weight:normal;font-size:70px;line-height:125%;letter-spacing:0px;word-spacing:0px;"
       id="flowRoot4394"
       xml:space="preserve"><flowRegion
         id="flowRegion4396"><rect
           style="font-size:70px;"
           y="123.33673"
           x="-165.48979"
           height="134.2653"
           width="833.69385"
           id="rect4398" /></flowRegion><flowPara
         id="flowPara4400" /></flowRoot>    <g
       transform="translate(0,8)"
       id="g3475">
      <rect
         style="opacity:1;fill:#ffff00;fill-opacity:1;stroke:none;stroke-width:16;stroke-miterlimit:4;stroke-dasharray:none;stroke-opacity:1"
         id="rect4392"
         width="850"
         height="267.72449"
         x="70"
         y="347.44385"
         rx="50"
         ry="50" />
      <g
         id="g3467"
         transform="translate(0,1.3085935e-6)">
        <path
           d="m 257.90592,543.70777 -21.65445,0 -62.40015,-111.6441 0,111.6441 -16.35132,0 0,-124.80335 27.13434,0 56.92027,101.92134 0,-101.92134 16.35131,0 0,124.80335 z"
           id="path4407"
           style="font-style:normal;font-weight:normal;font-size:medium;line-height:125%;font-family:sans-serif;letter-spacing:0px;word-spacing:0px;fill:#000000;fill-opacity:1;stroke:none;stroke-width:1px;stroke-linecap:butt;stroke-linejoin:miter;stroke-opacity:1" />
        <path
           d="m 391.01447,433.2371 q 8.04308,8.38169 12.28558,20.53514 4.33089,12.15345 4.33089,27.57575 0,15.42232 -4.41927,27.65958 -4.33089,12.15345 -12.1972,20.28369 -8.13146,8.4655 -19.26803,12.74017 -11.04819,4.27466 -25.27826,4.27466 -13.87652,0 -25.27825,-4.35848 -11.31334,-4.35848 -19.26804,-12.65635 -7.95469,-8.29787 -12.28558,-20.3675 -4.2425,-12.06964 -4.2425,-27.57577 0,-15.25467 4.2425,-27.3243 4.24251,-12.15345 12.37397,-20.78659 7.77792,-8.21406 19.26804,-12.57253 11.57849,-4.35848 25.18986,-4.35848 14.14168,0 25.36664,4.44229 11.31334,4.35848 19.17965,12.48872 z m -1.59094,48.11089 q 0,-24.30689 -11.49011,-37.46615 -11.49012,-13.24307 -31.37685,-13.24307 -20.06351,0 -31.55362,13.24307 -11.40174,13.15926 -11.40174,37.46615 0,24.55836 11.6669,37.63379 11.66688,12.99162 31.28846,12.99162 19.62158,0 31.20008,-12.99162 11.66688,-13.07543 11.66688,-37.63379 z"
           id="path4409"
           style="font-style:normal;font-weight:normal;font-size:medium;line-height:125%;font-family:sans-serif;letter-spacing:0px;word-spacing:0px;fill:#000000;fill-opacity:1;stroke:none;stroke-width:1px;stroke-linecap:butt;stroke-linejoin:miter;stroke-opacity:1" />
        <path
           d="m 525.00688,433.65619 -47.02108,0 0,110.05158 -17.50034,0 0,-110.05158 -47.02108,0 0,-14.75177 111.5425,0 0,14.75177 z"
           id="path4411"
           style="font-style:normal;font-weight:normal;font-size:medium;line-height:125%;font-family:sans-serif;letter-spacing:0px;word-spacing:0px;fill:#000000;fill-opacity:1;stroke:none;stroke-width:1px;stroke-linecap:butt;stroke-linejoin:miter;stroke-opacity:1" />
        <path
           d="m 589.26313,543.70777 -51.97067,0 0,-12.74018 17.23517,0 0,-99.32301 -17.23517,0 0,-12.74016 51.97067,0 0,12.74016 -17.23517,0 0,99.32301 17.23517,0 0,12.74018 z"
           id="path4413"
           style="font-style:normal;font-weight:normal;font-size:medium;line-height:125%;font-family:sans-serif;letter-spacing:0px;word-spacing:0px;fill:#000000;fill-opacity:1;stroke:none;stroke-width:1px;stroke-linecap:butt;stroke-linejoin:miter;stroke-opacity:1" />
        <path
           d="m 720.86914,534.65554 q -4.86121,2.01161 -8.83856,3.77176 -3.88896,1.76015 -10.25272,3.68795 -5.39151,1.59252 -11.75526,2.68214 -6.27538,1.17343 -13.87653,1.17343 -14.31845,0 -26.07372,-3.77176 -11.66689,-3.85557 -20.32866,-11.98581 -8.48501,-7.96261 -13.25782,-20.19987 -4.77283,-12.32109 -4.77283,-28.58157 0,-15.4223 4.59606,-27.57575 4.59604,-12.15345 13.25782,-20.53515 8.39662,-8.13023 20.24027,-12.40489 11.93205,-4.27466 26.42727,-4.27466 10.60625,0 21.12413,2.43069 10.60625,2.43069 23.51055,8.54932 l 0,19.69697 -1.32579,0 q -10.87142,-8.63314 -21.56607,-12.57253 -10.69463,-3.93939 -22.89184,-3.93939 -9.98756,0 -18.03064,3.10122 -7.95469,3.0174 -14.23006,9.47131 -6.0986,6.28627 -9.54563,15.92521 -3.35865,9.55512 -3.35865,22.12765 0,13.15926 3.71219,22.63056 3.80058,9.47131 9.72241,15.42232 6.18698,6.20244 14.40683,9.21986 8.30824,2.93358 17.50032,2.93358 12.63913,0 23.68732,-4.10702 11.04819,-4.10703 20.68221,-12.32108 l 1.2374,0 0,19.44551 z"
           id="path4415"
           style="font-style:normal;font-weight:normal;font-size:medium;line-height:125%;font-family:sans-serif;letter-spacing:0px;word-spacing:0px;fill:#000000;fill-opacity:1;stroke:none;stroke-width:1px;stroke-linecap:butt;stroke-linejoin:miter;stroke-opacity:1" />
        <path
           d="m 832.5,543.70777 -86.70616,0 0,-124.80335 86.70616,0 0,14.75177 -69.20583,0 0,34.19729 69.20583,0 0,14.75177 -69.20583,0 0,46.35074 69.20583,0 0,14.75178 z"
           id="path4417"
           style="font-style:normal;font-weight:normal;font-size:medium;line-height:125%;font-family:sans-serif;letter-spacing:0px;word-spacing:0px;fill:#000000;fill-opacity:1;stroke:none;stroke-width:1px;stroke-linecap:butt;stroke-linejoin:miter;stroke-opacity:1" />
      </g>
    </g>
    <g
       transform="translate(0,-8)"
       id="g3485">
      <g
         id="g4370"
         transform="matrix(-0.73958334,0,0,0.73958334,477.23335,370.30676)">
        <g
           transform="matrix(0.94868963,0,0,1.0283387,12.742071,-16.569657)"
           id="g3447">
          <path
             style="opacity:1;fill:#000000;fill-opacity:1;stroke:#000000;stroke-width:2.05340219;stroke-opacity:1"
             d="m 191.02141,595.33612 10.36914,52.15235 54.83008,20.24609 0.0449,0.2207 4,1.25196 -9.26367,-34.41407 -3.71484,-18.68359 -1.45899,-0.53906 -0.0625,-0.22852 0.0449,0.22266 -54.78907,-20.22852 z"
             id="rect3378" />
          <g
             id="g3435"
             transform="translate(106.60013,-2.20552)">
            <rect
               transform="matrix(0.93810007,0.34636435,0.19499031,0.98080517,0,0)"
               ry="13.184022"
               rx="15.068574"
               y="623.84882"
               x="-39.610527"
               height="53.173954"
               width="59.978802"
               id="rect4173"
               style="opacity:1;fill:#ffffff;fill-opacity:1;stroke:#000000;stroke-width:2.22388649;stroke-opacity:1" />
            <ellipse
               ry="12.907561"
               rx="14.559385"
               transform="matrix(0.93810007,0.34636435,0.19499031,0.98080517,0,0)"
               cy="650.43579"
               cx="-9.6211252"
               id="path4155"
               style="opacity:1;fill:url(#radialGradient4167);fill-opacity:1;stroke:#000000;stroke-width:2.22388649;stroke-opacity:1" />
            <ellipse
               ry="16.260174"
               rx="18.341043"
               transform="matrix(0.93810007,0.34636435,0.19499031,0.98080517,0,0)"
               style="opacity:1;fill:none;fill-opacity:1;stroke:#000000;stroke-width:2.22388649;stroke-opacity:1"
               id="circle4159"
               cx="-9.6211252"
               cy="650.43579" />
            <g
               transform="matrix(0.70951482,0.26196634,0.13074542,0.65765209,-69.397721,59.64786)"
               id="g4203">
              <g
                 id="g4193"
                 transform="translate(-0.625,0)">
                <circle
                   r="1.5"
                   cy="800.11218"
                   cx="81.5"
                   id="path4189"
                   style="opacity:1;fill:#303030;fill-opacity:1;stroke:#000000;stroke-width:3.12283993;stroke-opacity:1" />
                <circle
                   style="opacity:1;fill:#303030;fill-opacity:1;stroke:#000000;stroke-width:3.12283993;stroke-opacity:1"
                   id="circle4191"
                   cx="141.5"
                   cy="800.11218"
                   r="1.5" />
              </g>
              <g
                 id="g4197"
                 transform="translate(-0.625,60)">
                <circle
                   style="opacity:1;fill:#303030;fill-opacity:1;stroke:#000000;stroke-width:3.12283993;stroke-opacity:1"
                   id="circle4199"
                   cx="81.5"
                   cy="800.11218"
                   r="1.5" />
                <circle
                   r="1.5"
                   cy="800.11218"
                   cx="141.5"
                   id="circle4201"
                   style="opacity:1;fill:#303030;fill-opacity:1;stroke:#000000;stroke-width:3.12283993;stroke-opacity:1" />
              </g>
            </g>
          </g>
        </g>
        <path
           id="path4151"
           d="m 258.12482,669.12643 c -0.74942,-1.10196 -4.16316,-12.60942 -7.58608,-25.57216 -3.42293,-12.96273 -6.62506,-24.86645 -7.11588,-26.4527 l -0.89239,-2.88408 25.92582,-13.24215 c 14.25922,-7.28319 30.41309,-15.55495 35.89752,-18.38168 5.48444,-2.82673 12.42149,-6.37729 15.41573,-7.89013 2.99422,-1.51284 24.60122,-12.58849 48.01555,-24.61258 23.41436,-12.02408 43.18135,-21.91896 43.92669,-21.98861 0.86995,-0.0813 2.0367,12.79103 3.25877,35.95357 l 1.90367,36.0802 -47.20196,24.26701 c -25.96105,13.34684 -48.46537,24.84949 -50.00964,25.56147 -1.54425,0.71194 -7.02826,3.46052 -12.18673,6.10791 -6.30067,3.23357 -14.91877,6.41684 -26.25753,9.6987 -19.94542,5.77293 -21.3141,5.97178 -23.09354,3.35523 z"
           style="fill:#414141;fill-opacity:1" />
        <path
           id="path3493"
           d="m 188.13935,592.19718 c -0.56233,0.80755 -0.75827,1.96607 -0.49609,3.4336 l 7.28711,40.79492 c 0.67485,3.77709 4.167,8.34761 8.30859,11.17773 l -7.7832,-43.56445 c -0.29511,-1.65176 -0.008,-2.91182 0.72656,-3.7207 l -2.48242,-2.50586 0,-1.94336 -1.92383,0 -3.63672,-3.67188 z"
           style="opacity:1;fill:#000000;fill-opacity:1;stroke:none;stroke-width:1.99999988;stroke-opacity:1" />
        <path
           id="path4147"
           d="m 214.32583,604.8088 c -25.01749,-8.95119 -28.55982,-10.63364 -26.3445,-12.51253 1.48492,-1.25941 156.20676,-81.1094 166.03606,-85.68912 l 6.85113,-3.19212 24.47678,8.66148 c 24.97843,8.83899 29.27888,10.87174 27.03149,12.7773 -1.97153,1.67167 -165.27026,85.70456 -169.63689,87.2945 -3.63916,1.32505 -5.64775,0.80622 -28.41407,-7.33951 z"
           style="fill:#414141" />
        <path
           id="path4367"
           d="m 341.9375,627.12305 0,46.77343 a 17.5,17.5 0 0 0 -9.5,15.5625 17.5,17.5 0 0 0 17.5,17.5 17.5,17.5 0 0 0 15.54492,-9.5 l 110.97461,0 45,0 0,-16 -45,0 -110.95898,0 a 17.5,17.5 0 0 0 -7.56055,-7.54687 l 0,-46.78906 -16,0 z"
           style="opacity:1;fill:#414141;fill-opacity:1;stroke:none;stroke-width:2;stroke-opacity:1" />
        <circle
           r="192"
           cy="611.52374"
           cx="347.80847"
           id="path4334"
           style="opacity:1;fill:none;fill-opacity:1;stroke:#cf3045;stroke-width:21.63380051;stroke-miterlimit:4;stroke-dasharray:none;stroke-opacity:1" />
      </g>
      <g
         style="font-style:normal;font-weight:normal;font-size:107.5px;line-height:125%;font-family:sans-serif;text-align:center;letter-spacing:0px;word-spacing:0px;text-anchor:middle;fill:#000000;fill-opacity:1;stroke:none;stroke-width:1px;stroke-linecap:butt;stroke-linejoin:miter;stroke-opacity:1"
         id="text3396">
        <path
           d="m 439.60937,704.87018 q 0,4.56665 -2.15209,9.02832 -2.09961,4.46167 -5.9314,7.55859 -4.19922,3.35938 -9.81567,5.24903 -5.56397,1.88964 -13.4375,1.88964 -8.45093,0 -15.22217,-1.5747 -6.71875,-1.57471 -13.69995,-4.67163 l 0,-13.01758 0.73486,0 q 5.9314,4.93408 13.69995,7.61108 7.76856,2.677 14.59229,2.677 9.6582,0 15.0122,-3.62182 5.4065,-3.62183 5.4065,-9.65821 0,-5.19653 -2.57202,-7.66357 -2.51954,-2.46704 -7.71607,-3.83179 -3.93677,-1.0498 -8.55591,-1.73217 -4.56665,-0.68238 -9.71069,-1.73218 -10.39307,-2.20459 -15.43213,-7.50611 -4.98657,-5.354 -4.98657,-13.90991 0,-9.81567 8.29346,-16.06201 8.29345,-6.29883 21.04858,-6.29883 8.24097,0 15.11719,1.57471 6.87622,1.57471 12.17773,3.88428 l 0,12.28271 -0.73486,0 q -4.46167,-3.7793 -11.75781,-6.24634 -7.24366,-2.51953 -14.85474,-2.51953 -8.34595,0 -13.4375,3.46436 -5.03906,3.46435 -5.03906,8.92334 0,4.88159 2.51953,7.66357 2.51953,2.78198 8.87085,4.25171 3.35937,0.73486 9.55322,1.78467 6.19385,1.0498 10.49805,2.1521 8.71338,2.30957 13.12256,6.9812 4.40917,4.67163 4.40917,13.07007 z"
           id="path3421" />
        <path
           d="m 507.79419,727.17853 -51.49292,0 0,-78.15796 51.49292,0 0,9.23828 -41.09985,0 0,21.41602 41.09985,0 0,9.23828 -41.09985,0 0,29.0271 41.09985,0 0,9.23828 z"
           id="path3423" />
        <path
           d="m 584.69238,721.50958 q -2.88696,1.25977 -5.24902,2.36206 -2.30957,1.1023 -6.08887,2.30957 -3.2019,0.99732 -6.9812,1.67969 -3.72681,0.73486 -8.24097,0.73486 -8.50341,0 -15.48461,-2.36206 -6.92872,-2.41455 -12.07276,-7.5061 -5.03906,-4.98657 -7.87353,-12.65015 -2.83448,-7.71606 -2.83448,-17.89917 0,-9.6582 2.7295,-17.26928 2.72949,-7.61109 7.87353,-12.86011 4.98657,-5.09155 12.02026,-7.76856 7.08619,-2.677 15.69458,-2.677 6.29883,0 12.54517,1.52222 6.29883,1.52222 13.9624,5.354 l 0,12.33521 -0.78735,0 q -6.4563,-5.4065 -12.80762,-7.87354 -6.35132,-2.46704 -13.59497,-2.46704 -5.9314,0 -10.70801,1.94214 -4.72412,1.88965 -8.45092,5.9314 -3.62183,3.93676 -5.66895,9.97314 -1.99463,5.98389 -1.99463,13.85742 0,8.24097 2.20459,14.17237 2.25708,5.93139 5.77393,9.6582 3.67431,3.88428 8.55591,5.77393 4.93408,1.83715 10.39306,1.83715 7.50611,0 14.06738,-2.57202 6.56128,-2.57202 12.28272,-7.71606 l 0.73486,0 0,12.17773 z"
           id="path3425" />
        <path
           d="m 658.33618,695.78937 q 0,8.50342 -1.88965,14.85473 -1.83716,6.29883 -6.08886,10.49805 -4.04175,3.98926 -9.44825,5.82642 -5.40649,1.83716 -12.59765,1.83716 -7.34864,0 -12.80762,-1.94214 -5.45898,-1.94214 -9.18579,-5.72144 -4.25171,-4.3042 -6.14136,-10.39307 -1.83716,-6.08886 -1.83716,-14.95971 l 0,-46.7688 10.39307,0 0,47.2937 q 0,6.35132 0.83984,10.02563 0.89234,3.67432 2.93946,6.66626 2.30957,3.41187 6.24633,5.14405 3.98926,1.73218 9.55323,1.73218 5.61645,0 9.55322,-1.67969 3.93677,-1.73218 6.29883,-5.19654 2.04712,-2.99194 2.88696,-6.82373 0.89234,-3.88427 0.89234,-9.60571 l 0,-47.55615 10.39306,0 0,46.7688 z"
           id="path3427" />
        <path
           d="m 742.89795,727.17853 -13.48999,0 -26.14014,-31.07422 -14.64477,0 0,31.07422 -10.39307,0 0,-78.15796 21.88843,0 q 7.08618,0 11.8103,0.94482 4.72412,0.89234 8.50342,3.2544 4.25171,2.677 6.61377,6.77124 2.41455,4.04175 2.41455,10.28808 0,8.45093 -4.25171,14.17237 -4.25171,5.66894 -11.70532,8.55591 l 29.39453,34.17114 z m -24.30298,-56.16455 q 0,-3.35938 -1.20727,-5.9314 -1.15479,-2.62451 -3.88428,-4.40918 -2.25708,-1.52222 -5.35401,-2.09961 -3.09692,-0.62988 -7.29614,-0.62988 l -12.23022,0 0,29.49951 10.49804,0 q 4.93409,0 8.6084,-0.83984 3.67432,-0.89234 6.24634,-3.2544 2.36206,-2.20459 3.46436,-5.03906 1.15478,-2.88696 1.15478,-7.29614 z"
           id="path3429" />
        <path
           d="m 780.53345,727.17853 -30.86426,0 0,-7.97852 10.2356,0 0,-62.20093 -10.2356,0 0,-7.97851 30.86426,0 0,7.97851 -10.2356,0 0,62.20093 10.2356,0 0,7.97852 z"
           id="path3431" />
        <path
           d="m 854.07227,658.25885 -27.92481,0 0,68.91968 -10.39307,0 0,-68.91968 -27.9248,0 0,-9.23828 66.24268,0 0,9.23828 z"
           id="path3433" />
        <path
           d="m 920,649.02057 -27.50488,43.88183 0,34.27613 -10.39307,0 0,-33.17383 -27.60986,-44.98413 11.49536,0 21.36352,34.95849 21.57349,-34.95849 11.07544,0 z"
           id="path3435" />
        <path
           d="m 452.83691,855.88458 q -2.88696,1.25977 -5.24902,2.36206 -2.30957,1.1023 -6.08887,2.30957 -3.2019,0.99732 -6.9812,1.67969 -3.7268,0.73486 -8.24096,0.73486 -8.50342,0 -15.48462,-2.36206 -6.92871,-2.41455 -12.07276,-7.5061 -5.03906,-4.98657 -7.87353,-12.65015 -2.83448,-7.71606 -2.83448,-17.89917 0,-9.6582 2.7295,-17.26928 2.72949,-7.61109 7.87353,-12.86011 4.98657,-5.09155 12.02027,-7.76856 7.08618,-2.677 15.69458,-2.677 6.29882,0 12.54516,1.52222 6.29883,1.52222 13.9624,5.354 l 0,12.33521 -0.78735,0 q -6.4563,-5.4065 -12.80762,-7.87354 -6.35132,-2.46704 -13.59497,-2.46704 -5.93139,0 -10.70801,1.94214 -4.72412,1.88965 -8.45092,5.9314 -3.62183,3.93676 -5.66895,9.97314 -1.99463,5.98389 -1.99463,13.85742 0,8.24097 2.20459,14.17237 2.25708,5.93139 5.77393,9.6582 3.67431,3.88428 8.55591,5.77393 4.93408,1.83715 10.39306,1.83715 7.50611,0 14.06739,-2.57202 6.56128,-2.57202 12.28271,-7.71606 l 0.73486,0 0,12.17773 z"
           id="path3437" />
        <path
           d="m 529.2627,861.55353 -11.07544,0 -7.66358,-21.78345 -33.80371,0 -7.66357,21.78345 -10.55054,0 28.44971,-78.15796 13.85742,0 28.44971,78.15796 z m -21.94092,-30.70679 -13.69995,-38.37036 -13.75245,38.37036 27.4524,0 z"
           id="path3439" />
        <path
           d="m 610.72754,861.55353 -10.39307,0 0,-67.34497 -21.73095,45.82397 -6.19385,0 -21.57349,-45.82397 0,67.34497 -9.71069,0 0,-78.15796 14.17236,0 20.83862,43.5144 20.15625,-43.5144 14.43482,0 0,78.15796 z"
           id="path3441" />
        <path
           d="m 683.32153,861.55353 -51.49292,0 0,-78.15796 51.49292,0 0,9.23828 -41.09985,0 0,21.41602 41.09985,0 0,9.23828 -41.09985,0 0,29.0271 41.09985,0 0,9.23828 z"
           id="path3443" />
        <path
           d="m 764.52393,861.55353 -13.48999,0 -26.14014,-31.07422 -14.64478,0 0,31.07422 -10.39306,0 0,-78.15796 21.88842,0 q 7.08619,0 11.81031,0.94482 4.72412,0.89234 8.50342,3.2544 4.2517,2.677 6.61376,6.77124 2.41456,4.04175 2.41456,10.28808 0,8.45093 -4.25171,14.17237 -4.25171,5.66894 -11.70533,8.55591 l 29.39454,34.17114 z m -24.30298,-56.16455 q 0,-3.35938 -1.20728,-5.9314 -1.15478,-2.62451 -3.88428,-4.40918 -2.25708,-1.52222 -5.354,-2.09961 -3.09692,-0.62988 -7.29614,-0.62988 l -12.23023,0 0,29.49951 10.49805,0 q 4.93408,0 8.6084,-0.83984 3.67432,-0.89234 6.24634,-3.2544 2.36206,-2.20459 3.46435,-5.03906 1.15479,-2.88696 1.15479,-7.29614 z"
           id="path3445" />
        <path
           d="m 836.22559,861.55353 -11.07544,0 -7.66358,-21.78345 -33.80371,0 -7.66357,21.78345 -10.55054,0 28.44971,-78.15796 13.85742,0 28.44971,78.15796 z m -21.94092,-30.70679 -13.69995,-38.37036 -13.75244,38.37036 27.45239,0 z"
           id="path3447" />
        <path
           d="m 904.46289,839.24518 q 0,4.56665 -2.1521,9.02832 -2.09961,4.46167 -5.9314,7.55859 -4.19921,3.35938 -9.81567,5.24903 -5.56396,1.88964 -13.4375,1.88964 -8.45093,0 -15.22217,-1.5747 -6.71875,-1.57471 -13.69995,-4.67163 l 0,-13.01758 0.73486,0 q 5.9314,4.93408 13.69996,7.61108 7.76855,2.677 14.59228,2.677 9.6582,0 15.01221,-3.62182 5.40649,-3.62183 5.40649,-9.65821 0,-5.19653 -2.57202,-7.66357 -2.51953,-2.46704 -7.71606,-3.83179 -3.93677,-1.0498 -8.55591,-1.73217 -4.56665,-0.68238 -9.7107,-1.73218 -10.39306,-2.20459 -15.43212,-7.50611 -4.98658,-5.354 -4.98658,-13.90991 0,-9.81567 8.29346,-16.06201 8.29346,-6.29883 21.04858,-6.29883 8.24097,0 15.11719,1.57471 6.87622,1.57471 12.17774,3.88428 l 0,12.28271 -0.73487,0 q -4.46167,-3.7793 -11.75781,-6.24634 -7.24365,-2.51953 -14.85474,-2.51953 -8.34594,0 -13.4375,3.46436 -5.03906,3.46435 -5.03906,8.92334 0,4.88159 2.51953,7.66357 2.51953,2.78198 8.87085,4.25171 3.35938,0.73486 9.55323,1.78467 6.19384,1.0498 10.49804,2.1521 8.71338,2.30957 13.12256,6.9812 4.40918,4.67163 4.40918,13.07007 z"
           id="path3449" />
        <path
           d="m 492.46704,995.92853 -30.86426,0 0,-7.97852 10.2356,0 0,-62.20093 -10.2356,0 0,-7.97851 30.86426,0 0,7.97851 -10.23559,0 0,62.20093 10.23559,0 0,7.97852 z"
           id="path3451" />
        <path
           d="m 569.89014,995.92853 -12.86011,0 -37.05811,-69.91699 0,69.91699 -9.71069,0 0,-78.15796 16.1145,0 33.80371,63.82812 0,-63.82812 9.7107,0 0,78.15796 z"
           id="path3453" />
        <path
           d="m 687.31079,964.53937 q 0,8.50342 -1.88965,14.85473 -1.83716,6.29883 -6.08886,10.49805 -4.04175,3.98926 -9.44825,5.82642 -5.40649,1.83716 -12.59765,1.83716 -7.34864,0 -12.80762,-1.94214 -5.45898,-1.94214 -9.18579,-5.72144 -4.25171,-4.3042 -6.14136,-10.39307 -1.83716,-6.08886 -1.83716,-14.95971 l 0,-46.7688 10.39307,0 0,47.2937 q 0,6.35132 0.83984,10.02563 0.89234,3.67432 2.93946,6.66626 2.30957,3.41187 6.24633,5.14405 3.98926,1.73218 9.55323,1.73218 5.61645,0 9.55322,-1.67969 3.93677,-1.73218 6.29883,-5.19654 2.04712,-2.99194 2.88696,-6.82373 0.89233,-3.88427 0.89233,-9.60571 l 0,-47.55615 10.39307,0 0,46.7688 z"
           id="path3455" />
        <path
           d="m 763.99902,973.62018 q 0,4.56665 -2.1521,9.02832 -2.09961,4.46167 -5.93139,7.55859 -4.19922,3.35938 -9.81568,5.24903 -5.56396,1.88964 -13.4375,1.88964 -8.45092,0 -15.22216,-1.5747 -6.71875,-1.57471 -13.69996,-4.67163 l 0,-13.01758 0.73487,0 q 5.93139,4.93408 13.69995,7.61108 7.76855,2.677 14.59228,2.677 9.65821,0 15.01221,-3.62182 5.4065,-3.62183 5.4065,-9.65821 0,-5.19653 -2.57203,-7.66357 -2.51953,-2.46704 -7.71606,-3.83179 -3.93677,-1.0498 -8.55591,-1.73217 -4.56665,-0.68238 -9.71069,-1.73218 -10.39307,-2.20459 -15.43213,-7.50611 -4.98657,-5.354 -4.98657,-13.90991 0,-9.81567 8.29345,-16.06201 8.29346,-6.29883 21.04859,-6.29883 8.24096,0 15.11718,1.57471 6.87623,1.57471 12.17774,3.88428 l 0,12.28271 -0.73486,0 q -4.46167,-3.7793 -11.75782,-6.24634 -7.24365,-2.51953 -14.85473,-2.51953 -8.34595,0 -13.4375,3.46436 -5.03907,3.46435 -5.03907,8.92334 0,4.88159 2.51954,7.66357 2.51953,2.78198 8.87085,4.25171 3.35937,0.73486 9.55322,1.78467 6.19385,1.0498 10.49805,2.1521 8.71337,2.30957 13.12255,6.9812 4.40918,4.67163 4.40918,13.07007 z"
           id="path3457" />
        <path
           d="m 832.18384,995.92853 -51.49292,0 0,-78.15796 51.49292,0 0,9.23828 -41.09986,0 0,21.41602 41.09986,0 0,9.23828 -41.09986,0 0,29.0271 41.09986,0 0,9.23828 z"
           id="path3459" />
      </g>
    </g>
  </g>
</svg>
