<?xml version="1.0" encoding="utf-8"?>

<!DOCTYPE svg PUBLIC "-//W3C//DTD SVG 1.1//EN" "http://www.w3.org/Graphics/SVG/1.1/DTD/svg11.dtd">
<svg version="1.1" id="Layer_1" xmlns="http://www.w3.org/2000/svg" xmlns:xlink="http://www.w3.org/1999/xlink" x="0px" y="0px"
	 viewBox="0 0 1078 1920" enable-background="new 0 0 1078 1920" xml:space="preserve">
<g>
	<path fill="#FFFFFF" d="M186.7863,1023.3259c-2.02,0.45-4.12,1.7401-6.19,0.94c-0.48-1.56,0.86-3.11,0.62-4.7
		c-0.03-87.66-0.05-175.32,0.01-262.98c0.65-1.01-1.73-3.56-0.43-3.58c2.9,7.99,7.61,15.45,14.18,20.92
		c9.52,8,21.85,12.12,34.17,12.7c16.31,0.68,32.92-4.25,45.94-14.17c12.13-9.02,20.49-22.95,22.74-37.9
		c0.84-3.34,0.17-7.17,1.28-10.45v-0.0099c98.46,0.21,196.99,0.0099,295.48,0.1c6.68,14.92,19.92,25.53,33.97,33.18
		c13.92,7.75,28.66,14,42,22.78c20.88,13.03,40.9,27.45,59.8,43.21c29.16,24.08,55.21,51.72,78.91,81.15
		c24.57,30.12,46.78,62.87,60.05,99.65c4.03,11.59,10.53,22.38,19.34,30.97c11.04,11.6,25.59,18.9,37.45,29.53
		c2.48,1.8199,2.56,5.1599,2.52,7.96c-0.19,3.46,0.01,6.95,0.64,10.38c-56.7-0.01-113.4,0-170.1,0
		c-25.91,0.17-51.85-0.35-77.75,0.26c11.74-5.83,19.93-17.8,21.71-30.7c1.09-11.3601-4.49-21.79-6.3-32.7501
		c-1.3-6.95-6.32-12.35-11.5-16.78c-5.5-4.51-11.79-7.92-18.23-10.87c-10.68-4.7-22.12-8.01-33.84-8.3101
		c-31.03,1.47-60.28,13.22-88.74,24.73c-24.01,9.34-49.82,12.49-75.27,15c-24.24,2.09-48.7,2.4-72.98,0.54
		c-4.62-0.84-9.36-0.15-13.94-1.21c-28.08-2.86-55.91-8.03-83.27-14.9301c-11.05-2.69-22.05-5.66-32.62-9.89
		c-16.09-5.88-32.66-12.6-50.12-11.59c-8.52,0.69-17.76,4.81-21.17,13.17C191.4963,1007.2458,192.6963,1016.8558,186.7863,1023.3259
		z"/>
	<path fill="#FFFFFF" d="M774.2263,1111.3358c-34.84-0.0599-69.67,0.12-104.51-0.09c0.02-2.6,0.04-5.2,0.1-7.78
		c89.2,0.0901,178.4,0.0801,267.6,0c0.03,2.5801,0.04,5.16,0.06,7.75C883.0663,1111.5059,828.6463,1111.2559,774.2263,1111.3358z"/>
	<path fill="#FFFFFF" d="M775.2762,1094.2058c-35.17-0.0599-70.33,0.12-105.49-0.08c-0.06-2.65-0.05-5.29,0.02-7.92
		c89.22-0.0399,178.43-0.1,267.65,0.03c-0.01,2.62-0.01,5.24,0,7.88C883.3963,1094.3258,829.3363,1094.1459,775.2762,1094.2058z"/>
	<path fill="#FFFFFF" d="M937.4163,1162.8658c-89.19,0.0801-178.39,0.01-267.59,0.03c-0.09-2.59-0.1-5.16-0.03-7.73
		c89.22-0.03,178.46-0.13,267.68,0.0499C937.4563,1157.7559,937.4363,1160.3059,937.4163,1162.8658z"/>
	<path fill="#FFFFFF" d="M937.4263,1145.7158c-89.2-0.12-178.41-0.14-267.61,0.01c-0.09-2.6-0.08-5.2-0.05-7.7799
		c52.78-0.2001,105.56-0.02,158.35-0.0801c36.45,0.0801,72.91-0.14,109.37,0.1
		C937.4563,1140.5459,937.4463,1143.1259,937.4263,1145.7158z"/>
	<path d="M666.8763,1134.5758c91.22,0.05,182.45,0.04,273.68,0.01c0.41,4.78,0.26,9.5901,0.13,14.39
		c-91.33,0.11-182.66,0.14-273.99-0.02C666.6063,1144.1659,666.3463,1139.3458,666.8763,1134.5758z M669.8163,1145.7258
		c89.2-0.15,178.41-0.13,267.61-0.01c0.02-2.59,0.03-5.1699,0.06-7.75c-36.46-0.24-72.92-0.0199-109.37-0.1
		c-52.79,0.0601-105.57-0.12-158.35,0.0801C669.7363,1140.5259,669.7263,1143.1259,669.8163,1145.7258z"/>
	<path d="M782.1463,1166.2258c-38.4901-0.0699-76.97,0.11-115.45-0.08c-0.18-4.74-0.16-9.47-0.02-14.1901
		c52.49-0.38,105-0.0599,157.49-0.1599c38.84,0.09,77.67-0.2001,116.5,0.14c0.21,4.71,0.14,9.4199,0.05,14.1399
		C887.8663,1166.4259,834.9963,1166.1158,782.1463,1166.2258z M669.8263,1162.8959c89.2-0.02,178.4,0.05,267.59-0.03
		c0.02-2.5599,0.04-5.11,0.06-7.65c-89.22-0.1799-178.46-0.08-267.68-0.0499
		C669.7263,1157.7358,669.7363,1160.3059,669.8263,1162.8959z"/>
	<path fill="#FFFFFF" d="M669.6663,1120.7759c79.83-0.39,159.67-0.0601,239.51-0.17c9.45,0.11,18.92-0.24,28.38,0.22
		c-0.12,2.52-0.12,5.0601-0.02,7.6101c-54.41,0.3899-108.83,0.0599-163.24,0.1699c-34.87-0.12-69.75,0.23-104.61-0.1799
		C669.7563,1125.8658,669.7563,1123.3159,669.6663,1120.7759z"/>
	<path d="M669.8163,1103.4658c-0.06,2.5801-0.08,5.1801-0.1,7.78c34.84,0.21,69.67,0.03,104.51,0.09
		c54.42-0.08,108.84,0.17,163.25-0.12c-0.02-2.59-0.03-5.1699-0.06-7.75C848.2162,1103.5459,759.0163,1103.5559,669.8163,1103.4658z
		 M666.6663,1100.3859c91.36-0.05,182.72-0.09,274.08,0.02c0.06,4.6799,0.09,9.37-0.06,14.0599
		c-51.49,0.3301-102.99,0.05-154.48,0.14c-39.85-0.08-79.69,0.15-119.53-0.11
		C666.5363,1109.7859,666.5563,1105.0858,666.6663,1100.3859z"/>
	<path d="M940.6363,1131.7258c-91.29-0.01-182.59,0.14-273.89-0.08c-0.26-4.6901-0.24-9.38-0.02-14.05c91.32,0.02,182.64,0,273.96,0
		C940.8363,1122.2959,940.8963,1127.0159,940.6363,1131.7258z M669.6663,1120.7759c0.09,2.54,0.09,5.09,0.02,7.65
		c34.86,0.4099,69.74,0.0599,104.61,0.1799c54.41-0.11,108.83,0.22,163.24-0.1699c-0.1-2.55-0.1-5.0901,0.02-7.6101
		c-9.46-0.46-18.93-0.11-28.38-0.22C829.3363,1120.7158,749.4963,1120.3859,669.6663,1120.7759z"/>
	<path fill="#FFFFFF" d="M650.9363,114.6459c5.44,13.3,8.91,27.53,8.91,41.95c-0.6,13.16-3.88,26.18-9.59,38.05
		c-1.85,3.88-4.11,7.61-7.28,10.56c-31.84-4.87-63.89-8.25-95.82-12.46c-10.06-0.81-20.02-2.93-30.12-3.26
		c1.81-4.37,4.28-8.51,5.2-13.2c1.27-6.16,2.1-12.44,2.02-18.74c0.41-8.32,0.81-16.66,0.7-24.99c-0.28-6.68-0.48-13.38,0.0699-20.05
		c19.65,0.27,39.3101-0.02,58.94,1.05C606.2963,113.4759,628.6063,114.6159,650.9363,114.6459z"/>
	<path fill="#FFFFFF" d="M604.8163,697.1459c0.14,7.96,0.13,15.92-0.01,23.88c-106.82,0.02-213.64-0.09-320.46,0.05
		c-0.22-8-0.24-16.01,0.01-24C391.1763,697.2659,497.9963,697.1259,604.8163,697.1459z"/>
	<path fill="#FFFFFF" d="M290.7963,634.8359c18.14-0.52,36.32-0.09,54.48-0.23c62.3,0.01,124.61,0,186.92,0.01
		c22.19,0.12,44.4-0.28,66.58,0.21c-0.2599,19.13-0.04,38.27-0.1,57.41c-54.84,0.2-109.67,0.03-164.51,0.09
		c-47.76-0.06-95.52,0.1-143.28-0.08C290.8263,673.1058,291.0363,653.9659,290.7963,634.8359z"/>
	<path fill="#FFFFFF" d="M537.5063,511.6759c1.12,7.93,0.36,15.95,1.06,23.91c-47.46,0.02-94.92-0.05-142.37,0.33
		c-14.33,0.03-28.66,0.4399-43,0.17c0.1-7.53-0.85-15.02-0.99-22.54c0.21-14.06-1.16-28.09-1.06-42.15
		c-0.82-8.93-0.86-17.89-0.91-26.84c-0.03-8.01-1.21-15.97-1.04-23.99c0.24-11.66-1.05-23.28-0.99-34.93
		c0.17-6.59-0.95-13.12-0.76-19.7c14.89-1.26,29.75-2.54,44.68-3.43c11.97-1.58,24.08-0.58,36.11-0.75
		c22.98,0.38,46.01-1,68.95,0.83c11.16-0.17,22.28,1,33.42,0.95c0.82,5,0.4,10.08,0.57,15.12c0.08,5,0.88,9.97,0.99,14.98
		c-0.17,9.36,1.1,18.68,1.04,28.04c0.34,5.45,1.06,10.87,0.89,16.35c-0.19,6.56,0.94,13.05,1.09,19.59
		c-0.23,9.68,1.17,19.31,1.05,28.99C537.2663,494.9259,536.8363,503.3359,537.5063,511.6759z"/>
	<path fill="#FFFFFF" d="M538.2162,603.4659c9.71,0.19,19.29,1.92,28.9901,2.41c5.61,0.94,11.34,0.53,16.93,1.67
		c4.95,0.08,9.83,1.07,14.78,1.08c0.15,7.54,0.18,15.08,0.11,22.63c-102.72-0.05-205.44,0.22-308.16,0.07
		c0.12-7.41-0.11-14.84,0.14-22.25c30.78-2.64,61.5-5.42,92.32-7.67c5.87-1.08,11.89-0.38,17.75-1.54
		c14.72-0.56,29.36-2.62,44.11-2.14c7.43-0.16,14.78,1.11,22.21,1.05c9.28,0.87,18.61,0.69,27.86,1.84
		c7.97-0.23,15.82,1.25,23.78,1.29C525.4063,602.7559,531.8763,602.3159,538.2162,603.4659z"/>
	<path fill="#FFFFFF" d="M450.2163,189.6159c9.65-0.39,19.19,1.43,28.84,1.28c0.15,12.26-0.07,24.54,0.7,36.79
		c0.85,6.95,0.07,13.96,0.71,20.93c0.8,10.63,0.34,21.31,1.4,31.92c0.41,9.04-0.01,18.1,0.89,27.12c0.83,7.97,0.07,16,0.76,23.98
		c0.61,8.62,0.56,17.26,0.91,25.89c-9.73-0.1-19.45,0.57-29.17,0.06c-10.03,0.28-20.04-0.92-30.05-0.06
		c-11.16-0.34-22.28,1.48-33.43,0.22c-0.86-6.35-0.43-12.75-0.63-19.12c-0.65-9.33-0.88-18.68-1.07-28.03
		c-0.88-7.98-0.72-16.01-0.87-24.02c-0.12-6.66-1.17-13.27-1.01-19.93c0.21-8.68-0.65-17.33-0.92-26
		c0.02-11.04-1.18-22.04-1.06-33.09c8.75,0.44,18.37,2.27,26.29-2.61c6.04-3.14,8.3-10.8,14.99-12.99
		C434.6163,188.5859,442.6063,189.8359,450.2163,189.6159z"/>
	<path fill="#FFFFFF" d="M444.0863,74.3559c21.19,1.25,42.44,2.2,63.39,5.89c3.89,0.68,7.97,2.17,9.95,5.86
		c4.63,7.29,3.89,16.31,4.21,24.57c-0.92,11.97,0.57,23.95-0.29,35.93c-0.33,12.66,0.29,26.08-5.57,37.71
		c-4.46,8.78-9.92,17.04-15.96,24.82c-4.29,5.75-10.62,9.47-16.89,12.71c-0.73-11.14-0.85-22.31-0.68-33.47
		c-1.93-0.74-4.01-0.84-6.05-0.8c-6,0.07-11.93-0.99-17.92-0.99c-7.05-0.01-14.09,0.05-21.14-0.02c-4.98-0.06-9.88,1.55-14.19,3.97
		c-5.13,3.11-7.48,9.27-12.87,12.04c-5.45,2.85-11.86,2.67-17.81,2.05c-5.52-0.18-10.91-1.48-16.35-2.26
		c-1.4-0.52,1.7-0.89,1.67-0.82c4.51-3.51,7.8-8.31,10.55-13.26c5.37-9.95,8.65-20.83,11.6-31.69c2.73-10.13,4.73-20.47,5.53-30.92
		c-0.15-7.43,0.56-14.94-0.84-22.29c-1.14-10.97-2.23-23.47-10.87-31.4c5.21,0.37,10.42,0.79,15.65,0.63
		c7.35-0.18,14.63,1.15,21.98,1.05C435.4963,73.6059,439.8163,73.6859,444.0863,74.3559z"/>
	<path fill="#FFFFFF" d="M538.3163,538.6359c1.65-0.27,2.44,1.46,3.45,2.41c3.36,4.28,7.21,8.14,10.52,12.46
		c-20.36-0.32-40.72-0.52-61.08-0.92c-37.33,0.41-74.62-1.29-111.95-1.01c-14.29,0.11-28.58-0.13-42.87-0.32
		c4.86-3.55,9.61-7.23,14.45-10.81c1.49-1.32,3.58-0.82,5.39-0.92c18.66,0.26,37.3-0.54,55.97-0.27
		c14.35-0.78,28.73,0.11,43.08-0.64C482.9563,538.6058,510.6363,538.5959,538.3163,538.6359z"/>
	<path fill="#FFFFFF" d="M397.2063,554.6359c35.97,1.21,71.98,1.02,107.97,1.27c16.14,0.79,32.31,0.53,48.46,0.9
		c-0.28,14.69-0.01,29.39-0.13,44.08c-4.74-0.55-9.57,0.1-14.24-1.03c-29-2.0099-57.86-6.47-87-6.28
		c-8.69-0.05-17.32,1.47-26.02,1.02c-11.02,0.77-22.09,0.7-33.08,1.88c-8.03-0.35-15.94,1.33-23.96,1.18
		c-11.32,1.01-22.66,1.53-33.96,2.53c-1.22-15.29-0.65-30.65-1.87-45.93C354.6463,554.8459,375.9263,554.5159,397.2063,554.6359z"/>
	<path fill="#FFFFFF" d="M197.5263,77.9459c7.21-5.32,15.45-9.78,24.55-10.51c6.01-1.18,12.07,0,18.08,0.55
		c6.37,1.2,12.92,1.89,18.96,4.38c20.35,7.31,41.05,16.11,63.11,15.32c9.08-0.44,18.24-2.36,26.27-6.77
		c9.16-4.42,17.84-10.35,27.94-12.38c5.46-1.32,10.46,2.04,14.39,5.42c5.12,4.4,7.59,11.02,8.68,17.51
		c2.36,13.56,3.87,27.48,1.7,41.17c-1.6,13.29-5.25,26.26-9.44,38.95c-3.2,8.93-7.03,17.94-13.54,25
		c-4.33,4.32-11.08,7.44-17.09,4.87c-9.04-2.82-13.05-12.21-19.45-18.35c-6.53-7.36-17.01-8.71-26.25-9.52
		c-12.4-1.51-24.86-2.87-37.36-3.21c-7.54-1.18-15.18-0.76-22.77-1.13c-9.67-0.93-19.4-0.79-29.09-0.6
		c-8.11,0.8-16.34,1.29-24.43,0.1c-1.69,2.05-2.39-0.14-2.96-1.23l1.53,1.65c8.03-6.39,11.42-16.63,13.18-26.37
		c1.89-8.62,1.83-17.47,1.62-26.24c-1.1-10.72-2.72-21.84-8.5-31.16C204.6063,81.9259,201.5163,78.9559,197.5263,77.9459z"/>
	<path fill="#FFFFFF" d="M193.7663,81.5459c2.27-1.73,5.1,0.39,6.96,1.79c5.19,5.12,7.36,12.39,9.1,19.28
		c3.3,15.54,3.11,31.99-1.35,47.28c-2.1,6.31-4.77,13.71-11.36,16.54c-5.33,0.91-8.94-4.34-11.13-8.44
		c-6.37-13.06-7.4-28.07-6.53-42.38C180.6663,103.3459,182.8663,89.1459,193.7663,81.5459z"/>
	<path fill="#FFFFFF" d="M140.3163,740.6559c12.55-0.06,25.11-0.14,37.67,0.05c-0.23,94.35,0.12,188.69-0.17,283.03
		c-12.44-0.13-24.88-0.14-37.31,0.01C140.1463,929.3959,140.5263,835.0159,140.3163,740.6559z"/>
	<path d="M177.8163,1023.7358c0.29-94.34-0.06-188.68,0.17-283.03c-12.56-0.19-25.12-0.11-37.67-0.05
		c0.21,94.36-0.17,188.74,0.19,283.09C152.9363,1023.5959,165.3763,1023.6058,177.8163,1023.7358z M604.8163,697.1459
		c-106.82-0.02-213.64,0.12-320.46-0.07c-0.25,7.99-0.23,16-0.01,24c106.82-0.14,213.64-0.03,320.46-0.05
		C604.9463,713.0659,604.9563,705.1058,604.8163,697.1459z M532.1963,634.6158c-62.31-0.01-124.62,0-186.92-0.01
		c-18.16,0.14-36.34-0.29-54.48,0.23c0.24,19.13,0.03,38.27,0.09,57.41c47.76,0.18,95.52,0.02,143.28,0.08
		c54.84-0.06,109.67,0.11,164.51-0.09c0.06-19.14-0.16-38.28,0.1-57.41C576.5963,634.3359,554.3863,634.7358,532.1963,634.6158z
		 M479.0563,190.8959c-9.65,0.15-19.19-1.67-28.84-1.28c-7.61,0.22-15.6-1.03-22.72,2.34c-6.69,2.19-8.95,9.85-14.99,12.99
		c-7.92,4.88-17.54,3.05-26.29,2.61c-0.12,11.05,1.08,22.05,1.06,33.09c0.27,8.67,1.13,17.32,0.92,26
		c-0.16,6.66,0.89,13.27,1.01,19.93c0.15,8.01-0.01,16.04,0.87,24.02c0.19,9.35,0.42,18.7,1.07,28.03
		c0.2,6.37-0.23,12.77,0.63,19.12c11.15,1.26,22.27-0.56,33.43-0.22c10.01-0.86,20.02,0.34,30.05,0.06
		c9.72,0.51,19.44-0.16,29.17-0.06c-0.35-8.63-0.3-17.27-0.91-25.89c-0.69-7.98,0.07-16.01-0.76-23.98
		c-0.9-9.02-0.48-18.08-0.89-27.12c-1.06-10.61-0.6-21.29-1.4-31.92c-0.64-6.97,0.14-13.98-0.71-20.93
		C478.9863,215.4359,479.2063,203.1559,479.0563,190.8959z M476.1963,187.5759c2.04-0.04,4.12,0.06,6.05,0.8
		c-0.17,11.16-0.05,22.33,0.68,33.47c6.27-3.24,12.6-6.96,16.89-12.71c6.04-7.78,11.5-16.04,15.96-24.82
		c5.86-11.63,5.2401-25.05,5.57-37.71c0.86-11.98-0.63-23.96,0.29-35.93c-0.32-8.26,0.42-17.28-4.21-24.57
		c-1.98-3.69-6.06-5.18-9.95-5.86c-20.95-3.69-42.2-4.64-63.39-5.89c-4.27-0.67-8.59-0.75-12.9-0.69
		c-7.35,0.1-14.63-1.23-21.98-1.05c-5.23,0.16-10.44-0.26-15.65-0.63c8.64,7.93,9.73,20.43,10.87,31.4
		c1.4,7.35,0.69,14.86,0.84,22.29c-0.8,10.45-2.8,20.79-5.53,30.92c-2.95,10.86-6.23,21.74-11.6,31.69
		c-2.75,4.95-6.04,9.75-10.55,13.26c0.03-0.07-3.07,0.3-1.67,0.82c5.44,0.78,10.83,2.08,16.35,2.26c5.95,0.62,12.36,0.8,17.81-2.05
		c5.39-2.77,7.74-8.93,12.87-12.04c4.31-2.42,9.21-4.03,14.19-3.97c7.05,0.07,14.09,0.01,21.14,0.02
		C464.2663,186.5859,470.1963,187.6459,476.1963,187.5759z M937.4563,1086.2358c-89.22-0.13-178.4301-0.0699-267.65-0.03
		c-0.07,2.63-0.08,5.27-0.02,7.92c35.16,0.2,70.32,0.02,105.49,0.08c54.0601-0.0599,108.1201,0.12,162.1801-0.09
		C937.4463,1091.4758,937.4463,1088.8558,937.4563,1086.2358z M222.0763,67.4359c-9.1,0.73-17.34,5.19-24.55,10.51
		c3.99,1.01,7.08,3.98,9.13,7.45c5.78,9.32,7.4,20.44,8.5,31.16c0.21,8.77,0.27,17.62-1.62,26.24c-1.76,9.74-5.15,19.98-13.18,26.37
		l-1.53-1.65c0.57,1.09,1.27,3.28,2.96,1.23c8.09,1.19,16.32,0.7,24.43-0.1c9.69-0.19,19.42-0.33,29.09,0.6
		c7.59,0.37,15.23-0.05,22.77,1.13c12.5,0.34,24.96,1.7,37.36,3.21c9.24,0.81,19.72,2.16,26.25,9.52
		c6.4,6.14,10.41,15.53,19.45,18.35c6.01,2.57,12.76-0.55,17.09-4.87c6.51-7.06,10.34-16.07,13.54-25
		c4.19-12.69,7.84-25.66,9.44-38.95c2.17-13.69,0.66-27.61-1.7-41.17c-1.09-6.49-3.56-13.11-8.68-17.51
		c-3.93-3.38-8.93-6.74-14.39-5.42c-10.1,2.03-18.78,7.96-27.94,12.38c-8.03,4.41-17.19,6.33-26.27,6.77
		c-22.06,0.79-42.76-8.01-63.11-15.32c-6.04-2.49-12.59-3.18-18.96-4.38C234.1463,67.4359,228.0863,66.2559,222.0763,67.4359z
		 M185.9863,157.9959c2.19,4.1,5.8,9.35,11.13,8.44c6.59-2.83,9.26-10.23,11.36-16.54c4.46-15.29,4.65-31.74,1.35-47.28
		c-1.74-6.89-3.91-14.16-9.1-19.28c-1.86-1.4-4.69-3.52-6.96-1.79c-10.9,7.6-13.1,21.8-14.31,34.07
		C178.5863,129.9259,179.6163,144.9359,185.9863,157.9959z M538.5663,535.5859c-0.7-7.96,0.06-15.98-1.06-23.91
		c-0.67-8.34-0.24-16.75-1.27-25.07c0.12-9.68-1.28-19.31-1.05-28.99c-0.15-6.54-1.28-13.03-1.09-19.59
		c0.17-5.48-0.55-10.9-0.89-16.35c0.06-9.36-1.21-18.68-1.04-28.04c-0.11-5.01-0.91-9.98-0.99-14.98
		c-0.17-5.04,0.25-10.12-0.57-15.12c-11.14,0.05-22.26-1.12-33.42-0.95c-22.94-1.83-45.97-0.45-68.95-0.83
		c-12.03,0.17-24.14-0.83-36.11,0.75c-14.93,0.89-29.79,2.17-44.68,3.43c-0.19,6.58,0.93,13.11,0.76,19.7
		c-0.06,11.65,1.23,23.27,0.99,34.93c-0.17,8.02,1.01,15.98,1.04,23.99c0.05,8.95,0.09,17.91,0.91,26.84
		c-0.1,14.06,1.27,28.09,1.06,42.15c0.14,7.52,1.09,15.01,0.99,22.54c14.34,0.27,28.67-0.14,43-0.17
		C443.6463,535.5359,491.1063,535.6058,538.5663,535.5859z M541.7663,541.0458c-1.01-0.95-1.8-2.68-3.45-2.41
		c-27.68-0.04-55.36-0.03-83.04-0.02c-14.35,0.75-28.73-0.14-43.08,0.64c-18.67-0.27-37.31,0.53-55.97,0.27
		c-1.81,0.1-3.9-0.4-5.39,0.92c-4.84,3.58-9.59,7.26-14.45,10.81c14.29,0.19,28.58,0.43,42.87,0.32
		c37.33-0.28,74.62,1.42,111.95,1.01c20.36,0.4,40.72,0.6,61.08,0.92C548.9763,549.1859,545.1263,545.3259,541.7663,541.0458z
		 M567.2063,605.8759c-9.7-0.49-19.28-2.22-28.9901-2.41c-6.34-1.15-12.81-0.71-19.18-1.56c-7.96-0.04-15.81-1.52-23.78-1.29
		c-9.25-1.15-18.58-0.97-27.86-1.84c-7.43,0.06-14.78-1.21-22.21-1.05c-14.75-0.48-29.39,1.58-44.11,2.14
		c-5.86,1.16-11.88,0.46-17.75,1.54c-30.82,2.25-61.54,5.03-92.32,7.67c-0.25,7.41-0.02,14.84-0.14,22.25
		c102.72,0.15,205.44-0.12,308.16-0.07c0.07-7.55,0.04-15.09-0.11-22.63c-4.95-0.01-9.83-1-14.78-1.08
		C578.5463,606.4059,572.8163,606.8159,567.2063,605.8759z M539.2663,599.8558c4.67,1.13,9.5,0.48,14.24,1.03
		c0.12-14.69-0.15-29.39,0.13-44.08c-16.15-0.37-32.32-0.11-48.46-0.9c-35.99-0.25-72-0.06-107.97-1.27
		c-21.28-0.12-42.56,0.21-63.83-0.38c1.22,15.28,0.65,30.64,1.87,45.93c11.3-1,22.64-1.52,33.96-2.53
		c8.02,0.15,15.93-1.53,23.96-1.18c10.99-1.1801,22.06-1.11,33.08-1.88c8.7,0.45,17.33-1.07,26.02-1.02
		C481.4063,593.3859,510.2663,597.8459,539.2663,599.8558z M517.0363,189.4859c10.1,0.33,20.06,2.45,30.12,3.26
		c31.9301,4.21,63.98,7.59,95.82,12.46c3.17-2.95,5.43-6.68,7.28-10.56c5.71-11.87,8.99-24.89,9.59-38.05
		c0-14.42-3.47-28.65-8.91-41.95c-22.33-0.03-44.64-1.17-66.97-1.09c-19.6299-1.07-39.29-0.78-58.94-1.05
		c-0.55,6.67-0.35,13.37-0.0699,20.05c0.11,8.33-0.29,16.67-0.7,24.99c0.08,6.3-0.75,12.58-2.02,18.74
		C521.3163,180.9759,518.8463,185.1159,517.0363,189.4859z M539.4063,482.6859c0.78,10.29,0.66,20.61,1.61,30.9
		c0.53,7.63-0.41,15.4,1.28,22.93c5.37,6.56,10.98,12.96,16.63,19.3c-0.55,0.33-1.66,0.99-2.21,1.32
		c0.19,14.78,0.08,29.58,0.06,44.37c14.83,1.81,29.75,2.96,44.67,4.07c1.54,6.85,0.39,14.02,0.76,21
		c-0.67,22.39-0.31,44.82-0.33,67.22c2.03-0.0099,4.05,0.03,6.09,0.08c0.51,10.03,0.16,20.09,0.17,30.14
		c-3.41,0.22-6.9,0.15-10.25,0.23c2.5,3.13,4.03,6.94,6.72,9.95c10.65,13.41,26.48,20.96,41.39,28.56
		c22.28,10.82,42.81,24.83,62.77,39.39c35.78,26.44,67.98,57.59,96.22,91.96c26.98,32.17,51.87,66.9901,66.59,106.63
		c3.08,9.06,7.36,17.8,13.35,25.3201c9.88,12.62,23.73,20.98,36.44,30.39c3.24,2.7999,7.27,5.0199,9.42,8.87
		c2.3,5.6499,0.14,11.88,1.84,17.6899c2.68-0.04,5.37-0.02,8.06,0.09c0.14,4.7101,0.2,9.4301-0.02,14.15
		c-55.83,0.3-111.67,0.05-167.5,0.13c-35.49-0.08-70.98,0.15-106.47-0.12c-0.19-4.7-0.14-9.41-0.04-14.11
		c2.6-0.1901,5.26,0.03,7.84-0.48c7.83-2.8201,15.12-7.8401,19.49-15.0601c4.4-7.1,7.69-15.8199,5.45-24.2
		c-1.43-7.4401-4.3-14.51-5.56-21.99c-1.32-7.21-6.67-12.77-12.28-17.07c-9.33-6.95-20.23-11.6-31.41-14.65
		c-17.52-5.32-35.99-0.91-53.17,3.59c-15.4,4.21-30.35,9.9-45.13,15.9c-29.55,12.78-62,15.84-93.7,18.52
		c-7.34-0.12-14.61,1.17-21.94,0.9c-42.02,0.5-83.95-4.86-124.87-14.28c-15.18-3.64-30.51-7.04-45.08-12.75
		c-13.98-5.11-28.08-10.84-43.08-11.92c-8.04-0.53-17.05,1.09-22.65,7.37c-5.78,7.4-4.44,17.68-9.02,25.64
		c-1.5,2.7899-4.47,4.33-7.49,4.88c-15.56-1.3201-31.26-0.26-46.88-0.7101c0.04-96.48,0.01-192.97,0.01-289.45
		c14.64-0.16,29.29-0.25,43.92,0.03c0.35,11.74,5.3,23.37,13.55,31.74c9.12,8.99,21.88,13.46,34.49,14.22
		c17.32,0.73,35.04-5.21,47.94-16.9c11.7-10.55,18.56-26.58,17.99-42.38c1.25,0.02,2.78,0,4.03,0.0099
		c-1.11,3.28-0.44,7.11-1.28,10.45c-2.25,14.95-10.61,28.88-22.74,37.9c-13.02,9.92-29.63,14.85-45.94,14.17
		c-12.32-0.58-24.65-4.7-34.17-12.7c-6.57-5.47-11.28-12.93-14.18-20.92c-1.3,0.02,1.08,2.57,0.43,3.58
		c-0.06,87.66-0.04,175.32-0.01,262.98c0.24,1.59-1.1,3.14-0.62,4.7c2.07,0.8,4.17-0.49,6.19-0.94c5.91-6.47,4.71-16.08,8.36-23.65
		c3.41-8.36,12.65-12.48,21.17-13.17c17.46-1.01,34.03,5.71,50.12,11.59c10.57,4.23,21.57,7.2,32.62,9.89
		c27.36,6.9,55.19,12.07,83.27,14.9301c4.58,1.06,9.32,0.37,13.94,1.21c24.28,1.86,48.74,1.55,72.98-0.54
		c25.45-2.51,51.26-5.66,75.27-15c28.46-11.51,57.71-23.26,88.74-24.73c11.72,0.3,23.16,3.61,33.84,8.3101
		c6.44,2.95,12.73,6.36,18.23,10.87c5.18,4.43,10.2,9.83,11.5,16.78c1.81,10.96,7.39,21.39,6.3,32.7501
		c-1.78,12.8999-9.97,24.87-21.71,30.7c25.9-0.61,51.84-0.09,77.75-0.26c56.7,0,113.4-0.01,170.1,0
		c-0.63-3.4301-0.83-6.92-0.64-10.38c0.04-2.8-0.04-6.14-2.52-7.96c-11.86-10.63-26.41-17.9301-37.45-29.53
		c-8.81-8.59-15.31-19.38-19.34-30.97c-13.27-36.78-35.48-69.53-60.05-99.65c-23.7-29.43-49.75-57.07-78.91-81.15
		c-18.9-15.76-38.92-30.18-59.8-43.21c-13.34-8.78-28.08-15.03-42-22.78c-14.05-7.65-27.29-18.26-33.97-33.18
		c-98.49-0.09-197.02,0.11-295.48-0.1c-5.99-0.01-11.99-0.02-17.98-0.04c-0.02-10.04-0.01-20.08-0.01-30.12
		c2.14-0.1,4.28-0.17,6.42-0.15c0.17-29.14-0.14-58.26,0.1-87.39c14.74-2.05,29.67-2.38,44.44-4.28c-1.12-15.85-0.77-31.76-2-47.61
		c-0.47-0.17-1.39-0.5-1.85-0.67c6.74-6.34,14.73-11.29,21.99-17.04c-1.62-15.04-0.53-30.18-1.94-45.22
		c-0.09-11.32-0.6-22.64-1.1-33.95c0.38-12.35-1.37-24.65-1.03-37c0.32-9.38-1.25-18.68-1.02-28.06c0.02-9.65-1.03-19.28-0.89-28.93
		l0.77-0.78c14.37-1.08,28.72-2.5,43.11-3.26c0.11-9.97,0.17-19.96-0.84-29.89c-0.13-10.04-0.55-20.08-1.1-30.11
		c0.38-10.03-1.12-20-1.02-30.02c-0.05-4.37,0.15-8.75-0.27-13.11c-1.19-10.56-0.53-21.21-1.42-31.79
		c-0.57-5.9-0.03-11.84-0.54-17.74c-3.43-0.79-7.02-1.02-10.26-2.45c-5.28,1.53-11.09,1.5-15.98-1.26
		c-9.22-4.86-13.05-15.52-21.48-21.33c-5.1-3.2-11.21-3.92-17.03-4.89c-11.31-1.18-22.65-2.29-33.97-3.37
		c-8.02,0.32-15.95-1.36-23.97-1.02c-10.98-0.41-21.99-1.35-32.99-0.71c-10.14,0.76-20.49,1.52-30.5-0.73
		c-4.18-0.92-8.23-2.98-10.89-6.41c-7.32-9.09-10.18-20.83-11.48-32.2c-1.02-14.09,0.4-28.83,7.09-41.48
		c2.16-4.24,4.32-8.89,8.52-11.48c4.11-2.49,7.41-6.06,11.59-8.43c8.5-5.35,18.65-7.79,28.65-7.5c8.68,0.67,17.31,2.03,25.77,4.1
		c20.28,7,40.43,16.18,62.24,16.78c8.34-0.09,16.82-1.22,24.53-4.55c9.57-4.37,18.46-10.32,28.52-13.58
		c5.17-1.73,11.27-2.27,15.98,0.97c2.25,1.74,5.16,1.21,7.8,1.46c11.04,1.14,22.19,0.14,33.22,1.57
		c12.29,0.21,24.57,1.04,36.82,2.01c5.75-0.2,11.37,1.37,17.12,1.22c7.31,0.84,14.67,1.43,21.92,2.77
		c5.13,0.81,11.05,1.45,14.51,5.83c6.31,7.33,5.9301,17.63,6.3,26.72c13.05,0.68,26.12,0.66,39.18,0.64
		c18.33,0.68,36.68,0.94,55.02,1.08c11.33,0.66,22.6801,0.8,34.03,0.84c6.09,13.9,9.49,28.93,10.04,44.1
		c-0.82,14.79-4.22,29.6-11.17,42.76c-2.23,3.87-4.59,8.35-8.93,10.14c-37.53-5.72-75.28-9.71-112.92-14.57
		c-5.04-0.22-9.97-1.81-15.03-1.39c-4.17,6.71-8.45,13.39-13.49,19.5c-4.75,6.16-11.86,9.73-18.44,13.57
		c-0.03,9.65-0.1,19.32,0.88,28.94c-0.07,12.64,1.23,25.25,1.09,37.89c0.19,7.06,1.06,14.09,1.02,21.16
		c0.05,5.04-0.15,10.09,0.3,15.12c1.07,9.97,0.58,20.02,1.27,30.02c9.76,0.67,19.56,0.67,29.35,1c5.5,0.65,11.04,0.52,16.55,0.96
		c0.85,7.06,0.11,14.19,0.97,21.25c1.05,8.83,0.15,17.78,1.41,26.6c0.02,10.02,1.22,20,1.1299,30.03c0.2,6,1.17,11.96,1.03,17.98
		C537.9363,465.3259,539.5663,473.9559,539.4063,482.6859z"/>
</g>
<g>
	<path stroke="#8E8E8E" stroke-width="0.0938" d="M872.48,1229.39c1.24-4.47-0.05-9.1901,1.06-13.64
		c4.42,6.9301,7.37,14.7,10.87,22.12c9.65,22.05,18.26,44.6801,23.7401,68.16c2.67,13.37,5.31,27.34,2.13,40.87
		c-1.5601,7.0699-5.9901,13.8099-12.79,16.74c-8.04,3.45-17.11,2.47-25.29,0.09c-7.96-2.29-14.91-7.99-18.29-15.6
		c-4.1-8.41-4.33-17.97-4.02-27.12C852.19,1289.37,865.1,1259.95,872.48,1229.39 M875.44,1227.16c0.54,4.6599-1.47,9.09-2.43,13.58
		c-7.63,26.46-17.56,52.6-19.94,80.23c-0.38,9.9601,0.16,20.6901,5.82,29.27c3.33,5.38,9.05,8.8201,15.02,10.5701
		c6.77,1.8199,14.1201,2.74,20.88,0.34c6.22-2.0601,10.51-7.89,12.03-14.09c3.21-11.8501,1.16-24.2301-0.95-36.0801
		c-4.85-22.6799-12.89-44.5499-21.92-65.86c-2.34-5.98-5.52-11.62-7.53-17.7C876.17,1227.35,875.68,1227.22,875.44,1227.16z"/>
	<path fill="#FFFFFF" stroke="#FFFFFF" stroke-width="0.0938" d="M875.44,1227.16c0.24,0.0599,0.73,0.1899,0.98,0.26
		c2.01,6.08,5.19,11.72,7.53,17.7c9.03,21.3101,17.07,43.1801,21.92,65.86c2.11,11.85,4.16,24.23,0.95,36.0801
		c-1.52,6.2-5.81,12.0299-12.03,14.09c-6.7599,2.4-14.11,1.48-20.88-0.34c-5.97-1.75-11.69-5.1901-15.02-10.5701
		c-5.66-8.58-6.2-19.3099-5.82-29.27c2.38-27.63,12.31-53.77,19.94-80.23C873.97,1236.25,875.98,1231.8199,875.44,1227.16z"/>
	<path stroke="#8E8E8E" stroke-width="0.0938" d="M774.24,1348.86c4.44,5.53,6.84,12.4301,10.08,18.71
		c9.22,19.5801,17.45,39.7001,23.41,60.52c3.71,13.5901,6.74,27.66,5.53,41.8201c-0.73,6.96-3.04,14.3199-8.61,18.9399
		c-6.84,5.4301-16.29,6.14-24.58,4.4501c-8.98-1.2101-18.07-5.62-22.93-13.52c-4.83-7.29-5.86-16.27-6.17-24.79
		c1.02-25.4399,9.71-49.62,17.23-73.6799C771.38,1370.77,775.31,1360.05,774.24,1348.86 M774.18,1372.97
		c-6.36,21.5801-14.37,42.78-18.19,65.03c-1.09,8.27-2.64,16.6899-1.1,25.02c0.85,8.45,4.59,17.1799,11.91,21.97
		c5.88,4.09,13.14,5.27,20.13,5.92c6.75,0.0599,14.34-1.79,18.39-7.66c5.55-7.89,5.29-18.0699,4.62-27.26
		c-1.11-12.33-4.48-24.3199-8.12-36.1c-6.68-20.42-15.12-40.25-24.64-59.5C776.31,1364.61,775.43,1368.84,774.18,1372.97z"/>
	<path fill="#FFFFFF" stroke="#FFFFFF" stroke-width="0.0938" d="M774.18,1372.97c1.25-4.13,2.13-8.36,3-12.58
		c9.52,19.25,17.96,39.08,24.64,59.5c3.64,11.78,7.01,23.77,8.12,36.1c0.67,9.1901,0.93,19.37-4.62,27.26
		c-4.05,5.87-11.64,7.72-18.39,7.66c-6.99-0.65-14.25-1.8301-20.13-5.92c-7.32-4.79-11.06-13.52-11.91-21.97
		c-1.54-8.3301,0.01-16.75,1.1-25.02C759.81,1415.75,767.82,1394.55,774.18,1372.97z"/>
	<path stroke="#8E8E8E" stroke-width="0.0938" d="M880.06,1525.1c3.23,3.04,4.69,7.4601,6.96,11.2101
		c9.93,19.23,18.93,39.11,24.48,60.09c2.38,10.5,4.69,21.77,1.3,32.3099c-2.18,7.23-9.38,12.2101-16.83,12.39
		c-9.17,0.53-19.14-1.1699-26.2-7.46c-6.82-6.1901-8.7-15.85-8.81-24.67c1.21-24.98,11.99-47.9399,18.43-71.76
		C880.54,1533.27,879.74,1529.12,880.06,1525.1 M882.44,1537.65c-0.44,3.78-1.99,7.33-2.95,11.01
		c-6.42,20.0499-14.31,40.0399-15.41,61.2999c0.61,7.49,1.94,15.8201,7.83,21.13c6.79,5.9501,16.4301,7.51,25.1801,6.6901
		c6.34-0.72,11.79-5.61,13.1299-11.85c2.04-9.38,0.42-19.0901-1.77-28.29c-5.72-21.3-14.8-41.54-25.07-61l0.57-1.9301
		C882.81,1535.21,881.03,1535.92,882.44,1537.65z"/>
	<path fill="#FFFFFF" stroke="#FFFFFF" stroke-width="0.0938" d="M882.44,1537.65c-1.41-1.73,0.37-2.4401,1.51-2.9401l-0.57,1.9301
		c10.27,19.46,19.35,39.7,25.07,61c2.19,9.2,3.81,18.91,1.77,28.29c-1.34,6.24-6.79,11.13-13.1299,11.85
		c-8.75,0.8199-18.39-0.74-25.1801-6.6901c-5.89-5.3099-7.22-13.64-7.83-21.13c1.1-21.26,8.99-41.25,15.41-61.2999
		C880.45,1544.98,882,1541.4301,882.44,1537.65z"/>
	<path stroke="#8E8E8E" stroke-width="0.0938" d="M809.05,1659.03c1.49,0.84,1.88,2.58,2.52,4.0699
		c8.86,22.76,16.29,46.11,21.59,69.9601c1.84,9.2699,3.6801,18.59,4.1201,28.0599c0.81,5.23,0.84,10.5699-0.01,15.8199
		c-0.56,7.4801-2.66,15.6001-8.6,20.66c-6.02,5.1-14.64,4.8201-21.82,2.8201c-7.7-2.26-13.65-8.8401-15.8-16.4701
		c-2.94-8.37-1.95-17.2999-2.03-25.97c2.39-23.4299,9.21-46.0699,15.31-68.73C806.8,1679.33,809.78,1669.36,809.05,1659.03
		 M811.33,1672.34c-0.46,2.04-0.18,4.26-0.79,6.3301c-6.83,28.2699-16.65,56.12-18.54,85.3199c-0.15,8.88,0.73,18.53,5.94,26.04
		c4.74,6.6699,13.64,9.15,21.46,8.0499c6.33-0.7899,10.98-6.3099,12.66-12.1699c3.09-8.65,1.7-17.9601,1.84-26.9401
		c-3.28-28.78-11.82-56.6799-21.4901-83.89C811.94,1674.2,812.19,1672.66,811.33,1672.34z"/>
	<path fill="#FFFFFF" stroke="#FFFFFF" stroke-width="0.0938" d="M811.33,1672.34c0.86,0.3201,0.61,1.86,1.08,2.74
		c9.67,27.2101,18.21,55.11,21.4901,83.89c-0.14,8.98,1.25,18.29-1.84,26.9401c-1.68,5.86-6.33,11.38-12.66,12.1699
		c-7.82,1.1001-16.72-1.38-21.46-8.0499c-5.21-7.51-6.09-17.16-5.94-26.04c1.89-29.2,11.71-57.05,18.54-85.3199
		C811.15,1676.6,810.87,1674.38,811.33,1672.34z"/>
	<path stroke="#8E8E8E" stroke-width="0.0938" d="M942.2,1706.77c8.16,17.48,14.5,35.79,19.96,54.29
		c3.6801,12.72,6.58,25.72,7.82,38.9299c0.09,8.84,0.82,18.25-3.63,26.29c-2.62,5.36-8.33,8.78-14.22,9.08
		c-8.33,0.73-17.52-1.8199-22.84-8.61c-5.91-7.89-6.69-18.2-6.31-27.71c1.68-24.6901,10.23-48.12,16.31-71.91
		C941.19,1720.49,942.19,1713.66,942.2,1706.77 M944.41,1719.28c-4.55,22.2-12.89,43.48-16.5,65.9
		c-1.45,9.5399-2.97,19.4099-0.61,28.95c1.12,5.67,3.95,11.37,8.99,14.52c5.79,3.59,13.14,4.28,19.67,2.65
		c6.77-2.29,9.47-9.67,10.5099-16.12c1.39-10.51-0.18-21.13-2.15-31.4701C960.03,1761.58,952.2,1740.36,944.41,1719.28z"/>
	<path fill="#FFFFFF" stroke="#FFFFFF" stroke-width="0.0938" d="M944.41,1719.28c7.79,21.08,15.6201,42.2999,19.91,64.4299
		c1.97,10.3401,3.54,20.9601,2.15,31.4701c-1.04,6.45-3.74,13.83-10.5099,16.12c-6.53,1.63-13.88,0.9399-19.67-2.65
		c-5.04-3.15-7.87-8.85-8.99-14.52c-2.36-9.54-0.84-19.41,0.61-28.95C931.52,1762.76,939.86,1741.48,944.41,1719.28z"/>
</g>
</svg>
