<?xml version="1.0" encoding="utf-8"?>
<!-- Generator: Adobe Illustrator 21.0.2, SVG Export Plug-In . SVG Version: 6.00 Build 0)  -->
<svg version="1.1" xmlns="http://www.w3.org/2000/svg" xmlns:xlink="http://www.w3.org/1999/xlink" x="0px" y="0px"
	 viewBox="0 0 447.7 447.7" style="enable-background:new 0 0 447.7 447.7;" xml:space="preserve">
<style type="text/css">
	.st0{font-family:'MyriadPro-Regular';}
	.st1{font-size:14.1534px;}
</style>
<g id="Layer_1">
</g>
<g id="_x30_">
	<g id="MTEXT">
		<text transform="matrix(1 0 0 1 188.2597 379.8054)" class="st0 st1">freepatternsarea.com</text>
	</g>
	<g>
		<path d="M363.8,97.7c-0.3,0.2-0.8,0.3-1,0.5c-1,1.3-1,3.1-0.1,4.5c0.7,0.9,1.5,1,2.6,0.5c-0.2-0.3-0.2-0.4-0.3-0.6
			c-0.8-1.1-2.5-2-0.9-3.7C364.3,98.8,364,98.1,363.8,97.7z"/>
		<path d="M238.7,201.3c1.4-0.7,2.8-1.4,4.1-2.4c1.1-0.8,1.8-2.1,1.5-3.9c-1,2.2-2.7,3.1-4.5,3.9c-1.3,0.5-2.6,1.1-3.7,1.8
			c-1.7,1.1-2.8,2.6-2.4,4.8C234.5,203.1,236.7,202.3,238.7,201.3z"/>
		<path d="M241.8,214.7c0.2-0.4,0.5-0.8,0.4-1.2c-0.1-0.6-0.3-1.3-0.8-1.7c-0.3-0.3-1-0.2-1.4,0c-0.5,0.3-1,0.8-1.4,1.3
			c-2.8,3.8-2.6,10.5,0.7,14.2C238.3,222.8,239.6,218.7,241.8,214.7z"/>
		<path d="M235.2,211.1c0.2-0.4-0.5-1.4-1-1.7c-0.4-0.2-1.5,0-1.8,0.4c-0.7,0.9-1.4,2-1.7,3.1c-0.6,2.6,0.5,5,1.6,7.3
			c1,2.2,1.8,4.4,0.5,6.8c2-1.3,2.5-3.2,2.4-5.3C235.2,218.3,234.1,214.7,235.2,211.1z"/>
		<path d="M222.3,225.9c2.4-6.4,4.9-12.8,7.4-19.3C224.6,209.3,220,221.4,222.3,225.9z"/>
		<path d="M194.3,234c0,0,0,0.1,0,0.1c-0.2,0.6-0.3,1.3-0.2,1.9c0,0.4,0.5,0.9,0.8,1c0.3,0.1,0.8-0.3,1.1-0.6
			c0.2-0.2,0.3-0.4,0.4-0.7c0-0.1,0-0.2,0.1-0.3c0.6-4.1,1.3-8.2,1.9-12.2c-0.2,0-0.5-0.1-0.7-0.1
			C196.5,226.8,195.4,230.4,194.3,234z"/>
		<path d="M204.6,220.2c-1.7,4.3-3.4,8.5-5,12.8c-0.3,0.9-0.6,1.9-0.7,2.9c-0.1,0.6-0.2,1.2-0.3,1.8c0,0.4,0.5,1.1,0.9,1.2
			c0.4,0.1,1.2-0.2,1.4-0.6c0.5-0.8,0.9-1.6,1.1-2.5c1.1-5.1,2.1-10.3,3.2-15.4C205,220.3,204.8,220.3,204.6,220.2z"/>
		<path d="M213.4,216c1.2-1.6,2.6-3.2,3.9-4.8c0-0.1-0.1-0.1-0.1-0.2c-1.2,0.8-2.4,1.5-3.5,2.3c-4,3.1-6.3,7-6.9,12.2
			c-0.5,4.6-1.4,9.2-2.2,13.7c-0.1,0.3-0.2,0.7-0.3,1s-0.2,0.6-0.2,1c3.2-4.3,5-9,5.5-14.2C209.9,222.9,211,219.2,213.4,216z"/>
		<path d="M229.3,223.7c-3.1,2.9-4.7,6.3-4.6,10.6C227.8,232.3,230.1,226.7,229.3,223.7z"/>
		<path d="M220.3,214.6c-5,5.5-7.7,11.9-8.1,19.5C215.6,230.1,220.2,218.9,220.3,214.6z"/>
		<path d="M218.8,233.1c-3.3,3.9-6.6,7.8-10,11.9C213.8,244.1,219.4,237.3,218.8,233.1z"/>
		<path d="M223.1,233.7c-3.8,9.9-4.8,9.7-9.3,13.9C221.6,247.2,225.2,238.9,223.1,233.7z"/>
		<path d="M225.6,246.2c1.4-3.5,2.3-7.1,3.4-10.7c-0.1-0.1-0.2-0.1-0.3-0.2c-0.7,0.9-1.5,1.8-2,2.8c-1,2-1.8,4-2.7,6
			c-1.4,3.2-3.1,6.2-6.7,7.4c2,0.4,3.7,0,5.1-1.3C223.6,249,224.9,247.7,225.6,246.2z"/>
		<path d="M231,243c-2.2,5-5.7,8.6-10.6,11.3C226.9,255,232.6,248.8,231,243z"/>
		<path d="M242.9,227.1c-0.2,0.3-0.4,0.5-0.6,0.8c-2,2.8-2.7,6.1-2.3,9.5c0.6,4.8,1.5,9.6,2.4,14.8c0.2-0.7,0.5-1.2,0.5-1.6
			c0.1-2.9,0.4-5.8,0.3-8.8c-0.1-3.1-0.7-6.2-0.8-9.3c0-1.9,0.5-3.8,0.8-5.7C243.1,226.9,243,227,242.9,227.1z"/>
		<path d="M235.8,230.5c-1.9,6.2-2,12.4-0.3,18.6C237.4,242.9,237.6,236.7,235.8,230.5z"/>
		<path d="M231.8,262.3c0.2,0,0.3,0,0.5,0c0.2-3.7,0.4-7.4,0.7-11.2c-0.1,0-0.3,0-0.4,0C230.5,254.7,230.3,258.5,231.8,262.3z"/>
		<path d="M241,251.1c-2.1,3.2-2.4,8.6-0.8,11.2C242.1,258.7,242.4,255.1,241,251.1z"/>
		<path d="M235.5,262.2c1.6-3.7,1.8-7,0.5-10.8C234.4,255,234.2,258.4,235.5,262.2z"/>
		<path d="M235.5,265.9c0.8,0.6,1.7,0.5,2.5-0.2c-0.7-0.3-1.6-0.4-2-0.9c-0.3-0.5-0.2-1.3-0.2-2.4c-0.5,0.8-1.1,1.3-1.2,1.9
			C234.6,264.8,235,265.6,235.5,265.9z"/>
		<path d="M238.1,266.8c-1.9-0.1-3.1,1-3.1,2.7c0,1.5,1.1,2.6,2.4,2.5C236,269.9,236.1,268.9,238.1,266.8z"/>
		<path d="M244.4,190.9c-1.7-0.9-3.5-1.6-5.3-2.3c-0.1,0.1-0.2,0.3-0.3,0.5c0.8,0.6,1.5,1.1,2.3,1.7c0.8,0.6,1.6,1.2,2.5,1.8
			c0.4,0.2,1.1-0.1,1.6-0.1c0-0.1-0.1-0.1-0.1-0.2C244.9,191.7,244.8,191.1,244.4,190.9z"/>
		<path d="M235.9,183.3C235.9,183.3,235.9,183.2,235.9,183.3c-0.1,0.1-0.2,0.3-0.2,0.4c1.4,0.8,2.7,1.7,4.2,2.5c1,0.5,2,1,3.1,1.3
			c0.3,0.1,1-0.3,1.2-0.7c0.1-0.3-0.2-0.9-0.5-1.2c-0.2-0.3-0.5-0.4-0.9-0.5C240.6,184.4,238.2,183.8,235.9,183.3z"/>
		<path d="M233.1,183.3c0.2,0.3,0.7,0.3,1.1,0.3h0.2c-0.1-0.5,0-1-0.2-1.3c-1-1.3-2.4-1.9-4.2-2.4c0.9,0.9,1.6,1.8,2.3,2.6
			C232.6,182.8,232.9,183.1,233.1,183.3z"/>
		<path d="M236.4,181.1c0.2,0,0.3,0,0.5-0.1c-0.2-0.4-0.2-0.9-0.5-1.1c-1.2-0.7-2.4-1.4-3.6-2c-0.1,0.1-0.2,0.3-0.3,0.4
			c1,0.9,2,1.9,3.1,2.8C235.8,181.2,236.1,181.2,236.4,181.1z"/>
		<path d="M237.6,179.8c0.3,0.4,0.8,0.8,1.2,1.2c0.3,0.2,0.9,0.1,1.2-0.1c0.2-0.1,0.2-0.7,0.2-1.1c-0.1-0.3-0.3-0.7-0.6-0.9
			c-1.5-1.3-2.9-2.6-4.4-3.9c-0.1,0.1-0.2,0.2-0.3,0.3c0.8,1.3,1.6,2.7,2.5,4C237.3,179.5,237.4,179.6,237.6,179.8z"/>
		<path d="M243.9,180.1c0.2,0.1,0.4,0.1,0.6,0.2c0.4,0.1,0.8-0.1,0.9-0.6c0.1-0.4-0.2-1.2-0.5-1.4c-1.9-1.5-3.9-2.8-5.7-4.1
			c0.3,1.3,0.8,2.5,1.5,3.5C241.5,178.6,242.5,179.5,243.9,180.1z"/>
		<path d="M249.1,182.2c-1.6-0.3-3.1-0.5-4.7-0.7c-0.2,0-0.5-0.1-0.7-0.1c0,0.2-0.1,0.3-0.1,0.5c1.7,0.7,3.4,1.4,5.1,2
			c0.3,0.1,0.6,0.2,0.8,0.2c0.3,0,0.7-0.2,0.8-0.7C250.5,182.5,249.7,182.3,249.1,182.2z"/>
		<path d="M249.8,179.5c2.8,0,5.6-0.1,8.3-0.1c0-0.2,0-0.5,0-0.7c-2.7-0.5-5.4-1.1-8.2-1.6c-0.7-0.1-1.5-0.1-1.7,1
			C248.2,179.3,249.1,179.5,249.8,179.5z"/>
		<path d="M203.5,219.7c1.6-2.5,3.7-4.6,5.9-6.6c6.4-5.9,12.1-12.3,17.1-19.4c0.2-0.3,0.4-0.6,0.6-0.9c-4.5,3.2-8.6,6.7-12.5,10.4
			c-2.3,2.3-4.6,4.6-6.7,7.1c-2.1,2.5-4,5-5.2,8.1c-0.4,1.2-0.7,2.4-1,3.6c0.1,0,0.2,0.1,0.3,0.1
			C202.4,221.3,202.9,220.5,203.5,219.7z"/>
		<path d="M223.5,201.6c-0.6,0.9-1.3,1.8-1.8,2.7c-0.5,1-0.5,1.9,0.5,2.6c0.9,0.7,1.7,0.3,2.3-0.3c0.8-0.8,1.5-1.6,2-2.5
			c2.1-3.6,3.1-7.4,3.5-11.6C227.9,195.6,225.7,198.6,223.5,201.6z"/>
		<path d="M232,187.7c0.1,0.7,0.2,1.3,0.3,2c0.7,3.4,3.8,5.7,7.2,5.2c0.8-0.1,1.5-0.3,1.6-1.3c0.1-0.8,0-1.6-0.7-2
			c-0.1-0.1-0.2-0.1-0.3-0.1c-0.5-0.2-1-0.4-1.5-0.5c-1.8-0.4-3-1.4-3.8-3.1c-0.5-1.1-1.2-2.1-2.1-3c-0.5-0.5-1.2-0.9-2-0.9
			c-0.3,0-0.7,0.1-1.1,0.2C231.3,184.8,231.8,186.2,232,187.7z"/>
		<path d="M188.2,210.2c-2.9,4.5-4.5,9.4-5.2,14.6c-0.3,2.3-0.3,4.7-0.3,7c0,0.5,0.7,1.1,1.1,1.3c0.9,0.3,1.3-0.4,1.5-1.1
			c0.3-1.1,0.5-2.2,0.6-3.3c0.5-4,0.7-8.1,1.3-12.1c0.4-2.7,1.3-5.2,2-7.9C188.9,209.2,188.5,209.7,188.2,210.2z"/>
		<path d="M197.2,203.6c0,0-0.1,0-0.2-0.1c-0.1,0.1-0.2,0.3-0.3,0.4c-3.5,7.1-6.2,14.5-7.5,22.3c-0.4,2.5-0.5,5-0.5,7.5
			c0,0.7-0.2,1.8,1,1.9c1.3,0.2,1.3-0.9,1.5-1.6c0.1-0.3,0.2-0.6,0.2-0.9c0.2-1,0.4-1.9,0.5-2.9c1-5.9,1.9-11.7,3-17.6
			C195.5,209.7,196.5,206.7,197.2,203.6z"/>
		<path d="M204.7,206.2c1.3-3.9,2.2-8,2.8-12.2c-3.2,2.9-9.5,21.2-8.8,25.5C201.2,215.3,203.2,210.8,204.7,206.2z"/>
		<path d="M209.9,189.5c-6.6,2.4-12.3,6-16.8,10.9c-2.1,2.2-4,4.7-5.6,7.5c0.1,0.1,0.2,0.3,0.4,0.4c2.6-2.2,5.2-4.3,7.9-6.5
			c3.6-3,7.2-6,10.8-8.9c1.2-1,2.5-2,3.7-3.1C210.1,189.7,210,189.6,209.9,189.5z"/>
		<path d="M206.2,206.7c2-0.9,4.3-2.7,6.7-5.1c7.9-7.8,16.9-21.5,18.4-29.4c-3.9,5.7-7.9,11.7-12.1,17.5
			C215.1,195.5,210.6,201.1,206.2,206.7z"/>
		<path d="M212,188.6c7.5-4.8,13.1-11.3,16.7-19.5c-0.9,0.6-1.8,1.2-2.7,1.9C219.8,175.6,215.2,181.5,212,188.6z"/>
		<path d="M211.1,177c-4.4,5-9.1,9.5-14.4,13.6c-2.9,2.2-5.2,4.9-6,8.7c0.5-0.7,1-1.4,1.5-2.1c2.1-2.6,4.8-4.3,7.6-5.9
			c4.4-2.6,8.2-5.8,11.4-9.7c3.9-4.8,8.2-9.1,13.1-12.7c0.6-0.4,1.1-0.9,1.7-1.3c0.2-0.2,0.4-0.4,0.8-0.7
			C221.9,168.2,214.9,172.7,211.1,177z"/>
		<path d="M200.1,184c2.6-2.4,5.2-4.8,7.7-7.2c-10.6,3.6-23.4,19.9-22.3,28.1c0.2-0.4,0.4-0.7,0.5-1.1
			C189.4,196.3,194.1,189.7,200.1,184z"/>
		<path d="M186,191.3c-0.3,0.3-0.5,0.7-0.8,1c-7,10-10.8,20.9-10.1,33.2c0.1,1.7,0.6,3.4,1,5c0.3,0.9,0.9,1.4,2,1.1
			c1.3-0.4,1.1-1.6,1.2-2.5c0.1-2.4,0-4.8,0.1-7.2c0.1-6.7,0.7-13.4,2.8-19.8c1.2-3.7,2.6-7.4,4-11C186.2,191.1,186,191.2,186,191.3
			z"/>
		<path d="M177.6,196.1c-0.3,0.1-0.4,0.1-0.5,0.2c-0.2,0.2-0.4,0.4-0.6,0.7c-6.1,7.5-9.2,16.1-8.4,25.8c0.2,2,0.9,4,1.6,6
			c0.1,0.4,0.9,0.6,1.3,0.7c0.8,0.1,1.1-0.5,1-1.2c0-1.5,0-3-0.2-4.5c-0.4-4.8-0.4-9.5,0.5-14.3
			C173.4,204.8,175.1,200.5,177.6,196.1z"/>
		<path d="M166.9,222.8c-0.4-4.6-0.7-9.1,0.1-13.6c0.7-4.6,2.3-8.8,4.6-13c-0.2,0.1-0.3,0.1-0.3,0.1c-0.1,0-0.1,0-0.1,0.1
			c-4.5,5.5-7.2,11.6-7.8,18.3c-0.2,2.1-0.2,4.3,0.1,6.5c0.1,1.3,0.6,2.7,1,4c0.2,0.7,0.5,1.5,1.6,1.3c1.1-0.2,1.1-1,1.1-1.8
			C167,224,166.9,223.4,166.9,222.8z"/>
		<path d="M164.2,196.8c-3.6,5.1-5.7,10.7-6.2,16.9c-0.1,1.6,0.2,3.3,0.5,5c0.1,0.4,0.9,1,1.3,1c0.5-0.1,1.1-0.7,1.3-1.2
			c0.3-0.8,0.2-1.8,0.3-2.7c0-0.4,0.1-0.8,0.1-1.2c0.4-3.8,0.7-7.5,1.2-11.3c0.3-2.3,1.2-4.6,1.9-7
			C164.5,196.5,164.3,196.6,164.2,196.8z"/>
		<path d="M157.5,218.9c-0.3-0.8-0.6-1.6-1-2.4c-1.8-4.4-2.5-9-1.3-13.8c0.5-2.1,1.5-4.2,2.2-6.3c0,0-0.1,0-0.1,0
			c-0.1,0.1-0.2,0.2-0.3,0.3c-4.1,5.3-5.7,11.1-4.2,17.7c0.5,2.3,1.4,4.6,3.2,6.3c0.3,0.3,1,0.3,1.5,0.4c0.1-0.5,0.4-1.1,0.3-1.5
			C157.7,219.4,157.6,219.2,157.5,218.9z"/>
		<path d="M170.4,193.8c20-6.4,37.2-17.1,51.9-32.2c-0.5,0.3-1,0.6-1.4,0.9c-17.8,10.8-35.5,21.4-53.4,32.3
			C168.5,194.4,169.5,194.1,170.4,193.8z"/>
		<path d="M219.6,160.3c-0.1,0-0.2,0.1-0.3,0.1c-18.9,5.5-35.2,15.3-49,29.3C186.7,179.9,203.2,170.1,219.6,160.3z"/>
		<path d="M172.5,179.6c-3,3.7-5.6,7.9-7.6,12.4c14.1-17.3,32-28.6,53.7-33.9c-14.1-0.3-28.2,4.9-38.9,14.2
			C177.1,174.5,174.7,176.9,172.5,179.6z"/>
		<path d="M154.6,196.3c0.8-0.1,1.6-0.3,2.4-0.7c-4.2,0-7.5-1.7-10.5-4.5c-0.4-0.4-0.8-0.7-1.3-1c-0.3-0.1-0.8-0.1-1,0.1
			c-0.2,0.2-0.4,0.7-0.3,1c0.1,0.4,0.4,0.8,0.6,1.1c1.9,2.4,4.6,3.6,7.6,3.9C153,196.3,153.8,196.3,154.6,196.3z"/>
		<path d="M143.6,189.7c0.2-1.9,0.3-3.6,0.5-5.3C141.9,185.4,141.6,188.1,143.6,189.7z"/>
		<path d="M144.3,183.2c-2.6-1.8-4.4-4.3-5.3-7.6c-0.9,2.1-0.7,3.8,0.4,5.4c1.1,1.6,2.7,2.3,4.7,2.2
			C144.2,183.2,144.2,183.2,144.3,183.2z"/>
		<path d="M139.5,175c-0.6-1.7-1.8-2.7-3.4-2.7c0.5,1.5,1.6,2.5,3,2.6C139.2,175,139.3,175,139.5,175z"/>
		<path d="M145.6,183.6c3.7,4.3,11.8,7.3,16.1,6.9c-1.8-2.1-4.7-3.9-8.1-5.2C151,184.2,148.2,183.6,145.6,183.6z"/>
		<path d="M157.1,181.3c-4.3-2.1-8.9-3.5-13.9-4c3.4,2.8,7.1,4.9,11,6.3c3.2,1.2,6.6,2,10.2,2.4
			C162.1,184.1,159.6,182.6,157.1,181.3z"/>
		<path d="M156.2,173.8c-4.5-2.6-8.6-4.1-11.7-5c2.1,2.4,5.4,5.7,10.3,8.6c1.2,0.7,2.3,1.3,3.4,1.8c3.3,1.6,6.3,2.5,8.6,3
			C164.4,179.8,160.9,176.6,156.2,173.8z"/>
		<path d="M159.4,172.8c4.8,4.7,10.7,5,12.3,5.1c-1.8-2.3-4.5-5.2-8.1-8c-3.3-2.5-6.5-4.1-9-5.3C155,166.4,156.3,169.8,159.4,172.8z
			"/>
		<path d="M175.3,173.2c-4-4.2-8.3-7.6-13.2-10.5C162.8,167.7,169.5,173.1,175.3,173.2z"/>
		<path d="M172.4,164.9c0.2,2.5,3.4,6,6.3,5.8C177.6,167.6,175.6,165.7,172.4,164.9z"/>
		<path d="M190.3,161c-0.1,0-0.3-0.1-0.4-0.1c-3.5,0-6.9,0.6-10.1,2.3c-0.8,0.4-1.5,1-2.1,1.6c-0.6,0.7-0.1,1.9,0.8,2
			c0.5,0,1.1-0.1,1.6-0.4C183.5,164.6,186.8,162.8,190.3,161z"/>
		<path d="M205,157.8c-2.1-0.1-4.2-0.3-6.4-0.4c-6.3-0.3-12.6-0.1-18.9,1c-2.1,0.3-4.1,0.8-6.2,1.3c-2,0.5-3.8,1.4-5.7,2.2
			c-0.3,0.1-0.6,0.8-0.5,1.1c0.1,0.3,0.7,0.7,1.1,0.7c1.2-0.1,2.5-0.3,3.7-0.5c0.1,0,0.3,0,0.4-0.1c5.6-1.1,11.1-2.5,16.7-3.4
			C194.4,158.9,199.7,158.5,205,157.8C205,157.9,205,157.9,205,157.8z"/>
		<path d="M154,163.3c2.7-1,5.5-1.9,8.2-2.8c5.7-1.7,11.4-3,17.2-4c6.1-1,12.3-1.6,18.5-1.7c3.2,0,6.4,0,9.5,0c0,0,0-0.1,0-0.1
			c-0.4-0.1-0.7-0.2-1-0.3c-5.3-0.5-10.5-1.3-15.8-1.5c-13.2-0.5-26.2,1.2-38.8,5c-12,3.6-23.2,8.7-33.2,16.3
			c-2,1.5-3.8,3.3-5.5,5.1c-1.3,1.4-1.3,1.9,0,3.3c0.7,0.9,1.6,0.2,2.4-0.1c0.9-0.3,1.7-0.7,2.5-1.2c2.2-1.3,4.5-2.5,6.7-3.8
			c3.6-2.1,7.2-4.2,10.9-6.1c2.7-1.4,5.4-2.8,8.2-4C147.2,166,150.6,164.6,154,163.3z"/>
		<path d="M155.5,150.2c-10.2,2.5-19.9,6.4-28.6,12.4c-1.5,1-2.8,2.3-4.1,3.5c-0.4,0.4-0.8,0.8-0.4,1.7c0.7,1.2,1.5,0.9,2.3,0.6
			c2.1-0.9,4.2-1.9,6.3-2.9c8-4.1,16.1-7.8,24.7-10.5c9.7-3,19.7-4.8,29.9-5c4.8-0.1,9.6,0.3,14.3,0.6c2.7,0.2,5.5,0.7,8.2,1
			c0,0,0-0.1,0-0.1c-0.2-0.1-0.4-0.2-0.7-0.3c-7.5-2.1-15.2-3.5-23-3.8C174.7,147,165,147.8,155.5,150.2z"/>
		<path d="M164.6,138.4c-0.4,0-0.8,0.1-1.3,0.1c-9.1,0.9-17.6,3.9-25.1,9.1c-2.3,1.6-4.2,3.7-6.3,5.6c-0.8,0.8-0.5,1.7,0.2,2.3
			c0.3,0.3,1.1,0.3,1.7,0.2c0.6-0.1,1.2-0.5,1.7-0.8c3.1-1.7,6.3-3.4,9.4-5c7.5-3.9,15.5-6.5,24-7.2c9.8-0.7,19.5,0.3,29.1,2.1
			c2.8,0.5,5.5,1.2,8.3,1.8c0-0.1,0-0.1,0.1-0.2c-0.4-0.2-0.8-0.4-1.3-0.5c-6.8-2.7-13.8-4.7-21-6
			C177.7,138.6,171.2,137.9,164.6,138.4z"/>
		<path d="M65.8,143.3c0.2,0.1,0.4,0.2,0.6,0.4c0.9,1.2,1.4,1.5,2.7,0.7c1.6-1,3.2-2.1,4.7-3.4c5.4-4.5,10.6-9.3,16.1-13.7
			c11.8-9.3,24.8-16.1,39.5-19.2c9.2-1.9,18.4-2.1,27.6-0.3c14.7,2.9,26.8,10.4,36.9,21.2c3.6,3.8,6.7,8,10,11.9
			c0-0.1-0.2-0.5-0.4-0.9c-4.2-8.5-9.7-16.2-16.5-22.8c-12.7-12.4-28-19-45.7-20c-8.3-0.5-16.6,0.5-24.6,2.6
			c-13.9,3.7-26.2,10.3-36.8,19.8c-5.5,4.9-10.5,10.4-13.9,17.1c-0.7,1.3-1.1,2.7-1.5,4.1C63.9,142.4,64.4,142.9,65.8,143.3z"/>
		<path d="M91.7,143.1c8.5-7.9,18.2-14.2,29.1-18.6c12.3-5.1,25-7.3,38.3-5.1c11.4,1.9,21.7,6.4,30.8,13.7c2.4,1.9,4.6,4,7,6.2
			c-0.3-0.5-0.4-0.8-0.6-1c-1.8-2-3.4-4.2-5.3-6.1c-17-16.5-37.3-23-60.7-19.2c-15.5,2.5-29.4,8.9-41.8,18.4
			c-11,8.4-20.7,18.3-29.4,29c-3.7,4.5-7.4,9-9.2,14.7c0,0.3,0,0.5,0,0.8c0.5,0.4,1.1,0.7,1.9,1.2c0.4,1.2,1.1,1.5,2.5,0.7
			c1-0.5,2.1-1.1,3-1.9c3.8-3.5,7.7-6.9,11.4-10.5C76.3,158,83.8,150.4,91.7,143.1z"/>
		<path d="M118.1,139.1c18.1-9.9,37-12.3,56.8-6.4c5.8,1.7,11.3,4.1,16.6,7c0.1-0.1,0.1-0.2,0.2-0.3c-1.8-1.2-3.5-2.4-5.3-3.6
			c-11.9-7.5-24.8-11.9-38.9-12.2c-11-0.3-21.7,1.9-31.8,6.2c-12.9,5.4-23.9,13.4-33.3,23.6c-7.1,7.7-13,16.2-16.8,26.1
			c-0.9,2.4-1.8,4.9-1.7,7.5c0,1.1,0.3,2,1.8,1.8c0.2,0,0.4,0.1,0.5,0.2c1.2,1.1,1.8,1.2,2.9,0c1.4-1.4,2.7-2.9,4-4.5
			c5-6.6,9.7-13.4,14.8-19.8C96.4,154.4,106.3,145.6,118.1,139.1z"/>
		<path d="M110.4,163.4c5.9-7,12.3-13.4,19.7-18.8c6-4.4,12.6-7.2,20-8.2c4.8-0.6,9.5-0.5,14.3,0.1c-2.4-1.3-8.8-2.6-12.6-2.8
			c-9.3-0.5-17.9,1.6-26,6.3c-10.5,6.1-19.5,14-27.7,22.9c-5.7,6.2-11,12.7-15.1,20.1c-1.2,2.1-1.9,4.5-2.7,6.8
			c-0.3,1-0.2,2.1,1.3,2.3c0.2,0,0.4,0.2,0.5,0.4c0.6,1,1.4,0.8,2.2,0.5c0.7-0.3,1.4-0.8,2-1.3c1.8-1.7,3.6-3.4,5.2-5.3
			c6.1-7.3,12-14.7,18.2-22C109.9,164.1,110.2,163.8,110.4,163.4z"/>
		<path d="M137.4,145.4c1.7-1.4,3.4-2.8,5.1-4.2c0-0.1-0.1-0.1-0.1-0.2c-0.6,0.3-1.2,0.6-1.8,1c-11.3,6.1-21.2,13.9-29.5,23.7
			c-0.5,0.7-1.1,1.3-1.6,2c-5.7,7-10.4,14.6-13.5,23.1c-1,2.9-2,5.8-1.9,8.9c0,0.6,0.3,1.4,0.7,1.7c1.6,1.1,2.5,0.8,3.7-0.8
			c0.7-0.9,1.3-2,1.8-3c1.9-3.7,3.7-7.4,5.5-11.1c6.4-13,14.5-24.7,24.7-34.8C132.7,149.5,135,147.4,137.4,145.4z"/>
		<path d="M238.7,272.4c-1.3,1-1.7,2.1-1.5,3.4c0.2,1.1,0.7,2.1,2,2.5c0-0.2,0-0.4,0-0.5C239,276,238.8,274.3,238.7,272.4z"/>
		<path d="M264.5,284.9c-1.8,0.2-3.4,0.1-4.4-1.2c-0.8-1.1-1.3-2.5-1.8-3.8c-0.4,0.5-0.6,1.1-0.6,1.8c0,1.4,0.7,3,1.6,3.7
			C260.9,286.6,263,286.5,264.5,284.9z"/>
		<path d="M251.9,281.2c-2.2,1.1-4.3,1.7-6.6,1.3c-2.3-0.4-4-1.9-5.6-3.6c-0.3,3.2,2,6,5,6.5C247.8,285.9,250.9,284.2,251.9,281.2z"
			/>
		<path d="M255.4,283.6c1-0.2,1.7-0.9,1.8-1.9c0.1-0.5,0-1-0.2-1.6c-1.3,1.8-3,1.8-4.8,1.2C252.6,283.1,253.8,284,255.4,283.6z"/>
		<path d="M247.8,198.3c-1,2.5-2.9,4.1-5.3,5.2c-0.3,0.2-0.8,0.3-0.9,0.6c-0.2,0.4-0.4,1-0.3,1.3c0.1,0.3,0.8,0.7,1.1,0.7
			c0.7-0.1,1.5-0.3,2.1-0.7C247,203.7,248.1,201.4,247.8,198.3z"/>
		<path d="M252.2,185.1c-0.7,0.3-1.3,0.7-2,1c-0.4,0.2-0.8,0.4-1.2,0.6c-1.1,0.4-2.3,0.7-3.4,1c0,0.1,0,0.3,0,0.4
			c1.8,0.1,3.7,0.3,5.5,0.2c0.1,0,0.2,0,0.2,0c0.9-0.1,1.9-0.9,2.6-1.7c0.3-0.4,0.1-1.3,0.1-1.9
			C253.5,184.8,252.8,184.8,252.2,185.1z"/>
		<path d="M254.7,189c-0.7,0.2-1.4,0.3-2.1,0.5c-0.5,0.1-1,0.3-1.4,0.4c-0.8,0.2-1.6,0.5-2.3,0.9c-0.6,0.3-1.1,0.7-1.4,1.3
			c-0.2,0.4-0.3,0.9-0.3,1.4c1.3-1.8,3.1-2,5-2.1c1.7,0,3.3-0.2,4.7-1.2c1.5-1.1,2.2-3,1.6-4.8c-0.5-1.6-1.9-2.6-4-2.6
			c0.5,0.3,0.8,0.5,1,0.7c0.9,0.7,1.6,1.6,1.4,2.9C256.8,187.8,256,188.6,254.7,189z"/>
		<path d="M260.2,184.3c-0.1,0.1-0.3,0.2-0.4,0.3c0.1,0.5,0.1,1.1,0.2,1.6c0.5,2.1,1,4.3,1.6,6.4c0.2,0.7,0.8,1.2,1.7,0.9
			c0.8-0.3,0.9-1,0.6-1.7C262.7,189.2,261.4,186.7,260.2,184.3z"/>
		<path d="M255.7,196.7c0-0.3-0.3-0.8-0.5-1c-0.3-0.1-0.8,0-1.1,0.2c-0.3,0.2-0.6,0.6-0.8,1c-1.1,2.6-2.1,5.3-3.1,7.9
			c0.2,0.1,0.4,0.2,0.6,0.3c1.5-2.3,3-4.5,4.5-6.8C255.5,197.8,255.7,197.2,255.7,196.7z"/>
		<path d="M257.4,205.3c1.5-1.9,3-3.8,4.4-5.8c0.4-0.5,0.7-1.3-0.2-1.6c-0.4-0.1-1.3,0.3-1.5,0.7c-1.2,2.1-2.2,4.3-3.3,6.4
			C257.1,205.1,257.2,205.2,257.4,205.3z"/>
		<path d="M250.7,212.1c0.3-0.5,0.5-1,0.5-1.5c0-0.4-0.4-0.9-0.7-1.2c-0.3-0.2-0.9-0.1-1.2,0.1c-0.4,0.2-0.7,0.5-0.9,0.9
			c-2.4,3.7-2.4,7.6-1.3,11.6C247.5,218.4,249,215.2,250.7,212.1z"/>
		<path d="M254,212.3c-1.1-0.7-1.6,0.3-2.3,0.9c-0.1,0.1-0.2,0.2-0.2,0.3c-1.9,3.1-2.2,6.4-1.5,9.9c0.7-3.2,2.3-6,3.9-8.7
			C254.4,214,255.1,213.1,254,212.3z"/>
		<path d="M263.6,212.1c0.5-0.8,0.6-1.6-0.2-2.2c-0.8-0.7-1.4-0.1-2,0.4c-0.4,0.4-0.9,0.8-1.2,1.3c-2.2,3.4-2.6,7-1.6,11.1
			c0.2-0.3,0.3-0.4,0.3-0.6c0.4-3.2,1.9-5.9,3.7-8.5C263,213.1,263.3,212.6,263.6,212.1z"/>
		<path d="M256.2,257.4c2.1-2.4,2.8-6.4,1.7-9.9C255.9,249.5,254.6,254.4,256.2,257.4z"/>
		<path d="M251.8,258c0.5-2.7,1.1-5.5,1.7-8.3C250.4,251.5,249.6,256.4,251.8,258z"/>
		<path d="M245.9,249.5c-1.9,3.5-2,6.9-0.7,10.6C247.1,256.7,247.4,253.3,245.9,249.5z"/>
		<path d="M250.7,226.6c-4.7,5.9-5.8,16-2.8,22.8C248.9,241.6,249.8,234.1,250.7,226.6z"/>
		<path d="M259.6,223.4c-1.2,1.2-2.3,2.4-3.1,3.9c-2.2,4.2-2.4,8.5-0.8,13c0.6,1.7,1.1,3.4-0.2,5c0.2,0.1,0.3,0.2,0.5,0.3
			c0.6-0.7,1.5-1.3,1.8-2.1c0.4-1,0.5-2.1,0.5-3.2c0.1-3.4-0.1-6.9,0.1-10.3C258.6,227.8,259.2,225.6,259.6,223.4z"/>
		<path d="M262.8,236.3c0,0.2,0.1,0.5,0.2,0.8c0.2-0.3,0.3-0.4,0.4-0.6c0.9-3.4,1.9-6.9,2.6-10.3c0.6-3.1,0.6-6.4,3.4-8.8
			c-0.7,0.3-1.5,0.4-2.1,0.8c-1.9,1.2-2.9,3-3.5,5.1C262.7,227.6,262.7,231.9,262.8,236.3z"/>
		<path d="M271.2,207.5c-0.3-0.1-0.9,0.1-1.2,0.3c-0.3,0.3-0.6,0.7-0.8,1.1c-1,2.8-1.9,5.6-2.9,8.4c0.2,0.1,0.4,0.2,0.6,0.3
			c1.5-2.6,3.1-5.1,4.6-7.7c0.2-0.4,0.3-0.9,0.3-1.3C271.8,208.2,271.5,207.6,271.2,207.5z"/>
		<path d="M264.5,205.7c2-2.8,4.3-5.6,5.6-8.8c0.1-0.3,0.3-0.8,0.3-1.1c-0.1-0.4-0.3-1-0.6-1.2c-0.3-0.2-1,0-1.3,0.2
			c-0.4,0.3-0.7,0.8-0.9,1.3c-1.2,3.1-2.3,6.3-3.4,9.4C264.2,205.6,264.4,205.6,264.5,205.7z"/>
		<path d="M280.6,202.3c-1.6,1.5-3.2,3-4.7,4.6c-0.5,0.5-0.7,1.2,0,1.6c0.4,0.2,1.2,0,1.4-0.3c1.3-1.7,2.5-3.6,3.7-5.4
			C280.9,202.6,280.8,202.5,280.6,202.3z"/>
		<path d="M280.3,213c-0.1,0.4,0.3,0.9,0.4,1.4c0.4-0.3,1-0.4,1.2-0.8c0.8-1.6,1.5-3.3,2.3-4.9C282.4,209.4,280.9,210.8,280.3,213z"
			/>
		<path d="M273.6,227.6c2.1-4.9,2.3-9.9,1-15.1C272.5,217.4,272.2,222.5,273.6,227.6z"/>
		<path d="M270,224.9c-1.9,5.5-3.8,10.9-5.6,16.3C269.7,238.4,272.6,230.1,270,224.9z"/>
		<path d="M267.2,243.7c-0.4,1.3-0.5,2.6,0.1,3.8c0.7-1.2,1.2-2.4,2-3.5c0.8-1.1,1.9-1.9,2.7-3c1.1-1.5,2.2-3.1,2.9-4.8
			c0.6-1.3,0.6-2.7-0.5-4.2c-0.2,2.5-1.6,4.1-3.1,5.7C269.7,239.5,268,241.2,267.2,243.7z"/>
		<path d="M263.2,246.5c-2.3,1.7-3.6,5.6-2.7,8.5C263,253,264.2,248.9,263.2,246.5z"/>
		<path d="M240.1,265.7c10.4-0.1,19.6-3.5,27.4-10.4C258,257.5,248.8,260.9,240.1,265.7z"/>
		<path d="M276.5,253.5c-11.5,7-23.5,13.2-35.7,18.7C254.2,269,266.1,262.7,276.5,253.5z"/>
		<path d="M283.6,256.2c-0.1-0.1-0.2-0.3-0.2-0.4c-14.3,7.3-28.6,14.6-42.9,21.9c0.1,0.1,0.2,0.3,0.2,0.4
			C256,272.7,270.3,265.4,283.6,256.2z"/>
		<path d="M289.7,258.4c0.7-0.5,1.3-1,2-1.5c-0.6,0.1-1.1,0.3-1.7,0.5c-5.4,2.5-10.9,5-16.3,7.6c-3.8,1.8-7.6,3.6-11.3,5.8
			c-3.5,2.1-6.3,5-8.8,8.4c6-5.5,13-9.1,20.4-12.1C279.7,264.8,284.8,261.8,289.7,258.4z"/>
		<path d="M264.3,276.8c5.5-2.5,11.1-4.9,16.5-7.6c4.1-2,8-4.5,12-6.7c1.6-0.9,3.3-1.5,5-2.3c0-0.1-0.1-0.2-0.1-0.3
			c-2,0.6-4.1,1.1-6,2c-4.4,2-8.7,4.3-13.1,6.3c-5.2,2.5-10.5,4.8-15.3,8c-1.3,0.8-2.5,1.7-3.8,2.5c0,0.1,0.1,0.2,0.1,0.3
			C261.1,278.3,262.7,277.6,264.3,276.8z"/>
		<path d="M278.6,241.9c2.7-5.1,6.2-9.8,7-15.8C281.5,229.3,277.6,238,278.6,241.9z"/>
		<path d="M280.7,221c-0.5,0.7-1.5,1.7-0.4,2.5c1,0.8,1.6-0.4,2.2-1c2.6-3,5.6-5.2,9.8-6.1c-0.3-0.2-0.4-0.3-0.5-0.3
			C287.2,216,283.5,217.4,280.7,221z"/>
		<path d="M293.9,215.4c1.7-0.1,3.4-0.2,5-0.4c0.3-0.1,0.6-0.8,0.9-1.2c-0.4-0.2-0.9-0.8-1.2-0.7c-1.6,0.4-3.2,1-4.8,1.6
			C293.8,215,293.8,215.2,293.9,215.4z"/>
		<path d="M290.1,227c-0.6,2.1-0.6,4.1,0.5,6.1c0.1-0.1,0.2-0.1,0.2-0.1c0-0.2,0.1-0.4,0.1-0.6c0.1-3.3,1.6-6,4-8.2
			c0.8-0.8,1.7-1.5,2.4-2.4c0.6-0.7,1.1-1.5,1.6-2.3c-1.8,0.8-3.3,1.7-4.8,2.6C292.2,223.3,290.8,224.8,290.1,227z"/>
		<path d="M299,227c-3.2,4.1-7,7.7-8.9,12.7C293.9,236.1,297.7,232.4,299,227z"/>
		<path d="M307,222.9c-4,3.1-7.1,7-9,11.7C302,231.5,305,227.6,307,222.9z"/>
		<path d="M309.1,238.2c1.9-2.3,3.4-5,6.1-6.6c-1.3,0.3-2.6,0.6-3.7,1.3c-2.1,1.3-3.5,3.3-4.9,5.3c-1.3,1.9-2.7,3.8-4.2,5.9
			c0.7-0.3,1.5-0.5,1.9-1C306,241.4,307.6,239.9,309.1,238.2z"/>
		<path d="M299,235.9c-2.3,2-4.2,4.3-5.5,6.7c5.1-4,10.1-8,15.1-11.9C305.4,231.4,301.9,233.4,299,235.9z"/>
		<path d="M287.6,240.7c-6.8,3.1-13.1,7-18.7,11.9C276.3,250.4,282.6,246.5,287.6,240.7z"/>
		<path d="M304.4,255.1c1.6-0.6,3.1-1.3,4.5-2.1c4-2.5,6.8-6.3,8.3-11.2c0.1-0.5,0.3-1,0.3-1.5c0.1-0.5,0.1-0.9,0.2-1.2
			c-1.4,2.3-2.6,4.7-4.2,6.9c-2.6,3.6-5.9,6.2-9.9,8.1c-1.7,0.8-2.8,0.6-3.8-0.5c2.6-2.2,5.2-4.5,6.7-7.6c-3.2,2.4-6.3,4.9-9.5,7.3
			c-0.6,0.5-1.3,1-2,1.2c-1.3,0.5-2.1,0.2-2.8-1c2.9-1.7,5.1-4,6.9-6.8c-0.5,0.2-1,0.6-1.4,0.8c-2.4,1.5-4.6,3.2-7.1,4.5
			c-2.8,1.4-5.8,1.7-8.8,0c6.2-3.6,9.1-6,10.1-8.6c-4.7,3.1-9.3,6.3-14,9.4c0.1,0.1,0.1,0.2,0.2,0.3c0.2-0.1,0.4-0.1,0.6-0.2
			c1.4-0.5,2.8-0.9,4,0.6c0.3,0.3,0.7,0.5,1.2,0.6c0.1,0,0.3,0.1,0.5,0.1c2.4,0.8,4.8,0.4,7.1-0.5c1.7,2.9,3.1,2.9,7.9,0.1
			C300.7,255.8,302.6,255.8,304.4,255.1z"/>
		<path d="M307.8,244.9c4.5-3.2,8.1-7.1,10.8-11.8C314,236.2,310.4,240.1,307.8,244.9z"/>
		<path d="M307.2,221.7c1.9,0.3,3.8,0.7,5.7,1.5c-2.1-4.3-9.1-5.3-12.5-1.7C302.7,221.4,305,221.4,307.2,221.7z"/>
		<path d="M305.5,205.1c-0.3-0.1-0.8,0-1.1,0.1c-2.6,1-5.2,2.1-7.7,3.1c0,0.2,0.1,0.4,0.2,0.6c2.2-0.3,4.5-0.5,6.7-0.9
			c0.9-0.1,1.8-0.4,2.6-0.8c0.3-0.2,0.6-0.9,0.5-1.3C306.5,205.6,306,205.3,305.5,205.1z"/>
		<path d="M303.2,212.2c1.1-0.1,2.3-0.1,3.5-0.3c2-0.4,3.9-0.8,5.8-1.3c0.7-0.2,1.2-0.7,1-1.6c-0.3-1-0.9-1-1.7-0.8
			c-0.5,0.1-1.1,0.1-1.6,0.4c-2.4,1.1-4.8,2.2-7.1,3.3C303.1,211.9,303.1,212,303.2,212.2z"/>
		<path d="M311.7,217.6c0.2-0.5-0.1-1.3-0.5-1.7c-2-2-6.6-2.3-9.2-0.4c3-0.1,5.5,1,7.8,2.4C310.6,218.3,311.4,218.4,311.7,217.6z"/>
		<path d="M323.3,217.5c0.2-0.3,0.3-1,0.1-1.2c-0.2-0.3-0.8-0.7-1.2-0.6c-0.5,0-1.1,0.3-1.6,0.7c-1.9,1.5-3.7,3.1-5.5,4.7
			c0.1,0.2,0.2,0.3,0.3,0.5c2.3-1,4.5-2,6.8-3.1C322.6,218.3,323.1,217.9,323.3,217.5z"/>
		<path d="M291.2,207.4c-1.2,2.3-2.4,4.5-4.8,6c3,0,6.3-2.4,7-4.9c0.1-0.6,0-1.5-0.4-1.8C292.2,206,291.6,206.7,291.2,207.4z"/>
		<path d="M293.2,196.6c-0.8-0.6-1.3-0.1-1.9,0.3c-0.3,0.2-0.5,0.5-0.7,0.8c-1.5,2.7-3,5.4-4.5,8c0.2,0.2,0.4,0.3,0.6,0.4
			c1.8-1.9,3.6-3.8,5.4-5.7c0.5-0.5,0.9-1.2,1.3-1.8C293.9,197.9,294,197.2,293.2,196.6z"/>
		<path d="M278.5,198c1.1-0.9,2.3-1.9,3.2-2.9c0.3-0.3,0.3-1.2,0-1.5c-0.3-0.4-1.1-0.6-1.6-0.5c-0.6,0.1-1.1,0.5-1.6,0.9
			c-3,2.5-4.9,5.6-6.4,9.2C274.3,201.5,276.4,199.8,278.5,198z"/>
		<path d="M290.4,191c-0.8-0.6-1.3-0.1-1.9,0.4c-0.2,0.2-0.4,0.4-0.5,0.6c-1.4,2.6-2.8,5.2-4.2,7.7c0.2,0.1,0.3,0.3,0.5,0.4
			c1.9-2.1,3.9-4.1,5.8-6.2c0.3-0.3,0.4-0.6,0.6-1C291.1,192.2,291.2,191.6,290.4,191z"/>
		<path d="M278.7,189.9c0.8-0.5,0.2-1.3-0.3-1.6c-1.7-1.4-3.6-2.6-5.3-4c-0.1,0.2-0.3,0.3-0.4,0.4c1.5,1.7,2.9,3.4,4.4,5
			C277.4,190,278.4,190.1,278.7,189.9z"/>
		<path d="M267.4,185c-0.2,0.1-0.4,0.3-0.6,0.4c1.1,1.9,2.2,3.9,3.3,5.7c0.2,0.3,0.9,0.2,1.4,0.3c0.1-0.5,0.4-1.2,0.2-1.4
			C270.3,188.3,268.8,186.7,267.4,185z"/>
		<path d="M258.2,175.7c3.2,3.3,6.8,5.8,11,7.5C268.5,178.1,262.7,174.5,258.2,175.7z"/>
		<path d="M263.9,174.6c3.8,1.9,7.5,3.7,11.4,5.6C274.8,175.4,268.6,172,263.9,174.6z"/>
		<path d="M277.6,175.8c2.7-0.9,5.3-2,8-3c0-0.2-0.1-0.3-0.1-0.5c-2.9,0.1-5.7,0.2-8.5,1c-0.7,0.2-1.5,0.5-1.3,1.6
			C275.9,176,276.9,176,277.6,175.8z"/>
		<path d="M284.5,175.5c-2.5,2.5-4.1,5.6-5.3,9c2.2-2.6,4.4-5.1,6.6-7.7c0.2-0.3,0.5-0.5,0.5-0.8c0-0.3,0-0.8-0.2-1
			c-0.1-0.2-0.6-0.1-0.9,0C285,175.1,284.7,175.3,284.5,175.5z"/>
		<path d="M291.7,176.9c-0.4,0-0.7,0.2-1,0.4c-3.6,2.1-6.3,5.2-8.7,8.9c3.3-2.4,6.5-4.6,9.5-6.8c0.4-0.3,0.8-0.6,1.1-1
			c0.2-0.2,0.3-0.8,0.1-1C292.5,177.1,292.1,176.9,291.7,176.9z"/>
		<path d="M287.9,187.2c-0.6,0.4-1.2,0.7-1.8,1c3.9-0.5,7.6-1.7,10.8-4c0.6-0.5,1.7-1,1-2c-0.7-1-1.5-0.2-2.2,0.2
			C293.1,184,290.5,185.7,287.9,187.2z"/>
		<path d="M302.5,185.9c-3.5,1.8-6.2,4.5-8.2,7.9c2.9-2.6,6.3-4.5,9.8-6.2c0.3-0.1,0.6-0.2,0.7-0.5c0.3-0.4,0.4-0.8,0.6-1.2
			c-0.4-0.2-0.8-0.5-1.2-0.5C303.7,185.5,303.1,185.7,302.5,185.9z"/>
		<path d="M295.6,198.9c2.4-1.7,4.9-3.4,7.5-5c1.3-0.8,2.8-1.4,4.2-2.3c0.4-0.3,0.6-1,0.9-1.5c-0.5-0.2-1.1-0.6-1.6-0.5
			c-2.2,0.3-4,1.6-5.6,2.9C298.7,194.4,296.9,196.5,295.6,198.9z"/>
		<path d="M297.1,202.4c5.6-0.1,10.7-2,15-5.8c1.2-1.1,2.2-2.5,3.2-3.8c0.1-0.2,0.1-0.8-0.1-0.9c-0.2-0.2-0.8-0.2-1,0
			c-0.6,0.3-1,0.8-1.5,1.3c-2.9,2.9-6.1,5.5-9.9,7.2C300.8,201.1,298.9,201.8,297.1,202.4z"/>
		<path d="M309.8,202.3c3.1-1.1,5.9-2.6,8.4-4.7c1-0.9,1.9-1.9,2.6-3c0.3-0.4,0-1.1,0-1.7c-0.6,0-1.2,0-1.7,0.1
			c-0.3,0.1-0.6,0.4-0.9,0.7c-3.1,3-6.1,5.9-9.1,8.8C309.1,202.5,309.5,202.4,309.8,202.3z"/>
		<path d="M321.8,196.6c-2.7,2.8-5.3,5.6-8,8.4c3.7-1.7,7-3.8,9.4-7.2c0.3-0.4,0.1-1.2,0.2-1.8C322.9,196.2,322.1,196.2,321.8,196.6
			z"/>
		<path d="M322.9,200.7c-2.9,3.6-5.7,7.3-8.5,10.8c3.5-1.8,6.8-4.4,9.5-7.7c0.8-0.9,1.3-2,1.8-3.1c0.2-0.4,0-1.3-0.3-1.4
			c-0.3-0.2-1.1,0-1.5,0.3C323.5,199.8,323.3,200.3,322.9,200.7z"/>
		<path d="M331.7,202.9c0.1-0.3,0.2-0.8,0.1-1.1c-0.1-0.4-0.3-0.8-0.6-0.9c-0.3-0.1-0.8,0.1-1.1,0.3c-0.2,0.1-0.4,0.5-0.5,0.7
			c-2.1,4.1-4.4,8.1-7.9,11.2C326.2,210.8,329.9,207.8,331.7,202.9z"/>
		<path d="M338.8,203.1c0.2-0.5-0.1-1.2-0.2-1.8c-0.5,0.3-1.2,0.5-1.6,0.9c-0.5,0.6-0.9,1.4-1.2,2.2c-1,2.3-1.9,4.6-2.8,7
			c-0.2,0.5-0.4,1.1-0.6,1.6c0.1,0,0.2,0.1,0.3,0.1c1.3-1.9,2.6-3.8,3.8-5.8C337.4,205.9,338.2,204.5,338.8,203.1z"/>
		<path d="M299.4,167.8c3.1-4,5.8-8.5,8.6-12.8c0,0,0-0.2-0.1-0.6c-2.4,2.4-4.7,4.6-6.9,6.9c-2.2,2.4-4.2,5-6.5,7.3
			c-1.6,1.5-3.7,2.5-5.7,3.8C293.1,172.3,296.9,171,299.4,167.8z"/>
		<path d="M297,175.6c7.7-1.5,13.2-9,13-15.8C306.8,166.2,302.5,171.5,297,175.6z"/>
		<path d="M299.7,182.6c4.6-0.1,10.4-5,10.6-8.8C306.1,175.9,302.7,178.7,299.7,182.6z"/>
		<path d="M310.6,187c4.2-8.3,9.4-15.9,15.8-23C318,166.9,309,180.3,310.6,187z"/>
		<path d="M314.4,188.6c4.9-2,9.1-8.9,8.5-14.1C319.2,178.7,316.4,183.4,314.4,188.6z"/>
		<path d="M334.7,175.9c-4.9,3-10.9,12.4-10.8,16.9C328.4,190.4,335.1,180,334.7,175.9z"/>
		<path d="M343,178.3c-6,5.4-10.9,11.7-14.8,18.9C334.8,192.2,339.7,185.9,343,178.3z"/>
		<path d="M342,190.8c-2.2,1.4-8.6,8.2-9.3,9.9C337.4,199.6,341.7,195.1,342,190.8z"/>
		<path d="M341.1,201.1c5.6-3.6,9.7-8.8,14-13.8C348.8,190.2,344.7,195.4,341.1,201.1z"/>
		<path d="M352.3,170.9c-4,5.8-7.9,11.5-11.9,17.2C345.4,186.2,352.1,176.7,352.3,170.9z"/>
		<path d="M351.4,159.1c-0.2,0.1-0.3,0.1-0.4,0.1c-0.1,0.2-0.3,0.4-0.4,0.7c-1.4,2.9-3.3,5.3-6.2,6.9c-0.7,0.4-1.3,0.9-1.9,1.5
			c-2,1.9-3.4,4.2-4,6.8c3.1-2.2,6.4-4.4,9.4-6.8C350.9,166,351.7,162.7,351.4,159.1z"/>
		<path d="M327.3,175.8c3.2-3,9.3-14.9,10.4-20.3C332.9,159.6,327,171.1,327.3,175.8z"/>
		<path d="M326.4,146.4c-5.3,7.7-10.5,15.4-15.8,23.3C317.6,166.7,326.9,152.9,326.4,146.4z"/>
		<path d="M308,151.9c3.6-3.1,6.2-7,7.6-11.6c1-3.3,2.5-6.2,4.9-8.7c0.9-1,1.9-1.8,3.1-2.9c-0.5,0.2-0.8,0.2-1,0.3
			c-4.1,1.8-7.2,4.7-8.9,8.9c-0.8,1.9-1.3,3.9-2.2,5.7c-1.5,3.1-3.1,6.1-4.8,9.1c0.1-0.1,0.2-0.1,0.4-0.2
			C307.4,152.4,307.7,152.1,308,151.9z"/>
		<path d="M329,126.4c-0.1,0.3-0.2,0.6-0.3,0.8c-1.7,6-4.5,11.3-9.3,15.5c-3.2,2.8-5.3,6.4-6.5,10.4c-0.6,2.1-1.2,6-0.7,7.2
			c0.1-0.2,0.2-0.4,0.3-0.6c1.9-6,5.2-11,9.9-15.3c5.4-4.8,7.2-11.2,6.8-18.3C329.1,126.3,329,126.4,329,126.4z"/>
		<path d="M324.3,162.3c0.6-0.1,1-0.2,1.3-0.3c3.3-1.1,6-3.1,7.8-6c2.4-3.8,4.6-7.6,7-11.3c0-0.1,0-0.2,0.1-0.6
			c-0.6,0.4-1.1,0.8-1.5,1.1c-2.9,2.3-5.2,5.1-7.2,8.3c-1.2,2-2.7,3.9-4.2,5.7C326.6,160.3,325.5,161.2,324.3,162.3z"/>
		<path d="M342.2,149.7c-0.8,3.5-1.3,7-2.1,10.5c-0.5,2.2-1.3,4.3-2,6.7c0.4-0.5,0.6-0.6,0.8-0.9c2.8-3.6,4.8-7.8,5.5-12.3
			c0.2-1.3,0.5-2.6,0.9-3.9c1.2-4.4,3.1-8.6,5.4-12.5c0.2-0.4,0.4-0.8,0.6-1.2C347.1,138.9,343.2,144.8,342.2,149.7z"/>
		<path d="M358.9,137c0.1-0.8,0.1-1.5,0.1-2.3c0-0.8,0-1.7,0-2.5c-0.4,0.3-0.5,0.5-0.6,0.8c-1.4,4.7-3.5,8.8-7.4,12.1
			c-1.8,1.5-2.9,3.4-3.5,5.4c-0.7,2.4-0.6,5-0.1,7.8c0.1-0.4,0.2-0.8,0.3-1.2c1-3.7,2.4-7.3,5.6-9.8
			C356.7,144.6,358.4,141.2,358.9,137z"/>
		<path d="M361.2,141.4c-1.6,1.3-2.5,3-2.9,4.9c-1,4.2-1.9,8.4-2.8,12.6c-0.3,1.5-0.7,2.9-1.1,4.4c0.1,0.1,0.3,0.1,0.4,0.2
			c0.3-0.5,0.6-1.1,0.9-1.6c1.6-2.9,2.7-6,3.4-9.3C359.8,148.9,359.5,145,361.2,141.4z"/>
		<path d="M353.2,180.6c3.7-4.3,5.5-9.3,5.4-15C354.9,169.9,353.1,174.9,353.2,180.6z"/>
		<path d="M360.8,170c-0.7,4.3-1.4,8.3-2,12.3C362.4,179.6,363.4,173.4,360.8,170z"/>
		<path d="M352.3,197.7c5.1-2.5,8.1-6.6,9-12.2C357.6,189,354.6,193,352.3,197.7z"/>
		<path d="M363,193.8c4.4-4.2,6.4-16.6,3.4-20.6C365.1,180,365.3,186.9,363,193.8z"/>
		<path d="M370.2,195.1c2.5-3.3,3.4-10.9,2-14.5C369.8,184.2,368.9,191.3,370.2,195.1z"/>
		<path d="M374.9,189.5c2.4-4.4,3.2-11.9,1.8-15.5C374.5,178.9,373.8,184,374.9,189.5z"/>
		<path d="M375.9,171.9c1.1-4.6,1.1-9.2-0.3-13.7C374.5,162.8,374.6,167.4,375.9,171.9z"/>
		<path d="M371.6,175.6c1.3-7.4,1-14.7-1-22C369.3,161,369.6,168.3,371.6,175.6z"/>
		<path d="M363.6,168c2.3-9.5,3-19.1,1.9-28.8C363.2,148.7,362.5,158.3,363.6,168z"/>
		<path d="M367.8,134.1c-0.2,0-0.4,0-0.6,0.1c0,2.2-0.1,4.4,0,6.6c0.2,2.4,0.8,4.8,1.1,7.2c0.2,1.8,0,3.7,0,5.4
			c1.2-1.7,2-3.7,1.9-5.9c-0.1-2.1-0.5-4.1-0.9-6.2C368.9,138.9,368.3,136.5,367.8,134.1z"/>
		<path d="M372.2,139.5c-0.3-1-0.2-2.2-0.2-3.6c-1.3,2.3-1.6,4.4-0.9,6.5c1.3,4.1,3,8.1,4.5,12.2c0.5-3.7-0.4-7.1-1.8-10.4
			C373.1,142.6,372.6,141.1,372.2,139.5z"/>
		<path d="M337,106.9c-6.9,5.4-12,12.1-15.4,20.1C328.4,121.7,333.5,115,337,106.9z"/>
		<path d="M339.4,104.3c2.9-1.2,5.8-3.9,5.8-3.9c1.3-1.2,2.9-3,4.5-5.5c-2,0.9-4.4,2.2-7,4.2c-2.6,2-4.5,4.1-5.9,5.7
			c0.6,0,1.1,0,1.5-0.1C338.3,104.7,338.8,104.6,339.4,104.3z"/>
		<path d="M349.4,101.9c1-1.4,2.2-2.8,3.3-4.2c-0.5,0.2-1.2,0.2-1.7,0.6c-0.9,0.7-1.9,1.4-2.6,2.3c-1.8,2.2-3.8,4-6.2,5.3
			C345.2,105.7,347.6,104.3,349.4,101.9z"/>
		<path d="M339.1,113.7c-1.7,3.2-3.4,6.4-5.1,9.5c-0.5,0.8-1,1.6-1.6,2.3c0.3,0,0.5-0.1,0.6-0.2c3.6-2.6,6.1-6.1,7.8-10.1
			c1.3-3.2,3.7-5.2,7-6.3c0.4-0.1,0.7-0.3,1.4-0.5C344.8,108,341.1,110,339.1,113.7z"/>
		<path d="M330.4,148.4c0.3-0.3,0.7-0.6,1-1c3.9-4.3,6.5-9.3,7.4-15c0.7-4.4,2.1-8.4,5.6-11.3c1.5-1.3,3-2.4,4.7-3.6
			c-4.9,0.7-11.5,4.5-13,11.9c-0.9,4.2-1.9,8.3-3.1,12.4c-0.7,2.3-1.9,4.5-2.9,6.8C330.3,148.5,330.4,148.4,330.4,148.4z"/>
		<path d="M345.2,130c-0.7,1.8-1.1,3.7-2,5.4c-1.7,3.2-3.6,6.2-5.4,9.1c0.2-0.1,0.7-0.4,1.1-0.7c4-2.8,6.8-6.5,7.9-11.2
			c1-3.8,3-6.9,6.4-8.9c0.1-0.1,0.2-0.2,0.6-0.6C349.6,124.1,346.7,126.3,345.2,130z"/>
		<path d="M362.8,124c-0.1,0-0.3,0-0.4,0c-3.3-0.3-5.9,1.2-7.4,4c-0.8,1.6-2,3-3.1,4.3c-0.6,0.7-1.5,1.2-2.3,1.8
			c0.4,0,0.8-0.1,1.2-0.2c2.6-0.5,4.7-1.9,5.8-4.5c1.1-2.4,2.8-4,5.3-4.9C362,124.4,362.3,124.2,362.8,124z"/>
		<path d="M364.4,128c-2,1.9-2.9,4.1-2.9,6.7c0,0.6,0,1.2,0.1,1.8C364.1,134.6,365.4,130.7,364.4,128z"/>
		<path d="M371,95.6c-0.3-0.4-1.1-0.5-1.7-0.7c-0.9-0.3-1.8-0.5-2.6-1c-0.9-0.6-1.7-0.8-2.6-0.3c-1.5,0.8-2.9,1.7-4.3,2.6
			c-1.1,0.7-1.4,1.7-1,2.9c0.4,1.2-0.2,1.8-1.2,2.1c-0.7,0.2-1.6,0.2-2.3,0.1c-1.2-0.1-2.4,0.5-3.1,1.8c-0.6,1.1-0.6,2.1,0.5,3
			c0.3,0.3,0.4,1.1,0.2,1.6c-0.2,0.7-0.7,1.3-0.9,1.9c-1,2.8,0.7,5.5,3.6,5.6c1.6,0,2.4,0.8,3.2,1.9c1,1.4,2,2.8,3.2,4
			c0.1,0.1,0.3,0.3,0.4,0.3c1,0.7,1.9,0.5,2.6-0.3c0.3-0.4,0.5-0.8,0.6-1.2c0.2-0.8-0.2-1.6-1-2.2c-1.2-0.9-2.5-1.5-3.7-2.4
			c-1-0.7-1.9-1.5-2.7-2.4c-0.4-0.5-0.5-1.6-0.1-2c0.8-1.1,0.9-2.1,0.4-3.3c-0.3-0.8-0.5-1.7-0.6-2.6c0-0.6,0.1-1.5,0.5-1.8
			c1.4-1.2,2-2.7,2.5-4.4c0.2-0.8,0.6-1.6,1.1-2.3c0.8-1.2,2.1-1.9,3.5-1.6c2.4,0.5,5,0.6,6.7,2.8c0.6,0.8,1.6,0.9,2.5,0.2
			C373.1,97.9,372,96.9,371,95.6z"/>
		<path d="M374.4,100.2c-1.1,1.8-2.1,3.5-3.1,5.3C373.9,105.5,375.6,102.8,374.4,100.2z"/>
		<path d="M370.7,97.9c-1.2-0.6-2.5-1.1-3.8-1.5c-0.8-0.2-1.7-0.2-2.5,1c2.1,0.1,4.1,0,5.6,1.1c-0.1,0.7-0.3,1.4-0.2,1.9
			c0.4,1.5,0.2,1.9-1.4,1.8c-0.8,0-1.6-0.1-2.2,1c1.2,0.1,2.2,0.3,3.2,0.2c1.2,0,1.8-1.1,1.6-2.3c-0.1-0.5-0.1-1.1,0.2-1.5
			C371.7,98.8,371.5,98.3,370.7,97.9z"/>
		<path d="M369.3,100.1c0-0.9-0.9-1.6-1.9-1.6c-1.1,0-2,0.7-1.9,1.7c0,0.9,0.8,1.6,1.9,1.6C368.6,101.8,369.4,101.1,369.3,100.1z"/>
		<path d="M381.7,103.6c1.3,0.1,2.3,0.2,3.4,0.2c0.3-1.1-0.2-1.8-1-2C382.9,101.5,382.5,102.6,381.7,103.6z"/>
		<path d="M385.9,100.9c1.7,2.9,1.3,4-1.2,4.2c0.7,0.7,1.5,0.9,2.3,0.5c0.9-0.5,1.3-1.3,1.2-2.3C388,102.1,387.4,101.2,385.9,100.9z
			"/>
		<path d="M398.6,115.9c-0.9-7-5.2-11.7-10.5-15.7c-0.1-0.1-0.3-0.1-0.4-0.2c-0.1,0.1-0.2,0.1-0.3,0.2c3.7,4.5,7.4,9,9.2,14.9
			c-3.3-1.6-6.6-2.9-10.2-3c4,2,8.2,3.7,12.5,5c0-0.2,0-0.3,0-0.5C398.7,116.4,398.6,116.2,398.6,115.9z"/>
		<path d="M381,107.1c5.3,0.5,9.7,2.7,13.5,6.4C392.9,108,385.7,104.9,381,107.1z"/>
		<path d="M378.5,103.5c-1,2.1-0.8,4.2,0.7,6c1.3,1.6,3.1,2.2,5.4,2c-5.8-4-5.9-7.1-0.3-11.5C381.4,100.1,379.6,101.3,378.5,103.5z"
			/>
		<path d="M388.6,116.5c-0.5-1-1.4-2-2.2-2.9c-0.6,0.3-1.2,0.6-1.8,0.7c-0.7,0.1-1.5,0-2.2-0.3c-0.5-0.2-0.9-0.6-1.3-1
			c0.4,3,0.8,6.1,1.2,9.2c0.2,1.6,0.5,3.3,1.2,4.8c0.4,0.8,0.9,1.5,1.5,1.9c0.8,0.5,1.8,0.7,2.7,0.4c1-0.3,1.8-1,2.2-1.9
			c0.5-1.2,0.1-2.6-0.2-4C389.3,121.1,389.6,118.6,388.6,116.5z"/>
		<path d="M379.5,113.4c-0.1-1.2-0.2-2.4-1-2.9c-0.5-0.3-1.3-0.3-1.8-0.1c-0.5,0.3-0.9,0.7-1.4,1c-0.5,0.3-1.2,0.4-1.8,0.2
			c-0.5-0.1-1-0.5-1.5-0.5c-0.5,0-1,0.3-1.5,0.2c-0.5-0.1-0.9-0.5-1.3-0.9c-0.8-1-1.1-2.2-1.4-3.4c-0.4,0.4-0.8,0.7-1.2,1.1
			c-0.5,0.5-1,1-1.1,1.6c-0.1,0.6,0.2,1.2,0.6,1.6c0.6,0.6,1.6,0.8,2.1,1.5c0.3,0.4,0.4,1,0.3,1.5c-0.1,0.9-0.7,1.6-1.1,2.4
			c-0.6,1.1-1,2.3-1.1,3.5c-0.2,0.9-0.2,1.9-0.3,2.8c0,1.5,0,3,0.4,4.4c0.1,0.4,0.2,0.8,0.4,1.1c0.7,1.7,2.1,3.1,3.7,4.3
			c2.1,1.5,4.6,2.5,6.9,1.9c1.7-0.4,3.3-1.7,4-3.2c1.5-2.9,0-6.6-0.8-9.8C380,118.9,379.8,116.5,379.5,113.4z"/>
		<path d="M341.7,87.5c1.5,2.8,3.6,4.9,6.9,5.3c2.3,0.3,4.5-0.4,6.7-1.3c6.4-2.6,12.5-2.5,18.3,1.9c1.8,1.4,3.7,2.8,5.5,4.2
			c2,1.5,4.2,2.1,6.6,1.5c1.5-0.4,2.4-0.9,2.6-2.5c0.3-2,0.4-4,0.3-6c-0.1-1.3-0.6-2.7-1.3-3.7c-1.4-1.9-3.3-3.5-4.8-5.3
			c-0.6-0.7-1.2-1.6-1.4-2.6c-0.4-2.3-1.4-4.3-2.7-6.4c-2.3,2.1-2.4,4.7-2.2,7.4c-0.3-0.5-0.6-1-0.7-1.5c-0.4-2.1-0.7-4.3-1-6.4
			c-0.2-1.9-0.8-3.6-1.9-5.1c-1.3,1.1-2.3,2.4-2.7,4c-0.4,1.5-0.7,3-1,4.6c-0.4-1.2-0.6-2.4-0.7-3.6c-0.2-3-1.2-5.5-4.1-7.1
			c-2.6,2.4-1.4,5.5-1.8,8.5c-2-3.5-3.5-7.1-7.3-9.2c-0.3,1.6-0.8,3-0.9,4.4c-0.1,1.5,0.2,2.9,0.4,4.4c-1.8-1.7-3.5-3.3-5.3-5
			c-1.7,1.6-1.1,3.5-1.3,5.3c-1.7-0.4-3.4-0.9-5.1-1.3c-0.1,0.2-0.3,0.4-0.4,0.6c0.8,1.2,1.6,2.4,2.4,3.6c-1.6-0.7-3.2-1.3-4.9-2
			c0,2.1-0.1,3.9,0,5.7C340,82.5,340.4,85.1,341.7,87.5z"/>
		<path d="M322.5,232c0.7-4.2-3-7.5-7.9-7.2C317.9,226.5,321.1,228.2,322.5,232z"/>
		<path d="M326.3,222.1c1.3-2.5,2.6-5.1,3.8-7.6c0.3-0.7,0.5-1.6-0.5-2c-1.1-0.5-1.5,0.4-1.9,1.1c-1.7,3.5-2.4,7.3-3.2,11
			c0.1,0,0.2,0,0.3,0.1C325.3,223.8,325.8,222.9,326.3,222.1z"/>
		<path d="M334.3,218c0.4-0.4,0.7-1,0.7-1.5c0.1-0.4-0.1-1.1-0.4-1.2c-0.4-0.2-1.1-0.2-1.4,0c-0.5,0.3-0.9,0.8-1.1,1.3
			c-1.3,2.5-2.5,5-3.7,7.5c0.2,0.1,0.3,0.3,0.5,0.4C330.7,222.2,332.5,220.1,334.3,218z"/>
		<path d="M346.4,201.7c0-0.8-0.7-1.2-1.3-0.8c-0.3,0.2-0.6,0.6-0.9,0.9c-2.5,3.6-4.1,7.7-5.7,11.8c2.8-3.5,5.8-6.9,7.8-11
			C346.3,202.3,346.4,202,346.4,201.7z"/>
		<path d="M342.8,214.6c0.3-0.6,0.5-1.4-0.5-1.8c-1-0.4-1.3,0.4-1.5,1.1c-0.6,2.1-1,4.3-1.5,6.4c0.2,0.1,0.4,0.1,0.5,0.2
			C340.9,218.5,341.9,216.5,342.8,214.6z"/>
		<path d="M350.8,200.2c-0.4,0.5-0.8,1.2-1,1.9c-0.8,2.2-1.5,4.4-2.2,6.6c-0.5,1.7-0.9,3.5-1.4,5.3c2.5-3.9,4.9-7.8,6.3-12.2
			c0.1-0.3,0.2-0.6,0.1-0.9c-0.1-0.4-0.3-1-0.6-1.1C351.6,199.7,351,199.9,350.8,200.2z"/>
		<path d="M348.7,213.9c-1.4,0-1.3,1.4-1.3,2.3c0.1,2.4,0.2,4.8,0.4,7.2c0.2,0,0.4,0.1,0.6,0.1c0.5-2.5,1.1-4.9,1.5-7.4
			C350,215.3,350.3,213.9,348.7,213.9z"/>
		<path d="M359.2,199.2c0-0.4-0.5-1-0.8-1.1c-0.4-0.1-1.1,0.2-1.3,0.6c-0.4,0.6-0.6,1.4-0.8,2.1c-1.4,5-2.7,10.1-4,15.3
			c2.7-3.9,5-8,6.3-12.4C358.9,202.2,359.1,200.7,359.2,199.2z"/>
		<path d="M365.7,197.5c-0.1,0.2-0.1,0.4-0.1,0.6c-0.3,1.9-0.5,3.9-0.9,5.8c-0.6,3.7-1.3,7.3-2,11.2c2.6-4.4,4.5-8.8,5.4-13.6
			c0.2-1.2,0.2-2.5,0.3-3.7c0-0.8-0.1-1.6-1.1-1.7C366.2,195.9,366,196.7,365.7,197.5z"/>
		<path d="M373.2,198.8c-1.5,4.7-2.8,9.5-4.4,14.1c-0.8,2.4-2.1,4.6-3.2,7.1c0.3-0.2,0.5-0.3,0.7-0.4c2.8-2.3,5.1-5.1,6.4-8.6
			c2.1-5.6,2.7-11.4,2.8-17.4c-0.1,0-0.2,0-0.3-0.1C374.4,195.3,373.7,197,373.2,198.8z"/>
		<path d="M361,219.1c0-0.8-0.2-1.6-1.2-1.6c-0.9,0-1.3,0.6-1.3,1.5c-0.2,2.8-0.4,5.7-2,8.2C359.4,225.2,361.2,222.7,361,219.1z"/>
		<path d="M352.4,224c-2.1,1.7-3.8,6.5-2,9.6C352.9,231.2,353.9,226.8,352.4,224z"/>
		<path d="M342.7,231.7c1.3-2.8,0.7-5.2-1.6-6.6C339.8,227.5,340.4,230.1,342.7,231.7z"/>
		<path d="M332.9,231.4c-1.9,3.6-1.3,7.1,1.8,9.5C336.7,237.5,335.9,232.9,332.9,231.4z"/>
		<path d="M348.1,234c-2.7,2-3.3,6.4-1.2,9C349.6,240.5,350.1,236.8,348.1,234z"/>
		<path d="M340.5,240.8c-2.6,1.6-4.1,5.8-1.8,8.9C341.5,247.5,342.2,244.1,340.5,240.8z"/>
		<path d="M365.8,221.8c-8.7,10.6-17.4,21.3-26.1,31.9C350.3,247.8,364,231.1,365.8,221.8z"/>
		<path d="M301,266.2c2.3-1.3,4.5-2.5,6.7-3.8c3.4-2,6.7-4.2,9.7-6.8c3.6-3.1,6.7-6.6,7.5-11.5c0.8-4.8,2.5-9,5.2-13
			c1.9-2.9,3.3-6.1,4.9-9.1c-0.1-0.1-0.2-0.1-0.3-0.2c-2.3,2.8-4.5,5.6-7,8.2c-1,1.1-2,2.2-2.9,3.4c-1.9,2.6-3.3,5.4-4.2,8.6
			c-0.8,2.8-2.2,5.3-4.5,7.1c-2,1.7-4.1,3.3-6.3,4.7c-0.1,0-0.2,0.1-0.3,0.2c-3.7,2.4-7.5,4.7-11.2,7.1c-5.5,3.4-10.9,6.9-16.4,10.4
			c-4,2.6-7.9,5.3-11.7,8.2c-1.8,1.3-3.2,3.1-4.8,4.7c0.5,0.1,0.7-0.1,1-0.3c3.1-1.8,6.1-3.8,9.4-5.3c6.6-2.9,13-6.1,19.3-9.5
			C297.1,268.4,299.1,267.3,301,266.2z"/>
		<path d="M326.3,255c-0.1,0.4-0.2,0.9,0,1.2c0.3,0.5,0.7,1.2,1.2,1.3c0.4,0.2,1.1-0.2,1.6-0.5c0.3-0.2,0.5-0.7,0.6-1.1
			c1.3-4.2,0.8-8.4-0.2-12.8C328.4,247.2,327.3,251.1,326.3,255z"/>
		<path d="M321.2,259.6c0,0.3,0.5,0.7,0.7,1.1c0.3-0.3,1-0.7,1-1c0-1.9-0.1-3.8-0.2-5.7c-0.2,0-0.4-0.1-0.6-0.1
			C321.8,255.8,321.5,257.7,321.2,259.6z"/>
		<path d="M309,275.5c4.2-2.5,8.5-4.9,12.6-7.5c3.1-1.9,6.3-3.7,9.2-5.9c3.1-2.4,5.4-5.5,7.3-9c-0.5,0.4-1.1,0.9-1.6,1.3
			c-3.8,3.1-7.8,6-12.1,8.3c-4.1,2.2-8.2,4.4-11.6,7.7c-1.2,1.2-2.4,2.5-3.6,3.7c-0.5,0.6-1,1.1-1.6,1.7c0.1,0.1,0.2,0.2,0.3,0.3
			C308.4,275.9,308.7,275.7,309,275.5z"/>
		<path d="M314.2,265.7c0,0.3,0.4,0.5,0.7,0.8c0.3-0.3,0.8-0.5,0.8-0.8c0-1.8-0.1-3.5-0.2-5.3c-0.2,0-0.4,0-0.6,0
			C314.6,262.2,314.3,264,314.2,265.7z"/>
		<path d="M308.4,273c1.6-3,1.3-6,0.3-8.9c-0.9,2.7-1.7,5.3-2.6,7.9c-0.3,0.9-0.3,1.7,0.7,1.9c0.4,0.1,1.2-0.3,1.5-0.7
			C308.3,273.1,308.4,273,308.4,273z"/>
		<path d="M300.7,273.1c-0.2,0.8-0.3,1.6-0.3,2.3c0,0.3,0.4,0.8,0.8,0.9c0.3,0,0.8-0.4,0.9-0.7c0.2-0.4,0.2-0.9,0.2-1.3
			c0-1.6-0.1-3.2-0.2-4.8c-0.1,0-0.2,0-0.4,0C301.4,270.8,301,271.9,300.7,273.1z"/>
		<path d="M296.2,271.2c-0.1,0.6-0.2,1.3-0.3,1.9c-0.3,1.4-0.6,2.8-0.8,4.3c0,0.4,0.5,0.9,0.7,1.4c0.4-0.3,0.8-0.6,1.2-1
			c0.2-0.2,0.2-0.5,0.2-0.7c-0.1-2-0.3-3.9-0.5-5.9C296.6,271.2,296.4,271.2,296.2,271.2z"/>
		<path d="M289.4,278.8c0,0.3,0.4,0.7,0.6,1.1c0.3-0.3,0.8-0.6,0.8-0.9c0.1-1.4,0-2.9,0-4.3c-0.2,0-0.3,0-0.5-0.1
			C290,276,289.6,277.4,289.4,278.8z"/>
		<path d="M302.2,278.2c-1.9,0.6-3.9,1.3-5.9,1.9c-1.2,0.4-2.4,0.8-3.6,1.2c-1.9,0.7-3.9,1.4-5.6,2.4c-2,1.1-3.5,2.8-4.4,5
			c2.3-2.3,5.2-3.6,8.3-4.6c0.8-0.3,1.6-0.5,2.4-0.7c0.6-0.2,1.2-0.3,1.8-0.5c3.1-1,5.8-2.6,8.1-5
			C302.9,278,302.5,278.1,302.2,278.2z"/>
		<path d="M260.6,301.2c0-2.5-0.8-4.8-1.7-7.2c-0.7-1.7-1.2-3.5-1.6-5.4c-0.2-1.3,0-2.6,0-3.9c-1.4,2.9-1.8,5.9-0.4,8.8
			C258,296.2,259.3,298.7,260.6,301.2z"/>
		<path d="M262.8,300.9c0.3-0.3,0.9-0.7,0.9-1c0.2-3.4,1.8-6.3,3.2-9.3c1-2,1.8-4,2.7-6c-0.1,0-0.2-0.1-0.3-0.1
			c-2.4,3.7-5.5,6.9-7.1,11.1c-0.5,1.3-0.3,2.9-0.4,4.4C261.9,300.2,262.5,300.6,262.8,300.9z"/>
		<path d="M269.4,300.6c1.5,0.1,1.2-1.3,1.4-2.3c0.7-2.8,1.1-5.7,1.9-8.5c0.6-2.2,1.6-4.2,2.4-6.3c-2.6,3-4.9,6.2-6,10.1
			c-0.5,1.5-0.6,3.1-0.7,4.7C268.3,299.2,268.2,300.6,269.4,300.6z"/>
		<path d="M276.1,296c0.6-0.5,1.1-1,1.5-1.7c2.4-4,3.1-8.4,2.8-13.3c-0.2,0.5-0.3,0.6-0.3,0.7c-0.7,4.2-2.4,8-4.6,11.7
			c-0.3,0.5-0.6,1-0.7,1.6c-0.1,0.3,0,0.8,0.3,1C275.3,296.1,275.8,296.2,276.1,296z"/>
		<path d="M287.8,287.3c-0.1,1.5-0.4,3-0.3,4.5c0.2,2.4,1.2,4.5,3.2,5.9c0.4,0.3,1,0.1,1.5,0.2c-0.1-0.5-0.1-1.1-0.4-1.4
			c-2.5-2.6-4-5.5-3.6-9.2C288.1,287.3,287.9,287.3,287.8,287.3z"/>
		<path d="M293.5,285.3c0,1.3-0.1,2.7,0,4c0.2,2.7,0.4,5.3,0.7,8c0,0.5,0.2,1.3,0.8,1.3c0.1,0,0.2,0,0.4-0.1c0.4-0.2,0.8-1,0.8-1.5
			c0-1.1-0.2-2.3-0.4-3.3c-0.6-2.8-1.3-5.6-2-8.3C293.7,285.3,293.6,285.3,293.5,285.3z"/>
		<path d="M303.8,297.1c0.1,0,0.2,0,0.2,0c0.3-0.3,0.7-0.6,0.9-1.3c0.3-0.7,0.5-1.7,0.8-4.1c0.3-3,0.8-7.9,1.2-13.2
			c-0.3,0.6-0.5,1-0.7,1.4c-1.8,3.9-2.3,8-2.4,12.2c-0.1,2.3-0.5,3.1-0.7,3.8C303,296.5,303,297,303.8,297.1z"/>
		<path d="M300.3,284.2c-0.4,1.2-0.6,2.3-0.8,3.5c-0.4,2.6-0.8,5.3-1.1,7.9c-0.1,0.7-0.4,1.3-0.4,2c0,0.3,0.2,0.8,0.3,0.8
			c0.3,0.1,0.8,0,1-0.3c0.5-0.8,1-1.6,1.2-2.4c0.9-2.8,0.7-5.7,0.3-8.6c-0.3-1.5-0.1-2.9,0.7-4.3C301,283.3,300.5,283.7,300.3,284.2
			z"/>
		<path d="M339.4,333.2c-1.1-1.9-2.6-3.3-4.6-3.9c-2.6-0.8-5.3-1.5-8-2c-3.7-0.7-7.5-1.2-11.1-1.7c6.1-2,12.4-0.8,18.7-0.4
			c0.1-0.1,0.1-0.3,0.2-0.4c-0.3-0.3-0.5-0.8-0.8-1c-3-2.6-6.5-3.9-10.6-3.2c-4.5,0.8-9,1.8-13.5,2.8c-0.9,0.2-1.5,0-1.8-0.9
			c-0.5-1.5-0.9-3-1.4-4.5c-1.8-5.9-3-11.9-2.9-18.1c0-0.3,0-0.6-0.1-1.1c-2.9,1.5-5.8,1.8-8.6,1.4c-0.8-0.1-1.5-0.3-2.3-0.4
			c0.2,0.5,0.4,1,0.4,1.4c0.2,2.2,0.1,4.5,0.5,6.6c0.7,4.7,1.7,9.3,2.5,14c0.3,1.9,0.3,2.9-2,3.6c-3.2,0.9-4.7,2.9-4.7,5.7
			c0,1.6,0.5,1.9,1.9,1.1c1.5-0.9,3-1.3,4.7-1.1c6,0.5,11.7,2,16.7,5.6c1.9,1.5,3.9,2.8,6.2,4.5c0.1-1.4,0.5-2.6,0.3-3.6
			c-0.6-3-3.1-4.6-5.5-6.3c0.3-0.1,0.5-0.3,0.7-0.3C322.4,331.3,330.9,331.6,339.4,333.2z"/>
		<path d="M295.2,337c-1.7-1.2-3.4-1.2-5.1-1.2c-3.1,0-6.5,0-9.3-0.2c-3-0.2-5.4-0.6-7.8-1c-2.5-0.9-2.6-1.8-2.6-3.1
			c0-0.2,0-0.4,0-0.6c0.1-7.4,0.3-14.8,0.4-22.3c0.1-2.5,0.8-4.7,2.1-6.9c-3.8,2.3-7.7,2.3-12,0.8c0.3,2.8,0.4,5.4,0.7,7.9
			c0.9,7,0.9,13.9-0.6,20.8c-0.5,2.4-1,2.7-3.4,3.1c-2.3,0.4-4.5,1-6.6,1.8c-1.9,0.7-3.3,2.2-4.1,4.1c-0.2,0.4-0.2,1.2,0,1.5
			c0.2,0.3,1,0.4,1.5,0.3c0.7-0.1,1.5-0.3,2.2-0.5c3.3-0.9,6.5-0.9,9.8,0c4.4,1.2,8.5,3.1,12.4,5.5c1.4,0.9,2,1.6,2.6,2.5
			c0.7,0.9,1.5,1.8,1.8,2.5c0.4,0.7,1.8,1.5,2.2,0.6c0.4-0.8,0.8-1.6,0.9-2.5c-0.1-2.2-0.6-2.9-1.2-3.6c-0.5-0.6-1.1-1.1-3.7-3.4
			c2.4,0,4.8,0.1,7,0.6c1.9,0.5,3.6,1.3,5.5,2.7c1.6,1.2,3.3,2.9,4.8,2.1c0.7-0.4,1.3-1.3,1.3-2.1c0-1.3-1.5-2.2-2.9-2.9
			c-2.2-1.2-3.9-2.2-5.8-2.9c-2.4-0.9-5.1-1.4-7.8-2c3.8,0.1,7.6,0.2,14.4,0.9c2.5,0.3,5.4,0.6,5.3-0.4
			C297,338.6,296.1,337.6,295.2,337z"/>
	</g>
</g>
</svg>
