<?xml version="1.0"?>
<svg xmlns:rdf="http://www.w3.org/1999/02/22-rdf-syntax-ns#" xmlns="http://www.w3.org/2000/svg" xmlns:cc="http://creativecommons.org/ns#" xmlns:xlink="http://www.w3.org/1999/xlink" xmlns:dc="http://purl.org/dc/elements/1.1/" xmlns:svg="http://www.w3.org/2000/svg" id="svg3739" viewBox="0 0 788.24 386.84" version="1.1">
  <defs id="defs3">
    <filter id="filter5243" color-interpolation-filters="sRGB">
      <feGaussianBlur id="feGaussianBlur5245" stdDeviation="21.795943"/>
    </filter>
  </defs>
  <g id="layer1" transform="translate(-26.219 -543.65)">
    <g id="g4227">
      <g id="g5823" transform="matrix(1.0402 0 0 1.0402 -1214.9 -160.14)">
        <path id="path5237" opacity=".55" d="m-23.844 8926.9s-95.997 70.529-101.88 56.812c-5.8784-13.716-50.94-1.9345-64.656 11.781s3.9062 37.219 3.9062 37.219-113.65 5.8865-131.28 41.156c-17.635 35.27 23.531 41.125 23.531 41.125l105.81-48.969s11.734 19.586 1.9375 70.531c-9.7972 50.945 6.1877 144.58 0 211.62-3.1927 34.591-47.121 75.11-86.625 85.437-50.036 13.08-51.6 13.761-97.438 17.074l-308.5-1.7927c-26.045-0.1513-56.165 18.847-67.531 42.281l-182.88 377.06h-532.59c-9.9215 0-20.944 7.3871-24.719 16.563l-90.844 220.81c-3.7744 9.175 1.1762 16.236 11.094 16.563l2397.7 79.084c9.9176 0.327 20.944-7.388 24.719-16.563l128.07-299.9c3.7745-9.1755-1.1723-16.563-11.094-16.563h-553.25l182.88-377.06c11.367-23.434-0.45489-42.281-26.5-42.281h-301.94c-9.1267-47.936-50.308-128.28-74.594-159.5-27.432-35.27-62.688-37.219-62.688-37.219s-7.8502-17.653 3.9062-23.531c11.756-5.8783 23.516-25.456 33.312-48.969 8.5725-20.574 0.64755-21.647-1.4688-21.594l58.312-3.875 3.9062 92.094 7.8438-5.9063-1.9688-82.281 66.625-1.9687-133.25-94.031-158.69 7.8126s56.816 39.187 50.938 39.187c-5.8784 0-21.547 19.593-31.344 58.781-9.7972 39.189 39.176 48.984 23.5 58.781-15.675 9.7973-31.355 7.8468-66.625 1.9687-35.27-5.8783-31.337 13.707-62.688-1.9687-31.351-15.675-19.602-50.869-31.375-86.188-11.757-35.27-33.287-52.909-41.125-66.625-7.8376-13.716 19.594-33.312 19.594-33.312s95.99-31.362 113.62-35.281c17.635-3.919 39.213-31.344 31.375-50.938-7.8376-19.594-45.094-27.438-45.094-27.438z" transform="matrix(.28046 0 0 .23469 1658 -1362.5)" filter="url(#filter5243)" stroke="#000" stroke-width="15"/>
        <path id="path4025" stroke="#f60" stroke-width="4.2052" d="m1642.8 678.86s-26.913 19.773-28.561 15.927c-1.648-3.8452-14.281-0.54234-18.126 3.3029-3.8452 3.8454 1.0951 10.434 1.0951 10.434s-31.861 1.6503-36.805 11.538c-4.944 9.8879 6.5969 11.529 6.5969 11.529l29.665-13.728s3.2897 5.4909 0.5431 19.773 1.7348 40.533 0 59.329c-0.895 9.6977-13.21 21.057-24.285 23.952-14.028 3.6671-14.466 3.8578-27.317 4.7867l-86.488-0.50258c-7.3016-0.0424-15.746 5.2838-18.932 11.854l-51.269 105.71h-146.96c-2.7815 0-5.8717 2.071-6.9299 4.6433l-39.388 94.386c-1.0582 2.5722 0.3286 4.6434 3.1101 4.6434h683.74c2.7814 0 5.8717-2.0712 6.9298-4.6434l39.388-94.386c1.0582-2.5723-0.3286-4.6433-3.1101-4.6433h-158.55l51.269-105.71c3.1867-6.5697-0.1274-11.854-7.4292-11.854h-84.648c-2.5586-13.439-14.104-35.962-20.912-44.716-7.6906-9.8878-17.574-10.434-17.574-10.434s-2.2009-4.9491 1.0951-6.597c3.2959-1.648 6.5925-7.1366 9.3391-13.728 2.4033-5.7679 0.1816-6.0688-0.4117-6.0538l16.348-1.0864 1.0951 25.818 2.199-1.6558-0.552-23.068 18.678-0.55192-37.357-26.362-44.488 2.1903s15.928 10.986 14.28 10.986-6.0406 5.4929-8.7872 16.479c-2.7466 10.987 10.983 13.733 6.5882 16.479-4.3945 2.7467-8.7904 2.1998-18.678 0.55193-9.8878-1.648-8.7852 3.8427-17.574-0.55193-8.7892-4.3946-5.4955-14.261-8.796-24.163-3.296-9.8879-9.3321-14.833-11.529-18.678-2.1972-3.8452 5.4931-9.3391 5.4931-9.3391s26.911-8.7924 31.855-9.8911c4.9439-1.0987 10.993-8.7872 8.796-14.28-2.1973-5.4933-12.642-7.6921-12.642-7.6921z"/>
      </g>
      <g id="text4206" fill="#fff">
        <path id="path4211" d="m285.12 837.78c-3.5368 2.4445-6.3713 4.2649-8.5037 5.4611-4.889 2.8086-9.1279 4.2129-12.717 4.2129-4.2129 0.00001-7.6976-2.0544-10.454-6.1633-1.9764-2.9646-2.9646-6.3713-2.9646-10.22 0-10.714 4.681-23.197 14.043-37.448 8.6858-13.159 18.75-24.497 30.192-34.015 9.3619-7.8015 17.397-11.702 24.107-11.702 3.3806 0.00011 6.1372 1.4304 8.2697 4.2909 1.6122 2.1846 2.4184 4.7591 2.4185 7.7236-0.00007 9.0499-4.421 18.438-13.263 28.164-6.7614 7.4376-11.884 11.156-15.369 11.156-0.78021 0.00006-1.5604-0.312-2.3405-0.93619-0.83222-0.72809-1.2483-1.5863-1.2483-2.5745-0.00004-1.3002 1.1442-2.8865 3.4327-4.759 5.8772-4.7329 10.662-9.5699 14.355-14.511 5.7731-7.6455 8.6597-13.705 8.6598-18.178-0.00007-1.1961-0.44216-2.1583-1.3263-2.8866-0.83224-0.67603-1.8464-1.0141-3.0426-1.0142-2.7566 0.0001-6.4494 1.6124-11.078 4.837-9.674 6.8135-19.218 16.357-28.632 28.632-6.0853 7.9577-11.156 16.175-15.213 24.653-3.5367 7.4376-5.3051 13.523-5.3051 18.256-0.00001 1.8724 0.59811 3.6408 1.7944 5.3051 1.6123 2.2365 3.7188 3.3547 6.3193 3.3547 3.6927 0.00002 8.2437-1.9504 13.653-5.8512 6.7614-4.889 11.598-8.8158 14.511-11.78 2.4444-2.4965 4.2908-3.7447 5.5391-3.7448 0.88413 0.00004 1.6123 0.33811 2.1844 1.0142 0.72809 0.88421 1.0922 1.9764 1.0922 3.2767-0.00005 1.4563-0.88423 3.3807-2.6525 5.7732-1.8204 2.3925-4.629 6.8394-8.4257 13.341-4.3689 7.4375-8.3998 15.499-12.092 24.185-3.2767 7.6455-5.2531 12.821-5.9292 15.525-0.57214 2.2884-1.2223 3.9268-1.9504 4.915-0.78018 1.0402-1.9764 1.5603-3.5887 1.5603-1.3523-0.00003-2.3925-0.46813-3.1206-1.4043-0.62415-0.8322-0.93621-1.8204-0.93619-2.9646-0.00002-4.4209 2.5745-12.066 7.7236-22.937 0.83214-1.7164 3.4587-6.7094 7.8796-14.979 0.88415-1.6643 2.2104-4.1868 3.9788-7.5676z"/>
        <path id="path4213" d="m323.82 823.97c5.097-5.4611 10.974-10.792 17.632-15.993 2.3925-1.8723 4.941-3.6147 7.6456-5.2271 1.3522-0.7801 2.2104-1.1702 2.5745-1.1702 0.78012 0.00006 1.5603 0.57217 2.3405 1.7164 0.46805 0.62418 0.7021 1.1963 0.70214 1.7164-0.00004 0.93624-0.98824 2.2105-2.9646 3.8228-5.3051 4.2129-7.9576 7.3856-7.9576 9.5179-0.00002 1.1963 0.67611 1.7944 2.0284 1.7944 2.2364 0.00004 6.0852-1.8463 11.546-5.5391 0.93615-0.62409 1.7163-0.93615 2.3405-0.93619 0.41604 0.00004 0.83212 0.20808 1.2483 0.62412 0.46804 0.46814 0.70209 0.96224 0.70214 1.4823-0.00005 1.5604-2.1845 3.9528-6.5533 7.1775-4.577 3.4327-8.9199 5.1491-13.029 5.149-1.6644 0.00003-3.1987-0.44206-4.6029-1.3263-1.1963-0.72812-1.7944-2.0284-1.7944-3.9008-0.00002-1.3002 0.54609-2.7825 1.6383-4.4469-4.1089 2.9126-8.9458 7.9056-14.511 14.979-3.2247 4.3689-6.4233 9.752-9.596 16.149-1.1962 2.3925-2.6786 3.5887-4.4469 3.5887-1.9244 0.00001-2.8866-0.91018-2.8866-2.7306 0.00001-1.7684 1.5083-6.5013 4.5249-14.199 4.4729-11.442 9.1539-20.31 14.043-26.603 3.0166-3.9008 5.5391-5.8512 7.5675-5.8512 0.67612 0.00005 1.3002 0.20809 1.8724 0.62413 0.67612 0.52015 1.0142 1.1703 1.0142 1.9504-0.00003 0.7802-0.52013 1.8724-1.5603 3.2767-0.20807 0.2601-1.5864 2.0024-4.1348 5.2271-2.3405 3.0687-4.1349 6.1113-5.3831 9.1279z"/>
        <path id="path4215" d="m381.55 836.76c-1.7164 3.0166-3.4067 5.5652-5.071 7.6456-3.2767 4.0568-6.5273 6.0852-9.752 6.0852-2.8086 0.00001-4.993-1.3263-6.5533-3.9788-0.9882-1.7163-1.4823-3.7448-1.4823-6.0852 0.00001-5.7732 1.8204-12.144 5.4611-19.114 4.0568-7.7495 8.9458-13.705 14.667-17.866 3.7448-2.7045 7.3595-4.0568 10.844-4.0568 2.1844 0.00005 4.0048 0.67619 5.4611 2.0284 1.2482 1.1963 1.8724 2.5486 1.8724 4.0568-0.00003 1.1443-0.44212 2.7306-1.3263 4.759 0.78012 1.0923 1.1702 2.0545 1.1702 2.8866-0.00004 1.0923-0.72818 2.8866-2.1844 5.3831-1.5083 2.5486-3.0166 5.9292-4.5249 10.142-1.6124 4.4729-2.4185 8.0617-2.4185 10.766-0.00002 2.1845 0.65011 3.9788 1.9504 5.3831 0.36405 0.36408 1.4303 0.9622 3.1986 1.7944 1.3002 0.62414 1.9504 1.7164 1.9504 3.2767-0.00003 0.98821-0.3641 1.7944-1.0922 2.4185-0.78019 0.67614-1.6904 1.0142-2.7306 1.0142-2.8086 0.00001-5.2271-1.2482-7.2555-3.7448-1.6644-2.0284-2.4965-4.5769-2.4965-7.6456-0.00001-1.0402 0.10401-2.7565 0.31207-5.149zm9.752-25.667c-0.62415-1.1442-1.3003-1.9894-2.0284-2.5355-0.72818-0.54606-1.5083-0.81912-2.3405-0.81917-3.9528 0.00005-8.2437 3.4588-12.873 10.376-5.097 7.6456-7.6456 14.121-7.6456 19.426 0 1.3003 0.24705 2.2885 0.74115 2.9646 0.4941 0.67615 1.2352 1.0142 2.2235 1.0142 2.4965 0.00002 5.4091-2.6525 8.7378-7.9576 1.8724-2.9126 4.1868-7.2034 6.9434-12.873 1.8204-3.6927 3.1466-6.1372 3.9788-7.3335 0.41606-0.62408 1.1702-1.3782 2.2625-2.2625z"/>
        <path id="path4217" d="m431.56 804.08c5.201-10.87 10.116-20.336 14.745-28.398 4.4729-7.8015 7.5155-12.716 9.1279-14.745 1.7683-2.2364 3.4326-3.3546 4.993-3.3547 0.83211 0.0001 1.5863 0.33817 2.2625 1.0142 0.62407 0.67623 0.93613 1.4044 0.93619 2.1844-0.00006 1.1963-0.88424 3.1987-2.6525 6.0072-7.5416 12.171-14.459 24.523-20.752 37.058-7.2815 14.615-10.922 25.563-10.922 32.845-0.00003 2.9646 0.57209 5.3051 1.7164 7.0214 0.20802 0.36409 1.1442 1.1963 2.8086 2.4965 0.31203 0.26006 0.46806 0.78017 0.46809 1.5603-0.00003 1.0402-0.40311 1.9894-1.2092 2.8476-0.80619 0.85818-1.7034 1.2873-2.6916 1.2873-1.1963 0-2.5225-0.72815-3.9788-2.1844-2.0804-2.0804-3.3287-4.4729-3.7448-7.1775-0.15605-1.1442-0.33808-3.2766-0.54611-6.3973-5.4611 9.83-10.662 14.745-15.603 14.745-2.8606 0-5.149-1.6123-6.8654-4.837-1.1442-2.1324-1.7163-4.5509-1.7164-7.2555 0.00001-8.1136 2.9646-16.279 8.8938-24.497 5.8772-8.1136 12.196-12.17 18.958-12.17 1.8724 0.00006 3.7968 0.65019 5.7732 1.9504zm-2.6525 6.3973c-1.4043-0.93614-2.6266-1.4042-3.6668-1.4043-4.3689 0.00004-8.5038 2.6786-12.405 8.0356-5.149 6.9695-7.7236 13.705-7.7236 20.206 0 0.78018 0.15603 1.5083 0.4681 2.1844 0.62412 1.3003 1.5603 1.9504 2.8086 1.9504 1.8204 0.00001 4.0308-1.7684 6.6314-5.3051 3.4847-4.6809 6.7094-10.22 9.674-16.617 1.0402-2.1844 2.0544-4.3688 3.0426-6.5533-0.00002 0.00005 0.23402-0.49405 0.70214-1.4823z"/>
        <path id="path4219" d="m463.7 837.7c-2.2365 3.1207-4.2129 5.6172-5.9292 7.4895-3.0166 3.3287-6.0072 4.993-8.9718 4.993-2.5485 0-4.5249-1.1442-5.9292-3.4327-0.9882-1.6123-1.4823-3.5367-1.4823-5.7732 0.00001-6.7094 2.8606-14.407 8.5818-23.093 2.6525-4.0568 5.2791-7.1514 7.8796-9.2839 2.0284-1.7163 3.6927-2.5745 4.993-2.5745 0.72813 0.00005 1.4043 0.31212 2.0284 0.93619 0.52008 0.57217 0.78014 1.1443 0.78016 1.7164-0.00002 0.98824-0.96222 2.6006-2.8866 4.837-4.3169 5.1491-7.5936 9.8821-9.83 14.199-2.6005 5.045-3.9008 8.9979-3.9008 11.858-0.00001 0.72816 0.16903 1.2873 0.5071 1.6773 0.33807 0.39009 0.81916 0.58513 1.4433 0.58512 2.6525 0.00001 6.3453-3.7968 11.078-11.39 2.4445-3.9528 4.5509-8.3217 6.3193-13.107 0.93617-2.6005 2.1584-4.915 3.6668-6.9434 1.4563-1.8203 2.8866-2.7305 4.2909-2.7306 0.78013 0.00005 1.4823 0.33811 2.1064 1.0142 0.67611 0.72819 1.0142 1.5344 1.0142 2.4185-0.00003 1.8724-1.7944 6.0853-5.3831 12.639-2.4445 4.525-3.6668 8.2957-3.6668 11.312-0.00002 3.2247 0.85815 5.9812 2.5745 8.2697 0.46806 0.62414 1.8984 1.6123 4.2909 2.9646 1.1442 0.67615 1.7163 1.7684 1.7164 3.2767-0.00003 0.9362-0.40311 1.7424-1.2092 2.4185-0.8062 0.67614-1.7814 1.0142-2.9256 1.0142-2.6006 0-4.967-1.0402-7.0994-3.1206-1.9244-1.8724-3.1467-4.5769-3.6668-8.1137-0.10404-0.46808-0.23407-1.8204-0.39008-4.0568z"/>
        <path id="path4221" d="m506.38 836.76c-1.7164 3.0166-3.4067 5.5652-5.071 7.6456-3.2767 4.0568-6.5273 6.0852-9.752 6.0852-2.8086 0.00001-4.993-1.3263-6.5533-3.9788-0.98819-1.7163-1.4823-3.7448-1.4823-6.0852 0.00001-5.7732 1.8204-12.144 5.4611-19.114 4.0568-7.7495 8.9458-13.705 14.667-17.866 3.7448-2.7045 7.3595-4.0568 10.844-4.0568 2.1844 0.00005 4.0048 0.67619 5.4611 2.0284 1.2482 1.1963 1.8724 2.5486 1.8724 4.0568-0.00004 1.1443-0.44213 2.7306-1.3263 4.759 0.78012 1.0923 1.1702 2.0545 1.1702 2.8866-0.00004 1.0923-0.72819 2.8866-2.1844 5.3831-1.5083 2.5486-3.0166 5.9292-4.5249 10.142-1.6124 4.4729-2.4185 8.0617-2.4185 10.766-0.00003 2.1845 0.65011 3.9788 1.9504 5.3831 0.36404 0.36408 1.4303 0.9622 3.1986 1.7944 1.3002 0.62414 1.9504 1.7164 1.9504 3.2767-0.00003 0.98821-0.36411 1.7944-1.0922 2.4185-0.78019 0.67614-1.6904 1.0142-2.7306 1.0142-2.8086 0.00001-5.2271-1.2482-7.2555-3.7448-1.6644-2.0284-2.4965-4.5769-2.4965-7.6456-0.00001-1.0402 0.10401-2.7565 0.31207-5.149zm9.752-25.667c-0.62415-1.1442-1.3003-1.9894-2.0284-2.5355-0.72818-0.54606-1.5083-0.81912-2.3405-0.81917-3.9528 0.00005-8.2437 3.4588-12.873 10.376-5.097 7.6456-7.6456 14.121-7.6456 19.426 0 1.3003 0.24705 2.2885 0.74115 2.9646 0.4941 0.67615 1.2352 1.0142 2.2235 1.0142 2.4965 0.00002 5.4091-2.6525 8.7378-7.9576 1.8724-2.9126 4.1868-7.2034 6.9434-12.873 1.8203-3.6927 3.1466-6.1372 3.9788-7.3335 0.41606-0.62408 1.1702-1.3782 2.2625-2.2625z"/>
        <path id="path4223" d="m553.5 799.39c-3.3807 5.2531-6.5014 11.13-9.3619 17.632-4.1088 9.2579-6.1633 16.175-6.1633 20.752-0.00001 1.3003 0.27305 2.2885 0.81917 2.9646 0.5461 0.67615 1.3653 1.0142 2.4575 1.0142 2.6005 0.00002 5.7472-2.4445 9.4399-7.3335 2.3405-3.0166 4.4209-6.0332 6.2413-9.0498 0.98817-1.7163 2.0544-2.5745 3.1986-2.5745 0.67611 0.00004 1.2482 0.23408 1.7164 0.70215 0.41605 0.46813 0.62409 0.93622 0.62412 1.4043-0.00003 1.9244-2.5225 6.2153-7.5676 12.873-6.0332 8.0096-11.546 12.014-16.539 12.014-2.6526 0-4.863-1.2222-6.6314-3.6668-1.0922-1.5603-1.6383-3.7708-1.6383-6.6314 0-6.2933 1.8204-13.627 5.4611-22 0.88417-2.0804 3.3287-7.0994 7.3335-15.057-1.4043 0.36413-2.4705 0.54616-3.1987 0.54611-1.0922 0.00005-2.0544-0.26-2.8866-0.78016-1.1442-0.72809-1.7164-1.6383-1.7164-2.7306 0-1.3002 0.75415-2.3404 2.2625-3.1206 0.41608-0.20798 2.3405-0.54605 5.7732-1.0142 1.2482-0.20799 3.0686-0.70209 5.4611-1.4823 1.8204-3.2766 4.785-7.7235 8.8938-13.341 2.2884-3.1206 3.8748-5.149 4.759-6.0852 1.2482-1.3002 2.3404-1.9503 3.2767-1.9504 0.6761 0.00008 1.3522 0.36416 2.0284 1.0922 0.62409 0.67622 0.93615 1.3524 0.93619 2.0284-0.00004 1.3524-1.4563 4.0309-4.3689 8.0356-1.9244 2.6006-3.3547 4.707-4.2909 6.3193 5.7732-1.5602 9.908-2.3404 12.405-2.3405 2.8605 0.00006 4.2908 1.1963 4.2909 3.5887-0.00005 1.1963-0.49415 2.0805-1.4823 2.6525-0.52015 0.31213-1.8724 0.57218-4.0568 0.78016-0.88422-0.052-4.811 0.93625-11.78 2.9646-1.9244 0.57217-3.8228 1.1703-5.6952 1.7944z"/>
        <path id="path4225" d="m570.04 834.66v1.4043c-0.00001 1.1442 0.28605 2.1324 0.85817 2.9646 1.3003 1.9244 3.4327 2.8866 6.3973 2.8866 6.5013 0.00002 14.017-4.993 22.547-14.979 1.5083-1.7163 2.7825-2.5745 3.8228-2.5745 0.57208 0.00003 1.0922 0.28609 1.5603 0.85818 0.31203 0.41611 0.46806 0.80619 0.4681 1.1702-0.00004 2.0284-2.4966 5.4611-7.4895 10.298-3.9008 3.7968-8.0617 6.8914-12.483 9.2839-4.4209 2.3925-8.5298 3.5887-12.327 3.5887-3.9008 0-6.9694-1.3523-9.2059-4.0568-1.5083-1.8724-2.2625-4.4209-2.2625-7.6456 0-8.7898 4.1348-17.398 12.405-25.823 6.7094-6.8654 12.561-10.298 17.554-10.298 1.3522 0.00006 2.5745 0.41614 3.6668 1.2483 1.3522 1.0923 2.0284 2.5226 2.0284 4.2909-0.00003 2.7566-1.2743 6.1373-3.8228 10.142-5.2531 8.3217-13.159 14.069-23.717 17.242zm1.7164-6.0852c3.6407-1.2482 6.5013-2.6525 8.5818-4.2129 3.6407-2.8085 6.5273-5.9812 8.6598-9.5179 0.78014-1.2482 1.1702-2.3664 1.1702-3.3547-0.00002-1.0402-0.49412-1.5603-1.4823-1.5603-1.3523 0.00005-3.2767 1.0142-5.7732 3.0426-4.4729 3.5888-8.1917 8.7898-11.156 15.603z"/>
      </g>
    </g>
  </g>
  <metadata>
    <rdf:RDF>
      <cc:Work>
        <dc:format>image/svg+xml</dc:format>
        <dc:type rdf:resource="http://purl.org/dc/dcmitype/StillImage"/>
        <cc:license rdf:resource="http://creativecommons.org/licenses/publicdomain/"/>
        <dc:publisher>
          <cc:Agent rdf:about="http://openclipart.org/">
            <dc:title>Openclipart</dc:title>
          </cc:Agent>
        </dc:publisher>
        <dc:title>Graduate 2</dc:title>
        <dc:date>2010-08-02T22:15:55</dc:date>
        <dc:description>Graduate 2</dc:description>
        <dc:source>http://openclipart.org/detail/76375/graduate-2-by-inky2010</dc:source>
        <dc:creator>
          <cc:Agent>
            <dc:title>inky2010</dc:title>
          </cc:Agent>
        </dc:creator>
        <dc:subject>
          <rdf:Bag>
            <rdf:li>Graduate</rdf:li>
            <rdf:li>clip art</rdf:li>
            <rdf:li>clipart</rdf:li>
            <rdf:li>gloss</rdf:li>
            <rdf:li>glossy</rdf:li>
            <rdf:li>icon</rdf:li>
            <rdf:li>inky2010</rdf:li>
            <rdf:li>school</rdf:li>
          </rdf:Bag>
        </dc:subject>
      </cc:Work>
      <cc:License rdf:about="http://creativecommons.org/licenses/publicdomain/">
        <cc:permits rdf:resource="http://creativecommons.org/ns#Reproduction"/>
        <cc:permits rdf:resource="http://creativecommons.org/ns#Distribution"/>
        <cc:permits rdf:resource="http://creativecommons.org/ns#DerivativeWorks"/>
      </cc:License>
    </rdf:RDF>
  </metadata>
</svg>
