<?xml version="1.0"?>
<svg xmlns:rdf="http://www.w3.org/1999/02/22-rdf-syntax-ns#" xmlns="http://www.w3.org/2000/svg" xmlns:cc="http://creativecommons.org/ns#" xmlns:xlink="http://www.w3.org/1999/xlink" xmlns:dc="http://purl.org/dc/elements/1.1/" xmlns:svg="http://www.w3.org/2000/svg" id="svg3055" viewBox="0 0 250 400" version="1.1">
  <defs id="defs3059">
    <linearGradient id="linearGradient5836" x1="325.08" gradientUnits="userSpaceOnUse" y1="656.27" gradientTransform="matrix(.12309 0 0 .12309 26.427 705.99)" x2="898.94" y2="982.88">
      <stop id="stop5742-2" stop-color="#666" offset="0"/>
      <stop id="stop5744-7" stop-color="#666" stop-opacity="0" offset="1"/>
    </linearGradient>
    <linearGradient id="linearGradient5838" x1="57.595" gradientUnits="userSpaceOnUse" y1="473.85" gradientTransform="matrix(.12309 0 0 .12309 26.427 705.99)" x2="331.97" y2="658.52">
      <stop id="stop5734-6" stop-color="#fff" offset="0"/>
      <stop id="stop5736-5" stop-color="#fff" stop-opacity="0" offset="1"/>
    </linearGradient>
    <linearGradient id="linearGradient5847" x1="325.08" gradientUnits="userSpaceOnUse" y1="656.27" gradientTransform="matrix(.12309 0 0 .12309 26.733 705.89)" x2="898.94" y2="982.88">
      <stop id="stop5742" stop-color="#666" offset="0"/>
      <stop id="stop5744" stop-color="#666" stop-opacity="0" offset="1"/>
    </linearGradient>
    <linearGradient id="linearGradient5849" x1="57.595" gradientUnits="userSpaceOnUse" y1="473.85" gradientTransform="matrix(.12309 0 0 .12309 26.733 705.89)" x2="331.97" y2="658.52">
      <stop id="stop5734" stop-color="#fff" offset="0"/>
      <stop id="stop5736" stop-color="#fff" stop-opacity="0" offset="1"/>
    </linearGradient>
    <linearGradient id="linearGradient5854" x1="40.198" gradientUnits="userSpaceOnUse" y1="42.654" gradientTransform="matrix(.12309 0 0 .12262 26.409 705.79)" x2="974.69" y2="1334.5">
      <stop id="stop5593-4" stop-color="#fff" offset="0"/>
      <stop id="stop5595-9" stop-color="#fff" stop-opacity="0" offset="1"/>
    </linearGradient>
    <linearGradient id="linearGradient5861" x1="40.198" gradientUnits="userSpaceOnUse" y1="42.654" gradientTransform="matrix(.12309 0 0 .12309 26.733 705.89)" x2="974.69" y2="1334.5">
      <stop id="stop5593" stop-color="#ccc" offset="0"/>
      <stop id="stop5595" stop-color="#ccc" stop-opacity="0" offset="1"/>
    </linearGradient>
    <linearGradient id="linearGradient5863" x1="61.782" gradientUnits="userSpaceOnUse" y1="12.437" gradientTransform="matrix(.12309 0 0 .12309 26.733 705.89)" x2="1059.9" y2="1211.4">
      <stop id="stop5585" offset="0"/>
      <stop id="stop5587" stop-opacity="0" offset="1"/>
    </linearGradient>
  </defs>
  <path id="rect3959" opacity=".32547" stroke-linejoin="round" d="m1153.8 161.9 110.67 19.452-10.362 58.956-101.5-20.531z" stroke="#fff" stroke-linecap="round" stroke-width="4.1159" fill="#ccc"/>
  <g id="g5869" transform="matrix(3.466 0 0 3.466 -73.232 -2401.7)">
    <path id="rect3065-2" stroke-linejoin="round" d="m55.634 705.17c12.617 0.50957 22.618-2.0338 24.863 8.5686v79.264c0 11.302-18.672 11.732-24.863 11.784-8.6492 0.0235-24.957-2.9781-24.957-11.784v-79.264c2.9705-10.455 11.647-8.0591 24.957-8.5686z" stroke="url(#linearGradient5863)" stroke-linecap="round" stroke-width=".38301" fill="url(#linearGradient5861)"/>
    <path id="rect3065" stroke-linejoin="round" d="m55.56 706.12c12.089 0.49945 21.67-1.9935 23.821 8.3986v77.691c0 11.078-17.89 11.5-23.821 11.55-8.2868 0.023-23.912-2.919-23.912-11.55v-77.691c2.8461-10.248 11.159-7.8991 23.912-8.3986z" stroke="#000" stroke-linecap="round" stroke-width=".37116" fill="#2f2f31"/>
    <path id="rect3065-1" opacity=".2" stroke-linejoin="round" d="m55.261 780.88c12.09 0.49131 5.723 2.1677 19.81-1.2346l-0.15164 7.1372c-0.25676 12.085-7.3389 13.261-19.38 13.46-10.921-0.44232-19.533-0.90112-19.277-13.24 0.0215-1.0356-0.20108-4.8494-0.1099-7.4936 13.434 2.6587 8.072 2.1484 19.109 1.3709z" stroke-opacity=".94118" stroke="#000" stroke-linecap="round" stroke-width=".36813" fill="#666"/>
    <rect id="rect3957" opacity=".32547" rx="1.2539" height="1.9697" width="10.937" stroke="#fff" stroke-linecap="round" y="706.1" x="49.583" stroke-width=".73803" fill="#ccc"/>
    <rect id="rect3869" height="58.451" width="38.923" y="716.15" x="36.165" fill="#58595b"/>
    <path id="rect3065-2-1" opacity=".3" fill="url(#linearGradient5854)" d="m55.311 705.07c12.617 0.50761 22.618-2.026 24.863 8.5358v78.961c0 11.259-18.672 11.687-24.863 11.739-8.6491 0.0234-24.957-2.9667-24.957-11.739v-78.961c2.9705-10.415 11.647-8.0282 24.957-8.5358z"/>
    <path id="rect5651" stroke-linejoin="round" d="m44.275 781.52c3.4234-0.59753 6.5319-0.84942 11.483-0.77496 2.7034 0.0557 4.3515-0.019 11.53 0.77496-0.54664 2.461-0.77827 4.397-1.8317 7.7026-1.5375 4.1035-6.1675 3.8444-9.5344 3.9452-8.2406 0.13795-9.4624-1.6626-10.45-5.8709z" stroke="url(#linearGradient5849)" stroke-linecap="round" stroke-width=".61547" fill="url(#linearGradient5847)"/>
    <path id="path5684" opacity=".7" fill="#e6e6e6" d="m39.069 792.64 0.46967-1.3386 5.8709 1.0333 0.02348 1.5264-1.0098-0.0704-0.09393-0.93934-4.0862-0.77496-0.2818 0.89237z"/>
    <path id="path5684-0" opacity=".7" fill="#e6e6e6" d="m72.956 792.46-0.46967-1.3386-5.8709 1.0333-0.02348 1.5264 1.0098-0.0704 0.09393-0.93935 4.0862-0.77496 0.2818 0.89238z"/>
    <path id="path5684-1" opacity=".7" fill="#e6e6e6" d="m43.731 784.5-0.46967 1.3386-5.8709-1.0333-0.02348-1.5264 1.0098 0.0705 0.09393 0.93934 4.0862 0.77496 0.2818-0.89238z"/>
    <g id="g5728" opacity=".7" stroke-linejoin="round" transform="matrix(.12309 0 0 .12309 -33.047 704.83)" stroke="#fff" stroke-linecap="round">
      <path id="path5726" stroke-width="3" fill="none" d="m838.54 636.93c23.775-3.5973 22.339 18.167 2.1584 19.426"/>
      <path id="path5722" d="m843.39 638.01-8.5948-3.6714-8.5948-3.6714 7.4769-5.6077 7.4769-5.6077 1.1179 9.279z" stroke-width="5" fill="#fff" transform="matrix(.65955 0 0 .65955 282.58 222.45)"/>
    </g>
    <path id="rect5651-2" opacity=".7" stroke-linejoin="round" d="m43.97 781.62c3.4234-0.59752 6.5319-0.84941 11.483-0.77496 2.7034 0.0557 4.3515-0.019 11.53 0.77496-0.54664 2.461-0.77827 4.397-1.8317 7.7026-1.5375 4.1035-6.1675 3.8444-9.5344 3.9452-8.2406 0.13795-9.4624-1.6626-10.45-5.8709z" stroke="url(#linearGradient5838)" stroke-linecap="round" stroke-width=".61547" fill="url(#linearGradient5836)"/>
  </g>
  <metadata>
    <rdf:RDF>
      <cc:Work>
        <dc:format>image/svg+xml</dc:format>
        <dc:type rdf:resource="http://purl.org/dc/dcmitype/StillImage"/>
        <cc:license rdf:resource="http://creativecommons.org/licenses/publicdomain/"/>
        <dc:publisher>
          <cc:Agent rdf:about="http://openclipart.org/">
            <dc:title>Openclipart</dc:title>
          </cc:Agent>
        </dc:publisher>
        <dc:title>Android Device</dc:title>
        <dc:date>2011-01-18T17:55:38</dc:date>
        <dc:description>Rough draft of android device</dc:description>
        <dc:source>http://openclipart.org/detail/105409/android-device-by-teamkde</dc:source>
        <dc:creator>
          <cc:Agent>
            <dc:title>teamkde</dc:title>
          </cc:Agent>
        </dc:creator>
        <dc:subject>
          <rdf:Bag>
            <rdf:li>android</rdf:li>
            <rdf:li>android device</rdf:li>
            <rdf:li>android handset</rdf:li>
            <rdf:li>clip art</rdf:li>
            <rdf:li>clipart</rdf:li>
            <rdf:li>mobile handset</rdf:li>
            <rdf:li>mobile phone</rdf:li>
            <rdf:li>smart phone</rdf:li>
            <rdf:li>smartphone</rdf:li>
          </rdf:Bag>
        </dc:subject>
      </cc:Work>
      <cc:License rdf:about="http://creativecommons.org/licenses/publicdomain/">
        <cc:permits rdf:resource="http://creativecommons.org/ns#Reproduction"/>
        <cc:permits rdf:resource="http://creativecommons.org/ns#Distribution"/>
        <cc:permits rdf:resource="http://creativecommons.org/ns#DerivativeWorks"/>
      </cc:License>
    </rdf:RDF>
  </metadata>
</svg>
