<?xml version="1.0" encoding="UTF-8" standalone="no"?>
<!--part of the rodentia icon theme by sixsixfive released under CC0 (https://creativecommons.org/publicdomain/zero/1.0/) on openclipart-->
<svg xmlns="http://www.w3.org/2000/svg" xmlns:xlink="http://www.w3.org/1999/xlink" viewBox="0 0 48 48">
 <defs id="0">
  <linearGradient id="6">
   <stop id="I" stop-color="#fff"/>
   <stop id="J" offset="1" stop-color="#fff" stop-opacity="0"/>
  </linearGradient>
  <linearGradient id="7">
   <stop id="K" stop-color="#fff" stop-opacity="0.8"/>
   <stop id="L" offset="1" stop-color="#fff" stop-opacity="0"/>
  </linearGradient>
  <linearGradient id="8">
   <stop id="M" stop-color="#2e3436"/>
   <stop id="N" offset="1" stop-color="#2e3436" stop-opacity="0"/>
  </linearGradient>
  <radialGradient cx="46.37" cy="56.54" r="27.457" id="9" xlink:href="#8" gradientUnits="userSpaceOnUse" gradientTransform="matrix(1,0,0,0.1371237,0,48.787205)"/>
  <linearGradient y1="5.353" x2="0" y2="42.619" id="A" xlink:href="#7" gradientUnits="userSpaceOnUse"/>
  <linearGradient x1="-3.655" y1="-42.14" x2="23.875" y2="28.921" id="B" xlink:href="#6" gradientUnits="userSpaceOnUse"/>
  <radialGradient cx="24.377" cy="45.941" r="23.08" id="C" xlink:href="#8" gradientUnits="userSpaceOnUse" gradientTransform="matrix(1,0,0,0.1455399,0,39.255173)"/>
  <linearGradient x1="4.094" y1="-58.01" x2="15.298" y2="33.906" id="D" xlink:href="#F" gradientUnits="userSpaceOnUse" gradientTransform="translate(0.7063923,-1.4999995)"/>
  <linearGradient y1="4.219" x2="0" y2="43.781" id="E" xlink:href="#7" gradientUnits="userSpaceOnUse"/>
  <linearGradient id="F">
   <stop id="O" stop-color="#eeeeec"/>
   <stop id="P" offset="1" stop-color="#eeeeec" stop-opacity="0"/>
  </linearGradient>
 </defs>
 <path d="m 73.831503,56.540211 a 27.457239,3.7650394 0 1 1 -54.914478,0 27.457239,3.7650394 0 1 1 54.914478,0 z" transform="matrix(0.8607554,0,0,0.837344,-15.916898,-4.1187776)" id="1" opacity="0.8" fill="url(#9)"/>
 <path d="m 23.745885,4.8366182 c -8.802495,0.2375247 -10.458576,6.7343608 -9.9886,11.6217548 0.07298,0.759003 0.419647,1.45117 0.969359,2.065153 0.05164,-0.481788 0.12211,-0.955708 0.221266,-1.422426 -0.03689,0.4142 -0.05268,0.838085 -0.05268,1.264379 0,3.935025 1.61426,7.411391 4.067087,9.461775 -0.163396,0.961944 -0.531105,1.783069 -1.074723,2.781635 L 8.6997677,32.579213 C 4.2458962,33.609558 3.9089135,39.951429 4.2112201,43.168393 43.88856,43.055802 4.1345553,43.234679 43.870593,43.0841 43.734607,39.567206 43.237712,33.315864 38.70771,32.347411 L 30.004563,30.69318 c -6.6e-4,-0.0281 0.002,-0.05618 0,-0.08429 l -0.537361,-2.960756 c 2.339084,-2.069434 3.866895,-5.456647 3.866894,-9.282654 0,-0.03864 3.11e-4,-0.07736 0,-0.115901 0.03777,0.192801 0.07538,0.383427 0.105366,0.547897 0.498845,-0.67264 0.381843,-1.824112 0.516288,-2.728952 0.699546,-4.708055 -1.951521,-11.0931996 -9.3248,-11.2319048 -0.298997,-0.00562 -0.601105,-0.00766 -0.885065,0 z" id="2" fill="#555753" fill-rule="evenodd" stroke="#323232" stroke-width="1.042"/>
 <path d="m 23.78125,5.875 c -4.145538,0.1118622 -6.347373,1.6089948 -7.625,3.59375 -1.22166,1.897812 -1.540263,4.384838 -1.375,6.59375 0.315181,-0.04369 0.633133,0.05826 0.864128,0.277101 0.230994,0.218837 0.349978,0.530818 0.323372,0.847899 -0.03023,0.339413 0,0.751967 0,1.1875 0,3.649433 1.474225,6.800987 3.65625,8.625 0.29833,0.239773 0.44211,0.623187 0.375,1 -0.192613,1.133951 -0.659641,2.066728 -1.21875,3.09375 -0.141443,0.268269 -0.392227,0.462056 -0.6875,0.53125 l -9.1875,2 c -1.7745211,0.410513 -2.6766636,1.807072 -3.21875,3.71875 -0.4455205,1.571137 -0.4984358,3.30909 -0.4375,4.75 12.500668,0.01464 24.999191,-0.01402 37.5,-0.0625 -0.09526,-1.572458 -0.287738,-3.356234 -0.8125,-4.9375 C 41.292687,35.150733 40.321102,33.764327 38.5,33.375 l -8.6875,-1.65625 c -0.458981,-0.08914 -0.803287,-0.471698 -0.84375,-0.9375 -0.01111,-0.02048 -0.02153,-0.04133 -0.03125,-0.0625 -0.0011,-0.04656 3.67e-4,-0.01517 0,-0.03125 l -0.5,-2.84375 c -0.06266,-0.360806 0.06768,-0.728136 0.34375,-0.96875 2.084914,-1.844563 3.500001,-4.954264 3.5,-8.5 10e-7,-0.04422 2.09e-4,-0.09906 0,-0.125 0.0018,-0.375471 0.204523,-0.721233 0.53125,-0.90625 0.04124,-0.412683 0.04587,-0.904925 0.125,-1.4375 0.311211,-2.0945 -0.137889,-4.613833 -1.46875,-6.5625 C 30.137889,7.3950828 27.981251,5.9699752 24.59375,5.90625 24.302819,5.90078 24.040853,5.867995 23.78125,5.875 z" id="3" opacity="0.8" fill="none" stroke="url(#A)" stroke-width="1.042"/>
 <path d="m 23.75,5.34375 c -4.279827,0.1154859 -6.68992,1.7114873 -8.0625,3.84375 -1.37258,2.132263 -1.665114,4.851739 -1.4375,7.21875 0.02159,0.224531 0.110797,0.443755 0.1875,0.65625 0.0042,-0.02047 -0.0043,-0.04208 0,-0.0625 0.03452,-0.276142 0.286358,-0.472018 0.5625,-0.4375 0.276142,0.03452 0.472018,0.286358 0.4375,0.5625 -0.03373,0.378688 -0.03125,0.819319 -0.03125,1.25 0,2.849561 0.86456,5.44344 2.28125,7.375 4.794221,-2.62034 9.862678,-5.232077 15.15625,-7.28125 2.17e-4,-0.03134 0,-0.06234 0,-0.09375 10e-7,-0.04128 2.63e-4,-0.09244 0,-0.125 -0.0054,-0.243706 0.166594,-0.455421 0.40625,-0.5 0.02067,-0.109172 0.08035,-0.15874 0.09375,-0.28125 0.05011,-0.457953 0.0505,-0.967353 0.125,-1.46875 0.331462,-2.230794 -0.14191,-4.8887 -1.5625,-6.96875 C 30.48566,6.9512002 28.169597,5.4104305 24.625,5.34375 24.329833,5.3382 24.022394,5.3364 23.75,5.34375 z" id="4" fill="url(#B)" fill-rule="evenodd"/>
 <g transform="matrix(0.6716667,0,0,0.6716667,16.379998,16.767499)" id="5">
  <path d="m 47.453955,45.941494 a 23.076923,3.3586134 0 1 1 -46.153847,0 23.076923,3.3586134 0 1 1 46.153847,0 z" transform="translate(-0.3770313,-2.8001078)" id="G" opacity="0.8" fill="url(#C)"/>
  <g transform="translate(-0.7063923,0)" id="H">
   <rect width="42" height="42" x="3.706" y="1.5" id="Q" fill="#445800" rx="6"/>
   <path d="M 9,4.09375 C 6.2608771,4.09375 4.09375,6.2608771 4.09375,9 l 0,30 c 0,2.739123 2.1671271,4.90625 4.90625,4.90625 l 30,0 c 2.739123,0 4.90625,-2.167127 4.90625,-4.90625 l 0,-30 C 43.90625,6.2608771 41.739123,4.09375 39,4.09375 l -30,0 z" transform="translate(0.7063923,-1.4999995)" id="R" fill="#8bb300"/>
   <path d="m 20.1875,9.3125 c -0.140663,-0.00164 -0.27553,0.05678 -0.375,0.15625 -0.09947,0.09947 -0.157892,0.2343372 -0.15625,0.375 l 0,7.59375 -7.59375,0 c -0.01853,-9.88e-4 -0.04397,-9.88e-4 -0.0625,0 -0.271359,0.02583 -0.473139,0.2587 -0.46875,0.53125 l 0,9.0625 c -0.0016,0.140662 0.05678,0.27553 0.15625,0.375 0.09947,0.09947 0.234337,0.157892 0.375,0.15625 l 7.59375,0 0,7.59375 c -0.0016,0.140664 0.05678,0.27553 0.15625,0.375 0.09947,0.09947 0.234337,0.157892 0.375,0.15625 l 9.0625,0 c 0.140663,0.0016 0.27553,-0.05678 0.375,-0.15625 0.09947,-0.09947 0.157892,-0.234337 0.15625,-0.375 l 0,-7.59375 7.59375,0 c 0.140664,0.0016 0.27553,-0.05678 0.375,-0.15625 0.09947,-0.09947 0.157892,-0.234337 0.15625,-0.375 l 0,-9.0625 c 0.0016,-0.140662 -0.05678,-0.27553 -0.15625,-0.375 -0.09947,-0.09947 -0.234337,-0.157892 -0.375,-0.15625 l -7.59375,0 0,-7.59375 c 9.87e-4,-0.01853 9.88e-4,-0.043969 0,-0.0625 C 29.755421,9.5098908 29.52255,9.3081112 29.25,9.3125 l -9.0625,0 z" id="S" fill="#638000"/>
   <path d="m 20.8125,10.4375 0,8.15625 -8.15625,0 0,7.8125 8.15625,0 0,8.125 7.8125,0 0,-8.125 8.125,0 0,-7.8125 -8.125,0 0,-8.15625 -7.8125,0 z" id="T" fill="#eeeeec"/>
   <path d="M 9,4.71875 C 6.5943852,4.71875 4.71875,6.5943852 4.71875,9 l 0,30 c 0,2.405615 1.8756352,4.28125 4.28125,4.28125 l 30,0 c 2.405615,0 4.28125,-1.875635 4.28125,-4.28125 l 0,-30 C 43.28125,6.5943852 41.405615,4.71875 39,4.71875 l -30,0 z" transform="translate(0.7063923,-1.4999995)" id="U" opacity="0.8" fill="none" stroke="url(#E)" stroke-linecap="round" stroke-dashoffset="30"/>
   <path d="m 9.7063923,2.5937505 c -2.7391229,0 -4.90625,2.1671271 -4.90625,4.90625 l 0,17.1562505 C 16.88535,19.523108 30.480987,15.086728 44.612642,12.125001 l 0,-4.6250005 c 0,-2.7391229 -2.167127,-4.90625 -4.90625,-4.90625 l -29.9999997,0 0,0 z" id="V" opacity="0.6" fill="url(#D)"/>
  </g>
 </g>
</svg>
