<?xml version="1.0" encoding="UTF-8" standalone="no"?>
<!-- Created with Inkscape (http://www.inkscape.org/) -->

<svg
   xmlns:dc="http://purl.org/dc/elements/1.1/"
   xmlns:cc="http://creativecommons.org/ns#"
   xmlns:rdf="http://www.w3.org/1999/02/22-rdf-syntax-ns#"
   xmlns:svg="http://www.w3.org/2000/svg"
   xmlns="http://www.w3.org/2000/svg"
   xmlns:sodipodi="http://sodipodi.sourceforge.net/DTD/sodipodi-0.dtd"
   xmlns:inkscape="http://www.inkscape.org/namespaces/inkscape"
   width="720"
   height="480"
   viewBox="0 0 190.5 127"
   version="1.1"
   id="svg8"
   inkscape:version="0.92.2 (5c3e80d, 2017-08-06)"
   sodipodi:docname="bike-mountain-ride.svg">
  <sodipodi:namedview
     id="base"
     pagecolor="#ffffff"
     bordercolor="#666666"
     borderopacity="1.0"
     inkscape:pageopacity="0.0"
     inkscape:pageshadow="2"
     inkscape:zoom="0.98994949"
     inkscape:cx="393.94292"
     inkscape:cy="183.68923"
     inkscape:document-units="mm"
     inkscape:current-layer="layer1"
     showgrid="false"
     units="px"
     inkscape:window-width="1366"
     inkscape:window-height="705"
     inkscape:window-x="-8"
     inkscape:window-y="-8"
     inkscape:window-maximized="1"
     inkscape:snap-global="false" />
  <defs
     id="defs2" />
  <metadata
     id="metadata5">
    <rdf:RDF>
      <cc:Work
         rdf:about="">
        <dc:format>image/svg+xml</dc:format>
        <dc:type
           rdf:resource="http://purl.org/dc/dcmitype/StillImage" />
        <dc:title></dc:title>
      </cc:Work>
    </rdf:RDF>
  </metadata>
  <g
     inkscape:label="Layer 1"
     inkscape:groupmode="layer"
     id="layer1"
     transform="translate(0,-169.99998)">
    <g
       id="g1270"
       transform="translate(113.66406)">
      <path
         inkscape:connector-curvature="0"
         id="path1264"
         d="m 37.686596,233.10062 -0.394215,1.55455 -0.0021,0.0277 a 27.696539,27.696539 0 0 0 -2.395723,0.22652 l -0.01084,-0.044 -0.658603,-1.46192 -1.602557,0.28265 -0.119012,1.59918 0.0047,0.046 a 27.696539,27.696539 0 0 0 -2.322019,0.61871 l -0.01759,-0.0392 -0.902707,-1.32532 -1.529531,0.5565 0.160934,1.59579 0.0095,0.0338 a 27.696539,27.696539 0 0 0 -2.187459,1.00684 l -0.01285,-0.0189 -1.119085,-1.14884 -1.409848,0.81413 0.435466,1.54305 0.0068,0.0149 a 27.696539,27.696539 0 0 0 -1.965672,1.39362 l -0.02095,-0.0216 -1.301658,-0.93719 -1.246884,1.04606 0.696471,1.44433 0.02368,0.0331 a 27.696539,27.696539 0 0 0 -1.695198,1.70263 l -0.03719,-0.0264 -1.44433,-0.69647 -1.046735,1.24689 0.937192,1.30166 0.03313,0.0318 a 27.696539,27.696539 0 0 0 -1.38212,1.96634 l -0.03787,-0.0182 -1.543054,-0.43547 -0.814126,1.40985 1.148839,1.11909 0.02773,0.0189 a 27.696539,27.696539 0 0 0 -1.029151,2.17664 l -0.02029,-0.005 -1.59512,-0.16025 -0.557175,1.52953 1.326,0.90271 0.01624,0.007 a 27.696539,27.696539 0 0 0 -0.610595,2.33081 l -0.03178,-0.003 -1.5991772,0.11833 -0.2826467,1.60323 1.4625889,0.65861 0.0399,0.0101 a 27.696539,27.696539 0 0 0 -0.204886,2.39437 l -0.04598,0.003 -1.5545518,0.39489 v 1.62758 l 1.5545518,0.39489 0.02839,0.002 a 27.696539,27.696539 0 0 0 0.225844,2.39505 l -0.04328,0.0108 -1.4625882,0.65861 0.2826466,1.60323 1.5991776,0.11901 0.04666,-0.005 a 27.696539,27.696539 0 0 0 0.61871,2.32202 l -0.03922,0.0176 -1.326,0.90203 0.557175,1.53021 1.59512,-0.16093 0.03448,-0.0102 a 27.696539,27.696539 0 0 0 1.006163,2.18814 l -0.01894,0.0129 -1.148839,1.11908 0.814126,1.40917 1.543054,-0.43479 0.01489,-0.007 a 27.696539,27.696539 0 0 0 1.393617,1.96567 l -0.02164,0.0216 -0.937192,1.30165 1.046736,1.24689 1.444329,-0.69715 0.03244,-0.023 a 27.696539,27.696539 0 0 0 1.702635,1.69588 l -0.02638,0.0365 -0.696471,1.44433 1.246884,1.04674 1.301658,-0.93719 0.03178,-0.0331 a 27.696539,27.696539 0 0 0 1.966347,1.38145 l -0.01825,0.0379 -0.435466,1.54373 1.409847,0.81412 1.119086,-1.14884 0.01959,-0.0284 a 27.696539,27.696539 0 0 0 2.176641,1.02983 l -0.0054,0.0196 -0.160934,1.5958 1.529531,0.55717 0.902706,-1.326 0.0074,-0.0169 a 27.696539,27.696539 0 0 0 2.330809,0.61059 l -0.0035,0.0318 0.119012,1.59919 1.602557,0.28264 0.658603,-1.46192 0.01014,-0.0399 a 27.696539,27.696539 0 0 0 2.395049,0.20489 l 0.0035,0.046 0.394215,1.55387 h 1.628252 l 0.394215,-1.55387 0.0021,-0.0284 a 27.696539,27.696539 0 0 0 2.395727,-0.22585 l 0.0108,0.0433 0.657928,1.46191 1.603235,-0.28264 0.119008,-1.59919 -0.0047,-0.046 a 27.696539,27.696539 0 0 0 2.322023,-0.6187 l 0.01759,0.0392 0.902707,1.326 1.529531,-0.55717 -0.160934,-1.5958 -0.0095,-0.0338 a 27.696539,27.696539 0 0 0 2.187459,-1.00616 l 0.01284,0.0189 1.119085,1.14884 1.409848,-0.81412 -0.435466,-1.54373 -0.0068,-0.0149 a 27.696539,27.696539 0 0 0 1.964994,-1.39362 l 0.02164,0.0223 1.301657,0.93719 1.246885,-1.04673 -0.696471,-1.44433 -0.02368,-0.0324 a 27.696539,27.696539 0 0 0 1.695873,-1.70331 l 0.03652,0.0264 1.444329,0.69714 1.046736,-1.24688 -0.937192,-1.30166 -0.03313,-0.0318 a 27.696539,27.696539 0 0 0 1.381444,-1.96635 l 0.03854,0.0182 1.543054,0.43479 0.814126,-1.40917 -1.148839,-1.11909 -0.02839,-0.0189 a 27.696539,27.696539 0 0 0 1.02983,-2.17731 l 0.02029,0.005 1.59512,0.16093 0.557175,-1.53021 -1.325996,-0.90202 -0.0169,-0.007 a 27.696539,27.696539 0 0 0 0.610594,-2.33081 l 0.03244,0.003 1.599177,-0.119 0.282647,-1.60324 -1.462589,-0.6586 -0.0399,-0.0102 a 27.696539,27.696539 0 0 0 0.204886,-2.39437 l 0.04598,-0.003 1.554552,-0.39489 v -1.62758 l -1.554552,-0.39489 -0.02839,-0.002 a 27.696539,27.696539 0 0 0 -0.225844,-2.39504 l 0.04328,-0.0108 1.462588,-0.6586 -0.282646,-1.60323 -1.599178,-0.11834 -0.04666,0.005 a 27.696539,27.696539 0 0 0 -0.61871,-2.32203 l 0.03922,-0.0176 1.325996,-0.90271 -0.557175,-1.52953 -1.59512,0.16025 -0.03448,0.0102 a 27.696539,27.696539 0 0 0 -1.006163,-2.18746 l 0.01894,-0.0129 1.148839,-1.11908 -0.814126,-1.40985 -1.543054,0.43547 -0.01489,0.007 A 27.696539,27.696539 0 0 0 60.461096,245.491 l 0.02164,-0.0209 0.937192,-1.30166 -1.046736,-1.24688 -1.444329,0.69647 -0.03244,0.0237 a 27.696539,27.696539 0 0 0 -1.70331,-1.69587 l 0.02704,-0.0372 0.696471,-1.44434 -1.246884,-1.04605 -1.301658,0.93719 -0.03178,0.0331 a 27.696539,27.696539 0 0 0 -1.966347,-1.38212 l 0.01825,-0.0379 0.435466,-1.54305 -1.409848,-0.81413 -1.119085,1.14884 -0.01894,0.0277 a 27.696539,27.696539 0 0 0 -2.177315,-1.02983 l 0.0054,-0.0196 0.160934,-1.59579 -1.529531,-0.5565 -0.902707,1.32532 -0.0074,0.0169 a 27.696539,27.696539 0 0 0 -2.330785,-0.61001 l 0.0035,-0.0324 -0.119009,-1.59918 -1.603235,-0.28264 -0.657928,1.46191 -0.01014,0.0399 a 27.696539,27.696539 0 0 0 -2.395048,-0.20488 l -0.0035,-0.0453 -0.394215,-1.55456 z"
         style="fill:none;stroke:#404040;stroke-width:0.5291667;stroke-miterlimit:4;stroke-dasharray:none" />
      <path
         sodipodi:type="star"
         style="opacity:1;fill:#404040;fill-opacity:1;stroke:none;stroke-width:1.36407721;stroke-miterlimit:4;stroke-dasharray:none;stroke-opacity:1"
         id="path1266"
         sodipodi:sides="18"
         sodipodi:cx="38.565655"
         sodipodi:cy="262.29755"
         sodipodi:r1="21.800539"
         sodipodi:r2="0.33374521"
         sodipodi:arg1="0.5485494"
         sodipodi:arg2="0.57340559"
         inkscape:flatsided="false"
         inkscape:rounded="0"
         inkscape:randomized="0"
         d="M 57.167659,273.66544 38.84602,262.4786 l 13.311753,16.86353 -13.390586,-16.77856 6.74129,20.39942 -6.84443,-20.34653 -0.642273,21.47484 0.527265,-21.46042 -7.948368,19.96008 7.835364,-19.98587 -14.295772,16.03784 14.198402,-16.10072 -18.918895,10.1812 18.848903,-10.27359 -21.26012,3.09655 21.225949,-3.2073 -21.037061,-4.36159 21.042832,4.24582 -18.276622,-11.29364 18.321638,11.18683 -13.311752,-16.86353 13.390585,16.77856 -6.741289,-20.39942 6.84443,20.34653 0.642272,-21.47484 -0.527264,21.46043 7.948367,-19.96008 -7.835363,19.98586 14.295771,-16.03784 -14.198401,16.10072 18.918894,-10.1812 -18.848903,10.27359 21.26012,-3.09655 -21.225949,3.20731 21.037061,4.36158 -21.042831,-4.24582 z" />
      <circle
         style="opacity:1;fill:none;fill-opacity:1;stroke:#404040;stroke-width:0.37829447;stroke-miterlimit:4;stroke-dasharray:none;stroke-opacity:1"
         id="circle1268"
         cx="38.500664"
         cy="262.33652"
         r="21.590633" />
    </g>
    <g
       id="g1262">
      <path
         style="fill:none;stroke:#404040;stroke-width:0.52916667;stroke-miterlimit:4;stroke-dasharray:none"
         d="m 37.686596,233.10062 -0.394215,1.55455 -0.0021,0.0277 a 27.696539,27.696539 0 0 0 -2.395723,0.22652 l -0.01084,-0.044 -0.658603,-1.46192 -1.602557,0.28265 -0.119012,1.59918 0.0047,0.046 a 27.696539,27.696539 0 0 0 -2.322019,0.61871 l -0.01759,-0.0392 -0.902707,-1.32532 -1.529531,0.5565 0.160934,1.59579 0.0095,0.0338 a 27.696539,27.696539 0 0 0 -2.187459,1.00684 l -0.01285,-0.0189 -1.119085,-1.14884 -1.409848,0.81413 0.435466,1.54305 0.0068,0.0149 a 27.696539,27.696539 0 0 0 -1.965672,1.39362 l -0.02095,-0.0216 -1.301658,-0.93719 -1.246884,1.04606 0.696471,1.44433 0.02368,0.0331 a 27.696539,27.696539 0 0 0 -1.695198,1.70263 l -0.03719,-0.0264 -1.44433,-0.69647 -1.046735,1.24689 0.937192,1.30166 0.03313,0.0318 a 27.696539,27.696539 0 0 0 -1.38212,1.96634 l -0.03787,-0.0182 -1.543054,-0.43547 -0.814126,1.40985 1.148839,1.11909 0.02773,0.0189 a 27.696539,27.696539 0 0 0 -1.029151,2.17664 l -0.02029,-0.005 -1.59512,-0.16025 -0.557175,1.52953 1.326,0.90271 0.01624,0.007 a 27.696539,27.696539 0 0 0 -0.610595,2.33081 l -0.03178,-0.003 -1.5991772,0.11833 -0.2826467,1.60323 1.4625889,0.65861 0.0399,0.0101 a 27.696539,27.696539 0 0 0 -0.204886,2.39437 l -0.04598,0.003 -1.5545518,0.39489 v 1.62758 l 1.5545518,0.39489 0.02839,0.002 a 27.696539,27.696539 0 0 0 0.225844,2.39505 l -0.04328,0.0108 -1.4625882,0.65861 0.2826466,1.60323 1.5991776,0.11901 0.04666,-0.005 a 27.696539,27.696539 0 0 0 0.61871,2.32202 l -0.03922,0.0176 -1.326,0.90203 0.557175,1.53021 1.59512,-0.16093 0.03448,-0.0102 a 27.696539,27.696539 0 0 0 1.006163,2.18814 l -0.01894,0.0129 -1.148839,1.11908 0.814126,1.40917 1.543054,-0.43479 0.01489,-0.007 a 27.696539,27.696539 0 0 0 1.393617,1.96567 l -0.02164,0.0216 -0.937192,1.30165 1.046736,1.24689 1.444329,-0.69715 0.03244,-0.023 a 27.696539,27.696539 0 0 0 1.702635,1.69588 l -0.02638,0.0365 -0.696471,1.44433 1.246884,1.04674 1.301658,-0.93719 0.03178,-0.0331 a 27.696539,27.696539 0 0 0 1.966347,1.38145 l -0.01825,0.0379 -0.435466,1.54373 1.409847,0.81412 1.119086,-1.14884 0.01959,-0.0284 a 27.696539,27.696539 0 0 0 2.176641,1.02983 l -0.0054,0.0196 -0.160934,1.5958 1.529531,0.55717 0.902706,-1.326 0.0074,-0.0169 a 27.696539,27.696539 0 0 0 2.330809,0.61059 l -0.0035,0.0318 0.119012,1.59919 1.602557,0.28264 0.658603,-1.46192 0.01014,-0.0399 a 27.696539,27.696539 0 0 0 2.395049,0.20489 l 0.0035,0.046 0.394215,1.55387 h 1.628252 l 0.394215,-1.55387 0.0021,-0.0284 a 27.696539,27.696539 0 0 0 2.395727,-0.22585 l 0.0108,0.0433 0.657928,1.46191 1.603235,-0.28264 0.119008,-1.59919 -0.0047,-0.046 a 27.696539,27.696539 0 0 0 2.322023,-0.6187 l 0.01759,0.0392 0.902707,1.326 1.529531,-0.55717 -0.160934,-1.5958 -0.0095,-0.0338 a 27.696539,27.696539 0 0 0 2.187459,-1.00616 l 0.01284,0.0189 1.119085,1.14884 1.409848,-0.81412 -0.435466,-1.54373 -0.0068,-0.0149 a 27.696539,27.696539 0 0 0 1.964994,-1.39362 l 0.02164,0.0223 1.301657,0.93719 1.246885,-1.04673 -0.696471,-1.44433 -0.02368,-0.0324 a 27.696539,27.696539 0 0 0 1.695873,-1.70331 l 0.03652,0.0264 1.444329,0.69714 1.046736,-1.24688 -0.937192,-1.30166 -0.03313,-0.0318 a 27.696539,27.696539 0 0 0 1.381444,-1.96635 l 0.03854,0.0182 1.543054,0.43479 0.814126,-1.40917 -1.148839,-1.11909 -0.02839,-0.0189 a 27.696539,27.696539 0 0 0 1.02983,-2.17731 l 0.02029,0.005 1.59512,0.16093 0.557175,-1.53021 -1.325996,-0.90202 -0.0169,-0.007 a 27.696539,27.696539 0 0 0 0.610594,-2.33081 l 0.03244,0.003 1.599177,-0.119 0.282647,-1.60324 -1.462589,-0.6586 -0.0399,-0.0102 a 27.696539,27.696539 0 0 0 0.204886,-2.39437 l 0.04598,-0.003 1.554552,-0.39489 v -1.62758 l -1.554552,-0.39489 -0.02839,-0.002 a 27.696539,27.696539 0 0 0 -0.225844,-2.39504 l 0.04328,-0.0108 1.462588,-0.6586 -0.282646,-1.60323 -1.599178,-0.11834 -0.04666,0.005 a 27.696539,27.696539 0 0 0 -0.61871,-2.32203 l 0.03922,-0.0176 1.325996,-0.90271 -0.557175,-1.52953 -1.59512,0.16025 -0.03448,0.0102 a 27.696539,27.696539 0 0 0 -1.006163,-2.18746 l 0.01894,-0.0129 1.148839,-1.11908 -0.814126,-1.40985 -1.543054,0.43547 -0.01489,0.007 A 27.696539,27.696539 0 0 0 60.461096,245.491 l 0.02164,-0.0209 0.937192,-1.30166 -1.046736,-1.24688 -1.444329,0.69647 -0.03244,0.0237 a 27.696539,27.696539 0 0 0 -1.70331,-1.69587 l 0.02704,-0.0372 0.696471,-1.44434 -1.246884,-1.04605 -1.301658,0.93719 -0.03178,0.0331 a 27.696539,27.696539 0 0 0 -1.966347,-1.38212 l 0.01825,-0.0379 0.435466,-1.54305 -1.409848,-0.81413 -1.119085,1.14884 -0.01894,0.0277 a 27.696539,27.696539 0 0 0 -2.177315,-1.02983 l 0.0054,-0.0196 0.160934,-1.59579 -1.529531,-0.5565 -0.902707,1.32532 -0.0074,0.0169 a 27.696539,27.696539 0 0 0 -2.330785,-0.61001 l 0.0035,-0.0324 -0.119009,-1.59918 -1.603235,-0.28264 -0.657928,1.46191 -0.01014,0.0399 a 27.696539,27.696539 0 0 0 -2.395048,-0.20488 l -0.0035,-0.0453 -0.394215,-1.55456 z"
         id="path1200"
         inkscape:connector-curvature="0" />
      <path
         d="M 57.167659,273.66544 38.84602,262.4786 l 13.311753,16.86353 -13.390586,-16.77856 6.74129,20.39942 -6.84443,-20.34653 -0.642273,21.47484 0.527265,-21.46042 -7.948368,19.96008 7.835364,-19.98587 -14.295772,16.03784 14.198402,-16.10072 -18.918895,10.1812 18.848903,-10.27359 -21.26012,3.09655 21.225949,-3.2073 -21.037061,-4.36159 21.042832,4.24582 -18.276622,-11.29364 18.321638,11.18683 -13.311752,-16.86353 13.390585,16.77856 -6.741289,-20.39942 6.84443,20.34653 0.642272,-21.47484 -0.527264,21.46043 7.948367,-19.96008 -7.835363,19.98586 14.295771,-16.03784 -14.198401,16.10072 18.918894,-10.1812 -18.848903,10.27359 21.26012,-3.09655 -21.225949,3.20731 21.037061,4.36158 -21.042831,-4.24582 z"
         inkscape:randomized="0"
         inkscape:rounded="0"
         inkscape:flatsided="false"
         sodipodi:arg2="0.57340559"
         sodipodi:arg1="0.5485494"
         sodipodi:r2="0.3337452"
         sodipodi:r1="21.800539"
         sodipodi:cy="262.29755"
         sodipodi:cx="38.565655"
         sodipodi:sides="18"
         id="path1233"
         style="opacity:1;fill:#404040;fill-opacity:1;stroke:none;stroke-width:1.36407721;stroke-miterlimit:4;stroke-dasharray:none;stroke-opacity:1"
         sodipodi:type="star" />
      <circle
         r="21.590633"
         cy="262.33652"
         cx="38.500664"
         id="path1235"
         style="opacity:1;fill:none;fill-opacity:1;stroke:#404040;stroke-width:0.37829447;stroke-miterlimit:4;stroke-dasharray:none;stroke-opacity:1" />
    </g>
    <path
       style="fill:#ffffff;stroke:#404040;stroke-width:0.26458332px;stroke-linecap:butt;stroke-linejoin:miter;stroke-opacity:1"
       d="m 35.923433,261.81628 32.497565,-62.90422 4.810852,2.13816 -33.314197,62.78472 c 0,0 -1.259339,0.17995 -2.52841,-0.46143 -1.269071,-0.64138 -1.46581,-1.55723 -1.46581,-1.55723 z"
       id="path1238"
       inkscape:connector-curvature="0"
       sodipodi:nodetypes="cccczc" />
    <path
       style="fill:none;stroke:#404040;stroke-width:0.41121522px;stroke-linecap:butt;stroke-linejoin:miter;stroke-opacity:1"
       d="m 67.007043,197.14233 -8.542603,14.79623 c 0,0 -4.968759,3.41475 -9.080912,1.06494 -4.112152,-2.34979 -3.084114,-19.53273 1.468626,-20.56077 4.552742,-1.02804 15.714299,0 15.714299,0 z"
       id="path1244"
       inkscape:connector-curvature="0" />
    <path
       style="fill:#ffffff;stroke:#404040;stroke-width:0.99999994px;stroke-linecap:butt;stroke-linejoin:miter;stroke-opacity:1"
       d="m 520.56055,314.38477 -68.2461,0.0781 -9.78711,34.43359 77.02344,-2.02343 66.73047,16.54492 5.49414,-21.49805 z"
       transform="matrix(0.26458333,0,0,0.26458333,0,169.99998)"
       id="path1246"
       inkscape:connector-curvature="0"
       sodipodi:nodetypes="ccccccc" />
    <path
       style="fill:none;stroke:#404040;stroke-width:0.26458332px;stroke-linecap:butt;stroke-linejoin:miter;stroke-opacity:1"
       d="m 68.955538,232.45439 5.479023,20.17885 5.746295,10.02261 34.611404,2.13815 3.74177,-13.16302 -20.791668,-0.50016 -4.939702,-5.74991 -2.666013,-12.92655 z"
       id="path1250"
       inkscape:connector-curvature="0"
       sodipodi:nodetypes="ccccccccc" />
    <path
       style="fill:none;stroke:#404040;stroke-width:0.26458332px;stroke-linecap:butt;stroke-linejoin:miter;stroke-opacity:1"
       d="m 72.419296,208.2665 27.368154,-3.40078 9.52579,2.06443 8.28535,12.56167 25.12334,-2.13816 7.75081,-6.41447 18.17433,-6.1472 4.27631,5.34539 -10.42351,4.27631 -1.06908,2.13816 18.17433,5.87993 5.07812,18.4416 -8.28535,-15.7689 -17.90706,-5.07812 -31.95816,14.80071 -7.64359,15.24279 -20.062817,-0.34694 -4.380602,-5.0318 -3.039484,-14.24125 -22.584275,0.26727 -3.370655,-9.09809 z"
       id="path1240"
       inkscape:connector-curvature="0"
       sodipodi:nodetypes="cccccccccccccccccccccc" />
    <path
       style="fill:none;stroke:#404040;stroke-width:0.26458332px;stroke-linecap:butt;stroke-linejoin:miter;stroke-opacity:1"
       d="m 87.737721,192.7258 -12.662201,2.07887 -7.283884,-2.52546 0.839701,5.45576 5.092605,2.3404 14.344509,-5.22346 z"
       id="path1252"
       inkscape:connector-curvature="0"
       sodipodi:nodetypes="ccccccc" />
    <path
       style="fill:none;stroke:#404040;stroke-width:0.26458332px;stroke-linecap:butt;stroke-linejoin:miter;stroke-opacity:1"
       d="m 75.537049,193.33281 -7.750817,-2.40543 -0.407449,-8.35871 9.127119,7.99122 z"
       id="path1254"
       inkscape:connector-curvature="0"
       sodipodi:nodetypes="ccccc" />
  </g>
</svg>
