<?xml version="1.0"?>
<svg xmlns:rdf="http://www.w3.org/1999/02/22-rdf-syntax-ns#" xmlns="http://www.w3.org/2000/svg" xmlns:cc="http://web.resource.org/cc/" xmlns:xlink="http://www.w3.org/1999/xlink" xmlns:dc="http://purl.org/dc/elements/1.1/" xmlns:svg="http://www.w3.org/2000/svg" id="svg1" height="160pt" width="160pt">
  <defs id="defs3">
    <linearGradient id="linearGradient9840" x1="112" gradientUnits="userSpaceOnUse" y1="125.17" gradientTransform="matrix(1.0473 0 0 .95486 46.25 53.75)" x2="-29.11" y2="-21.866">
      <stop id="stop9838" stop-color="#f8f5da" offset="0"/>
      <stop id="stop9839" stop-color="#fff" offset="1"/>
    </linearGradient>
  </defs>
  <g id="layer1">
    <path id="rect9215" stroke-linejoin="bevel" d="m17.5 31.25h168.75v153.75h-168.75v-153.75z" stroke="#000" stroke-linecap="round" stroke-width="2.5" fill="url(#linearGradient9840)"/>
  </g>
  <g id="g1078" fill-rule="evenodd">
    <path id="path830" transform="matrix(-.26092 0 0 -.26092 115.09 142.01)" fill="#939292" d="m319.43 427.18c0 18.65-3.6 24.43-7.57 31.09-15.48 8.12-24.72 12.96-58.71 16.26-23.73-0.46-41.51-1.38-51.14-3.8-4.88-1.23-7.35-2.7-8.37-3.74-1.03-1.05-1.6-1.97-1.43-5.23l0.03-0.58-0.03-0.59c-1.35-14.7-2.01-86.01-2.13-151.93-0.13-65.59 0.13-126.48 0.14-127.07 1.81-14.04 4.92-17.46 13.32-26.55 8.27-6.57 9.05-8.06 26.45-8.87l0.24-0.03h0.25c19.6-1.74 26.29-2.56 43.92 1.95 11.93 8.29 17.25 18.78 16.64 25.86-0.24 2.75-0.24 6.97-0.28 14.47-0.04 7.49-0.03 17.53 0 29.23 0.05 23.41 0.19 53.51 0.38 83.23 0.38 59.44 2.21 96 0.87 105.36l20.94-0.15c0-12.04-0.5-45.92-0.88-105.34-0.19-29.7-0.33-59.77-0.38-83.13-0.02-11.68-0.04-21.69 0-29.11s0.19-12.96 0.21-13.13c1.39-16-9.1-31.91-26.55-43.24l-1.46-0.96-1.71-0.46c-21.24-5.65-33.34-4.82-53.27-3.06-0.18 0.01-0.32 0.01-0.49 0.03-20.3 1.03-30.19 6.73-39.39 13.97l-0.63 0.49-0.52 0.56c-9.31 10.07-16.35 19.61-18.56 37.21l-0.04 0.49v0.5s-0.26 61.81-0.13 127.79c0.12 65.97 0.49 134.85 2.19 153.4-0.04 6.24 2 12.47 6.49 17.06 4.78 4.88 11.29 7.62 18.46 9.43 14.33 3.61 32.82 4.03 57.28 4.48l0.7 0.03 0.66-0.06c38.61-3.7 53.01-11.2 70.12-20.12l2.65-1.39 1.4-2.44c3.59-6.36 11.27-17.96 11.27-41.91 1.33-3.74-22.27-2.26-20.94 0z"/>
    <g id="g830" fill="#fff" transform="matrix(-.26092 0 0 -.26092 114.96 142.14)" fill-opacity=".4">
      <path id="path616" d="m180.81 459.42l-3.74-286.14c5.07-11.15 13.65-22.48 24.87-26.41-11.78 10.26-18.7 22.08-17.79 30.25 0 4.55 2.11 282.3 2.11 282.3h-5.45z"/>
      <path id="path617" d="m295.99 168.3l1.41 231.26 4.75-0.61-4.05-230.65h-2.11z"/>
      <path id="path618" d="m320.28 432.46c-1.65-5.77 5.51 11.73-4.12 28.46 9.63-10.14 12.64-21.95 13.54-31.04l-9.42 2.58z"/>
    </g>
    <path id="path1816" d="m48.633 12.091c-6.967 0.57-15.708 0.967-19.974 6.425-3.899 4.871-4.043 8.743-3.526 13.192 1.984 0.099 7.055 0.65 7.768-0.719 0.21-2.545-0.046-6.356 2.703-7.695 4.622-2.478 9.974-3.38 15.169-3.391 4.157 0.255 8.699-1.081 12.47 1.576 1.62 1.285 0.707 14.396 1.036 16.25 0.487 22.561 0.56 35.246 0.53 57.811-0.106 3.485-3.305 5.97-6.473 7.18-4.756 0.46-9.668 1.74-14.359 0.32-3.021-1.82-3.465-3.771-3.566-9.045 0.051-18.149-0.115-36.297-0.438-54.443 0.431-2.212 0.11-5.052-2.721-4.335-1.573 0.165-3.325-0.341-4.753 0.389-0.815 2.884-0.126 6.141-0.302 9.179 0.154 17.858 0.307 35.724 0.221 53.579 0.523 4.856 4.193 8.926 8.382 11.106 5.98 1.83 12.332 1.3 18.421 0.44 4.703-0.87 8.817-3.99 10.989-8.24 1.826-3.116 2.098-6.78 1.904-10.301-0.012-22.059 0.196-44.124-0.355-66.178-0.164-3.184 0.041-6.985-2.796-9.174-4.253-3.244-9.951-3.049-15.033-3.355-1.764-0.07-3.539-0.477-5.297-0.571zm0.523 2.285c5.721 0.339 11.314 0.429 16.738 2.641 4.648 2.528 4.18 5.739 4.21 8.699 0.573 23.426 0.365 44.499 0.357 67.93-0.563 8.874-5.902 13.944-12.076 14.614-5.532 0.63-11.984 0.98-17.342-0.9-3.63-2.3-6.749-6.66-6.129-11.243 0.107-19.459-0.123-38.919-0.281-58.378 0.886 0.29 3.342-0.71 3.145 0.611-0.13 10.469 0.133 20.938 0.076 31.409 0.076 9.558 0.038 19.134 0.075 28.68 0.746 2.981 3.064 5.891 6.049 6.791 4.929 1.25 10.04 0.41 14.969-0.1 4.631-1.47 7.922-6.371 7.721-11.213 0.008-23.185 0.209-46.377-0.404-69.556 0.333-2.878-0.135-3.666-3.317-5.232-3.987-2.071-10.236-1.743-14.918-1.65-5.297 0.489-10.669 1.635-15.225 4.494-1.671 2.376-1.529 4.495-1.62 7.345-2.641 0.932-3.813 0.682-3.787-0.055 0.403-2.435-0.196-5.983 2.557-9.013 4.876-5.427 12.87-5.317 19.202-5.874z"/>
  </g>
  <metadata>
    <rdf:RDF>
      <cc:Work>
        <dc:format>image/svg+xml</dc:format>
        <dc:type rdf:resource="http://purl.org/dc/dcmitype/StillImage"/>
        <cc:license rdf:resource="http://creativecommons.org/licenses/publicdomain/"/>
        <dc:publisher>
          <cc:Agent rdf:about="http://openclipart.org/">
            <dc:title>Openclipart</dc:title>
          </cc:Agent>
        </dc:publisher>
        <dc:title>Note with paperclip</dc:title>
        <dc:date>2009-03-12T15:56:08</dc:date>
        <dc:description>a note paper held with a clip</dc:description>
        <dc:source>http://openclipart.org/detail/22255/note-with-paperclip-by-nicubunu</dc:source>
        <dc:creator>
          <cc:Agent>
            <dc:title>nicubunu</dc:title>
          </cc:Agent>
        </dc:creator>
        <dc:subject>
          <rdf:Bag>
            <rdf:li>clip art</rdf:li>
            <rdf:li>clipart</rdf:li>
            <rdf:li>image</rdf:li>
            <rdf:li>media</rdf:li>
            <rdf:li>note</rdf:li>
            <rdf:li>office</rdf:li>
            <rdf:li>paper</rdf:li>
            <rdf:li>png</rdf:li>
            <rdf:li>public domain</rdf:li>
            <rdf:li>svg</rdf:li>
            <rdf:li>symbol</rdf:li>
          </rdf:Bag>
        </dc:subject>
      </cc:Work>
      <cc:License rdf:about="http://creativecommons.org/licenses/publicdomain/">
        <cc:permits rdf:resource="http://creativecommons.org/ns#Reproduction"/>
        <cc:permits rdf:resource="http://creativecommons.org/ns#Distribution"/>
        <cc:permits rdf:resource="http://creativecommons.org/ns#DerivativeWorks"/>
      </cc:License>
    </rdf:RDF>
  </metadata>
</svg>
