<?xml version="1.0" encoding="UTF-8" standalone="no"?>
<!-- Created with Inkscape (http://www.inkscape.org/) -->
<svg xmlns:inkscape="http://www.inkscape.org/namespaces/inkscape" xmlns:rdf="http://www.w3.org/1999/02/22-rdf-syntax-ns#" xmlns="http://www.w3.org/2000/svg" xmlns:xlink="http://www.w3.org/1999/xlink" xmlns:ns1="http://sozi.baierouge.fr" xmlns:cc="http://creativecommons.org/ns#" xmlns:sodipodi="http://sodipodi.sourceforge.net/DTD/sodipodi-0.dtd" xmlns:dc="http://purl.org/dc/elements/1.1/" id="svg2" xml:space="preserve" viewBox="0 0 34.098 41.806" version="1.1" inkscape:version="0.91 r13725">
  <defs id="defs6">
    <clipPath id="clipPath20">
      <path id="path22" d="m6 21.445h16v12h-16v-12z" inkscape:connector-curvature="0"/>
    </clipPath>
    <mask id="mask24">
      <g id="g26">
        <g id="g28" clip-path="url(#clipPath20)">
          <path id="path30" style="fill:#000000;fill-opacity:.57030" d="m6 21.445h16v12h-16v-12z" inkscape:connector-curvature="0"/>
        </g>
      </g>
    </mask>
    <clipPath id="clipPath36">
      <path id="path38" d="m6 21.445h16v12h-16v-12z" inkscape:connector-curvature="0"/>
    </clipPath>
    <clipPath id="clipPath40">
      <path id="path42" d="m6 22h16v12h-16v-12z" inkscape:connector-curvature="0"/>
    </clipPath>
    <clipPath id="clipPath64">
      <path id="path66" d="m8 22.445h5v10h-5v-10z" inkscape:connector-curvature="0"/>
    </clipPath>
    <mask id="mask68">
      <g id="g70">
        <g id="g72" clip-path="url(#clipPath64)">
          <path id="path74" style="fill:#000000;fill-opacity:.46880" d="m8 22.445h5v10h-5v-10z" inkscape:connector-curvature="0"/>
        </g>
      </g>
    </mask>
    <clipPath id="clipPath80">
      <path id="path82" d="m8 22.445h5v10h-5v-10z" inkscape:connector-curvature="0"/>
    </clipPath>
    <clipPath id="clipPath84">
      <path id="path86" d="m8 23h5v10h-5v-10z" inkscape:connector-curvature="0"/>
    </clipPath>
    <clipPath id="clipPath108">
      <path id="path110" d="m12 23.445h9v8h-9v-8z" inkscape:connector-curvature="0"/>
    </clipPath>
    <mask id="mask112">
      <g id="g114">
        <g id="g116" clip-path="url(#clipPath108)">
          <path id="path118" style="fill:#000000;fill-opacity:.57030" d="m12 23.445h9v8h-9v-8z" inkscape:connector-curvature="0"/>
        </g>
      </g>
    </mask>
    <clipPath id="clipPath124">
      <path id="path126" d="m12 23.445h9v8h-9v-8z" inkscape:connector-curvature="0"/>
    </clipPath>
    <clipPath id="clipPath128">
      <path id="path130" d="m12 24h9v8h-9v-8z" inkscape:connector-curvature="0"/>
    </clipPath>
    <linearGradient id="linearGradient158" y2="14.042" gradientUnits="userSpaceOnUse" x2="28.429" gradientTransform="matrix(.8 0 0 -.8 .018579 33.442)" y1="14.042" x1="19.362">
      <stop id="stop160" style="stop-color:#f7c96d" offset="0"/>
      <stop id="stop162" style="stop-color:#b88c35" offset="1"/>
    </linearGradient>
    <linearGradient id="linearGradient176" y2="12.753" gradientUnits="userSpaceOnUse" x2="21.832" gradientTransform="matrix(.8 0 0 -.8 .018579 33.442)" y1="12.753" x1="13.675">
      <stop id="stop178" style="stop-color:#f7c96d" offset="0"/>
      <stop id="stop180" style="stop-color:#b88c35" offset="1"/>
    </linearGradient>
    <clipPath id="clipPath190">
      <path id="path192" d="m1-0.55524h26v24h-26v-24z" inkscape:connector-curvature="0"/>
    </clipPath>
    <mask id="mask194">
      <g id="g196">
        <g id="g198" clip-path="url(#clipPath190)">
          <path id="path200" style="fill:#000000;fill-opacity:.58980" d="m1-0.55524h26v24h-26v-24z" inkscape:connector-curvature="0"/>
        </g>
      </g>
    </mask>
    <clipPath id="clipPath206">
      <path id="path208" d="m1-0.55524h26v24h-26v-24z" inkscape:connector-curvature="0"/>
    </clipPath>
    <clipPath id="clipPath210">
      <path id="path212" d="m1 0h26v24h-26v-24z" inkscape:connector-curvature="0"/>
    </clipPath>
    <clipPath id="clipPath250">
      <path id="path252" d="m0-0.55524h27v24h-27v-24z" inkscape:connector-curvature="0"/>
    </clipPath>
    <mask id="mask254">
      <g id="g256">
        <g id="g258" clip-path="url(#clipPath250)">
          <path id="path260" style="fill:#000000;fill-opacity:.58980" d="m0-0.55524h27v24h-27v-24z" inkscape:connector-curvature="0"/>
        </g>
      </g>
    </mask>
    <clipPath id="clipPath266">
      <path id="path268" d="m0-0.55524h27v24h-27v-24z" inkscape:connector-curvature="0"/>
    </clipPath>
    <clipPath id="clipPath270">
      <path id="path272" d="m0 0h27v24h-27v-24z" inkscape:connector-curvature="0"/>
    </clipPath>
    <clipPath id="clipPath316">
      <path id="path318" d="m9 7.4448h3v4h-3v-4z" inkscape:connector-curvature="0"/>
    </clipPath>
    <mask id="mask320">
      <g id="g322">
        <g id="g324" clip-path="url(#clipPath316)">
          <path id="path326" style="fill:#000000;fill-opacity:.64840" d="m9 7.4448h3v4h-3v-4z" inkscape:connector-curvature="0"/>
        </g>
      </g>
    </mask>
    <clipPath id="clipPath332">
      <path id="path334" d="m9 7.4448h3v4h-3v-4z" inkscape:connector-curvature="0"/>
    </clipPath>
    <clipPath id="clipPath336">
      <path id="path338" d="m9 8h3v4h-3v-4z" inkscape:connector-curvature="0"/>
    </clipPath>
    <clipPath id="clipPath360">
      <path id="path362" d="m13 7.4448h2v4h-2v-4z" inkscape:connector-curvature="0"/>
    </clipPath>
    <mask id="mask364">
      <g id="g366">
        <g id="g368" clip-path="url(#clipPath360)">
          <path id="path370" style="fill:#000000;fill-opacity:.64840" d="m13 7.4448h2v4h-2v-4z" inkscape:connector-curvature="0"/>
        </g>
      </g>
    </mask>
    <clipPath id="clipPath376">
      <path id="path378" d="m13 7.4448h2v4h-2v-4z" inkscape:connector-curvature="0"/>
    </clipPath>
    <clipPath id="clipPath380">
      <path id="path382" d="m13 8h2v4h-2v-4z" inkscape:connector-curvature="0"/>
    </clipPath>
    <clipPath id="clipPath404">
      <path id="path406" d="m5 4.4448h15v13h-15v-13z" inkscape:connector-curvature="0"/>
    </clipPath>
    <mask id="mask408">
      <g id="g410">
        <g id="g412" clip-path="url(#clipPath404)">
          <path id="path414" style="fill:#000000;fill-opacity:.64840" d="m5 4.4448h15v13h-15v-13z" inkscape:connector-curvature="0"/>
        </g>
      </g>
    </mask>
    <clipPath id="clipPath420">
      <path id="path422" d="m5 4.4448h15v13h-15v-13z" inkscape:connector-curvature="0"/>
    </clipPath>
    <clipPath id="clipPath424">
      <path id="path426" d="m5 5h15v13h-15v-13z" inkscape:connector-curvature="0"/>
    </clipPath>
    <clipPath id="clipPath448">
      <path id="path450" d="m0-0.55524h28v34h-28v-34z" inkscape:connector-curvature="0"/>
    </clipPath>
    <mask id="mask452">
      <g id="g454">
        <g id="g456" clip-path="url(#clipPath448)">
          <path id="path458" style="fill:#000000;fill-opacity:.96090" d="m0-0.55524h28v34h-28v-34z" inkscape:connector-curvature="0"/>
        </g>
      </g>
    </mask>
    <clipPath id="clipPath464">
      <path id="path466" d="m0-0.55524h28v34h-28v-34z" inkscape:connector-curvature="0"/>
    </clipPath>
    <clipPath id="clipPath468">
      <path id="path470" d="m0 0h28v34h-28v-34z" inkscape:connector-curvature="0"/>
    </clipPath>
    <clipPath id="clipPath472">
      <path id="path474" d="m13 16h10v8h-10v-8z" inkscape:connector-curvature="0"/>
    </clipPath>
    <clipPath id="clipPath476">
      <path id="path478" d="m13 16h10v8h-10v-8z" inkscape:connector-curvature="0"/>
    </clipPath>
    <mask id="mask480">
      <g id="g482">
        <g id="g484" clip-path="url(#clipPath472)">
          <g id="g486">
            <g id="g490">
              <g id="g492" clip-path="url(#clipPath476)">
                <g id="g494">
                  <path id="path496" style="fill-rule:evenodd;fill:#875f23" d="m22.02 19.918c0.398-0.535 0.585-0.879 0.558-1.039 0-0.027-0.16-0.254-0.48-0.68-0.184-0.242-0.414-0.562-0.68-0.961-0.238-0.293-0.48-0.519-0.719-0.679-0.828-0.723-1.734-0.586-2.719 0.398-0.562 0.563-1.093 1.68-1.601 3.359l0.078-0.757c0.082-1.067 0.109-1.629 0.082-1.68-0.082-0.133-0.601-0.027-1.559 0.32-0.906 0.293-1.441 0.774-1.601 1.438-0.027 0.109-0.039 0.722-0.039 1.84 0 0.695 0.078 1.468 0.238 2.32 1.813 0.082 3.613-0.199 5.402-0.84 0.958-0.504 1.637-1.027 2.04-1.559 0.238-0.32 0.574-0.812 1-1.48z" inkscape:connector-curvature="0"/>
                </g>
              </g>
            </g>
          </g>
        </g>
      </g>
    </mask>
    <clipPath id="clipPath498">
      <path id="path500" d="m13 16h10v8h-10v-8z" inkscape:connector-curvature="0"/>
    </clipPath>
    <clipPath id="clipPath502">
      <path id="path504" d="m13 16h10v8h-10v-8z" inkscape:connector-curvature="0"/>
    </clipPath>
    <clipPath id="clipPath506">
      <path id="path508" d="m7 20h6v4h-6v-4z" inkscape:connector-curvature="0"/>
    </clipPath>
    <clipPath id="clipPath510">
      <path id="path512" d="m7 20h6v4h-6v-4z" inkscape:connector-curvature="0"/>
    </clipPath>
    <mask id="mask514">
      <g id="g516">
        <g id="g518" clip-path="url(#clipPath506)">
          <g id="g520">
            <g id="g524">
              <g id="g526" clip-path="url(#clipPath510)">
                <g id="g528">
                  <path id="path530" style="fill-rule:evenodd;fill:#875e22" d="m11.578 23.598 1.281 0.16-0.64-0.641c-0.426-0.504-1.055-1-1.879-1.48-0.906-0.481-1.656-0.719-2.242-0.719-0.559 0-0.504 0.227 0.16 0.68 0.695 0.48 1.336 0.761 1.922 0.84 0.371 0.027 0.664 0.16 0.879 0.402 0.132 0.133 0.304 0.383 0.519 0.758z" inkscape:connector-curvature="0"/>
                </g>
              </g>
            </g>
          </g>
        </g>
      </g>
    </mask>
    <clipPath id="clipPath532">
      <path id="path534" d="m7 20h6v4h-6v-4z" inkscape:connector-curvature="0"/>
    </clipPath>
    <clipPath id="clipPath536">
      <path id="path538" d="m7 20h6v4h-6v-4z" inkscape:connector-curvature="0"/>
    </clipPath>
    <clipPath id="clipPath606">
      <path id="path608" d="m0-0.55524h28v24h-28v-24z" inkscape:connector-curvature="0"/>
    </clipPath>
    <mask id="mask610">
      <g id="g612">
        <g id="g614" clip-path="url(#clipPath606)">
          <path id="path616" style="fill:#000000;fill-opacity:.35940" d="m0-0.55524h28v24h-28v-24z" inkscape:connector-curvature="0"/>
        </g>
      </g>
    </mask>
    <clipPath id="clipPath622">
      <path id="path624" d="m0-0.55524h28v24h-28v-24z" inkscape:connector-curvature="0"/>
    </clipPath>
    <clipPath id="clipPath626">
      <path id="path628" d="m0 0h28v24h-28v-24z" inkscape:connector-curvature="0"/>
    </clipPath>
    <clipPath id="clipPath650">
      <path id="path652" d="m0-0.55524h28v24h-28v-24z" inkscape:connector-curvature="0"/>
    </clipPath>
    <mask id="mask654">
      <g id="g656">
        <g id="g658" clip-path="url(#clipPath650)">
          <path id="path660" style="fill:#000000;fill-opacity:.26950" d="m0-0.55524h28v24h-28v-24z" inkscape:connector-curvature="0"/>
        </g>
      </g>
    </mask>
    <clipPath id="clipPath666">
      <path id="path668" d="m0-0.55524h28v24h-28v-24z" inkscape:connector-curvature="0"/>
    </clipPath>
    <clipPath id="clipPath670">
      <path id="path672" d="m0 0h28v24h-28v-24z" inkscape:connector-curvature="0"/>
    </clipPath>
    <clipPath id="clipPath694">
      <path id="path696" d="m0-0.55524h28v4h-28v-4z" inkscape:connector-curvature="0"/>
    </clipPath>
    <mask id="mask698">
      <g id="g700">
        <g id="g702" clip-path="url(#clipPath694)">
          <path id="path704" style="fill:#000000;fill-opacity:.66020" d="m0-0.55524h28v4h-28v-4z" inkscape:connector-curvature="0"/>
        </g>
      </g>
    </mask>
    <clipPath id="clipPath710">
      <path id="path712" d="m0-0.55524h28v4h-28v-4z" inkscape:connector-curvature="0"/>
    </clipPath>
    <clipPath id="clipPath714">
      <path id="path716" d="m0 0h28v4h-28v-4z" inkscape:connector-curvature="0"/>
    </clipPath>
    <clipPath id="clipPath738">
      <path id="path740" d="m4 7.4448h12v13h-12v-13z" inkscape:connector-curvature="0"/>
    </clipPath>
    <mask id="mask742">
      <g id="g744">
        <g id="g746" clip-path="url(#clipPath738)">
          <path id="path748" style="fill:#000000;fill-opacity:.32810" d="m4 7.4448h12v13h-12v-13z" inkscape:connector-curvature="0"/>
        </g>
      </g>
    </mask>
    <clipPath id="clipPath754">
      <path id="path756" d="m4 7.4448h12v13h-12v-13z" inkscape:connector-curvature="0"/>
    </clipPath>
    <clipPath id="clipPath758">
      <path id="path760" d="m4 8h12v13h-12v-13z" inkscape:connector-curvature="0"/>
    </clipPath>
    <clipPath id="clipPath782">
      <path id="path784" d="m12 25.445h4v7h-4v-7z" inkscape:connector-curvature="0"/>
    </clipPath>
    <mask id="mask786">
      <g id="g788">
        <g id="g790" clip-path="url(#clipPath782)">
          <path id="path792" style="fill:#000000;fill-opacity:.51170" d="m12 25.445h4v7h-4v-7z" inkscape:connector-curvature="0"/>
        </g>
      </g>
    </mask>
    <clipPath id="clipPath798">
      <path id="path800" d="m12 25.445h4v7h-4v-7z" inkscape:connector-curvature="0"/>
    </clipPath>
    <clipPath id="clipPath802">
      <path id="path804" d="m12 26h4v7h-4v-7z" inkscape:connector-curvature="0"/>
    </clipPath>
    <clipPath id="clipPath826">
      <path id="path828" d="m18 27.445h2v4h-2v-4z" inkscape:connector-curvature="0"/>
    </clipPath>
    <mask id="mask830">
      <g id="g832">
        <g id="g834" clip-path="url(#clipPath826)">
          <path id="path836" style="fill:#000000;fill-opacity:.32810" d="m18 27.445h2v4h-2v-4z" inkscape:connector-curvature="0"/>
        </g>
      </g>
    </mask>
    <clipPath id="clipPath842">
      <path id="path844" d="m18 27.445h2v4h-2v-4z" inkscape:connector-curvature="0"/>
    </clipPath>
    <clipPath id="clipPath846">
      <path id="path848" d="m18 28h2v4h-2v-4z" inkscape:connector-curvature="0"/>
    </clipPath>
    <linearGradient id="linearGradient876" y2="11.196" gradientUnits="userSpaceOnUse" x2="29.887" gradientTransform="matrix(.8 0 0 -.8 .018579 33.442)" y1="11.196" x1="20.212">
      <stop id="stop878" style="stop-color:#f7c96d" offset="0"/>
      <stop id="stop880" style="stop-color:#b88c35" offset="1"/>
    </linearGradient>
    <linearGradient id="linearGradient894" y2="16.276" gradientUnits="userSpaceOnUse" x2="27.5" gradientTransform="matrix(.8 0 0 -.8 .018579 33.442)" y1="16.276" x1="19.6">
      <stop id="stop896" style="stop-color:#f7c96d" offset="0"/>
      <stop id="stop898" style="stop-color:#b88c35" offset="1"/>
    </linearGradient>
  </defs>
  <g id="g10" transform="matrix(1.25 0 0 -1.25 0 41.806)">
    <g id="g12">
      <path id="path14" style="fill-rule:evenodd;fill:#ba8449" d="m20.5 28.921c-0.43-0.371-0.641-0.64-0.641-0.8 0-0.106 0.094-0.227 0.282-0.36 0.156-0.133 0.238-0.265 0.238-0.398 0-0.293-0.16-0.653-0.481-1.082-0.398-0.532-0.96-0.985-1.679-1.36-0.774-0.425-1.348-0.785-1.719-1.078-0.293-0.265-0.562-0.601-0.801-1-0.265-0.48-0.64-0.773-1.121-0.883-0.558-0.156-1.094 0.043-1.598 0.602-0.187 0.215-0.507 0.535-0.96 0.961-0.348 0.32-0.719 0.758-1.122 1.32-0.347 0.481-0.773 1.278-1.277 2.399-0.535 1.093-0.976 1.867-1.32 2.32-0.696 0.934-1.215 1.773-1.563 2.519l1.559 0.801c0.933 0.508 1.723 0.559 2.363 0.16 0.238-0.16 0.438-0.32 0.598-0.48 0.133-0.078 0.336-0.094 0.601-0.039 0.239 0.051 0.758 0.254 1.559 0.598 0.855 0.296 1.613 0.386 2.281 0.281 0.746-0.133 1.426-0.426 2.039-0.879 0.508-0.375 0.84-0.746 1-1.121 0.215-0.535 0.907-0.852 2.082-0.961 1.172-0.106 1.465-0.344 0.879-0.719-0.402-0.238-0.801-0.508-1.199-0.801z" inkscape:connector-curvature="0"/>
      <g id="g16">
        <g id="g32" mask="url(#mask24)">
          <g id="g44">
            <g id="g46" clip-path="url(#clipPath36)">
              <g id="g48" transform="translate(0 -.55524)">
                <g id="g52">
                  <g id="g54" clip-path="url(#clipPath40)">
                    <g id="g56">
                      <path id="path58" style="fill-rule:evenodd;fill:#d4a664" d="m12.699 25.516 0.078 0.082-1.078 0.961-0.281-0.204 1.281-0.839zm-0.961 2.082 0.641 0.398-1 0.762-0.719-0.281 1.078-0.879zm1.68-0.2-0.16 0.079-0.879-0.438 1.121-1 1.078 0.559c-0.133 0.214-0.519 0.48-1.16 0.8zm-3.48 1.641 0.839 0.316-0.839 1.043-0.879-0.562 0.879-0.797zm1.64 0.637 0.481 0.203c0.238 0.105 0.64 0.211 1.199 0.316-0.692 0.43-1.238 0.801-1.641 1.121l-0.957-0.519 0.918-1.121zm-0.598 2.242h0.04c-0.293 0.426-0.442 0.812-0.442 1.16l-0.039 0.559-1.359-0.758 0.957-1.441 0.843 0.48zm4.68-3.32-0.402 0.359-0.84 0.559c-0.934-0.078-1.613-0.211-2.039-0.399l-0.16-0.039 1.16-0.68c0.691 0.161 1.453 0.227 2.281 0.2zm1.238-1.559-0.519 0.68c-0.641 0.078-1.266 0.093-1.879 0.039 0.371-0.215 0.664-0.52 0.879-0.922 0.398 0.137 0.906 0.203 1.519 0.203zm1.04-0.082 0.96-0.16c-0.16 0.082-0.304 0.215-0.441 0.398l-0.277 0.364-0.68 0.078 0.438-0.68zm-1.04 3.398-0.48 0.801c-0.188 0.242-0.48 0.508-0.879 0.801-0.746 0.16-1.336 0.215-1.762 0.16-0.265-0.027-0.707-0.16-1.32-0.398l2.16-1.364c0.723 0.028 1.481 0.028 2.281 0zm0.321-0.839-1.442 0.043c0.453-0.403 0.801-0.747 1.043-1.043l0.637-0.078h0.242l-0.48 1.078zm3.601 1.48c1.172-0.105 1.465-0.348 0.879-0.719l-1.402 0.399 0.48-0.598 0.52-0.039-0.957-0.762-2.203 0.2 0.523-1.161 1.68-0.199 0.039-0.199c0-0.188-0.055-0.387-0.16-0.602l-0.719 0.082 0.117-0.082 0.203-0.078 0.317-0.082c-0.317-0.48-0.719-0.894-1.199-1.238l-0.481 0.121 0.16-0.32-0.719-0.403-0.48 0.879c-0.48 0.028-1.012 0-1.598-0.078 0.266-0.347 0.731-0.746 1.399-1.199l-0.719-0.52c-0.723 0.586-1.215 1.079-1.48 1.481l-0.883-0.441c0.429-0.426 0.734-0.829 0.922-1.2 0.187-0.402 0.293-0.64 0.32-0.722 0.027-0.106 0-0.211-0.082-0.321l-0.117-0.199h-0.242c-0.106 0-0.25 0.094-0.438 0.281-0.375 0.453-0.773 0.774-1.203 0.961l-0.598 0.321-0.679-0.481-0.602 0.598 0.52 0.363-1.239 0.84-0.082-0.043c-0.105 0.187-0.426 0.801-0.957 1.84l1.078-0.797 0.321 0.199-1.282 1.078-0.277-0.117c-0.402 0.879-0.801 1.57-1.203 2.078l-0.957 1.442 1.078-1.161 1.039 0.641-1 1.399-1.16-0.84-0.399 0.718 1.122 0.801-0.082 0.121 0.722 0.36 0.039-0.039 0.321 0.16c0.64 0.211 1.183 0.172 1.64-0.121 0.133-0.082 0.278-0.2 0.438-0.36 0.132-0.109 0.242-0.176 0.32-0.199 0-0.242 0.121-0.48 0.359-0.723 0.883 0.375 1.508 0.575 1.883 0.602l0.278 0.039-0.918 0.559 1.039 0.32 0.601-0.359c0.637-0.399 1.039-0.653 1.199-0.758 0.614-0.11 1.52-0.336 2.719-0.68l0.121-0.043 0.039-0.039c0.215-0.535 0.907-0.852 2.082-0.961zm-1.32-0.641-0.402 0.684-1.961 0.559c0.187-0.266 0.414-0.696 0.683-1.282l1.84-0.16-0.16 0.199z" inkscape:connector-curvature="0"/>
                    </g>
                  </g>
                </g>
              </g>
            </g>
          </g>
        </g>
      </g>
      <g id="g60">
        <g id="g76" mask="url(#mask68)">
          <g id="g88">
            <g id="g90" clip-path="url(#clipPath80)">
              <g id="g92" transform="translate(0 -.55524)">
                <g id="g96">
                  <g id="g98" clip-path="url(#clipPath84)">
                    <g id="g100">
                      <path id="path102" style="fill-rule:evenodd;fill:#87632e" d="m10.02 32.398c0.613 0.133 1.027-0.082 1.238-0.64 0.105-0.266 0.215-0.961 0.32-2.082 0.082-0.504 0.242-1.438 0.481-2.797 0.16-1.227 0.148-2.16-0.039-2.801-0.215-0.586-0.415-0.601-0.602-0.039l-0.52 1.359c-0.078 0.079-0.32 0.864-0.718 2.36-0.426 1.519-0.801 2.465-1.121 2.84-0.375 0.453-0.426 0.851-0.161 1.199 0.215 0.293 0.586 0.492 1.122 0.601z" inkscape:connector-curvature="0"/>
                    </g>
                  </g>
                </g>
              </g>
            </g>
          </g>
        </g>
      </g>
      <g id="g104">
        <g id="g120" mask="url(#mask112)">
          <g id="g132">
            <g id="g134" clip-path="url(#clipPath124)">
              <g id="g136" transform="translate(0 -.55524)">
                <g id="g140">
                  <g id="g142" clip-path="url(#clipPath128)">
                    <g id="g144">
                      <path id="path146" style="fill-rule:evenodd;fill:#876029" d="m18.297 27.918c-0.637-0.723-0.934-1.293-0.879-1.723 0.055-0.343 0.133-0.773 0.242-1.277-0.027-0.32-0.363-0.52-1-0.602-1.043-0.078-2.32 0.2-3.84 0.84l-0.121-0.597c-0.027 0.531 0.078 0.863 0.321 1 0.531 0.132 1.039 0.32 1.519 0.558 0.664 0.293 1.066 0.762 1.199 1.399 0.028 0.16 0.039 0.839 0.039 2.043 0 0.879 0.11 1.519 0.321 1.918 0.242 0.48 0.586 0.519 1.039 0.121 0.402-0.348 0.617-0.868 0.64-1.559 0-0.402-0.023-0.934-0.078-1.601 0-0.399 0.199-0.348 0.598 0.16 0.242 0.293 0.547 0.734 0.922 1.32 0.215 0.293 0.441 0.359 0.679 0.199 0.239-0.16 0.188-0.414-0.16-0.762-0.746-0.691-1.226-1.171-1.441-1.437z" inkscape:connector-curvature="0"/>
                    </g>
                  </g>
                </g>
              </g>
            </g>
          </g>
        </g>
      </g>
      <g id="g148">
        <g id="g150">
          <g id="g156">
            <path id="path164" style="fill-rule:evenodd;fill:url(#linearGradient158)" d="m21.5 20.203c-1.469-0.293-2.734-0.028-3.801 0.8-0.453 0.371-0.922 0.786-1.402 1.239l-0.559 0.562c-0.093 0.051-0.16 0.145-0.199 0.277l-0.039 0.602c1.785 0.719 3.68 0.84 5.68 0.359 1.144-0.265 1.664-0.945 1.558-2.039-0.078-1.039-0.492-1.64-1.238-1.8zm-0.68 2.441c-0.32 0.371-1 0.559-2.043 0.559-0.933 0-1.734-0.122-2.398-0.36-0.238-0.097-0.422-0.125-0.559-0.082l1.36-0.879c1.066-0.64 1.879-0.906 2.437-0.801 1.442 0.321 1.84 0.84 1.203 1.563z" inkscape:connector-curvature="0"/>
          </g>
        </g>
      </g>
      <g id="g166">
        <g id="g168">
          <g id="g174">
            <path id="path182" style="fill-rule:evenodd;fill:url(#linearGradient176)" d="m11.699 22.203c-0.453 0.718-0.695 1.132-0.722 1.238-0.024 0.242 0.214 0.496 0.722 0.762 0.344 0.187 0.719 0.32 1.121 0.398 1.864 0.402 3.223 0.188 4.078-0.637 0.614-0.59 0.762-1.121 0.442-1.601-0.27-0.453-0.735-0.68-1.402-0.68-0.454 0-1.293 0.078-2.52 0.238l-1.719 0.282z" inkscape:connector-curvature="0"/>
          </g>
        </g>
      </g>
      <path id="path184" style="fill-rule:evenodd;fill:#ba8449" d="m17.738 22.761c1.574-0.398 2.762-0.906 3.559-1.519 0.562-0.481 1.137-1.414 1.723-2.801 0.531-1.254 0.812-2.184 0.839-2.797 0.028-0.375 0.079-1.148 0.161-2.32 0.05-1.121 0.039-1.973-0.043-2.559-0.106-0.668 0.027-1.922 0.402-3.762 0.348-1.785 0.664-2.828 0.961-3.121 0.344-0.398 0.703-0.89 1.078-1.48 0.082-0.078 0.309-0.266 0.68-0.559 0.16-0.16 0.214-0.293 0.16-0.398-0.106-0.242-1.078-0.414-2.918-0.524-0.641-0.023-1.586-0.144-2.84-0.355-1.387-0.215-2.613-0.363-3.68-0.442-2.75-0.214-5.789-0.148-9.121 0.2-2.347 0.343-4.015 0.558-5 0.64-2.187 0.184-3.387 0.332-3.601 0.438-0.133 0.082-0.106 0.242 0.082 0.48 0.183 0.239 0.492 0.492 0.918 0.762 0.375 0.238 0.64 0.465 0.8 0.68 0.188 0.293 0.305 0.465 0.36 0.519 0.16 0.133 0.254 0.36 0.281 0.68 0.027 0.508 0.106 0.973 0.238 1.398 0.243 0.641 0.426 1.95 0.563 3.922 0.133 1.891 0.16 3.266 0.078 4.121-0.078 0.746 0.082 1.653 0.48 2.719 0.348 0.906 0.696 1.57 1.04 2 0.132 0.16 0.441 0.586 0.921 1.277 0.453 0.668 0.868 1.188 1.239 1.563 0.64 0.641 2.293 1.172 4.961 1.598 1.839 0.269 3.734 0.148 5.679-0.36z" inkscape:connector-curvature="0"/>
      <g id="g186">
        <g id="g202" mask="url(#mask194)">
          <g id="g214">
            <g id="g216" clip-path="url(#clipPath206)">
              <g id="g218" transform="translate(0 -.55524)">
                <g id="g222">
                  <g id="g224" clip-path="url(#clipPath210)">
                    <g id="g226">
                      <path id="path228" style="fill-rule:evenodd;fill:#d4a663" d="m24.66 5.758c-1.094 0-3.269 1.105-6.523 3.32-1.864 1.281-3.559 3.199-5.078 5.758-0.829 1.387-1.84 3.496-3.039 6.32l-0.84 1.961 0.8 0.199 0.797-1.839c1.176-2.719 2.161-4.774 2.961-6.161 1.465-2.48 3.094-4.332 4.879-5.558 3.094-2.106 5.082-3.16 5.961-3.16l0.242-0.801-0.16-0.039z" inkscape:connector-curvature="0"/>
                      <path id="path230" style="fill-rule:evenodd;fill:#d4a663" d="m22.34 10.52c-0.988 0.636-1.746 1.183-2.281 1.636-0.907 0.774-1.762 1.696-2.559 2.762-0.402 0.559-1.375 2.027-2.922 4.398-1.254 2-2.226 3.43-2.918 4.282l0.399 0.082 0.558 0.039c0.508-0.668 1.387-1.989 2.641-3.961 1.387-2.133 2.359-3.586 2.922-4.36 0.746-1.015 1.531-1.878 2.359-2.601 0.453-0.371 1.199-0.906 2.238-1.598l1.203-0.801 0.118-1.121c-0.801 0.559-1.387 0.973-1.758 1.243z" inkscape:connector-curvature="0"/>
                      <path id="path232" style="fill-rule:evenodd;fill:#d4a663" d="m14.699 23.797c1.918-1.117 3.387-2.211 4.399-3.277 1.84-2.028 3.468-4.043 4.882-6.043l0.079-1.52-0.239 0.32c-1.816 2.559-3.59 4.785-5.32 6.68-1.176 1.281-3.016 2.547-5.52 3.801 0.797 0.054 1.372 0.066 1.719 0.039z" inkscape:connector-curvature="0"/>
                      <path id="path234" style="fill-rule:evenodd;fill:#d4a663" d="m16.02 6.68c-2.856 2.957-5.922 7.277-9.2 12.957l-0.722 1.242 0.562 0.719 0.84-1.559c1.145-1.949 2.453-4 3.918-6.16 1.973-2.883 3.707-5.094 5.199-6.641 2-2.054 5.227-3.922 9.68-5.601l-1.918-0.16c-3.762 1.601-6.547 3.335-8.359 5.203z" inkscape:connector-curvature="0"/>
                      <path id="path236" style="fill-rule:evenodd;fill:#d4a663" d="m2.059 4.117c0.347-0.906 0.855-1.773 1.519-2.597l-1.121 0.117c-0.426 0.613-0.769 1.215-1.039 1.801 0.133 0.105 0.348 0.332 0.641 0.679z" inkscape:connector-curvature="0"/>
                      <path id="path238" style="fill-rule:evenodd;fill:#d4a663" d="m9.82 10.316c1.946-2.773 3.559-4.703 4.84-5.796 0.852-0.75 2.266-1.59 4.238-2.524l2.04-0.957-1.52-0.203-0.879 0.441c-2.055 0.989-3.519 1.852-4.402 2.602-1.332 1.144-3 3.144-5 6-2.399 3.387-3.985 6.199-4.758 8.437l0.559 0.922c0.695-2.293 2.32-5.265 4.882-8.922z" inkscape:connector-curvature="0"/>
                      <path id="path240" style="fill-rule:evenodd;fill:#d4a663" d="m5.98 6.078c1.012-1.414 1.907-2.519 2.68-3.32 0.774-0.828 1.625-1.52 2.559-2.078l-1.641 0.117c-1.226 0.961-2.652 2.562-4.281 4.801-0.692 1.039-1.371 2.375-2.039 4l0.16 1.922v-0.082c0.906-2.454 1.762-4.239 2.562-5.36z" inkscape:connector-curvature="0"/>
                      <path id="path242" style="fill-rule:evenodd;fill:#d4a663" d="m9.098 6.398 1.121-1.402c0.746-0.934 1.652-1.719 2.719-2.359 0.667-0.426 1.761-0.957 3.281-1.598l0.961-0.402-1.922-0.078c-1.332 0.586-2.344 1.105-3.039 1.558-1.039 0.668-1.922 1.469-2.641 2.403l-1.121 1.359c-1.227 1.519-2.117 2.691-2.68 3.519-0.984 1.465-1.757 2.895-2.32 4.282l-0.039 0.84c-0.055 0.476-0.012 0.957 0.121 1.437 0.508-1.785 1.32-3.559 2.441-5.32 0.637-1.012 1.68-2.426 3.118-4.239z" inkscape:connector-curvature="0"/>
                      <path id="path244" style="fill-rule:evenodd;fill:#d4a663" d="m2.578 5.68 0.442 1.679 0.16-0.8c0.293-1.227 0.746-2.293 1.359-3.2 0.481-0.695 1.16-1.429 2.039-2.203l-1.398 0.203c-1.227 1.227-2.094 2.664-2.602 4.321z" inkscape:connector-curvature="0"/>
                    </g>
                  </g>
                </g>
              </g>
            </g>
          </g>
        </g>
      </g>
      <g id="g246">
        <g id="g262" mask="url(#mask254)">
          <g id="g274">
            <g id="g276" clip-path="url(#clipPath266)">
              <g id="g278" transform="translate(0 -.55524)">
                <g id="g282">
                  <g id="g284" clip-path="url(#clipPath270)">
                    <g id="g286">
                      <path id="path288" style="fill-rule:evenodd;fill:#d4a664" d="m24.059 12.477c-1.172 0.187-2.2 0.281-3.079 0.281-1.976 0-3.828-0.414-5.562-1.238-1.707-0.829-4.133-2.137-7.277-3.922-2.457-1.36-4.094-2.254-4.922-2.68l-0.84-0.398c0.027 0.05 0.094 0.382 0.199 1l0.281 0.16c0.664 0.316 2.293 1.199 4.879 2.636 2.989 1.707 5.426 3.016 7.321 3.922 1.867 0.907 3.839 1.36 5.921 1.36 0.879 0 1.907-0.094 3.079-0.282v-0.839z" inkscape:connector-curvature="0"/>
                      <path id="path290" style="fill-rule:evenodd;fill:#d4a664" d="m26.418 2.957 0.121-0.078-1.801-1.359-1.558-0.122 2.84 2.122 0.398-0.563z" inkscape:connector-curvature="0"/>
                      <path id="path292" style="fill-rule:evenodd;fill:#d4a664" d="m23.617 17.398c-1.226 0.215-2.293 0.321-3.199 0.321-1.734 0-3.68-0.52-5.84-1.563-1.812-0.906-4.055-2.293-6.719-4.16-1.679-1.199-3.226-2.238-4.64-3.117l0.078 1.039c0.961 0.586 2.32 1.508 4.082 2.762 2.906 2 5.187 3.41 6.84 4.238 2.293 1.094 4.359 1.641 6.199 1.641 0.746 0 1.723-0.094 2.922-0.282l0.277-0.879z" inkscape:connector-curvature="0"/>
                      <path id="path294" style="fill-rule:evenodd;fill:#d4a664" d="m22.617 19.879-0.597 0.039c-1.547 0-3.602-0.305-6.161-0.922-1.785-0.398-3.988-1.492-6.601-3.277-1.946-1.336-3.906-2.895-5.879-4.68l0.039 1.16c2 1.758 3.988 3.278 5.961 4.559 2.48 1.652 4.586 2.668 6.32 3.039 2.613 0.613 4.719 0.922 6.321 0.922h0.121l0.476-0.84z" inkscape:connector-curvature="0"/>
                      <path id="path296" style="fill-rule:evenodd;fill:#d4a664" d="m23.219 10.52c-0.321 0.105-0.707 0.16-1.16 0.16-1.442 0-4.293-1-8.559-3-2.027-0.989-4.176-2.176-6.441-3.563-2.188-1.305-3.68-2.144-4.481-2.519l-1.598 0.199c1.2 0.508 3.079 1.508 5.637 3 2.43 1.519 4.602 2.723 6.524 3.601 2.265 1.067 4.023 1.825 5.277 2.282 1.469 0.531 2.68 0.797 3.641 0.797 0.507 0 0.961-0.051 1.359-0.161l0.562-0.16v-0.879l-0.761 0.243z" inkscape:connector-curvature="0"/>
                      <path id="path298" style="fill-rule:evenodd;fill:#d4a664" d="m24.617 6.559 0.203-0.801c-2.136-0.32-4.414-0.922-6.84-1.801-1.414-0.504-2.96-1.133-4.64-1.879-1.121-0.535-2.16-0.973-3.121-1.32l-1.922 0.16c1.387 0.48 2.961 1.105 4.723 1.879 1.492 0.695 3.054 1.336 4.679 1.922 2.106 0.773 4.414 1.386 6.918 1.84z" inkscape:connector-curvature="0"/>
                      <path id="path300" style="fill-rule:evenodd;fill:#d4a664" d="m4.938 19.238c0.562 0.828 1.042 1.492 1.441 2 1.254 0.852 2.906 1.625 4.961 2.321l0.719 0.121c1.039 0.132 2.16 0.156 3.359 0.078-1.734-0.293-3.465-0.774-5.199-1.442-1.946-0.773-3.465-1.652-4.559-2.636-0.562-0.59-1.015-1.11-1.363-1.563l0.641 1.121z" inkscape:connector-curvature="0"/>
                      <path id="path302" style="fill-rule:evenodd;fill:#d4a664" d="m24.297 8.039-0.438 0.039c-2.453 0-5-0.601-7.64-1.801-1.145-0.507-2.574-1.238-4.281-2.199-1.946-1.094-3.586-1.906-4.918-2.441l-0.961-0.399-1.602 0.2 2.281 0.96c1.625 0.692 3.215 1.493 4.762 2.399 1.812 0.988 3.266 1.734 4.359 2.242 2.852 1.254 5.614 1.863 8.282 1.84l0.156-0.84z" inkscape:connector-curvature="0"/>
                      <path id="path304" style="fill-rule:evenodd;fill:#d4a664" d="m16.938 0.598-2.797-0.039c0.183 0.132 0.531 0.265 1.039 0.398 2.293 0.586 5.558 2 9.8 4.242l0.317-0.722c-3.172-1.758-5.957-3.051-8.359-3.879z" inkscape:connector-curvature="0"/>
                      <path id="path306" style="fill-rule:evenodd;fill:#d4a664" d="m3.457 13.117-0.039 1.16c1.281 1.309 2.867 2.586 4.762 3.84 4.027 2.641 8.117 4.039 12.277 4.199l0.84-0.519 0.281-0.277h-0.32c-4.293 0-8.504-1.364-12.641-4.082-2.105-1.415-3.824-2.852-5.16-4.321z" inkscape:connector-curvature="0"/>
                      <path id="path308" style="fill-rule:evenodd;fill:#d4a664" d="m10.18 20.758c-1.547-0.586-2.922-1.453-4.121-2.602-0.852-0.797-1.735-1.863-2.641-3.199 0 0.508 0.121 1.148 0.359 1.922 1.762 2.211 3.801 3.773 6.121 4.68 2.426 0.961 5.067 1.546 7.922 1.757 0.852-0.238 1.598-0.504 2.239-0.796h-0.762c-3.117 0-6.156-0.59-9.117-1.762z" inkscape:connector-curvature="0"/>
                      <path id="path310" style="fill-rule:evenodd;fill:#d4a664" d="m23.938 14.797c-0.692 0.426-1.481 0.641-2.36 0.641-1.707 0-4.348-0.895-7.918-2.68-1.574-0.801-3.855-2.188-6.84-4.16-2-1.282-3.386-2.145-4.16-2.602l0.32 1.121 3.36 2.199c3.117 2.028 5.426 3.414 6.918 4.161 3.789 1.867 6.562 2.8 8.32 2.8 0.774 0 1.547-0.172 2.32-0.519l0.082-0.961h-0.042z" inkscape:connector-curvature="0"/>
                    </g>
                  </g>
                </g>
              </g>
            </g>
          </g>
        </g>
      </g>
      <g id="g312">
        <g id="g328" mask="url(#mask320)">
          <g id="g340">
            <g id="g342" clip-path="url(#clipPath332)">
              <g id="g344" transform="translate(0 -.55524)">
                <g id="g348">
                  <g id="g350" clip-path="url(#clipPath336)">
                    <g id="g352">
                      <path id="path354" style="fill-rule:evenodd;fill:#6b421b" d="m11.34 9.836c0.023-0.984-0.227-1.438-0.762-1.359-0.531 0.082-0.824 0.558-0.879 1.441-0.054 0.879 0.16 1.332 0.641 1.359 0.64 0.028 0.972-0.453 1-1.441z" inkscape:connector-curvature="0"/>
                    </g>
                  </g>
                </g>
              </g>
            </g>
          </g>
        </g>
      </g>
      <g id="g356">
        <g id="g372" mask="url(#mask364)">
          <g id="g384">
            <g id="g386" clip-path="url(#clipPath376)">
              <g id="g388" transform="translate(0 -.55524)">
                <g id="g392">
                  <g id="g394" clip-path="url(#clipPath380)">
                    <g id="g396">
                      <path id="path398" style="fill-rule:evenodd;fill:#6b421b" d="m14.82 9.68c0.051-0.989-0.175-1.457-0.683-1.403-0.504 0.028-0.774 0.469-0.797 1.321-0.028 0.828 0.199 1.293 0.68 1.398 0.503 0.082 0.773-0.359 0.8-1.316z" inkscape:connector-curvature="0"/>
                    </g>
                  </g>
                </g>
              </g>
            </g>
          </g>
        </g>
      </g>
      <g id="g400">
        <g id="g416" mask="url(#mask408)">
          <g id="g428">
            <g id="g430" clip-path="url(#clipPath420)">
              <g id="g432" transform="translate(0 -.55524)">
                <g id="g436">
                  <g id="g438" clip-path="url(#clipPath424)">
                    <g id="g440">
                      <path id="path442" style="fill-rule:evenodd;fill:#6b421b" d="m7.617 12.879c0.055-0.508 0.363-0.68 0.922-0.52 0.852 0.239 1.227 0.637 1.121 1.2-0.137 0.558-0.629 0.664-1.48 0.32-0.426-0.16-0.614-0.496-0.563-1zm8.922-4.723c0.508 1.043 0.399 1.973-0.32 2.801-0.934 1.066-2.719 1.508-5.36 1.32-1.254-0.078-2.171-0.64-2.761-1.679-0.641-1.067-0.293-1.973 1.039-2.719 1.441-0.774 2.949-1.121 4.523-1.043 1.543 0.082 2.504 0.523 2.879 1.32zm-1.199 5.442c-0.32-0.426-0.176-0.801 0.437-1.121 0.828-0.426 1.426-0.399 1.801 0.082 0.375 0.453 0.055 0.894-0.961 1.32-0.531 0.238-0.957 0.144-1.277-0.281zm3.879 2.121-1-0.242c0.133-0.372 0.199-0.719 0.199-1.039l0.121-0.918 0.598-0.684c0.402-0.637 0.59-1.465 0.562-2.477-0.027-1.281-0.453-2.32-1.281-3.121-0.906-0.879-2.16-1.308-3.758-1.281-1.867 0.055-3.547 0.32-5.043 0.801-1.703 0.558-2.824 1.332-3.359 2.32-0.504 0.934-0.68 1.906-0.52 2.918 0.106 0.801 0.387 1.496 0.84 2.082-0.055 0.188-0.094 0.559-0.121 1.121l-0.078 0.797c-1.016-0.023-1.375 0.176-1.082 0.602 0.215 0.32 0.562 0.507 1.043 0.558 0.531 0.055 1.012-0.066 1.437-0.359 0.641-0.426 1-0.84 1.082-1.238 1.332 0.371 2.692 0.503 4.079 0.398 1.386-0.133 2.281-0.277 2.679-0.437l0.84 0.718c0.668 0.453 1.231 0.692 1.68 0.719 0.695 0 1.109-0.199 1.242-0.598 0.133-0.347 0.078-0.562-0.16-0.64z" inkscape:connector-curvature="0"/>
                    </g>
                  </g>
                </g>
              </g>
            </g>
          </g>
        </g>
      </g>
      <g id="g444">
        <g id="g460" mask="url(#mask452)">
          <g id="g540">
            <g id="g542" clip-path="url(#clipPath464)">
              <g id="g544" transform="translate(0 -.55524)">
                <g id="g548">
                  <g id="g550" clip-path="url(#clipPath468)">
                    <g id="g552">
                      <g id="g554">
                        <g id="g558" mask="url(#mask480)">
                          <g id="g562">
                            <g id="g564" clip-path="url(#clipPath498)">
                              <g id="g566">
                                <g id="g570">
                                  <g id="g572" clip-path="url(#clipPath502)">
                                    <g id="g574">
                                      <path id="path576" style="fill-rule:evenodd;fill:#875f23" d="m22.02 19.918c0.398-0.535 0.585-0.879 0.558-1.039 0-0.027-0.16-0.254-0.48-0.68-0.184-0.242-0.414-0.562-0.68-0.961-0.238-0.293-0.48-0.519-0.719-0.679-0.828-0.723-1.734-0.586-2.719 0.398-0.562 0.563-1.093 1.68-1.601 3.359l0.078-0.757c0.082-1.067 0.109-1.629 0.082-1.68-0.082-0.133-0.601-0.027-1.559 0.32-0.906 0.293-1.441 0.774-1.601 1.438-0.027 0.109-0.039 0.722-0.039 1.84 0 0.695 0.078 1.468 0.238 2.32 1.813 0.082 3.613-0.199 5.402-0.84 0.958-0.504 1.637-1.027 2.04-1.559 0.238-0.32 0.574-0.812 1-1.48z" inkscape:connector-curvature="0"/>
                                    </g>
                                  </g>
                                </g>
                              </g>
                            </g>
                          </g>
                        </g>
                      </g>
                      <g id="g578">
                        <g id="g582" mask="url(#mask514)">
                          <g id="g586">
                            <g id="g588" clip-path="url(#clipPath532)">
                              <g id="g590">
                                <g id="g594">
                                  <g id="g596" clip-path="url(#clipPath536)">
                                    <g id="g598">
                                      <path id="path600" style="fill-rule:evenodd;fill:#875e22" d="m11.578 23.598 1.281 0.16-0.64-0.641c-0.426-0.504-1.055-1-1.879-1.48-0.906-0.481-1.656-0.719-2.242-0.719-0.559 0-0.504 0.227 0.16 0.68 0.695 0.48 1.336 0.761 1.922 0.84 0.371 0.027 0.664 0.16 0.879 0.402 0.132 0.133 0.304 0.383 0.519 0.758z" inkscape:connector-curvature="0"/>
                                    </g>
                                  </g>
                                </g>
                              </g>
                            </g>
                          </g>
                        </g>
                      </g>
                    </g>
                  </g>
                </g>
              </g>
            </g>
          </g>
        </g>
      </g>
      <g id="g602">
        <g id="g618" mask="url(#mask610)">
          <g id="g630">
            <g id="g632" clip-path="url(#clipPath622)">
              <g id="g634" transform="translate(0 -.55524)">
                <g id="g638">
                  <g id="g640" clip-path="url(#clipPath626)">
                    <g id="g642">
                      <path id="path644" style="fill-rule:evenodd;fill:#87642f" d="m21.297 21.797c0.562-0.481 1.137-1.414 1.723-2.801 0.531-1.25 0.812-2.184 0.839-2.797 0.028-0.375 0.079-1.148 0.161-2.32 0.05-1.121 0.039-1.977-0.04-2.563-0.109-0.664 0.024-1.918 0.399-3.757 0.348-1.789 0.668-2.829 0.961-3.121 0.348-0.399 0.707-0.895 1.078-1.481 0.082-0.078 0.309-0.266 0.68-0.559 0.16-0.16 0.214-0.293 0.16-0.402-0.106-0.238-1.078-0.41-2.918-0.519-0.641-0.024-1.586-0.145-2.84-0.36-1.387-0.215-2.613-0.359-3.68-0.437-2.75-0.215-5.789-0.149-9.121 0.199-2.347 0.344-4.015 0.559-5 0.641-2.187 0.183-3.387 0.332-3.601 0.437-0.133 0.082-0.106 0.242 0.082 0.481 0.183 0.242 0.492 0.492 0.918 0.761 0.375 0.239 0.64 0.465 0.8 0.68 0.188 0.293 0.305 0.465 0.36 0.519 0.133 0.106 0.215 0.254 0.242 0.438 0.023 0.269 0.051 0.508 0.078 0.723 0.695-0.696 2.402-1.188 5.121-1.481 5.332-0.613 8.664-0.398 10 0.641 1.973 1.574 2.961 4.066 2.961 7.48 0 1.891-0.32 3.68-0.961 5.36-0.347 0.879-0.961 2.066-1.84 3.558l-1.441 2.481c2.187-0.348 3.812-0.946 4.879-1.801z" inkscape:connector-curvature="0"/>
                    </g>
                  </g>
                </g>
              </g>
            </g>
          </g>
        </g>
      </g>
      <g id="g646">
        <g id="g662" mask="url(#mask654)">
          <g id="g674">
            <g id="g676" clip-path="url(#clipPath666)">
              <g id="g678" transform="translate(0 -.55524)">
                <g id="g682">
                  <g id="g684" clip-path="url(#clipPath670)">
                    <g id="g686">
                      <path id="path688" style="fill-rule:evenodd;fill:#6e5127" d="m22.379 14.758c-0.106 1.304-0.535 2.719-1.281 4.238-0.692 1.442-1.36 2.348-2 2.723-0.746 0.558-1.293 0.961-1.641 1.199-0.586 0.375-1.172 0.535-1.758 0.48-0.586-0.082-1.308-0.066-2.16 0.04-0.828 0.132-1.32 0.214-1.48 0.242 1.839 0.265 3.734 0.144 5.679-0.364 1.574-0.398 2.762-0.906 3.559-1.519 0.562-0.481 1.137-1.414 1.723-2.801 0.531-1.25 0.812-2.184 0.839-2.797 0.028-0.375 0.079-1.148 0.161-2.32 0.05-1.121 0.039-1.977-0.04-2.563-0.109-0.664 0.024-1.918 0.399-3.757 0.348-1.789 0.668-2.829 0.961-3.121 0.348-0.399 0.707-0.895 1.078-1.481 0.082-0.078 0.309-0.266 0.68-0.559 0.16-0.16 0.214-0.293 0.16-0.402-0.106-0.238-1.078-0.41-2.918-0.519-0.641-0.024-1.586-0.145-2.84-0.36-1.387-0.215-2.613-0.359-3.68-0.437-2.75-0.215-5.789-0.149-9.121 0.199-2.347 0.344-4.015 0.559-5 0.641-2.187 0.183-3.387 0.332-3.601 0.437-0.133 0.082-0.106 0.242 0.082 0.481 0.183 0.242 0.492 0.492 0.918 0.761 0.375 0.239 0.629 0.465 0.761 0.68 0.211 0.293 0.348 0.465 0.399 0.519 0.402-0.64 0.707-1.027 0.922-1.16 0.425-0.265 1.343-0.508 2.758-0.718 2.402-0.321 4.292-0.524 5.679-0.602 2.188-0.133 3.961-0.066 5.321 0.199 2.214 0.426 3.414 0.695 3.601 0.801 0.852 0.453 1.399 1.559 1.641 3.32 0.238 1.867 0.371 3.442 0.398 4.719 0 0.988-0.066 2.254-0.199 3.801z" inkscape:connector-curvature="0"/>
                    </g>
                  </g>
                </g>
              </g>
            </g>
          </g>
        </g>
      </g>
      <g id="g690">
        <g id="g706" mask="url(#mask698)">
          <g id="g718">
            <g id="g720" clip-path="url(#clipPath710)">
              <g id="g722" transform="translate(0 -.55524)">
                <g id="g726">
                  <g id="g728" clip-path="url(#clipPath714)">
                    <g id="g730">
                      <path id="path732" style="fill-rule:evenodd;fill:#6e5127" d="m26.418 2.957c0.082-0.078 0.309-0.266 0.68-0.559 0.16-0.16 0.214-0.293 0.16-0.402-0.106-0.238-1.078-0.41-2.918-0.519-0.641-0.024-1.586-0.145-2.84-0.36-1.387-0.215-2.613-0.359-3.68-0.437-2.75-0.215-5.789-0.149-9.121 0.199-2.347 0.344-4.015 0.559-5 0.641-2.187 0.183-3.387 0.332-3.601 0.437-0.211 0.133-0.078 0.402 0.402 0.801 0.559-0.399 1.773-0.653 3.637-0.762 0.16 0 1.629-0.172 4.402-0.519 2.293-0.266 3.895-0.387 4.801-0.36 2.453 0.133 3.707 0.199 3.758 0.199 1.574 0.137 3.015 0.364 4.32 0.68 1.039 0.27 2.133 0.414 3.281 0.442 0.692 0 1.094 0.105 1.199 0.32l0.239 0.601 0.281-0.402z" inkscape:connector-curvature="0"/>
                    </g>
                  </g>
                </g>
              </g>
            </g>
          </g>
        </g>
      </g>
      <g id="g734">
        <g id="g750" mask="url(#mask742)">
          <g id="g762">
            <g id="g764" clip-path="url(#clipPath754)">
              <g id="g766" transform="translate(0 -.55524)">
                <g id="g770">
                  <g id="g772" clip-path="url(#clipPath758)">
                    <g id="g774">
                      <path id="path776" style="fill-rule:evenodd;fill:#e8b86f" d="m13.5 18.359c0.371-0.429 0.773-0.8 1.199-1.121 0.348-0.265 0.426-0.734 0.239-1.402-0.106-0.371-0.36-1.012-0.758-1.918-0.508-1.281-0.895-2.148-1.16-2.602-0.668-1.171-1.52-2.05-2.563-2.636-1.012-0.563-2.039-0.575-3.078-0.043-0.399 0.215-1.039 0.707-1.922 1.48-0.344 0.293-0.531 0.961-0.559 2 0.055 1.227 0.067 2.106 0.04 2.641-0.079 0.906 0.015 1.719 0.281 2.441 0.32 0.906 0.84 1.492 1.558 1.758 0.426 0.188 1.149 0.414 2.161 0.68 0.828 0.215 1.507 0.468 2.042 0.761 0.504 0.293 0.946 0.293 1.317 0 0.297-0.214 0.48-0.519 0.562-0.921 0.028-0.293 0.239-0.665 0.641-1.118z" inkscape:connector-curvature="0"/>
                    </g>
                  </g>
                </g>
              </g>
            </g>
          </g>
        </g>
      </g>
      <g id="g778">
        <g id="g794" mask="url(#mask786)">
          <g id="g806">
            <g id="g808" clip-path="url(#clipPath798)">
              <g id="g810" transform="translate(0 -.55524)">
                <g id="g814">
                  <g id="g816" clip-path="url(#clipPath802)">
                    <g id="g818">
                      <path id="path820" style="fill-rule:evenodd;fill:#e8b86f" d="m15.219 31.879c-0.082-0.375-0.281-0.883-0.602-1.524-0.504-2.238-0.957-3.425-1.359-3.558-0.293-0.106-0.52 0.519-0.68 1.879-0.16 1.226-0.199 2.242-0.121 3.043 0.055 0.558 0.227 0.89 0.523 1l1.317 0.078c0.773 0.055 1.082-0.254 0.922-0.918z" inkscape:connector-curvature="0"/>
                    </g>
                  </g>
                </g>
              </g>
            </g>
          </g>
        </g>
      </g>
      <g id="g822">
        <g id="g838" mask="url(#mask830)">
          <g id="g850">
            <g id="g852" clip-path="url(#clipPath842)">
              <g id="g854" transform="translate(0 -.55524)">
                <g id="g858">
                  <g id="g860" clip-path="url(#clipPath846)">
                    <g id="g862">
                      <path id="path864" style="fill-rule:evenodd;fill:#e8b86f" d="m19.5 30.277c-0.188-0.398-0.496-0.851-0.922-1.359-0.266-0.348-0.332-0.082-0.199 0.801 0.105 0.824 0.348 1.265 0.719 1.32 0.562 0.078 0.695-0.176 0.402-0.762z" inkscape:connector-curvature="0"/>
                    </g>
                  </g>
                </g>
              </g>
            </g>
          </g>
        </g>
      </g>
      <g id="g866">
        <g id="g868">
          <g id="g874">
            <path id="path882" style="fill-rule:evenodd;fill:url(#linearGradient876)" d="m18.578 23.882c-0.266-0.051-0.691-0.332-1.281-0.84-0.453-0.375-0.758-0.441-0.918-0.199-0.242 0.344-0.254 0.68-0.039 1 0.238 0.371 0.746 0.641 1.519 0.801 0.559 0.105 1.239 0.199 2.039 0.277 0.641 0.11 1.211 0.336 1.719 0.68 0.801 0.586 1.375 0.789 1.723 0.602 0.637-0.559 0.785-0.934 0.437-1.122l-0.519-0.238c-0.293 0.399-0.758 0.36-1.399-0.121-0.402-0.293-0.949-0.492-1.64-0.601-0.774-0.106-1.321-0.184-1.641-0.239z" inkscape:connector-curvature="0"/>
          </g>
        </g>
      </g>
      <g id="g884">
        <g id="g886">
          <g id="g892">
            <path id="path900" style="fill-rule:evenodd;fill:url(#linearGradient894)" d="m16.938 23.441c-0.028-0.106-0.094-0.254-0.2-0.438 0-0.562 0.254-1.402 0.762-2.519 0.664-1.363 1.426-1.906 2.277-1.641 0.375 0.106 0.426 0.438 0.161 1-0.426 0.641-0.708 1.078-0.84 1.321-0.106 0.183-0.453 0.558-1.039 1.117-0.508 0.48-0.774 0.84-0.801 1.082-0.028 0.265 0.121 0.32 0.441 0.16 0.106-0.055 0.453-0.254 1.039-0.602 0.668-0.425 1.586-1.332 2.762-2.718 1.094-1.227 0.52-2.239-1.723-3.039-0.851-0.293-1.664 0.132-2.437 1.277-0.188 0.297-0.652 1.226-1.402 2.801-0.293 0.668-0.344 1.281-0.161 1.839 0.188 0.508 0.481 0.735 0.883 0.68 0.266-0.023 0.36-0.133 0.278-0.32z" inkscape:connector-curvature="0"/>
          </g>
        </g>
      </g>
    </g>
  </g>
<metadata><rdf:RDF><cc:Work><dc:format>image/svg+xml</dc:format><dc:type rdf:resource="http://purl.org/dc/dcmitype/StillImage"/><cc:license rdf:resource="http://creativecommons.org/licenses/publicdomain/"/><dc:publisher><cc:Agent rdf:about="http://openclipart.org/"><dc:title>Openclipart</dc:title></cc:Agent></dc:publisher></cc:Work><cc:License rdf:about="http://creativecommons.org/licenses/publicdomain/"><cc:permits rdf:resource="http://creativecommons.org/ns#Reproduction"/><cc:permits rdf:resource="http://creativecommons.org/ns#Distribution"/><cc:permits rdf:resource="http://creativecommons.org/ns#DerivativeWorks"/></cc:License></rdf:RDF></metadata></svg>
