<?xml version="1.0" encoding="UTF-8" standalone="no"?>
<svg
   xmlns:dc="http://purl.org/dc/elements/1.1/"
   xmlns:cc="http://creativecommons.org/ns#"
   xmlns:rdf="http://www.w3.org/1999/02/22-rdf-syntax-ns#"
   xmlns:svg="http://www.w3.org/2000/svg"
   xmlns="http://www.w3.org/2000/svg"
   xmlns:sodipodi="http://sodipodi.sourceforge.net/DTD/sodipodi-0.dtd"
   xmlns:inkscape="http://www.inkscape.org/namespaces/inkscape"
   width="1288pt"
   height="1179pt"
   viewBox="0 0 1288 1179"
   version="1.1"
   id="svg4136"
   inkscape:version="0.91 r13725"
   sodipodi:docname="AstroSymbols.svg">
  <metadata
     id="metadata4168">
    <rdf:RDF>
      <cc:Work
         rdf:about="">
        <dc:format>image/svg+xml</dc:format>
        <dc:type
           rdf:resource="http://purl.org/dc/dcmitype/StillImage" />
      </cc:Work>
    </rdf:RDF>
  </metadata>
  <defs
     id="defs4166" />
  <sodipodi:namedview
     pagecolor="#ffffff"
     bordercolor="#666666"
     borderopacity="1"
     objecttolerance="10"
     gridtolerance="10"
     guidetolerance="10"
     inkscape:pageopacity="0"
     inkscape:pageshadow="2"
     inkscape:window-width="1600"
     inkscape:window-height="837"
     id="namedview4164"
     showgrid="false"
     inkscape:zoom="0.45462256"
     inkscape:cx="805"
     inkscape:cy="736.875"
     inkscape:window-x="-8"
     inkscape:window-y="-8"
     inkscape:window-maximized="1"
     inkscape:current-layer="svg4136" />
  <g
     id="g4178">
    <path
       id="path4138"
       d=" M 1116.75 0.00 L 1139.25 0.00 C 1192.83 3.98 1243.45 35.51 1268.98 83.00 C 1278.94 101.88 1285.03 122.63 1288.00 143.73 L 1288.00 178.28 C 1285.08 195.27 1281.51 212.43 1274.09 228.11 C 1249.14 284.46 1188.82 323.42 1127.00 321.00 C 1067.09 322.91 1008.51 285.83 983.23 231.74 C 967.81 200.79 963.50 164.64 969.66 130.70 C 981.34 60.02 1045.49 3.97 1116.75 0.00 M 1000.96 145.87 C 1036.94 146.17 1072.95 145.92 1108.94 145.99 C 1111.35 146.45 1112.35 144.02 1112.04 142.01 C 1111.86 105.99 1112.21 69.96 1111.86 33.95 C 1055.41 40.28 1006.55 89.27 1000.96 145.87 M 1144.12 33.99 C 1143.91 71.28 1143.93 108.60 1144.11 145.89 C 1181.01 146.14 1217.93 145.96 1254.84 145.97 C 1248.60 89.41 1200.69 40.65 1144.12 33.99 M 1001.02 178.10 C 1008.26 233.87 1056.07 281.25 1111.97 287.84 C 1111.97 251.26 1112.13 214.68 1111.89 178.11 C 1074.94 177.91 1037.97 177.94 1001.02 178.10 M 1144.11 178.11 C 1143.81 214.63 1144.14 251.17 1143.95 287.70 C 1199.34 281.01 1247.77 233.78 1254.04 178.13 C 1217.40 177.90 1180.75 177.94 1144.11 178.11 Z"
       opacity="1.00"
       stroke-width="0.09375"
       stroke="#000000"
       fill="#000000" />
    <path
       id="path4140"
       d=" M 549.31 1.10 C 573.63 4.56 583.16 39.19 571.10 59.09 C 600.70 96.78 599.20 155.89 565.31 190.33 C 551.08 206.82 530.38 216.51 509.20 220.34 C 508.79 230.18 508.95 240.05 509.11 249.89 C 529.59 250.37 550.15 249.52 570.61 250.27 C 575.63 254.69 571.86 263.00 573.01 269.00 C 572.47 273.35 575.32 281.22 568.80 281.81 C 548.92 282.37 529.00 281.69 509.11 282.11 C 508.27 294.09 510.14 306.64 508.29 318.28 C 498.23 319.51 486.76 319.51 476.72 318.29 C 474.86 306.63 476.73 294.09 475.89 282.11 C 455.88 281.38 435.54 282.98 415.71 281.35 C 412.83 272.42 412.83 259.58 415.71 250.65 C 435.53 249.01 455.88 250.63 475.89 249.89 C 476.05 240.05 476.21 230.18 475.80 220.35 C 456.26 216.90 436.96 208.31 423.20 193.78 C 386.33 160.43 382.80 98.07 413.98 59.77 C 403.87 40.90 408.89 14.35 428.00 2.98 C 435.39 -0.87 439.51 9.13 443.26 13.77 C 449.15 19.38 452.06 29.13 443.84 34.14 C 474.03 18.27 512.39 17.59 542.08 35.03 C 526.50 25.27 542.28 10.94 549.31 1.10 M 484.39 55.37 C 446.67 59.93 417.42 100.17 427.55 137.42 C 434.18 163.50 457.10 184.47 483.84 188.22 C 523.71 194.54 563.41 157.16 559.23 116.92 C 557.16 80.42 520.61 50.37 484.39 55.37 Z"
       opacity="1.00"
       stroke-width="0.09375"
       stroke="#000000"
       fill="#000000" />
    <path
       id="path4144"
       d=" M 692.73 49.75 C 724.33 -0.84 799.96 -13.28 846.75 23.24 C 877.67 45.71 893.45 86.25 887.77 123.84 C 882.68 169.71 843.91 208.49 798.20 214.34 C 798.21 225.57 797.12 237.38 798.71 248.28 C 821.43 250.48 845.57 247.52 868.28 249.71 C 869.52 259.43 869.51 270.57 868.28 280.29 C 845.30 282.07 821.43 280.34 798.11 281.11 C 797.28 294.43 799.13 308.30 797.28 321.28 C 787.57 322.52 776.42 322.52 766.71 321.28 C 764.87 308.29 766.72 294.43 765.89 281.11 C 743.24 280.34 720.04 282.07 697.72 280.29 C 696.48 270.57 696.48 259.43 697.71 249.71 C 720.03 247.93 743.24 249.67 765.89 248.89 C 766.05 237.37 766.20 225.82 765.81 214.30 C 730.24 209.21 698.11 184.84 684.32 151.65 C 670.27 118.98 673.66 79.73 692.73 49.75 M 773.39 35.39 C 739.83 39.46 711.35 69.09 708.69 102.81 C 703.66 148.50 750.03 191.43 795.28 181.27 C 843.27 173.88 873.38 112.71 845.50 71.48 C 831.22 46.83 801.81 31.65 773.39 35.39 Z"
       opacity="1.00"
       stroke-width="0.09375"
       stroke="#000000"
       fill="#000000" />
    <g
       id="g4170">
      <path
         fill="#000000"
         stroke="#000000"
         stroke-width="0.09375"
         opacity="1.00"
         d=" M 77.16 23.13 C 137.58 -13.09 222.60 -2.87 270.82 49.17 C 320.29 97.96 328.98 181.01 293.08 240.08 C 266.75 285.51 215.70 316.07 163.00 316.03 C 121.57 318.68 79.72 302.69 49.58 274.44 C 20.20 247.12 2.62 208.18 0.00 168.24 L 0.00 149.75 C 3.49 98.44 31.98 48.63 77.16 23.13 M 150.42 34.41 C 124.60 36.19 99.38 45.90 79.42 62.42 C 41.37 92.81 23.02 147.02 38.09 193.89 C 51.55 241.74 96.30 278.89 145.82 283.28 C 208.06 290.70 270.01 242.68 280.24 181.27 C 288.28 140.70 273.24 96.93 243.00 68.99 C 218.57 45.63 184.28 32.34 150.42 34.41 Z"
         id="path4142" />
      <path
         fill="#000000"
         stroke="#000000"
         stroke-width="0.09375"
         opacity="1.00"
         d=" M 152.39 116.35 C 183.84 110.59 209.99 145.77 197.70 174.66 C 187.43 207.53 136.50 211.64 120.50 181.47 C 104.97 156.17 121.37 117.84 152.39 116.35 Z"
         id="path4146" />
    </g>
    <path
       id="path4148"
       d=" M 279.02 452.23 C 305.88 442.94 331.95 428.47 359.97 424.03 C 360.46 428.70 359.63 433.41 357.67 437.67 C 348.44 459.86 341.59 483.08 331.77 504.98 C 323.42 507.24 320.19 497.78 314.26 494.20 C 300.81 508.14 286.22 521.08 273.97 536.10 C 290.09 559.61 301.03 587.97 299.00 617.00 C 300.33 670.59 262.36 721.68 211.27 737.23 C 164.00 752.60 107.56 739.15 74.82 701.16 C 44.02 667.16 34.06 616.32 49.06 573.11 C 63.37 526.84 107.07 492.20 155.02 487.09 C 187.95 482.93 222.66 491.87 249.10 512.07 C 262.32 497.68 276.73 484.25 290.15 470.00 C 286.35 464.06 276.84 460.67 279.02 452.23 M 160.41 519.39 C 102.68 524.78 59.56 589.15 79.60 644.40 C 91.84 679.69 125.08 707.41 162.71 710.38 C 211.90 715.68 260.34 675.92 265.93 626.93 C 275.48 568.19 219.28 511.27 160.41 519.39 Z"
       opacity="1.00"
       stroke-width="0.09375"
       stroke="#000000"
       fill="#000000" />
    <path
       id="path4150"
       d=" M 431.71 460.70 C 454.25 427.34 502.84 418.13 537.85 436.13 C 583.83 462.96 594.10 524.93 580.83 572.82 C 571.19 609.69 547.98 640.97 521.92 667.97 C 546.24 667.97 570.57 668.13 594.89 667.89 C 595.10 589.59 595.02 511.27 594.93 432.96 C 593.02 426.02 600.38 426.57 605.00 426.97 C 612.21 428.94 628.85 421.64 627.07 433.97 C 626.98 511.94 626.90 589.92 627.11 667.89 C 646.09 668.68 665.63 666.91 684.28 668.72 C 685.52 678.76 685.50 690.22 684.29 700.30 C 665.62 702.08 646.10 700.33 627.11 701.11 C 626.03 715.59 628.66 730.87 625.87 744.87 C 616.82 747.03 605.92 746.28 596.74 745.27 C 592.61 731.37 596.31 715.69 594.89 701.11 C 541.29 700.84 487.67 701.09 434.06 700.99 C 429.51 701.20 430.93 695.33 431.30 692.49 C 461.52 674.27 491.08 654.10 513.66 626.65 C 536.35 600.22 553.69 567.00 553.56 531.46 C 552.49 509.66 546.68 486.30 529.55 471.44 C 507.15 449.97 466.09 460.29 454.41 488.40 C 451.13 493.77 456.07 503.02 448.38 505.39 C 440.37 507.99 432.80 516.57 423.94 513.08 C 415.58 496.30 421.31 475.37 431.71 460.70 Z"
       opacity="1.00"
       stroke-width="0.09375"
       stroke="#000000"
       fill="#000000" />
    <path
       id="path4152"
       d=" M 764.71 428.71 C 792.18 426.74 820.69 426.58 848.29 428.65 C 851.50 437.47 850.52 449.32 848.74 458.70 C 841.50 461.93 832.15 458.88 824.11 460.11 C 823.86 499.40 824.06 538.69 824.01 577.98 C 847.88 564.28 875.29 553.27 903.31 556.60 C 951.61 561.88 982.93 621.04 961.38 664.36 C 951.40 690.27 936.34 713.69 922.80 737.80 C 916.03 749.65 915.91 766.02 925.69 776.29 C 931.86 783.17 923.10 790.82 919.51 796.67 C 911.44 796.14 899.91 800.60 894.95 792.04 C 883.18 772.78 883.02 747.57 890.89 726.86 C 906.09 696.67 927.46 668.85 935.64 635.59 C 935.63 615.12 920.08 593.79 899.77 589.25 C 871.78 587.15 846.11 602.63 824.17 618.29 C 823.63 660.40 824.38 702.57 823.81 744.66 C 814.41 746.92 801.59 746.93 792.20 744.67 C 791.10 649.85 793.46 554.86 790.90 460.11 C 782.17 458.85 772.10 461.98 764.19 458.67 C 764.18 448.78 763.14 438.28 764.71 428.71 Z"
       opacity="1.00"
       stroke-width="0.09375"
       stroke="#000000"
       fill="#000000" />
    <g
       id="g4174">
      <path
         fill="#000000"
         stroke="#000000"
         stroke-width="0.09375"
         opacity="1.00"
         d=" M 1153.49 438.46 C 1155.19 433.60 1158.66 425.92 1165.03 429.92 C 1173.52 449.34 1183.23 468.38 1190.99 488.12 C 1193.28 496.53 1182.95 493.48 1178.11 494.09 C 1177.97 508.96 1177.80 523.85 1178.19 538.71 C 1228.71 545.16 1270.79 592.62 1267.99 644.00 C 1270.60 691.32 1235.20 736.82 1189.21 747.24 C 1149.05 757.47 1103.15 743.63 1078.02 709.95 C 1043.74 667.48 1050.12 598.99 1091.60 563.62 C 1106.81 550.17 1126.01 542.37 1145.79 538.66 C 1146.32 525.12 1145.82 511.55 1146.04 497.99 C 1146.17 490.86 1136.50 495.21 1132.06 493.91 C 1133.15 474.01 1147.48 457.30 1153.49 438.46 M 1160.45 570.41 C 1136.40 571.46 1112.69 584.45 1100.26 605.29 C 1085.26 627.40 1084.54 658.44 1099.00 681.00 C 1112.50 703.95 1139.07 719.50 1165.95 717.91 C 1206.50 715.99 1241.00 676.20 1235.38 635.69 C 1231.22 599.37 1197.06 569.47 1160.45 570.41 Z"
         id="path4154" />
      <path
         fill="#000000"
         stroke="#000000"
         stroke-width="0.09375"
         opacity="1.00"
         d=" M 1155.44 620.47 C 1177.10 613.44 1194.25 638.79 1183.42 657.40 C 1175.89 671.67 1152.05 671.97 1142.57 659.42 C 1132.38 646.59 1138.71 623.98 1155.44 620.47 Z"
         id="path4156" />
    </g>
    <path
       id="path4158"
       d=" M 925.95 884.94 C 969.28 855.28 1026.85 850.71 1075.80 868.20 C 1082.10 870.21 1099.20 871.44 1092.23 881.21 C 1030.58 887.10 976.97 938.10 968.56 999.56 C 957.35 1067.56 1006.45 1137.70 1073.17 1152.88 C 1079.74 1154.52 1086.63 1154.81 1092.99 1157.28 C 1093.08 1159.39 1093.06 1161.52 1092.91 1163.64 C 1073.93 1170.48 1054.23 1175.77 1034.27 1179.00 L 996.71 1179.00 C 961.26 1173.80 926.39 1158.81 901.61 1132.40 C 863.07 1094.87 847.11 1036.85 858.57 984.57 C 866.78 944.22 891.63 907.64 925.95 884.94 M 900.30 964.32 C 877.39 1009.87 886.77 1069.18 922.57 1105.43 C 941.00 1125.70 966.29 1140.34 993.52 1144.66 C 953.39 1112.04 930.13 1058.72 935.01 1007.00 C 937.08 962.81 959.76 920.45 994.19 892.94 C 953.74 899.34 918.04 927.68 900.30 964.32 Z"
       opacity="1.00"
       stroke-width="0.09375"
       stroke="#000000"
       fill="#000000" />
    <path
       id="path4160"
       d=" M 554.00 865.99 C 553.71 857.21 564.69 860.88 570.15 859.25 C 602.41 858.62 634.72 859.23 667.00 858.95 C 701.34 858.86 735.11 878.31 751.29 908.70 C 769.62 941.69 766.56 984.91 744.26 1015.28 C 727.55 1038.12 699.81 1052.30 671.58 1053.59 C 643.07 1055.32 614.64 1051.87 586.11 1053.11 C 585.93 1084.02 585.92 1114.97 586.11 1145.89 C 641.04 1146.21 696.00 1145.82 750.94 1146.07 C 758.79 1146.66 755.28 1156.81 756.00 1162.00 C 755.27 1167.18 758.79 1177.34 750.94 1177.93 C 686.63 1178.12 622.31 1177.90 557.99 1178.04 C 555.98 1178.35 553.55 1177.35 554.01 1174.94 C 553.99 1071.96 554.01 968.97 554.00 865.99 M 586.11 891.11 C 585.93 934.36 585.92 977.64 586.11 1020.89 C 613.08 1021.18 640.05 1020.86 667.02 1021.04 C 698.48 1020.83 727.26 994.32 730.06 963.01 C 735.13 925.17 700.39 890.01 662.85 891.24 C 637.29 890.76 611.68 891.01 586.11 891.11 Z"
       opacity="1.00"
       stroke-width="0.09375"
       stroke="#000000"
       fill="#000000" />
    <path
       id="path4162"
       d=" M 214.32 865.03 C 223.68 862.42 225.01 873.93 228.09 879.94 C 234.53 898.35 248.24 915.16 249.72 934.63 C 244.55 935.25 239.34 934.85 234.15 935.14 C 234.78 960.85 231.34 987.12 237.68 1012.35 C 247.13 1041.87 272.87 1066.87 303.81 1072.10 C 304.15 1026.46 304.08 980.78 303.85 935.14 C 298.66 934.85 293.46 935.25 288.29 934.64 C 287.50 930.63 288.01 926.47 289.79 922.79 C 298.65 903.56 306.93 883.99 316.35 865.04 C 322.27 862.99 325.62 868.01 327.09 872.95 C 334.78 893.57 348.95 912.89 351.74 934.63 C 346.63 935.19 341.48 934.81 336.37 935.36 C 335.60 980.89 336.03 1026.51 336.16 1072.06 C 366.17 1067.17 391.08 1043.45 401.31 1015.32 C 409.25 989.37 405.03 961.82 405.85 935.14 C 400.68 934.85 395.49 935.24 390.34 934.65 C 388.24 927.34 392.75 920.86 395.54 914.49 C 403.57 898.23 410.02 881.17 418.37 865.11 C 420.76 864.81 423.18 864.82 425.57 865.18 C 434.80 884.83 443.39 904.79 452.51 924.50 C 453.99 927.66 454.36 931.19 453.74 934.62 C 448.63 935.19 443.48 934.81 438.37 935.35 C 437.48 955.21 438.22 975.14 438.05 995.02 C 437.02 1050.58 390.89 1099.33 336.20 1106.29 C 336.14 1106.93 336.04 1108.22 335.98 1108.86 C 357.18 1109.50 378.45 1108.34 399.63 1109.37 C 400.30 1120.09 400.29 1130.90 399.63 1141.62 C 378.51 1142.68 357.30 1141.47 336.16 1142.16 C 335.32 1154.42 336.96 1166.78 335.36 1179.00 L 304.64 1179.00 C 303.03 1166.78 304.68 1154.42 303.84 1142.16 C 283.04 1141.46 262.16 1142.69 241.38 1141.62 C 240.70 1130.91 240.71 1120.09 241.38 1109.38 C 262.22 1108.33 283.15 1109.51 304.01 1108.86 C 303.96 1108.21 303.86 1106.91 303.81 1106.27 C 249.33 1099.41 203.39 1051.39 201.96 996.04 C 201.76 975.81 202.52 955.55 201.63 935.36 C 196.53 934.81 191.40 935.18 186.30 934.64 C 185.45 930.35 186.04 925.90 188.02 922.00 C 197.10 903.16 204.71 883.58 214.32 865.03 Z"
       opacity="1.00"
       stroke-width="0.09375"
       stroke="#000000"
       fill="#000000" />
  </g>
</svg>
