<?xml version="1.0" encoding="UTF-8" standalone="no"?>
<svg id="svg7785" xmlns:rdf="http://www.w3.org/1999/02/22-rdf-syntax-ns#" xmlns="http://www.w3.org/2000/svg" height="97.033mm" width="230.86mm" version="1.1" xmlns:cc="http://creativecommons.org/ns#" xmlns:dc="http://purl.org/dc/elements/1.1/" viewBox="0 0 817.99997 343.81725">
<g id="layer1" transform="translate(3877.1 1577.6)">
<g id="g8690" fill-rule="evenodd">
<g stroke-linejoin="round" stroke="#000" stroke-linecap="round" stroke-width="7.9417px">
<path id="path8598" d="m-3402.8-1525.2c-25.622 25.548-44.653 63.459-78.293 76.72-46.752 18.506-84.362 16.633-134.48 21.053v107.81c49-26.747 76.12-64.582 131.19-73.274 30.119-4.7948 54.694 11.763 81.44 26.447l0.1487-158.76z" fill="#dec44f"/>
<path id="path8600" d="m-3379.6-1397.5h17.457c1.1989 11.463 7.4173 19.555 15.958 26.147-3.4462 0.9741-6.8177 1.9478-10.189 2.8469-11.988-6.4432-20.978-15.208-23.226-28.994z" fill="#dec44f"/>
<path id="path8602" d="m-3282.7-1449h137.18v28.47h-137.18v-28.47z" fill="#666"/>
</g>
<path id="path8604" d="m-3276.2-1436.9h124.37v6.3685h-124.37v-6.3685z" fill="#808080"/>
<path id="path8606" stroke-linejoin="round" d="m-3468.2-1556.2c8.6909-5.7689 17.382-11.613 26.073-17.382 14.61 23.601 29.744 34.764 40.982 11.238l18.356 0.1486c0 5.769-5.6939 13.261-5.6939 19.03-2.8473 3.3715-8.1667 15.134-11.014 18.581-26.821 5.3198-34.614-3.8957-45.552-27.272-5.7689 2.922-11.538 5.7689-17.382 8.6909 0 0-7.2672-13.037-5.7689-13.037z" stroke="#000" stroke-linecap="round" stroke-width="7.9417px" fill="#b3b3b3"/>
<path id="path8608" stroke-linejoin="round" d="m-3384.4-1562h97.699l38.21 12.962v100.77c-18.88 4.3453-32.89 15.959-32.366 26.073h-121.37v-113.13c12.962-8.9156 11.388-17.757 17.832-26.672z" stroke="#000" stroke-linecap="round" stroke-width="7.9417px" fill="#963"/>
<g stroke-linejoin="round" stroke="#000" stroke-linecap="round" stroke-width="7.9417px" fill="#dec44f">
<path id="path8610" d="m-3369.6-1544.7h49.973v97.474h-49.973c-21.953 0-39.858-21.878-39.858-48.699 0-26.822 17.905-48.774 39.858-48.774z"/>
<path id="path8612" d="m-3249.5-1548.3h155.39v99.497h-155.39v-99.497z"/>
<path id="path8614" d="m-3094.6-1548.3 31.468-21.952v141.6l-31.468-20.154v-99.497z"/>
</g>
<path id="path8616" d="m-3242.2-1534.4h140.85v22.177h-140.85v-22.177z" fill="#ff9"/>
<path id="path8618" d="m-3088.8-1542.7 19.854-13.711v31.317l-19.854 12.812v-30.418z" fill="#ff9"/>
<path id="path8620" stroke-linejoin="round" d="m-3249.5-1549.1h-31.691v104.59h31.691v-104.59z" stroke="#000" stroke-linecap="round" stroke-width="7.9417px" fill="#dec44f"/>
<path id="path8622" d="m-3276.6-1488.4h22.626v12.662h-22.626v-12.662z" fill="#ff9"/>
<path id="path8624" d="m-3276.6-1536.8h22.626v12.662h-22.626v-12.662z" fill="#ff9"/>
<g stroke-linejoin="round" stroke="#000" stroke-linecap="round" stroke-width="7.9417px" fill="#dec44f">
<path id="path8626" d="m-3281.4-1549.1h-75.147v104.59h75.147v-104.59z"/>
<path id="path8628" d="m-3371.1-1549.1h14.535v104.59h-14.535v-104.59z"/>
<path id="path8630" d="m-3281.4-1519h-75.147v44.354h75.147v-44.354z"/>
</g>
<path id="path8632" d="m-3346.2-1539.8h55.668v12.662h-55.668v-12.662z" fill="#ff9"/>
<path id="path8634" d="m-3346.2-1509.7h55.668v12.662h-55.668v-12.662z" fill="#ff9"/>
<path id="path8636" stroke-linejoin="round" d="m-3288.8-1375.2-47.051 26.598-65.857-16.183-1.1989-34.838v-19.63h121.75l-7.6421 44.054zm-99.797-22.176 87.435-1.2735 0.074 14.535-36.637 21.876-48.55-12.138-2.3224-23z" stroke="#000" stroke-linecap="round" stroke-width="7.9417px" fill="#dec44f"/>
<path id="path8638" stroke-linejoin="round" d="m-3191.7-1550.3h25.474v102.64h-25.474v-102.64z" stroke="#000" stroke-linecap="round" stroke-width="7.9417px" fill="#dec44f"/>
<path id="path8640" d="m-3184.4-1539.7h10.939v31.617h-10.939v-31.617z" fill="#ff9"/>
<g stroke-linejoin="round" stroke="#000" stroke-linecap="round" stroke-width="7.9417px">
<path id="path8642" d="m-3615-1427.2v107.81l-220.57 76.796-37.536-155.24 258.11-29.37z" fill="#630"/>
<path id="path8644" d="m-3840.5-1237.7-32.666-161.68 78.369-11.463c-25.324 21.203-37.236 40.832-40.833 62.11l14.76 104.52-19.63 6.5176z" fill="#dec44f"/>
<path id="path8646" d="m-3846.8-1392.1c5.3944 0 9.74 4.3457 9.74 9.6651s-4.3456 9.6639-9.74 9.6639c-5.3194 0-9.6651-4.3445-9.6651-9.6639s4.3457-9.6651 9.6651-9.6651z" fill="#dec44f"/>
</g>
<path id="path8648" d="m-3803-1391.2 179.74-26.148-1.6484 14.685-197.64 44.129s17.982-32.665 19.555-32.665z" fill="#963"/>
<path id="path8650" d="m-3606.9-1417.4c41.957-2.6222 86.76-7.7168 124.15-19.63 35.138-14.91 52.521-38.96 70.202-66.98-1.5734 13.112-1.5734 29.444-3.2215 42.481-22.327 14.685-43.006 24.5-65.333 39.184-42.481 15.509-83.313 17.008-125.79 21.278 1.0488-5.994-1.1238-10.339 0-16.333z" fill="#ff9"/>
<path id="path8652" stroke-linejoin="round" d="m-3537.7-1468.1c62.111 3.3715 106.39 14.085 131.79-6.8928-0.7494 25.174-0.3745 50.423-1.1239 75.597-9.5153-24.05-34.39-26.747-65.332-8.0166-3.4465-25.174-27.871-25.174-61.886-13.711-8.84-12.662-25.847-4.8698-41.281-1.1988 4.6451-20.229 27.572-35.888 37.835-45.778z" stroke="#000" stroke-linecap="round" stroke-width="7.9417px" fill="#dec44f"/>
<path id="path8654" d="m-3532.6-1453.3c41.657 3.8961 83.314 7.3423 124.9-1.1238 0 3.0717 1.648 2.2476 0 9.2155-1.5734 6.8927-125.2-2.847-124.9-8.0917z"/>
</g>
</g>
</svg>
