<?xml version="1.0"?>
<svg xmlns:rdf="http://www.w3.org/1999/02/22-rdf-syntax-ns#" xmlns="http://www.w3.org/2000/svg" xmlns:cc="http://creativecommons.org/ns#" xmlns:xlink="http://www.w3.org/1999/xlink" xmlns:dc="http://purl.org/dc/elements/1.1/" xmlns:svg="http://www.w3.org/2000/svg" id="svg4580" viewBox="0 0 672.76 593.97" version="1.0">
  <defs id="defs4582">
    <filter id="filter5692">
      <feGaussianBlur id="feGaussianBlur5694" stdDeviation="6.8999998"/>
    </filter>
    <linearGradient id="linearGradient5724" y2="762.36" gradientUnits="userSpaceOnUse" x2="218.57" gradientTransform="matrix(.75893 0 0 .75893 55.104 127.65)" y1="604.53" x1="218.57">
      <stop id="stop5578" stop-color="#dcdcdc" offset="0"/>
      <stop id="stop5580" stop-color="#fff" offset="1"/>
    </linearGradient>
    <linearGradient id="linearGradient5726" y2="359.35" gradientUnits="userSpaceOnUse" x2="216.43" gradientTransform="matrix(.75893 0 0 .75893 55.104 127.65)" y1="426.66" x1="216.43">
      <stop id="stop5568" offset="0"/>
      <stop id="stop5574" stop-color="#d00000" offset=".25"/>
      <stop id="stop5570" stop-color="#fff" offset="1"/>
    </linearGradient>
    <linearGradient id="linearGradient5728" y2="523.15" gradientUnits="userSpaceOnUse" x2="239.47" y1="517.54" x1="239.47">
      <stop id="stop5698" offset="0"/>
      <stop id="stop5700" stop-opacity="0" offset="1"/>
    </linearGradient>
  </defs>
  <g id="layer1" transform="translate(-20.203 -183.63)">
    <g id="g5738">
      <rect id="rect5736" rx="0" ry="0" height="593.97" width="672.76" y="183.63" x="20.203" fill="#fff"/>
      <g id="g5710" transform="matrix(1.3387 0 0 1.3387 -84.239 -332.46)">
        <rect id="rect5642" transform="matrix(1.7971 0 0 1.7971 -262.48 -484.12)" rx="19.53" ry="19.53" height="197.14" filter="url(#filter5692)" width="197.14" y="508.78" x="230.72" fill="#696969"/>
        <g id="g5616" transform="matrix(1.4588 0 0 1.4588 -4.1661 -165.08)">
          <rect id="rect4588" rx="24.058" ry="24.058" height="242.86" width="242.86" y="408.06" x="107.15" fill="url(#linearGradient5724)"/>
          <path id="rect4590" d="m131.2 408.06c-13.33 0-24.05 10.75-24.05 24.07v12.81h242.86v-12.81c0-13.32-10.75-24.07-24.08-24.07h-194.73z" fill="url(#linearGradient5726)"/>
          <path id="flowRoot5592" transform="matrix(1.9647 0 0 1.9647 -207.7 -387.65)" fill="#fff" d="m183.32 408.8h2.16l1.52 6.36 1.5-6.36h2.17l1.5 6.36 1.51-6.36h2.15l-2.07 8.75h-2.6l-1.59-6.65-1.57 6.65h-2.6l-2.08-8.75zm20.45 5.45v0.6h-4.91c0.05 0.49 0.23 0.86 0.53 1.11 0.31 0.24 0.73 0.37 1.28 0.37 0.44 0 0.9-0.07 1.36-0.2s0.94-0.33 1.43-0.6v1.62c-0.5 0.19-1 0.33-1.49 0.43-0.5 0.09-1 0.14-1.49 0.14-1.19 0-2.11-0.3-2.77-0.91-0.66-0.6-0.99-1.45-0.99-2.54 0-1.07 0.33-1.91 0.97-2.52 0.65-0.61 1.54-0.92 2.67-0.92 1.03 0 1.86 0.31 2.48 0.93s0.93 1.45 0.93 2.49zm-2.16-0.7c0-0.39-0.12-0.72-0.35-0.96s-0.54-0.37-0.91-0.37c-0.41 0-0.74 0.12-0.99 0.35s-0.41 0.55-0.48 0.98h2.73zm8.2-1.6v-3.52h2.11v9.12h-2.11v-0.95c-0.29 0.39-0.6 0.67-0.95 0.85s-0.75 0.27-1.21 0.27c-0.81 0-1.47-0.32-1.99-0.96-0.52-0.65-0.78-1.47-0.78-2.49 0-1.01 0.26-1.83 0.78-2.48 0.52-0.64 1.18-0.96 1.99-0.96 0.45 0 0.85 0.09 1.2 0.27s0.67 0.47 0.96 0.85zm-1.38 4.25c0.45 0 0.79-0.17 1.03-0.5 0.23-0.32 0.35-0.8 0.35-1.43 0-0.62-0.12-1.1-0.35-1.42-0.24-0.33-0.58-0.5-1.03-0.5s-0.79 0.17-1.02 0.5c-0.24 0.32-0.36 0.8-0.36 1.42 0 0.63 0.12 1.11 0.36 1.43 0.23 0.33 0.57 0.5 1.02 0.5zm12.12-2.65v4h-2.11v-3.06c0-0.56-0.02-0.96-0.04-1.17-0.03-0.22-0.07-0.37-0.13-0.47-0.08-0.14-0.2-0.25-0.34-0.32-0.14-0.08-0.3-0.12-0.48-0.12-0.43 0-0.78 0.17-1.03 0.51s-0.37 0.8-0.37 1.4v3.23h-2.1v-6.56h2.1v0.96c0.31-0.38 0.65-0.67 1-0.85 0.36-0.18 0.75-0.27 1.18-0.27 0.76 0 1.34 0.23 1.73 0.7 0.39 0.46 0.59 1.14 0.59 2.02zm8.5 0.7v0.6h-4.9c0.05 0.49 0.23 0.86 0.53 1.11 0.31 0.24 0.73 0.37 1.28 0.37 0.44 0 0.89-0.07 1.36-0.2 0.46-0.13 0.94-0.33 1.42-0.6v1.62c-0.49 0.19-0.99 0.33-1.48 0.43-0.5 0.09-1 0.14-1.49 0.14-1.19 0-2.11-0.3-2.77-0.91-0.66-0.6-0.99-1.45-0.99-2.54 0-1.07 0.32-1.91 0.97-2.52s1.54-0.92 2.67-0.92c1.03 0 1.86 0.31 2.48 0.93s0.92 1.45 0.92 2.49zm-2.15-0.7c0-0.39-0.12-0.72-0.35-0.96s-0.54-0.37-0.91-0.37c-0.41 0-0.74 0.12-0.99 0.35-0.26 0.23-0.41 0.55-0.48 0.98h2.73zm8.86-2.36v1.6c-0.45-0.19-0.88-0.33-1.3-0.43-0.42-0.09-0.81-0.14-1.18-0.14-0.4 0-0.7 0.05-0.89 0.15s-0.29 0.26-0.29 0.46c0 0.17 0.07 0.3 0.22 0.39s0.41 0.16 0.79 0.2l0.37 0.05c1.07 0.14 1.8 0.36 2.17 0.68 0.37 0.31 0.55 0.8 0.55 1.47 0 0.7-0.25 1.22-0.77 1.57s-1.29 0.53-2.31 0.53c-0.43 0-0.88-0.03-1.34-0.1-0.47-0.07-0.94-0.17-1.43-0.31v-1.59c0.42 0.2 0.85 0.35 1.29 0.45s0.88 0.16 1.33 0.16c0.41 0 0.72-0.06 0.93-0.17 0.21-0.12 0.31-0.29 0.31-0.51 0-0.19-0.07-0.33-0.21-0.42-0.15-0.09-0.43-0.16-0.86-0.21l-0.36-0.05c-0.94-0.11-1.59-0.33-1.97-0.65-0.37-0.31-0.56-0.8-0.56-1.44 0-0.69 0.24-1.21 0.71-1.55 0.48-0.33 1.21-0.5 2.2-0.5 0.38 0 0.79 0.03 1.22 0.09 0.42 0.06 0.88 0.15 1.38 0.27zm6.49 0.76v-3.52h2.11v9.12h-2.11v-0.95c-0.29 0.39-0.61 0.67-0.96 0.85-0.34 0.18-0.75 0.27-1.2 0.27-0.81 0-1.47-0.32-1.99-0.96-0.52-0.65-0.78-1.47-0.78-2.49 0-1.01 0.26-1.83 0.78-2.48 0.52-0.64 1.18-0.96 1.99-0.96 0.45 0 0.85 0.09 1.2 0.27s0.67 0.47 0.96 0.85zm-1.38 4.25c0.45 0 0.79-0.17 1.03-0.5 0.23-0.32 0.35-0.8 0.35-1.43 0-0.62-0.12-1.1-0.35-1.42-0.24-0.33-0.58-0.5-1.03-0.5s-0.79 0.17-1.03 0.5c-0.23 0.32-0.35 0.8-0.35 1.42 0 0.63 0.12 1.11 0.35 1.43 0.24 0.33 0.58 0.5 1.03 0.5zm8.46-1.6c-0.44 0-0.77 0.07-0.99 0.22s-0.33 0.37-0.33 0.66c0 0.26 0.09 0.47 0.27 0.62 0.17 0.15 0.42 0.23 0.74 0.23 0.39 0 0.72-0.15 0.99-0.43s0.41-0.64 0.41-1.06v-0.24h-1.09zm3.2-0.79v3.74h-2.11v-0.97c-0.28 0.4-0.6 0.69-0.95 0.87s-0.78 0.27-1.28 0.27c-0.68 0-1.24-0.2-1.66-0.59-0.42-0.4-0.64-0.92-0.64-1.55 0-0.77 0.27-1.33 0.8-1.69s1.36-0.54 2.49-0.54h1.24v-0.16c0-0.34-0.13-0.58-0.39-0.73-0.27-0.16-0.67-0.24-1.23-0.24-0.45 0-0.87 0.05-1.25 0.14-0.39 0.09-0.75 0.22-1.08 0.4v-1.6c0.45-0.11 0.9-0.19 1.35-0.25 0.46-0.05 0.91-0.08 1.36-0.08 1.19 0 2.04 0.23 2.57 0.7 0.52 0.47 0.78 1.23 0.78 2.28zm1.1-2.82h2.1l1.77 4.45 1.5-4.45h2.09l-2.76 7.18c-0.27 0.73-0.6 1.24-0.97 1.53-0.36 0.29-0.85 0.44-1.46 0.44h-1.21v-1.38h0.66c0.35 0 0.61-0.05 0.77-0.17 0.16-0.11 0.29-0.31 0.38-0.61l0.06-0.18-2.93-6.81z"/>
          <path id="flowRoot5600" d="m237.03 518.79v-1.61c0.36 0.17 0.7 0.29 1.03 0.38 0.33 0.08 0.65 0.12 0.97 0.12 0.68 0 1.2-0.19 1.57-0.56 0.38-0.37 0.6-0.93 0.67-1.66-0.27 0.2-0.55 0.34-0.85 0.44s-0.63 0.15-0.98 0.15c-0.9 0-1.62-0.26-2.17-0.79-0.55-0.52-0.82-1.2-0.82-2.06 0-0.94 0.3-1.69 0.92-2.26 0.61-0.56 1.43-0.85 2.45-0.85 1.14 0 2.03 0.39 2.65 1.16 0.63 0.77 0.94 1.85 0.94 3.26 0 1.45-0.37 2.58-1.1 3.41-0.73 0.82-1.73 1.24-3 1.24-0.41 0-0.8-0.03-1.18-0.09-0.37-0.06-0.74-0.15-1.1-0.28zm2.78-4.21c0.4 0 0.69-0.13 0.89-0.38 0.2-0.26 0.3-0.64 0.3-1.15s-0.1-0.89-0.3-1.15-0.49-0.39-0.89-0.39c-0.39 0-0.69 0.13-0.89 0.39s-0.3 0.64-0.3 1.15 0.1 0.89 0.3 1.15c0.2 0.25 0.5 0.38 0.89 0.38z" fill="url(#linearGradient5728)" transform="matrix(15.565 0 0 15.565 -3503.2 -7472.7)"/>
        </g>
      </g>
    </g>
  </g>
  <metadata>
    <rdf:RDF>
      <cc:Work>
        <dc:format>image/svg+xml</dc:format>
        <dc:type rdf:resource="http://purl.org/dc/dcmitype/StillImage"/>
        <cc:license rdf:resource="http://creativecommons.org/licenses/publicdomain/"/>
        <dc:publisher>
          <cc:Agent rdf:about="http://openclipart.org/">
            <dc:title>Openclipart</dc:title>
          </cc:Agent>
        </dc:publisher>
        <dc:title>Calendar Icon (Large)</dc:title>
        <dc:date>2007-09-17T14:29:55</dc:date>
        <dc:description>calendar, calendar, clip art, clipart, day, day, icon, icon, image, media, png, public domain, svg, time, time, week, week, </dc:description>
        <dc:source>http://openclipart.org/detail/5571/calendar-icon-(large)-by-jilagan</dc:source>
        <dc:creator>
          <cc:Agent>
            <dc:title>jilagan</dc:title>
          </cc:Agent>
        </dc:creator>
        <dc:subject>
          <rdf:Bag>
            <rdf:li>calendar</rdf:li>
            <rdf:li>clip art</rdf:li>
            <rdf:li>clipart</rdf:li>
            <rdf:li>day</rdf:li>
            <rdf:li>icon</rdf:li>
            <rdf:li>image</rdf:li>
            <rdf:li>media</rdf:li>
            <rdf:li>png</rdf:li>
            <rdf:li>public domain</rdf:li>
            <rdf:li>svg</rdf:li>
            <rdf:li>time</rdf:li>
            <rdf:li>week</rdf:li>
          </rdf:Bag>
        </dc:subject>
      </cc:Work>
      <cc:License rdf:about="http://creativecommons.org/licenses/publicdomain/">
        <cc:permits rdf:resource="http://creativecommons.org/ns#Reproduction"/>
        <cc:permits rdf:resource="http://creativecommons.org/ns#Distribution"/>
        <cc:permits rdf:resource="http://creativecommons.org/ns#DerivativeWorks"/>
      </cc:License>
    </rdf:RDF>
  </metadata>
</svg>
