<?xml version="1.0"?>
<svg xmlns:rdf="http://www.w3.org/1999/02/22-rdf-syntax-ns#" xmlns="http://www.w3.org/2000/svg" xmlns:cc="http://web.resource.org/cc/" xmlns:xlink="http://www.w3.org/1999/xlink" xmlns:dc="http://purl.org/dc/elements/1.1/" xmlns:svg="http://www.w3.org/2000/svg" id="svg2" viewBox="0 0 144.08 176.62" version="1.0">
  <defs id="defs4">
    <linearGradient id="linearGradient2876">
      <stop id="stop2878" stop-color="#f2f2ec" offset="0"/>
      <stop id="stop2880" stop-color="#dbdbca" offset="1"/>
    </linearGradient>
    <linearGradient id="linearGradient2805">
      <stop id="stop2807" stop-color="maroon" offset="0"/>
      <stop id="stop2809" stop-color="maroon" stop-opacity="0" offset="1"/>
    </linearGradient>
    <linearGradient id="linearGradient2854" y2="224.48" gradientUnits="userSpaceOnUse" x2="-56.404" gradientTransform="matrix(.47685 0 0 .47835 -51.322 -138.76)" y1="501.38" x1="280.1">
      <stop id="stop2819" stop-color="#3c3c3c" offset="0"/>
      <stop id="stop2821" stop-color="#cdcdcd" offset="1"/>
    </linearGradient>
    <linearGradient id="linearGradient2856" y2="467.44" xlink:href="#linearGradient2805" gradientUnits="userSpaceOnUse" x2="421.85" gradientTransform="matrix(.47685 0 0 .33643 -51.322 -85.29)" y1="467.44" x1="126.09"/>
    <linearGradient id="linearGradient2858" y2="552.14" xlink:href="#linearGradient2805" gradientUnits="userSpaceOnUse" x2="422.92" gradientTransform="matrix(.52963 0 0 .33591 -63.273 -75.454)" y1="552.14" x1="144.86"/>
    <linearGradient id="linearGradient2882" y2="147.49" xlink:href="#linearGradient2876" gradientUnits="userSpaceOnUse" x2="85.182" y1="42.152" x1="19.755"/>
    <linearGradient id="linearGradient2890" y2="123.08" xlink:href="#linearGradient2876" gradientUnits="userSpaceOnUse" x2="62.835" y1="10.934" x1="-1.3558"/>
  </defs>
  <g id="layer1" transform="translate(14.582 17.843)">
    <g id="g2846" transform="matrix(.98769 -.32816 .32816 .98769 -28.976 3.6015)">
      <path id="path1872" d="m34.615 4.5806l-31.472 31.346 0.03 121.72h94.386v-121.72l-31.472-31.349-31.472-0.0004zm15.736 14.126c2.718 0 4.918 2.221 4.918 4.948 0 2.726-2.2 4.933-4.918 4.933s-4.932-2.207-4.932-4.933c0-2.727 2.214-4.948 4.932-4.948z" fill-rule="evenodd" stroke="url(#linearGradient2854)" stroke-width=".96082" fill="url(#linearGradient2890)"/>
      <path id="path2760" d="m50.35 14.758c-4.893 0-8.867 3.987-8.867 8.895 0 4.909 3.974 8.883 8.867 8.883s8.855-3.974 8.855-8.883c0-4.908-3.962-8.895-8.855-8.895zm0 4.632c2.34 0 4.238 1.916 4.238 4.263 0 2.348-1.898 4.251-4.238 4.251s-4.25-1.903-4.25-4.251c0-2.347 1.91-4.263 4.25-4.263z" stroke="#650000" stroke-linecap="square" stroke-width=".96082" fill="#800000"/>
      <path id="path2789" d="m8.804 83.308c0.7125-1.1 1.811-2.139 2.728-3.179 3.178-3.914 7.108-7.466 11.176-10.931 3.004-2.475 6.033-4.942 9.395-7.175 7.022-3.508 5.701 0.258 5.922 4.09 0.295 3.992 0.33 8.001 1.122 11.964 0.409 1.871 0.903 2.633 3.443 2.126 2.134-0.771 1.557-0.621 7.788-3.976 4.799-2.944 9.852-5.339 15.495-7.367 2.194 0.666 1.88 2.448 2.213 3.962 0.267 1.356 0.929 1.967 2.754 2.093 5.653-2.221-4.388 2.283 2.856-1.326 2.71-1.314 5.151-3.096 8.458-2.346 1.975 0.747 3.904 1.529 6.008 2.082l-3.869 1.83c-2.07-0.611-3.998-1.412-6.048-2.049-4.995-0.603 4.463-2.175-0.285-0.703-3.446 1.701-6.919 3.595-10.968 4.474-1.94-0.363-2.773-1.016-2.971-2.539-0.26-1.225-0.037-2.994-1.827-3.477 8.531-4.005-7.508 3.47-8.166 4.338-4.768 2.614-9.546 5.309-15.13 7.023-2.874 0.546-3.387-0.941-3.555-2.74-0.458-4.001-0.584-8.015-1.018-12.017-0.441-3.541-2.914-5.028 2.101-6.662-3.943 2.014-6.87 4.885-10.209 7.343-3.966 3.347-7.722 6.824-10.6 10.703-0.743 0.935-1.563 2.044-2.392 2.87l-4.421 1.589z" fill="url(#linearGradient2856)"/>
      <path id="path2791" d="m13.451 121.85c0.068-0.61 0.093-1.22 0.127-1.83 0.062-2.8 0.386-5.56 1.281-8.3 1.268-3.54 4.355-6.64 7.539-9.6 3.147-2.742 7.285-4.76 12.375-5.94 2.616-0.616 4.188-0.229 5.881 1.117 1.858 2.883 2.254 6.043 2.587 9.123 0.439 3.42-0.714 6.8-1.719 10.15-0.581 2-1.24 4-1.252 6.03-8.077 3.38-2.654-0.06-0.796-1.77 4.107-3.66 8.956-6.97 13.772-10.25 3.498-2.21 6.778-4.62 10.704-6.54 5.511-2.44 6.304-2.39 6.662 0.79-0.494 1.11 0.839 2.09 1.183 2.43-8.094 3.74-1.142-1 0.491-2.45 2.35-2.38 5.685-3.11 9.53-4.29 1.377 0.27 2.312 1.01 3.357 1.61 1.418 0.75 3.138 1.14 4.834 1.55l-4.369 1.86c-1.724-0.45-3.494-0.86-4.945-1.63-0.97-0.55-1.852-1.23-3.166-1.39 4.669-2.05 2.291-1.29-0.651 1.02-2.936 2.59-4.181 4.52-9.428 5.74-1.063-0.82-1.593-1.63-1.425-2.93-0.388-2.56-2.215-1.86 2.702-3.5-4.313 1.84-7.762 4.4-11.483 6.67-4.71 3.19-9.451 6.41-13.269 10.06-2.628 2.55-3.367 3.91-8.449 4.55 0.39-2.11 1.058-4.19 1.778-6.26 1.071-3.32 2.072-6.66 1.72-10.07-0.306-2.98-0.549-6.12-2.761-8.828-1.663-1.182-3.181-1.358-5.525-0.782-1.423 0.377-3.99 1.097 1.945-0.864 2.444-0.808-8.643 4.094-5.997 3.604-3.26 2.9-6.238 5.95-7.492 9.46-0.925 2.67-1.372 5.39-0.958 8.12 0.034 0.59 0.058 1.17 0.127 1.75l-4.91 1.59z" fill="url(#linearGradient2858)"/>
    </g>
    <g id="use2852" transform="matrix(1.0168 .26650 -.26650 1.0168 39.127 -30.976)">
      <path id="path2862" d="m34.615 4.5806l-31.472 31.346 0.03 121.72h94.386v-121.72l-31.472-31.349-31.472-0.0004zm15.736 14.126c2.718 0 4.918 2.221 4.918 4.948 0 2.726-2.2 4.933-4.918 4.933s-4.932-2.207-4.932-4.933c0-2.727 2.214-4.948 4.932-4.948z" fill-rule="evenodd" stroke="url(#linearGradient2854)" stroke-width="1.4271" fill="url(#linearGradient2882)"/>
      <path id="path2864" d="m50.35 14.758c-4.893 0-8.867 3.987-8.867 8.895 0 4.909 3.974 8.883 8.867 8.883s8.855-3.974 8.855-8.883c0-4.908-3.962-8.895-8.855-8.895zm0 4.632c2.34 0 4.238 1.916 4.238 4.263 0 2.348-1.898 4.251-4.238 4.251s-4.25-1.903-4.25-4.251c0-2.347 1.91-4.263 4.25-4.263z" stroke="#650000" stroke-linecap="square" stroke-width="1.0176" fill="#800000"/>
      <path id="path2866" d="m8.804 83.308c0.7125-1.1 1.811-2.139 2.728-3.179 3.178-3.914 7.108-7.466 11.176-10.931 3.004-2.475 6.033-4.942 9.395-7.175 7.022-3.508 5.701 0.258 5.922 4.09 0.295 3.992 0.33 8.001 1.122 11.964 0.409 1.871 0.903 2.633 3.443 2.126 2.134-0.771 1.557-0.621 7.788-3.976 4.799-2.944 9.852-5.339 15.495-7.367 2.194 0.666 1.88 2.448 2.213 3.962 0.267 1.356 0.929 1.967 2.754 2.093 5.653-2.221-4.388 2.283 2.856-1.326 2.71-1.314 5.151-3.096 8.458-2.346 1.975 0.747 3.904 1.529 6.008 2.082l-3.869 1.83c-2.07-0.611-3.998-1.412-6.048-2.049-4.995-0.603 4.463-2.175-0.285-0.703-3.446 1.701-6.919 3.595-10.968 4.474-1.94-0.363-2.773-1.016-2.971-2.539-0.26-1.225-0.037-2.994-1.827-3.477 8.531-4.005-7.508 3.47-8.166 4.338-4.768 2.614-9.546 5.309-15.13 7.023-2.874 0.546-3.387-0.941-3.555-2.74-0.458-4.001-0.584-8.015-1.018-12.017-0.441-3.541-2.914-5.028 2.101-6.662-3.943 2.014-6.87 4.885-10.209 7.343-3.966 3.347-7.722 6.824-10.6 10.703-0.743 0.935-1.563 2.044-2.392 2.87l-4.421 1.589z" fill="url(#linearGradient2856)"/>
      <path id="path2868" d="m13.451 121.85c0.068-0.61 0.093-1.22 0.127-1.83 0.062-2.8 0.386-5.56 1.281-8.3 1.268-3.54 4.355-6.64 7.539-9.6 3.147-2.742 7.285-4.76 12.375-5.94 2.616-0.616 4.188-0.229 5.881 1.117 1.858 2.883 2.254 6.043 2.587 9.123 0.439 3.42-0.714 6.8-1.719 10.15-0.581 2-1.24 4-1.252 6.03-8.077 3.38-2.654-0.06-0.796-1.77 4.107-3.66 8.956-6.97 13.772-10.25 3.498-2.21 6.778-4.62 10.704-6.54 5.511-2.44 6.304-2.39 6.662 0.79-0.494 1.11 0.839 2.09 1.183 2.43-8.094 3.74-1.142-1 0.491-2.45 2.35-2.38 5.685-3.11 9.53-4.29 1.377 0.27 2.312 1.01 3.357 1.61 1.418 0.75 3.138 1.14 4.834 1.55l-4.369 1.86c-1.724-0.45-3.494-0.86-4.945-1.63-0.97-0.55-1.852-1.23-3.166-1.39 4.669-2.05 2.291-1.29-0.651 1.02-2.936 2.59-4.181 4.52-9.428 5.74-1.063-0.82-1.593-1.63-1.425-2.93-0.388-2.56-2.215-1.86 2.702-3.5-4.313 1.84-7.762 4.4-11.483 6.67-4.71 3.19-9.451 6.41-13.269 10.06-2.628 2.55-3.367 3.91-8.449 4.55 0.39-2.11 1.058-4.19 1.778-6.26 1.071-3.32 2.072-6.66 1.72-10.07-0.306-2.98-0.549-6.12-2.761-8.828-1.663-1.182-3.181-1.358-5.525-0.782-1.423 0.377-3.99 1.097 1.945-0.864 2.444-0.808-8.643 4.094-5.997 3.604-3.26 2.9-6.238 5.95-7.492 9.46-0.925 2.67-1.372 5.39-0.958 8.12 0.034 0.59 0.058 1.17 0.127 1.75l-4.91 1.59z" fill="url(#linearGradient2858)"/>
    </g>
  </g>
  <metadata>
    <rdf:RDF>
      <cc:Work>
        <dc:format>image/svg+xml</dc:format>
        <dc:type rdf:resource="http://purl.org/dc/dcmitype/StillImage"/>
        <cc:license rdf:resource="http://creativecommons.org/licenses/publicdomain/"/>
        <dc:publisher>
          <cc:Agent rdf:about="http://openclipart.org/">
            <dc:title>Openclipart</dc:title>
          </cc:Agent>
        </dc:publisher>
        <dc:title>Two Tags Overlapped</dc:title>
        <dc:date>2007-03-21T12:00:41</dc:date>
        <dc:description>Two overlapped tags.</dc:description>
        <dc:source>http://openclipart.org/detail/3630/two-tags-overlapped-by-dtjohnnymonkey</dc:source>
        <dc:creator>
          <cc:Agent>
            <dc:title>dtjohnnymonkey</dc:title>
          </cc:Agent>
        </dc:creator>
        <dc:subject>
          <rdf:Bag>
            <rdf:li>clip art</rdf:li>
            <rdf:li>clipart</rdf:li>
            <rdf:li>how i did it</rdf:li>
            <rdf:li>icon</rdf:li>
            <rdf:li>image</rdf:li>
            <rdf:li>media</rdf:li>
            <rdf:li>public domain</rdf:li>
            <rdf:li>svg</rdf:li>
            <rdf:li>tags</rdf:li>
          </rdf:Bag>
        </dc:subject>
      </cc:Work>
      <cc:License rdf:about="http://creativecommons.org/licenses/publicdomain/">
        <cc:permits rdf:resource="http://creativecommons.org/ns#Reproduction"/>
        <cc:permits rdf:resource="http://creativecommons.org/ns#Distribution"/>
        <cc:permits rdf:resource="http://creativecommons.org/ns#DerivativeWorks"/>
      </cc:License>
    </rdf:RDF>
  </metadata>
</svg>
