<?xml version="1.0"?>
<svg xmlns:rdf="http://www.w3.org/1999/02/22-rdf-syntax-ns#" xmlns="http://www.w3.org/2000/svg" xmlns:cc="http://creativecommons.org/ns#" xmlns:xlink="http://www.w3.org/1999/xlink" xmlns:dc="http://purl.org/dc/elements/1.1/" xmlns:svg="http://www.w3.org/2000/svg" id="svg2" viewBox="0 0 516.19 514.17" version="1.1">
  <defs id="defs4">
    <radialGradient id="radialGradient3877" gradientUnits="userSpaceOnUse" cy="553.35" cx="354.56" r="114.15">
      <stop id="stop3873" stop-color="#e2ff09" offset="0"/>
      <stop id="stop3875" stop-color="#ffac09" offset="1"/>
    </radialGradient>
    <linearGradient id="linearGradient3086" x1="358.11" gradientUnits="userSpaceOnUse" y1="681.22" gradientTransform="matrix(.57016 0 0 .45232 127.4 277.8)" x2="358.06" y2="972.14">
      <stop id="stop4303" stop-color="#fdb209" offset="0"/>
      <stop id="stop4305" stop-color="#ecfd09" stop-opacity=".65254" offset="1"/>
    </linearGradient>
    <linearGradient id="linearGradient3089" x1="476.44" gradientUnits="userSpaceOnUse" y1="552.05" gradientTransform="matrix(.45154 0 0 .57016 220.28 161.96)" x2="783" y2="552.05">
      <stop id="stop4279" stop-color="#fdb209" offset="0"/>
      <stop id="stop4281" stop-color="#f9fd09" stop-opacity=".69492" offset="1"/>
    </linearGradient>
    <linearGradient id="linearGradient3092" x1="231.22" gradientUnits="userSpaceOnUse" y1="554.66" gradientTransform="matrix(.45911 0 0 .57016 119.2 161.96)" x2="-44.375" y2="551.62">
      <stop id="stop4295" stop-color="#fdb209" offset="0"/>
      <stop id="stop4297" stop-color="#f9fd09" stop-opacity=".59322" offset="1"/>
    </linearGradient>
    <linearGradient id="linearGradient3095" x1="359.62" gradientUnits="userSpaceOnUse" y1="423.62" gradientTransform="matrix(.57016 0 0 .45209 127.4 176.62)" x2="358.59" y2="129.66">
      <stop id="stop4287" stop-color="#fdb209" offset="0"/>
      <stop id="stop4289" stop-color="#f9fd09" stop-opacity=".66102" offset="1"/>
    </linearGradient>
  </defs>
  <g id="layer1" transform="translate(-70.711 -216.97)">
    <g id="g3122">
      <g id="g3104">
        <path id="path2987-8" fill="#efd909" d="m401.75 396.13 57.898-49.65-47.086 59.599"/>
        <path id="path2987-8-0" fill="#efd909" d="m395.86 563.45 60.928 49.65-49.55-59.599"/>
        <path id="path2987-8-8" fill="#efd909" d="m261.39 395.84-59.918-48.809 48.729 58.588"/>
        <path id="path2987-8-0-7" fill="#efd909" d="m266.27 564.83-61.93 48.81 50.37-58.58"/>
        <path id="path2987" d="m331.86 232.75-18.423 139.24c5.5038-1.1991 11.299-1.8366 17.283-1.8366 5.3039 0 10.459 0.50591 15.394 1.4552l1.8708-0.0282-16.125-138.83z" fill="url(#linearGradient3095)"/>
        <path id="path2987-2" d="m227.29 459.25-141.99 16.089 141.06 18.37c-0.92583-4.843-1.4204-9.8968-1.4204-15.091 0-6.7454 0.81916-13.249 2.353-19.368z" fill="url(#linearGradient3092)"/>
        <path id="path2987-4-0" d="m435.41 459.53c1.2894 5.6946 1.9896 11.707 1.9896 17.924 0 5.6812-0.58192 11.193-1.665 16.446l138.11-18.28-138.43-16.09z" fill="url(#linearGradient3089)"/>
        <path id="path2987-4" opacity=".9127" fill="url(#linearGradient3086)" d="m347.68 582.85c-5.5832 1.2374-11.469 1.8941-17.55 1.8941-5.6995 0-11.231-0.57614-16.499-1.6679h-0.48107l18.423 139.36 16.107-139.58z"/>
        <path id="path2987-8-1" d="m556.95 388.53-146.96 46.058c1.7216 3.1157 3.2608 6.332 4.6147 9.6571l142.34-55.715z" fill="#f2f800" fill-opacity=".7735"/>
        <path id="path2987-8-1-4" d="m409.01 246.17-46.254 147.28c3.4158 1.3088 6.7205 2.8141 9.9244 4.5078l36.33-151.79z" fill="#f2f800" fill-opacity=".7735"/>
        <path id="path2987-8-1-8" d="m413.59 515.37c-1.4802 3.356-3.1482 6.5992-5.0067 9.7284l149.61 46.88-144.6-56.61z" fill="#f2f800" fill-opacity=".7735"/>
        <path id="path2987-8-1-1" d="m103.28 388.62 142.34 55.715c1.3518-3.3299 2.8944-6.5546 4.6147-9.6749l-146.95-46.05z" fill="#f2f800" fill-opacity=".7735"/>
        <path id="path2987-8-1-4-0" d="m251.22 246.24 36.312 151.75c3.2002-1.695 6.5123-3.197 9.9244-4.5078l-46.23-147.24z" fill="#f2f800" fill-opacity=".7735"/>
        <path id="path2987-8-1-8-3" d="m246.71 515.44-144.68 56.624 149.7-46.914c-1.859-3.1246-3.543-6.3594-5.0246-9.7105z" fill="#f2f800" fill-opacity=".7735"/>
        <path id="path2987-8-1-4-9" opacity=".89286" fill-opacity=".7735" fill="#f2f800" d="m373.09 559.04c-3.2686 1.7493-6.6468 3.3032-10.138 4.6504l47.306 150.66-37.167-155.32z"/>
        <path id="path2987-8-1-4-9-7" opacity=".88889" fill-opacity=".7735" fill="#f2f800" d="m287.15 559.02-37.18 155.41 47.34-150.74c-3.4947-1.3492-6.8846-2.9161-10.156-4.6682z"/>
      </g>
      <g id="g4876" transform="matrix(1.5588 0 0 1.5588 -183.07 -266.72)">
        <path id="path2985" transform="matrix(.57016 0 0 .57016 127.4 161.96)" fill="url(#radialGradient3877)" d="m468.71 553.35c0 63.042-51.105 114.15-114.15 114.15-63.042 0-114.15-51.105-114.15-114.15 0-63.042 51.105-114.15 114.15-114.15 63.042 0 114.15 51.105 114.15 114.15z"/>
        <path id="rect4746" opacity=".88889" d="m267.69 455.31-1.5 6.0625 10.188 12.062v6.3125c0 2.5084 2.0229 4.5312 4.5312 4.5312h36.219c2.5084 0 4.5312-2.0229 4.5312-4.5312v-6.75c2.3118-2.329 5.5208-3.75 9.0625-3.75 2.7748 0 5.3437 0.87118 7.4375 2.375v7.6562c0 2.5084 2.0229 4.5 4.5312 4.5h36.219c2.5084 0 4.5312-1.9916 4.5312-4.5v-7.25l9-10.656-1.5-6.0625-7.5 10.594v-5.0625c0-2.5084-2.0229-4.5312-4.5312-4.5312h-36.219c-0.0784 0-0.17262-0.004-0.25 0-2.3989 0.12081-4.2812 2.1013-4.2812 4.5312v5.5625c-2.1246-1.5759-4.7459-2.5-7.5938-2.5-3.4577 0-6.6058 1.393-8.9062 3.625v-6.2188c0-2.5084-2.0229-4.5312-4.5312-4.5312h-36.219c-2.5084 0-4.5312 2.0229-4.5312 4.5312v6.7812l-0.0937-0.65625-8.5938-12.125z" fill-opacity=".7735" stroke="#000" stroke-width=".45277"/>
        <path id="path4811" opacity=".88889" d="m299.19 509.7c3.1222 8.7309 17.968 13.216 34.431 10.082 14.819-2.8214 26.158-10.896 28.052-19.242-4.7092 6.5863-15.213 12.44-28.116 14.896-14.867 2.8305-28.443 0.27828-34.367-5.7361z" fill-opacity=".7735" stroke="#000" stroke-width="2"/>
        <path id="path4832" opacity=".88889" stroke="#000" fill-opacity=".7735" d="m364.4 492.22c-2.981-0.73621-5.9368 0.00056-7.923 1.7128 1.738-0.50575 3.7312-0.55921 5.7146-0.0694 5.222 1.2896 8.5463 5.93 7.4572 10.34 0.58586-0.74662 1.0368-1.5913 1.2736-2.5503 1.0032-4.0622-1.9186-8.2957-6.5224-9.4327z"/>
        <path id="path4832-3" opacity=".88889" stroke="#000" fill-opacity=".7735" d="m289.86 504.61c-1.3196 2.7726-1.1911 5.8161 0.0876 8.1056-0.14661-1.8041 0.20111-3.7675 1.0791-5.6122 2.3116-4.8569 7.5247-7.182 11.626-5.2301-0.61383-0.7238-1.3508-1.3351-2.2427-1.7596-3.7781-1.7982-8.512 0.21446-10.55 4.4963z"/>
      </g>
    </g>
  </g>
  <metadata>
    <rdf:RDF>
      <cc:Work>
        <dc:format>image/svg+xml</dc:format>
        <dc:type rdf:resource="http://purl.org/dc/dcmitype/StillImage"/>
        <cc:license rdf:resource="http://creativecommons.org/licenses/publicdomain/"/>
        <dc:publisher>
          <cc:Agent rdf:about="http://openclipart.org/">
            <dc:title>Openclipart</dc:title>
          </cc:Agent>
        </dc:publisher>
        <dc:title>Cool Happy Sun</dc:title>
        <dc:date>2011-06-29T17:41:14</dc:date>
        <dc:description>A cool happy sun that i have created in inkscape!  </dc:description>
        <dc:source>http://openclipart.org/detail/147721/cool-happy-sun-by-mystica</dc:source>
        <dc:creator>
          <cc:Agent>
            <dc:title>mystica</dc:title>
          </cc:Agent>
        </dc:creator>
        <dc:subject>
          <rdf:Bag>
            <rdf:li>cartoon</rdf:li>
            <rdf:li>clip art</rdf:li>
            <rdf:li>clipart</rdf:li>
            <rdf:li>cool sun</rdf:li>
            <rdf:li>face</rdf:li>
            <rdf:li>graphic</rdf:li>
            <rdf:li>happy</rdf:li>
            <rdf:li>image</rdf:li>
            <rdf:li>png</rdf:li>
            <rdf:li>smile</rdf:li>
            <rdf:li>summer</rdf:li>
            <rdf:li>sun</rdf:li>
            <rdf:li>sunglasses</rdf:li>
            <rdf:li>sunshine</rdf:li>
            <rdf:li>svg</rdf:li>
          </rdf:Bag>
        </dc:subject>
      </cc:Work>
      <cc:License rdf:about="http://creativecommons.org/licenses/publicdomain/">
        <cc:permits rdf:resource="http://creativecommons.org/ns#Reproduction"/>
        <cc:permits rdf:resource="http://creativecommons.org/ns#Distribution"/>
        <cc:permits rdf:resource="http://creativecommons.org/ns#DerivativeWorks"/>
      </cc:License>
    </rdf:RDF>
  </metadata>
</svg>
