<?xml version="1.0" encoding="UTF-8" standalone="no"?>
<!-- Created with Inkscape (http://www.inkscape.org/) -->

<svg
     xmlns:dc="http://purl.org/dc/elements/1.1/"
     xmlns:cc="http://creativecommons.org/ns#"
     xmlns:rdf="http://www.w3.org/1999/02/22-rdf-syntax-ns#"
     xmlns:svg="http://www.w3.org/2000/svg"
     xmlns="http://www.w3.org/2000/svg"
     xmlns:sodipodi="http://sodipodi.sourceforge.net/DTD/sodipodi-0.dtd"
     xmlns:inkscape="http://www.inkscape.org/namespaces/inkscape"
     width="287.4"
     height="399.7"
     id="svg3074"
     version="1.1"
     inkscape:version="0.48.5 r10040"
     sodipodi:docname="waaa.svg">
    <defs
         id="defs3076" />
    <sodipodi:namedview
         id="base"
         pagecolor="#ffffff"
         bordercolor="#666666"
         borderopacity="1.0"
         inkscape:pageopacity="0.0"
         inkscape:pageshadow="2"
         inkscape:zoom="1.22"
         inkscape:cx="-9.979"
         inkscape:cy="186.2"
         inkscape:document-units="px"
         inkscape:current-layer="layer1"
         showgrid="false"
         inkscape:window-width="1920"
         inkscape:window-height="1106"
         inkscape:window-x="0"
         inkscape:window-y="32"
         inkscape:window-maximized="1"
         fit-margin-top="0"
         fit-margin-left="0"
         fit-margin-right="0"
         fit-margin-bottom="0" />
    <metadata
         id="metadata3079">
        <rdf:RDF>
            <cc:Work
                 rdf:about="">
                <dc:format>image/svg+xml</dc:format>
                <dc:type
                     rdf:resource="http://purl.org/dc/dcmitype/StillImage" />
                <dc:title></dc:title>
            </cc:Work>
        </rdf:RDF>
    </metadata>
    <g
         inkscape:label="Layer 1"
         inkscape:groupmode="layer"
         id="layer1"
         transform="translate(-293.3,-259.7)">
        <g
             id="g4248">
            <rect
                 ry="17.06"
                 rx="46.49"
                 y="516.9"
                 x="334"
                 height="136.5"
                 width="201.5"
                 id="rect3965-37-7-2"
                 style="fill:#ffffff;fill-opacity:1;fill-rule:evenodd;stroke:#000000;stroke-width:3;stroke-linecap:round;stroke-linejoin:round;stroke-miterlimit:4;stroke-opacity:1;stroke-dasharray:none;stroke-dashoffset:0" />
            <path
                 inkscape:connector-curvature="0"
                 id="path3941-75-1-2"
                 d="M 435.6,652.5 435.6,578.5"
                 style="fill:none;stroke:#000000;stroke-width:3;stroke-linecap:round;stroke-linejoin:round;stroke-miterlimit:4;stroke-opacity:1;stroke-dasharray:none" />
            <path
                 transform="matrix(0.122,0.0527,-0.09,0.126,744.4,603.2)"
                 d="M -1064,429.4 A 136,119 0 1 1 -1336,429.4 136,119 0 1 1 -1064,429.4 z"
                 sodipodi:ry="119"
                 sodipodi:rx="136"
                 sodipodi:cy="429.4"
                 sodipodi:cx="-1200"
                 id="path3954-8-5-7-3-4-8-9-1-79-8-4-8-6-4-2-6-7-0"
                 style="fill:#c5a587;fill-opacity:1;fill-rule:evenodd;stroke:#000000;stroke-width:21.1525;stroke-linecap:round;stroke-linejoin:round;stroke-miterlimit:4;stroke-opacity:1;stroke-dasharray:none;stroke-dashoffset:0"
                 sodipodi:type="arc" />
            <path
                 inkscape:transform-center-x="-5.136"
                 inkscape:transform-center-y="17.18"
                 sodipodi:nodetypes="cccc"
                 inkscape:connector-curvature="0"
                 id="path4048-5-7-58-3-8"
                 d="M 517.3,461.5 C 553.3,455.3 570.9,544.7 578,581.6 581.4,600.1 508.7,612.4 505.3,594 498.2,560.1 480.9,467.6 517.3,461.5 z"
                 style="fill:#a3b2c9;fill-opacity:1;stroke:#000000;stroke-width:3;stroke-linecap:butt;stroke-linejoin:miter;stroke-miterlimit:4;stroke-opacity:1;stroke-dasharray:none" />
            <path
                 transform="matrix(-0.122,0.0527,0.09,0.126,136.4,603.2)"
                 d="M -1064,429.4 A 136,119 0 1 1 -1336,429.4 136,119 0 1 1 -1064,429.4 z"
                 sodipodi:ry="119"
                 sodipodi:rx="136"
                 sodipodi:cy="429.4"
                 sodipodi:cx="-1200"
                 id="path3954-8-5-7-3-4-8-9-1-79-8-4-8-6-4-2-2-9-62-3"
                 style="fill:#c5a587;fill-opacity:1;fill-rule:evenodd;stroke:#000000;stroke-width:21.1525;stroke-linecap:round;stroke-linejoin:round;stroke-miterlimit:4;stroke-opacity:1;stroke-dasharray:none;stroke-dashoffset:0"
                 sodipodi:type="arc" />
            <path
                 inkscape:transform-center-x="5.136"
                 inkscape:transform-center-y="17.18"
                 sodipodi:nodetypes="cccc"
                 inkscape:connector-curvature="0"
                 id="path4048-5-7-7-52-1-8"
                 d="M 358,461.5 C 321.6,455.3 304.1,544.7 297.3,581.6 293.6,600.1 366.3,612.4 369.7,594 376.8,560.1 394.4,467.6 358,461.5 z"
                 style="fill:#a3b2c9;fill-opacity:1;stroke:#000000;stroke-width:3;stroke-linecap:butt;stroke-linejoin:miter;stroke-miterlimit:4;stroke-opacity:1;stroke-dasharray:none" />
            <path
                 inkscape:connector-curvature="0"
                 id="use4117"
                 d="M 321.2,498.7 C 319.6,502.6 318,506.6 316.6,510.8 335.1,520.5 357.1,527.9 381.3,532.3 381.7,527.8 381.9,523.3 382.1,518.9 359.1,514.6 338.5,507.6 321.2,498.7 z"
                 style="font-size:medium;font-style:normal;font-variant:normal;font-weight:normal;font-stretch:normal;text-indent:0;text-align:start;text-decoration:none;line-height:normal;letter-spacing:normal;word-spacing:normal;text-transform:none;direction:ltr;block-progression:tb;writing-mode:lr-tb;text-anchor:start;baseline-shift:baseline;color:#000000;fill:#ffffff;fill-opacity:1;stroke:none;stroke-width:3;marker:none;visibility:visible;display:inline;overflow:visible;enable-background:accumulate;font-family:Sans;-inkscape-font-specification:Sans" />
            <path
                 style="font-size:medium;font-style:normal;font-variant:normal;font-weight:normal;font-stretch:normal;text-indent:0;text-align:start;text-decoration:none;line-height:normal;letter-spacing:normal;word-spacing:normal;text-transform:none;direction:ltr;block-progression:tb;writing-mode:lr-tb;text-anchor:start;baseline-shift:baseline;color:#000000;fill:#ffffff;fill-opacity:1;stroke:none;stroke-width:3;marker:none;visibility:visible;display:inline;overflow:visible;enable-background:accumulate;font-family:Sans;-inkscape-font-specification:Sans"
                 d="M 553.5,498.7 C 555.1,502.6 556.7,506.6 558.1,510.8 539.6,520.5 517.6,527.9 493.4,532.3 493,527.8 492.8,523.3 492.6,518.9 515.6,514.6 536.2,507.6 553.5,498.7 z"
                 id="use4126"
                 inkscape:connector-curvature="0" />
            <path
                 inkscape:connector-curvature="0"
                 id="path3932-5-3-8-0-8-0-1-29-9-5"
                 d="M 438.1,418.3 C 437.8,418.3 437.5,418.3 437.2,418.3 436.9,418.3 436.9,418.3 436.6,418.3 436.3,418.3 435.9,418.3 435.6,418.3 L 435.6,418.3 C 412.5,418.3 391.3,433.7 377.1,449.1 346.3,486.1 334.9,532.3 333.7,578.5 334.6,590.9 332.1,606.3 337.4,615.5 355.5,624.8 388.2,627.8 410.4,630.9 416.2,630.9 425.5,630.9 435.6,630.9 L 435.6,630.9 C 436.9,630.9 437.8,630.9 438.7,630.9 439,630.9 439,630.9 439,630.9 449.2,630.9 458.4,630.9 464.3,630.9 486.5,627.8 519.1,624.8 537.6,615.5 542.5,606.3 540.1,590.9 541,578.5 540.1,532.3 528.4,486.1 497.6,449.1 483.4,433.7 462.1,418.3 439,418.3 L 439,418.3 C 438.7,418.3 438.4,418.3 438.1,418.3 z"
                 style="fill:#a3b2c9;fill-opacity:1;fill-rule:evenodd;stroke:#000000;stroke-width:3;stroke-linecap:round;stroke-linejoin:round;stroke-miterlimit:4;stroke-opacity:1;stroke-dasharray:none;stroke-dashoffset:0" />
            <path
                 inkscape:connector-curvature="0"
                 id="path4010-7-1-8-9-2-5-5-8-2-9"
                 d="M 530.8,655.6 C 530.2,640.2 522.2,627.8 509.3,624.8 497.3,621.7 484.3,621.7 472.3,624.8 461.8,627.8 451.3,634 446.1,643.2 445.2,646.3 442.4,649.4 444,655.6 446.4,655.6 450.7,655.6 454.1,655.6 478.2,658.7 502.2,658.7 526.2,655.6 527.8,655.6 529.3,655.6 530.8,655.6 z"
                 style="fill:#e1ebcf;fill-opacity:1;stroke:#000000;stroke-width:3;stroke-linecap:butt;stroke-linejoin:miter;stroke-miterlimit:4;stroke-opacity:1;stroke-dasharray:none" />
            <path
                 inkscape:connector-curvature="0"
                 id="path4010-7-1-8-9-2-5-5-3-11-2-2"
                 d="M 340.4,655.6 C 341,643.2 349.1,627.8 361.4,624.8 373.4,621.7 385.7,624.8 397.4,624.8 407.9,627.8 418.1,634 423,643.2 423.9,646.3 426.7,652.5 425.2,655.6 422.7,655.6 418.7,655.6 415.3,655.6 391.9,658.7 368.2,658.7 345.1,655.6 343.5,655.6 342,655.6 340.4,655.6 z"
                 style="fill:#e1ebcf;fill-opacity:1;stroke:#000000;stroke-width:3;stroke-linecap:butt;stroke-linejoin:miter;stroke-miterlimit:4;stroke-opacity:1;stroke-dasharray:none" />
            <rect
                 rx="120.2"
                 ry="92.43"
                 y="310.5"
                 x="313.6"
                 height="184.9"
                 width="240.3"
                 id="rect3030-16-8-7"
                 style="fill:#c5aa8d;fill-opacity:1;fill-rule:evenodd;stroke:#000000;stroke-width:3;stroke-linecap:round;stroke-linejoin:round;stroke-miterlimit:4;stroke-opacity:1;stroke-dasharray:none;stroke-dashoffset:0" />
            <path
                 sodipodi:nodetypes="ccccccccccccsccccccccccccccsccccccccccccccccccsccccccccscc"
                 inkscape:connector-curvature="0"
                 id="path3737-2-2-5-0-5-0"
                 d="M 418.4,261.2 C 410.1,261.2 411,264.3 402.7,267.4 394.7,267.4 393.4,264.3 385.7,267.4 378,270.4 379.9,273.5 372.5,276.6 364.8,279.7 362.9,276.6 356.1,279.7 349.1,285.9 351.5,288.9 345.4,292 338.9,298.2 336.4,295.1 330.6,301.3 325,304.3 328.4,307.4 323.5,313.6 318.6,319.7 315.5,316.7 311.5,322.8 307.5,329 311.2,332.1 308.1,338.2 305,344.4 301.3,344.4 299.1,350.6 297.3,356.7 301.3,359.8 300.1,366 298.8,372.1 294.8,372.1 294.8,378.3 294.8,387.5 298.8,387.5 299.8,393.7 300.4,399.8 296.7,402.9 298.5,409.1 300.4,415.3 304.1,415.3 307.2,421.4 309.9,427.6 306.2,430.7 309.9,436.8 313.6,443 317,439.9 321.6,446.1 326.3,452.2 325.2,451.3 330.7,454.4 333.8,460.5 336,460.5 338.7,460.5 328.6,445.1 320.7,430.7 320.7,412.2 320.5,400.4 322.2,387.9 325.3,378.3 330.3,372.1 338.5,364.6 340.7,362.9 348.8,359.8 350.9,362.9 359.5,359.8 368.2,356.7 366,353.6 375.2,350.6 384.2,347.5 385.4,350.6 394.7,350.6 404.2,347.5 403.3,344.4 412.8,344.4 422.4,341.3 422.4,347.5 432.2,347.5 441.8,347.5 441.8,341.3 451.3,344.4 460.9,344.4 461.4,350.2 469.2,350.6 478.5,350.6 480,347.5 488.9,350.6 497.9,353.6 495.7,356.7 504.3,359.8 512.7,362.9 514.8,359.8 522.8,366 522.8,366 522.8,366 523.1,366 525.3,369 529,372.1 533.9,378.3 537.9,381.4 542.5,381.4 546.6,384.4 549,393.8 549.3,402.7 549.3,412.2 549.3,430.7 541.5,443.1 531.6,458.5 537.1,453.3 539.2,449.9 541.2,447.1 546.1,441 551.5,443 555.5,436.8 559.5,430.7 555.5,430.7 558.6,424.5 561.6,418.3 565.7,418.3 567.5,412.2 569.7,402.9 565.7,402.9 566.9,396.8 567.8,390.6 571.8,390.6 572.1,381.4 572.1,375.2 568.1,375.2 567.2,369 566.3,359.8 570.3,359.8 568.4,353.6 566.6,347.5 562.6,347.5 559.8,341.3 557,335.1 560.7,332.1 557,325.9 553,319.7 549.6,322.8 545,316.7 540.4,310.5 543.8,307.4 538.2,301.3 532.7,295.1 529.9,298.2 523.8,295.1 517.6,288.9 520.4,285.9 513.6,282.8 506.5,279.7 504.7,282.8 497.3,276.6 490.2,273.5 492,270.4 484.3,267.4 476.3,267.4 475.4,270.4 467.1,267.4 459.1,264.3 460,261.2 451.7,261.2 443.6,261.2 443.3,264.3 435,264.3 426.6,263.7 425.4,261.2 418.4,261.2 z"
                 style="fill:#cb7841;fill-opacity:1;fill-rule:evenodd;stroke:#000000;stroke-width:3;stroke-miterlimit:4;stroke-opacity:1;stroke-dasharray:none" />
            <g
                 id="flowRoot4370-8-1-8"
                 style="font-size:40px;font-style:normal;font-variant:normal;font-weight:normal;font-stretch:normal;line-height:125%;letter-spacing:0px;word-spacing:0px;fill:#ffffff;fill-opacity:1;stroke:none;font-family:Carbon Block;-inkscape-font-specification:Carbon Block"
                 transform="matrix(3.697,0,0,3.697,-246.1,498.4)">
                <path
                     style="fill:#ffffff;fill-opacity:1"
                     inkscape:connector-curvature="0"
                     id="path4379-4-5-3"
                     d="M 185.3,27.15 171,27.15 171,20.15 C 171,18.84 171.7,17.48 173.2,16.07 174.6,14.97 176.1,13.87 177.5,12.75 179,11.52 179.8,10.47 179.8,9.588 179.8,9.374 179.8,9.068 179.8,8.668 179.9,8.268 179.9,7.961 179.9,7.748 179.9,6.414 179.3,5.748 178.1,5.748 177,5.748 176.5,6.228 176.5,7.188 L 176.5,12.43 171,12.43 C 171,12 170.9,11.37 170.8,10.55 170.8,9.694 170.8,9.054 170.8,8.628 170.8,6.414 171.4,4.854 172.8,3.948 173.9,3.201 175.7,2.828 178.1,2.828 182.9,2.828 185.3,4.321 185.3,7.308 L 185.3,10.39 C 185.3,11.61 184.5,12.88 183,14.19 181.6,15.28 180.2,16.37 178.8,17.47 177.2,18.77 176.5,20.05 176.5,21.31 L 176.5,24.39 185.3,24.39 185.3,27.15" />
                <path
                     style="fill:#ffffff;fill-opacity:1"
                     inkscape:connector-curvature="0"
                     id="path4381-7-1-5"
                     d="M 197.3,27.19 191.6,27.19 191.6,8.468 C 191.6,7.721 191.5,7.201 191.3,6.908 191,6.588 190.5,6.428 189.8,6.427 L 188.6,6.427 188.6,3.868 C 189.4,3.814 190.5,3.788 191.7,3.788 L 193,3.828 193.1,3.828 C 195.9,3.828 197.3,5.534 197.3,8.948 L 197.3,27.19" />
            </g>
            <g
                 transform="translate(0,4)"
                 id="g4150">
                <path
                     id="path3466-0-7-1-7"
                     d="M 367.5,415.3 C 367.5,399.8 380.5,399.8 394,399.8"
                     inkscape:connector-curvature="0"
                     style="fill:none;stroke:#0045ff;stroke-width:14.8313;stroke-linecap:round;stroke-linejoin:round;stroke-miterlimit:4;stroke-opacity:0.5662;stroke-dasharray:none" />
                <path
                     id="path3466-0-7-6"
                     d="M 499.4,415.3 C 499.4,402.9 486.5,402.9 472.6,402.9"
                     inkscape:connector-curvature="0"
                     style="fill:none;stroke:#0045ff;stroke-width:14.831;stroke-linecap:round;stroke-linejoin:round;stroke-miterlimit:4;stroke-opacity:0.5662;stroke-dasharray:none" />
            </g>
            <path
                 style="fill:none;stroke:#000000;stroke-width:3;stroke-linecap:round;stroke-linejoin:round;stroke-miterlimit:4;stroke-opacity:1;stroke-dasharray:none"
                 inkscape:connector-curvature="0"
                 d="M 390,389.6 406.2,404.5 H 381.9"
                 id="path3458-0-8-7" />
            <path
                 style="fill:none;stroke:#000000;stroke-width:3;stroke-linecap:round;stroke-linejoin:round;stroke-miterlimit:4;stroke-opacity:1;stroke-dasharray:none"
                 inkscape:connector-curvature="0"
                 d="M 478.3,389.5 462.1,404.5 H 486.4"
                 id="path3458-0-8-9-9" />
            <path
                 style="fill:#bc7272;fill-opacity:1;stroke:#000000;stroke-width:2.9999;stroke-linecap:round;stroke-linejoin:round;stroke-miterlimit:4;stroke-opacity:1;stroke-dasharray:none"
                 inkscape:connector-curvature="0"
                 d="M 395.1,418.2 C 382.2,432.5 382.2,458.1 395.1,469.5 420.9,458.1 446.4,458.1 472.1,469.5 484.7,458.1 484.7,432.5 472.1,418.2 446.4,432.5 420.9,432.5 395.1,418.2 z"
                 id="path3460-1-6-7" />
        </g>
    </g>
</svg>
