<?xml version="1.0" encoding="UTF-8" standalone="no"?>
<!-- Created with Inkscape (http://www.inkscape.org/) -->
<svg xmlns:inkscape="http://www.inkscape.org/namespaces/inkscape" xmlns:rdf="http://www.w3.org/1999/02/22-rdf-syntax-ns#" xmlns:ns1="http://sozi.baierouge.fr" xmlns:dc="http://purl.org/dc/elements/1.1/" xmlns="http://www.w3.org/2000/svg" xmlns:cc="http://web.resource.org/cc/" xmlns:xlink="http://www.w3.org/1999/xlink" xmlns:sodipodi="http://sodipodi.sourceforge.net/DTD/sodipodi-0.dtd" id="svg2" version="1.1" viewBox="0 0 389.99 384.27" inkscape:version="0.91 r13725">
  <title id="title3223">Rainy Stick Figure Cloud</title>
  <g id="layer1" transform="translate(-765.78 -392.07)">
    <g id="g3198">
      <path id="path6209" style="block-progression:tb;text-indent:0;color:#000000;text-transform:none;fill:#000000" d="m871.62 591.59-0.53125 0.75-1.875 5.2812h-0.0313l-1.9375 5.6562v0.0313l-2.0312 6-0.9375 2.9375 0.15625 1.4688 1.25 0.8125 1.4062-0.4375 0.5-0.75 0.96875-2.9375h-0.0313l2.0312-5.9688v-0.0313l1.9375-5.625 1.875-5.25-0.125-1.4688-1.2188-0.84375zm-13.188 39.938-0.5 0.78125-3.375 11.062v0.0313l-2.6562 9.0312 0.21875 1.4688 1.25 0.78125 1.4062-0.46875 0.46875-0.78125 2.6875-9.0312v-0.0313l3.3438-11.031-0.1875-1.4688-1.25-0.78125zm-11.906 40.312-0.46875 0.78125-0.21875 0.8125h-0.0313l-4.25 15.219-1.1562 4.2188 0.25 1.4375 1.25 0.75 1.4062-0.46875 0.46875-0.8125 1.1562-4.1875 4.25-15.188 0.25-0.8125-0.25-1.4688-1.25-0.75zm-11.219 40.5-0.4375 0.78125-1.375 5v0.0313l-3.625 13.688v0.0313l-0.40625 1.5625 0.25 1.4688 1.2812 0.71875 1.4062-0.5 0.4375-0.8125 0.40625-1.5625 3.6562-13.719 1.3438-5-0.25-1.4375-1.2812-0.75zm-10.64 40.66l-0.4375 0.78125-0.5625 2.1562-2.4375 9.8125-1.9375 7.9688-0.0937 0.5 0.3125 1.4375 1.2812 0.6875 1.375-0.53125 0.4375-0.8125 0.0937-0.46875v-0.0313l1.9375-7.9375h-0.0313l2.4688-9.7812 0.53125-2.125-0.28125-1.4688-1.2812-0.71875z"/>
      <path id="path6211" style="block-progression:tb;text-indent:0;color:#000000;text-transform:none;fill:#000000" d="m900.19 592.41-0.5 0.75-1.2188 3.5625-0.0313 0.0313-1.2188 3.8125v0.0313l-1.25 4.0312v0.0313l-1.2812 4.2812v0.0313l-1.2188 4.375 0.25 1.4375 1.2812 0.75 1.375-0.46875 0.46875-0.8125 1.2188-4.3125v-0.0313l1.25-4.25v-0.0313l1.25-4.0312h-0.0313l1.25-3.75v-0.0313l1.2188-3.5-0.15625-1.4688-1.23-0.85zm-11.625 40.469-0.4375 0.78125-1.2812 5.0625-2.75 11.094-1.0625 4.25 0.28125 1.4375 1.2812 0.71875 1.375-0.53125 0.4375-0.78125 1.0625-4.25 2.75-11.094 1.2812-5.0312-0.28125-1.4375-1.2812-0.75zm-10.156 40.75-0.46875 0.78125-2.6875 10.562h0.0313l-2.5938 9.7812 0.28125 1.4375 1.2812 0.75 1.375-0.5 0.46875-0.8125 2.5625-9.7812 2.6875-10.562-0.28125-1.4375-1.2812-0.75zm-10.812 40.531-0.46875 0.78125-1.6562 5.625v0.0313l-1.75 5.75-1.7812 5.6562v0.0313l-0.96875 2.9375 0.1875 1.4688 1.2188 0.78125 1.4375-0.40625 0.5-0.78125 0.9375-2.9375 0.0313-0.0313 1.7812-5.6875 1.75-5.7812v-0.0313l1.6562-5.6562-0.21875-1.4375-1.25-0.78125zm-13.062 39.75-0.53125 0.75-1.5 3.8438h-0.0313l-2.0312 4.875 0.0625 1.4688 1.1875 0.90625 1.4375-0.3125 0.5625-0.71875 2.0312-4.8438v-0.0313l1.5312-3.9062-0.0937-1.4688-1.1875-0.90625z"/>
      <path id="path6213" style="block-progression:tb;text-indent:0;color:#000000;text-transform:none;fill:#000000" d="m925.78 595.94-0.53125 0.75-1.7812 4.9375v0.0313l-1.7188 5.0625v0.0313l-1.7188 5.1875-1.5 4.6875 0.21875 1.4688 1.2188 0.8125 1.4375-0.4375 0.46875-0.78125 1.5-4.6562v-0.0313l1.6875-5.1562 1.7188-5.0312v-0.0313l1.7812-4.9375-0.15625-1.4688-1.2188-0.84375zm-12.688 40.125-0.5 0.78125-0.6875 2.4375-3.0938 11.344-1.7188 6.5 0.28125 1.4688 1.2812 0.71875 1.375-0.5 0.46875-0.78125 1.7188-6.5h-0.0313l3.0938-11.312 0.6875-2.4375-0.21875-1.4375-1.2812-0.78125zm-10.812 40.625-0.46875 0.78125-1.9375 7.5625-2.9375 11.281-0.40625 1.4688 0.28125 1.4688 1.25 0.71875 1.4062-0.5 0.46875-0.78125 0.375-1.4688 2.9375-11.312 1.9688-7.5625-0.28125-1.4375-1.2812-0.75zm-10.75 40.562-0.46875 0.78125-0.0313 0.125v0.0313l-3 10.344v0.0313l-1.5 4.9688v0.0313l-1.4375 4.5625 0.21875 1.4375 1.2188 0.8125 1.4375-0.4375 0.46875-0.78125 1.4375-4.5625v-0.0313l1.5312-5.0312 3-10.406v-0.0313l0.0313-0.125-0.25-1.4688-1.25-0.75zm-12.812 39.812-0.53125 0.71875-1.0938 2.7188v0.0313l-1.6562 3.875 0.0313 1.4688 1.1562 0.9375 1.4688-0.3125 0.5625-0.71875 1.6562-3.9062v-0.0313h0.0313l1.0938-2.75-0.0937-1.4688-1.1875-0.90625z"/>
      <path id="path6215" style="block-progression:tb;text-indent:0;color:#000000;text-transform:none;fill:#000000" d="m952.78 593.84-0.46875 0.78125-2.6875 9.5938v0.0313l-2.5312 9.3438-0.34375 1.2812 0.25 1.4688 1.2812 0.75 1.4062-0.53125 0.4375-0.78125 0.34375-1.2812 2.5312-9.3125v-0.0313l2.6875-9.5938-0.25-1.4688-1.25-0.75zm-10.938 40.562-0.46875 0.78125-3.8438 14.562v0.0313l-1.5312 5.6875 0.25 1.4688 1.2812 0.75 1.375-0.5 0.46875-0.8125 1.5312-5.6875v-0.0313l3.8438-14.562-0.25-1.4688-1.2812-0.71875zm-11 40.5-0.46875 0.78125-0.59375 2.0625v0.0313l-2.9062 9.875v0.0313l-2.4688 8.0938 0.21875 1.4688 1.25 0.78125 1.4062-0.4375 0.46875-0.78125 2.4688-8.125h0.0313v-0.0313l2.9062-9.9062v-0.0313l0.59375-2.0625-0.25-1.4688-1.25-0.75zm-12.31 40.1l-0.5 0.75-1.4688 4.4688h0.0313l-4.125 12.031v0.0313l-1.1562 3.3125 0.125 1.4688 1.2188 0.84375 1.4375-0.375 0.5-0.75 1.1875-3.375 4.125-12.062v-0.0313l1.4688-4.4688-0.1875-1.4688-1.2188-0.8125zm-13.781 39.625-0.53125 0.71875-1.1875 3.2812 0.125 1.4688 1.2188 0.84375 1.4062-0.375 0.53125-0.75 1.1875-3.25-0.125-1.4688-1.1875-0.875z"/>
      <path id="path6217" style="block-progression:tb;text-indent:0;color:#000000;text-transform:none;fill:#000000" d="m981.91 596.69-0.53125 0.78125-5.6875 17.062v0.0313l-0.9375 2.8438 0.1875 1.4688 1.2188 0.78125 1.4375-0.40625 0.5-0.78125 0.90625-2.8125v-0.0313l5.7188-17.062-0.1875-1.4688-1.2188-0.8125zm-13.125 39.938-0.5 0.75-6.375 20.031 0.1875 1.4375 1.25 0.8125 1.4062-0.4375 0.5-0.75 6.375-20.031-0.1875-1.4375-1.25-0.8125zm-12.781 40-0.5 0.75-1.625 4.9688h0.0313l-4.9688 14.969 0.1875 1.4688 1.2188 0.8125 1.4375-0.40625 0.5-0.75 4.9375-15v-0.0313l1.5938-4.9375-0.2-1.47-1.2188-0.8125zm-13.281 39.812-0.5 0.75-0.375 1.0938-3.2812 9.4062v0.0313l-3.3438 9.25 0.15625 1.4688 1.2188 0.84375 1.4062-0.375 0.53125-0.75 3.3125-9.2812 3.3125-9.4375v-0.0313l0.375-1.0625-0.15625-1.4688-1.2188-0.84375z"/>
      <path id="path6219" style="block-progression:tb;text-indent:0;color:#000000;text-transform:none;fill:#000000" d="m1011.1 594.19-0.4688 0.78125-2.4375 8.2812v0.0313l-2.6563 8.3125-1.125 3.3438 0.1876 1.4688 1.2187 0.8125 1.4063-0.40625 0.5-0.75 1.1562-3.375v-0.0313l2.6562-8.3438v-0.0313l2.4688-8.3438-0.2188-1.4375-1.2812-0.78125zm-13.125 39.75-0.53125 0.75-0.71875 1.9062v0.0313l-3.1562 8.3438v0.0313l-3.25 8.3438v0.0313l-0.375 0.90625 0.0937 1.4688 1.1875 0.875 1.4375-0.34375 0.5625-0.71875 0.34375-0.9375 3.25-8.375v-0.0313l3.1875-8.375 0.71875-1.9375-0.125-1.4688-1.2188-0.875zm-15.188 39.125-0.5625 0.71875-1.875 4.7812-5.8125 14.781 0.0625 1.4688 1.1875 0.875 1.4375-0.34375 0.5625-0.71875 5.8125-14.781 1.875-4.75-0.0625-1.4688-1.1875-0.90625zm-15.219 39.219-0.5 0.75-2.7812 7.625v0.0313l-2.9062 8.375 0.15625 1.4688 1.2188 0.84375 1.4375-0.40625 0.5-0.75 2.9062-8.375v-0.0313l2.75-7.5938-0.125-1.4688-1.24-0.87z"/>
      <path id="path6221" style="block-progression:tb;text-indent:0;color:#000000;text-transform:none;fill:#000000" d="m1034.1 593.88-0.375 0.84375-0.4063 2.8438v0.0313l-0.5313 2.9375h0.031l-0.625 3.0312v0.0313l-0.6875 3.125v0.0313l-0.75 3.2188v0.0313l-0.8438 3.3125v0.0313l-0.4687 1.6875 0.25 1.4688 1.2813 0.75 1.375-0.5 0.4687-0.78125 0.4687-1.75v-0.0313l0.875-3.375 0.75-3.2812 0.031-0.0313 0.6875-3.1875v-0.0313l0.625-3.0938v-0.0313-0.0313l0.5-2.9688v-0.0313h0.031l0.4063-2.9062-0.4063-1.4062-1.375-0.59375zm-10.125 40.469-0.5 0.78125-0.031 0.0937v0.0313l-2.5937 7.9062-2.75 8.1875-1.25 3.6562 0.1562 1.4688 1.2188 0.8125 1.4374-0.40625 0.5-0.75 1.25-3.6562 2.7813-8.1875v-0.0313l2.5937-7.9375 0.031-0.15625-0.1875-1.4688-1.25-0.78125zm-13.438 39.75-0.5 0.75-3.9374 11.375v0.0313l-2.8438 8.4688 0.1562 1.4688 1.2188 0.84375 1.4062-0.4375 0.5313-0.75 2.8437-8.4688v-0.0313l3.9376-11.375-0.1563-1.4688-1.2187-0.8125zm-13.312 39.875-0.46875 0.78125-2.6562 8.625 0.1875 1.4688 1.25 0.78125 1.4062-0.4375 0.5-0.78125 2.6563-8.625-0.2188-1.4688-1.25-0.78125z"/>
      <g id="g3181">
        <g id="g3177">
          <path id="path3089" style="fill:#ffffff" d="m1061.3 478.88c34.232-48.436-35.071-103.93-75.901-51.806-11.838-54.843-88.603-32.756-74.021 25.142-39.169-38.407-87.532-19.335-55.093 34.812-82.762-38.605-134.81 66.712-22.677 82.015-0.054 1.0117 266.1-0.69143 265.9-0.43865 89.099-35.641 58.042-146.94-38.206-89.724z"/>
          <path id="path6109" style="block-progression:tb;text-indent:0;color:#000000;text-transform:none;fill:#000000" d="m953.16 392.19c-5.2854-0.40262-10.631 0.2404-15.75 1.8438-18.161 5.6882-33.284 23.793-31.125 49.062-18.309-14.485-37.813-18.133-50.969-11.281-7.4876 3.8998-12.505 11.506-13.156 21.312-0.51142 7.7036 1.5812 16.782 6.5 27.062-38.723-13.735-70.622 2.5971-80.094 26.344-5.1008 12.788-3.4156 27.739 6.9375 40.062 10.306 12.267 28.839 21.906 57.219 25.844 0.019 0.004 0.0759 0.027 0.0937 0.0313 0.097 0.0134 0.18406 0.018 0.28125 0.0313 0.0862 0.0131 0.21364 0.0548 0.28125 0.0625 0.26803 0.0306 0.49472 0.0474 0.78125 0.0625 0.57306 0.0302 1.3216 0.0405 2.3125 0.0625 1.9818 0.0439 4.8552 0.0996 8.5 0.125 7.2897 0.0509 17.681 0.0692 30.156 0.0625 24.95-0.0135 58.214-0.14738 91.469-0.28125s66.484-0.26669 90.406-0.375c13.461-0.0542 23.839-0.10461 31.094-0.125 1.8068-0.005 2.7848 0.002 4.1874 0l8.5-0.25c45.846-18.339 61.799-56.803 52.406-84.062-4.6962-13.63-15.976-24.303-32.156-27.469-13.794-2.6989-30.985-0.0279-50.969 9.8438 9.3813-22.485 0.2351-45.329-16.531-57.719-9.7274-7.1882-22.026-11.014-34.688-9.5312-10.991 1.2871-22.127 6.6796-31.875 17-3.7831-11.042-10.468-18.826-18.531-23.25-4.7769-2.6209-9.9959-4.0661-15.281-4.4688l0.00005-0.0001zm-0.53125 6.9688c4.354 0.32935 8.5808 1.5089 12.438 3.625 7.7135 4.2322 14.09 12.13 16.875 25.031l1.5625 7.2812 4.625-5.875c9.7251-12.416 20.785-18.117 31.531-19.375 10.747-1.2585 21.296 2.0256 29.719 8.25 16.846 12.449 25.141 35.987 9.0312 58.781l4.6563 5c23.563-14.006 42.696-17.413 56.625-14.688 13.929 2.7253 22.913 11.377 26.875 22.875 7.8858 22.887-5.0487 57.646-47.812 75.031-0.01 0.004-0.022-0.004-0.031 0-0.5149-0.004-1.2587 0.00082-2.2188 0-1.9472-0.002-4.775-0.0102-8.4062 0-7.2626 0.0204-17.663 0.0708-30.125 0.125-24.924 0.10832-58.155 0.24115-91.406 0.375-33.252 0.13385-66.505 0.26781-91.438 0.28125-12.466 0.007-22.871-0.0119-30.125-0.0625-3.6272-0.0253-6.4642-0.0826-8.375-0.125-0.95542-0.0212-1.6941-0.0398-2.125-0.0625l-0.46875-0.0625c-27.463-3.7482-44.349-12.948-53.188-23.469-8.8385-10.521-10.021-22.34-5.7812-32.969 8.4785-21.257 39.666-37.606 79.688-18.938l10.375 4.8438-5.875-9.8125c-7.8662-13.13-10.611-23.858-10.094-31.656 0.5177-7.7982 3.9618-12.696 9.4062-15.531 10.889-5.6714 31.449-1.8091 50.312 16.688l8.9062 8.7188-3.0625-12.062c-6.9099-27.437 7.5603-45.262 24.781-50.656 4.3052-1.3485 8.771-1.8918 13.125-1.5625h-0.0002z"/>
        </g>
        <path id="path6111" style="block-progression:tb;text-indent:0;color:#000000;text-transform:none;fill:#000000" d="m827.72 479.28c-21.661 5.9434-47.543 24.326-56.781 45.156l-0.0313 0.125-0.0313 0.0937c-0.64081 2.4714-0.9543 5.062-0.8125 7.6562l2.9688-0.15625c-0.1203-2.2009 0.16739-4.4532 0.71875-6.625 8.7014-19.456 34.09-37.706 54.75-43.375l-0.78125-2.875z"/>
        <path id="path6113" style="block-progression:tb;text-indent:0;color:#000000;text-transform:none;fill:#000000" d="m847 486.31c-9.5343 1.9306-24.859 10.564-38.406 21.438-13.547 10.873-25.29 23.814-26.406 35.438l2.9688 0.3125c0.93554-9.743 12.035-22.749 25.312-33.406 13.278-10.657 28.731-19.144 37.125-20.844l-0.6-2.94z"/>
        <path id="path6115" style="block-progression:tb;text-indent:0;color:#000000;text-transform:none;fill:#000000" d="m867.28 498.44c-12.504 2.0249-26.743 9.7391-39.25 20.25s-23.283 23.832-28.594 37.25l2.8125 1.0938c5.05-12.75 15.52-25.78 27.72-36.03s26.12-17.74 37.78-19.62l-0.46875-2.9375z"/>
        <path id="path6117" style="block-progression:tb;text-indent:0;color:#000000;text-transform:none;fill:#000000" d="m897.47 508.56c-34.284 7.9934-62.15 29.182-72.781 56.469l2.81 1.09c10.176-26.12 37.166-46.848 70.656-54.656l-0.6875-2.9062z"/>
        <path id="path6119" style="block-progression:tb;text-indent:0;color:#000000;text-transform:none;fill:#000000" d="m877.22 438.88c-5.31 1.4012-23.7 5.7113-30.312 24.156l2.8125 1.0312c6.07-16.94 22.8-20.87 28.28-22.32l-0.78125-2.875z"/>
        <path id="path6121" style="block-progression:tb;text-indent:0;color:#000000;text-transform:none;fill:#000000" d="m891.62 447.91c-6.0597 0.4786-14.501 3.1242-21.688 7.9375-6.9783 4.6738-12.747 11.549-13.281 20.5-0.21041 0.15048-0.46643 0.30917-0.625 0.4375-0.30279 0.24504-0.51836 0.35147-0.8125 0.9375-0.14707 0.29302-0.32432 1.0565 0.125 1.6562 0.44932 0.59971 0.94446 0.60437 1.1875 0.625 0.48607 0.0413 0.68009-0.0318 0.9375-0.0937 0.51481-0.12398 1.0597-0.30073 1.5312-0.46875 0.23575-0.084 0.43403-0.16132 0.59375-0.21875 0.15972-0.0574 0.36119-0.10444 0.1875-0.0625l-0.28-1.16h0.0313l0.0313-0.78125c0.19187-8.1092 5.3395-14.424 12.031-18.906 6.6918-4.4819 14.886-6.9802 20.281-7.4062l-0.25-3z"/>
        <path id="path6123" style="block-progression:tb;text-indent:0;color:#000000;text-transform:none;fill:#000000" d="m907.81 461.03c-19.406 1.283-32.598 13.092-43.531 27.875l2.4062 1.7812c10.705-14.476 23.051-25.447 41.344-26.656l-0.21875-3z"/>
        <path id="path6125" style="block-progression:tb;text-indent:0;color:#000000;text-transform:none;fill:#000000" d="m955.16 402.78c-5.2924-0.0235-11.991 2.1232-19.125 5.7812-9.5122 4.8775-19.661 12.647-27.281 22.75l2.375 1.8125c7.2941-9.6713 17.156-17.227 26.281-21.906 9.1253-4.6791 17.639-6.2537 21.531-4.8438l1-2.8438c-1.4096-0.51068-3.0171-0.74217-4.7812-0.75z"/>
        <path id="path6127" style="block-progression:tb;text-indent:0;color:#000000;text-transform:none;fill:#000000" d="m956.47 417.09c-7.5473 0.48808-15.58 3.8833-22.781 8.8438-9.6022 6.614-17.774 16.086-21.125 26l2.8438 0.96875c3.0581-9.0481 10.823-18.2 19.969-24.5 9.1462-6.2999 19.62-9.6748 27.781-7.8438l0.65625-2.9375c-2.3576-0.52899-4.828-0.69394-7.3438-0.53125z"/>
        <path id="path6459" style="block-progression:tb;text-indent:0;color:#000000;text-transform:none;fill:#000000" d="m911.75 521.91c-29.324 6.8369-53.173 24.966-62.281 48.344l2.8125 1.0938c8.6536-22.211 31.626-39.879 60.156-46.531l-0.6875-2.9062z"/>
        <path id="path6461" style="block-progression:tb;text-indent:0;color:#000000;text-transform:none;fill:#000000" d="m927.75 532.09c-22.845 5.3264-41.443 19.446-48.562 37.719l2.81 1.1c6.6645-17.106 24.386-30.734 46.438-35.875l-0.6875-2.9375z"/>
        <path id="path6463" style="block-progression:tb;text-indent:0;color:#000000;text-transform:none;fill:#000000" d="m950.12 541.78c-19.368 2.3056-36.042 12.259-43.625 26.75l2.6562 1.375c7-13.38 22.78-22.94 41.34-25.15l-0.375-2.9688z"/>
      </g>
    </g>
  </g>
  <metadata>
    <rdf:RDF>
      <cc:Work>
        <dc:format>image/svg+xml</dc:format>
        <dc:type rdf:resource="http://purl.org/dc/dcmitype/StillImage"/>
        <cc:license rdf:resource="http://creativecommons.org/licenses/publicdomain/"/>
        <dc:publisher>
          <cc:Agent rdf:about="http://openclipart.org/">
            <dc:title>Openclipart</dc:title>
          </cc:Agent>
        </dc:publisher>
      </cc:Work>
      <cc:License rdf:about="http://creativecommons.org/licenses/publicdomain/">
        <cc:permits rdf:resource="http://creativecommons.org/ns#Reproduction"/>
        <cc:permits rdf:resource="http://creativecommons.org/ns#Distribution"/>
        <cc:permits rdf:resource="http://creativecommons.org/ns#DerivativeWorks"/>
      </cc:License>
    </rdf:RDF>
  </metadata>
</svg>
