<?xml version="1.0" encoding="UTF-8" standalone="no"?>
<!--part of the rodentia icon theme by sixsixfive released under CC0 (https://creativecommons.org/publicdomain/zero/1.0/) on openclipart-->
<svg xmlns="http://www.w3.org/2000/svg" xmlns:xlink="http://www.w3.org/1999/xlink" viewBox="0 0 48 48">
 <defs id="0">
  <linearGradient id="3">
   <stop id="U" stop-color="#fff"/>
   <stop id="V" offset="1" stop-color="#fff" stop-opacity="0"/>
  </linearGradient>
  <linearGradient id="4">
   <stop id="W" stop-color="#fff" stop-opacity="0.8"/>
   <stop id="X" offset="1" stop-color="#fff" stop-opacity="0"/>
  </linearGradient>
  <linearGradient id="5">
   <stop id="Y" stop-color="#2e3436"/>
   <stop id="Z" offset="1" stop-color="#2e3436" stop-opacity="0"/>
  </linearGradient>
  <linearGradient id="6">
   <stop id="a" stop-color="#babdb6"/>
   <stop id="b" offset="1" stop-color="#888a85"/>
  </linearGradient>
  <linearGradient id="7">
   <stop id="c" stop-color="#eeeeec"/>
   <stop id="d" offset="1" stop-color="#d3d7cf"/>
  </linearGradient>
  <linearGradient y1="4.685" x2="0" y2="16.317" id="8" xlink:href="#6" gradientUnits="userSpaceOnUse"/>
  <radialGradient cx="25.978" cy="44.784" r="25.648" id="9" xlink:href="#5" gradientUnits="userSpaceOnUse" gradientTransform="matrix(1,0,0,0.1189711,0,39.455735)"/>
  <radialGradient cx="7.951" cy="12.07" r="20.813" id="A" xlink:href="#7" gradientUnits="userSpaceOnUse" gradientTransform="matrix(-0.3475935,2.1665084,-3.9268494,-0.6300222,57.705288,11.227585)"/>
  <linearGradient y1="5.656" x2="0" y2="42.34" id="B" xlink:href="#4" gradientUnits="userSpaceOnUse"/>
  <linearGradient x1="14.315" y1="-26.595" x2="29.838" y2="19.771" id="C" xlink:href="#3" gradientUnits="userSpaceOnUse"/>
  <radialGradient cx="24.377" cy="45.941" r="23.08" id="D" xlink:href="#5" gradientUnits="userSpaceOnUse" gradientTransform="matrix(1,0,0,0.1455399,0,39.255173)"/>
  <linearGradient x1="4.094" y1="-58.01" x2="15.298" y2="33.906" id="E" xlink:href="#K" gradientUnits="userSpaceOnUse" gradientTransform="translate(0.7063923,-1.4999995)"/>
  <linearGradient y1="4.219" x2="0" y2="43.781" id="F" xlink:href="#4" gradientUnits="userSpaceOnUse"/>
  <linearGradient y1="5.781" x2="0" y2="42.44" id="G" xlink:href="#H" gradientUnits="userSpaceOnUse"/>
  <linearGradient id="H">
   <stop id="e" stop-color="#eeeeec" stop-opacity="0.8"/>
   <stop id="f" offset="1" stop-color="#eeeeec" stop-opacity="0"/>
  </linearGradient>
  <radialGradient cx="60.05" cy="51.39" r="15.03" id="I" xlink:href="#J" gradientUnits="userSpaceOnUse" gradientTransform="matrix(-1.404511,1.1888571,-1,-1.1813958,199.73811,11.750541)"/>
  <linearGradient id="J">
   <stop id="g" stop-color="#eee"/>
   <stop id="h" offset="1" stop-color="#dcdcdc"/>
  </linearGradient>
  <linearGradient id="K">
   <stop id="i" stop-color="#eeeeec"/>
   <stop id="j" offset="1" stop-color="#eeeeec" stop-opacity="0"/>
  </linearGradient>
 </defs>
 <g transform="translate(2.4683952e-7,-1.2954848)" id="1">
  <rect width="42.63" height="37.63" rx="3.043" x="2.685" y="5.185" id="L" fill="url(#8)" stroke="#555753"/>
  <path d="m 51.625748,44.783699 a 25.647936,3.051362 0 1 1 -51.29587205,0 25.647936,3.051362 0 1 1 51.29587205,0 z" transform="matrix(0.9357478,0,0,0.8804876,-0.3086805,3.7878206)" id="M" opacity="0.8" fill="url(#9)"/>
  <g transform="matrix(0.4072511,0,0,0.4072511,-5.9980116,0.7045118)" id="N" opacity="0.5" fill="#fff">
   <path d="m 105.22307,25.426434 c 0,2.29944 -1.99116,4.163505 -4.44738,4.163505 -2.45622,0 -4.44738,-1.864065 -4.44738,-4.163505 0,-2.29944 1.99116,-4.163505 4.44738,-4.163505 2.45622,0 4.44738,1.864065 4.44738,4.163505 z" transform="matrix(1.3491096,0,0,1.4410943,-25.112886,-7.9421993)" id="k"/>
   <path d="m 105.22307,25.426434 c 0,2.29944 -1.99116,4.163505 -4.44738,4.163505 -2.45622,0 -4.44738,-1.864065 -4.44738,-4.163505 0,-2.29944 1.99116,-4.163505 4.44738,-4.163505 2.45622,0 4.44738,1.864065 4.44738,4.163505 z" transform="matrix(1.3491096,0,0,1.4410943,-38.712448,-7.9421993)" id="l"/>
   <path d="m 105.22307,25.426434 c 0,2.29944 -1.99116,4.163505 -4.44738,4.163505 -2.45622,0 -4.44738,-1.864065 -4.44738,-4.163505 0,-2.29944 1.99116,-4.163505 4.44738,-4.163505 2.45622,0 4.44738,1.864065 4.44738,4.163505 z" transform="matrix(1.3491096,0,0,1.4410943,-52.312448,-7.9421993)" id="m"/>
  </g>
  <g transform="matrix(0.4072511,0,0,0.4072511,-5.9980116,-0.2954881)" id="O">
   <path d="m 105.22307,25.426434 c 0,2.29944 -1.99116,4.163505 -4.44738,4.163505 -2.45622,0 -4.44738,-1.864065 -4.44738,-4.163505 0,-2.29944 1.99116,-4.163505 4.44738,-4.163505 2.45622,0 4.44738,1.864065 4.44738,4.163505 z" transform="matrix(1.3491096,0,0,1.4410943,-25.112886,-7.9421993)" id="n" fill="#2e3436"/>
   <path d="m 105.22307,25.426434 c 0,2.29944 -1.99116,4.163505 -4.44738,4.163505 -2.45622,0 -4.44738,-1.864065 -4.44738,-4.163505 0,-2.29944 1.99116,-4.163505 4.44738,-4.163505 2.45622,0 4.44738,1.864065 4.44738,4.163505 z" transform="matrix(1.3491096,0,0,1.4410943,-38.712448,-7.9421993)" id="o" fill="#2e3436"/>
   <path d="m 105.22307,25.426434 c 0,2.29944 -1.99116,4.163505 -4.44738,4.163505 -2.45622,0 -4.44738,-1.864065 -4.44738,-4.163505 0,-2.29944 1.99116,-4.163505 4.44738,-4.163505 2.45622,0 4.44738,1.864065 4.44738,4.163505 z" transform="matrix(1.3491096,0,0,1.4410943,-52.312448,-7.9421993)" id="p" fill="#2e3436"/>
  </g>
  <path d="m 3.1875,16.625 0,23.15625 c 0,1.412963 1.1182879,2.53125 2.53125,2.53125 l 36.5625,0 c 1.412963,0 2.53125,-1.118287 2.53125,-2.53125 l 0,-23.15625 -41.625,0 z" id="P" fill="url(#A)"/>
  <path d="m 5.71875,6.15625 c -1.1645251,0 -2.0625,0.8979751 -2.0625,2.0625 l 0,31.5625 c 0,1.164526 0.897975,2.0625 2.0625,2.0625 l 36.5625,0 c 1.164526,0 2.0625,-0.897974 2.0625,-2.0625 l 0,-31.5625 c 0,-1.1645253 -0.897974,-2.0625 -2.0625,-2.0625 l -36.5625,0 z" id="Q" opacity="0.8" fill="none" stroke="url(#B)"/>
  <path d="m 5.71875,5.65625 c -1.4295372,0 -2.5625,1.132963 -2.5625,2.5625 l 0,6.8125 c 12.552343,-3.321292 26.890816,-5.0502927 41.6875,-6.25 l 0,-0.5625 c 0,-1.4295373 -1.132962,-2.5625 -2.5625,-2.5625 l -36.5625,0 z" id="R" opacity="0.6" fill="url(#C)"/>
 </g>
 <g transform="matrix(0.6716667,0,0,0.6716667,16.379998,16.767499)" id="2">
  <path d="m 47.453955,45.941494 a 23.076923,3.3586134 0 1 1 -46.153847,0 23.076923,3.3586134 0 1 1 46.153847,0 z" transform="translate(-0.3770313,-2.8001078)" id="S" opacity="0.8" fill="url(#D)"/>
  <g transform="translate(-0.7063923,0)" id="T">
   <rect width="42" height="42" x="3.706" y="1.5" id="q" fill="#2e3436" rx="6"/>
   <path d="M 9,4.09375 C 6.2608771,4.09375 4.09375,6.2608771 4.09375,9 l 0,30 c 0,2.739123 2.1671271,4.90625 4.90625,4.90625 l 30,0 c 2.739123,0 4.90625,-2.167127 4.90625,-4.90625 l 0,-30 C 43.90625,6.2608771 41.739123,4.09375 39,4.09375 l -30,0 z" transform="translate(0.7063923,-1.4999995)" id="r" fill="#555753"/>
   <g transform="matrix(1.0455796,0,0,1.0455796,1.5108071,1.7679727)" id="s">
    <path d="M 23.6875,2.9375 C 22.928488,3.0540609 22.301298,3.5770409 22,4.28125 21.9941,4.295069 21.97439,4.298528 21.96875,4.3125 l -5.125,11.84375 -12.875,1.1875 c -0.8412987,0.0941 -1.6102221,0.690191 -1.875,1.53125 -0.2647793,0.841061 -0.054673,1.745974 0.625,2.34375 l 9.71875,8.5625 -2.84375,12.5625 c -0.00262,0.01051 0.00245,0.02073 0,0.03125 -0.2046091,0.877327 0.1588029,1.774984 0.84375,2.28125 0.685179,0.506433 1.665752,0.574383 2.4375,0.125 l 0.03125,0 0,0.03125 L 24,38.1875 l 11.09375,6.59375 0,-0.03125 0.03125,0 c 0.771745,0.449381 1.752318,0.38144 2.4375,-0.125 0.684943,-0.506266 1.048359,-1.403923 0.84375,-2.28125 l 0,-0.03125 -2.84375,-12.53125 9.71875,-8.5625 c 0.679673,-0.597775 0.889778,-1.502692 0.625,-2.34375 -0.264777,-0.841065 -1.033704,-1.437148 -1.875,-1.53125 l -12.875,-1.1875 -5.125,-11.84375 c -0.0032,-0.00776 0.0033,-0.02354 0,-0.03125 L 26,4.28125 C 25.613558,3.3948385 24.714427,2.831768 23.75,2.9375 a 1.2579961,1.2579961 0 0 0 -0.0625,0 z" transform="matrix(0.791778,0,0,0.791778,3.1817558,0.8101045)" id="v" fill="#2e3436"/>
    <path d="m 23.875,4.1875 a 0.96721468,0.96721468 0 0 0 -0.75,0.59375 l -5.40625,12.5625 -13.625,1.25 a 0.96721468,0.96721468 0 0 0 -0.53125,1.6875 l 10.25,9.03125 -3,13.34375 a 0.96721468,0.96721468 0 0 0 1.4375,1.0625 l 11.75,-7 11.75,6.96875 a 0.96721468,0.96721468 0 0 0 1.4375,-1.0625 l -3,-13.3125 10.25,-9.03125 a 0.96721468,0.96721468 0 0 0 -0.53125,-1.6875 l -13.625,-1.25 L 24.875,4.78125 a 0.96721468,0.96721468 0 0 0 -1,-0.59375 z" transform="matrix(0.791778,0,0,0.791778,3.1817558,0.8101045)" id="w" fill="#9c7f00"/>
    <path d="M 12.493449,34.75168 14.968761,23.74672 6.4912097,16.305787 17.722464,15.259228 22.179501,4.897224 l 4.465985,10.358151 11.232158,1.036861 -8.471126,7.44825 2.484814,11.00282 -9.701427,-5.754881 -9.696456,5.763255 0,0 0,0 z" id="x" fill="#edd400"/>
    <path d="M 24,6.28125 18.78125,18.4375 a 0.45469846,0.45469846 0 0 1 -0.375,0.25 l -13.125,1.21875 9.90625,8.71875 a 0.45469846,0.45469846 0 0 1 0.125,0.4375 l -2.90625,12.875 11.375,-6.75 a 0.45469846,0.45469846 0 0 1 0.4375,0 l 11.375,6.71875 L 32.6875,29.0625 a 0.45469846,0.45469846 0 0 1 0.125,-0.4375 l 9.90625,-8.71875 -13.125,-1.21875 a 0.45469846,0.45469846 0 0 1 -0.375,-0.25 L 24,6.28125 z" transform="matrix(0.791778,0,0,0.791778,3.1817558,0.8101045)" id="y" fill="none" stroke="url(#G)"/>
   </g>
   <path d="M 9,4.71875 C 6.5943852,4.71875 4.71875,6.5943852 4.71875,9 l 0,30 c 0,2.405615 1.8756352,4.28125 4.28125,4.28125 l 30,0 c 2.405615,0 4.28125,-1.875635 4.28125,-4.28125 l 0,-30 C 43.28125,6.5943852 41.405615,4.71875 39,4.71875 l -30,0 z" transform="translate(0.7063923,-1.4999995)" id="t" opacity="0.8" fill="none" stroke="url(#F)" stroke-linecap="round" stroke-dashoffset="30"/>
   <path d="m 9.7063923,2.5937505 c -2.7391229,0 -4.90625,2.1671271 -4.90625,4.90625 l 0,17.1562505 C 16.88535,19.523108 30.480987,15.086728 44.612642,12.125001 l 0,-4.6250005 c 0,-2.7391229 -2.167127,-4.90625 -4.90625,-4.90625 l -29.9999997,0 0,0 z" id="u" opacity="0.6" fill="url(#E)"/>
  </g>
 </g>
</svg>
