<?xml version="1.0"?>
<svg xmlns:rdf="http://www.w3.org/1999/02/22-rdf-syntax-ns#" xmlns="http://www.w3.org/2000/svg" xmlns:sodipodi="http://inkscape.sourceforge.net/DTD/sodipodi-0.dtd" xmlns:cc="http://web.resource.org/cc/" xmlns:xlink="http://www.w3.org/1999/xlink" xmlns:dc="http://purl.org/dc/elements/1.1/" xmlns:svg="http://www.w3.org/2000/svg" id="svg2" viewBox="0 0 140 190" sodipodi:version="0.32" version="1.0" y="0" x="0" sodipodi:docname="d_j.svg" sodipodi:docbase="/home/nicu/Desktop/simple">
  <sodipodi:namedview id="base" bordercolor="#666666" borderopacity="1.0" pagecolor="#ffffff"/>
  <defs id="defs3">
    <linearGradient id="linearGradient5417">
      <stop id="stop5419" stop-color="#f0a700" offset="0"/>
      <stop id="stop5421" stop-color="#ffed00" offset="1"/>
    </linearGradient>
    <linearGradient id="linearGradient5407">
      <stop id="stop5409" stop-color="#f0eb00" offset="0"/>
      <stop id="stop5411" stop-color="#ff0" offset="1"/>
    </linearGradient>
    <linearGradient id="linearGradient3865">
      <stop id="stop3867" stop-color="#0083cc" offset="0"/>
      <stop id="stop3869" stop-color="#24a4cc" offset="1"/>
    </linearGradient>
    <linearGradient id="linearGradient16578" x1="356.44" gradientUnits="userSpaceOnUse" x2="484.8" gradientTransform="matrix(.18682 0 0 .14486 74.301 109.48)" y1="437.5" y2="256.18">
      <stop id="stop3859" stop-color="#ffd8c1" offset="0"/>
      <stop id="stop3861" stop-color="#ffeded" offset="1"/>
    </linearGradient>
    <linearGradient id="linearGradient16580" x1="298.99" xlink:href="#linearGradient3865" gradientUnits="userSpaceOnUse" x2="449.32" gradientTransform="matrix(.14486 0 0 .14486 99.215 121.46)" y1="540.54" y2="415.54"/>
    <linearGradient id="linearGradient16582" x1="111.39" xlink:href="#linearGradient5417" gradientUnits="userSpaceOnUse" x2="136.65" gradientTransform="scale(1.2554 .79653)" y1="198.46" y2="177.03"/>
    <linearGradient id="linearGradient16584" x1="294.25" gradientUnits="userSpaceOnUse" x2="312.09" gradientTransform="matrix(.14486 0 0 .14486 97.094 122.81)" y1="346.33" y2="322.14">
      <stop id="stop6216" stop-color="#c10000" offset="0"/>
      <stop id="stop6218" stop-color="#ff433e" offset="1"/>
    </linearGradient>
    <linearGradient id="linearGradient16586" x1="108.99" xlink:href="#linearGradient5417" gradientUnits="userSpaceOnUse" x2="112.7" gradientTransform="scale(1.2301 .81296)" y1="209.42" y2="205.04"/>
    <linearGradient id="linearGradient16588" x1="106.41" xlink:href="#linearGradient5417" gradientUnits="userSpaceOnUse" x2="109.26" gradientTransform="scale(1.3632 .73355)" y1="231.76" y2="228.15"/>
    <linearGradient id="linearGradient16590" x1="101.39" xlink:href="#linearGradient5407" gradientUnits="userSpaceOnUse" x2="105.55" gradientTransform="translate(43.646 73.72)" y1="124.16" y2="120.97"/>
    <linearGradient id="linearGradient16592" x1="98.818" gradientUnits="userSpaceOnUse" x2="112.89" gradientTransform="translate(39.501 74.756)" y1="108.76" y2="103.33">
      <stop id="stop3198" stop-color="#008200" offset="0"/>
      <stop id="stop3200" stop-color="#00d000" offset="1"/>
    </linearGradient>
    <linearGradient id="linearGradient16594" x1="103.56" xlink:href="#linearGradient5407" gradientUnits="userSpaceOnUse" x2="111.88" gradientTransform="translate(40.119 73.845)" y1="65.109" y2="62.671"/>
    <linearGradient id="linearGradient16596" x1="93.5" xlink:href="#linearGradient3865" gradientUnits="userSpaceOnUse" x2="117.14" gradientTransform="translate(43.646 73.72)" y1="62.938" y2="57.702"/>
    <linearGradient id="linearGradient16598" x1="104.75" xlink:href="#linearGradient5407" gradientUnits="userSpaceOnUse" x2="109.5" y1="57.469" y2="55.781"/>
    <linearGradient id="linearGradient16600" x1="652.3" gradientUnits="userSpaceOnUse" x2="410.91" gradientTransform="matrix(.18685 0 0 .14486 74.296 109.49)" y1="77.395" y2="344.42">
      <stop id="stop2582" stop-color="#fff" offset="0"/>
      <stop id="stop2584" stop-color="#fff" stop-opacity="0" offset="1"/>
    </linearGradient>
  </defs>
  <g id="layer1">
    <g id="g5630">
      <path id="rect2070" d="m21 5h103c8.86 0 16 7.136 16 16v153c0 8.86-7.14 16-16 16h-103c-8.864 0-16-7.14-16-16v-153c0-8.864 7.136-16 16-16z" fill-opacity=".49804"/>
      <path id="rect1300" d="m17 1h103c8.86 0 16 7.136 16 16v153c0 8.86-7.14 16-16 16h-103c-8.864 0-16-7.14-16-16v-153c0-8.864 7.136-16 16-16z" fill="#e7e7e7"/>
      <path id="path5624" d="m19 3h103c8.86 0 16 7.136 16 16v153c0 8.86-7.14 16-16 16h-103c-8.864 0-16-7.14-16-16v-153c0-8.864 7.136-16 16-16z" fill="#c7891f"/>
      <path id="rect1306" d="m18 2h103c8.86 0 16 7.136 16 16v153c0 8.86-7.14 16-16 16h-103c-8.864 0-16-7.14-16-16v-153c0-8.864 7.136-16 16-16z" fill="#fff"/>
    </g>
  </g>
  <path id="text1883" d="m18.683 12.234h6.396v21.359c0 2.947-0.841 5.149-2.525 6.607-1.672 1.458-4.208 2.186-7.608 2.186h-1.296v-4.61h0.996c1.33 0 2.332-0.354 3.007-1.062 0.687-0.708 1.03-1.748 1.03-3.121v-21.359" fill="#f00"/>
  <path id="text3919" d="m120 177h-6.4v-21.36c0-2.95 0.84-5.15 2.53-6.61 1.67-1.45 4.2-2.18 7.6-2.18h1.3v4.61h-1c-1.33 0-2.33 0.35-3 1.06-0.69 0.71-1.03 1.75-1.03 3.12v21.36" fill="#f00"/>
  <path id="path1608" fill-rule="evenodd" fill="#f00" d="m20.41 48.665c-4.126 8.245-7.135 12.498-13.34 17.04 5.872 4.487 10.013 9.124 13.46 16.62 3.079-7.121 6.847-12.43 13.39-16.843-6.582-3.349-10.393-8.654-13.51-16.817z"/>
  <path id="path1518" fill-rule="evenodd" fill="#f00" d="m118.34 106.34c-4.13 8.25-7.13 12.5-13.34 17.04 5.87 4.49 10.01 9.12 13.46 16.62 3.08-7.12 6.85-12.43 13.39-16.84-6.58-3.35-10.39-8.66-13.51-16.82z"/>
  <g id="g3992" transform="translate(-79.637 -71.25)">
    <path id="path1569" sodipodi:nodetypes="cccccccccccccccccc" d="m147.53 125.56c-5.97 3.78-13.47-3.16-17.45 4.88-3.5 4.78 7.53 6.18 0.57 10.43-4.76 5.12-4.48 7.38-0.37 8-1.19 5.67-0.32 15.18 2.27 20.36-3.21 3.9-0.8 2.56 3.55 3.38-1.35 2.15-0.57 10.05-5.2 12.48-2.33 7.03-0.59 14.65-1.13 21.91 11.28 4.75 24.63 5.29 35.4 2.76 4.74-0.99 10.15-1.37 9.2-8.13 0.28-8.43 1.28-19.52-7.91-23.83-5.38-0.76-7.17-4.39-3.05-9.55 3.07-8.36 6.44-4.87 11.15-6.98 4.9-1.31-7-4.54-5.43-9.98-1.52-4.25-3.38-9.25-6.43-12.71 7.68-0.69 8.5-8.69 2.26-10.33-6.19-4.12-9.84 2.91-14.55-2.37-0.78-0.02-2.1-0.51-2.88-0.32z"/>
    <path id="path1573" d="m164.87 156.82c0 11.42-7.56 20.68-16.88 20.68s-16.88-9.26-16.88-20.68c0-11.41 7.56-20.67 16.88-20.67s16.88 9.26 16.88 20.67z" fill="url(#linearGradient16578)"/>
    <path id="path1575" sodipodi:nodetypes="ccccccc" fill="url(#linearGradient16580)" d="m144.48 177.98c-7.05 0-12.72 5.67-12.72 12.72v14.93c9.38 4.65 29.52 4.89 40.62 0v-14.93c0-7.05-5.68-12.72-12.73-12.72h-15.17z"/>
    <path id="path1577" sodipodi:nodetypes="cccccc" fill-rule="evenodd" fill="url(#linearGradient16582)" d="m129.28 147.19c2.52-4.53 5.05-13.18 19.12-13.09 21.84 0.64 16.63 23.38 24.45 25.84-4.85 1.57-7.3 2.92-14.54 0.43 0.79-5.7-0.5-9.88-3.92-12.82-4.27 2.24-20.74 1.18-25.11-0.36z"/>
    <g id="g1579" transform="matrix(.14486 0 0 .097903 96.895 133.54)">
      <path id="path1581" transform="translate(-4 -6)" fill="#fff" d="m353 245.86c0 11.87-9.41 21.5-21 21.5s-21-9.63-21-21.5 9.41-21.5 21-21.5 21 9.63 21 21.5z"/>
      <path id="path1583" transform="matrix(.57143 0 0 .83721 129.29 34.524)" fill="#0f90cc" d="m353 245.86c0 11.87-9.41 21.5-21 21.5s-21-9.63-21-21.5 9.41-21.5 21-21.5 21 9.63 21 21.5z"/>
      <path id="path1585" transform="matrix(.35714 0 0 .67442 195.93 76.048)" d="m353 245.86c0 11.87-9.41 21.5-21 21.5s-21-9.63-21-21.5 9.41-21.5 21-21.5 21 9.63 21 21.5z"/>
    </g>
    <g id="g1587" transform="matrix(.14486 0 0 .097903 86.807 133.2)">
      <path id="path1589" transform="translate(-4 -6)" fill="#fff" d="m353 245.86c0 11.87-9.41 21.5-21 21.5s-21-9.63-21-21.5 9.41-21.5 21-21.5 21 9.63 21 21.5z"/>
      <path id="path1591" transform="matrix(.57143 0 0 .83721 129.29 34.524)" fill="#0f90cc" d="m353 245.86c0 11.87-9.41 21.5-21 21.5s-21-9.63-21-21.5 9.41-21.5 21-21.5 21 9.63 21 21.5z"/>
      <path id="path1593" transform="matrix(.35714 0 0 .67442 195.93 76.048)" d="m353 245.86c0 11.87-9.41 21.5-21 21.5s-21-9.63-21-21.5 9.41-21.5 21-21.5 21 9.63 21 21.5z"/>
    </g>
    <path id="path1595" sodipodi:nodetypes="ccc" fill-rule="evenodd" fill="url(#linearGradient16584)" d="m136.44 170.2c1.85 3.63 6.9 1.95 11.73 0-5.33 0.56-9 0.97-11.73 0z"/>
    <path id="path1597" sodipodi:nodetypes="ccccc" fill="#004cb0" d="m158.58 193.86l1.26 0.12 1.37 14.51-3.46 0.47 0.83-15.1z"/>
    <path id="path1599" sodipodi:nodetypes="ccccccc" fill-rule="evenodd" d="m138.64 158.15c-0.8 1.28-1.95 3.4-1.78 4.37 0.16 0.97 1.65 0.76 2.44 1.32l0.33-0.47c-0.7-0.5-1.78-0.01-1.92-0.81-0.13-0.8 0.68-2.92 1.42-4.12l-0.49-0.29z"/>
    <path id="path1601" sodipodi:nodetypes="cccc" fill-rule="evenodd" fill="url(#linearGradient16586)" d="m139.93 165.8c-3.8 0.38-6.13 3.3-8.06 5.42 0 0 6.24-3.46 8.2-3.39-0.14-0.49 0.07-1.12-0.14-2.03z"/>
    <path id="path1603" sodipodi:nodetypes="cccc" fill-rule="evenodd" fill="url(#linearGradient16588)" d="m140.8 165.66c3.38 0.34 9.84 2.97 10.14 5.45 0 0-7.88-4.21-9.73-3.56-0.02-0.51-0.34-0.96-0.41-1.89z"/>
    <path id="path1605" sodipodi:nodetypes="ccccc" fill-rule="evenodd" fill="url(#linearGradient16590)" d="m138.27 179.65c3.63 11.22 8.7 20.95 14.46 29.54l3.69-0.11c-5.74-9.21-11.73-19.6-15.15-30.81 0 0-2.04 0.62-3 1.38z"/>
    <path id="path1607" sodipodi:nodetypes="ccccccccccccc" fill-rule="evenodd" fill="url(#linearGradient16592)" d="m135.69 176.13l-0.25 10.25 9.31-5.69v1.44l3.69 0.31-0.06-1.93 12.12 5.43-1.25-12.06-10.69 5.44-0.25-1.81-3.75-0.25v1.93l-8.87-3.06z"/>
    <path id="path1609" sodipodi:nodetypes="ccccc" fill-rule="evenodd" fill="url(#linearGradient16594)" d="m135.49 136.03l-0.53 2.6c7.66 2.23 17.9 1.88 26.76 0.92-0.02-0.36-0.35-2.52-0.35-2.52-8.52 0.88-19.42 0.81-25.88-1z"/>
    <path id="path1611" sodipodi:nodetypes="ccc" fill-rule="evenodd" fill="url(#linearGradient16596)" d="m147.74 137.59c28.52 3.84 23.48-13.39 1.57-7.62-21.15-7.46-26.23 9.83-1.57 7.62z"/>
    <path id="path1613" sodipodi:rx="3.7187500" sodipodi:ry="1.6562500" sodipodi:type="arc" d="m110.81 56.406a3.7188 1.6562 0 1 1 -7.43 0 3.7188 1.6562 0 1 1 7.43 0z" transform="translate(41.306 72.782)" sodipodi:cy="56.406250" sodipodi:cx="107.09375" fill="url(#linearGradient16598)"/>
    <path id="path1615" d="m148.4 127.54c-1.81 0-3.14 0.62-3.47 1.38-12.88-2.72-17.58 4.48-9.53 7.56l-0.41 2.06c-2.99 2.79-4.39 6.28-5.71 8.66 0.75 0.26 2.22 0.5 3.56 0.72-1.07 2.71-1.72 5.7-1.72 8.9 0 4.48 1.18 8.59 3.16 11.97-0.85 0.82-1.72 1.68-2.41 2.44 0 0 1.46-0.78 3-1.53 3.03 4.62 7.6 7.65 12.78 7.78l-3.09-0.22v0.72h-0.06c-0.92 0-1.83 0.1-2.69 0.28l-6.13-2.12-0.12 5.53c-2.33 2.3-3.78 5.48-3.78 9.03v14.94c4.95 2.45 12.89 3.61 20.94 3.5 0.01 0.02 0.01 0.04 0.03 0.06l3.69-0.09c-0.05-0.08-0.11-0.17-0.16-0.25 0.49-0.04 0.98-0.09 1.47-0.13v0.25l3.47-0.47v-0.03c4.13-0.58 8.02-1.46 11.15-2.84v-14.94c0-7.04-5.65-12.7-12.68-12.72l-0.44-4.09-8.03 4.09h-2.85l-0.06-0.47h-0.22c7.93-0.05 14.52-6.81 16.28-15.87 3.11 0.16 5.35-0.66 8.51-1.69-5.49-1.72-4.74-13.32-11.23-20.37 0.02-0.01 0.05 0 0.07 0-0.02-0.3-0.21-1.58-0.28-2.1 10.99-2.38 5.53-10.84-9.69-7.9 0.08-0.15 0.37-0.23 0.37-0.38 0-0.91-1.66-1.66-3.72-1.66z" fill="url(#linearGradient16600)"/>
  </g>
  <metadata>
    <rdf:RDF>
      <cc:Work>
        <dc:format>image/svg+xml</dc:format>
        <dc:type rdf:resource="http://purl.org/dc/dcmitype/StillImage"/>
        <cc:license rdf:resource="http://creativecommons.org/licenses/publicdomain/"/>
        <dc:publisher>
          <cc:Agent rdf:about="http://openclipart.org/">
            <dc:title>Openclipart</dc:title>
          </cc:Agent>
        </dc:publisher>
        <dc:title>White deck: Jack of diamonds</dc:title>
        <dc:date>2009-03-24T09:39:12</dc:date>
        <dc:description>playing card from the "White" set</dc:description>
        <dc:source>http://openclipart.org/detail/23147/white-deck:-jack-of-diamonds-by-nicubunu</dc:source>
        <dc:creator>
          <cc:Agent>
            <dc:title>nicubunu</dc:title>
          </cc:Agent>
        </dc:creator>
        <dc:subject>
          <rdf:Bag>
            <rdf:li>card</rdf:li>
            <rdf:li>cards</rdf:li>
            <rdf:li>clip art</rdf:li>
            <rdf:li>clipart</rdf:li>
            <rdf:li>deck</rdf:li>
            <rdf:li>gambling</rdf:li>
            <rdf:li>game</rdf:li>
            <rdf:li>image</rdf:li>
            <rdf:li>media</rdf:li>
            <rdf:li>play</rdf:li>
            <rdf:li>playing cards</rdf:li>
            <rdf:li>png</rdf:li>
            <rdf:li>public domain</rdf:li>
            <rdf:li>svg</rdf:li>
            <rdf:li>white deck</rdf:li>
          </rdf:Bag>
        </dc:subject>
      </cc:Work>
      <cc:License rdf:about="http://creativecommons.org/licenses/publicdomain/">
        <cc:permits rdf:resource="http://creativecommons.org/ns#Reproduction"/>
        <cc:permits rdf:resource="http://creativecommons.org/ns#Distribution"/>
        <cc:permits rdf:resource="http://creativecommons.org/ns#DerivativeWorks"/>
      </cc:License>
    </rdf:RDF>
  </metadata>
</svg>
