<svg xmlns:svg="http://www.w3.org/2000/svg" viewBox="0 0 100 100"><svg:g><svg:path d="M 47.45380273551605,45.90846993075219 L 49.60670690860438,48.01680014213706 L 53.01028894537626,46.613952704530135 L 50.85738477228793,44.50562249314527 L 47.45380273551605,45.90846993075219 L 47.45380273551605,45.90846993075219" fill="none" stroke="black" /><svg:g><svg:path d="M 44.462434731411044,50.192736870019395 L 89.99748449913734,54.055965956169864 L 49.479655886773294,44.00748306492343 L 44.22754528129406,48.82222838523691 L 44.462434731411044,50.192736870019395 L 44.462434731411044,50.192736870019395" fill="none" stroke="black" /><svg:path d="M 38.42107661614095,45.94603631751255 L 18.7023205495458,42.611211304319845 L 12.156695652649432,44.65328761331449 L 10.0,48.332882070827594 L 15.402420896156293,52.62490984706103 L 25.415244482075693,53.667475585027866 L 41.6436884169388,49.27265861050096 L 38.42107661614095,45.94603631751255 L 38.42107661614095,45.94603631751255" fill="none" stroke="black" /></svg:g><svg:g><svg:path d="M 54.219442816558924,46.299018264141814 L 48.820230095415866,43.17644004971861 L 44.06283465959167,49.39058876799711 L 66.43150683058741,68.86215011286805 L 54.219442816558924,46.299018264141814 L 54.219442816558924,46.299018264141814" fill="none" stroke="black" /><svg:path d="M 50.42938506029455,42.384683189654346 L 52.73427652463505,37.019765349897526 L 43.358567331117385,31.13784988713195 L 39.107297960165766,32.04452389371417 L 39.107297960165766,34.451960077943326 L 45.14169287739576,41.52563964505843 L 50.42938506029455,42.384683189654346 L 50.42938506029455,42.384683189654346" fill="none" stroke="black" /></svg:g></svg:g></svg>