<svg xmlns:svg="http://www.w3.org/2000/svg" viewBox="0 0 100 100"><svg:g><svg:path d="M 51.76397196231304,51.0140523351259 L 52.403736091296004,51.78930320438853 L 53.542605852669624,51.3523657471129 L 52.872037672953994,50.69417027063442 L 51.76397196231304,51.0140523351259 L 51.76397196231304,51.0140523351259" fill="none" stroke="black" /><svg:g><svg:path d="M 43.379029342358514,50.09621874122553 L 89.96811580722866,66.11003172487163 L 87.97253338814053,63.43163234811483 L 54.050552647673165,49.550807019584134 L 43.379029342358514,50.09621874122553 L 43.379029342358514,50.09621874122553" fill="none" stroke="black" /><svg:path d="M 47.25953962946127,51.56664630415867 L 46.09714677480088,48.926392732183224 L 17.935363500300284,39.127584188859785 L 12.725278374106182,39.491971032627404 L 10.019162519871358,42.89865865018254 L 11.085542748871468,46.97028928214502 L 16.011430503111157,49.55427304154058 L 46.936417138853756,53.02854990894865 L 47.25953962946127,51.56664630415867 L 47.25953962946127,51.56664630415867" fill="none" stroke="black" /></svg:g><svg:g><svg:path d="M 47.844096498689574,47.607811515675365 L 48.49654229531183,52.37121790361538 L 76.22202819670787,69.30688494383116 L 81.989186578035,70.17327887463307 L 49.55120098292925,46.722916974599315 L 47.844096498689574,47.607811515675365 L 47.844096498689574,47.607811515675365" fill="none" stroke="black" /><svg:path d="M 53.409548355608756,48.33523355978315 L 45.28043937777817,31.850686203672403 L 36.14351787260024,29.679381750239106 L 28.87876255727628,31.786022739060336 L 29.313539730474552,35.66745900880275 L 48.564911285834086,49.44029013609599 L 52.860516157874756,50.140688602755205 L 53.409548355608756,48.33523355978315 L 53.409548355608756,48.33523355978315" fill="none" stroke="black" /></svg:g></svg:g></svg>