<?xml version="1.0" encoding="UTF-8" standalone="no"?>
<!-- Created with Inkscape (http://www.inkscape.org/) -->

<svg
   xmlns:dc="http://purl.org/dc/elements/1.1/"
   xmlns:cc="http://creativecommons.org/ns#"
   xmlns:rdf="http://www.w3.org/1999/02/22-rdf-syntax-ns#"
   xmlns:svg="http://www.w3.org/2000/svg"
   xmlns="http://www.w3.org/2000/svg"
   xmlns:sodipodi="http://sodipodi.sourceforge.net/DTD/sodipodi-0.dtd"
   xmlns:inkscape="http://www.inkscape.org/namespaces/inkscape"
   width="24.321848mm"
   height="36.732727mm"
   viewBox="0 0 86.179776 130.15533"
   id="svg5223"
   version="1.1"
   inkscape:version="0.91 r13725"
   sodipodi:docname="mix-and-match-characters27.svg">
  <defs
     id="defs5225">
    <filter
       style="color-interpolation-filters:sRGB"
       id="filter4468">
      <feGaussianBlur
         id="feGaussianBlur4470"
         stdDeviation="0.18874514" />
    </filter>
  </defs>
  <sodipodi:namedview
     id="base"
     pagecolor="#ffffff"
     bordercolor="#666666"
     borderopacity="1.0"
     inkscape:pageopacity="0.0"
     inkscape:pageshadow="2"
     inkscape:zoom="2.8"
     inkscape:cx="-102.35609"
     inkscape:cy="82.144823"
     inkscape:document-units="px"
     inkscape:current-layer="g4275"
     showgrid="false"
     fit-margin-top="0"
     fit-margin-left="0"
     fit-margin-right="0"
     fit-margin-bottom="0"
     inkscape:window-width="1855"
     inkscape:window-height="1056"
     inkscape:window-x="1985"
     inkscape:window-y="24"
     inkscape:window-maximized="1" />
  <metadata
     id="metadata5228">
    <rdf:RDF>
      <cc:Work
         rdf:about="">
        <dc:format>image/svg+xml</dc:format>
        <dc:type
           rdf:resource="http://purl.org/dc/dcmitype/StillImage" />
        <dc:title></dc:title>
      </cc:Work>
    </rdf:RDF>
  </metadata>
  <g
     inkscape:label="Layer 1"
     inkscape:groupmode="layer"
     id="layer1"
     transform="translate(-293.57389,-396.33775)">
    <g
       transform="translate(247.3811,385.33246)"
       id="g4275">
      <rect
         style="fill:#e4cfa3;fill-rule:evenodd;stroke:#060000;stroke-width:1.5;stroke-linecap:round;stroke-linejoin:round"
         height="10.667"
         x="83.57901"
         y="77.092148"
         width="14.333"
         transform="matrix(0.93370546,0.35804205,-0.35804205,0.93370546,0,0)"
         ry="5.1666999"
         rx="6.3333001"
         id="rect3449-5" />
      <rect
         style="fill:#e4cfa3;fill-rule:evenodd;stroke:#060000;stroke-width:1.5;stroke-linecap:round;stroke-linejoin:round"
         height="10.667037"
         x="-78.8451"
         y="142.05009"
         width="14.333051"
         transform="matrix(-0.92397675,0.38244865,0.38244865,0.92397675,0,0)"
         ry="5.166718"
         rx="6.3333225"
         id="rect3449-0-4" />
      <rect
         style="fill:#ff5034;fill-rule:evenodd;stroke:#000000;stroke-width:1.75080001;stroke-linecap:round;stroke-linejoin:round"
         height="43.928856"
         x="-105.44899"
         y="38.001732"
         width="27.37591"
         transform="matrix(-0.93245305,-0.36129118,-0.36129118,0.93245305,0,0)"
         ry="19.576935"
         rx="6.6847782"
         id="rect3252-4-6-2-2-1-2" />
      <rect
         style="fill:#9cb5cd;fill-rule:evenodd;stroke:#000000;stroke-width:2;stroke-linecap:round;stroke-linejoin:round"
         height="37.056042"
         x="59.501621"
         y="100.34583"
         width="60.181"
         transform="matrix(1,-7.4216e-5,0.0014835,0.9999989,0,0)"
         ry="10.198011"
         rx="29.573"
         id="rect3252-6-7-2-7-1-6-3-1" />
      <path
         style="fill:#ffffff;stroke:#000000;stroke-width:1.26810002;stroke-linecap:round;stroke-linejoin:round"
         inkscape:connector-curvature="0"
         d="m 89.665827,133.86909 -0.28939,-11.389"
         id="path3928-9-81-8-0-49-3-2" />
      <path
         style="fill:#473535;stroke:#000000;stroke-width:1.68859994"
         inkscape:connector-curvature="0"
         d="m 92.535827,138.43909 c 0,0 0.22493,-9.026 10.228003,-9.5165 13.456,-0.65967 15.202,8.1321 15.202,8.1321 1.1996,2.6217 -25.536003,5.0753 -25.430003,1.3844 z"
         id="path4010-7-1-8-9-8-8-6" />
      <path
         style="fill:#473535;stroke:#000000;stroke-width:1.68859994"
         inkscape:connector-curvature="0"
         d="m 86.735827,138.44909 c 0,0 -0.22674,-8.6155 -10.312,-9.0836 -13.567,-0.62968 -15.327,7.7622 -15.327,7.7622 -1.2095,2.5024 25.746,4.8444 25.639,1.3214 z"
         id="path4010-1-9-1-1-1-9-9-3" />
      <rect
         style="fill:#ff5034;fill-rule:evenodd;stroke:#000000;stroke-width:1.75080001;stroke-linecap:round;stroke-linejoin:round"
         height="43.929001"
         x="57.600574"
         y="104.01058"
         width="27.375999"
         transform="matrix(0.92264582,-0.38564841,0.38564841,0.92264582,0,0)"
         ry="19.577"
         rx="6.6848001"
         id="rect3252-71-0-6-4-3" />
      <path
         style="fill:#ff5034;fill-rule:evenodd;stroke:#000000;stroke-width:2.10610008;stroke-linecap:round;stroke-linejoin:round"
         inkscape:connector-curvature="0"
         d="m 88.855827,53.029083 c -0.11106,0.002 -0.22241,0.007 -0.33325,0.0104 -0.063,-0.002 -0.12603,-0.004 -0.189,-0.005 -0.0971,-0.002 -0.19615,-1e-5 -0.29345,0 l 0,0.0252 c -7.4357,0.42158 -14.324,5.0442 -18.94,10.88 -9.8946,12.426 -13.668,28.791 -14.001,44.495997 0.25995,4.02791 -0.4996,8.86301 1.139,12.35601 5.9541,3.7836 16.453,4.4168 23.611,5.3011 1.8994,0.088 4.9164,0.11242 8.1919,0.13138 l 0,0.0104 c 0.3437,-0.002 0.67072,-0.003 1.0097,-0.005 0.0334,-1.6e-4 0.0661,1.8e-4 0.0995,0 3.2755,-0.019 6.2925,-0.0434 8.1919,-0.13138 7.157303,-0.88424 17.657003,-1.5175 23.611003,-5.3011 1.6386,-3.4926 0.87906,-8.3278 1.139,-12.35601 -0.3331,-15.703997 -4.1067,-32.069997 -14.001,-44.495997 -4.6162,-5.8359 -11.505003,-10.459 -18.940003,-10.88 l 0,-0.0354 c -0.0973,-10e-6 -0.1963,-0.002 -0.29345,0 z"
         id="path3932-5-3-8-0-8-51-1-3" />
      <g
         id="g5555"
         transform="translate(469.08888,176.99674)">
        <g
           id="g5225">
          <rect
             style="fill:#ffffff;fill-rule:evenodd;stroke:#000000;stroke-width:2;stroke-linecap:round;stroke-linejoin:bevel"
             id="rect4240-8-9-5-9"
             rx="33.5"
             ry="29"
             height="60"
             width="70"
             y="-164.99146"
             x="-416.01181" />
          <path
             style="fill:#ffffff;stroke:#000000;stroke-width:1.72860003;stroke-linecap:round;stroke-linejoin:round"
             inkscape:connector-curvature="0"
             id="path3831-2-0-3-22-6-5-6"
             d="m -384.61982,-119.47446 6.506,0" />
          <g
             id="g456-8-2-1-4-8-8"
             transform="matrix(0.65353,0,0,-0.65353,-391.53482,-131.63446)">
            <path
               inkscape:connector-curvature="0"
               id="path458-3-6-8-8-1-0"
               d="m 0,0 c 0,-2.958 -2.396,-5.355 -5.355,-5.355 -2.958,0 -5.356,2.397 -5.356,5.355 0,2.957 2.398,5.356 5.356,5.356 C -2.396,5.356 0,2.957 0,0" />
          </g>
          <g
             id="g456-1-7-8-0-9-1"
             transform="matrix(0.65353,0,0,-0.65353,-363.53382,-132.13446)">
            <path
               inkscape:connector-curvature="0"
               id="path458-9-9-9-1-08-7"
               d="m 0,0 c 0,-2.958 -2.396,-5.355 -5.355,-5.355 -2.958,0 -5.356,2.397 -5.356,5.355 0,2.957 2.398,5.356 5.356,5.356 C -2.396,5.356 0,2.957 0,0" />
          </g>
        </g>
        <path
           inkscape:connector-curvature="0"
           id="path5523"
           d="m -387.80427,-106.59279 c -7.5732,-1.10333 -13.82562,-4.19781 -19.00443,-9.40575 -6.91348,-6.95238 -9.42579,-15.40508 -7.4084,-24.92566 1.08506,-5.12069 3.2071,-8.86372 7.43964,-13.12265 3.11747,-3.13692 4.47402,-4.11719 8.10952,-5.86011 5.09782,-2.44399 8.78549,-3.41523 14.54843,-3.83171 17.40602,-1.25792 32.44748,7.83406 36.08888,21.81433 0.90764,3.48467 0.90764,10.35231 0,13.83698 -3.93621,15.11213 -20.84826,24.25179 -39.77364,21.49457 z m 10.62745,-12.9077 c 0,-0.55132 -0.80118,-0.72219 -3.89116,-0.82988 -3.8157,-0.13297 -5.09567,0.23194 -4.4542,1.26986 0.20912,0.33837 1.72624,0.47402 4.33357,0.38746 3.19829,-0.10617 4.01179,-0.27396 4.01179,-0.82744 z m -16.27244,-8.84512 c 2.26036,-1.02989 2.78478,-3.99036 1.01955,-5.75558 -1.59267,-1.59268 -4.02176,-1.5545 -5.31018,0.0834 -2.58535,3.28675 0.51898,7.39061 4.29063,5.67213 z m 29.11643,-1.40852 c 1.91473,-2.2628 0.39067,-5.94599 -2.46037,-5.94599 -1.99663,0 -3.0319,0.67603 -3.62035,2.36405 -1.3088,3.75441 3.52526,6.60198 6.08072,3.58194 z"
           style="fill:#e4cfa3;fill-opacity:1" />
      </g>
      <path
         style="fill:#4a2f2b;stroke:#000000;stroke-width:1.39998651;stroke-linecap:round;stroke-linejoin:round"
         inkscape:connector-curvature="0"
         d="m 68.776257,27.230289 c -1.663006,-0.99793 -2.09631,-3.243246 -1.121376,-4.879663 1.142772,-1.918074 3.703232,-2.416046 5.567104,-1.284292 2.174517,1.320467 2.737334,4.267418 1.446354,6.41017 -1.499634,2.489126 -4.834267,3.131272 -7.256283,1.645094 -2.801935,-1.719325 -3.522619,-5.529336 -1.840607,-8.293638 1.93834,-3.185534 6.21976,-4.002592 9.322889,-2.08044 3.562918,2.206946 4.474289,7.066639 2.314001,10.585687 -0.41409,0.674515 -0.926545,1.286906 -1.514798,1.814152"
         id="path3920-6-93-3-4-1-7-0-2-5-6" />
      <path
         style="fill:#4a2f2b;stroke:#000000;stroke-width:1.39998651;stroke-linecap:round;stroke-linejoin:round"
         inkscape:connector-curvature="0"
         d="m 87.185397,23.690289 c 1.663006,-0.99793 2.09631,-3.243246 1.121376,-4.879663 -1.142772,-1.918074 -3.703232,-2.416046 -5.567104,-1.284292 -2.174517,1.320467 -2.737334,4.267418 -1.446354,6.41017 1.499634,2.489126 4.834267,3.131272 7.256283,1.645094 2.801935,-1.719325 3.522619,-5.529336 1.840607,-8.293638 -1.93834,-3.185534 -6.21976,-4.002592 -9.322889,-2.08044 -3.562918,2.206946 -4.474289,7.066639 -2.314001,10.585687 0.41409,0.674515 0.926545,1.286906 1.514798,1.814152"
         id="path3920-7-7-473-9-4-9-2-9-0-4-7" />
      <path
         style="fill:#4a2f2b;stroke:#000000;stroke-width:1.40000618;stroke-linecap:round;stroke-linejoin:round"
         inkscape:connector-curvature="0"
         d="m 117.426,34.78174 c 1.39813,-0.726422 1.76242,-2.360853 0.94277,-3.552049 -0.96076,-1.396222 -3.11341,-1.75871 -4.68042,-0.934873 -1.82818,0.961206 -2.30135,3.106377 -1.21599,4.666149 1.26078,1.811908 4.0643,2.279345 6.10056,1.197513 2.35566,-1.251547 2.96156,-4.024966 1.54745,-6.037182 -1.62962,-2.318843 -5.22913,-2.913604 -7.83802,-1.514413 -2.99544,1.6065 -3.76165,5.144013 -1.94544,7.705631 0.34814,0.490999 0.77897,0.936776 1.27353,1.320574"
         id="path3920-7-6-4-7-8-6-8-7-2-3-4-6" />
      <path
         style="fill:#4a2f2b;stroke:#000000;stroke-width:1.40000618;stroke-linecap:round;stroke-linejoin:round"
         inkscape:connector-curvature="0"
         d="m 60.995659,31.95174 c -1.398136,-0.726422 -1.762427,-2.360853 -0.942773,-3.552049 0.96076,-1.396222 3.113411,-1.75871 4.68042,-0.934873 1.828176,0.961206 2.301353,3.106377 1.21599,4.666149 -1.260785,1.811908 -4.064304,2.279345 -6.100559,1.197513 -2.355665,-1.251547 -2.961565,-4.024966 -1.54745,-6.037182 1.629616,-2.318843 5.229126,-2.913604 7.838013,-1.514413 2.995444,1.6065 3.761659,5.144013 1.945445,7.705631 -0.348137,0.490999 -0.778973,0.936776 -1.273533,1.320574"
         id="path3920-7-6-47-3-3-9-9-4-1-4-3-7" />
      <path
         style="fill:#4a2f2b;stroke:#000000;stroke-width:1.39998651;stroke-linecap:round;stroke-linejoin:round"
         inkscape:connector-curvature="0"
         d="m 94.986257,24.190289 c -1.663006,-0.99793 -2.09631,-3.243246 -1.121376,-4.879663 1.142772,-1.918074 3.703232,-2.416046 5.567104,-1.284292 2.174515,1.320467 2.737335,4.267418 1.446355,6.41017 -1.499635,2.489126 -4.834268,3.131272 -7.256284,1.645094 -2.801935,-1.719325 -3.522619,-5.529336 -1.840607,-8.293638 1.93834,-3.185534 6.21976,-4.002592 9.322891,-2.08044 3.56292,2.206946 4.47429,7.066639 2.314,10.585687 -0.41409,0.674515 -0.92655,1.286906 -1.5148,1.814152"
         id="path3920-7-7-5-27-8-9-3-5-2-3-9-5" />
      <path
         style="fill:#4a2f2b;stroke:#000000;stroke-width:1.39998651;stroke-linecap:round;stroke-linejoin:round"
         inkscape:connector-curvature="0"
         d="m 105.36626,29.270289 c -1.66301,-0.99793 -2.09631,-3.243246 -1.12138,-4.879663 1.14277,-1.918074 3.70323,-2.416046 5.56711,-1.284292 2.17451,1.320467 2.73733,4.267418 1.44635,6.41017 -1.49963,2.489126 -4.83427,3.131272 -7.25628,1.645094 -2.80194,-1.719325 -3.52262,-5.529336 -1.84061,-8.293638 1.93834,-3.185534 6.21976,-4.002592 9.32289,-2.08044 3.56292,2.206946 4.47429,7.066639 2.314,10.585687 -0.41409,0.674515 -0.92655,1.286906 -1.5148,1.814152"
         id="path3920-7-7-50-9-4-5-7-3-5-9-1-0" />
      <path
         style="fill:#624808;fill-rule:evenodd;stroke:#87470a;stroke-width:0.2;stroke-linecap:round;stroke-linejoin:round"
         inkscape:connector-curvature="0"
         d="m 76.315827,18.899083 c -1.3506,-1.1443 -3.415,-1.9425 -5.0994,-1.9718 l -0.8,-0.0139 1.1,-0.50117 c 3.5369,-1.6114 9.8388,-3.1539 12.464,-3.0508 0.45038,0.0177 0.33586,0.0688 -0.39309,0.17555 -2.5214,0.36916 -4.8,2.1279 -5.9369,4.5826 l -0.63556,1.3721 -0.69944,-0.5926 z"
         id="path4178" />
      <path
         style="fill:#624808;fill-rule:evenodd;stroke:#87470a;stroke-width:0.2;stroke-linecap:round;stroke-linejoin:round"
         inkscape:connector-curvature="0"
         d="m 90.655827,16.399083 c -1.025,-1.4714 -3.3477,-2.8223 -4.9386,-2.8721 l -0.7,-0.0219 0.6,-0.19501 c 0.73247,-0.23808 6.884,-0.0314 9.3,0.31247 l 1.7,0.24195 -0.89888,0.25836 c -1.4438,0.41497 -2.4314,0.98973 -3.5172,2.0468 l -1.0161,0.9892 -0.52919,-0.75968 z"
         id="path4180" />
      <path
         style="fill:#624808;fill-rule:evenodd;stroke:#87470a;stroke-width:0.2;stroke-linecap:round;stroke-linejoin:round"
         inkscape:connector-curvature="0"
         d="m 104.45583,18.469083 c -0.27658,-0.60415 -0.88241,-1.5102 -1.3463,-2.0134 -0.46387,-0.50323 -0.73289,-0.91497 -0.59782,-0.91497 0.37965,0 4.9836,2.2545 6.1054,2.9898 l 1,0.65543 -0.92779,-0.11574 c -0.8781,-0.10954 -2.683,0.0857 -3.4014,0.36801 -0.25362,0.0996 -0.44464,-0.12282 -0.83208,-0.9691 l 0,0 z"
         id="path4182" />
      <path
         style="fill:#624808;fill-rule:evenodd;stroke:#87470a;stroke-width:0.2;stroke-linecap:round;stroke-linejoin:round"
         inkscape:connector-curvature="0"
         d="m 116.68583,27.279083 c -0.91519,-0.19897 -0.93417,-0.21899 -1.0644,-1.1225 -0.0729,-0.50593 -0.18378,-1.1449 -0.2464,-1.4199 l -0.11385,-0.5 0.51494,0.4724 c 0.60612,0.55605 2.241,2.8401 2.0042,2.8001 -0.0895,-0.0151 -0.58208,-0.1187 -1.0946,-0.23012 z"
         id="path4184" />
      <path
         style="fill:#624808;fill-rule:evenodd;stroke:#87470a;stroke-width:0.2;stroke-linecap:round;stroke-linejoin:round"
         inkscape:connector-curvature="0"
         d="m 60.515827,24.549083 c 0,-0.20644 4.2223,-4.2515 4.3277,-4.1461 0.0424,0.0424 -0.10822,0.49612 -0.33475,1.0082 -0.22653,0.51211 -0.46516,1.381 -0.53028,1.9309 l -0.11842,0.9998 -1.0235,0 c -0.5629,0 -1.3154,0.0837 -1.6721,0.18604 -0.35677,0.10232 -0.64868,0.11182 -0.64868,0.0211 z"
         id="path4188" />
      <path
         style="fill:none;stroke:#000000;stroke-width:0.85915643;stroke-linecap:round;stroke-linejoin:round"
         inkscape:connector-curvature="0"
         d="m 91.680433,96.857847 a 2.0205916,1.2553075 56.524284 0 0 2.387559,-0.270644"
         id="path4197" />
      <path
         style="fill:none;stroke:#000000;stroke-width:0.85916805;stroke-linecap:round;stroke-linejoin:round"
         inkscape:connector-curvature="0"
         d="m 86.497754,97.199023 a 1.2553367,2.0205993 27.314145 0 1 -2.402842,-0.0129"
         id="path4197-5" />
      <path
         style="fill:#e7d687;fill-rule:evenodd;stroke:#5e3b08;stroke-width:0.9459877;stroke-linejoin:round"
         inkscape:connector-curvature="0"
         d="m 100.58999,110.11422 c -0.726485,0.61309 -6.639848,-3.4468 -7.53486,-3.06109 -0.8822,0.38028 -1.056473,7.07703 -2.02548,7.18185 -0.982896,0.10658 -3.150142,-6.34765 -4.122741,-6.51526 -0.95883,-0.16524 -5.416107,5.15898 -6.268075,4.72463 -0.86388,-0.44063 1.542893,-6.82371 0.864061,-7.48102 -0.669194,-0.64765 -7.707278,1.27062 -8.116169,0.46266 -0.414897,-0.81957 5.646535,-4.69361 5.520815,-5.588787 -0.123967,-0.882676 -7.054129,-3.103123 -6.864351,-3.975972 0.192586,-0.885406 7.593531,-0.77054 8.068875,-1.562317 0.468632,-0.78053 -3.706726,-6.291412 -2.990477,-6.895768 0.726486,-0.61309 6.639849,3.446792 7.534861,3.061086 0.8822,-0.380275 1.056473,-7.07702 2.02548,-7.181841 0.982896,-0.106578 3.150142,6.347644 4.122741,6.515248 0.95883,0.165234 5.416108,-5.158969 6.268075,-4.724619 0.863881,0.440633 -1.542892,6.823704 -0.864061,7.481015 0.669194,0.647649 7.707276,-1.27062 8.116166,-0.462667 0.41489,0.819565 -5.646532,4.69361 -5.520811,5.588787 0.123972,0.882676 7.054131,3.103125 6.864351,3.975975 -0.19259,0.8854 -7.593531,0.77054 -8.068875,1.56231 -0.468633,0.78053 3.706725,6.29142 2.990475,6.89577 z"
         id="path4026" />
      <path
         style="fill:none;stroke:#000000;stroke-linecap:round;stroke-linejoin:round"
         inkscape:connector-curvature="0"
         d="m 85.755827,99.719083 c -4.5707,8.803697 10.374,5.318897 6.2039,0.354187"
         id="path4058" />
      <path
         inkscape:connector-curvature="0"
         d="m 87.955827,94.759083 a 1.2,2.3 0 0 1 -2.4,0 1.2,2.3 0 1 1 2.4,0 z"
         id="path4235" />
      <path
         inkscape:connector-curvature="0"
         d="m 91.355827,95.459083 a 1.2,2.3 0 0 1 -2.4,0 1.2,2.3 0 1 1 2.4,0 z"
         id="path4235-3" />
    </g>
  </g>
</svg>
