<?xml version="1.0" encoding="UTF-8" standalone="no"?>
<!-- Created with Inkscape (http://www.inkscape.org/) -->

<svg
   xmlns:dc="http://purl.org/dc/elements/1.1/"
   xmlns:cc="http://creativecommons.org/ns#"
   xmlns:rdf="http://www.w3.org/1999/02/22-rdf-syntax-ns#"
   xmlns:svg="http://www.w3.org/2000/svg"
   xmlns="http://www.w3.org/2000/svg"
   xmlns:sodipodi="http://sodipodi.sourceforge.net/DTD/sodipodi-0.dtd"
   xmlns:inkscape="http://www.inkscape.org/namespaces/inkscape"
   width="578.55255"
   height="453.8541"
   viewBox="0 0 578.55256 453.8541"
   id="svg2"
   version="1.1"
   inkscape:version="0.91 r13725"
   sodipodi:docname="Hard Cover Book.svg">
  <title
     id="title4394">Colors Hard Cover Book</title>
  <defs
     id="defs4" />
  <sodipodi:namedview
     id="base"
     pagecolor="#ffffff"
     bordercolor="#666666"
     borderopacity="1.0"
     inkscape:pageopacity="0.0"
     inkscape:pageshadow="2"
     inkscape:zoom="0.7"
     inkscape:cx="241.9785"
     inkscape:cy="254.92392"
     inkscape:document-units="px"
     inkscape:current-layer="layer1"
     showgrid="false"
     inkscape:object-paths="true"
     inkscape:snap-intersection-paths="true"
     inkscape:object-nodes="true"
     inkscape:snap-smooth-nodes="true"
     inkscape:snap-midpoints="true"
     inkscape:snap-global="true"
     units="px"
     fit-margin-top="5"
     fit-margin-left="5"
     fit-margin-right="5"
     fit-margin-bottom="5"
     inkscape:window-width="1366"
     inkscape:window-height="709"
     inkscape:window-x="-4"
     inkscape:window-y="0"
     inkscape:window-maximized="1">
    <inkscape:grid
       type="axonomgrid"
       id="grid4160"
       units="mm"
       empspacing="5"
       originx="-42.166063"
       originy="-458.23252" />
  </sodipodi:namedview>
  <metadata
     id="metadata7">
    <rdf:RDF>
      <cc:Work
         rdf:about="">
        <dc:format>image/svg+xml</dc:format>
        <dc:type
           rdf:resource="http://purl.org/dc/dcmitype/StillImage" />
        <dc:title>Colors Hard Cover Book</dc:title>
        <dc:creator>
          <cc:Agent>
            <dc:title>Vikko Okviandho Liem</dc:title>
          </cc:Agent>
        </dc:creator>
        <dc:publisher>
          <cc:Agent>
            <dc:title>Belthsazar Liem of ISO-arts</dc:title>
          </cc:Agent>
        </dc:publisher>
        <dc:subject>
          <rdf:Bag>
            <rdf:li>book</rdf:li>
            <rdf:li>brown</rdf:li>
            <rdf:li>maroon</rdf:li>
            <rdf:li>green</rdf:li>
            <rdf:li>olive hard</rdf:li>
            <rdf:li>cover</rdf:li>
            <rdf:li>thick</rdf:li>
          </rdf:Bag>
        </dc:subject>
        <cc:license
           rdf:resource="http://creativecommons.org/publicdomain/zero/1.0/" />
        <dc:date>2015-06-09</dc:date>
      </cc:Work>
      <cc:License
         rdf:about="http://creativecommons.org/publicdomain/zero/1.0/">
        <cc:permits
           rdf:resource="http://creativecommons.org/ns#Reproduction" />
        <cc:permits
           rdf:resource="http://creativecommons.org/ns#Distribution" />
        <cc:permits
           rdf:resource="http://creativecommons.org/ns#DerivativeWorks" />
      </cc:License>
    </rdf:RDF>
  </metadata>
  <g
     inkscape:label="Layer 1"
     inkscape:groupmode="layer"
     id="layer1"
     transform="translate(-42.166063,-140.27559)">
    <g
       id="g4594"
       inkscape:export-xdpi="90"
       inkscape:export-ydpi="90">
      <g
         transform="matrix(0.52295677,0,0,0.52295677,22.500251,69.302736)"
         id="g4360">
        <path
           inkscape:connector-curvature="0"
           style="opacity:1;fill:#808080;fill-opacity:1;stroke:none;stroke-width:5;stroke-miterlimit:4;stroke-dasharray:none"
           d="m 552.34766,396.85061 -9.20704,5.31446 6.13672,3.54296 -9.20532,5.31659 12.27489,7.08562 18.4109,-10.62877 z"
           id="path4267"
           sodipodi:nodetypes="ccccccc" />
        <path
           inkscape:connector-curvature="0"
           style="opacity:1;fill:#aa8800;fill-opacity:1;stroke:none;stroke-width:5;stroke-miterlimit:4;stroke-dasharray:none"
           d="M 566.54782,296.99244 313.35123,441.466 l -6.4918,3.70404 0,7.40805 0,103.72105 6.4918,-3.70402 253.19659,-144.46948 0,-7.40807 -3.24382,1.84998 -3.24796,1.85406 -246.70481,140.76544 0,-97.10136 253.19659,-144.47356 z"
           id="path4178"
           sodipodi:nodetypes="cccccccccccccc" />
        <path
           inkscape:connector-curvature="0"
           style="opacity:1;fill:#7a6100;fill-opacity:1;stroke:none;stroke-width:5;stroke-miterlimit:4;stroke-dasharray:none"
           d="m 306.85943,148.81891 -259.692546,148.17353 0,111.1332 259.692546,148.1735 0,-111.1291 259.68839,-148.1776 -259.68839,-148.17353 z"
           id="rect4136" />
        <path
           style="opacity:1;fill:#7a6100;fill-opacity:1;stroke:none;stroke-width:5;stroke-miterlimit:4;stroke-dasharray:none"
           d="m 553.56494,393.30716 12.9846,7.40878 -253.19945,144.47101 0,-7.40876 240.21485,-137.06225 z"
           id="rect4186"
           inkscape:connector-curvature="0"
           sodipodi:nodetypes="cccccc" />
        <path
           id="path4265"
           d="m 552.34766,389.76329 -9.20704,5.31446 6.13672,3.54296 -6.13672,3.54493 9.20704,5.31445 0,10.62891 18.41015,-10.62891 0,-7.08594 -18.41015,-10.63086 z"
           style="opacity:1;fill:#808080;fill-opacity:1;stroke:none;stroke-width:5;stroke-miterlimit:4;stroke-dasharray:none"
           inkscape:connector-curvature="0" />
        <path
           inkscape:connector-curvature="0"
           style="opacity:1;fill:#803300;fill-opacity:1;stroke:none;stroke-width:5;stroke-miterlimit:4;stroke-dasharray:none"
           d="m 306.85943,156.22698 -253.20075,144.46948 0,111.1332 246.7048,140.76546 0,-111.12912 L 553.56425,296.99244 306.85943,156.22698 Z"
           id="path4162" />
        <path
           style="opacity:1;fill:#ffe680;fill-opacity:1;stroke:none;stroke-width:5;stroke-miterlimit:4;stroke-dasharray:none"
           d="m 313.35009,448.08242 240.21485,-137.06228 0,89.6958 -240.21485,137.06225 z"
           id="rect4171"
           inkscape:connector-curvature="0"
           sodipodi:nodetypes="ccccc" />
        <path
           style="opacity:0.5;fill:#000000;fill-opacity:1;stroke:none;stroke-width:5;stroke-miterlimit:4;stroke-dasharray:none"
           d="M 306.8578,445.16856 47.166063,296.99315 l 0,111.13154 259.691737,148.17543 z"
           id="path4176"
           inkscape:connector-curvature="0"
           sodipodi:nodetypes="ccccc" />
        <path
           sodipodi:nodetypes="ccccc"
           inkscape:connector-curvature="0"
           id="path4189"
           d="m 313.35009,448.87294 240.21485,-137.06228 0,1.33118 -240.21485,137.06226 z"
           style="opacity:1;fill:#000000;fill-opacity:1;stroke:none;stroke-width:5;stroke-miterlimit:4;stroke-dasharray:none" />
        <path
           style="opacity:1;fill:#000000;fill-opacity:1;stroke:none;stroke-width:5;stroke-miterlimit:4;stroke-dasharray:none"
           d="m 313.35009,453.33921 240.21485,-137.06228 0,1.33118 -240.21485,137.06226 z"
           id="path4209"
           inkscape:connector-curvature="0"
           sodipodi:nodetypes="ccccc" />
        <path
           sodipodi:nodetypes="ccccc"
           inkscape:connector-curvature="0"
           id="path4211"
           d="m 313.35009,457.29071 240.21485,-137.06228 0,1.33118 -240.21485,137.06226 z"
           style="opacity:1;fill:#000000;fill-opacity:1;stroke:none;stroke-width:5;stroke-miterlimit:4;stroke-dasharray:none" />
        <path
           style="opacity:1;fill:#000000;fill-opacity:1;stroke:none;stroke-width:5;stroke-miterlimit:4;stroke-dasharray:none"
           d="m 313.35009,460.83402 240.21485,-137.06228 0,1.33118 -240.21485,137.06226 z"
           id="path4213"
           inkscape:connector-curvature="0"
           sodipodi:nodetypes="ccccc" />
        <path
           sodipodi:nodetypes="ccccc"
           inkscape:connector-curvature="0"
           id="path4215"
           d="m 313.35009,465.30029 240.21485,-137.06228 0,1.33118 -240.21485,137.06226 z"
           style="opacity:1;fill:#000000;fill-opacity:1;stroke:none;stroke-width:5;stroke-miterlimit:4;stroke-dasharray:none" />
        <path
           style="opacity:1;fill:#000000;fill-opacity:1;stroke:none;stroke-width:5;stroke-miterlimit:4;stroke-dasharray:none"
           d="m 313.35009,469.25179 240.21485,-137.06228 0,1.33118 -240.21485,137.06226 z"
           id="path4217"
           inkscape:connector-curvature="0"
           sodipodi:nodetypes="ccccc" />
        <path
           sodipodi:nodetypes="ccccc"
           inkscape:connector-curvature="0"
           id="path4219"
           d="m 313.35009,474.59905 240.21485,-137.06228 0,1.33118 -240.21485,137.06226 z"
           style="opacity:1;fill:#000000;fill-opacity:1;stroke:none;stroke-width:5;stroke-miterlimit:4;stroke-dasharray:none" />
        <path
           style="opacity:1;fill:#000000;fill-opacity:1;stroke:none;stroke-width:5;stroke-miterlimit:4;stroke-dasharray:none"
           d="m 313.35009,479.06532 240.21485,-137.06228 0,1.33118 -240.21485,137.06226 z"
           id="path4221"
           inkscape:connector-curvature="0"
           sodipodi:nodetypes="ccccc" />
        <path
           sodipodi:nodetypes="ccccc"
           inkscape:connector-curvature="0"
           id="path4223"
           d="m 313.35009,483.01682 240.21485,-137.06228 0,1.33118 -240.21485,137.06226 z"
           style="opacity:1;fill:#000000;fill-opacity:1;stroke:none;stroke-width:5;stroke-miterlimit:4;stroke-dasharray:none" />
        <path
           style="opacity:1;fill:#000000;fill-opacity:1;stroke:none;stroke-width:5;stroke-miterlimit:4;stroke-dasharray:none"
           d="m 313.35009,487.44112 240.21485,-137.06228 0,1.33118 -240.21485,137.06226 z"
           id="path4225"
           inkscape:connector-curvature="0"
           sodipodi:nodetypes="ccccc" />
        <path
           sodipodi:nodetypes="ccccc"
           inkscape:connector-curvature="0"
           id="path4227"
           d="m 313.35009,491.90739 240.21485,-137.06228 0,1.33118 -240.21485,137.06226 z"
           style="opacity:1;fill:#000000;fill-opacity:1;stroke:none;stroke-width:5;stroke-miterlimit:4;stroke-dasharray:none" />
        <path
           style="opacity:1;fill:#000000;fill-opacity:1;stroke:none;stroke-width:5;stroke-miterlimit:4;stroke-dasharray:none"
           d="m 313.35009,495.85889 240.21485,-137.06228 0,1.33118 -240.21485,137.06226 z"
           id="path4229"
           inkscape:connector-curvature="0"
           sodipodi:nodetypes="ccccc" />
        <path
           sodipodi:nodetypes="ccccc"
           inkscape:connector-curvature="0"
           id="path4231"
           d="m 313.35009,499.4022 240.21485,-137.06228 0,1.33118 -240.21485,137.06226 z"
           style="opacity:1;fill:#000000;fill-opacity:1;stroke:none;stroke-width:5;stroke-miterlimit:4;stroke-dasharray:none" />
        <path
           style="opacity:1;fill:#000000;fill-opacity:1;stroke:none;stroke-width:5;stroke-miterlimit:4;stroke-dasharray:none"
           d="m 313.35009,503.86847 240.21485,-137.06228 0,1.33118 -240.21485,137.06226 z"
           id="path4233"
           inkscape:connector-curvature="0"
           sodipodi:nodetypes="ccccc" />
        <path
           sodipodi:nodetypes="ccccc"
           inkscape:connector-curvature="0"
           id="path4235"
           d="m 313.35009,507.81997 240.21485,-137.06228 0,1.33118 -240.21485,137.06226 z"
           style="opacity:1;fill:#000000;fill-opacity:1;stroke:none;stroke-width:5;stroke-miterlimit:4;stroke-dasharray:none" />
        <path
           style="opacity:1;fill:#000000;fill-opacity:1;stroke:none;stroke-width:5;stroke-miterlimit:4;stroke-dasharray:none"
           d="m 313.35009,513.16723 240.21485,-137.06228 0,1.33118 -240.21485,137.06226 z"
           id="path4237"
           inkscape:connector-curvature="0"
           sodipodi:nodetypes="ccccc" />
        <path
           sodipodi:nodetypes="ccccc"
           inkscape:connector-curvature="0"
           id="path4239"
           d="m 313.35009,517.6335 240.21485,-137.06228 0,1.33118 -240.21485,137.06226 z"
           style="opacity:1;fill:#000000;fill-opacity:1;stroke:none;stroke-width:5;stroke-miterlimit:4;stroke-dasharray:none" />
        <path
           style="opacity:1;fill:#000000;fill-opacity:1;stroke:none;stroke-width:5;stroke-miterlimit:4;stroke-dasharray:none"
           d="m 313.35009,521.585 240.21485,-137.06228 0,1.33118 -240.21485,137.06226 z"
           id="path4241"
           inkscape:connector-curvature="0"
           sodipodi:nodetypes="ccccc" />
        <path
           sodipodi:nodetypes="ccccc"
           inkscape:connector-curvature="0"
           id="path4249"
           d="m 313.35009,527.74866 240.21485,-137.06228 0,1.33118 -240.21485,137.06226 z"
           style="opacity:1;fill:#000000;fill-opacity:1;stroke:none;stroke-width:5;stroke-miterlimit:4;stroke-dasharray:none" />
        <path
           style="opacity:1;fill:#000000;fill-opacity:1;stroke:none;stroke-width:5;stroke-miterlimit:4;stroke-dasharray:none"
           d="m 313.35009,532.21493 240.21485,-137.06228 0,1.33118 -240.21485,137.06226 z"
           id="path4251"
           inkscape:connector-curvature="0"
           sodipodi:nodetypes="ccccc" />
        <path
           sodipodi:nodetypes="ccccc"
           inkscape:connector-curvature="0"
           id="path4253"
           d="m 313.35009,536.16643 240.21485,-137.06228 0,1.33118 -240.21485,137.06226 z"
           style="opacity:1;fill:#000000;fill-opacity:1;stroke:none;stroke-width:5;stroke-miterlimit:4;stroke-dasharray:none" />
        <path
           style="opacity:1;fill:#808080;fill-opacity:1;stroke:none;stroke-width:5;stroke-miterlimit:4;stroke-dasharray:none"
           d="m 306.8594,145.27559 18.41156,10.62993 -12.27438,7.08661 -6.13718,-3.54331 -6.13719,3.54331 -12.27438,-7.08661 z"
           id="rect4255"
           inkscape:connector-curvature="0"
           sodipodi:nodetypes="ccccccc" />
        <path
           inkscape:connector-curvature="0"
           style="opacity:1;fill:#808080;fill-opacity:1;stroke:none;stroke-width:5;stroke-miterlimit:4;stroke-dasharray:none"
           d="m 552.34766,287.00781 -9.20704,5.31446 6.13672,3.54296 -6.13672,3.54493 9.20704,5.31445 0,7.08594 -3.07032,1.77148 3.07032,1.77149 18.41015,-10.62891 0,-7.08594 -18.41015,-10.63086 z"
           id="rect4258" />
        <path
           style="opacity:1;fill:#e9ddaf;fill-opacity:1;stroke:none;stroke-width:5;stroke-miterlimit:4;stroke-dasharray:none"
           d="M 107.40079,299.40945 306.8594,184.25198 368.23127,219.68504 168.77267,334.84252 Z"
           id="rect4357"
           inkscape:connector-curvature="0"
           sodipodi:nodetypes="ccccc" />
      </g>
      <g
         id="g4396"
         transform="matrix(0.52295677,0,0,0.52295677,317.23697,69.302736)">
        <path
           sodipodi:nodetypes="ccccccc"
           id="path4398"
           d="m 552.34766,396.85061 -9.20704,5.31446 6.13672,3.54296 -9.20532,5.31659 12.27489,7.08562 18.4109,-10.62877 z"
           style="opacity:1;fill:#808080;fill-opacity:1;stroke:none;stroke-width:5;stroke-miterlimit:4;stroke-dasharray:none"
           inkscape:connector-curvature="0" />
        <path
           sodipodi:nodetypes="cccccccccccccc"
           id="path4400"
           d="M 566.54782,296.99244 313.35123,441.466 l -6.4918,3.70404 0,7.40805 0,103.72105 6.4918,-3.70402 253.19659,-144.46948 0,-7.40807 -3.24382,1.84998 -3.24796,1.85406 -246.70481,140.76544 0,-97.10136 253.19659,-144.47356 z"
           style="opacity:1;fill:#aa8800;fill-opacity:1;stroke:none;stroke-width:5;stroke-miterlimit:4;stroke-dasharray:none"
           inkscape:connector-curvature="0" />
        <path
           id="path4402"
           d="m 306.85943,148.81891 -259.692546,148.17353 0,111.1332 259.692546,148.1735 0,-111.1291 259.68839,-148.1776 -259.68839,-148.17353 z"
           style="opacity:1;fill:#7a6100;fill-opacity:1;stroke:none;stroke-width:5;stroke-miterlimit:4;stroke-dasharray:none"
           inkscape:connector-curvature="0" />
        <path
           sodipodi:nodetypes="cccccc"
           inkscape:connector-curvature="0"
           id="path4404"
           d="m 553.56494,393.30716 12.9846,7.40878 -253.19945,144.47101 0,-7.40876 240.21485,-137.06225 z"
           style="opacity:1;fill:#7a6100;fill-opacity:1;stroke:none;stroke-width:5;stroke-miterlimit:4;stroke-dasharray:none" />
        <path
           inkscape:connector-curvature="0"
           style="opacity:1;fill:#808080;fill-opacity:1;stroke:none;stroke-width:5;stroke-miterlimit:4;stroke-dasharray:none"
           d="m 552.34766,389.76329 -9.20704,5.31446 6.13672,3.54296 -6.13672,3.54493 9.20704,5.31445 0,10.62891 18.41015,-10.62891 0,-7.08594 -18.41015,-10.63086 z"
           id="path4406" />
        <path
           id="path4408"
           d="m 306.85943,156.22698 -253.20075,144.46948 0,111.1332 246.7048,140.76546 0,-111.12912 L 553.56425,296.99244 306.85943,156.22698 Z"
           style="opacity:1;fill:#008000;fill-opacity:1;stroke:none;stroke-width:5;stroke-miterlimit:4;stroke-dasharray:none"
           inkscape:connector-curvature="0" />
        <path
           sodipodi:nodetypes="ccccc"
           inkscape:connector-curvature="0"
           id="path4410"
           d="m 313.35009,448.08242 240.21485,-137.06228 0,89.6958 -240.21485,137.06225 z"
           style="opacity:1;fill:#ffe680;fill-opacity:1;stroke:none;stroke-width:5;stroke-miterlimit:4;stroke-dasharray:none" />
        <path
           sodipodi:nodetypes="ccccc"
           inkscape:connector-curvature="0"
           id="path4412"
           d="M 306.8578,445.16856 47.166063,296.99315 l 0,111.13154 259.691737,148.17543 z"
           style="opacity:0.5;fill:#000000;fill-opacity:1;stroke:none;stroke-width:5;stroke-miterlimit:4;stroke-dasharray:none" />
        <path
           style="opacity:1;fill:#000000;fill-opacity:1;stroke:none;stroke-width:5;stroke-miterlimit:4;stroke-dasharray:none"
           d="m 313.35009,448.87294 240.21485,-137.06228 0,1.33118 -240.21485,137.06226 z"
           id="path4414"
           inkscape:connector-curvature="0"
           sodipodi:nodetypes="ccccc" />
        <path
           sodipodi:nodetypes="ccccc"
           inkscape:connector-curvature="0"
           id="path4416"
           d="m 313.35009,453.33921 240.21485,-137.06228 0,1.33118 -240.21485,137.06226 z"
           style="opacity:1;fill:#000000;fill-opacity:1;stroke:none;stroke-width:5;stroke-miterlimit:4;stroke-dasharray:none" />
        <path
           style="opacity:1;fill:#000000;fill-opacity:1;stroke:none;stroke-width:5;stroke-miterlimit:4;stroke-dasharray:none"
           d="m 313.35009,457.29071 240.21485,-137.06228 0,1.33118 -240.21485,137.06226 z"
           id="path4418"
           inkscape:connector-curvature="0"
           sodipodi:nodetypes="ccccc" />
        <path
           sodipodi:nodetypes="ccccc"
           inkscape:connector-curvature="0"
           id="path4420"
           d="m 313.35009,460.83402 240.21485,-137.06228 0,1.33118 -240.21485,137.06226 z"
           style="opacity:1;fill:#000000;fill-opacity:1;stroke:none;stroke-width:5;stroke-miterlimit:4;stroke-dasharray:none" />
        <path
           style="opacity:1;fill:#000000;fill-opacity:1;stroke:none;stroke-width:5;stroke-miterlimit:4;stroke-dasharray:none"
           d="m 313.35009,465.30029 240.21485,-137.06228 0,1.33118 -240.21485,137.06226 z"
           id="path4422"
           inkscape:connector-curvature="0"
           sodipodi:nodetypes="ccccc" />
        <path
           sodipodi:nodetypes="ccccc"
           inkscape:connector-curvature="0"
           id="path4424"
           d="m 313.35009,469.25179 240.21485,-137.06228 0,1.33118 -240.21485,137.06226 z"
           style="opacity:1;fill:#000000;fill-opacity:1;stroke:none;stroke-width:5;stroke-miterlimit:4;stroke-dasharray:none" />
        <path
           style="opacity:1;fill:#000000;fill-opacity:1;stroke:none;stroke-width:5;stroke-miterlimit:4;stroke-dasharray:none"
           d="m 313.35009,474.59905 240.21485,-137.06228 0,1.33118 -240.21485,137.06226 z"
           id="path4426"
           inkscape:connector-curvature="0"
           sodipodi:nodetypes="ccccc" />
        <path
           sodipodi:nodetypes="ccccc"
           inkscape:connector-curvature="0"
           id="path4428"
           d="m 313.35009,479.06532 240.21485,-137.06228 0,1.33118 -240.21485,137.06226 z"
           style="opacity:1;fill:#000000;fill-opacity:1;stroke:none;stroke-width:5;stroke-miterlimit:4;stroke-dasharray:none" />
        <path
           style="opacity:1;fill:#000000;fill-opacity:1;stroke:none;stroke-width:5;stroke-miterlimit:4;stroke-dasharray:none"
           d="m 313.35009,483.01682 240.21485,-137.06228 0,1.33118 -240.21485,137.06226 z"
           id="path4430"
           inkscape:connector-curvature="0"
           sodipodi:nodetypes="ccccc" />
        <path
           sodipodi:nodetypes="ccccc"
           inkscape:connector-curvature="0"
           id="path4432"
           d="m 313.35009,487.44112 240.21485,-137.06228 0,1.33118 -240.21485,137.06226 z"
           style="opacity:1;fill:#000000;fill-opacity:1;stroke:none;stroke-width:5;stroke-miterlimit:4;stroke-dasharray:none" />
        <path
           style="opacity:1;fill:#000000;fill-opacity:1;stroke:none;stroke-width:5;stroke-miterlimit:4;stroke-dasharray:none"
           d="m 313.35009,491.90739 240.21485,-137.06228 0,1.33118 -240.21485,137.06226 z"
           id="path4434"
           inkscape:connector-curvature="0"
           sodipodi:nodetypes="ccccc" />
        <path
           sodipodi:nodetypes="ccccc"
           inkscape:connector-curvature="0"
           id="path4436"
           d="m 313.35009,495.85889 240.21485,-137.06228 0,1.33118 -240.21485,137.06226 z"
           style="opacity:1;fill:#000000;fill-opacity:1;stroke:none;stroke-width:5;stroke-miterlimit:4;stroke-dasharray:none" />
        <path
           style="opacity:1;fill:#000000;fill-opacity:1;stroke:none;stroke-width:5;stroke-miterlimit:4;stroke-dasharray:none"
           d="m 313.35009,499.4022 240.21485,-137.06228 0,1.33118 -240.21485,137.06226 z"
           id="path4438"
           inkscape:connector-curvature="0"
           sodipodi:nodetypes="ccccc" />
        <path
           sodipodi:nodetypes="ccccc"
           inkscape:connector-curvature="0"
           id="path4440"
           d="m 313.35009,503.86847 240.21485,-137.06228 0,1.33118 -240.21485,137.06226 z"
           style="opacity:1;fill:#000000;fill-opacity:1;stroke:none;stroke-width:5;stroke-miterlimit:4;stroke-dasharray:none" />
        <path
           style="opacity:1;fill:#000000;fill-opacity:1;stroke:none;stroke-width:5;stroke-miterlimit:4;stroke-dasharray:none"
           d="m 313.35009,507.81997 240.21485,-137.06228 0,1.33118 -240.21485,137.06226 z"
           id="path4442"
           inkscape:connector-curvature="0"
           sodipodi:nodetypes="ccccc" />
        <path
           sodipodi:nodetypes="ccccc"
           inkscape:connector-curvature="0"
           id="path4444"
           d="m 313.35009,513.16723 240.21485,-137.06228 0,1.33118 -240.21485,137.06226 z"
           style="opacity:1;fill:#000000;fill-opacity:1;stroke:none;stroke-width:5;stroke-miterlimit:4;stroke-dasharray:none" />
        <path
           style="opacity:1;fill:#000000;fill-opacity:1;stroke:none;stroke-width:5;stroke-miterlimit:4;stroke-dasharray:none"
           d="m 313.35009,517.6335 240.21485,-137.06228 0,1.33118 -240.21485,137.06226 z"
           id="path4446"
           inkscape:connector-curvature="0"
           sodipodi:nodetypes="ccccc" />
        <path
           sodipodi:nodetypes="ccccc"
           inkscape:connector-curvature="0"
           id="path4448"
           d="m 313.35009,521.585 240.21485,-137.06228 0,1.33118 -240.21485,137.06226 z"
           style="opacity:1;fill:#000000;fill-opacity:1;stroke:none;stroke-width:5;stroke-miterlimit:4;stroke-dasharray:none" />
        <path
           style="opacity:1;fill:#000000;fill-opacity:1;stroke:none;stroke-width:5;stroke-miterlimit:4;stroke-dasharray:none"
           d="m 313.35009,527.74866 240.21485,-137.06228 0,1.33118 -240.21485,137.06226 z"
           id="path4450"
           inkscape:connector-curvature="0"
           sodipodi:nodetypes="ccccc" />
        <path
           sodipodi:nodetypes="ccccc"
           inkscape:connector-curvature="0"
           id="path4452"
           d="m 313.35009,532.21493 240.21485,-137.06228 0,1.33118 -240.21485,137.06226 z"
           style="opacity:1;fill:#000000;fill-opacity:1;stroke:none;stroke-width:5;stroke-miterlimit:4;stroke-dasharray:none" />
        <path
           style="opacity:1;fill:#000000;fill-opacity:1;stroke:none;stroke-width:5;stroke-miterlimit:4;stroke-dasharray:none"
           d="m 313.35009,536.16643 240.21485,-137.06228 0,1.33118 -240.21485,137.06226 z"
           id="path4454"
           inkscape:connector-curvature="0"
           sodipodi:nodetypes="ccccc" />
        <path
           sodipodi:nodetypes="ccccccc"
           inkscape:connector-curvature="0"
           id="path4456"
           d="m 306.8594,145.27559 18.41156,10.62993 -12.27438,7.08661 -6.13718,-3.54331 -6.13719,3.54331 -12.27438,-7.08661 z"
           style="opacity:1;fill:#808080;fill-opacity:1;stroke:none;stroke-width:5;stroke-miterlimit:4;stroke-dasharray:none" />
        <path
           id="path4458"
           d="m 552.34766,287.00781 -9.20704,5.31446 6.13672,3.54296 -6.13672,3.54493 9.20704,5.31445 0,7.08594 -3.07032,1.77148 3.07032,1.77149 18.41015,-10.62891 0,-7.08594 -18.41015,-10.63086 z"
           style="opacity:1;fill:#808080;fill-opacity:1;stroke:none;stroke-width:5;stroke-miterlimit:4;stroke-dasharray:none"
           inkscape:connector-curvature="0" />
        <path
           sodipodi:nodetypes="ccccc"
           inkscape:connector-curvature="0"
           id="path4460"
           d="M 107.40079,299.40945 306.8594,184.25198 368.23127,219.68504 168.77267,334.84252 Z"
           style="opacity:1;fill:#e9ddaf;fill-opacity:1;stroke:none;stroke-width:5;stroke-miterlimit:4;stroke-dasharray:none" />
      </g>
      <g
         id="g4462"
         transform="matrix(0.52295677,0,0,0.52295677,22.500251,298.20876)">
        <path
           sodipodi:nodetypes="ccccccc"
           id="path4464"
           d="m 552.34766,396.85061 -9.20704,5.31446 6.13672,3.54296 -9.20532,5.31659 12.27489,7.08562 18.4109,-10.62877 z"
           style="opacity:1;fill:#808080;fill-opacity:1;stroke:none;stroke-width:5;stroke-miterlimit:4;stroke-dasharray:none"
           inkscape:connector-curvature="0" />
        <path
           sodipodi:nodetypes="cccccccccccccc"
           id="path4466"
           d="M 566.54782,296.99244 313.35123,441.466 l -6.4918,3.70404 0,7.40805 0,103.72105 6.4918,-3.70402 253.19659,-144.46948 0,-7.40807 -3.24382,1.84998 -3.24796,1.85406 -246.70481,140.76544 0,-97.10136 253.19659,-144.47356 z"
           style="opacity:1;fill:#aa8800;fill-opacity:1;stroke:none;stroke-width:5;stroke-miterlimit:4;stroke-dasharray:none"
           inkscape:connector-curvature="0" />
        <path
           id="path4468"
           d="m 306.85943,148.81891 -259.692546,148.17353 0,111.1332 259.692546,148.1735 0,-111.1291 259.68839,-148.1776 -259.68839,-148.17353 z"
           style="opacity:1;fill:#7a6100;fill-opacity:1;stroke:none;stroke-width:5;stroke-miterlimit:4;stroke-dasharray:none"
           inkscape:connector-curvature="0" />
        <path
           sodipodi:nodetypes="cccccc"
           inkscape:connector-curvature="0"
           id="path4470"
           d="m 553.56494,393.30716 12.9846,7.40878 -253.19945,144.47101 0,-7.40876 240.21485,-137.06225 z"
           style="opacity:1;fill:#7a6100;fill-opacity:1;stroke:none;stroke-width:5;stroke-miterlimit:4;stroke-dasharray:none" />
        <path
           inkscape:connector-curvature="0"
           style="opacity:1;fill:#808080;fill-opacity:1;stroke:none;stroke-width:5;stroke-miterlimit:4;stroke-dasharray:none"
           d="m 552.34766,389.76329 -9.20704,5.31446 6.13672,3.54296 -6.13672,3.54493 9.20704,5.31445 0,10.62891 18.41015,-10.62891 0,-7.08594 -18.41015,-10.63086 z"
           id="path4472" />
        <path
           id="path4474"
           d="m 306.85943,156.22698 -253.20075,144.46948 0,111.1332 246.7048,140.76546 0,-111.12912 L 553.56425,296.99244 306.85943,156.22698 Z"
           style="opacity:1;fill:#800000;fill-opacity:1;stroke:none;stroke-width:5;stroke-miterlimit:4;stroke-dasharray:none"
           inkscape:connector-curvature="0" />
        <path
           sodipodi:nodetypes="ccccc"
           inkscape:connector-curvature="0"
           id="path4476"
           d="m 313.35009,448.08242 240.21485,-137.06228 0,89.6958 -240.21485,137.06225 z"
           style="opacity:1;fill:#ffe680;fill-opacity:1;stroke:none;stroke-width:5;stroke-miterlimit:4;stroke-dasharray:none" />
        <path
           sodipodi:nodetypes="ccccc"
           inkscape:connector-curvature="0"
           id="path4478"
           d="M 306.8578,445.16856 47.166063,296.99315 l 0,111.13154 259.691737,148.17543 z"
           style="opacity:0.5;fill:#000000;fill-opacity:1;stroke:none;stroke-width:5;stroke-miterlimit:4;stroke-dasharray:none" />
        <path
           style="opacity:1;fill:#000000;fill-opacity:1;stroke:none;stroke-width:5;stroke-miterlimit:4;stroke-dasharray:none"
           d="m 313.35009,448.87294 240.21485,-137.06228 0,1.33118 -240.21485,137.06226 z"
           id="path4480"
           inkscape:connector-curvature="0"
           sodipodi:nodetypes="ccccc" />
        <path
           sodipodi:nodetypes="ccccc"
           inkscape:connector-curvature="0"
           id="path4482"
           d="m 313.35009,453.33921 240.21485,-137.06228 0,1.33118 -240.21485,137.06226 z"
           style="opacity:1;fill:#000000;fill-opacity:1;stroke:none;stroke-width:5;stroke-miterlimit:4;stroke-dasharray:none" />
        <path
           style="opacity:1;fill:#000000;fill-opacity:1;stroke:none;stroke-width:5;stroke-miterlimit:4;stroke-dasharray:none"
           d="m 313.35009,457.29071 240.21485,-137.06228 0,1.33118 -240.21485,137.06226 z"
           id="path4484"
           inkscape:connector-curvature="0"
           sodipodi:nodetypes="ccccc" />
        <path
           sodipodi:nodetypes="ccccc"
           inkscape:connector-curvature="0"
           id="path4486"
           d="m 313.35009,460.83402 240.21485,-137.06228 0,1.33118 -240.21485,137.06226 z"
           style="opacity:1;fill:#000000;fill-opacity:1;stroke:none;stroke-width:5;stroke-miterlimit:4;stroke-dasharray:none" />
        <path
           style="opacity:1;fill:#000000;fill-opacity:1;stroke:none;stroke-width:5;stroke-miterlimit:4;stroke-dasharray:none"
           d="m 313.35009,465.30029 240.21485,-137.06228 0,1.33118 -240.21485,137.06226 z"
           id="path4488"
           inkscape:connector-curvature="0"
           sodipodi:nodetypes="ccccc" />
        <path
           sodipodi:nodetypes="ccccc"
           inkscape:connector-curvature="0"
           id="path4490"
           d="m 313.35009,469.25179 240.21485,-137.06228 0,1.33118 -240.21485,137.06226 z"
           style="opacity:1;fill:#000000;fill-opacity:1;stroke:none;stroke-width:5;stroke-miterlimit:4;stroke-dasharray:none" />
        <path
           style="opacity:1;fill:#000000;fill-opacity:1;stroke:none;stroke-width:5;stroke-miterlimit:4;stroke-dasharray:none"
           d="m 313.35009,474.59905 240.21485,-137.06228 0,1.33118 -240.21485,137.06226 z"
           id="path4492"
           inkscape:connector-curvature="0"
           sodipodi:nodetypes="ccccc" />
        <path
           sodipodi:nodetypes="ccccc"
           inkscape:connector-curvature="0"
           id="path4494"
           d="m 313.35009,479.06532 240.21485,-137.06228 0,1.33118 -240.21485,137.06226 z"
           style="opacity:1;fill:#000000;fill-opacity:1;stroke:none;stroke-width:5;stroke-miterlimit:4;stroke-dasharray:none" />
        <path
           style="opacity:1;fill:#000000;fill-opacity:1;stroke:none;stroke-width:5;stroke-miterlimit:4;stroke-dasharray:none"
           d="m 313.35009,483.01682 240.21485,-137.06228 0,1.33118 -240.21485,137.06226 z"
           id="path4496"
           inkscape:connector-curvature="0"
           sodipodi:nodetypes="ccccc" />
        <path
           sodipodi:nodetypes="ccccc"
           inkscape:connector-curvature="0"
           id="path4498"
           d="m 313.35009,487.44112 240.21485,-137.06228 0,1.33118 -240.21485,137.06226 z"
           style="opacity:1;fill:#000000;fill-opacity:1;stroke:none;stroke-width:5;stroke-miterlimit:4;stroke-dasharray:none" />
        <path
           style="opacity:1;fill:#000000;fill-opacity:1;stroke:none;stroke-width:5;stroke-miterlimit:4;stroke-dasharray:none"
           d="m 313.35009,491.90739 240.21485,-137.06228 0,1.33118 -240.21485,137.06226 z"
           id="path4500"
           inkscape:connector-curvature="0"
           sodipodi:nodetypes="ccccc" />
        <path
           sodipodi:nodetypes="ccccc"
           inkscape:connector-curvature="0"
           id="path4502"
           d="m 313.35009,495.85889 240.21485,-137.06228 0,1.33118 -240.21485,137.06226 z"
           style="opacity:1;fill:#000000;fill-opacity:1;stroke:none;stroke-width:5;stroke-miterlimit:4;stroke-dasharray:none" />
        <path
           style="opacity:1;fill:#000000;fill-opacity:1;stroke:none;stroke-width:5;stroke-miterlimit:4;stroke-dasharray:none"
           d="m 313.35009,499.4022 240.21485,-137.06228 0,1.33118 -240.21485,137.06226 z"
           id="path4504"
           inkscape:connector-curvature="0"
           sodipodi:nodetypes="ccccc" />
        <path
           sodipodi:nodetypes="ccccc"
           inkscape:connector-curvature="0"
           id="path4506"
           d="m 313.35009,503.86847 240.21485,-137.06228 0,1.33118 -240.21485,137.06226 z"
           style="opacity:1;fill:#000000;fill-opacity:1;stroke:none;stroke-width:5;stroke-miterlimit:4;stroke-dasharray:none" />
        <path
           style="opacity:1;fill:#000000;fill-opacity:1;stroke:none;stroke-width:5;stroke-miterlimit:4;stroke-dasharray:none"
           d="m 313.35009,507.81997 240.21485,-137.06228 0,1.33118 -240.21485,137.06226 z"
           id="path4508"
           inkscape:connector-curvature="0"
           sodipodi:nodetypes="ccccc" />
        <path
           sodipodi:nodetypes="ccccc"
           inkscape:connector-curvature="0"
           id="path4510"
           d="m 313.35009,513.16723 240.21485,-137.06228 0,1.33118 -240.21485,137.06226 z"
           style="opacity:1;fill:#000000;fill-opacity:1;stroke:none;stroke-width:5;stroke-miterlimit:4;stroke-dasharray:none" />
        <path
           style="opacity:1;fill:#000000;fill-opacity:1;stroke:none;stroke-width:5;stroke-miterlimit:4;stroke-dasharray:none"
           d="m 313.35009,517.6335 240.21485,-137.06228 0,1.33118 -240.21485,137.06226 z"
           id="path4512"
           inkscape:connector-curvature="0"
           sodipodi:nodetypes="ccccc" />
        <path
           sodipodi:nodetypes="ccccc"
           inkscape:connector-curvature="0"
           id="path4514"
           d="m 313.35009,521.585 240.21485,-137.06228 0,1.33118 -240.21485,137.06226 z"
           style="opacity:1;fill:#000000;fill-opacity:1;stroke:none;stroke-width:5;stroke-miterlimit:4;stroke-dasharray:none" />
        <path
           style="opacity:1;fill:#000000;fill-opacity:1;stroke:none;stroke-width:5;stroke-miterlimit:4;stroke-dasharray:none"
           d="m 313.35009,527.74866 240.21485,-137.06228 0,1.33118 -240.21485,137.06226 z"
           id="path4516"
           inkscape:connector-curvature="0"
           sodipodi:nodetypes="ccccc" />
        <path
           sodipodi:nodetypes="ccccc"
           inkscape:connector-curvature="0"
           id="path4518"
           d="m 313.35009,532.21493 240.21485,-137.06228 0,1.33118 -240.21485,137.06226 z"
           style="opacity:1;fill:#000000;fill-opacity:1;stroke:none;stroke-width:5;stroke-miterlimit:4;stroke-dasharray:none" />
        <path
           style="opacity:1;fill:#000000;fill-opacity:1;stroke:none;stroke-width:5;stroke-miterlimit:4;stroke-dasharray:none"
           d="m 313.35009,536.16643 240.21485,-137.06228 0,1.33118 -240.21485,137.06226 z"
           id="path4520"
           inkscape:connector-curvature="0"
           sodipodi:nodetypes="ccccc" />
        <path
           sodipodi:nodetypes="ccccccc"
           inkscape:connector-curvature="0"
           id="path4522"
           d="m 306.8594,145.27559 18.41156,10.62993 -12.27438,7.08661 -6.13718,-3.54331 -6.13719,3.54331 -12.27438,-7.08661 z"
           style="opacity:1;fill:#808080;fill-opacity:1;stroke:none;stroke-width:5;stroke-miterlimit:4;stroke-dasharray:none" />
        <path
           id="path4524"
           d="m 552.34766,287.00781 -9.20704,5.31446 6.13672,3.54296 -6.13672,3.54493 9.20704,5.31445 0,7.08594 -3.07032,1.77148 3.07032,1.77149 18.41015,-10.62891 0,-7.08594 -18.41015,-10.63086 z"
           style="opacity:1;fill:#808080;fill-opacity:1;stroke:none;stroke-width:5;stroke-miterlimit:4;stroke-dasharray:none"
           inkscape:connector-curvature="0" />
        <path
           sodipodi:nodetypes="ccccc"
           inkscape:connector-curvature="0"
           id="path4526"
           d="M 107.40079,299.40945 306.8594,184.25198 368.23127,219.68504 168.77267,334.84252 Z"
           style="opacity:1;fill:#e9ddaf;fill-opacity:1;stroke:none;stroke-width:5;stroke-miterlimit:4;stroke-dasharray:none" />
      </g>
      <g
         transform="matrix(0.52295677,0,0,0.52295677,317.23697,298.20876)"
         id="g4528">
        <path
           inkscape:connector-curvature="0"
           style="opacity:1;fill:#808080;fill-opacity:1;stroke:none;stroke-width:5;stroke-miterlimit:4;stroke-dasharray:none"
           d="m 552.34766,396.85061 -9.20704,5.31446 6.13672,3.54296 -9.20532,5.31659 12.27489,7.08562 18.4109,-10.62877 z"
           id="path4530"
           sodipodi:nodetypes="ccccccc" />
        <path
           inkscape:connector-curvature="0"
           style="opacity:1;fill:#aa8800;fill-opacity:1;stroke:none;stroke-width:5;stroke-miterlimit:4;stroke-dasharray:none"
           d="M 566.54782,296.99244 313.35123,441.466 l -6.4918,3.70404 0,7.40805 0,103.72105 6.4918,-3.70402 253.19659,-144.46948 0,-7.40807 -3.24382,1.84998 -3.24796,1.85406 -246.70481,140.76544 0,-97.10136 253.19659,-144.47356 z"
           id="path4532"
           sodipodi:nodetypes="cccccccccccccc" />
        <path
           inkscape:connector-curvature="0"
           style="opacity:1;fill:#7a6100;fill-opacity:1;stroke:none;stroke-width:5;stroke-miterlimit:4;stroke-dasharray:none"
           d="m 306.85943,148.81891 -259.692546,148.17353 0,111.1332 259.692546,148.1735 0,-111.1291 259.68839,-148.1776 -259.68839,-148.17353 z"
           id="path4534" />
        <path
           style="opacity:1;fill:#7a6100;fill-opacity:1;stroke:none;stroke-width:5;stroke-miterlimit:4;stroke-dasharray:none"
           d="m 553.56494,393.30716 12.9846,7.40878 -253.19945,144.47101 0,-7.40876 240.21485,-137.06225 z"
           id="path4536"
           inkscape:connector-curvature="0"
           sodipodi:nodetypes="cccccc" />
        <path
           id="path4538"
           d="m 552.34766,389.76329 -9.20704,5.31446 6.13672,3.54296 -6.13672,3.54493 9.20704,5.31445 0,10.62891 18.41015,-10.62891 0,-7.08594 -18.41015,-10.63086 z"
           style="opacity:1;fill:#808080;fill-opacity:1;stroke:none;stroke-width:5;stroke-miterlimit:4;stroke-dasharray:none"
           inkscape:connector-curvature="0" />
        <path
           inkscape:connector-curvature="0"
           style="opacity:1;fill:#808000;fill-opacity:1;stroke:none;stroke-width:5;stroke-miterlimit:4;stroke-dasharray:none"
           d="m 306.85943,156.22698 -253.20075,144.46948 0,111.1332 246.7048,140.76546 0,-111.12912 L 553.56425,296.99244 306.85943,156.22698 Z"
           id="path4540" />
        <path
           style="opacity:1;fill:#ffe680;fill-opacity:1;stroke:none;stroke-width:5;stroke-miterlimit:4;stroke-dasharray:none"
           d="m 313.35009,448.08242 240.21485,-137.06228 0,89.6958 -240.21485,137.06225 z"
           id="path4542"
           inkscape:connector-curvature="0"
           sodipodi:nodetypes="ccccc" />
        <path
           style="opacity:0.5;fill:#000000;fill-opacity:1;stroke:none;stroke-width:5;stroke-miterlimit:4;stroke-dasharray:none"
           d="M 306.8578,445.16856 47.166063,296.99315 l 0,111.13154 259.691737,148.17543 z"
           id="path4544"
           inkscape:connector-curvature="0"
           sodipodi:nodetypes="ccccc" />
        <path
           sodipodi:nodetypes="ccccc"
           inkscape:connector-curvature="0"
           id="path4546"
           d="m 313.35009,448.87294 240.21485,-137.06228 0,1.33118 -240.21485,137.06226 z"
           style="opacity:1;fill:#000000;fill-opacity:1;stroke:none;stroke-width:5;stroke-miterlimit:4;stroke-dasharray:none" />
        <path
           style="opacity:1;fill:#000000;fill-opacity:1;stroke:none;stroke-width:5;stroke-miterlimit:4;stroke-dasharray:none"
           d="m 313.35009,453.33921 240.21485,-137.06228 0,1.33118 -240.21485,137.06226 z"
           id="path4548"
           inkscape:connector-curvature="0"
           sodipodi:nodetypes="ccccc" />
        <path
           sodipodi:nodetypes="ccccc"
           inkscape:connector-curvature="0"
           id="path4550"
           d="m 313.35009,457.29071 240.21485,-137.06228 0,1.33118 -240.21485,137.06226 z"
           style="opacity:1;fill:#000000;fill-opacity:1;stroke:none;stroke-width:5;stroke-miterlimit:4;stroke-dasharray:none" />
        <path
           style="opacity:1;fill:#000000;fill-opacity:1;stroke:none;stroke-width:5;stroke-miterlimit:4;stroke-dasharray:none"
           d="m 313.35009,460.83402 240.21485,-137.06228 0,1.33118 -240.21485,137.06226 z"
           id="path4552"
           inkscape:connector-curvature="0"
           sodipodi:nodetypes="ccccc" />
        <path
           sodipodi:nodetypes="ccccc"
           inkscape:connector-curvature="0"
           id="path4554"
           d="m 313.35009,465.30029 240.21485,-137.06228 0,1.33118 -240.21485,137.06226 z"
           style="opacity:1;fill:#000000;fill-opacity:1;stroke:none;stroke-width:5;stroke-miterlimit:4;stroke-dasharray:none" />
        <path
           style="opacity:1;fill:#000000;fill-opacity:1;stroke:none;stroke-width:5;stroke-miterlimit:4;stroke-dasharray:none"
           d="m 313.35009,469.25179 240.21485,-137.06228 0,1.33118 -240.21485,137.06226 z"
           id="path4556"
           inkscape:connector-curvature="0"
           sodipodi:nodetypes="ccccc" />
        <path
           sodipodi:nodetypes="ccccc"
           inkscape:connector-curvature="0"
           id="path4558"
           d="m 313.35009,474.59905 240.21485,-137.06228 0,1.33118 -240.21485,137.06226 z"
           style="opacity:1;fill:#000000;fill-opacity:1;stroke:none;stroke-width:5;stroke-miterlimit:4;stroke-dasharray:none" />
        <path
           style="opacity:1;fill:#000000;fill-opacity:1;stroke:none;stroke-width:5;stroke-miterlimit:4;stroke-dasharray:none"
           d="m 313.35009,479.06532 240.21485,-137.06228 0,1.33118 -240.21485,137.06226 z"
           id="path4560"
           inkscape:connector-curvature="0"
           sodipodi:nodetypes="ccccc" />
        <path
           sodipodi:nodetypes="ccccc"
           inkscape:connector-curvature="0"
           id="path4562"
           d="m 313.35009,483.01682 240.21485,-137.06228 0,1.33118 -240.21485,137.06226 z"
           style="opacity:1;fill:#000000;fill-opacity:1;stroke:none;stroke-width:5;stroke-miterlimit:4;stroke-dasharray:none" />
        <path
           style="opacity:1;fill:#000000;fill-opacity:1;stroke:none;stroke-width:5;stroke-miterlimit:4;stroke-dasharray:none"
           d="m 313.35009,487.44112 240.21485,-137.06228 0,1.33118 -240.21485,137.06226 z"
           id="path4564"
           inkscape:connector-curvature="0"
           sodipodi:nodetypes="ccccc" />
        <path
           sodipodi:nodetypes="ccccc"
           inkscape:connector-curvature="0"
           id="path4566"
           d="m 313.35009,491.90739 240.21485,-137.06228 0,1.33118 -240.21485,137.06226 z"
           style="opacity:1;fill:#000000;fill-opacity:1;stroke:none;stroke-width:5;stroke-miterlimit:4;stroke-dasharray:none" />
        <path
           style="opacity:1;fill:#000000;fill-opacity:1;stroke:none;stroke-width:5;stroke-miterlimit:4;stroke-dasharray:none"
           d="m 313.35009,495.85889 240.21485,-137.06228 0,1.33118 -240.21485,137.06226 z"
           id="path4568"
           inkscape:connector-curvature="0"
           sodipodi:nodetypes="ccccc" />
        <path
           sodipodi:nodetypes="ccccc"
           inkscape:connector-curvature="0"
           id="path4570"
           d="m 313.35009,499.4022 240.21485,-137.06228 0,1.33118 -240.21485,137.06226 z"
           style="opacity:1;fill:#000000;fill-opacity:1;stroke:none;stroke-width:5;stroke-miterlimit:4;stroke-dasharray:none" />
        <path
           style="opacity:1;fill:#000000;fill-opacity:1;stroke:none;stroke-width:5;stroke-miterlimit:4;stroke-dasharray:none"
           d="m 313.35009,503.86847 240.21485,-137.06228 0,1.33118 -240.21485,137.06226 z"
           id="path4572"
           inkscape:connector-curvature="0"
           sodipodi:nodetypes="ccccc" />
        <path
           sodipodi:nodetypes="ccccc"
           inkscape:connector-curvature="0"
           id="path4574"
           d="m 313.35009,507.81997 240.21485,-137.06228 0,1.33118 -240.21485,137.06226 z"
           style="opacity:1;fill:#000000;fill-opacity:1;stroke:none;stroke-width:5;stroke-miterlimit:4;stroke-dasharray:none" />
        <path
           style="opacity:1;fill:#000000;fill-opacity:1;stroke:none;stroke-width:5;stroke-miterlimit:4;stroke-dasharray:none"
           d="m 313.35009,513.16723 240.21485,-137.06228 0,1.33118 -240.21485,137.06226 z"
           id="path4576"
           inkscape:connector-curvature="0"
           sodipodi:nodetypes="ccccc" />
        <path
           sodipodi:nodetypes="ccccc"
           inkscape:connector-curvature="0"
           id="path4578"
           d="m 313.35009,517.6335 240.21485,-137.06228 0,1.33118 -240.21485,137.06226 z"
           style="opacity:1;fill:#000000;fill-opacity:1;stroke:none;stroke-width:5;stroke-miterlimit:4;stroke-dasharray:none" />
        <path
           style="opacity:1;fill:#000000;fill-opacity:1;stroke:none;stroke-width:5;stroke-miterlimit:4;stroke-dasharray:none"
           d="m 313.35009,521.585 240.21485,-137.06228 0,1.33118 -240.21485,137.06226 z"
           id="path4580"
           inkscape:connector-curvature="0"
           sodipodi:nodetypes="ccccc" />
        <path
           sodipodi:nodetypes="ccccc"
           inkscape:connector-curvature="0"
           id="path4582"
           d="m 313.35009,527.74866 240.21485,-137.06228 0,1.33118 -240.21485,137.06226 z"
           style="opacity:1;fill:#000000;fill-opacity:1;stroke:none;stroke-width:5;stroke-miterlimit:4;stroke-dasharray:none" />
        <path
           style="opacity:1;fill:#000000;fill-opacity:1;stroke:none;stroke-width:5;stroke-miterlimit:4;stroke-dasharray:none"
           d="m 313.35009,532.21493 240.21485,-137.06228 0,1.33118 -240.21485,137.06226 z"
           id="path4584"
           inkscape:connector-curvature="0"
           sodipodi:nodetypes="ccccc" />
        <path
           sodipodi:nodetypes="ccccc"
           inkscape:connector-curvature="0"
           id="path4586"
           d="m 313.35009,536.16643 240.21485,-137.06228 0,1.33118 -240.21485,137.06226 z"
           style="opacity:1;fill:#000000;fill-opacity:1;stroke:none;stroke-width:5;stroke-miterlimit:4;stroke-dasharray:none" />
        <path
           style="opacity:1;fill:#808080;fill-opacity:1;stroke:none;stroke-width:5;stroke-miterlimit:4;stroke-dasharray:none"
           d="m 306.8594,145.27559 18.41156,10.62993 -12.27438,7.08661 -6.13718,-3.54331 -6.13719,3.54331 -12.27438,-7.08661 z"
           id="path4588"
           inkscape:connector-curvature="0"
           sodipodi:nodetypes="ccccccc" />
        <path
           inkscape:connector-curvature="0"
           style="opacity:1;fill:#808080;fill-opacity:1;stroke:none;stroke-width:5;stroke-miterlimit:4;stroke-dasharray:none"
           d="m 552.34766,287.00781 -9.20704,5.31446 6.13672,3.54296 -6.13672,3.54493 9.20704,5.31445 0,7.08594 -3.07032,1.77148 3.07032,1.77149 18.41015,-10.62891 0,-7.08594 -18.41015,-10.63086 z"
           id="path4590" />
        <path
           style="opacity:1;fill:#e9ddaf;fill-opacity:1;stroke:none;stroke-width:5;stroke-miterlimit:4;stroke-dasharray:none"
           d="M 107.40079,299.40945 306.8594,184.25198 368.23127,219.68504 168.77267,334.84252 Z"
           id="path4592"
           inkscape:connector-curvature="0"
           sodipodi:nodetypes="ccccc" />
      </g>
    </g>
  </g>
</svg>
