<?xml version="1.0" encoding="UTF-8" standalone="no"?>
<svg
   xmlns:dc="http://purl.org/dc/elements/1.1/"
   xmlns:cc="http://creativecommons.org/ns#"
   xmlns:rdf="http://www.w3.org/1999/02/22-rdf-syntax-ns#"
   xmlns:svg="http://www.w3.org/2000/svg"
   xmlns="http://www.w3.org/2000/svg"
   xmlns:xlink="http://www.w3.org/1999/xlink"
   xmlns:sodipodi="http://sodipodi.sourceforge.net/DTD/sodipodi-0.dtd"
   xmlns:inkscape="http://www.inkscape.org/namespaces/inkscape"
   id="svg2"
   sodipodi:docname="Write think.svg"
   viewBox="0 0 260 360"
   version="1.1"
   inkscape:version="0.48.4 r9939"
   width="100%"
   height="100%"
   inkscape:export-filename="C:\Users\James\Desktop\Will\Write think.png"
   inkscape:export-xdpi="212.25"
   inkscape:export-ydpi="212.25">
  <defs
     id="defs18">
    <symbol
       width="578"
       height="419"
       id="svg_130">
      <metadata
         id="svg_109">image/svg+xml</metadata>
      <g
         id="svg_88">
        <title
           id="title3064">Layer 1</title>
        <g
           transform="matrix(-1, 0, 0, 1, 577.645, 0)"
           id="svg_89">
          <g
             id="svg_90">
            <path
               transform="matrix(1, 0, 0, 1, -113.589, -305.562)"
               fill="#74984d"
               fill-rule="evenodd"
               stroke="#000000"
               stroke-width="5.34871px"
               stroke-linejoin="bevel"
               id="svg_108"
               d="m155.425995,511.824951l186.08255,211.860535l345.852234,-76.335754l3.874817,-11.422852l-234.416626,-132.035858l-301.392975,7.933929z" />
            <path
               transform="matrix(1, 0, 0, 1, -113.589, -305.562)"
               fill="url(#svg_107)"
               fill-rule="evenodd"
               stroke="#000000"
               stroke-width="2"
               stroke-miterlimit="4"
               d="m334.317963,620.600342l348.338715,-49.769409l0.252441,10.254822l-162.293335,32.339233l162.448059,-32.123413l-0.700195,2.701294l0.834351,7.598206l-12.121338,2.000427l12.244568,-1.495117l-1.029358,2.363647l0.994568,2.8703l-1.369324,2.701355l1.599976,2.868164l-0.964966,5.882813l-237.567749,44.957703l237.884399,-44.760437l-0.698547,3.207886l1.328674,3.037842l-1.364502,2.193787l2.453979,5.705994l-1.290222,4.230469l-53.717163,12.652649l53.492249,-11.948975l-1.029358,2.534851l0.32843,1.349609l-0.356201,2.697815l0.989929,3.37793l-1.024658,1.689575l-344.28656,74.758362l-3.376862,-93.87738z"
               id="svg_106" />
            <path
               transform="matrix(1, 0, 0, 1, -113.589, -305.562)"
               fill="#74984d"
               fill-rule="evenodd"
               stroke="#000000"
               stroke-width="5.34871px"
               stroke-linejoin="bevel"
               d="m152.537445,453.909027l3.376892,59.433197l184.816833,211.600891l-2.026154,-96.578857l-186.167572,-174.455231z"
               id="svg_105" />
            <path
               transform="matrix(1, 0, 0, 1, -113.589, -305.562)"
               fill="url(#svg_104)"
               fill-rule="evenodd"
               stroke="#000000"
               stroke-width="5.34871px"
               stroke-linejoin="bevel"
               d="m153.588943,454.682495l184.159988,174.968689l349.752594,-59.663269l1.54895,-10.936768l-269.39798,-105.808105l-266.063553,1.439453z"
               id="svg_103" />
            <path
               transform="matrix(1, 0, 0, 1, -153.589, -402.705)"
               fill="#984d74"
               fill-rule="evenodd"
               stroke="#000000"
               stroke-width="5.34871px"
               stroke-linejoin="bevel"
               d="m159.971695,525.967102l181.53685,197.718384l345.852234,-76.335754l3.874817,-11.422852l-229.870911,-117.893738l-301.39299,7.93396z"
               id="svg_102" />
            <path
               transform="matrix(1, 0, 0, 1, -153.589, -402.705)"
               fill="url(#svg_101)"
               fill-rule="evenodd"
               stroke="#000000"
               stroke-width="2"
               stroke-miterlimit="4"
               id="svg_100"
               d="m334.317963,620.600342l348.338715,-49.769409l0.252441,10.254822l-105.150452,15.19635l105.305176,-14.98053l-0.700195,2.701294l0.834351,6.883911l-165.514221,26.64325l165.637451,-25.423645l-1.029358,2.363647l0.994568,2.8703l-1.369324,2.701355l1.599976,2.868164l-0.250671,4.454224l-75.424927,12.100586l75.027283,-10.474731l-0.698547,3.207886l1.328674,3.037842l-1.364502,2.193787l2.453979,5.705994l-1.290222,4.230469l-105.145752,21.22406l104.920837,-20.520386l-1.029358,2.534851l0.32843,1.349609l-0.356201,2.697815l0.989929,3.37793l-1.024658,1.689575l-344.28656,74.758362l-3.376862,-93.87738z" />
            <path
               transform="matrix(1, 0, 0, 1, -153.589, -402.705)"
               fill="#984d74"
               fill-rule="evenodd"
               stroke="#000000"
               stroke-width="5.34871px"
               stroke-linejoin="bevel"
               id="svg_99"
               d="m154.557755,468.051178l3.376892,59.433197l182.796524,197.45874l-2.026154,-96.578857l-184.147263,-160.31308z" />
            <path
               transform="matrix(1, 0, 0, 1, -153.589, -402.705)"
               fill="url(#svg_98)"
               fill-rule="evenodd"
               stroke="#000000"
               stroke-width="5.34871px"
               stroke-linejoin="bevel"
               id="svg_97"
               d="m153.588943,468.824646l184.159988,160.826538l349.752594,-59.663269l1.54895,-10.936768l-260.30661,-96.716736l-275.154922,6.490234z" />
            <path
               transform="matrix(1, 0, 0, 1, -161.7, -427.194)"
               fill="#4d7498"
               fill-rule="evenodd"
               stroke="#000000"
               stroke-width="5.34871px"
               stroke-linejoin="bevel"
               d="m186.235657,469.39856l180.526703,165.393494l354.005219,-57.172607l3.874817,-12.432922l-237.013763,-103.721893l-301.392975,7.933929z"
               id="svg_96" />
            <path
               transform="matrix(1, 0, 0, 1, -161.7, -427.194)"
               fill="url(#svg_95)"
               fill-rule="evenodd"
               stroke="#000000"
               stroke-width="2"
               stroke-miterlimit="4"
               id="svg_94"
               d="m361.592072,532.717102l352.62442,-32.626556l0.252502,10.254791l-272.293365,36.624939l272.44809,-36.409088l-0.700195,2.701263l0.83429,6.883911l-118.371338,18.071838l118.494568,-16.852173l-1.029358,2.363647l0.994568,2.870239l-1.369324,2.701416l1.599976,2.868103l-0.25061,4.454285l-75.424927,12.100525l75.027222,-10.474731l-0.698486,3.207947l1.328674,3.037842l-1.364563,2.193726l2.453979,5.705994l-1.290222,4.230469l-188.002869,35.509827l187.777954,-34.806152l-1.029358,2.534912l0.32843,1.349548l-0.356201,2.697876l0.989929,3.37793l-1.024597,1.689514l-348.572327,57.615479l-3.376862,-93.877319z" />
            <path
               transform="matrix(1, 0, 0, 1, -161.7, -427.194)"
               fill="url(#svg_93)"
               fill-rule="evenodd"
               stroke="#000000"
               stroke-width="5.34871px"
               stroke-linejoin="bevel"
               id="svg_92"
               d="m182.710052,433.684662l181.302856,106.062958l356.895416,-39.6633l1.54895,-10.936737l-264.592285,-61.953156l-275.154938,6.490234z" />
            <path
               transform="matrix(1, 0, 0, 1, -161.7, -427.194)"
               fill="#4d7498"
               fill-rule="evenodd"
               stroke="#000000"
               stroke-width="5.34871px"
               stroke-linejoin="bevel"
               id="svg_91"
               d="m180.821716,432.911224l3.376907,59.433167l182.796494,143.705292l-2.026123,-96.578857l-184.147278,-106.559601z" />
          </g>
        </g>
      </g>
    </symbol>
    <linearGradient
       y2="-0.32994"
       x2="0.63197"
       y1="0.77905"
       x1="0.69803"
       id="svg_98"
       xlink:href="#svg_110" />
    <linearGradient
       y2="0.75672"
       x2="0.46244"
       y1="0.27438"
       x1="0.43389"
       id="svg_101"
       xlink:href="#svg_111" />
    <linearGradient
       y2="-0.68086"
       x2="0.62165"
       y1="0.79478"
       x1="0.65666"
       id="svg_93"
       xlink:href="#svg_112" />
    <linearGradient
       y2="0.72376"
       x2="0.45685"
       y1="0.17606"
       x1="0.42864"
       id="svg_95"
       xlink:href="#svg_111" />
    <linearGradient
       y2="0.75672"
       x2="0.46244"
       y1="0.26444"
       x1="0.42981"
       id="svg_107"
       xlink:href="#svg_113" />
    <linearGradient
       id="svg_114">
      <stop
         stop-color="#436123"
         id="svg_117"
         offset="0" />
      <stop
         stop-color="#74984d"
         offset="0.04243"
         id="svg_116" />
      <stop
         stop-color="#74984d"
         id="svg_115"
         offset="1" />
    </linearGradient>
    <linearGradient
       xlink:href="#svg_114"
       id="svg_104"
       x1="0.69803"
       y1="0.79044"
       x2="0.63197"
       y2="-0.26138" />
    <linearGradient
       id="svg_111">
      <stop
         stop-color="#717171"
         offset="0"
         id="svg_120" />
      <stop
         stop-color="#e0e0df"
         id="svg_119"
         offset="0.10115" />
      <stop
         stop-color="#bdbea6"
         offset="1"
         id="svg_118" />
    </linearGradient>
    <linearGradient
       id="svg_113">
      <stop
         stop-color="#717171"
         id="svg_123"
         offset="0" />
      <stop
         stop-color="#e0e0df"
         offset="0.3834"
         id="svg_122" />
      <stop
         stop-color="#bdbea6"
         id="svg_121"
         offset="1" />
    </linearGradient>
    <linearGradient
       id="svg_112">
      <stop
         stop-color="#234361"
         id="svg_126"
         offset="0" />
      <stop
         stop-color="#4d7498"
         offset="0.04243"
         id="svg_125" />
      <stop
         stop-color="#b9cbdc"
         id="svg_124"
         offset="1" />
    </linearGradient>
    <linearGradient
       id="svg_110">
      <stop
         stop-color="#612343"
         offset="0"
         id="svg_129" />
      <stop
         stop-color="#984d74"
         id="svg_128"
         offset="0.04243" />
      <stop
         stop-color="#ba779a"
         offset="1"
         id="svg_127" />
    </linearGradient>
    <symbol
       height="167.00000pt"
       id="svg_8"
       width="300.00000pt">
      <g
         id="svg_2"
         transform="translate(-256.9943,-227.9440)">
        <path
           d="m264.661163,311.011139c24.939209,41.904694 47.333618,76.683868 72.272827,118.588562c51.235687,-24.599915 72.951477,-32.913025 117.570648,-48.351563c19.510284,5.598602 40.038483,-4.580688 48.351563,-12.215149c36.815002,-5.08963 79.73761,-11.197205 121.133362,-15.268921c-1.017944,-6.616516 1.017944,-9.161316 0,-15.777863c-42.922607,-31.386108 -86.354187,-64.299072 -129.276794,-95.685181c-78.380432,22.224731 -151.671204,46.485352 -230.051605,68.710114z"
           id="svg_7"
           stroke-miterlimit="4"
           stroke-width="5"
           stroke="#fefefe"
           fill-rule="evenodd"
           fill="#001873" />
        <path
           d="m274.331451,312.538025c22.394409,35.627441 44.788818,71.254913 67.183228,106.882385c39.699158,-20.867523 86.821991,-51.95047 123.688782,-43.6474c-1.789459,-12.271881 3.97879,-19.145386 11.186615,-27.098572c-59.888062,-10.348907 -89.747284,24.090973 -132.330566,40.717102c-0.848267,8.652374 -1.696564,17.304779 -2.54483,25.957153c1.187592,-8.313049 1.357239,-16.626129 2.5448,-24.939209c-19.340607,-30.02887 -42.243958,-67.6922 -61.584595,-97.721069c-6.277222,3.053802 -6.955841,12.724121 -8.143433,19.849609z"
           id="svg_6"
           stroke-miterlimit="4"
           stroke-width="3.75"
           stroke="#001873"
           fill-rule="evenodd"
           fill="#ffffff" />
        <path
           d="m470.791473,360.380615c16.456482,-31.386108 29.802612,-33.603455 62.093597,-38.172272c25.298401,-3.579468 43.035461,-2.735077 68.822998,-3.922668c-2.205505,7.464813 1.583618,17.325378 4.976746,27.334991c-24.26062,1.017914 -43.43158,-0.508972 -70.237,3.053772c-17.813782,-1.526886 -33.591644,9.670319 -45.297791,21.376495c1.017914,-21.71579 -11.197205,-8.31308 -20.358551,-9.670319z"
           id="svg_5"
           stroke-miterlimit="4"
           stroke-width="3.75"
           stroke="#001873"
           fill-rule="evenodd"
           fill="#ffffff" />
        <path
           d="m396.482758,273.856781c25.448181,24.599915 50.896393,49.199829 76.344574,73.799744c-61.669434,-7.63446 -94.582428,29.774353 -129.276794,41.989502c-20.019257,-31.725403 -41.310883,-65.486664 -61.330139,-97.212067c25.108887,-12.045471 41.68576,-31.890961 78.125946,-34.864014c14.124451,-1.152374 25.108887,8.313049 36.136414,16.286835z"
           id="svg_4"
           stroke-miterlimit="4"
           stroke-width="2.5"
           stroke="#001873"
           fill-rule="evenodd"
           fill="#ffffff" />
        <path
           d="m476.496643,348.916748c18.954285,-32.030365 58.0625,-27.351776 124.882446,-32.390259c-35.269409,-23.992767 -70.538818,-47.985565 -105.808197,-71.978348c-46.186096,8.997299 -77.256744,-10.076965 -102.209229,25.552322l83.134979,78.816284z"
           id="svg_3"
           stroke-miterlimit="4"
           stroke-width="2.5"
           stroke="#001873"
           fill-rule="evenodd"
           fill="#ffffff" />
      </g>
    </symbol>
    <radialGradient
       xlink:href="#linearGradient2994"
       id="radialGradient3002"
       cx="328.35309"
       cy="329.89661"
       fx="328.35309"
       fy="329.89661"
       r="88.095993"
       gradientTransform="matrix(0.91398174,0,0,0.53604549,32.647644,-14.69886)"
       gradientUnits="userSpaceOnUse" />
    <linearGradient
       id="linearGradient2994">
      <stop
         offset="0"
         id="stop2996"
         stop-color="#fca" />
      <stop
         offset="1"
         id="stop2998"
         stop-opacity="0"
         stop-color="#fca" />
    </linearGradient>
  </defs>
  <sodipodi:namedview
     id="namedview32"
     bordercolor="#666666"
     inkscape:pageshadow="2"
     guidetolerance="10"
     pagecolor="#ffffff"
     gridtolerance="10"
     inkscape:window-maximized="1"
     inkscape:zoom="1.2685914"
     objecttolerance="10"
     borderopacity="1"
     inkscape:current-layer="svg2"
     inkscape:cx="305.88107"
     inkscape:cy="221.79178"
     inkscape:window-y="-9"
     inkscape:window-x="1911"
     inkscape:window-width="1280"
     showgrid="false"
     inkscape:pageopacity="0"
     inkscape:window-height="725" />
  <path
     id="path6"
     style="fill:#010101"
     inkscape:connector-curvature="0"
     d="m 188.77199,177.03467 c -11.49219,1.50852 -23.12387,0.41093 -33.24456,7.23297 -10.34883,6.97549 -17.76759,17.60267 -23.66622,28.34261 -15.03892,27.38374 -20.48906,63.19921 -4.92508,91.25958 3.11332,5.61312 5.59539,11.75488 10.34884,16.23573 7.71339,7.27079 17.51728,6.51462 26.71624,10.14806 3.91112,1.54425 6.73364,5.16985 10.42967,7.17431 5.03361,2.73061 12.03127,2.83817 17.60005,2.10549 9.45189,-1.24374 13.31674,-9.16246 20.85933,-13.54357 6.37839,-3.70383 13.72023,-4.09496 19.55563,-9.20354 7.3679,-6.45075 16.00693,-16.7181 19.51259,-25.95356 8.24857,-21.7263 1.49602,-48.31152 -7.57975,-68.44468 -10.14937,-22.52287 -27.19536,-49.08266 -55.60316,-45.3534 z" />
  <path
     id="path8"
     style="fill:#3b2519"
     inkscape:connector-curvature="0"
     d="m 162.04597,326.0326 c -13.85451,-19.68599 -21.20417,-39.84784 -15.64451,-63.8817 -1.57096,-0.29332 -8.99883,-0.528 -9.36648,-2.15112 -0.45695,-2.01421 10.90031,-6.67498 12.56514,-8.33721 2.61394,-2.61393 6.33276,-12.52408 9.83452,-13.21895 3.00766,-0.59644 -1.18442,6.12678 -1.57683,6.75909 -3.31403,5.32563 -6.96701,10.27973 -12.76004,13.03707 v 0.65185 c 9.11291,0.0254 20.53275,3.31143 27.84133,-4.03171 5.22201,-5.24743 8.31376,-12.43216 11.92177,-18.78318 0.69682,-1.22646 2.43531,-5.9084 4.35634,-5.45523 2.02726,0.47827 -0.72618,6.29977 -1.09709,7.41093 -2.62175,7.85679 -5.95402,15.19667 -9.12594,22.81489 13.87406,-3.79444 20.56989,-12.39761 25.22154,-25.42231 0.64924,-1.81841 3.56041,-13.19158 5.88624,-12.62577 1.31153,0.31915 0.56646,6.69716 0.83633,8.0628 1.50512,7.62667 3.2371,16.05646 7.16714,22.81489 h 0.65185 c -1.01559,-7.54392 -2.60807,-14.47443 -2.60742,-22.16305 0,-1.48661 -0.68641,-6.29567 1.41452,-6.75907 1.92688,-0.42507 2.36753,4.30419 2.72345,5.45524 1.9523,6.31183 4.10016,12.54689 5.91428,18.90376 5.12943,17.97423 3.6608,35.12842 -2.23,52.80018 -2.2528,6.75908 -4.22727,14.04941 -9.77781,18.90377 3.87527,1.14596 9.77716,-2.19218 13.03708,-4.21619 10.11677,-6.27734 21.67414,-21.67414 23.27771,-33.59003 3.43527,-25.50054 -2.58787,-46.45113 -13.9888,-69.09654 -8.39587,-16.66336 -20.61161,-31.33788 -39.92606,-33.70999 -10.72952,-1.31766 -27.63209,-0.0277 -37.15567,5.37128 -22.21389,12.59447 -33.09854,41.75452 -36.78022,65.49179 -1.07067,6.90313 -2.76901,13.88058 -1.86248,20.85932 3.17211,24.42237 13.08663,51.80351 41.25064,54.10389 z" />
  <path
     id="path10"
     style="fill:#ffe7cd"
     inkscape:connector-curvature="0"
     d="m 208.32761,236.7286 c -0.337,7.72512 -2.95942,15.72729 -5.86668,22.81489 6.00813,-1.23918 12.58599,-2.11005 16.94821,3.25928 l -28.02974,1.95555 v -0.65184 c 7.804,-3.20192 10.61545,-8.65208 11.73338,-16.94821 h -0.65185 c -3.82704,8.04257 -11.65256,12.34806 -19.55563,15.63666 -2.67847,1.11467 -8.89455,4.90848 -9.12596,0.008 -3.86288,2.31473 -4.92215,1.25547 -2.6074,-2.60742 -7.0257,2.7065 -14.07354,3.33619 -21.5112,1.95556 -6.70497,20.96819 0.70082,46.75816 15.6093,62.57539 10.90682,11.57171 27.72726,18.22063 39.79829,3.26187 -2.06897,0.069 -4.03301,-0.70269 -1.82061,-2.75082 3.83681,-3.55196 8.64227,-5.18158 11.83505,-9.6344 8.73158,-12.17794 13.1153,-36.1466 11.31032,-50.84461 -1.10164,-8.97604 -4.51083,-17.28718 -6.32949,-26.07417 h -0.65186 c 0.44196,5.59682 1.72154,10.97397 3.47633,16.29635 0.41654,1.26329 1.87539,4.17773 0.57298,5.32435 -1.76586,1.55531 -4.96646,-2.31539 -5.97685,-3.37139 -5.58638,-5.84062 -4.45215,-14.47116 -9.15202,-20.20748 z" />
  <path
     id="path12"
     style="fill:#010101"
     inkscape:connector-curvature="0"
     d="m 195.94239,271.27687 h 0.65184 c 0.12777,15.18949 19.06869,12.98818 16.29636,-1.95556 5.398,5.5727 8.40305,2.26649 2.59765,-2.3506 -5.63659,-4.48214 -22.94463,-4.52582 -23.5665,5.51013 -0.21837,3.52001 3.45745,-0.20208 4.02065,-1.20397 m -39.76311,-0.65186 c -3.1216,13.1479 15.32185,15.68622 15.6445,1.95555 0.63556,0.7692 4.96778,4.83025 4.63989,1.20398 -0.90801,-10.05093 -16.85627,-9.69567 -22.86573,-5.7702 -0.96227,0.62839 -5.73879,6.48007 -1.94043,5.92144 1.62441,-0.24119 3.25274,-2.35972 4.5219,-3.31142 z" />
  <path
     id="path14"
     style="fill:#3b2519"
     inkscape:connector-curvature="0"
     d="m 207.67576,278.44726 c -1.48623,-1.06709 -4.23641,-1.59248 -5.00167,-3.40724 -0.97583,-2.31409 2.01357,-4.78069 4.05778,-3.24102 1.67592,1.26199 1.38063,4.13927 1.59574,5.9964 3.59758,-4.17121 -0.11146,-12.50778 -5.79564,-8.63967 -5.80149,3.94828 -0.65251,10.86835 5.14379,9.29153 m -41.06681,0 v -0.65186 c -9.45906,-2.77755 -0.73478,-10.85011 0.65185,-0.65185 2.59373,-3.80292 -0.77988,-10.547 -5.72739,-7.61236 -6.25193,3.70905 -0.51039,10.19501 5.07534,8.91737 z" />
  <path
     id="path16"
     style="fill:#ffffff"
     inkscape:connector-curvature="0"
     d="m 212.23874,268.66944 0.65185,0.65187 -0.65185,-0.65187 z" />
  <path
     id="path18"
     style="fill:#010101"
     inkscape:connector-curvature="0"
     d="m 162.79235,271.32249 c -3.64883,1.9321 -0.52501,7.26949 2.88204,5.04144 2.93178,-1.91775 0.3473,-6.7519 -2.88204,-5.04144 z" />
  <path
     id="path20"
     style="fill:#ffe7cd"
     inkscape:connector-curvature="0"
     d="m 196.59423,270.62501 0.65186,0.65186 -0.65186,-0.65186 z" />
  <path
     id="path22"
     style="fill:#010101"
     inkscape:connector-curvature="0"
     d="m 203.8559,271.32249 c -3.64844,1.9321 -0.52476,7.26949 2.88184,5.04144 2.93204,-1.91775 0.34744,-6.7519 -2.88184,-5.04144 z" />
  <path
     id="path24"
     style="fill:#ffffff"
     inkscape:connector-curvature="0"
     d="m 166.60895,275.83984 -1.30371,1.95556 c 1.46719,-0.30833 2.03249,-0.56059 1.30371,-1.95556 m 41.06681,0 -1.30371,1.95556 c 1.46732,-0.30833 2.03249,-0.56059 1.30371,-1.95556 z" />
  <path
     id="path26"
     style="fill:#010101"
     inkscape:connector-curvature="0"
     d="m 193.33497,292.13619 c -0.67141,8.88087 -16.28006,9.30913 -16.9482,0.65186 h -1.95557 c 0.27835,11.50392 20.72048,11.09716 20.85934,-0.65186 h -1.95557 m -25.64263,14.40793 c -2.95545,2.06769 7.54847,4.99647 8.69443,5.31392 6.28712,1.74175 21.31889,1.94708 26.29448,-3.31076 1.96925,-2.08138 -1.55206,-2.36819 -2.83101,-2.13091 -7.26817,1.35063 -13.32781,4.25986 -20.85606,2.51484 -2.4262,-0.56255 -9.11096,-3.9209 -11.30184,-2.38709 z" />
  <path
     id="path28"
     style="fill:#f37177"
     inkscape:connector-curvature="0"
     d="m 169.86822,305.82514 v 0.65184 c 12.08667,3.86484 19.2662,1.6205 31.289,0 l -12.38523,-0.0261 -18.90377,-0.62578 m -0.65185,3.91113 c 5.55901,12.13621 27.31855,15.26771 31.289,0 l -17.60007,3.20059 -13.68893,-3.20059 z" />
  <metadata
     id="metadata30">
    <rdf:RDF>
      <cc:Work>
        <dc:format>image/svg+xml</dc:format>
        <dc:type
           rdf:resource="http://purl.org/dc/dcmitype/StillImage" />
        <cc:license
           rdf:resource="http://creativecommons.org/licenses/publicdomain/" />
        <dc:publisher>
          <cc:Agent
             rdf:about="http://openclipart.org/">
            <dc:title>Openclipart</dc:title>
          </cc:Agent>
        </dc:publisher>
        <dc:title></dc:title>
      </cc:Work>
      <cc:License
         rdf:about="http://creativecommons.org/licenses/publicdomain/">
        <cc:permits
           rdf:resource="http://creativecommons.org/ns#Reproduction" />
        <cc:permits
           rdf:resource="http://creativecommons.org/ns#Distribution" />
        <cc:permits
           rdf:resource="http://creativecommons.org/ns#DerivativeWorks" />
      </cc:License>
    </rdf:RDF>
  </metadata>
  <g
     transform="matrix(0.65185408,0,0,0.65185408,-174.73023,-173.96597)"
     inkscape:label="Layer 1"
     id="layer1">
    <path
       d="m 404.83,299.84 c -14.6,0 -27.26,7.87 -34.35,19.49 -6.57,-4.64 -14.54,-7.45 -23.19,-7.45 -22.28,0 -40.37,18.09 -40.37,40.37 0,1.63 0.3,3.2 0.49,4.78 -19.23,3.07 -34,19.59 -34,39.68 0,19.91 14.48,36.39 33.46,39.68 -0.38,2.23 -0.69,4.51 -0.69,6.86 0,22.27 18.09,40.31 40.37,40.31 10.91,0 20.76,-4.35 28.03,-11.4 7.4,8.81 18.34,14.56 30.74,14.56 17.69,0 32.56,-11.49 38,-27.34 4.36,1.61 9,2.67 13.92,2.67 22.27,0 40.31,-18.1 40.31,-40.37 0,-11.2 -4.56,-21.31 -11.94,-28.62 3.73,-6.11 6.02,-13.2 6.02,-20.88 0,-22.27 -18.09,-40.31 -40.36,-40.31 -2.35,0 -4.63,0.25 -6.86,0.64 -3.6,-18.6 -19.94,-32.67 -39.58,-32.67 z"
       style="fill:#ffffff;stroke:#000000;stroke-width:10.85700035;stroke-linejoin:round"
       id="path3422"
       inkscape:connector-curvature="0" />
    <path
       sodipodi:cx="174.30678"
       sodipodi:cy="484.92569"
       transform="matrix(1.5792,0,0,1.5792,170.62,-261.43)"
       d="m 183.84595,484.92569 c 0,5.26834 -4.27083,9.53918 -9.53917,9.53918 -5.26834,0 -9.53918,-4.27084 -9.53918,-9.53918 0,-5.26834 4.27084,-9.53918 9.53918,-9.53918 5.26834,0 9.53917,4.27084 9.53917,9.53918 z"
       sodipodi:type="arc"
       style="fill:#ffffff;stroke:#000000;stroke-width:4.79869986;stroke-linejoin:round"
       sodipodi:ry="9.5391769"
       sodipodi:rx="9.5391769"
       id="path3424" />
    <path
       sodipodi:cx="174.30678"
       sodipodi:cy="484.92569"
       transform="matrix(1.0961,0,0,1.0961,274.91,5.6957)"
       d="m 183.84595,484.92569 c 0,5.26834 -4.27083,9.53918 -9.53917,9.53918 -5.26834,0 -9.53918,-4.27084 -9.53918,-9.53918 0,-5.26834 4.27084,-9.53918 9.53918,-9.53918 5.26834,0 9.53917,4.27084 9.53917,9.53918 z"
       sodipodi:type="arc"
       style="fill:#ffffff;stroke:#000000;stroke-width:5.40280008;stroke-linejoin:round"
       sodipodi:ry="9.5391769"
       sodipodi:rx="9.5391769"
       id="path3426" />
  </g>
  <g
     id="g3080"
     transform="matrix(0.20134073,0,0,0.20134073,31.540021,47.546766)">
    <title
       id="title3082">Layer 1</title>
    <use
       id="svg_131"
       xlink:href="#svg_130"
       transform="matrix(0.433701,0,0,0.433701,0.421069,0.421069)"
       y="59.949123"
       x="41.503242"
       width="1"
       height="1" />
    <use
       id="svg_9"
       xlink:href="#svg_8"
       transform="matrix(1.21995,0,0,1.21995,-4.19085,-9.98185)"
       y="130.33369"
       x="53.281071"
       width="1"
       height="1" />
    <g
       id="g2865">
      <path
         id="path1943"
         d="m 418.93195,207.84103 c 1.97671,-12.54242 -2.20954,-25.49736 2.92962,-37.57186 3.04389,-15.84554 -11.77444,-17.3864 -21.38827,-21.75701 -15.43103,-10.67003 -26.87879,-26.4951 -41.57468,-38.12489 -10.85822,-3.92465 -13.55621,-13.656466 -0.60001,-20.934877 7.85862,-8.073044 16.616,-13.415398 24.01508,-21.842987 9.57526,-7.388123 19.95273,-14.935791 27.50275,-24.957481 6.78521,-9.512978 20.02035,-12.497765 23.93054,-24.435585 -1.1911,-13.279251 -16.64185,1.833473 -21.03458,6.913719 -7.88897,9.168274 -17.39718,16.136391 -26.95318,23.10434 -8.8256,12.028709 -22.39069,18.209831 -32.67737,28.603233 -8.34485,6.30069 -14.89099,17.631699 -26.22211,16.869919 -11.99948,2.175568 -23.25696,8.057039 -35.33276,10.857089 -12.04517,4.14984 -21.32361,13.41589 -30.30255,19.94946 -11.22614,5.01178 -15.00324,17.30792 -19.88428,27.7538 -1.19983,11.87442 -22.51816,21.71245 -4.75598,28.07027 4.05267,-2.3232 -4.34451,3.20684 -3.38736,6.72227 -5.27124,10.22183 -21.87747,18.69289 -24.60513,27.3242 6.20385,-1.25903 17.07534,-8.93341 24.63949,-15.46389 3.77286,-3.9025 0.42157,-8.90531 7.58563,-9.64817 9.29758,-3.03338 -13.2825,22.00116 8.47464,16.0804 5.8432,-2.27458 12.0044,-20.66641 15.89283,-21.72453 4.43792,11.19179 5.48504,25.63248 16.02862,32.55148 6.50458,0.0365 10.53668,-4.34238 17.59406,0.28534 10.68563,-7.79181 -9.39313,-25.72673 3.97128,-29.35886 13.92587,-2.11924 6.58957,9.65224 30.86807,17.08957 10.17902,4.11679 20.02289,11.60779 31.45978,10.59378 12.81033,-4.2854 26.6463,-2.69873 39.92862,-3.1846 4.7587,-0.65912 9.23431,-2.64413 13.89725,-3.76413 z"
         inkscape:connector-curvature="0"
         style="fill:#ffcfaf;fill-rule:evenodd;stroke:#000000;stroke-width:1.77692103px" />
      <path
         id="path1947"
         d="m 290.17053,214.05484 c 1.51514,-1.17819 1.43866,-3.50409 1.43866,-6.21381 0,-2.31353 0.29175,-3.95698 -1.07901,-5.43708 -1.02179,-1.10332 -1.55368,-2.88411 -2.51767,-4.27201 -1.13702,-1.63693 -1.03839,-3.31987 -1.43869,-5.0487 -0.43918,-1.89684 -0.73868,-3.41181 -0.35965,-5.04872 0.32929,-1.42226 1.892,-2.81968 2.51767,-3.49527 0.18955,-0.2047 0.23978,-0.51783 0.35965,-0.77671"
         inkscape:connector-curvature="0"
         style="fill:none;stroke:#000000;stroke-width:1.77692103px" />
      <path
         id="path1949"
         d="m 412.81757,208.61777 c -10.31354,-0.48941 -21.05436,-1.86565 -31.47101,-0.77674 -10.24103,2.49399 -21.88349,0.46018 -30.31354,-6.13841 -8.01706,-3.04892 -15.4292,-7.27937 -21.43814,-12.32461 -10.45514,-5.18831 -23.44937,-3.35714 -35.77725,-5.74137 -15.35596,0.81125 -17.58612,-1.19522 -26.28488,-2.00433 -9.72821,0.82178 -13.89743,-10.94855 -14.8375,-22.33369 8.42999,-5.99006 18.37158,-7.59267 28.27381,-6.55509 9.67584,-1.2075 19.74346,0.63042 29.34289,-0.05 9.61829,1.96338 22.11975,-0.6661 20.14148,-14.36944 1.9964,-8.353 -0.22845,-13.96353 -0.71936,-22.91343"
         inkscape:connector-curvature="0"
         style="fill:url(#radialGradient3002);fill-rule:evenodd;stroke:#000000;stroke-width:1.77692103px" />
      <path
         id="path1952"
         d="m 237.65887,179.87888 c 0.35529,-1.8817 1.94751,-3.05991 3.41666,-3.90696 1.47534,-0.83674 2.69647,-2.08204 4.0271,-3.13977 1.15836,-0.76675 2.25803,-1.65541 3.17807,-2.73687 0.89307,-0.69898 1.85706,-1.46662 2.20331,-2.65454 0.24219,-0.53666 0.48483,-1.08214 0.84228,-1.54291"
         inkscape:connector-curvature="0"
         style="fill:#6798e8;fill-rule:evenodd;stroke:#000000;stroke-width:1.77692103px" />
      <path
         id="path1954"
         d="m 267.1517,153.08183 c 2.8657,-2.1979 5.66727,-3.86303 8.26709,-6.53752 1.38663,-1.72267 2.97989,-2.60913 4.73142,-4.00497 0.59399,-0.96077 2.07312,-2.01532 2.94324,-0.84702 0.65737,1.02001 0.41131,2.54323 1.41052,3.34542 1.17456,1.03631 2.90625,1.37307 3.64203,2.94178 0.64196,1.15505 0.50824,3.08361 -0.85285,3.54886"
         inkscape:connector-curvature="0"
         style="fill:#0000ff;fill-opacity:0.75;fill-rule:evenodd;stroke:#000000;stroke-width:1.77692103px" />
      <path
         id="path1956"
         d="m 258.51965,178.32544 c -1.0545,2.40593 -3.4928,3.40213 -5.53503,4.57069 -2.03381,1.28557 -3.44946,3.42748 -5.45355,4.75711 -1.21988,1.21068 -2.83771,1.93714 -4.50327,1.90239 -1.65661,0.10352 -3.41678,-0.25851 -4.97989,0.49276 -0.97079,0.70324 -1.28875,1.9884 -1.82773,3.03485"
         inkscape:connector-curvature="0"
         style="fill:#c12d2d;fill-rule:evenodd;stroke:#000000;stroke-width:1.77692103px" />
      <path
         id="path2000"
         d="M 287.65283,151.91675 386.56177,64.535049"
         inkscape:connector-curvature="0"
         style="fill:#00ff00;fill-opacity:0.75;fill-rule:evenodd;stroke:#000000;stroke-width:1.77692103px" />
      <path
         id="path2002"
         d="M 281.17877,141.81931 361.7446,68.807037"
         inkscape:connector-curvature="0"
         style="fill:#ffb380;fill-opacity:0.75;fill-rule:evenodd;stroke:#000000;stroke-width:1.77692103px" />
      <path
         id="path2006"
         d="m 253.48431,161.23746 c 2.06171,-0.99903 4.37293,-0.77802 6.57038,-0.74594 1.91369,0.33961 3.51681,1.61784 5.33301,2.26767 2.40795,1.97146 2.91082,5.96896 1.35031,8.69697 -1.13077,2.72389 -2.97922,5.17732 -5.44284,6.59593 -1.76856,0.70681 -3.89945,-0.4264 -4.5868,-2.29092 -0.25476,-0.42734 -0.48504,-0.87103 -0.70642,-1.31935"
         inkscape:connector-curvature="0"
         style="fill:#d45500;fill-opacity:0.75;fill-rule:evenodd;stroke:#000000;stroke-width:1.77692103px" />
      <path
         id="path2067"
         d="m 237.65887,160.46072 c 0.49436,-0.49151 1.08954,0.6023 1.60138,0.77745 1.12595,0.83909 2.30469,1.91126 2.5185,3.46099 0.35986,1.55903 0.61279,3.17096 0.49502,4.78223 -0.47897,1.19258 -1.58902,1.84883 -2.39935,2.74662 -1.14459,1.10283 -2.52792,1.91475 -4.03574,2.25051 -1.2666,0.34631 -2.69647,0.60713 -3.9226,-0.0146 -0.68854,-0.55702 -1.48731,-1.21556 -2.39987,-0.90936 -0.16458,0.029 -0.32752,0.0677 -0.48941,0.11055"
         inkscape:connector-curvature="0"
         style="fill:#d45500;fill-opacity:0.75;fill-rule:evenodd;stroke:#000000;stroke-width:1.77692103px" />
      <path
         d="m 210.20502,213.94672 c 0.0382,0.56475 -0.31549,0.92819 -0.54847,1.38549 -0.38455,0.56604 -0.74841,1.14759 -1.12512,1.72062 -0.3576,0.58221 -0.49045,1.27172 -0.6932,1.92208 -0.0829,0.7136 -0.21347,1.41822 -0.31894,2.1269 -0.083,0.66198 -0.22879,1.30963 -0.34525,1.96356 -0.19775,0.77685 -0.61825,1.45706 -0.98462,2.15207 -0.38189,0.70498 -0.94623,1.24994 -1.47769,1.81878 -0.44974,0.43155 -0.88025,0.88535 -1.31897,1.32895 -0.51269,0.45227 -1.03558,0.89356 -1.56329,1.32611 -0.57569,0.58881 -1.2085,1.10715 -1.83267,1.633 -1.76893,1.87183 -3.46048,2.54294 -5.9459,4.07562 -0.47192,0.3014 -0.98053,0.50772 -1.48361,0.7378 -0.63022,0.21142 -1.27176,0.3869 -1.9104,0.56823 -0.69543,0.33771 -1.4122,0.624 -2.1196,0.92102 -0.7716,0.46985 -1.61807,0.48877 -2.47201,0.58484 -1.52164,0.038 -3.04416,0.0182 -4.56619,0.0175 -1.28559,0.0281 -2.50837,-0.26111 -3.73653,-0.58691 -0.75029,-0.26831 -1.45387,-0.65128 -2.17343,-0.99454 -1.32517,-0.64822 -2.68881,-1.18298 -3.99819,-1.86057 -1.34109,-0.97656 -2.26252,-2.31387 -3.12908,-3.7514 -0.62374,-1.13748 -1.49611,-2.03326 -2.35087,-2.95251 -0.56866,-0.58338 -1.25248,-1.01081 -1.90174,-1.48127 -1.02758,-0.62426 -2.15899,-1.018 -3.25431,-1.48224 -1.71579,-0.63104 -3.48054,-1.06073 -5.25889,-1.41735 -1.254,-0.31964 -2.53006,-0.45737 -3.81108,-0.55896 -1.40877,-0.0666 -2.81928,-0.0626 -4.22907,-0.0684 -2.40864,-0.0382 -4.78103,0.49222 -7.1468,0.9143 -1.58686,0.26752 -3.11975,0.72474 -4.63454,1.26493 0.48505,0.56198 5.91917,-4.36423 1.88412,-0.71179 -1.28547,1.2022 -2.46331,2.51297 -3.55169,3.91998 -0.54645,0.6669 -0.89005,1.4704 -1.26082,2.25436 -0.26669,0.7237 -0.71996,1.31089 -1.14638,1.92169 -0.46734,0.57129 -1.07565,0.98078 -1.64186,1.43024 -2.33702,1.71979 -4.60437,2.99817 -7.166,4.01898 -0.80853,0.26392 -1.60197,0.58768 -2.39377,0.8899 -0.62593,0.28 -1.26654,0.51162 -1.89833,0.77307 -0.0201,0.0447 -0.67213,0.22351 -0.69983,0.23272 l 4.19573,-3.50219 c 0.22621,-0.0881 0.4572,-0.16214 0.67868,-0.26447 0.63285,-0.25573 1.2693,-0.50131 1.89467,-0.77893 0.79203,-0.28149 1.58943,-0.54718 2.37133,-0.86059 1.98011,-0.87531 6.23845,-3.08783 -1.91357,1.57415 0.55193,-0.44354 1.13162,-0.84317 1.68466,-1.2821 0.4336,-0.57471 0.92377,-1.08328 1.21362,-1.77527 0.36519,-0.83871 0.70896,-1.69858 1.25849,-2.42221 1.10267,-1.4238 2.29043,-2.75095 3.5581,-4.00726 2.08748,-2.07102 4.3609,-3.79138 7.0858,-4.91818 1.49506,-0.42252 2.99648,-0.80365 4.53041,-1.04206 2.41846,-0.41565 4.84082,-0.93927 7.2995,-0.92496 1.43012,-2.7e-4 2.8619,-0.0202 4.29033,0.068 1.28221,0.13238 2.55413,0.31854 3.81107,0.63495 1.78142,0.42233 3.55012,0.9024 5.28577,1.51489 1.16722,0.44434 2.3761,0.82001 3.43148,1.53735 0.66936,0.47068 1.36182,0.91309 1.90966,1.55237 0.88264,0.96039 1.71878,1.9589 2.3858,3.11432 0.815,1.36933 1.6566,2.66223 2.99643,3.49927 1.32133,0.66208 2.67691,1.23218 4.0343,1.8089 0.70923,0.31579 1.41391,0.64697 2.13599,0.93011 1.16855,0.27307 2.33633,0.53461 3.54663,0.50568 1.53943,-0.005 3.0824,0.0146 4.61792,-0.12268 0.82367,-0.16886 1.64093,-0.27265 2.38122,-0.75098 0.72815,-0.27798 1.44928,-0.57635 2.17539,-0.85956 0.63412,-0.1986 1.28421,-0.3461 1.8945,-0.62823 0.49042,-0.24939 0.97858,-0.49902 1.46176,-0.76459 -7.57327,4.7663 -4.63095,3.31616 -3.13827,1.63782 0.61596,-0.53336 1.24386,-1.04236 1.85009,-1.5903 0.49866,-0.46237 0.95459,-0.97382 1.53208,-1.33207 0.44247,-0.45062 0.90597,-0.87628 1.33914,-1.34137 0.52454,-0.53765 1.10425,-1.02539 1.5398,-1.65795 0.34838,-0.6586 0.74859,-1.29462 1.03833,-1.98658 0.13549,-0.65234 0.32189,-1.27749 0.35299,-1.95266 0.12821,-0.71231 0.30908,-1.40009 0.32819,-2.13321 0.18994,-0.70169 0.30612,-1.43176 0.60751,-2.0965 0.35227,-0.58957 0.66669,-1.20355 1.13123,-1.70486 0.21518,-0.33747 0.46466,-0.74033 0.61093,-1.0756 l 4.79733,-2.63934 z"
         id="path2078"
         inkscape:connector-curvature="0"
         style="fill:#000000;fill-rule:nonzero;stroke-width:1px" />
      <path
         id="path2080"
         d="m 252.76495,160.84911 c 0.47956,0 0.47956,0 0,0 z"
         inkscape:connector-curvature="0"
         style="fill:#ff6600;fill-opacity:0.75;fill-rule:evenodd;stroke:#000000;stroke-width:1.77692103px" />
      <path
         id="path2084"
         d="m 251.68597,165.89783 c -0.24643,-0.0403 0.8433,-1.36589 1.43866,-2.3302"
         inkscape:connector-curvature="0"
         style="fill:none;stroke:#000000;stroke-width:1.77692103px" />
      <rect
         transform="matrix(0.325236,0.424144,-0.400904,0.353486,0,0.414598)"
         y="-545.09381"
         x="546.14563"
         height="285.18256"
         width="23.80418"
         id="rect2091"
         style="fill:#2d1a0d" />
      <rect
         transform="matrix(0.404051,-0.349884,0.309966,0.435428,0,0.414598)"
         ry="33.583408"
         rx="0.75293499"
         y="548.16711"
         x="114.1441"
         height="22.728622"
         width="89.445282"
         id="rect2194"
         stroke-miterlimit="4"
         style="fill:#0e3f96;stroke-width:0;stroke-linecap:square;stroke-miterlimit:4" />
    </g>
  </g>
</svg>
