<?xml version="1.0" encoding="UTF-8" standalone="no"?>
<!-- Created with Inkscape (http://www.inkscape.org/) -->
<svg xmlns:dc="http://purl.org/dc/elements/1.1/" xmlns:cc="http://creativecommons.org/ns#" xmlns:rdf="http://www.w3.org/1999/02/22-rdf-syntax-ns#" xmlns:svg="http://www.w3.org/2000/svg" xmlns="http://www.w3.org/2000/svg" version="1.0" width="384.85901" height="389.10599" viewBox="0 0 384.859 389.106" id="Layer_1" xml:space="preserve" style="overflow:visible"><title id="title3060">Paisley Modern</title><defs id="defs152"/>
<g id="layer3" style="display:inline"><g transform="matrix(0.9857887,0,0,0.9857887,5.9999986,3.5297104)" id="g3" style="overflow:visible">
	<path d="m 142.499,173.606 c 0,-16 -7,-54 -37,-54 -22,0 -30,21 -30,34 0,35 51,34 51,78 0,3 -1,11 -3,16 9,-8 19,-56 19,-74 z" id="path5" style="fill-rule:evenodd"/>
	<path d="m 126.499,166.606 c 0,-13 -5,-32 -20,-32 -11,0 -16,9 -16,17 0,10 19,29 29,29 7,0 7,-13 7,-14 z" id="path7" style="fill:#ffffff;fill-rule:evenodd"/>
</g><g transform="matrix(0.9857887,0,0,0.9857887,5.9999986,3.5297104)" id="g9" style="overflow:visible">
	<path d="m 298.999,43.086 c -9.22,-13.08 -36.66,-39.99 -60.88,-22.95 -17.7,12.45 -12.27,34.02 -4.9,44.61 19.91,28.64 60.8,-1.08 86.28,35.2 1.75,2.48 5.58,9.68 6.85,14.97 2.74,-11.76 -16.95,-57.069 -27.35,-71.83 z" id="path11" style="fill-rule:evenodd"/>
	<path d="m 281.929,46.466 c -7.45,-10.62 -22.37,-23.24 -34.49,-14.73 -8.87,6.23 -7.8,16.38 -3.25,22.9 5.69,8.16 31.96,12.94 40.09,7.27 5.71,-3.98 -1.77,-14.619 -2.35,-15.44 z" id="path13" style="fill:#ffffff;fill-rule:evenodd"/>
</g><g transform="matrix(0.9857887,0,0,0.9857887,5.9999986,3.5297104)" id="g15" style="overflow:visible">
	<path d="m 324.379,315.437 c -9.88,12.63 -27.79,47 -3.97,65.42 17.32,13.4 36.41,1.81 44.35,-8.36 21.34,-27.36 -19.11,-58.11 7.94,-92.71 1.84,-2.36 7.53,-8.01 12.16,-10.68 -11.94,0.62 -49.37,32.12 -60.48,46.33 z" id="path17" style="fill-rule:evenodd"/>
	<path d="m 332.729,330.926 c -8.01,10.24 -15.75,28.3 -3.89,37.52 8.66,6.74 18.09,2.73 22.99,-3.54 6.12,-7.84 2.88,-34.45 -4.97,-40.66 -5.51,-4.35 -13.51,5.89 -14.13,6.68 z" id="path19" style="fill:#ffffff;fill-rule:evenodd"/>
</g><g transform="matrix(0.9857887,0,0,0.9857887,5.9999986,3.5297104)" id="g21" style="overflow:visible">
	<path d="m 177.279,84.307 c -14.74,-6.19 -47.02,-27.29 -35.26,-54.75 8.62,-20.14 31.11,-19.34 43.09,-14.32 32.26,13.53 11.34,59.84 51.89,76.85 2.77,1.16 10.53,3.34 15.92,3.44 -10.9,5.14 -59.05,-4.26 -75.64,-11.22 z" id="path23" style="fill:#ffffff;fill-rule:evenodd"/>
	<path d="m 177.099,66.957 c -11.98,-5.03 -27.53,-16.95 -21.65,-30.69 4.31,-10.07 14.57,-11.16 21.94,-8.07 9.21,3.87 19.28,28.61 15.36,37.76 -2.75,6.409 -14.73,1.379 -15.65,1 z" id="path25" style="fill-rule:evenodd"/>
</g><g transform="matrix(0.9857887,0,0,0.9857887,5.9999986,3.5297104)" id="g27" style="overflow:visible">
	<path d="m 48.739,258.366 c -7.88,-13.72 -20.55,-49.6 4.89,-64.65 18.79,-11.11 36.12,2.76 42.64,13.91 17.63,30.17 -26.92,54.84 -4.93,92.99 1.51,2.62 6.4,9.11 10.66,12.49 -11.83,-2.54 -44.37,-39.25 -53.26,-54.74 z" id="path29" style="fill:#ffffff;fill-rule:evenodd"/>
	<path d="m 58.929,244.396 c -6.42,-11.15 -11.52,-29.87 1.26,-37.4 9.4,-5.54 18.16,-0.37 22.15,6.48 4.99,8.59 -1.87,34.47 -10.47,39.47 -6,3.491 -12.44,-7.69 -12.94,-8.55 z" id="path31" style="fill-rule:evenodd"/>
</g><g transform="matrix(0.9857887,0,0,0.9857887,5.9999986,3.5297104)" id="g33" style="overflow:visible">
	<path d="m 298.839,231.006 c -0.73,-15.82 4.36,-53.57 33.63,-55.36 21.62,-1.31 30.62,18.97 31.31,31.87 1.87,34.93 -48.62,36.56 -46.52,80.6 0.14,3.01 1.52,11.03 3.74,15.99 -9.28,-7.669 -21.34,-55.24 -22.16,-73.1 z" id="path35" style="fill:#ffffff;fill-rule:evenodd"/>
	<path d="m 314.169,223.216 c -0.62,-12.86 3.37,-31.88 18.06,-32.74 10.81,-0.64 16.19,7.97 16.61,15.9 0.51,9.92 -17.29,29.85 -27.13,30.37 -6.88,0.37 -7.5,-12.539 -7.54,-13.53 z" id="path37" style="fill-rule:evenodd"/>
</g><g transform="matrix(0.9857887,0,0,0.9857887,5.9999986,3.5297104)" id="g39" style="overflow:visible">
	<path d="m 148.499,221.606 c 0,-26 8,-118 63,-118 23,0 37,21 37,40 0,9 -3,17 -8,24 -14,21 -39,21 -57,30 -24,12 -31,37 -31,55 -2,-10 -4,-29 -4,-31 z" id="path41" style="fill:#ffffff;fill-rule:evenodd"/>
	<path d="m 182.499,154.606 c 0,-11 16,-29 25,-29 10,0 15,9 15,15 0,14 -21,20 -30,20 -5,0 -10,-1 -10,-6 z m -26,48 c 0,-18 13,-88 52,-88 16,0 26,13 26,27 0,11 -1,18 -17,27 -8,5 -20,4 -30,7 -8,2 -23,11 -27,23 -2,5 -3,11 -3,17 0,-4 -1,-10 -1,-13 z" id="path43" style="fill-rule:evenodd"/>
</g><g transform="matrix(0.9857887,0,0,0.9857887,5.9999986,3.5297104)" id="g45" style="overflow:visible">
	<path d="m 298.059,314.816 c -7.57,19.8 -40.7,88.04 -83.13,71.82 -17.77,-6.79 -22.3,-27.12 -16.62,-41.73 2.69,-6.9 7.39,-12.15 13.33,-16.03 17,-11.92 36.19,-4.54 52.64,-6.1 21.88,-2.07 34.5,-19.02 39.72,-32.67 -1.37,8.17 -5.36,23.19 -5.94,24.71 z" id="path47" style="fill:#ffffff;fill-rule:evenodd"/>
	<path d="m 252.399,355.957 c -3.24,8.44 -20.89,17.56 -27.83,14.91 -7.71,-2.96 -8.89,-11.36 -7.1,-15.97 4.16,-10.74 22.1,-9.14 29.02,-6.49 3.84,1.479 7.39,3.719 5.91,7.55 z m 34.01,-29.031 c -5.25,13.73 -35.81,63.62 -65.88,52.11 -12.36,-4.72 -16.19,-17.69 -12.02,-28.45 3.28,-8.44 6.14,-13.51 21.12,-15.68 7.63,-1.47 16.56,2.84 25.12,3.5 6.73,0.83 20.86,-1.63 27.44,-9.61 2.99,-3.22 5.5,-7.5 7.25,-12.07 -1.17,3.05 -2.15,7.91 -3.03,10.2 z" id="path49" style="fill-rule:evenodd"/>
</g><g transform="matrix(0.9857887,0,0,0.9857887,5.9999986,3.5297104)" id="g51" style="overflow:visible">
	<path d="m 79.749,338.696 c -13.61,6.32 -63.85,24.52 -77.71,-4.73 -5.85,-12.36 1.75,-25.09 11.86,-29.77 4.78,-2.21 9.79,-2.55 14.77,-1.56 14.63,2.41 20.82,15.86 29.98,23.3 12.16,9.85 26.94,7.48 36.35,3.11 -4.75,3.491 -14.21,9.17 -15.25,9.65 z" id="path53" style="fill:#ffffff;fill-rule:evenodd"/>
	<path d="m 36.259,336.966 c -5.79,2.69 -19.29,-1.44 -21.56,-6.26 -2.52,-5.36 0.99,-10.26 4.17,-11.73 7.42,-3.44 15.84,6.37 18.07,11.19 1.24,2.67 1.96,5.581 -0.68,6.8 z m 31.61,2.111 c -9.44,4.39 -49.43,14.57 -59.24,-6.21 -4.05,-8.58 0.31,-17.16 7.74,-20.6 5.84,-2.71 9.81,-3.88 18.58,2.53 4.64,3.08 7.08,9.76 11.14,14.37 3.02,3.78 11.43,9.56 18.71,8.76 3.1,-0.15 6.49,-1.08 9.63,-2.54 -2.09,0.969 -4.99,2.96 -6.56,3.69 z" id="path55" style="fill-rule:evenodd"/>
</g><g transform="matrix(0.9857887,0,0,0.9857887,5.9999986,3.5297104)" id="g57" style="overflow:visible">
	<path d="m 353.929,124.256 c -7.69,-11.63 -31.47,-55.21 -7.3,-71.5 10.21,-6.88 22.76,-1.53 28.45,7.11 2.7,4.1 3.75,8.62 3.6,13.29 0.01,13.65 -11.13,20.97 -16.43,30.26 -7.03,12.32 -2.71,25.51 2.61,33.55 -3.84,-3.9 -10.34,-11.82 -10.93,-12.71 z" id="path59" style="fill:#ffffff;fill-rule:evenodd"/>
	<path d="m 349.019,84.366 c -3.27,-4.96 -1.57,-17.79 2.41,-20.46 4.44,-2.97 9.35,-0.38 11.14,2.34 4.18,6.34 -3.36,15.25 -7.34,17.89 -2.21,1.461 -4.72,2.48 -6.21,0.23 z m 2.8,29.091 c -5.33,-8.06 -20.41,-43.28 -3.23,-54.82 7.1,-4.77 15.44,-1.86 19.63,4.5 3.29,4.99 4.94,8.46 0.49,17.27 -2.07,4.61 -7.7,7.67 -11.23,11.95 -2.94,3.23 -6.88,11.62 -5.08,18.16 0.6,2.82 1.94,5.79 3.71,8.48 -1.18,-1.79 -3.4,-4.19 -4.29,-5.54 z" id="path61" style="fill-rule:evenodd"/>
</g><g transform="matrix(0.9857887,0,0,0.9857887,5.9999986,3.5297104)" id="g63" style="overflow:visible">
	<path d="m 295.499,166.606 c 0,26 -8,118 -63,118 -23,0 -37,-21 -37,-40 0,-9 3,-17 8,-24 14,-21 39,-21 57,-30 24,-12 31,-37 31,-55 2,10 4,29 4,31 z" id="path65" style="fill-rule:evenodd"/>
	<path d="m 284.97696,201.13938 c -2.43,15.81 -11.47796,71.46662 -49.47796,71.46662 -16,0 -26,-13 -26,-27 0,-34 36,-26 58,-39 14,-8 17.91,-25.03 19,-36 0,4 -0.85204,26.20338 -1.52204,30.53338 z" id="path67" style="fill:#ffffff;fill-rule:evenodd"/>
	<path d="m 260.729,239.437 c -4.82,12.18 -16.34,27.85 -30.13,22.42 -10.05,-3.96 -11.53,-13.99 -8.78,-21.38 3.47,-9.34 28.06,-20.53 37.53,-16.91 6.65,2.539 1.76,14.919 1.38,15.87 z" id="path69" style="fill-rule:evenodd"/>
</g><g transform="matrix(0.9857887,0,0,0.9857887,5.9999986,3.5297104)" id="g71" style="overflow:visible">
	<path d="m 9.849,100.376 c 6.6,-25.03 37.9,-112.19 91.22,-97.9 22.33,5.98 30.39,30.09 25.39,48.56 -2.37,8.73 -7.37,15.71 -14.04,21.18 -19,16.65 -43.12,10.15 -62.79,14.15 -26.16,5.32 -39.24,27.53 -43.8,44.78 0.62,-10.1 3.51,-28.85 4.02,-30.77 z" id="path73" style="fill-rule:evenodd"/>
	<path d="m 22.109,85.136 c 4.08,-15.43 36.1,-81.62 72.91,-71.74 15.52,4.16 21.81,19.42 18.14,33.03 -8.89,32.93 -41.59,15.83 -66.17,22.68 -15.53,4.09 -24.17,17.25 -26.97,27.84 1.01,-3.849 1.33,-8.92 2.09,-11.81 z" id="path75" style="fill:#ffffff;fill-rule:evenodd"/>
	<path d="m 61.979,39.086 c 7.81,-10.58 23.04,-22.82 34.98,-13.95 8.71,6.46 7.52,16.6 2.93,23.06 -5.8,8.15 -32.46,12.6 -40.67,6.63 -5.76,-4.19 2.16,-14.92 2.76,-15.74 z" id="path77" style="fill-rule:evenodd"/>
</g><g transform="matrix(0.9857887,0,0,0.9857887,5.9999986,3.5297104)" id="g79" style="overflow:visible">
	<path d="m 73.289,386.537 c 26.09,-0.47 117.64,-10.06 116.76,-64.67 -0.37,-22.88 -21.48,-36.57 -40.42,-36.34 -8.99,0.11 -16.93,3.21 -23.85,8.29 -20.79,14.27 -20.34,39.25 -29.04,57.37 -11.6,24.16 -36.6,31.59 -54.74,31.92 10.12,1.819 29.28,3.47 31.29,3.43 z" id="path81" style="fill-rule:evenodd"/>
	<path d="m 91.219,378.236 c 16.03,-0.29 87.58,-15.45 86.96,-53.22 -0.26,-15.92 -13.36,-25.71 -27.32,-25.53 -33.99,0.44 -25.34,36.28 -37.96,58.42 -7.76,14.1 -22.7,19.35 -33.75,19.54 4.02,-0.07 9.06,0.841 12.07,0.79 z" id="path83" style="fill:#ffffff;fill-rule:evenodd"/>
	<path d="m 145.579,350.636 c 12.06,-4.99 27.46,-16.7 21.83,-30.34 -4.11,-9.95 -14.13,-11.3 -21.46,-8.45 -9.26,3.59 -20.02,28.28 -16.24,37.66 2.66,6.591 14.93,1.511 15.87,1.13 z" id="path85" style="fill-rule:evenodd"/>
</g><g transform="matrix(0.9857887,0,0,0.9857887,5.9999986,3.5297104)" id="g87" style="overflow:visible">
	<circle cx="229.49899" cy="302.60599" r="7.5" id="circle89" style="fill-rule:evenodd"/>
	<circle cx="205.49899" cy="295.60599" r="7.5" id="circle91" style="fill-rule:evenodd"/>
	<circle cx="185.49899" cy="279.60599" r="7.5" id="circle93" style="fill-rule:evenodd"/>
	<circle cx="255.49899" cy="300.60599" r="7.5" id="circle95" style="fill-rule:evenodd"/>
	<circle cx="168.99899" cy="264.10599" r="5" id="circle97" style="fill-rule:evenodd"/>
	<circle cx="274.99899" cy="286.10599" r="5" id="circle99" style="fill-rule:evenodd"/>
</g><g transform="matrix(0.9857887,0,0,0.9857887,5.9999986,3.5297104)" id="g101" style="overflow:visible">
	<path d="m 326.939,127.316 c -1.14,3.98 -5.3,6.28 -9.3,5.13 -4,-1.14 -6.32,-5.29 -5.18,-9.27 1.14,-3.98 5.3,-6.28 9.3,-5.14 4,1.14 6.32,5.3 5.18,9.28 z" id="path103" style="fill-rule:evenodd"/>
	<path d="m 348.189,140.656 c -1.14,3.98 -5.3,6.28 -9.3,5.14 -4,-1.14 -6.32,-5.3 -5.18,-9.28 1.14,-3.98 5.3,-6.28 9.3,-5.13 4,1.14 6.32,5.29 5.18,9.27 z" id="path105" style="fill-rule:evenodd"/>
	<path d="m 363.109,161.546 c -1.14,3.98 -5.3,6.28 -9.3,5.14 -4,-1.14 -6.32,-5.3 -5.18,-9.28 1.13,-3.98 5.3,-6.28 9.3,-5.13 4,1.141 6.32,5.29 5.18,9.27 z" id="path107" style="fill-rule:evenodd"/>
	<path d="m 301.289,122.066 c -1.14,3.97 -5.3,6.27 -9.3,5.13 -4,-1.14 -6.32,-5.29 -5.18,-9.27 1.13,-3.98 5.3,-6.28 9.3,-5.14 4,1.14 6.32,5.3 5.18,9.28 z" id="path109" style="fill-rule:evenodd"/>
	<path d="m 372.369,180.307 c -0.76,2.65 -3.53,4.18 -6.2,3.42 -2.66,-0.76 -4.21,-3.53 -3.45,-6.18 0.76,-2.66 3.53,-4.19 6.2,-3.43 2.66,0.759 4.21,3.529 3.45,6.19 z" id="path111" style="fill-rule:evenodd"/>
	<path d="m 276.069,129.926 c -0.76,2.65 -3.54,4.18 -6.2,3.42 -2.67,-0.76 -4.22,-3.53 -3.46,-6.18 0.76,-2.65 3.54,-4.19 6.2,-3.43 2.67,0.77 4.21,3.531 3.46,6.19 z" id="path113" style="fill-rule:evenodd"/>
</g><g transform="matrix(0.9857887,0,0,0.9857887,5.9999986,3.5297104)" id="g115" style="overflow:visible">
	<circle cx="101.499" cy="101.606" r="7.5" id="circle117" style="fill-rule:evenodd"/>
	<circle cx="77.499001" cy="108.606" r="7.5" id="circle119" style="fill-rule:evenodd"/>
	<circle cx="57.499001" cy="124.606" r="7.5" id="circle121" style="fill-rule:evenodd"/>
	<circle cx="127.499" cy="103.606" r="7.5" id="circle123" style="fill-rule:evenodd"/>
	<circle cx="40.999001" cy="140.106" r="5" id="circle125" style="fill-rule:evenodd"/>
	<circle cx="146.99899" cy="118.106" r="5" id="circle127" style="fill-rule:evenodd"/>
</g><g transform="matrix(0.9857887,0,0,0.9857887,5.9999986,3.5297104)" id="g129" style="overflow:visible">
	<path d="m 14.459,245.026 c 4.16,-0.19 7.36,-3.69 7.15,-7.82 -0.21,-4.13 -3.77,-7.34 -7.95,-7.16 -4.18,0.18 -7.38,3.7 -7.15,7.84 0.23,4.131 3.79,7.33 7.95,7.14 z" id="path131" style="fill-rule:evenodd"/>
	<path d="m 22.719,268.417 c 4.13,-0.2 7.31,-3.66 7.1,-7.74 -0.2,-4.08 -3.72,-7.24 -7.87,-7.05 -4.14,0.19 -7.33,3.67 -7.11,7.76 0.22,4.09 3.75,7.229 7.88,7.03 z" id="path133" style="fill-rule:evenodd"/>
	<path d="m 39.579,287.167 c 4.09,-0.21 7.26,-3.63 7.07,-7.66 -0.18,-4.04 -3.66,-7.16 -7.77,-6.96 -4.11,0.2 -7.29,3.65 -7.09,7.69 0.2,4.04 3.69,7.139 7.79,6.93 z" id="path135" style="fill-rule:evenodd"/>
	<path d="m 15.099,218.906 c 4.18,-0.18 7.4,-3.7 7.19,-7.89 -0.22,-4.18 -3.79,-7.45 -8,-7.28 -4.2,0.18 -7.43,3.72 -7.2,7.92 0.23,4.191 3.82,7.43 8.01,7.25 z" id="path137" style="fill-rule:evenodd"/>
	<path d="m 55.469,299.926 c 2.71,-0.14 4.81,-2.41 4.7,-5.08 -0.11,-2.66 -2.41,-4.71 -5.12,-4.58 -2.72,0.14 -4.83,2.42 -4.71,5.09 0.12,2.67 2.42,4.71 5.13,4.57 z" id="path139" style="fill-rule:evenodd"/>
	<path d="m 28.639,196.037 c 2.79,-0.11 4.95,-2.48 4.82,-5.29 -0.14,-2.82 -2.52,-5.02 -5.33,-4.91 -2.8,0.11 -4.96,2.49 -4.82,5.31 0.14,2.81 2.53,4.999 5.33,4.89 z" id="path141" style="fill-rule:evenodd"/>
</g><g transform="matrix(0.9857887,0,0,0.9857887,5.9999986,3.5297104)" id="g143" style="overflow:visible">
	<path d="m 282.539,4.006 c -2.14,3.67 -0.88,8.24 2.83,10.24 3.72,2.01 8.53,0.68 10.73,-2.99 2.22,-3.71 0.94,-8.35 -2.84,-10.35 -3.77,-1.989 -8.57,-0.59 -10.72,3.1 z" id="path145" style="fill-rule:evenodd"/>
	<path d="m 305.109,18.426 c -2.24,3.67 -0.97,8.29 2.84,10.35 3.82,2.07 8.8,0.79 11.1,-2.89 2.32,-3.7 1.04,-8.4 -2.85,-10.46 -3.87,-2.05 -8.83,-0.699 -11.09,3 z" id="path147" style="fill-rule:evenodd"/>
	<path d="m 317.529,42.207 c -1.52,2.4 -0.68,5.48 1.88,6.89 2.57,1.41 5.92,0.62 7.47,-1.79 1.56,-2.42 0.71,-5.53 -1.89,-6.94 -2.59,-1.41 -5.93,-0.58 -7.46,1.84 z" id="path149" style="fill-rule:evenodd"/>
</g></g><metadata><rdf:RDF><cc:Work><dc:format>image/svg+xml</dc:format><dc:type rdf:resource="http://purl.org/dc/dcmitype/StillImage"/><cc:license rdf:resource="http://creativecommons.org/licenses/publicdomain/"/><dc:publisher><cc:Agent rdf:about="http://openclipart.org/"><dc:title>Open Clip Art Library</dc:title></cc:Agent></dc:publisher><dc:title>Paisley Modern (No Background)</dc:title><dc:date>2010-11-03T23:28:54</dc:date><dc:description>A modern paisley design.</dc:description><dc:source>http://openclipart.org/detail/93769/paisley-modern-(no-background)-by-jaschon</dc:source><dc:creator><cc:Agent><dc:title>jaschon</dc:title></cc:Agent></dc:creator><dc:subject><rdf:Bag><rdf:li>background</rdf:li><rdf:li>black and white</rdf:li><rdf:li>clip art</rdf:li><rdf:li>clipart</rdf:li><rdf:li>design</rdf:li><rdf:li>modern</rdf:li><rdf:li>paisley</rdf:li><rdf:li>pattern</rdf:li><rdf:li>tile</rdf:li><rdf:li>wallpaper</rdf:li></rdf:Bag></dc:subject></cc:Work><cc:License rdf:about="http://creativecommons.org/licenses/publicdomain/"><cc:permits rdf:resource="http://creativecommons.org/ns#Reproduction"/><cc:permits rdf:resource="http://creativecommons.org/ns#Distribution"/><cc:permits rdf:resource="http://creativecommons.org/ns#DerivativeWorks"/></cc:License></rdf:RDF></metadata></svg>
