<?xml version="1.0" encoding="UTF-8" standalone="no"?>
<!-- Created with Inkscape (http://www.inkscape.org/) -->
<svg xmlns:inkscape="http://www.inkscape.org/namespaces/inkscape" xmlns:rdf="http://www.w3.org/1999/02/22-rdf-syntax-ns#" xmlns="http://www.w3.org/2000/svg" xmlns:cc="http://creativecommons.org/ns#" xmlns:dc="http://purl.org/dc/elements/1.1/" xmlns:sodipodi="http://sodipodi.sourceforge.net/DTD/sodipodi-0.dtd" id="svg2" inkscape:version="0.48.3.1 r9886" viewBox="0 0 577.98007 928.04988" version="1.1" sodipodi:docname="_svgclean2.svg">
  <sodipodi:namedview id="base" bordercolor="#666666" inkscape:pageshadow="2" inkscape:window-y="0" pagecolor="#ffffff" inkscape:zoom="0.35" inkscape:window-width="536" inkscape:window-maximized="0" inkscape:window-x="0" showgrid="false" borderopacity="1.0" inkscape:current-layer="layer1" inkscape:cx="301.11854" inkscape:cy="426.87974" inkscape:window-height="457" inkscape:pageopacity="0.0" inkscape:document-units="px"/>
  <g id="layer1" inkscape:label="Layer 1" inkscape:groupmode="layer" transform="translate(-73.881 -31.192)">
    <g id="g4275" transform="translate(1725.5,110.69)">
      <g id="g4025" transform="matrix(.30835 0 0 .30835 -1496.1 -197.64)">
        <path id="path3981" d="m-228.56 1633.1c-23.26 89.961-17.685 172.34 19.998 246.29l208.55 207.2 25.712-204.2c-9.0367-88.688 12.482-182.73-37.139-264.31z" sodipodi:nodetypes="cccccc" style="stroke:#000000;stroke-width:1.0252px;fill:#deaa87" inkscape:connector-curvature="0"/>
        <path id="path3985" d="m1027.7 1592.4c43.359 40.105 53.097 102.58 2.7093 205.07-97.359 147.11-132.81 173.73-197.78 257.8-3.6616-152.31-57.575-281.34-10.837-457.01z" sodipodi:nodetypes="ccccc" style="stroke:#000000;stroke-width:.98605px;fill:#deaa87" inkscape:connector-curvature="0"/>
        <path id="path4001" d="m1011.4 2058.1-205.71-25.714v45.714l211.43 20z" style="stroke:#000000;stroke-width:1px;fill:#000000" inkscape:connector-curvature="0"/>
        <path id="path3993" d="m-265.71 2218.1 294.29-65.714-2.8571 211.43-291.43 45.714z" style="stroke:#000000;stroke-width:1px;fill:#ff6600" inkscape:connector-curvature="0"/>
        <path id="path3953" inkscape:connector-curvature="0" style="stroke:#000000;stroke-width:.30835px;fill:#deaa87" transform="matrix(3.2431,0,0,3.2431,4851.9,640.94)" d="m-1230 604.36-273.11 2.6445c4.0054 50.422-14.678 40.602 38.764 84.576l51.098 7.0469c33.595-49.63 44.862-42.874 42.289-92.504 13.732 49.323 10.229 53.943 51.098 90.742l45.812-1.7617c21.263-47.868 61.882-42.876 44.051-90.744z"/>
        <path id="path3951" d="m0 2132.4c-21.721 210.88-58.632 412.64-167.18 571.43 396.48 138.31 811.58 105.33 1190.7 35.215-88.244-195.66-164.73-393.67-166.38-606.64z" sodipodi:nodetypes="ccccc" style="stroke:#000000;stroke-width:1px;fill:#ff8080" inkscape:connector-curvature="0"/>
        <path id="path3949" d="m-197.14 1326.6c-105.42 85.07-124.22 287.6-94.617 395.22l300.33-83.7 20.001-68.6c1.2328 174.88-4.7658 422.28-86.812 647.12 357.14-44.742 885.94 226.16 990.89 46.936l-146.94-665.49-11.429-42.857 34.286 51.429 277.97 85.602c27.769-108.77-12.449-311.69-123.69-391.32-314.5-225.11-859.02-217.17-1160 25.714z" sodipodi:nodetypes="acccccccccaa" style="stroke:#000000;stroke-width:1px;fill:#008000" inkscape:connector-curvature="0"/>
        <g id="g3921" transform="translate(620,522.86)">
          <path id="path3862" inkscape:connector-curvature="0" sodipodi:nodetypes="csssc" style="stroke-linejoin:round;fill-rule:evenodd;color:#000000;stroke:#06070d;stroke-linecap:round;stroke-width:2.5;fill:#deaa87" d="m-2.8571 850.93c0 70.219-104.94 58.571-241.43 58.571s-252.86 11.648-252.86-58.571 110.65-127.14 247.14-127.14c134.78 0 244.7 55.554 247.1 124.88"/>
          <path id="path3860" inkscape:connector-curvature="0" sodipodi:nodetypes="ccccc" style="stroke:#000000;stroke-width:1px;fill:#deaa87" d="m-411.43 612.36 54.286 165.71c94.996 82.416 153.71 41.469 211.43-2.8571l31.429-174.29z"/>
          <path id="path2985" inkscape:connector-curvature="0" sodipodi:nodetypes="ccccccc" style="stroke-linejoin:round;color:#000000;stroke:#6f4b32;stroke-linecap:round;stroke-width:2.5;fill:#deaa87" d="m-411.43 695.22-157.26-259.05 145.72-265.71c100.99-75.231 201.98-98.491 302.97-6.66l157.26 259.04-145.72 265.71c-92.306 48.541-188.07 78.628-302.97 6.6649z"/>
          <path id="path3756" sodipodi:rx="61.42857" sodipodi:ry="88.571426" style="stroke-linejoin:round;color:#000000;stroke:#6f4b32;stroke-linecap:round;stroke-width:2.5;fill:#ffffff" sodipodi:type="arc" d="m-345.71 318.08c0 48.917-27.503 88.571-61.429 88.571s-61.429-39.655-61.429-88.571c0-48.917 27.502-88.571 61.429-88.571 33.5 0 60.822 38.7 61.419 86.995" sodipodi:open="true" transform="translate(71.429,-2.8571)" sodipodi:cy="318.07648" sodipodi:cx="-407.14285" sodipodi:end="6.2653828" sodipodi:start="0"/>
          <path id="path3758" sodipodi:rx="67.14286" sodipodi:ry="92.85714" style="stroke-linejoin:round;color:#000000;stroke:#6f4b32;stroke-linecap:round;stroke-width:2.5;fill:#ffffff" sodipodi:type="arc" d="m-142.86 308.08c0 51.284-30.061 92.857-67.143 92.857s-67.143-41.574-67.143-92.857c0-51.284 30.061-92.857 67.143-92.857 36.616 0 66.48 40.573 67.132 91.204" sodipodi:open="true" transform="matrix(.93746 0 0 .92401 2.5809 16.268)" sodipodi:cy="308.07648" sodipodi:cx="-210" sodipodi:end="6.2653828" sodipodi:start="0"/>
          <path id="rect3760" inkscape:connector-curvature="0" sodipodi:nodetypes="ccccc" style="stroke-linejoin:round;color:#000000;stroke:#6f4b32;stroke-linecap:round;stroke-width:2.5;fill:#deaa87" d="m-302.86 400.93c18.004-32.078 53.125-71.291 85.714 0 0.34619 19.048 17.44 38.095-17.143 57.143-7.4345 29.693-25.977 20.51-48.571-2.8571-40.243-12.499-22.394-34.68-20-54.286z"/>
          <path id="path3858" inkscape:connector-curvature="0" sodipodi:nodetypes="ccccccccccc" style="stroke:#000000;stroke-width:1px;fill:#ff2a2a" d="m-254.29 518.08 54.29-22.86 102.86 22.86-28.57 105.71c-80.923-10.625-160.38-28.566-248.57-2.8571l-31.429-102.86 5.7143-8.5714 2.8571 8.5714 94.286-20 25.714 20z"/>
          <path id="rect3762" inkscape:connector-curvature="0" sodipodi:nodetypes="ccccc" style="stroke-linejoin:round;color:#000000;stroke:#6f4b32;stroke-linecap:round;stroke-width:2.1882;fill:#ffffff" d="m-397.3 515.06c89.607 22.257 176.57 21.3 288.88 5.7143l-20 97.455c-79.308-24.305-159.23-43.116-246.03 0z"/>
          <path id="path3766" inkscape:connector-curvature="0" sodipodi:nodetypes="cccc" style="fill-rule:evenodd;fill:#000000" d="m-286.89 239.05 2.8382-9.5888c-23.551-58.014-74.861-22.241-113.74-28.453z"/>
          <path id="path3770" inkscape:connector-curvature="0" sodipodi:nodetypes="cccc" style="fill-rule:evenodd;fill:#000000" d="m-242.61 221.73 3.3609 9.4183 87.161-36.412c-34.103-3.1637-69.945-11.711-90.522 26.994z"/>
          <path id="path3808" sodipodi:rx="21.428572" sodipodi:ry="44.285713" style="stroke-linejoin:round;fill-rule:evenodd;color:#000000;stroke:#6f4b32;stroke-linecap:round;stroke-width:2.5;fill:#000000" sodipodi:type="arc" d="m-311.43 328.08c0 24.458-9.5939 44.286-21.429 44.286s-21.429-19.827-21.429-44.286c0-24.458 9.5939-44.286 21.429-44.286 11.686 0 21.217 19.35 21.425 43.497" sodipodi:open="true" transform="translate(20,-2.8571)" sodipodi:cy="328.07648" sodipodi:cx="-332.85715" sodipodi:end="6.2653828" sodipodi:start="0"/>
          <path id="path3808-7" sodipodi:rx="21.428572" sodipodi:ry="44.285713" style="stroke-linejoin:round;fill-rule:evenodd;color:#000000;stroke:#6f4b32;stroke-linecap:round;stroke-width:2.5;fill:#000000" sodipodi:type="arc" sodipodi:start="0" sodipodi:open="true" transform="translate(115.71,-4.2857)" sodipodi:cy="328.07648" sodipodi:cx="-332.85715" sodipodi:end="6.2653828" d="m-311.43 328.08c0 24.458-9.5939 44.286-21.429 44.286s-21.429-19.827-21.429-44.286c0-24.458 9.5939-44.286 21.429-44.286 11.686 0 21.217 19.35 21.425 43.497"/>
          <path id="path3828" style="stroke-linejoin:round;fill-rule:evenodd;color:#000000;stroke:#6f4b32;stroke-linecap:round;stroke-width:2.5;fill:#ff0000" sodipodi:type="star" d="m11.429 438.08 50.103-28.394-32.755-47.367 49.642 29.193 24.644-52.051-0.4613 57.588 57.399-4.6832-50.103 28.394 32.755 47.367-49.642-29.193-24.644 52.051 0.46129-57.588z" sodipodi:r1="77.722687" sodipodi:r2="24.80835" transform="translate(-62.857,2.8571)" sodipodi:arg2="3.3666925" sodipodi:arg1="2.8430937" inkscape:randomized="0" sodipodi:cy="415.21933" sodipodi:cx="85.714287" inkscape:rounded="1.8353374e-15" inkscape:flatsided="false" sodipodi:sides="6"/>
          <g id="g3865">
            <path id="path3776" style="stroke:#000000;stroke-width:1px;fill:#ffff00" sodipodi:revolution="3" sodipodi:type="spiral" d="m37.143 360.93c-3.2948 0-1.6255-4.4413 0.000001-5.4762 4.4051-2.8044 9.6018 1.2334 10.952 5.4762 2.4158 7.5894-3.7156 14.893-10.952 16.429-10.62 2.2537-20.278-6.2089-21.905-16.429-2.1679-13.621 8.7031-25.7 21.905-27.381 16.613-2.1152 31.14 11.197 32.857 27.381 2.0797 19.601-13.691 36.59-32.857 38.333-22.587 2.0542-42.047-16.184-43.81-38.333-2.0349-25.572 18.678-47.508 43.81-49.286 28.556-2.0199 52.972 21.171 54.762 49.286 2.0079 31.54-23.664 58.438-54.762 60.238-34.524 1.9981-63.906-26.158-65.714-60.238" inkscape:transform-center-y="-25.714286" transform="matrix(-.9131 -.40773 -.40773 .9131 200.16 2.8505)" sodipodi:argument="-15.707963" sodipodi:cy="360.93362" sodipodi:cx="37.142857" sodipodi:expansion="1" sodipodi:radius="65.714287" sodipodi:t0="0"/>
            <path id="path3778" style="stroke:#000000;stroke-width:1px;fill:#ffff00" sodipodi:revolution="3" sodipodi:type="spiral" d="m11.429 246.65c-4.4408 2.7218-5.8599-4.6433-4.5238-7.381 3.6207-7.4188 13.96-6.2696 19.286-1.6667 9.5256 8.2336 7.2949 23.142-1.1905 31.19-12.453 11.811-32.461 8.3831-43.095-4.0476-14.174-16.568-9.5002-41.829 6.9048-55 20.644-16.575 51.221-10.633 66.905 9.7619 18.995 24.7 11.774 60.627-12.619 78.81-28.748 21.42-70.043 12.92-90.716-15.48-23.867-32.79-14.071-79.46 18.333-102.62 36.82-26.31 88.887-15.23 114.52 21.19 28.766 40.85 16.386 98.31-24.044 126.43-44.882 31.21-107.74 17.53-138.33-26.91" transform="matrix(-.38177 .92426 .92426 .38177 -222.8 124.61)" sodipodi:argument="-16.257816" sodipodi:cy="246.6479" sodipodi:cx="11.428572" sodipodi:expansion="1" sodipodi:radius="103.88377" sodipodi:t0="0"/>
            <path id="path3780" style="stroke:#000000;stroke-width:1px;fill:#ffff00" sodipodi:revolution="3" sodipodi:type="spiral" d="m-68.571 103.79c-3.8678 5.5868-9.4392-2.4574-9.2857-6.4286 0.41595-10.762 13.363-14.834 22.143-12.143 15.705 4.813 20.891 23.783 15 37.857-8.6458 20.654-34.333 27.096-53.571 17.857-25.645-12.31-33.365-44.923-20.715-69.282 15.915-30.653 55.542-39.658 85-23.572 35.677 19.484 45.972 66.174 26.429 100.71-23.032 40.71-76.803 52.3-116.43 29.29-45.75-26.57-58.63-87.445-32.14-132.15 30.09-50.789 98.08-64.966 147.85-34.996 55.843 33.62 71.316 108.73 37.861 163.57-37.14 60.89-119.37 77.66-179.28 40.72" transform="matrix(.24789 .96879 .96879 -.24789 -154.56 199.09)" sodipodi:argument="-16.673216" sodipodi:cy="103.79076" sodipodi:cx="-68.571426" sodipodi:expansion="1" sodipodi:radius="135.52618" sodipodi:t0="0"/>
            <path id="path3782" style="stroke:#000000;stroke-width:1px;fill:#ffff00" sodipodi:revolution="3" sodipodi:type="spiral" d="m-197.14 32.362c-3.5813 7.3059-11.615-1.2231-12.143-5.9524-1.4303-12.816 13.172-19.95 24.048-18.333 19.455 2.8926 28.985 24.427 24.524 42.143-6.5465 25.999-35.809 38.216-60.238 30.714-32.56-9.9986-47.527-47.233-36.905-78.333 13.367-39.136 58.676-56.879 96.429-43.095 45.723 16.694 66.254 70.13 49.286 114.52-19.996 52.317-81.59 75.643-132.62 55.476-58.915-23.283-85.042-93.055-61.667-150.71 26.56-65.516 104.52-94.448 168.81-67.857 72.12 29.831 103.86 115.99 74.048 186.9-33.097 78.728-127.47 113.28-205 80.248" inkscape:transform-center-x="-22.857143" inkscape:transform-center-y="-31.428571" transform="matrix(1,0,0,-1,14.286,85.944)" sodipodi:argument="-16.822987" sodipodi:cy="32.362183" sodipodi:cx="-197.14285" sodipodi:expansion="1" sodipodi:radius="162.27968" sodipodi:t0="0"/>
            <path id="path3784" style="stroke:#000000;stroke-width:1px;fill:#ffff00" sodipodi:revolution="3" sodipodi:type="spiral" d="m-417.14 15.219c-2.865 9.0249-13.579 0.59055-15-4.7619-3.851-14.505 11.728-25.228 24.524-25.238 22.889-0.01768 37.563 23.128 35.476 44.286-3.0618 31.05-34.64 50.146-64.048 45.714-39.196-5.9064-62.828-46.187-55.952-83.809 8.6521-47.344 57.749-75.56 103.57-66.191 55.497 11.348 88.32 69.319 76.429 123.33-14.014 63.654-80.894 101.1-143.1 86.667-71.814-16.662-113.89-92.472-96.905-162.86 19.299-79.976 104.05-126.69 182.62-107.14 88.139 21.926 139.49 115.64 117.38 202.38-24.548 96.304-127.22 152.3-222.14 127.62" transform="matrix(-1,0,0,-1,-802.92,61.819)" sodipodi:argument="-16.971363" sodipodi:cy="15.219325" sodipodi:cx="-417.14285" sodipodi:expansion="1" sodipodi:radius="188.8526" sodipodi:t0="0"/>
            <path id="path3786" style="stroke:#000000;stroke-width:1px;fill:#ffff00" sodipodi:revolution="3" sodipodi:type="spiral" d="m-545.71 95.219c2.1488 9.7412-12.071 7.7025-16.19 3.5714-11.164-11.195-2.6156-29.192 9.0476-35.952 20.863-12.092 46.454 1.2724 55.714 21.667 13.589 29.929-5.1317 64.002-34.286 75.476-38.858 15.293-81.659-8.9701-95.238-46.905-17.088-47.737 12.796-99.369 59.524-115 56.594-18.932 117.11 16.614 134.76 72.143 20.804 65.439-20.428 134.87-84.762 154.52-74.276 22.694-152.64-24.238-174.29-97.381-24.596-83.11 28.046-170.42 110-194.05 91.94-26.506 188.21 31.852 213.81 122.62 28.423 100.77-35.657 206-135.24 233.57" transform="matrix(-1,0,0,-1,-1058.4,216.39)" sodipodi:argument="-17.495871" sodipodi:cy="95.219322" sodipodi:cx="-545.71429" sodipodi:expansion="1" sodipodi:radius="198.95647" sodipodi:t0="0"/>
            <path id="path3788" style="stroke:#000000;stroke-width:1px;fill:#ffff00" sodipodi:revolution="3" sodipodi:type="spiral" d="m-560 255.22c-1.0028 5.4436-7.8326 1.334-9.0476-1.6667-3.2926-8.1315 4.96-15.489 12.381-16.429 13.274-1.6815 23.475 10.671 23.81 23.095 0.49125 18.233-16.43 31.614-33.81 31.19-23.165-0.56385-39.812-22.201-38.571-44.524 1.5614-28.091 27.977-48.041 55.238-45.952 33.017 2.5294 56.287 33.756 53.333 65.952-3.4804 37.942-39.536 64.543-76.667 60.714-42.868-4.4206-72.807-45.318-68.095-87.381 5.3537-47.795 51.1-81.076 98.095-75.476 52.721 6.2818 89.348 56.883 82.857 108.81-7.2062 57.648-62.667 97.623-119.52 90.238" transform="matrix(.68801 .7257 -.7257 .68801 29.433 492.5)" sodipodi:argument="-17.096592" sodipodi:cy="255.21933" sodipodi:cx="-560" sodipodi:expansion="1" sodipodi:radius="110.39816" sodipodi:t0="0"/>
            <path id="path3776-1" style="stroke:#000000;stroke-width:1px;fill:#ffff00" sodipodi:revolution="3" sodipodi:type="spiral" d="m39.973 354.6c5.9181-0.26964 9.2714 6.2148 8.5077 11.4-1.2722 8.6374-10.658 13.122-18.633 11.275-11.339-2.6256-17.034-15.136-14.043-25.866 3.9157-14.046 19.627-20.973 33.099-16.81 16.757 5.1779 24.926 24.124 19.578 40.332-6.4254 19.471-28.624 28.888-47.566 22.345-22.188-7.67-32.855-33.13-25.112-54.81 8.8972-24.9 37.629-36.82 62.031-27.88 27.625 10.127 40.799 42.134 30.648 69.265-11.355 30.346-46.64 44.774-76.498 33.415-23.342-8.8801-39.239-31.521-40.556-56.34" inkscape:transform-center-x="1.9908322" inkscape:transform-center-y="-25.66603" transform="matrix(.84627 -.53275 .53275 .84627 -794.94 64.159)" sodipodi:argument="-15.707963" sodipodi:cy="360.93362" sodipodi:cx="37.142857" sodipodi:expansion="1" sodipodi:radius="65.714287" sodipodi:t0="0.10561349"/>
            <path id="path3828-4" style="stroke-linejoin:round;fill-rule:evenodd;color:#000000;stroke:#6f4b32;stroke-linecap:round;stroke-width:2.5;fill:#ff0000" sodipodi:type="star" sodipodi:sides="6" sodipodi:r1="77.722687" sodipodi:r2="24.80835" sodipodi:arg1="2.8430937" sodipodi:arg2="3.3666925" transform="translate(-654.29,8.5714)" inkscape:randomized="0" sodipodi:cy="415.21933" sodipodi:cx="85.714287" inkscape:rounded="1.8353374e-15" inkscape:flatsided="false" d="m11.429 438.08 50.103-28.394-32.755-47.367 49.642 29.193 24.644-52.051-0.4613 57.588 57.399-4.6832-50.103 28.394 32.755 47.367-49.642-29.193-24.644 52.051 0.46129-57.588z"/>
          </g>
          <path id="path3848" inkscape:original-d="m -374.28571,618.07647 48.57142,-74.28572 48.57143,28.57143 42.85715,-34.28571 22.85714,48.57143 48.57143,-57.14286 5.71428,57.14286" style="fill-rule:evenodd;fill:#000000" inkscape:connector-curvature="0" d="m-378.47 615.34 8.3697 5.4725c14.75-24.709 29.757-49.479 45.022-74.309 16.014 9.5024 32.054 18.976 48.12 28.422 14.065-11.85 28.177-23.648 42.336-35.395 7.7066 15.997 15.397 32.01 23.072 48.038l0.00001-0.00001c16.188-19.315 32.39-38.576 48.607-57.785 1.7159 18.887 3.6495 37.842 5.801 56.865-1.6581-19.072-3.534-38.213-5.6276-57.421-16.164 18.886-32.342 37.72-48.536 56.5-7.5633-16.353-15.111-32.721-22.642-49.105-14.412 11.11-28.872 22.169-43.378 33.176-16.315-9.6021-32.656-19.176-49.023-28.721-17.116 24.694-34.49 49.448-52.121 74.263z"/>
          <path id="path3852" style="stroke:#000000;stroke-width:1px;fill:none" inkscape:connector-curvature="0" d="m-474.29 426.65-8.5714 71.429 68.571 108.57"/>
          <path id="path3854" style="stroke:#06070d;stroke-width:1px;fill:none" inkscape:connector-curvature="0" d="m-57.143 395.22 2.8571 74.286-48.571 148.57"/>
        </g>
        <path id="path3955" d="m109.16 2883.8c12.379 115.6 47.446 265.86 2.8572 388.57l-154.29 14.286c-114.23-9.0994-75.261 25.572 22.857 77.143l345.71 5.7143-2.8571-74.286-77.143-37.143c98.245-115.93 143.09-233.64 14.286-357.14z" sodipodi:nodetypes="ccccccccc" style="fill:#deaa87" inkscape:connector-curvature="0"/>
        <path id="path3955-7" d="m719.71 2889.5c-12.379 115.6-41.731 260.14 2.8571 382.86l154.29 14.286c38.612 6.4515 112.86-1.9469-22.857 77.143l-345.71 5.7143 2.8571-74.286 77.143-37.143c-98.26-116-143.1-233.7-14.3-357.2z" sodipodi:nodetypes="ccccccccc" style="fill:#deaa87" inkscape:connector-curvature="0"/>
        <path id="path3977" d="m94.286 1689.5c-7.8361 305.61 63.403 351.4 268.57-42.857" sodipodi:nodetypes="ccc" style="stroke:#ffffff;stroke-width:3;fill:none" inkscape:connector-curvature="0"/>
        <path id="path3979" d="m437.14 1638.1c132.08 236.8 281.56 455.33 311.43 51.428" sodipodi:nodetypes="cc" style="stroke:#ffffff;stroke-width:3;fill:none" inkscape:connector-curvature="0"/>
        <path id="path3991" sodipodi:rx="25.714285" sodipodi:ry="102.85714" style="stroke-linejoin:round;fill-rule:evenodd;color:#000000;stroke:#ebecdb;stroke-linecap:round;stroke-width:3;fill:#803300" sodipodi:type="arc" d="m-248.57 2318.1c0 56.806-11.513 102.86-25.714 102.86-14.202 0-25.714-46.051-25.714-102.86 0-56.806 11.513-102.86 25.714-102.86 14.023 0 25.461 44.942 25.71 101.03" sodipodi:open="true" sodipodi:cy="2318.0764" sodipodi:cx="-274.28571" sodipodi:end="6.2653828" sodipodi:start="0"/>
        <path id="path3995" d="m-271.43 2286.6-211.43 8.5714 5.7143 94.286 202.86-25.714z" style="stroke:#000000;stroke-width:1px;fill:#ff6600" inkscape:connector-curvature="0"/>
        <path id="path3997" sodipodi:rx="15.714286" sodipodi:ry="57.142857" style="stroke-linejoin:round;fill-rule:evenodd;color:#000000;stroke:#ebecdb;stroke-linecap:round;stroke-width:3;fill:#d45500" sodipodi:type="arc" d="m-480 2346.6c0 31.559-7.0355 57.143-15.714 57.143-8.6788 0-15.714-25.584-15.714-57.143s7.0355-57.143 15.714-57.143c8.5697 0 15.559 24.968 15.712 56.126" sodipodi:open="true" transform="translate(8.5714)" sodipodi:cy="2346.6479" sodipodi:cx="-495.71429" sodipodi:end="6.2653828" sodipodi:start="0"/>
        <path id="path3999" sodipodi:rx="184.28572" sodipodi:ry="222.85715" style="stroke-linejoin:round;fill-rule:evenodd;color:#000000;stroke:#ebecdb;stroke-linecap:round;stroke-width:3;fill:#803300" sodipodi:type="arc" d="m1268.6 2138.1c0 123.08-82.508 222.86-184.29 222.86s-184.29-99.777-184.29-222.86 82.508-222.86 184.29-222.86c100.5 0 182.47 97.375 184.26 218.89" sodipodi:open="true" transform="translate(100,-17.143)" sodipodi:cy="2138.0764" sodipodi:cx="1084.2858" sodipodi:end="6.2653828" sodipodi:start="0"/>
        <path id="path4003" sodipodi:rx="114.40486" sodipodi:ry="136.25748" style="stroke-linejoin:round;fill-rule:evenodd;color:#000000;stroke:#ebecdb;stroke-linecap:round;stroke-width:2.6994;fill:#666666" sodipodi:type="arc" d="m1298.7 2120.7c0 75.253-51.221 136.26-114.4 136.26-63.184 0-114.4-61.004-114.4-136.26 0-75.253 51.221-136.26 114.4-136.26 62.39 0 113.28 59.536 114.39 133.83" sodipodi:open="true" sodipodi:cy="2120.6702" sodipodi:cx="1184.2943" sodipodi:end="6.2653828" sodipodi:start="0"/>
        <path id="path4005" d="m-51.429 3320.9 205.71 40-217.14 5.7143 5.7143 17.143 400 5.7143v-34.286l-222.86 5.7143-51.429-80z" sodipodi:nodetypes="ccccccccc" style="stroke:#000000;stroke-width:1px;fill:#008000" inkscape:connector-curvature="0"/>
        <path id="path4005-1" d="m882.86 3323.8-205.71 40 217.14 5.7143-5.7143 17.143-400 5.7143v-34.286l222.86 5.7143 51.429-80z" sodipodi:nodetypes="ccccccccc" style="stroke:#000000;stroke-width:1px;fill:#008000" inkscape:connector-curvature="0"/>
      </g>
      <path id="path4259" style="fill:#cccccc" inkscape:connector-curvature="0" d="m-1405.6 494.57c-15.268 40.799-83.817 64.97-68.963 109.53"/>
      <path id="path4261" style="fill:#cccccc" inkscape:connector-curvature="0" d="m-1350.7 505.38c-7.6592 15.252-48.621 90.196-29.17 97.322"/>
      <path id="path4263" style="fill:#cccccc" inkscape:connector-curvature="0" d="m-1313.4 529c34.891 26.328 60.85 57.929 60.85 85.19"/>
      <path id="path4267" style="stroke:#000000;stroke-width:1px;fill:none" inkscape:connector-curvature="0" d="m-1472.8 668.52c1.4406 5.3624 6.3313 8.4804 10.63 10.629"/>
      <path id="path4269" style="stroke:#000000;stroke-width:1px;fill:none" inkscape:connector-curvature="0" d="m-1449.2 672.06c0.52 3.1311 1.1811 6.2744 1.1811 9.4484"/>
      <path id="path4271" style="stroke:#000000;stroke-width:1px;fill:none" inkscape:connector-curvature="0" d="m-1269.6 674.42c-2.837 6.203-8.9634 8.1057-12.992 9.4484"/>
      <path id="path4273" style="stroke:#000000;stroke-width:1px;fill:none" inkscape:connector-curvature="0" d="m-1289.7 676.79c-17.916 15.844-5.7209 5.8131-12.992 9.4484"/>
    </g>
  </g>
  <metadata id="metadata59">
    <rdf:RDF>
      <cc:Work>
        <dc:format>image/svg+xml</dc:format>
        <dc:type rdf:resource="http://purl.org/dc/dcmitype/StillImage"/>
        <cc:license rdf:resource="http://creativecommons.org/licenses/publicdomain/"/>
        <dc:publisher>
          <cc:Agent rdf:about="http://openclipart.org/">
            <dc:title>Openclipart</dc:title>
          </cc:Agent>
        </dc:publisher>
      </cc:Work>
      <cc:License rdf:about="http://creativecommons.org/licenses/publicdomain/">
        <cc:permits rdf:resource="http://creativecommons.org/ns#Reproduction"/>
        <cc:permits rdf:resource="http://creativecommons.org/ns#Distribution"/>
        <cc:permits rdf:resource="http://creativecommons.org/ns#DerivativeWorks"/>
      </cc:License>
    </rdf:RDF>
  </metadata>
</svg>
