<?xml version="1.0"?>
<svg xmlns:rdf="http://www.w3.org/1999/02/22-rdf-syntax-ns#" xmlns="http://www.w3.org/2000/svg" xmlns:cc="http://creativecommons.org/ns#" xmlns:dc="http://purl.org/dc/elements/1.1/" xmlns:svg="http://www.w3.org/2000/svg" id="svg2839" viewBox="0 0 677.01 134.02" version="1.1">
  <g id="layer1" transform="translate(-23.763 -733.4)">
    <g id="g3836" transform="translate(-19.518 106)">
      <rect id="rect2881-8" transform="scale(1,-1)" height="36.429" width="5" y="-675.58" x="379.29"/>
      <rect id="rect2881-8-6" transform="matrix(.90631 -.42262 -.42262 -.90631 0 0)" height="36.429" width="5" y="-768.04" x="48.499"/>
      <rect id="rect2881-8-2" transform="rotate(205)" height="36.429" width="5" y="-445.34" x="-643.53"/>
      <rect id="rect2881-8-3" transform="matrix(-.70711 .70711 .70711 .70711 0 0)" height="36.429" width="5" y="692.58" x="221.4"/>
      <rect id="rect2881-8-4" transform="rotate(225)" height="36.429" width="5" y="-189.09" x="-766.33"/>
    </g>
    <g id="g3832" fill="#010101" transform="translate(-27.779 102.53)">
      <path id="path2962" d="m437.99 751.94c-7.2193-2.2812-13.759-8.4255-16.176-15.198-1.8631-5.2206-1.1627-15.368 1.3968-20.237 4.5629-8.6792 12.968-13.216 23.337-12.595 6.3509 0.37981 14.103 3.9163 17.214 7.853 2.7548 3.4858 5.4134 10.696 5.714 15.497 0.57022 9.106-7.0724 20.984-15.423 23.97-4.2549 1.5215-12.36 1.8796-16.063 0.70974zm228.41 11.001c-5.8006-2.4062-11.81-8.2598-14.042-13.677-1.0737-2.6068-1.2486-5.6188-0.67515-11.63 0.70412-7.3815 1.105-8.5251 4.4484-12.691 11.206-13.963 34.391-11.387 41.47 4.6069 3.2874 7.4278 3.3916 13.271 0.36032 20.192-5.6235 12.84-18.971 18.422-31.562 13.199zm-271.5-39.1c-3.4892-1.4572-3.8141-3.6523-2.958-19.988 0.59246-11.305 1.2416-16.582 2.1809-17.729 1.0458-1.2775 11.641-2.8259 48.607-7.104l47.27-5.4704 23.78-21.338 23.78-21.338 65.108 3.4122 65.108 3.4122 28.478 25.111c15.663 13.811 29.431 26.274 30.595 27.695 2.0631 2.517 2.0876 3.157 0.95304 24.806-1.4011 26.736-1.1352 26.112-10.912 25.599l-6.7096-0.35163-1.3609-6.0796c-1.9282-8.6137-3.6236-11.79-9.3508-17.52-7.324-7.3274-12.035-9.434-22.3-9.972-10.158-0.53235-15.661 1.2127-23.034 7.3038-5.1295 4.2376-11.104 13.822-11.364 18.229-0.30991 5.2636 3.8988 5.2414-82.582 0.43449l-80.711-4.4862-1.3512-6.079c-1.912-8.6023-3.6088-11.785-9.341-17.52-7.1716-7.1749-12.07-9.4088-21.801-9.9418-9.8762-0.54093-15.107 1.0089-22.464 6.6558-5.8798 4.5131-12.166 14.035-12.416 18.807-0.076 1.4502-0.70571 3.1477-1.3993 3.7722-1.2583 1.133-12.888 0.89629-15.805-0.32158zm198.31-38.958c1.2613-0.70637 1.7793-4.1861 2.801-18.813 0.81773-11.707 0.90968-18.678 0.26459-20.052-0.9622-2.0489-1.7704-2.1467-29.937-3.6229l-28.948-1.5171-18.329 15.797c-14.91 12.85-18.356 16.301-18.471 18.502-0.3036 5.7931-0.11699 5.8257 47.603 8.3098 25.591 1.3322 44.105 1.9063 45.016 1.3961zm87.403 2.6307c1.7553-1.4847 2.7585-3.3502 2.8618-5.3218 0.13531-2.5838-1.9944-5.4276-14.306-19.101l-14.465-16.065-23.6-1.2368c-12.98-0.68025-24.325-1.0013-25.212-0.71345-1.392 0.45209-1.7482 3.1338-2.6159 19.69-0.72708 13.874-0.68189 19.525 0.16372 20.464 0.89435 0.99325 9.7609 1.681 37.819 2.9333l36.651 1.6359 2.7028-2.286z"/>
      <path id="path2962-7" d="m342.11 751.94c7.2193-2.2812 13.759-8.4255 16.176-15.198 1.8631-5.2206 1.1627-15.368-1.3968-20.237-4.5629-8.6792-12.968-13.216-23.337-12.595-6.3509 0.37981-14.103 3.9163-17.214 7.853-2.7548 3.4858-5.4134 10.696-5.714 15.497-0.57022 9.106 7.0724 20.984 15.423 23.97 4.2549 1.5215 12.36 1.8796 16.063 0.70974zm-228.41 11.001c5.8006-2.4062 11.81-8.2598 14.042-13.677 1.0737-2.6068 1.2486-5.6188 0.67515-11.63-0.70412-7.3815-1.105-8.5251-4.4484-12.691-11.206-13.963-34.391-11.387-41.47 4.6069-3.2874 7.4278-3.3916 13.271-0.36032 20.192 5.6235 12.84 18.971 18.422 31.562 13.199zm271.5-39.101c3.4892-1.4572 3.8141-3.6523 2.958-19.988-0.59246-11.305-1.2416-16.582-2.1809-17.729-1.0458-1.2775-11.641-2.8259-48.607-7.104l-47.27-5.4704-23.78-21.338-23.78-21.338-65.108 3.4122-65.108 3.4122-28.478 25.111c-15.663 13.811-29.431 26.274-30.595 27.695-2.0631 2.517-2.0876 3.157-0.95304 24.806 1.4011 26.736 1.1352 26.112 10.912 25.599l6.7096-0.35163 1.3609-6.0796c1.9282-8.6137 3.6236-11.79 9.3508-17.52 7.324-7.3274 12.035-9.434 22.3-9.972 10.158-0.53235 15.661 1.2127 23.034 7.3038 5.1295 4.2376 11.104 13.822 11.364 18.229 0.30991 5.2636-3.8988 5.2414 82.582 0.43449l80.711-4.4862 1.3512-6.079c1.912-8.6023 3.6088-11.785 9.341-17.52 7.1716-7.1749 12.07-9.4088 21.801-9.9418 9.8762-0.54093 15.107 1.0089 22.464 6.6558 5.8798 4.5131 12.166 14.035 12.416 18.807 0.076 1.4502 0.70571 3.1477 1.3993 3.7722 1.2583 1.133 12.888 0.89629 15.805-0.32158zm-198.31-38.96c-1.2613-0.70637-1.7793-4.1861-2.801-18.813-0.81773-11.707-0.90968-18.678-0.26459-20.052 0.9622-2.0489 1.7704-2.1467 29.937-3.6229l28.948-1.5171 18.329 15.797c14.91 12.85 18.356 16.301 18.471 18.502 0.3036 5.7931 0.11699 5.8257-47.603 8.3098-25.591 1.3322-44.105 1.9063-45.016 1.3961zm-87.403 2.6307c-1.7553-1.4847-2.7585-3.3502-2.8618-5.3218-0.13531-2.5838 1.9944-5.4276 14.306-19.101l14.465-16.065 23.6-1.2368c12.98-0.68025 24.325-1.0013 25.212-0.71345 1.392 0.45209 1.7482 3.1338 2.6159 19.69 0.72708 13.874 0.68189 19.525-0.16372 20.464-0.89435 0.99325-9.7609 1.681-37.819 2.9333l-36.651 1.6359-2.7028-2.286z"/>
    </g>
  </g>
  <metadata>
    <rdf:RDF>
      <cc:Work>
        <dc:format>image/svg+xml</dc:format>
        <dc:type rdf:resource="http://purl.org/dc/dcmitype/StillImage"/>
        <cc:license rdf:resource="http://creativecommons.org/licenses/publicdomain/"/>
        <dc:publisher>
          <cc:Agent rdf:about="http://openclipart.org/">
            <dc:title>Openclipart</dc:title>
          </cc:Agent>
        </dc:publisher>
        <dc:title>Car accident</dc:title>
        <dc:date>2010-10-08T15:16:41</dc:date>
        <dc:description>Two abstract vehicles crashing into eachother. Uses a car svg image from user Rfc1394. </dc:description>
        <dc:source>http://openclipart.org/detail/89155/car-accident-by-z</dc:source>
        <dc:creator>
          <cc:Agent>
            <dc:title>Z</dc:title>
          </cc:Agent>
        </dc:creator>
        <dc:subject>
          <rdf:Bag>
            <rdf:li>accident</rdf:li>
            <rdf:li>car</rdf:li>
            <rdf:li>clip art</rdf:li>
            <rdf:li>clipart</rdf:li>
            <rdf:li>collision</rdf:li>
            <rdf:li>crash</rdf:li>
            <rdf:li>head on</rdf:li>
            <rdf:li>icon</rdf:li>
            <rdf:li>vehicle</rdf:li>
          </rdf:Bag>
        </dc:subject>
      </cc:Work>
      <cc:License rdf:about="http://creativecommons.org/licenses/publicdomain/">
        <cc:permits rdf:resource="http://creativecommons.org/ns#Reproduction"/>
        <cc:permits rdf:resource="http://creativecommons.org/ns#Distribution"/>
        <cc:permits rdf:resource="http://creativecommons.org/ns#DerivativeWorks"/>
      </cc:License>
    </rdf:RDF>
  </metadata>
</svg>
