<?xml version="1.0" encoding="UTF-8" standalone="no"?>
<svg id="svg7785" xmlns:rdf="http://www.w3.org/1999/02/22-rdf-syntax-ns#" xmlns="http://www.w3.org/2000/svg" height="80.943mm" width="133.19mm" version="1.1" xmlns:cc="http://creativecommons.org/ns#" xmlns:dc="http://purl.org/dc/elements/1.1/" viewBox="0 0 471.9394 286.80746">
<g id="layer1" transform="translate(3358.4 1306.8)">
<g id="g7654" transform="matrix(2.236 0 0 2.236 -4765 -3822.7)">
<g stroke-linejoin="round" fill-rule="evenodd" stroke="#000" stroke-linecap="round" stroke-miterlimit="2.6131" stroke-width="3.5433">
<path id="path7292" d="m659.76 1132.5c3.1222 1.3467 4.7806 4.4645 3.703 6.9626-1.0775 2.498-4.4832 3.4316-7.6056 2.0849-3.1224-1.3469-6.5551-6.5715-5.4776-9.0695s6.2575-1.3249 9.3802 0.022z" fill="#ccc"/>
<path id="path7294" d="m651.04 1168.5c13.101 1.4765 26.203 2.9533 39.305 4.4298-4.5815 21.63-12.385 42.882-16.862 63.583-1.0329 4.7768 3.742 10.123 0.0765 15.098-13.102-1.4768-26.204-2.9533-39.305-4.4298-12.059-14.325 11.19-52.454 16.786-78.681z" fill="#ccc"/>
<path id="path7296" d="m656.3 1176.7c-2.2458 7.9486-5.3384 15.868-8.2126 23.428-2.5771 6.7777-12.564 30.76-9.6041 39.955 9.4918 1.0698 18.984 2.1399 28.476 3.2095-0.65763-2.7531-1.0464-5.3319-0.39263-8.3547 4.0482-18.718 10.404-36.812 14.98-55.392-8.4156-0.9483-16.831-1.8968-25.247-2.8453z" fill="#803000"/>
<path id="path7298" d="m823.03 1126.9h14.541v7.781h-14.541v-7.781z" fill="#ccc"/>
<path id="path7300" d="m653.59 1226.2c1.8354 0.2066 3.145 1.9584 2.9246 3.9121-0.22 1.9539-1.8869 3.3701-3.7222 3.1631-1.8351-0.2068-3.1448-1.9587-2.9246-3.9121 0.22037-1.9537 1.8868-3.37 3.7222-3.1631z" fill="#b3b3b3"/>
<path id="path7302" d="m665.71 1184.7c1.835 0.2066 3.1446 1.9583 2.9246 3.9121-0.22038 1.9539-1.8869 3.3701-3.7222 3.1631-1.8355-0.2069-3.145-1.9587-2.9246-3.9121 0.22-1.9538 1.8868-3.37 3.7222-3.1631z" fill="#b3b3b3"/>
</g>
<g stroke-linejoin="round" fill-rule="evenodd" stroke="#000" stroke-linecap="round" stroke-miterlimit="2.6131" stroke-width="3.5433" fill="#ccc">
<path id="path7304" d="m700.28 1176h6.0112c0.41175 5.4869 2.5646 9.3625 5.5105 12.506-1.1689 0.4631-2.3379 0.9262-3.5065 1.3896-4.1495-3.0942-7.2442-7.2875-8.0152-13.896z"/>
<path id="path7306" d="m729.04 1185.3c-0.44538 17.474-33.586 16.543-37.87 7.1252-2.5559-5.619-3.915-13.176-1.5769-19.149h44.896c-6.1491 3.526-5.1144 3.9312-5.4496 12.024zm-33.019-2.8762c4.4185-7.2131 25.163-8.6261 27.774 0.1642 3.9129 13.172-22.755 13.94-26.497 8.8805-2.4584-3.3233-2.2302-7.4888-1.2774-9.0447z"/>
<path id="path7308" d="m659.46 1132.9h75.03v39.875h-82.116l-14.173-6.1806v-4.9266l14.173-4.3108 7.0866-24.457z"/>
<path id="path7310" d="m838.35 1132.9h-103.86v28.435h103.86v-28.435z"/>
<path id="path7312" d="m829.52 1158.4h-95.035v14.343h95.035v-14.343z"/>
</g>
<g fill-rule="evenodd">
<path id="path7314" stroke-linejoin="round" d="m829.52 1161h-28.47c-15.804-0.2328-14.714 7.8045-14.714 11.707h43.184v-11.707z" stroke="#000" stroke-linecap="round" stroke-miterlimit="2.6131" stroke-width="3.5433" fill="#808080"/>
<path id="path7316" stroke-linejoin="round" d="m658.82 1136.8h75.668v21.615h-82.754l7.0866-21.615z" stroke="#000" stroke-linecap="round" stroke-miterlimit="2.6131" stroke-width="3.5433" fill="#ccc"/>
<path id="path7318" d="m660.65 1139.8h69.696v5.6544h-69.696v-5.6544z" fill="#e6e6e6"/>
<path id="path7320" stroke-linejoin="round" d="m829.52 1137.1h-95.035v21.311h95.035v-21.311z" stroke="#000" stroke-linecap="round" stroke-miterlimit="2.6131" stroke-width="3.5433" fill="#ccc"/>
<path id="path7322" d="m827.04 1139.8h-90.085v5.6544h90.085v-5.6544z" fill="#e6e6e6"/>
</g>
<g stroke-linejoin="round" stroke="#000" stroke-linecap="round" stroke-miterlimit="2.6131" stroke-width="3.5433" fill="none">
<path id="path7324" d="m668.63 1137.3-6.5396 20.164"/>
<path id="path7326" d="m676.26 1137.3-6.5395 20.164"/>
<path id="path7328" d="m683.89 1137.3-6.5395 20.164"/>
<path id="path7330" d="m691.51 1137.3-6.5395 20.164"/>
<path id="path7332" d="m699.14 1137.3-6.5395 20.164"/>
<path id="path7334" d="m810.39 1139.2-5.5282 17.045"/>
<path id="path7336" d="m817.48 1139.2-5.5282 17.045"/>
<path id="path7338" d="m824.57 1139.2-5.5282 17.045"/>
<path id="path7340" d="m803.31 1139.2-5.5282 17.045"/>
<path id="path7342" d="m796.22 1139.2-5.5282 17.045"/>
</g>
</g>
</g>
</svg>
