<svg xmlns:svg="http://www.w3.org/2000/svg" viewBox="0 0 100 100"><svg:g><svg:path d="M 59.34620864179307,21.83040916707167 L 57.83745592318569,13.123061666423716 L 55.55764604262418,11.19805536410285 L 48.268485931883546,10.087052096056695 L 42.16959042187786,13.220378434894748 L 41.27113133377469,23.87129470559267 L 51.67006726756227,26.5090934058145 L 58.78857892676383,23.839582507281527 L 59.34620864179307,21.83040916707167 L 59.34620864179307,21.83040916707167" fill="none" stroke="black" /><svg:path d="M 38.44831874831586,30.431085551488476 L 45.93066893579887,33.6716143941159 L 54.77523458056764,33.42304737484294 L 60.30661545545494,29.902029578781846 L 59.71913061015644,21.423840932066756 L 53.410414313258386,17.762993188076592 L 43.91137345258693,18.765113171935642 L 40.292557639948974,21.541302339432633 L 38.44831874831586,30.431085551488476 L 38.44831874831586,30.431085551488476" fill="none" stroke="black" /><svg:path d="M 29.310211050899646,78.3600700728511 L 29.64319259890279,81.5293108728874 L 32.62372977078414,85.2704504674445 L 43.56092631942626,89.5368676441137 L 58.19244477638732,89.23396864440178 L 69.38451196732811,83.23922604382693 L 70.70368126922565,79.73923781643856 L 70.70137701420487,34.92941618283858 L 67.29992925852736,28.315954196354475 L 57.41874940940939,24.191260656442743 L 46.641481517209655,23.611912824293846 L 36.60210955166498,26.182134226608273 L 30.4050995307744,30.598962236858736 L 29.3118140109141,33.47115905586432 L 29.310211050899646,78.3600700728511 L 29.310211050899646,78.3600700728511" fill="none" stroke="black" /></svg:g></svg>