<?xml version="1.0"?>
<svg xmlns:rdf="http://www.w3.org/1999/02/22-rdf-syntax-ns#" xmlns="http://www.w3.org/2000/svg" xmlns:cc="http://creativecommons.org/ns#" xmlns:dc="http://purl.org/dc/elements/1.1/" xmlns:svg="http://www.w3.org/2000/svg" id="svg2" viewBox="0 0 951.36 622.88" version="1.1">
  <title id="title3716">An Office Desk</title>
  <defs id="defs4">
    <filter id="filter3712" width="1.085" y="-.23568" x="-.04249" height="1.4714" color-interpolation-filters="sRGB">
      <feGaussianBlur id="feGaussianBlur3714" stdDeviation="15.328206"/>
    </filter>
  </defs>
  <g id="layer1" transform="translate(-64.52 -422.96)" fill-opacity=".99608">
    <path id="path2934" opacity=".8" filter="url(#filter3712)" d="m101.31 916.93 588.13-155.97 289.66 66.55-602.3 181.59-275.49-92.17z"/>
    <path id="rect2896" transform="translate(0 308.27)" d="m138.19 224.69 688.85-74v192.21l-688.85 150v-268.21z"/>
    <g id="g2884">
      <path id="path2880" fill="#ccc" d="m702.69 499.73 11.496-1.5962v277.81l-11.496 1.5962v-277.81z"/>
      <path id="path2882" fill="#666" d="m692.33 497.99 11.855 1.734v277.81l-11.855-1.734v-277.81z"/>
    </g>
    <g id="g2888">
      <path id="path2876" fill="#ccc" d="m139.39 532.05 11.496-2.2444v390.63l-11.496 2.2444v-390.63z"/>
      <path id="path2878" fill="#666" d="m129.03 529.61 11.855 2.4382v390.63l-11.855-2.4382v-390.63z"/>
    </g>
    <g id="g2892">
      <path id="path2872" fill="#ccc" d="m946.98 478.64 11.496-2.0228v352.07l-11.496 2.0228v-352.07z"/>
      <path id="path2874" fill="#666" d="m936.62 476.44 11.855 2.1976v352.07l-11.855-2.1976v-352.07z"/>
    </g>
    <path id="rect2838" transform="translate(0 308.27)" fill="#c87137" d="m829.14 195.97 118.71-23.306v249.16l-118.77 37.75 0.0635-263.61z"/>
    <path id="rect2903" fill="#784421" d="m836.33 607.61 108.65-26v139.7l-108.65 30v-143.7z"/>
    <path id="rect2841" fill="#28170b" d="m523.06 449.18 306.08 57.485v261.17l-306.08-76v-242.66z"/>
    <path id="rect2831" fill="#ccc" d="m380.8 588.21 11.496-2.3592v410.62l-11.496 2.3592v-410.62z"/>
    <path id="rect2833" fill="#666" d="m370.44 585.65 11.855 2.563v410.62l-11.855-2.563v-410.62z"/>
    <path id="path2844" fill="#784421" d="m138.66 538.84 232.08 52v284.66l-230.08-72-2-264.66z"/>
    <path id="rect2846" transform="translate(0 308.27)" fill="#28170b" d="m101.31 206.66 279.5 63.952 0.0159 16.347-279.51-64.492v-15.807z"/>
    <path id="rect2835" transform="translate(0 308.27)" fill="#c87137" d="m392.3 281.07 166.69-32v283.21l-166.69 48v-299.21z"/>
    <path id="rect2849" fill="#784421" d="m380.8 576.87 586.22-109.4v12.37l-586.22 115.4v-18.37z"/>
    <path id="rect2906" fill="#784421" d="m836.33 515.65 108.52-22v71.442l-108.52 26v-75.442z"/>
    <path id="rect2852" transform="translate(0 308.27)" fill="#502d16" d="m101.31 206.66 584.13-91.97 281.66 44.55-586.3 111.55-279.49-64.13z"/>
    <path id="rect2855" transform="translate(0 308.27)" fill="#784421" d="m402.36 394.59 143.7-30v156.92l-143.7 42v-168.92z"/>
    <path id="rect2858" transform="translate(0 308.27)" fill="#784421" d="m405.95 298.94 141.54-26v75.442l-141.54 30v-79.442z"/>
    <path id="rect2861" transform="translate(0 308.27)" fill="#e6e6e6" d="m455.53 419.9 56.043-10v7.9034l-56.043 10v-7.9034z"/>
    <path id="path2864" fill="#ccc" d="m455.53 641.95 56.043-10v7.9034l-56.043 10v-7.9034z"/>
    <path id="path2866" fill="#ccc" d="m877.99 551.93 42.043-8v7.9034l-42.043 8v-7.9034z"/>
    <path id="path2868" fill="#ccc" d="m876.19 627.73 42.043-8v7.9034l-42.043 8v-7.9034z"/>
  </g>
  <metadata>
    <rdf:RDF>
      <cc:Work>
        <dc:format>image/svg+xml</dc:format>
        <dc:type rdf:resource="http://purl.org/dc/dcmitype/StillImage"/>
        <cc:license rdf:resource="http://creativecommons.org/licenses/publicdomain/"/>
        <dc:publisher>
          <cc:Agent rdf:about="http://openclipart.org/">
            <dc:title>Openclipart</dc:title>
          </cc:Agent>
        </dc:publisher>
        <dc:title>An Office Desk</dc:title>
        <dc:date>2010-05-02T13:12:22</dc:date>
        <dc:description>clip art, clipart, desk, office, table, </dc:description>
        <dc:source>http://openclipart.org/detail/58447/an-office-desk-by-sheikh_tuhin</dc:source>
        <dc:creator>
          <cc:Agent>
            <dc:title>sheikh_tuhin</dc:title>
          </cc:Agent>
        </dc:creator>
        <dc:subject>
          <rdf:Bag>
            <rdf:li>clip art</rdf:li>
            <rdf:li>clipart</rdf:li>
            <rdf:li>desk</rdf:li>
            <rdf:li>office</rdf:li>
            <rdf:li>table</rdf:li>
          </rdf:Bag>
        </dc:subject>
      </cc:Work>
      <cc:License rdf:about="http://creativecommons.org/licenses/publicdomain/">
        <cc:permits rdf:resource="http://creativecommons.org/ns#Reproduction"/>
        <cc:permits rdf:resource="http://creativecommons.org/ns#Distribution"/>
        <cc:permits rdf:resource="http://creativecommons.org/ns#DerivativeWorks"/>
      </cc:License>
    </rdf:RDF>
  </metadata>
</svg>
