<?xml version="1.0" encoding="UTF-8" standalone="no"?>
<!-- Created with Inkscape (http://www.inkscape.org/) -->

<svg
     xmlns:dc="http://purl.org/dc/elements/1.1/"
     xmlns:cc="http://creativecommons.org/ns#"
     xmlns:rdf="http://www.w3.org/1999/02/22-rdf-syntax-ns#"
     xmlns:svg="http://www.w3.org/2000/svg"
     xmlns="http://www.w3.org/2000/svg"
     xmlns:sodipodi="http://sodipodi.sourceforge.net/DTD/sodipodi-0.dtd"
     xmlns:inkscape="http://www.inkscape.org/namespaces/inkscape"
     width="254.1"
     height="332.7"
     id="svg3323"
     version="1.1"
     inkscape:version="0.48.5 r10040"
     sodipodi:docname="bear.svg">
    <defs
         id="defs3325" />
    <sodipodi:namedview
         id="base"
         pagecolor="#ffffff"
         bordercolor="#666666"
         borderopacity="1.0"
         inkscape:pageopacity="0.0"
         inkscape:pageshadow="2"
         inkscape:zoom="2"
         inkscape:cx="-5.095"
         inkscape:cy="143.9"
         inkscape:document-units="px"
         inkscape:current-layer="layer1"
         showgrid="false"
         fit-margin-top="0"
         fit-margin-left="0"
         fit-margin-right="0"
         fit-margin-bottom="0"
         inkscape:window-width="1920"
         inkscape:window-height="1111"
         inkscape:window-x="0"
         inkscape:window-y="32"
         inkscape:window-maximized="1" />
    <metadata
         id="metadata3328">
        <rdf:RDF>
            <cc:Work
                 rdf:about="">
                <dc:format>image/svg+xml</dc:format>
                <dc:type
                     rdf:resource="http://purl.org/dc/dcmitype/StillImage" />
                <dc:title />
            </cc:Work>
        </rdf:RDF>
    </metadata>
    <g
         inkscape:label="Layer 1"
         inkscape:groupmode="layer"
         id="layer1"
         transform="translate(-175.4,-409)">
        <path
             inkscape:connector-curvature="0"
             style="fill:#beb393;fill-opacity:1;fill-rule:evenodd;stroke:none"
             d="M 206,415.2 C 185.8,427.3 179,452.7 190.7,472.3 L 221.5,529.7 C 241.2,511.5 274.5,492.1 300.3,483.9 L 263.8,428.5 C 251.1,407.4 225,404.2 206,415.2 z"
             id="rect2985-4-3"
             sodipodi:nodetypes="cccccc" />
        <path
             inkscape:connector-curvature="0"
             style="fill:#a39b82;fill-opacity:1;fill-rule:evenodd;stroke:none"
             d="M 209.9,423.4 C 195,432.3 190,451.1 198.7,465.5 L 218,497.4 C 233.7,485.3 253.9,473.6 272.2,465.9 L 252.4,433.2 C 247.3,424.6 238.5,419.6 229.1,418.8 222.7,418.3 216,419.8 209.9,423.4 z"
             id="rect2985-4-3-7" />
        <path
             sodipodi:nodetypes="cccccc"
             id="path3862"
             d="M 396,415.5 C 375.5,404 350,410.7 338.9,430.7 L 304.5,485.9 C 330,493.9 363.5,513.1 383.4,531.5 L 413.2,472.2 C 425.2,450.8 415,426.5 396,415.5 z"
             style="fill:#beb393;fill-opacity:1;fill-rule:evenodd;stroke:none"
             inkscape:connector-curvature="0" />
        <path
             id="path3864"
             d="M 390.7,423.9 C 375.5,415.4 356.8,420.4 348.6,435.1 L 330.5,467.7 C 348.9,475.3 369.1,487 384.9,499.1 L 403.4,465.6 C 408.3,456.9 408.3,446.7 404.2,438.2 401.5,432.4 396.9,427.4 390.7,423.9 z"
             style="fill:#a39b82;fill-opacity:1;fill-rule:evenodd;stroke:none"
             inkscape:connector-curvature="0" />
        <path
             style="fill:#beb393;fill-opacity:1;fill-rule:evenodd;stroke:none"
             d="M 396.5,611.9 C 360.8,645.3 245.6,645.1 210,611.4 174.7,577.7 186.9,491.6 222.6,458.1 258.3,424.6 349.5,424.9 385,458.6 420.5,492.3 432.3,578.3 396.5,611.9 z"
             id="path3755"
             inkscape:connector-curvature="0"
             sodipodi:nodetypes="ccccc" />
        <path
             style="fill:#beb393;fill-opacity:1;stroke:none"
             d="M 365.1,726.4 C 348.9,739.6 261,739.6 244.8,726.4 228.7,713.2 213.7,657.5 244.8,628.2 284.5,590.2 330.9,587.4 365.1,628.2 390.3,660.4 381.3,713.2 365.1,726.4 z"
             id="path3011"
             inkscape:connector-curvature="0"
             sodipodi:nodetypes="scccs" />
        <path
             style="fill:#e3d69e;fill-opacity:1;stroke:none"
             d="M 369.1,681 369.1,689.3 C 369.1,707.5 340.2,722.3 304.5,722.3 268.7,722.3 240.4,707.5 240.4,689.3 L 240.4,681 C 240.4,662.7 268.7,648 304.5,648 340.2,648 369.1,662.7 369.1,681 z"
             id="rect4242-2"
             inkscape:connector-curvature="0" />
        <g
             id="g4323"
             transform="matrix(0.9919,-0.1271,0.1271,0.9919,-59.14,64.68)">
            <g
                 id="g4299"
                 transform="matrix(-1.399,0.0041,-0.1296,1.283,349,-200.7)"
                 inkscape:transform-center-y="44.66"
                 inkscape:transform-center-x="-1.346">
                <path
                     sodipodi:nodetypes="cccccc"
                     id="path4301"
                     d="M -95.1,693.9 C -104.1,689.9 -107,676.2 -101.4,663.1 L -73.8,603.5 C -64.9,611.2 -51.7,625.4 -51.6,640.8 L -68.7,678.1 C -74.7,692 -86.6,697.5 -95.1,693.9 z"
                     style="fill:#beb393;fill-opacity:1;fill-rule:evenodd;stroke:none"
                     inkscape:connector-curvature="0" />
                <g
                     transform="matrix(0.399,0.0804,0.0804,-0.399,-246.4,948)"
                     style="fill:#4d4d4d"
                     id="g4303">
                    <path
                         sodipodi:type="arc"
                         style="fill:#4d4d4d;fill-opacity:1;stroke:none"
                         id="path4305"
                         sodipodi:cx="-359.2"
                         sodipodi:cy="21.52"
                         sodipodi:rx="95.83"
                         sodipodi:ry="74.58"
                         d="M -263.4,21.52 C -263.4,62.71 -306.3,96.1 -359.2,96.1 -412.1,96.1 -455,62.71 -455,21.52 -455,21.29 -455,21.05 -455,20.82 L -359.2,21.52 z"
                         transform="matrix(0.091,0,0,-0.1145,285.4,707.6)"
                         sodipodi:start="0"
                         sodipodi:end="3.151" />
                    <path
                         sodipodi:type="arc"
                         style="fill:#4d4d4d;fill-opacity:1;stroke:none"
                         id="path4307"
                         sodipodi:cx="-359.2"
                         sodipodi:cy="21.52"
                         sodipodi:rx="95.83"
                         sodipodi:ry="74.58"
                         d="M -263.4,21.52 C -263.4,62.71 -306.3,96.1 -359.2,96.1 -412.1,96.1 -455,62.71 -455,21.52 -455,21.29 -455,21.05 -455,20.82 L -359.2,21.52 z"
                         transform="matrix(0.0863,0.0289,0.0363,-0.1086,301.9,721.8)"
                         sodipodi:start="0"
                         sodipodi:end="3.151" />
                    <path
                         sodipodi:type="arc"
                         style="fill:#4d4d4d;fill-opacity:1;stroke:none"
                         id="path4309"
                         sodipodi:cx="-359.2"
                         sodipodi:cy="21.52"
                         sodipodi:rx="95.83"
                         sodipodi:ry="74.58"
                         d="M -263.4,21.52 C -263.4,62.71 -306.3,96.1 -359.2,96.1 -412.1,96.1 -455,62.71 -455,21.52 -455,21.29 -455,21.05 -455,20.82 L -359.2,21.52 z"
                         transform="matrix(0.0545,-0.0373,-0.0469,-0.0686,239.8,704)"
                         sodipodi:start="0"
                         sodipodi:end="3.151" />
                    <path
                         sodipodi:end="3.151"
                         sodipodi:start="0"
                         transform="matrix(-0.0863,0.0289,-0.0363,-0.1086,203.9,721.8)"
                         d="M -263.4,21.52 C -263.4,62.71 -306.3,96.1 -359.2,96.1 -412.1,96.1 -455,62.71 -455,21.52 -455,21.29 -455,21.05 -455,20.82 L -359.2,21.52 z"
                         sodipodi:ry="74.58"
                         sodipodi:rx="95.83"
                         sodipodi:cy="21.52"
                         sodipodi:cx="-359.2"
                         id="path4311"
                         style="fill:#4d4d4d;fill-opacity:1;stroke:none"
                         sodipodi:type="arc" />
                </g>
            </g>
            <path
                 style="fill:#675c3e;fill-opacity:0.3026;fill-rule:evenodd;stroke:none"
                 d="M 395.4,559.8 C 380.7,564.2 366.4,570.7 356.7,581.7 351.9,586.1 352.4,592.3 352.4,597.9 352.5,614.1 350.7,630.4 351.8,646.4 353,655.5 359,665.2 368.4,669.3 356.5,667.4 346.3,655.4 347.2,638 L 348.5,588 C 357.3,572.3 379.7,563.9 395.4,559.8 z"
                 id="path4313"
                 inkscape:connector-curvature="0" />
        </g>
        <g
             id="use4333"
             transform="matrix(-0.8669,-0.4983,-0.4983,0.8669,846.8,302.6)"
             inkscape:transform-center-x="28.07"
             inkscape:transform-center-y="15.96">
            <g
                 inkscape:transform-center-x="20.19"
                 inkscape:transform-center-y="44.13"
                 transform="matrix(-1.287,-0.5485,-0.6257,1.128,685.8,-163)"
                 id="g4337">
                <path
                     inkscape:connector-curvature="0"
                     style="fill:#beb393;fill-opacity:1;fill-rule:evenodd;stroke:none"
                     d="M -95.1,693.9 C -104.1,689.9 -107,676.2 -101.4,663.1 L -73.8,603.5 C -64.9,611.2 -51.7,625.4 -51.6,640.8 L -68.7,678.1 C -74.7,692 -86.6,697.5 -95.1,693.9 z"
                     id="path4339"
                     sodipodi:nodetypes="cccccc" />
                <g
                     id="g4341"
                     style="fill:#4d4d4d"
                     transform="matrix(0.399,0.0804,0.0804,-0.399,-246.4,948)">
                    <path
                         sodipodi:end="3.151"
                         sodipodi:start="0"
                         transform="matrix(0.091,0,0,-0.1145,285.4,707.6)"
                         d="M -263.4,21.52 C -263.4,62.71 -306.3,96.1 -359.2,96.1 -412.1,96.1 -455,62.71 -455,21.52 -455,21.29 -455,21.05 -455,20.82 L -359.2,21.52 z"
                         sodipodi:ry="74.58"
                         sodipodi:rx="95.83"
                         sodipodi:cy="21.52"
                         sodipodi:cx="-359.2"
                         id="path4343"
                         style="fill:#4d4d4d;fill-opacity:1;stroke:none"
                         sodipodi:type="arc" />
                    <path
                         sodipodi:end="3.151"
                         sodipodi:start="0"
                         transform="matrix(0.0863,0.0289,0.0363,-0.1086,301.9,721.8)"
                         d="M -263.4,21.52 C -263.4,62.71 -306.3,96.1 -359.2,96.1 -412.1,96.1 -455,62.71 -455,21.52 -455,21.29 -455,21.05 -455,20.82 L -359.2,21.52 z"
                         sodipodi:ry="74.58"
                         sodipodi:rx="95.83"
                         sodipodi:cy="21.52"
                         sodipodi:cx="-359.2"
                         id="path4345"
                         style="fill:#4d4d4d;fill-opacity:1;stroke:none"
                         sodipodi:type="arc" />
                    <path
                         sodipodi:end="3.151"
                         sodipodi:start="0"
                         transform="matrix(0.0545,-0.0373,-0.0469,-0.0686,239.8,704)"
                         d="M -263.4,21.52 C -263.4,62.71 -306.3,96.1 -359.2,96.1 -412.1,96.1 -455,62.71 -455,21.52 -455,21.29 -455,21.05 -455,20.82 L -359.2,21.52 z"
                         sodipodi:ry="74.58"
                         sodipodi:rx="95.83"
                         sodipodi:cy="21.52"
                         sodipodi:cx="-359.2"
                         id="path4347"
                         style="fill:#4d4d4d;fill-opacity:1;stroke:none"
                         sodipodi:type="arc" />
                    <path
                         sodipodi:type="arc"
                         style="fill:#4d4d4d;fill-opacity:1;stroke:none"
                         id="path4349"
                         sodipodi:cx="-359.2"
                         sodipodi:cy="21.52"
                         sodipodi:rx="95.83"
                         sodipodi:ry="74.58"
                         d="M -263.4,21.52 C -263.4,62.71 -306.3,96.1 -359.2,96.1 -412.1,96.1 -455,62.71 -455,21.52 -455,21.29 -455,21.05 -455,20.82 L -359.2,21.52 z"
                         transform="matrix(-0.0863,0.0289,-0.0363,-0.1086,203.9,721.8)"
                         sodipodi:start="0"
                         sodipodi:end="3.151" />
                </g>
            </g>
            <path
                 inkscape:connector-curvature="0"
                 id="path4351"
                 d="M 395.4,559.8 C 380.7,564.2 366.4,570.7 356.7,581.7 351.9,586.1 352.4,592.3 352.4,597.9 352.5,614.1 350.7,630.4 351.8,646.4 353,655.5 359,665.2 368.4,669.3 356.5,667.4 346.3,655.4 347.2,638 L 348.5,588 C 357.3,572.3 379.7,563.9 395.4,559.8 z"
                 style="fill:#675c3e;fill-opacity:0.3026;fill-rule:evenodd;stroke:none" />
        </g>
        <path
             style="fill:#dbd2ad;fill-opacity:1;stroke:none"
             d="M 305.5,541.3 C 257.8,541.3 217.1,559.4 201.9,601.6 204.3,605.2 206.9,608.5 210,611.4 245.6,645.1 360.9,645.3 396.5,611.9 400.9,607.7 404.5,602.9 407.5,597.5 391.1,557.5 351.7,541.3 305.5,541.3 z"
             id="path3886"
             inkscape:connector-curvature="0"
             sodipodi:nodetypes="sccccs" />
        <path
             style="fill:#373328;fill-opacity:1;fill-rule:evenodd;stroke:none"
             inkscape:transform-center-x="0.2789"
             inkscape:transform-center-y="10.78"
             d="M 330.6,549.8 C 324.7,539.8 286.7,540.1 281,550.1 275.3,560.2 294.5,582.3 306.1,582.2 317.6,582.1 336.5,559.7 330.6,549.8 z"
             id="path3867"
             inkscape:connector-curvature="0"
             sodipodi:nodetypes="sccs" />
        <path
             sodipodi:type="arc"
             style="fill:none;stroke:#373328;stroke-width:32.0202;stroke-linecap:round;stroke-linejoin:round;stroke-miterlimit:4;stroke-opacity:1;stroke-dasharray:none"
             id="path3869"
             sodipodi:cx="-520"
             sodipodi:cy="-221.9"
             sodipodi:rx="228.6"
             sodipodi:ry="211.4"
             d="M -291.4,-221.9 A 228.6,211.4 0 0 1 -475.5,-14.54"
             sodipodi:start="0"
             sodipodi:end="1.375"
             sodipodi:open="true"
             transform="matrix(0.095,0,0,0.0924,333.7,603.8)" />
        <path
             sodipodi:open="true"
             sodipodi:end="1.375"
             sodipodi:start="0"
             d="M -291.4,-221.9 A 228.6,211.4 0 0 1 -475.5,-14.54"
             sodipodi:ry="211.4"
             sodipodi:rx="228.6"
             sodipodi:cy="-221.9"
             sodipodi:cx="-520"
             id="use3871"
             style="fill:none;stroke:#373328;stroke-width:32.0202;stroke-linecap:round;stroke-linejoin:round;stroke-miterlimit:4;stroke-opacity:1;stroke-dasharray:none"
             sodipodi:type="arc"
             transform="matrix(-0.095,0,0,0.0924,278.3,603.8)" />
        <g
             id="g4460"
             transform="translate(2,4)">
            <path
                 transform="matrix(0.1097,0,0,0.1153,284.5,604.3)"
                 d="M -288.6,-577.6 C -288.6,-469.5 -380.7,-381.9 -494.3,-381.9 -607.9,-381.9 -700,-469.5 -700,-577.6 -700,-685.7 -607.9,-773.3 -494.3,-773.3 -380.7,-773.3 -288.6,-685.7 -288.6,-577.6 z"
                 sodipodi:ry="195.7"
                 sodipodi:rx="205.7"
                 sodipodi:cy="-577.6"
                 sodipodi:cx="-494.3"
                 id="path3893"
                 style="fill:#efede3;fill-opacity:1;fill-rule:evenodd;stroke:none"
                 sodipodi:type="arc" />
            <path
                 transform="matrix(0.0931,0,0,0.0978,277,595.1)"
                 d="M -288.6,-577.6 C -288.6,-469.5 -380.7,-381.9 -494.3,-381.9 -607.9,-381.9 -700,-469.5 -700,-577.6 -700,-685.7 -607.9,-773.3 -494.3,-773.3 -380.7,-773.3 -288.6,-685.7 -288.6,-577.6 z"
                 sodipodi:ry="195.7"
                 sodipodi:rx="205.7"
                 sodipodi:cy="-577.6"
                 sodipodi:cx="-494.3"
                 id="path3893-0"
                 style="fill:#373328;fill-opacity:1;fill-rule:evenodd;stroke:none"
                 sodipodi:type="arc" />
            <path
                 transform="matrix(0.0171,0,0,0.0179,246.1,541.2)"
                 d="M -288.6,-577.6 C -288.6,-469.5 -380.7,-381.9 -494.3,-381.9 -607.9,-381.9 -700,-469.5 -700,-577.6 -700,-685.7 -607.9,-773.3 -494.3,-773.3 -380.7,-773.3 -288.6,-685.7 -288.6,-577.6 z"
                 sodipodi:ry="195.7"
                 sodipodi:rx="205.7"
                 sodipodi:cy="-577.6"
                 sodipodi:cx="-494.3"
                 id="path3893-1"
                 style="fill:#ffffff;fill-opacity:1;fill-rule:evenodd;stroke:none"
                 sodipodi:type="arc" />
        </g>
        <g
             id="g4455"
             transform="translate(0,4)">
            <path
                 transform="matrix(0.1097,0,0,0.1153,433,603.6)"
                 d="M -288.6,-577.6 C -288.6,-469.5 -380.7,-381.9 -494.3,-381.9 -607.9,-381.9 -700,-469.5 -700,-577.6 -700,-685.7 -607.9,-773.3 -494.3,-773.3 -380.7,-773.3 -288.6,-685.7 -288.6,-577.6 z"
                 sodipodi:ry="195.7"
                 sodipodi:rx="205.7"
                 sodipodi:cy="-577.6"
                 sodipodi:cx="-494.3"
                 id="path3893-8"
                 style="fill:#efede3;fill-opacity:1;fill-rule:evenodd;stroke:none"
                 sodipodi:type="arc" />
            <path
                 sodipodi:type="arc"
                 style="fill:#373328;fill-opacity:1;fill-rule:evenodd;stroke:none"
                 id="path3942"
                 sodipodi:cx="-494.3"
                 sodipodi:cy="-577.6"
                 sodipodi:rx="205.7"
                 sodipodi:ry="195.7"
                 d="M -288.6,-577.6 C -288.6,-469.5 -380.7,-381.9 -494.3,-381.9 -607.9,-381.9 -700,-469.5 -700,-577.6 -700,-685.7 -607.9,-773.3 -494.3,-773.3 -380.7,-773.3 -288.6,-685.7 -288.6,-577.6 z"
                 transform="matrix(0.0931,0,0,0.0978,423.7,595.1)" />
            <path
                 sodipodi:type="arc"
                 style="fill:#ffffff;fill-opacity:1;fill-rule:evenodd;stroke:none"
                 id="path3944"
                 sodipodi:cx="-494.3"
                 sodipodi:cy="-577.6"
                 sodipodi:rx="205.7"
                 sodipodi:ry="195.7"
                 d="M -288.6,-577.6 C -288.6,-469.5 -380.7,-381.9 -494.3,-381.9 -607.9,-381.9 -700,-469.5 -700,-577.6 -700,-685.7 -607.9,-773.3 -494.3,-773.3 -380.7,-773.3 -288.6,-685.7 -288.6,-577.6 z"
                 transform="matrix(0.0171,0,0,0.0179,392.7,541.2)" />
        </g>
        <g
             id="g4240"
             transform="translate(0,-20)">
            <path
                 id="path3011-6"
                 d="M 254.6,689.4 C 233.9,689.4 216.4,703.6 211.2,722.9 211.7,736.9 214,750 218.4,754.4 228.1,764.1 280.8,764.1 290.5,754.4 294.9,749.9 297.3,736.4 297.7,722 292.2,703.2 275,689.4 254.6,689.4 z"
                 style="fill:#beb393;fill-opacity:1;stroke:none"
                 inkscape:connector-curvature="0" />
            <path
                 inkscape:connector-curvature="0"
                 id="rect4242-7"
                 d="M 249,721 255.1,721 C 268.6,721 279.5,728.6 279.5,737.9 279.5,747.2 268.6,754.6 255.1,754.6 L 249,754.6 C 235.6,754.6 224.7,747.2 224.7,737.9 224.7,728.6 235.6,721 249,721 z"
                 style="fill:#e3d69e;fill-opacity:1;stroke:none" />
            <path
                 inkscape:connector-curvature="0"
                 style="fill:#beb393;fill-opacity:1;stroke:none"
                 d="M 358.3,689.4 C 379,689.4 396.5,703.6 401.7,722.9 401.2,736.9 398.9,750 394.5,754.4 384.8,764.1 332.1,764.1 322.4,754.4 318,749.9 315.6,736.4 315.2,722 320.7,703.2 337.9,689.4 358.3,689.4 z"
                 id="path3858" />
            <path
                 style="fill:#e3d69e;fill-opacity:1;stroke:none"
                 d="M 363.7,721.6 357.6,721.6 C 344.1,721.6 333.2,729.2 333.2,738.5 333.2,747.8 344.1,755.2 357.6,755.2 L 363.7,755.2 C 377.1,755.2 388,747.8 388,738.5 388,729.2 377.1,721.6 363.7,721.6 z"
                 id="path3860"
                 inkscape:connector-curvature="0" />
            <g
                 transform="translate(0,8)"
                 style="fill:#4d4d4d"
                 id="g4059">
                <path
                     sodipodi:type="arc"
                     style="fill:#4d4d4d;fill-opacity:1;stroke:none"
                     id="path3967-3-5"
                     sodipodi:cx="-359.2"
                     sodipodi:cy="21.52"
                     sodipodi:rx="95.83"
                     sodipodi:ry="74.58"
                     d="M -263.4,21.52 C -263.4,62.71 -306.3,96.1 -359.2,96.1 -412.1,96.1 -455,62.71 -455,21.52 -455,21.29 -455,21.05 -455,20.82 L -359.2,21.52 z"
                     transform="matrix(0.091,0,0,-0.1145,285.4,707.6)"
                     sodipodi:start="0"
                     sodipodi:end="3.151" />
                <path
                     sodipodi:type="arc"
                     style="fill:#4d4d4d;fill-opacity:1;stroke:none"
                     id="path3967-3-5-2"
                     sodipodi:cx="-359.2"
                     sodipodi:cy="21.52"
                     sodipodi:rx="95.83"
                     sodipodi:ry="74.58"
                     d="M -263.4,21.52 C -263.4,62.71 -306.3,96.1 -359.2,96.1 -412.1,96.1 -455,62.71 -455,21.52 -455,21.29 -455,21.05 -455,20.82 L -359.2,21.52 z"
                     transform="matrix(0.0863,0.0289,0.0363,-0.1086,301.9,721.8)"
                     sodipodi:start="0"
                     sodipodi:end="3.151" />
                <path
                     sodipodi:type="arc"
                     style="fill:#4d4d4d;fill-opacity:1;stroke:none"
                     id="path3967-3-5-1"
                     sodipodi:cx="-359.2"
                     sodipodi:cy="21.52"
                     sodipodi:rx="95.83"
                     sodipodi:ry="74.58"
                     d="M -263.4,21.52 C -263.4,62.71 -306.3,96.1 -359.2,96.1 -412.1,96.1 -455,62.71 -455,21.52 -455,21.29 -455,21.05 -455,20.82 L -359.2,21.52 z"
                     transform="matrix(0.0545,-0.0373,-0.0469,-0.0686,239.8,704)"
                     sodipodi:start="0"
                     sodipodi:end="3.151" />
                <path
                     sodipodi:end="3.151"
                     sodipodi:start="0"
                     transform="matrix(-0.0863,0.0289,-0.0363,-0.1086,203.9,721.8)"
                     d="M -263.4,21.52 C -263.4,62.71 -306.3,96.1 -359.2,96.1 -412.1,96.1 -455,62.71 -455,21.52 -455,21.29 -455,21.05 -455,20.82 L -359.2,21.52 z"
                     sodipodi:ry="74.58"
                     sodipodi:rx="95.83"
                     sodipodi:cy="21.52"
                     sodipodi:cx="-359.2"
                     id="use4055"
                     style="fill:#4d4d4d;fill-opacity:1;stroke:none"
                     sodipodi:type="arc" />
            </g>
            <g
                 style="fill:#4d4d4d"
                 transform="matrix(-1,0,0,1,613.3,8)"
                 id="use4065">
                <path
                     sodipodi:end="3.151"
                     sodipodi:start="0"
                     transform="matrix(0.091,0,0,-0.1145,285.4,707.6)"
                     d="M -263.4,21.52 C -263.4,62.71 -306.3,96.1 -359.2,96.1 -412.1,96.1 -455,62.71 -455,21.52 -455,21.29 -455,21.05 -455,20.82 L -359.2,21.52 z"
                     sodipodi:ry="74.58"
                     sodipodi:rx="95.83"
                     sodipodi:cy="21.52"
                     sodipodi:cx="-359.2"
                     id="path4069"
                     style="fill:#4d4d4d;fill-opacity:1;stroke:none"
                     sodipodi:type="arc" />
                <path
                     sodipodi:end="3.151"
                     sodipodi:start="0"
                     transform="matrix(0.0863,0.0289,0.0363,-0.1086,301.9,721.8)"
                     d="M -263.4,21.52 C -263.4,62.71 -306.3,96.1 -359.2,96.1 -412.1,96.1 -455,62.71 -455,21.52 -455,21.29 -455,21.05 -455,20.82 L -359.2,21.52 z"
                     sodipodi:ry="74.58"
                     sodipodi:rx="95.83"
                     sodipodi:cy="21.52"
                     sodipodi:cx="-359.2"
                     id="path4071"
                     style="fill:#4d4d4d;fill-opacity:1;stroke:none"
                     sodipodi:type="arc" />
                <path
                     sodipodi:end="3.151"
                     sodipodi:start="0"
                     transform="matrix(0.0545,-0.0373,-0.0469,-0.0686,239.8,704)"
                     d="M -263.4,21.52 C -263.4,62.71 -306.3,96.1 -359.2,96.1 -412.1,96.1 -455,62.71 -455,21.52 -455,21.29 -455,21.05 -455,20.82 L -359.2,21.52 z"
                     sodipodi:ry="74.58"
                     sodipodi:rx="95.83"
                     sodipodi:cy="21.52"
                     sodipodi:cx="-359.2"
                     id="path4073"
                     style="fill:#4d4d4d;fill-opacity:1;stroke:none"
                     sodipodi:type="arc" />
                <path
                     sodipodi:type="arc"
                     style="fill:#4d4d4d;fill-opacity:1;stroke:none"
                     id="path4075"
                     sodipodi:cx="-359.2"
                     sodipodi:cy="21.52"
                     sodipodi:rx="95.83"
                     sodipodi:ry="74.58"
                     d="M -263.4,21.52 C -263.4,62.71 -306.3,96.1 -359.2,96.1 -412.1,96.1 -455,62.71 -455,21.52 -455,21.29 -455,21.05 -455,20.82 L -359.2,21.52 z"
                     transform="matrix(-0.0863,0.0289,-0.0363,-0.1086,203.9,721.8)"
                     sodipodi:start="0"
                     sodipodi:end="3.151" />
            </g>
        </g>
    </g>
</svg>
