<?xml version="1.0" encoding="UTF-8" standalone="no"?>
<svg xmlns:rdf="http://www.w3.org/1999/02/22-rdf-syntax-ns#" xmlns="http://www.w3.org/2000/svg" height="689.33pt" width="955.35pt" version="1.1" xmlns:cc="http://creativecommons.org/ns#" xmlns:dc="http://purl.org/dc/elements/1.1/" viewBox="0 0 955.3476 689.33417">
<g transform="translate(-45.77 -60.697)">
<g>
<path d="m553 60.702c-19.96 0.105-39.91 2.192-59.62 6.698-114.05 16.94-221.26 78.71-294.99 166.02-21.5 28.79-35.62 64.04-63.79 87.18-15.54 11.25-39.581 24.84-35.241 47.7 3.41 11.97 15.24 18.58 25.47 24.18-1.17 15.2-4.6094 30.411-4.0094 45.861-13.33 8.44-29.41 14.62-39.72 26.68-2.12 1.96-4.1094 4.0791-6.0594 6.2391-5.6 1.95-3.7013 11.02-9.4313 13.35-4.48 4.07-13.699 11.211-5.8094 16.311 2.38 5.75 11.72 4.8697 17.13 5.6797 5.21 2.65 16.141 1.5497 9.361 8.7297-13.53 6.85-27.85 12.33-40.52 20.8 0.97 1.19 2.15 2.2809 3.65 2.7609-2.52 1.86-5.4397 6.1591-1.0297 7.7891 13.81 3.94 28.449 3.7606 42.569 6.0906 5.82 15.07 25.761-3.1106 34.061 10.259-5.67 11.38-17 18.441-23.85 29.111-2.23 1.67-3.6597 4.1891-4.4297 6.8391-2.95 2.19-2.79 9.8109 2.2 10.211 9.44 1.57 18.799-2.8 27.159-6.75 5.51-0.82 10.72-3.4703 16.43-3.4203 7.59 39.19 28.991 76.59 63.441 98 28.9 20.64 65.9 20.409 99.1 28.909 53.4 13.16 108.84 12.3 163.18 18.88 38.89 1.12 77.95-2.34 116.62 3.35 93.72 6.75 194.83-3.1591 275.14-56.139 46.91-30.55 78.301-82.581 83.761-138.26-1.29-14.24 18.099-11.609 25.939-18.869 10.23-4.28 6.32-16.97 1.3-23.92 12.69-15.23 25.981-31.461 29.531-51.541 5.34-34.31-27.43-57.659-55.37-68.659-1.23-3.73-5.871-11.011-0.36096-14.011 13.84-8.93 24.421-24.829 23.281-41.789 0.22-22.32-11.951-42.08-24.231-59.8-17.99-23.32-37.179-45.5-59.689-64.35-49.1-54.2-113.88-92.631-181.61-119.39-47.41-18.328-98.53-30.999-149.56-30.728z" fill="#b07435"/>
<path fill="#030000" d="m553 60.702c-19.96 0.105-39.91 2.192-59.62 6.698-114.05 16.94-221.26 78.71-294.99 166.02-21.5 28.79-35.62 64.04-63.79 87.18-15.54 11.25-39.581 24.84-35.241 47.7 3.41 11.97 15.24 18.58 25.47 24.18-1.17 15.2-4.6094 30.411-4.0094 45.861-13.33 8.44-29.41 14.62-39.72 26.68 12.01-8.85 26.28-13.4 40.78-16.05 0.25 1.5 0.75 4.5094 1 6.0094 0.29-19.88 2.6103-40.22 9.2203-58.97 25.3 8.54 51.119 15.661 77.409 20.531 12.26 1.01 21.551 9.8797 31.231 16.53 15.22 11.21-7.1306 36.969 9.1594 46.489 32.46 5.41 42.369-33.429 62.609-49.489 15.07 1.96 30.77 0.37938 45.5 4.4594 16.55-0.38 33.01 1.8103 49.52 2.4203-0.59 10.85-3.4594 21.98-0.2094 32.68 4.43 11.52 12.25 23.11 8.95 36.05-6.78 11.12-25.75 13.33-35.08 4.3-7.6-16.7 10.65-29.44 10.4-45.32-4.71-12.17-17.3-18.789-27.47-25.719 7.49 8.34 17.339 15.279 20.739 26.519 0.1 17.45-18.8 30.86-13.3 48.85 10.32 15.77 39.981 14.701 45.261-5.4188 12.25-23.29-10.581-49.09 1.8094-71.55 71.6 4.27 143.29 10.3 215.06 8.0297-3.33 10.37-12.7 16.84-19.75 24.57 9.78-5.34 19.74-10.67 28.68-17.25 4.51-11.46 19.39-6.0012 28.63-7.2812 2.55 16.26 11.25 32.39 26.68 39.67-8.87-12.74-23.579-24.079-23.659-40.759 41.17-2.06 82.19-6.9209 122.73-14.411 12.64-0.77 24.5-7.3897 37.18-6.5797 3.24 6.43 6.2697 18.68-2.7203 21.42-10.78 3.03-22.869 0.41062-31.619-6.5594 5.88 12.3 20.169 21.06 33.439 14.25 15.35-4.22 12.69-22.02 8-33.45 32.07-8.06 62.79-20.911 92.62-34.831 3.26 24.45 5.5797 50.771-4.8703 73.891-19.05 39.15-64.07 51.02-100.33 68.65-78.68 33.03-166.12 35.511-250.12 32.691-73.84-2.58-147.31-10.881-220.98-16.011-61.9-4.18-125.52-5.0191-184.85-25.139-20.11-5.94-36.45-19.961-44.98-39.091 2.7 11.87 6.8197 23.751 15.33 32.791 3.04 2.65 6.3597 5.0188 9.0797 8.0188 1.56 5.16 5.0003 8.2106 10.52 6.4406 34.31 15.28 72.58 16.95 109.58 18.62 11.29-0.07 22.61-0.39031 33.88 0.62969 2.5 0.03 5.0206 0.1 7.5406 0.2 4.85 0.23 9.7203 0.58938 14.57 1.0094 26.63 2.33 53.19 6.2212 79.95 6.5812 8.99-2.7 2.1503 1.05 3.0703 3.85 20.91-4.91 42.579 0.64876 63.839-1.3812 28.83 0.31 57.471 3.7609 85.991 7.7609 3.25 0.37 6.5794 0.80031 9.8594 1.1703 6 0.8 11.99 1.6894 18.02 2.2094 10.12 1.55 21.81 1.3797 30.5 2.4797-14.61 19.01-27.661 43.32-52.691 50.28-14.42 4.91-26.199-12.879-40.169-5.2594-10.48 2.77-19.931 12.43-31.181 9.1703-2.98-6.23-3.1588-13.37-3.0188-20.13-10.3 3.78-22.111 13.829-32.811 4.8391-9.32-12.68-5.5003-29.79-11.22-43.72-5.63-6.25-12.95 1.8909-18.45 4.4109 3.01 3.56 6.4506 7.0797 7.7906 11.68-17.49 11.41-34.56 25.351-55.07 30.841-7.74 2.05-10.09-7.9709-9.1703-13.661-7.77 8.83-13.87 20.811-25.45 25.061-2.43-4.23 0.0006-9.19 0.041-13.75-14.75 15.18-26.23 42.79-49.83 46.33-1.12-13.25 10.089-24.14 9.5094-37.25-4.07 0.08-9.5991-0.38-12.139 3.65 11.15 8.53-9.7806 30.49 2.9594 39.78 23.83 0.15 26.41-37.751 51.55-35.491 11.33-1.36 19.3-23.66 30.88-10.13 22.97 0.96 40.841-17.189 58.061-30.059 4.81 7.91 5.8194 20.469 15.609 25.259 8.96 3.86 20.21-0.91031 28.22 5.9297 2.75 6.23 2.1097 15.591 10.28 17.731 14.62 5.37 28.609-6.0612 43.059-6.9812 11.63 0.54 24.14 2.7803 34.92-2.9297 3.95-1.09 7.2803-6.47 11.72-3.95 11.36 2.74 18.49-8.16 27.13-13.15 8.23 4.58 10.53 15.59 17.45 21.68 7.9 3.97 15.41-1.7691 21.82-5.5891 10.88 1.4 17.35 12.26 27.4 15.98-0.59-6.28 0.8797-15.45-7.3203-16.62-12.88-3.06-17.179-16.239-19.539-27.709-4.38 10.43-6.4312 23.19-16.531 30.03-14.33 0.2-13.68-20.429-16.25-29.909-3.57-10.66 11.15-9.3903 17.07-8.3703 18.05 5.71 37.571 6.0103 55.941 1.5203 1.87 17.01 9.0103 45.719-12.13 51.989 5.53 5.45 16.42 4.76 18.88-3.4 3.34-16.21-1.71-32.72-0.85-49.08 18.73-7.41 40.009-9.68 58.459 0.05 30.21 9.96 58.41 35.34 91.85 27.4-33.66-13.81-64.63-35.36-99.88-45.92-28.81 0.09-54.32 20.961-83.7 17.461-12.27-1.31-25.711-7.5503-31.641-18.42 49.24 1.31 98.651-4.2406 146.83-14.391 6.22-1.71 12.21-4.0991 18.15-6.5891l0.7391-0.3c12.51-6.82 25.43-13.03 38.87-17.82 8.94-4.14 18.219-7.4997 27.359-11.18 18.25-8.12 36.761-16 52.861-28.05 2.02-1.66 4.0697-3.2912 6.1797-4.8312 14.04-12.69 21.101-30.71 24.141-48.98 0.93-7.86 1.6291-15.749 1.9391-23.659 22.4-0.98 45.291 18.52 40.861 42.32-5.68 48.4-54.491 84.13-100.73 85.2 1.53 6.67 8.3806 12.849 6.6906 20.689-12.07 4.19-26.021-1.5994-37.841 3.6406-7.17 11.11 2.92 24.04 0.95 36.23 6.31-10.41 3.13-30.56 20.85-30.22 7.36 4.26 16.361 13.82 25.711 7.55 5.71-5.79 13.569-9.1403 21.839-7.3203 0.32 17.67-4.9 35.95-13.6 51.42-37.21 52-95.61 85.21-156.68 101.12-98.29 26.47-201.57 18.93-301.93 11.8-72.83-6.96-148.2-6.2697-217.53-32.48-40.79-14.38-77.06-48.381-83.75-92.441-2.26-9.76 8.6794-0.17969 12.309-0.87969 14.09-1.78 24.72-12.04 36.62-18.8 5.26-8.13 10.091 0.24031 16.041 2.3203-0.54 10.11-5.92 22.339 3.55 30.109 22.06 11.29 44.289-5.8603 66.339-3.6203 0.56-5.64 6.1709-6.8597 10.561-8.5797 22.6-8.16 41.65-22.719 58.73-39.209 8.53-9.76 26.69-9.6 29.8 4.85 1.76 13.02 24.69 10.2 25.85 1.7203-6.44 2.4-16.841 1.3188-18.011-6.7812-1.67-5.77 1.0906-15.469-6.6094-17.489-21.12-2.16-35.549 15.86-52.159 25.48-6.48 4.05-16.96 11.049-23.2 3.2594-23.09 15.53-46.15 32.901-73.45 40.291-7.13 2.53-18.57 0.10969-16.35-9.7203-1.75-17.51 15.139-27.6 20.169-42.53-8.18 4.9-15.039 17.17-25.869 13.78-7.02-9.48 1.58-27.799-10.2-34.839-21.08-0.83-37.801 18.34-59.241 16.3-5.01-1.4-3.6894-9.6006-9.5594-9.8906-30.5 1.18-59.84-9.5394-88.87-17.709-2.52 1.86-5.4397 6.1591-1.0297 7.7891 13.81 3.94 28.449 3.7606 42.569 6.0906 5.82 15.07 25.761-3.1106 34.061 10.259-5.67 11.38-17 18.441-23.85 29.111 10.85-8.05 20.59-18.551 31.62-25.761 16.31 16.68 37.999 2.3597 55.259-4.4703 12.43-5.07 14.611 11.571 17.491 19.861-17.49 1.78-24.481 25.22-42.881 23.78-8.36-1.56-3.2691-11.37-1.7391-16.65-6.57 2.47-12.411 6.5103-18.391 10.12 7.59 39.19 28.991 76.59 63.441 98 28.9 20.64 65.9 20.409 99.1 28.909 53.4 13.16 108.84 12.3 163.18 18.88 38.89 1.12 77.95-2.34 116.62 3.35 93.72 6.75 194.83-3.1591 275.14-56.139 46.91-30.55 78.301-82.581 83.761-138.26-1.29-14.24 18.099-11.609 25.939-18.869 10.23-4.28 6.32-16.97 1.3-23.92 12.69-15.23 25.981-31.461 29.531-51.541 5.34-34.31-27.43-57.659-55.37-68.659-1.23-3.73-5.8709-11.011-0.3609-14.011 13.84-8.93 24.421-24.829 23.281-41.789 0.22-22.32-11.951-42.08-24.231-59.8-17.99-23.32-37.179-45.5-59.689-64.35-49.1-54.2-113.88-92.631-181.61-119.39-47.41-18.328-98.53-30.999-149.55-30.728zm-1.6969 14.928c7.5459-0.01699 14.879 0.34938 20.662 1.3906 6.78 0.12 13.6 0.73 20.22 2.3 118.58 11.14 229.89 74.29 304.99 165.5 26.3 32.06 54.591 68.87 51.741 112.67-4.8 13.76-18.42 21.65-30.95 27.48-35.48 15.5-74.421 19.389-111.79 28.209-184.99 39.14-376.54 29.81-562.2-0.0703-40.95-6.62-81.55-15.78-121.92-25.18-10.9-1.61-16.429-12.479-11.359-22.139 11.65-24.64 31.2-44.121 48.58-64.581 77.61-125.42 214.79-216.84 364.7-224.24 7.5712-0.66375 17.626-1.3188 27.328-1.3406zm-321.14 345.53c22.2 3.33 46.691 5.8103 67.611 8.7203-11.25 15.78-19.93 43.391-43.22 43.091-11.05-9.17 1.9803-23.34-0.08-34.18-5.88-7.86-21.651-7.7812-24.311-17.631zm-155.12 50.1c-5.6 1.95-3.7012 11.02-9.4312 13.35-4.48 4.07-13.699 11.211-5.8094 16.311 5.98-15.49 29.24-13.26 40.08-4.3703 1.33 13.98-14.35 9.64-22.95 10.05 5.21 2.65 16.141 1.5497 9.3609 8.7297 8.54-4.94 21.719-9.0403 23.639-20.07-8.1-10.75-39.219-4.49-34.889-24zm580.14 1.9c-20.2 8.5-31.579 29.671-49.209 41.941-4.45 3.61-13.241 4.0797-15.741-1.9703-1.78-14.86 9.0506-26.63 16.941-37.95-16.1 10.73-43.79 29.57-28.4 51.25 35.01 10.42 45.36-43.319 76.57-47.289 5.66 3.17 3.7294 11.35 4.8594 16.55-0.18 20.95 27.661 35.02 44.591 23.15 4.84-4.18 4.4291-11.49 2.6891-17.12-3 17.76-31.019 22.08-37.789 4.7297-3.34-10.64 2.0491-32.761-14.511-33.291zm-169.23 8.9c-1.1402 0.0231-2.2 0.50781-2.6406 1.6984-14.58 10.13-35.529 27.361-25.289 47.081 24.22 15.68 51.869-20.841 34.739-40.591 1.37 9.8 4.78 21.48-2.8 29.7-5.58 10.98-24.949 14.8-29.989 1.4 0.51-15.98 14.42-30.459 28.97-35.309 2.42-1.8425-0.4823-4.0305-2.9906-3.9797zm480.2 33.109c5.79 2.24 7.2606 9.8097 3.5406 14.43-9.08 9.36-22.58 11.59-34.72 14.43 10.13-9.85 21.88-18.079 31.18-28.859zm-32.88 30.1c4.99 0 10.11 10.28 3.75 12.85-7.02 2.25-14.561 1.7891-21.811 2.7891 3.34-6.26 12.221-10.579 18.061-15.639zm-324.78 49.23c-1.56 7.91-12.551 27.26-25.281 21.9 8.72-6.93 16.121-15.53 25.281-21.9zm-511.75 4.4797c-2.95 2.19-2.79 9.8109 2.2 10.211 9.44 1.57 18.799-2.8 27.159-6.75-9.13-1.73-24.559 7.1391-29.359-3.4609z"/>
<path fill="#bd8441" d="m592.19 79.32c-55.97 4.31-110.55 20.569-160.47 45.759-1.95 6.21-7.0006 10.55-13.541 11.3-22.83 10.16-45.48 26.62-61.38 45.92 1.79 4.85 1.52 22.58-4.75 16.55-5.18 8.64-5.79-8-10.75-3.5-56.92 57.8-97.73 135.21-97.32 217.76 185.66 29.88 377.21 39.21 562.2 0.0703 37.37-8.82 76.311-12.709 111.79-28.209 12.53-5.83 26.15-13.72 30.95-27.48 2.85-43.8-25.441-80.61-51.741-112.67-75.1-91.21-186.41-154.36-304.99-165.5zm46.481 17.728c9.1166-0.14622 23.812 10.797 9.2687 10.992-5.86 7.26-28.071-5.11-14.261-8.85 1.0819-1.4831 2.8883-2.1084 4.9922-2.1422zm-72.586 0.98438c4.5759-0.012 9.2335 1.6028 11.714 5.4672 1.76 4.81-4.6 6.3297-8 4.7797-2.68 6.73-25.69-6.5794-13.18-7.5594 2.3975-1.6844 5.9067-2.6782 9.4656-2.6875zm-64.356 14.22c5.3412-0.36668 4.4837 23-5.5 19.867-12.75 8.35-6.5394-22.761 2.8406-18.111 1.0075-1.1675 1.8964-1.7039 2.6594-1.7562zm105.98 1.1203c8.5919-0.15165 21.919 7.8956 8.2125 10.756-4.17 8.35-29.14-9.1594-14.22-6.0094 0.01-3.3722 2.6458-4.6875 6.0078-4.7469zm110.59 11.786c6.4307-0.0255 19.7 20.114 5.5031 17.381-6.11 7.96-20.149-19.491-7.9594-15.561 0.5358-1.2727 1.404-1.8161 2.4563-1.8203zm-73.324 10.4c4.8021 0.25492 12.291 22.074 0.4172 20.631-12.58 9.6-9.68-30.351-3.2-15.881 0.5099-3.4795 1.5588-4.815 2.7828-4.75zm41.225 4.2406c7.388 0.27786 23.088 13.275 9.1422 14.291-6.56 8.97-26.141-15.431-12.561-10.991-0.068-2.4588 1.3501-3.3778 3.4187-3.3zm-121.98 1.9109c7.4003-0.0176 22.289 12.825 9.0469 14.419-6.47 8.64-26.27-15.7-12.72-10.85 0.1159-2.5506 1.6014-3.5638 3.6734-3.5688zm213.52 13.219c-1.03 7.6-7.4306 14.42-15.491 14.33-12.48 7.15-6.7203-14.219 2.0797-10.009 3.35-3.7 8.6909-4.3703 13.411-4.3203zm-272.95 2c-1.11 7.16-7.35 14.03-14.85 14.15-1.93 3.51-10.78 1.7-8.8-3.55 2.61-2.1 6.1191-8.84 9.9891-6.55 3.85-3.06 8.8309-3.99 13.661-4.05zm-81.673 11.355c5.132-0.15111 17.173 20.705 4.1125 19.995-11.21 9-15.179-28.3-6.1594-15.08-0.1198-3.4734 0.7387-4.8771 2.0469-4.9156zm324.45 7.6719c6.6104-0.24968 21.008 15.675 7.8625 16.164-7.48 8.16-23.229-17.791-10.509-14.161 0.4656-1.3562 1.4227-1.9569 2.6469-2.0031zm48.388 2.2422c7.7869 0.0285 22.458 16.722 10.005 12.902-4.63 5.03-21.99-0.44031-18.38-10.42 2.01-1.81 3.83 0.10969 4.2 2.2297 0.3544-3.4212 1.9947-4.7189 4.175-4.7109zm-187.12 3.7219c-2.79 7.59-7.5797 15.229-16.68 15.409-14.94 4.83-3.7297-13.799 2.9703-11.339 4-2.82 9.0194-3.2403 13.709-4.0703zm-63.941 7.5891c2.4237 0.17249 3.3506 2.0262 1.1906 6.8812 3.78-3.13 8.6909-4.9806 13.661-4.2406-0.03 7.6-7.4103 13.491-14.67 14.191-2.6 1.71-9.4597 1.1897-8.9797-3.1203-1.68 0.86-3.62 0.85969-5.35 0.17969-12.98 7.75-3.2103-14.781 3.9797-10.691 3.825-1.865 7.745-3.3725 10.169-3.2zm132.95 2.4938c4.6173-0.18181 9.1116 1.2725 12.014 5.3562 1.31 3.92-3.8997 5.27-6.8297 4.8-2.66 6.59-28.411-5.9097-15.491-7.2297 3.0494-1.6538 6.7151-2.7852 10.306-2.9266zm-232.9 0.44531c5.136 0.29714 9.1597 26.968-2.0875 19.602-8.24 12.25-10.451-25.72-0.7906-16.67 0.9375-2.1375 1.927-2.9863 2.8781-2.9312zm362.78 14.392c-2.03 7.01-7.6003 14.459-15.57 14.339-12.01 8.1-6.8403-13.589 1.6797-10.409 4.03-2.89 8.9706-3.9297 13.891-3.9297zm-311.34 1.52c6.6274 0.35776-1.8234 25.676-7.4765 19.17-9.24 10.11-6.3388-20.931 2.1312-16.441 2.375-2.0062 4.118-2.796 5.3453-2.7297zm157.15 3.0203c7.7274-0.39047 8.9538 27.234 0.5188 18.72-4.65 12.72-17.37-19.44-4.2203-16.65 1.36-1.3862 2.5976-2.0145 3.7015-2.0703zm74.874 1.7281c6.5848-0.0854 6.4415 27.195-1.3547 18.952-6.98 13.18-13.271-23.881-2.9906-15.691 1.675-2.2922 3.1259-3.2451 4.3453-3.2609zm-396.93 12.016c1.3 0.0712 2.4797 0.69063 3.3703 2.2062-0.25 9.43-9.89 13.239-18 14.459-9.15 3.95 1.38-17.159 6.1-12.889 2.2275-1.4369 5.6697-3.9331 8.5297-3.7766zm159.21 8.83c-1.41 7.47-6.8712 14.97-15.531 14.25-1.68 4.16-9.3291 1.5097-8.1891-2.9703 1.11-3.89 11.379-10.859 6.1094-3.0391 4.66-4.84 10.671-8.3706 17.611-8.2406zm-97.55 0.94531c6.6624-0.33977-1.3503 22.471-11.45 17.375-11.87 6.3-1.0606-17.5 6.1594-14.48 2.3203-1.975 4.0569-2.8324 5.2906-2.8953zm306.62 0.94531c-2.21 6.74-7.51 14.909-15.55 14.319-12.14 8.16-6.8797-13.579 1.6203-10.389 4.01-2.96 9.1097-3.5597 13.93-3.9297zm160.26 3.2328c0.5739-0.005 1.151 0.0172 1.7297 0.0672 0.04 7.15-7.4703 14.03-14.57 14.05-12.82 8.07-8.53-14.18 1.7-10.4 3.255-2.3275 7.1229-3.6827 11.141-3.7172zm-281.85 0.91874c0.7116 0.0332 1.4403 0.25032 2.1828 0.70782 2.59 9.05-6.05 16.79-14.5 18.12-13.09 5.3 5.12-24.461 4.4-13.591 2.08-2.08 4.8338-5.3814 7.9172-5.2375zm193.43 6.0984c8.2876 0.33075 22.532 15.939 8.3656 15.18-4.06 8.54-23.289-11.971-12.139-13.591 0.9078-1.1875 2.2387-1.6503 3.7735-1.5891zm-445.37 20.8c3.27-0.0862 6.3125 1.0397 7.8625 4.2297-0.39 5.23-7.62 4.9994-11.35 5.9094-2.89 4.19-22.931 0.60969-11.661-5.1203 0.6-0.09 5.2903-4.3397 5.9203-1.9797 2.46-1.655 5.9581-2.9528 9.2281-3.0391zm562.84 4.2188c16.66 20.12 38.89 45.611 33.55 74.341-9.86 25.17-39.88 29.719-63.1 34.059-77.04 20.9-157.66 28.8-237.07 26.72 28.83-7.86 59.18-2.64 88.32-8.45 42.91-8.15 87.649-14.65 125.91-37.1 32.69-17.49 51.611-53.6 52.391-89.57zm-473.5 5.9906c2.0584 0.0443 3.9785 0.73969 5.2797 2.3297 1.04 6.9-8.5103 9.0006-13.87 9.7906-16.86 8.95-9.5897-10.821-0.6297-8.0406 1.975-2.4188 5.7897-4.1536 9.2203-4.0797zm248.75 18.006c6.5228 0.25757 10.859 29.153 0.6563 18.114-4.58 14.34-16.319-22.971-4.8891-13.961 1.4317-3.0267 2.8791-4.2066 4.2328-4.1531zm-126.4 3.5266c0.9017-0.002 1.8456 0.0919 2.8406 0.29687-1.03 7.47-6.9294 13.64-14.659 14.32-7.71 5.4-12.82-6.3603-3.3297-9.5203 5.36-3.55 1.6291 0.78 0.2391 3.65 4.4012-4.0425 8.5969-8.7354 14.909-8.7469zm273.91 22.347c-1.85 8.04-8 14.98-16.65 15.33-12.8 5.83-5.0294-14.409 2.1406-10.109 3.53-4.1 9.5494-4.2603 14.509-5.2203zm-369.18 11.022c6.5714 0.26402 2.1835 27.916-4.5328 18.719-7.92 14.98-9.2-23.231-0.3-15.641 2.0235-2.2375 3.6159-3.127 4.8328-3.0781zm-138.26 2.1c1.7132 0.0892 3.3041 0.76156 4.4328 2.2953 0.94 6.41-6.8409 9.3894-12.111 9.6094-1.55 3-9.4788 1.4706-13.019 1.6406 2.46-3.93 7.2988-12.29 12.669-10.43 1.975-1.7938 5.1727-3.2642 8.0281-3.1156zm617.48 236.79c-6.5447 0.0185-12.603 3.1112-17.242 7.8156-9.35 6.27-18.351-3.29-25.711-7.55-17.72-0.34-14.54 19.81-20.85 30.22 3.1 8.8-4.8697 12.98-11.78 14.6-33.44 7.94-61.64-17.44-91.85-27.4-18.45-9.73-39.729-7.46-58.459-0.05-0.86 16.36 4.19 32.87 0.85 49.08-2.46 8.16-13.35 8.85-18.88 3.4-0.31-0.23-0.9306-0.69969-1.2406-0.92969-10.05-3.72-16.52-14.58-27.4-15.98-6.41 3.82-13.92 9.5591-21.82 5.5891-6.92-6.09-9.22-17.1-17.45-21.68-8.64 4.99-15.77 15.89-27.13 13.15-4.44-2.52-7.7703 2.86-11.72 3.95-10.78 5.71-23.29 3.4697-34.92 2.9297-14.45 0.92-28.439 12.351-43.059 6.9812-8.17-2.14-7.5297-11.501-10.28-17.731-8.01-6.84-19.26-2.0697-28.22-5.9297-9.79-4.79-10.799-17.349-15.609-25.259-17.22 12.87-35.091 31.019-58.061 30.059-11.58-13.53-19.55 8.7697-30.88 10.13-25.14-2.26-27.72 35.641-51.55 35.491-12.74-9.29 8.1906-31.25-2.9594-39.78-2.67-0.41-5.2709-1.1609-7.8109-2.0609-22.05-2.24-44.279 14.91-66.339 3.6203-9.47-7.77-4.09-19.999-3.55-30.109-5.95-2.08-10.781-10.45-16.041-2.3203 6.38 55.19 63.6 81.08 110.92 94.03 144.98 34.46 295.09 38.57 443.36 38.77 61.07-15.91 119.47-49.12 156.68-101.12 8.7-15.47 13.92-33.75 13.6-51.42-1.5507-0.34125-3.0866-0.49959-4.5969-0.49532z"/>
<path fill="#f3ea73" d="m468.44 90.28c-6.48 1.16-17.011 4.7297-15.211 13.23 7.44 6.53 23.741-12.07 15.211-13.23zm170.23 6.7688c-2.1039 0.03374-3.9103 0.65906-4.9922 2.1422-0.15 7.21 8.4609 9.16 14.261 8.85 14.544-0.195-0.1521-11.138-9.2687-10.992zm-72.586 0.98438c-3.5589 0.0093-7.0681 1.0031-9.4656 2.6875 3.63 3.72 7.7497 7.1294 13.18 7.5594 3.4 1.55 9.76 0.0303 8-4.7797-2.4806-3.8644-7.1382-5.4792-11.714-5.4672zm-64.356 14.22c-0.763 0.0524-1.6519 0.58874-2.6594 1.7562-3.64 4.86-7.7306 13.221-2.8406 18.111 9.9837 3.1325 10.841-20.234 5.5-19.867zm105.98 1.1203c-3.362 0.0593-5.9994 1.3747-6.0078 4.7469 3.73 3.92 8.8303 5.9494 14.22 6.0094 13.707-2.8606 0.3794-10.908-8.2125-10.756zm-178.98 8.7984c-6.5647-0.0506-20.847 10.466-10.55 14.208 6.54-0.75 11.591-5.09 13.541-11.3 0.081-2.0519-1.1525-2.8936-2.9906-2.9078zm289.57 2.9875c-1.0523 0.004-1.9205 0.54765-2.4563 1.8203 1.22 5.82 3.0194 11.781 7.9594 15.561 14.197 2.7328 0.9276-17.407-5.5031-17.381zm-344.24 5.8234c-0.8258-0.0678-1.9321 0.0725-3.3609 0.47656-5.64 0.98-12.67 4.9909-12.63 11.361 5.7819 8.9991 23.974-11.182 15.991-11.837zm270.91 4.5766c-1.224-0.065-2.2729 1.2705-2.7828 4.75-0.32 5.51-0.59 11.441 3.2 15.881 11.874 1.4424 4.3849-20.376-0.4172-20.631zm41.225 4.2406c-2.0686-0.0778-3.4865 0.84125-3.4187 3.3 2.27 5.52 7.0609 9.0406 12.561 10.991 13.945-1.0156-1.7542-14.013-9.1422-14.291zm-121.98 1.9109c-2.072 0.005-3.5575 1.0181-3.6734 3.5688 2.94 4.9 7.3903 8.73 12.72 10.85 13.242-1.5938-1.6466-14.436-9.0469-14.419zm213.52 13.219c-4.72-0.05-10.061 0.62031-13.411 4.3203-2.51 2.48-6.3497 7.2894-2.0797 10.009 8.06 0.09 14.461-6.7297 15.491-14.33zm-272.95 2c-4.83 0.06-9.8109 0.99-13.661 4.05-3.68 1.87-8.4091 10.72-1.1891 10.1 7.5-0.12 13.74-6.99 14.85-14.15zm-81.673 11.355c-1.3082 0.0385-2.1667 1.4422-2.0469 4.9156-0.25 5.66 2.4494 10.96 6.1594 15.08 13.061 0.70921 1.0195-20.146-4.1125-19.995zm324.45 7.6719c-1.2242 0.0462-2.1813 0.64688-2.6469 2.0031 0.87 6.29 5.4794 10.731 10.509 14.161 13.146-0.48937-1.2521-16.414-7.8625-16.164zm48.388 2.2422c-2.1803-0.008-3.8206 1.2897-4.175 4.7109 1.85 6.08 8.5097 8.0506 14.18 8.1906 12.453 3.8203-2.2178-12.873-10.005-12.902zm-443.69 1.2203c-5.3144-0.22458-5.2937 14.67-0.2156 19.431 6.27 6.03 6.54-11.7 4.75-16.55-1.7981-1.9725-3.308-2.8294-4.5344-2.8812zm256.56 2.5016c-4.69 0.83-9.7094 1.2503-13.709 4.0703-4.1 2.09-7.0603 7.5291-2.9703 11.339 9.1-0.18 13.89-7.8194 16.68-15.409zm-63.941 7.5891c-2.4238-0.17251-6.3438 1.335-10.169 3.2-2.46 2.87-8.3297 6.8706-3.9797 10.691 1.73 0.68 3.67 0.68031 5.35-0.17969 2.01-0.92 4.0091-1.85 5.9891-2.85-0.32 2.57 0.4606 4.9103 2.9906 5.9703 7.26-0.7 14.64-6.5906 14.67-14.191-4.97-0.74-9.8809 1.1106-13.661 4.2406 2.16-4.855 1.2331-6.7088-1.1906-6.8812zm132.95 2.4938c-3.5911 0.1414-7.2568 1.2728-10.306 2.9266 4.39 3.78 9.5406 6.9197 15.491 7.2297 2.93 0.47 8.1397-0.88 6.8297-4.8-2.9025-4.0838-7.3968-5.5381-12.014-5.3562zm-232.9 0.44531c-0.9511-0.055-1.9406 0.79374-2.8781 2.9312-1.15 5.49-1.7594 11.48 0.7906 16.67 11.247 7.3659 7.2235-19.304 2.0875-19.602zm-161.15 8.8109c-0.5875-0.0242-1.2897 0.0375-2.1172 0.2-5.73 1.14-13.99 5.3609-12.28 12.161 6.2344 7.8 23.209-11.998 14.397-12.361zm523.93 5.5812c-4.92 0-9.8606 1.0397-13.891 3.9297-3.35 2.15-7.9097 8.9494-1.6797 10.409 7.97 0.12 13.54-7.3291 15.57-14.339zm-311.31 1.52c-1.2273-0.0663-2.9703 0.72344-5.3453 2.7297-2.59 5.1-2.0712 10.901-2.1312 16.441 5.6531 6.5053 14.104-18.813 7.4765-19.17zm157.15 3.0203c-1.1039 0.0558-2.3415 0.68407-3.7015 2.0703-0.31 5.92 0.3503 11.96 4.2203 16.65 8.435 8.5138 7.2086-19.111-0.5188-18.72zm74.874 1.7281c-1.2194 0.0158-2.6703 0.96874-4.3453 3.2609-0.13 5.4-0.2294 11.081 2.9906 15.691 7.7962 8.2434 7.9395-19.037 1.3547-18.952zm-396.93 12.016c-2.86-0.15656-6.3022 2.3397-8.5297 3.7766-2.55 4.04-4.32 8.4791-6.1 12.889 8.11-1.22 17.75-5.0294 18-14.459-0.8906-1.5156-2.0703-2.1351-3.3703-2.2062zm159.21 8.83c-6.94-0.13-12.951 3.4006-17.611 8.2406-1.56 2.35-1.3503 5.8294 2.0797 6.0094 8.66 0.72 14.121-6.78 15.531-14.25zm-97.55 0.94531c-1.2337 0.0629-2.9703 0.92031-5.2906 2.8953-3.23 4.22-8.0794 8.4497-6.1594 14.48 10.1 5.0962 18.112-17.715 11.45-17.375zm306.62 0.94531c-4.82 0.37-9.9197 0.96969-13.93 3.9297-3.36 2.13-7.9403 9.0491-1.6203 10.389 8.04 0.59 13.34-7.5788 15.55-14.319zm160.26 3.2328c-4.0177 0.0344-7.8856 1.3897-11.141 3.7172-3.72 1.95-7.71 8.87-1.7 10.4 7.1-0.02 14.61-6.9 14.57-14.05-0.5787-0.05-1.1558-0.0721-1.7297-0.0672zm-281.85 0.91874c-3.0834-0.14389-5.8372 3.1575-7.9172 5.2375-2.17 4.28-3.3 8.9506-4.4 13.591 8.45-1.33 17.09-9.0703 14.5-18.12-0.7425-0.4575-1.4712-0.67461-2.1828-0.70782zm193.43 6.0984c-1.5348-0.0612-2.8657 0.40156-3.7735 1.5891 2.79 5.59 5.8391 11.371 12.139 13.591 14.166 0.75938-0.078-14.849-8.3656-15.18zm-445.37 20.8c-3.27 0.0863-6.7681 1.3841-9.2281 3.0391-9.19 4.12-0.3894 7.51 5.7406 7.1 3.73-0.91 10.96-0.67938 11.35-5.9094-1.55-3.19-4.5925-4.3159-7.8625-4.2297zm-76.869 3.5188c-6.86 0.7-17.83 4.0109-18.18 12.261 6.96 7.35 19.59-6.7909 18.18-12.261zm166.21 6.68c-3.4306-0.0739-7.2453 1.6609-9.2203 4.0797-6.07 4.08-8.1903 8.4406 0.6297 8.0406 5.36-0.79 14.91-2.8906 13.87-9.7906-1.3012-1.59-3.2213-2.2853-5.2797-2.3297zm248.75 18.006c-1.3537-0.0535-2.8011 1.1264-4.2328 4.1531-0.43 5.21 1.6291 10.051 4.8891 13.961 10.202 11.039 5.8665-17.856-0.6563-18.114zm-126.4 3.5266c-6.3125 0.0115-10.508 4.7044-14.909 8.7469-0.55 2.49 0.2606 5.3703 3.0906 5.8703 7.73-0.68 13.629-6.8503 14.659-14.32-0.995-0.205-1.9389-0.29852-2.8406-0.29687zm273.91 22.347c-4.96 0.96-10.979 1.1203-14.509 5.2203-2.96 2.48-6.1506 6.9194-2.1406 10.109 8.65-0.35 14.8-7.2897 16.65-15.33zm-369.18 11.022c-1.2169-0.0489-2.8093 0.84062-4.8328 3.0781-0.92 5.19-0.69 10.471 0.3 15.641 6.7163 9.1969 11.104-18.455 4.5328-18.719zm-138.26 2.11c-2.8554-0.14863-6.0531 1.3219-8.0281 3.1156-4 3.66-12.49 12.469 0.35 8.7891 5.27-0.22 13.051-3.1994 12.111-9.6094-1.1287-1.5338-2.7196-2.2061-4.4328-2.2953z"/>
</g>
<path fill="#ca9553" d="m889.07 271.11c16.66 20.12 38.89 45.61 33.55 74.34-9.86 25.17-39.88 29.72-63.1 34.06-77.04 20.9-157.66 28.8-237.07 26.72 28.83-7.86 59.18-2.64 88.32-8.45 42.91-8.15 87.65-14.65 125.91-37.1 32.69-17.49 51.61-53.6 52.39-89.57z"/>
<path fill="#9a574e" d="m841.28 418.99c32.07-8.06 62.79-20.91 92.62-34.83 3.26 24.45 5.58 50.77-4.87 73.89-19.05 39.15-64.07 51.02-100.33 68.65-78.68 33.03-166.12 35.51-250.12 32.69-73.84-2.58-147.31-10.88-220.98-16.01-61.9-4.18-125.52-5.02-184.85-25.14-20.11-5.94-36.45-19.96-44.98-39.09-0.87-2.62-1.42-5.32-1.77-8.04-0.26-2.87-1.02-5.68-2.49-8.17-0.2-2.65-0.42-5.34-0.63-7.96 0.29-19.88 2.61-40.22 9.22-58.97 25.3 8.54 51.12 15.66 77.41 20.53 12.26 1.01 21.55 9.88 31.23 16.53 15.22 11.21-7.13 36.97 9.16 46.49 32.46 5.41 42.37-33.43 62.61-49.49 15.07 1.96 30.77 0.38 45.5 4.46 1.95 1.58 4.01 3.03 6.11 4.41 7.49 8.34 17.34 15.28 20.74 26.52 0.1 17.45-18.8 30.86-13.3 48.85 10.32 15.77 39.98 14.7 45.26-5.42 12.25-23.29-10.58-49.09 1.81-71.55 71.6 4.27 143.29 10.3 215.06 8.03-3.33 10.37-12.7 16.84-19.75 24.57-2.24 1.77-4.51 3.5-6.77 5.24-16.1 10.73-43.79 29.57-28.4 51.25 35.01 10.42 45.36-43.32 76.57-47.29 5.66 3.17 3.73 11.35 4.86 16.55-0.18 20.95 27.66 35.02 44.59 23.15 4.84-4.18 4.43-11.49 2.69-17.12-0.94-6.61-5.36-11.77-9.55-16.64-8.87-12.74-23.58-24.08-23.66-40.76 41.17-2.06 82.19-6.92 122.73-14.41-1.83 3.23 1.16 5.78 2.84 8.28 5.88 12.3 20.17 21.06 33.44 14.25 15.35-4.22 12.69-22.02 8-33.45m-357.97 64.77c-14.58 10.13-35.53 27.36-25.29 47.08 24.22 15.68 51.87-20.84 34.74-40.59 0.36-3.83-0.39-6.12-3.82-4.21 3.52-2.68-4.22-6.09-5.63-2.28z"/>
<g>
<path fill="#5ec359" d="m950.23 413.29c-0.7002-0.009-1.4016 0.002-2.1016 0.0328-0.31 7.91-1.0091 15.799-1.9391 23.659 3.91 0.68 10.499-0.59907 11.789 4.1609-1.15 6.62-9.1303 9.34-11.92 15-0.18 6.96 15.271 2.3888 11.281 10.019-9.82 9.36-22.741 14.98-35.291 19.8-2.11 1.54-4.1597 3.1712-6.1797 4.8312 5.09 2.69 5.2403 10.52 0.3203 13.45-15.42 10.51-34.751 14.73-53.181 14.6-9.14 3.68-18.419 7.0397-27.359 11.18 2.09 8.78-10.459 5.8091-14.059 8.3891 0.78 14.1-16.021 10.691-24.811 9.4312l-0.7391 0.3c4.26 6.52 13.269 7.7794 18.119 13.709-11.64 9.21-24.599-5.2503-36.269-7.1203-48.18 10.15-97.591 15.701-146.83 14.391 5.93 10.87 19.371 17.11 31.641 18.42 29.38 3.5 54.89-17.371 83.7-17.461 35.25 10.56 66.22 32.11 99.88 45.92 6.91-1.62 14.88-5.8 11.78-14.6 1.97-12.19-8.12-25.12-0.95-36.23 11.82-5.24 25.771 0.54938 37.841-3.6406 1.69-7.84-5.1606-14.019-6.6906-20.689 46.24-1.07 95.051-36.8 100.73-85.2 4.2916-23.056-17.056-42.078-38.759-42.353zm-828.35 35.683c-14.5 2.65-28.77 7.2-40.78 16.05-2.12 1.96-4.1094 4.0791-6.0594 6.2391-4.33 19.51 26.789 13.25 34.889 24-1.92 11.03-15.099 15.13-23.639 20.07-13.53 6.85-27.85 12.33-40.52 20.8 0.97 1.19 2.15 2.2809 3.65 2.7609 29.03 8.17 58.37 18.889 88.87 17.709 5.87 0.29 4.5494 8.4906 9.5594 9.8906 21.44 2.04 38.161-17.13 59.241-16.3 11.78 7.04 3.18 25.359 10.2 34.839 10.83 3.39 17.689-8.8797 25.869-13.78-5.03 14.93-21.919 25.02-20.169 42.53-2.22 9.83 9.22 12.25 16.35 9.7203 27.3-7.39 50.36-24.761 73.45-40.291 6.24 7.79 16.72 0.79062 23.2-3.2594 16.61-9.62 31.039-27.64 52.159-25.48 7.7 2.02 4.9394 11.719 6.6094 17.489 1.17 8.1 11.571 9.1812 18.011 6.7812 6.24-2.21 11.709-6.0003 17.189-9.6203 5.5-2.52 12.82-10.661 18.45-4.4109 5.72 13.93 1.9003 31.04 11.22 43.72 10.7 8.99 22.511-1.0591 32.811-4.8391-0.14 6.76 0.039 13.9 3.0188 20.13 11.25 3.26 20.701-6.4003 31.181-9.1703 13.97-7.62 25.749 10.169 40.169 5.2594 25.03-6.96 38.081-31.27 52.691-50.28-8.69-1.1-20.38-0.92969-30.5-2.4797-3.49 7.92-7.4094 16.6-14.109 22.08-7.58-4.55 1.3791-17.159-3.9109-24.289-3.28-0.37-6.6094-0.80031-9.8594-1.1703-13.26 5.49-21.051 20.27-34.591 25.93-7.3 2.2 4.3003-14.04-4.2297-8.2797-9.16 5.39-14.76-1.9297-10.17-11.28-10.6 12.64-11.289 0.30876-8.2391-9.6812-9.16 4.82-13.88 22.161-26.77 23.431-4.88-3.97 11.06-16.36 0.9703-14.07-10.3 2.24-3.9309-8.7109-2.9609-13.811-21.26 2.03-42.929-3.5288-63.839 1.3812-0.92-2.8 5.9197-6.55-3.0703-3.85-26.76-0.36-53.32-4.2512-79.95-6.5812-1.74 8.14-14 7.5206-14.57-1.0094-2.52-0.1-5.0406-0.17-7.5406-0.2-11.81 2.19-13.32 25.55-30.05 19.82-9.52 5.94-19.119 16.13-30.869 19.57 1.39-9.49 11.509-12.51 17.759-18.12-1.78-4.54-8.1903-3.1-11.82-4.9 5.6-6.83 16.1-9.13 21.1-17-37-1.67-75.27-3.3403-109.58-18.62-5.52 1.77-8.9603-1.2806-10.52-6.4406-7.13 6.98-16.54 11.56-26.53 12.35 4.29-17.56-20.95-5.5991-27.43-7.7891 11.52-11.38 31.52-4.4997 44.88-12.58-8.51-9.04-12.63-20.921-15.33-32.791-0.87-2.62-1.4203-5.3206-1.7703-8.0406-4.69-1.5-9.61-2.37-14.1-4.45 2.04-3.88 7.9094-2.3788 11.609-3.7188-0.2-2.65-0.4197-5.3409-0.6297-7.9609-0.25-1.5-0.75-4.5094-1-6.0094z"/>
<path fill="#ff2b03" d="m230.16 421.16c2.66 9.85 18.431 9.7712 24.311 17.631 2.06 10.84-10.97 25.01 0.08 34.18 23.29 0.3 31.97-27.311 43.22-43.091-20.92-2.91-45.411-5.3903-67.611-8.7203zm601.65 2.1031c-11.797 0.0627-22.962 5.925-34.812 6.6469-1.83 3.23 1.1606 5.7812 2.8406 8.2812 8.75 6.97 20.839 9.5894 31.619 6.5594 8.99-2.74 5.9603-14.99 2.7203-21.42-0.7925-0.0506-1.5807-0.0714-2.3672-0.0672zm-470.7 11.225c-1.0337 0.005-2.0687 0.0184-3.1031 0.0422 1.95 1.58 4.0109 3.0309 6.1109 4.4109 10.17 6.93 22.76 13.549 27.47 25.719 0.25 15.88-18 28.62-10.4 45.32 9.33 9.03 28.3 6.82 35.08-4.3 3.3-12.94-4.52-24.53-8.95-36.05-3.25-10.7-0.3806-21.83 0.2094-32.68-15.478-0.57187-30.912-2.5328-46.417-2.4625zm-81.642 5.9719c-0.08 4.42-8.2806 23.851-19.091 23.241 0.83-9.93 12.751-15.921 19.091-23.241zm377.75 4.7422c-6.2497-0.05-12.068 1.0428-14.605 7.4891-8.94 6.58-18.9 11.91-28.68 17.25-2.24 1.77-4.5103 3.4991-6.7703 5.2391-7.89 11.32-18.721 23.09-16.941 37.95 2.5 6.05 11.291 5.5803 15.741 1.9703 17.63-12.27 29.009-33.441 49.209-41.941 16.56 0.53 11.171 22.651 14.511 33.291 6.77 17.35 34.789 13.03 37.789-4.7297-0.94-6.61-5.36-11.771-9.55-16.641-15.43-7.28-24.13-23.41-26.68-39.67-4.0425 0.56-9.1641-0.16896-14.025-0.20782zm-253.2 38.11c7.26 2.53 10.499 22.51 0.1891 23.5-2.7-6.58 0.3809-15.98-0.1891-23.5zm281.86 1.0203c9.6 1.14 18.74 12.07 13.87 21.53-9.84-0.82-12.03-13.52-13.87-21.53zm-194.85 1.0328c-0.5471-0.006-1.2363 0.21-2.0938 0.68749-14.55 4.85-28.46 19.329-28.97 35.309 5.04 13.4 24.409 9.58 29.989-1.4 7.58-8.22 4.17-19.9 2.8-29.7 0.27-2.8725-0.084-4.8791-1.725-4.8969zm134.44 0.15c-2.68 6.85-13.33 25.93-24.37 22.43 3.55-10.03 15.24-16.88 24.37-22.43zm-139.99 24.891c3.44 1.46-3.8603 18.719-9.2203 13.219-0.8-5.79 4.4903-10.699 9.2203-13.219z"/>
<path fill="#20a113" d="m946.19 436.98c-3.04 18.27-10.101 36.29-24.141 48.98 12.55-4.82 25.471-10.44 35.291-19.8 3.99-7.63-11.461-3.0588-11.281-10.019 2.79-5.66 10.77-8.38 11.92-15-1.29-4.76-7.8791-3.4809-11.789-4.1609zm-822.68 25.961c-3.7 1.34-9.5694-0.16124-11.609 3.7188 4.49 2.08 9.41 2.95 14.1 4.45-0.26-2.87-1.0206-5.6788-2.4906-8.1688zm-44.002 26.638c-8.4776-0.11479-16.531 3.1131-19.708 11.342 2.38 5.75 11.72 4.8697 17.13 5.6797 8.6-0.41 24.28 3.93 22.95-10.05-5.0813-4.1672-12.892-6.8706-20.372-6.9719zm836.36 1.2125c-16.1 12.05-34.611 19.93-52.861 28.05 18.43 0.13 37.761-4.09 53.181-14.6 4.92-2.93 4.7697-10.76-0.3203-13.45zm-772.77 21.15c-13.36 8.08-33.36 1.1997-44.88 12.58 6.48 2.19 31.72-9.7709 27.43 7.7891 9.99-0.79 19.4-5.37 26.53-12.35-2.72-3-6.0397-5.3688-9.0797-8.0188zm823.05 3.2297c-9.3 10.78-21.05 19.009-31.18 28.859 12.14-2.84 25.64-5.0697 34.72-14.43 3.72-4.62 2.2494-12.19-3.5406-14.43zm-130.5 14.85c-13.44 4.79-26.36 11-38.87 17.82 8.79 1.26 25.591 4.6688 24.811-9.4312 3.6-2.58 16.149 0.39093 14.059-8.3891zm-546.42 14.906c-5.65-0.0387-11.303 0.0588-16.948 0.0937-5 7.87-15.5 10.17-21.1 17 3.63 1.8 10.04 0.36 11.82 4.9-6.25 5.61-16.369 8.6303-17.759 18.12 11.75-3.44 21.349-13.63 30.869-19.57 16.73 5.73 18.24-17.63 30.05-19.82-5.635-0.51-11.281-0.68469-16.931-0.72344zm644.04 0.34375c-5.84 5.06-14.721 9.3791-18.061 15.639 7.25-1 14.791-0.53907 21.811-2.7891 6.36-2.57 1.24-12.85-3.75-12.85zm-619.57 0.58c0.57 8.53 12.83 9.1494 14.57 1.0094-4.85-0.42-9.7203-0.77938-14.57-1.0094zm482.34 2.2906c-5.94 2.49-11.93 4.8791-18.15 6.5891 11.67 1.87 24.629 16.33 36.269 7.1203-4.85-5.93-13.859-7.1894-18.119-13.709zm-320.91 7.7688c-0.97 5.1-7.3391 16.051 2.9609 13.811 10.09-2.29-5.8503 10.1-0.9703 14.07 12.89-1.27 17.61-18.611 26.77-23.431-3.05 9.99-2.3609 22.321 8.2391 9.6812-4.59 9.35 1.0103 16.67 10.17 11.28 8.53-5.76-3.0703 10.48 4.2297 8.2797 13.54-5.66 21.331-20.44 34.591-25.93-28.52-4-57.161-7.4509-85.991-7.7609zm-282.88 5.0578c-1.2549 0.014-2.6478 0.30844-4.2016 0.9422-17.26 6.83-38.949 21.15-55.259 4.4703-11.03 7.21-20.77 17.711-31.62 25.761-2.23 1.67-3.6597 4.1891-4.4297 6.8391 4.8 10.6 20.229 1.7309 29.359 3.4609 5.51-0.82 10.72-3.4703 16.43-3.4203 5.98-3.61 11.821-7.6503 18.391-10.12-1.53 5.28-6.6209 15.09 1.7391 16.65 18.4 1.44 25.391-22 42.881-23.78-2.52-7.2538-4.5053-20.901-13.289-20.803zm378.73 3.8734c5.29 7.13-3.6691 19.739 3.9109 24.289 6.7-5.48 10.619-14.16 14.109-22.08-6.03-0.52-12.02-1.4094-18.02-2.2094zm-199.2 0.58125c-5.3516 0.10656-10.926 2.4784-14.658 6.7484-17.08 16.49-36.13 31.049-58.73 39.209-4.39 1.72-10.001 2.9397-10.561 8.5797 2.54 0.9 5.1409 1.6509 7.8109 2.0609 2.54-4.03 8.0691-3.57 12.139-3.65 0.58 13.11-10.629 24-9.5094 37.25 23.6-3.54 35.08-31.15 49.83-46.33-0.04 4.56-2.4706 9.52-0.041 13.75 11.58-4.25 17.68-16.231 25.45-25.061-0.92 5.69 1.4303 15.711 9.1703 13.661 20.51-5.49 37.58-19.431 55.07-30.841-1.34-4.6-4.7806-8.1197-7.7906-11.68-5.48 3.62-10.949 7.4103-17.189 9.6203-1.16 8.48-24.09 11.3-25.85-1.7203-1.7494-8.1281-8.2615-11.735-15.142-11.598zm255.05 21.441c-6.0324 0.009-12.223 1.6994-9.7687 9.0281 2.57 9.48 1.92 30.109 16.25 29.909 10.1-6.84 12.151-19.6 16.531-30.03 2.36 11.47 6.6591 24.649 19.539 27.709 8.2 1.17 6.7303 10.34 7.3203 16.62 0.31 0.23 0.9306 0.69969 1.2406 0.92969 21.14-6.27 14-34.979 12.13-51.989-18.37 4.49-37.891 4.1897-55.941-1.5203-1.85-0.31875-4.5595-0.66193-7.3016-0.65781zm-18.34 7.64c-9.16 6.37-16.561 14.97-25.281 21.9 12.73 5.36 23.721-13.99 25.281-21.9z"/>
<path fill="#fd8c7e" d="m279.47 440.46c-6.34 7.32-18.261 13.311-19.091 23.241 10.81 0.61 19.011-18.821 19.091-23.241zm124.55 42.84c0.57 7.52-2.5109 16.92 0.1891 23.5 10.31-0.99 7.0709-20.97-0.1891-23.5zm281.86 1.0203c1.84 8.01 4.0303 20.71 13.87 21.53 4.87-9.46-4.2703-20.39-13.87-21.53zm-60.41 1.18c-9.13 5.55-20.82 12.4-24.37 22.43 11.04 3.5 21.69-15.58 24.37-22.43zm-139.99 24.891c-4.73 2.52-10.02 7.4288-9.2203 13.219 5.36 5.5 12.66-11.759 9.2203-13.219z"/>
</g>
</g>
</svg>
