<?xml version="1.0"?>
<svg xmlns:rdf="http://www.w3.org/1999/02/22-rdf-syntax-ns#" xmlns="http://www.w3.org/2000/svg" xmlns:cc="http://creativecommons.org/ns#" xmlns:dc="http://purl.org/dc/elements/1.1/" xmlns:svg="http://www.w3.org/2000/svg" id="svg2" viewBox="0 0 128 128" version="1.0">
  <defs id="defs4">
    <filter id="filter3443" y="-.32663" width="1.2503" x="-.12514" height="1.6533">
      <feGaussianBlur id="feGaussianBlur3445" stdDeviation="1.9634296"/>
    </filter>
  </defs>
  <g id="layer1">
    <path id="path3018" d="m-147.25 128.57c-5.47 0.42-6.83-3.26-11.5 0.89-1.41 1.41-1.72 4.21-1.33 5.78 2.87 3.85 6 2.88 10.6 4.44 2.28 0.57 4.27 0.89 7.12 0.89 2.9 0 4.68 1.44 7.56 0 2.23-1.11 4.29-0.77 6.23-2.22 1.51-1.13 2.22-3.12 2.67-4.89 0.78-3.14-1.88-3.61-3.56-4.45-2.16-1.08-5.91-0.41-7.56 0-1.78 0.44-3.32-2.22-5.78-2.22-2 0-1.06 1.78-4.45 1.78z" fill-opacity=".7284" fill-rule="evenodd" transform="matrix(-1.174 0 0 1 -101.89 -17)" filter="url(#filter3443)"/>
    <g id="g2998" transform="matrix(.94977 0 0 .94977 261.73 -278.82)">
      <g id="g5852" transform="matrix(.97107 -.23880 .23880 .97107 -678.11 175.68)">
        <path id="path5682" d="m429.91 307.76l7.07-4.25-3.89 11.32-3.18-7.07z" fill-rule="evenodd" stroke="#000" stroke-width="1.0529px" fill="#b3b3b3"/>
        <path id="path5850" stroke="#008000" stroke-width="1.0529px" fill="none" d="m420.75 239c11.21 1.99 9.79 11.79 10 20.5"/>
        <path id="path5676" d="m429.2 255.08h3.54v54.44l12.37 28.29-13.43 4.95-3.89-37.83 1.21-41.71-2.53-1.96 0.51-4.91 2.22-1.27z" fill-rule="evenodd" stroke="#000" stroke-width="1.0529px" fill="#1a1a1a"/>
        <path id="path5678" stroke="#000" stroke-width="1.0529px" fill="none" d="m432.39 297.15c7.61 2.1 7.55 9.95 3.88 20.51"/>
        <g id="g5704" transform="translate(6 131.5)">
          <g id="g5698" stroke-width="1.0529px" fill-rule="evenodd">
            <path id="path5696" stroke="#1a1a1a" fill="#ccc" d="m431.16 125.17l-1.06-14.5 3.89-9.54c2.96 6.43 1.26 15.54 1.23 23.68l-4.06 0.36z"/>
            <path id="path5692" stroke="#2b1100" fill="#520" d="m429.57 123.75l0.17 15.38 5.66 1.95 0.53-17.86-6.36 0.53z"/>
            <path id="path5684" stroke="#000" fill="#1a1a1a" d="m426.92 126.76l9.54-0.18v2.83l-9.54 0.18v-2.83z"/>
            <path id="path5686" stroke="#000" fill="#1a1a1a" d="m426.92 133.65l9.54-0.17v2.82l-9.54 0.18v-2.83z"/>
          </g>
        </g>
        <path id="path5840" stroke-linejoin="round" d="m428.86 247.76a2.74 1.8562 0 1 1 -5.48 0 2.74 1.8562 0 1 1 5.48 0z" transform="matrix(.97538 -.51262 .37883 1.3199 -91.429 125.13)" stroke="#800000" stroke-width=".52644" fill="#f00"/>
        <path id="path5842" stroke-linejoin="round" d="m428.86 247.76a2.74 1.8562 0 1 1 -5.48 0 2.74 1.8562 0 1 1 5.48 0z" transform="matrix(.97538 -.51262 .37883 1.3199 -86.656 126.55)" stroke="#800000" stroke-width=".52644" fill="#f00"/>
        <path id="path5844" stroke-linejoin="round" d="m428.86 247.76a2.74 1.8562 0 1 1 -5.48 0 2.74 1.8562 0 1 1 5.48 0z" transform="matrix(.97538 -.51262 .37883 1.3199 -88.601 130.79)" stroke="#800000" stroke-width=".52644" fill="#f00"/>
        <path id="path5846" stroke-linejoin="round" d="m428.86 247.76a2.74 1.8562 0 1 1 -5.48 0 2.74 1.8562 0 1 1 5.48 0z" transform="matrix(.97538 -.51262 .37883 1.3199 -93.374 132.03)" stroke="#800000" stroke-width=".52644" fill="#f00"/>
        <path id="path5848" stroke-linejoin="round" d="m428.86 247.76a2.74 1.8562 0 1 1 -5.48 0 2.74 1.8562 0 1 1 5.48 0z" transform="matrix(.97538 -.51262 .37883 1.3199 -94.611 128.31)" stroke="#800000" stroke-width=".52644" fill="#f00"/>
        <path id="path5838" stroke-linejoin="round" d="m428.86 247.76a2.74 1.8562 0 1 1 -5.48 0 2.74 1.8562 0 1 1 5.48 0z" transform="matrix(.93216 -.36204 .36204 .93216 -68.147 160.21)" stroke="#8b6600" stroke-width=".52644" fill="#ffd600"/>
      </g>
      <g id="g5792" transform="translate(-426,129)" fill-rule="evenodd">
        <path id="path3467" stroke="#3f2d10" stroke-width="1.0529px" fill="#e9d2af" d="m199.56 249.99c3.29-0.33 6.92-1.39 9.38-3.62 0.79-1.36-1.21-2.46 0.15-3.68 1.45-0.06 2.16 1.16 2.85 2.33 1.54-1.4 2.56-3.55 5.07-2.31-0.28 1.33-1.41 2.51-2.51 3.16 1.43-0.25 3.85-2.18 3.45 0.73-0.6 1.53-2.15 1.29-3.54 1.76 1.84 0.57 4.28 0.23 1.94 2.31-1.18 0.47-2.18 0.12-3.31-0.25-1.27 0.17-2.43 0.96-3.6 1.51-2.18 2.26-4.95 3.49-7.77 4.74-2.79-1.11-7.77 2.06-10.48 1.22-1.15-0.13-1.45-10.08-2.48-10.48-1.52-2.5 2.37-2.33 4.55-4.25 2.93-2.36 3.42 6.95 6.3 6.83z"/>
        <path id="path4503" stroke="#2a4d2a" stroke-width="1.0529px" fill="#427742" d="m196.44 231.48c-2.7 2.79-4.5 5.97-5.66 9.62-1.45 2.58-2.93 4.87-3.26 7.87 3.97 0.75 7.99-0.04 11.92 0.5 1.8-4.78 1.49-10.03 1.59-15.06"/>
        <path id="path3353" stroke="#182c18" stroke-width="1.0529px" fill="#264426" d="m207.58 262.91c0.14 0.78 0.89 2.8 0.62 4.12-0.94 2.8-1.07 5.41-0.37 8.25-0.02 2.79 0.87 7.45-1.13 9.5-2.85 1.13-5.71 1.85-8.12-0.62 1.24-3.85 1.34-7.37 0.75-11.38-0.03-3.8-0.77-7.43-0.63-11.25 2.17-0.8 7.51-0.22 8.88 1.38z"/>
        <path id="path3523" stroke="#401a00" stroke-width="1.0529px" fill="#520" d="m208.13 280.78c2.87 0.12 5.19-0.72 8.35 0.1 0.78 0.62 1.21 1.57 1.74 2.4 0.43 1.23 0.1 2.29-0.41 3.43-1.89 2.01-4.8 2.55-7.37 3.24-2.1 0.92-6.27 2.62-8.47 1.73-3.22-1.01-4.05-4.17-3.46-7.18 0.57-0.22 0.04-7.92 1.26-9.61 2.5 0.86 6.61-0.07 7.84-1.77 0.95 1.63 0.47 5.36 0.52 7.66z"/>
        <path id="path4505" stroke="#182c18" stroke-width="1.0529px" fill="#264426" d="m218.7 263.03c0.15 0.78 0.89 2.8 0.63 4.13-0.21 1.01-0.51 2.03-0.75 3-0.52 2.54 0.44 4.98 0.62 7.5-0.51 2.21 0.14 5.7-1.37 7.25-2.63 1.98-5.43 1.72-6.89-0.8 0.25-1.01 0.06-1.78 0.5-2.81 1.28-2.74-0.56-5.51-0.99-8.39-0.06-3.79-0.77-7.46-0.62-11.25 2.16-0.8 7.5-0.22 8.87 1.37z"/>
        <path id="path3527" stroke="#401a00" stroke-width="1.0529px" fill="#520" d="m217.84 284.46c-2.59 1.87-6.81 4.06-9.41 4.16-2.83 0.82-5.7 2.32-9.31 0.77"/>
        <path id="path3521" stroke="#401a00" stroke-width="1.0529px" fill="#520" d="m219.63 281.56c2.87 0.12 5.19-1.25 8.35-0.43 0.78 0.62 1.21 1.57 1.74 2.4 0.43 1.23 0.1 2.29-0.41 3.43-1.89 2.01-4.8 2.55-7.37 3.24-2.1 0.92-6.27 2.62-8.47 1.73-3.22-1.01-3.87-4.88-3.28-7.89 1.34-0.52-0.68-5.49 0.28-8.71 0.79 1.74 6.92 1.25 8.67-0.9 1.39 1.42-0.13 7.42 0.49 7.13z"/>
        <path id="path3355" stroke="#2a4d2a" stroke-width="1.0529px" fill="#427742" d="m194.79 266.18c2.81-3.46-0.37-8.14-0.73-12.11-2.14-3.27-0.89-10.65 0.34-15.7 0.47-3.1 1.5-5.9 3.06-8.61 1.78-2.41 4.16-3.78 7.19-3.94 3.89 0.57 7.81 0.05 11.67 0.88 2.85 1.24 4.81 3.3 5.13 6.37 0.13 2.77-0.05 5.27 1.23 7.78 0.39 4.45-0.13 9.22-0.76 13.68-0.89 5.19 3.34 7.08 2.76 12.26-4.48-2.57-10.29 1.3-15.38 0.73-4.27-1.53-11.86 1.9-14.51-1.34z"/>
        <path id="path3357" stroke="#3f2d10" stroke-width="1.0529px" fill="#e9d2af" d="m228.79 246.79c2.87-1.65 5.75-4.09 7.09-7.12 0.18-1.57-2.09-1.76-1.35-3.42 1.3-0.65 2.45 0.18 3.55 0.97 0.84-1.91 0.9-4.29 3.69-4.17 0.29 1.33-0.26 2.86-1 3.9 1.2-0.81 2.63-3.56 3.45-0.73 0.07 1.64-1.45 2.06-2.52 3.04 1.92-0.22 4-1.52 2.71 1.33-0.88 0.91-1.95 0.99-3.13 1.11-1.09 0.68-1.83 1.87-2.68 2.85-1.07 2.94-3.1 5.2-5.17 7.49-3 0.11-4.41 3.66-7.23 4-1.1 0.35-7.32-6.14-8.43-6.09-2.4-1.66 1.28-4.2 2.49-6.84 1.71-3.35 5.94 4.95 8.53 3.68z"/>
        <path id="path3359" stroke="#2a4d2a" stroke-width="1.0529px" fill="#427742" d="m220.17 231.71c1.74 1.85 2.98 3.93 4.12 6.17 1.3 2.16 2.96 4.02 4.75 5.78-3.24 2.72-7.63 4.74-11.49 6.86-1.19-1.75-2.26-3.57-3.48-5.31-1.52-2.38-1.16-5.07-2.03-7.58-0.47-2.5 0.21-4.62 2.5-5.93"/>
        <path id="path3367" stroke="#3f2d10" stroke-width="1.0529px" fill="#e9d2af" d="m201.95 228.8c1.74 4.58 10.35 3.07 13.41-1.29-1.22-2.48-2.08-5.45-4.75-6.75-2.27-0.26-4.47 0.37-6.63 1-1.74 1.36-2.42 5.3-2.03 7.04z"/>
        <path id="path3375" stroke="#3f2d10" stroke-width="1.0529px" fill="#e9d2af" d="m204.37 183.23c-4.45 0.06-9.01 1.75-10.75 6.22-1.53 5.03-4.17 10.17-3.56 15.56 1.72 5.65 3.12 12.1 7.78 15.91 3.26 3.04 9.1 4.51 13.44 4.59 4.89-1.09 8.31-3.78 9.56-8.84 0.91-3 0.41-5.42 0.1-8.28 1.14 0.72 2.42 1.03 4 0.72 2.77-1.3 1.94-3.1-0.16-4.88-0.96-0.13-2.18-0.06-3.37-0.25 0.36-1.7 0.71-3.54 0.71-4.72-0.14-8.97-4.26-15.87-14.71-15.81-0.98-0.14-2.01-0.23-3.04-0.22z"/>
        <path id="path3373" stroke="#333" stroke-width="1.0529px" fill="#fff" d="m220.16 196.5c-2.36 0.53-3.46 2.33-3 5 2.71 5.02 7.88-2.2 3-5z"/>
        <g id="g3437" stroke="#3f2d10" stroke-width="1.175px" fill="#e9d2af" transform="matrix(-.80018 .066857 .083263 .99653 376.41 323.61)">
          <path id="path3377" d="m192.16-132.54c5.86-2.33 4.83 6.35 0.5 5.5"/>
          <path id="path3379" d="m193.28-131.17c0.85-1.49 3.1 1.18 0 2.63"/>
        </g>
        <path id="path3385" stroke="#000" stroke-width="1.0529px" d="m221.02 197.84c0.46-0.95-2.17-0.19-1.5 2 0.47 1.51 2.13 0.58 2.25 0.5 1.68-1.09 0.32-3.85-0.75-2.5z"/>
        <path id="path3433" stroke="#120a04" stroke-width="1.0529px" fill="#28170b" d="m220.5 189.54c-2.68 0.75-5.69-1.71-6.5 1.25-1.12 2.34-2.55 3.52-1 6 0.97 1.63 0.39 6.25 1.25 9.25-0.37 0.38-5.16-3.25-5.75-3.25-1.2 3.36-0.4 6.87 0 10.5-0.19 5.96-4.31 7.68-7.75 10.75-3.28-0.98-7-2.48-7.5-5.5-8.19-10.3-10.34-28.1 1.5-34.25 3.41-4.18 13.28-5.32 21.5-1.75 2.25 1.9 8.04 5.81 4.25 7z"/>
        <path id="path3435" stroke="#120a04" stroke-width="1.0529px" fill="#28170b" d="m207.75 225.29c3.5 3.51 7.25 1.79 10.75 0.5 2.26-1.16 3.93-5.6 5-7.75-3.35-2.31-1.18-4.04-1-6.25-1.95-1.57-5.1 0.84-6.25 2.5-0.69 5.73-5.71 6.12-10.5 7.5-1.87 1.71 0.37 2.56 2 3.5z"/>
        <path id="path3465" stroke="#120a04" stroke-width="1.0529px" fill="#28170b" d="m196.81 215.8c1.67-0.55-0.85 8.08-0.83 9.3 0.04 1.88-4.2 2.92-4.94 4.81-2.96 4.13-2.42 1.21-5.59 4.82-0.43-4.04 1-7.6 1.67-9.51 0.58-2.12 2.09-3.41 4.08-4.07 1.25-0.41 4.17-4.54 5.61-5.35z"/>
        <path id="path3525" stroke="#401a00" stroke-width="1.0529px" fill="#520" d="m230.09 284.71c-2.59 1.87-6.81 4.06-9.41 4.16-2.83 0.82-5.7 2.32-9.31 0.77"/>
        <path id="path5568" stroke="#1a1a1a" stroke-width="1.0529px" fill="#333" d="m203 204c3.72 8.5 7.8 16.77 16.75 22l2.25-2.25c-7.21-4.01-12.62-11.24-16.5-21.25l-2.5 1.5z"/>
        <path id="path5566" stroke="#1a1a1a" stroke-width="1.0529px" fill="#666" d="m190 216c15.42-7.39 24.66-18.78 28.75-33.5-11.17 0.5-20.74-13.38-33.5 1.5-8.24 12.85 2.34 21.52 4.75 32z"/>
      </g>
      <path id="path6206" stroke-linejoin="round" d="m278.5 245.5l-2.52-1.13-2.54 1.09 0.3-2.75-1.82-2.07 2.71-0.56 1.4-2.38 1.38 2.4 2.69 0.6-1.86 2.05 0.26 2.75z" transform="matrix(.27585 -.55432 .68427 .22346 -460.8 410.15)" stroke="#92420c" stroke-width="1.0529" fill="#ffcb00"/>
      <path id="path6208" d="m-206.59 356.97c-10.95-1.76-23.07 10.89-25.2 27.77l0.79 4.76c0.43-6.76 11.05-28.98 25.82-29.56l-1.41-2.97z" fill-rule="evenodd" stroke="#3d003d" stroke-width="1.0529px" fill="#9c009c"/>
    </g>
  </g>
  <metadata>
    <rdf:RDF>
      <cc:Work>
        <dc:format>image/svg+xml</dc:format>
        <dc:type rdf:resource="http://purl.org/dc/dcmitype/StillImage"/>
        <cc:license rdf:resource="http://creativecommons.org/licenses/publicdomain/"/>
        <dc:publisher>
          <cc:Agent rdf:about="http://openclipart.org/">
            <dc:title>Openclipart</dc:title>
          </cc:Agent>
        </dc:publisher>
        <dc:title>Comic characters: Soldier</dc:title>
        <dc:date>2009-03-05T15:57:16</dc:date>
        <dc:description>Comic characters: a non-violent soldier</dc:description>
        <dc:source>http://openclipart.org/detail/21929/comic-characters:-soldier-by-nicubunu</dc:source>
        <dc:creator>
          <cc:Agent>
            <dc:title>nicubunu</dc:title>
          </cc:Agent>
        </dc:creator>
        <dc:subject>
          <rdf:Bag>
            <rdf:li>cartoon</rdf:li>
            <rdf:li>character</rdf:li>
            <rdf:li>clip art</rdf:li>
            <rdf:li>clipart</rdf:li>
            <rdf:li>comic</rdf:li>
            <rdf:li>funny</rdf:li>
            <rdf:li>guy</rdf:li>
            <rdf:li>human</rdf:li>
            <rdf:li>image</rdf:li>
            <rdf:li>media</rdf:li>
            <rdf:li>people</rdf:li>
            <rdf:li>png</rdf:li>
            <rdf:li>public domain</rdf:li>
            <rdf:li>svg</rdf:li>
          </rdf:Bag>
        </dc:subject>
      </cc:Work>
      <cc:License rdf:about="http://creativecommons.org/licenses/publicdomain/">
        <cc:permits rdf:resource="http://creativecommons.org/ns#Reproduction"/>
        <cc:permits rdf:resource="http://creativecommons.org/ns#Distribution"/>
        <cc:permits rdf:resource="http://creativecommons.org/ns#DerivativeWorks"/>
      </cc:License>
    </rdf:RDF>
  </metadata>
</svg>
