<?xml version="1.0"?>
<svg xmlns:rdf="http://www.w3.org/1999/02/22-rdf-syntax-ns#" xmlns="http://www.w3.org/2000/svg" xmlns:cc="http://web.resource.org/cc/" xmlns:dc="http://purl.org/dc/elements/1.1/" xmlns:svg="http://www.w3.org/2000/svg" id="svg2" viewBox="0 0 548.76 308.7" version="1.0">
  <g id="g3018" transform="translate(-62.404 -327.46)">
    <path id="path3979" d="m227.05 543.41c-19.58-4.21-48.27 22.88-58.29 45.54s-1.37 40.87 18.22 45.09c19.58 4.21 50.09-5.58 60.11-28.24s-0.45-58.18-20.04-62.39z" fill-rule="evenodd" stroke="#000" stroke-width="2.3347" fill="#00c100"/>
    <path id="path3981" d="m511.72 542.31c-19.58-4.21-48.27 22.89-58.29 45.54-10.02 22.66-1.37 40.88 18.21 45.09 19.59 4.21 50.1-5.58 60.12-28.24 10.02-22.65-0.46-58.18-20.04-62.39z" fill-rule="evenodd" stroke="#000" stroke-width="2.3347" fill="#00c100"/>
    <path id="path3961" d="m116.65 584.33l-0.64-21.9 5.8-3.86-3.22-11.59 3.86-1.93 0.64-21.26-6.44-1.93 0.65-9.02 6.44-3.86c5.69-41.65 6.87-86.2 21.9-121.08l-3.22-8.37c42.72-36.29 139.54-41.01 218.97-47.02 178.34-17.24 238.51 27.26 246.67 47.66l-23.18 5.8-4.51 17.39 10.3 83.72 13.53-1.29 5.79 8.38-14.16 10.3-9.67 43.15 7.73 0.65-3.86 34.13-3.87 15.46-50.88 19c-17.28-17.5 26.63-55.28-34.13-67.31-22.54-2.79-38.64 28.56-52.17 56.68-67.41 4.29-139.33 5.37-207.38 1.93 0.86-10.95 27.93-44.97-17.39-56.67-50.13-8.66-32.42 33.49-54.74 47.01l-56.04-3.86 3.22-10.31zm491.8-203.4c-3.95 27.79-3.65 77.64-4.87 104.18" fill-rule="evenodd" stroke="#000" stroke-width="2.3347" fill="red"/>
    <path id="path5731" d="m497.57 577.85c-4.91-1.05-12.1 5.74-14.61 11.41-2.51 5.68-0.34 10.25 4.57 11.3 4.9 1.06 12.55-1.4 15.06-7.07 2.51-5.68-0.11-14.58-5.02-15.64z" fill-rule="evenodd" stroke="#000" stroke-width="2.3347" fill="#00c100"/>
    <path id="path3965" d="m555.45 606.05c-0.54-51.09 36.6-12.34 46.05-27.04 6.01-0.33 3.65 13.52-0.97 21.57-3.22 8.27-36.71 5.9-45.08 5.47z" fill-rule="evenodd" stroke="#000" stroke-width="2.3347" fill="#cd0000"/>
    <path id="path3967" d="m603.36 543.9c5.36-8.26 6.54-28.76 0.32-37.03-11.49-17.39-18.79 35.1-15.78 39.29 9.34 0.86 7.08-1.83 15.46-2.26z" fill-rule="evenodd" stroke="#000" stroke-width="2.3347" fill="#cd0000"/>
    <path id="path3969" d="m226.79 399.17c-1.72 30.7-3.44 61.4-5.16 92.1-22.43 4.94-43.25 3.11-72.13 7.08 1.5-35.42 1.4-68.91 13.2-98.54 21.36-0.21 42.73-0.43 64.09-0.64z" fill-rule="evenodd" stroke="#000" stroke-width="2.3347" fill="#fff"/>
    <path id="path3971" d="m318.24 393.05c-3.65 28.12-5.04 101.97-10.3 99.18-18.9 1.4-47.77-1.07-76.65 0 1.51-35.42 3.33-65.69 4.51-97.25 21.36-0.21 61.08-1.71 82.44-1.93z" fill-rule="evenodd" stroke="#000" stroke-width="2.3347" fill="#fff"/>
    <path id="path3973" d="m399.71 391.76c-1.71 30.7-1.82 67.84-3.54 98.54-22.43 4.94-48.41 3.76-77.61 0 1.51-35.42 3.01-60.54 6.44-96.28 21.36-0.22 53.35-2.04 74.71-2.26z" fill-rule="evenodd" stroke="#000" stroke-width="2.3347" fill="#fff"/>
    <path id="path3975" d="m489.56 390.47c-1.72 30.7-2.15 71.71-8.05 101.44-22.44 4.94-49.7 0.54-78.25-1.29 1.5-35.42 0.1-68.91 3.86-101.11 21.36-0.22 61.08 1.18 82.44 0.96z" fill-rule="evenodd" stroke="#000" stroke-width="2.3347" fill="#fff"/>
    <path id="path3977" d="m567.01 390.08c5.12 33.44 4.31 66.87 2.59 97.57-22.43 8.58-46.34 3.02-75.21 4.26 1.5-35.42-2.47-72.13 2.57-103.69 21.37-0.21 48.24-2.02 70.05 1.86z" fill-rule="evenodd" stroke="#000" stroke-width="2.3347" fill="#fff"/>
    <path id="path6606" d="m163.93 495.46c-4.86 0.3-9.72 2.21-14.58 2.52 3.95-32.18 2.75-67.26 11.84-98.16 21.26-0.3 44.44-0.61 65.69-0.91-0.3 6.38-2.53 12.75-2.84 19.13-17-6.44-34.65-6.44-51 0-8.19 25.8-11.87 49.68-9.11 77.42z" stroke="#000" stroke-width=".45778px" fill-rule="evenodd"/>
    <path id="path7481" d="m237.69 491.34c-4.86 0.3-0.7-0.36-5.56-0.06 1.7-32.5 4.68-63.72 3.79-96.22 21.25-0.3 60.86-1.25 82.12-1.56-0.31 6.38-3.51 24.67-3.81 31.05 10.69-35.75-49.46-19.97-66.47-19.97-7.22 11.64-10.9 41.95-10.07 86.76z" stroke="#000" stroke-width=".45778px" fill-rule="evenodd"/>
    <path id="path7483" d="m329.39 490.86c-4.86 0.3-6.18-0.36-11.03-0.05 3.94-32.19 3.38-64.37 7.33-96.55 21.25-0.3 52.81-1.9 74.06-2.2-0.3 6.38-0.93 6.31-1.23 12.69-21.51-9.66-55.26-6.44-66.14 0-6.58 27.74-6.4 59.98-2.99 86.11z" stroke="#000" stroke-width=".45778px" fill-rule="evenodd"/>
    <path id="path7485" d="m415.31 490.45c-4.85 0.3-7.43-1.22-12.29-0.91 3.94-32.19 1.06-68.01 5.01-100.19 21.25-0.31 59.62 1.65 80.88 1.34-0.31 6.38-0.88 16.87-1.19 23.25 0.76-23.68-58.14-15.49-75.14-15.49-3.03 25.81-7.44 66.19 2.73 92z" stroke="#000" stroke-width=".45778px" fill-rule="evenodd"/>
    <path id="path7487" d="m509.58 493.18c-4.85 0.3-9.71 0.61-14.57 0.91 1.21-32.18-1.21-73.02 2.73-105.2 21.26-0.3 39.78-1.52 68.77 0.91-0.3 6.38 1.67 5.92 1.37 12.3-16.55-14.57-47.67-6.38-64.67-6.38-3.04 25.81-6.07 75.3 6.37 97.46z" stroke="#000" stroke-width=".45778px" fill-rule="evenodd"/>
    <path id="path9237" d="m539.41 610.4c8.12-33.78 8.96-69.38-44.85-63.76-55.19 5.01-33.63 32.23-52.15 49.53-11.08 8.43-25.35 1.25-35.29 5.12" stroke="#000" stroke-width="2.3347" fill="none"/>
    <path id="path9241" d="m553.76 509.12l-389.83 1.82" stroke="#000" stroke-width="2.3347" fill="none"/>
    <path id="path9243" d="m550.12 531.89l-372.53-3.64" stroke="#000" stroke-width="2.3347" fill="none"/>
    <path id="path9239" d="m251.08 602.4c11.97-25.51 9.55-54.8-30.65-59.79-54.92-1.75-37.63 42.66-57.37 48.27-8.2 2.58-14.12-6.68-21.86-4.55" stroke="#000" stroke-width="2.3347" fill="none"/>
    <path id="path5729" d="m212.03 581.66c-4.91-1.05-12.1 5.74-14.61 11.41-2.51 5.68-0.34 10.25 4.56 11.3 4.91 1.06 12.56-1.4 15.07-7.07 2.51-5.68-0.12-14.58-5.02-15.64z" fill-rule="evenodd" stroke="#000" stroke-width="2.3347" fill="#00c100"/>
    <path id="path3963" d="m143.06 607.52c2.79-8.27-2.15-25.55-30.27-19.97-0.86 6.44 0.21 14.82 3.22 19 9.34 0.86 18.68 1.4 27.05 0.97z" fill-rule="evenodd" stroke="#000" stroke-width="2.3347" fill="#cd0000"/>
    <g id="g17987" fill="#fff" transform="matrix(.39918 -.22408 .22408 .39918 -250.98 57.082)">
      <path id="path16231" d="m157.18 1705.5a49.244 51.234 0 1 1 -0.02 -1.5" stroke="#000" stroke-width="5.1" transform="matrix(1.2017 0 0 1.2017 -55.096 -655.43)"/>
      <path id="path17106" d="m157.18 1705.5a49.244 51.234 0 1 1 -0.02 -1.5" stroke="#000" stroke-width="5.1" transform="translate(-9.4509 -290.99)"/>
      <path id="path17110" d="m157.18 1705.5a49.244 51.234 0 1 1 -0.02 -1.5" stroke="#000" stroke-width="5.1" transform="matrix(.80578 0 0 .80578 33.288 65.611)"/>
      <path id="path17108" d="m157.18 1705.5a49.244 51.234 0 1 1 -0.02 -1.5" stroke="#000" stroke-width="5.1" transform="matrix(.73394 0 0 .73394 58.213 209.15)"/>
      <path id="path17112" d="m144.25 1442.3c-11.7-30.5-38.91-78.6-62.674-90.5-12.712-6.4-51.651 23.1-46.757 35.8 10.36 27 63.757 69.2 92.521 83.6 7.71 3.8 20.46-19.6 16.91-28.9z" fill-rule="evenodd"/>
    </g>
    <g id="g17994" fill="#fff" transform="matrix(.33810 -.096461 .096461 .33810 -52.895 123.41)">
      <path id="path17996" d="m157.18 1705.5a49.244 51.234 0 1 1 -0.02 -1.5" stroke="#000" stroke-width="5.1" transform="matrix(1.2017 0 0 1.2017 -55.096 -655.43)"/>
      <path id="path17998" d="m157.18 1705.5a49.244 51.234 0 1 1 -0.02 -1.5" stroke="#000" stroke-width="5.1" transform="translate(-9.4509 -290.99)"/>
      <path id="path18000" d="m157.18 1705.5a49.244 51.234 0 1 1 -0.02 -1.5" stroke="#000" stroke-width="5.1" transform="matrix(.80578 0 0 .80578 33.288 65.611)"/>
      <path id="path18002" d="m157.18 1705.5a49.244 51.234 0 1 1 -0.02 -1.5" stroke="#000" stroke-width="5.1" transform="matrix(.73394 0 0 .73394 58.213 209.15)"/>
      <path id="path18004" d="m144.25 1442.3c-11.7-30.5-38.91-78.6-62.674-90.5-12.712-6.4-51.651 23.1-46.757 35.8 10.36 27 63.757 69.2 92.521 83.6 7.71 3.8 20.46-19.6 16.91-28.9z" fill-rule="evenodd"/>
    </g>
  </g>
  <metadata>
    <rdf:RDF>
      <cc:Work>
        <dc:format>image/svg+xml</dc:format>
        <dc:type rdf:resource="http://purl.org/dc/dcmitype/StillImage"/>
        <cc:license rdf:resource="http://creativecommons.org/licenses/publicdomain/"/>
        <dc:publisher>
          <cc:Agent rdf:about="http://openclipart.org/">
            <dc:title>Openclipart</dc:title>
          </cc:Agent>
        </dc:publisher>
        <dc:title>bus</dc:title>
        <dc:date>2006-12-18T12:02:11</dc:date>
        <dc:description>cartooning bus</dc:description>
        <dc:source>http://openclipart.org/detail/2218/bus-by-drunken_duck</dc:source>
        <dc:creator>
          <cc:Agent>
            <dc:title>drunken_duck</dc:title>
          </cc:Agent>
        </dc:creator>
        <dc:subject>
          <rdf:Bag>
            <rdf:li>bus</rdf:li>
            <rdf:li>car</rdf:li>
            <rdf:li>cartoon</rdf:li>
            <rdf:li>city</rdf:li>
            <rdf:li>clip art</rdf:li>
            <rdf:li>clipart</rdf:li>
            <rdf:li>contour</rdf:li>
            <rdf:li>outline</rdf:li>
            <rdf:li>road</rdf:li>
            <rdf:li>transport</rdf:li>
            <rdf:li>transportation</rdf:li>
          </rdf:Bag>
        </dc:subject>
      </cc:Work>
      <cc:License rdf:about="http://creativecommons.org/licenses/publicdomain/">
        <cc:permits rdf:resource="http://creativecommons.org/ns#Reproduction"/>
        <cc:permits rdf:resource="http://creativecommons.org/ns#Distribution"/>
        <cc:permits rdf:resource="http://creativecommons.org/ns#DerivativeWorks"/>
      </cc:License>
    </rdf:RDF>
  </metadata>
</svg>
