<?xml version="1.0" encoding="UTF-8" standalone="no"?>
<!-- Created with Inkscape (http://www.inkscape.org/) -->

<svg
   xmlns:dc="http://purl.org/dc/elements/1.1/"
   xmlns:cc="http://creativecommons.org/ns#"
   xmlns:rdf="http://www.w3.org/1999/02/22-rdf-syntax-ns#"
   xmlns:svg="http://www.w3.org/2000/svg"
   xmlns="http://www.w3.org/2000/svg"
   xmlns:sodipodi="http://sodipodi.sourceforge.net/DTD/sodipodi-0.dtd"
   xmlns:inkscape="http://www.inkscape.org/namespaces/inkscape"
   width="1050"
   height="1050"
   id="svg2"
   version="1.1"
   inkscape:version="0.48.4 r9939"
   sodipodi:docname="Simple Xmas Cards 4.svg">
  <title
     id="title3039">Simple Xmas Cards 4</title>
  <defs
     id="defs4">
    <filter
       inkscape:collect="always"
       id="filter4195"
       x="-0.0090708686"
       width="1.0181417"
       y="-0.37844506"
       height="1.7568901"
       color-interpolation-filters="sRGB">
      <feGaussianBlur
         inkscape:collect="always"
         stdDeviation="2.5426778"
         id="feGaussianBlur4197" />
    </filter>
    <filter
       inkscape:collect="always"
       id="filter4199"
       x="-0.0090708686"
       width="1.0181417"
       y="-0.37844506"
       height="1.7568901"
       color-interpolation-filters="sRGB">
      <feGaussianBlur
         inkscape:collect="always"
         stdDeviation="2.5426778"
         id="feGaussianBlur4201" />
    </filter>
    <filter
       inkscape:collect="always"
       id="filter4775">
      <feGaussianBlur
         inkscape:collect="always"
         stdDeviation="3.3885541"
         id="feGaussianBlur4777" />
    </filter>
    <clipPath
       clipPathUnits="userSpaceOnUse"
       id="clipPath4848">
      <path
         style="fill:#ebebeb;fill-opacity:1;stroke:none"
         d="m 1116.8818,51.171727 952.381,0 0,952.381073 -952.381,0 z"
         id="path4850"
         inkscape:connector-curvature="0" />
    </clipPath>
  </defs>
  <sodipodi:namedview
     id="base"
     pagecolor="#ffffff"
     bordercolor="#666666"
     borderopacity="1.0"
     inkscape:pageopacity="0.0"
     inkscape:pageshadow="2"
     inkscape:zoom="0.21142616"
     inkscape:cx="1409.7076"
     inkscape:cy="501.91577"
     inkscape:document-units="px"
     inkscape:current-layer="layer1"
     showgrid="false"
     inkscape:showpageshadow="false"
     inkscape:window-width="705"
     inkscape:window-height="423"
     inkscape:window-x="345"
     inkscape:window-y="154"
     inkscape:window-maximized="0"
     showguides="true"
     inkscape:guide-bbox="true" />
  <metadata
     id="metadata7">
    <rdf:RDF>
      <cc:Work
         rdf:about="">
        <dc:format>image/svg+xml</dc:format>
        <dc:type
           rdf:resource="http://purl.org/dc/dcmitype/StillImage" />
        <dc:title>Simple Xmas Cards 4</dc:title>
        <dc:date>2014-12-16</dc:date>
        <dc:creator>
          <cc:Agent>
            <dc:title>Viscious-Speed</dc:title>
          </cc:Agent>
        </dc:creator>
        <dc:rights>
          <cc:Agent>
            <dc:title>public domain</dc:title>
          </cc:Agent>
        </dc:rights>
        <dc:description>Bauble</dc:description>
        <cc:license
           rdf:resource="http://creativecommons.org/licenses/publicdomain/" />
      </cc:Work>
      <cc:License
         rdf:about="http://creativecommons.org/licenses/publicdomain/">
        <cc:permits
           rdf:resource="http://creativecommons.org/ns#Reproduction" />
        <cc:permits
           rdf:resource="http://creativecommons.org/ns#Distribution" />
        <cc:permits
           rdf:resource="http://creativecommons.org/ns#DerivativeWorks" />
      </cc:License>
    </rdf:RDF>
  </metadata>
  <g
     inkscape:label="Layer 1"
     inkscape:groupmode="layer"
     id="layer1"
     transform="translate(0,-2.3621826)">
    <g
       id="g5427"
       transform="translate(0,-1073.4393)">
      <path
         id="path4667"
         d="m 25.4995,1101.301 999.001,0 0,999.001 -999.001,0 z"
         style="fill:#ffffff;fill-opacity:1;stroke:#cccccc;stroke-width:0.99900109"
         inkscape:connector-curvature="0" />
      <path
         style="fill:#f2efed;fill-opacity:1;stroke:none"
         d="m 48.8095,1124.6109 952.381,0 0,952.3811 -952.381,0 z"
         id="path4671"
         inkscape:connector-curvature="0" />
      <path
         inkscape:connector-curvature="0"
         id="path4673"
         d="m 48.8095,1762.2849 952.381,0 0,314.7071 -952.381,0 z"
         style="fill:#dccdc4;fill-opacity:1;stroke:none" />
      <path
         style="fill:#ffffff;fill-opacity:1;fill-rule:nonzero;stroke:none"
         d="m 912.4405,1124.617 c -4.9783,14.5889 -18.785,25.0893 -35.0596,25.0893 -16.2746,0 -30.0812,-10.5004 -35.0595,-25.0893 l 70.1191,0 z m -175.9524,0 c 14.7735,4.8737 25.4464,18.7722 25.4464,35.1786 0,20.4644 -16.5892,37.0536 -37.0536,37.0536 -20.4644,0 -37.0535,-16.5892 -37.0535,-37.0536 0,-16.4064 10.6728,-30.3049 25.4464,-35.1786 l 23.2143,0 z m -77.7381,0 c 0.031,0.6219 0.06,1.2455 0.06,1.875 0,20.4644 -16.5892,37.0536 -37.0536,37.0536 -20.4644,0 -37.0536,-16.5892 -37.0536,-37.0536 0,-0.6295 0.028,-1.2531 0.059,-1.875 l 73.9881,0 z m -192.8274,0 c 0.5145,2.4584 0.7738,5.0081 0.7738,7.6191 0,20.4644 -16.6189,37.0536 -37.0833,37.0536 -20.4644,0 -37.0536,-16.5892 -37.0536,-37.0536 0,-2.611 0.2601,-5.1607 0.7738,-7.6191 l 72.5893,0 z m -177.1131,0 c 0.013,0.4064 0.03,0.8107 0.03,1.2203 0,20.4644 -16.6189,37.0535 -37.0833,37.0535 -20.4644,0 -37.0536,-16.5891 -37.0536,-37.0535 0,-0.4096 0.017,-0.8139 0.03,-1.2203 l 74.0774,0 z m -201.2203,0 c 5.1729,6.3711 8.2738,14.4871 8.2738,23.3334 0,20.4644 -16.5891,37.0535 -37.0535,37.0535 -3.4679,0 -6.8165,-0.4781 -10,-1.369 l 0,-59.0179 38.7797,0 z m 430.7441,0.2977 c 20.4644,0 37.0536,16.5891 37.0536,37.0535 0,20.4644 -16.5892,37.0536 -37.0536,37.0536 -20.4644,0 -37.0536,-16.5892 -37.0536,-37.0536 0,-20.4644 16.5892,-37.0535 37.0536,-37.0535 z m -364.4048,6.2797 c 20.4644,0 37.0536,16.5892 37.0536,37.0536 0,20.4644 -16.5892,37.0536 -37.0536,37.0536 -20.4644,0 -37.0535,-16.5892 -37.0535,-37.0536 0,-20.4644 16.5891,-37.0536 37.0535,-37.0536 z m 184.2858,2.1726 c 20.4644,0 37.0535,16.619 37.0535,37.0834 0,20.4644 -16.5891,37.0535 -37.0535,37.0535 -20.4645,0 -37.0536,-16.5891 -37.0536,-37.0535 0,-20.4644 16.5891,-37.0834 37.0536,-37.0834 z m 616.5476,6.4584 c 20.4644,0 37.0536,16.5891 37.0536,37.0535 0,20.4644 -16.5892,37.0536 -37.0536,37.0536 -20.4644,0 -37.0536,-16.5892 -37.0536,-37.0536 0,-20.4644 16.5892,-37.0535 37.0536,-37.0535 z m -122.2322,12.7381 c 20.4645,0 37.0536,16.5891 37.0536,37.0535 0,20.4644 -16.5891,37.0536 -37.0536,37.0536 -20.4643,0 -37.0535,-16.5892 -37.0535,-37.0536 0,-20.4644 16.5892,-37.0535 37.0535,-37.0535 z m -587.7976,27.3512 c 20.4644,0 37.0536,16.5891 37.0536,37.0535 0,20.4644 -16.5892,37.0834 -37.0536,37.0834 -20.4644,0 -37.0536,-16.619 -37.0536,-37.0834 0,-20.4644 16.5892,-37.0535 37.0536,-37.0535 z m 371.8155,3.8095 c 20.4644,0 37.0536,16.5892 37.0536,37.0535 0,20.4645 -16.5892,37.0536 -37.0536,37.0536 -20.4644,0 -37.0536,-16.5891 -37.0536,-37.0536 0,-20.4643 16.5892,-37.0535 37.0536,-37.0535 z m -196.5179,7.8274 c 20.4644,0 37.0536,16.5891 37.0536,37.0535 0,20.4644 -16.5892,37.0536 -37.0536,37.0536 -20.4644,0 -37.0535,-16.5892 -37.0535,-37.0536 0,-20.4644 16.5891,-37.0535 37.0535,-37.0535 z m 96.3988,22.7083 c 20.4645,0 37.0536,16.5892 37.0536,37.0536 0,20.4644 -16.5891,37.0535 -37.0536,37.0535 -20.4644,0 -37.0535,-16.5891 -37.0535,-37.0535 0,-20.4644 16.5891,-37.0536 37.0535,-37.0536 z m -445.7143,0.06 c 20.4644,0 37.0536,16.5892 37.0536,37.0536 0,20.4644 -16.5892,37.0535 -37.0536,37.0535 -8.1977,0 -15.768,-2.6658 -21.9047,-7.1726 l 0,-59.7619 c 6.1367,-4.5068 13.707,-7.1726 21.9047,-7.1726 z m 719.1072,4.8512 c 20.4644,0 37.0536,16.5892 37.0536,37.0536 0,20.4644 -16.5892,37.0535 -37.0536,37.0535 -20.4644,0 -37.0536,-16.5891 -37.0536,-37.0535 0,-20.4644 16.5892,-37.0536 37.0536,-37.0536 z m -468.9583,0.3571 c 20.4644,0 37.0535,16.5892 37.0535,37.0536 0,20.4644 -16.5891,37.0536 -37.0535,37.0536 -20.4644,0 -37.0536,-16.5892 -37.0536,-37.0536 0,-20.4644 16.5892,-37.0536 37.0536,-37.0536 z m 381.7559,1.0119 c 20.4644,0 37.0536,16.5892 37.0536,37.0536 0,20.4644 -16.5892,37.0536 -37.0536,37.0536 -20.4644,0 -37.0535,-16.5892 -37.0535,-37.0536 0,-20.4644 16.5891,-37.0536 37.0535,-37.0536 z m -535.1488,7.4405 c 20.4644,0 37.0536,16.5892 37.0536,37.0536 0,20.4644 -16.5892,37.0536 -37.0536,37.0536 -20.4644,0 -37.0536,-16.5892 -37.0536,-37.0536 0,-20.4644 16.5892,-37.0536 37.0536,-37.0536 z m 726.4286,9.1072 c 20.4644,0 37.0536,16.5891 37.0536,37.0535 0,20.4644 -16.5892,37.0536 -37.0536,37.0536 -20.4644,0 -37.0536,-16.5892 -37.0536,-37.0536 0,-20.4644 16.5892,-37.0535 37.0536,-37.0535 z m 99.4048,3.3333 c 2.7066,0 5.3452,0.2824 7.8869,0.8333 l 0,72.4405 c -2.5417,0.551 -5.1803,0.8333 -7.8869,0.8333 -20.4644,0 -37.0536,-16.5891 -37.0536,-37.0535 0,-20.4644 16.5892,-37.0536 37.0536,-37.0536 z m -745.4465,46.5179 c 20.4644,0 37.0536,16.5891 37.0536,37.0535 0,20.4644 -16.5892,37.0536 -37.0536,37.0536 -20.4644,0 -37.0536,-16.5892 -37.0536,-37.0536 0,-20.4644 16.5892,-37.0535 37.0536,-37.0535 z m 315.7143,4.7916 c 20.4644,0 37.0536,16.5892 37.0536,37.0536 0,20.4644 -16.5892,37.0536 -37.0536,37.0536 -20.4644,0 -37.0833,-16.5892 -37.0833,-37.0536 0,-20.4644 16.6189,-37.0536 37.0833,-37.0536 z m -107.9464,2.6786 c 20.4644,0 37.0535,16.5892 37.0535,37.0536 0,20.4644 -16.5891,37.0535 -37.0535,37.0535 -20.4644,0 -37.0536,-16.5891 -37.0536,-37.0535 0,-20.4644 16.5892,-37.0536 37.0536,-37.0536 z m 192.7083,1.6369 c 20.4644,0 37.0536,16.5892 37.0536,37.0536 0,20.4644 -16.5892,37.0536 -37.0536,37.0536 -20.4644,0 -37.0536,-16.5892 -37.0536,-37.0536 0,-20.4644 16.5892,-37.0536 37.0536,-37.0536 z m -285.4167,1.5179 c 20.4644,0 37.0536,16.5892 37.0536,37.0535 0,20.4644 -16.5892,37.0536 -37.0536,37.0536 -20.4644,0 -37.0535,-16.5892 -37.0535,-37.0536 0,-20.4643 16.5891,-37.0535 37.0535,-37.0535 z m -231.0119,12.7678 c 20.4644,0 37.0536,16.5892 37.0536,37.0536 0,20.4644 -16.5892,37.0536 -37.0536,37.0536 -20.4644,0 -37.0535,-16.5892 -37.0535,-37.0536 0,-20.4644 16.5891,-37.0536 37.0535,-37.0536 z m 613.4822,7.1727 c 20.4644,0 37.0536,16.5891 37.0536,37.0535 0,20.4644 -16.5892,37.0536 -37.0536,37.0536 -20.4644,0 -37.0536,-16.5892 -37.0536,-37.0536 0,-20.4644 16.5892,-37.0535 37.0536,-37.0535 z m -696.5774,0.4761 c 14.2202,5.178 24.375,18.8105 24.375,34.8215 0,16.0109 -10.1548,29.6435 -24.375,34.8214 l 0,-69.6429 z m 795.6548,4.7024 c 20.4644,0 37.0535,16.5892 37.0535,37.0536 0,20.4644 -16.5891,37.0536 -37.0535,37.0536 -20.4644,0 -37.0536,-16.5892 -37.0536,-37.0536 0,-20.4644 16.5892,-37.0536 37.0536,-37.0536 z m 101.25,14.2857 c 20.4644,0 37.0536,16.5892 37.0536,37.0536 0,20.4644 -16.5892,37.0536 -37.0536,37.0536 -20.4644,0 -37.0536,-16.5892 -37.0536,-37.0536 0,-20.4644 16.5892,-37.0536 37.0536,-37.0536 z m -654.5239,40.2381 c 20.4644,0 37.0536,16.619 37.0536,37.0834 0,20.4644 -16.5892,37.0535 -37.0536,37.0535 -20.4644,0 -37.0535,-16.5891 -37.0535,-37.0535 0,-20.4644 16.5891,-37.0834 37.0535,-37.0834 z m 100.1786,8.631 c 20.4644,0 37.0536,16.5892 37.0536,37.0536 0,20.4644 -16.5892,37.0535 -37.0536,37.0535 -20.4644,0 -37.0536,-16.5891 -37.0536,-37.0535 0,-20.4644 16.5892,-37.0536 37.0536,-37.0536 z m -204.0178,1.5476 c 20.4644,0 37.0535,16.5892 37.0535,37.0536 0,20.4644 -16.5891,37.0535 -37.0535,37.0535 -20.4644,0 -37.0536,-16.5891 -37.0536,-37.0535 0,-20.4644 16.5892,-37.0536 37.0536,-37.0536 z m 300.2381,0.2679 c 20.4644,0 37.0535,16.5891 37.0535,37.0535 0,20.4644 -16.5891,37.0536 -37.0535,37.0536 -20.4644,0 -37.0536,-16.5892 -37.0536,-37.0536 0,-20.4644 16.5892,-37.0535 37.0536,-37.0535 z m 88.75,2.8273 c 20.4644,0 37.0535,16.5892 37.0535,37.0536 0,20.4644 -16.5891,37.0536 -37.0535,37.0536 -20.4644,0 -37.0536,-16.5892 -37.0536,-37.0536 0,-20.4644 16.5892,-37.0536 37.0536,-37.0536 z m 107.2916,7.2322 c 20.4644,0 37.0536,16.5892 37.0536,37.0536 0,20.4644 -16.5892,37.0535 -37.0536,37.0535 -20.4644,0 -37.0535,-16.5891 -37.0535,-37.0535 0,-20.4644 16.5891,-37.0536 37.0535,-37.0536 z m -607.7976,14.0476 c 20.4644,0 37.0536,16.5892 37.0536,37.0536 0,20.4644 -16.5892,37.0536 -37.0536,37.0536 -10.6611,0 -20.2637,-4.5193 -27.0238,-11.7262 l 0,-50.6548 c 6.7601,-7.2069 16.3627,-11.7262 27.0238,-11.7262 z m 708.2738,8.631 c 20.4644,0 37.0536,16.5891 37.0536,37.0535 0,20.4644 -16.5892,37.0536 -37.0536,37.0536 -20.4644,0 -37.0535,-16.5892 -37.0535,-37.0536 0,-20.4644 16.5891,-37.0535 37.0535,-37.0535 z m 99.1965,4.375 c 20.4644,0 37.0535,16.5891 37.0535,37.0535 0,20.4644 -16.5891,37.0536 -37.0535,37.0536 -20.4644,0 -37.0536,-16.5892 -37.0536,-37.0536 0,-20.4644 16.5892,-37.0535 37.0536,-37.0535 z m 117.8869,7.7381 0,74.1071 c -0.05,2e-4 -0.099,0 -0.1488,0 -20.4644,0 -37.0536,-16.5892 -37.0536,-37.0536 0,-20.4644 16.5892,-37.0535 37.0536,-37.0535 0.05,0 0.099,-3e-4 0.1488,0 z m -386.6965,41.0416 c 20.4644,0 37.0536,16.5892 37.0536,37.0536 0,20.4644 -16.5892,37.0536 -37.0536,37.0536 -20.4644,0 -37.0536,-16.5892 -37.0536,-37.0536 0,-20.4644 16.5892,-37.0536 37.0536,-37.0536 z m -378.3333,0.1488 c 20.4644,0 37.0535,16.5892 37.0535,37.0536 0,20.4644 -16.5891,37.0536 -37.0535,37.0536 -20.4644,0 -37.0536,-16.5892 -37.0536,-37.0536 0,-20.4644 16.5892,-37.0536 37.0536,-37.0536 z m 99.2857,5.7738 c 20.4644,0 37.0536,16.5892 37.0536,37.0536 0,20.4644 -16.5892,37.0536 -37.0536,37.0536 -20.4644,0 -37.0536,-16.5892 -37.0536,-37.0536 0,-20.4644 16.5892,-37.0536 37.0536,-37.0536 z m 182.8869,3.0358 c 20.4644,0 37.0536,16.5891 37.0536,37.0535 0,20.4644 -16.5892,37.0536 -37.0536,37.0536 -20.4644,0 -37.0536,-16.5892 -37.0536,-37.0536 0,-20.4644 16.5892,-37.0535 37.0536,-37.0535 z m -91.9643,3.8095 c 20.4644,0 37.0536,16.5892 37.0536,37.0536 0,20.4644 -16.5892,37.0535 -37.0536,37.0535 -20.4644,0 -37.0536,-16.5891 -37.0536,-37.0535 0,-20.4644 16.5892,-37.0536 37.0536,-37.0536 z m -290.2976,3.8393 c 20.4644,0 37.0536,16.5891 37.0536,37.0535 0,20.4644 -16.5892,37.0536 -37.0536,37.0536 -20.4644,0 -37.0536,-16.5892 -37.0536,-37.0536 0,-20.4644 16.5892,-37.0535 37.0536,-37.0535 z m 580.3572,1.8154 c 20.4644,0 37.0833,16.5892 37.0833,37.0536 0,20.4644 -16.6189,37.0536 -37.0833,37.0536 -20.4644,0 -37.0536,-16.5892 -37.0536,-37.0536 0,-20.4644 16.5892,-37.0536 37.0536,-37.0536 z m 202.2023,16.131 c 20.4644,0 37.0536,16.5892 37.0536,37.0536 0,20.4644 -16.5892,37.0535 -37.0536,37.0535 -20.4643,0 -37.0535,-16.5891 -37.0535,-37.0535 0,-20.4644 16.5892,-37.0536 37.0535,-37.0536 z m -107.1726,16.9643 c 20.4644,0 37.0536,16.5892 37.0536,37.0536 0,20.4644 -16.5892,37.0535 -37.0536,37.0535 -20.4644,0 -37.0535,-16.5892 -37.0535,-37.0536 0,-20.4644 16.5891,-37.0535 37.0535,-37.0535 z m -762.6488,4.2559 c 10.574,6.5256 17.619,18.2097 17.619,31.5477 0,13.338 -7.045,25.0221 -17.619,31.5476 l 0,-63.0953 z m 591.2798,24.9108 c 20.4644,0 37.0535,16.5891 37.0535,37.0535 0,20.4644 -16.5891,37.0536 -37.0535,37.0536 -20.4644,0 -37.0536,-16.5892 -37.0536,-37.0536 0,-20.4644 16.5892,-37.0535 37.0536,-37.0535 z m -352.0834,1.7857 c 20.4644,0 37.0536,16.5891 37.0536,37.0535 0,20.4644 -16.5892,37.0536 -37.0536,37.0536 -20.4644,0 -37.0536,-16.5892 -37.0536,-37.0536 0,-20.4644 16.5892,-37.0535 37.0536,-37.0535 z m 268.0655,8.0952 c 20.4644,0 37.0536,16.5892 37.0536,37.0536 0,20.4644 -16.5892,37.0536 -37.0536,37.0536 -20.4644,0 -37.0536,-16.5892 -37.0536,-37.0536 0,-20.4644 16.5892,-37.0536 37.0536,-37.0536 z m -355.1786,17.4702 c 20.4644,0 37.0536,16.5892 37.0536,37.0536 0,20.4644 -16.5892,37.0536 -37.0536,37.0536 -20.4644,0 -37.0536,-16.5892 -37.0536,-37.0536 0,-20.4644 16.5892,-37.0536 37.0536,-37.0536 z m -92.0833,0.1489 c 20.4644,0 37.0536,16.5891 37.0536,37.0535 0,20.4644 -16.5892,37.0536 -37.0536,37.0536 -20.4644,0 -37.0536,-16.5892 -37.0536,-37.0536 0,-20.4644 16.5892,-37.0535 37.0536,-37.0535 z m 261.6071,1.5476 c 20.4644,0 37.0536,16.5891 37.0536,37.0535 0,20.4644 -16.5892,37.0536 -37.0536,37.0536 -20.4644,0 -37.0535,-16.5892 -37.0535,-37.0536 0,-20.4644 16.5891,-37.0535 37.0535,-37.0535 z m 603.512,5.5357 c 10.7814,0 20.4908,4.6144 27.2619,11.9643 l 0,50.1785 c -6.7711,7.3499 -16.4805,11.9643 -27.2619,11.9643 -20.4644,0 -37.0536,-16.5891 -37.0536,-37.0535 0,-20.4644 16.5892,-37.0536 37.0536,-37.0536 z m -511.8751,0.7143 c 20.4645,0 37.0536,16.5891 37.0536,37.0535 0,20.4644 -16.5891,37.0536 -37.0536,37.0536 -20.4644,0 -37.0535,-16.5892 -37.0535,-37.0536 0,-20.4644 16.5891,-37.0535 37.0535,-37.0535 z m 247.0239,3.2143 c 20.4644,0 37.0535,16.5891 37.0535,37.0535 0,20.4644 -16.5891,37.0536 -37.0535,37.0536 -20.4644,0 -37.0536,-16.5892 -37.0536,-37.0536 0,-20.4644 16.5892,-37.0535 37.0536,-37.0535 z m 179.9702,20.9226 c 20.4644,0 37.0536,16.5892 37.0536,37.0535 0,20.4644 -16.5892,37.0536 -37.0536,37.0536 -20.4644,0 -37.0536,-16.5892 -37.0536,-37.0536 0,-20.4643 16.5892,-37.0535 37.0536,-37.0535 z m -94.6726,9.7321 c 20.4644,0 37.0536,16.5892 37.0536,37.0536 0,20.4644 -16.5892,37.0536 -37.0536,37.0536 -20.4644,0 -37.0536,-16.5892 -37.0536,-37.0536 0,-20.4644 16.5892,-37.0536 37.0536,-37.0536 z m -745.5655,25.7441 c 15.1759,4.6352 26.2202,18.7533 26.2202,35.4464 0,16.6931 -11.0443,30.8111 -26.2202,35.4464 l 0,-70.8928 z m 566.9643,1.7262 c 20.4644,0 37.0536,16.5891 37.0536,37.0535 0,20.4644 -16.5892,37.0536 -37.0536,37.0536 -20.4644,0 -37.0536,-16.5892 -37.0536,-37.0536 0,-20.4644 16.5892,-37.0535 37.0536,-37.0535 z m -106.1012,10.6845 c 20.4644,0 37.0536,16.5891 37.0536,37.0536 0,20.4644 -16.5892,37.0535 -37.0536,37.0535 -20.4644,0 -37.0536,-16.5891 -37.0536,-37.0535 0,-20.4644 16.5892,-37.0536 37.0536,-37.0536 z m -230.625,3.0952 c 20.4644,0 37.0536,16.5892 37.0536,37.0536 0,20.4644 -16.5892,37.0536 -37.0536,37.0536 -20.4644,0 -37.0536,-16.5892 -37.0536,-37.0536 0,-20.4644 16.5892,-37.0536 37.0536,-37.0536 z m -120.9226,7.7084 c 20.4644,0 37.0535,16.5891 37.0535,37.0535 0,20.4644 -16.5891,37.0536 -37.0535,37.0536 -20.4644,0 -37.0536,-16.5892 -37.0536,-37.0536 0,-20.4644 16.5892,-37.0535 37.0536,-37.0535 z m 553.125,3.5714 c 20.4644,0 37.0536,16.5891 37.0536,37.0536 0,20.4644 -16.5892,37.0535 -37.0536,37.0535 -20.4644,0 -37.0536,-16.5891 -37.0536,-37.0535 0,-20.4644 16.5892,-37.0536 37.0536,-37.0536 z m -309.0774,13.0059 c 20.4644,0 37.0536,16.5892 37.0536,37.0536 0,20.4644 -16.5892,37.0536 -37.0536,37.0536 -20.4644,0 -37.0536,-16.5892 -37.0536,-37.0536 0,-20.4644 16.5892,-37.0536 37.0536,-37.0536 z m 388.244,20.8929 c 20.4645,0 37.0536,16.5892 37.0536,37.0536 0,20.4644 -16.5891,37.0535 -37.0536,37.0535 -20.4643,0 -37.0535,-16.5891 -37.0535,-37.0535 0,-20.4644 16.5892,-37.0536 37.0535,-37.0536 z"
         id="path4675"
         inkscape:connector-curvature="0" />
      <g
         transform="translate(-1068.0721,1073.4392)"
         id="g4978">
        <path
           inkscape:connector-curvature="0"
           id="path4773"
           d="m 1580.9375,38.076169 0,239.536011 -52.9063,0 c -11.1458,0 -20.125,8.04587 -20.125,18.0625 l 0,43.625 c -128.0329,36.91144 -221.6874,154.92912 -221.6874,294.84375 0,169.46344 137.3803,306.84375 306.8437,306.84375 169.4634,0 306.8437,-137.38031 306.8437,-306.84375 0,-139.90415 -93.6378,-257.92292 -221.6562,-294.84375 l 0,-43.625 c 0,-10.01663 -8.9792,-18.0625 -20.125,-18.0625 l -52.9375,0 0,-239.536011 z"
           style="fill:#b3b3b3;fill-opacity:1;fill-rule:nonzero;stroke:none;filter:url(#filter4775)"
           sodipodi:nodetypes="ccsscssscssccc"
           clip-path="url(#clipPath4848)"
           transform="translate(0.00965,0)" />
        <path
           sodipodi:nodetypes="ccsscssscssccc"
           style="fill:#ffffff;fill-opacity:1;fill-rule:nonzero;stroke:none"
           d="m 1580.9472,50.455862 0,228.125068 -52.2814,0 c -11.0372,0 -19.9061,8.53687 -19.9061,19.15625 l 0,41.3125 c -128.4665,36.63437 -222.5312,154.87105 -222.5312,295.09375 0,169.46344 137.3803,306.84375 306.8437,306.84375 169.4634,0 306.8436,-137.38031 306.8436,-306.84375 0,-140.21221 -94.0481,-258.44991 -222.5,-295.09375 l 0,-41.3125 c 0,-10.61938 -8.8687,-19.15625 -19.9061,-19.15625 l -52.3125,0 0,-228.125068 z"
           id="rect4826"
           inkscape:connector-curvature="0" />
        <path
           inkscape:connector-curvature="0"
           id="path4771"
           d="m 1510.369,355.23718 c -120.3486,35.63017 -208.1562,147.00139 -208.1562,278.90625 0,160.6373 130.2064,290.875 290.8437,290.875 160.6373,0 290.875,-130.2377 290.875,-290.875 0,-131.90955 -87.8323,-243.28021 -208.1875,-278.90625 l -165.375,0 z"
           style="fill:#ffb3a1;fill-opacity:1;fill-rule:nonzero;stroke:none" />
        <path
           style="fill:#ffe3c5;fill-opacity:1;fill-rule:nonzero;stroke:none"
           d="m 1398.4316,418.01843 c -2.9483,2.65623 -5.8191,5.383 -8.6563,8.15625 l 406.5626,0 c -2.8377,-2.77321 -5.7075,-5.50007 -8.6563,-8.15625 l -389.25,0 z m 16.4063,14.53125 c -2.2863,0 -4.5607,0.8729 -6.3126,2.625 l -10.4062,10.375 c -3.5042,3.5042 -3.5042,9.15205 0,12.65625 l 10.4062,10.40625 c 3.5044,3.5042 9.1205,3.5042 12.625,0 l 10.4063,-10.40625 c 3.5042,-3.5043 3.5042,-9.15205 0,-12.65625 l -10.4063,-10.375 c -1.752,-1.7521 -4.026,-2.625 -6.3124,-2.625 z m 50.9374,0 c -2.2864,0 -4.5604,0.8729 -6.3124,2.625 l -10.4063,10.375 c -3.5042,3.5042 -3.5042,9.15205 0,12.65625 l 10.4063,10.40625 c 3.5045,3.5042 9.1206,3.5042 12.625,0 l 10.4062,-10.40625 c 3.5042,-3.5043 3.5042,-9.15205 0,-12.65625 l -10.4062,-10.375 c -1.7519,-1.7521 -4.0263,-2.625 -6.3126,-2.625 z m 50.9376,0 c -2.2863,0 -4.5607,0.8729 -6.3126,2.625 l -10.4062,10.375 c -3.5042,3.5042 -3.5042,9.15205 0,12.65625 l 10.4062,10.40625 c 3.5044,3.5042 9.1521,3.5042 12.6563,0 l 10.375,-10.40625 c 3.5042,-3.5043 3.5042,-9.15205 0,-12.65625 l -10.375,-10.375 c -1.7521,-1.7521 -4.0569,-2.625 -6.3437,-2.625 z m 50.9374,0 c -2.2864,0 -4.5604,0.8729 -6.3124,2.625 l -10.4063,10.375 c -3.5042,3.5042 -3.5042,9.15205 0,12.65625 l 10.4063,10.40625 c 3.5045,3.5042 9.152,3.5042 12.6562,0 l 10.375,-10.40625 c 3.5042,-3.5043 3.5042,-9.15205 0,-12.65625 l -10.375,-10.375 c -1.7521,-1.7521 -4.0574,-2.625 -6.3438,-2.625 z m 50.9063,0 c -2.2864,0 -4.5605,0.8729 -6.3125,2.625 l -10.4062,10.375 c -3.5044,3.5042 -3.5044,9.15205 0,12.65625 l 10.4062,10.40625 c 3.5042,3.5042 9.152,3.5042 12.6562,0 l 10.375,-10.40625 c 3.5044,-3.5043 3.5044,-9.15205 0,-12.65625 l -10.375,-10.375 c -1.7519,-1.7521 -4.057,-2.625 -6.3437,-2.625 z m 50.9375,0 c -2.2866,0 -4.5603,0.8729 -6.3125,2.625 l -10.4063,10.375 c -3.5044,3.5042 -3.5044,9.15205 0,12.65625 l 10.4063,10.40625 c 3.5044,3.5042 9.1521,3.5042 12.6563,0 l 10.375,-10.40625 c 3.5044,-3.5043 3.5044,-9.15205 0,-12.65625 l -10.375,-10.375 c -1.7519,-1.7521 -4.0574,-2.625 -6.3438,-2.625 z m 50.9062,0 c -2.2862,0 -4.5606,0.8729 -6.3124,2.625 l -10.375,10.375 c -3.5046,3.5042 -3.5046,9.15205 0,12.65625 l 10.375,10.40625 c 3.5044,3.5042 9.152,3.5042 12.6562,0 l 10.375,-10.40625 c 3.5042,-3.5043 3.5042,-9.15205 0,-12.65625 l -10.375,-10.375 c -1.7521,-1.7521 -4.0571,-2.625 -6.3438,-2.625 z m 50.9376,0 c -2.2864,0 -4.5915,0.8729 -6.3438,2.625 l -10.375,10.375 c -3.5042,3.5042 -3.5042,9.15205 0,12.65625 l 10.375,10.40625 c 3.5044,3.5042 9.1519,3.5042 12.6562,0 l 10.375,-10.40625 c 3.5044,-3.5043 3.5044,-9.15205 0,-12.65625 l -10.375,-10.375 c -1.7519,-1.7521 -4.026,-2.625 -6.3124,-2.625 z m -395.5,8.1875 c -7.2736,8.16189 -14.0786,16.73986 -20.4063,25.6875 l 2.1563,2.1875 c 3.5044,3.5042 9.1521,3.5042 12.6562,0 l 10.4062,-10.40625 c 3.5044,-3.5043 3.5044,-9.15205 0,-12.65625 l -4.8124,-4.8125 z m 434.4687,0 -4.8125,4.8125 c -3.5044,3.5042 -3.5044,9.15205 0,12.65625 l 10.375,10.40625 c 3.5042,3.5042 9.152,3.5042 12.6562,0 l 2.1563,-2.1875 c -6.3239,-8.94027 -13.1066,-17.53176 -20.375,-25.6875 z m -462.4687,36.9375 c -1.7124,2.6777 -3.374,5.38843 -5,8.125 l 500.4374,0 c -1.6264,-2.73659 -3.2872,-5.44729 -5,-8.125 l -490.4374,0 z m -19.5626,36 c -1.2304,2.69962 -2.4441,5.41315 -3.5937,8.15625 l 536.75,0 c -1.1496,-2.74255 -2.332,-5.45716 -3.5625,-8.15625 l -529.5938,0 z m 35.6563,14.53125 c -2.2866,0 -4.5915,0.8729 -6.3437,2.625 l -10.375,10.375 c -3.5044,3.5042 -3.5044,9.15205 0,12.65625 l 10.375,10.40625 c 3.5044,3.5042 9.1521,3.5042 12.6562,0 l 10.4062,-10.40625 c 3.5044,-3.5043 3.5044,-9.15205 0,-12.65625 l -10.4062,-10.375 c -1.752,-1.7521 -4.0261,-2.625 -6.3125,-2.625 z m 50.9063,0 c -2.2863,0 -4.5607,0.8729 -6.3126,2.625 l -10.4062,10.375 c -3.5042,3.5042 -3.5042,9.15205 0,12.65625 l 10.4062,10.40625 c 3.5044,3.5042 9.1205,3.5042 12.625,0 l 10.4063,-10.40625 c 3.5042,-3.5043 3.5042,-9.15205 0,-12.65625 l -10.4063,-10.375 c -1.752,-1.7521 -4.026,-2.625 -6.3124,-2.625 z m 50.9374,0 c -2.2864,0 -4.5604,0.8729 -6.3124,2.625 l -10.4063,10.375 c -3.5042,3.5042 -3.5042,9.15205 0,12.65625 l 10.4063,10.40625 c 3.5045,3.5042 9.1206,3.5042 12.625,0 l 10.4062,-10.40625 c 3.5042,-3.5043 3.5042,-9.15205 0,-12.65625 l -10.4062,-10.375 c -1.7519,-1.7521 -4.0263,-2.625 -6.3126,-2.625 z m 50.9376,0 c -2.2863,0 -4.5607,0.8729 -6.3126,2.625 l -10.4062,10.375 c -3.5042,3.5042 -3.5042,9.15205 0,12.65625 l 10.4062,10.40625 c 3.5044,3.5042 9.1521,3.5042 12.6563,0 l 10.375,-10.40625 c 3.5042,-3.5043 3.5042,-9.15205 0,-12.65625 l -10.375,-10.375 c -1.7521,-1.7521 -4.0569,-2.625 -6.3437,-2.625 z m 50.9374,0 c -2.2864,0 -4.5604,0.8729 -6.3124,2.625 l -10.4063,10.375 c -3.5042,3.5042 -3.5042,9.15205 0,12.65625 l 10.4063,10.40625 c 3.5045,3.5042 9.152,3.5042 12.6562,0 l 10.375,-10.40625 c 3.5042,-3.5043 3.5042,-9.15205 0,-12.65625 l -10.375,-10.375 c -1.7521,-1.7521 -4.0574,-2.625 -6.3438,-2.625 z m 50.9063,0 c -2.2864,0 -4.5605,0.8729 -6.3125,2.625 l -10.4062,10.375 c -3.5044,3.5042 -3.5044,9.15205 0,12.65625 l 10.4062,10.40625 c 3.5042,3.5042 9.152,3.5042 12.6562,0 l 10.375,-10.40625 c 3.5044,-3.5043 3.5044,-9.15205 0,-12.65625 l -10.375,-10.375 c -1.7519,-1.7521 -4.057,-2.625 -6.3437,-2.625 z m 50.9375,0 c -2.2866,0 -4.5603,0.8729 -6.3125,2.625 l -10.4063,10.375 c -3.5044,3.5042 -3.5044,9.15205 0,12.65625 l 10.4063,10.40625 c 3.5044,3.5042 9.1521,3.5042 12.6563,0 l 10.375,-10.40625 c 3.5044,-3.5043 3.5044,-9.15205 0,-12.65625 l -10.375,-10.375 c -1.7519,-1.7521 -4.0574,-2.625 -6.3438,-2.625 z m 50.9062,0 c -2.2862,0 -4.5606,0.8729 -6.3124,2.625 l -10.375,10.375 c -3.5046,3.5042 -3.5046,9.15205 0,12.65625 l 10.375,10.40625 c 3.5044,3.5042 9.152,3.5042 12.6562,0 l 10.375,-10.40625 c 3.5042,-3.5043 3.5042,-9.15205 0,-12.65625 l -10.375,-10.375 c -1.7521,-1.7521 -4.0571,-2.625 -6.3438,-2.625 z m 50.9376,0 c -2.2864,0 -4.5915,0.8729 -6.3438,2.625 l -10.375,10.375 c -3.5042,3.5042 -3.5042,9.15205 0,12.65625 l 10.375,10.40625 c 3.5044,3.5042 9.1519,3.5042 12.6562,0 l 10.375,-10.40625 c 3.5044,-3.5043 3.5044,-9.15205 0,-12.65625 l -10.375,-10.375 c -1.7519,-1.7521 -4.026,-2.625 -6.3124,-2.625 z m 50.8437,0 c -2.2864,0 -4.5605,0.8729 -6.3125,2.625 l -10.375,10.375 c -3.5044,3.5042 -3.5044,9.15205 0,12.65625 l 10.375,10.40625 c 3.5042,3.5042 9.152,3.5042 12.6562,0 l 10.375,-10.40625 c 3.5044,-3.5043 3.5044,-9.15205 0,-12.65625 l -10.375,-10.375 c -1.7519,-1.7521 -4.057,-2.625 -6.3437,-2.625 z m 43.3125,3.90625 -9.0938,9.09375 c -3.5044,3.5042 -3.5044,9.15205 0,12.65625 l 10.375,10.40625 c 2.5026,2.5023 6.0915,3.19641 9.2188,2.125 -2.7979,-11.7211 -6.3307,-23.15913 -10.5,-34.28125 z m -544.875,0.0312 c -4.1674,11.12269 -7.6727,22.55972 -10.4688,34.28125 3.1118,1.03883 6.6715,0.3284 9.1563,-2.15625 l 10.4063,-10.40625 c 3.5044,-3.5043 3.5044,-9.15205 0,-12.65625 l -9.0938,-9.0625 z m -12.0312,41.1875 c -0.5732,2.69406 -1.0959,5.40389 -1.5938,8.125 l 572.1562,0 c -0.498,-2.72118 -1.0205,-5.43087 -1.5937,-8.125 l -568.9687,0 z m 27.875,197.875 c 1.4693,2.74558 2.9772,5.46421 4.5312,8.15625 l 504.1562,0 c 1.5541,-2.6917 3.0306,-5.41102 4.5,-8.15625 l -513.1874,0 z m 27.4687,14.53125 c -2.2866,0 -4.5915,0.8729 -6.3437,2.625 l -6.7813,6.78125 c 6.096,9.15565 12.6836,17.95834 19.75,26.34375 l 10.0937,-10.125 c 3.5044,-3.5043 3.5044,-9.1208 0,-12.625 l -10.4062,-10.375 c -1.752,-1.7521 -4.0261,-2.625 -6.3125,-2.625 z m 50.9063,0 c -2.2863,0 -4.5607,0.8729 -6.3126,2.625 l -10.4062,10.375 c -3.5042,3.5042 -3.5042,9.1208 0,12.625 l 10.4062,10.4375 c 3.5044,3.5042 9.1205,3.5042 12.625,0 l 10.4063,-10.4375 c 3.5042,-3.5043 3.5042,-9.1208 0,-12.625 l -10.4063,-10.375 c -1.752,-1.7521 -4.026,-2.625 -6.3124,-2.625 z m 50.9374,0 c -2.2864,0 -4.5604,0.8729 -6.3124,2.625 l -10.4063,10.375 c -3.5042,3.5042 -3.5042,9.1208 0,12.625 l 10.4063,10.4375 c 3.5045,3.5042 9.1206,3.5042 12.625,0 l 10.4062,-10.4375 c 3.5042,-3.5043 3.5042,-9.1208 0,-12.625 l -10.4062,-10.375 c -1.7519,-1.7521 -4.0263,-2.625 -6.3126,-2.625 z m 50.9376,0 c -2.2863,0 -4.5607,0.8729 -6.3126,2.625 l -10.4062,10.375 c -3.5042,3.5042 -3.5042,9.1208 0,12.625 l 10.4062,10.4375 c 3.5044,3.5042 9.1521,3.5042 12.6563,0 l 10.375,-10.4375 c 3.5042,-3.5043 3.5042,-9.1208 0,-12.625 l -10.375,-10.375 c -1.7521,-1.7521 -4.0569,-2.625 -6.3437,-2.625 z m 50.9374,0 c -2.2864,0 -4.5604,0.8729 -6.3124,2.625 l -10.4063,10.375 c -3.5042,3.5042 -3.5042,9.1208 0,12.625 l 10.4063,10.4375 c 3.5045,3.5042 9.152,3.5042 12.6562,0 l 10.375,-10.4375 c 3.5042,-3.5043 3.5042,-9.1208 0,-12.625 l -10.375,-10.375 c -1.7521,-1.7521 -4.0574,-2.625 -6.3438,-2.625 z m 50.9063,0 c -2.2864,0 -4.5605,0.8729 -6.3125,2.625 l -10.4062,10.375 c -3.5044,3.5042 -3.5044,9.1208 0,12.625 l 10.4062,10.4375 c 3.5042,3.5042 9.152,3.5042 12.6562,0 l 10.375,-10.4375 c 3.5044,-3.5043 3.5044,-9.1208 0,-12.625 l -10.375,-10.375 c -1.7519,-1.7521 -4.057,-2.625 -6.3437,-2.625 z m 50.9375,0 c -2.2866,0 -4.5603,0.8729 -6.3125,2.625 l -10.4063,10.375 c -3.5044,3.5042 -3.5044,9.1208 0,12.625 l 10.4063,10.4375 c 3.5044,3.5042 9.1521,3.5042 12.6563,0 l 10.375,-10.4375 c 3.5044,-3.5043 3.5044,-9.1208 0,-12.625 l -10.375,-10.375 c -1.7519,-1.7521 -4.0574,-2.625 -6.3438,-2.625 z m 50.9062,0 c -2.2862,0 -4.5606,0.8729 -6.3124,2.625 l -10.375,10.375 c -3.5046,3.5042 -3.5046,9.1208 0,12.625 l 10.375,10.4375 c 3.5044,3.5042 9.152,3.5042 12.6562,0 l 10.375,-10.4375 c 3.5042,-3.5043 3.5042,-9.1208 0,-12.625 l -10.375,-10.375 c -1.7521,-1.7521 -4.0571,-2.625 -6.3438,-2.625 z m 50.9376,0 c -2.2864,0 -4.5915,0.8729 -6.3438,2.625 l -10.375,10.375 c -3.5042,3.5042 -3.5042,9.1208 0,12.625 l 10.375,10.4375 c 3.5044,3.5042 9.1519,3.5042 12.6562,0 l 10.375,-10.4375 c 3.5044,-3.5043 3.5044,-9.1208 0,-12.625 l -10.375,-10.375 c -1.7519,-1.7521 -4.026,-2.625 -6.3124,-2.625 z m 50.8437,0 c -2.2864,0 -4.5605,0.8729 -6.3125,2.625 l -10.375,10.375 c -3.5044,3.5042 -3.5044,9.1208 0,12.625 l 10.0625,10.125 c 7.0675,-8.38541 13.653,-17.1881 19.75,-26.34375 l -6.7813,-6.78125 c -1.7519,-1.7521 -4.057,-2.625 -6.3437,-2.625 z m -443.3437,45.125 c 2.5301,2.75436 5.1166,5.47008 7.75,8.125 l 412.9374,0 c 2.63,-2.65103 5.2231,-5.37482 7.75,-8.125 l -428.4374,0 z"
           id="path4941"
           inkscape:connector-curvature="0" />
        <path
           style="opacity:0.71238942;fill:#ffffff;fill-opacity:1;fill-rule:nonzero;stroke:none"
           d="m 1447.5312,394.04824 c -74.8588,49.98912 -124.4491,137.39677 -124.4491,236.8938 0,99.56123 49.6595,187.03991 124.5992,237.01293 -61.3879,-53.36824 -101.2706,-139.64218 -101.2706,-237.01293 0,-97.29771 39.8109,-183.51626 101.1205,-236.8938 z m 291.0517,0 c 61.3151,53.37689 101.1506,139.59098 101.1506,236.8938 0,97.30729 -39.8307,183.54726 -101.1506,236.92359 74.8589,-49.98913 124.4793,-137.42657 124.4793,-236.92359 0,-99.49703 -49.6204,-186.90468 -124.4793,-236.8938 z"
           id="path4779"
           inkscape:connector-curvature="0" />
      </g>
      <g
         id="g4705"
         transform="matrix(1.2698413,0,0,1.0730619,52.559074,1044.1284)">
        <g
           transform="matrix(1.021595,0,0,0.89275077,-8.034353,99.485712)"
           id="g4707">
          <path
             style="fill:#7c916f;fill-opacity:1;fill-rule:nonzero;stroke:none;filter:url(#filter4199)"
             d="m 368.5625,546.9375 c -159.94722,0 -294.716966,6.81558 -336.375,16.125 l 672.75,0 c -41.65803,-9.30942 -176.42778,-16.125 -336.375,-16.125 z"
             id="path4709"
             inkscape:connector-curvature="0"
             transform="matrix(1.0564775,0,0,0.80510109,-17.330745,109.86537)" />
          <path
             transform="matrix(1.0564775,0,0,-0.80510109,-17.330745,1140.4203)"
             inkscape:connector-curvature="0"
             id="path4711"
             d="m 368.5625,546.9375 c -159.94722,0 -294.716966,6.81558 -336.375,16.125 l 672.75,0 c -41.65803,-9.30942 -176.42778,-16.125 -336.375,-16.125 z"
             style="fill:#7c916f;fill-opacity:1;fill-rule:nonzero;stroke:none;filter:url(#filter4195)" />
        </g>
        <path
           style="fill:#ffffff;fill-opacity:1;stroke:none"
           d="m -2.9527588,591.90155 749.9999988,0 0,131.36191 -749.9999988,0 z"
           id="path4713"
           inkscape:connector-curvature="0" />
      </g>
      <path
         style="font-size:92.63179016px;font-style:normal;font-variant:normal;font-weight:normal;font-stretch:normal;line-height:125%;letter-spacing:0px;word-spacing:0px;fill:#ffb3a1;fill-opacity:1;stroke:none;font-family:Armor Piercing;-inkscape-font-specification:Armor Piercing"
         d="m 227.37528,1712.9872 c -3.38457,0.1099 -6.55645,0.5283 -9.58096,1.1875 -4.46471,0.9339 -6.70019,2.3124 -6.70019,4.125 l 0,21.8125 c 0,1.6481 1.05132,2.7631 3.1397,3.3125 l 16.76668,2.375 0,28.1875 c -1.29618,0.5494 -2.5629,0.8438 -3.78707,0.8438 -1.22415,0 -2.49805,-0.2944 -3.72233,-0.8438 l 0,-17.125 -12.39698,0 0,21 c 0,1.9227 2.15292,3.301 6.47362,4.125 2.73636,0.5494 5.91574,0.8125 9.51622,0.8125 3.31255,0 6.49182,-0.2631 9.51622,-0.8125 4.60885,-0.824 6.89429,-2.1095 6.89441,-3.8125 l 0,-37.0625 c -1.2e-4,-1.2084 -0.21531,-2.0718 -0.64736,-2.5938 -0.43195,-0.5217 -1.40094,-0.905 -2.91313,-1.125 l -16.443,-2.3124 0,-12.5 c 1.15215,-0.6042 2.42604,-0.9062 3.72233,-0.9063 1.22417,10e-5 2.49089,0.3021 3.78707,0.9063 l 0,7 12.49409,0 0,-11.5313 c -1.2e-4,-1.7027 -1.66498,-2.9923 -5.04943,-3.8437 -3.38467,-0.8515 -7.10926,-1.274 -11.06989,-1.2188 z m 119.50304,0 c -3.38469,0.1099 -6.58881,0.5283 -9.61332,1.1875 -4.46482,0.9339 -6.7002,2.3124 -6.7002,4.125 l 0,21.8125 c 0,1.6481 1.01895,2.7631 3.10734,3.3125 l 16.76667,2.375 0,28.1875 c -1.29616,0.5494 -2.56278,0.8438 -3.78706,0.8438 -1.22427,0 -2.43343,-0.2944 -3.6576,-0.8438 l 0,-17.125 -12.42935,0 0,21 c 0,1.9227 2.1528,3.301 6.47362,4.125 2.73636,0.5494 5.91563,0.8125 9.51622,0.8125 3.31243,0 6.45933,-0.2631 9.48386,-0.8125 4.60872,-0.824 6.92677,-2.1095 6.92677,-3.8125 l 0,-37.0625 c 0,-1.2084 -0.18294,-2.0718 -0.61499,-2.5938 -0.43217,-0.5217 -1.43342,-0.905 -2.9455,-1.125 l -16.41063,-2.3124 0,-12.5 c 1.15215,-0.6042 2.36143,-0.9062 3.6576,-0.9063 1.22428,10e-5 2.4909,0.3021 3.78706,0.9063 l 0,7 12.52646,0 0,-11.5313 c 0,-1.7027 -1.66485,-2.9923 -5.04942,-3.8437 -3.38457,-0.8515 -7.07688,-1.274 -11.03753,-1.2188 z m 119.47068,0 c -3.38446,0.1099 -6.58893,0.5283 -9.61333,1.1875 -4.46471,0.9339 -6.7002,2.3124 -6.7002,4.125 l 0,21.8125 c 0,1.6481 1.01906,2.7631 3.10734,3.3125 l 16.76668,2.375 0,28.1875 c -1.29618,0.5494 -2.56291,0.8438 -3.78707,0.8438 -1.22417,0 -2.43344,-0.2944 -3.6576,-0.8438 l 0,-17.125 -12.42935,0 0,21 c 0,1.9227 2.1853,3.301 6.50599,4.125 2.73649,0.5494 5.88315,0.8125 9.48385,0.8125 3.31246,0 6.4917,-0.2631 9.51623,-0.8125 4.60859,-0.824 6.8944,-2.1095 6.8944,-3.8125 l 0,-37.0625 c 0,-1.2084 -0.21531,-2.0718 -0.64736,-2.5938 -0.43206,-0.5217 -1.40093,-0.905 -2.91313,-1.125 l -16.41063,-2.3124 0,-12.5 c 1.15227,-0.6042 2.36142,-0.9062 3.6576,-0.9063 1.22416,10e-5 2.49089,0.3021 3.78707,0.9063 l 0,7 12.52645,0 0,-11.5313 c 0,-1.7027 -1.69711,-2.9923 -5.08179,-3.8437 -3.38445,-0.8515 -7.04428,-1.274 -11.00515,-1.2188 z m 356.43756,0 c -3.38457,0.1099 -6.55649,0.5283 -9.58096,1.1875 -4.46472,0.9339 -6.7002,2.3124 -6.7002,4.125 l 0,21.8125 c 0,1.6481 1.05137,2.7631 3.13971,3.3125 l 16.70194,2.375 0,28.1875 c -1.29624,0.5494 -2.56287,0.8438 -3.78707,0.8438 -1.22421,0 -2.43342,-0.2944 -3.65759,-0.8438 l 0,-17.125 -12.39699,0 0,21 c 0,1.9227 2.15292,3.301 6.47362,4.125 2.73642,0.5494 5.88325,0.8125 9.48386,0.8125 3.31251,0 6.49169,-0.2631 9.51622,-0.8125 4.60871,-0.824 6.92672,-2.1095 6.92677,-3.8125 l 0,-37.0625 c -5e-5,-1.2084 -0.21531,-2.0718 -0.64736,-2.5938 -0.43209,-0.5217 -1.40092,-0.905 -2.91313,-1.125 l -16.44299,-2.3124 0,-12.5 c 1.15215,-0.6042 2.36139,-0.9062 3.65759,-0.9063 1.2242,10e-5 2.49083,0.3021 3.78707,0.9063 l 0,7 12.55882,0 0,-11.5313 c -5e-5,-1.7027 -1.72964,-2.9923 -5.11416,-3.8437 -3.38457,-0.8515 -7.04454,-1.274 -11.00515,-1.2188 z m -445.61169,1.8438 c -1.87458,0.1261 -3.46721,0.7407 -4.79048,1.75 -1.51221,1.1538 -2.26577,2.5471 -2.26577,4.25 l 0,54.3124 c 0,1.7029 0.75356,3.1589 2.26577,4.3126 1.51231,1.1536 3.3349,1.7188 5.56731,1.7187 l 15.79564,0 c 2.16029,10e-5 4.01905,-0.6001 5.56731,-1.7813 1.54804,-1.1811 2.33051,-2.602 2.33051,-4.25 l 0,-54.3124 c 0,-1.6479 -0.78247,-3.0689 -2.33051,-4.25 -1.54826,-1.1812 -3.40702,-1.75 -5.56731,-1.75 l -15.79564,0 c -0.27908,0 -0.50903,-0.018 -0.77683,0 z m -126.42982,0.062 0,66.0938 12.52646,0 0,-0.094 16.443,0 0,-9.5312 -16.443,0 0,-5.2812 9.38675,-0.5626 0,-8.6562 -9.38675,0.5938 0,-33 16.443,0 0,-9.5626 -28.96946,0 z m 45.57429,0 -7.44466,66.0938 12.42935,0 0.55026,-4.125 13.04435,-0.8125 0.87394,4.9375 9.71043,0 -11.55542,-66.0938 -17.60825,0 z m 111.99364,0 0,66.0938 12.55883,0 0,-58.4062 c 0.79199,-0.2198 1.65333,-0.3437 2.58945,-0.3438 2.95251,1e-4 5.16278,0.6427 6.60309,1.9062 l 0,56.8438 12.49409,0 0,-58.5 0.12947,0 c -0.28804,-3.3509 -3.11926,-5.5888 -8.44807,-6.6875 -2.88038,-0.6043 -7.319,-0.9062 -13.36803,-0.9063 l -12.55883,0 z m 183.7861,0 0,66.0938 12.49409,0 0,-0.094 16.44299,0 0,-9.5312 -16.44299,0 0,-5.2812 9.41912,-0.5626 0,-8.6562 -9.41912,0.5938 0,-33 16.44299,0 0,-9.5626 -28.93708,0 z m 38.19436,0 0,66.0938 12.55883,0 0,-0.094 16.41063,0 0,-9.5312 -16.41063,0 0,-5.2812 9.41912,-0.5626 0,-8.6562 -9.41912,0.5938 0,-33 16.41063,0 0,-9.5626 -28.96946,0 z m 75.06164,0 0,66.0938 12.46172,0 0,-66.0938 -12.46172,0 z m 21.2011,0 0,66.0938 12.52646,0 0,-58.4062 c 0.79209,-0.2198 1.65329,-0.3437 2.58945,-0.3438 2.95247,1e-4 5.16282,0.6427 6.60309,1.9062 l 0,56.8438 12.52646,0 0,-58.5 0.12947,0 c -0.28809,-3.3509 -3.11924,-5.5888 -8.44807,-6.6875 -2.88048,-0.6043 -7.35142,-0.9062 -13.4004,-0.9063 l -12.52646,0 z m -172.7162,0.1876 0,0.1562 -0.42078,0 0,66.0625 12.42935,0 0,-11 0.61499,-0.25 9.19254,16.4687 11.68489,-4.7812 -9.87227,-15.7188 1.32709,-0.4374 c 3.74449,-1.5382 5.65702,-4.078 5.72915,-7.5938 0.36003,-14.3378 -0.55853,-26.3779 -2.71892,-36.1562 -0.64796,-3.1312 -2.90866,-5.245 -6.7973,-6.3438 -3.09641,1e-4 -6.13565,-0.077 -9.16017,-0.1875 l 0,-0.062 -2.52471,0 c -3.31256,10e-5 -6.45934,-0.046 -9.48386,-0.1562 z m -30.45839,0.2187 c -2.16028,0 -4.01905,0.6002 -5.56731,1.7813 -1.54814,1.1811 -2.3305,2.6021 -2.3305,4.25 l 0,54.3124 c 0,1.648 0.78236,3.069 2.3305,4.25 1.54827,1.1812 3.40703,1.7813 5.56731,1.7813 l 11.8791,0 0,3.0313 11.74962,0 0,-27.3438 -11.74962,0 0,17.2812 -7.99492,0 0,-52.4062 7.99492,0 0,6.0938 11.74962,0 0,-7 c 0,-1.6479 -0.74989,-3.0689 -2.29813,-4.25 -1.54816,-1.1811 -3.40692,-1.7813 -5.56732,-1.7813 l -15.76327,0 z m 252.76253,0 c -2.16036,0 -4.01907,0.6002 -5.56731,1.7813 -1.54825,1.1811 -2.33051,2.6021 -2.33051,4.25 l 0,54.3124 c 0,1.648 0.78226,3.069 2.33051,4.25 1.54824,1.1812 3.40695,1.7813 5.56731,1.7813 l 11.84673,0 0,3.0313 11.78199,0 0,-27.3438 -11.78199,0 0,17.2812 -7.96256,0 0,-52.4062 7.96256,0 0,6.0938 11.78199,0 0,-7 c -5e-5,-1.6479 -0.78227,-3.0689 -2.33051,-4.25 -1.54827,-1.1811 -3.37461,-1.7813 -5.53494,-1.7813 l -15.76327,0 z m -107.59158,0.094 0,9.5626 8.96597,0 0,56.625 12.49408,0 0,-56.625 9.09544,0 0,-9.5626 -30.55549,0 z m -286.6843,6.3438 7.99493,0 0,52.4062 -7.99493,0 0,-52.4062 z m 183.98031,4.875 1.26235,0 c 1.80035,0.1648 2.87677,0.9003 3.23681,2.2188 1.29618,4.5045 2.08223,8.5544 2.29814,12.125 0.21604,3.4059 0.19104,7.4244 -0.0971,12.0937 -0.072,1.3735 -1.04815,2.4497 -2.84839,3.2187 l -3.8518,1.3126 0,-30.9688 z m -258.84773,4.3438 6.40888,36.5312 -10.61673,0.75 4.20785,-37.2812 z"
         id="path5355"
         inkscape:connector-curvature="0" />
    </g>
    <flowRoot
       xml:space="preserve"
       id="flowRoot5320"
       style="fill:black;stroke:none;stroke-opacity:1;stroke-width:1px;stroke-linejoin:miter;stroke-linecap:butt;fill-opacity:1;font-family:FangSong;font-style:normal;font-weight:normal;font-size:40px;line-height:125%;letter-spacing:0px;word-spacing:0px;-inkscape-font-specification:FangSong;font-stretch:normal;font-variant:normal"><flowRegion
         id="flowRegion5322"><rect
           id="rect5324"
           width="688.5542"
           height="222.28915"
           x="1234.3374"
           y="2177.7109" /></flowRegion><flowPara
         id="flowPara5326" /></flowRoot>    <flowRoot
       xml:space="preserve"
       id="flowRoot5336"
       style="fill:black;stroke:none;stroke-opacity:1;stroke-width:1px;stroke-linejoin:miter;stroke-linecap:butt;fill-opacity:1;font-family:FangSong;font-style:normal;font-weight:normal;font-size:40px;line-height:125%;letter-spacing:0px;word-spacing:0px;-inkscape-font-specification:FangSong;font-stretch:normal;font-variant:normal"><flowRegion
         id="flowRegion5338"><rect
           id="rect5340"
           width="1189.1566"
           height="1586.7469"
           x="2631.3252"
           y="713.85541" /></flowRegion><flowPara
         id="flowPara5342" /></flowRoot>  </g>
</svg>
