<svg xmlns:svg="http://www.w3.org/2000/svg" viewBox="0 0 100 100"><svg:g><svg:g><svg:path d="M 58.229099335425275,49.013365771946965 L 60.519830422256014,49.982531318968505 L 58.4052993318191,47.63035845198804 L 58.229099335425275,49.013365771946965 L 58.229099335425275,49.013365771946965" fill="none" stroke="black" /><svg:path d="M 76.41175001762109,56.093456203792044 L 44.97711989937673,40.17422822943021 L 43.578622582427094,40.797906455886405 L 43.567825906885226,52.21745059744539 L 75.97240837441734,68.18920757429099 L 76.41175001762109,56.093456203792044 L 76.41175001762109,56.093456203792044" fill="none" stroke="black" /></svg:g><svg:g><svg:path d="M 58.229099335425275,60.99104435779216 L 60.519830422256014,61.9602099048137 L 58.4052993318191,59.608037037833235 L 58.229099335425275,60.99104435779216 L 58.229099335425275,60.99104435779216" fill="none" stroke="black" /><svg:path d="M 43.567825906885226,52.21745059744539 L 43.78349715030054,63.940994451827464 L 75.83755920823651,79.93026599890734 L 75.97240837441734,68.18920757429099 L 43.567825906885226,52.21745059744539 L 43.567825906885226,52.21745059744539" fill="none" stroke="black" /></svg:g><svg:g><svg:path d="M 25.20709564510409,32.50236392678637 L 27.497826731934826,33.47152947380792 L 25.383295641497913,31.11935660682745 L 25.20709564510409,32.50236392678637 L 25.20709564510409,32.50236392678637" fill="none" stroke="black" /><svg:path d="M 44.03295717992583,40.34055592732802 L 10.3748238573746,23.49150764234069 L 10.382254767666566,35.60901729714488 L 43.567825906885226,52.21745059744539 L 44.03295717992583,40.34055592732802 L 44.03295717992583,40.34055592732802" fill="none" stroke="black" /></svg:g><svg:g><svg:path d="M 25.20709564510409,44.48004251263157 L 27.497826731934826,45.44920805965312 L 25.383295641497913,43.09703519267265 L 25.20709564510409,44.48004251263157 L 25.20709564510409,44.48004251263157" fill="none" stroke="black" /><svg:path d="M 43.567825906885226,52.21745059744539 L 10.382254767666566,35.60901729714488 L 10.596133850364403,47.34125405650783 L 43.78349715030054,63.940994451827464 L 43.567825906885226,52.21745059744539 L 43.567825906885226,52.21745059744539" fill="none" stroke="black" /></svg:g><svg:g><svg:path d="M 75.83755920823651,79.93026599890734 L 89.62570067746952,73.05766726047669 L 89.39883935737925,49.15944673586822 L 75.76849545375816,56.213436156418155 L 75.83755920823651,79.93026599890734 L 75.83755920823651,79.93026599890734" fill="none" stroke="black" /><svg:path d="M 10.0,22.046502861592803 L 10.0,23.34141018335481 L 75.90308235251692,56.29295135961327 L 90.0,49.24449253587173 L 90.0,47.94958521410972 L 24.096917647483075,14.998044037851265 L 10.0,22.046502861592803 L 10.0,22.046502861592803" fill="none" stroke="black" /><svg:path d="M 24.246584923010843,40.34886915637327 L 89.62570067746952,73.05766726047669 L 89.39883935737925,49.15944673586822 L 24.438389831017815,16.685977867433863 L 24.246584923010843,40.34886915637327 L 24.246584923010843,40.34886915637327" fill="none" stroke="black" /><svg:path d="M 10.596133850364403,47.34125405650783 L 75.83755920823651,79.93026599890734 L 89.62570067746952,73.05766726047669 L 24.246584923010843,40.34886915637327 L 10.596133850364403,47.34125405650783 L 10.596133850364403,47.34125405650783" fill="none" stroke="black" /><svg:path d="M 24.61813043760958,39.881270114649716 L 24.16816696381201,16.593937600389268 L 10.3748238573746,23.49150764234069 L 10.206229616220803,46.89358330946621 L 24.61813043760958,39.881270114649716 L 24.61813043760958,39.881270114649716" fill="none" stroke="black" /></svg:g><svg:g><svg:path d="M 87.85836794261589,75.07286601273513 L 73.66388681412289,81.09127893230404 L 73.80310710400488,83.96248566663108 L 87.76438878304091,77.17335252818106 L 87.85836794261589,75.07286601273513 L 87.85836794261589,75.07286601273513" fill="none" stroke="black" /><svg:path d="M 56.047908608545654,61.3232461543362 L 57.851215691459856,62.12651046283721 L 58.22464078925009,59.66050719637006 L 56.088297791544385,58.41376662285873 L 56.047908608545654,61.3232461543362 L 56.047908608545654,61.3232461543362" fill="none" stroke="black" /><svg:path d="M 26.450374359425474,43.78792284155587 L 12.746289598965788,50.796901809852365 L 12.134201147092135,53.21131819278373 L 26.13407984840942,46.25158821811056 L 26.450374359425474,43.78792284155587 L 26.450374359425474,43.78792284155587" fill="none" stroke="black" /></svg:g></svg:g></svg>