<?xml version="1.0" encoding="UTF-8" standalone="no"?>
<svg id="svg2" xmlns:rdf="http://www.w3.org/1999/02/22-rdf-syntax-ns#" xmlns="http://www.w3.org/2000/svg" height="300" viewBox="0 0 500.00002 300" width="500" version="1.1" xmlns:cc="http://creativecommons.org/ns#" xmlns:dc="http://purl.org/dc/elements/1.1/">
 <g id="layer1" transform="translate(0 -752.36)">
  <g fill-rule="evenodd">
   <path id="path4416" d="m10.006 1015.5c17.204-22.01 41.208-38.69 67.886-47.139 24.622-7.8047 51.578-8.5499 76.125-0.93232 18.416 5.6946 35.312 15.918 51.255 27.645 11.732 8.606 23.638 18.543 36.282 26.757 12.803 8.3178 27.154 15.337 42.732 17.634 17.68 2.6179 35.633-1.0714 51.761-7.5628 12.809-5.1725 25.346-12.46 34.679-23.205 8.0963-9.338 13.438-21.041 15.016-33.287 1.5786-12.247-0.64206-24.957-6.4216-35.85-6.6894-12.634-18.514-22.895-32.609-26.207-9.623-2.2361-19.935-1.1452-28.842 2.9953-8.9083 4.1411-16.331 11.291-20.811 19.971-4.2564 8.2551-5.8406 17.91-4.1054 27.042 1.7352 9.1321 6.8364 17.624 14.284 23.178 6.8508 5.1011 15.61 7.6105 24.078 6.6508 8.47-0.95981 16.501-5.4393 21.548-12.271 2.7533-3.7851 4.5971-8.2447 5.146-12.887 0.54901-4.6428-0.22169-9.4435-2.3401-13.59-2.1188-4.1477-5.592-7.5936-9.7976-9.5209-4.207-1.928-9.1104-2.2834-13.464-0.85089-4.2361 1.396-7.8536 4.4669-9.9104 8.3544-2.0578 3.8896-2.5305 8.5488-1.3349 12.719-1.0471-4.2124-0.39358-8.7871 1.7405-12.495 2.1352-3.7102 5.7284-6.5165 9.7795-7.6934 4.1633-1.2117 8.7523-0.70261 12.589 1.2196 3.8384 1.9228 6.9278 5.2226 8.7337 9.0829 1.8064 3.8611 2.353 8.2699 1.7086 12.465-0.64438 4.1956-2.4602 8.1858-5.0711 11.525-4.6858 6.0951-12.039 10.001-19.664 10.718-7.6259 0.71668-15.462-1.6981-21.502-6.3779-6.5737-5.0847-11.015-12.785-12.421-20.97-1.4067-8.1859 0.1637-16.82 4.1028-24.14 4.1405-7.7031 10.884-13.96 18.823-17.491 7.9409-3.5309 17.055-4.3229 25.43-2.2281 12.263 3.03 22.706 12.198 28.572 23.592 5.0511 9.8322 6.888 21.265 5.3321 32.192-1.556 10.927-6.4786 21.337-13.811 29.572-8.452 9.5092-19.953 16.121-32.194 20.902-15.408 6.0394-31.97 9.1634-47.837 6.6656-13.982-2.2103-27.152-8.7185-39.342-16.818-12.348-8.2048-23.332-17.649-35.617-26.858-16.2-12.11-33.957-23.135-53.725-29.416-26.469-8.3823-55.416-7.708-81.809 0.4905-28.595 8.8892-54.39 26.591-72.986 50.123z"/>
   <path id="path4422" d="m383.11 971.65c0.8125 0.0761 1.6249 0.15282 2.4373 0.23014 2.7783-21.092 10.956-41.468 23.548-58.643 4.2947-5.9055 9.0818-11.406 14.654-15.936 5.5702-4.5286 11.947-8.0648 18.802-9.8007 5.5014-1.4019 11.309-1.6261 16.831-0.45701 5.5221 1.169 10.757 3.7533 14.889 7.56 5.7022 5.2753 9.1678 13.032 8.7148 20.715-0.24086 4.398-1.7326 8.7386-4.2306 12.413-2.4976 3.6735-5.9941 6.6802-10.012 8.6572-6.0661 2.9607-13.376 3.4693-19.599 0.9554-3.1223-1.2382-5.9639-3.2115-8.1692-5.7508-2.2052-2.5392-3.7701-5.6502-4.4318-8.9557-0.62117-3.0889-0.44779-6.3509 0.58151-9.3334 1.0292-2.9823 2.9253-5.6817 5.4432-7.5981 2.5176-1.9162 5.6628-3.0362 8.8412-3.0535 3.1778-0.0174 6.3798 1.0844 8.832 3.1365 2.2088 1.8428 3.7968 4.4406 4.4517 7.274 0.65469 2.8327 0.37684 5.8873-0.77517 8.5894-1.3752 3.2049-3.9855 5.8835-7.1888 7.3443-3.2022 1.4603-6.9685 1.6892-10.352 0.60633 3.3553 1.164 7.1596 1.0374 10.456-0.37073 3.2954-1.4077 6.0495-4.0828 7.5556-7.371 1.2736-2.7644 1.6654-5.9477 1.0596-8.9611-0.60569-3.0126-2.2095-5.8356-4.5352-7.8922-2.5889-2.2829-6.0224-3.5722-9.4933-3.6431-3.4701-0.0708-6.9434 1.0605-9.7706 3.099-2.8269 2.0382-4.995 4.9563-6.2201 8.229-1.225 3.2724-1.5115 6.8766-0.91075 10.323 0.64556 3.6866 2.2976 7.1839 4.6877 10.074 2.3899 2.8903 5.5027 5.1668 8.9586 6.6351 6.9332 2.8989 15.047 2.4144 21.805-0.78333 4.4848-2.106 8.4437-5.3736 11.325-9.4487 2.8805-4.0745 4.6661-8.9443 5.0328-13.959 0.61007-8.7846-3.2431-17.565-9.5927-23.564-4.5819-4.3451-10.391-7.309-16.523-8.7-6.1326-1.3911-12.564-1.2276-18.647 0.22953-7.574 1.8249-14.539 5.6102-20.557 10.388-6.0157 4.7763-11.128 10.539-15.645 16.601-13.123 17.751-21.692 38.846-24.664 60.742 0.80396 0.14014 1.608 0.27967 2.4122 0.4186z"/>
   <path id="path4428" d="m367.96 1011.1c16.44-13.566 36.352-22.918 57.314-26.905 7.1717-1.3938 14.43-2.1564 21.602-1.6709 7.1699 0.48532 14.256 2.2501 20.462 5.664 4.9854 2.7324 9.3909 6.5387 12.638 11.17 3.2476 4.6309 5.3216 10.101 5.761 15.718 0.5587 7.3124-1.7182 14.83-6.2111 20.689-4.492 5.8581-11.159 10.035-18.419 11.608-5.9961 1.3072-12.419 0.8315-17.938-1.7405-5.5183-2.5719-10.068-7.323-11.981-13.066-1.9283-5.7903-1.0901-12.451 2.0998-17.737 3.1886-5.2839 8.6401-9.1569 14.699-10.626 4.0031-0.9861 8.3149-0.9241 12.04 0.6925 1.8723 0.7884 3.591 1.9649 4.9488 3.4771 1.3576 1.5121 2.3521 3.3685 2.7859 5.3616 0.59658 2.8277 0.0355 5.8914-1.461 8.4211-1.4959 2.5284-3.8944 4.5143-6.6547 5.6325-3.2094 1.2923-6.8978 1.41-10.21 0.3043-3.3117-1.1053-6.2226-3.426-8.0455-6.4417 1.7461 3.0596 4.6152 5.4825 7.9582 6.6924 3.3421 1.2096 7.1298 1.1958 10.49-0.06 2.8901-1.0736 5.4737-3.0712 7.142-5.7118 1.6675-2.6394 2.3876-5.9191 1.824-9.04-0.38505-2.2055-1.391-4.291-2.8214-6.0234-1.4302-1.7323-3.2724-3.109-5.3055-4.0662-4.0858-1.8749-8.7892-2.0183-13.115-1.0474-6.5345 1.4899-12.51 5.5807-16.084 11.325-3.5732 5.7417-4.6317 13.073-2.5616 19.586 2.0532 6.4612 7.0411 11.792 13.114 14.725 6.0733 2.9336 13.117 3.5357 19.678 2.2 7.9402-1.6259 15.3-6.1004 20.334-12.512 5.0332-6.4108 7.6686-14.702 7.1373-22.885-0.39761-6.2838-2.6185-12.396-6.1441-17.585-3.5256-5.1899-8.3256-9.4537-13.757-12.536-6.7713-3.8308-14.438-5.8133-22.09-6.423-7.6504-0.60957-15.314 0.11838-22.749 1.4717-21.724 4.0406-42.396 13.64-59.513 27.649z"/>
   <path id="path4535" d="m122.03 954.11 0.17043-39.783 3.6897-33.162a0.052879 0.77987 6.2878 0 0 0.0334 -0.79315c-0.41606 0.0494-2.5847-27.39-3.3798-48.892l-1.9586-40.416 6.5675-33.527-9.0454 33.151a0.75949 0.15953 84.221 0 0 -0.0328 0.30747l-0.54116 40.573c-0.0369 21.695 1.3044 49.234 0.88872 49.283l0.0334-0.79314-6.219 33.252a0.026372 0.78771 3.3408 0 0 -0.0515 0.55934l-2.6748 39.794z"/>
   <path id="path4539" d="m122.18 887.72 0.81763 2.6228 32.199-8.3951a0.60672 1.3647 88.627 0 0 0.56162 -0.26597l19.778-17.438-21.172 15.064-32.529 5.687 0.34507 2.7256z"/>
   <path id="path4543" d="m115.81 896.76-26.089-14.833-28.605 2.5113a0.35368 0.90372 72.971 0 1 -0.38796 -0.0295l-17.518-5.9361 17.815 3.9707 28.898-4.5192a2.1949 1.5208 45.12 0 1 1.1654 0.21395l27.496 13.349z"/>
   <path id="path4547" d="m117.78 854.98-18.726-23.46-27.494-8.28a0.90373 0.3537 4.7552 0 1 -0.34932 -0.17136l-14.064-12.013 15.07 10.299 28.511 6.5278a2.1949 1.5208 66.904 0 1 1.0028 0.63117l20.578 22.6z"/>
   <path id="path4551" d="m121.66 859.09-0.84497-2.4974 20.445-20.988a1.2837 1.7167 23.349 0 1 0.8101 -0.46514l28.731-5.5753 15.405-9.8809-14.66 11.261a0.7667 0.35289 0.90968 0 1 -0.28065 0.12381l-28.003 6.9998-19.047 21.671-2.5553-0.64915z"/>
   <path id="path4555" d="m93.474 882.83-2.3569-1.4117-18.285 27.499-22.305 13.329 23.918-11.098a0.60672 1.3647 25.078 0 0 0.46932 -0.40732l20.632-26.108-2.0728-1.8031z"/>
   <path id="path4559" d="m106.98 838.75-0.70102-2.2356-27.618 9.8792-25.146-2.1046 25.151 4.4537a0.5025 1.158 61.544 0 0 0.50166 -0.0439l28.513-7.7132-0.70102-2.2356z"/>
   <path id="path4563" d="m142.81 882.74-0.17179 1.8924 29.022 9.6479a0.85531 0.33486 31.428 0 0 0.31795 0.0563l25.611-0.92539-25.416-0.91835-28.273-11.309-1.09 1.5565z"/>
  </g>
  <g stroke-linejoin="round" stroke="#000" stroke-linecap="round" fill="#fff" stroke-width="1.5">
   <path id="path4621" d="m66.104 800.1a2.3378 12.344 10.802 0 1 -4.6098 11.7 2.3378 12.344 10.802 0 1 0.0122 -12.551 2.3378 12.344 10.802 0 1 4.6098 -11.7 2.3378 12.344 10.802 0 1 -0.0122 12.551zm2.191 1.279a2.3342 12.363 22.091 0 1 -6.8172 10.602 2.3342 12.363 22.091 0 1 2.4731 -12.312 2.3342 12.363 22.091 0 1 6.8172 -10.602 2.3342 12.363 22.091 0 1 -2.473 12.312zm1.8781 1.5217a2.329 12.391 32.897 0 1 -8.6977 9.1694 2.329 12.391 32.897 0 1 4.7517 -11.645 2.329 12.391 32.897 0 1 8.6976 -9.1692 2.329 12.391 32.897 0 1 -4.7516 11.645zm1.5625 1.7726a2.3229 12.423 43.464 0 1 -10.251 7.4491 2.3229 12.423 43.464 0 1 6.8308 -10.594 2.3229 12.423 43.464 0 1 10.251 -7.449 2.3229 12.423 43.464 0 1 -6.8307 10.594za2.3229 12.423 43.464 0 1 -10.251 7.4491 2.3229 12.423 43.464 0 1 6.8308 -10.594 2.3229 12.423 43.464 0 1 10.251 -7.449 2.3229 12.423 43.464 0 1 -6.8307 10.594zm1.1607 1.8637a2.3171 12.454 53.273 0 1 -11.391 5.6159 2.3171 12.454 53.273 0 1 8.5653 -9.2896 2.3171 12.454 53.273 0 1 11.391 -5.6158 2.3171 12.454 53.273 0 1 -8.5652 9.2895zm0.81574 1.9346a2.3121 12.481 62.642 0 1 -12.171 3.7004 2.3121 12.481 62.642 0 1 9.9945 -7.7807 2.3121 12.481 62.642 0 1 12.171 -3.7003 2.3121 12.481 62.642 0 1 -9.9944 7.7806zm0.50931 2.033a2.3081 12.503 71.99 0 1 -12.622 1.6808 2.3081 12.503 71.99 0 1 11.155 -6.0579 2.3081 12.503 71.99 0 1 12.622 -1.6807 2.3081 12.503 71.99 0 1 -11.155 6.0578zm0.20281 1.9871a2.3057 12.516 80.91 0 1 -12.734 -0.2957 2.3057 12.516 80.91 0 1 11.983 -4.2543 2.3057 12.516 80.91 0 1 12.734 0.2959 2.3057 12.516 80.91 0 1 -11.983 4.2541zm-0.0234 1.8021a2.3049 12.52 89.003 0 1 -12.56 -2.0863 2.3049 12.52 89.003 0 1 12.477 -2.5226 2.3049 12.52 89.003 0 1 12.56 2.0863 2.3049 12.52 89.003 0 1 -12.477 2.5226zm-15.409-15.257a2.339 12.338 0 0 0 2.339 12.338 2.339 12.338 0 0 0 2.339 -12.338 2.339 12.338 0 0 0 -2.339 -12.338 2.339 12.338 0 0 0 -2.339 12.338zm-2.2306 1.0628a12.344 2.3378 79.198 0 0 4.6098 11.7 12.344 2.3378 79.198 0 0 -0.0122 -12.551 12.344 2.3378 79.198 0 0 -4.6098 -11.7 12.344 2.3378 79.198 0 0 0.0121 12.551zm-2.191 1.279a12.363 2.3342 67.909 0 0 6.8172 10.602 12.363 2.3342 67.909 0 0 -2.4731 -12.312 12.363 2.3342 67.909 0 0 -6.8172 -10.602 12.363 2.3342 67.909 0 0 2.473 12.312zm-1.8781 1.5217a12.391 2.329 57.103 0 0 8.6977 9.1694 12.391 2.329 57.103 0 0 -4.7517 -11.645 12.391 2.329 57.103 0 0 -8.6976 -9.1692 12.391 2.329 57.103 0 0 4.7516 11.645zm-1.5625 1.7726a12.423 2.3229 46.536 0 0 10.251 7.4491 12.423 2.3229 46.536 0 0 -6.8308 -10.594 12.423 2.3229 46.536 0 0 -10.251 -7.449 12.423 2.3229 46.536 0 0 6.8307 10.594za12.423 2.3229 46.536 0 0 10.251 7.4491 12.423 2.3229 46.536 0 0 -6.8308 -10.594 12.423 2.3229 46.536 0 0 -10.251 -7.449 12.423 2.3229 46.536 0 0 6.8307 10.594zm-1.1607 1.8637a12.454 2.3171 36.727 0 0 11.391 5.6159 12.454 2.3171 36.727 0 0 -8.5653 -9.2896 12.454 2.3171 36.727 0 0 -11.391 -5.6158 12.454 2.3171 36.727 0 0 8.5652 9.2895zm-0.81574 1.9346a12.481 2.3121 27.358 0 0 12.171 3.7004 12.481 2.3121 27.358 0 0 -9.9945 -7.7807 12.481 2.3121 27.358 0 0 -12.171 -3.7003 12.481 2.3121 27.358 0 0 9.9943 7.7806zm-0.50931 2.033a12.503 2.3081 18.01 0 0 12.622 1.6808 12.503 2.3081 18.01 0 0 -11.155 -6.0579 12.503 2.3081 18.01 0 0 -12.622 -1.6807 12.503 2.3081 18.01 0 0 11.155 6.0578zm-0.20281 1.9871a12.516 2.3057 9.0896 0 0 12.734 -0.2957 12.516 2.3057 9.0896 0 0 -11.983 -4.2543 12.516 2.3057 9.0896 0 0 -12.733 0.2959 12.516 2.3057 9.0896 0 0 11.983 4.2541zm0.0234 1.8021a12.52 2.3049 0.99721 0 0 12.56 -2.0863 12.52 2.3049 0.99721 0 0 -12.477 -2.5226 12.52 2.3049 0.99721 0 0 -12.56 2.0863 12.52 2.3049 0.99721 0 0 12.477 2.5226z"/>
   <path id="path4664" d="m125.73 769.51a2.3378 12.344 10.802 0 1 -4.6098 11.7 2.3378 12.344 10.802 0 1 0.0122 -12.551 2.3378 12.344 10.802 0 1 4.6098 -11.7 2.3378 12.344 10.802 0 1 -0.0122 12.551zm2.191 1.279a2.3342 12.363 22.091 0 1 -6.8172 10.602 2.3342 12.363 22.091 0 1 2.4731 -12.312 2.3342 12.363 22.091 0 1 6.8172 -10.602 2.3342 12.363 22.091 0 1 -2.473 12.312zm1.8781 1.5217a2.329 12.391 32.897 0 1 -8.6977 9.1694 2.329 12.391 32.897 0 1 4.7517 -11.645 2.329 12.391 32.897 0 1 8.6976 -9.1692 2.329 12.391 32.897 0 1 -4.7516 11.645zm1.5625 1.7726a2.3229 12.423 43.464 0 1 -10.251 7.4491 2.3229 12.423 43.464 0 1 6.8308 -10.594 2.3229 12.423 43.464 0 1 10.251 -7.449 2.3229 12.423 43.464 0 1 -6.8307 10.594za2.3229 12.423 43.464 0 1 -10.251 7.4491 2.3229 12.423 43.464 0 1 6.8308 -10.594 2.3229 12.423 43.464 0 1 10.251 -7.449 2.3229 12.423 43.464 0 1 -6.8307 10.594zm1.1607 1.8637a2.3171 12.454 53.273 0 1 -11.391 5.6159 2.3171 12.454 53.273 0 1 8.5653 -9.2896 2.3171 12.454 53.273 0 1 11.391 -5.6158 2.3171 12.454 53.273 0 1 -8.5652 9.2895zm0.81574 1.9346a2.3121 12.481 62.642 0 1 -12.171 3.7004 2.3121 12.481 62.642 0 1 9.9945 -7.7807 2.3121 12.481 62.642 0 1 12.171 -3.7003 2.3121 12.481 62.642 0 1 -9.9944 7.7806zm0.50931 2.033a2.3081 12.503 71.99 0 1 -12.622 1.6808 2.3081 12.503 71.99 0 1 11.155 -6.0579 2.3081 12.503 71.99 0 1 12.622 -1.6807 2.3081 12.503 71.99 0 1 -11.155 6.0578zm0.20281 1.9871a2.3057 12.516 80.91 0 1 -12.734 -0.2957 2.3057 12.516 80.91 0 1 11.983 -4.2543 2.3057 12.516 80.91 0 1 12.734 0.2959 2.3057 12.516 80.91 0 1 -11.983 4.2541zm-0.0234 1.8021a2.3049 12.52 89.003 0 1 -12.56 -2.0863 2.3049 12.52 89.003 0 1 12.477 -2.5226 2.3049 12.52 89.003 0 1 12.56 2.0863 2.3049 12.52 89.003 0 1 -12.477 2.5226zm-15.409-15.257a2.339 12.338 0 0 0 2.339 12.338 2.339 12.338 0 0 0 2.339 -12.338 2.339 12.338 0 0 0 -2.339 -12.338 2.339 12.338 0 0 0 -2.339 12.338zm-2.2306 1.0628a12.344 2.3378 79.198 0 0 4.6098 11.7 12.344 2.3378 79.198 0 0 -0.0122 -12.551 12.344 2.3378 79.198 0 0 -4.6098 -11.7 12.344 2.3378 79.198 0 0 0.0121 12.551zm-2.191 1.279a12.363 2.3342 67.909 0 0 6.8172 10.602 12.363 2.3342 67.909 0 0 -2.4731 -12.312 12.363 2.3342 67.909 0 0 -6.8172 -10.602 12.363 2.3342 67.909 0 0 2.473 12.312zm-1.8781 1.5217a12.391 2.329 57.103 0 0 8.6977 9.1694 12.391 2.329 57.103 0 0 -4.7517 -11.645 12.391 2.329 57.103 0 0 -8.6976 -9.1692 12.391 2.329 57.103 0 0 4.7516 11.645zm-1.5625 1.7726a12.423 2.3229 46.536 0 0 10.251 7.4491 12.423 2.3229 46.536 0 0 -6.8308 -10.594 12.423 2.3229 46.536 0 0 -10.251 -7.449 12.423 2.3229 46.536 0 0 6.8308 10.594za12.423 2.3229 46.536 0 0 10.251 7.4491 12.423 2.3229 46.536 0 0 -6.8308 -10.594 12.423 2.3229 46.536 0 0 -10.251 -7.449 12.423 2.3229 46.536 0 0 6.8308 10.594zm-1.1607 1.8637a12.454 2.3171 36.727 0 0 11.391 5.6159 12.454 2.3171 36.727 0 0 -8.5653 -9.2896 12.454 2.3171 36.727 0 0 -11.391 -5.6158 12.454 2.3171 36.727 0 0 8.5652 9.2895zm-0.81574 1.9346a12.481 2.3121 27.358 0 0 12.171 3.7004 12.481 2.3121 27.358 0 0 -9.9945 -7.7807 12.481 2.3121 27.358 0 0 -12.171 -3.7003 12.481 2.3121 27.358 0 0 9.9944 7.7806zm-0.50931 2.033a12.503 2.3081 18.01 0 0 12.622 1.6808 12.503 2.3081 18.01 0 0 -11.155 -6.0579 12.503 2.3081 18.01 0 0 -12.622 -1.6807 12.503 2.3081 18.01 0 0 11.155 6.0578zm-0.20281 1.9871a12.516 2.3057 9.0896 0 0 12.734 -0.2957 12.516 2.3057 9.0896 0 0 -11.983 -4.2543 12.516 2.3057 9.0896 0 0 -12.733 0.2959 12.516 2.3057 9.0896 0 0 11.983 4.2541zm0.0234 1.8021a12.52 2.3049 0.99721 0 0 12.56 -2.0863 12.52 2.3049 0.99721 0 0 -12.477 -2.5226 12.52 2.3049 0.99721 0 0 -12.56 2.0863 12.52 2.3049 0.99721 0 0 12.477 2.5226z"/>
   <path id="path4666" d="m174.82 817.18a2.3378 12.344 10.802 0 1 -4.6098 11.7 2.3378 12.344 10.802 0 1 0.0122 -12.551 2.3378 12.344 10.802 0 1 4.6098 -11.7 2.3378 12.344 10.802 0 1 -0.0122 12.551zm2.191 1.279a2.3342 12.363 22.091 0 1 -6.8172 10.602 2.3342 12.363 22.091 0 1 2.4731 -12.312 2.3342 12.363 22.091 0 1 6.8172 -10.602 2.3342 12.363 22.091 0 1 -2.473 12.312zm1.8781 1.5217a2.329 12.391 32.897 0 1 -8.6977 9.1694 2.329 12.391 32.897 0 1 4.7517 -11.645 2.329 12.391 32.897 0 1 8.6976 -9.1692 2.329 12.391 32.897 0 1 -4.7516 11.645zm1.5625 1.7726a2.3229 12.423 43.464 0 1 -10.251 7.4491 2.3229 12.423 43.464 0 1 6.8308 -10.594 2.3229 12.423 43.464 0 1 10.251 -7.449 2.3229 12.423 43.464 0 1 -6.8307 10.594za2.3229 12.423 43.464 0 1 -10.251 7.4491 2.3229 12.423 43.464 0 1 6.8308 -10.594 2.3229 12.423 43.464 0 1 10.251 -7.449 2.3229 12.423 43.464 0 1 -6.8307 10.594zm1.1607 1.8637a2.3171 12.454 53.273 0 1 -11.391 5.6159 2.3171 12.454 53.273 0 1 8.5653 -9.2896 2.3171 12.454 53.273 0 1 11.391 -5.6158 2.3171 12.454 53.273 0 1 -8.5652 9.2895zm0.81574 1.9346a2.3121 12.481 62.642 0 1 -12.171 3.7004 2.3121 12.481 62.642 0 1 9.9945 -7.7807 2.3121 12.481 62.642 0 1 12.171 -3.7003 2.3121 12.481 62.642 0 1 -9.9944 7.7806zm0.50931 2.033a2.3081 12.503 71.99 0 1 -12.622 1.6808 2.3081 12.503 71.99 0 1 11.155 -6.0579 2.3081 12.503 71.99 0 1 12.622 -1.6807 2.3081 12.503 71.99 0 1 -11.155 6.0578zm0.20281 1.9871a2.3057 12.516 80.91 0 1 -12.734 -0.2957 2.3057 12.516 80.91 0 1 11.983 -4.2543 2.3057 12.516 80.91 0 1 12.734 0.2959 2.3057 12.516 80.91 0 1 -11.983 4.2541zm-0.0234 1.8021a2.3049 12.52 89.003 0 1 -12.56 -2.0863 2.3049 12.52 89.003 0 1 12.477 -2.5226 2.3049 12.52 89.003 0 1 12.56 2.0863 2.3049 12.52 89.003 0 1 -12.477 2.5226zm-15.409-15.257a2.339 12.338 0 0 0 2.339 12.338 2.339 12.338 0 0 0 2.339 -12.338 2.339 12.338 0 0 0 -2.339 -12.338 2.339 12.338 0 0 0 -2.339 12.338zm-2.2306 1.0628a12.344 2.3378 79.198 0 0 4.6098 11.7 12.344 2.3378 79.198 0 0 -0.0122 -12.551 12.344 2.3378 79.198 0 0 -4.6098 -11.7 12.344 2.3378 79.198 0 0 0.0121 12.551zm-2.191 1.279a12.363 2.3342 67.909 0 0 6.8172 10.602 12.363 2.3342 67.909 0 0 -2.4731 -12.312 12.363 2.3342 67.909 0 0 -6.8172 -10.602 12.363 2.3342 67.909 0 0 2.473 12.312zm-1.8781 1.5217a12.391 2.329 57.103 0 0 8.6977 9.1694 12.391 2.329 57.103 0 0 -4.7517 -11.645 12.391 2.329 57.103 0 0 -8.6976 -9.1692 12.391 2.329 57.103 0 0 4.7516 11.645zm-1.5625 1.7726a12.423 2.3229 46.536 0 0 10.251 7.4491 12.423 2.3229 46.536 0 0 -6.8308 -10.594 12.423 2.3229 46.536 0 0 -10.251 -7.449 12.423 2.3229 46.536 0 0 6.8308 10.594za12.423 2.3229 46.536 0 0 10.251 7.4491 12.423 2.3229 46.536 0 0 -6.8308 -10.594 12.423 2.3229 46.536 0 0 -10.251 -7.449 12.423 2.3229 46.536 0 0 6.8308 10.594zm-1.1607 1.8637a12.454 2.3171 36.727 0 0 11.391 5.6159 12.454 2.3171 36.727 0 0 -8.5653 -9.2896 12.454 2.3171 36.727 0 0 -11.391 -5.6158 12.454 2.3171 36.727 0 0 8.5652 9.2895zm-0.81574 1.9346a12.481 2.3121 27.358 0 0 12.171 3.7004 12.481 2.3121 27.358 0 0 -9.9945 -7.7807 12.481 2.3121 27.358 0 0 -12.171 -3.7003 12.481 2.3121 27.358 0 0 9.9944 7.7806zm-0.50931 2.033a12.503 2.3081 18.01 0 0 12.622 1.6808 12.503 2.3081 18.01 0 0 -11.155 -6.0579 12.503 2.3081 18.01 0 0 -12.622 -1.6807 12.503 2.3081 18.01 0 0 11.155 6.0578zm-0.20281 1.9871a12.516 2.3057 9.0896 0 0 12.734 -0.2957 12.516 2.3057 9.0896 0 0 -11.983 -4.2543 12.516 2.3057 9.0896 0 0 -12.733 0.2959 12.516 2.3057 9.0896 0 0 11.983 4.2541zm0.0234 1.8021a12.52 2.3049 0.99721 0 0 12.56 -2.0863 12.52 2.3049 0.99721 0 0 -12.477 -2.5226 12.52 2.3049 0.99721 0 0 -12.56 2.0863 12.52 2.3049 0.99721 0 0 12.477 2.5226z"/>
   <path id="path4668" d="m65.392 834.96a2.3378 12.344 10.802 0 1 -4.6098 11.7 2.3378 12.344 10.802 0 1 0.0122 -12.551 2.3378 12.344 10.802 0 1 4.6098 -11.7 2.3378 12.344 10.802 0 1 -0.0122 12.551zm2.191 1.279a2.3342 12.363 22.091 0 1 -6.8172 10.602 2.3342 12.363 22.091 0 1 2.4731 -12.312 2.3342 12.363 22.091 0 1 6.8172 -10.602 2.3342 12.363 22.091 0 1 -2.473 12.312zm1.8781 1.5217a2.329 12.391 32.897 0 1 -8.6977 9.1694 2.329 12.391 32.897 0 1 4.7517 -11.645 2.329 12.391 32.897 0 1 8.6976 -9.1692 2.329 12.391 32.897 0 1 -4.7516 11.645zm1.5625 1.7726a2.3229 12.423 43.464 0 1 -10.251 7.4491 2.3229 12.423 43.464 0 1 6.8308 -10.594 2.3229 12.423 43.464 0 1 10.251 -7.449 2.3229 12.423 43.464 0 1 -6.8307 10.594za2.3229 12.423 43.464 0 1 -10.251 7.4491 2.3229 12.423 43.464 0 1 6.8308 -10.594 2.3229 12.423 43.464 0 1 10.251 -7.449 2.3229 12.423 43.464 0 1 -6.8307 10.594zm1.1607 1.8637a2.3171 12.454 53.273 0 1 -11.391 5.6159 2.3171 12.454 53.273 0 1 8.5653 -9.2896 2.3171 12.454 53.273 0 1 11.391 -5.6158 2.3171 12.454 53.273 0 1 -8.5652 9.2895zm0.81574 1.9346a2.3121 12.481 62.642 0 1 -12.171 3.7004 2.3121 12.481 62.642 0 1 9.9945 -7.7807 2.3121 12.481 62.642 0 1 12.171 -3.7003 2.3121 12.481 62.642 0 1 -9.9944 7.7806zm0.50931 2.033a2.3081 12.503 71.99 0 1 -12.622 1.6808 2.3081 12.503 71.99 0 1 11.155 -6.0579 2.3081 12.503 71.99 0 1 12.622 -1.6807 2.3081 12.503 71.99 0 1 -11.155 6.0578zm0.20281 1.9871a2.3057 12.516 80.91 0 1 -12.734 -0.2957 2.3057 12.516 80.91 0 1 11.983 -4.2543 2.3057 12.516 80.91 0 1 12.734 0.2959 2.3057 12.516 80.91 0 1 -11.983 4.2541zm-0.0234 1.8021a2.3049 12.52 89.003 0 1 -12.56 -2.0863 2.3049 12.52 89.003 0 1 12.477 -2.5226 2.3049 12.52 89.003 0 1 12.56 2.0863 2.3049 12.52 89.003 0 1 -12.477 2.5226zm-15.409-15.257a2.339 12.338 0 0 0 2.339 12.338 2.339 12.338 0 0 0 2.339 -12.338 2.339 12.338 0 0 0 -2.339 -12.338 2.339 12.338 0 0 0 -2.339 12.338zm-2.2306 1.0628a12.344 2.3378 79.198 0 0 4.6098 11.7 12.344 2.3378 79.198 0 0 -0.0122 -12.551 12.344 2.3378 79.198 0 0 -4.6098 -11.7 12.344 2.3378 79.198 0 0 0.0121 12.551zm-2.191 1.279a12.363 2.3342 67.909 0 0 6.8172 10.602 12.363 2.3342 67.909 0 0 -2.4731 -12.312 12.363 2.3342 67.909 0 0 -6.8172 -10.602 12.363 2.3342 67.909 0 0 2.473 12.312zm-1.8781 1.5217a12.391 2.329 57.103 0 0 8.6977 9.1694 12.391 2.329 57.103 0 0 -4.7517 -11.645 12.391 2.329 57.103 0 0 -8.6976 -9.1692 12.391 2.329 57.103 0 0 4.7516 11.645zm-1.5625 1.7726a12.423 2.3229 46.536 0 0 10.251 7.4491 12.423 2.3229 46.536 0 0 -6.8308 -10.594 12.423 2.3229 46.536 0 0 -10.251 -7.449 12.423 2.3229 46.536 0 0 6.8308 10.594za12.423 2.3229 46.536 0 0 10.251 7.4491 12.423 2.3229 46.536 0 0 -6.8308 -10.594 12.423 2.3229 46.536 0 0 -10.251 -7.449 12.423 2.3229 46.536 0 0 6.8308 10.594zm-1.1607 1.8637a12.454 2.3171 36.727 0 0 11.391 5.6159 12.454 2.3171 36.727 0 0 -8.5653 -9.2896 12.454 2.3171 36.727 0 0 -11.391 -5.6158 12.454 2.3171 36.727 0 0 8.5652 9.2895zm-0.81574 1.9346a12.481 2.3121 27.358 0 0 12.171 3.7004 12.481 2.3121 27.358 0 0 -9.9945 -7.7807 12.481 2.3121 27.358 0 0 -12.171 -3.7003 12.481 2.3121 27.358 0 0 9.9944 7.7806zm-0.50931 2.033a12.503 2.3081 18.01 0 0 12.622 1.6808 12.503 2.3081 18.01 0 0 -11.155 -6.0579 12.503 2.3081 18.01 0 0 -12.622 -1.6807 12.503 2.3081 18.01 0 0 11.155 6.0578zm-0.20281 1.9871a12.516 2.3057 9.0896 0 0 12.734 -0.2957 12.516 2.3057 9.0896 0 0 -11.983 -4.2543 12.516 2.3057 9.0896 0 0 -12.733 0.2959 12.516 2.3057 9.0896 0 0 11.983 4.2541zm0.0234 1.8021a12.52 2.3049 0.99721 0 0 12.56 -2.0863 12.52 2.3049 0.99721 0 0 -12.477 -2.5226 12.52 2.3049 0.99721 0 0 -12.56 2.0863 12.52 2.3049 0.99721 0 0 12.477 2.5226z"/>
   <path id="path4670" d="m176.95 854.88a2.3378 12.344 10.802 0 1 -4.6098 11.7 2.3378 12.344 10.802 0 1 0.0122 -12.551 2.3378 12.344 10.802 0 1 4.6098 -11.7 2.3378 12.344 10.802 0 1 -0.0122 12.551zm2.191 1.279a2.3342 12.363 22.091 0 1 -6.8172 10.602 2.3342 12.363 22.091 0 1 2.4731 -12.312 2.3342 12.363 22.091 0 1 6.8172 -10.602 2.3342 12.363 22.091 0 1 -2.473 12.312zm1.8781 1.5217a2.329 12.391 32.897 0 1 -8.6977 9.1694 2.329 12.391 32.897 0 1 4.7517 -11.645 2.329 12.391 32.897 0 1 8.6976 -9.1692 2.329 12.391 32.897 0 1 -4.7516 11.645zm1.5625 1.7726a2.3229 12.423 43.464 0 1 -10.251 7.4491 2.3229 12.423 43.464 0 1 6.8308 -10.594 2.3229 12.423 43.464 0 1 10.251 -7.449 2.3229 12.423 43.464 0 1 -6.8307 10.594za2.3229 12.423 43.464 0 1 -10.251 7.4491 2.3229 12.423 43.464 0 1 6.8308 -10.594 2.3229 12.423 43.464 0 1 10.251 -7.449 2.3229 12.423 43.464 0 1 -6.8307 10.594zm1.1607 1.8637a2.3171 12.454 53.273 0 1 -11.391 5.6159 2.3171 12.454 53.273 0 1 8.5653 -9.2896 2.3171 12.454 53.273 0 1 11.391 -5.6158 2.3171 12.454 53.273 0 1 -8.5652 9.2895zm0.81574 1.9346a2.3121 12.481 62.642 0 1 -12.171 3.7004 2.3121 12.481 62.642 0 1 9.9945 -7.7807 2.3121 12.481 62.642 0 1 12.171 -3.7003 2.3121 12.481 62.642 0 1 -9.9944 7.7806zm0.50931 2.033a2.3081 12.503 71.99 0 1 -12.622 1.6808 2.3081 12.503 71.99 0 1 11.155 -6.0579 2.3081 12.503 71.99 0 1 12.622 -1.6807 2.3081 12.503 71.99 0 1 -11.155 6.0578zm0.20281 1.9871a2.3057 12.516 80.91 0 1 -12.734 -0.2957 2.3057 12.516 80.91 0 1 11.983 -4.2543 2.3057 12.516 80.91 0 1 12.734 0.2959 2.3057 12.516 80.91 0 1 -11.983 4.2541zm-0.0234 1.8021a2.3049 12.52 89.003 0 1 -12.56 -2.0863 2.3049 12.52 89.003 0 1 12.477 -2.5226 2.3049 12.52 89.003 0 1 12.56 2.0863 2.3049 12.52 89.003 0 1 -12.477 2.5226zm-15.409-15.257a2.339 12.338 0 0 0 2.339 12.338 2.339 12.338 0 0 0 2.339 -12.338 2.339 12.338 0 0 0 -2.339 -12.338 2.339 12.338 0 0 0 -2.339 12.338zm-2.2306 1.0628a12.344 2.3378 79.198 0 0 4.6098 11.7 12.344 2.3378 79.198 0 0 -0.0122 -12.551 12.344 2.3378 79.198 0 0 -4.6098 -11.7 12.344 2.3378 79.198 0 0 0.0121 12.551zm-2.191 1.279a12.363 2.3342 67.909 0 0 6.8172 10.602 12.363 2.3342 67.909 0 0 -2.4731 -12.312 12.363 2.3342 67.909 0 0 -6.8172 -10.602 12.363 2.3342 67.909 0 0 2.473 12.312zm-1.8781 1.5217a12.391 2.329 57.103 0 0 8.6977 9.1694 12.391 2.329 57.103 0 0 -4.7517 -11.645 12.391 2.329 57.103 0 0 -8.6976 -9.1692 12.391 2.329 57.103 0 0 4.7516 11.645zm-1.5625 1.7726a12.423 2.3229 46.536 0 0 10.251 7.4491 12.423 2.3229 46.536 0 0 -6.8308 -10.594 12.423 2.3229 46.536 0 0 -10.251 -7.449 12.423 2.3229 46.536 0 0 6.8308 10.594za12.423 2.3229 46.536 0 0 10.251 7.4491 12.423 2.3229 46.536 0 0 -6.8308 -10.594 12.423 2.3229 46.536 0 0 -10.251 -7.449 12.423 2.3229 46.536 0 0 6.8308 10.594zm-1.1607 1.8637a12.454 2.3171 36.727 0 0 11.391 5.6159 12.454 2.3171 36.727 0 0 -8.5653 -9.2896 12.454 2.3171 36.727 0 0 -11.391 -5.6158 12.454 2.3171 36.727 0 0 8.5652 9.2895zm-0.81574 1.9346a12.481 2.3121 27.358 0 0 12.171 3.7004 12.481 2.3121 27.358 0 0 -9.9945 -7.7807 12.481 2.3121 27.358 0 0 -12.171 -3.7003 12.481 2.3121 27.358 0 0 9.9944 7.7806zm-0.50931 2.033a12.503 2.3081 18.01 0 0 12.622 1.6808 12.503 2.3081 18.01 0 0 -11.155 -6.0579 12.503 2.3081 18.01 0 0 -12.622 -1.6807 12.503 2.3081 18.01 0 0 11.155 6.0578zm-0.20281 1.9871a12.516 2.3057 9.0896 0 0 12.734 -0.2957 12.516 2.3057 9.0896 0 0 -11.983 -4.2543 12.516 2.3057 9.0896 0 0 -12.733 0.2959 12.516 2.3057 9.0896 0 0 11.983 4.2541zm0.0234 1.8021a12.52 2.3049 0.99721 0 0 12.56 -2.0863 12.52 2.3049 0.99721 0 0 -12.477 -2.5226 12.52 2.3049 0.99721 0 0 -12.56 2.0863 12.52 2.3049 0.99721 0 0 12.477 2.5226z"/>
   <path id="path4672" d="m195.45 886.18a2.3378 12.344 10.802 0 1 -4.6098 11.7 2.3378 12.344 10.802 0 1 0.0122 -12.551 2.3378 12.344 10.802 0 1 4.6098 -11.7 2.3378 12.344 10.802 0 1 -0.0122 12.551zm2.191 1.279a2.3342 12.363 22.091 0 1 -6.8172 10.602 2.3342 12.363 22.091 0 1 2.4731 -12.312 2.3342 12.363 22.091 0 1 6.8172 -10.602 2.3342 12.363 22.091 0 1 -2.473 12.312zm1.8781 1.5217a2.329 12.391 32.897 0 1 -8.6977 9.1694 2.329 12.391 32.897 0 1 4.7517 -11.645 2.329 12.391 32.897 0 1 8.6976 -9.1692 2.329 12.391 32.897 0 1 -4.7516 11.645zm1.5625 1.7726a2.3229 12.423 43.464 0 1 -10.251 7.4491 2.3229 12.423 43.464 0 1 6.8308 -10.594 2.3229 12.423 43.464 0 1 10.251 -7.449 2.3229 12.423 43.464 0 1 -6.8307 10.594za2.3229 12.423 43.464 0 1 -10.251 7.4491 2.3229 12.423 43.464 0 1 6.8308 -10.594 2.3229 12.423 43.464 0 1 10.251 -7.449 2.3229 12.423 43.464 0 1 -6.8307 10.594zm1.1607 1.8637a2.3171 12.454 53.273 0 1 -11.391 5.6159 2.3171 12.454 53.273 0 1 8.5653 -9.2896 2.3171 12.454 53.273 0 1 11.391 -5.6158 2.3171 12.454 53.273 0 1 -8.5652 9.2895zm0.81574 1.9346a2.3121 12.481 62.642 0 1 -12.171 3.7004 2.3121 12.481 62.642 0 1 9.9945 -7.7807 2.3121 12.481 62.642 0 1 12.171 -3.7003 2.3121 12.481 62.642 0 1 -9.9944 7.7806zm0.50931 2.033a2.3081 12.503 71.99 0 1 -12.622 1.6808 2.3081 12.503 71.99 0 1 11.155 -6.0579 2.3081 12.503 71.99 0 1 12.622 -1.6807 2.3081 12.503 71.99 0 1 -11.155 6.0578zm0.20281 1.9871a2.3057 12.516 80.91 0 1 -12.734 -0.2957 2.3057 12.516 80.91 0 1 11.983 -4.2543 2.3057 12.516 80.91 0 1 12.734 0.2959 2.3057 12.516 80.91 0 1 -11.983 4.2541zm-0.0234 1.8021a2.3049 12.52 89.003 0 1 -12.56 -2.0863 2.3049 12.52 89.003 0 1 12.477 -2.5226 2.3049 12.52 89.003 0 1 12.56 2.0863 2.3049 12.52 89.003 0 1 -12.477 2.5226zm-15.409-15.257a2.339 12.338 0 0 0 2.339 12.338 2.339 12.338 0 0 0 2.339 -12.338 2.339 12.338 0 0 0 -2.339 -12.338 2.339 12.338 0 0 0 -2.339 12.338zm-2.2306 1.0628a12.344 2.3378 79.198 0 0 4.6098 11.7 12.344 2.3378 79.198 0 0 -0.0122 -12.551 12.344 2.3378 79.198 0 0 -4.6098 -11.7 12.344 2.3378 79.198 0 0 0.0121 12.551zm-2.191 1.279a12.363 2.3342 67.909 0 0 6.8172 10.602 12.363 2.3342 67.909 0 0 -2.4731 -12.312 12.363 2.3342 67.909 0 0 -6.8172 -10.602 12.363 2.3342 67.909 0 0 2.473 12.312zm-1.8781 1.5217a12.391 2.329 57.103 0 0 8.6977 9.1694 12.391 2.329 57.103 0 0 -4.7517 -11.645 12.391 2.329 57.103 0 0 -8.6976 -9.1692 12.391 2.329 57.103 0 0 4.7516 11.645zm-1.5625 1.7726a12.423 2.3229 46.536 0 0 10.251 7.4491 12.423 2.3229 46.536 0 0 -6.8308 -10.594 12.423 2.3229 46.536 0 0 -10.251 -7.449 12.423 2.3229 46.536 0 0 6.8308 10.594za12.423 2.3229 46.536 0 0 10.251 7.4491 12.423 2.3229 46.536 0 0 -6.8308 -10.594 12.423 2.3229 46.536 0 0 -10.251 -7.449 12.423 2.3229 46.536 0 0 6.8308 10.594zm-1.1607 1.8637a12.454 2.3171 36.727 0 0 11.391 5.6159 12.454 2.3171 36.727 0 0 -8.5653 -9.2896 12.454 2.3171 36.727 0 0 -11.391 -5.6158 12.454 2.3171 36.727 0 0 8.5652 9.2895zm-0.81574 1.9346a12.481 2.3121 27.358 0 0 12.171 3.7004 12.481 2.3121 27.358 0 0 -9.9945 -7.7807 12.481 2.3121 27.358 0 0 -12.171 -3.7003 12.481 2.3121 27.358 0 0 9.9944 7.7806zm-0.50931 2.033a12.503 2.3081 18.01 0 0 12.622 1.6808 12.503 2.3081 18.01 0 0 -11.155 -6.0579 12.503 2.3081 18.01 0 0 -12.622 -1.6807 12.503 2.3081 18.01 0 0 11.155 6.0578zm-0.20281 1.9871a12.516 2.3057 9.0896 0 0 12.734 -0.2957 12.516 2.3057 9.0896 0 0 -11.983 -4.2543 12.516 2.3057 9.0896 0 0 -12.733 0.2959 12.516 2.3057 9.0896 0 0 11.983 4.2541zm0.0234 1.8021a12.52 2.3049 0.99721 0 0 12.56 -2.0863 12.52 2.3049 0.99721 0 0 -12.477 -2.5226 12.52 2.3049 0.99721 0 0 -12.56 2.0863 12.52 2.3049 0.99721 0 0 12.477 2.5226z"/>
   <path id="path4674" d="m59.567 868.4a2.3378 12.344 10.802 0 1 -4.6098 11.7 2.3378 12.344 10.802 0 1 0.0122 -12.551 2.3378 12.344 10.802 0 1 4.6098 -11.7 2.3378 12.344 10.802 0 1 -0.0122 12.551zm2.191 1.279a2.3342 12.363 22.091 0 1 -6.8172 10.602 2.3342 12.363 22.091 0 1 2.4731 -12.312 2.3342 12.363 22.091 0 1 6.8172 -10.602 2.3342 12.363 22.091 0 1 -2.473 12.312zm1.8781 1.5217a2.329 12.391 32.897 0 1 -8.6977 9.1694 2.329 12.391 32.897 0 1 4.7517 -11.645 2.329 12.391 32.897 0 1 8.6976 -9.1692 2.329 12.391 32.897 0 1 -4.7516 11.645zm1.5625 1.7726a2.3229 12.423 43.464 0 1 -10.251 7.4491 2.3229 12.423 43.464 0 1 6.8308 -10.594 2.3229 12.423 43.464 0 1 10.251 -7.449 2.3229 12.423 43.464 0 1 -6.8307 10.594za2.3229 12.423 43.464 0 1 -10.251 7.4491 2.3229 12.423 43.464 0 1 6.8308 -10.594 2.3229 12.423 43.464 0 1 10.251 -7.449 2.3229 12.423 43.464 0 1 -6.8307 10.594zm1.1607 1.8637a2.3171 12.454 53.273 0 1 -11.391 5.6159 2.3171 12.454 53.273 0 1 8.5653 -9.2896 2.3171 12.454 53.273 0 1 11.391 -5.6158 2.3171 12.454 53.273 0 1 -8.5652 9.2895zm0.81574 1.9346a2.3121 12.481 62.642 0 1 -12.171 3.7004 2.3121 12.481 62.642 0 1 9.9945 -7.7807 2.3121 12.481 62.642 0 1 12.171 -3.7003 2.3121 12.481 62.642 0 1 -9.9944 7.7806zm0.50931 2.033a2.3081 12.503 71.99 0 1 -12.622 1.6808 2.3081 12.503 71.99 0 1 11.155 -6.0579 2.3081 12.503 71.99 0 1 12.622 -1.6807 2.3081 12.503 71.99 0 1 -11.155 6.0578zm0.20281 1.9871a2.3057 12.516 80.91 0 1 -12.734 -0.2957 2.3057 12.516 80.91 0 1 11.983 -4.2543 2.3057 12.516 80.91 0 1 12.734 0.2959 2.3057 12.516 80.91 0 1 -11.983 4.2541zm-0.0234 1.8021a2.3049 12.52 89.003 0 1 -12.56 -2.0863 2.3049 12.52 89.003 0 1 12.477 -2.5226 2.3049 12.52 89.003 0 1 12.56 2.0863 2.3049 12.52 89.003 0 1 -12.477 2.5226zm-15.409-15.257a2.339 12.338 0 0 0 2.339 12.338 2.339 12.338 0 0 0 2.339 -12.338 2.339 12.338 0 0 0 -2.339 -12.338 2.339 12.338 0 0 0 -2.339 12.338zm-2.2306 1.0628a12.344 2.3378 79.198 0 0 4.6098 11.7 12.344 2.3378 79.198 0 0 -0.0122 -12.551 12.344 2.3378 79.198 0 0 -4.6098 -11.7 12.344 2.3378 79.198 0 0 0.0121 12.551zm-2.191 1.279a12.363 2.3342 67.909 0 0 6.8172 10.602 12.363 2.3342 67.909 0 0 -2.4731 -12.312 12.363 2.3342 67.909 0 0 -6.8172 -10.602 12.363 2.3342 67.909 0 0 2.473 12.312zm-1.8781 1.5217a12.391 2.329 57.103 0 0 8.6977 9.1694 12.391 2.329 57.103 0 0 -4.7517 -11.645 12.391 2.329 57.103 0 0 -8.6976 -9.1692 12.391 2.329 57.103 0 0 4.7516 11.645zm-1.5625 1.7726a12.423 2.3229 46.536 0 0 10.251 7.4491 12.423 2.3229 46.536 0 0 -6.8308 -10.594 12.423 2.3229 46.536 0 0 -10.251 -7.449 12.423 2.3229 46.536 0 0 6.8308 10.594za12.423 2.3229 46.536 0 0 10.251 7.4491 12.423 2.3229 46.536 0 0 -6.8308 -10.594 12.423 2.3229 46.536 0 0 -10.251 -7.449 12.423 2.3229 46.536 0 0 6.8308 10.594zm-1.1607 1.8637a12.454 2.3171 36.727 0 0 11.391 5.6159 12.454 2.3171 36.727 0 0 -8.5653 -9.2896 12.454 2.3171 36.727 0 0 -11.391 -5.6158 12.454 2.3171 36.727 0 0 8.5652 9.2895zm-0.81574 1.9346a12.481 2.3121 27.358 0 0 12.171 3.7004 12.481 2.3121 27.358 0 0 -9.9945 -7.7807 12.481 2.3121 27.358 0 0 -12.171 -3.7003 12.481 2.3121 27.358 0 0 9.9944 7.7806zm-0.50931 2.033a12.503 2.3081 18.01 0 0 12.622 1.6808 12.503 2.3081 18.01 0 0 -11.155 -6.0579 12.503 2.3081 18.01 0 0 -12.622 -1.6807 12.503 2.3081 18.01 0 0 11.155 6.0578zm-0.20281 1.9871a12.516 2.3057 9.0896 0 0 12.734 -0.2957 12.516 2.3057 9.0896 0 0 -11.983 -4.2543 12.516 2.3057 9.0896 0 0 -12.733 0.2959 12.516 2.3057 9.0896 0 0 11.983 4.2541zm0.0234 1.8021a12.52 2.3049 0.99721 0 0 12.56 -2.0863 12.52 2.3049 0.99721 0 0 -12.477 -2.5226 12.52 2.3049 0.99721 0 0 -12.56 2.0863 12.52 2.3049 0.99721 0 0 12.477 2.5226z"/>
   <path id="path4676" d="m59.211 908.59a2.3378 12.344 10.802 0 1 -4.6098 11.7 2.3378 12.344 10.802 0 1 0.0122 -12.551 2.3378 12.344 10.802 0 1 4.6098 -11.7 2.3378 12.344 10.802 0 1 -0.0122 12.551zm2.191 1.279a2.3342 12.363 22.091 0 1 -6.8172 10.602 2.3342 12.363 22.091 0 1 2.4731 -12.312 2.3342 12.363 22.091 0 1 6.8172 -10.602 2.3342 12.363 22.091 0 1 -2.473 12.312zm1.8781 1.5217a2.329 12.391 32.897 0 1 -8.6977 9.1694 2.329 12.391 32.897 0 1 4.7517 -11.645 2.329 12.391 32.897 0 1 8.6976 -9.1692 2.329 12.391 32.897 0 1 -4.7516 11.645zm1.5625 1.7726a2.3229 12.423 43.464 0 1 -10.251 7.4491 2.3229 12.423 43.464 0 1 6.8308 -10.594 2.3229 12.423 43.464 0 1 10.251 -7.449 2.3229 12.423 43.464 0 1 -6.8307 10.594za2.3229 12.423 43.464 0 1 -10.251 7.4491 2.3229 12.423 43.464 0 1 6.8308 -10.594 2.3229 12.423 43.464 0 1 10.251 -7.449 2.3229 12.423 43.464 0 1 -6.8307 10.594zm1.1607 1.8637a2.3171 12.454 53.273 0 1 -11.391 5.6159 2.3171 12.454 53.273 0 1 8.5653 -9.2896 2.3171 12.454 53.273 0 1 11.391 -5.6158 2.3171 12.454 53.273 0 1 -8.5652 9.2895zm0.81574 1.9346a2.3121 12.481 62.642 0 1 -12.171 3.7004 2.3121 12.481 62.642 0 1 9.9945 -7.7807 2.3121 12.481 62.642 0 1 12.171 -3.7003 2.3121 12.481 62.642 0 1 -9.9944 7.7806zm0.50931 2.033a2.3081 12.503 71.99 0 1 -12.622 1.6808 2.3081 12.503 71.99 0 1 11.155 -6.0579 2.3081 12.503 71.99 0 1 12.622 -1.6807 2.3081 12.503 71.99 0 1 -11.155 6.0578zm0.20281 1.9871a2.3057 12.516 80.91 0 1 -12.734 -0.2957 2.3057 12.516 80.91 0 1 11.983 -4.2543 2.3057 12.516 80.91 0 1 12.734 0.2959 2.3057 12.516 80.91 0 1 -11.983 4.2541zm-0.0234 1.8021a2.3049 12.52 89.003 0 1 -12.56 -2.0863 2.3049 12.52 89.003 0 1 12.477 -2.5226 2.3049 12.52 89.003 0 1 12.56 2.0863 2.3049 12.52 89.003 0 1 -12.477 2.5226zm-15.409-15.257a2.339 12.338 0 0 0 2.339 12.338 2.339 12.338 0 0 0 2.339 -12.338 2.339 12.338 0 0 0 -2.339 -12.338 2.339 12.338 0 0 0 -2.339 12.338zm-2.2306 1.0628a12.344 2.3378 79.198 0 0 4.6098 11.7 12.344 2.3378 79.198 0 0 -0.0122 -12.551 12.344 2.3378 79.198 0 0 -4.6098 -11.7 12.344 2.3378 79.198 0 0 0.0121 12.551zm-2.191 1.279a12.363 2.3342 67.909 0 0 6.8172 10.602 12.363 2.3342 67.909 0 0 -2.4731 -12.312 12.363 2.3342 67.909 0 0 -6.8172 -10.602 12.363 2.3342 67.909 0 0 2.473 12.312zm-1.8781 1.5217a12.391 2.329 57.103 0 0 8.6977 9.1694 12.391 2.329 57.103 0 0 -4.7517 -11.645 12.391 2.329 57.103 0 0 -8.6976 -9.1692 12.391 2.329 57.103 0 0 4.7516 11.645zm-1.5625 1.7726a12.423 2.3229 46.536 0 0 10.251 7.4491 12.423 2.3229 46.536 0 0 -6.8308 -10.594 12.423 2.3229 46.536 0 0 -10.251 -7.449 12.423 2.3229 46.536 0 0 6.8308 10.594za12.423 2.3229 46.536 0 0 10.251 7.4491 12.423 2.3229 46.536 0 0 -6.8308 -10.594 12.423 2.3229 46.536 0 0 -10.251 -7.449 12.423 2.3229 46.536 0 0 6.8308 10.594zm-1.1607 1.8637a12.454 2.3171 36.727 0 0 11.391 5.6159 12.454 2.3171 36.727 0 0 -8.5653 -9.2896 12.454 2.3171 36.727 0 0 -11.391 -5.6158 12.454 2.3171 36.727 0 0 8.5652 9.2895zm-0.81574 1.9346a12.481 2.3121 27.358 0 0 12.171 3.7004 12.481 2.3121 27.358 0 0 -9.9945 -7.7807 12.481 2.3121 27.358 0 0 -12.171 -3.7003 12.481 2.3121 27.358 0 0 9.9944 7.7806zm-0.50931 2.033a12.503 2.3081 18.01 0 0 12.622 1.6808 12.503 2.3081 18.01 0 0 -11.155 -6.0579 12.503 2.3081 18.01 0 0 -12.622 -1.6807 12.503 2.3081 18.01 0 0 11.155 6.0578zm-0.20281 1.9871a12.516 2.3057 9.0896 0 0 12.734 -0.2957 12.516 2.3057 9.0896 0 0 -11.983 -4.2543 12.516 2.3057 9.0896 0 0 -12.733 0.2959 12.516 2.3057 9.0896 0 0 11.983 4.2541zm0.0234 1.8021a12.52 2.3049 0.99721 0 0 12.56 -2.0863 12.52 2.3049 0.99721 0 0 -12.477 -2.5226 12.52 2.3049 0.99721 0 0 -12.56 2.0863 12.52 2.3049 0.99721 0 0 12.477 2.5226z"/>
  </g>
  <g stroke-linejoin="round" stroke="#fff" stroke-linecap="round" stroke-width="1.5">
   <path id="path4758" d="m319.95 961.43a19 8.1429 60 0 1 -2.4481 -20.526 19 8.1429 60 0 1 16.552 12.383 19 8.1429 60 0 1 2.4481 20.526 19 8.1429 60 0 1 -16.552 -12.383zm2.9805 2.9805a19 8.1429 30 0 1 -12.383 -16.552 19 8.1429 30 0 1 20.526 2.4481 19 8.1429 30 0 1 12.383 16.552 19 8.1429 30 0 1 -20.526 -2.4481zm4.0714 1.091a19 8.1429 0 0 1 -19 -8.1429 19 8.1429 0 0 1 19 -8.1429 19 8.1429 0 0 1 19 8.1429 19 8.1429 0 0 1 -19 8.1429zm4.0714-1.091a8.1429 19 60 0 1 -20.526 2.4481 8.1429 19 60 0 1 12.383 -16.552 8.1429 19 60 0 1 20.526 -2.4481 8.1429 19 60 0 1 -12.383 16.552zm2.9805-2.9805a8.1429 19 30 0 1 -16.552 12.383 8.1429 19 30 0 1 2.4481 -20.526 8.1429 19 30 0 1 16.552 -12.383 8.1429 19 30 0 1 -2.4481 20.526zm1.0909-4.0714a8.1429 19 0 0 1 -8.1429 19 8.1429 19 0 0 1 -8.1429 -19 8.1429 19 0 0 1 8.1429 -19 8.1429 19 0 0 1 8.1429 19z"/>
   <path id="path4761" d="m449.95 915.43a19 8.1429 60 0 1 -2.4481 -20.526 19 8.1429 60 0 1 16.552 12.383 19 8.1429 60 0 1 2.4481 20.526 19 8.1429 60 0 1 -16.552 -12.383zm2.9805 2.9805a19 8.1429 30 0 1 -12.383 -16.552 19 8.1429 30 0 1 20.526 2.4481 19 8.1429 30 0 1 12.383 16.552 19 8.1429 30 0 1 -20.526 -2.4481zm4.0714 1.091a19 8.1429 0 0 1 -19 -8.1429 19 8.1429 0 0 1 19 -8.1429 19 8.1429 0 0 1 19 8.1429 19 8.1429 0 0 1 -19 8.1429zm4.0714-1.091a8.1429 19 60 0 1 -20.526 2.4481 8.1429 19 60 0 1 12.383 -16.552 8.1429 19 60 0 1 20.526 -2.4481 8.1429 19 60 0 1 -12.383 16.552zm2.9805-2.9805a8.1429 19 30 0 1 -16.552 12.383 8.1429 19 30 0 1 2.4481 -20.526 8.1429 19 30 0 1 16.552 -12.383 8.1429 19 30 0 1 -2.4481 20.526zm1.0909-4.0714a8.1429 19 0 0 1 -8.1429 19 8.1429 19 0 0 1 -8.1429 -19 8.1429 19 0 0 1 8.1429 -19 8.1429 19 0 0 1 8.1429 19z"/>
   <path id="path4763" d="m448.95 1022.4a19 8.1429 60 0 1 -2.4481 -20.526 19 8.1429 60 0 1 16.552 12.383 19 8.1429 60 0 1 2.4481 20.526 19 8.1429 60 0 1 -16.552 -12.383zm2.9805 2.9805a19 8.1429 30 0 1 -12.383 -16.552 19 8.1429 30 0 1 20.526 2.4481 19 8.1429 30 0 1 12.383 16.552 19 8.1429 30 0 1 -20.526 -2.4481zm4.0714 1.091a19 8.1429 0 0 1 -19 -8.1429 19 8.1429 0 0 1 19 -8.1429 19 8.1429 0 0 1 19 8.1429 19 8.1429 0 0 1 -19 8.1429zm4.0714-1.091a8.1429 19 60 0 1 -20.526 2.4481 8.1429 19 60 0 1 12.383 -16.552 8.1429 19 60 0 1 20.526 -2.4481 8.1429 19 60 0 1 -12.383 16.552zm2.9805-2.9805a8.1429 19 30 0 1 -16.552 12.383 8.1429 19 30 0 1 2.4481 -20.526 8.1429 19 30 0 1 16.552 -12.383 8.1429 19 30 0 1 -2.4481 20.526zm1.0909-4.0714a8.1429 19 0 0 1 -8.1429 19 8.1429 19 0 0 1 -8.1429 -19 8.1429 19 0 0 1 8.1429 -19 8.1429 19 0 0 1 8.1429 19z"/>
  </g>
 </g>
</svg>
