<?xml version="1.0" encoding="UTF-8" standalone="no"?>
<!-- Created with Inkscape (http://www.inkscape.org/) -->

<svg
   xmlns:svg="http://www.w3.org/2000/svg"
   xmlns="http://www.w3.org/2000/svg"
   xmlns:sodipodi="http://sodipodi.sourceforge.net/DTD/sodipodi-0.dtd"
   xmlns:inkscape="http://www.inkscape.org/namespaces/inkscape"
   width="885.82672"
   height="885.82672"
   id="svg2"
   version="1.1"
   inkscape:version="0.48+devel r9772"
   sodipodi:docname="OnlyWine-241.svg">
  <g
     inkscape:label="Background"
     inkscape:groupmode="layer"
     id="layer1"
     transform="translate(0,-166.5355)"
     sodipodi:insensitive="true">
    <rect
       style="color:#000000;fill:#ffffff;stroke:#800000;stroke-width:9.93276978;stroke-linecap:butt;stroke-linejoin:miter;stroke-miterlimit:4;stroke-opacity:1;stroke-dasharray:none;stroke-dashoffset:0;marker:none;visibility:visible;display:inline;overflow:visible;enable-background:accumulate"
       id="rect3840"
       width="875.90057"
       height="875.89392"
       x="4.9630871"
       y="171.50191" />
    <g
       id="g3889"
       style="fill:#800000">
      <path
         d="m 713.3786,1026.9622 -4.32,5.28 -10.92,0 -3.28,-5.28 0,-16.2 3.96,-4.88 10.68,0 3.88,4.88 0,16.2 m -5.32,-0.32 0,-15.72 -1.92,-2.36 -2.96,0 -1.48,2.36 0,15.72 1.6,2.92 2.88,0 1.88,-2.92"
         style="font-size:40px;font-style:normal;font-variant:normal;font-weight:normal;font-stretch:normal;text-align:start;line-height:125%;letter-spacing:0px;word-spacing:0px;writing-mode:lr-tb;text-anchor:start;fill:#800000;fill-opacity:1;stroke:none;font-family:LambrettistA;-inkscape-font-specification:LambrettistA"
         id="path3847"
         inkscape:connector-curvature="0" />
      <path
         d="m 737.71047,1008.0022 -23,0 0,-2.12 23,0 0,2.12 m -2.36,18.12 c -3.73335,0 -6.36001,0.013 -7.88,0.04 l 0,-10.6 -3.04,2 -0.04,8.56 -5.44,0.04 c 0,0 0,-3.8133 0,-11.44 l -2.88,0 c -0.0267,-1.52 -0.0267,-2.2666 0,-2.24 l 8.24,0 0,2.08 3.52,-2.08 5.08,0 c -2e-5,0 -2e-5,3.7734 0,11.32 l 2.44,0 0,2.32 m 2.68,6.08 -23.32,-0.04 0,-2.72 23.32,0.04 c -2e-5,0 -2e-5,0.9067 0,2.72"
         style="font-size:40px;font-style:normal;font-variant:normal;font-weight:normal;font-stretch:normal;text-align:start;line-height:125%;letter-spacing:0px;word-spacing:0px;writing-mode:lr-tb;text-anchor:start;fill:#800000;fill-opacity:1;stroke:none;font-family:LambrettistA;-inkscape-font-specification:LambrettistA"
         id="path3849"
         inkscape:connector-curvature="0" />
      <path
         d="m 751.53797,1008.0022 -3.72,0 c -10e-6,-0.7199 -10e-6,-1.1199 0,-1.2 -0.0267,-0.08 -0.04,-0.3866 -0.04,-0.92 l 3.76,0 0,2.12 m -3.08,18.12 -7.88,0 0.04,-21.12 -2.12,0 0,-2.32 7.76,0 0,20.92 2.2,0 0,2.52 m 3.2,6.08 -14.88,0 c 0,0 0,-0.92 0,-2.76 l 14.84,0 c -10e-6,0.7467 0.0133,1.6667 0.04,2.76"
         style="font-size:40px;font-style:normal;font-variant:normal;font-weight:normal;font-stretch:normal;text-align:start;line-height:125%;letter-spacing:0px;word-spacing:0px;writing-mode:lr-tb;text-anchor:start;fill:#800000;fill-opacity:1;stroke:none;font-family:LambrettistA;-inkscape-font-specification:LambrettistA"
         id="path3851"
         inkscape:connector-curvature="0" />
      <path
         d="m 769.71672,1008.0422 -18.92,0.04 c 0,-1.4666 0,-2.1999 0,-2.2 l 18.88,0 c 0.0267,1.3334 0.04,2.0534 0.04,2.16 m -1.76,24.88 -2.16,3.32 -10.68,0 0,-2.68 5.72,0 1.44,-1.44 0,-6.84 -0.84,0.84 -6.56,0 -1.72,-2.2 0,-11.44 5,0 0,11.36 4.12,0 0,-11.36 5.68,0 0,20.44 m -8.36,-0.72 -8.8,0 0,-2.76 8.8,0.04 0,2.72"
         style="font-size:40px;font-style:normal;font-variant:normal;font-weight:normal;font-stretch:normal;text-align:start;line-height:125%;letter-spacing:0px;word-spacing:0px;writing-mode:lr-tb;text-anchor:start;fill:#800000;fill-opacity:1;stroke:none;font-family:LambrettistA;-inkscape-font-specification:LambrettistA"
         id="path3853"
         inkscape:connector-curvature="0" />
      <path
         d="m 811.3811,1032.2422 -5.2,0 0,-2.72 5.2,0 0,2.72 m -2.64,-9.64 -9.64,9.68 c -2.00002,0 -3.80002,-0.013 -5.4,-0.04 -0.08,0 -0.10668,-1.3733 -0.08,-4.12 l -4.76,4.24 c -10e-6,-0.027 -0.0134,-0.053 -0.04,-0.08 l -5.12,0 c -10e-6,0 -10e-6,-7.8666 0,-23.6 l -3.48,0 -0.04,-2.76 8.96,0 0,23.08 4.36,-4.44 -0.04,-18.64 c 2.18665,10e-5 4.03998,-0.013 5.56,-0.04 l 0,22.76 4.2,-4.24 0.04,-18.52 c 1.38664,0.027 3.2133,0.04 5.48,0.04 -3e-5,3.2801 -3e-5,8.84 0,16.68"
         style="font-size:40px;font-style:normal;font-variant:normal;font-weight:normal;font-stretch:normal;text-align:start;line-height:125%;letter-spacing:0px;word-spacing:0px;writing-mode:lr-tb;text-anchor:start;fill:#800000;fill-opacity:1;stroke:none;font-family:LambrettistA;-inkscape-font-specification:LambrettistA"
         id="path3855"
         inkscape:connector-curvature="0" />
      <path
         d="m 820.20235,1008.0422 -5.72,0 0,-2.16 5.72,0 0,2.16 m -0.28,18.08 -5.52,0 c -0.0267,-2.16 -0.0267,-5.92 0,-11.28 l -2.84,0.04 c -0.0267,-1.5733 -0.0267,-2.3733 0,-2.4 l 8.36,0 0,13.64 m 3.6,6.04 -12.64,0 c 0,0 0,-0.9066 0,-2.72 l 12.64,0 0,2.72"
         style="font-size:40px;font-style:normal;font-variant:normal;font-weight:normal;font-stretch:normal;text-align:start;line-height:125%;letter-spacing:0px;word-spacing:0px;writing-mode:lr-tb;text-anchor:start;fill:#800000;fill-opacity:1;stroke:none;font-family:LambrettistA;-inkscape-font-specification:LambrettistA"
         id="path3857"
         inkscape:connector-curvature="0" />
      <path
         d="m 845.67922,1008.0022 -23,0 0,-2.12 23,0 0,2.12 m -2.36,18.12 c -3.73335,0 -6.36001,0.013 -7.88,0.04 l 0,-10.6 -3.04,2 -0.04,8.56 -5.44,0.04 c 0,0 0,-3.8133 0,-11.44 l -2.88,0 c -0.0267,-1.52 -0.0267,-2.2666 0,-2.24 l 8.24,0 0,2.08 3.52,-2.08 5.08,0 c -2e-5,0 -2e-5,3.7734 0,11.32 l 2.44,0 0,2.32 m 2.68,6.08 -23.32,-0.04 0,-2.72 23.32,0.04 c -2e-5,0 -2e-5,0.9067 0,2.72"
         style="font-size:40px;font-style:normal;font-variant:normal;font-weight:normal;font-stretch:normal;text-align:start;line-height:125%;letter-spacing:0px;word-spacing:0px;writing-mode:lr-tb;text-anchor:start;fill:#800000;fill-opacity:1;stroke:none;font-family:LambrettistA;-inkscape-font-specification:LambrettistA"
         id="path3859"
         inkscape:connector-curvature="0" />
      <path
         d="m 865.78672,1005.8422 -0.04,2.16 -21.48,0 c 0,10e-5 0,-0.7066 0,-2.12 l 21.52,-0.04 m -3,20.24 -12.84,0 -2.28,-1.68 0,-10.2 2.4,-1.88 10.24,0 2.32,1.84 0.04,5.52 -2.32,1.6 -7.32,0 c -10e-6,0.64 0.0133,1.0667 0.04,1.28 0.0533,0.2134 0.08,0.6134 0.08,1.2 l 9.64,0.04 c 0.0533,0.9067 0.0533,1.6667 0,2.28 m 3.04,6.08 -21.24,0 c 0,0 0,-0.92 0,-2.76 l 21.24,0 c -0.0533,1.4934 -0.0533,2.4134 0,2.76 m -8.4,-13.04 0,-4.44 -4.4,0 0,4.44 4.4,0"
         style="font-size:40px;font-style:normal;font-variant:normal;font-weight:normal;font-stretch:normal;text-align:start;line-height:125%;letter-spacing:0px;word-spacing:0px;writing-mode:lr-tb;text-anchor:start;fill:#800000;fill-opacity:1;stroke:none;font-family:LambrettistA;-inkscape-font-specification:LambrettistA"
         id="path3861"
         inkscape:connector-curvature="0" />
    </g>
  </g>
  <g
     inkscape:groupmode="layer"
     id="layer2"
     inkscape:label="Draw" />
  <g
     id="g16195">
    <g
       transform="matrix(0.74989223,0,0,0.74989223,-239.17135,110.33795)"
       id="g15782"
       style="fill:#d38d5f">
      <path
         style="fill:#d38d5f"
         d="m 486.93043,523.45997 0,7.59375 -10.375,0 c -3.71385,0 -6.71875,3.00327 -6.71875,6.71875 0,3.71549 3.00409,6.75 6.71875,6.75 l 34.1875,0 c 3.71466,0 6.75,-3.03451 6.75,-6.75 0,-3.71548 -3.03534,-6.71875 -6.75,-6.71875 l -10.375,0 0,-7.59375 -13.4375,0 z"
         id="path15784"
         inkscape:connector-curvature="0" />
      <path
         style="fill:#d38d5f"
         d="m 486.93043,524.36969 13.4375,0 0,-233.09857 -13.4375,0 0,233.09857 z"
         id="path15786"
         inkscape:connector-curvature="0" />
    </g>
    <g
       inkscape:label="Calque 1"
       id="g15788"
       transform="matrix(2.2011603,0,0,2.2011603,87.565748,271.23665)"
       style="fill:#ff0000">
      <path
         d="M 20,0 C 24,11 29,16 40,20 29,24 24,29 20,40 16,29 11,24 0,20 11,16 16,11 20,0 z"
         style="fill:#ff0000"
         sodipodi:nodetypes="ccccc"
         id="path15790"
         inkscape:connector-curvature="0" />
    </g>
    <path
       inkscape:connector-curvature="0"
       id="path15796"
       d="m 747.22568,399.79943 0,5.6945 -7.78014,0 c -2.78498,0 -5.03833,2.25213 -5.03833,5.03834 0,2.78621 2.25274,5.06177 5.03833,5.06177 l 25.63694,0 c 2.7856,0 5.06178,-2.27556 5.06178,-5.06177 0,-2.78621 -2.27618,-5.03834 -5.06178,-5.03834 l -7.78013,0 0,-5.6945 -10.07667,0 z"
       style="fill:#d38d5f" />
    <path
       inkscape:connector-curvature="0"
       id="path15798"
       d="m 747.22568,400.48163 10.07667,0 0,-174.79881 -10.07667,0 0,174.79881 z"
       style="fill:#d38d5f" />
    <path
       inkscape:connector-curvature="0"
       id="path15802"
       sodipodi:nodetypes="ccsscssccc"
       style="fill:#000000"
       d="m 730.25477,256.20597 c 15.87301,-3.52846 17.58111,-12.82396 18.77854,-29.92257 -2.75806,4.56741 -7.7723,7.93958 -15.95842,7.91097 -13.45437,-0.0462 -22.46724,-7.87135 -19.26015,-24.76305 3.23307,-17.03038 27.44627,-23.63386 38.45207,-41.27176 11.0058,17.63746 35.21857,24.24138 38.45207,41.27176 3.20489,16.8917 -5.43466,24.71462 -19.26015,24.76305 -8.18612,0.0286 -13.20036,-3.34356 -15.95841,-7.91097 1.19743,17.09861 2.90333,26.39411 18.77809,29.92257 h -44.0232 z" />
    <path
       style="fill:#ff0000"
       d="m 128.6468,701.87256 0,5.69449 -7.78014,0 c -2.78495,0 -5.0383,2.25213 -5.0383,5.03834 0,2.78622 2.25268,5.06177 5.0383,5.06177 l 25.63694,0 c 2.78563,0 5.06178,-2.27555 5.06178,-5.06177 0,-2.78621 -2.27615,-5.03834 -5.06178,-5.03834 l -7.78013,0 0,-5.69449 -10.07667,0 z"
       id="path15818"
       inkscape:connector-curvature="0" />
    <path
       style="fill:#ff0000"
       d="m 128.6468,702.55475 10.07667,0 0,-153.80162 -10.07667,0 0,153.80162 z"
       id="path15820"
       inkscape:connector-curvature="0" />
    <path
       inkscape:connector-curvature="0"
       style="fill:#ff0000"
       d="m 102.79899,474.20997 c -4.455939,0 -8.061346,3.62936 -8.061346,8.08477 0,11.68683 -0.06374,18.18 0,22.47333 l 0,1.26545 c 0,1.30749 0.07124,2.59622 0.21087,3.86663 6e-4,0.006 -5.25e-4,0.0175 0,0.0234 0.04799,0.51402 0.120208,0.99399 0.187473,1.45291 0.167301,1.14232 0.384245,2.16023 0.703024,3.39795 0.123132,0.47837 0.255863,0.95926 0.398418,1.42948 0.06749,0.22334 0.138955,0.43474 0.210869,0.65616 0.131607,0.40487 0.276036,0.82032 0.421815,1.21857 0.159127,0.43508 0.339701,0.83865 0.515551,1.26545 0.06449,0.15645 0.120882,0.31338 0.187473,0.46868 0.161677,0.37696 0.317729,0.77827 0.492154,1.14827 0.07574,0.16076 0.156128,0.30929 0.234341,0.46868 0.09306,0.19014 0.184699,0.37425 0.28121,0.56242 0.125907,0.24561 0.24334,0.5077 0.374946,0.7499 0.01725,0.0322 0.05249,0.0616 0.07049,0.0937 0.02475,0.0445 0.04574,0.0729 0.07049,0.11717 0.232166,0.41998 0.477681,0.8328 0.72642,1.24201 0.271312,0.44647 0.553192,0.90266 0.843632,1.33575 0.045,0.0682 0.0944,0.14307 0.1406,0.2109 0.27521,0.40426 0.55222,0.77981 0.84363,1.17171 0.0775,0.10424 0.15575,0.2013 0.23434,0.30464 0.16048,0.21086 0.32703,0.42566 0.49216,0.63273 0.17952,0.22521 0.35395,0.45895 0.53894,0.67959 0.25077,0.29924 0.51271,0.59987 0.77337,0.89049 0.057,0.0633 0.10678,0.12459 0.164,0.18748 0.3691,0.4058 0.73737,0.80706 1.12484,1.19514 0.054,0.0539 0.13325,0.087 0.18747,0.1406 0.31743,0.31383 0.63171,0.61233 0.96084,0.91393 0.10138,0.0928 0.20217,0.213 0.3046,0.30465 0.33296,0.29794 0.66343,0.58184 1.00771,0.86706 0.0405,0.0337 0.0763,0.0601 0.11713,0.0937 0.3559,0.29213 0.73407,0.58886 1.10144,0.86706 0.16131,0.12221 0.32861,0.23205 0.49208,0.35151 0.11249,0.0822 0.21455,0.15349 0.32808,0.23434 0.31661,0.22565 0.63651,0.46433 0.96084,0.67959 0.007,0.005 0.0157,-0.005 0.0232,0 0.38147,0.25284 0.75642,0.51177 1.14824,0.74989 0.3349,0.2035 0.68893,0.39338 1.0311,0.58586 0.0886,0.0499 0.1688,0.0916 0.25781,0.1406 0.21912,0.12089 0.43404,0.25865 0.65616,0.37495 0.29846,0.15631 0.61034,0.29737 0.91389,0.44525 0.21305,0.10383 0.41732,0.20503 0.63276,0.30464 0.18913,0.0874 0.37135,0.17363 0.56242,0.25778 0.25646,0.11301 0.51368,0.22107 0.77329,0.32807 0.3361,0.13854 0.68983,0.27009 1.0311,0.39838 0.12711,0.0478 0.24717,0.0943 0.37495,0.14061 0.10086,0.0365 0.20337,0.0815 0.30468,0.11717 0.40224,0.14161 0.80966,0.2712 1.21857,0.39838 0.5505,0.17125 1.10197,0.32422 1.66379,0.46868 0.53985,0.13882 1.09087,0.26155 1.64039,0.37495 0.10041,0.0207 0.2039,0.0504 0.30468,0.0703 0.3454,0.0682 0.6821,0.12956 1.0311,0.18748 0.26359,0.0437 0.53108,0.0794 0.79676,0.11717 0.46419,0.066 0.93617,0.13981 1.40605,0.18747 0.1826,0.0185 0.3556,0.0311 0.53895,0.0469 0.15058,0.013 0.3175,0.0124 0.46868,0.0234 0.35215,0.0256 0.69958,0.055 1.05457,0.0703 0.12479,0.005 0.24972,0.0194 0.37495,0.0234 l 0,0.0234 0,10.66253 10.07668,0 0,-10.66253 0,-0.0234 c 0.49605,-0.0159 0.98566,-0.0574 1.47631,-0.0937 0.32305,-0.0221 0.64716,-0.0385 0.96084,-0.0703 0.2974,-0.0302 0.59526,-0.0562 0.89049,-0.0937 0.10192,-0.0135 0.2006,-0.0555 0.30461,-0.0703 0.30866,-0.0422 0.63126,-0.0904 0.93737,-0.1406 16.6422,-2.72993 29.33953,-17.14977 29.33953,-34.56535 l 0,-23.73877 c 0,-4.45541 -3.60526,-8.08478 -8.06134,-8.08478 l -42.55639,0 -19.21598,0 z"
       id="path15822" />
    <g
       transform="matrix(0.74989223,0,0,0.74989223,290.80323,110.33795)"
       style="fill:#d38d5f"
       id="g15736">
      <path
         inkscape:connector-curvature="0"
         id="path15738"
         d="m 486.93043,523.45997 0,7.59375 -10.375,0 c -3.71385,0 -6.71875,3.00327 -6.71875,6.71875 0,3.71549 3.00409,6.75 6.71875,6.75 l 34.1875,0 c 3.71466,0 6.75,-3.03451 6.75,-6.75 0,-3.71548 -3.03534,-6.71875 -6.75,-6.71875 l -10.375,0 0,-7.59375 -13.4375,0 z"
         style="fill:#d38d5f" />
      <path
         inkscape:connector-curvature="0"
         id="path15740"
         d="m 486.93043,524.36969 13.4375,0 0,-233.09857 -13.4375,0 0,233.09857 z"
         style="fill:#d38d5f" />
    </g>
    <g
       style="fill:#ff0000"
       transform="matrix(2.2011603,0,0,2.2011603,617.54033,271.23664)"
       id="g15742"
       inkscape:label="Calque 1">
      <path
         inkscape:connector-curvature="0"
         id="path15744"
         sodipodi:nodetypes="ccccc"
         style="fill:#ff0000"
         d="M 20,0 C 24,11 29,16 40,20 29,24 24,29 20,40 16,29 11,24 0,20 11,16 16,11 20,0 z" />
    </g>
    <g
       style="fill:#d38d5f"
       id="g15748"
       transform="matrix(0.74989223,0,0,0.74989223,203.60599,7.2608689)">
      <path
         inkscape:connector-curvature="0"
         id="path15750"
         d="m 486.93043,523.45997 0,7.59375 -10.375,0 c -3.71385,0 -6.71875,3.00327 -6.71875,6.71875 0,3.71549 3.00409,6.75 6.71875,6.75 l 34.1875,0 c 3.71466,0 6.75,-3.03451 6.75,-6.75 0,-3.71548 -3.03534,-6.71875 -6.75,-6.71875 l -10.375,0 0,-7.59375 -13.4375,0 z"
         style="fill:#d38d5f" />
      <path
         inkscape:connector-curvature="0"
         id="path15752"
         d="m 486.93043,524.36969 13.4375,0 0,-233.09857 -13.4375,0 0,233.09857 z"
         style="fill:#d38d5f" />
    </g>
    <g
       transform="matrix(2.2011603,0,0,2.2011603,529.77806,168.15956)"
       id="g15754"
       inkscape:label="Calque 1">
      <path
         inkscape:connector-curvature="0"
         id="path15756"
         sodipodi:nodetypes="ccsscssccc"
         style="fill:#000000"
         d="M 9.9958,40 C 17.207,38.397 17.983,34.174 18.527,26.406 17.274,28.481 14.996,30.013 11.277,30 5.1646,29.979 1.07,26.424 2.527,18.75 3.9958,11.013 14.996,8.013 19.996,0 c 5,8.0128 16,11.013 17.469,18.75 1.456,7.674 -2.469,11.228 -8.75,11.25 -3.719,0.013 -5.997,-1.519 -7.25,-3.594 0.544,7.768 1.319,11.991 8.531,13.594 h -20 z" />
    </g>
    <g
       transform="matrix(0.74989223,0,0,0.74989223,384.04237,210.55179)"
       id="g15760"
       style="fill:#d38d5f">
      <path
         style="fill:#d38d5f"
         d="m 486.93043,523.45997 0,7.59375 -10.375,0 c -3.71385,0 -6.71875,3.00327 -6.71875,6.71875 0,3.71549 3.00409,6.75 6.71875,6.75 l 34.1875,0 c 3.71466,0 6.75,-3.03451 6.75,-6.75 0,-3.71548 -3.03534,-6.71875 -6.75,-6.71875 l -10.375,0 0,-7.59375 -13.4375,0 z"
         id="path15762"
         inkscape:connector-curvature="0" />
      <path
         style="fill:#d38d5f"
         d="m 486.93043,524.36969 13.4375,0 0,-233.09857 -13.4375,0 0,233.09857 z"
         id="path15764"
         inkscape:connector-curvature="0" />
    </g>
    <g
       transform="matrix(2.2011603,0,0,2.2011603,710.21456,371.45048)"
       id="g15766"
       inkscape:label="Calque 1">
      <path
         inkscape:connector-curvature="0"
         id="path15768"
         sodipodi:nodetypes="ccccsccccccscccc"
         style="fill:#000000"
         d="m 20,0 c -4.731,0 -8.571,4.032 -8.571,9 0.041,3.126 1.654,5.768 3.333,8.281 C 12.891,15.865 10.811,15.009 8.5714,15 3.84,15 0,19.032 0,24 c 0,4.968 3.84,9 8.5714,9 3.8326,-0.064 6.8986,-2.746 9.9106,-5 -0.539,6.733 -1.635,10.514 -8.006,12 h 19.048 c -6.371,-1.486 -7.467,-5.267 -8.006,-12 2.977,2.552 6.1,4.717 9.911,5 C 36.16,33 40,28.968 40,24 c 0,-4.968 -3.84,-9 -8.571,-9 -2.297,0 -4.281,1.057 -6.191,2.281 1.9,-2.487 3.151,-5.17 3.333,-8.281 0,-4.968 -3.84,-9 -8.571,-9 z" />
    </g>
    <g
       transform="matrix(0.74989223,0,0,0.74989223,114.14502,110.33795)"
       id="g15690"
       style="fill:#d38d5f">
      <path
         style="fill:#d38d5f"
         d="m 486.93043,523.45997 0,7.59375 -10.375,0 c -3.71385,0 -6.71875,3.00327 -6.71875,6.71875 0,3.71549 3.00409,6.75 6.71875,6.75 l 34.1875,0 c 3.71466,0 6.75,-3.03451 6.75,-6.75 0,-3.71548 -3.03534,-6.71875 -6.75,-6.71875 l -10.375,0 0,-7.59375 -13.4375,0 z"
         id="path15692"
         inkscape:connector-curvature="0" />
      <path
         style="fill:#d38d5f"
         d="m 486.93043,524.36969 13.4375,0 0,-233.09857 -13.4375,0 0,233.09857 z"
         id="path15694"
         inkscape:connector-curvature="0" />
    </g>
    <g
       inkscape:label="Calque 1"
       id="g15696"
       transform="matrix(2.2011603,0,0,2.2011603,440.88212,271.23664)"
       style="fill:#ff0000">
      <path
         d="M 20,0 C 24,11 29,16 40,20 29,24 24,29 20,40 16,29 11,24 0,20 11,16 16,11 20,0 z"
         style="fill:#ff0000"
         sodipodi:nodetypes="ccccc"
         id="path15698"
         inkscape:connector-curvature="0" />
    </g>
    <g
       transform="matrix(0.74989223,0,0,0.74989223,25.131636,7.2608689)"
       id="g15702"
       style="fill:#d38d5f">
      <path
         style="fill:#d38d5f"
         d="m 486.93043,523.45997 0,7.59375 -10.375,0 c -3.71385,0 -6.71875,3.00327 -6.71875,6.71875 0,3.71549 3.00409,6.75 6.71875,6.75 l 34.1875,0 c 3.71466,0 6.75,-3.03451 6.75,-6.75 0,-3.71548 -3.03534,-6.71875 -6.75,-6.71875 l -10.375,0 0,-7.59375 -13.4375,0 z"
         id="path15704"
         inkscape:connector-curvature="0" />
      <path
         style="fill:#d38d5f"
         d="m 486.93043,524.36969 13.4375,0 0,-233.09857 -13.4375,0 0,233.09857 z"
         id="path15706"
         inkscape:connector-curvature="0" />
    </g>
    <g
       inkscape:label="Calque 1"
       id="g15708"
       transform="matrix(2.2011603,0,0,2.2011603,351.30371,168.15956)">
      <path
         d="M 9.9958,40 C 17.207,38.397 17.983,34.174 18.527,26.406 17.274,28.481 14.996,30.013 11.277,30 5.1646,29.979 1.07,26.424 2.527,18.75 3.9958,11.013 14.996,8.013 19.996,0 c 5,8.0128 16,11.013 17.469,18.75 1.456,7.674 -2.469,11.228 -8.75,11.25 -3.719,0.013 -5.997,-1.519 -7.25,-3.594 0.544,7.768 1.319,11.991 8.531,13.594 h -20 z"
         style="fill:#000000"
         sodipodi:nodetypes="ccsscssccc"
         id="path15710"
         inkscape:connector-curvature="0" />
    </g>
    <g
       style="fill:#d38d5f"
       id="g15714"
       transform="matrix(0.74989223,0,0,0.74989223,205.56802,210.55179)">
      <path
         inkscape:connector-curvature="0"
         id="path15716"
         d="m 486.93043,523.45997 0,7.59375 -10.375,0 c -3.71385,0 -6.71875,3.00327 -6.71875,6.71875 0,3.71549 3.00409,6.75 6.71875,6.75 l 34.1875,0 c 3.71466,0 6.75,-3.03451 6.75,-6.75 0,-3.71548 -3.03534,-6.71875 -6.75,-6.71875 l -10.375,0 0,-7.59375 -13.4375,0 z"
         style="fill:#d38d5f" />
      <path
         inkscape:connector-curvature="0"
         id="path15718"
         d="m 486.93043,524.36969 13.4375,0 0,-233.09857 -13.4375,0 0,233.09857 z"
         style="fill:#d38d5f" />
    </g>
    <g
       inkscape:label="Calque 1"
       id="g15720"
       transform="matrix(2.2011603,0,0,2.2011603,531.74021,371.45048)">
      <path
         d="m 20,0 c -4.731,0 -8.571,4.032 -8.571,9 0.041,3.126 1.654,5.768 3.333,8.281 C 12.891,15.865 10.811,15.009 8.5714,15 3.84,15 0,19.032 0,24 c 0,4.968 3.84,9 8.5714,9 3.8326,-0.064 6.8986,-2.746 9.9106,-5 -0.539,6.733 -1.635,10.514 -8.006,12 h 19.048 c -6.371,-1.486 -7.467,-5.267 -8.006,-12 2.977,2.552 6.1,4.717 9.911,5 C 36.16,33 40,28.968 40,24 c 0,-4.968 -3.84,-9 -8.571,-9 -2.297,0 -4.281,1.057 -6.191,2.281 1.9,-2.487 3.151,-5.17 3.333,-8.281 0,-4.968 -3.84,-9 -8.571,-9 z"
         style="fill:#000000"
         sodipodi:nodetypes="ccccsccccccscccc"
         id="path15722"
         inkscape:connector-curvature="0" />
    </g>
    <path
       style="fill:#ff0000"
       d="m 658.35194,701.87256 0,5.6945 -7.78013,0 c -2.78499,0 -5.03834,2.25212 -5.03834,5.03833 0,2.78622 2.25275,5.06178 5.03834,5.06178 l 25.63694,0 c 2.7856,0 5.06178,-2.27556 5.06178,-5.06178 0,-2.78621 -2.27618,-5.03833 -5.06178,-5.03833 l -7.78013,0 0,-5.6945 -10.07668,0 z"
       id="path15726"
       inkscape:connector-curvature="0" />
    <path
       style="fill:#ff0000"
       d="m 658.35194,702.55475 10.07668,0 0,-153.80162 -10.07668,0 0,153.80162 z"
       id="path15728"
       inkscape:connector-curvature="0" />
    <path
       inkscape:connector-curvature="0"
       style="fill:#ff0000"
       d="m 632.5041,474.20997 c -4.45592,0 -8.06135,3.62936 -8.06135,8.08477 0,11.68683 -0.0636,18.18 0,22.47334 l 0,1.26544 c 0,1.30749 0.0715,2.59622 0.21091,3.86663 6.1e-4,0.006 -5.4e-4,0.0175 0,0.0234 0.0481,0.51402 0.12019,0.99399 0.18748,1.45291 0.16733,1.14232 0.38421,2.16023 0.70302,3.39795 0.12312,0.47837 0.25582,0.95926 0.39838,1.42948 0.0677,0.22334 0.13895,0.43474 0.21091,0.65616 0.13158,0.40487 0.27602,0.82032 0.42181,1.21858 0.15914,0.43508 0.33969,0.83864 0.51555,1.26544 0.0643,0.15646 0.12088,0.31338 0.18747,0.46868 0.16171,0.37696 0.3177,0.77828 0.49212,1.14827 0.0757,0.16076 0.15616,0.30929 0.23434,0.46869 0.0931,0.19013 0.18475,0.37424 0.28121,0.56242 0.12596,0.2456 0.24337,0.50769 0.37495,0.74989 0.0176,0.0322 0.0526,0.0616 0.0703,0.0937 0.0244,0.0445 0.0456,0.0729 0.0703,0.11717 0.23223,0.41998 0.47771,0.8328 0.72646,1.24201 0.27129,0.44647 0.55318,0.90266 0.84363,1.33575 0.0454,0.0682 0.0944,0.14307 0.1406,0.21091 0.27522,0.40426 0.55224,0.7798 0.84363,1.1717 0.0775,0.10424 0.15576,0.2013 0.23434,0.30465 0.16049,0.21085 0.32703,0.42565 0.49212,0.63272 0.17957,0.22521 0.35399,0.45895 0.53898,0.67959 0.25079,0.29924 0.51273,0.59987 0.77333,0.8905 0.0568,0.0633 0.10684,0.12458 0.16404,0.18747 0.36909,0.4058 0.73739,0.80706 1.12484,1.19514 0.0541,0.0539 0.13326,0.087 0.18747,0.1406 0.31746,0.31383 0.6317,0.61234 0.9608,0.91393 0.10139,0.0928 0.20223,0.213 0.30464,0.30465 0.33295,0.29795 0.66342,0.58184 1.00767,0.86706 0.0406,0.0338 0.0763,0.0601 0.11717,0.0937 0.35591,0.29213 0.73407,0.58887 1.1014,0.86706 0.16131,0.12221 0.32866,0.23205 0.49212,0.35151 0.1125,0.0822 0.21457,0.15349 0.32808,0.23434 0.31663,0.22565 0.6365,0.46433 0.9608,0.67959 0.008,0.005 0.016,-0.005 0.0234,0 0.38148,0.25284 0.75643,0.51178 1.14827,0.7499 0.33491,0.20349 0.68894,0.39337 1.0311,0.58585 0.0885,0.0499 0.16877,0.0916 0.25777,0.1406 0.21918,0.12089 0.43407,0.25865 0.65616,0.37495 0.2985,0.15632 0.61035,0.29737 0.91393,0.44525 0.21302,0.10383 0.41728,0.20503 0.63272,0.30464 0.18919,0.0874 0.37141,0.17363 0.56242,0.25778 0.25647,0.11301 0.51368,0.22107 0.77333,0.32808 0.33613,0.13853 0.68982,0.27008 1.0311,0.39838 0.12712,0.0478 0.24715,0.0943 0.37495,0.1406 0.10085,0.0365 0.20338,0.0815 0.30464,0.11717 0.40227,0.14161 0.80968,0.2712 1.21858,0.39838 0.5505,0.17125 1.10201,0.32423 1.66382,0.46868 0.53987,0.13882 1.09083,0.26155 1.64039,0.37495 0.10038,0.0207 0.20392,0.0504 0.30464,0.0703 0.34547,0.0682 0.68211,0.12955 1.0311,0.18747 0.26365,0.0437 0.53109,0.0794 0.79676,0.11717 0.4642,0.066 0.93624,0.13981 1.40605,0.18747 0.18263,0.0185 0.35562,0.0311 0.53899,0.0469 0.15061,0.013 0.31753,0.0124 0.46868,0.0234 0.35217,0.0256 0.69959,0.055 1.05454,0.0703 0.12481,0.005 0.24972,0.0194 0.37494,0.0234 l 0,0.0234 0,10.66253 10.07668,0 0,-10.66253 0,-0.0234 c 0.49608,-0.0159 0.98569,-0.0574 1.47635,-0.0937 0.32307,-0.022 0.64713,-0.0385 0.9608,-0.0703 0.29741,-0.0302 0.59531,-0.0562 0.8905,-0.0937 0.10193,-0.0135 0.20061,-0.0555 0.30464,-0.0703 0.30865,-0.0422 0.63129,-0.0904 0.93736,-0.14061 16.6422,-2.72993 29.33954,-17.14976 29.33954,-34.56534 l 0,-23.73878 c 0,-4.45541 -3.6053,-8.08478 -8.06134,-8.08478 l -42.55639,0 -19.21599,0 z"
       id="path15730" />
    <g
       transform="matrix(0.74989223,0,0,0.74989223,-62.513161,110.33795)"
       style="fill:#d38d5f"
       id="g15625">
      <path
         inkscape:connector-curvature="0"
         id="path15610"
         d="m 486.93043,523.45997 0,7.59375 -10.375,0 c -3.71385,0 -6.71875,3.00327 -6.71875,6.71875 0,3.71549 3.00409,6.75 6.71875,6.75 l 34.1875,0 c 3.71466,0 6.75,-3.03451 6.75,-6.75 0,-3.71548 -3.03534,-6.71875 -6.75,-6.71875 l -10.375,0 0,-7.59375 -13.4375,0 z"
         style="fill:#d38d5f" />
      <path
         inkscape:connector-curvature="0"
         id="path15612"
         d="m 486.93043,524.36969 13.4375,0 0,-233.09857 -13.4375,0 0,233.09857 z"
         style="fill:#d38d5f" />
    </g>
    <g
       style="fill:#ff0000"
       transform="matrix(2.2011603,0,0,2.2011603,264.22393,271.23664)"
       id="layer1-3"
       inkscape:label="Calque 1">
      <path
         inkscape:connector-curvature="0"
         id="rect3462"
         sodipodi:nodetypes="ccccc"
         style="fill:#ff0000"
         d="M 20,0 C 24,11 29,16 40,20 29,24 24,29 20,40 16,29 11,24 0,20 11,16 16,11 20,0 z" />
    </g>
    <path
       inkscape:connector-curvature="0"
       id="path15772"
       d="m 305.21538,701.87256 0,5.6945 -7.78013,0 c -2.78499,0 -5.03834,2.25212 -5.03834,5.03833 0,2.78622 2.25275,5.06178 5.03834,5.06178 l 25.63694,0 c 2.7856,0 5.06178,-2.27556 5.06178,-5.06178 0,-2.78621 -2.27618,-5.03833 -5.06178,-5.03833 l -7.78013,0 0,-5.6945 -10.07668,0 z"
       style="fill:#ff0000" />
    <path
       inkscape:connector-curvature="0"
       id="path15774"
       d="m 305.21538,702.55475 10.07668,0 0,-153.80162 -10.07668,0 0,153.80162 z"
       style="fill:#ff0000" />
    <path
       id="path15776"
       d="m 279.36754,474.20997 c -4.45592,0 -8.06135,3.62936 -8.06135,8.08477 0,11.68683 -0.0636,18.18 0,22.47334 l 0,1.26544 c 0,1.30749 0.0715,2.59622 0.21091,3.86663 6.1e-4,0.006 -5.4e-4,0.0175 0,0.0234 0.0481,0.51402 0.12019,0.99399 0.18748,1.45291 0.16733,1.14232 0.38421,2.16023 0.70302,3.39795 0.12312,0.47837 0.25582,0.95926 0.39838,1.42948 0.0677,0.22334 0.13895,0.43474 0.21091,0.65616 0.13158,0.40487 0.27602,0.82032 0.42181,1.21858 0.15914,0.43508 0.33969,0.83864 0.51555,1.26544 0.0643,0.15646 0.12088,0.31338 0.18747,0.46868 0.16171,0.37696 0.3177,0.77828 0.49212,1.14827 0.0757,0.16076 0.15616,0.30929 0.23434,0.46869 0.0931,0.19013 0.18475,0.37424 0.28121,0.56242 0.12596,0.2456 0.24337,0.50769 0.37495,0.74989 0.0176,0.0322 0.0526,0.0616 0.0703,0.0937 0.0244,0.0445 0.0456,0.0729 0.0703,0.11717 0.23223,0.41998 0.47771,0.8328 0.72646,1.24201 0.27129,0.44647 0.55318,0.90266 0.84363,1.33575 0.0454,0.0682 0.0944,0.14307 0.1406,0.21091 0.27522,0.40426 0.55224,0.7798 0.84363,1.1717 0.0775,0.10424 0.15576,0.2013 0.23434,0.30465 0.16049,0.21085 0.32703,0.42565 0.49212,0.63272 0.17957,0.22521 0.35399,0.45895 0.53898,0.67959 0.25079,0.29924 0.51273,0.59987 0.77333,0.8905 0.0568,0.0633 0.10684,0.12458 0.16404,0.18747 0.36909,0.4058 0.73739,0.80706 1.12484,1.19514 0.0541,0.0539 0.13326,0.087 0.18747,0.1406 0.31746,0.31383 0.6317,0.61234 0.9608,0.91393 0.10139,0.0928 0.20223,0.213 0.30464,0.30465 0.33295,0.29795 0.66342,0.58184 1.00767,0.86706 0.0406,0.0338 0.0763,0.0601 0.11717,0.0937 0.35591,0.29213 0.73407,0.58887 1.1014,0.86706 0.16131,0.12221 0.32866,0.23205 0.49212,0.35151 0.1125,0.0822 0.21457,0.15349 0.32808,0.23434 0.31663,0.22565 0.6365,0.46433 0.9608,0.67959 0.008,0.005 0.016,-0.005 0.0234,0 0.38148,0.25284 0.75643,0.51178 1.14827,0.7499 0.33491,0.20349 0.68894,0.39337 1.0311,0.58585 0.0885,0.0499 0.16877,0.0916 0.25777,0.1406 0.21918,0.12089 0.43407,0.25865 0.65616,0.37495 0.2985,0.15632 0.61035,0.29737 0.91393,0.44525 0.21302,0.10383 0.41728,0.20503 0.63272,0.30464 0.18919,0.0874 0.37141,0.17363 0.56242,0.25778 0.25647,0.11301 0.51368,0.22107 0.77333,0.32808 0.33613,0.13853 0.68982,0.27008 1.0311,0.39838 0.12712,0.0478 0.24715,0.0943 0.37495,0.1406 0.10085,0.0365 0.20338,0.0815 0.30464,0.11717 0.40227,0.14161 0.80968,0.2712 1.21858,0.39838 0.5505,0.17125 1.10201,0.32423 1.66382,0.46868 0.53987,0.13882 1.09083,0.26155 1.64039,0.37495 0.10038,0.0207 0.20392,0.0504 0.30464,0.0703 0.34547,0.0682 0.68211,0.12955 1.0311,0.18747 0.26365,0.0437 0.53109,0.0794 0.79676,0.11717 0.4642,0.066 0.93624,0.13981 1.40605,0.18747 0.18263,0.0185 0.35562,0.0311 0.53899,0.0469 0.15061,0.013 0.31753,0.0124 0.46868,0.0234 0.35217,0.0256 0.69959,0.055 1.05454,0.0703 0.12481,0.005 0.24972,0.0194 0.37494,0.0234 l 0,0.0234 0,10.66253 10.07668,0 0,-10.66253 0,-0.0234 c 0.49608,-0.0159 0.98569,-0.0574 1.47635,-0.0937 0.32307,-0.022 0.64713,-0.0385 0.9608,-0.0703 0.29741,-0.0302 0.59531,-0.0562 0.8905,-0.0937 0.10193,-0.0135 0.20061,-0.0555 0.30464,-0.0703 0.30865,-0.0422 0.63129,-0.0904 0.93736,-0.14061 16.6422,-2.72993 29.33954,-17.14976 29.33954,-34.56534 l 0,-23.73878 c 0,-4.45541 -3.6053,-8.08478 -8.06134,-8.08478 l -42.55639,0 -19.21599,0 z"
       style="fill:#ff0000"
       inkscape:connector-curvature="0" />
    <g
       style="fill:#d38d5f"
       id="g15635"
       transform="matrix(0.74989223,0,0,0.74989223,-154.8425,7.2608689)">
      <path
         inkscape:connector-curvature="0"
         id="path15637"
         d="m 486.93043,523.45997 0,7.59375 -10.375,0 c -3.71385,0 -6.71875,3.00327 -6.71875,6.71875 0,3.71549 3.00409,6.75 6.71875,6.75 l 34.1875,0 c 3.71466,0 6.75,-3.03451 6.75,-6.75 0,-3.71548 -3.03534,-6.71875 -6.75,-6.71875 l -10.375,0 0,-7.59375 -13.4375,0 z"
         style="fill:#d38d5f" />
      <path
         inkscape:connector-curvature="0"
         id="path15639"
         d="m 486.93043,524.36969 13.4375,0 0,-233.09857 -13.4375,0 0,233.09857 z"
         style="fill:#d38d5f" />
    </g>
    <g
       transform="matrix(2.2011603,0,0,2.2011603,171.32957,168.15956)"
       id="layer1-6"
       inkscape:label="Calque 1">
      <path
         inkscape:connector-curvature="0"
         id="path3295"
         sodipodi:nodetypes="ccsscssccc"
         style="fill:#000000"
         d="M 9.9958,40 C 17.207,38.397 17.983,34.174 18.527,26.406 17.274,28.481 14.996,30.013 11.277,30 5.1646,29.979 1.07,26.424 2.527,18.75 3.9958,11.013 14.996,8.013 19.996,0 c 5,8.0128 16,11.013 17.469,18.75 1.456,7.674 -2.469,11.228 -8.75,11.25 -3.719,0.013 -5.997,-1.519 -7.25,-3.594 0.544,7.768 1.319,11.991 8.531,13.594 h -20 z" />
    </g>
    <g
       style="fill:#d38d5f"
       id="g15806"
       transform="matrix(0.74989223,0,0,0.74989223,-154.52356,210.5518)">
      <path
         inkscape:connector-curvature="0"
         id="path15808"
         d="m 486.93043,523.45997 0,7.59375 -10.375,0 c -3.71385,0 -6.71875,3.00327 -6.71875,6.71875 0,3.71549 3.00409,6.75 6.71875,6.75 l 34.1875,0 c 3.71466,0 6.75,-3.03451 6.75,-6.75 0,-3.71548 -3.03534,-6.71875 -6.75,-6.71875 l -10.375,0 0,-7.59375 -13.4375,0 z"
         style="fill:#d38d5f" />
      <path
         inkscape:connector-curvature="0"
         id="path15810"
         d="m 486.93043,524.36969 13.4375,0 0,-233.09857 -13.4375,0 0,233.09857 z"
         style="fill:#d38d5f" />
    </g>
    <g
       inkscape:label="Calque 1"
       id="g15812"
       transform="matrix(2.2011603,0,0,2.2011603,171.64862,371.45049)">
      <path
         d="m 20,0 c -4.731,0 -8.571,4.032 -8.571,9 0.041,3.126 1.654,5.768 3.333,8.281 C 12.891,15.865 10.811,15.009 8.5714,15 3.84,15 0,19.032 0,24 c 0,4.968 3.84,9 8.5714,9 3.8326,-0.064 6.8986,-2.746 9.9106,-5 -0.539,6.733 -1.635,10.514 -8.006,12 h 19.048 c -6.371,-1.486 -7.467,-5.267 -8.006,-12 2.977,2.552 6.1,4.717 9.911,5 C 36.16,33 40,28.968 40,24 c 0,-4.968 -3.84,-9 -8.571,-9 -2.297,0 -4.281,1.057 -6.191,2.281 1.9,-2.487 3.151,-5.17 3.333,-8.281 0,-4.968 -3.84,-9 -8.571,-9 z"
         style="fill:#000000"
         sodipodi:nodetypes="ccccsccccccscccc"
         id="path15814"
         inkscape:connector-curvature="0" />
    </g>
    <g
       transform="matrix(0.74989223,0,0,0.74989223,25.59388,210.55179)"
       id="g15629"
       style="fill:#d38d5f">
      <path
         style="fill:#d38d5f"
         d="m 486.93043,523.45997 0,7.59375 -10.375,0 c -3.71385,0 -6.71875,3.00327 -6.71875,6.71875 0,3.71549 3.00409,6.75 6.71875,6.75 l 34.1875,0 c 3.71466,0 6.75,-3.03451 6.75,-6.75 0,-3.71548 -3.03534,-6.71875 -6.75,-6.71875 l -10.375,0 0,-7.59375 -13.4375,0 z"
         id="path15631"
         inkscape:connector-curvature="0" />
      <path
         style="fill:#d38d5f"
         d="m 486.93043,524.36969 13.4375,0 0,-233.09857 -13.4375,0 0,233.09857 z"
         id="path15633"
         inkscape:connector-curvature="0" />
    </g>
    <g
       transform="matrix(2.2011603,0,0,2.2011603,351.76607,371.45048)"
       id="layer1-5"
       inkscape:label="Calque 1">
      <path
         inkscape:connector-curvature="0"
         id="path3395"
         sodipodi:nodetypes="ccccsccccccscccc"
         style="fill:#000000"
         d="m 20,0 c -4.731,0 -8.571,4.032 -8.571,9 0.041,3.126 1.654,5.768 3.333,8.281 C 12.891,15.865 10.811,15.009 8.5714,15 3.84,15 0,19.032 0,24 c 0,4.968 3.84,9 8.5714,9 3.8326,-0.064 6.8986,-2.746 9.9106,-5 -0.539,6.733 -1.635,10.514 -8.006,12 h 19.048 c -6.371,-1.486 -7.467,-5.267 -8.006,-12 2.977,2.552 6.1,4.717 9.911,5 C 36.16,33 40,28.968 40,24 c 0,-4.968 -3.84,-9 -8.571,-9 -2.297,0 -4.281,1.057 -6.191,2.281 1.9,-2.487 3.151,-5.17 3.333,-8.281 0,-4.968 -3.84,-9 -8.571,-9 z" />
    </g>
    <path
       inkscape:connector-curvature="0"
       id="path15600"
       d="m 481.78367,701.87256 0,5.6945 -7.78013,0 c -2.78499,0 -5.03834,2.25212 -5.03834,5.03833 0,2.78622 2.25275,5.06178 5.03834,5.06178 l 25.63694,0 c 2.7856,0 5.06177,-2.27556 5.06177,-5.06178 0,-2.78621 -2.27617,-5.03833 -5.06177,-5.03833 l -7.78013,0 0,-5.6945 -10.07668,0 z"
       style="fill:#ff0000" />
    <path
       inkscape:connector-curvature="0"
       id="path15595"
       d="m 481.78367,702.55475 10.07668,0 0,-153.80162 -10.07668,0 0,153.80162 z"
       style="fill:#ff0000" />
    <path
       id="path15477"
       d="m 455.93583,474.20997 c -4.45592,0 -8.06135,3.62936 -8.06135,8.08477 0,11.68683 -0.0636,18.18 0,22.47334 l 0,1.26544 c 0,1.30749 0.0715,2.59622 0.21091,3.86663 6.1e-4,0.006 -5.4e-4,0.0175 0,0.0234 0.0481,0.51402 0.12019,0.99399 0.18747,1.45291 0.16733,1.14232 0.38422,2.16023 0.70303,3.39795 0.12312,0.47837 0.25582,0.95926 0.39838,1.42948 0.0677,0.22334 0.13895,0.43474 0.21091,0.65616 0.13158,0.40487 0.27602,0.82032 0.42181,1.21858 0.15913,0.43508 0.33969,0.83864 0.51555,1.26544 0.0643,0.15646 0.12088,0.31338 0.18747,0.46868 0.16171,0.37696 0.3177,0.77828 0.49212,1.14827 0.0757,0.16076 0.15616,0.30929 0.23434,0.46869 0.0931,0.19013 0.18475,0.37424 0.28121,0.56242 0.12596,0.2456 0.24337,0.50769 0.37495,0.74989 0.0175,0.0322 0.0526,0.0616 0.0703,0.0937 0.0244,0.0445 0.0456,0.0729 0.0703,0.11717 0.23223,0.41998 0.47771,0.8328 0.72646,1.24201 0.27129,0.44647 0.55318,0.90266 0.84362,1.33575 0.0454,0.0682 0.0944,0.14307 0.14061,0.21091 0.27522,0.40426 0.55224,0.7798 0.84363,1.1717 0.0775,0.10424 0.15576,0.2013 0.23434,0.30465 0.16049,0.21085 0.32703,0.42565 0.49212,0.63272 0.17957,0.22521 0.35399,0.45895 0.53898,0.67959 0.25079,0.29924 0.51273,0.59987 0.77333,0.8905 0.0568,0.0633 0.10684,0.12458 0.16404,0.18747 0.36909,0.4058 0.73739,0.80706 1.12483,1.19514 0.0541,0.0539 0.13327,0.087 0.18748,0.1406 0.31746,0.31383 0.6317,0.61234 0.9608,0.91393 0.10139,0.0928 0.20223,0.213 0.30464,0.30465 0.33295,0.29795 0.66342,0.58184 1.00767,0.86706 0.0406,0.0338 0.0763,0.0601 0.11717,0.0937 0.35591,0.29213 0.73407,0.58887 1.1014,0.86706 0.16131,0.12221 0.32866,0.23205 0.49212,0.35151 0.1125,0.0822 0.21457,0.15349 0.32808,0.23434 0.31663,0.22565 0.6365,0.46433 0.9608,0.67959 0.007,0.005 0.016,-0.005 0.0234,0 0.38149,0.25284 0.75644,0.51178 1.14828,0.7499 0.33491,0.20349 0.68894,0.39337 1.0311,0.58585 0.0885,0.0499 0.16877,0.0916 0.25777,0.1406 0.21917,0.12089 0.43407,0.25865 0.65616,0.37495 0.2985,0.15632 0.61035,0.29737 0.91393,0.44525 0.21301,0.10383 0.41728,0.20503 0.63272,0.30464 0.18919,0.0874 0.37141,0.17363 0.56242,0.25778 0.25646,0.11301 0.51368,0.22107 0.77333,0.32808 0.33613,0.13853 0.68982,0.27008 1.0311,0.39838 0.12712,0.0478 0.24715,0.0943 0.37495,0.1406 0.10085,0.0365 0.20338,0.0815 0.30464,0.11717 0.40226,0.14161 0.80968,0.2712 1.21857,0.39838 0.55051,0.17125 1.10202,0.32423 1.66383,0.46868 0.53987,0.13882 1.09083,0.26155 1.64039,0.37495 0.10038,0.0207 0.20392,0.0504 0.30464,0.0703 0.34547,0.0682 0.68211,0.12955 1.0311,0.18747 0.26365,0.0437 0.53109,0.0794 0.79676,0.11717 0.4642,0.066 0.93624,0.13981 1.40605,0.18747 0.18263,0.0185 0.35562,0.0311 0.53899,0.0469 0.1506,0.013 0.31753,0.0124 0.46868,0.0234 0.35217,0.0256 0.69959,0.055 1.05453,0.0703 0.12482,0.005 0.24973,0.0194 0.37495,0.0234 l 0,0.0234 0,10.66253 10.07668,0 0,-10.66253 0,-0.0234 c 0.49608,-0.0159 0.98569,-0.0574 1.47635,-0.0937 0.32307,-0.022 0.64713,-0.0385 0.9608,-0.0703 0.29741,-0.0302 0.59531,-0.0562 0.89049,-0.0937 0.10194,-0.0135 0.20062,-0.0555 0.30465,-0.0703 0.30865,-0.0422 0.63129,-0.0904 0.93736,-0.14061 16.6422,-2.72993 29.33954,-17.14976 29.33954,-34.56534 l 0,-23.73878 c 0,-4.45541 -3.6053,-8.08478 -8.06134,-8.08478 l -42.55639,0 -19.21599,0 z"
       style="fill:#ff0000"
       inkscape:connector-curvature="0" />
  </g>
  <sodipodi:namedview
     pagecolor="#ffffff"
     bordercolor="#666666"
     borderopacity="1"
     objecttolerance="10"
     gridtolerance="10"
     guidetolerance="10"
     inkscape:pageopacity="0"
     inkscape:pageshadow="2"
     inkscape:window-width="1440"
     inkscape:window-height="851"
     id="namedview15"
     showgrid="false"
     inkscape:zoom="0.78570671"
     inkscape:cx="858.17382"
     inkscape:cy="442.91336"
     inkscape:window-x="0"
     inkscape:window-y="1"
     inkscape:window-maximized="1"
     inkscape:current-layer="svg2" />
</svg>
