<?xml version="1.0" encoding="UTF-8" standalone="no"?>
<!--part of the matt icon theme by sixsixfive released under CC0 (https://creativecommons.org/publicdomain/zero/1.0/) on openclipart-->

<svg
   xmlns:dc="http://purl.org/dc/elements/1.1/"
   xmlns:cc="http://creativecommons.org/ns#"
   xmlns:rdf="http://www.w3.org/1999/02/22-rdf-syntax-ns#"
   xmlns:svg="http://www.w3.org/2000/svg"
   xmlns="http://www.w3.org/2000/svg"
   xmlns:xlink="http://www.w3.org/1999/xlink"
   xmlns:sodipodi="http://sodipodi.sourceforge.net/DTD/sodipodi-0.dtd"
   xmlns:inkscape="http://www.inkscape.org/namespaces/inkscape"
   viewBox="0 0 128 128"
   id="svg2"
   version="1.1"
   inkscape:version="0.91 r13725"
   width="100%"
   height="100%"
   sodipodi:docname="spreadsheet-document-icon-cleaned.svg">
  <metadata
     id="metadata79">
    <rdf:RDF>
      <cc:Work
         rdf:about="">
        <dc:format>image/svg+xml</dc:format>
        <dc:type
           rdf:resource="http://purl.org/dc/dcmitype/StillImage" />
        <dc:title />
      </cc:Work>
    </rdf:RDF>
  </metadata>
  <sodipodi:namedview
     pagecolor="#ffffff"
     bordercolor="#666666"
     borderopacity="1"
     objecttolerance="10"
     gridtolerance="10"
     guidetolerance="10"
     inkscape:pageopacity="0"
     inkscape:pageshadow="2"
     inkscape:window-width="1920"
     inkscape:window-height="1056"
     id="namedview77"
     showgrid="false"
     inkscape:zoom="3.6875"
     inkscape:cx="53.2302"
     inkscape:cy="46.041138"
     inkscape:window-x="0"
     inkscape:window-y="24"
     inkscape:window-maximized="1"
     inkscape:current-layer="svg2" />
  <defs
     id="0">
    <linearGradient
       id="8">
      <stop
         id="k"
         stop-color="#eee" />
      <stop
         offset="1"
         id="l"
         stop-color="#d2d2d2" />
    </linearGradient>
    <linearGradient
       id="9">
      <stop
         id="m" />
      <stop
         offset="1"
         id="n"
         stop-opacity="0.536" />
    </linearGradient>
    <linearGradient
       id="A">
      <stop
         id="o" />
      <stop
         offset="1"
         id="p"
         stop-color="#ddd"
         stop-opacity="0" />
    </linearGradient>
    <filter
       id="B"
       x="-0.147"
       width="1.294"
       y="-0.145"
       height="1.29">
      <feGaussianBlur
         stdDeviation="1.81881"
         id="q" />
    </filter>
    <filter
       id="C">
      <feGaussianBlur
         stdDeviation="2.58594"
         id="r" />
    </filter>
    <radialGradient
       xlink:href="#9"
       id="D"
       gradientUnits="userSpaceOnUse"
       gradientTransform="matrix(1,0,0,0.97467889,0,0.43910718)"
       cx="89.51"
       cy="22.254"
       r="18.279" />
    <linearGradient
       xlink:href="#A"
       y2="25.1"
       x2="86.82"
       y1="14.793"
       x1="98.33"
       gradientTransform="matrix(0.96714879,0,0,0.96714879,1.5886796,3.2231964)"
       gradientUnits="userSpaceOnUse"
       id="E" />
    <radialGradient
       xlink:href="#8"
       r="44.42"
       cy="100.32"
       cx="81.79"
       gradientTransform="matrix(2.0026052,-1.5970314,1.7773333,2.2286954,-278.08797,27.013826)"
       gradientUnits="userSpaceOnUse"
       id="F" />
    <linearGradient
       id="G">
      <stop
         id="s"
         stop-color="#62200c" />
      <stop
         offset="0.256"
         id="t"
         stop-color="#efce37"
         stop-opacity="0.749" />
      <stop
         offset="0.5"
         id="u"
         stop-color="#aa7663"
         stop-opacity="0.498" />
      <stop
         id="v"
         offset="1"
         stop-color="#9b9b9b"
         stop-opacity="0" />
    </linearGradient>
    <linearGradient
       id="H">
      <stop
         id="w"
         stop-color="#da7a20" />
      <stop
         id="x"
         offset="1"
         stop-color="#da7a20"
         stop-opacity="0" />
    </linearGradient>
  </defs>
  <path
     d="m 20.09375,4.1185004 0,117.9999996 88.84375,0 0,-86.15625 -0.59375,-0.625 c 0.21045,0.144391 0.41688,0.302162 0.625,0.4375 L 78.09375,4.1497504 c 0.05654,0.079597 0.09993,0.1703021 0.15625,0.25 l -0.25,-0.28125 -57.90625,0 z"
     id="1"
     transform="matrix(0.96714879,0,0,0.97126149,1.5886796,2.6954315)"
     opacity="0.809"
     filter="url(#C)" />
  <path
     d="m 21.037439,5.8526322 0,114.1235578 85.925121,0 0,-83.325913 -29.921161,-30.7976448 -56.00396,0 z"
     id="2"
     fill="url(#F)" />
  <g
     id="3"
     transform="matrix(1,0,0,1.3306886,0,-3.616907)">
    <path
       id="I"
       d="m 25.71875,10.9375 0,77.90625 74.71875,0 0,-58.90625 -2.21875,-2.28125 0,4.4375 -16,0 0,-4.875 15.59375,0 L 95.65625,25 l -13.4375,0 0,-4.875 8.6875,0 -8.9375,-9.1875 -56.25,0 z m 20.09375,9.1875 16,0 0,4.875 -16,0 0,-4.875 z m 18.09375,0 16,0 0,4.875 -16,0 0,-4.875 z m -18.09375,7.09375 16,0 0,4.875 -16,0 0,-4.875 z m 18.09375,0 16,0 0,4.875 -16,0 0,-4.875 z M 45.8125,34.125 l 16,0 0,4.875 -16,0 0,-4.875 z m 18.09375,0 16,0 0,4.875 -16,0 0,-4.875 z m 18.3125,0 16,0 0,4.875 -16,0 0,-4.875 z m -36.40625,6.8125 16,0 0,4.84375 -16,0 0,-4.84375 z m 18.09375,0 16,0 0,4.84375 -16,0 0,-4.84375 z m 18.3125,0 16,0 0,4.84375 -16,0 0,-4.84375 z m -36.40625,7.09375 16,0 0,4.875 -16,0 0,-4.875 z m 18.09375,0 16,0 0,4.875 -16,0 0,-4.875 z m 18.3125,0 16,0 0,4.875 -16,0 0,-4.875 z m -36.40625,6.6875 16,0 0,4.875 -16,0 0,-4.875 z m 18.09375,0 16,0 0,4.875 -16,0 0,-4.875 z m 18.3125,0 16,0 0,4.875 -16,0 0,-4.875 z m -36.40625,6.8125 16,0 0,4.875 -16,0 0,-4.875 z m 18.09375,0 16,0 0,4.875 -16,0 0,-4.875 z m 18.3125,0 16,0 0,4.875 -16,0 0,-4.875 z m -36.40625,6.90625 16,0 0,4.84375 -16,0 0,-4.84375 z m 18.09375,0 16,0 0,4.84375 -16,0 0,-4.84375 z m 18.3125,0 16,0 0,4.84375 -16,0 0,-4.84375 z m -36.40625,6.78125 16,0 0,4.875 -16,0 0,-4.875 z m 18.09375,0 16,0 0,4.875 -16,0 0,-4.875 z m 18.3125,0 16,0 0,4.875 -16,0 0,-4.875 z m -36.40625,6.8125 16,0 0,4.875 -16,0 0,-4.875 z m 18.09375,0 16,0 0,4.875 -16,0 0,-4.875 z m 18.3125,0 16,0 0,4.875 -16,0 0,-4.875 z"
       inkscape:connector-curvature="0"
       style="fill:#888888" />
    <path
       id="J"
       d="m 27.71875,12.9375 0,4.84375 16,0 0,-4.84375 -16,0 z"
       inkscape:connector-curvature="0"
       style="fill:#bbbbbb" />
    <path
       id="K"
       d="m 45.8125,12.9375 0,4.84375 16,0 0,-4.84375 -16,0 z"
       inkscape:connector-curvature="0"
       style="fill:#bbbbbb" />
    <path
       id="L"
       d="m 63.90625,12.9375 0,4.84375 16,0 0,-4.84375 -16,0 z"
       inkscape:connector-curvature="0"
       style="fill:#bbbbbb" />
    <path
       id="M"
       d="m 82.21875,12.9375 0,4.84375 6.40625,0 -4.6875,-4.84375 -1.71875,0 z"
       inkscape:connector-curvature="0"
       style="fill:#bbbbbb" />
    <path
       id="N"
       d="m 27.71875,20.125 0,4.875 16,0 0,-4.875 -16,0 z"
       inkscape:connector-curvature="0"
       style="fill:#bbbbbb" />
    <path
       id="O"
       d="m 27.71875,27.21875 0,4.875 16,0 0,-4.875 -16,0 z"
       inkscape:connector-curvature="0"
       style="fill:#bbbbbb" />
    <path
       id="P"
       d="m 27.71875,34.125 0,4.875 16,0 0,-4.875 -16,0 z"
       inkscape:connector-curvature="0"
       style="fill:#bbbbbb" />
    <path
       id="Q"
       d="m 27.71875,40.9375 0,4.84375 16,0 0,-4.84375 -16,0 z"
       inkscape:connector-curvature="0"
       style="fill:#bbbbbb" />
    <path
       id="R"
       d="m 27.71875,48.03125 0,4.875 16,0 0,-4.875 -16,0 z"
       inkscape:connector-curvature="0"
       style="fill:#bbbbbb" />
    <path
       id="S"
       d="m 27.71875,54.71875 0,4.875 16,0 0,-4.875 -16,0 z"
       inkscape:connector-curvature="0"
       style="fill:#bbbbbb" />
    <path
       id="T"
       d="m 27.71875,61.53125 0,4.875 16,0 0,-4.875 -16,0 z"
       inkscape:connector-curvature="0"
       style="fill:#bbbbbb" />
    <path
       id="U"
       d="m 27.71875,68.4375 0,4.84375 16,0 0,-4.84375 -16,0 z"
       inkscape:connector-curvature="0"
       style="fill:#bbbbbb" />
    <path
       id="V"
       d="m 27.71875,75.21875 0,4.875 16,0 0,-4.875 -16,0 z"
       inkscape:connector-curvature="0"
       style="fill:#bbbbbb" />
    <path
       id="W"
       d="m 27.71875,82.03125 0,4.875 16,0 0,-4.875 -16,0 z"
       inkscape:connector-curvature="0"
       style="fill:#bbbbbb" />
    <g
       id="X"
       style="fill:#323232">
      <path
         id="y"
         d="m 34.391407,24.524965 0,-0.582193 0.972179,0 0,-2.676975 -0.941538,0.587765 0,-0.615621 0.983322,-0.637906 0.740973,0 0,3.342737 0.899754,0 0,0.582193 -2.65469,0"
         inkscape:connector-curvature="0" />
    </g>
    <g
       id="Y"
       style="fill:#323232">
      <path
         id="z"
         d="m 34.345442,31.647964 0,-0.543194 c 0.08914,-0.194992 0.197778,-0.370486 0.325917,-0.526481 0.128137,-0.15785 0.261846,-0.301774 0.401128,-0.43177 0.141137,-0.131851 0.280417,-0.253489 0.417842,-0.364916 0.139279,-0.113279 0.263703,-0.221918 0.373272,-0.325917 0.111423,-0.105851 0.201491,-0.211704 0.270205,-0.31756 0.06871,-0.10585 0.103065,-0.218203 0.103067,-0.337059 -2e-6,-0.174562 -0.04364,-0.303629 -0.130923,-0.3872 -0.08729,-0.08357 -0.215423,-0.125349 -0.384415,-0.125353 -0.167138,4e-6 -0.295276,0.0455 -0.384415,0.136495 -0.08728,0.08914 -0.143924,0.223781 -0.169922,0.403914 l -0.788329,-0.04457 c 0.01857,-0.154135 0.05664,-0.298987 0.11421,-0.434556 0.05757,-0.135563 0.13928,-0.254416 0.245134,-0.356559 0.10771,-0.102135 0.241419,-0.181989 0.401129,-0.239563 0.161564,-0.05942 0.353771,-0.08913 0.576622,-0.08914 0.211705,4e-6 0.399269,0.02507 0.562694,0.07521 0.16342,0.04829 0.300843,0.119786 0.41227,0.214493 0.111422,0.09471 0.195919,0.210781 0.253491,0.348201 0.05757,0.13557 0.08635,0.290636 0.08635,0.465198 -3e-6,0.183853 -0.03622,0.350061 -0.108639,0.498625 -0.07243,0.148568 -0.165282,0.285991 -0.278561,0.412271 -0.113284,0.124425 -0.239565,0.241421 -0.378843,0.350987 -0.137426,0.109569 -0.271135,0.216351 -0.401129,0.320345 -0.129997,0.103998 -0.248849,0.208923 -0.356558,0.314775 -0.105855,0.105854 -0.184781,0.219136 -0.236778,0.339845 l 1.821792,0 0,0.643476 -2.746615,0"
         inkscape:connector-curvature="0" />
    </g>
    <g
       id="Z"
       style="fill:#323232">
      <path
         id="10"
         d="m 37.136627,37.465039 c -3e-6,0.178281 -0.02972,0.338918 -0.08914,0.481912 -0.05757,0.141138 -0.144855,0.261848 -0.261848,0.362129 -0.116998,0.100283 -0.262779,0.177351 -0.437341,0.231206 -0.172711,0.052 -0.374203,0.078 -0.604479,0.078 -0.256277,0 -0.472627,-0.0325 -0.649048,-0.0975 -0.174566,-0.065 -0.318489,-0.150423 -0.43177,-0.256276 C 34.551576,38.1568 34.467079,38.035161 34.40951,37.899594 34.3538,37.764028 34.31758,37.626605 34.300871,37.487323 l 0.796686,-0.06964 c 0.01114,0.08357 0.03157,0.160638 0.06128,0.231206 0.03157,0.06871 0.07335,0.128139 0.125353,0.178279 0.052,0.05014 0.115138,0.08914 0.189422,0.116996 0.07614,0.026 0.165278,0.039 0.267419,0.039 0.187563,0 0.333343,-0.04643 0.437341,-0.139281 0.103994,-0.09285 0.155992,-0.234919 0.155994,-0.426199 -2e-6,-0.116994 -0.02507,-0.210777 -0.07521,-0.281347 -0.04829,-0.07057 -0.110498,-0.124422 -0.186636,-0.161566 -0.07428,-0.039 -0.155068,-0.065 -0.242349,-0.078 -0.08728,-0.013 -0.169924,-0.0195 -0.247919,-0.0195 l -0.27299,0 0,-0.632334 0.256276,0 c 0.078,2e-6 0.156921,-0.0074 0.236777,-0.02228 0.08171,-0.01485 0.155064,-0.04178 0.220064,-0.08078 0.06499,-0.039 0.117922,-0.09285 0.15878,-0.161566 0.04085,-0.07057 0.06128,-0.159705 0.06128,-0.267419 -2e-6,-0.161562 -0.0455,-0.287843 -0.136495,-0.378843 -0.08914,-0.09285 -0.220065,-0.139277 -0.392771,-0.139281 -0.161567,4e-6 -0.292491,0.04457 -0.392772,0.13371 -0.09843,0.08914 -0.155067,0.215424 -0.169922,0.378843 l -0.782758,-0.05571 c 0.02228,-0.183847 0.07243,-0.343556 0.150423,-0.479126 0.07985,-0.135563 0.179208,-0.247916 0.298061,-0.337059 0.120709,-0.08914 0.259061,-0.155062 0.415056,-0.197778 0.155994,-0.04457 0.321273,-0.06685 0.49584,-0.06685 0.230275,4e-6 0.428054,0.02786 0.593335,0.08357 0.165278,0.05572 0.300844,0.130928 0.4067,0.225635 0.105851,0.09471 0.183848,0.20521 0.233992,0.331488 0.05014,0.126284 0.07521,0.260922 0.07521,0.403914 -3e-6,0.115141 -0.01672,0.222852 -0.05014,0.323131 -0.03343,0.09843 -0.0845,0.187567 -0.153209,0.267419 -0.06686,0.078 -0.153211,0.145783 -0.259062,0.20335 -0.105855,0.05571 -0.231208,0.0975 -0.376058,0.125353 l 0,0.01114 c 0.161564,0.01857 0.301773,0.05571 0.420628,0.111425 0.11885,0.05386 0.216347,0.12164 0.29249,0.203349 0.07614,0.08171 0.132778,0.174567 0.169922,0.278562 0.03714,0.10214 0.05571,0.210779 0.05571,0.325916"
         inkscape:connector-curvature="0" />
    </g>
    <g
       id="a"
       style="fill:#323232">
      <path
         id="11"
         d="m 36.722965,44.551618 0,0.799471 -0.746544,0 0,-0.799471 -1.785579,0 0,-0.587764 1.657441,-2.537694 0.874682,0 0,2.543265 0.523696,0 0,0.582193 -0.523696,0 m -0.746544,-1.866361 c -2e-6,-0.03157 -2e-6,-0.07242 0,-0.122567 0.0019,-0.052 0.0037,-0.104922 0.0056,-0.15878 0.0037,-0.05385 0.0065,-0.104922 0.0084,-0.153209 0.0037,-0.05014 0.0074,-0.08914 0.01114,-0.116995 -0.0093,0.02043 -0.02414,0.05014 -0.04457,0.08914 -0.02043,0.03715 -0.04364,0.078 -0.06964,0.122567 -0.02414,0.04272 -0.05014,0.08543 -0.078,0.128138 -0.026,0.04272 -0.04921,0.07986 -0.06964,0.111425 l -0.910896,1.38445 1.147673,0 0,-1.284168"
         inkscape:connector-curvature="0" />
    </g>
    <g
       id="b"
       style="fill:#323232">
      <path
         id="12"
         d="m 37.138019,51.154012 c -3e-6,0.196851 -0.03157,0.378844 -0.09471,0.54598 -0.06129,0.16528 -0.153212,0.309203 -0.275776,0.43177 -0.12257,0.12071 -0.27485,0.215421 -0.456841,0.284133 -0.180138,0.06685 -0.389059,0.100282 -0.626763,0.100282 -0.219136,0 -0.410415,-0.026 -0.573836,-0.078 -0.163424,-0.05386 -0.301776,-0.12721 -0.415057,-0.220064 -0.111425,-0.09471 -0.199636,-0.205206 -0.264633,-0.331488 -0.06314,-0.12628 -0.106782,-0.261847 -0.130924,-0.4067 l 0.782757,-0.06407 c 0.01486,0.06129 0.03528,0.120711 0.06128,0.17828 0.02785,0.05757 0.06593,0.108639 0.11421,0.153208 0.04828,0.04457 0.107709,0.08078 0.178279,0.108639 0.07057,0.026 0.155993,0.039 0.256277,0.039 0.194991,0 0.350057,-0.06221 0.465197,-0.186636 0.116994,-0.124423 0.175492,-0.303631 0.175494,-0.537624 -2e-6,-0.103995 -0.01486,-0.197777 -0.04457,-0.281347 -0.02786,-0.08357 -0.06871,-0.155064 -0.122567,-0.214492 -0.052,-0.05942 -0.116998,-0.104923 -0.194993,-0.136495 -0.07614,-0.03157 -0.163424,-0.04735 -0.261847,-0.04735 -0.129997,2e-6 -0.236779,0.02507 -0.320346,0.07521 -0.08357,0.04829 -0.154138,0.107712 -0.211707,0.178279 l -0.763258,0 0.136495,-2.208991 2.359415,0 0,0.582193 -1.649083,0 -0.06407,0.991678 c 0.078,-0.06871 0.176421,-0.127207 0.295275,-0.175493 0.118851,-0.05014 0.257203,-0.07521 0.415056,-0.07521 0.193134,3e-6 0.365842,0.03157 0.518124,0.09471 0.152278,0.06314 0.281345,0.151354 0.387201,0.264633 0.10585,0.113284 0.186633,0.249779 0.242348,0.409486 0.05571,0.157853 0.08357,0.333346 0.08357,0.526481"
         inkscape:connector-curvature="0" />
    </g>
    <g
       id="c"
       style="fill:#323232">
      <path
         id="13"
         d="m 37.09763,57.863797 c -3e-6,0.196851 -0.02786,0.377915 -0.08357,0.543194 -0.05571,0.163423 -0.139283,0.304561 -0.250705,0.423414 -0.10957,0.116995 -0.246994,0.208921 -0.412271,0.275775 -0.165282,0.065 -0.35656,0.0975 -0.573836,0.0975 -0.462413,0 -0.818043,-0.161566 -1.06689,-0.484697 -0.246992,-0.324988 -0.370487,-0.80597 -0.370487,-1.442948 0,-0.700115 0.125352,-1.226595 0.376058,-1.579443 0.252561,-0.354698 0.612834,-0.532048 1.080818,-0.532052 0.155993,4e-6 0.298059,0.01672 0.426199,0.05014 0.128136,0.03157 0.242346,0.08357 0.34263,0.155994 0.10028,0.07243 0.185705,0.166212 0.256277,0.281347 0.07057,0.113285 0.127207,0.251637 0.169922,0.415057 l -0.738187,0.103067 c -0.03714,-0.13742 -0.0975,-0.235845 -0.181065,-0.295275 -0.08357,-0.06128 -0.181067,-0.09192 -0.29249,-0.09192 -0.209851,3e-6 -0.37513,0.104928 -0.495839,0.314774 -0.118854,0.209853 -0.17828,0.528341 -0.178279,0.955466 0.08357,-0.139279 0.199634,-0.24606 0.348201,-0.320346 0.148565,-0.07428 0.31663,-0.111422 0.504197,-0.111424 0.172706,2e-6 0.3287,0.02879 0.467983,0.08635 0.141135,0.05571 0.260916,0.137426 0.359344,0.245134 0.100279,0.105855 0.177348,0.23585 0.231206,0.389986 0.05385,0.154139 0.08078,0.327775 0.08078,0.52091 m -0.785543,0.02228 c -3e-6,-0.105852 -0.01207,-0.200562 -0.03621,-0.284132 -0.02415,-0.08542 -0.06129,-0.15785 -0.111425,-0.217278 -0.04829,-0.05942 -0.108641,-0.104923 -0.181065,-0.136495 -0.07243,-0.03343 -0.155996,-0.05014 -0.250705,-0.05014 -0.06871,2e-6 -0.137425,0.01114 -0.206136,0.03343 -0.06871,0.02229 -0.129996,0.0585 -0.18385,0.108639 -0.05386,0.04829 -0.0975,0.110498 -0.130924,0.186636 -0.03343,0.07614 -0.05014,0.168067 -0.05014,0.275776 -10e-7,0.111426 0.01393,0.215422 0.04178,0.311989 0.02786,0.09657 0.06685,0.181066 0.116996,0.253491 0.052,0.07057 0.114209,0.126281 0.186636,0.167136 0.07243,0.039 0.154136,0.0585 0.245134,0.0585 0.176421,10e-7 0.313844,-0.06221 0.412271,-0.186636 0.09842,-0.12628 0.147635,-0.299916 0.147638,-0.52091"
         inkscape:connector-curvature="0" />
    </g>
    <g
       id="d"
       style="fill:#323232">
      <path
         id="14"
         d="m 37.057237,62.656727 c -0.176425,0.278564 -0.343562,0.548768 -0.501411,0.810613 -0.155996,0.26185 -0.292491,0.525555 -0.409485,0.791114 -0.116998,0.263707 -0.209851,0.535768 -0.278561,0.816185 -0.06686,0.278562 -0.100284,0.573837 -0.100282,0.885825 l -0.816185,0 c -10e-7,-0.310131 0.03621,-0.604477 0.108639,-0.883039 0.07428,-0.280417 0.174564,-0.553407 0.300846,-0.818971 0.12628,-0.265559 0.272989,-0.527407 0.440127,-0.785543 0.167135,-0.259987 0.343557,-0.524621 0.529267,-0.7939 l -1.94993,0 0,-0.643476 2.676975,0 0,0.621192"
         inkscape:connector-curvature="0" />
    </g>
    <g
       id="e"
       style="fill:#323232">
      <path
         id="15"
         d="m 37.126879,71.745201 c -3e-6,0.168995 -0.02786,0.324989 -0.08357,0.467983 -0.05572,0.141138 -0.141141,0.263705 -0.256277,0.367701 -0.115141,0.102139 -0.260921,0.181993 -0.437341,0.239563 -0.176425,0.05757 -0.386274,0.08635 -0.629549,0.08635 -0.241421,0 -0.451271,-0.02878 -0.629549,-0.08635 -0.176423,-0.05757 -0.323132,-0.137424 -0.440127,-0.239563 -0.115139,-0.103996 -0.200564,-0.226563 -0.256276,-0.367701 -0.05571,-0.141137 -0.08357,-0.295274 -0.08357,-0.462412 0,-0.142994 0.02229,-0.269275 0.06686,-0.378843 0.04457,-0.111423 0.103996,-0.207063 0.178279,-0.286919 0.07428,-0.07985 0.159708,-0.142993 0.256277,-0.189421 0.09657,-0.04828 0.195921,-0.08078 0.298061,-0.0975 l 0,-0.01114 c -0.109569,-0.02414 -0.207994,-0.06407 -0.295275,-0.119782 -0.08728,-0.05571 -0.161567,-0.122564 -0.22285,-0.200564 -0.06128,-0.078 -0.108639,-0.164349 -0.142066,-0.259062 -0.03157,-0.09656 -0.04736,-0.196847 -0.04735,-0.300846 -10e-7,-0.155992 0.02786,-0.298058 0.08357,-0.426199 0.05757,-0.128135 0.141137,-0.237702 0.250705,-0.328703 0.109567,-0.09099 0.245134,-0.160633 0.4067,-0.208921 0.163421,-0.05014 0.351914,-0.07521 0.56548,-0.07521 0.228418,4e-6 0.425268,0.026 0.59055,0.078 0.167134,0.05015 0.304558,0.121642 0.412271,0.214492 0.107707,0.091 0.187561,0.200568 0.239562,0.328703 0.052,0.128141 0.078,0.269279 0.078,0.423413 -2e-6,0.102142 -0.01672,0.201495 -0.05014,0.298061 -0.03157,0.09471 -0.078,0.181067 -0.13928,0.259062 -0.06129,0.078 -0.136498,0.143925 -0.225635,0.197778 -0.08729,0.05386 -0.186638,0.09193 -0.298061,0.11421 l 0,0.01114 c 0.115137,0.01857 0.221919,0.05293 0.320346,0.103068 0.100279,0.04828 0.186633,0.112355 0.259062,0.192207 0.07242,0.078 0.129064,0.17271 0.169922,0.284133 0.04085,0.109568 0.06128,0.233992 0.06128,0.373272 m -0.902539,-1.79115 c -2e-6,-0.07799 -0.0084,-0.149491 -0.02507,-0.214492 -0.01672,-0.06685 -0.04457,-0.123492 -0.08357,-0.169923 -0.039,-0.04828 -0.09193,-0.08542 -0.15878,-0.111424 -0.065,-0.02785 -0.147639,-0.04178 -0.247919,-0.04178 -0.09657,3e-6 -0.177353,0.01393 -0.242349,0.04178 -0.065,0.026 -0.116997,0.06314 -0.155994,0.111424 -0.039,0.04643 -0.06686,0.103071 -0.08357,0.169923 -0.01671,0.065 -0.02507,0.136498 -0.02507,0.214492 -1e-6,0.06871 0.0065,0.136498 0.0195,0.20335 0.01486,0.06686 0.04086,0.127212 0.078,0.181065 0.03714,0.052 0.08914,0.09471 0.155995,0.128138 0.06685,0.03343 0.153207,0.05014 0.259062,0.05014 0.111423,2e-6 0.200562,-0.01671 0.267419,-0.05014 0.06871,-0.03343 0.120708,-0.07707 0.155994,-0.130924 0.03528,-0.05385 0.0585,-0.114207 0.06964,-0.181065 0.01114,-0.06685 0.01671,-0.133706 0.01671,-0.200564 m 0.09193,1.727081 c -2e-6,-0.07985 -0.0093,-0.156922 -0.02786,-0.231206 -0.01672,-0.07428 -0.04829,-0.139279 -0.09471,-0.194993 -0.04457,-0.05757 -0.106783,-0.103066 -0.186636,-0.136495 -0.07986,-0.03528 -0.181066,-0.05293 -0.303632,-0.05293 -0.111426,2e-6 -0.205208,0.01764 -0.281347,0.05293 -0.07428,0.03343 -0.134639,0.07893 -0.181065,0.136495 -0.04457,0.05757 -0.07707,0.124425 -0.0975,0.200564 -0.01857,0.07428 -0.02786,0.15321 -0.02786,0.236777 -1e-6,0.09843 0.0093,0.188494 0.02786,0.270205 0.02043,0.08171 0.05385,0.152281 0.100282,0.211706 0.04828,0.05757 0.111423,0.10214 0.189422,0.13371 0.078,0.03157 0.175492,0.04736 0.292489,0.04735 0.116994,10e-7 0.213562,-0.01578 0.289704,-0.04735 0.07614,-0.03343 0.136493,-0.07985 0.181065,-0.139281 0.04457,-0.05943 0.07521,-0.129994 0.09193,-0.211707 0.01857,-0.08357 0.02785,-0.175492 0.02786,-0.275775"
         inkscape:connector-curvature="0" />
    </g>
    <g
       id="f"
       style="fill:#323232">
      <path
         id="16"
         d="m 37.100413,77.622823 c -3e-6,0.696405 -0.127213,1.217314 -0.38163,1.56273 -0.254421,0.345416 -0.615622,0.518124 -1.083603,0.518124 -0.168996,0 -0.321276,-0.01764 -0.456841,-0.05293 -0.13371,-0.03528 -0.250706,-0.09007 -0.350987,-0.164351 -0.100283,-0.07428 -0.185708,-0.169922 -0.256277,-0.286918 -0.06871,-0.116996 -0.123496,-0.256276 -0.164351,-0.417842 l 0.735402,-0.103068 c 0.03714,0.139281 0.0975,0.242349 0.181065,0.309203 0.08542,0.06686 0.192206,0.100283 0.320346,0.100282 0.105851,10e-7 0.200562,-0.02507 0.284132,-0.07521 0.08357,-0.05014 0.155064,-0.126281 0.214492,-0.228421 0.05942,-0.102138 0.104923,-0.231205 0.136495,-0.3872 0.03343,-0.15785 0.05107,-0.343558 0.05293,-0.557123 -0.03714,0.07243 -0.08636,0.136497 -0.147637,0.192207 -0.06129,0.05571 -0.130926,0.102141 -0.208921,0.139281 -0.07614,0.03714 -0.157854,0.06593 -0.245134,0.08635 -0.08728,0.01857 -0.175496,0.02786 -0.264634,0.02786 -0.170852,2e-6 -0.325918,-0.02971 -0.465197,-0.08914 -0.139282,-0.06128 -0.258134,-0.148565 -0.356559,-0.261848 -0.09842,-0.11328 -0.174565,-0.249775 -0.22842,-0.409485 -0.052,-0.161564 -0.078,-0.343557 -0.078,-0.545981 -10e-7,-0.207989 0.03064,-0.393697 0.09193,-0.557122 0.06314,-0.16342 0.153208,-0.300843 0.270204,-0.412271 0.116996,-0.113278 0.25999,-0.198703 0.428985,-0.256277 0.17085,-0.05942 0.363986,-0.08913 0.579408,-0.08914 0.226561,4e-6 0.426197,0.039 0.598907,0.116996 0.174562,0.07614 0.320343,0.194996 0.437341,0.356558 0.116993,0.159712 0.205204,0.363062 0.264633,0.61005 0.06128,0.245136 0.09192,0.536697 0.09193,0.874682 m -0.827328,-0.548766 c -2e-6,-0.111422 -0.013,-0.215418 -0.039,-0.311988 -0.02414,-0.09842 -0.06129,-0.182919 -0.111425,-0.253491 -0.05014,-0.07242 -0.111426,-0.129064 -0.18385,-0.169923 -0.07243,-0.04085 -0.155996,-0.06128 -0.250706,-0.06128 -0.08728,3e-6 -0.165281,0.01672 -0.233991,0.05014 -0.06871,0.03157 -0.127211,0.078 -0.175494,0.139281 -0.04828,0.06129 -0.08543,0.135569 -0.111424,0.222849 -0.02414,0.08728 -0.03621,0.18571 -0.03621,0.295275 -1e-6,0.102141 0.01207,0.197781 0.03621,0.286918 0.02414,0.08729 0.05942,0.163425 0.105853,0.22842 0.04643,0.06314 0.104923,0.113284 0.175494,0.150423 0.07057,0.03529 0.15135,0.05293 0.242348,0.05293 0.07242,2e-6 0.142993,-0.013 0.211707,-0.039 0.07057,-0.026 0.132779,-0.065 0.186636,-0.116995 0.05571,-0.052 0.10028,-0.116994 0.133709,-0.194993 0.03343,-0.07985 0.05014,-0.172706 0.05014,-0.278562"
         inkscape:connector-curvature="0" />
    </g>
    <g
       id="g"
       style="fill:#323232">
      <path
         id="17"
         d="m 32.841213,86.460464 0,-0.582193 0.972179,0 0,-2.676975 -0.941537,0.587765 0,-0.615621 0.983321,-0.637905 0.740974,0 0,3.342736 0.899753,0 0,0.582193 -2.65469,0"
         inkscape:connector-curvature="0" />
      <path
         id="18"
         d="m 38.596291,84.496607 c -3e-6,0.375131 -0.03436,0.691762 -0.103068,0.949894 -0.06871,0.256277 -0.164354,0.46427 -0.286918,0.623978 -0.120712,0.157851 -0.264636,0.272061 -0.43177,0.34263 -0.165282,0.06871 -0.346347,0.103068 -0.543195,0.103068 -0.196851,0 -0.377916,-0.03436 -0.543195,-0.103068 -0.16528,-0.06871 -0.307346,-0.181993 -0.426198,-0.339845 -0.118854,-0.159708 -0.211708,-0.3677 -0.278562,-0.623977 -0.06685,-0.258133 -0.100282,-0.575692 -0.100282,-0.95268 0,-0.395555 0.0325,-0.7224 0.0975,-0.980536 0.06685,-0.259988 0.160636,-0.467051 0.281347,-0.621192 0.120709,-0.154134 0.264632,-0.261844 0.43177,-0.323131 0.168992,-0.06314 0.355628,-0.09471 0.559908,-0.09471 0.191277,4e-6 0.368628,0.03157 0.532052,0.09471 0.165278,0.06129 0.307344,0.168997 0.426199,0.323131 0.120707,0.154141 0.21449,0.361204 0.281347,0.621192 0.06871,0.258136 0.103065,0.584981 0.103068,0.980536 m -0.785543,0 c -2e-6,-0.276702 -0.01022,-0.505122 -0.03064,-0.685261 -0.02043,-0.181991 -0.05293,-0.325914 -0.0975,-0.43177 -0.04457,-0.107708 -0.10307,-0.182919 -0.175494,-0.225635 -0.07057,-0.04271 -0.156925,-0.06407 -0.259062,-0.06407 -0.109569,3e-6 -0.201494,0.02229 -0.275776,0.06686 -0.07428,0.04272 -0.134639,0.117927 -0.181065,0.225634 -0.04457,0.107714 -0.07707,0.252565 -0.0975,0.434556 -0.01857,0.180139 -0.02786,0.406702 -0.02786,0.67969 -2e-6,0.269277 0.01021,0.493983 0.03064,0.674118 0.02043,0.180138 0.05293,0.32499 0.0975,0.434556 0.04457,0.107711 0.103066,0.183851 0.175493,0.22842 0.07242,0.04457 0.161565,0.06686 0.267419,0.06685 0.102138,10e-7 0.18942,-0.02228 0.261848,-0.06685 0.07242,-0.04457 0.13185,-0.120709 0.178279,-0.22842 0.04642,-0.109566 0.07985,-0.254418 0.100282,-0.434556 0.02228,-0.180135 0.03343,-0.404841 0.03343,-0.674118"
         inkscape:connector-curvature="0" />
    </g>
    <g
       id="h"
       style="fill:#323232">
      <path
         id="19"
         d="m 55.281913,17.32184 -0.348202,-1.002821 -1.495874,0 -0.348202,1.002821 -0.821756,0 1.431805,-3.92493 0.969394,0 1.426234,3.92493 -0.813399,0 m -0.919253,-2.7494 c -0.02229,-0.06499 -0.04457,-0.129993 -0.06685,-0.194993 -0.02043,-0.06685 -0.039,-0.127207 -0.05571,-0.181065 -0.01486,-0.05571 -0.02786,-0.101208 -0.039,-0.136495 -0.0093,-0.03528 -0.01486,-0.05478 -0.01671,-0.0585 -0.0019,0.0056 -0.0074,0.026 -0.01671,0.06128 -0.0093,0.03529 -0.02229,0.07986 -0.039,0.13371 -0.01486,0.05386 -0.03343,0.114213 -0.05571,0.181065 -0.02043,0.065 -0.04179,0.129998 -0.06407,0.194993 l -0.3872,1.128173 1.128174,0 -0.387201,-1.128173"
         inkscape:connector-curvature="0" />
    </g>
    <g
       id="i"
       style="fill:#323232">
      <path
         id="1A"
         d="m 73.645864,16.202024 c -4e-6,0.198708 -0.03993,0.369558 -0.119781,0.512552 -0.07986,0.141139 -0.189425,0.257206 -0.328702,0.348202 -0.137427,0.08914 -0.298064,0.155066 -0.481912,0.197779 -0.183853,0.04086 -0.378846,0.06128 -0.584979,0.06128 l -1.963857,0 0,-3.92493 1.796721,0 c 0.232132,4e-6 0.438267,0.02043 0.618406,0.06128 0.18199,0.039 0.335199,0.09936 0.459626,0.181065 0.124421,0.08172 0.218203,0.184782 0.281347,0.309203 0.06499,0.12257 0.09749,0.267422 0.0975,0.434556 -4e-6,0.222852 -0.06222,0.411345 -0.186637,0.565479 -0.12257,0.152283 -0.310134,0.25535 -0.562693,0.309203 0.317556,0.03714 0.558976,0.137426 0.724259,0.300847 0.167133,0.161567 0.250701,0.376059 0.250705,0.643477 m -1.052962,-1.707582 c -2e-6,-0.176419 -0.05664,-0.301771 -0.169922,-0.376058 -0.111427,-0.07428 -0.277635,-0.111421 -0.498625,-0.111424 l -0.935966,0 0,0.972179 0.941537,0 c 0.232132,2e-6 0.400198,-0.03993 0.504196,-0.119781 0.105851,-0.08171 0.158778,-0.203347 0.15878,-0.364916 m 0.228421,1.643512 c -3e-6,-0.103995 -0.02043,-0.191277 -0.06128,-0.261847 -0.04086,-0.07057 -0.0975,-0.127208 -0.169922,-0.169923 -0.07057,-0.04271 -0.15414,-0.07335 -0.250706,-0.09192 -0.09471,-0.01857 -0.19778,-0.02785 -0.309203,-0.02786 l -1.041819,0 0,1.125388 1.072461,0 c 0.107708,0 0.20799,-0.0084 0.300846,-0.02507 0.09285,-0.01857 0.172706,-0.04921 0.239563,-0.09192 0.06871,-0.04457 0.122564,-0.103995 0.161566,-0.178279 0.03899,-0.07428 0.05849,-0.167136 0.0585,-0.278562"
         inkscape:connector-curvature="0" />
    </g>
  </g>
  <path
     id="4"
     d="m 81.698039,28.309502 0.135161,-8.351 C 81.901124,13.359407 80.956142,8.4107397 77.785779,3.9471419 L 80.362343,3.9159389 107.86271,29.53084 c -4.06802,-2.645393 -9.621189,-0.791242 -16.861906,-1.025606 l -9.302765,-0.195732 z"
     transform="matrix(1.016085,0,0,1.112241,-3.7922382,2.9647584)"
     opacity="0.505"
     fill="url(#D)"
     filter="url(#B)" />
  <path
     d="m 82.748319,29.121681 0.130721,-8.07666 c 0.06569,-6.382306 -2.691577,-10.83607 -5.75779,-15.1530328 l 29.86674,30.5881668 c -3.93438,-2.558489 -8.23966,-6.942507 -15.242513,-7.169171 l -8.997158,-0.189303 z"
     id="5"
     fill="#eee" />
  <path
     id="6"
     d="m 82.748319,29.121681 0.130721,-8.07666 c 0.06569,-6.382306 -2.691577,-10.83607 -5.75779,-15.1530328 l 29.86674,30.5881668 c -3.93438,-2.558489 -8.23966,-6.942507 -15.242513,-7.169171 l -8.997158,-0.189303 z"
     fill="url(#E)" />
</svg>
