<?xml version="1.0" encoding="UTF-8" standalone="no"?>
<svg id="svg4137" xmlns:rdf="http://www.w3.org/1999/02/22-rdf-syntax-ns#" xmlns="http://www.w3.org/2000/svg" height="1888.6" viewBox="0 0 3346.565 1888.5843" width="3346.6" version="1.1" xmlns:cc="http://creativecommons.org/ns#" xmlns:xlink="http://www.w3.org/1999/xlink" xmlns:dc="http://purl.org/dc/elements/1.1/">
<defs id="defs4141">
<filter id="filter6669" style="color-interpolation-filters:sRGB" height="1.0336" width="1.0187" y="-.016787" x="-.0093372">
<feGaussianBlur id="feGaussianBlur6671" stdDeviation="12.781126"/>
</filter>
</defs>
<g id="g4230">
<path id="path6667" d="m168.39 30.675-33.106 0.26367-33.106 0.26172-0.625 7.5c-2.7451 32.939-31.559 62.331-66.195 67.525l-4.6797 0.70313v47.271 47.27l5.3047 0.66406c87.639 10.95 86.353 135.92-1.5547 151.01l-3.75 0.64453v40.26 40.26l7.25 1.2246c32.588 5.5036 52.666 26.888 60.043 51.945h1.6211c7.5354 37.886-12.641 81.409-60.779 91.064l-8.1348 1.6309v36.154 36.154l7.125 1.2226c84.85 14.55 84.231 135.48-0.7695 150.28l-6.3555 1.1074v36.396 36.396h2.3106c14.445 0 39.573 13.657 51.363 27.916 37.423 45.258 11.534 112.93-47.107 123.15l-6.5664 1.1445v40.172 40.172l8.75 1.791c64.937 13.295 84.777 94.403 32.811 134.14-10.728 8.2025-30.73 16.522-39.721 16.522-1.7487 0-1.8399 1.6026-1.8399 32.275v32.275l8.3516 1.7187c73.667 15.164 86.001 111.24 18.393 143.27-6.8649 3.2523-20.917 7.4629-24.904 7.4629-1.7563 0-1.8399 1.8372-1.8399 40.387v40.387l4.6797 0.7032c87.501 13.122 87.501 137.93 0 151.05l-4.6797 0.7031v32.137 32.135l10.25 0.1777c41.71 0.7219 77.649 34.737 77.734 73.572l0.0156 6.75h33.031c25.576 0 33.108-0.2821 33.373-1.25 0.1881-0.6875 0.8826-4.175 1.543-7.75 14.816-80.196 140.34-79.771 155.91 0.5274l1.6426 8.4667h37.205 37.203l0.6446-3.75c9.1379-53.208 65.77-81.661 114.95-57.75 23.808 11.576 36.816 29.364 42.963 58.75l0.5742 2.75h32.936 32.936l0.5957-3.75c13.59-85.611 141.56-87.912 157.7-2.8359l1.2481 6.5859h37.17 37.17l1.1485-6.6015c14.518-83.37 147.04-82.65 156.65 0.8515l0.6621 5.75h41.768 41.77l1.1719-6.75c14.481-83.357 144.77-82.633 156.79 0.8711l0.7735 5.3789 37.514 0.2618 37.512 0.2617 1.0761-6.8281c8.3364-52.942 76.344-80.993 122.17-50.393 19.714 13.163 35.197 37.11 35.197 54.438v2.7812l41.693-0.2597 41.695-0.2618 1.3672-7.5c9.4559-51.829 73.815-78.703 120.53-50.328 19.182 11.652 36.719 38.186 36.719 55.559v2.7695h37.455 37.455l0.6152-3.75c14.565-88.653 141.13-87.852 157.99 1l0.5215 2.75h41.438 41.434l0.6172-3.75c14.652-89.183 140.61-87.988 158.07 1.5l0.4375 2.25h41.463 41.463l0.5195-2.75c7.753-40.865 38.755-67.25 79.018-67.25 40.3 0 71.257 26.347 79.016 67.25l0.5215 2.75h41.463 41.463l0.5195-2.75c16.866-88.901 143.42-89.702 157.99-1l0.6153 3.75h37.205 37.205l1.6426-8.4667c15.548-80.17 141.31-80.595 155.92-0.5274 0.652 3.575 1.3413 7.0625 1.5293 7.75 0.265 0.9678 7.7881 1.25 33.328 1.25h32.984l0.6172-3.75c14.221-86.557 140.47-88.16 157.48-2l1.1367 5.75h36.785 36.785l0.6836-8.25c3.006-36.224 27.718-62.938 65.854-71.191l2.75-0.5957v-32.463-32.461l-2.75-0.5957c-40.097-8.6786-65.588-38-65.588-75.443 0-37.472 25.461-66.756 65.588-75.441l2.75-0.5957v-40.512c0-31.573-0.276-40.583-1.25-40.832-0.688-0.1758-4.4-1.0713-8.25-1.9882-77.675-18.498-77.295-130.95 0.5-147.62 3.025-0.6483 6.287-1.3962 7.25-1.6602 2.265-0.6214 2.756-65.15 0.5-65.727-0.688-0.1758-4.4-1.0713-8.25-1.9882-81.91-19.507-76.863-130.98 6.75-149.07l2.75-0.5957v-40.512c0-31.547-0.277-40.595-1.25-40.881-0.688-0.202-4.4-1.082-8.25-1.957-72.239-16.419-79.512-116.12-10.5-143.92 5.883-2.3703 8.377-3.1091 17.25-5.1075l2.75-0.6191v-36.512c0-28.347-0.28-36.596-1.25-36.881-0.688-0.202-4.4-1.0941-8.25-1.9824-79.578-18.36-76.705-132.17 3.75-148.56l5.75-1.1719v-36.461c0-28.306-0.28-36.543-1.25-36.828-0.688-0.202-4.3743-1.0912-8.1933-1.9765-44.63-10.345-63.242-52.943-56.359-90.004h1.3242c7.5004-24.307 27.131-45.231 58.728-51.738l5.75-1.1836v-40.701-40.701l-6.5039-1.2344c-81.999-15.555-81.409-132.26 0.7539-149.18l5.75-1.1836-0.01-47.18-0.01-47.18-8.7363-0.2168h-0.01c-39.588-0.9945-76.234-35.338-76.234-71.443v-4.8398h-41.5-41.5v3.543c0 92.315-150.89 95.886-158.68 3.7559l-0.6153-7.2988h-32.674-32.674l-1.1758 8.832c-11.773 88.423-143.65 89.722-157.99 1.5566l-1.6895-10.385h-36.75-36.75v3.543c0 92.358-150.89 95.929-158.68 3.7558l-0.6153-7.2988h-41.354-41.354v3.543c0 32.139-28.277 63.994-63.5 71.533-45.882 9.8209-95.5-27.203-95.5-71.26v-3.8164h-41.363-41.361l-0.6836 6.75c-9.2343 91.163-150.57 91.653-158.27 0.54882l-0.6153-7.2988h-41.207-41.207l-0.625 7.3848c-7.6273 90.231-150.71 90.223-158.34-0.01l-0.6231-7.375h-36.728-36.728l-0.625 3.125c-0.3437 1.7188-0.625 4.3355-0.625 5.8164 0 15.126-14.074 39.423-29.463 50.863-49.549 36.836-120.77 8.7422-128.69-50.766l-1.2051-9.0391h-40.703-40.703l-0.6015 2.25c-0.3317 1.2375-0.6097 3.7957-0.6172 5.6855-0.064 16.181-13.528 39.8-29.508 51.768-50.063 37.492-122.91 7.6125-129.09-52.953l-0.6894-6.75h-36.682-36.682l-1.1758 8.8301c-11.916 89.495-150.57 88.547-157.85-1.0801l-0.6289-7.75h-41.213-41.215l-0.6484 6.3301c-9.4334 92.073-158.63 90.764-158.63-1.3945v-4.9394h-37.5-37.5v5.3398c0 91.384-150.07 92.718-158.65 1.4102l-0.6348-6.75h-32.711-32.709l-0.6172 7.25c-8.17 91.024-159.08 88.464-159.08-2.953v-4.5527h-32.791-32.789l-1.6328 10.299c-14.023 88.403-151.44 86.17-157.54-2.5606l-0.5351-7.7637z" filter="url(#filter6669)"/>
<path id="path4687" d="m162.39 24.675-33.106 0.26367-33.105 0.26172-0.625 7.5c-2.7451 32.939-31.56 62.331-66.195 67.525l-4.6797 0.70313v47.271 47.27l5.3047 0.66406c87.639 10.95 86.353 135.92-1.5547 151.01l-3.75 0.64453v40.26 40.26l7.25 1.2246c32.588 5.5036 52.666 26.888 60.043 51.945h1.6211c7.5354 37.886-12.641 81.409-60.779 91.064l-8.1348 1.6309v36.154 36.154l7.125 1.2226c84.85 14.55 84.231 135.48-0.7695 150.28l-6.3555 1.1074v36.396 36.396h2.3106c14.445 0 39.573 13.657 51.363 27.916 37.423 45.258 11.534 112.93-47.107 123.15l-6.5664 1.1445v40.172 40.172l8.75 1.791c64.937 13.295 84.777 94.403 32.811 134.14-10.728 8.2025-30.73 16.522-39.721 16.522-1.7487 0-1.8399 1.6026-1.8399 32.275v32.275l8.3516 1.7187c73.667 15.164 86.001 111.24 18.393 143.27-6.8649 3.2523-20.917 7.4629-24.904 7.4629-1.7563 0-1.8399 1.8372-1.8399 40.387v40.387l4.6797 0.7032c87.501 13.122 87.501 137.93 0 151.05l-4.6797 0.7031v32.137 32.135l10.25 0.1777c41.71 0.7219 77.649 34.737 77.734 73.572l0.0156 6.75h33.031c25.576 0 33.108-0.2821 33.373-1.25 0.1881-0.6875 0.8826-4.175 1.543-7.75 14.816-80.196 140.34-79.771 155.91 0.5274l1.6426 8.4667h37.205 37.203l0.6446-3.75c9.1379-53.208 65.77-81.661 114.95-57.75 23.808 11.576 36.816 29.364 42.963 58.75l0.5742 2.75h32.936 32.936l0.5957-3.75c13.59-85.611 141.56-87.912 157.7-2.8359l1.2481 6.5859h37.17 37.17l1.1485-6.6015c14.518-83.37 147.04-82.65 156.65 0.8515l0.6621 5.75h41.768 41.77l1.1719-6.75c14.481-83.357 144.77-82.633 156.79 0.8711l0.7735 5.3789 37.514 0.2618 37.512 0.2617 1.0761-6.8281c8.3364-52.942 76.344-80.993 122.17-50.393 19.714 13.163 35.197 37.11 35.197 54.438v2.7812l41.693-0.2597 41.695-0.2618 1.3672-7.5c9.4559-51.829 73.815-78.703 120.53-50.328 19.182 11.652 36.719 38.186 36.719 55.559v2.7695h37.455 37.455l0.6152-3.75c14.565-88.653 141.13-87.852 157.99 1l0.5215 2.75h41.438 41.434l0.6172-3.75c14.652-89.183 140.61-87.988 158.07 1.5l0.4375 2.25h41.463 41.463l0.5195-2.75c7.753-40.865 38.755-67.25 79.018-67.25 40.3 0 71.257 26.347 79.016 67.25l0.5215 2.75h41.463 41.463l0.5195-2.75c16.866-88.901 143.42-89.702 157.99-1l0.6153 3.75h37.205 37.205l1.6426-8.4667c15.548-80.17 141.31-80.595 155.92-0.5274 0.652 3.575 1.3413 7.0625 1.5293 7.75 0.265 0.9678 7.7881 1.25 33.328 1.25h32.984l0.6172-3.75c14.221-86.557 140.47-88.16 157.48-2l1.1367 5.75h36.785 36.785l0.6836-8.25c3.006-36.224 27.718-62.938 65.854-71.191l2.75-0.5957v-32.463-32.461l-2.75-0.5957c-40.097-8.6786-65.588-38-65.588-75.443 0-37.472 25.461-66.756 65.588-75.441l2.75-0.5957v-40.512c0-31.573-0.276-40.583-1.25-40.832-0.688-0.1758-4.4-1.0713-8.25-1.9882-77.675-18.498-77.295-130.95 0.5-147.62 3.025-0.6483 6.287-1.3962 7.25-1.6602 2.265-0.6214 2.756-65.15 0.5-65.727-0.688-0.1758-4.4-1.0713-8.25-1.9882-81.91-19.507-76.863-130.98 6.75-149.07l2.75-0.5957v-40.512c0-31.547-0.277-40.595-1.25-40.881-0.688-0.202-4.4-1.082-8.25-1.957-72.239-16.419-79.512-116.12-10.5-143.92 5.883-2.3703 8.377-3.1091 17.25-5.1075l2.75-0.6191v-36.512c0-28.347-0.28-36.596-1.25-36.881-0.688-0.202-4.4-1.0941-8.25-1.9824-79.578-18.36-76.705-132.17 3.75-148.56l5.75-1.1719v-36.461c0-28.306-0.28-36.543-1.25-36.828-0.688-0.202-4.3743-1.0912-8.1933-1.9765-44.63-10.345-63.242-52.943-56.359-90.004h1.3242c7.5004-24.307 27.131-45.231 58.728-51.738l5.75-1.1836v-40.701-40.701l-6.5039-1.2344c-81.999-15.555-81.409-132.26 0.7539-149.18l5.75-1.1836-0.01-47.18-0.01-47.18-8.7363-0.2168h-0.01c-39.9-1.251-76.5-35.594-76.5-71.7v-4.8398h-41.5-41.5v3.543c0 92.315-150.89 95.886-158.68 3.7559l-0.6153-7.2988h-32.674-32.674l-1.1758 8.832c-11.773 88.423-143.65 89.722-157.99 1.5566l-1.6895-10.385h-36.75-36.75v3.543c0 92.358-150.89 95.929-158.68 3.7558l-0.6153-7.2988h-41.354-41.354v3.543c0 32.139-28.277 63.994-63.5 71.533-45.882 9.8209-95.5-27.203-95.5-71.26v-3.8164h-41.363-41.361l-0.6836 6.75c-9.2343 91.163-150.57 91.653-158.27 0.54882l-0.6153-7.2988h-41.207-41.207l-0.625 7.3848c-7.6273 90.231-150.71 90.223-158.34-0.01l-0.6231-7.375h-36.728-36.728l-0.625 3.125c-0.3437 1.7188-0.625 4.3355-0.625 5.8164 0 15.126-14.074 39.423-29.463 50.863-49.549 36.836-120.77 8.7422-128.69-50.766l-1.2051-9.0391h-40.703-40.703l-0.6015 2.25c-0.3317 1.2375-0.6097 3.7957-0.6172 5.6855-0.064 16.181-13.528 39.8-29.508 51.768-50.063 37.492-122.91 7.6125-129.09-52.953l-0.6894-6.75h-36.682-36.682l-1.1758 8.8301c-11.916 89.495-150.57 88.547-157.85-1.0801l-0.6289-7.75h-41.213-41.215l-0.6484 6.3301c-9.4334 92.073-158.63 90.764-158.63-1.3945v-4.9394h-37.5-37.5v5.3398c0 91.384-150.07 92.718-158.65 1.4102l-0.6348-6.75h-32.711-32.709l-0.6172 7.25c-7.77 91.28-158.68 88.72-158.68-2.697v-4.5527h-32.791-32.789l-1.6328 10.299c-14.023 88.403-151.44 86.17-157.54-2.5606l-0.5351-7.7637z" fill="#f2f2f2"/>
<g id="g4200">
<g id="g4183" transform="matrix(1.4924 0 0 1.5269 177.58 174.92)">
<rect id="rect6" height="1e3" width="2e3" y="0" x="0" fill="#00afca"/>
<g fill="#fec50c">
<g id="sun" transform="translate(1080.5 420)">
<circle id="circle9" cx="0" cy="0" r="134.55"/>
<g id="r16">
<g id="r4">
<path id="r" d="m0-152.9c8-0.1 11-5.1 11-11.1 0-8-11-46.1-11-46.1s-11 38.1-11 46.1c0 6 3 11.1 11 11.1z"/>
<use id="use14" xlink:href="#r" transform="rotate(90)" height="100%" width="100%" y="0" x="0"/>
<use id="use16" xlink:href="#r" transform="scale(-1)" height="100%" width="100%" y="0" x="0"/>
<use id="use18" xlink:href="#r" transform="rotate(-90)" height="100%" width="100%" y="0" x="0"/>
</g>
<use id="use20" xlink:href="#r4" transform="matrix(.92388 .38268 -.38268 .92388 0 0)" height="100%" width="100%" y="0" x="0"/>
<use id="use22" xlink:href="#r4" transform="rotate(45)" height="100%" width="100%" y="0" x="0"/>
<use id="use24" xlink:href="#r4" transform="matrix(.38268 .92388 -.92388 .38268 0 0)" height="100%" width="100%" y="0" x="0"/>
</g>
<use id="use26" xlink:href="#r16" transform="rotate(11.25)" height="100%" width="100%" y="0" x="0"/>
</g>
<g id="bird">
<path id="path29" d="m316.94 213.44c-1.08 0.06-2.13 0.2-3.16 0.53-1.41 0.19-2.76 0.68-4.16 0.91l-0.56 0.09-0.94 0.09c0.06 0.26 0.1 0.52 0.1 0.78 0 0.27-0.03 0.53-0.1 0.75-0.06 0.21-0.25 0.47-0.4 0.63-0.2 0.22-0.41 0.41-0.66 0.53-0.24 0.12-0.51 0.17-0.78 0.19-0.27 0.01-0.55 0-0.81-0.1-0.27-0.09-0.52-0.26-0.75-0.46-0.28 0.07-0.57 0.12-0.84 0.15-0.28 0.03-0.54 0.03-0.79 0-0.28-0.08-0.57-0.17-0.84-0.28s-0.53-0.25-0.78-0.41c-1.02 0.6-2.16 1.17-2.78 2.22-0.35 0.48-0.42 1.03-0.5 1.6-0.05 0.7 0.13 1.44 0.43 2.09 0.11 0.19 0.2-0.69 0.54-0.81 0.57-0.47 1.28-0.81 2-1 0.61-0.31 0.53 0.02 0.28 0.5-0.06 0.25-0.4 1.2 0.06 0.72 2.03-0.9 4.28-1.08 6.47-1.25 3.18-0.33 6.37-0.4 9.56-0.44 3 0.04 6 0.08 9 0.19 1.43 0.04 2.87 0.36 4.28 0.12 0.34-0.09 0.87-0.11 1.07-0.31-0.64-0.37-1.39-0.38-2.1-0.47h-5.72c-1.59-0.16-3.25-0.18-4.75-0.78-0.4-0.16-0.77-0.54-1.15-0.13-0.57 0.2-1.18 0.34-1.78 0.38-1.05 0.08-2.1-0.14-3.07-0.53 0.7-0.97 1.54-1.82 2.31-2.72-0.62-0.1-1.22-0.23-1.84-0.38 1.09-0.75 2.1-1.6 3.16-2.4z" transform="scale(3.3333)"/>
<path id="path31" d="m1212.2 746.01c-7.2452 4.3503-12.775-3.3623-18.831-5.6752-4.3249 2.3488-4.7288 10.208-8.7706 13.93-4.8342 5.5019-10.76-1.5363-10.318-6.9649-5.7825 4.8741-8.7067 15.922-18.057 14.446-4.4308-3.6151-7.7219-11.201-11.106-2.5636-2.7613 4.2221-10.11 10.229-13.916 3.8533-1.1784-5.6287-4.0008-12.25-7.0634-3.3078-2.1024 6.3247-8.8507 10.978-15.379 8.2088-3.5737-2.9216 2.8649-13.727-1.6841-12.958-6.7998 4.4958-10.753 15.658-20.242 14.764-3.6847-4.1359 2.236-11.144-1.8057-15.735-4.7711 6.1235-10.063 15.089-18.315 15.735-3.9884-3.2319 0.1571-12.501-2.3893-13.873-8.4677 5.0781-17.402 14.128-28.05 11.294 4.1497-15.873 21.49-21.442 36.072-22.68 25.089-3.0835 51.484 2.5863 75.624-6.469 3.9004-2.3734 13.35-5.7392 9.9847-11.244-2.9805-4.3463 7.7529-2.647 8.7855-7.7238-0.639-6.4302 4.9265-5.5452 10.364-6.108 24.376-1.0516 48.455 4.0818 72.758 4.9546 1.8358 11.842-11.301 20.157-21.876 16.5-5.0519 0.81828-12.627-11.615-11.142-2.5698-1.0183 4.7472-0.3056 11.017-4.6433 14.188m-207.4-24.248c5.6435 5.1653 9.6005-0.97254 14.875-3.2155 17.692-6.085 33.128-16.719 48.346-27.344 9.221-7.6305 17.214-17.525 29.597-20 24.155-7.303 49.832-6.4173 74.081-13.157 18.464-25.281 49.825-34.299 76.096-48.831 5.8991-1.8316 8.1781-6.6867 10.062-12.047 10.028-15.83 23.689-29.857 39.845-39.439 7.6441-4.1767 16.764-6.5825 25.418-4.6718-0.6201 10.307-6.5329 19.442-13.672 26.57 5.842-0.12861 10.863-3.8191 16.767-3.6114 2.0233 10.578-9.4007 16.114-15.478 22.7 3.3855 0.78754 16.353 1.7684 9.2865 5.1591-9.0054 6.2497-19.289 10.541-27.602 17.799 7.6694 1.3778 8.5436 3.0082 0.7445 5.782-4.2215 2.8617-12.341 3.8616-13.126 9.4374 5.7939 3.5608-2.6685 7.0964-5.933 8.2546-6.2414 1.4535-12.798 4.1652-4.5067 8.9071-3.1365 4.7384-9.8653 5.7486-15.356 5.2805 1.6661 5.3701 4.0776 11.378-2.8919 13.747-15.624 11.811-33.96 20.402-53.601 22.367 24.536 1.8866 49.807-2.668 70.773-16.011 2.768-3.2727 17.282-6.7896 9.1636-9.5419-3.822-1.5904-12.016-3.3567-12.57-6.2707 11.355-7.006 25.664-4.514 37.88-8.6758 0.3163-3.9551-9.2914-2.8547-12.874-3.7554-8.5427-0.69975-8.0417-2.8803 0.1954-3.6882 10.422-2.759 22.226-3.3028 30.993-10.098-7.1383-3.3066-16.116-0.39512-23.732-3.0955 12.911-5.6498 28.142-6.2167 39.726-14.704 5.2763-5.871-6.7598-4.0356-10.267-3.8931-7.1509 1.2447-10.456-2.1779-2.3324-5.1489 13.871-10.227 31.433-16.871 41.176-31.697 2.3078-3.3186 5.4328-13.319-1.9277-9.7216-9.681 3.2185-18.198 14.101-29.228 10.735 21.733-16.844 42.413-36.02 57.267-59.33 0.7674-6.7232-9.7852-7.4509-12.532-2.172-13.963 13.454-26.6 29.335-44.477 37.77 17.121-16.525 31.276-36.092 43.626-56.372 2.6476-6.0321 9.7642-13.286 5.9021-19.983-6.2255-5.1532-14.013-0.43606-17.248 5.7304-10.854 14.169-19.096 30.708-33.054 42.25 12.219-23.322 24.871-48.148 25.179-75.047-0.037-5.5382-1.1493-13.694-8.6693-12.659-5.9622 1.0681-4.5464 9.9912-7.0042 14.504-5.4111 18.377-7.9508 38.279-19.05 54.371 2.4971-14.934 6.8661-30.5 3.512-45.58-1.5667-6.7396-12.45-3.8412-11.048 2.8288-13.002 65.86-57.194 123.46-114.99 156.78-26.464 14.973-56.023 24.626-86.096 29.002-8.0899 1.7718-16.839 0.73198-24.572 3.4906-18.736 14.367-30.079 38.407-53.802 45.935-10.632 5.2835-24.496 6.3556-32.098 16.233-0.658 1.2632-0.7991 2.7266-0.7739 4.1273"/>
<path id="path33" d="m1075.8 654.95c-3.5006 6.354-5.5592 13.658-10.06 19.347-13.541-12.321-33.171-11.914-50.347-12.734-14.177-0.75657-29.594-2.0646-40.563-12.176-11.539-9.452-20.958-21.724-33.852-29.393-11.769-3.2001-23.633-7.2042-33.095-15.271-20.22-16.482-31.8-40.937-51.558-57.933-3.7669-3.7078-8.209-6.5812-12.429-9.7268-4.0096 0.97695-2.1955 9.6311-7.1022 5.2194-2.6694-1.8995-9.348-2.0844-9.9492 0.56937 6.0404 7.96 12.087 17.049 12.924 27.23-4.1198 0.4224-11.445-0.87064-13.487 0.66378 5.4715 8.2003 12.484 15.473 20.452 21.263-3.8217 0.61454-11.353 0.27988-12.818 1.8198 7.9092 6.4462 16.391 13.034 26.747 14.69 2.12 2.7948-3.099 8.1901 1.2898 10.576 2.5458 1.0399 10.945 2.7801 5.1592 5.6751-3.9705 2.6755-2.4971 8.9111 2.5797 8.7706 3.2101 1.6391 10.418 2.0412 10.982 4.879-2.8453 2.8956-11.698 6.3288-4.1637 9.0409 7.039 3.904 15.067 6.4384 23.105 6.7168-4.0336 3.3936-9.004 5.3206-13.156 8.5127 18.55 10.877 39.113 18.03 59.433 24.919 8.0909 2.7031 16.274 5.2237 24.661 6.8102-24.369-1.4066-47.922-8.6212-70.116-18.495-11.503-5.0452-23.084-9.9197-34.873-14.265 5.1692-2.6897 11.148-3.3471 16.509-5.6751-11.128-2.2291-23.285-2.9605-33.067-9.0768 1.4997-2.6758 7.1829-2.8021 10.326-4.1642 5.9114-1.416 9.5779-3.1339 1.2438-3.6475-8.4057-2.2812-18.045-1.2576-25.452-6.3278 0.4769-3.04 8.2283-1.9813 11.386-3.2934 3.9751-0.683 8.3958-1.2548 11.573-3.9294-12.994-5.388-29.99-1.5707-40.168-13.046-2.3476-4.3712 7.2884-0.85006 10.033-1.5782 6.9723 0.00003 14.467 2.2158 21.107-0.59559-18.934-8.3124-39.215-16.095-53.655-31.471-1.6039-2.4716-6.4071-9.2249-2.5317-10.06 11.239 1.4869 19.374 13.753 31.396 11.844 1.5973-2.1526-6.9835-5.6809-9.1254-8.7582-17.528-15.041-34.541-31.364-46.825-51.066-0.84492-6.5792 9.4971-7.565 12.22-2.4832 13.405 12.911 25.514 27.977 42.209 36.791 5.9247 2.8724-3.4012-3.4-4.6433-5.6751-15.427-17.914-30.113-36.834-40.895-57.932-1.9299-3.8028-5.1284-10.686 0.64643-12.71 5.7722-2.8919 11.501 1.0476 14.428 6.0066 11.342 14.305 19.688 31.307 33.817 43.225-12.037-23.359-24.889-47.948-25.2-74.828 0.28226-5.2109 0.61728-13.092 7.6832-12.878 5.9331-0.89942 4.9962 6.696 6.941 10.318 5.845 19.747 8.3946 41.121 20.121 58.556-2.5904-14.649-6.4022-29.735-3.8694-44.627 0.58422-4.8898 6.0884-6.37 9.6818-3.4138 2.9046 7.11 3.5106 15.889 6.1574 23.491 15.06 51.519 48.875 96.832 92.941 127.24 36.292 24.891 79.362 39.749 123.32 42.341 3.9698 0.346 7.9556 0.46548 11.932 0.70954"/>
<circle id="circle35" cx="1020" cy="720.89" r="2.367"/>
<circle id="circle37" stroke-width=".38127" stroke="#00afca" cy="720.51" cx="1019.8" r="0.965"/>
</g>
<g id="ornament">
<g id="oh">
<g id="oq">
<path id="path42" d="m120 72.922s-9.6109-8.0762-12.874-4.0253c-5.2494 6.5154 16.14 38.968 16.14 50.396 0 18.759-12.517 23.861-27.973 26.539-10.371 1.7981-27.259-0.752-27.259-0.752 3.1796-4.2726 5.2478-5.5316 10.606-5.8731-5.9648-3.0968-12.039-9.8188-12.039-20.284 0-16.138 6.6434-22.789 6.6434-40.983 0-10.093-8.2759-22.941-8.2759-22.941 14.628 1.464 21.878 15.009 17.753 25.834 2.3286 0.33542 4.4428-0.18873 6.2586-1.9094 1.0706 3.0005-0.61945 6.4832-2.8834 9.4837 1.8233 0.97432 3.1624 0.39003 6.0661-0.20942-0.27536 3.0915-2.1278 6.3758-6.6597 9.4671 13.151-3.4144 21.243 5.7517 21.243 15.347 0 7.248-5.0791 12.443-10.044 12.443-1.6044 0-3.9611-0.66078-5.2908-1.6532-0.93725 1.9948-0.45429 4.6646 0.51121 6.6596-3.6388-0.96187-5.9484-3.1229-4.3043-7.6212-2.7948-0.25675-5.0181-1.2011-6.5305-3.0005 1.5323-1.9624 3.8568-3.0927 6.5305-3.0005-2.035-4.1994 0.23284-6.5505 3.5373-8.456 0 0-2.1015 8.4558 3.2654 8.4558 2.4133 0 4.6122-0.78561 4.6122-4.3421 0-3.097-2.7075-7.387-8.9659-7.1142-6.2586 0.27277-11.332 4.3152-11.332 14.306 0 9.2162 7.4334 13.8 17.229 14.096 8.8338 0.27277 15.501-4.5126 15.501-13.625 0-12.128-17.508-39.773-17.508-50.581 0-8.109 7.2922-12.635 14.427-12.635 9.2518 0 17.058 9.1612 17.058 9.1612l-5.4352 6.8146z"/>
<path id="op" d="m122.02 292.14c0 20.27-18.198 30.688-32.498 30.688-19.266 0-29.524-11.519-29.524-26.598 0-8.5475 1.5661-13.911 5.5074-22.092 0 0 31.78-66.091 44.153-91.653 1.543-3.1882 2.0408-6.8175 2.0408-12.138 0-8.2171-7.97-14.933-16.327-15.139-7.618-0.19053-15.918 7.1022-15.918 15.412 0 10.093 5.2358 14.593 10.612 14.593 6.6157 0 9.2518-2.7198 9.2518-7.3649 0-3.2366-1.5632-4.6371-3.8095-4.6371-5.6744 0-4.0817 7.6376-4.0817 7.6376-2.8183-0.617-5.1335-3.4965-3.8095-7.0921-2.0617-0.45904-3.9929-1.5413-5.5102-3.2733 1.5211-1.4747 3.266-2.6132 5.5102-3.0005-1.3289-4.3872 0.44687-6.5308 4.2857-7.433-0.77466 1.6876-0.80131 3.2401-0.54421 4.7054 6.0436-1.7186 15.306 1.0163 15.306 11.456 0 10.365-7.1935 19.093-20.681 16.912 3.2087 1.5341 4.8407 4.6732 5.1701 8.1832-2.4491-0.9547-5.1701-1.0911-5.1701-1.0911 1.577 2.7808 3.7672 5.1776 3.6734 10.638-2.5006-1.1368-4.8227-3.2419-8.0272-1.9094 5.0294 9.8968-1.1497 23.511-16.871 26.732 5.7537-6.7443 8.5714-14.027 8.5714-21.277 0-23.496-6.5305-27.445-6.5305-43.78 0-6.8343 3.5133-14.215 10.476-19.231v0.27276c-4.6021-1.2324-7.5502-3.4985-9.2447-6.5775 10.515-2.9816 25.799-2.9269 34.006 0.30202 9.434 1.0925 16.019 8.3308 17.959 12.004 1.9406 3.6708 5.7096 16.953 0 28.912-6.2487 13.088-35.711 75.559-44.897 95.198-1.9484 4.1654-3.1293 8.5827-3.1293 13.366 0 12.03 11.02 16.23 17.279 16.23 7.4829 0 15.102-5.7008 15.102-12.82 0-4.5112-2.4491-7.2285-5.9864-7.2285-8.4587 0-7.9449 7.1957-6.2586 11.729-5.2643-2.3667-8.3243-6.5917-7.4829-11.047-2.9805-0.40822-5.8174-1.822-8.4353-4.7735 2.0598-2.601 4.5722-4.5671 8.4353-4.6371-1.6873-6.9119 2.9406-9.8352 7.4829-11.456-1.437 5.0729-2.3803 10.911 6.2586 10.911 6.2986 0 11.258 1.0911 14.15 5.1827 0.17007-5.4553 0.68027-27.005 0.68027-27.005 0.36281-8.0977-10.839-7.8662-17.959-5.4554 2.6871-9.3276 8.1979-14.371 20.952-13.093-3.0953-1.2957-6.3946-4.2084-6.3946-9.8198 0.002-7.593 6.1621-16.005 10.206-18.492l2.022 79.051z"/>
<use id="use45" xlink:href="#op" transform="matrix(1,0,0,-1,0,645.08)" height="100%" width="100%" y="0" x="0"/>
</g>
<use id="use47" xlink:href="#oq" transform="matrix(-1,0,0,1,240,0)" height="100%" width="100%" y="0" x="0"/>
</g>
<use id="use49" xlink:href="#oh" transform="matrix(1 0 0 -1 0 1e3)" height="100%" width="100%" y="0" x="0"/>
</g>
</g>
</g>
</g>
</g>
</svg>
