<?xml version="1.0" encoding="UTF-8" standalone="no"?>
<!-- Created with Inkscape (http://www.inkscape.org/) -->
<!-- ClipArt by Arvin61r58 (http://openclipart.org/user-detail/Arvin61r58) -->

<svg
   xmlns:dc="http://purl.org/dc/elements/1.1/"
   xmlns:cc="http://creativecommons.org/ns#"
   xmlns:rdf="http://www.w3.org/1999/02/22-rdf-syntax-ns#"
   xmlns:svg="http://www.w3.org/2000/svg"
   xmlns="http://www.w3.org/2000/svg"
   xmlns:xlink="http://www.w3.org/1999/xlink"
   version="1.1"
   id="svg4289"
   viewBox="0 0 765 990"
   height="990"
   width="765">
  <title
     id="title4442">Road Sign Border</title>
  <defs
     id="defs4291">
    <linearGradient
       gradientTransform="matrix(2.7973475,0,0,3.4868257,-293.22451,200.99496)"
       gradientUnits="userSpaceOnUse"
       y2="122.07463"
       x2="203.14828"
       y1="122.07463"
       x1="197.50383"
       id="linearGradient4273"
       xlink:href="#linearGradient4267" />
    <linearGradient
       id="linearGradient4267">
      <stop
         id="stop4269"
         offset="0"
         style="stop-color:#00b200;stop-opacity:1;" />
      <stop
         id="stop4271"
         offset="1"
         style="stop-color:#309845;stop-opacity:1" />
    </linearGradient>
    <linearGradient
       gradientTransform="matrix(2.7973475,0,0,3.4868257,-282.04991,200.99496)"
       gradientUnits="userSpaceOnUse"
       y2="122.07463"
       x2="219.94051"
       y1="122.07463"
       x1="214.57828"
       id="linearGradient4281"
       xlink:href="#linearGradient4275" />
    <linearGradient
       id="linearGradient4275">
      <stop
         style="stop-color:#308a45;stop-opacity:1"
         offset="0"
         id="stop4279" />
      <stop
         style="stop-color:#007100;stop-opacity:1;"
         offset="1"
         id="stop4277" />
    </linearGradient>
    <filter
       height="1.1000000000000001"
       width="1.1000000000000001"
       y="-0.050000000000000003"
       x="-0.050000000000000003"
       id="filter4264"
       style="color-interpolation-filters:sRGB;">
      <feTurbulence
         id="feTurbulence4266"
         result="turbulence"
         seed="1"
         numOctaves="5"
         baseFrequency="0.20000000000000001 0.074999999999999997"
         type="turbulence" />
      <feComposite
         id="feComposite4268"
         result="composite1"
         operator="in"
         in2="turbulence"
         in="SourceGraphic" />
      <feColorMatrix
         id="feColorMatrix4270"
         result="color"
         values="1 0 0 0 0 0 1 0 0 0 0 0 1 0 0 0 0 0 3 -1 " />
      <feFlood
         id="feFlood4272"
         result="flood"
         flood-color="rgb(16,127,64)"
         flood-opacity="1" />
      <feMerge
         id="feMerge4274"
         result="merge">
        <feMergeNode
           id="feMergeNode4276"
           in="flood" />
        <feMergeNode
           id="feMergeNode4278"
           in="color" />
      </feMerge>
      <feComposite
         id="feComposite4280"
         result="composite2"
         operator="in"
         in2="SourceGraphic" />
    </filter>
  </defs>
  <metadata
     id="metadata4294">
    <rdf:RDF>
      <cc:Work
         rdf:about="">
        <dc:format>image/svg+xml</dc:format>
        <dc:type
           rdf:resource="http://purl.org/dc/dcmitype/StillImage" />
        <dc:title>Road Sign Border</dc:title>
        <dc:creator>
          <cc:Agent>
            <dc:title>Arvin61r58</dc:title>
          </cc:Agent>
        </dc:creator>
        <dc:publisher>
          <cc:Agent>
            <dc:title>Openclipart.org</dc:title>
          </cc:Agent>
        </dc:publisher>
        <dc:identifier>https://openclipart.org/</dc:identifier>
        <dc:source>https://openclipart.org/user-detail/Arvin61r58</dc:source>
        <dc:description>road sign border - or just as a road sign graphic</dc:description>
        <dc:subject>
          <rdf:Bag />
        </dc:subject>
      </cc:Work>
    </rdf:RDF>
  </metadata>
  <g
     transform="translate(0,-62.362205)"
     id="layer1">
    <g
       id="g4413">
      <g
         id="g4386">
        <g
           id="g3467"
           transform="matrix(1,0,0,0.66666667,86.071426,364.28746)">
          <rect
             style="opacity:1;fill:#308a45;fill-opacity:1;stroke:none;stroke-width:0.99999964;stroke-linecap:round;stroke-linejoin:round;stroke-miterlimit:4;stroke-dasharray:none;stroke-opacity:1"
             id="rect3459"
             width="36.456676"
             height="675"
             x="278.20023"
             y="289.14792" />
          <rect
             y="289.14792"
             x="318.20026"
             height="675"
             width="15"
             id="rect3463"
             style="opacity:1;fill:url(#linearGradient4281);fill-opacity:1;stroke:none;stroke-width:1;stroke-linecap:round;stroke-linejoin:round;stroke-miterlimit:4;stroke-dasharray:none;stroke-opacity:1" />
          <rect
             style="opacity:1;fill:url(#linearGradient4273);fill-opacity:1;stroke:none;stroke-width:1;stroke-linecap:round;stroke-linejoin:round;stroke-miterlimit:4;stroke-dasharray:none;stroke-opacity:1"
             id="rect3465"
             width="15"
             height="675"
             x="259.65689"
             y="289.14792" />
          <path
             style="fill:none;fill-rule:evenodd;stroke:#008200;stroke-width:4.33964729;stroke-linecap:butt;stroke-linejoin:miter;stroke-opacity:1"
             d="m 276.4286,289.14793 0,674.99995"
             id="path4285" />
          <path
             id="path4287"
             d="m 316.42856,289.14794 0,674.99994"
             style="fill:none;fill-rule:evenodd;stroke:#008200;stroke-width:4.33964729;stroke-linecap:butt;stroke-linejoin:miter;stroke-opacity:1" />
        </g>
        <g
           transform="translate(697.63748,46.573321)"
           id="g4636">
          <path
             style="opacity:1;fill:#ffffff;fill-opacity:1;stroke:#008200;stroke-width:0.99999994;stroke-linecap:round;stroke-linejoin:round;stroke-miterlimit:4;stroke-dasharray:none;stroke-opacity:1"
             d="m -322.25884,531.47942 c 0,-1.85651 0.75029,-3.63699 2.08581,-4.94974 1.33552,-1.31276 3.14687,-2.05026 5.03558,-2.05026 1.8887,0 3.70006,0.7375 5.03558,2.05026 1.33552,1.31275 2.0858,3.09323 2.0858,4.94974 0,1.85652 -0.75028,3.63699 -2.0858,4.94975 -1.33552,1.31275 -3.14688,2.05025 -5.03558,2.05025 -1.88871,0 -3.70006,-0.7375 -5.03558,-2.05025 -1.33552,-1.31276 -2.08581,-3.09323 -2.08581,-4.94975 0,0 0,0 0,0"
             id="path3600" />
          <path
             style="opacity:1;fill:#ffffff;fill-opacity:1;stroke:#008200;stroke-width:0.99999994;stroke-linecap:round;stroke-linejoin:round;stroke-miterlimit:4;stroke-dasharray:none;stroke-opacity:1"
             d="m -322.25884,555.47942 c 0,-1.85651 0.75029,-3.63699 2.08581,-4.94974 1.33552,-1.31276 3.14687,-2.05026 5.03558,-2.05026 1.8887,0 3.70006,0.7375 5.03558,2.05026 1.33552,1.31275 2.0858,3.09323 2.0858,4.94974 0,1.85652 -0.75028,3.63699 -2.0858,4.94975 -1.33552,1.31275 -3.14688,2.05025 -5.03558,2.05025 -1.88871,0 -3.70006,-0.7375 -5.03558,-2.05025 -1.33552,-1.31276 -2.08581,-3.09323 -2.08581,-4.94975 0,0 0,0 0,0"
             id="path3598" />
          <path
             style="opacity:1;fill:#ffffff;fill-opacity:1;stroke:#008200;stroke-width:0.99999994;stroke-linecap:round;stroke-linejoin:round;stroke-miterlimit:4;stroke-dasharray:none;stroke-opacity:1"
             d="m -322.25884,579.47942 c 0,-1.85651 0.75029,-3.63699 2.08581,-4.94974 1.33552,-1.31276 3.14687,-2.05026 5.03558,-2.05026 1.8887,0 3.70006,0.7375 5.03558,2.05026 1.33552,1.31275 2.0858,3.09323 2.0858,4.94974 0,1.85652 -0.75028,3.63699 -2.0858,4.94975 -1.33552,1.31275 -3.14688,2.05025 -5.03558,2.05025 -1.88871,0 -3.70006,-0.7375 -5.03558,-2.05025 -1.33552,-1.31276 -2.08581,-3.09323 -2.08581,-4.94975 0,0 0,0 0,0"
             id="path3596" />
          <path
             style="opacity:1;fill:#ffffff;fill-opacity:1;stroke:#008200;stroke-width:0.99999994;stroke-linecap:round;stroke-linejoin:round;stroke-miterlimit:4;stroke-dasharray:none;stroke-opacity:1"
             d="m -322.25884,603.47942 c 0,-1.85651 0.75029,-3.63699 2.08581,-4.94974 1.33552,-1.31276 3.14687,-2.05026 5.03558,-2.05026 1.8887,0 3.70006,0.7375 5.03558,2.05026 1.33552,1.31275 2.0858,3.09323 2.0858,4.94974 0,1.85652 -0.75028,3.63699 -2.0858,4.94975 -1.33552,1.31275 -3.14688,2.05025 -5.03558,2.05025 -1.88871,0 -3.70006,-0.7375 -5.03558,-2.05025 -1.33552,-1.31276 -2.08581,-3.09323 -2.08581,-4.94975 0,0 0,0 0,0"
             id="path3594" />
          <path
             style="opacity:1;fill:#ffffff;fill-opacity:1;stroke:#008200;stroke-width:0.99999994;stroke-linecap:round;stroke-linejoin:round;stroke-miterlimit:4;stroke-dasharray:none;stroke-opacity:1"
             d="m -322.25884,627.47942 c 0,-1.85651 0.75029,-3.63699 2.08581,-4.94974 1.33552,-1.31276 3.14687,-2.05026 5.03558,-2.05026 1.8887,0 3.70006,0.7375 5.03558,2.05026 1.33552,1.31275 2.0858,3.09323 2.0858,4.94974 0,1.85652 -0.75028,3.63699 -2.0858,4.94975 -1.33552,1.31275 -3.14688,2.05025 -5.03558,2.05025 -1.88871,0 -3.70006,-0.7375 -5.03558,-2.05025 -1.33552,-1.31276 -2.08581,-3.09323 -2.08581,-4.94975 0,0 0,0 0,0"
             id="path3592" />
          <path
             style="opacity:1;fill:#ffffff;fill-opacity:1;stroke:#008200;stroke-width:0.99999994;stroke-linecap:round;stroke-linejoin:round;stroke-miterlimit:4;stroke-dasharray:none;stroke-opacity:1"
             d="m -322.25884,651.47942 c 0,-1.85651 0.75029,-3.63699 2.08581,-4.94974 1.33552,-1.31276 3.14687,-2.05026 5.03558,-2.05026 1.8887,0 3.70006,0.7375 5.03558,2.05026 1.33552,1.31275 2.0858,3.09323 2.0858,4.94974 0,1.85652 -0.75028,3.63699 -2.0858,4.94975 -1.33552,1.31275 -3.14688,2.05025 -5.03558,2.05025 -1.88871,0 -3.70006,-0.7375 -5.03558,-2.05025 -1.33552,-1.31276 -2.08581,-3.09323 -2.08581,-4.94975 0,0 0,0 0,0"
             id="path3590" />
          <path
             style="opacity:1;fill:#ffffff;fill-opacity:1;stroke:#008200;stroke-width:0.99999994;stroke-linecap:round;stroke-linejoin:round;stroke-miterlimit:4;stroke-dasharray:none;stroke-opacity:1"
             d="m -322.25884,675.47942 c 0,-1.85651 0.75029,-3.63699 2.08581,-4.94974 1.33552,-1.31276 3.14687,-2.05026 5.03558,-2.05026 1.8887,0 3.70006,0.7375 5.03558,2.05026 1.33552,1.31275 2.0858,3.09323 2.0858,4.94974 0,1.85652 -0.75028,3.63699 -2.0858,4.94975 -1.33552,1.31275 -3.14688,2.05025 -5.03558,2.05025 -1.88871,0 -3.70006,-0.7375 -5.03558,-2.05025 -1.33552,-1.31276 -2.08581,-3.09323 -2.08581,-4.94975 0,0 0,0 0,0"
             id="path3588" />
          <path
             style="opacity:1;fill:#ffffff;fill-opacity:1;stroke:#008200;stroke-width:0.99999994;stroke-linecap:round;stroke-linejoin:round;stroke-miterlimit:4;stroke-dasharray:none;stroke-opacity:1"
             d="m -322.25884,699.47942 c 0,-1.85651 0.75029,-3.63699 2.08581,-4.94974 1.33552,-1.31276 3.14687,-2.05026 5.03558,-2.05026 1.8887,0 3.70006,0.7375 5.03558,2.05026 1.33552,1.31275 2.0858,3.09323 2.0858,4.94974 0,1.85652 -0.75028,3.63699 -2.0858,4.94975 -1.33552,1.31275 -3.14688,2.05025 -5.03558,2.05025 -1.88871,0 -3.70006,-0.7375 -5.03558,-2.05025 -1.33552,-1.31276 -2.08581,-3.09323 -2.08581,-4.94975 0,0 0,0 0,0"
             id="path3586" />
          <path
             style="opacity:1;fill:#ffffff;fill-opacity:1;stroke:#008200;stroke-width:0.99999994;stroke-linecap:round;stroke-linejoin:round;stroke-miterlimit:4;stroke-dasharray:none;stroke-opacity:1"
             d="m -322.25884,723.47942 c 0,-1.85651 0.75029,-3.63699 2.08581,-4.94974 1.33552,-1.31276 3.14687,-2.05026 5.03558,-2.05026 1.8887,0 3.70006,0.7375 5.03558,2.05026 1.33552,1.31275 2.0858,3.09323 2.0858,4.94974 0,1.85652 -0.75028,3.63699 -2.0858,4.94975 -1.33552,1.31275 -3.14688,2.05025 -5.03558,2.05025 -1.88871,0 -3.70006,-0.7375 -5.03558,-2.05025 -1.33552,-1.31276 -2.08581,-3.09323 -2.08581,-4.94975 0,0 0,0 0,0"
             id="path3584" />
          <path
             style="opacity:1;fill:#ffffff;fill-opacity:1;stroke:#008200;stroke-width:0.99999994;stroke-linecap:round;stroke-linejoin:round;stroke-miterlimit:4;stroke-dasharray:none;stroke-opacity:1"
             d="m -322.25884,747.47942 c 0,-1.85651 0.75029,-3.63699 2.08581,-4.94974 1.33552,-1.31276 3.14687,-2.05026 5.03558,-2.05026 1.8887,0 3.70006,0.7375 5.03558,2.05026 1.33552,1.31275 2.0858,3.09323 2.0858,4.94974 0,1.85652 -0.75028,3.63699 -2.0858,4.94975 -1.33552,1.31275 -3.14688,2.05025 -5.03558,2.05025 -1.88871,0 -3.70006,-0.7375 -5.03558,-2.05025 -1.33552,-1.31276 -2.08581,-3.09323 -2.08581,-4.94975 0,0 0,0 0,0"
             id="path3582" />
          <path
             style="opacity:1;fill:#ffffff;fill-opacity:1;stroke:#008200;stroke-width:0.99999994;stroke-linecap:round;stroke-linejoin:round;stroke-miterlimit:4;stroke-dasharray:none;stroke-opacity:1"
             d="m -322.25884,771.47942 c 0,-1.85651 0.75029,-3.63699 2.08581,-4.94974 1.33552,-1.31276 3.14687,-2.05026 5.03558,-2.05026 1.8887,0 3.70006,0.7375 5.03558,2.05026 1.33552,1.31275 2.0858,3.09323 2.0858,4.94974 0,1.85652 -0.75028,3.63699 -2.0858,4.94975 -1.33552,1.31275 -3.14688,2.05025 -5.03558,2.05025 -1.88871,0 -3.70006,-0.7375 -5.03558,-2.05025 -1.33552,-1.31276 -2.08581,-3.09323 -2.08581,-4.94975 0,0 0,0 0,0"
             id="path3580" />
          <path
             style="opacity:1;fill:#ffffff;fill-opacity:1;stroke:#008200;stroke-width:0.99999994;stroke-linecap:round;stroke-linejoin:round;stroke-miterlimit:4;stroke-dasharray:none;stroke-opacity:1"
             d="m -322.25884,795.47942 c 0,-1.85651 0.75029,-3.63699 2.08581,-4.94974 1.33552,-1.31276 3.14687,-2.05026 5.03558,-2.05026 1.8887,0 3.70006,0.7375 5.03558,2.05026 1.33552,1.31275 2.0858,3.09323 2.0858,4.94974 0,1.85652 -0.75028,3.63699 -2.0858,4.94975 -1.33552,1.31275 -3.14688,2.05025 -5.03558,2.05025 -1.88871,0 -3.70006,-0.7375 -5.03558,-2.05025 -1.33552,-1.31276 -2.08581,-3.09323 -2.08581,-4.94975 0,0 0,0 0,0"
             id="path3578" />
          <path
             style="opacity:1;fill:#ffffff;fill-opacity:1;stroke:#008200;stroke-width:0.99999994;stroke-linecap:round;stroke-linejoin:round;stroke-miterlimit:4;stroke-dasharray:none;stroke-opacity:1"
             d="m -322.25884,819.47942 c 0,-1.85651 0.75029,-3.63699 2.08581,-4.94974 1.33552,-1.31276 3.14687,-2.05026 5.03558,-2.05026 1.8887,0 3.70006,0.7375 5.03558,2.05026 1.33552,1.31275 2.0858,3.09323 2.0858,4.94974 0,1.85652 -0.75028,3.63699 -2.0858,4.94975 -1.33552,1.31275 -3.14688,2.05025 -5.03558,2.05025 -1.88871,0 -3.70006,-0.7375 -5.03558,-2.05025 -1.33552,-1.31276 -2.08581,-3.09323 -2.08581,-4.94975 0,0 0,0 0,0"
             id="path3576" />
          <path
             style="opacity:1;fill:#ffffff;fill-opacity:1;stroke:#008200;stroke-width:0.99999994;stroke-linecap:round;stroke-linejoin:round;stroke-miterlimit:4;stroke-dasharray:none;stroke-opacity:1"
             d="m -322.25884,843.47942 c 0,-1.85651 0.75029,-3.63699 2.08581,-4.94974 1.33552,-1.31276 3.14687,-2.05026 5.03558,-2.05026 1.8887,0 3.70006,0.7375 5.03558,2.05026 1.33552,1.31275 2.0858,3.09323 2.0858,4.94974 0,1.85652 -0.75028,3.63699 -2.0858,4.94975 -1.33552,1.31275 -3.14688,2.05025 -5.03558,2.05025 -1.88871,0 -3.70006,-0.7375 -5.03558,-2.05025 -1.33552,-1.31276 -2.08581,-3.09323 -2.08581,-4.94975 0,0 0,0 0,0"
             id="path3574" />
          <path
             style="opacity:1;fill:#ffffff;fill-opacity:1;stroke:#008200;stroke-width:0.99999994;stroke-linecap:round;stroke-linejoin:round;stroke-miterlimit:4;stroke-dasharray:none;stroke-opacity:1"
             d="m -322.25884,867.47942 c 0,-1.85651 0.75029,-3.63699 2.08581,-4.94974 1.33552,-1.31276 3.14687,-2.05026 5.03558,-2.05026 1.8887,0 3.70006,0.7375 5.03558,2.05026 1.33552,1.31275 2.0858,3.09323 2.0858,4.94974 0,1.85652 -0.75028,3.63699 -2.0858,4.94975 -1.33552,1.31275 -3.14688,2.05025 -5.03558,2.05025 -1.88871,0 -3.70006,-0.7375 -5.03558,-2.05025 -1.33552,-1.31276 -2.08581,-3.09323 -2.08581,-4.94975 0,0 0,0 0,0"
             id="path3572" />
          <path
             style="opacity:1;fill:#ffffff;fill-opacity:1;stroke:#008200;stroke-width:0.99999994;stroke-linecap:round;stroke-linejoin:round;stroke-miterlimit:4;stroke-dasharray:none;stroke-opacity:1"
             d="m -322.25884,891.47942 c 0,-1.85651 0.75029,-3.63699 2.08581,-4.94974 1.33552,-1.31276 3.14687,-2.05026 5.03558,-2.05026 1.8887,0 3.70006,0.7375 5.03558,2.05026 1.33552,1.31275 2.0858,3.09323 2.0858,4.94974 0,1.85652 -0.75028,3.63699 -2.0858,4.94975 -1.33552,1.31275 -3.14688,2.05025 -5.03558,2.05025 -1.88871,0 -3.70006,-0.7375 -5.03558,-2.05025 -1.33552,-1.31276 -2.08581,-3.09323 -2.08581,-4.94975 0,0 0,0 0,0"
             id="path3570" />
          <path
             style="opacity:1;fill:#ffffff;fill-opacity:1;stroke:#008200;stroke-width:0.99999994;stroke-linecap:round;stroke-linejoin:round;stroke-miterlimit:4;stroke-dasharray:none;stroke-opacity:1"
             d="m -322.25884,915.47942 c 0,-1.85651 0.75029,-3.63699 2.08581,-4.94974 1.33552,-1.31276 3.14687,-2.05026 5.03558,-2.05026 1.8887,0 3.70006,0.7375 5.03558,2.05026 1.33552,1.31275 2.0858,3.09323 2.0858,4.94974 0,1.85652 -0.75028,3.63699 -2.0858,4.94975 -1.33552,1.31275 -3.14688,2.05025 -5.03558,2.05025 -1.88871,0 -3.70006,-0.7375 -5.03558,-2.05025 -1.33552,-1.31276 -2.08581,-3.09323 -2.08581,-4.94975 0,0 0,0 0,0"
             id="path3568" />
          <path
             style="opacity:1;fill:#ffffff;fill-opacity:1;stroke:#008200;stroke-width:0.99999994;stroke-linecap:round;stroke-linejoin:round;stroke-miterlimit:4;stroke-dasharray:none;stroke-opacity:1"
             d="m -322.25884,939.47942 c 0,-1.85651 0.75029,-3.63699 2.08581,-4.94974 1.33552,-1.31276 3.14687,-2.05026 5.03558,-2.05026 1.8887,0 3.70006,0.7375 5.03558,2.05026 1.33552,1.31275 2.0858,3.09323 2.0858,4.94974 0,1.85652 -0.75028,3.63699 -2.0858,4.94975 -1.33552,1.31275 -3.14688,2.05025 -5.03558,2.05025 -1.88871,0 -3.70006,-0.7375 -5.03558,-2.05025 -1.33552,-1.31276 -2.08581,-3.09323 -2.08581,-4.94975 0,0 0,0 0,0"
             id="path3566" />
        </g>
      </g>
      <path
         style="opacity:0.5;fill:#000000;fill-opacity:1;stroke:none;stroke-width:3.96000004;stroke-linecap:butt;stroke-linejoin:miter;stroke-miterlimit:4;stroke-dasharray:none;stroke-opacity:1"
         d="m 345.735,721.3194 73.53,0 -0.1,36.94704 -16.5825,-8.00315 -20.0825,0 -19.8825,0 -16.80444,8.00315 z"
         id="rect4725" />
    </g>
    <g
       id="g4378">
      <g
         id="g3695"
         transform="matrix(0.98154982,0,0,0.92598157,-16.09918,26.117347)"
         style="fill:#ffffff">
        <rect
           ry="26.998379"
           rx="25.469923"
           y="91.95079"
           x="135.09164"
           height="662"
           width="542"
           id="rect3689"
           style="opacity:1;fill:#ffffff;fill-opacity:1;stroke:#000000;stroke-width:8.3913641;stroke-linecap:round;stroke-linejoin:round;stroke-miterlimit:4;stroke-dasharray:none;stroke-opacity:1" />
        <rect
           style="opacity:1;fill:#ffffff;fill-opacity:1;stroke:#000000;stroke-width:4.19568253;stroke-linecap:round;stroke-linejoin:round;stroke-miterlimit:4;stroke-dasharray:none;stroke-opacity:1"
           id="rect3693"
           width="511.55002"
           height="624.94995"
           x="150.31664"
           y="110.47581"
           rx="25.469923"
           ry="26.998379" />
      </g>
      <g
         id="g4374">
        <path
           id="path3580-8"
           d="m 372.5,191.05671 c 0,-2.65216 1.05357,-5.1957 2.92894,-7.07106 1.87536,-1.87537 4.4189,-2.92894 7.07107,-2.92894 2.65215,0 5.1957,1.05357 7.07107,2.92894 1.87536,1.87536 2.92892,4.4189 2.92892,7.07106 0,2.65217 -1.05356,5.1957 -2.92892,7.07107 -1.87537,1.87536 -4.41892,2.92893 -7.07107,2.92893 -2.65217,0 -5.19571,-1.05357 -7.07107,-2.92893 -1.87537,-1.87537 -2.92894,-4.4189 -2.92894,-7.07107 0,0 0,0 0,0"
           style="opacity:1;fill:#c3c3c3;fill-opacity:1;stroke:none;stroke-width:0.99999994;stroke-linecap:round;stroke-linejoin:round;stroke-miterlimit:4;stroke-dasharray:none;stroke-opacity:1" />
        <path
           style="opacity:1;fill:#c3c3c3;fill-opacity:1;stroke:none;stroke-width:0.99999994;stroke-linecap:round;stroke-linejoin:round;stroke-miterlimit:4;stroke-dasharray:none;stroke-opacity:1"
           d="m 372.5,630.60864 c 0,-2.65216 1.05357,-5.1957 2.92894,-7.07106 1.87536,-1.87537 4.4189,-2.92894 7.07107,-2.92894 2.65215,0 5.1957,1.05357 7.07107,2.92894 1.87536,1.87536 2.92892,4.4189 2.92892,7.07106 0,2.65217 -1.05356,5.1957 -2.92892,7.07107 -1.87537,1.87536 -4.41892,2.92893 -7.07107,2.92893 -2.65217,0 -5.19571,-1.05357 -7.07107,-2.92893 -1.87537,-1.87537 -2.92894,-4.4189 -2.92894,-7.07107 0,0 0,0 0,0"
           id="path5659" />
      </g>
    </g>
    <a
       style="filter:url(#filter4264);stroke:#006100"
       id="a4106">
      <g
         id="g3486"
         transform="translate(-4.7177156e-7,-1.2192195)"
         style="stroke:#006100">
        <path
           id="path3377"
           d="m 338.52877,999.91066 c -0.39658,-4.3502 -1.23783,-9.97075 -1.86944,-12.49015 -1.30691,-17.31056 -5.44376,-17.4685 -7.09817,-21.0287 -0.60887,-1.3102 -1.72061,-3.7222 -2.47053,-5.3601 -0.74992,-1.6378 -1.76978,-3.4484 -2.26635,-4.0237 -0.49658,-0.5752 -0.7725,-1.1754 -0.61317,-1.3337 0.63495,-0.631 3.38273,1.2449 4.9038,3.3476 0.88611,1.2251 2.07863,2.3124 2.65007,2.4164 1.65795,0.3016 12.25563,11.821 14.164,15.3959 4.72215,8.8457 6.8799,16.60315 7.11779,25.58929 l 0.13402,5.0623 -6.96548,0.1671 -6.96549,0.1672 z"
           style="fill:#619200;stroke:#006100;stroke-width:1" />
        <path
           id="path3375"
           d="m 350.56744,1007.0173 c -0.17285,-0.4476 -0.77472,-3.7306 -1.3375,-7.29556 -1.31138,-8.3072 -0.95677,-19.2151 0.7819,-24.051 2.72214,-7.5714 7.24356,-15.2571 9.68812,-16.4682 0.77211,-0.3825 1.56968,-0.9207 1.77237,-1.196 0.39935,-0.5424 6.30783,-3.7761 6.89953,-3.7761 0.94429,0 0.10509,1.9316 -2.65294,6.1065 -1.65775,2.5094 -3.42597,5.713 -3.92939,7.1192 -1.52747,4.2667 -1.96581,11.9744 -1.05991,18.6369 0.99548,7.3215 2.22408,11.3454 4.72331,15.46966 1.05662,1.7437 2.0972,3.8675 2.31238,4.7195 l 0.39123,1.549 -8.63743,0 c -6.74975,0 -8.70609,-0.1778 -8.95167,-0.8139 z"
           style="fill:#619200;stroke:#006100;stroke-width:1" />
        <path
           id="path3373"
           d="m 368.83977,1005.0022 c -0.53355,-1.5558 -1.12871,-5.50891 -1.32257,-8.78451 -0.28877,-4.8794 -0.12802,-6.8409 0.88951,-10.8541 1.31947,-5.204 5.39549,-14.3357 7.53454,-16.8799 0.70706,-0.8409 2.08606,-3.0513 3.06445,-4.9119 0.97839,-1.8606 2.04858,-3.3872 2.3782,-3.3925 0.32962,-0.01 2.70307,-2.047 5.27431,-4.5373 2.57125,-2.4903 4.84398,-4.3599 5.05051,-4.1547 0.20655,0.2053 -0.3288,1.1074 -1.18965,2.0048 -2.43843,2.5419 -6.26452,11.1295 -8.02388,18.0096 -1.31806,5.1544 -1.60892,7.6666 -1.65486,14.2936 -0.0572,8.2475 1.11251,15.02281 2.82751,16.37801 0.71293,0.5633 3.40959,4.8296 3.40959,5.3941 0,0.1451 -3.8852,0.2638 -8.63379,0.2638 l -8.63378,0 -0.97009,-2.829 z"
           style="fill:#619200;stroke:#006100;stroke-width:1" />
        <path
           id="path3367"
           d="m 359.17691,1005.5978 c -0.0221,-1.2283 -0.16934,-4.9135 -0.32731,-8.18905 -0.15796,-3.2756 -8e-4,-7.6977 0.34841,-9.8268 0.34957,-2.1291 0.88298,-10.1572 1.18533,-17.8401 0.51802,-13.1627 0.48337,-14.1136 -0.60041,-16.4777 -1.17531,-2.5639 -3.67495,-4.9895 -5.14164,-4.9895 -0.44998,0 -0.81816,-0.402 -0.81816,-0.8934 0,-1.2989 0.49284,-1.1262 3.23453,1.1331 2.29915,1.8948 5.93644,8.1216 8.99597,15.4006 1.57855,3.7555 3.31986,11.1004 3.97931,16.7848 0.56051,4.8314 1.23501,9.0108 2.98502,18.4957 0.30218,1.63775 0.70828,4.25085 0.90243,5.80675 l 0.35303,2.829 -7.52821,0 -7.5282,0 -0.0401,-2.2334 z"
           style="fill:#619200;stroke:#006100;stroke-width:1" />
        <path
           id="path3365"
           d="m 383.82383,1003.8112 c 1.66481,-17.78413 5.46154,-29.58583 12.39515,-38.52903 5.21781,-6.73 9.94446,-8.339 11.72915,-3.9926 0.70504,1.717 0.67299,1.8742 -0.38208,1.8742 -0.63341,0 -1.98329,0.8762 -2.99972,1.9471 -4.08814,4.307 -6.41782,10.6769 -7.23826,19.7911 -0.32436,3.6031 -0.75968,7.2212 -0.96739,8.0401 -0.20772,0.8189 -0.34095,4.5039 -0.29608,8.18903 l 0.0816,6.7001 -6.34934,0 -6.34935,0 0.37634,-4.02 z"
           style="fill:#619200;stroke:#006100;stroke-width:1" />
        <path
           id="path3363"
           d="m 399.97443,1004.1089 c -5.8829,-17.76708 -5.72209,-26.44518 0.66696,-35.99008 0.91654,-1.3692 1.66645,-2.7092 1.66646,-2.9778 1e-5,-0.2686 0.95038,-1.2418 2.11193,-2.1628 1.16154,-0.921 2.7075,-2.9311 3.43547,-4.4667 0.93443,-1.9713 1.3868,-2.4696 1.53864,-1.6947 0.14405,0.735 0.58152,1.0023 1.32466,0.8091 1.05282,-0.2736 1.04526,-0.1317 -0.1478,2.7737 -3.91381,9.5311 -5.52354,20.3747 -4.07939,27.4802 1.43271,7.0491 2.95367,12.90438 3.55204,13.67448 0.26454,0.3404 0.76222,1.423 1.10596,2.4057 0.34373,0.9827 0.81626,2.2557 1.05006,2.829 0.38714,0.9492 -0.0844,1.0422 -5.28371,1.0422 l -5.70878,0 -1.2325,-3.7223 z"
           style="fill:#619200;stroke:#006100;stroke-width:1" />
        <path
           id="path3361"
           d="m 387.36445,1006.1934 c 1.96948,-3.8346 4.84172,-15.50501 5.82641,-23.67371 1.26039,-10.456 0.35038,-27.0251 -1.79182,-32.6242 -0.50122,-1.3101 -0.4506,-1.6208 0.26403,-1.6208 0.48629,0 0.89272,0.469 0.90321,1.0422 0.0105,0.5733 0.41503,1.5625 0.89897,2.1984 0.48397,0.6358 0.87993,1.5527 0.87993,2.0376 0,0.4847 0.35697,1.3046 0.79328,1.8217 0.43632,0.5171 1.6751,2.9503 2.75286,5.407 1.07777,2.4566 2.30093,4.8687 2.71815,5.36 1.15056,1.355 2.12307,6.0185 2.52588,12.1124 0.5899,8.9242 -1.42996,19.7886 -4.97294,26.74821 l -1.44015,2.829 -5.09951,0 -5.0995,0 0.8412,-1.6378 z"
           style="fill:#619200;stroke:#006100;stroke-width:1" />
        <path
           id="path3359"
           d="m 410.56375,1001.4289 c -0.008,-3.52133 -0.15137,-8.41243 -0.31893,-10.86913 -0.16755,-2.4567 -0.40546,-7.0128 -0.52867,-10.1246 -0.34867,-8.806 -1.21171,-11.2841 -5.12634,-14.7194 l -1.50325,-1.3191 3.24082,1.2034 c 6.7182,2.4949 7.15535,2.844 10.51157,8.3953 2.6312,4.3521 4.28096,11.9924 5.28072,24.4557 l 0.75244,9.38013 -6.14704,0 -6.14703,0 -0.0143,-6.4023 z"
           style="fill:#619200;stroke:#006100;stroke-width:1" />
        <path
           id="path3357"
           d="m 419.65864,1003.4014 c 0,-12.02961 5.77983,-23.77171 16.94812,-34.43081 3.46981,-3.3117 6.58858,-5.8068 7.25815,-5.8068 1.11739,0 1.109,0.069 -0.17406,1.426 -0.78291,0.8282 -1.85351,3.3875 -2.55362,6.1045 -0.66303,2.5733 -1.41,4.9466 -1.65994,5.2741 -0.24996,0.3276 -0.75417,1.8017 -1.1205,3.2757 -2.88913,11.6254 -3.68651,16.7227 -3.70331,23.67371 l -0.0119,4.9134 -7.49148,0 -7.49148,0 0,-4.4298 z"
           style="fill:#619200;stroke:#006100;stroke-width:1" />
        <path
           id="path3355"
           d="m 405.40926,1004.7044 c 2.52236,-6.41691 12.13986,-24.04671 17.1951,-31.52021 2.87729,-4.2536 5.53117,-8.2586 5.8975,-8.9 0.36632,-0.6413 1.06079,-1.4908 1.54323,-1.8877 0.48245,-0.3969 2.2462,-2.4636 3.91944,-4.5928 1.67324,-2.1291 3.74314,-4.5209 4.59978,-5.315 0.85664,-0.7941 1.58498,-1.7321 1.61852,-2.0844 0.0336,-0.3524 1.382,-1.8176 2.99659,-3.256 l 2.93561,-2.6154 0,1.9039 c 0,1.3591 -1.20201,3.7124 -4.20152,8.2256 -3.35318,5.0453 -11.75652,20.9375 -14.41527,27.2617 -3.90035,9.2777 -6.29072,15.8519 -8.06623,22.18481 l -1.04359,3.7223 -7.1041,0 -7.1041,0 1.22904,-3.1268 z"
           style="fill:#619200;stroke:#006100;stroke-width:1" />
        <path
           id="path3351"
           d="m 324.23383,1005.5978 c -3.64514,-8.42302 -4.71053,-18.17122 -3.01037,-27.54492 0.73409,-4.0472 3.50481,-9.8037 6.53961,-13.5866 1.1425,-1.4242 1.63902,0.7222 1.88135,8.1331 0.36173,11.063 3.42535,18.8353 11.75335,29.81822 1.9602,2.5851 3.56401,4.8607 3.56401,5.0569 0,0.1962 -4.44632,0.3567 -9.88072,0.3567 l -9.88072,0 -0.96651,-2.2334 z"
           style="fill:#619200;stroke:#006100;stroke-width:1" />
      </g>
    </a>
  </g>
</svg>
