<?xml version="1.0" encoding="UTF-8" standalone="no"?>
<!-- Created with Inkscape (http://www.inkscape.org/) -->

<svg
   xmlns:svg="http://www.w3.org/2000/svg"
   xmlns="http://www.w3.org/2000/svg"
   xmlns:xlink="http://www.w3.org/1999/xlink"
   xmlns:sodipodi="http://sodipodi.sourceforge.net/DTD/sodipodi-0.dtd"
   xmlns:inkscape="http://www.inkscape.org/namespaces/inkscape"
   width="885.82672"
   height="885.82672"
   id="svg2"
   version="1.1"
   inkscape:version="0.48+devel r9772"
   sodipodi:docname="OnlyWine-110.svg">
  <g
     inkscape:label="Background"
     inkscape:groupmode="layer"
     id="layer1"
     transform="translate(0,-166.5355)"
     sodipodi:insensitive="true">
    <rect
       style="color:#000000;fill:#ffffff;stroke:#800000;stroke-width:9.93276978;stroke-linecap:butt;stroke-linejoin:miter;stroke-miterlimit:4;stroke-opacity:1;stroke-dasharray:none;stroke-dashoffset:0;marker:none;visibility:visible;display:inline;overflow:visible;enable-background:accumulate"
       id="rect3840"
       width="875.90057"
       height="875.89392"
       x="4.9630871"
       y="171.50191" />
    <g
       id="g3889"
       style="fill:#800000">
      <path
         d="m 713.3786,1026.9622 -4.32,5.28 -10.92,0 -3.28,-5.28 0,-16.2 3.96,-4.88 10.68,0 3.88,4.88 0,16.2 m -5.32,-0.32 0,-15.72 -1.92,-2.36 -2.96,0 -1.48,2.36 0,15.72 1.6,2.92 2.88,0 1.88,-2.92"
         style="font-size:40px;font-style:normal;font-variant:normal;font-weight:normal;font-stretch:normal;text-align:start;line-height:125%;letter-spacing:0px;word-spacing:0px;writing-mode:lr-tb;text-anchor:start;fill:#800000;fill-opacity:1;stroke:none;font-family:LambrettistA;-inkscape-font-specification:LambrettistA"
         id="path3847"
         inkscape:connector-curvature="0" />
      <path
         d="m 737.71047,1008.0022 -23,0 0,-2.12 23,0 0,2.12 m -2.36,18.12 c -3.73335,0 -6.36001,0.013 -7.88,0.04 l 0,-10.6 -3.04,2 -0.04,8.56 -5.44,0.04 c 0,0 0,-3.8133 0,-11.44 l -2.88,0 c -0.0267,-1.52 -0.0267,-2.2666 0,-2.24 l 8.24,0 0,2.08 3.52,-2.08 5.08,0 c -2e-5,0 -2e-5,3.7734 0,11.32 l 2.44,0 0,2.32 m 2.68,6.08 -23.32,-0.04 0,-2.72 23.32,0.04 c -2e-5,0 -2e-5,0.9067 0,2.72"
         style="font-size:40px;font-style:normal;font-variant:normal;font-weight:normal;font-stretch:normal;text-align:start;line-height:125%;letter-spacing:0px;word-spacing:0px;writing-mode:lr-tb;text-anchor:start;fill:#800000;fill-opacity:1;stroke:none;font-family:LambrettistA;-inkscape-font-specification:LambrettistA"
         id="path3849"
         inkscape:connector-curvature="0" />
      <path
         d="m 751.53797,1008.0022 -3.72,0 c -10e-6,-0.7199 -10e-6,-1.1199 0,-1.2 -0.0267,-0.08 -0.04,-0.3866 -0.04,-0.92 l 3.76,0 0,2.12 m -3.08,18.12 -7.88,0 0.04,-21.12 -2.12,0 0,-2.32 7.76,0 0,20.92 2.2,0 0,2.52 m 3.2,6.08 -14.88,0 c 0,0 0,-0.92 0,-2.76 l 14.84,0 c -10e-6,0.7467 0.0133,1.6667 0.04,2.76"
         style="font-size:40px;font-style:normal;font-variant:normal;font-weight:normal;font-stretch:normal;text-align:start;line-height:125%;letter-spacing:0px;word-spacing:0px;writing-mode:lr-tb;text-anchor:start;fill:#800000;fill-opacity:1;stroke:none;font-family:LambrettistA;-inkscape-font-specification:LambrettistA"
         id="path3851"
         inkscape:connector-curvature="0" />
      <path
         d="m 769.71672,1008.0422 -18.92,0.04 c 0,-1.4666 0,-2.1999 0,-2.2 l 18.88,0 c 0.0267,1.3334 0.04,2.0534 0.04,2.16 m -1.76,24.88 -2.16,3.32 -10.68,0 0,-2.68 5.72,0 1.44,-1.44 0,-6.84 -0.84,0.84 -6.56,0 -1.72,-2.2 0,-11.44 5,0 0,11.36 4.12,0 0,-11.36 5.68,0 0,20.44 m -8.36,-0.72 -8.8,0 0,-2.76 8.8,0.04 0,2.72"
         style="font-size:40px;font-style:normal;font-variant:normal;font-weight:normal;font-stretch:normal;text-align:start;line-height:125%;letter-spacing:0px;word-spacing:0px;writing-mode:lr-tb;text-anchor:start;fill:#800000;fill-opacity:1;stroke:none;font-family:LambrettistA;-inkscape-font-specification:LambrettistA"
         id="path3853"
         inkscape:connector-curvature="0" />
      <path
         d="m 811.3811,1032.2422 -5.2,0 0,-2.72 5.2,0 0,2.72 m -2.64,-9.64 -9.64,9.68 c -2.00002,0 -3.80002,-0.013 -5.4,-0.04 -0.08,0 -0.10668,-1.3733 -0.08,-4.12 l -4.76,4.24 c -10e-6,-0.027 -0.0134,-0.053 -0.04,-0.08 l -5.12,0 c -10e-6,0 -10e-6,-7.8666 0,-23.6 l -3.48,0 -0.04,-2.76 8.96,0 0,23.08 4.36,-4.44 -0.04,-18.64 c 2.18665,10e-5 4.03998,-0.013 5.56,-0.04 l 0,22.76 4.2,-4.24 0.04,-18.52 c 1.38664,0.027 3.2133,0.04 5.48,0.04 -3e-5,3.2801 -3e-5,8.84 0,16.68"
         style="font-size:40px;font-style:normal;font-variant:normal;font-weight:normal;font-stretch:normal;text-align:start;line-height:125%;letter-spacing:0px;word-spacing:0px;writing-mode:lr-tb;text-anchor:start;fill:#800000;fill-opacity:1;stroke:none;font-family:LambrettistA;-inkscape-font-specification:LambrettistA"
         id="path3855"
         inkscape:connector-curvature="0" />
      <path
         d="m 820.20235,1008.0422 -5.72,0 0,-2.16 5.72,0 0,2.16 m -0.28,18.08 -5.52,0 c -0.0267,-2.16 -0.0267,-5.92 0,-11.28 l -2.84,0.04 c -0.0267,-1.5733 -0.0267,-2.3733 0,-2.4 l 8.36,0 0,13.64 m 3.6,6.04 -12.64,0 c 0,0 0,-0.9066 0,-2.72 l 12.64,0 0,2.72"
         style="font-size:40px;font-style:normal;font-variant:normal;font-weight:normal;font-stretch:normal;text-align:start;line-height:125%;letter-spacing:0px;word-spacing:0px;writing-mode:lr-tb;text-anchor:start;fill:#800000;fill-opacity:1;stroke:none;font-family:LambrettistA;-inkscape-font-specification:LambrettistA"
         id="path3857"
         inkscape:connector-curvature="0" />
      <path
         d="m 845.67922,1008.0022 -23,0 0,-2.12 23,0 0,2.12 m -2.36,18.12 c -3.73335,0 -6.36001,0.013 -7.88,0.04 l 0,-10.6 -3.04,2 -0.04,8.56 -5.44,0.04 c 0,0 0,-3.8133 0,-11.44 l -2.88,0 c -0.0267,-1.52 -0.0267,-2.2666 0,-2.24 l 8.24,0 0,2.08 3.52,-2.08 5.08,0 c -2e-5,0 -2e-5,3.7734 0,11.32 l 2.44,0 0,2.32 m 2.68,6.08 -23.32,-0.04 0,-2.72 23.32,0.04 c -2e-5,0 -2e-5,0.9067 0,2.72"
         style="font-size:40px;font-style:normal;font-variant:normal;font-weight:normal;font-stretch:normal;text-align:start;line-height:125%;letter-spacing:0px;word-spacing:0px;writing-mode:lr-tb;text-anchor:start;fill:#800000;fill-opacity:1;stroke:none;font-family:LambrettistA;-inkscape-font-specification:LambrettistA"
         id="path3859"
         inkscape:connector-curvature="0" />
      <path
         d="m 865.78672,1005.8422 -0.04,2.16 -21.48,0 c 0,10e-5 0,-0.7066 0,-2.12 l 21.52,-0.04 m -3,20.24 -12.84,0 -2.28,-1.68 0,-10.2 2.4,-1.88 10.24,0 2.32,1.84 0.04,5.52 -2.32,1.6 -7.32,0 c -10e-6,0.64 0.0133,1.0667 0.04,1.28 0.0533,0.2134 0.08,0.6134 0.08,1.2 l 9.64,0.04 c 0.0533,0.9067 0.0533,1.6667 0,2.28 m 3.04,6.08 -21.24,0 c 0,0 0,-0.92 0,-2.76 l 21.24,0 c -0.0533,1.4934 -0.0533,2.4134 0,2.76 m -8.4,-13.04 0,-4.44 -4.4,0 0,4.44 4.4,0"
         style="font-size:40px;font-style:normal;font-variant:normal;font-weight:normal;font-stretch:normal;text-align:start;line-height:125%;letter-spacing:0px;word-spacing:0px;writing-mode:lr-tb;text-anchor:start;fill:#800000;fill-opacity:1;stroke:none;font-family:LambrettistA;-inkscape-font-specification:LambrettistA"
         id="path3861"
         inkscape:connector-curvature="0" />
    </g>
  </g>
  <g
     inkscape:groupmode="layer"
     id="layer2"
     inkscape:label="Draw">
    <g
       id="g75684"
       transform="matrix(1.0394657,0,0,1.0394657,-14.17248,-17.479896)">
      <path
         sodipodi:nodetypes="cssscssccccc"
         style="fill:#800000;fill-opacity:1;stroke:none"
         d="m 272.89613,355.55687 c 169.43079,0.10355 185.3886,1.99692 239.17615,28.45591 49.03937,24.12335 74.38978,28.40432 170.01672,28.71102 104.57987,0.33546 112.38441,1.96137 112.38441,23.41359 0,21.38347 -7.72188,23.06128 -106.6207,23.1657 -92.19682,0.092 -115.19693,4.30639 -170.01672,31.11299 -58.96471,28.83334 -76.08584,31.31332 -244.93929,35.47982 l -181.543355,4.4794 -6.363698,-87.46196 6.363698,-87.4619 181.543355,0.10344 z"
         id="path3993"
         inkscape:connector-curvature="0" />
      <path
         sodipodi:nodetypes="cccccccc"
         inkscape:connector-curvature="0"
         id="path74880"
         d="m 769.76295,451.43664 -179.52021,4.08001 c -62.71846,10.11544 -94.96586,50.45658 -165.9202,54.40005 L 97.922164,521.47672 c -1.145483,-4.25766 -0.539869,-8.32073 1.359998,-12.24002 374.570278,-0.13903 396.317138,-34.13841 481.317288,-60.89384 -1.18851,-2.98896 136.45838,1.38264 199.61006,0.12328 -1.90904,3.52971 4.33882,1.05034 -10.44656,2.9705 z"
         style="color:#000000;fill:#ffffff;stroke:#ffffff;stroke-width:1.42553818;stroke-linecap:round;stroke-linejoin:round;stroke-miterlimit:4;stroke-opacity:1;stroke-dasharray:none;stroke-dashoffset:0;marker:none;visibility:visible;display:inline;overflow:visible;enable-background:accumulate" />
      <path
         d="m 158.53168,454.58668 c -4.29008,6.45753 -8.51971,13.62677 -7.11276,21.75086 -3.43414,3.87589 -16.38687,18.05844 -21.54669,18.49675 -3.5585,0.30228 -4.61783,-3.72954 -4.85966,-6.57634 -0.24182,-2.84679 1.12934,-7.80191 1.77714,-10.72428 5.95186,-5.88185 21.15027,-25.27302 20.47014,-33.27963 -0.3174,-3.73642 -8.53217,-3.39702 -11.02312,-3.18542 -6.22737,0.529 -26.66117,19.46887 -24.57541,44.02248 1.14868,13.52228 9.39925,26.26209 19.89681,25.37035 6.93906,-0.58946 23.57944,-17.77339 28.07767,-23.89018 3.20609,1.87816 5.90865,4.15751 9.64507,3.84011 9.96379,-0.8464 16.07848,-6.9213 21.70128,-14.56728 l -1.88027,-7.36705 c -3.68763,3.00138 -9.893,8.00873 -14.51905,8.4017 -2.8468,0.24183 -4.13762,-0.18615 -6.24593,-1.79914 3.91912,-6.60522 12.81803,-24.2068 12.21346,-31.32379 -0.30228,-3.55849 -2.27802,-5.72038 -5.83651,-5.41809 -6.22737,0.52899 -13.17945,11.51367 -16.18217,16.24895"
         style="font-size:178.56570435px;font-style:normal;font-variant:normal;font-weight:500;font-stretch:normal;text-align:start;line-height:125%;letter-spacing:0px;word-spacing:0px;writing-mode:lr-tb;text-anchor:start;fill:#ffffff;fill-opacity:1;stroke:none;font-family:Brush Script Std;-inkscape-font-specification:Brush Script Std Medium"
         id="path75669"
         inkscape:connector-curvature="0" />
      <path
         d="m 237.20026,473.76749 c -6.67867,5.76439 -15.12974,15.98035 -24.55975,16.78141 -8.18453,0.69525 -11.18593,-2.9924 -10.38221,-10.40822 7.03453,-5.79461 23.30393,-23.12625 22.54822,-32.02249 -0.33251,-3.91434 -5.22718,-4.57381 -8.25189,-4.31687 -10.67548,0.90685 -31.11751,23.96921 -29.27358,45.67602 0.77082,9.07417 6.60257,20.76499 17.10013,19.87325 13.52228,-1.14868 27.81941,-18.49198 34.99475,-28.95798 l -2.17567,-6.62512 m -11.33997,-34.34083 c 7.65077,-0.64991 13.49339,-9.92747 12.88882,-17.04446 -0.27205,-3.20264 -3.13741,-5.28896 -6.34005,-5.0169 -6.93907,0.58945 -14.93536,7.72023 -14.31568,15.01515 0.36274,4.27019 3.49672,7.40895 7.76691,7.04621"
         style="font-size:178.56570435px;font-style:normal;font-variant:normal;font-weight:500;font-stretch:normal;text-align:start;line-height:125%;letter-spacing:0px;word-spacing:0px;writing-mode:lr-tb;text-anchor:start;fill:#ffffff;fill-opacity:1;stroke:none;font-family:Brush Script Std;-inkscape-font-specification:Brush Script Std Medium"
         id="path75671"
         inkscape:connector-curvature="0" />
      <path
         d="m 310.86877,477.09374 c -2.97594,2.94093 -10.27564,9.83333 -14.54583,10.19607 -1.77925,0.15114 -3.33868,-1.32927 -3.47471,-2.93059 -1.04288,-12.27682 19.6932,-27.65817 19.10375,-34.59723 -0.85117,-3.69108 -2.19078,-6.80305 -3.48503,-9.38124 -1.27916,-2.40026 -2.42227,-3.1992 -3.13398,-3.13874 -5.15982,0.43831 -36.03896,25.10411 -48.7313,44.46156 -0.63613,0.95008 -2.10142,2.68743 -3.34689,2.79323 -1.06755,0.0907 -2.03275,-0.72337 -2.12343,-1.79091 -0.36274,-4.27019 20.52925,-24.14501 19.9398,-31.08407 -0.0907,-1.06756 0.58733,-3.63408 -10.11838,-3.08307 -3.02472,0.25694 -4.61094,0.5709 -6.7577,2.72455 -9.57904,9.59494 -19.26178,28.51757 -17.68512,40.74903 0.6918,6.03433 3.60117,17.07735 11.42987,16.41232 4.80396,-0.40808 10.64659,-9.68563 13.0283,-13.29292 7.12998,-10.99977 15.41823,-21.0227 25.08795,-29.55009 l 0.38609,0.32562 c -4.99834,8.66819 -13.60876,21.22742 -12.70191,31.9029 0.51389,6.04944 4.2002,11.47099 10.96134,10.89665 12.98851,-1.10333 29.45575,-24.54487 38.17539,-33.70839 l -2.08842,-7.70778 -9.91979,9.8031"
         style="font-size:178.56570435px;font-style:normal;font-variant:normal;font-weight:500;font-stretch:normal;text-align:start;line-height:125%;letter-spacing:0px;word-spacing:0px;writing-mode:lr-tb;text-anchor:start;fill:#ffffff;fill-opacity:1;stroke:none;font-family:Brush Script Std;-inkscape-font-specification:Brush Script Std Medium"
         id="path75673"
         inkscape:connector-curvature="0" />
      <path
         d="m 365.6474,446.9928 c -4.29008,6.45752 -8.51972,13.62677 -7.11276,21.75085 -3.43414,3.87589 -16.38688,18.05844 -21.5467,18.49675 -3.55849,0.30229 -4.61782,-3.72954 -4.85965,-6.57634 -0.24183,-2.84678 1.12934,-7.8019 1.77714,-10.72427 5.95186,-5.88186 21.15027,-25.27302 20.47013,-33.27964 -0.31739,-3.73641 -8.53217,-3.39702 -11.02312,-3.18542 -6.22737,0.529 -26.66116,19.46887 -24.5754,44.02248 1.14868,13.52228 9.39925,26.26209 19.8968,25.37035 6.93907,-0.58945 23.57944,-17.77339 28.07768,-23.89018 3.20609,1.87816 5.90865,4.15751 9.64507,3.84011 9.96379,-0.84639 16.07848,-6.9213 21.70128,-14.56728 l -1.88027,-7.36705 c -3.68764,3.00138 -9.89301,8.00874 -14.51906,8.40171 -2.84679,0.24183 -4.13761,-0.18615 -6.24592,-1.79915 3.91912,-6.60522 12.81803,-24.20679 12.21346,-31.32378 -0.30228,-3.5585 -2.27802,-5.72038 -5.83652,-5.4181 -6.22736,0.529 -13.17944,11.51368 -16.18216,16.24896"
         style="font-size:178.56570435px;font-style:normal;font-variant:normal;font-weight:500;font-stretch:normal;text-align:start;line-height:125%;letter-spacing:0px;word-spacing:0px;writing-mode:lr-tb;text-anchor:start;fill:#ffffff;fill-opacity:1;stroke:none;font-family:Brush Script Std;-inkscape-font-specification:Brush Script Std Medium"
         id="path75675"
         inkscape:connector-curvature="0" />
      <path
         d="m 480.71306,445.37307 0.4203,0.28006 c -2.9399,8.05516 -9.03024,22.20442 -7.27736,30.95894 1.01667,5.07761 5.71025,9.41903 10.96296,8.3673 9.80506,-1.96323 30.88129,-27.67221 37.8134,-35.79826 l -2.69825,-8.01891 c -18.59126,19.01967 -20.51728,19.40533 -24.01888,21.01698 -1.99592,0.94597 -4.83302,-1.39972 -5.07862,-3.53587 -0.63124,-4.06214 -0.14161,-7.07395 10.50048,-24.8662 1.5053,-2.48673 4.23585,-7.03988 3.63987,-10.0164 -0.49081,-2.45127 -2.94267,-4.692 -4.55394,-6.37259 -0.6655,-0.59519 -3.25779,-4.44679 -4.65851,-4.16632 -2.10109,0.42069 -5.77719,4.79895 -7.24764,6.55024 l -32.735,38.42364 -0.42029,-0.28006 c 2.48473,-7.59981 12.07648,-24.27124 10.53395,-31.97521 -0.9115,-4.55234 -4.06391,-7.56335 -8.79135,-6.6168 -11.38087,2.27875 -36.30674,39.68513 -43.09822,50.33256 -0.42009,0.63044 -2.06542,3.32731 -2.94088,3.5026 -0.70036,0.14027 -1.47103,-0.98023 -1.54115,-1.33041 -0.73621,-3.67689 1.85449,-7.1094 3.25463,-10.12138 1.85508,-4.37785 5.07604,-8.30076 7.49145,-12.60869 1.61028,-2.87196 5.46108,-9.10629 4.75993,-12.60809 -0.73621,-3.6769 -5.98893,-2.62517 -8.6854,-2.44949 -10.78588,0.70273 -24.64775,27.88098 -21.38719,45.07489 1.26207,6.30325 6.44785,19.4695 14.85218,17.78674 3.15163,-0.63104 5.07703,-3.74821 6.54728,-6.41002 6.1959,-11.80294 13.89752,-24.27162 21.07405,-35.72457 0.98022,-1.47104 3.99083,-6.44448 5.74173,-6.79506 0.70036,-0.14027 1.33081,0.27986 1.47104,0.98023 0.10513,0.52528 -0.31472,2.06622 -0.59479,2.48652 -7.91017,19.61268 -10.49969,28.50825 -9.30793,33.55082 1.01647,4.1671 4.97424,6.65264 9.1764,5.81126 5.95308,-1.19197 10.81897,-9.63275 14.07478,-14.29106 l 22.72097,-31.13739"
         style="font-size:178.56570435px;font-style:normal;font-variant:normal;font-weight:500;font-stretch:normal;text-align:start;line-height:125%;letter-spacing:0px;word-spacing:0px;writing-mode:lr-tb;text-anchor:start;fill:#ffffff;fill-opacity:1;stroke:none;font-family:Brush Script Std;-inkscape-font-specification:Brush Script Std Medium"
         id="path75677"
         inkscape:connector-curvature="0" />
    </g>
  </g>
</svg>
