<?xml version="1.0" encoding="utf-8"?>
<!DOCTYPE svg PUBLIC "-//W3C//DTD SVG 1.1//EN" "http://www.w3.org/Graphics/SVG/1.1/DTD/svg11.dtd">
<svg version="1.1" id="Layer_1" xmlns="http://www.w3.org/2000/svg" xmlns:xlink="http://www.w3.org/1999/xlink" x="0px" y="0px"
	 viewBox="0 0 1488.1064 1637.2219" enable-background="new 0 0 1488.1064 1637.2219" xml:space="preserve">
<g>
	<path fill="#FF0000" d="M43.1728,344.6408c161.0543-0.2574,322.1086-0.1839,483.163-0.0368
		c42.7272-1.9488,80.2698,41.1461,70.8933,83.1746c-5.9568,19.709-10.9576,42.0286,0.1471,61.0021
		c15.4435,31.8064,60.7814,42.1756,88.6534,20.5914c15.8112-10.5163,22.7976-29.0854,25.776-47.0661
		c1.912,42.0286,0.5883,84.1674,0.809,126.2328c-11.7298-17.8337-28.5339-32.7992-49.7872-37.6897
		c-33.4978-11.215-70.2682-0.4412-103.1041-14.083c-30.4827-11.7298-54.3834-39.6385-59.9725-71.9965
		c-3.0152-13.3844-0.4413-27.1365-1.1031-40.6681c-1.5811-18.569-20.187-33.0566-38.6089-30.593
		c-96.6693,7.8321-193.3387,16.2893-290.0081,24.4155c-22.0255,1.5076-45.2276,6.3981-66.4441-2.0959
		C73.6186,403.5102,51.299,375.7485,43.1728,344.6408z"/>
	<path fill="#FF0000" d="M948.276,345.8174c16.1055-2.3166,32.4315-0.3677,48.6473-0.2942
		c149.3245,2.7578,298.6859,5.8098,448.0104,9.0088c-7.8689,29.5634-31.4755,54.0893-60.8551,62.7671
		c-20.7384,6.251-42.5432,2.3901-63.6495,0.8825c-95.6396-8.2733-191.3163-16.1054-286.9561-24.4523
		c-14.0463-2.0959-29.5266,1.8385-37.8735,14.0463c-9.6707,11.7298-5.6994,27.7249-6.2509,41.5873
		c0.5883,37.8-25.2614,73.2834-60.0829,86.962c-31.8799,13.8625-67.6575,3.7506-100.4935,13.5315
		c-22.6138,4.6331-41.7344,19.3412-53.4641,38.9766c0.3677-40.7783,0.1838-81.52,0.0367-122.2983
		c5.6259,20.5914,17.1718,41.4402,38.1309,49.4562c31.4387,14.5243,72.3274-4.2654,81.3362-37.8
		c9.3764-23.4228-8.2366-46.0365-4.9273-69.6799C892.2747,377.6606,917.6095,350.3402,948.276,345.8174z"/>
	<path fill="#FF0000" d="M139.9892,431.1615c105.5311-9.45,211.1724-17.944,316.7402-27.0262
		c8.6778-1.6179,16.7673,1.8753,24.5259,5.2949c-6.3245,9.7074-12.3549,19.6354-17.7234,29.8943
		c-74.6071,10.6267-149.3246,20.7018-223.9317,31.2916c-15.8848,2.0959-32.3212,5.8097-48.0957,1.0296
		C169.4055,466.2405,152.1234,449.7306,139.9892,431.1615z"/>
	<path fill="#FF0000" d="M1006.3732,409.0993c8.5308-3.5299,17.5762-6.4716,26.9528-4.8169
		c104.8324,9.1926,209.8119,17.2453,314.6075,27.063c-16.0687,25.4084-44.3083,45.7056-75.6,42.433
		c-82.5128-11.1046-164.9153-23.0918-247.4648-34.1229C1019.059,429.2127,1012.7713,419.1008,1006.3732,409.0993z"/>
	<path fill="#FF0000" d="M466.4735,478.963c0.2942-21.2901,7.3908-42.8375,21.7681-58.8326
		c0.5148,15.8848-1.6179,31.9535,1.434,47.6912c6.2142,34.0126,30.7033,63.5025,62.3258,77.1075
		c39.3076,18.4955,85.8956,1.6914,124.5413,22.5402c22.4667,11.2885,32.3947,36.513,35.1893,60.1564
		c-13.0535-20.0399-31.696-38.8663-56.6632-41.6608c-34.4171-2.4269-69.018,0.9928-103.4351-1.6179
		C502.2879,576.9194,464.9659,528.1251,466.4735,478.963z"/>
	<path fill="#FF0000" d="M999.7546,420.1304c20.5178,23.6434,26.6954,57.9134,18.1277,87.7342
		c-10.1854,38.3148-42.9478,71.4816-83.0643,76.6295c-34.4171,2.3901-69.0179-1.1399-103.3983,1.6914
		c-24.4891,3.0519-41.6608,21.9887-55.4498,40.7048c3.4932-22.908,12.5388-47.728,34.4539-58.9062
		c38.3516-21.3636,84.7926-4.7802,124.1001-22.4667c31.1813-12.98,55.8175-41.2196,62.9509-74.3865
		C1001.9976,454.4739,999.4236,437.1183,999.7546,420.1304z"/>
	<path fill="#FF0000" d="M224.5979,483.7432c78.1739-12.1342,156.7154-22.0255,235.0731-33.2036
		c-2.6107,12.2813-3.7506,24.7833-4.2654,37.2852c-50.927,10.1119-101.5598,21.7681-152.4868,31.6593
		C272.1788,525.3673,240.9975,509.7031,224.5979,483.7432z"/>
	<path fill="#FF0000" d="M1028.4722,450.4292c78.2107,11.5459,156.7155,21.0695,234.8525,33.314
		c-9.928,13.5315-22.1357,26.2173-38.3147,31.9902c-17.944,7.0599-37.7264,5.0376-56.0748,0.809
		c-45.485-9.8177-91.0436-19.2677-136.5653-28.9015C1031.7815,475.1757,1030.4579,462.7473,1028.4722,450.4292z"/>
	<path fill="#FF0000" d="M310.1993,529.3752c48.6472-11.3253,97.7357-20.6282,146.4933-31.4019
		c2.9784,11.9872,6.6555,23.7537,11.2517,35.226c-27.1733,8.4572-54.3834,16.8776-81.7406,24.8201
		C357.7435,565.2264,328.6581,550.5917,310.1993,529.3752z"/>
	<path fill="#FF0000" d="M1031.2668,498.1204c48.7574,10.406,97.699,20.187,146.3461,31.1078
		c-18.238,21.5475-47.5809,35.8879-76.0043,28.7913c-27.3206-7.9792-54.5306-16.4364-81.7407-24.7465
		C1024.4275,521.8005,1028.2516,510.0708,1031.2668,498.1204z"/>
	<path fill="#FF0000" d="M389.8808,568.4622c27.5043-9.45,55.5968-17.1718,83.432-25.7025
		c8.7146,12.3917,19.047,23.5331,30.7401,33.2037c-15.9216,6.5819-31.1445,15.8848-48.3163,18.8265
		C431.2843,596.2974,406.7952,586.0016,389.8808,568.4622z"/>
	<path fill="#FF0000" d="M983.9065,575.7795c11.7666-9.5236,22.0623-20.7017,30.7769-33.0566
		c27.7617,8.6411,55.8174,16.3629,83.3951,25.6657c-17.3922,17.944-42.7272,28.6442-67.8046,26.1438
		C1013.8744,591.1127,999.1294,582.5084,983.9065,575.7795z"/>
	<path fill="#FF0000" d="M471.1066,602.6219c14.3405-7.207,29.1589-13.3845,43.9038-19.709
		c31.6593,17.7969,68.7239,12.3181,103.3984,12.98c20.2238,0.2206,42.8007-2.6843,60.0828,10.2957
		c25.2245,17.0982,32.4315,49.4929,35.1157,77.8797c-7.2806-19.1574-21.1062-35.9614-40.6681-43.2052
		c-48.7575-20.334-102.6261-8.016-153.6635-13.4579C500.8906,624.868,484.9323,614.4619,471.1066,602.6219z"/>
	<path fill="#FF0000" d="M972.8386,582.9497c14.6346,6.251,29.306,12.4284,43.72,19.2309
		c-13.2006,12.2446-29.0486,22.3932-47.1765,25.0775c-52.3977,5.9568-108.252-7.5012-157.9288,15.1862
		c-18.2381,7.5379-30.6665,23.9375-36.4395,42.433c1.2502-21.9887,5.2214-44.8599,18.5323-63.0613
		c10.406-14.3036,26.7321-25.0038,44.7863-25.629c29.5634-0.9927,59.1636,0.4413,88.7269-0.478
		C943.1282,595.1575,958.4614,589.8258,972.8386,582.9497z"/>
	<path fill="#0000FF" d="M509.3846,672.1179c31.2916-22.2461,71.5184-26.0334,108.8036-23.9743
		c22.9815,1.8018,48.3898,5.5891,65.5248,22.4667c6.9496,5.9935,7.5747,15.4067,8.4204,23.864
		c-19.7457-0.0367-39.4546-1.6914-59.1636-0.6986c16.4364,11.1782,36.991,11.0679,55.7072,15.4435
		c-5.6259,7.207-12.7961,14.1934-22.7977,13.2373c-24.8935-0.3677-51.7359-4.4124-71.5919-20.6649
		c-8.3101-6.4716-16.6937-14.3405-27.7616-15.1494c-13.1271-0.9928-27.5778,3.9712-35.2629,15.1126
		c-4.9272,8.3101-5.0008,19.856,1.5444,27.3572c9.5603,10.9943,23.0919,17.3188,36.0718,23.3492
		c48.8311,21.0327,101.3024,31.1813,152.3397,45.154c-27.2469,8.3469-54.2731,18.3852-77.99,34.5642
		c-35.557-9.928-70.9301-21.7313-103.3984-39.6017c-19.7824-10.9208-38.7192-25.8129-48.5002-46.6984
		C479.6373,721.0593,486.5502,688.2233,509.3846,672.1179 M615.3569,666.1611c5.6626,12.1343,20.0399,11.9872,31.071,8.6411
		c-1.5076-2.2798-4.5596-6.8393-6.0671-9.1559C632.0139,665.4257,623.667,665.536,615.3569,666.1611z"/>
	<path fill="#0000FF" d="M816.0864,1065.7081c-17.4388,8.2104-35.8461,13.8344-54.0669,19.9685
		c0.2803,0.5796,0.567,1.156,0.8408,1.7391c0.208,0.4427,0.3776,0.9042,0.5955,1.3418c0.1221,0.2452,0.2434,0.4803,0.3228,0.7391
		c13.4695,7.2837,27.3898,14.8062,37.3055,26.8075c13.4211,15.9952,18.6058,39.3444,10.1854,58.9063
		c-10.7002,25.0038-33.9758,41.9183-58.0605,52.8757c-28.4602,13.5682-59.7518,26.9895-77.1074,54.8983
		c-18.5322,26.9158-20.7385,63.6863-6.1039,92.8452c9.2294,20.5178,26.9894,38.9031,50.3386,41.5505
		c-8.0526-12.6858-20.6649-22.0991-26.5482-36.1821c-11.8401-25.6289-11.8768-58.6119,7.2805-80.7477
		c19.8928-24.9303,53.0964-30.593,80.3433-44.0509c37.6897-17.3926,72.8789-50.6697,77.1075-93.9852
		C863.4468,1125.2026,844.5468,1088.7633,816.0864,1065.7081z"/>
	<path fill="#0000FF" d="M894.5544,931.4595c-2.2062-35.6673-23.386-67.9149-51.6624-88.8005
		c-25.6792,8.0186-51.9688,13.8494-78.0742,20.2565c0.0962,0.1699,0.1886,0.342,0.2993,0.5037
		c0.0034,0.0049-0.0043,0.0071-0.0029,0.0118c21.9348,8.7324,44.6908,18.2891,60.9001,36.1854
		c20.9224,22.099,22.9448,60.5609,1.7283,83.1746c-21.8049,24.0479-53.0597,36.182-83.1011,46.3307
		c-34.3069,11.9503-69.2388,27.9822-92.6982,56.7734c-24.489,29.6001-30.4827,73.5408-13.5682,108.2521
		c11.693,23.9008,32.3212,42.0284,54.7878,55.5968c11.0796-7.7423,22.8636-14.2642,34.8961-20.3326
		c-0.4741-0.921-0.9553-1.8385-1.4261-2.7611c-0.2731-0.5352-0.5402-1.0732-0.7863-1.6216
		c-0.1484-0.3306-0.2396-0.7163-0.4163-1.0396c-21.1487-12.1293-41.9866-28.5524-50.1379-52.3822
		c-7.6482-22.0255,1.1033-47.2133,18.2749-62.2155c20.9592-18.5323,48.1693-27.4675,74.3499-35.8512
		c33.8655-10.4796,67.1427-25.7393,93.2498-50.2283C885.3251,999.8157,898.0845,965.0308,894.5544,931.4595z"/>
	<path fill="#0000FF" d="M990.5988,684.1786c-15.2596-19.4515-39.9327-27.9823-63.2819-32.9463
		c-30.7769-5.1846-63.0613-5.4788-93.3232,2.8314c-19.0471,4.8904-39.3444,18.091-38.7561,40.2635
		c20.0399,0.2206,40.0798-1.5076,60.1196-0.7722c-16.5835,11.5458-37.7632,10.9576-56.5896,16.1422
		c6.0671,5.7729,12.2813,13.0903,21.5842,12.649c28.8647,0.7354,59.3842-6.251,80.8948-26.6218
		c16.8042-15.9951,49.824-10.406,58.0605,11.8768c5.4788,15.0759-7.9056,27.3204-19.5986,34.1597
		c-29.0118,17.0983-61.8478,26.0703-93.9851,35.3732c-43.72,12.3916-88.396,20.9958-132.116,33.2404
		c-38.9031,12.1342-78.9829,31.3651-101.5232,66.8486c-21.4739,31.9534-25.776,74.9013-9.928,110.1641
		c12.502,30.1517,39.4546,51.9198,68.1724,65.8191c6.9128-2.3165,12.8328-6.8026,19.1572-10.2958
		c11.5059-6.9545,23.7249-12.3834,36.2086-17.2151c-0.3402-0.5458-0.5609-1.1445-0.8719-1.7051
		c-0.2712-0.4891-0.5779-0.957-0.8328-1.4545c-25.1218-10.4703-51.4028-22.5653-68.0383-45.0399
		c-10.0017-13.0902-12.2814-30.4459-9.3397-46.3306c2.6475-22.43,20.2972-39.4179,38.8295-50.4122
		c32.0271-19.5618,69.7534-24.8936,105.4575-34.1965c46.3307-11.693,92.9188-23.7905,136.6021-43.5729
		c23.9008-11.1782,48.353-24.5626,63.429-47.0294C1005.5642,735.1055,1006.0791,704.6964,990.5988,684.1786z M839.693,671.2722
		c9.8544-5.1111,22.724-10.3693,32.4315-1.8385C863.3364,678.2585,849.2166,679.619,839.693,671.2722z"/>
	<g>
		<path d="M686.0296,418.8434c29.7472-3.8976,60.2299-0.4044,90.2345-1.7282c10.884,0.8825,25.1877-3.1255,32.6889,7.2437
			c8.1998,9.8545-1.5444,25.9599-13.8992,24.5259c-34.5641,0.1471-69.2019,0.478-103.7661-0.1839
			C675.3661,448.9951,671.2479,424.1384,686.0296,418.8434z"/>
		<path d="M722.0645,459.6218c14.414-0.0735,28.8648-0.0735,43.3156,0.0368c0.0735,109.1713-0.3309,218.3426-0.4412,327.5139
			c-14.0095,3.5667-28.0926,6.9128-42.1389,10.2589C722.0645,684.8405,721.9542,572.2128,722.0645,459.6218z"/>
		<path d="M762.6929,1087.2963c-0.2559-0.5295-0.5161-1.0569-0.7708-1.5869c-12.6737,4.2681-25.2571,8.7834-37.3572,14.5999
			c0.6614,41.1882,0.4785,82.4136,0.9551,123.6388c0.1414,0.2762,0.2139,0.5868,0.342,0.8721
			c0.2434,0.5424,0.4994,1.0787,0.7695,1.6082c0.5011,0.9817,1.0129,1.9581,1.5168,2.9382
			c11.1401-5.6157,22.4917-10.8453,33.7017-16.2826c1.103-41.2195,1.2502-82.476,1.7283-123.6956
			c0.0204,0.011,0.0408,0.0221,0.0613,0.0332c-0.1168-0.3228-0.2874-0.6254-0.4216-0.9414
			C763.0491,1088.0824,762.8809,1087.6854,762.6929,1087.2963z"/>
		<path d="M728.0581,872.6636c-7.1335,0.956-4.3021,9.2661-5.0376,14.0463c0.588,45.2385,0.5516,90.5137,1.0657,135.789
			c0.2577,0.4903,0.5731,0.9462,0.8228,1.441c0.2905,0.5759,0.5344,1.1718,0.8788,1.7188
			c12.7004-4.9119,25.674-9.2075,38.4524-13.8559c0.3678-49.4929,0.4413-98.9492,0.6986-148.4421
			c0.012,0.0048,0.024,0.0096,0.036,0.0144c-0.0919-0.1416-0.1757-0.2881-0.2587-0.4349
			C752.4282,865.9568,740.1809,869.1009,728.0581,872.6636z"/>
		<path d="M760.1536,1276.9546c-0.1859-0.2975-0.3831-0.5933-0.5679-0.8949c-11.0502,4.5728-22.0704,9.2158-32.8513,14.4259
			c1.6914,82.5496,2.2429,165.1359,7.5378,247.5382c1.5444,17.4292,1.8386,35.4099,9.0088,51.6992
			c3.8977-6.9495,6.9128-14.4138,7.538-22.3931c3.7137-29.2325,4.1552-58.7224,6.0304-88.1018
			c1.6162-66.6299,4.1855-133.2231,4.5575-199.8528C761.0378,1278.5441,760.6359,1277.7266,760.1536,1276.9546z"/>
	</g>
	<path fill="#0000FF" d="M793.9138,1261.4738c-11.2883,5.1395-22.7754,9.8054-34.231,14.5455
		c0.1848,0.2955,0.3748,0.5878,0.557,0.8849c0.4463,0.7271,0.8269,1.4871,1.1788,2.2625
		c13.5645,8.5295,26.5769,19.1178,33.6719,33.896c11.3252,21.4371,8.3835,47.5809-1.3973,68.9813
		c-6.1406,13.5682-17.944,23.1285-26.5482,34.9686c31.5857-2.6475,50.8901-33.3508,58.0237-61.4065
		C834.1039,1321.152,819.1384,1285.1171,793.9138,1261.4738z"/>
	<defs>
		<filter id="Adobe_OpacityMaskFilter" filterUnits="userSpaceOnUse" x="569.896" y="59.2414" width="348.3145" height="347.9726">
			<feColorMatrix  type="matrix" values="1 0 0 0 0  0 1 0 0 0  0 0 1 0 0  0 0 0 1 0"/>
		</filter>
	</defs>
	<mask maskUnits="userSpaceOnUse" x="569.896" y="59.2414" width="348.3145" height="347.9726" id="SVGID_1_">
		<g filter="url(#Adobe_OpacityMaskFilter)">
			<radialGradient id="SVGID_2_" cx="743.8658" cy="233.611" r="172.8676" gradientUnits="userSpaceOnUse">
				<stop  offset="0" style="stop-color:#000000"/>
				<stop  offset="0.1052" style="stop-color:#050505"/>
				<stop  offset="0.2288" style="stop-color:#131313"/>
				<stop  offset="0.3618" style="stop-color:#2B2B2B"/>
				<stop  offset="0.5015" style="stop-color:#4C4C4C"/>
				<stop  offset="0.6464" style="stop-color:#777777"/>
				<stop  offset="0.7955" style="stop-color:#ABABAB"/>
				<stop  offset="0.9455" style="stop-color:#E7E7E7"/>
				<stop  offset="1" style="stop-color:#FFFFFF"/>
			</radialGradient>
			<circle fill="url(#SVGID_2_)" cx="743.8657" cy="233.611" r="172.8676"/>
		</g>
	</mask>
	<g mask="url(#SVGID_1_)">
		<path fill="#5177BB" d="M915.0454,265.3466c-26.2977-7.668-50.0679-13.4721-73.8345-16.2076
			c-0.2017-0.6987-0.0244-1.7765-0.9005-1.8008c4.2482-31.2311-5.8419-56.5654-24.3113-79.2371
			c-16.6866-17.8698-48.8254-34.1944-80.1375-31.5147c-52.3054,2.5095-100.2394,56.9579-85.54,114.3535
			c-27.0748,4.9487-49.4277,10.2657-75.6354,19.8093c-18.7585-68.7859,18.3226-165.7738,98.1459-196.2918
			c66.2827-31.033,142.1063-12.2556,193.5906,35.1164C906.006,151.8494,926.5176,210.0013,915.0454,265.3466z"/>
		<path fill="#EF3E24" d="M650.3216,250.9398c52.843-12.3484,137.7185-10.2918,189.9888-3.6017
			c0.8761,0.0243,0.6987,1.1021,0.9005,1.8008c23.7666,2.7355,47.5368,8.5396,73.8345,16.2076
			c-1.5217,6.0328-1.4848,9.3203-3.6017,13.5063c-65.1914-12.6518-126.3156-14.6264-182.7855-6.3029
			c-50.3389,3.2136-98.3188,18.0552-141.3661,35.1164c-6.6262-12.325-9.3761-23.845-12.6059-36.9173
			C600.8939,261.2055,623.2468,255.8885,650.3216,250.9398z"/>
		<path fill="#EF3E24" d="M905.1407,294.1601c1.3218,8.455-3.8979,11.9053-6.3029,19.8093
			c-25.1902,0.6654-64.6304,3.9204-83.7392,5.4025c-57.2496,10.2684-117.4041,27.0927-173.7813,54.9257
			c-12.8679-11.2274-25.7926-20.1641-35.1165-36.9173C707.98,296.2319,799.9022,281.3011,905.1407,294.1601z"/>
		<path fill="#EF3E24" d="M811.4969,394.1068c-45.7801,16.8235-76.6249,16.4777-122.4573,4.5021
			c61.7338-36.0394,128.8395-58.5796,198.0927-64.8303c-15.3207,20.1145-30.5504,34.8238-52.2244,48.6227
			C826.6033,385.8022,818.7985,389.7029,811.4969,394.1068z"/>
		<path fill="#EF3E24" d="M811.4969,394.1068c7.3016-4.404,15.1064-8.3046,23.4109-11.7055
			C827.6064,386.8053,819.8016,390.7059,811.4969,394.1068z"/>
		<path fill="#FFFFFF" d="M840.3104,247.3382c-52.2703-6.6901-137.1458-8.7467-189.9888,3.6017
			c-14.6994-57.3955,33.2346-111.844,85.54-114.3535c31.3121-2.6796,63.4509,13.645,80.1375,31.5147
			C834.4685,190.7728,844.5586,216.107,840.3104,247.3382z"/>
	</g>
</g>
</svg>
