<?xml version="1.0"?>
<svg xmlns:rdf="http://www.w3.org/1999/02/22-rdf-syntax-ns#" xmlns="http://www.w3.org/2000/svg" xmlns:cc="http://creativecommons.org/ns#" xmlns:dc="http://purl.org/dc/elements/1.1/" xmlns:svg="http://www.w3.org/2000/svg" id="svg9710" viewBox="0 0 426.38 878.4" version="1.0">
  <g id="layer8" stroke="#000" transform="translate(-173.4 -86.979)">
    <path id="path9843" stroke-width="3" fill-rule="evenodd" fill="#fff" d="m388.77 479.93c-93.71 71.15-192.54 144.41-211.81 276.16-16.45 112.47 66.75 207.69 210.47 207.79 136.8 0.1 217.1-106.36 210.47-198.4-9.96-138.47-112.31-216.3-209.13-285.55z"/>
    <path id="path10814" stroke-width="2.8962" fill-rule="evenodd" fill="#fff" d="m388.03 490.02c-90.48 68.68-185.89 139.41-204.49 266.61-15.88 108.57 64.44 200.5 203.19 200.6 132.07 0.1 209.59-102.69 203.19-191.54-9.62-133.68-108.42-208.82-201.89-275.67z"/>
    <path id="path11787" stroke-width="3" fill-rule="evenodd" fill="#fff" d="m365.98 257.39c-6.89-9.41-5.32-18.62-26.14-20.11l-4.69-14.74c21.06-40.12 24.52-83.76 28.15-127.36 9.21 3.61 16.66-1.597 24.13-6.701h17.43c3.37 9.656 14.6 8.83 22.79 12.061-7.43 50.09 6.67 85.82 20.11 122l-2.68 16.08c-14.47-1.01-25.72 3.32-29.5 20.11l-49.6-1.34z"/>
    <path id="path11789" stroke-width="2" fill-rule="evenodd" fill="#fff" d="m315.71 750.06l-15.42 29.49c38.57-3.24 29.72 27.48 85.8 26.14 47.14 1.12 45.36-29.11 85.13-27.48l-11.4-28.15h-144.11z"/>
    <path id="path11791" stroke-width="2" fill-rule="evenodd" fill="#fff" d="m342.62 762.01l87.81-0.67v7.37h-87.13l-0.68-6.7z"/>
    <path id="path11793" stroke-width="3" fill-rule="evenodd" fill="#fff" d="m387.43 581.15c-34.21 2.48-59.49 40.25-41.56 74.4 14.51 27.64 63.15 32.7 85.13 0 17.46-25.98 0.79-77.63-43.57-74.4z"/>
    <path id="path11796" stroke-width="3" fill-rule="evenodd" fill="#fff" d="m386.87 574.02c-39.48 2.87-68.64 46.45-47.95 85.85 16.74 31.89 72.86 37.74 98.22 0 20.15-29.97 0.91-89.56-50.27-85.85z"/>
    <path id="path11798" stroke-width="3" fill-rule="evenodd" fill="#fff" d="m386.96 566.29c-44.72 3.25-77.76 52.61-54.32 97.25 18.96 36.13 82.54 42.75 111.27 0 22.82-33.96 1.03-101.47-56.95-97.25z"/>
    <path id="path11800" stroke-width="3" fill-rule="evenodd" fill="#fff" d="m358.61 136.74h-7.38c-1.02-6.43-7.4-10.92-16.08-8.04-6.4 2.12-5.2 14.11 2.68 18.76 7.58 4.48 12.77 0.71 14.07-6.03l6.04 1.34 0.67-6.03z"/>
    <path id="path11803" stroke-width="2.7392" fill-rule="evenodd" fill="#fff" d="m350.02 185.33h-7.44c-1.03-5.31-7.47-9.02-16.24-6.65-6.46 1.76-5.25 11.66 2.71 15.5 7.65 3.7 12.89 0.58 14.21-4.98l6.09 1.11 0.67-4.98z"/>
    <path id="path11805" stroke-width="2.6461" fill-rule="evenodd" fill="#fff" d="m424.7 138.51h7.47c1.04-4.93 7.5-8.39 16.29-6.17 6.48 1.63 5.27 10.84-2.71 14.41-7.68 3.44-13.27 1.55-14.6-3.63l-5.77 0.03-0.68-4.64z"/>
    <path id="path11807" stroke-width="2.6461" fill-rule="evenodd" fill="#fff" d="m435.42 186.1h7.47c1.04-4.93 6.58-4.18 15.63-3.49 3.79 0.29 5.26 8.16-0.04 9.05-8.3 1.4-9.58 1.88-14.93-1.28l-7.45 0.36-0.68-4.64z"/>
    <path id="path11809" stroke-width="2.6461" fill-rule="evenodd" fill="#fff" d="m355.35 160.63h-7.46c-1.04-4.93-6.59-4.18-15.63-3.49-3.8 0.29-5.26 8.16 0.04 9.05 8.3 1.4 9.58 1.88 14.92-1.28l7.45 0.36 0.68-4.64z"/>
    <path id="path11811" stroke-width="2.6461" fill-rule="evenodd" fill="#fff" d="m343.29 208.89h-7.47c-1.04-4.93-6.58-4.18-15.62-3.49-3.8 0.29-5.27 8.16 0.03 9.05 8.3 1.4 9.58 1.88 14.93-1.28l7.45 0.36 0.68-4.64z"/>
    <path id="path11813" stroke-width="2.7392" fill-rule="evenodd" fill="#fff" d="m428.77 160.53h9.12c1.03-5.31 3.79-8.02 12.55-5.64 6.46 1.75 12.62 9.98 4.67 13.82-7.66 3.7-16.58 1.92-17.9-3.64l-7.77 0.44-0.67-4.98z"/>
    <path id="path11815" stroke-width="2.3128" fill-rule="evenodd" fill="#fff" d="m441.63 208.9h7.69c0.88-4.48 3.2-6.77 10.6-4.76 5.46 1.48 10.66 8.43 3.94 11.67-6.46 3.13-13.99 1.63-15.11-3.07l-6.55 0.37-0.57-4.21z"/>
    <g id="g11826" stroke-width="2.5" fill="#fff" fill-rule="evenodd">
      <path id="path11817" d="m370.67 119.98v13.74c2.91 2.46 5.81 2.24 8.72-0.67v-12.4c-2.91 2.42-5.81 3.97-8.72-0.67z"/>
      <path id="path11819" d="m370.67 119.65c0.56 4.02 7.82 3.9 8.72 0.67 0.52-1.9-2.18-3.52-4.36-3.69s-4.55 1.62-4.36 3.02z"/>
      <path id="path11821" d="m370.69 126.94c-1.67 0.75-3.2 2.06-4.38 4.09-2.15 3.71 1.63 8.73 9.38 8.72 8-0.01 10.49-4.65 9.06-7.69-0.93-1.98-2.96-3.77-5.37-4.84v5.84c-2.91 2.91-5.79 3.12-8.69 0.66v-6.78z"/>
    </g>
    <g id="g11831" stroke-width="2.5" transform="translate(-3.5548 23.935)" fill="#fff" fill-rule="evenodd">
      <path id="path11833" d="m370.67 119.98v13.74c2.91 2.46 5.81 2.24 8.72-0.67v-12.4c-2.91 2.42-5.81 3.97-8.72-0.67z"/>
      <path id="path11835" d="m370.67 119.65c0.56 4.02 7.82 3.9 8.72 0.67 0.52-1.9-2.18-3.52-4.36-3.69s-4.55 1.62-4.36 3.02z"/>
      <path id="path11837" d="m370.69 126.94c-1.67 0.75-3.2 2.06-4.38 4.09-2.15 3.71 1.63 8.73 9.38 8.72 8-0.01 10.49-4.65 9.06-7.69-0.93-1.98-2.96-3.77-5.37-4.84v5.84c-2.91 2.91-5.79 3.12-8.69 0.66v-6.78z"/>
    </g>
    <g id="g11839" stroke-width="2.5" transform="translate(-9.4794 47.871)" fill="#fff" fill-rule="evenodd">
      <path id="path11841" d="m370.67 119.98v13.74c2.91 2.46 5.81 2.24 8.72-0.67v-12.4c-2.91 2.42-5.81 3.97-8.72-0.67z"/>
      <path id="path11843" d="m370.67 119.65c0.56 4.02 7.82 3.9 8.72 0.67 0.52-1.9-2.18-3.52-4.36-3.69s-4.55 1.62-4.36 3.02z"/>
      <path id="path11845" d="m370.69 126.94c-1.67 0.75-3.2 2.06-4.38 4.09-2.15 3.71 1.63 8.73 9.38 8.72 8-0.01 10.49-4.65 9.06-7.69-0.93-1.98-2.96-3.77-5.37-4.84v5.84c-2.91 2.91-5.79 3.12-8.69 0.66v-6.78z"/>
    </g>
    <g id="g11847" stroke-width="1px" transform="translate(-13.034 72.991)" fill="#fff" fill-rule="evenodd">
      <path id="path11849" d="m370.67 119.98v13.74c2.91 2.46 5.81 2.24 8.72-0.67v-12.4c-2.91 2.42-5.81 3.97-8.72-0.67z"/>
      <path id="path11851" d="m370.67 119.65c0.56 4.02 7.82 3.9 8.72 0.67 0.52-1.9-2.18-3.52-4.36-3.69s-4.55 1.62-4.36 3.02z"/>
      <path id="path11853" d="m370.69 126.94c-1.67 0.75-3.2 2.06-4.38 4.09-2.15 3.71 1.63 8.73 9.38 8.72 8-0.01 10.49-4.65 9.06-7.69-0.93-1.98-2.96-3.77-5.37-4.84v5.84c-2.91 2.91-5.79 3.12-8.69 0.66v-6.78z"/>
    </g>
    <g id="g11855" stroke-width="2.5" transform="translate(-13.034 72.991)" fill="#fff" fill-rule="evenodd">
      <path id="path11857" d="m370.67 119.98v13.74c2.91 2.46 5.81 2.24 8.72-0.67v-12.4c-2.91 2.42-5.81 3.97-8.72-0.67z"/>
      <path id="path11859" d="m370.67 119.65c0.56 4.02 7.82 3.9 8.72 0.67 0.52-1.9-2.18-3.52-4.36-3.69s-4.55 1.62-4.36 3.02z"/>
      <path id="path11861" d="m370.69 126.94c-1.67 0.75-3.2 2.06-4.38 4.09-2.15 3.71 1.63 8.73 9.38 8.72 8-0.01 10.49-4.65 9.06-7.69-0.93-1.98-2.96-3.77-5.37-4.84v5.84c-2.91 2.91-5.79 3.12-8.69 0.66v-6.78z"/>
    </g>
    <g id="g11942" stroke-width="2.5" transform="matrix(-1 0 0 1 799.31 -3.0163)" fill="#fff" fill-rule="evenodd">
      <g id="g11873" transform="translate(14.411 2.6812)">
        <path id="path11875" d="m370.67 119.98v13.74c2.91 2.46 5.81 2.24 8.72-0.67v-12.4c-2.91 2.42-5.81 3.97-8.72-0.67z"/>
        <path id="path11877" d="m370.67 119.65c0.56 4.02 7.82 3.9 8.72 0.67 0.52-1.9-2.18-3.52-4.36-3.69s-4.55 1.62-4.36 3.02z"/>
        <path id="path11879" d="m370.69 126.94c-1.67 0.75-3.2 2.06-4.38 4.09-2.15 3.71 1.63 8.73 9.38 8.72 8-0.01 10.49-4.65 9.06-7.69-0.93-1.98-2.96-3.77-5.37-4.84v5.84c-2.91 2.91-5.79 3.12-8.69 0.66v-6.78z"/>
      </g>
      <g id="g11881" transform="translate(10.857 26.617)">
        <path id="path11883" d="m370.67 119.98v13.74c2.91 2.46 5.81 2.24 8.72-0.67v-12.4c-2.91 2.42-5.81 3.97-8.72-0.67z"/>
        <path id="path11885" d="m370.67 119.65c0.56 4.02 7.82 3.9 8.72 0.67 0.52-1.9-2.18-3.52-4.36-3.69s-4.55 1.62-4.36 3.02z"/>
        <path id="path11887" d="m370.69 126.94c-1.67 0.75-3.2 2.06-4.38 4.09-2.15 3.71 1.63 8.73 9.38 8.72 8-0.01 10.49-4.65 9.06-7.69-0.93-1.98-2.96-3.77-5.37-4.84v5.84c-2.91 2.91-5.79 3.12-8.69 0.66v-6.78z"/>
      </g>
      <g id="g11889" transform="translate(4.9319 50.552)">
        <path id="path11891" d="m370.67 119.98v13.74c2.91 2.46 5.81 2.24 8.72-0.67v-12.4c-2.91 2.42-5.81 3.97-8.72-0.67z"/>
        <path id="path11893" d="m370.67 119.65c0.56 4.02 7.82 3.9 8.72 0.67 0.52-1.9-2.18-3.52-4.36-3.69s-4.55 1.62-4.36 3.02z"/>
        <path id="path11895" d="m370.69 126.94c-1.67 0.75-3.2 2.06-4.38 4.09-2.15 3.71 1.63 8.73 9.38 8.72 8-0.01 10.49-4.65 9.06-7.69-0.93-1.98-2.96-3.77-5.37-4.84v5.84c-2.91 2.91-5.79 3.12-8.69 0.66v-6.78z"/>
      </g>
      <g id="g11897" transform="translate(1.3772 75.673)">
        <path id="path11899" d="m370.67 119.98v13.74c2.91 2.46 5.81 2.24 8.72-0.67v-12.4c-2.91 2.42-5.81 3.97-8.72-0.67z"/>
        <path id="path11901" d="m370.67 119.65c0.56 4.02 7.82 3.9 8.72 0.67 0.52-1.9-2.18-3.52-4.36-3.69s-4.55 1.62-4.36 3.02z"/>
        <path id="path11903" d="m370.69 126.94c-1.67 0.75-3.2 2.06-4.38 4.09-2.15 3.71 1.63 8.73 9.38 8.72 8-0.01 10.49-4.65 9.06-7.69-0.93-1.98-2.96-3.77-5.37-4.84v5.84c-2.91 2.91-5.79 3.12-8.69 0.66v-6.78z"/>
      </g>
    </g>
    <g id="g14950" stroke-width="2" fill="#000400" fill-rule="evenodd">
      <path id="path12932" d="m424.64 585.84l5.54-5.51c-5.43-4.8-3.31-3.25-9.29-6.59l-3.64 6.87c4.03 2.55 3.71 2.66 7.39 5.23z"/>
      <path id="path12946" d="m445.3 634.04l7.71 1.34c0.77-7.2 0.73-4.58 0-11.39l-7.71 1c0.25 4.76-0.03 4.57 0 9.05z"/>
      <path id="path12948" d="m332.58 625.5l-7.71-1.34c-0.77 7.2-0.73 4.58 0 11.39l7.71-1c-0.25-4.76 0.02-4.57 0-9.05z"/>
      <path id="path12950" d="m385.25 573.66l-1.34-7.71c7.2-0.77 4.58-0.72 11.4 0l-1.01 7.71c-4.76-0.25-4.57 0.03-9.05 0z"/>
      <path id="path12952" d="m339.79 659.41l-6.31 4.64c-3.9-6.1-2.69-3.77-5.08-10.2l7.35-2.54c1.9 4.37 2.06 4.08 4.04 8.1z"/>
      <path id="path12954" d="m437.49 601.99l6.3-4.64c3.91 6.11 2.7 3.78 5.09 10.2l-7.35 2.54c-1.9-4.37-2.06-4.07-4.04-8.1z"/>
      <path id="path12956" d="m437.49 659.24l6.3 4.64c3.91-6.1 2.7-3.77 5.09-10.2l-7.35-2.53c-1.9 4.36-2.06 4.07-4.04 8.09z"/>
      <path id="path12958" d="m341.13 601.83l-6.3-4.64c-3.91 6.1-2.7 3.77-5.09 10.2l7.35 2.53c1.9-4.36 2.06-4.07 4.04-8.09z"/>
      <path id="path12966" d="m383.07 685.21l-1.34 7.71c7.2 0.77 4.58 0.73 11.4 0l-1.01-7.71c-4.76 0.25-4.56-0.03-9.05 0z"/>
      <path id="path12968" d="m354.49 586.13l-5.29-5.77c5.65-4.53 3.47-3.08 9.6-6.14l3.31 7.03c-4.14 2.36-3.83 2.48-7.62 4.88z"/>
      <path id="path12970" d="m421.04 675.34l4.6 6.33c-6.13 3.86-3.8 2.67-10.24 5.01l-2.48-7.37c4.38-1.86 4.09-2.03 8.12-3.97z"/>
      <path id="path12972" d="m354 675.34l-4.59 6.33c6.13 3.86 3.79 2.67 10.23 5.01l2.49-7.37c-4.39-1.86-4.1-2.03-8.13-3.97z"/>
    </g>
    <path id="path23751" stroke-width="3.4013" fill-rule="evenodd" fill="#fff" d="m387.28 575.33c-38.79 2.82-67.45 45.64-47.12 84.36 16.45 31.33 71.6 37.08 96.52 0 19.79-29.46 0.89-88.01-49.4-84.36z"/>
    <path id="path12992" stroke-width="1px" fill-rule="evenodd" fill="#fff" d="m364.96 257.04l-1.9 7.58h52.14l0.95-8.53-51.19 0.95z"/>
    <path id="path14940" stroke-width="3" fill-rule="evenodd" fill="#fff" d="m387.43 581.15c-34.21 2.48-59.49 40.25-41.56 74.4 14.51 27.64 63.15 32.7 85.13 0 17.46-25.98 0.79-77.63-43.57-74.4z"/>
    <path id="path10816" stroke-width="3" fill-rule="evenodd" fill="#fff" d="m365.98 260.07l-12.06 321.75h71.05l-10.73-321.75h-48.26z"/>
    <path id="path17871" stroke-width="3" fill-rule="evenodd" fill="#fff" d="m363.3 289.57h53.62"/>
    <path id="path18842" stroke-width="3" fill-rule="evenodd" fill="#fff" d="m362.99 311.88c53.62 0 55.27 0.48 55.27 0.48"/>
    <path id="path18844" stroke-width="3" fill-rule="evenodd" fill="#fff" d="m362.51 332.47h55.75"/>
    <path id="path18846" stroke-width="3" fill-rule="evenodd" fill="#fff" d="m362.6 353.72c53.62 0 54.32-1.15 54.32-1.15l3.35 0.68"/>
    <path id="path18848" stroke-width="3" fill-rule="evenodd" fill="#fff" d="m361.65 373.6c53.62 0 55.27-1.15 55.27-1.15l3.35 0.67"/>
    <path id="path18850" stroke-width="3" fill-rule="evenodd" fill="#fff" d="m360.23 392.08c53.62 0 57.64-0.67 57.64-0.67l3.35 0.67"/>
    <path id="path18852" stroke-width="3" fill-rule="evenodd" fill="#fff" d="m359.28 411.04c53.62 0 57.64-0.67 57.64-0.67l3.35 0.67"/>
    <path id="path18854" stroke-width="3" fill-rule="evenodd" fill="#fff" d="m359.28 427.63c53.62 0 59.54-0.2 59.54-0.2l3.35 0.67"/>
    <path id="path18856" stroke-width="3" fill-rule="evenodd" fill="#fff" d="m358.8 443.27c53.63 0 60.02-0.67 60.02-0.67l3.35 0.67"/>
    <path id="path18858" stroke-width="3" fill-rule="evenodd" fill="#fff" d="m358.33 457.96c53.62 0 61.44-1.14 61.44-1.14l3.35 0.67"/>
    <path id="path18860" stroke-width="3" fill-rule="evenodd" fill="#fff" d="m424.03 469.62s-12.54 1.13-66.16 1.13l66.16-1.13z"/>
    <path id="path18864" stroke-width="3" fill-rule="evenodd" fill="#fff" d="m423.08 482.89s-13.01 0.66-66.63 0.66l66.63-0.66z"/>
    <path id="path18866" stroke-width="3" fill-rule="evenodd" fill="#fff" d="m424.03 494.27s-14.43 1.13-68.06 1.13l68.06-1.13z"/>
    <path id="path18868" stroke-width="3" fill-rule="evenodd" fill="#fff" d="m424.03 506.12s-14.43 1.13-68.06 1.13l68.06-1.13z"/>
    <path id="path18870" stroke-width="3" fill-rule="evenodd" fill="#fff" d="m424.03 516.54s-14.43 1.13-68.06 1.13l68.06-1.13z"/>
    <path id="path18872" stroke-width="3" fill-rule="evenodd" fill="#fff" d="m424.03 525.55s-14.43 1.13-68.06 1.13l68.06-1.13z"/>
    <path id="path18874" stroke-width="3" fill-rule="evenodd" fill="#fff" d="m424.03 533.61s-14.43 1.13-68.06 1.13l68.06-1.13z"/>
    <path id="path18876" stroke-width="3" fill-rule="evenodd" fill="#fff" d="m423.55 542.14s-14.43 1.13-68.05 1.13l68.05-1.13z"/>
    <path id="path12974" stroke-width="3" fill="none" d="m353.25 778.21l18.65-520.82-3.24-53.62"/>
    <path id="path12977" stroke-width="3" fill="none" d="m361.96 772.34l16.09-514.23-4.19-82.06"/>
    <path id="path12983" stroke-width="3" fill="none" d="m374.63 778.49l9.27-521.93-7.75-100.23"/>
    <path id="path12985" stroke-width="3" fill="none" d="m384.11 769.94l4.84-512.3-6.56-127.09"/>
    <path id="path12989" stroke-width="3" fill="none" d="m396.47 775.3l-2.16-518.53 6.55-126.22"/>
    <path id="path12987" stroke-width="3" fill="none" d="m404.45 768.71l-6.04-512.22 4.86-100.83"/>
    <path id="path12981" stroke-width="3" fill="none" d="m416.22 778.81l-12.06-516.91 4.18-82.06"/>
    <path id="path12979" stroke-width="3" fill="none" d="m422.92 769.27l-12.62-508.09 3.24-53.62"/>
    <path id="path19848" stroke-width="1.5572" fill-rule="evenodd" fill="#fff" d="m319.5 755.16l-11.08 19.84c35.46-2.14 27.33 22.31 78.89 21.42 43.35 0.74 40.54-23.39 77.11-22.31l-8.15-18.95h-136.77z"/>
  </g>
  <metadata>
    <rdf:RDF>
      <cc:Work>
        <dc:format>image/svg+xml</dc:format>
        <dc:type rdf:resource="http://purl.org/dc/dcmitype/StillImage"/>
        <cc:license rdf:resource="http://creativecommons.org/licenses/publicdomain/"/>
        <dc:publisher>
          <cc:Agent rdf:about="http://openclipart.org/">
            <dc:title>Openclipart</dc:title>
          </cc:Agent>
        </dc:publisher>
        <dc:title>lute 2</dc:title>
        <dc:date>2007-11-25T19:35:37</dc:date>
        <dc:description>I'm not really sure whether it's a lute or mandolin.</dc:description>
        <dc:source>http://openclipart.org/detail/10068/lute-2-by-papapishu-10068</dc:source>
        <dc:creator>
          <cc:Agent>
            <dc:title>papapishu</dc:title>
          </cc:Agent>
        </dc:creator>
        <dc:subject>
          <rdf:Bag>
            <rdf:li>clip art</rdf:li>
            <rdf:li>clipart</rdf:li>
            <rdf:li>image</rdf:li>
            <rdf:li>instrument</rdf:li>
            <rdf:li>lute</rdf:li>
            <rdf:li>mandolin</rdf:li>
            <rdf:li>media</rdf:li>
            <rdf:li>music</rdf:li>
            <rdf:li>musical instrument</rdf:li>
            <rdf:li>png</rdf:li>
            <rdf:li>public domain</rdf:li>
            <rdf:li>svg</rdf:li>
          </rdf:Bag>
        </dc:subject>
      </cc:Work>
      <cc:License rdf:about="http://creativecommons.org/licenses/publicdomain/">
        <cc:permits rdf:resource="http://creativecommons.org/ns#Reproduction"/>
        <cc:permits rdf:resource="http://creativecommons.org/ns#Distribution"/>
        <cc:permits rdf:resource="http://creativecommons.org/ns#DerivativeWorks"/>
      </cc:License>
    </rdf:RDF>
  </metadata>
</svg>
