<?xml version="1.0" encoding="UTF-8" standalone="no"?>
<svg xmlns:rdf="http://www.w3.org/1999/02/22-rdf-syntax-ns#" xmlns="http://www.w3.org/2000/svg" height="254mm" width="94.172mm" version="1.1" xmlns:cc="http://creativecommons.org/ns#" xmlns:dc="http://purl.org/dc/elements/1.1/" viewBox="0 0 333.67866 900">
<g transform="translate(-295.2 236.42)">
<g transform="matrix(4.9995 0 0 4.9995 -1180.7 -2654)">
<g fill="#ff3b61">
<path d="m344.33 560.02 0.226 18.034c-0.188-11.918 8.905-12.858 13.923-18.034 1.872-1.932 3.186-4.447 3.229-8.349l0.144-18.036c-0.115 14.362-17.722 10.02-17.522 26.385z"/>
<path d="m361.89 515.05c-0.23-4.091-1.238-8.165-2.946-11.911-1.707-3.748-4.123-7.156-7.059-10.025 1.756 1.718 2.833 3.527 3.416 5.215 0.583 1.694 0.672 3.278 0.461 4.704-0.439 2.866-2.052 5.111-3.803 7.073-1.767 1.963-3.696 3.655-5.222 5.382-0.38 0.432-0.743 0.868-1.073 1.314-0.084 0.114-0.164 0.219-0.241 0.344l-0.229 0.498c-0.146 0.34-0.281 0.692-0.402 1.062-0.483 1.476-0.755 3.197-0.746 5.243l0.122 18.034c-0.108-11.918 9.336-12.857 14.503-18.034 0.964-0.966 1.78-2.077 2.357-3.435 0.29-0.68 0.519-1.42 0.677-2.235 0.04-0.203 0.074-0.412 0.105-0.625l0.042-0.323c0.013-0.108 0.025-0.209 0.033-0.376 0.039-0.606 0.045-1.241 0.005-1.905z"/>
<path d="m340.99 500.38c0.099-1.821 0.235-3.752 0.12-5.689-0.116-1.938-0.481-3.895-1.486-5.702-0.75-1.341-1.863-2.605-3.491-3.594-1.621-0.986-3.773-1.706-6.439-1.807-1.047-0.038-2.007-0.025-2.976 0.017-0.973 0.042-1.948 0.123-2.924 0.24-1.951 0.237-3.903 0.621-5.831 1.179-3.85 1.114-7.625 2.903-10.976 5.461 2.006-1.522 3.979-2.31 5.734-2.62 1.763-0.307 3.321-0.142 4.681 0.294 2.726 0.884 4.678 2.817 6.391 4.827 1.707 2.028 3.198 4.16 4.857 5.87 0.788 0.856 1.588 1.616 2.47 2.261 0.885 0.646 1.85 1.17 3.044 1.635 3.517 1.373 6.532 4.134 8.204 7.54-0.838-1.67-1.24-3.144-1.4-4.759-0.158-1.606-0.083-3.322 0.022-5.153z"/>
<path d="m295.7 520.14c0.015 0.084 0.034 0.166 0.049 0.25 0.626 2.805 2.087 4.633 3.849 5.681 0.052-0.362 0.124-0.714 0.214-1.055 0.725-2.723 2.521-4.716 4.447-6.409 1.942-1.693 4.045-3.104 5.782-4.616 0.876-0.751 1.671-1.505 2.358-2.305 0.691-0.803 1.269-1.643 1.805-2.661 1.554-2.984 4.497-5.307 8.319-6.477-1.873 0.577-3.363 0.719-4.963 0.587-1.582-0.123-3.235-0.485-5.012-0.848-1.771-0.359-3.655-0.733-5.583-0.821-1.927-0.087-3.915 0.113-5.8 1.017-1.401 0.673-2.745 1.75-3.826 3.378-1.077 1.618-1.884 3.805-2.064 6.485-0.158 2.327-0.049 4.687 0.301 7.006 0.038 0.266 0.073 0.536 0.124 0.788z"/>
</g>
<path d="m345.77 660.95c3.429-9.358 15.565-8.071 15.741-20.269l0.113-80.664 0.088-8.349c-0.042 3.901-1.357 6.417-3.229 8.349-5.018 5.176-14.112 6.116-13.923 18.034l0.123 77.989c0.004 2.216 0.418 3.792 1.087 4.91z" fill="#ffe6ff"/>
<path fill="#ff3b61" d="m344.33 595 0.226 18.034c-0.188-11.918 8.905-12.858 13.923-18.034 1.872-1.932 3.1011-4.447 3.1441-8.349l0.0166-18.036c-0.115 14.362-17.51 10.02-17.31 26.385z"/>
<g fill="#ffe6ff">
<path d="m345.19 517.65 0.229-0.498c0.078-0.125 0.157-0.229 0.241-0.344 0.33-0.446 0.693-0.883 1.073-1.314 1.526-1.727 3.455-3.419 5.222-5.382 1.751-1.962 3.364-4.207 3.803-7.073 0.211-1.426 0.122-3.01-0.461-4.704-0.583-1.688-1.66-3.497-3.416-5.215-3.153-3.083-6.923-5.544-11.04-7.181-3.547-1.411-7.346-2.208-11.142-2.345 2.666 0.101 4.818 0.82 6.439 1.807 1.628 0.988 2.741 2.253 3.491 3.594 1.004 1.808 1.37 3.765 1.486 5.702 0.115 1.938-0.021 3.868-0.12 5.689-0.104 1.831-0.18 3.547-0.021 5.152 0.16 1.615 0.562 3.089 1.4 4.759 0.851 1.694 1.385 3.534 1.564 5.437 0.046 0.484 0.069 0.934 0.074 1.458l0.011 2.254 0.021 4.509c-0.009-2.046 0.262-3.768 0.746-5.243 0.119-0.37 0.253-0.723 0.4-1.062z"/>
<path d="m361.94 516.47c-0.009-0.474-0.022-0.946-0.053-1.42 0.041 0.664 0.034 1.299-0.004 1.904-0.008 0.167-0.021 0.268-0.033 0.376l-0.042 0.323c-0.031 0.213-0.065 0.422-0.105 0.625-0.158 0.815-0.388 1.556-0.677 2.235-0.577 1.357-1.394 2.469-2.357 3.435-5.167 5.177-14.611 6.116-14.503 18.034l0.169 18.035c-0.2-16.364 17.408-12.022 17.521-26.385l0.059-9.685 0.019-4.174 0.01-2.088-0.004-1.215z"/>
<path d="m328.66 498.86c-1.66-1.71-3.151-3.842-4.857-5.87-1.712-2.01-3.665-3.943-6.391-4.827-1.36-0.436-2.918-0.601-4.681-0.294-1.755 0.311-3.728 1.098-5.734 2.62-3.602 2.728-6.684 6.372-8.725 10.542-1.769 3.587-2.75 7.505-2.995 11.315 0.18-2.681 0.987-4.867 2.064-6.485 1.081-1.628 2.424-2.705 3.826-3.378 1.886-0.903 3.873-1.104 5.8-1.017 1.929 0.088 3.813 0.462 5.583 0.821 1.776 0.362 3.43 0.725 5.012 0.848 1.601 0.132 3.09-0.01 4.963-0.587 1.89-0.583 3.995-0.881 6.101-0.857 1.915 0.009 3.789 0.377 5.548 1.064-1.195-0.465-2.16-0.989-3.044-1.635-0.883-0.643-1.682-1.403-2.47-2.26z"/>
<path d="m307.56 526.24c3.862-2.159 4.479-5.867 5.194-11.629 0.002-0.02 0.009-0.033 0.012-0.053 0.007-0.142 0.002-0.281 0.012-0.423 0.148-1.904 0.625-3.611 1.42-5.11-0.537 1.019-1.114 1.858-1.805 2.661-0.687 0.8-1.482 1.554-2.358 2.305-1.736 1.513-3.84 2.923-5.782 4.616-1.926 1.693-3.723 3.687-4.447 6.409-0.09 0.341-0.163 0.692-0.214 1.055 2.571 1.528 5.778 1.394 7.968 0.169z"/>
</g>
<path d="m353.58 663.48c2.977-0.231 6.744-2.562 7.694-7.255l0.23-15.518c-0.176 12.197-12.312 10.91-15.741 20.269 1.77 2.957 5.327 2.698 7.817 2.504z" fill="#ff3b61"/>
<path d="m344.33 631.08 0.226 18.034c-0.188-11.918 8.905-12.858 13.923-18.034 1.872-1.932 3.0162-4.447 3.0592-8.349l0.0166-18.036c-0.115 14.362-17.425 10.02-17.225 26.385z" fill="#ff3b61"/>
<path fill="#fff" d="m301.75 512.34c-1.471-6.105 1.638-12.936 6.79-16.747 2.596-1.931 5.764-2.801 8.77-3.26 3.02-0.464 5.949-0.739 8.874-0.91 2.933-0.164 5.923-0.189 9.038 0.066 3.095 0.284 6.301 0.995 9.16 2.515 2.854 1.496 5.407 3.691 7.149 6.461 1.761 2.764 2.617 6.026 2.973 9.113 0.371 3.105 0.415 6.031 0.425 8.965 0.018 2.936 0.138 5.871 0.357 8.807 0.431 5.871 1.269 11.743 1.656 17.614 0.416 5.871 0.369 79.742 0.098 85.613-0.325 5.871-0.838 11.742-2.122 17.613-1.283-5.871-1.797-11.742-2.122-17.613-0.271-5.871-0.318-79.742 0.098-85.613 0.388-5.871 1.225-11.743 1.656-17.614 0.22-2.936 0.339-5.871 0.357-8.807 0.159-2.932-0.57-5.92-2.156-8.359-1.563-2.465-3.659-4.38-5.594-6.174-1.952-1.798-3.843-3.545-5.889-5.277-2.044-1.709-4.214-3.51-6.748-4.898-2.51-1.417-5.398-2.303-8.338-2.352-2.946-0.068-5.869 0.727-8.367 2.274-2.52 1.509-4.628 3.399-6.608 5.157-4.041 3.491-7.034 7.812-9.457 13.426z"/>
<g fill="#d11445">
<path d="m354.92 656.9v-5.036c-3.499 2.39-7.423 4.404-9.147 9.109 0.452 0.756 1.022 1.3 1.66 1.69 3.032 1.433 7.487-1.626 7.487-5.763z"/>
<path d="m354.92 562.85v-18.003c-4.944 3.203-10.698 5.774-10.583 15.17l0.226 18.034c-0.149-9.423 5.504-11.985 10.357-15.201z"/>
<path d="m354.92 526.83v-0.004c0-6.865-0.187-12.908-1.828-18.073-0.364 0.468-0.744 0.921-1.133 1.356-1.767 1.963-3.696 3.655-5.222 5.382-0.38 0.432-0.743 0.868-1.073 1.314-0.084 0.114-0.164 0.219-0.241 0.344l-0.229 0.498c-0.146 0.34-0.281 0.692-0.402 1.062-0.483 1.476-0.755 3.197-0.746 5.243l0.122 18.034c-0.084-9.379 5.746-11.959 10.752-15.156z"/>
<path d="m322.8 491.87c0.342 0.365 0.676 0.737 0.998 1.114 1.707 2.028 3.198 4.16 4.857 5.87 0.788 0.856 1.588 1.616 2.47 2.261 0.885 0.646 1.85 1.17 3.044 1.635 3.517 1.373 6.532 4.134 8.204 7.54-0.838-1.67-1.24-3.144-1.4-4.759-0.159-1.605-0.083-3.321 0.021-5.152 0.09-1.658 0.201-3.408 0.136-5.17-1.466-0.75-3.081-1.451-4.875-2.097-4.771-1.717-9.324-1.946-13.455-1.242z"/>
<path d="m304.26 518.61c1.942-1.693 4.045-3.104 5.782-4.616 0.876-0.751 1.671-1.505 2.358-2.305 0.691-0.803 1.269-1.643 1.805-2.661 1.554-2.984 4.497-5.307 8.319-6.477-1.873 0.577-3.363 0.719-4.963 0.587-1.582-0.123-3.235-0.485-5.012-0.848-1.771-0.359-3.655-0.733-5.583-0.821-0.317-0.015-0.635-0.018-0.955-0.014-1.846 2.192-2.999 4.374-3.283 6.103-0.533 3.241-0.748 8.535-0.226 12.771 0.555-0.61 1.147-1.182 1.758-1.719z"/>
</g>
<g fill="#bdbdc4">
<path d="m354.92 651.86v-18.011c-4.854 3.217-10.506 5.778-10.357 15.201l0.123 7.01c0.003 2.216 0.417 3.791 1.086 4.909 1.725-4.704 5.649-6.719 9.148-9.109z"/>
<path d="m354.92 544.85v-18.021c-5.006 3.197-10.836 5.777-10.751 15.156l0.169 18.035c-0.115-9.396 5.638-11.967 10.582-15.17z"/>
<path d="m341.13 495.21c0.065 1.762-0.046 3.512-0.136 5.17-0.104 1.831-0.18 3.547-0.021 5.152 0.16 1.615 0.562 3.089 1.4 4.759 0.851 1.694 1.385 3.534 1.564 5.437 0.046 0.484 0.069 0.934 0.074 1.458l0.011 2.254 0.021 4.509c-0.009-2.046 0.262-3.768 0.746-5.243 0.121-0.369 0.255-0.722 0.402-1.062l0.229-0.498c0.078-0.125 0.157-0.229 0.241-0.344 0.33-0.446 0.693-0.883 1.073-1.314 1.526-1.727 3.455-3.419 5.222-5.382 0.389-0.436 0.769-0.889 1.133-1.356-1.768-5.559-5.228-10.096-11.959-13.54z"/>
<path d="m306.01 501.45c0.32-0.004 0.638-0.001 0.955 0.014 1.929 0.088 3.813 0.462 5.583 0.821 1.776 0.362 3.43 0.725 5.012 0.848 1.601 0.132 3.09-0.01 4.963-0.587 1.89-0.583 3.995-0.881 6.101-0.857 1.915 0.009 3.789 0.377 5.548 1.064-1.195-0.465-2.16-0.989-3.044-1.635-0.882-0.645-1.682-1.404-2.47-2.261-1.66-1.71-3.151-3.842-4.857-5.87-0.321-0.377-0.656-0.749-0.998-1.114-7.313 1.244-13.299 5.427-16.793 9.577z"/>
<path d="m312.76 514.61c0.002-0.02 0.009-0.033 0.012-0.053 0.007-0.142 0.002-0.281 0.012-0.423 0.148-1.904 0.625-3.611 1.42-5.11-0.537 1.019-1.114 1.858-1.805 2.661-0.687 0.8-1.482 1.554-2.358 2.305-1.736 1.513-3.84 2.923-5.782 4.616-0.611 0.537-1.203 1.109-1.758 1.72 0.458 3.711 1.485 6.598 3.361 6.585 0.609-0.16 1.186-0.383 1.703-0.672 3.862-2.159 4.479-5.867 5.195-11.629z"/>
</g>
<path fill="#d11445" d="m354.92 597.85v-18.003c-4.944 3.203-10.698 5.774-10.583 15.17l0.226 18.034c-0.149-9.423 5.504-11.985 10.357-15.201z"/>
<path fill="#bdbdc4" d="m354.92 579.85v-18.021c-5.006 3.197-10.624 5.777-10.539 15.156l-0.0433 18.035c-0.115-9.396 5.638-11.967 10.582-15.17z"/>
<path d="m354.92 597.85v-18.003c-4.944 3.203-10.698 5.774-10.583 15.17l0.226 18.034c-0.149-9.423 5.504-11.985 10.357-15.201z" fill="#d11445"/>
<path d="m354.92 579.85v-18.021c-5.006 3.197-10.624 5.777-10.539 15.156l-0.0433 18.035c-0.115-9.396 5.638-11.967 10.582-15.17z" fill="#bdbdc4"/>
<path fill="#d11445" d="m354.92 633.85v-18.003c-4.944 3.203-10.698 5.774-10.583 15.17l0.226 18.034c-0.149-9.423 5.504-11.985 10.357-15.201z"/>
<path fill="#bdbdc4" d="m354.92 615.85v-18.021c-5.006 3.197-10.624 5.777-10.539 15.156l-0.0433 18.035c-0.115-9.396 5.638-11.967 10.582-15.17z"/>
</g>
</g>
</svg>
