<?xml version="1.0"?>
<svg xmlns:rdf="http://www.w3.org/1999/02/22-rdf-syntax-ns#" xmlns="http://www.w3.org/2000/svg" xmlns:cc="http://creativecommons.org/ns#" xmlns:dc="http://purl.org/dc/elements/1.1/" xmlns:svg="http://www.w3.org/2000/svg" id="svg2" viewBox="0 0 644.78 983.36" version="1.1">
  <defs id="defs4">
    <filter id="filter3811">
      <feGaussianBlur id="feGaussianBlur3813" stdDeviation="11.536057"/>
    </filter>
  </defs>
  <g id="g3007" opacity=".3" filter="url(#filter3811)" transform="translate(-225 10.423)" fill-rule="evenodd">
    <path id="path3009" style="color:#000000" d="m697.03 316.1-79.455 3.8335v54.573l197.25 167.98 7.8337-7.9289s-27.806-62.811-55.169-80.312c-18.21-11.647-61.507-11.776-67.502-11.739l-1.1667-50.24v-29.93l-0.71431 0.0238-1.0715-46.264zm117.79 226.39-39.954 40.525s-5.9096-30.769-16.905-40.335c-25.951-22.576-66.4-34.646-99.766-26.287-13.418 3.3616-30.489 14.407-30.406 28.239 0.10842 18.137 24.443 27.788 40.311 36.573 33.466 18.527 80.364 9.8813 114.15 24.906l0.30953-22.144 43.573 35.882 35.882-37.168-47.192-40.192zm-32.573 63.621-3.262 237.68c6.7419-4.2114 12.61-8.7573 16.691-13.524 25.422-29.692 35.721-72.512 36.001-111.6 0.25015-34.882-5.7416-75.672-30.692-100.05-5.5547-5.4277-11.88-9.4501-18.739-12.5zm-3.262 237.68c-14.117 8.8184-32.062 16.171-45.43 21.025l0.0238 0.64288c-4.244 0.71605-9.2638 1.4113-14.929 1.9763l5.1192 88.027 53.669 0.16667 1.5477-111.84zm-60.336 23.644-4.024-69.431-105.08-1.2858 0.47621 65.669c23.422 5.5291 50.225 5.1926 76.408 6.0955 12.152 0.41902 23.039-0.13249 32.215-1.0477zm-108.62-5.0478c-1.1392-0.26892-2.2822-0.5358-3.4049-0.83337-1.2703-0.45956-2.481-0.9345-3.5716-1.4524-43.57-20.69-109.46-94.64-109.46-94.64l55.002-49.764s41.014 38.073 66.193 49.002c28.451 12.349 61.597 25.053 91.503 16.834 16.968-4.6634 37.025-17.381 39.763-34.763 4.0414-25.653-19.001-51.6-40.049-66.812-34.503-24.936-89.558-3.839-124.62-27.977-7.7544-5.3379-15.303-11.547-22.334-18.429l0.50002 61.931h-54.907l-4.2382-69.193 52.407 0.80955c-4.0823-4.4454-7.9507-9.1042-11.5-13.977l-41.74-0.30953-4.4764-73.193 23.144-1.1191c2.7739-31.838 19.81-64.143 42.668-85.646 12.337-11.606 41.787-18.171 56.669-20.858v-57.478l-58.026-49.43-297.32 256.32 35.882 41.001 57.669-42.287 3.8335 374.25 251.06 0.76193-0.64288-92.741zm-91.79-323.89c-0.5384 6.1795-0.55139 12.344 0.0476 18.405 1.9689 19.924 10.662 39.246 23.025 56.216l17.572 0.11905-0.61907-76.693-40.025 1.9524zm34.573 88.598c2.0295 2.21 4.1039 4.3633 6.2383 6.4526l-0.0476-6.3574-6.1907-0.0952zm-65.574-87.098 2.9049 72.741-62.121-0.4524-1.762-69.336 60.978-2.9525zm-58.907 85.194 62.336 0.95241 2.762 69.336h-63.312l-1.7858-70.288z"/>
    <path id="path3011" style="color:#000000" d="m610.8 211.17s-5.0957-5.2581-8.4771-6.0008c-2.4184-0.5312-7.3032 1.3558-7.3032 1.3558l-2.9463-8.0209-7.4212 2.9702 2.7032 6.5124s-4.6427 2.4458-5.7431 4.6494c-1.7844 3.5736-2.1733 8.3808-0.43118 11.975 1.7684 3.6488 5.8847 6.1846 9.8133 7.1881 4.3964 1.1229 9.1246-3.0157 13.494-1.7923 2.6656 0.74632 5.9267 2.4942 6.4672 5.209 0.3663 1.8395-1.1705 3.8476-2.6959 4.939-2.6886 1.9236-6.4726 1.8738-9.7732 1.6865-2.9209-0.16582-8.4247-2.4617-8.4247-2.4617l-3.6695 7.0023s9.3131 4.9708 14.433 5.4359c1.7712 0.16091 5.2501-0.95004 5.2501-0.95004l2.7566 6.6941 7.3463-2.5533-3.7939-6.1919s5.4871-4.0501 6.6099-7.0763c1.4492-3.9061 0.90196-8.5687-0.5096-12.489-1.2599-3.4982-3.3614-7.357-6.7548-8.8766-4.4767-2.0046-9.8222 1.8971-14.67 1.1504-1.9107-0.29426-4.6987-0.36199-5.3776-2.1721-0.5175-1.3806 0.78231-3.1144 2.0006-3.9448 3.0295-2.065 7.522-2.3469 10.949-1.0446 1.4521 0.5518 3.1745 3.4118 3.1745 3.4118z"/>
    <path id="path3013" style="color:#000000" d="m670.25 173.23s-3.0274-8.3247-6.3939-10.816c-2.4077-1.782-8.7342-2.113-8.7342-2.113l0.71157-10.313-9.6626-0.38875-0.23438 8.527s-6.3354 0.40566-8.6397 2.2949c-3.7368 3.0638-6.5424 8.1796-6.3956 13.01 0.14899 4.9031 3.4406 9.7378 7.2825 12.788 4.2994 3.4131 11.566 1.1805 15.786 4.6913 2.5744 2.1417 5.3112 5.6837 4.5661 8.9485-0.50483 2.2122-3.1944 3.6699-5.4181 4.1209-3.9195 0.79493-8.0732-1.1305-11.625-2.9688-3.1433-1.6269-8.0855-6.8826-8.0855-6.8826l-7.5131 5.9179s7.8261 10.092 13.249 13.137c1.8761 1.0532 6.2667 1.5462 6.2667 1.5462l-0.26521 8.7542 9.3737 0.81212-1.1284-8.7124s8.0608-1.7597 10.796-4.5461c3.5311-3.5967 5.2316-9.0155 5.6106-14.042 0.3381-4.4854-0.0749-9.785-3.0708-13.14-3.9522-4.4264-11.783-2.7606-16.767-5.9813-1.9643-1.2694-5.0093-2.7223-4.8641-5.0566 0.11102-1.7802 2.4033-3.0522 4.159-3.3669 4.3658-0.78255 9.4657 1.1268 12.606 4.2589 1.3306 1.3271 1.8188 5.3364 1.8188 5.3364z"/>
    <path id="path3015" style="color:#000000" d="m565.04 150.74s-6.5676-8.6008-11.402-10.277c-3.4574-1.1989-10.954 0.72389-10.954 0.72389l-2.934-12.283-11.407 3.073 2.8386 10.027s-7.2382 2.785-9.2353 5.8285c-3.2385 4.9357-4.6426 11.924-2.7088 17.501 1.963 5.662 7.565 10.097 13.157 12.251 6.2581 2.4103 13.915-2.8445 20.116-0.29138 3.783 1.5575 8.2664 4.6883 8.5891 8.7665 0.21877 2.7634-2.3849 5.4444-4.813 6.7818-4.2796 2.3572-9.8249 1.6283-14.637 0.78112-4.2584-0.74972-11.938-5.0735-11.938-5.0735l-6.5996 9.6414s12.807 8.9102 20.241 10.48c2.5717 0.54319 7.8705-0.48431 7.8705-0.48431l2.8855 10.303 11.225-2.474-4.4951-9.7457s8.7557-4.9933 10.928-9.2403c2.8042-5.4819 2.8092-12.42 1.417-18.418-1.2427-5.3528-3.6583-11.381-8.3755-14.199-6.2231-3.7183-14.745 1.0817-21.731-0.85454-2.7534-0.76313-6.8337-1.3458-7.5163-4.1203-0.52022-2.116 1.6881-4.4355 3.6202-5.4431 4.8044-2.5056 11.447-2.1407 16.251 0.36482 2.0356 1.0616 4.0679 5.5579 4.0679 5.5579z"/>
    <path id="path3017" style="color:#000000" d="m633.92 108.06s-2.0632-10.91-5.7245-14.673c-2.6185-2.6909-10.378-4.3787-10.378-4.3787l2.9639-12.614-11.875-2.4331-2.0127 10.501s-7.9193-0.77814-11.152 1.0935c-5.2417 3.0352-9.7461 8.797-10.54 14.802-0.80629 6.0956 2.289 12.742 6.4255 17.291 4.6291 5.091 14.07 3.7972 18.581 8.9929 2.752 3.1696 5.4221 8.1043 3.8407 11.993-1.0715 2.6347-4.6931 3.8946-7.5353 4.0033-5.0094 0.19151-9.7588-3.0296-13.781-6.0214-3.5598-2.6477-8.612-10.148-8.612-10.148l-10.49 5.8031s7.6426 14.066 13.737 18.928c2.1082 1.6819 7.4401 3.1789 7.4401 3.1789l-2.0968 10.776 11.432 2.8985 0.36429-11.006s10.327-0.54833 14.275-3.4427c5.0949-3.736 8.2934-10.096 9.7778-16.237 1.3245-5.4805 1.8843-12.12-1.144-16.876-3.9948-6.2743-14.019-5.7957-19.534-10.787-2.1735-1.9672-5.6469-4.3798-4.9957-7.2382 0.497-2.1798 3.5898-3.2902 5.8253-3.3248 5.559-0.08602 11.482 3.3064 14.734 7.8155 1.378 1.9106 1.1718 6.9691 1.1718 6.9691z"/>
    <path id="path3019" style="color:#000000" d="m494.19 103.99s-3.515-3.9393-5.9291-4.5747c-1.7265-0.45445-5.3016 0.76003-5.3016 0.76003l-1.8846-5.8659-5.4346 1.9196 1.7542 4.7719s-3.4173 1.6242-4.2754 3.1792c-1.3916 2.5215-1.8144 5.9732-0.66598 8.6144 1.1658 2.6812 4.056 4.6302 6.8565 5.4697 3.134 0.93945 6.6631-1.9019 9.7747-0.89081 1.8982 0.61676 4.1957 1.9728 4.5046 3.9446 0.20931 1.3361-0.9574 2.7372-2.0887 3.4782-1.994 1.306-4.7187 1.1579-7.0909 0.92499-2.0994-0.20612-5.9964-2.0235-5.9964-2.0235l-2.8514 4.9358s6.5619 3.8575 10.237 4.3444c1.2712 0.16848 3.8105-0.52865 3.8105-0.52865l1.7873 4.9044 5.3682-1.6215-2.5495-4.5734s4.0732-2.755 4.9719-4.9018c1.1599-2.7711 0.90406-6.1464 0.003-9.0123-0.80383-2.5576-2.2034-5.3999-4.603-6.5953-3.1656-1.577-7.1325 1.0752-10.603 0.3935-1.3678-0.2687-3.3743-0.40022-3.8097-1.7244-0.33185-1.01 0.65602-2.2205 1.5584-2.7826 2.2438-1.3978 5.4887-1.4676 7.9191-0.42768 1.0298 0.44053 2.1858 2.5521 2.1858 2.5521z"/>
    <path id="path3021" style="color:#000000" d="m578.34 60.359s-1.5712-5.0403-3.5062-6.6173c-1.384-1.1278-5.1413-1.5006-5.1413-1.5006l0.71011-6.1202-5.7419-0.49985-0.37641 5.0702s-3.7831 0.06553-5.2075 1.1263c-2.3098 1.7202-4.1223 4.6881-4.1691 7.5677-0.0475 2.9233 1.7779 5.8931 3.9805 7.8156 2.4649 2.1515 6.8531 1.0241 9.268 3.2315 1.4732 1.3466 3.0042 3.5314 2.4699 5.4544-0.36199 1.303-2.0037 2.0962-3.3402 2.3029-2.3556 0.3644-4.7751-0.89728-6.8386-2.0905-1.8262-1.0559-4.6227-4.3223-4.6227-4.3223l-4.6374 3.3146s4.379 6.2259 7.5233 8.1891c1.0877 0.67913 3.688 1.0946 3.688 1.0946l-0.40108 5.2045 5.5582 0.74389-0.4298-5.2184s4.848-0.82376 6.5541-2.4067c2.2022-2.0433 3.3651-5.2222 3.7304-8.204 0.3259-2.661 0.22719-5.8277-1.4632-7.9085-2.23-2.7451-6.9386-1.9708-9.8163-4.0268-1.1342-0.81032-2.9067-1.7599-2.7554-3.1456 0.11555-1.0568 1.5156-1.7504 2.5696-1.889 2.621-0.34463 5.6042 0.93379 7.387 2.8857 0.75535 0.82706 0.93459 3.2276 0.93459 3.2276z"/>
    <path id="path3023" style="color:#000000" d="m683.01 279.81s-2.3462-4.7296-4.5057-5.9817c-1.5444-0.89549-5.3136-0.67128-5.3136-0.67128l-0.26369-6.1556-5.7489 0.41169 0.42766 5.0661s-3.7255 0.66113-4.9648 1.9332c-2.0097 2.0629-3.3316 5.2794-2.9238 8.1304 0.41398 2.8942 2.6848 5.5391 5.163 7.0903 2.7732 1.736 6.9289-0.0692 9.6616 1.7299 1.6671 1.0975 3.5234 3.0136 3.299 4.9968-0.15203 1.3438-1.6482 2.3859-2.9354 2.8008-2.2687 0.73124-4.8568-0.13322-7.0827-0.98613-1.9698-0.75481-5.2463-3.5394-5.2463-3.5394l-4.0568 4.0043s5.3059 5.4577 8.7203 6.9005c1.1812 0.49915 3.8145 0.49948 3.8145 0.49948l0.42449 5.2027 5.606-0.14173-1.2472-5.0853s4.6575-1.5778 6.0927-3.4099c1.8525-2.3649 2.4997-5.6874 2.3903-8.6895-0.0977-2.6791-0.69445-5.7906-2.6918-7.5789-2.6349-2.3592-7.1625-0.85226-10.328-2.4288-1.2478-0.62136-3.1478-1.2796-3.2169-2.6718-0.0525-1.0618 1.2207-1.9674 2.2397-2.2705 2.5339-0.75354 5.6814 0.0385 7.7496 1.685 0.8763 0.69763 1.4318 3.0399 1.4318 3.0399z"/>
    <path id="path3025" style="color:#000000" d="m648.43 303.55s-3.3736-4.061-5.7637-4.7814c-1.7093-0.51518-5.3252 0.57221-5.3252 0.57221l-1.6762-5.9289-5.499 1.7264 1.5844 4.8309s-3.4726 1.5025-4.3851 3.0261c-1.4798 2.4708-2.0243 5.9054-0.96999 8.5855 1.0703 2.7207 3.8898 4.7706 6.6589 5.7086 3.0988 1.0496 6.7261-1.6652 9.8001-0.54482 1.8752 0.68345 4.1234 2.1198 4.3624 4.1013 0.16198 1.3427-1.0535 2.7017-2.2103 3.4022-2.0389 1.2347-4.7566 0.99043-7.1192 0.67383-2.0908-0.28019-5.9211-2.2341-5.9211-2.2341l-3.024 4.8319s6.4215 4.0869 10.077 4.7035c1.2645 0.21329 3.8268-0.39366 3.8268-0.39366l1.6129 4.9646 5.4222-1.4307-2.3863-4.6606s4.1681-2.6094 5.142-4.7231c1.2572-2.7284 1.1207-6.1106 0.32194-9.0065-0.71292-2.5844-2.0111-5.4744-4.367-6.7539-3.1079-1.6879-7.166 0.8225-10.61 0.0186-1.3574-0.31685-3.3581-0.51919-3.7464-1.858-0.29595-1.021 0.73407-2.1959 1.6557-2.7258 2.2918-1.3176 5.5371-1.2728 7.9292-0.14757 1.0136 0.47674 2.0942 2.6278 2.0942 2.6278z"/>
    <path id="path3027" style="color:#000000" d="m526.59 67.112s-5.542-3.394-8.6127-3.2854c-2.1962 0.0777-5.9782 2.779-5.9782 2.779l-4.3048-6.2438-5.723 4.1929 3.7625 5.0008s-3.4505 3.1282-3.9095 5.2655c-0.74435 3.4661-0.0165 7.6842 2.2752 10.389 2.3263 2.7458 6.4249 4.0161 10.024 4.0106 4.0273-0.0061 7.1772-4.6083 11.203-4.5221 2.4562 0.05259 5.6456 0.83457 6.7101 3.0488 0.72131 1.5003-0.156 3.566-1.2261 4.8412-1.8861 2.2475-5.1498 3.0408-8.0284 3.609-2.5475 0.50284-7.7858-0.25468-7.7858-0.25468l-1.6071 6.8299s9.1037 2.2152 13.607 1.4838c1.558-0.253 4.3031-1.9766 4.3031-1.9766l3.8486 5.1452 5.7507-3.8179-4.6293-4.4843s3.8218-4.6938 4.1184-7.5432c0.38273-3.6779-1.1179-7.5649-3.1973-10.623-1.8558-2.7287-4.5149-5.5813-7.7676-6.1378-4.2911-0.73411-8.024 3.8008-12.356 4.2302-1.7074 0.1692-4.119 0.72698-5.1024-0.679-0.74986-1.0724-0.0156-2.85 0.84814-3.833 2.1479-2.4444 5.9473-3.6793 9.1811-3.3171 1.3702 0.15349 3.4826 2.2314 3.4826 2.2314z"/>
    <path id="path3029" style="color:#000000" d="m473.67 63.827s-0.46687-2.9899-1.4314-4.0468c-0.68981-0.75584-2.7888-1.2833-2.7888-1.2833l0.91738-3.4103-3.2135-0.76636-0.63987 2.843s-2.1504-0.28104-3.0473 0.2006c-1.4543 0.78106-2.7316 2.3113-3.0003 3.9401-0.2728 1.6534 0.51238 3.4908 1.5995 4.7661 1.2166 1.4272 3.7994 1.1571 4.9829 2.6117 0.72199 0.88739 1.4063 2.2549 0.94161 3.3003-0.31485 0.70835-1.3124 1.02-2.0875 1.0248-1.3662 0.0085-2.6319-0.91037-3.7015-1.7604-0.9466-0.75229-2.2574-2.8394-2.2574-2.8394l-2.9081 1.4893s1.9592 3.8983 3.5768 5.2758c0.55959 0.47654 1.999 0.93082 1.999 0.93082l-0.66515 2.9171 3.0888 0.88926 0.19522-2.9948s2.818-0.05929 3.9184-0.81328c1.4204-0.97327 2.3472-2.6778 2.8051-4.3377 0.40859-1.4813 0.61897-3.2851-0.16443-4.607-1.0335-1.744-3.7682-1.701-5.2269-3.1088-0.57491-0.55483-1.5-1.2423-1.2977-2.0153 0.1544-0.58944 1.0066-0.86495 1.6158-0.85486 1.515 0.02505 3.0989 1.0008 3.9455 2.2575 0.35871 0.53244 0.25842 1.9086 0.25842 1.9086z"/>
    <path id="path3031" style="color:#000000" d="m492.16 24.153s-0.24849-2.1238-0.90083-2.8962c-0.46655-0.55242-1.9343-0.9818-1.9343-0.9818l0.74032-2.383-2.2482-0.62834-0.52896 1.99s-1.5108-0.2568-2.1571 0.05893c-1.0481 0.51201-1.9914 1.5578-2.2254 2.7006-0.2375 1.1601 0.26703 2.4787 1 3.4087 0.82026 1.0407 2.6513 0.92011 3.4475 1.9794 0.48571 0.64617 0.93175 1.6303 0.57527 2.3558-0.24153 0.49161-0.95434 0.68455-1.5018 0.66692-0.96491-0.0311-1.8336-0.71423-2.5658-1.3435-0.64796-0.55687-1.5168-2.0661-1.5168-2.0661l-2.0938 0.9726s1.2775 2.8057 2.3823 3.8222c0.38217 0.35166 1.3862 0.71149 1.3862 0.71149l-0.54883 2.0417 2.1568 0.71174 0.21913-2.1093s1.9913 0.03463 2.7888-0.46789c1.0294-0.64869 1.73-1.8271 2.0984-2.9866 0.32871-1.0349 0.52622-2.3027 0.009-3.2574-0.68238-1.2594-2.6145-1.3034-3.6063-2.3369-0.39087-0.40737-1.0254-0.9179-0.86157-1.4582 0.12502-0.412 0.73419-0.5834 1.1641-0.55974 1.0691 0.05881 2.161 0.79078 2.7246 1.7011 0.23883 0.38569 0.13066 1.3546 0.13066 1.3546z"/>
    <path id="path3033" style="color:#000000" d="m650.07 250.39s-3.2131-4.1892-5.5733-5.0021c-1.688-0.5813-5.3434 0.36457-5.3434 0.36457l-1.4442-5.9896-5.562 1.5111 1.3953 4.8889s-3.5284 1.3662-4.4996 2.8532c-1.5748 2.4113-2.2526 5.8222-1.3033 8.5413 0.96359 2.7603 3.7012 4.9184 6.4318 5.9633 3.0556 1.1694 6.7858-1.4022 9.8139-0.16307 1.8472 0.7559 4.0378 2.2786 4.1995 4.268 0.10961 1.348-1.1579 2.6587-2.341 3.3136-2.0854 1.1545-4.7916 0.8046-7.14 0.3963-2.0783-0.36133-5.8297-2.4628-5.8297-2.4628l-3.2097 4.7106s6.2576 4.3337 9.886 5.092c1.2552 0.26234 3.8392-0.24445 3.8392-0.24445l1.4185 5.0236 5.4738-1.2187-2.2031-4.75s4.2664-2.4452 5.3219-4.5194c1.3624-2.6774 1.3576-6.0623 0.67214-8.9872-0.61181-2.6102-1.7966-5.5485-4.1009-6.9187-3.0399-1.8076-7.1926 0.54304-10.603-0.39431-1.3441-0.36944-3.3354-0.64948-3.6712-2.0023-0.25599-1.0318 0.81896-2.1657 1.7605-2.6593 2.3413-1.2274 5.5824-1.0563 7.929 0.16108 0.99424 0.51582 1.9904 2.7073 1.9904 2.7073z"/>
  </g>
  <g id="g3103" transform="translate(-239.73 -1.0341)" fill="#008000" fill-rule="evenodd">
    <path id="path3077" style="color:#000000" d="m697.03 316.1-79.455 3.8335v54.573l197.25 167.98 7.8337-7.9289s-27.806-62.811-55.169-80.312c-18.21-11.647-61.507-11.776-67.502-11.739l-1.1667-50.24v-29.93l-0.71431 0.0238-1.0715-46.264zm117.79 226.39-39.954 40.525s-5.9096-30.769-16.905-40.335c-25.951-22.576-66.4-34.646-99.766-26.287-13.418 3.3616-30.489 14.407-30.406 28.239 0.10842 18.137 24.443 27.788 40.311 36.573 33.466 18.527 80.364 9.8813 114.15 24.906l0.30953-22.144 43.573 35.882 35.882-37.168-47.192-40.192zm-32.573 63.621-3.262 237.68c6.7419-4.2114 12.61-8.7573 16.691-13.524 25.422-29.692 35.721-72.512 36.001-111.6 0.25015-34.882-5.7416-75.672-30.692-100.05-5.5547-5.4277-11.88-9.4501-18.739-12.5zm-3.262 237.68c-14.117 8.8184-32.062 16.171-45.43 21.025l0.0238 0.64288c-4.244 0.71605-9.2638 1.4113-14.929 1.9763l5.1192 88.027 53.669 0.16667 1.5477-111.84zm-60.336 23.644-4.024-69.431-105.08-1.2858 0.47621 65.669c23.422 5.5291 50.225 5.1926 76.408 6.0955 12.152 0.41902 23.039-0.13249 32.215-1.0477zm-108.62-5.0478c-1.1392-0.26892-2.2822-0.5358-3.4049-0.83337-1.2703-0.45956-2.481-0.9345-3.5716-1.4524-43.57-20.69-109.46-94.64-109.46-94.64l55.002-49.764s41.014 38.073 66.193 49.002c28.451 12.349 61.597 25.053 91.503 16.834 16.968-4.6634 37.025-17.381 39.763-34.763 4.0414-25.653-19.001-51.6-40.049-66.812-34.503-24.936-89.558-3.839-124.62-27.977-7.7544-5.3379-15.303-11.547-22.334-18.429l0.50002 61.931h-54.907l-4.2382-69.193 52.407 0.80955c-4.0823-4.4454-7.9507-9.1042-11.5-13.977l-41.74-0.30953-4.4764-73.193 23.144-1.1191c2.7739-31.838 19.81-64.143 42.668-85.646 12.337-11.606 41.787-18.171 56.669-20.858v-57.478l-58.026-49.43-297.32 256.32 35.882 41.001 57.669-42.287 3.8335 374.25 251.06 0.76193-0.64288-92.741zm-91.79-323.89c-0.5384 6.1795-0.55139 12.344 0.0476 18.405 1.9689 19.924 10.662 39.246 23.025 56.216l17.572 0.11905-0.61907-76.693-40.025 1.9524zm34.573 88.598c2.0295 2.21 4.1039 4.3633 6.2383 6.4526l-0.0476-6.3574-6.1907-0.0952zm-65.574-87.098 2.9049 72.741-62.121-0.4524-1.762-69.336 60.978-2.9525zm-58.907 85.194 62.336 0.95241 2.762 69.336h-63.312l-1.7858-70.288z"/>
    <path id="path2987" style="color:#000000" d="m610.8 211.17s-5.0957-5.2581-8.4771-6.0008c-2.4184-0.5312-7.3032 1.3558-7.3032 1.3558l-2.9463-8.0209-7.4212 2.9702 2.7032 6.5124s-4.6427 2.4458-5.7431 4.6494c-1.7844 3.5736-2.1733 8.3808-0.43118 11.975 1.7684 3.6488 5.8847 6.1846 9.8133 7.1881 4.3964 1.1229 9.1246-3.0157 13.494-1.7923 2.6656 0.74632 5.9267 2.4942 6.4672 5.209 0.3663 1.8395-1.1705 3.8476-2.6959 4.939-2.6886 1.9236-6.4726 1.8738-9.7732 1.6865-2.9209-0.16582-8.4247-2.4617-8.4247-2.4617l-3.6695 7.0023s9.3131 4.9708 14.433 5.4359c1.7712 0.16091 5.2501-0.95004 5.2501-0.95004l2.7566 6.6941 7.3463-2.5533-3.7939-6.1919s5.4871-4.0501 6.6099-7.0763c1.4492-3.9061 0.90196-8.5687-0.5096-12.489-1.2599-3.4982-3.3614-7.357-6.7548-8.8766-4.4767-2.0046-9.8222 1.8971-14.67 1.1504-1.9107-0.29426-4.6987-0.36199-5.3776-2.1721-0.5175-1.3806 0.78231-3.1144 2.0006-3.9448 3.0295-2.065 7.522-2.3469 10.949-1.0446 1.4521 0.5518 3.1745 3.4118 3.1745 3.4118z"/>
    <path id="path3081" style="color:#000000" d="m670.25 173.23s-3.0274-8.3247-6.3939-10.816c-2.4077-1.782-8.7342-2.113-8.7342-2.113l0.71157-10.313-9.6626-0.38875-0.23438 8.527s-6.3354 0.40566-8.6397 2.2949c-3.7368 3.0638-6.5424 8.1796-6.3956 13.01 0.14899 4.9031 3.4406 9.7378 7.2825 12.788 4.2994 3.4131 11.566 1.1805 15.786 4.6913 2.5744 2.1417 5.3112 5.6837 4.5661 8.9485-0.50483 2.2122-3.1944 3.6699-5.4181 4.1209-3.9195 0.79493-8.0732-1.1305-11.625-2.9688-3.1433-1.6269-8.0855-6.8826-8.0855-6.8826l-7.5131 5.9179s7.8261 10.092 13.249 13.137c1.8761 1.0532 6.2667 1.5462 6.2667 1.5462l-0.26521 8.7542 9.3737 0.81212-1.1284-8.7124s8.0608-1.7597 10.796-4.5461c3.5311-3.5967 5.2316-9.0155 5.6106-14.042 0.3381-4.4854-0.0749-9.785-3.0708-13.14-3.9522-4.4264-11.783-2.7606-16.767-5.9813-1.9643-1.2694-5.0093-2.7223-4.8641-5.0566 0.11102-1.7802 2.4033-3.0522 4.159-3.3669 4.3658-0.78255 9.4657 1.1268 12.606 4.2589 1.3306 1.3271 1.8188 5.3364 1.8188 5.3364z"/>
    <path id="path3083" style="color:#000000" d="m565.04 150.74s-6.5676-8.6008-11.402-10.277c-3.4574-1.1989-10.954 0.72389-10.954 0.72389l-2.934-12.283-11.407 3.073 2.8386 10.027s-7.2382 2.785-9.2353 5.8285c-3.2385 4.9357-4.6426 11.924-2.7088 17.501 1.963 5.662 7.565 10.097 13.157 12.251 6.2581 2.4103 13.915-2.8445 20.116-0.29138 3.783 1.5575 8.2664 4.6883 8.5891 8.7665 0.21877 2.7634-2.3849 5.4444-4.813 6.7818-4.2796 2.3572-9.8249 1.6283-14.637 0.78112-4.2584-0.74972-11.938-5.0735-11.938-5.0735l-6.5996 9.6414s12.807 8.9102 20.241 10.48c2.5717 0.54319 7.8705-0.48431 7.8705-0.48431l2.8855 10.303 11.225-2.474-4.4951-9.7457s8.7557-4.9933 10.928-9.2403c2.8042-5.4819 2.8092-12.42 1.417-18.418-1.2427-5.3528-3.6583-11.381-8.3755-14.199-6.2231-3.7183-14.745 1.0817-21.731-0.85454-2.7534-0.76313-6.8337-1.3458-7.5163-4.1203-0.52022-2.116 1.6881-4.4355 3.6202-5.4431 4.8044-2.5056 11.447-2.1407 16.251 0.36482 2.0356 1.0616 4.0679 5.5579 4.0679 5.5579z"/>
    <path id="path3085" style="color:#000000" d="m633.92 108.06s-2.0632-10.91-5.7245-14.673c-2.6185-2.6909-10.378-4.3787-10.378-4.3787l2.9639-12.614-11.875-2.4331-2.0127 10.501s-7.9193-0.77814-11.152 1.0935c-5.2417 3.0352-9.7461 8.797-10.54 14.802-0.80629 6.0956 2.289 12.742 6.4255 17.291 4.6291 5.091 14.07 3.7972 18.581 8.9929 2.752 3.1696 5.4221 8.1043 3.8407 11.993-1.0715 2.6347-4.6931 3.8946-7.5353 4.0033-5.0094 0.19151-9.7588-3.0296-13.781-6.0214-3.5598-2.6477-8.612-10.148-8.612-10.148l-10.49 5.8031s7.6426 14.066 13.737 18.928c2.1082 1.6819 7.4401 3.1789 7.4401 3.1789l-2.0968 10.776 11.432 2.8985 0.36429-11.006s10.327-0.54833 14.275-3.4427c5.0949-3.736 8.2934-10.096 9.7778-16.237 1.3245-5.4805 1.8843-12.12-1.144-16.876-3.9948-6.2743-14.019-5.7957-19.534-10.787-2.1735-1.9672-5.6469-4.3798-4.9957-7.2382 0.497-2.1798 3.5898-3.2902 5.8253-3.3248 5.559-0.08602 11.482 3.3064 14.734 7.8155 1.378 1.9106 1.1718 6.9691 1.1718 6.9691z"/>
    <path id="path3087" style="color:#000000" d="m494.19 103.99s-3.515-3.9393-5.9291-4.5747c-1.7265-0.45445-5.3016 0.76003-5.3016 0.76003l-1.8846-5.8659-5.4346 1.9196 1.7542 4.7719s-3.4173 1.6242-4.2754 3.1792c-1.3916 2.5215-1.8144 5.9732-0.66598 8.6144 1.1658 2.6812 4.056 4.6302 6.8565 5.4697 3.134 0.93945 6.6631-1.9019 9.7747-0.89081 1.8982 0.61676 4.1957 1.9728 4.5046 3.9446 0.20931 1.3361-0.9574 2.7372-2.0887 3.4782-1.994 1.306-4.7187 1.1579-7.0909 0.92499-2.0994-0.20612-5.9964-2.0235-5.9964-2.0235l-2.8514 4.9358s6.5619 3.8575 10.237 4.3444c1.2712 0.16848 3.8105-0.52865 3.8105-0.52865l1.7873 4.9044 5.3682-1.6215-2.5495-4.5734s4.0732-2.755 4.9719-4.9018c1.1599-2.7711 0.90406-6.1464 0.003-9.0123-0.80383-2.5576-2.2034-5.3999-4.603-6.5953-3.1656-1.577-7.1325 1.0752-10.603 0.3935-1.3678-0.2687-3.3743-0.40022-3.8097-1.7244-0.33185-1.01 0.65602-2.2205 1.5584-2.7826 2.2438-1.3978 5.4887-1.4676 7.9191-0.42768 1.0298 0.44053 2.1858 2.5521 2.1858 2.5521z"/>
    <path id="path3089" style="color:#000000" d="m578.34 60.359s-1.5712-5.0403-3.5062-6.6173c-1.384-1.1278-5.1413-1.5006-5.1413-1.5006l0.71011-6.1202-5.7419-0.49985-0.37641 5.0702s-3.7831 0.06553-5.2075 1.1263c-2.3098 1.7202-4.1223 4.6881-4.1691 7.5677-0.0475 2.9233 1.7779 5.8931 3.9805 7.8156 2.4649 2.1515 6.8531 1.0241 9.268 3.2315 1.4732 1.3466 3.0042 3.5314 2.4699 5.4544-0.36199 1.303-2.0037 2.0962-3.3402 2.3029-2.3556 0.3644-4.7751-0.89728-6.8386-2.0905-1.8262-1.0559-4.6227-4.3223-4.6227-4.3223l-4.6374 3.3146s4.379 6.2259 7.5233 8.1891c1.0877 0.67913 3.688 1.0946 3.688 1.0946l-0.40108 5.2045 5.5582 0.74389-0.4298-5.2184s4.848-0.82376 6.5541-2.4067c2.2022-2.0433 3.3651-5.2222 3.7304-8.204 0.3259-2.661 0.22719-5.8277-1.4632-7.9085-2.23-2.7451-6.9386-1.9708-9.8163-4.0268-1.1342-0.81032-2.9067-1.7599-2.7554-3.1456 0.11555-1.0568 1.5156-1.7504 2.5696-1.889 2.621-0.34463 5.6042 0.93379 7.387 2.8857 0.75535 0.82706 0.93459 3.2276 0.93459 3.2276z"/>
    <path id="path3091" style="color:#000000" d="m683.01 279.81s-2.3462-4.7296-4.5057-5.9817c-1.5444-0.89549-5.3136-0.67128-5.3136-0.67128l-0.26369-6.1556-5.7489 0.41169 0.42766 5.0661s-3.7255 0.66113-4.9648 1.9332c-2.0097 2.0629-3.3316 5.2794-2.9238 8.1304 0.41398 2.8942 2.6848 5.5391 5.163 7.0903 2.7732 1.736 6.9289-0.0692 9.6616 1.7299 1.6671 1.0975 3.5234 3.0136 3.299 4.9968-0.15203 1.3438-1.6482 2.3859-2.9354 2.8008-2.2687 0.73124-4.8568-0.13322-7.0827-0.98613-1.9698-0.75481-5.2463-3.5394-5.2463-3.5394l-4.0568 4.0043s5.3059 5.4577 8.7203 6.9005c1.1812 0.49915 3.8145 0.49948 3.8145 0.49948l0.42449 5.2027 5.606-0.14173-1.2472-5.0853s4.6575-1.5778 6.0927-3.4099c1.8525-2.3649 2.4997-5.6874 2.3903-8.6895-0.0977-2.6791-0.69445-5.7906-2.6918-7.5789-2.6349-2.3592-7.1625-0.85226-10.328-2.4288-1.2478-0.62136-3.1478-1.2796-3.2169-2.6718-0.0525-1.0618 1.2207-1.9674 2.2397-2.2705 2.5339-0.75354 5.6814 0.0385 7.7496 1.685 0.8763 0.69763 1.4318 3.0399 1.4318 3.0399z"/>
    <path id="path3093" style="color:#000000" d="m648.43 303.55s-3.3736-4.061-5.7637-4.7814c-1.7093-0.51518-5.3252 0.57221-5.3252 0.57221l-1.6762-5.9289-5.499 1.7264 1.5844 4.8309s-3.4726 1.5025-4.3851 3.0261c-1.4798 2.4708-2.0243 5.9054-0.96999 8.5855 1.0703 2.7207 3.8898 4.7706 6.6589 5.7086 3.0988 1.0496 6.7261-1.6652 9.8001-0.54482 1.8752 0.68345 4.1234 2.1198 4.3624 4.1013 0.16198 1.3427-1.0535 2.7017-2.2103 3.4022-2.0389 1.2347-4.7566 0.99043-7.1192 0.67383-2.0908-0.28019-5.9211-2.2341-5.9211-2.2341l-3.024 4.8319s6.4215 4.0869 10.077 4.7035c1.2645 0.21329 3.8268-0.39366 3.8268-0.39366l1.6129 4.9646 5.4222-1.4307-2.3863-4.6606s4.1681-2.6094 5.142-4.7231c1.2572-2.7284 1.1207-6.1106 0.32194-9.0065-0.71292-2.5844-2.0111-5.4744-4.367-6.7539-3.1079-1.6879-7.166 0.8225-10.61 0.0186-1.3574-0.31685-3.3581-0.51919-3.7464-1.858-0.29595-1.021 0.73407-2.1959 1.6557-2.7258 2.2918-1.3176 5.5371-1.2728 7.9292-0.14757 1.0136 0.47674 2.0942 2.6278 2.0942 2.6278z"/>
    <path id="path3095" style="color:#000000" d="m526.59 67.112s-5.542-3.394-8.6127-3.2854c-2.1962 0.0777-5.9782 2.779-5.9782 2.779l-4.3048-6.2438-5.723 4.1929 3.7625 5.0008s-3.4505 3.1282-3.9095 5.2655c-0.74435 3.4661-0.0165 7.6842 2.2752 10.389 2.3263 2.7458 6.4249 4.0161 10.024 4.0106 4.0273-0.0061 7.1772-4.6083 11.203-4.5221 2.4562 0.05259 5.6456 0.83457 6.7101 3.0488 0.72131 1.5003-0.156 3.566-1.2261 4.8412-1.8861 2.2475-5.1498 3.0408-8.0284 3.609-2.5475 0.50284-7.7858-0.25468-7.7858-0.25468l-1.6071 6.8299s9.1037 2.2152 13.607 1.4838c1.558-0.253 4.3031-1.9766 4.3031-1.9766l3.8486 5.1452 5.7507-3.8179-4.6293-4.4843s3.8218-4.6938 4.1184-7.5432c0.38273-3.6779-1.1179-7.5649-3.1973-10.623-1.8558-2.7287-4.5149-5.5813-7.7676-6.1378-4.2911-0.73411-8.024 3.8008-12.356 4.2302-1.7074 0.1692-4.119 0.72698-5.1024-0.679-0.74986-1.0724-0.0156-2.85 0.84814-3.833 2.1479-2.4444 5.9473-3.6793 9.1811-3.3171 1.3702 0.15349 3.4826 2.2314 3.4826 2.2314z"/>
    <path id="path3097" style="color:#000000" d="m473.67 63.827s-0.46687-2.9899-1.4314-4.0468c-0.68981-0.75584-2.7888-1.2833-2.7888-1.2833l0.91738-3.4103-3.2135-0.76636-0.63987 2.843s-2.1504-0.28104-3.0473 0.2006c-1.4543 0.78106-2.7316 2.3113-3.0003 3.9401-0.2728 1.6534 0.51238 3.4908 1.5995 4.7661 1.2166 1.4272 3.7994 1.1571 4.9829 2.6117 0.72199 0.88739 1.4063 2.2549 0.94161 3.3003-0.31485 0.70835-1.3124 1.02-2.0875 1.0248-1.3662 0.0085-2.6319-0.91037-3.7015-1.7604-0.9466-0.75229-2.2574-2.8394-2.2574-2.8394l-2.9081 1.4893s1.9592 3.8983 3.5768 5.2758c0.55959 0.47654 1.999 0.93082 1.999 0.93082l-0.66515 2.9171 3.0888 0.88926 0.19522-2.9948s2.818-0.05929 3.9184-0.81328c1.4204-0.97327 2.3472-2.6778 2.8051-4.3377 0.40859-1.4813 0.61897-3.2851-0.16443-4.607-1.0335-1.744-3.7682-1.701-5.2269-3.1088-0.57491-0.55483-1.5-1.2423-1.2977-2.0153 0.1544-0.58944 1.0066-0.86495 1.6158-0.85486 1.515 0.02505 3.0989 1.0008 3.9455 2.2575 0.35871 0.53244 0.25842 1.9086 0.25842 1.9086z"/>
    <path id="path3099" style="color:#000000" d="m492.16 24.153s-0.24849-2.1238-0.90083-2.8962c-0.46655-0.55242-1.9343-0.9818-1.9343-0.9818l0.74032-2.383-2.2482-0.62834-0.52896 1.99s-1.5108-0.2568-2.1571 0.05893c-1.0481 0.51201-1.9914 1.5578-2.2254 2.7006-0.2375 1.1601 0.26703 2.4787 1 3.4087 0.82026 1.0407 2.6513 0.92011 3.4475 1.9794 0.48571 0.64617 0.93175 1.6303 0.57527 2.3558-0.24153 0.49161-0.95434 0.68455-1.5018 0.66692-0.96491-0.0311-1.8336-0.71423-2.5658-1.3435-0.64796-0.55687-1.5168-2.0661-1.5168-2.0661l-2.0938 0.9726s1.2775 2.8057 2.3823 3.8222c0.38217 0.35166 1.3862 0.71149 1.3862 0.71149l-0.54883 2.0417 2.1568 0.71174 0.21913-2.1093s1.9913 0.03463 2.7888-0.46789c1.0294-0.64869 1.73-1.8271 2.0984-2.9866 0.32871-1.0349 0.52622-2.3027 0.009-3.2574-0.68238-1.2594-2.6145-1.3034-3.6063-2.3369-0.39087-0.40737-1.0254-0.9179-0.86157-1.4582 0.12502-0.412 0.73419-0.5834 1.1641-0.55974 1.0691 0.05881 2.161 0.79078 2.7246 1.7011 0.23883 0.38569 0.13066 1.3546 0.13066 1.3546z"/>
    <path id="path3101" style="color:#000000" d="m650.07 250.39s-3.2131-4.1892-5.5733-5.0021c-1.688-0.5813-5.3434 0.36457-5.3434 0.36457l-1.4442-5.9896-5.562 1.5111 1.3953 4.8889s-3.5284 1.3662-4.4996 2.8532c-1.5748 2.4113-2.2526 5.8222-1.3033 8.5413 0.96359 2.7603 3.7012 4.9184 6.4318 5.9633 3.0556 1.1694 6.7858-1.4022 9.8139-0.16307 1.8472 0.7559 4.0378 2.2786 4.1995 4.268 0.10961 1.348-1.1579 2.6587-2.341 3.3136-2.0854 1.1545-4.7916 0.8046-7.14 0.3963-2.0783-0.36133-5.8297-2.4628-5.8297-2.4628l-3.2097 4.7106s6.2576 4.3337 9.886 5.092c1.2552 0.26234 3.8392-0.24445 3.8392-0.24445l1.4185 5.0236 5.4738-1.2187-2.2031-4.75s4.2664-2.4452 5.3219-4.5194c1.3624-2.6774 1.3576-6.0623 0.67214-8.9872-0.61181-2.6102-1.7966-5.5485-4.1009-6.9187-3.0399-1.8076-7.1926 0.54304-10.603-0.39431-1.3441-0.36944-3.3354-0.64948-3.6712-2.0023-0.25599-1.0318 0.81896-2.1657 1.7605-2.6593 2.3413-1.2274 5.5824-1.0563 7.929 0.16108 0.99424 0.51582 1.9904 2.7073 1.9904 2.7073z"/>
  </g>
  <metadata>
    <rdf:RDF>
      <cc:Work>
        <dc:format>image/svg+xml</dc:format>
        <dc:type rdf:resource="http://purl.org/dc/dcmitype/StillImage"/>
        <cc:license rdf:resource="http://creativecommons.org/licenses/publicdomain/"/>
        <dc:publisher>
          <cc:Agent rdf:about="http://openclipart.org/">
            <dc:title>Openclipart</dc:title>
          </cc:Agent>
        </dc:publisher>
        <dc:title>Home expense</dc:title>
        <dc:date>2012-05-03T21:59:35</dc:date>
        <dc:description>budget, clip art, clipart, cost, dollars, expense, home, house, household, money, </dc:description>
        <dc:source>http://openclipart.org/detail/169826/home-expense-by-scyg-169826</dc:source>
        <dc:creator>
          <cc:Agent>
            <dc:title>scyg</dc:title>
          </cc:Agent>
        </dc:creator>
        <dc:subject>
          <rdf:Bag>
            <rdf:li>budget</rdf:li>
            <rdf:li>clip art</rdf:li>
            <rdf:li>clipart</rdf:li>
            <rdf:li>cost</rdf:li>
            <rdf:li>dollars</rdf:li>
            <rdf:li>expense</rdf:li>
            <rdf:li>home</rdf:li>
            <rdf:li>house</rdf:li>
            <rdf:li>household</rdf:li>
            <rdf:li>money</rdf:li>
          </rdf:Bag>
        </dc:subject>
      </cc:Work>
      <cc:License rdf:about="http://creativecommons.org/licenses/publicdomain/">
        <cc:permits rdf:resource="http://creativecommons.org/ns#Reproduction"/>
        <cc:permits rdf:resource="http://creativecommons.org/ns#Distribution"/>
        <cc:permits rdf:resource="http://creativecommons.org/ns#DerivativeWorks"/>
      </cc:License>
    </rdf:RDF>
  </metadata>
</svg>
