<?xml version="1.0" encoding="UTF-8" standalone="no"?>
<!--part of the matt icon theme by sixsixfive released under CC0 (https://creativecommons.org/publicdomain/zero/1.0/) on openclipart-->
<svg xmlns="http://www.w3.org/2000/svg" xmlns:xlink="http://www.w3.org/1999/xlink" viewBox="0 0 128 128">
 <defs id="0">
  <linearGradient id="3">
   <stop id="T" stop-color="#eee"/>
   <stop id="U" offset="1" stop-color="#d2d2d2"/>
  </linearGradient>
  <linearGradient id="4">
   <stop id="V"/>
   <stop id="W" offset="1" stop-opacity="0.536"/>
  </linearGradient>
  <linearGradient id="5">
   <stop id="X"/>
   <stop id="Y" offset="1" stop-color="#ddd" stop-opacity="0"/>
  </linearGradient>
  <filter x="-0.147" y="-0.145" width="1.294" height="1.29" color-interpolation-filters="sRGB" id="6">
   <feGaussianBlur stdDeviation="1.81881" id="Z"/>
  </filter>
  <filter color-interpolation-filters="sRGB" id="7">
   <feGaussianBlur stdDeviation="2.58594" id="a"/>
  </filter>
  <radialGradient cx="81.79" cy="100.32" r="44.42" id="8" xlink:href="#3" gradientUnits="userSpaceOnUse" gradientTransform="matrix(2.0026052,-1.5970314,1.7773333,2.2286954,-279.23554,23.703826)"/>
  <radialGradient cx="89.51" cy="22.254" r="18.279" id="9" xlink:href="#4" gradientUnits="userSpaceOnUse" gradientTransform="matrix(1,0,0,0.97467889,0,0.43910718)"/>
  <linearGradient x1="98.33" y1="14.793" x2="86.82" y2="25.1" id="A" xlink:href="#5" gradientUnits="userSpaceOnUse" gradientTransform="matrix(0.96714879,0,0,0.96714879,0.45622123,-0.08680339)"/>
  <linearGradient y1="8.707" x2="0" y2="120.54" id="B" xlink:href="#I" gradientUnits="userSpaceOnUse"/>
  <radialGradient cx="60.05" cy="51.39" r="15.03" id="C" xlink:href="#G" gradientUnits="userSpaceOnUse" gradientTransform="matrix(-1.404511,1.1888571,-1,-1.1813958,199.73811,11.750541)"/>
  <linearGradient id="D">
   <stop id="b" stop-color="#eee"/>
   <stop id="c" offset="1" stop-color="#eee" stop-opacity="0"/>
  </linearGradient>
  <radialGradient cx="64.7" cy="-15.174" r="55.27" id="E" xlink:href="#D" gradientUnits="userSpaceOnUse" gradientTransform="matrix(1.5330966,-3.1358239e-8,2.404893e-8,1.1240308,-33.828167,2.9909361)"/>
  <radialGradient cx="63.894" cy="117.35" r="53.91" id="F" xlink:href="#H" gradientUnits="userSpaceOnUse" gradientTransform="matrix(1,0,0,0.08641975,0,107.20963)"/>
  <linearGradient id="G">
   <stop id="d" stop-color="#eee"/>
   <stop id="e" offset="1" stop-color="#dcdcdc"/>
  </linearGradient>
  <linearGradient id="H">
   <stop id="f"/>
   <stop id="g" offset="1" stop-opacity="0"/>
  </linearGradient>
  <linearGradient id="I">
   <stop id="h" stop-color="#f0ff80"/>
   <stop id="i" offset="1" stop-color="#8bb300"/>
  </linearGradient>
 </defs>
 <g transform="translate(1.1324584,3.3099998)" id="1">
  <path d="m 20.09375,4.1185004 0,117.9999996 88.84375,0 0,-86.15625 -0.59375,-0.625 c 0.21045,0.144391 0.41688,0.302162 0.625,0.4375 L 78.09375,4.1497504 c 0.05654,0.079597 0.09993,0.1703021 0.15625,0.25 l -0.25,-0.28125 -57.90625,0 z" transform="matrix(0.96714879,0,0,0.97126149,0.45622123,-0.61456831)" id="J" opacity="0.809" filter="url(#7)"/>
  <path d="m 19.889867,2.5426324 0,114.1235576 85.925123,0 0,-83.325913 -29.921163,-30.7976446 -56.00396,0 z" id="K" fill="url(#8)"/>
  <path d="m 81.698039,28.309502 0.135161,-8.351 C 81.901124,13.359407 80.956142,8.4107397 77.785779,3.9471419 L 80.362343,3.9159389 107.86271,29.53084 c -4.06802,-2.645393 -9.621189,-0.791242 -16.861906,-1.025606 l -9.302765,-0.195732 z" transform="matrix(1.016085,0,0,1.112241,-4.9246966,-0.34524137)" id="L" opacity="0.505" fill="url(#9)" filter="url(#6)"/>
  <path d="m 81.615861,25.811681 0.130721,-8.07666 C 81.812274,11.352715 79.055005,6.8989516 75.988792,2.5819884 L 105.85553,33.170155 c -3.93438,-2.558489 -8.239658,-6.942507 -15.242511,-7.169171 l -8.997158,-0.189303 z" id="M" fill="#eee"/>
  <path d="m 81.615861,25.811681 0.130721,-8.07666 C 81.812274,11.352715 79.055005,6.8989516 75.988792,2.5819884 L 105.85553,33.170155 c -3.93438,-2.558489 -8.239658,-6.942507 -15.242511,-7.169171 l -8.997158,-0.189303 z" id="N" fill="url(#A)"/>
 </g>
 <g transform="matrix(0.58571262,0,0,0.58571262,54.716369,53.514393)" id="2">
  <path d="m 117.80366,117.35108 a 53.910149,4.6589017 0 1 1 -107.8202997,0 53.910149,4.6589017 0 1 1 107.8202997,0 z" transform="translate(1.2996963,3.4536055)" id="O" opacity="0.443" fill="url(#F)"/>
  <path d="m 122.08898,64.625572 a 56.734097,55.918617 0 1 1 -113.4681952,0 56.734097,55.918617 0 1 1 113.4681952,0 z" transform="matrix(1.0119373,0,0,1.0266947,-2.1350421,-4.4029736)" id="P" fill="url(#B)"/>
  <path d="m 122.08898,64.625572 a 56.734097,55.918617 0 1 1 -113.4681952,0 56.734097,55.918617 0 1 1 113.4681952,0 z" transform="matrix(1.0119373,0,0,1.0266947,-2.1350421,-4.4029736)" id="Q" fill="none" stroke="#638000" stroke-width="3.924"/>
  <path d="m 60.3125,32.15625 c -1.863454,0 -3.375,1.511546 -3.375,3.375 l 0,19.34375 -19.34375,0 c -1.863454,0 -3.375,1.511546 -3.375,3.375 l 0,7.40625 c 0,1.863454 1.511546,3.34375 3.375,3.34375 l 19.34375,0 0,19.375 c 0,1.863454 1.511546,3.34375 3.375,3.34375 l 7.375,0 c 1.863454,0 3.375,-1.480296 3.375,-3.34375 l 0,-19.375 19.34375,0 c 1.863454,0 3.375,-1.480296 3.375,-3.34375 l 0,-7.40625 c 0,-1.863454 -1.511546,-3.375 -3.375,-3.375 l -19.34375,0 0,-19.34375 c 0,-1.863454 -1.511546,-3.375 -3.375,-3.375 l -7.375,0 z" id="R" fill="#555"/>
  <g transform="translate(-0.00454736,5.8747942e-4)" id="S">
   <path d="m 65.34375,11.21875 c -29.979853,0 -54.21875,23.915681 -54.21875,53.40625 0,29.490569 24.238897,53.40625 54.21875,53.40625 29.979853,0 54.25,-23.917374 54.25,-53.40625 0,-29.488876 -24.270147,-53.40625 -54.25,-53.40625 z" transform="matrix(1.0119373,0,0,1.0266947,-2.1350421,-4.4029736)" id="j" fill="none" stroke="url(#E)" stroke-width="2.079"/>
  </g>
 </g>
</svg>
