<?xml version="1.0"?>
<svg xmlns:rdf="http://www.w3.org/1999/02/22-rdf-syntax-ns#" xmlns="http://www.w3.org/2000/svg" xmlns:cc="http://creativecommons.org/ns#" xmlns:xlink="http://www.w3.org/1999/xlink" xmlns:dc="http://purl.org/dc/elements/1.1/" xmlns:svg="http://www.w3.org/2000/svg" id="svg2" viewBox="0 0 60 60" version="1.0">
  <defs id="defs4">
    <linearGradient id="linearGradient9781" y2="882.59" gradientUnits="userSpaceOnUse" x2="190.95" gradientTransform="matrix(.23370 0 0 .24524 -30.007 -133.88)" y1="823.61" x1="223.7">
      <stop id="stop4155" stop-color="#fdfb63" offset="0"/>
      <stop id="stop4157" stop-color="#e2d94a" offset="1"/>
    </linearGradient>
    <linearGradient id="linearGradient9779" y2="393.27" gradientUnits="userSpaceOnUse" x2="743.11" gradientTransform="matrix(0 .14602 -.18189 0 120.35 -39.192)" y1="584.52" x1="351.58">
      <stop id="stop1502" stop-color="#fff" offset="0"/>
      <stop id="stop1504" stop-color="#fff" stop-opacity="0" offset="1"/>
    </linearGradient>
    <linearGradient id="linearGradient9777" y2="-130.79" gradientUnits="userSpaceOnUse" x2="463.22" gradientTransform="matrix(.23370 0 0 .24524 .42947 -93.923)" y1="340.63" x1="41.689">
      <stop id="stop3261" stop-color="#fefdb7" offset="0"/>
      <stop id="stop3267" stop-color="#f5f06c" offset="1"/>
    </linearGradient>
    <linearGradient id="linearGradient7803" y2="414.36" gradientUnits="userSpaceOnUse" x2="353.75" gradientTransform="matrix(2.5278 2.5256 -2.5278 2.5256 565.91 -1456.1)" y1="414.36" x1="335.72">
      <stop id="stop3708" stop-color="#fff" stop-opacity=".82653" offset="0"/>
      <stop id="stop3710" stop-color="#fff" stop-opacity="0" offset="1"/>
    </linearGradient>
    <linearGradient id="linearGradient7812" y2="437.79" gradientUnits="userSpaceOnUse" x2="365.75" gradientTransform="matrix(2.5278 2.5256 -2.5278 2.5256 565.91 -1456.1)" y1="437.79" x1="331.72">
      <stop id="stop3687" stop-color="#fff" offset="0"/>
      <stop id="stop3711" stop-color="#ffdd7c" offset="1"/>
    </linearGradient>
    <linearGradient id="linearGradient7819" y2="318.69" gradientUnits="userSpaceOnUse" x2="185.48" gradientTransform="matrix(2.3454 2.3434 -2.3454 2.3434 888.99 -800.77)" y1="318.69" x1="148.7">
      <stop id="stop4256" stop-color="#ff9191" offset="0"/>
      <stop id="stop4258" stop-color="#b55858" offset="1"/>
    </linearGradient>
  </defs>
  <g id="layer2" transform="translate(-209.34 -272.78)">
    <g id="g10892">
      <g id="g9771" fill-rule="evenodd" transform="matrix(.51618 0 0 .51424 207.08 270.77)">
        <rect id="rect2284" transform="rotate(90)" rx=".31229" ry=".32912" height="86.1" width="85.715" y="-91.543" x="5.7103" fill="#d0c36b"/>
        <rect id="rect3269" ry=".32349" rx=".30826" transform="rotate(90)" height="84.626" width="84.609" stroke="#f6db32" y="-89.469" x="4.3955" stroke-width=".95761" fill="url(#linearGradient9777)"/>
        <path id="path1500" opacity=".27778" d="m88.885 5.2927l-40.834-0.1503-40.835-0.1503c0.0002 0-12.831 128.57 30.231 57.723s48.142-40.891 51.438-57.422z" stroke-width="1pt" fill="url(#linearGradient9779)"/>
        <path id="path3169" d="m4.8633 66.629c9.1347 4.41 17.988 0.998 17.594 1.198 0.098 0.332-0.659 15.565 11.56 21.202-17.719-0.13-29.154-10.177-29.154-22.4z" stroke-opacity=".375" stroke="#f8df37" stroke-width=".95775" fill="url(#linearGradient9781)"/>
      </g>
      <g id="g7826" transform="matrix(0 .11576 -.11572 0 300.9 263.55)">
        <path id="path4217" d="m567.38 303.44c-23.74-23.72-49.66-36.33-57.82-28.18-0.55 0.55-1.03 1.17-1.4 1.88l-51.66 51.62 7.8 7.79 30.34 30.31 9.74 9.74 38.14 38.11 53.37-53.32c-0.03-0.1-0.03-0.21-0.06-0.31l-0.06-0.06 0.06-0.06c7.68-8.4-4.93-34.03-28.45-57.52z" fill="url(#linearGradient7819)"/>
        <path id="path4235" d="m470.45 314.82l-48.31 48.27-5.54 5.54 7.79 7.79 78.23 78.16 53.85-53.81-43.01-42.98-35.21-35.18-7.8-7.79z" fill="#e3dedb"/>
        <path id="path4143" d="m538.99 418.24l-86.02-85.95-3.9 3.9-1.95 1.94 86.02 85.95 1.95-1.95 3.9-3.89z"/>
        <path id="path4147" d="m548.74 408.5l-86.03-85.95-3.9 3.9-1.94 1.95 86.02 85.94 1.95-1.95 3.9-3.89z"/>
        <path id="path4163" d="m529.24 427.98l-86.02-85.95-3.9 3.9-1.95 1.94 86.02 85.95 1.95-1.95 3.9-3.89z"/>
        <path id="path4106" d="m429.21 356.03l-184.9 184.74-34.97 120.88 10.96-3.16 110.03-31.77 184.9-184.74-16.69-16.68-5.85-5.84-15.6-15.59-1.95-1.94-5.85-5.85-1.95-1.95-15.59-15.58-5.85-5.84-8.9-8.89-7.79-7.79z" fill="url(#linearGradient7812)"/>
        <path id="path3990" d="m256.88 647.93l-16.9-16.89-16.9-16.89-13.74 47.5 47.54-13.72z"/>
        <path id="path4089" d="m595.83 361.08c0.03 0.1 0.03 0.21 0.06 0.31l0.12-0.13-0.18-0.18z" fill="#ff9191"/>
        <path id="path3424" d="m429.21 356.03l-184.9 184.74 41.73 1.28 1.28 41.69 41.73 1.28 1.28 41.7 184.9-184.74-21.51-21.49-21.5-21.49-21.51-21.48-21.5-21.49z" fill="#ffc700"/>
        <path id="path3426" d="m429.21 356.03l-184.9 184.74 41.73 1.28 164.67-164.53-21.5-21.49z" fill="#ffda00"/>
        <path id="path3428" d="m329.05 585.02l1.28 41.7 184.9-184.74-21.51-21.49-164.67 164.53z" fill="#ff8a00"/>
        <path id="path3430" d="m287.32 583.74l41.73 1.28 164.67-164.53-21.5-21.49-184.9 184.74z" fill="#ffa100"/>
        <path id="path3680" d="m491.1 336.97c-1.55-1.55-3.37-2.77-5.29-3.55s-3.96-1.1-6-1.1c-2.05 0-4.09 0.32-6.01 1.1s-3.73 2-5.29 3.55l-29.23 29.2-173.55 173.4c-0.54 0.54-0.74 1.24-1.18 1.82l21.48 0.63 1.27 41.67 24.64 0.79 172.92-172.77 29.23-29.2c1.56-1.55 2.78-3.37 3.56-5.29 0.77-1.92 1.1-3.95 1.1-5.99 0-2.05-0.33-4.08-1.1-6-0.78-1.92-2-3.73-3.56-5.29l-22.99-22.97z" fill="url(#linearGradient7803)"/>
        <path id="path4288" opacity=".8" d="m239.98 631.04l-11.24-11.23-19.4 41.84 30.64-30.61z" fill="#fff"/>
      </g>
    </g>
  </g>
  <metadata>
    <rdf:RDF>
      <cc:Work>
        <dc:format>image/svg+xml</dc:format>
        <dc:type rdf:resource="http://purl.org/dc/dcmitype/StillImage"/>
        <cc:license rdf:resource="http://creativecommons.org/licenses/publicdomain/"/>
        <dc:publisher>
          <cc:Agent rdf:about="http://openclipart.org/">
            <dc:title>Openclipart</dc:title>
          </cc:Agent>
        </dc:publisher>
        <dc:title>sticky note pad and pencil</dc:title>
        <dc:date>2008-06-14T08:29:59</dc:date>
        <dc:description>A pencil writing on a sticky note. Created for use as a "note" admonition with Docbook and FOP</dc:description>
        <dc:source>http://openclipart.org/detail/17368/sticky-note-pad-and-pencil-by-jeremybennett</dc:source>
        <dc:creator>
          <cc:Agent>
            <dc:title>jeremybennett</dc:title>
          </cc:Agent>
        </dc:creator>
        <dc:subject>
          <rdf:Bag>
            <rdf:li>cartoon</rdf:li>
            <rdf:li>clip art</rdf:li>
            <rdf:li>clipart</rdf:li>
            <rdf:li>colour</rdf:li>
            <rdf:li>computer</rdf:li>
            <rdf:li>image</rdf:li>
            <rdf:li>media</rdf:li>
            <rdf:li>office</rdf:li>
            <rdf:li>public domain</rdf:li>
            <rdf:li>remix</rdf:li>
            <rdf:li>svg</rdf:li>
          </rdf:Bag>
        </dc:subject>
      </cc:Work>
      <cc:License rdf:about="http://creativecommons.org/licenses/publicdomain/">
        <cc:permits rdf:resource="http://creativecommons.org/ns#Reproduction"/>
        <cc:permits rdf:resource="http://creativecommons.org/ns#Distribution"/>
        <cc:permits rdf:resource="http://creativecommons.org/ns#DerivativeWorks"/>
      </cc:License>
    </rdf:RDF>
  </metadata>
</svg>
