<?xml version="1.0" encoding="UTF-8" standalone="no"?>
<svg width="849.64" xmlns="http://www.w3.org/2000/svg" height="637.62">
 <g id="FreeVector_Graphics" externalResourcesRequired="false">
  <g id="svg_339" externalResourcesRequired="false">
   <g id="svg_340" externalResourcesRequired="false" fill="#00aeef">
    <path id="svg_341" d="m505.01 115.61c-32.592-15.083-69.782-20.624-105.51-15.374 25.894 6.6822 50.392 18.136 72.231 33.164 11.086-5.9355 22.235-11.761 33.282-17.79z"/>
    <path id="svg_344" d="m368.22 188.47c-12.138-21.414-24.22-42.856-36.313-64.297-2.0419 1.466-4.7288 2.438-5.8939 4.8098-17.331 28.794-25.748 62.282-25.736 95.529 22.699-11.92 45.245-24.105 67.943-36.042z"/>
    <path id="svg_345" d="m521.23 215.03c-13.632-21.716-30.934-41.28-51.331-57.264-24.305 12.986-48.712 25.807-72.978 38.853 12.206 21.683 24.396 43.366 36.698 65.017 29.186-15.545 58.412-31.056 87.61-46.606z"/>
    <path id="svg_347" d="m591.64 201.01c-13.96 7.4126-27.908 14.842-41.834 22.271 11.595 22.688 19.231 47.254 22.8 72.331 11.906-6.1497 23.649-12.612 35.527-18.795 0.6618-26.076-5.4243-52.119-16.494-75.806z"/>
    <path id="svg_350" d="m281.74 257.79c-12.308 6.5121-24.531 13.2-36.924 19.558 0.26584 25.856 6.8101 51.603 18.547 74.801 13.943-7.3908 27.886-14.787 41.789-22.254-11.578-22.655-19.61-47.051-23.412-72.105z"/>
    <path id="svg_351" d="m461.92 354.55c-12.285-21.661-24.458-43.356-36.709-65.033-30.448 16.099-60.783 32.412-91.287 48.446 13.784 21.733 31.387 41.143 51.998 57.005 25.334-13.485 50.658-26.965 75.998-40.418z"/>
    <path id="svg_353" d="m553.95 328.99c-21.098 11.245-42.202 22.479-63.322 33.648 11.352 20.25 22.761 40.456 34.192 60.663 1.8778-1.4991 4.2762-2.5752 5.4471-4.744 15.504-27.322 23.078-58.477 23.683-89.566z"/>
    <path id="svg_356" d="m449.9 449.9c-23.372-6.7698-45.601-17.186-65.664-30.638-10.47 5.5621-20.951 11.091-31.398 16.708 30.239 13.211 64.199 17.653 97.062 13.93z"/>
   </g>
   <g id="svg_357">
    <path id="svg_358" d="m298.68 17.933c-10.532 5.37-21.189 10.564-31.721 15.934 4.9776 9.0598 9.9721 18.109 14.967 27.152-31.432 19.877-58.548 46.211-78.696 76.97-26.426 39.918-40.646 87.233-40.969 134.66-0.50343 44.267 11.205 88.605 33.672 127.1 22.076 38.046 54.374 70.458 92.893 93.004 41.834 24.818 90.982 37.167 139.89 36.761-0.02832 21.096-0.23764 42.191-0.18671 63.287-29.085 0.016357-58.152-0.41186-87.214-0.19788-0.40164 15.1-0.039703 30.211-0.39594 45.31 69.318 0.022156 138.63 0.67517 207.93 0.6206-0.16412-15.1 0.18665-30.189 0.03949-45.283-29.045-0.082275-58.079-0.093506-87.107-0.40094 0.022705-21.996 0.045288-43.998 0.28284-66.005 23.304-3.2619 46.076-9.7025 67.661-18.795 4.5591 8.0936 9.0276 16.22 13.604 24.291 10.685-5.1776 21.409-10.273 32.077-15.451-10.204-17.719-19.441-35.921-30.097-53.387-42.055 25.417-92.678 37.321-142.04 32.621-46.614-4.096-91.728-22.628-127.22-52.229-40.516-33.401-68.481-80.852-77.259-131.78-8.1338-45.689-1.0125-93.832 20.227-135.4 22.914-45.458 62.451-82.604 109.71-103.85-9.5025-18.564-19.961-36.662-30.041-54.936z"/>
    <g id="svg_359">
     <path id="svg_360" d="m552.37 109.64c36.692 26.565 63.871 65.116 76.541 107.8 12.987 43.24 10.628 90.632-6.2784 132.54-16.211 40.758-46.297 76.092-84.386 99.345-36.127 22.194-79.233 33.593-121.99 31.737-50.556-1.801-100.28-21.766-137.1-55.501-33.582-30.348-56.444-71.567-64.216-115.45-7.6303-42.889-0.96158-88.078 19-127.05 18.937-37.436 49.968-68.97 87.661-88.979 41.596-22.562 91.202-30.76 138.16-22.93 33.434 5.392 65.477 18.74 92.605 38.485zm-154.87-9.3948c25.895 6.6823 50.392 18.136 72.231 33.165 11.086-5.9355 22.24-11.767 33.287-17.79-32.592-15.083-69.787-20.624-105.52-15.374zm-49.131 13.93c12.076 21.469 24.215 42.905 36.291 64.386 21.454-11.245 42.773-22.71 64.188-34.043-29.871-18.46-64.866-30.265-100.48-30.342zm176.26 13.386c-12.212 6.6274-24.577 13.002-36.783 19.646 19.639 16.61 36.534 36.261 49.872 57.977 13.966-7.4346 27.965-14.798 41.896-22.265-13.943-22.012-32.688-41.22-54.985-55.358zm-194.72-3.3877c-2.0419 1.466-4.7288 2.438-5.8939 4.81-17.331 28.794-25.748 62.282-25.736 95.529 22.699-11.926 45.245-24.11 67.943-36.042-12.144-21.414-24.22-42.85-36.313-64.297zm137.99 33.604c-24.305 12.986-48.712 25.807-72.978 38.853 12.206 21.683 24.396 43.367 36.698 65.017 29.192-15.55 58.418-31.056 87.61-46.606-13.632-21.722-30.929-41.28-51.331-57.264zm-223.86 95.557c11.228-5.7818 22.32-11.833 33.497-17.735-1.3349-25.9 1.9909-52.003 9.9268-76.767-23.592 26.51-38.87 59.735-43.423 94.502zm303.77-30.057c11.596 22.688 19.231 47.254 22.801 72.331 11.906-6.1496 23.649-12.612 35.527-18.795 0.66174-26.07-5.4244-52.113-16.494-75.806-13.954 7.4127-27.902 14.847-41.834 22.271zm-171.49-16.846c-25.538 13.722-51.246 27.158-76.767 40.929 3.0035 25.258 10.532 49.988 22.235 72.742 30.374-16.264 60.839-32.385 91.264-48.583-12.195-21.716-24.526-43.372-36.732-65.088zm148.27 29.134c-27.58 14.759-55.245 29.365-82.836 44.097 12.184 21.7 24.571 43.29 36.636 65.055 24.158-12.794 48.294-25.675 72.423-38.502-2.4606-22.765-8.5693-45.162-18.157-66.071-0.922-2.3227-2.5058-4.5355-2.3643-7.1052-2.1664 0.027664-3.8066 1.6803-5.7015 2.5259zm-281.77 41.791c0.26581 25.856 6.8101 51.603 18.547 74.801 13.943-7.3904 27.886-14.787 41.789-22.254-11.578-22.661-19.61-47.056-23.411-72.111-12.302 6.5121-24.526 13.205-36.924 19.564zm180.4 12.173c-30.448 16.099-60.783 32.412-91.287 48.446 13.784 21.733 31.387 41.143 51.998 57.006 25.335-13.491 50.652-26.971 75.998-40.418-12.285-21.667-24.458-43.361-36.709-65.033zm149.51 28.398c0.9447 23.561-2.0023 47.227-8.671 69.898 21.154-24.665 35.205-54.952 40.205-86.678-10.447 5.694-21.024 11.207-31.534 16.78zm-84.098 44.712c11.352 20.25 22.761 40.456 34.192 60.663 1.8779-1.4991 4.2761-2.5752 5.4471-4.744 15.51-27.322 23.083-58.472 23.688-89.566-21.104 11.245-42.202 22.479-63.328 33.648zm-175.23-14.715c-13.931 7.3358-27.784 14.803-41.71 22.155 14.418 21.974 34.062 40.61 56.818 54.398 11.776-6.3693 23.643-12.601 35.476-18.877-19.893-16.451-36.936-36.047-50.584-57.676zm89.777 60.163c26.754 16.066 57.264 26.68 88.753 28.909 4.5758 0.73047 8.4334-2.147 12.376-3.8381-11.494-20.179-22.795-40.456-34.305-60.608-22.229 11.92-44.526 23.742-66.824 35.537zm-20.928 11.179c-10.47 5.5621-20.951 11.091-31.398 16.708 30.238 13.211 64.199 17.659 97.062 13.93-23.372-6.7756-45.595-17.186-65.664-30.638z"/>
    </g>
   </g>
  </g>
 </g>
</svg>
