<?xml version="1.0" encoding="UTF-8" standalone="no"?>
<!-- Generator: Adobe Illustrator 12.0.0, SVG Export Plug-In . SVG Version: 6.00 Build 51448)  -->

<svg
   xmlns:dc="http://purl.org/dc/elements/1.1/"
   xmlns:cc="http://creativecommons.org/ns#"
   xmlns:rdf="http://www.w3.org/1999/02/22-rdf-syntax-ns#"
   xmlns:svg="http://www.w3.org/2000/svg"
   xmlns="http://www.w3.org/2000/svg"
   xmlns:xlink="http://www.w3.org/1999/xlink"
   xmlns:sodipodi="http://sodipodi.sourceforge.net/DTD/sodipodi-0.dtd"
   xmlns:inkscape="http://www.inkscape.org/namespaces/inkscape"
   id="Layer_1"
   space="preserve"
   sodipodi:docname="restaurant.svg"
   viewBox="0 0 93.023237 64.479884"
   sodipodi:version="0.32"
   version="1.1"
   inkscape:output_extension="org.inkscape.output.svg.inkscape"
   inkscape:version="0.92.1 r15371"
   width="99.224785"
   height="68.778542">
  <title
     id="title6111">Restaurant</title>
  <defs
     id="defs1001">
    <radialGradient
       inkscape:collect="always"
       gradientTransform="matrix(1,0,0,0.24105,0,622.8)"
       r="29.917999"
       cy="810.46997"
       cx="232.7"
       gradientUnits="userSpaceOnUse"
       id="radialGradient4135">
      <stop
         offset="0"
         style="stop-color:#000000"
         id="stop3820-2" />
      <stop
         offset="1"
         style="stop-color:#000000;stop-opacity:0"
         id="stop3822-79" />
    </radialGradient>
    <radialGradient
       inkscape:collect="always"
       xlink:href="#radialGradient4135"
       id="radialGradient1805"
       gradientUnits="userSpaceOnUse"
       gradientTransform="matrix(0.06508403,0,0,0.02905539,-127.1177,-120.7287)"
       cx="232.7"
       cy="810.46997"
       r="29.917999" />
  </defs>
  <sodipodi:namedview
     id="base"
     bordercolor="#666666"
     inkscape:pageshadow="2"
     inkscape:window-width="1280"
     pagecolor="#ffffff"
     inkscape:zoom="4.0000001"
     inkscape:window-x="0"
     showgrid="false"
     borderopacity="1.0"
     inkscape:current-layer="layer1"
     inkscape:cx="45.088361"
     inkscape:cy="84.534836"
     inkscape:window-y="31"
     inkscape:window-height="964"
     inkscape:pageopacity="0.0"
     inkscape:window-maximized="1"
     inkscape:measure-start="0,0"
     inkscape:measure-end="0,0"
     showguides="true"
     inkscape:guide-bbox="true"
     inkscape:snap-bbox="false"
     inkscape:object-paths="true"
     inkscape:object-nodes="false">
    <sodipodi:guide
       position="146.53902,-42.864"
       orientation="0,1"
       id="guide1824"
       inkscape:locked="false" />
  </sodipodi:namedview>
  <metadata
     id="metadata998">
    <rdf:RDF>
      <cc:Work>
        <dc:format>image/svg+xml</dc:format>
        <dc:type
           rdf:resource="http://purl.org/dc/dcmitype/StillImage" />
        <cc:license
           rdf:resource="http://creativecommons.org/publicdomain/zero/1.0/" />
        <dc:publisher>
          <cc:Agent
             rdf:about="http://openclipart.org/">
            <dc:title>Openclipart</dc:title>
          </cc:Agent>
        </dc:publisher>
        <dc:title>Restaurant</dc:title>
        <dc:date>2019-02-15</dc:date>
        <dc:description>Based on
https://openclipart.org/detail/18397/pictogram-restaurant-by-geant
https://openclipart.org/detail/27687/flatware-knife-by-sutrannu-27687
https://openclipart.org/detail/232230/fork
</dc:description>
        <dc:source />
        <dc:creator>
          <cc:Agent>
            <dc:title>Petr Gajdůšek</dc:title>
          </cc:Agent>
        </dc:creator>
        <dc:subject>
          <rdf:Bag>
            <rdf:li>pictogram</rdf:li>
            <rdf:li>restaurant</rdf:li>
            <rdf:li>symbol</rdf:li>
            <rdf:li>plate</rdf:li>
            <rdf:li>knife</rdf:li>
            <rdf:li>fork</rdf:li>
            <rdf:li>eating</rdf:li>
            <rdf:li>food</rdf:li>
          </rdf:Bag>
        </dc:subject>
        <dc:contributor>
          <cc:Agent>
            <dc:title>Karel Němec</dc:title>
          </cc:Agent>
        </dc:contributor>
      </cc:Work>
      <cc:License
         rdf:about="http://creativecommons.org/publicdomain/zero/1.0/">
        <cc:permits
           rdf:resource="http://creativecommons.org/ns#Reproduction" />
        <cc:permits
           rdf:resource="http://creativecommons.org/ns#Distribution" />
        <cc:permits
           rdf:resource="http://creativecommons.org/ns#DerivativeWorks" />
      </cc:License>
    </rdf:RDF>
  </metadata>
  <g
     inkscape:groupmode="layer"
     id="layer2"
     inkscape:label="tray"
     style="display:none"
     transform="translate(-21.273478,-33.880116)">
    <path
       inkscape:connector-curvature="0"
       d="m 24.81,13.333375 h 86.09 c 5.08,0 9.16,3.988 9.16,8.941 v 84.019995 c 0,4.95 -4.08,8.94 -9.16,8.94 H 24.81 c -5.08,0 -9.16,-3.99 -9.16,-8.94 V 22.274375 c 0,-4.953 4.08,-8.941 9.16,-8.941 z"
       style="fill:#eaeaea;fill-opacity:1;stroke:#acacac;stroke-width:4.2750001;stroke-miterlimit:4;stroke-dasharray:none;stroke-opacity:1"
       id="path3212" />
  </g>
  <g
     inkscape:groupmode="layer"
     id="layer1"
     inkscape:label="plate"
     style="display:inline"
     transform="translate(-21.273478,-33.880116)">
    <g
       id="g5648">
      <path
         id="path3247"
         style="fill:#515151;fill-opacity:1;stroke:#8e8888;stroke-opacity:1"
         d="m 68.53,34.77 c -17.41,0 -31.56,14.15 -31.56,31.56 0,17.42 14.15,31.53 31.56,31.53 17.41,0 31.53,-14.11 31.53,-31.53 0,-17.41 -14.12,-31.56 -31.53,-31.56 z m 0.87,7.78 c 13.12,0 23.78,10.66 23.78,23.78 0,13.12 -10.66,23.75 -23.78,23.75 -13.12,0 -23.75,-10.63 -23.75,-23.75 0,-13.12 10.63,-23.78 23.75,-23.78 z"
         inkscape:connector-curvature="0" />
      <path
         id="path3251"
         sodipodi:nodetypes="csssc"
         style="fill:#515151;fill-opacity:1;stroke:#8e8888;stroke-opacity:1"
         d="m 69.39,44.41 c -12.07,0 -21.9,9.82 -21.9,21.9 0,12.08 9.83,21.92 21.9,21.92 12.08,0 21.92,-9.84 21.92,-21.92 0,-12.08 -9.84,-21.9 -21.92,-21.9 z"
         inkscape:connector-curvature="0" />
    </g>
    <g
       id="g5651"
       transform="matrix(0.65830685,0,0,0.65830685,7.1834497,30.680953)">
      <path
         sodipodi:nodetypes="csssssssccccccccccccccccc"
         inkscape:connector-curvature="0"
         id="path4406"
         d="m 22.673568,16.42444 c 0,0 -1.15938,15.111359 -1.091317,21.271992 0.07222,6.536452 4.571497,4.742 4.781003,9.076971 0.505662,10.462823 -3.630017,33.145148 -3.0834,49.819423 0.144023,4.393314 2.369403,5.456574 4.746357,5.456574 2.376955,0 4.619658,-1.06326 4.763681,-5.456574 0.546617,-16.674275 -3.589062,-39.3566 -3.083401,-49.819423 0.209503,-4.334971 4.70878,-2.540519 4.781003,-9.076971 0.06806,-6.160633 -1.091317,-21.271992 -1.091317,-21.271992 h -1.004705 l -0.450383,21.289317 c 0,0.52346 -0.519673,0.51967 -0.519673,0.51967 0,0 -0.502351,-0.0014 -0.502351,-0.51967 L 30.156875,16.42444 h -1.004701 l -0.606289,21.289317 c 0,0.529434 -0.519674,0.51967 -0.519674,0.51967 0,0 -0.50235,0.0066 -0.50235,-0.51967 L 26.917572,16.42444 h -1.004701 l -0.779513,21.289317 c 0,0.534536 -0.485028,0.51967 -0.485028,0.51967 0,0 -0.519673,-0.0021 -0.519673,-0.51967 L 23.678273,16.42444 Z"
         style="fill:#515151;fill-opacity:1;stroke:#8e8888;stroke-width:0.35184172;stroke-opacity:1" />
    </g>
    <path
       d="m 108.49962,39.367856 c 0.50274,-1.890973 2.06123,-2.500965 3.47218,-2.500965 1.32994,0 1.96625,0.425935 1.97558,1.410013 l 0.23018,24.315405 c 0.0328,3.464811 -1.251,3.26986 -1.17036,6.277203 l 0.89697,26.89951 c 0,1.392673 -1.34547,2.089013 -2.69093,2.089013 -1.32985,0 -2.74126,-0.696889 -2.69092,-2.089013 l 0.89698,-24.805624 c 0.0798,-3.01166 -3.20309,-2.701093 -3.20309,-6.184868 l 2.2828,-25.41144 z"
       style="fill:#515151;fill-opacity:1;stroke:#8e8888;stroke-width:0.23709422"
       sodipodi:nodetypes="cscscczscccc"
       id="path3584-21"
       inkscape:connector-curvature="0" />
    <ellipse
       transform="scale(-1)"
       style="opacity:0.2;fill:url(#radialGradient1805);stroke-width:0.08857211"
       id="path3816-4"
       cx="-111.97291"
       cy="-96.392632"
       rx="1.9471875"
       ry="1.6574067" />
  </g>
</svg>
