<?xml version="1.0"?>
<svg xmlns:rdf="http://www.w3.org/1999/02/22-rdf-syntax-ns#" xmlns="http://www.w3.org/2000/svg" xmlns:cc="http://creativecommons.org/ns#" xmlns:xlink="http://www.w3.org/1999/xlink" xmlns:dc="http://purl.org/dc/elements/1.1/" xmlns:svg="http://www.w3.org/2000/svg" id="svg2" viewBox="0 0 1650.3 1514.5" version="1.0">
  <defs id="defs4">
    <linearGradient id="linearGradient4757">
      <stop id="stop4759" stop-color="#fff" offset="0"/>
      <stop id="stop4761" stop-color="#494949" offset="1"/>
    </linearGradient>
    <filter id="filter3796" height="1.1871" width="3.5011" y="-.093532" x="-1.2506" color-interpolation-filters="sRGB">
      <feGaussianBlur id="feGaussianBlur3798" stdDeviation="4.976758"/>
    </filter>
    <linearGradient id="linearGradient4925" y2="837.51" gradientUnits="userSpaceOnUse" x2="1417.5" gradientTransform="matrix(1.2769 0 0 .78316 -43.168 41.112)" y1="21.444" x1="550.7">
      <stop id="stop5073" stop-color="#56809c" offset="0"/>
      <stop id="stop5075" stop-color="#5f8dac" offset="1"/>
    </linearGradient>
    <linearGradient id="linearGradient4927" y2="443.21" gradientUnits="userSpaceOnUse" x2="657" gradientTransform="matrix(1.2588 0 0 .90029 -147.16 32.391)" y1="354.85" x1="621.96">
      <stop id="stop5020" stop-color="#2b526f" offset="0"/>
      <stop id="stop5022" stop-color="#4380ad" offset="1"/>
    </linearGradient>
    <linearGradient id="linearGradient4931" y2="565.63" gradientUnits="userSpaceOnUse" x2="307.16" gradientTransform="matrix(2.018 0 0 .49555 -43.168 41.112)" y1="853.23" x1="291.24">
      <stop id="stop5032" stop-color="#5b87a3" offset="0"/>
      <stop id="stop5034" stop-color="#7ebbe2" offset="1"/>
    </linearGradient>
    <linearGradient id="linearGradient4933" y2="799.48" gradientUnits="userSpaceOnUse" x2="186.43" gradientTransform="matrix(2.7566 0 0 .36277 -43.168 41.112)" y1="848.81" x1="158.7">
      <stop id="stop6459" stop-color="#5b87a3" offset="0"/>
      <stop id="stop6461" stop-color="#5b87a3" stop-opacity="0" offset="1"/>
    </linearGradient>
    <linearGradient id="linearGradient4935" y2="299.76" gradientUnits="userSpaceOnUse" x2="1319.3" gradientTransform="matrix(.68977 0 0 1.4498 -43.168 41.112)" y1="318.36" x1="853.96">
      <stop id="stop5026" stop-color="#476f87" offset="0"/>
      <stop id="stop5028" stop-color="#6fadd2" offset="1"/>
    </linearGradient>
    <linearGradient id="linearGradient4937" y2="1956" gradientUnits="userSpaceOnUse" x2="332.55" gradientTransform="matrix(1.9885 0 0 .50290 -43.168 41.112)" y1="910.61" x1="162.7">
      <stop id="stop5014" stop-color="#314657" offset="0"/>
      <stop id="stop5016" stop-color="#517590" offset="1"/>
    </linearGradient>
    <radialGradient id="radialGradient4941" xlink:href="#linearGradient4757" gradientUnits="userSpaceOnUse" cy="288.6" cx="368.72" gradientTransform="matrix(1.0555 -.077191 .056826 .77704 -36.872 92.808)" r="55.109"/>
    <radialGradient id="radialGradient4945" xlink:href="#linearGradient4757" gradientUnits="userSpaceOnUse" cy="-433.48" cx="-597.14" gradientTransform="matrix(1.7408 .052150 -.052967 1.768 419.37 364.06)" r="19.071"/>
    <linearGradient id="linearGradient4959" y2="-368.05" xlink:href="#linearGradient4757" gradientUnits="userSpaceOnUse" x2="-313.77" y1="-409.97" x1="-313.7"/>
    <linearGradient id="linearGradient4989" y2="-541.46" gradientUnits="userSpaceOnUse" x2="100.62" gradientTransform="matrix(2.1707 0 0 2.1707 367.08 -60.478)" y1="-173.96" x1="26.157">
      <stop id="stop4245" stop-color="#e9d024" offset="0"/>
      <stop id="stop4247" stop-color="#f0f2fa" offset="1"/>
    </linearGradient>
    <linearGradient id="linearGradient4927-8" y2="443.21" gradientUnits="userSpaceOnUse" x2="137.68" gradientTransform="matrix(1.2588 0 0 .90029 -147.16 32.391)" y1="347.49" x1="100.89">
      <stop id="stop5020-0" stop-color="#2b526f" offset="0"/>
      <stop id="stop5022-5" stop-color="#4380ad" offset="1"/>
    </linearGradient>
  </defs>
  <g id="layer1" transform="translate(458.27 1318.7)">
    <g id="g3440" stroke="#000" transform="matrix(2.1707 0 0 2.1707 -195.67 -1094.9)">
      <rect id="rect3387" fill-opacity=".019355" rx="5.7351" ry="0" height="0" width="143.9" y="72.809" x="-64.584" stroke-width="2.2113" fill="#e8e5e5"/>
      <g id="g11170" stroke-width="2.6236" transform="matrix(.84285 0 0 .84285 42.35 -32.967)">
        <path id="rect3327" d="m173.33 46.926 468.2-1.4535c2.8246 61.401 3.0774 4.9332-1.0338 79.641l-6.32 103.92c-68.32 11.79-154.29 111.45-157.47 111.45l-258.32-1.2842c-3.1773 0-8.6422-112.91-44.981-114.53l-5.8142-90.934c0-33.595-9.0704-66.456 5.7351-86.805z" fill="url(#linearGradient4925)"/>
        <path id="path3366" d="m636.55 341.27c0 15.044 3.8683 35.212-5.123 49.802s-30.842 23.602-51.756 23.602c-31.201 29.267-37.433 5.3398-47.074 0.58117-12.459-6.1496-35.901-12.019-70.957-20.703 0-15.044 15.494-52.882 30.3-72.923 14.805-20.041 39.2-30.506 60.114-30.506s42.038 5.0147 57.933 13.79c15.896 8.7757 26.563 21.313 26.563 36.357z" fill="url(#linearGradient4927)"/>
        <path id="path3371" d="m89.464 336.49c0 15.044 29.425 29.024 16.139 38.89-13.286 9.8659-63.652 2.7443-79.788 6.4162-35.941 8.1786-71.986-12.613-71.986-27.657s5.6668-61.81 18.953-71.676c13.286-9.8659 23.019-10.655 43.278-10.655s38.61 13.373 51.896 23.238c13.286 9.8659 21.507 26.4 21.507 41.444z" style="color:#000000" fill="url(#linearGradient4927-8)"/>
        <path id="path3376" d="m214.71 319.36c2.9071 29.382-10.367 29.303-37.479 34.131-27.309 4.8631-29.313 16.368-66.221 16.368-23.826-15.99-20.423-37.24-27.897-57.01-4.888-12.93-28.588-28.82-47.419-36.83-21.913-9.3167-57.536 1.5344-55.301 0.84608 11.375-3.5041 79.231-28.006 99.139-35.273 36.908 0 61.618-8.6951 91.637-20.946 37.719-15.394 43.542 78.05 43.542 98.711z" fill="#5b87a3"/>
        <path id="path3379" d="m693.78 324.55c0 14.442-21.194 51.144-28.934 50.991-7.7401-0.15262-25.707 21.62-35.736 21.62 3.1978-23.257-2.0129-56.85-23.351-69.339-29.948-17.528-72.468-0.94749-107.35-15.297 21.803-14.349 74.513-64.463 101.11-69.961 26.6-5.4973 46.586-11.041 66.645-11.041 10.029 0 37.847 36.876 37.983 48.305 0.13627 11.429-4.5514 30.279-10.366 44.721z" fill="#5985a2"/>
        <path id="rect3382" d="m-24.351 400.14 549.6 8.7212c17.007 1.6601 29.426-14.376 28.992 19.942l-1.4535 72.038c13.626 44.048-23.103 36.582-27.538 35.931l-299.59-11.63c-36.61-11.63-216.5-0.88-242.66-21.4l-10.175-28.431c0-33.595-0.34921-75.177 2.828-75.177z" fill="url(#linearGradient4931)"/>
        <path id="rect3385" d="m227.11 339.69 244.35 2.9071c20.485-14.535-20.473 38.604-4.5375 52.835 15.935 14.231 82.95-4.631 82.95 12.167l-55.11-0.0703-335.89-2.0226c-55.234-1.2895-159.51 0.92495-182.3-5.2075l18.776-16.276c28.837-3.3356 57.236-4.0413 85.032-1.1338 19.623-2.9891 19.899-1.0704 66.54-15.12 49.467-14.901 78.6-28.079 80.188-28.079z" fill="url(#linearGradient4933)"/>
        <path id="rect3412" d="m638.67 533.77 17.398-18.806c3.1773 0 6.0843 21.803 2.9071 21.803l-7.4258 11.628c-3.1773 0-16.056-14.625-12.879-14.625z" fill="#442322"/>
        <path id="rect3390" d="m621.02 401.59c11.691-4.133 29.827-17.934 45.218-27.617 3.1773 0 1.3745 82.281 1.3745 115.88l-21.803 40.06c-21.803 24.874-47.618 47.56-50.795 47.56l-39.404 53.781c-11.898 2.9071-1.3745-60.478-1.3745-94.073l1.4535-109.33c0-33.595 47.15-5.6517 65.33-26.255z" fill="url(#linearGradient4935)"/>
        <path id="rect3393" d="m7.4527 511.13 546.27 17.03c4.6308 11.628-3.8418 28.391-3.8418 61.987l-4.3606 45.874c0 33.595-146.46 2.5-149.64 2.5l-362.09-21.81c-3.1773 0-26.085 10.746-26.085-22.85l-8.7203-50.23c-1.2916-33.22-11.039-38.43 8.468-32.5z" fill="url(#linearGradient4937)"/>
        <path id="rect3406" d="m25.069 618.17 65.567 4.3606c3.1773 0 7.1887 4.5583 7.1887 17.442s-20 13.082-23.178 13.082l-39.404 5.8142c-3.1773 0-8.6422-3.1048-8.6422-15.989s-4.7098-24.71-1.5326-24.71z" fill="#552523"/>
        <path id="rect3409" d="m448.44 647.69 85.526 2.4506c3.1773 0-2.9861 13.928-2.9861 27.617s-14.186 20.35-17.363 20.35l-58.3-1.4535c-3.1773 0-4.2816-8.1136-4.2816-21.803s-5.773-27.161-2.5957-27.161z" fill="#401e1d"/>
        <path id="path9631" d="m637.97 43.728c-18.236-2.0659-37.677 85.552-45.719 200.13 1.4606-0.41846 2.8925-0.97488 4.375-1.2812 26.6-5.4973 46.566-11.031 66.625-11.031 0.0846 0 0.194 0.0573 0.2812 0.0625 1.9057-105.4-8.3975-185.93-25.562-187.88z" fill="#5b87a3"/>
      </g>
    </g>
    <path id="path4253" d="m461.37-1093.7c5.3364 17.636 7.5818 38.706-7.6746 45.499-6.2938 1.8341-15.65 1.6266-26.313 0.5482l30.698 110.18 66.878 30.15 75.101-94.287 1.0964-19.734c-5.9711-0.6426-13.582-3.7444-22.475-8.7709-6.4315-23.294 4.0221-39.834 11.512-57.559l-41.114 24.12-30.698-1.6445-34.536-15.349z" stroke="#000" stroke-width="2.1707px" fill="#e8d7c8"/>
    <path id="path4225" d="m83.532 33.352c65.335 53.973 78.014 44.734 94.977 42.241 0.12918 17.187 11.311 27.466-32.891 72.36-22.293 14.763-44.586 24.229-66.878 18.638-11.848-11.34-32.52 8.2-33.988-39.47 15.349-40.954 19.349-33.578 31.043-69.241z" stroke="#000" stroke-width="2.1707px" fill="#5c362b"/>
    <path id="path4227" d="m877.81-20.034 15.638 17.675c-5.9683 21.685-36.092 10.566-47.3 21.771-24.072 10.683-37.037 1.6094-61.993 2.2478 9.0058 8.7958 16.34 28.956 9.4131 41.873 12.524 7.1037 18.02 18.424 43.855 17.542h43.855c58.3-11.689 100.47 91.125 90.025 34.633-8.2176-18.009-116.84-8.5493-93.493-135.74z" stroke="#000" stroke-width="2.1707px" fill="#ebebeb"/>
    <path id="path4229" style="color:#000000" d="m881.85 51.819c29.94 37.166 64.475 35.186 106.21 65.121 11.887 6.0318 9.9036 42.073-34.918 42.749-35.661-1.2921-52.685-13.548-88.346-14.84-25.446-4.5667-46.881 0.89468-79.85-22.482-6.1298-15.024-8.1656-45.662 10.078-72.873 24.665 27.411 27.211 24.728 62.02 26.358-11.04-12.284 17.76-13.724 24.81-24.033z" stroke="#000" stroke-width="2.1707px" fill="#5c362b"/>
    <path id="path4231" d="m912.86-13.302c-29.141-47.416-39.284-141.09-55.818-196.91-21.916-71.274-32.085-130.8-46.515-194.59-18.026-51.425-36.06-102.85-78.3-154.27-7.3417-12.868-19.111-23.522-10.853-44.189-69.509 3.3619-100.49 28.13-208.54 10.078-57.346 10.947-151.31-9.4901-235.68-21.707-59.19 18.68-116.83 28.09-179.86 69.772-15.505 17.172-31.01 12.37-46.515 58.919l9.303 113.19 4.6515 54.267c6.043 49.584 2.0222 70.271-9.303 342.66 37.952 24.647 62.723 71.89 127.14 51.166 16.834-26.122 41.253-46.176 18.606-103.88-3.763-19.912-7.6909-41.309-15.505-97.681 7.9012-88.449 16.534-174.7 12.404-299.25 80.891 3.3617 137.08-1.5104 193.81-6.202 30.816-6.8471 64.338-19.109 91.479-18.606 61.435 3.4032 86.518 14.885 111.64 26.358 93.64 119.76 119.49 263.73 158.15 403.13 12.661 58.851 7.9927 61.379 4.6515 68.222 10.337-12.255 20.673-21.199 31.01-17.055 83.357 15.007 116.52 7.5605 124.04-43.414z" stroke="#000" stroke-width="2.1707px" fill="#1e2651"/>
    <path id="path4233" d="m432.2-1046.7c16.352 45.699 32.365 94.631 52.717 102.33 39.354-5.4612 82.176-49.357 113.96-77.525 9.2032 2.9423 16.872 7.4188 27.909 8.5277 20.932 6.5926 41.863 11.731 62.795 20.156 16.627 10.337 38.655 20.673 41.863 31.01 18.029 45.678 0.0456 71.348 0 106.98-5.5062 52.594-8.636 104.24-3.8762 152.72 10.098 31.76 7.9886 64.629-4.6515 98.456-74.682 10.853-69.071 43.135-221.9 53.989-38.093 11.558-97.899 8.8902-238.59-57.09-36.805-23.703-107.16-25.698-110.09-71.323-11.238 1.8033 70.289-181.92 105.43-272.89 19.472-92.151 131.16-102.53 174.43-95.355z" stroke="#000" stroke-width="2.1707px" fill="url(#linearGradient4989)"/>
    <path id="path4251" d="m456.99-1101.9c3.9225 13.516 34.942 39.709 38.373 40.566 18.203 4.5435 34.486 7.8434 49.336 2.1927 34.564-7.448 47.284-27.948 47.144-29.602 20.319-26.547 41.95-54.238 43.855-89.902 1.2242-22.929-2.6321-43.453-16.445-74.553-8.7573-24.591-48.821-46.528-80.035-49.336-26.969-2.4261-56.365 13.32-75.649 29.602-16.191 13.671-21.564 34.353-25.216 51.529-8.4853 29.472-8.9324 57.585 0 83.324 8.6684 24.978 12.518 24.329 18.638 36.18z" stroke="#000" stroke-width="2.1707px" fill="#e8d7c8"/>
    <path id="path4283" d="m432.87-1198.4c7.3256-5.1444 11.883-21.831 19.953-10.266-0.085 23.424 16.528-0.8641 19.608-9.3465 3.7324 8.5574 1.6476 41.26 21.07-13.244 7.5221-3.9102 12.364 32.557 27.079-15.382 30.739 64.496 29.641 18.258 41.147 25.67 27.308 51.003 25.066 25.925 28.001 16.95 14.779 27.634 20.408 27.383 21.385 10.578 35.447 56.323 27.218 30.921 24.037 13.133l7.1264-1.0964c-4.0668-8.5882-4.0796-17.176-5.4818-25.765l8.2228 8.7709c-6.0474-13.774-10.09-19.528-14.801-27.957 2.5064-0.9001 7.1957 1.4744 12.608 4.9336-0.97877-10.074-12.095-18.12-19.735-26.861 3.045-4.9364 8.2534 3.1078 12.608 6.0301-2.8092-11.096-17.567-19.803-26.861-29.602 2.9224-0.2445 5.9441-0.4227 13.156 2.1927 6.9794-2.6508-12.614-8.8448-26.313-14.253l-14.253-18.638 5.4818 14.253-20.283-16.994 7.1264 13.156c-11.359-7.7199-18.542-9.1745-35.084-24.668-2.5485 6.8474 1.9636 10.165 4.9336 14.253-17.902-1.6446-29.127-3.2891-54.818-4.9337 8.0319 7.0857 14.788 7.7943 21.379 7.6746-10.942 0.668-15.561 5.8527-35.632 0 2.8402 3.0815 4.2355 6.5243 12.608 8.2227-3.1954 2.7763-10.298 5.2519-32.343 6.5782 16.043 1.1836 18.785 3.3903 15.897 6.03-6.9482 1.1558-5.2001 4.8474-25.216 2.1927 9.9873 2.3755 12.451 4.751 15.349 7.1264-3.5429 2.7092-12.176 4.7821-27.409 6.03 7.4694 1.6959 14.705 3.4501 16.445 6.5782-9.2622 4.7484-18.111 8.0333-23.024 19.735 8.734-5.0684 15.938-8.739 14.801-1.0964-5.0636 2.0344-10.678 5.7204-18.638 16.446 12.784-2.7652 13.991-2.2224 16.994-2.1927-8.6333 6.4428-17.922 10.921-25.216 21.379 12.317-7.5659 21.058-11.556 20.283-6.03-11.82 4.7509-10.871 9.5018-14.801 14.253 4.5951-1.8283 14.492-11.079 12.608-3.8373z" stroke="#000" stroke-width="2.1707px" fill="#db9f3f"/>
    <path id="path4285" d="m474-1191.1c11.055-0.617 20.92-2.1256 29.054-4.9336" stroke="#000" stroke-width="2.1707px" fill="none"/>
    <path id="path4287" d="m548.53-1192.4c7.1665 6.3151 14.422 12.452 23.024 15.897" stroke="#000" stroke-width="2.1707px" fill="none"/>
    <path id="path4289" stroke-linejoin="round" d="m489.88-1103.5c5.2991 1.6563 10.598 1.972 15.897 2.1927 3.762 2.0808 7.5314 4.1187 9.8673 5.4819 3.3838-1.0836 5.8669-0.5649 9.8673-2.1928 10.045 4.6258 10.067 2.5693 14.253 3.2891" stroke="#000" stroke-linecap="round" stroke-width="2.1707px" fill="none"/>
    <path id="path4291" style="color:#000000" d="m57.326-514.74c0 1.6039-1.2437 2.9042-2.7779 2.9042s-2.7779-1.3002-2.7779-2.9042c0-1.6039 1.2437-2.9042 2.7779-2.9042s2.7779 1.3002 2.7779 2.9042z" transform="matrix(2.1707 0 0 2.1707 374.94 -61.192)" stroke="#000" stroke-width="1px"/>
    <path id="path4291-9" style="color:#000000" d="m57.326-514.74c0 1.6039-1.2437 2.9042-2.7779 2.9042s-2.7779-1.3002-2.7779-2.9042c0-1.6039 1.2437-2.9042 2.7779-2.9042s2.7779 1.3002 2.7779 2.9042z" transform="matrix(2.1707 0 0 2.1707 432.32 -53.626)" stroke="#000" stroke-width="1px"/>
    <path id="path4311" d="m506.02-1132.2c1.4039-1.463 3.3513-1.3243 5.4818-2.1928 3.8318 1.6233 2.7988 2.6758 3.2891 3.5632-3.7932 0.3883-6.673-0.5706-8.7709-1.3704z" fill="#1a1a1a"/>
    <path id="path4311-2" d="m528.64-1128.3c-0.81405-1.857-2.69-2.3976-4.391-3.9468-4.1565 0.2041-3.5492 1.548-4.3152 2.2122 3.4273 1.6711 6.4612 1.7629 8.7062 1.7346z" fill="#1a1a1a"/>
    <path id="path4351" stroke-linejoin="round" d="m331.44-580.53c41.09 18.458 87.374 3.0506 87.857-3.5714 5.5185-23.738 19.119-19.32 17.857-73.571-5.8659-2.3822-2.0572-12.538-19.286-16.429-41.479-13.559-52.333-19.138-118.57-23.571-13.32 10.765 12.866-80.415 30-137.14-0.0834-7.5387 1.9486-22.046-1.6378-28.709" stroke="#000" stroke-linecap="round" stroke-width="2.1" fill="none"/>
    <path id="path4353" stroke-linejoin="round" d="m545.72-556.96c-13.188 1.7591-64.244-6.7886-42.857-25 5.2388-19.78 11.019-39.101-7.8571-79.286 21.33-5.0576 39.352-8.6112 64.286-2.8571 7.464-1.084-11.432-5.6473 48.571-22.143 15.585-8.2382 14.553-67.253 14.077-89.005 1.4113-9.0821 0.006-23.797 5-25.714" stroke="#000" stroke-linecap="round" stroke-width="2.1" fill="none"/>
    <path id="path4359" stroke-linejoin="round" d="m438.09-655.73c-2.1387-1.496 11.242-3.9921 19.616 0.27156 2.3254-0.99034 4.9107-4.3842 6.5276-2.9908 20.602-5.8902 22.782 3.8312 30.93-2.3315 7.7452 8.4873 14.659 39.099 12.879 51.013-2.2269 27.666-4.3974 31.074-8.0812 33.335-10.311 4.4017-29.492 3.8036-29.858 1.1655 4.8343 6.7913-7.2404 3.6197-17.68 2.3468-7.6978 1.2681-17.853-6.5902-26.203-11.088-2.1376-1.1516-6.6519-1.2594-6.0609-4.0406 0.99171-5.5772 1.8839-13.239 4.1709-18.402-0.91173-12.015 12.93-16.531 13.759-49.279z" stroke="#000" stroke-linecap="round" stroke-width="2.1" fill="#e3dbdb"/>
    <path id="path4355" stroke-linejoin="round" d="m621.44-768.39c-1.1426-10.461-2.0777-21.198-7.1428-26.429" stroke="#000" stroke-linecap="round" stroke-width="2.1" fill="none"/>
    <path id="path4357" stroke-linejoin="round" d="m329.29-834.11c2.3778-7.0262 2.7507-15.556 8.5714-20" stroke="#000" stroke-linecap="round" stroke-width="2.1" fill="none"/>
    <path id="path4363" stroke-linejoin="round" d="m470.54-660.18c-12.445 1.5402-12.152 5.5252-15.719 7.1479-5.5904 6.1795-27.759 4.4528-7.946 13.446 6.2936 3.2979 29.47-7.0132 31.833-6.3136 4.7234 4.5132 19.271 0.34328 6.8185 8.8388-5.7762 3.9164-27.098 2.381-37.279-1.403-10.292 1.216-3.3995 9.3342 2.107 10.01 17.862 3.6437 33.777 4.7068 35.843 6.7496 9.6245 5.8076-5.789 6.737-11.826 5.3646-6.6371-1.4202-26.343-2.9073-29.887-2.5178-6.6692 2.488-3.0949 4.8172 12.405 9.0734 6.7548 1.7895 26.565 3.0202 29.068 3.8492 9.2969 7.494-7.3484 9.2634-30.405 3.5865-6.8843-1.2492-13.487-0.43887-12.035 3.6275 5.4474 4.5073 39.777 10.834 41.142 10.969 5.0892 1.9786 3.5797 3.7117 1.6242 4.9873-12.078 2.2712-23.76-1.1924-32.203-2-17.54-3.1116-7.6849 5.3189 1.389 6.0609 2.9825 0.40524 13.534 1.9581 15.177 4.0203 1.3079 1.7667 0.3249 4.2414-2.8086 3.4309" stroke="#000" stroke-linecap="round" stroke-width="2.1" fill="none"/>
    <path id="path4582-1" d="m630.61-1149.9c-19.48-10.13-64.334 28.784-109.29 29.286-5.3092-0.7099-3.9552 0.4806-11.577-2.0599-27.852-9.9513-80.07-82.621-78.781-53.297l0.47142-2.7988c-1.289-29.324 51.433 43.977 79.286 53.928 0-3.4459-0.25254-4.5495-0.25254-7.0562l2.0382-0.087c0.82743 8.364-1.2696 6.8207 6.7857 8.2143 0.28621-2.595 1.6624-4.645 2.8571-6.7858l1.7857 1.4286c-0.37192 1.6765-1.4872 2.9558-2.1428 5.7143 44.952-0.5022 89.806-39.415 109.29-29.286z" stroke="#000" stroke-width="1px" fill="#c7c7c7"/>
    <path id="path4584-9" style="color:#000000" d="m-293.87-395c48.814 43.399 70.877 33.192 107.52 2.3006 10.003-8.4336 26.627-37.941 55.987-62.507 20.254-16.947 57.587-31.07 40.406-137.13-19.134-118.12 131.73-95.172 216.17-112.38 32.086 1.8984 39.667-35.408 51.265-50.255 7.7748-8.5552 41.985-26.997 63.892-39.648 51.349-26.264 107.6-26.377 154.05-78.792 14.166-15.297 31.531-27.394 48.992-39.396 36.773-25.267 39.724-78.437 44.699-92.176 2.4814-9.9186 7.7535-22.444 9.3439-36.618 2.555-6.6569-13.387-22.655-23.486-36.239l7.7141 6.0705c10.099 13.584 21.748 26.173 19.193 32.83-1.5904 14.174-6.8625 26.699-9.3439 36.618-4.9753 13.74-7.9262 66.909-44.699 92.176-17.461 12.002-34.827 24.099-48.992 39.396-46.446 52.415-102.7 52.528-154.05 78.792-21.907 12.651-56.117 31.093-63.892 39.648-11.598 14.847-19.18 52.154-51.265 50.255-84.438 17.207-235.31-5.7382-216.17 112.38 17.181 106.06-20.152 120.18-40.406 137.13-29.361 24.566-46.644 55.659-57.059 63.578-16.791 12.768-52.512 55.099-111.09-2.6577z" stroke="#000" stroke-width="1px" fill="#c7c7c7"/>
    <path id="path4634-9" style="color:#000000" d="m450.21-912.04 9.9273-2.25c26.244-6.3472 28.222-18.539 39.407-48.173 0.71035-3.0517 9.882-27.91 1.7836-57.763 1.6991-9.7038 0.38114-0.4348 3.8347-20.525 14.719-7.1489 55.136-21.527 59.466-24.851l-1.0196-0.2431c-5.0581 2.1359-66.387 22.592-60.609 23.234l-4.7982 22.476c8.3606 30.047-0.52934 52.234-1.2627 55.306-10.416 29.276-12.703 42.048-39.901 48.487l-5.5558 3.5355z" stroke="#000" stroke-width="1px" fill="#c7c7c7"/>
    <path id="path4654" d="m497.69-1041.1c1.786 3.0781 4.1283 5.0437 8.5863 2.7779l-3.283 15.657c-5.2404 1.8364-6.2402-1.6279-9.0914-2.7779z" stroke="#000" stroke-width="1px" fill="none"/>
    <g id="layer1-5" transform="translate(-734.12 -718.61)">
      <g id="g4534">
        <path id="path3780" d="m332.63 317.36s-16.254-32.648-19.789-49.658c-0.29656-1.4278-0.87398-3.0874-0.18206-4.3711 0.5039-0.93485 1.6704-1.6716 2.7319-1.6392 50.825 1.5525 53.11 1.9518 106.18 0 0.84284-0.033 1.6246 0.64505 2.1855 1.2749 0.7051 0.7918 1.599 1.9046 1.2749 2.9141-5.1386 16.006-22.317 51.511-22.317 51.511z"/>
        <path id="rect3001" d="m331.33 327.88-0.18247-11.201h72.487l0.14128 11.201c13.277 0 23.966 10.689 23.966 23.966v495.99c0 13.277 3.4551 17.038-23.966 23.966-27.421 6.9275-42.987 6.9275-72.446 0-29.458-6.9275-23.966-10.689-23.966-23.966v-495.99c0-13.277 10.689-23.966 23.966-23.966z" fill="#268be4"/>
        <path id="path3780-7" d="m332.44 313.99s-14.88-29.676-18.335-45.642c-0.28997-1.3401-0.85421-2.8978-0.17794-4.1026 0.49249-0.87743 1.6327-1.5689 2.6702-1.5385 49.676 1.4572 51.909 1.8319 103.78 0 0.82377-0.0288 1.5879 0.60546 2.1361 1.1966 0.68916 0.7432 1.5628 1.7876 1.2461 2.7351-5.0224 15.023-21.183 47.864-21.183 47.864z" fill="url(#radialGradient4941)"/>
        <path id="path3800" d="m349.45 305.4-8.7421-32.055h57.623l-8.6308 32.237z" fill="#fff"/>
        <path id="rect3001-0-1" d="m331.71 327.72-0.18247-11.201h72.487l0.14128 11.201c13.277 0 23.966 10.689 23.966 23.966v39.223c0 13.277-1.0274 17.853-23.966 23.966-22.938 6.1125-48.692 6.1125-72.446 0-23.753-6.1125-23.966-10.689-23.966-23.966v-39.223c0-13.277 10.689-23.966 23.966-23.966z" fill="#f3f3f3"/>
        <path id="rect3782" filter="url(#filter3796)" d="m310.89 121.83h0.81375c2.4203 0 4.3687 1.9484 4.3687 4.3687v118.97c0 2.4203-1.9484 4.3687-4.3687 4.3687h-0.81375c-2.4203 0-4.3687-1.9484-4.3687-4.3687v-118.97c0-2.4203 1.9484-4.3687 4.3687-4.3687z" fill="#fff" transform="matrix(4.1188 0 0 4.1188 -937.47 -162.52)"/>
      </g>
    </g>
    <path id="rect4767" style="color:#000000" d="m-322.14-400.53h22.857c3.1657 0 5.7143 2.5486 5.7143 5.7143s-2.5486 5.7143-5.7143 5.7143h-22.857c-3.1657 0-5.7143-2.5486-5.7143-5.7143s2.5486-5.7143 5.7143-5.7143z" stroke="#000" stroke-width="1px" fill="url(#linearGradient4959)"/>
    <g id="g4851" transform="translate(-11.112 135.36)">
      <path id="path4785" style="color:#000000" d="m-401.43-598.98c0 9.8622-8.4746 17.857-18.929 17.857s-18.929-7.9949-18.929-17.857c0-9.8622 8.4746-17.857 18.929-17.857s18.929 7.9949 18.929 17.857z" transform="translate(63.579 63.447)" stroke="#000" stroke-width="1px" fill="#e7e7e7"/>
      <path id="path4789" d="m-353.17-543.57-3.3688 9.9952" stroke="#e14f59" stroke-width="1.0761px" fill="none"/>
      <path id="path4789-5" d="m-355.89-551.78-0.35714 6.7857" stroke="#204a6c" stroke-width="1px" fill="none"/>
      <path id="path4789-3" d="m-374-539.4 6.5873 1.6675" stroke="#204a6c" stroke-width="1px" fill="none"/>
      <path id="path4789-8" d="m-364.74-550.35 3.0674 6.0634" stroke="#204a6c" stroke-width="1px" fill="none"/>
      <path id="path4789-6" d="m-370.71-546.05 4.6472 4.9576" stroke="#204a6c" stroke-width="1px" fill="none"/>
      <path id="path4789-0" d="m-347.65-549.05-3.2532 5.9658" stroke="#204a6c" stroke-width="1px" fill="none"/>
      <path id="path4789-33" d="m-341.52-543.05-5.5175 3.9662" stroke="#204a6c" stroke-width="1px" fill="none"/>
      <path id="path4789-61" d="m-339.32-536.07-6.71 1.0721" stroke="#204a6c" stroke-width="1px" fill="none"/>
    </g>
    <path id="path4765" style="color:#000000" d="m-578.57-433.98c0 10.257-8.3147 18.571-18.571 18.571-10.257 0-18.571-8.3147-18.571-18.571 0-10.257 8.3147-18.571 18.571-18.571 10.257 0 18.571 8.3147 18.571 18.571z" transform="translate(257.86 46.304)" stroke="#000" stroke-width="1px" fill="url(#radialGradient4945)"/>
  </g>
  <metadata>
    <rdf:RDF>
      <cc:Work>
        <dc:format>image/svg+xml</dc:format>
        <dc:type rdf:resource="http://purl.org/dc/dcmitype/StillImage"/>
        <cc:license rdf:resource="http://creativecommons.org/licenses/publicdomain/"/>
        <dc:publisher>
          <cc:Agent rdf:about="http://openclipart.org/">
            <dc:title>Openclipart</dc:title>
          </cc:Agent>
        </dc:publisher>
        <dc:title>Pulmonary disease</dc:title>
        <dc:date>2011-08-11T16:30:25</dc:date>
        <dc:description>A man suffering from chronic obstructive lung disease, a common illness occuring after years of smoking. This man needs oxygen to be able to sit in his armchair and is still looking slightly blue.&#xD;\nPart of a series about the adverse effects of smoking.</dc:description>
        <dc:source>http://openclipart.org/detail/154729/pulmonary-disease-by-moini</dc:source>
        <dc:creator>
          <cc:Agent>
            <dc:title>Moini</dc:title>
          </cc:Agent>
        </dc:creator>
        <dc:subject>
          <rdf:Bag>
            <rdf:li>COPD</rdf:li>
            <rdf:li>O2</rdf:li>
            <rdf:li>breath</rdf:li>
            <rdf:li>breathe</rdf:li>
            <rdf:li>chronic</rdf:li>
            <rdf:li>clip art</rdf:li>
            <rdf:li>clipart</rdf:li>
            <rdf:li>disease</rdf:li>
            <rdf:li>dyspnoea</rdf:li>
            <rdf:li>health</rdf:li>
            <rdf:li>illness</rdf:li>
            <rdf:li>lung</rdf:li>
            <rdf:li>lungs</rdf:li>
            <rdf:li>oxygen</rdf:li>
            <rdf:li>patient</rdf:li>
          </rdf:Bag>
        </dc:subject>
      </cc:Work>
      <cc:License rdf:about="http://creativecommons.org/licenses/publicdomain/">
        <cc:permits rdf:resource="http://creativecommons.org/ns#Reproduction"/>
        <cc:permits rdf:resource="http://creativecommons.org/ns#Distribution"/>
        <cc:permits rdf:resource="http://creativecommons.org/ns#DerivativeWorks"/>
      </cc:License>
    </rdf:RDF>
  </metadata>
</svg>
