<?xml version="1.0" encoding="UTF-8" standalone="no"?>
<!-- Created with Inkscape (http://www.inkscape.org/) -->

<svg
   xmlns:dc="http://purl.org/dc/elements/1.1/"
   xmlns:cc="http://creativecommons.org/ns#"
   xmlns:rdf="http://www.w3.org/1999/02/22-rdf-syntax-ns#"
   xmlns:svg="http://www.w3.org/2000/svg"
   xmlns="http://www.w3.org/2000/svg"
   xmlns:sodipodi="http://sodipodi.sourceforge.net/DTD/sodipodi-0.dtd"
   xmlns:inkscape="http://www.inkscape.org/namespaces/inkscape"
   width="88.589127mm"
   height="195.0311mm"
   viewBox="0 0 313.89849 691.05507"
   id="svg2"
   version="1.1"
   inkscape:version="0.91 r13725"
   sodipodi:docname="soccer_morocco.svg"
   inkscape:export-filename="C:\Users\Isenberg\Documents\CloudStation\Fußballer\soccer_morocco.png"
   inkscape:export-xdpi="114.73759"
   inkscape:export-ydpi="114.73759">
  <defs
     id="defs4">
    <inkscape:path-effect
       effect="spiro"
       id="path-effect4138"
       is_visible="true" />
    <inkscape:path-effect
       effect="spiro"
       id="path-effect4192-6-2"
       is_visible="true" />
    <inkscape:path-effect
       effect="spiro"
       id="path-effect4192-3-1"
       is_visible="true" />
    <inkscape:path-effect
       effect="spiro"
       id="path-effect4192-2"
       is_visible="true" />
    <inkscape:path-effect
       effect="spiro"
       id="path-effect4192-6"
       is_visible="true" />
    <inkscape:path-effect
       effect="spiro"
       id="path-effect4192-3"
       is_visible="true" />
    <inkscape:path-effect
       effect="spiro"
       id="path-effect4192"
       is_visible="true" />
    <inkscape:path-effect
       is_visible="true"
       id="path-effect4188"
       effect="spiro" />
    <inkscape:path-effect
       effect="spiro"
       id="path-effect4184"
       is_visible="true" />
    <inkscape:path-effect
       effect="spiro"
       id="path-effect4176"
       is_visible="true" />
    <inkscape:path-effect
       effect="spiro"
       id="path-effect4172"
       is_visible="true" />
    <inkscape:path-effect
       effect="spiro"
       id="path-effect4162"
       is_visible="true" />
    <inkscape:path-effect
       effect="spiro"
       id="path-effect4158"
       is_visible="true" />
    <inkscape:path-effect
       effect="spiro"
       id="path-effect4157-7"
       is_visible="true" />
    <inkscape:path-effect
       effect="spiro"
       id="path-effect4157"
       is_visible="true" />
    <inkscape:path-effect
       effect="spiro"
       id="path-effect4180"
       is_visible="true" />
    <inkscape:path-effect
       effect="spiro"
       id="path-effect4273"
       is_visible="true" />
    <inkscape:path-effect
       effect="spiro"
       id="path-effect4269"
       is_visible="true" />
    <inkscape:path-effect
       effect="spiro"
       id="path-effect4302"
       is_visible="true" />
    <inkscape:path-effect
       effect="spiro"
       id="path-effect4306"
       is_visible="true" />
    <inkscape:path-effect
       effect="spiro"
       id="path-effect4310"
       is_visible="true" />
    <inkscape:path-effect
       effect="spiro"
       id="path-effect4302-2"
       is_visible="true" />
    <inkscape:path-effect
       effect="spiro"
       id="path-effect4306-8"
       is_visible="true" />
    <inkscape:path-effect
       effect="spiro"
       id="path-effect4310-6"
       is_visible="true" />
  </defs>
  <sodipodi:namedview
     id="base"
     pagecolor="#ffffff"
     bordercolor="#666666"
     borderopacity="1.0"
     inkscape:pageopacity="0.0"
     inkscape:pageshadow="2"
     inkscape:zoom="0.49497475"
     inkscape:cx="242.47636"
     inkscape:cy="492.55949"
     inkscape:document-units="px"
     inkscape:current-layer="layer1"
     showgrid="false"
     fit-margin-top="0"
     fit-margin-left="0"
     fit-margin-right="0"
     fit-margin-bottom="0"
     inkscape:window-width="1280"
     inkscape:window-height="961"
     inkscape:window-x="-8"
     inkscape:window-y="-8"
     inkscape:window-maximized="1" />
  <metadata
     id="metadata7">
    <rdf:RDF>
      <cc:Work
         rdf:about="">
        <dc:format>image/svg+xml</dc:format>
        <dc:type
           rdf:resource="http://purl.org/dc/dcmitype/StillImage" />
        <dc:title></dc:title>
      </cc:Work>
    </rdf:RDF>
  </metadata>
  <g
     inkscape:label="Ebene 1"
     inkscape:groupmode="layer"
     id="layer1"
     transform="translate(-168.9885,-554.94629)">
    <ellipse
       style="fill:#deaa87;fill-opacity:1;stroke:#000000;stroke-width:4.22298098;stroke-miterlimit:4;stroke-dasharray:none;stroke-opacity:1"
       id="path4387-0"
       cx="398.57144"
       cy="654.07648"
       rx="12.333632"
       ry="14.479342" />
    <ellipse
       style="fill:#deaa87;fill-opacity:1;stroke:#000000;stroke-width:4.22298098;stroke-miterlimit:4;stroke-dasharray:none;stroke-opacity:1"
       id="path4387-0-4"
       cx="247.14287"
       cy="654.64789"
       rx="12.333632"
       ry="14.479342" />
    <ellipse
       style="fill:#deaa87;fill-opacity:1;stroke:#000000;stroke-width:4.00000048;stroke-miterlimit:4;stroke-dasharray:none;stroke-opacity:1"
       id="path4250"
       cx="220.98157"
       cy="987.77747"
       rx="33.850857"
       ry="36.859821" />
    <ellipse
       style="fill:#deaa87;fill-opacity:1;stroke:#000000;stroke-width:3;stroke-miterlimit:4;stroke-dasharray:none;stroke-opacity:1"
       id="path4250-7"
       cx="430.85687"
       cy="994.54761"
       rx="33.850857"
       ry="36.859821" />
    <path
       style="fill:#deaa87;fill-opacity:1;fill-rule:evenodd;stroke:#000000;stroke-width:4.00000048;stroke-linecap:butt;stroke-linejoin:miter;stroke-miterlimit:4;stroke-dasharray:none;stroke-opacity:1"
       d="m 245.02983,978.8146 1.01016,-126.77414 -54.04317,4.04061 3.39812,109.66719"
       id="path6385"
       inkscape:connector-curvature="0"
       sodipodi:nodetypes="cccc" />
    <path
       style="fill:#deaa87;fill-opacity:1;fill-rule:evenodd;stroke:#000000;stroke-width:4.00000048;stroke-linecap:butt;stroke-linejoin:miter;stroke-miterlimit:4;stroke-dasharray:none;stroke-opacity:1"
       d="m 402.40576,980.57983 -1.01016,-126.77415 54.04317,4.04061 -3.39812,109.6672"
       id="path6385-0"
       inkscape:connector-curvature="0"
       sodipodi:nodetypes="cccc" />
    <path
       style="fill:#deaa87;fill-opacity:1;fill-rule:evenodd;stroke:#000000;stroke-width:4.00000048;stroke-linecap:butt;stroke-linejoin:miter;stroke-miterlimit:4;stroke-dasharray:none;stroke-opacity:1"
       d="m 312.32683,1214.8655 4.58159,-120.3455 -73.32888,-2.388 9.1124,108.9529"
       id="path6385-4"
       inkscape:connector-curvature="0"
       sodipodi:nodetypes="cccc" />
    <path
       style="fill:#deaa87;fill-opacity:1;fill-rule:evenodd;stroke:#000000;stroke-width:4.00000048;stroke-linecap:butt;stroke-linejoin:miter;stroke-miterlimit:4;stroke-dasharray:none;stroke-opacity:1"
       d="m 337.73084,1214.2016 -4.58159,-120.3456 73.32889,-2.388 -9.1124,108.953"
       id="path6385-4-8"
       inkscape:connector-curvature="0"
       sodipodi:nodetypes="cccc" />
    <path
       style="fill:#005500;fill-opacity:1;fill-rule:evenodd;stroke:#000000;stroke-width:4;stroke-linecap:butt;stroke-linejoin:miter;stroke-miterlimit:4;stroke-dasharray:none;stroke-opacity:1"
       d="m 240.53983,949.99181 c 61.16302,0.77236 109.82713,-5.11572 166.24531,-1.50448 17.42484,67.21087 7.73954,86.48677 6.01793,170.64547 -46.66599,15.4996 -72.16179,1.6334 -88.01223,-3.7612 -22.05292,16.5823 -86.91318,10.2055 -87.25997,6.7701 -11.12659,-148.263 2.64065,-165.7477 3.00896,-172.14989 z"
       id="path4154"
       inkscape:connector-curvature="0"
       sodipodi:nodetypes="cccccc" />
    <path
       style="fill:#800000;fill-opacity:1;fill-rule:evenodd;stroke:#000000;stroke-width:4.00000048;stroke-linecap:butt;stroke-linejoin:miter;stroke-miterlimit:4;stroke-dasharray:none;stroke-opacity:1"
       d="m 235.3226,737.73993 c -11.8202,17.08266 -41.85183,65.07129 -50.87474,123.30335 -0.45095,2.91034 54.70414,-0.63506 54.70414,-0.63506 l -6.42857,114.28571 182.85714,1.42857 -4.28571,-116.42857 49.28571,0 c -19.12397,-76.56397 -28.71743,-87.28068 -48.03803,-123.6241 -5.64082,-10.72502 -2.67752,-9.2868 -15.27062,-8.97066 l -147.4781,3.70231 c -10.66086,-0.26216 -9.71762,0.0855 -14.47122,6.93845 z"
       id="path6383"
       inkscape:connector-curvature="0"
       sodipodi:nodetypes="csccccccccc" />
    <path
       style="fill:#deaa87;fill-opacity:1;fill-rule:evenodd;stroke:#000000;stroke-width:4;stroke-linecap:butt;stroke-linejoin:miter;stroke-miterlimit:4;stroke-dasharray:none;stroke-opacity:1"
       d="m 286.202,740.77178 74.28571,-1.42857 c 0,0 -2.25735,37.33743 -34.28571,37.22009 -33.56347,-0.12296 -40,-35.79152 -40,-35.79152 z"
       id="path5606"
       inkscape:connector-curvature="0"
       sodipodi:nodetypes="ccsc" />
    <path
       style="fill:#deaa87;fill-rule:evenodd;stroke:#000000;stroke-width:4;stroke-linecap:butt;stroke-linejoin:miter;stroke-miterlimit:4;stroke-dasharray:none;stroke-opacity:1"
       d="m 254.95849,590.43341 c 0,0 -16.30943,68.7907 -5.64041,100.65712 8.08465,24.14739 26.23834,47.60922 49.33877,58.32502 16.51636,7.66159 38.34934,8.16919 54.62062,0 20.212,-10.14767 34.26641,-32.68155 40.53032,-54.41318 9.28601,-32.21632 -7.93181,-100.27053 -7.93181,-100.27053"
       id="path4140"
       inkscape:connector-curvature="0"
       sodipodi:nodetypes="caaaac" />
    <path
       style="fill:#ffffff;fill-rule:evenodd;stroke:#000000;stroke-width:4;stroke-linecap:butt;stroke-linejoin:miter;stroke-miterlimit:4;stroke-dasharray:none;stroke-opacity:1"
       d="m 296.0943,645.67807 c -6.31189,-1.74857 -12.82162,-1.16196 -18.199,3.16973 -17.8941,14.41441 13.40326,34.73506 23.60951,23.77301 7.91779,-8.50413 10.12548,-26.94274 -5.41051,-26.94274 z"
       id="path4864"
       inkscape:connector-curvature="0" />
    <ellipse
       style="fill:#000000;fill-opacity:1;stroke:#000000;stroke-width:1.34574461;stroke-miterlimit:4;stroke-dasharray:none;stroke-opacity:1"
       id="path4866"
       cx="288.47037"
       cy="658.88531"
       rx="3.1971221"
       ry="3.6980233" />
    <path
       inkscape:connector-curvature="0"
       id="path4874"
       d="m 345.54466,647.03204 c 6.31189,-1.74857 12.82162,-1.16196 18.199,3.16974 17.8941,14.4144 -13.40326,34.73505 -23.60951,23.773 -7.91779,-8.50413 -10.12548,-26.94274 5.41051,-26.94274 z"
       style="fill:#ffffff;fill-rule:evenodd;stroke:#000000;stroke-width:4;stroke-linecap:butt;stroke-linejoin:miter;stroke-miterlimit:4;stroke-dasharray:none;stroke-opacity:1" />
    <ellipse
       ry="3.6980233"
       rx="3.1971221"
       cy="660.23932"
       cx="349.98553"
       id="ellipse4876"
       style="fill:#000000;fill-opacity:1;stroke:#000000;stroke-width:1.34574461;stroke-miterlimit:4;stroke-dasharray:none;stroke-opacity:1" />
    <path
       style="fill:none;fill-rule:evenodd;stroke:#000000;stroke-width:4;stroke-linecap:butt;stroke-linejoin:miter;stroke-miterlimit:4;stroke-dasharray:none;stroke-opacity:1"
       d="m 307.69574,684.58226 c 12.15021,24.61042 25.89155,-0.6135 25.53191,0"
       id="path4878"
       inkscape:connector-curvature="0"
       sodipodi:nodetypes="cc" />
    <g
       id="g4889"
       transform="translate(163.94966,173.99639)"
       style="stroke-width:4;stroke-miterlimit:4;stroke-dasharray:none">
      <path
         inkscape:connector-curvature="0"
         id="path4882"
         d="m 111.17021,536.1388 c 11.86211,-6.17337 14.72731,-9.3001 15.15957,-9.84043"
         style="fill:none;fill-rule:evenodd;stroke:#000000;stroke-width:4;stroke-linecap:butt;stroke-linejoin:miter;stroke-miterlimit:4;stroke-dasharray:none;stroke-opacity:1"
         sodipodi:nodetypes="cc" />
      <path
         inkscape:connector-curvature="0"
         id="path4884"
         d="m 118.08511,531.08561 c 23.47092,35.01681 61.83175,30.63501 77.65957,4.25532"
         style="fill:none;fill-rule:evenodd;stroke:#000000;stroke-width:4;stroke-linecap:butt;stroke-linejoin:miter;stroke-miterlimit:4;stroke-dasharray:none;stroke-opacity:1" />
      <path
         inkscape:connector-curvature="0"
         id="path4886"
         d="m 190.15957,528.95795 c 4.81235,7.04684 5.9297,8.05735 10.37235,12.76596"
         style="fill:none;fill-rule:evenodd;stroke:#000000;stroke-width:4;stroke-linecap:butt;stroke-linejoin:miter;stroke-miterlimit:4;stroke-dasharray:none;stroke-opacity:1"
         sodipodi:nodetypes="cc" />
    </g>
    <path
       style="fill:none;fill-rule:evenodd;stroke:#000000;stroke-width:3;stroke-linecap:butt;stroke-linejoin:miter;stroke-miterlimit:4;stroke-dasharray:none;stroke-opacity:1"
       d="m 325.49745,1116.6817 -1.50449,-71.0765"
       id="path4156"
       inkscape:path-effect="#path-effect4158"
       inkscape:original-d="m 325.49745,1116.6817 -1.50449,-71.0765"
       inkscape:connector-curvature="0"
       sodipodi:nodetypes="cc" />
    <path
       style="fill:none;fill-rule:evenodd;stroke:#000000;stroke-width:3;stroke-linecap:butt;stroke-linejoin:miter;stroke-miterlimit:4;stroke-dasharray:none;stroke-opacity:1"
       d="m 307.70961,1038.2412 c 4.20202,4.9799 10.79371,7.8459 17.30155,7.5224 6.12655,-0.3045 12.05833,-3.4117 15.79707,-8.2747 l -0.75224,-0.7522"
       id="path4160"
       inkscape:path-effect="#path-effect4162"
       inkscape:original-d="m 307.70961,1038.2412 c 0,0 11.01696,7.75 17.30155,7.5224 5.94045,-0.2151 15.79707,-8.2747 15.79707,-8.2747 l -0.75224,-0.7522"
       inkscape:connector-curvature="0"
       sodipodi:nodetypes="cscc" />
    <path
       style="fill:#241c1c;fill-opacity:1;fill-rule:evenodd;stroke:#000000;stroke-width:4;stroke-linecap:butt;stroke-linejoin:miter;stroke-miterlimit:4;stroke-dasharray:none;stroke-opacity:1"
       d="m 315.65033,1189.1014 1.60465,53.7903 -30.48819,0 c -1.61985,-1.5618 -3.51398,-2.8384 -5.56957,-3.7537 -3.26437,-1.4535 -6.93558,-1.9798 -10.47684,-1.502 l -8.02321,5.6511 -83.41815,0 c -4.6189,-4.2219 -7.5947,-10.1972 -8.18117,-16.4273 -0.58647,-6.2302 1.22199,-12.6558 4.97189,-17.6655 2.82009,-3.7675 6.65396,-6.6997 10.82494,-8.8792 4.17098,-2.1794 8.68367,-3.6356 13.24467,-4.7951 15.67405,-3.9846 32.21134,-4.5361 48.11604,-1.6046 l 67.39494,-4.814 z"
       id="path4300"
       inkscape:path-effect="#path-effect4302"
       inkscape:original-d="m 315.65033,1189.1014 1.60465,53.7903 -30.48819,0 c 0,0 -0.60452,0.4524 -5.56957,-3.7537 -3.26499,-2.7658 -10.47684,-1.502 -10.47684,-1.502 l -8.02321,5.6511 -83.41815,0 c 0,0 -8.48177,-23.969 -3.20928,-34.0928 4.26231,-8.1842 15.18874,-11.1687 24.06961,-13.6743 15.44465,-4.3575 48.11604,-1.6046 48.11604,-1.6046 z"
       inkscape:connector-curvature="0"
       sodipodi:nodetypes="cccscccaacc" />
    <path
       style="fill:#241c1c;fill-opacity:1;fill-rule:evenodd;stroke:#000000;stroke-width:4;stroke-linecap:butt;stroke-linejoin:miter;stroke-miterlimit:4;stroke-dasharray:none;stroke-opacity:1"
       d="m 336.22513,1189.8157 -1.60465,53.7903 30.48819,0 c 1.61985,-1.5618 3.51398,-2.8384 5.56957,-3.7537 3.26437,-1.4535 6.93558,-1.9798 10.47684,-1.502 l 8.02321,5.6511 83.41815,0 c 4.61894,-4.2219 7.59476,-10.1972 8.18122,-16.4274 0.58647,-6.2302 -1.22201,-12.6558 -4.97194,-17.6655 -2.8201,-3.7675 -6.65397,-6.6997 -10.82495,-8.8791 -4.17098,-2.1794 -8.68367,-3.6356 -13.24466,-4.7951 -15.67406,-3.9846 -32.21133,-4.5361 -48.11604,-1.6047 l -67.39494,-4.8139 z"
       id="path4300-8"
       inkscape:path-effect="#path-effect4302-2"
       inkscape:original-d="m 336.22513,1189.8157 -1.60465,53.7903 30.48819,0 c 0,0 0.60452,0.4523 5.56957,-3.7537 3.26499,-2.7658 10.47684,-1.502 10.47684,-1.502 l 8.02321,5.6511 83.41815,0 c 0,0 8.48177,-23.969 3.20928,-34.0929 -4.26231,-8.1841 -15.18874,-11.1686 -24.06961,-13.6742 -15.44465,-4.3575 -48.11604,-1.6047 -48.11604,-1.6047 z"
       inkscape:connector-curvature="0"
       sodipodi:nodetypes="cccscccaacc" />
    <path
       style="opacity:1;fill:#005500;fill-opacity:1;stroke:none;stroke-width:2;stroke-miterlimit:4;stroke-dasharray:none;stroke-opacity:1"
       d="m 246.26517,840.4251 158.59395,-0.25253 4.79823,18.94035 -168.44294,-1.51523 z"
       id="rect4193"
       inkscape:connector-curvature="0"
       sodipodi:nodetypes="ccccc" />
    <path
       style="fill:none;fill-rule:evenodd;stroke:#000000;stroke-width:4.00000048;stroke-linecap:butt;stroke-linejoin:miter;stroke-miterlimit:4;stroke-dasharray:none;stroke-opacity:1"
       d="m 239.152,861.12251 16.29551,-53.89704"
       id="path6498"
       inkscape:connector-curvature="0"
       sodipodi:nodetypes="cc" />
    <path
       style="fill:none;fill-rule:evenodd;stroke:#000000;stroke-width:4.00000048;stroke-linecap:butt;stroke-linejoin:miter;stroke-miterlimit:4;stroke-dasharray:none;stroke-opacity:1"
       d="M 410.75916,860.05109 396.48395,809.18451"
       id="path6498-6"
       inkscape:connector-curvature="0"
       sodipodi:nodetypes="cc" />
    <path
       style="fill:#ffffff;fill-rule:evenodd;stroke:none;stroke-width:1px;stroke-linecap:butt;stroke-linejoin:miter;stroke-opacity:1"
       d="m 399.68843,1196.1341 -19.62754,28.7035 12.94072,0.043 19.03318,-29.3999 z"
       id="path4198"
       inkscape:connector-curvature="0"
       sodipodi:nodetypes="ccccc" />
    <path
       style="fill:#ffffff;fill-rule:evenodd;stroke:none;stroke-width:1px;stroke-linecap:butt;stroke-linejoin:miter;stroke-opacity:1"
       d="m 420.24757,1194.9453 -17.04786,30.6468 12.49429,-0.046 16.3489,-30.7361 z"
       id="path4198-0"
       inkscape:connector-curvature="0"
       sodipodi:nodetypes="ccccc" />
    <path
       style="fill:#ffffff;fill-rule:evenodd;stroke:none;stroke-width:1px;stroke-linecap:butt;stroke-linejoin:miter;stroke-opacity:1"
       d="m 250.53055,1195.5058 19.62754,28.7035 -12.94072,0.043 -19.03318,-29.3999 z"
       id="path4198-2"
       inkscape:connector-curvature="0"
       sodipodi:nodetypes="ccccc" />
    <path
       style="fill:#ffffff;fill-rule:evenodd;stroke:none;stroke-width:1px;stroke-linecap:butt;stroke-linejoin:miter;stroke-opacity:1"
       d="m 229.97141,1194.317 17.04786,30.6468 -12.49429,-0.046 -16.34891,-30.7361 z"
       id="path4198-0-9"
       inkscape:connector-curvature="0"
       sodipodi:nodetypes="ccccc" />
    <rect
       style="fill:#ffffff;stroke:#000000;stroke-width:1.00000009;stroke-miterlimit:4;stroke-dasharray:none"
       x="352.80991"
       y="780.60852"
       width="39.500008"
       height="23.500002"
       id="rect4" />
    <path
       style="fill:#552200;fill-opacity:1;fill-rule:evenodd;stroke:#000000;stroke-width:4.00000048;stroke-linecap:butt;stroke-linejoin:miter;stroke-miterlimit:4;stroke-dasharray:none;stroke-opacity:1"
       d="m 246.13136,640.28704 32.85714,-30 14.28571,5.71429 24.28572,-10 12.50665,8.33776 c 4.39016,3.56926 4.8202,2.95282 9.04743,-0.21761 l 12.73163,-9.54872 10.58394,17.52554 c 3.84885,4.2506 4.32063,2.83652 8.43556,-0.45542 l 5.54352,-4.43482 c 4.84977,-4.10966 3.65384,-3.70053 7.17319,1.2008 l 9.71775,16.61821 -2.57019,-63.8409 c 0.24481,-11.77028 -0.0259,-8.02054 -8.42764,-2.44519 l -16.66062,11.05586 -20.60694,-13.97979 c -6.41516,-4.40234 -4.97503,-5.38625 -9.72256,0.31079 l -10.60886,12.73063 -18.57143,-11.08193 -14.28572,12.5105 -10.45951,-14.34991 c -4.98564,-6.80525 -3.4868,-7.39424 -7.07974,0.0534 l -11.03218,22.86798 -10.66351,-9.6941 c -6.11048,-5.56257 -5.01682,-6.15323 -5.19199,1.90442 z"
       id="path4266"
       inkscape:connector-curvature="0"
       sodipodi:nodetypes="cccccccccccccccccccccccccc" />
    <g
       transform="matrix(0.17005253,0,0,0.15019692,242.80512,638.53349)"
       id="g4152">
      <path
         style="fill:#c1272d"
         inkscape:connector-curvature="0"
         d="m 875.82,949.37 -225.78,0 0,150.52 225.78,0 z"
         id="path4141" />
      <path
         style="fill:none;stroke:#006233;stroke-width:3.66179991px"
         inkscape:connector-curvature="0"
         d="m 762.91,1005.7 -11.155,34.332 29.21,-21.209 -36.089,0 29.189,21.209 z"
         id="path4143" />
    </g>
    <g
       style="font-style:normal;font-weight:normal;font-size:53.94265366px;line-height:125%;font-family:sans-serif;letter-spacing:0px;word-spacing:0px;fill:#800000;fill-opacity:1;stroke:none;stroke-width:1px;stroke-linecap:butt;stroke-linejoin:miter;stroke-opacity:1"
       id="text4206">
      <path
         d="m 371.45458,1106.3831 q 0,0.411 0.15412,0.822 0.15413,0.3596 0.46237,0.8734 0.35962,0.4624 1.02748,0.6165 l 0,6.8327 -16.02867,0 0,-6.8327 q 0.66786,-0.1541 0.9761,-0.6679 0.30824,-0.5651 0.30824,-1.644 l 0,-22.6045 q 0,-0.5651 -0.15412,-0.9247 -0.15412,-0.3596 -0.56511,-0.9248 -0.35962,-0.6164 -1.02748,-1.0274 l 0,-6.319 14.7957,0 0.0514,31.8004 z"
         style="font-style:normal;font-variant:normal;font-weight:100;font-stretch:normal;font-family:AcmeFont;-inkscape-font-specification:'AcmeFont Thin';fill:#800000;fill-opacity:1"
         id="path4211" />
      <path
         d="m 392.97786,1116.1442 q -7.70609,0 -11.55914,-3.0311 -4.16129,-3.2879 -4.16129,-10.4289 l 0,-17.313 q 0,-6.3704 4.82915,-9.5556 4.05855,-2.6714 10.63441,-2.6714 5.08602,0 9.14457,2.2091 6.01075,3.2879 6.01075,10.2748 l 0,17.0561 q 0,8.5795 -5.1374,11.6105 -3.13381,1.8495 -9.76105,1.8495 z m 2.00359,-31.5436 q 0,-1.0789 -0.71924,-1.7981 -0.71924,-0.7192 -1.84946,-0.7192 -1.07886,0 -1.74672,0.7706 -0.61648,0.7192 -0.61648,1.7981 l 0,20.9092 q 0,1.0274 0.71923,1.7467 0.77061,0.6678 1.84946,0.6678 0.92473,0 1.64397,-0.7192 0.71924,-0.7192 0.71924,-1.7467 l 0,-20.9092 z"
         style="font-style:normal;font-variant:normal;font-weight:100;font-stretch:normal;font-family:AcmeFont;-inkscape-font-specification:'AcmeFont Thin';fill:#800000;fill-opacity:1"
         id="path4213" />
    </g>
  </g>
</svg>
