<?xml version="1.0" encoding="UTF-8" standalone="no"?>
<!-- Created with Inkscape (http://www.inkscape.org/) -->

<svg
   xmlns:dc="http://purl.org/dc/elements/1.1/"
   xmlns:cc="http://creativecommons.org/ns#"
   xmlns:rdf="http://www.w3.org/1999/02/22-rdf-syntax-ns#"
   xmlns:svg="http://www.w3.org/2000/svg"
   xmlns="http://www.w3.org/2000/svg"
   xmlns:xlink="http://www.w3.org/1999/xlink"
   xmlns:sodipodi="http://sodipodi.sourceforge.net/DTD/sodipodi-0.dtd"
   xmlns:inkscape="http://www.inkscape.org/namespaces/inkscape"
   width="210mm"
   height="297mm"
   viewBox="0 0 210 297"
   version="1.1"
   id="svg10755"
   inkscape:version="0.92.1 r15371"
   sodipodi:docname="Ein Schritt vor dem Fall.svg">
  <defs
     id="defs10749">
    <linearGradient
       gradientUnits="userSpaceOnUse"
       y2="207.39014"
       y1="0"
       x2="-1.1365288e-06"
       x1="-1.1365288e-06"
       id="German"
       gradientTransform="matrix(0.65631783,0,0,0.43754523,-576.61049,266.65657)">
      <stop
         id="stop4032"
         stop-color="#000"
         offset="0" />
      <stop
         id="stop4034"
         stop-color="#000"
         offset="0.3333" />
      <stop
         id="stop4036"
         stop-color="#D00"
         offset="0.3333" />
      <stop
         id="stop4038"
         stop-color="#D00"
         offset="0.6667" />
      <stop
         id="stop4040"
         stop-color="#FFCE00"
         offset="0.6667" />
      <stop
         id="stop4042"
         stop-color="#FFCE00"
         offset="1.00" />
    </linearGradient>
    <linearGradient
       inkscape:collect="always"
       xlink:href="#German"
       id="linearGradient4073"
       gradientUnits="userSpaceOnUse"
       gradientTransform="matrix(0.18522748,0,0,0.12348499,38.770777,270.81949)"
       x1="-1.1365288e-06"
       y1="0"
       x2="-1.1365288e-06"
       y2="207.39014" />
  </defs>
  <sodipodi:namedview
     id="base"
     pagecolor="#ffffff"
     bordercolor="#666666"
     borderopacity="1.0"
     inkscape:pageopacity="0.0"
     inkscape:pageshadow="2"
     inkscape:zoom="1.046168"
     inkscape:cx="397.64948"
     inkscape:cy="505.92215"
     inkscape:document-units="mm"
     inkscape:current-layer="layer1"
     showgrid="false"
     inkscape:window-width="2560"
     inkscape:window-height="1365"
     inkscape:window-x="-9"
     inkscape:window-y="-9"
     inkscape:window-maximized="1"
     showguides="true"
     inkscape:guide-bbox="true" />
  <metadata
     id="metadata10752">
    <rdf:RDF>
      <cc:Work
         rdf:about="">
        <dc:format>image/svg+xml</dc:format>
        <dc:type
           rdf:resource="http://purl.org/dc/dcmitype/StillImage" />
        <dc:title />
      </cc:Work>
    </rdf:RDF>
  </metadata>
  <g
     inkscape:label="Ebene 1"
     inkscape:groupmode="layer"
     id="layer1">
    <path
       style="fill:#e6e6e6"
       d="m 0.52325298,297.43511 209.40770702,0 0,-274.110069 -209.40770702,0 0,274.110069 z"
       id="path4079"
       inkscape:connector-curvature="0" />
    <path
       style="opacity:1;fill:#f2cd02;fill-opacity:1;stroke:none;stroke-width:0.29532728;stroke-linecap:round;stroke-miterlimit:4;stroke-dasharray:0.29532727, 1.18130908;stroke-dashoffset:0;stroke-opacity:1"
       d="m 0.93787068,8.6151849 c -0.24717077,0 -0.44598027,0.198798 -0.44598027,0.4459867 V 190.54984 c 0,0.24718 0.1988095,0.44599 0.44598027,0.44599 H 69.08816 v -21.05407 h 20.312711 c 0.247173,0 0.445971,-0.19963 0.445971,-0.4468 v -18.23421 h 30.832738 v -17.51997 c 0,-0.24717 0.19882,-0.44597 0.44599,-0.44597 h 35.63237 v -22.20852 c -0.001,-0.24719 0.19963,-0.44599 0.4468,-0.44599 h 52.41343 c 0.10541,0 0.19786,0.0414 0.27401,0.10207 V 9.0611716 c 0,-0.2471887 -0.19882,-0.4459867 -0.44599,-0.4459867 z"
       id="rect11337"
       inkscape:connector-curvature="0" />
    <path
       style="fill:#0743a5;stroke-width:0.42129543"
       d="M 446.625 31.59375 C 362.86321 31.59375 344.375 31.946069 344.375 33.5625 C 344.375 34.647741 331.03654 62.03454 314.71875 94.40625 C 298.40096 126.7779 285.31496 154.01577 285.65625 154.9375 C 285.99754 155.85923 284.87003 156.98952 283.15625 157.4375 C 276.84273 159.08857 260.78302 169.66192 261.1875 171.90625 C 261.63156 174.37016 268.37498 174.24011 273.21875 171.65625 C 278.41976 168.88179 277.37299 171.66227 268.34375 184.6875 C 263.3603 191.87642 259.28125 198.34084 259.28125 199.03125 C 259.28125 202.04831 264.85523 199.83474 270.0625 194.75 C 274.97355 189.95447 275.71875 189.62156 275.71875 192.28125 C 275.71875 193.96742 274.96744 197.46662 274.0625 200.0625 C 273.15761 202.65838 272.81263 205.80999 273.28125 207.03125 C 273.7499 208.25252 274.74932 209.25 275.5 209.25 C 276.87705 209.25 284.65625 193.97496 284.65625 191.28125 C 284.65625 190.48268 285.32973 189.84375 286.125 189.84375 C 286.92027 189.84375 287.315 190.66122 287 191.6875 C 286.685 192.71378 286.02706 196.75639 285.5625 200.65625 C 284.80678 207.00062 285.02628 207.75 287.65625 207.75 C 289.93388 207.75 290.81854 206.40245 291.5625 201.75 C 292.67423 194.79759 295.125 192.25598 295.125 198.0625 C 295.125 204.59678 298.69272 201.47673 300.40625 193.4375 C 303.42297 179.28426 307.74486 167.40739 309.625 168.125 C 312.54479 169.23946 315.20615 165.60451 330.34375 140.0625 C 358.12014 93.194693 367.5391 77.704414 370.65625 73.78125 L 373.8125 69.84375 L 379.8125 82.4375 C 383.11277 89.370561 394.31829 112.79095 404.71875 134.46875 C 415.11928 156.1465 423.29928 174.76928 422.875 175.875 C 422.45051 176.98077 422.4283 177.875 422.8125 177.875 C 423.73457 177.875 523.59488 116.64607 525.96875 114.625 C 526.94334 113.79523 514.81985 74.567268 510.6875 65.1875 C 507.79117 58.613213 505.05016 52.365975 504.59375 51.3125 C 503.03051 47.704776 519.51049 59.207098 530.09375 69.09375 C 535.91105 74.528067 543.68915 82.751775 547.375 87.375 C 551.06089 91.998279 554.55782 95.78125 555.125 95.78125 C 557.13299 95.78125 587.71875 76.133567 587.71875 74.84375 C 587.71875 71.524561 577.69584 59.449317 563.9375 46.15625 L 548.875 31.59375 L 446.625 31.59375 z M 662.4375 31.59375 L 645.59375 42.28125 C 636.33498 48.150795 615.32682 61.481412 598.90625 71.90625 C 582.48568 82.331084 561.31681 95.429423 551.875 101.03125 C 542.43315 106.63302 532.03415 113.06501 528.75 115.3125 C 525.46589 117.55993 508.33962 128.29382 490.6875 139.15625 C 473.03538 150.01874 450.09936 164.16914 439.75 170.625 C 429.40071 177.08092 420.50191 182.375 419.96875 182.375 C 419.43562 182.375 405.40326 190.85608 388.78125 201.25 C 372.15924 211.64392 356.75871 221.22552 354.5625 222.53125 C 348.67688 226.03047 297.4209 258.03687 286.15625 265.25 C 280.81957 268.66725 255.97887 284.09215 230.9375 299.5 C 205.89613 314.9079 182.7216 329.23099 179.4375 331.34375 C 146.83369 352.31912 59.666485 405.92112 22.3125 427.96875 L 2.53125 439.65625 L 2.53125 453.46875 L 2.53125 467.3125 L 24.5625 453.78125 C 41.755365 443.20405 73.695592 423.709 82.03125 418.71875 C 82.647017 418.3501 83.15625 432.43544 83.15625 450 L 83.15625 481.90625 L 47.6875 503.25 C 0.38385121 531.7012 2.5425354 530.16353 2.53125 535.03125 C 2.525608 537.28905 3.0898859 539.15625 3.75 539.15625 C 4.4101138 539.15625 22.353865 528.72883 43.65625 516 L 82.40625 492.84375 L 82.78125 584.75 L 83.1875 676.6875 L 87.28125 676.1875 L 91.375 675.71875 L 91.75 581.46875 L 92.125 487.21875 L 95.90625 484.75 C 101.2134 481.27267 160.18841 445.5188 163.84375 443.5625 C 166.84766 441.9548 166.87019 442.09886 166.75 557.34375 C 166.68509 620.81451 166.65348 673.5726 166.6875 674.59375 C 166.72395 675.69955 168.09293 676.21668 170.09375 675.84375 C 171.94105 675.49941 173.95164 675.15469 174.5625 675.09375 C 175.17342 675.03277 175.85206 621.17127 176.0625 555.40625 L 176.4375 435.84375 L 186.90625 429.40625 C 192.65345 425.87141 209.72518 415.51159 224.84375 406.375 L 252.3125 389.75 L 251.375 494.28125 C 250.84708 551.75961 250.80027 599.80902 251.28125 601.0625 C 251.76225 602.31591 253.6626 603.34375 255.5 603.34375 L 258.84375 603.34375 L 259.90625 494 C 260.71127 412.54699 261.43655 384.35117 262.75 383.53125 C 265.12531 382.04852 311.04531 353.83261 324.6875 345.46875 C 330.68681 341.7907 335.88948 339.07698 336.25 339.4375 C 336.61019 339.79791 336.92049 383.86802 336.9375 437.375 L 336.96875 534.65625 L 340.6875 534.65625 L 344.375 534.65625 L 344.375 434.0625 L 344.375 333.46875 L 354.9375 327.1875 C 360.7475 323.73578 365.70045 321.15822 365.9375 321.4375 C 366.17423 321.71672 372.65364 342.99433 380.3125 368.71875 C 390.93526 404.39822 393.84414 416.06908 392.65625 417.96875 C 391.7937 419.34805 387.52763 421.19216 383.0625 422.09375 C 369.83505 424.76473 360.80241 430.96968 358.9375 438.6875 C 357.91161 442.93316 359.82896 444.38618 369.125 446.34375 C 380.79364 448.80093 393.81742 445.53306 406.28125 437 C 416.46106 430.0306 419.03125 429.5778 419.03125 434.75 C 419.03125 436.34357 419.23815 437.625 419.5 437.625 C 421.15462 437.625 436.39125 432.71005 437.21875 431.90625 C 438.56786 430.59576 435.99832 417.38348 433.375 412.125 C 431.13606 407.63683 431.57332 406.28543 435.3125 406.25 C 440.95692 406.1954 441.74827 404.18414 439.40625 395.6875 C 438.18484 391.25624 435.71486 380.89787 433.90625 372.6875 C 432.0976 364.4772 429.0617 351.34521 427.15625 343.5 C 425.25077 335.65481 423.20405 324.01479 422.625 317.625 C 421.66108 306.98786 421.24675 305.86715 417.6875 304.34375 C 415.54947 303.42867 413.54438 302.47737 413.21875 302.25 C 412.10247 301.46932 421.04857 289.07271 443.6875 260 C 456.15455 243.98992 467.29744 229.37856 468.4375 227.53125 C 469.57752 225.68395 470.83193 224.15659 471.25 224.15625 C 471.66719 224.15597 471.87246 242.13097 471.6875 264.09375 L 471.34375 304.03125 L 484.9375 320.4375 C 492.40906 329.46882 498.92407 337.04463 499.4375 337.25 C 499.95075 337.45514 500.64128 297.91436 500.9375 249.375 C 501.27284 194.40895 500.94014 161.31209 500.0625 161.65625 C 498.77621 162.16081 475.07171 176.76318 416.625 213.03125 L 394.90625 226.5 L 376.125 259.1875 L 357.34375 291.875 L 359.28125 298.6875 C 362.96328 311.78213 363.13407 311.09878 354.3125 316.34375 C 349.82463 319.01208 345.73104 321.1875 345.21875 321.1875 C 344.70669 321.1875 344.35682 306.44987 344.4375 288.4375 L 344.59375 255.6875 L 369.375 240.3125 C 383.00047 231.85847 394.96738 224.1264 395.96875 223.125 C 396.97023 222.12354 406.69705 215.84901 417.59375 209.1875 C 428.49041 202.52599 440.81759 194.89356 445 192.21875 C 462.06368 181.30577 499.73955 158.33621 502 157.46875 C 504.22945 156.61325 504.33439 169.09919 503.3125 314.25 C 502.20256 471.91298 502.20056 471.96875 505.21875 471.96875 C 509.55406 471.96875 510.04124 468.63898 510.0625 438.5625 C 510.08068 414.81161 510.34628 412.09754 512.375 413.78125 C 516.27055 417.01427 535.85884 414.5384 544.96875 409.65625 C 552.23416 405.76255 552.67197 405.15812 553.4375 398.5 C 553.8819 394.63468 554.67578 391.07422 555.1875 390.5625 C 555.69905 390.05088 561.78287 389.66808 568.71875 389.71875 C 579.28124 389.79628 581.75894 389.34149 583.90625 386.96875 C 586.76591 383.80883 585.6236 380.22624 579.78125 373.8125 C 578.09265 371.95885 575.91563 368.25569 574.9375 365.59375 C 573.33833 361.24147 538.66844 289.48343 534.1875 281.25 C 532.74399 278.59775 531.5493 278.08625 528.53125 278.84375 C 525.26393 279.66376 524.8003 279.39734 525.53125 277 C 527.99144 268.93065 532.34327 246.00805 533.15625 236.84375 C 534.77983 218.54184 535.09916 217.55593 540.3125 214.53125 C 542.97636 212.98568 554.73785 205.83852 566.4375 198.65625 L 587.71875 185.59375 L 587.71875 287.03125 C 587.71875 378.65928 587.93492 388.54657 590.09375 389.375 C 591.40818 389.87932 593.08687 389.36466 593.8125 388.21875 C 594.54267 387.06555 595.14562 340.37031 595.15625 283.65625 L 595.1875 181.1875 L 630.625 159.90625 C 650.12442 148.19402 666.69333 138.28461 667.4375 137.875 C 668.24374 137.4312 668.54917 188.0296 668.1875 263.09375 C 667.59821 385.46255 667.64867 389.09691 670.375 389.625 C 671.91871 389.92413 673.76718 389.26332 674.46875 388.15625 C 675.17029 387.04925 675.7529 329.03741 675.78125 259.25 L 675.84375 132.34375 L 708.5625 112.9375 L 741.28125 93.53125 L 741.375 86.46875 C 741.48073 78.669701 740.6023 78.027617 735.3125 82.09375 C 730.35028 85.908024 681.38983 116.35038 678.3125 117.53125 C 675.99603 118.42026 675.79124 115.77352 675.8125 84.375 L 675.84375 50.25 L 689.28125 42.1875 C 696.68637 37.750854 703.10191 33.569814 703.53125 32.875 C 703.96066 32.180246 694.89564 31.59375 683.375 31.59375 L 662.4375 31.59375 z M 668.3125 55.5 L 668.3125 89.75 L 668.3125 123.96875 L 644.8125 138.4375 C 631.88127 146.39825 613.56681 157.66218 604.125 163.4375 C 594.68315 169.21288 575.81534 180.86411 562.1875 189.34375 C 548.55959 197.82345 536.97236 204.75 536.4375 204.75 C 535.90292 204.75 535.46875 197.8433 535.46875 189.40625 C 535.46875 175.52112 533.59883 153.96221 531.6875 145.5 C 530.95974 142.27768 530.79199 142.30307 522.25 147.625 L 513.53125 153.0625 L 512.625 205.40625 C 512.12649 234.19562 511.64931 279.10927 511.5625 305.21875 L 511.40625 352.6875 L 523.4375 367.625 C 530.05331 375.84186 535.46875 383.84093 535.46875 385.375 C 535.46875 388.74298 529.78386 393.41316 520.96875 397.3125 C 516.1872 399.42757 513.87213 401.58649 512.25 405.46875 C 511.03518 408.37625 509.81868 410.75 509.5625 410.75 C 509.30384 410.75 509.31482 352.92489 509.5625 282.21875 C 509.87984 191.56734 510.4989 153.05079 511.65625 151.65625 C 512.55891 150.56859 524.5058 142.99566 538.21875 134.8125 C 551.93167 126.62929 571.98231 114.34668 582.78125 107.5 C 593.58022 100.65332 608.0136 91.858401 614.84375 87.96875 C 621.67393 84.079095 636.49213 75.16874 647.78125 68.1875 L 668.3125 55.5 z M 602.125 78.53125 C 602.39735 78.517304 602.81432 78.589987 603.3125 78.78125 C 604.58667 79.270187 605.625 79.958526 605.625 80.28125 C 605.625 81.490272 602.7829 80.7934 601.90625 79.375 C 601.5794 78.846088 601.67109 78.554493 602.125 78.53125 z M 601.875 99.09375 C 601.58771 98.713876 571.63278 117.33599 570.15625 118.8125 C 569.81149 119.15728 570.18057 120.62948 571 122.09375 C 572.14488 124.13954 571.16291 127.41075 566.75 136.1875 C 562.45679 144.72633 561.44844 148.04226 562.71875 149.3125 C 563.98899 150.5828 565.50607 149.97273 568.71875 146.90625 L 573 142.8125 L 572.21875 146.53125 C 568.80375 162.63323 568.33293 166.58291 569.6875 167.9375 C 572.25636 170.50636 575.51402 166.15758 577.4375 157.5625 C 578.4422 153.07282 579.91697 148.99537 580.71875 148.5 C 581.60011 147.95532 581.8029 149.01572 581.25 151.21875 C 580.74696 153.22284 579.89442 158.71967 579.34375 163.40625 C 578.40353 171.4066 578.53074 171.90625 581.5 171.90625 C 583.5722 171.90625 584.90558 170.76322 585.375 168.5625 C 585.76919 166.71519 586.37186 163.8608 586.71875 162.21875 C 587.08212 160.50149 587.43133 161.334 587.53125 164.1875 C 587.66632 168.05723 588.27478 169.04104 590.3125 168.65625 C 592.27638 168.28523 593.30286 165.755 594.46875 158.46875 C 595.51994 151.89915 596.37421 149.64655 597.09375 151.5 C 597.67737 153.00393 598.15625 155.60665 598.15625 157.25 C 598.15625 161.70662 601.74618 159.69411 602.84375 154.625 C 603.36238 152.22964 603.84041 143.19307 603.9375 134.53125 C 604.04996 124.50705 604.76775 118.1385 605.90625 117 C 607.29594 115.61038 607.08297 113.43479 604.9375 107.34375 C 603.41863 103.03185 602.04933 99.323959 601.875 99.09375 z M 467.28125 248.0625 C 466.80468 248.0625 462.96356 250.02673 458.75 252.4375 C 453.65646 255.35171 448.70409 260.0309 444 266.4375 C 440.1086 271.73731 436.9375 276.58731 436.9375 277.1875 C 436.9375 277.78775 438.00424 277.36694 439.3125 276.28125 C 440.62072 275.19551 447.40634 270.89722 454.40625 266.71875 C 466.37182 259.57615 467.1891 258.80154 467.65625 253.59375 C 467.92955 250.54718 467.758 248.0625 467.28125 248.0625 z M 336.90625 260.21875 L 336.90625 293.5 L 336.90625 326.78125 L 321.625 336.1875 C 313.20951 341.36951 297.91909 350.7453 287.65625 357 C 277.39339 363.25475 267.16408 369.56992 264.90625 371.0625 L 260.78125 373.78125 L 260.84375 340.40625 L 260.875 307 L 298.90625 283.625 L 336.90625 260.21875 z M 426.375 287.59375 L 422.71875 292.09375 C 418.71223 296.98164 417.95025 301.10106 420.875 302.28125 C 425.6557 304.21031 426.48817 303.20614 426.4375 295.4375 L 426.375 287.59375 z M 251.25 313.71875 C 251.60419 313.71875 251.72096 328.61007 251.5 346.78125 L 251.09375 379.8125 L 237.65625 388.0625 C 230.267 392.60215 216.47307 401.00687 207.03125 406.75 C 197.58942 412.49317 186.68116 419.09304 182.78125 421.40625 L 175.6875 425.625 L 175.6875 392.90625 L 175.6875 360.1875 L 189.5 351.625 C 235.8803 322.81618 250.67794 313.71875 251.25 313.71875 z M 165.4375 367.46875 C 166.16148 367.46875 166.75 381.84268 166.75 399.40625 L 166.75 431.34375 L 142.46875 445.90625 C 129.12706 453.91823 114.85517 462.61293 110.75 465.21875 C 106.64488 467.82457 100.76634 471.45935 97.6875 473.3125 L 92.09375 476.6875 L 92.09375 443.71875 C 92.09375 425.58914 92.644884 410.75 93.3125 410.75 C 93.980119 410.75 110.17834 401.02991 129.3125 389.125 C 148.44667 377.22006 164.71358 367.46875 165.4375 367.46875 z M 410.8125 422.71875 C 412.04405 422.71875 413.0625 423.36644 413.0625 424.1875 C 413.0625 425.00852 412.04405 425.6875 410.8125 425.6875 C 409.58095 425.6875 408.5625 425.00852 408.5625 424.1875 C 408.5625 423.36644 409.58095 422.71875 410.8125 422.71875 z M 419.40625 440.625 L 418.6875 485.78125 C 418.30234 510.61732 418.29575 531.4623 418.65625 532.125 C 419.01657 532.78781 420.7614 533.12728 422.53125 532.875 C 425.73709 532.41816 425.73176 532.26089 426.125 486.53125 L 426.53125 440.625 L 422.96875 440.625 L 419.40625 440.625 z M 359.0625 472.375 C 357.93093 472.40656 356.82407 472.53471 355.75 472.75 C 345.02384 474.90011 345.875 472.18177 345.875 504.03125 C 345.875 525.74184 346.34746 533.12156 347.75 533.6875 C 348.77628 534.10129 353.50271 534.46641 358.25 534.53125 C 367.64416 534.65948 375.89885 531.8992 381.5 526.75 C 390.24102 518.71428 393.14362 502.20014 387.84375 490.53125 C 383.09174 480.06864 370.00098 472.06992 359.0625 472.375 z M 333.625 486.3125 C 332.80512 486.35891 331.66624 488.41171 330.0625 492.25 C 327.2868 498.89278 327.41916 509.33145 330.375 516.71875 C 331.69568 520.01948 333.36187 522.71875 334.09375 522.71875 C 334.82563 522.71875 335.4375 514.28006 335.4375 503.96875 C 335.4375 491.74576 334.99147 486.23516 333.625 486.3125 z "
       transform="matrix(0.28222223,0,0,0.28222223,-1.3919578e-6,0)"
       id="path11317" />
    <path
       inkscape:connector-curvature="0"
       id="path3115"
       style="font-style:normal;font-variant:normal;font-weight:bold;font-stretch:normal;font-size:28.85717773px;line-height:125%;font-family:'Myanmar MN';-inkscape-font-specification:'Myanmar MN Bold';text-align:start;letter-spacing:0px;word-spacing:0px;writing-mode:lr-tb;text-anchor:start;fill:#0743a5;fill-opacity:1;stroke:none"
       d="m 63.338843,215.79951 c -1.20239,0 -2.254474,-0.1409 -3.156253,-0.42271 -0.901793,-0.28181 -1.672068,-0.67164 -2.310829,-1.16951 -0.629375,-0.49786 -1.131933,-1.08965 -1.507675,-1.77539 -0.366353,-0.68573 -0.61998,-1.43722 -0.760883,-2.25447 h 3.409882 c 0.122112,0.49787 0.295893,0.96755 0.521345,1.40905 0.225441,0.43211 0.511946,0.80785 0.859516,1.12723 0.347557,0.31939 0.760875,0.57301 1.239957,0.76088 0.479066,0.17848 1.033288,0.26772 1.662669,0.26772 0.422703,0 0.836022,-0.0423 1.239957,-0.12681 0.413308,-0.0939 0.779659,-0.23954 1.099053,-0.43681 0.328764,-0.19726 0.591785,-0.45558 0.789063,-0.77497 0.197253,-0.32877 0.295886,-0.728 0.295899,-1.19768 -1.3e-5,-0.60119 -0.155007,-1.13193 -0.464984,-1.59222 -0.300607,-0.46028 -0.704532,-0.8783 -1.211776,-1.25405 -0.497872,-0.38513 -1.070882,-0.74209 -1.719031,-1.07087 -0.638774,-0.32877 -1.29163,-0.65755 -1.958568,-0.98633 -0.666953,-0.33816 -1.324506,-0.68572 -1.972659,-1.04269 -0.63877,-0.36634 -1.21178,-0.77496 -1.719031,-1.22587 -0.497865,-0.45088 -0.90179,-0.95813 -1.211776,-1.52176 -0.300598,-0.56361 -0.450895,-1.21177 -0.450893,-1.94448 -2e-6,-0.79844 0.173779,-1.53584 0.521345,-2.2122 0.347561,-0.68571 0.850119,-1.27751 1.507675,-1.77539 0.666942,-0.49784 1.479488,-0.88768 2.437642,-1.1695 0.958141,-0.28179 2.047799,-0.4227 3.268978,-0.42272 1.014499,2e-5 1.930375,0.14093 2.747631,0.42272 0.817231,0.28182 1.535842,0.66696 2.155834,1.15541 0.629357,0.47909 1.155399,1.04741 1.578127,1.70494 0.43209,0.65757 0.760866,1.36679 0.98633,2.12765 h -3.099893 c -0.178492,-0.47905 -0.385151,-0.93464 -0.619978,-1.36677 -0.234854,-0.43209 -0.526055,-0.81253 -0.873606,-1.14132 -0.347576,-0.32876 -0.765591,-0.58708 -1.254047,-0.77497 -0.488479,-0.19725 -1.075579,-0.29588 -1.761303,-0.2959 -0.638774,2e-5 -1.178906,0.0846 -1.620398,0.25363 -0.441507,0.1691 -0.798464,0.38515 -1.070872,0.64815 -0.272421,0.25365 -0.469687,0.54015 -0.591797,0.85952 -0.11273,0.3194 -0.169091,0.63409 -0.169085,0.94406 -6e-6,0.53545 0.154988,1.02392 0.464984,1.4654 0.319375,0.43212 0.737391,0.83605 1.254047,1.21178 0.526034,0.36636 1.117831,0.72332 1.775393,1.07087 0.657542,0.33818 1.329185,0.68105 2.01493,1.0286 0.695114,0.34757 1.371454,0.70923 2.02902,1.08496 0.666932,0.37576 1.258729,0.79377 1.775393,1.25405 0.526026,0.4509 0.944041,0.95346 1.254047,1.50767 0.319366,0.55423 0.479057,1.17891 0.479074,1.87403 -1.7e-5,0.81725 -0.169102,1.57813 -0.507255,2.28265 -0.338186,0.69513 -0.840744,1.30571 -1.507675,1.83175 -0.657567,0.51665 -1.479507,0.92527 -2.465823,1.22587 -0.976948,0.2912 -2.10418,0.4368 -3.381701,0.4368" />
    <path
       inkscape:connector-curvature="0"
       id="path3117"
       style="font-style:normal;font-variant:normal;font-weight:bold;font-stretch:normal;font-size:28.85717773px;line-height:125%;font-family:'Myanmar MN';-inkscape-font-specification:'Myanmar MN Bold';text-align:start;letter-spacing:0px;word-spacing:0px;writing-mode:lr-tb;text-anchor:start;fill:#0743a5;fill-opacity:1;stroke:none"
       d="m 77.783267,195.16918 c -6e-6,2.56505 0.162936,4.83268 0.488828,6.80294 0.32588,1.97024 0.756515,3.62451 1.291906,4.96279 0.543135,1.33827 1.16387,2.35129 1.862206,3.03901 0.706076,0.68771 1.435439,1.03158 2.188092,1.03158 0.581927,0 1.12119,-0.24163 1.617791,-0.7249 0.504334,-0.48327 0.973764,-1.12453 1.408293,-1.92379 0.442259,-0.8178 0.853496,-1.75649 1.233712,-2.81595 0.380183,-1.07805 0.744865,-2.21187 1.094045,-3.40146 l 1.699263,2.98323 c -0.3647,1.41266 -0.806973,2.76952 -1.326821,4.0706 -0.512124,1.30112 -1.090183,2.45353 -1.73418,3.45725 -0.644028,1.00369 -1.346234,1.80295 -2.10662,2.39773 -0.760413,0.59481 -1.563489,0.89221 -2.409229,0.89221 -1.427701,0 -2.742883,-0.49256 -3.945548,-1.47769 -1.194922,-1.00372 -2.230773,-2.41633 -3.107556,-4.2379 -0.869033,-1.82152 -1.547962,-4.00554 -2.036788,-6.55199 -0.488831,-2.54645 -0.733245,-5.38099 -0.733244,-8.50366 -10e-7,-2.00741 0.104748,-3.91259 0.314248,-5.71557 0.209496,-1.82152 0.508225,-3.50367 0.896186,-5.04645 0.395716,-1.54269 0.876785,-2.92744 1.44321,-4.15423 0.566416,-1.2453 1.202669,-2.30479 1.90876,-3.17843 0.71384,-0.87355 1.493638,-1.54269 2.339397,-2.00742 0.845742,-0.46463 1.741929,-0.69697 2.688559,-0.69702 0.954369,5e-5 1.827278,0.26957 2.618728,0.80856 0.799182,0.52047 1.520786,1.26396 2.164813,2.23046 0.651756,0.948 1.229816,2.08182 1.73418,3.40146 0.512089,1.31973 0.962122,2.76025 1.350099,4.32152 l -1.722541,2.87174 c -0.349179,-1.18956 -0.72938,-2.30479 -1.140601,-3.34569 -0.403493,-1.05944 -0.838007,-1.97953 -1.303543,-2.76023 -0.465566,-0.79919 -0.954394,-1.43117 -1.466487,-1.89588 -0.51212,-0.46465 -1.047504,-0.69699 -1.606153,-0.69702 -0.760411,3e-5 -1.485895,0.3439 -2.176453,1.03158 -0.690576,0.68778 -1.299673,1.70077 -1.82729,3.03902 -0.519873,1.3383 -0.934988,2.99257 -1.24535,4.96278 -0.302614,1.97028 -0.453918,4.24722 -0.453912,6.83082" />
    <path
       inkscape:connector-curvature="0"
       id="path3119"
       style="font-size:28.85717773px;font-style:normal;font-variant:normal;font-weight:bold;font-stretch:normal;text-align:start;line-height:125%;letter-spacing:0px;word-spacing:0px;writing-mode:lr-tb;text-anchor:start;fill:#0743a5;fill-opacity:1;stroke:none;font-family:Myanmar MN;-inkscape-font-specification:Myanmar MN Bold"
       d="m 99.847076,185.83289 0,30.21387 -6.92975,0 0,-63.45803 6.92975,0 0,27.80746 11.377494,0 0,-27.80746 6.87018,0 0,63.45803 -6.87018,0 0,-30.21387 -11.377494,0" />
    <path
       inkscape:connector-curvature="0"
       id="path3121"
       style="font-size:28.85717773px;font-style:normal;font-variant:normal;font-weight:bold;font-stretch:normal;text-align:start;line-height:125%;letter-spacing:0px;word-spacing:0px;writing-mode:lr-tb;text-anchor:start;fill:#0743a5;fill-opacity:1;stroke:none;font-family:Myanmar MN;-inkscape-font-specification:Myanmar MN Bold"
       d="m 122.70517,135.95542 9.99382,0 c 1.71856,6e-5 3.2254,0.54973 4.52057,1.64902 1.29513,1.09944 2.37235,2.63476 3.23165,4.60597 0.85927,1.97139 1.50061,4.30277 1.92405,6.99428 0.43585,2.69165 0.65377,5.62961 0.6538,8.81392 -3e-5,2.27461 -0.14947,4.45437 -0.44832,6.53937 -0.28645,2.04712 -0.69742,3.94256 -1.23289,5.68638 -0.53551,1.70594 -1.17686,3.24127 -1.92404,4.60597 -0.74722,1.32689 -1.57536,2.42624 -2.48444,3.29813 l 9.47078,38.78118 -7.07974,0 -8.94774,-36.67725 -1.15817,0 0,36.67725 -6.51933,0 0,-80.97422 m 6.51933,37.30272 1.4197,0 c 0.797,3e-5 1.53174,-0.341 2.20423,-1.02355 0.68492,-0.6823 1.27646,-1.64902 1.7746,-2.90005 0.49813,-1.28888 0.89041,-2.84316 1.17685,-4.66284 0.28641,-1.85754 0.42963,-3.9425 0.42964,-6.25505 -1e-5,-2.12289 -0.11215,-4.07519 -0.33624,-5.85697 -0.21172,-1.78168 -0.51061,-3.31703 -0.89664,-4.60603 -0.38607,-1.32671 -0.84684,-2.35026 -1.38233,-3.07064 -0.52305,-0.72018 -1.10213,-1.08032 -1.73724,-1.08041 l -2.65257,0 0,29.45554" />
    <path
       inkscape:connector-curvature="0"
       id="path3123"
       style="font-size:28.85717773px;font-style:normal;font-variant:normal;font-weight:bold;font-stretch:normal;text-align:start;line-height:125%;letter-spacing:0px;word-spacing:0px;writing-mode:lr-tb;text-anchor:start;fill:#0743a5;fill-opacity:1;stroke:none;font-family:Myanmar MN;-inkscape-font-specification:Myanmar MN Bold"
       d="m 149.66048,135.95542 6.51934,0 0,80.97422 -6.51934,0 0,-80.97422" />
    <path
       inkscape:connector-curvature="0"
       id="path3125"
       style="font-size:28.85717773px;font-style:normal;font-variant:normal;font-weight:bold;font-stretch:normal;text-align:start;line-height:125%;letter-spacing:0px;word-spacing:0px;writing-mode:lr-tb;text-anchor:start;fill:#0743a5;fill-opacity:1;stroke:none;font-family:Myanmar MN;-inkscape-font-specification:Myanmar MN Bold"
       d="m 186.71733,124.39691 0,7.94677 -10.4692,0 0,85.57548 -7.41124,0 0,-85.57548 -10.4692,0 0,-7.94677 28.34964,0" />
    <path
       style="font-size:28.85717773px;font-style:normal;font-variant:normal;font-weight:bold;font-stretch:normal;text-align:start;line-height:125%;letter-spacing:0px;word-spacing:0px;writing-mode:lr-tb;text-anchor:start;fill:#0743a5;fill-opacity:1;stroke:none;font-family:Myanmar MN;-inkscape-font-specification:Myanmar MN Bold"
       d="M 667.03125 430.1875 L 678.53125 430.1875 L 678.53125 773.40625 L 704.78125 773.40625 L 704.78125 430.1875 L 741.875 430.1875 L 741.875 398.3125 L 667.03125 398.3125 L 667.03125 430.1875 z "
       id="path4068"
       transform="matrix(0.28222223,0,0,0.28222223,-1.3919578e-6,0)" />
    <path
       style="font-size:28.85717773px;font-style:normal;font-variant:normal;font-weight:bold;font-stretch:normal;text-align:start;line-height:125%;letter-spacing:0px;word-spacing:0px;writing-mode:lr-tb;text-anchor:start;fill:#0743a5;fill-opacity:1;stroke:none;font-family:Myanmar MN;-inkscape-font-specification:Myanmar MN Bold"
       d="m 188.25105,121.40848 0,-8.99584 -29.61236,0 0,8.99584 29.61236,0 z"
       id="path3127"
       inkscape:connector-curvature="0" />
    <g
       id="g4057"
       style="fill:#0743a5;fill-opacity:1">
      <path
         d="m 126.06294,248.43538 v 3.62104 h -10.61958 v 14.06518 h 9.35722 v 3.65098 h -9.35722 v 21.27733 h -5.50704 v -42.61453 h 16.12662"
         style="font-style:normal;font-variant:normal;font-weight:bold;font-stretch:normal;font-size:44.50409317px;line-height:125%;font-family:'Myanmar MN';-inkscape-font-specification:'Myanmar MN Bold';text-align:start;letter-spacing:0px;word-spacing:0px;writing-mode:lr-tb;text-anchor:start;fill:#0743a5;fill-opacity:1;stroke:none"
         id="path3177"
         inkscape:connector-curvature="0"
         sodipodi:nodetypes="ccccccccccc" />
      <path
         d="m 136.00912,247.50767 10.5249,43.54224 h -5.63327 l -2.80874,-11.64119 h -8.72605 l -2.95076,11.64119 h -3.75551 l 10.96673,-43.54224 h 2.3827 m -5.61749,27.9209 h 6.76939 l -3.32947,-13.76592 -3.43992,13.76592"
         style="font-style:normal;font-variant:normal;font-weight:bold;font-stretch:normal;font-size:44.50409317px;line-height:125%;font-family:'Myanmar MN';-inkscape-font-specification:'Myanmar MN Bold';text-align:start;letter-spacing:0px;word-spacing:0px;writing-mode:lr-tb;text-anchor:start;fill:#0743a5;fill-opacity:1;stroke:none"
         id="path3179"
         inkscape:connector-curvature="0"
         sodipodi:nodetypes="ccccccccccccc" />
      <path
         d="m 150.52338,224.87528 h 8.5517 v 59.38988 h 17.81397 v 6.78475 h -26.36567 v -66.17463"
         style="font-style:normal;font-variant:normal;font-weight:bold;font-stretch:normal;font-size:44.50409317px;line-height:125%;font-family:'Myanmar MN';-inkscape-font-specification:'Myanmar MN Bold';text-align:start;letter-spacing:0px;word-spacing:0px;writing-mode:lr-tb;text-anchor:start;fill:#0743a5;fill-opacity:1;stroke:none;stroke-width:1.55286527"
         id="path3181"
         inkscape:connector-curvature="0"
         sodipodi:nodetypes="ccccccc" />
      <path
         d="m 180.03252,224.87528 h 8.55169 v 59.38988 h 17.81396 v 6.78475 h -26.36565 v -66.17463"
         style="font-style:normal;font-variant:normal;font-weight:bold;font-stretch:normal;font-size:44.50409317px;line-height:125%;font-family:'Myanmar MN';-inkscape-font-specification:'Myanmar MN Bold';text-align:start;letter-spacing:0px;word-spacing:0px;writing-mode:lr-tb;text-anchor:start;fill:#0743a5;fill-opacity:1;stroke:none;stroke-width:1.55286527"
         id="path3183"
         inkscape:connector-curvature="0"
         sodipodi:nodetypes="ccccccc" />
    </g>
    <path
       inkscape:connector-curvature="0"
       id="path3141"
       style="font-size:17.57218933px;font-style:normal;font-variant:normal;font-weight:bold;font-stretch:normal;text-align:start;line-height:125%;letter-spacing:0px;word-spacing:0px;writing-mode:lr-tb;text-anchor:start;fill:#0743a5;fill-opacity:1;stroke:none;font-family:Myanmar MN;-inkscape-font-specification:Myanmar MN Bold"
       d="m 17.687814,196.45463 0,1.60202 -9.453257,0 0,6.22273 7.851234,0 0,1.61526 -7.851234,0 0,7.48051 9.453257,0 0,1.93303 -14.0739653,0 0,-18.85355 14.0739653,0" />
    <path
       inkscape:connector-curvature="0"
       id="path3143"
       style="font-size:17.57218933px;font-style:normal;font-variant:normal;font-weight:bold;font-stretch:normal;text-align:start;line-height:125%;letter-spacing:0px;word-spacing:0px;writing-mode:lr-tb;text-anchor:start;fill:#0743a5;fill-opacity:1;stroke:none;font-family:Myanmar MN;-inkscape-font-specification:Myanmar MN Bold"
       d="m 21.71273,196.45463 4.620708,0 0,18.85355 -4.620708,0 0,-18.85355" />
    <path
       inkscape:connector-curvature="0"
       id="path3145"
       style="font-size:17.57218933px;font-style:normal;font-variant:normal;font-weight:bold;font-stretch:normal;text-align:start;line-height:125%;letter-spacing:0px;word-spacing:0px;writing-mode:lr-tb;text-anchor:start;fill:#0743a5;fill-opacity:1;stroke:none;font-family:Myanmar MN;-inkscape-font-specification:Myanmar MN Bold"
       d="m 31.152745,196.45463 2.952487,0 10.750761,11.9953 0,-11.9953 2.899529,0 0,19.14482 -1.999218,0 -11.677552,-13.23985 0,12.94858 -2.926007,0 0,-18.85355" />
    <g
       style="font-size:17.57218933px;font-style:normal;font-variant:normal;font-weight:bold;font-stretch:normal;text-align:start;line-height:125%;letter-spacing:0px;word-spacing:0px;writing-mode:lr-tb;text-anchor:start;fill:#0743a5;fill-opacity:1;stroke:none;font-family:Myanmar MN;-inkscape-font-specification:Myanmar MN Bold"
       id="text3150"
       transform="matrix(1.8411421,0,0,5.369142,247.51233,-612.50277)">
      <path
         d="m -129.82443,155.93211 4.04126,8.44288 3.74095,-8.44288 1.93054,0 -5.49989,12.40692 -1.40715,0 -5.90315,-12.40692 3.09744,0"
         id="path3155"
         inkscape:connector-curvature="0"
         style="fill:#0743a5;fill-opacity:1" />
      <path
         d="m -112.82712,168.42483 c -0.65782,0 -1.28703,-0.0744 -1.88763,-0.22308 -0.60062,-0.143 -1.15833,-0.34893 -1.67314,-0.61777 -0.51481,-0.26885 -0.98386,-0.59489 -1.40714,-0.97814 -0.4233,-0.38325 -0.78366,-0.81512 -1.08111,-1.29561 -0.29744,-0.48048 -0.52911,-1.00101 -0.69499,-1.56159 -0.16016,-0.56629 -0.24025,-1.16404 -0.24024,-1.79325 -1e-5,-0.61777 0.0801,-1.20122 0.24024,-1.75036 0.16588,-0.55484 0.39755,-1.06393 0.69499,-1.52727 0.29745,-0.46332 0.65781,-0.88089 1.08111,-1.2527 0.42328,-0.37752 0.89233,-0.69499 1.40714,-0.9524 0.51481,-0.2574 1.07252,-0.45474 1.67314,-0.59204 0.6006,-0.14299 1.22981,-0.21449 1.88763,-0.2145 0.65781,1e-5 1.28702,0.0715 1.88764,0.2145 0.6006,0.1373 1.15831,0.3375 1.67314,0.60062 0.51479,0.25741 0.98384,0.57202 1.40714,0.94382 0.42328,0.37181 0.78365,0.78938 1.0811,1.2527 0.29744,0.46334 0.52624,0.96957 0.68642,1.51869 0.16587,0.54914 0.24881,1.12973 0.24882,1.74178 -1e-5,0.64637 -0.0829,1.25556 -0.24882,1.82757 -0.16018,0.57202 -0.38898,1.09827 -0.68642,1.57875 -0.29745,0.48049 -0.65782,0.91236 -1.0811,1.29561 -0.4233,0.37753 -0.89235,0.70071 -1.40714,0.96956 -0.51483,0.26312 -1.07254,0.46333 -1.67314,0.60061 -0.60062,0.143 -1.22983,0.2145 -1.88764,0.2145 m 0,-1.0382 c 0.59489,0 1.11828,-0.13442 1.57018,-0.40326 0.45759,-0.27457 0.84084,-0.6521 1.14974,-1.13259 0.30887,-0.4862 0.54054,-1.06107 0.69499,-1.72461 0.16015,-0.66353 0.24024,-1.38712 0.24025,-2.17078 -1e-5,-0.77221 -0.0801,-1.47865 -0.24025,-2.11931 -0.15445,-0.64636 -0.38612,-1.20121 -0.69499,-1.66455 -0.3089,-0.46332 -0.69215,-0.82369 -1.14974,-1.0811 -0.4519,-0.2574 -0.97529,-0.3861 -1.57018,-0.38611 -0.60061,1e-5 -1.12972,0.12871 -1.58733,0.38611 -0.45761,0.25741 -0.84086,0.61778 -1.14974,1.0811 -0.30317,0.46334 -0.53484,1.01819 -0.69499,1.66455 -0.15445,0.64066 -0.23167,1.3471 -0.23167,2.11931 0,0.78366 0.0772,1.50725 0.23167,2.17078 0.16015,0.66354 0.39182,1.23841 0.69499,1.72461 0.30888,0.48049 0.69213,0.85802 1.14974,1.13259 0.45761,0.26884 0.98672,0.40326 1.58733,0.40326"
         id="path3157"
         inkscape:connector-curvature="0"
         style="fill:#0743a5;fill-opacity:1" />
    </g>
    <g
       style="font-style:normal;font-variant:normal;font-weight:bold;font-stretch:normal;font-size:17.57218933px;line-height:125%;font-family:'Myanmar MN';-inkscape-font-specification:'Myanmar MN Bold';text-align:start;letter-spacing:0px;word-spacing:0px;writing-mode:lr-tb;text-anchor:start;fill:#0743a5;fill-opacity:1;stroke:none"
       id="text3161"
       transform="matrix(1.3979478,0,0,1.4775374,234.22222,-25.942495)">
      <path
         d="m -79.232867,169.63979 v 1.0382 h -6.126241 v 4.03268 h 5.088041 v 1.04678 h -5.088041 v 4.8478 h 6.126241 v 1.25271 h -9.120721 v -12.21817 h 9.120721"
         id="path3172"
         inkscape:connector-curvature="0"
         style="fill:#0743a5;fill-opacity:1" />
      <path
         d="m -76.753197,169.63979 h 2.917258 l 4.221444,8.34851 4.169963,-8.34851 h 2.857197 v 12.21817 h -2.994479 v -7.9624 l -3.98978,7.9624 h -1.158323 l -4.127062,-8.05678 v 8.05678 h -1.896218 v -12.21817"
         id="path3174"
         inkscape:connector-curvature="0"
         style="fill:#0743a5;fill-opacity:1" />
    </g>
    <g
       aria-label="R"
       transform="scale(0.67388182,1.4839397)"
       style="font-style:normal;font-variant:normal;font-weight:normal;font-stretch:normal;font-size:61.95147705px;line-height:7.09860611px;font-family:sans-serif;-inkscape-font-specification:'sans-serif, Normal';font-variant-ligatures:normal;font-variant-caps:normal;font-variant-numeric:normal;font-feature-settings:normal;text-align:start;letter-spacing:0px;word-spacing:0px;writing-mode:lr-tb;text-anchor:start;fill:#0743a5;fill-opacity:1;stroke:none;stroke-width:0.3226639px;stroke-linecap:butt;stroke-linejoin:miter;stroke-opacity:1"
       id="text4525">
      <path
         d="m 102.55289,175.21539 q 1.96623,0.6655 3.81147,2.84348 1.87548,2.17798 3.75096,5.98945 l 6.2012,12.34189 h -6.56419 l -5.7777,-11.58565 q -2.23849,-4.53746 -4.355967,-6.0197 -2.087233,-1.48224 -5.717202,-1.48224 h -6.654944 v 19.08759 h -6.110448 v -45.16287 h 13.793883 q 7.743938,0 11.555398,3.23673 3.81147,3.23672 3.81147,9.77066 0,4.26522 -1.99648,7.07844 -1.96623,2.81323 -5.74745,3.90222 z M 87.246517,156.2488 v 16.03237 h 7.683435 q 4.416463,0 6.654948,-2.02674 2.26873,-2.05698 2.26873,-6.0197 0,-3.96271 -2.26873,-5.9592 -2.238485,-2.02673 -6.654948,-2.02673 z"
         style="font-style:normal;font-variant:normal;font-weight:normal;font-stretch:normal;font-size:61.95147705px;font-family:sans-serif;-inkscape-font-specification:'sans-serif, Normal';font-variant-ligatures:normal;font-variant-caps:normal;font-variant-numeric:normal;font-feature-settings:normal;text-align:start;writing-mode:lr-tb;text-anchor:start;fill:#0743a5;fill-opacity:1;stroke-width:0.3226639px"
         id="path6223" />
    </g>
    <g
       aria-label="D"
       style="font-style:normal;font-variant:normal;font-weight:bold;font-stretch:normal;font-size:25.40971184px;line-height:38.11436462px;font-family:sans-serif;-inkscape-font-specification:'sans-serif, Bold';font-variant-ligatures:normal;font-variant-caps:normal;font-variant-numeric:normal;font-feature-settings:normal;text-align:start;letter-spacing:0px;word-spacing:0px;writing-mode:lr-tb;text-anchor:start;fill:#0743a5;fill-opacity:1;stroke:none;stroke-width:1.73247099px;stroke-linecap:butt;stroke-linejoin:miter;stroke-opacity:1"
       id="text4529">
      <path
         d="m 94.701072,227.68429 v 11.30286 h 1.712178 q 2.928072,0 4.46655,-1.45163 1.55089,-1.45163 1.55089,-4.21841 0,-2.75437 -1.53848,-4.19359 -1.53848,-1.43923 -4.47896,-1.43923 z m -4.776728,-3.61046 h 5.037277 q 4.218409,0 6.277989,0.60795 2.07198,0.59554 3.54842,2.03476 1.30275,1.25312 1.93551,2.89085 0.63276,1.63774 0.63276,3.70972 0,2.0968 -0.63276,3.74694 -0.63276,1.63774 -1.93551,2.89085 -1.48885,1.43922 -3.57324,2.04717 -2.084388,0.59554 -6.253169,0.59554 h -5.037277 z"
         style="font-style:normal;font-variant:normal;font-weight:bold;font-stretch:normal;font-size:25.40971184px;font-family:sans-serif;-inkscape-font-specification:'sans-serif, Bold';font-variant-ligatures:normal;font-variant-caps:normal;font-variant-numeric:normal;font-feature-settings:normal;text-align:start;writing-mode:lr-tb;text-anchor:start;fill:#0743a5;fill-opacity:1;stroke-width:1.73247099px"
         id="path6220" />
    </g>
  </g>
</svg>
