<?xml version="1.0" encoding="UTF-8" standalone="no"?>
<!-- Created with Inkscape (http://www.inkscape.org/) -->

<svg
   xmlns:dc="http://purl.org/dc/elements/1.1/"
   xmlns:cc="http://creativecommons.org/ns#"
   xmlns:rdf="http://www.w3.org/1999/02/22-rdf-syntax-ns#"
   xmlns:svg="http://www.w3.org/2000/svg"
   xmlns="http://www.w3.org/2000/svg"
   xmlns:sodipodi="http://sodipodi.sourceforge.net/DTD/sodipodi-0.dtd"
   xmlns:inkscape="http://www.inkscape.org/namespaces/inkscape"
   width="885.82672"
   height="885.82672"
   id="svg2"
   version="1.1"
   inkscape:version="0.48+devel r9772"
   sodipodi:docname="OnlyWine-190.svg">
  <defs
     id="defs4" />
  <sodipodi:namedview
     id="base"
     pagecolor="#ffffff"
     bordercolor="#666666"
     borderopacity="1.0"
     inkscape:pageopacity="0.0"
     inkscape:pageshadow="2"
     inkscape:zoom="0.78570671"
     inkscape:cx="442.91336"
     inkscape:cy="442.91336"
     inkscape:document-units="px"
     inkscape:current-layer="layer2"
     showgrid="false"
     units="px"
     inkscape:window-width="1440"
     inkscape:window-height="851"
     inkscape:window-x="0"
     inkscape:window-y="1"
     inkscape:window-maximized="1"
     showguides="true"
     inkscape:guide-bbox="true" />
  <metadata
     id="metadata7">
    <rdf:RDF>
      <cc:Work
         rdf:about="">
        <dc:format>image/svg+xml</dc:format>
        <dc:type
           rdf:resource="http://purl.org/dc/dcmitype/StillImage" />
        <dc:title />
      </cc:Work>
    </rdf:RDF>
  </metadata>
  <g
     inkscape:label="Background"
     inkscape:groupmode="layer"
     id="layer1"
     transform="translate(0,-166.5355)"
     sodipodi:insensitive="true">
    <rect
       style="color:#000000;fill:none;stroke:#800000;stroke-width:9.93276978;stroke-linecap:butt;stroke-linejoin:miter;stroke-miterlimit:4;stroke-opacity:1;stroke-dasharray:none;stroke-dashoffset:0;marker:none;visibility:visible;display:inline;overflow:visible;enable-background:accumulate"
       id="rect3840"
       width="875.90057"
       height="875.89392"
       x="4.9630871"
       y="171.50191" />
    <g
       id="g3889"
       style="fill:#800000">
      <path
         d="m 713.3786,1026.9622 -4.32,5.28 -10.92,0 -3.28,-5.28 0,-16.2 3.96,-4.88 10.68,0 3.88,4.88 0,16.2 m -5.32,-0.32 0,-15.72 -1.92,-2.36 -2.96,0 -1.48,2.36 0,15.72 1.6,2.92 2.88,0 1.88,-2.92"
         style="font-size:40px;font-style:normal;font-variant:normal;font-weight:normal;font-stretch:normal;text-align:start;line-height:125%;letter-spacing:0px;word-spacing:0px;writing-mode:lr-tb;text-anchor:start;fill:#800000;fill-opacity:1;stroke:none;font-family:LambrettistA;-inkscape-font-specification:LambrettistA"
         id="path3847"
         inkscape:connector-curvature="0" />
      <path
         d="m 737.71047,1008.0022 -23,0 0,-2.12 23,0 0,2.12 m -2.36,18.12 c -3.73335,0 -6.36001,0.013 -7.88,0.04 l 0,-10.6 -3.04,2 -0.04,8.56 -5.44,0.04 c 0,0 0,-3.8133 0,-11.44 l -2.88,0 c -0.0267,-1.52 -0.0267,-2.2666 0,-2.24 l 8.24,0 0,2.08 3.52,-2.08 5.08,0 c -2e-5,0 -2e-5,3.7734 0,11.32 l 2.44,0 0,2.32 m 2.68,6.08 -23.32,-0.04 0,-2.72 23.32,0.04 c -2e-5,0 -2e-5,0.9067 0,2.72"
         style="font-size:40px;font-style:normal;font-variant:normal;font-weight:normal;font-stretch:normal;text-align:start;line-height:125%;letter-spacing:0px;word-spacing:0px;writing-mode:lr-tb;text-anchor:start;fill:#800000;fill-opacity:1;stroke:none;font-family:LambrettistA;-inkscape-font-specification:LambrettistA"
         id="path3849"
         inkscape:connector-curvature="0" />
      <path
         d="m 751.53797,1008.0022 -3.72,0 c -10e-6,-0.7199 -10e-6,-1.1199 0,-1.2 -0.0267,-0.08 -0.04,-0.3866 -0.04,-0.92 l 3.76,0 0,2.12 m -3.08,18.12 -7.88,0 0.04,-21.12 -2.12,0 0,-2.32 7.76,0 0,20.92 2.2,0 0,2.52 m 3.2,6.08 -14.88,0 c 0,0 0,-0.92 0,-2.76 l 14.84,0 c -10e-6,0.7467 0.0133,1.6667 0.04,2.76"
         style="font-size:40px;font-style:normal;font-variant:normal;font-weight:normal;font-stretch:normal;text-align:start;line-height:125%;letter-spacing:0px;word-spacing:0px;writing-mode:lr-tb;text-anchor:start;fill:#800000;fill-opacity:1;stroke:none;font-family:LambrettistA;-inkscape-font-specification:LambrettistA"
         id="path3851"
         inkscape:connector-curvature="0" />
      <path
         d="m 769.71672,1008.0422 -18.92,0.04 c 0,-1.4666 0,-2.1999 0,-2.2 l 18.88,0 c 0.0267,1.3334 0.04,2.0534 0.04,2.16 m -1.76,24.88 -2.16,3.32 -10.68,0 0,-2.68 5.72,0 1.44,-1.44 0,-6.84 -0.84,0.84 -6.56,0 -1.72,-2.2 0,-11.44 5,0 0,11.36 4.12,0 0,-11.36 5.68,0 0,20.44 m -8.36,-0.72 -8.8,0 0,-2.76 8.8,0.04 0,2.72"
         style="font-size:40px;font-style:normal;font-variant:normal;font-weight:normal;font-stretch:normal;text-align:start;line-height:125%;letter-spacing:0px;word-spacing:0px;writing-mode:lr-tb;text-anchor:start;fill:#800000;fill-opacity:1;stroke:none;font-family:LambrettistA;-inkscape-font-specification:LambrettistA"
         id="path3853"
         inkscape:connector-curvature="0" />
      <path
         d="m 811.3811,1032.2422 -5.2,0 0,-2.72 5.2,0 0,2.72 m -2.64,-9.64 -9.64,9.68 c -2.00002,0 -3.80002,-0.013 -5.4,-0.04 -0.08,0 -0.10668,-1.3733 -0.08,-4.12 l -4.76,4.24 c -10e-6,-0.027 -0.0134,-0.053 -0.04,-0.08 l -5.12,0 c -10e-6,0 -10e-6,-7.8666 0,-23.6 l -3.48,0 -0.04,-2.76 8.96,0 0,23.08 4.36,-4.44 -0.04,-18.64 c 2.18665,10e-5 4.03998,-0.013 5.56,-0.04 l 0,22.76 4.2,-4.24 0.04,-18.52 c 1.38664,0.027 3.2133,0.04 5.48,0.04 -3e-5,3.2801 -3e-5,8.84 0,16.68"
         style="font-size:40px;font-style:normal;font-variant:normal;font-weight:normal;font-stretch:normal;text-align:start;line-height:125%;letter-spacing:0px;word-spacing:0px;writing-mode:lr-tb;text-anchor:start;fill:#800000;fill-opacity:1;stroke:none;font-family:LambrettistA;-inkscape-font-specification:LambrettistA"
         id="path3855"
         inkscape:connector-curvature="0" />
      <path
         d="m 820.20235,1008.0422 -5.72,0 0,-2.16 5.72,0 0,2.16 m -0.28,18.08 -5.52,0 c -0.0267,-2.16 -0.0267,-5.92 0,-11.28 l -2.84,0.04 c -0.0267,-1.5733 -0.0267,-2.3733 0,-2.4 l 8.36,0 0,13.64 m 3.6,6.04 -12.64,0 c 0,0 0,-0.9066 0,-2.72 l 12.64,0 0,2.72"
         style="font-size:40px;font-style:normal;font-variant:normal;font-weight:normal;font-stretch:normal;text-align:start;line-height:125%;letter-spacing:0px;word-spacing:0px;writing-mode:lr-tb;text-anchor:start;fill:#800000;fill-opacity:1;stroke:none;font-family:LambrettistA;-inkscape-font-specification:LambrettistA"
         id="path3857"
         inkscape:connector-curvature="0" />
      <path
         d="m 845.67922,1008.0022 -23,0 0,-2.12 23,0 0,2.12 m -2.36,18.12 c -3.73335,0 -6.36001,0.013 -7.88,0.04 l 0,-10.6 -3.04,2 -0.04,8.56 -5.44,0.04 c 0,0 0,-3.8133 0,-11.44 l -2.88,0 c -0.0267,-1.52 -0.0267,-2.2666 0,-2.24 l 8.24,0 0,2.08 3.52,-2.08 5.08,0 c -2e-5,0 -2e-5,3.7734 0,11.32 l 2.44,0 0,2.32 m 2.68,6.08 -23.32,-0.04 0,-2.72 23.32,0.04 c -2e-5,0 -2e-5,0.9067 0,2.72"
         style="font-size:40px;font-style:normal;font-variant:normal;font-weight:normal;font-stretch:normal;text-align:start;line-height:125%;letter-spacing:0px;word-spacing:0px;writing-mode:lr-tb;text-anchor:start;fill:#800000;fill-opacity:1;stroke:none;font-family:LambrettistA;-inkscape-font-specification:LambrettistA"
         id="path3859"
         inkscape:connector-curvature="0" />
      <path
         d="m 865.78672,1005.8422 -0.04,2.16 -21.48,0 c 0,10e-5 0,-0.7066 0,-2.12 l 21.52,-0.04 m -3,20.24 -12.84,0 -2.28,-1.68 0,-10.2 2.4,-1.88 10.24,0 2.32,1.84 0.04,5.52 -2.32,1.6 -7.32,0 c -10e-6,0.64 0.0133,1.0667 0.04,1.28 0.0533,0.2134 0.08,0.6134 0.08,1.2 l 9.64,0.04 c 0.0533,0.9067 0.0533,1.6667 0,2.28 m 3.04,6.08 -21.24,0 c 0,0 0,-0.92 0,-2.76 l 21.24,0 c -0.0533,1.4934 -0.0533,2.4134 0,2.76 m -8.4,-13.04 0,-4.44 -4.4,0 0,4.44 4.4,0"
         style="font-size:40px;font-style:normal;font-variant:normal;font-weight:normal;font-stretch:normal;text-align:start;line-height:125%;letter-spacing:0px;word-spacing:0px;writing-mode:lr-tb;text-anchor:start;fill:#800000;fill-opacity:1;stroke:none;font-family:LambrettistA;-inkscape-font-specification:LambrettistA"
         id="path3861"
         inkscape:connector-curvature="0" />
    </g>
  </g>
  <g
     inkscape:groupmode="layer"
     id="layer2"
     inkscape:label="Draw">
    <g
       id="g3975">
      <rect
         y="237.17871"
         x="209.42285"
         height="466.98102"
         width="466.98102"
         id="rect3742"
         style="color:#000000;fill:#4d4d4d;stroke:none;stroke-width:1.60925484px;marker:none;visibility:visible;display:inline;overflow:visible;enable-background:accumulate" />
      <path
         inkscape:connector-curvature="0"
         id="path3733"
         d="m 444.75728,470.46322 c -0.53476,-0.53474 -1.92274,-0.5919 -3.08441,-0.12697 -1.28375,0.51371 -0.90244,0.89503 0.97226,0.97225 1.69641,0.0698 2.64689,-0.31048 2.11215,-0.84522 z"
         style="fill:#000000" />
      <path
         inkscape:connector-curvature="0"
         id="path3731"
         d="m 444.25401,470.66922 c 0,-0.88509 -0.31934,-1.60925 -0.70964,-1.60925 -0.39031,0 -1.15722,0.72416 -1.70424,1.60925 -0.54702,0.88509 -0.22767,1.60926 0.70965,1.60926 0.93733,0 1.70423,-0.72417 1.70423,-1.60926 z"
         style="fill:#000000" />
      <path
         inkscape:connector-curvature="0"
         id="path3605"
         d="m 443.24636,469.42873 c -0.5137,-1.28375 -0.89503,-0.90244 -0.97224,0.97226 -0.0698,1.69641 0.31047,2.64689 0.84521,2.11215 0.53474,-0.53474 0.5919,-1.92272 0.12697,-3.08441 z"
         style="fill:#000000" />
      <path
         id="path3571"
         d="m 625.4215,447.4818 c -1.30073,-9.98529 -8.37124,-36.30948 -12.9671,-48.27765 -1.18958,-3.09781 -5.28107,-11.01746 -9.09224,-17.59919 l -6.92937,-11.96679 5.8998,-18.60906 c 11.05862,-34.88092 15.24785,-49.05081 14.82294,-50.13789 -0.23345,-0.59731 -14.1836,3.50573 -31.00031,9.11786 -16.81671,5.61213 -32.03384,10.23486 -33.81584,10.27273 -1.78199,0.0378 -7.13305,-2.55288 -11.89123,-5.75724 -25.5751,-17.22326 -62.76665,-27.96825 -96.80633,-27.96825 -28.97051,0 -53.09831,5.20985 -77.14988,16.65878 -26.25083,12.49581 -37.36497,20.50469 -57.27764,41.27439 -38.65635,40.32009 -56.95148,99.10407 -48.08092,154.48846 7.37713,46.05998 28.55044,82.82562 66.73644,115.88221 13.62854,11.79785 40.46406,26.17785 59.96842,32.1345 21.54106,6.57867 37.63685,8.52809 62.33495,7.54963 24.26931,-0.96147 37.78358,-3.57166 58.04086,-11.21025 78.24081,-29.5029 128.03756,-112.71267 117.20745,-195.85224 z"
         style="fill:#800000;stroke:#ffffff;stroke-width:32.18509674;stroke-linecap:round;stroke-linejoin:bevel;stroke-miterlimit:4;stroke-dasharray:none"
         inkscape:connector-curvature="0" />
      <g
         style="fill:#ffffff;stroke:#ffffff;stroke-linecap:round;stroke-linejoin:bevel"
         transform="matrix(-0.32168151,0.33296846,0.33296846,0.32168151,414.17126,313.99189)"
         id="g4692">
        <path
           inkscape:connector-curvature="0"
           style="fill:#ffffff;stroke:#ffffff;stroke-linecap:round;stroke-linejoin:bevel"
           d="M 201.14,139.87 V 13.385 c 0,-7.376 -5.98,-13.356 -13.355,-13.356 h -21.701 c -7.375,0 -13.355,5.98 -13.355,13.356 v 186.854 c -25.933,9.891 -44.576,35.341 -43.711,65.563 -0.077,1.223 -0.05,229.043 -0.05,230.88 0,8.459 6.857,15.318 15.317,15.318 h 105.301 c 8.461,0 15.317,-6.859 15.317,-15.318 0,-1.464 0,-227.954 0,-232.93 0,-29.008 -18.179,-53.757 -43.76,-63.514 v -32.551"
           id="path4624" />
        <path
           inkscape:connector-curvature="0"
           style="fill:#ffffff;stroke:#ffffff;stroke-linecap:round;stroke-linejoin:bevel"
           d="m 175.833,204.025 -0.005,-0.004 c 4.497,-2.18 8.208,-7.319 8.208,-14.065 V 13.385 c 0,-5.68 3.554,-10.521 8.553,-12.451 -3.081,-1.19 -2.809,-0.905 -26.505,-0.905 -7.375,0 -13.355,5.98 -13.355,13.356 V 200.24 c -25.933,9.891 -44.576,35.341 -43.711,65.563 -0.077,1.223 -0.05,229.042 -0.05,230.881 0,8.459 6.857,15.318 15.317,15.318 h 31.309 c -8.461,0 -15.318,-6.859 -15.318,-15.318 0,-1.523 0,-227.953 0,-232.93 0,-25.798 14.382,-48.216 35.557,-59.729 z"
           id="path4626" />
        <path
           inkscape:connector-curvature="0"
           style="fill:#ffffff;stroke:#ffffff;stroke-linecap:round;stroke-linejoin:bevel"
           d="M 108.967,287.125 V 460.75 H 244.9 V 287.125 c -1.803,0 -131.352,0 -135.933,0 z"
           id="path4628" />
        <ellipse
           d="m 205.876,373.93701 c 0,24.77108 -12.95554,44.852 -28.937,44.852 -15.98147,0 -28.937,-20.08092 -28.937,-44.852 0,-24.77107 12.95553,-44.852 28.937,-44.852 15.98146,0 28.937,20.08093 28.937,44.852 z"
           sodipodi:ry="44.852001"
           sodipodi:rx="28.937"
           sodipodi:cy="373.93701"
           sodipodi:cx="176.939"
           style="fill:#ffffff;stroke:#ffffff;stroke-linecap:round;stroke-linejoin:bevel"
           cx="176.939"
           cy="373.93701"
           rx="28.937"
           ry="44.852001"
           id="ellipse4630" />
        <rect
           x="108.971"
           y="287.129"
           style="fill:#ffffff;stroke:#ffffff;stroke-linecap:round;stroke-linejoin:bevel"
           width="31.306999"
           height="173.627"
           id="rect4632" />
        <path
           inkscape:connector-curvature="0"
           style="fill:#ffffff;stroke:#ffffff;stroke-linecap:round;stroke-linejoin:bevel"
           d="m 192.588,336.224 c -19.287,-19.275 -44.591,2.418 -44.591,37.714 0,35.367 25.357,56.94 44.591,37.713 -17.694,-17.683 -17.699,-57.739 0,-75.427 z"
           id="path4634" />
        <path
           inkscape:connector-curvature="0"
           style="fill:#ffffff;stroke:#ffffff;stroke-linecap:round;stroke-linejoin:bevel"
           d="M 201.14,84.563 V 13.385 c 0,-7.376 -5.98,-13.356 -13.355,-13.356 h -21.701 c -7.375,0 -13.355,5.98 -13.355,13.356 v 71.179 l 48.411,-10e-4 0,0 z"
           id="path4636" />
        <path
           inkscape:connector-curvature="0"
           style="fill:#ffffff;stroke:#ffffff;stroke-linecap:round;stroke-linejoin:bevel"
           d="m 184.035,13.385 c 0,-5.68 3.554,-10.521 8.553,-12.451 -3.063,-1.176 -2.846,-0.905 -26.505,-0.905 -7.375,0 -13.355,5.98 -13.355,13.356 v 71.179 h 31.307 V 13.385 z"
           id="path4638" />
        <rect
           x="152.726"
           y="84.695999"
           style="fill:#ffffff;stroke:#ffffff;stroke-linecap:round;stroke-linejoin:bevel"
           width="48.407001"
           height="29.679001"
           id="rect4640" />
        <rect
           x="152.726"
           y="84.695999"
           style="fill:#ffffff;stroke:#ffffff;stroke-linecap:round;stroke-linejoin:bevel"
           width="31.306999"
           height="29.679001"
           id="rect4642" />
        <path
           inkscape:connector-curvature="0"
           style="fill:#ffffff;stroke:#ffffff;stroke-linecap:round;stroke-linejoin:bevel"
           d="M 389.684,322.556 H 287.438 c -7.376,0 -13.356,5.98 -13.356,13.355 0,42.188 -0.539,44.6 1.828,53.79 6.442,25.033 29.163,43.53 56.205,43.53 h 12.895 c 32.05,0 58.029,-25.981 58.029,-58.032 0,-13.856 0,-25.385 0,-39.288 0,-7.375 -5.979,-13.355 -13.355,-13.355 z"
           id="path4644" />
        <g
           style="fill:#ffffff;stroke:#ffffff;stroke-linecap:round;stroke-linejoin:bevel"
           id="g4646">
          <path
             inkscape:connector-curvature="0"
             style="fill:#ffffff;stroke:#ffffff;stroke-linecap:round;stroke-linejoin:bevel"
             d="m 305.885,375.199 c 0,-13.856 0,-25.385 0,-39.288 0,-7.375 5.979,-13.355 13.355,-13.355 h -31.802 c -7.376,0 -13.356,5.98 -13.356,13.355 0,13.866 0,25.453 0,39.288 0,32.043 25.979,58.032 58.033,58.032 13.999,0 16.54,0.176 22.349,-0.774 -27.589,-4.521 -48.579,-28.463 -48.579,-57.258 z"
             id="path4648" />
          <path
             inkscape:connector-curvature="0"
             style="fill:#ffffff;stroke:#ffffff;stroke-linecap:round;stroke-linejoin:bevel"
             d="m 359.79,495.305 h -12.881 v -62.074 c 0,-4.61 -3.737,-8.348 -8.348,-8.348 -4.611,0 -8.348,3.737 -8.348,8.348 v 62.074 h -12.88 c -4.61,0 -8.348,3.736 -8.348,8.348 0,4.612 3.737,8.348 8.348,8.348 h 42.457 c 4.611,0 8.348,-3.736 8.348,-8.348 0,-4.612 -3.737,-8.348 -8.348,-8.348 z"
             id="path4650" />
        </g>
        <path
           inkscape:connector-curvature="0"
           style="fill:#ffffff;stroke:#ffffff;stroke-linecap:round;stroke-linejoin:bevel"
           d="m 351.38,365.59 h -77.299 c 0,9.918 -0.368,15.584 1.828,24.11 6.442,25.033 29.163,43.53 56.205,43.53 h 12.895 c 32.05,0 58.029,-25.981 58.029,-58.032 v -9.608 h -23.462"
           id="path4652" />
        <path
           inkscape:connector-curvature="0"
           style="fill:#ffffff;stroke:#ffffff;stroke-linecap:round;stroke-linejoin:bevel"
           d="m 354.464,432.456 c -27.589,-4.52 -48.58,-28.463 -48.58,-57.258 v -9.608 h -31.803 v 9.608 c 0,32.043 25.979,58.032 58.033,58.032 12.131,10e-4 16.044,0.26 22.35,-0.774 z"
           id="path4654" />
        <g
           style="fill:#ffffff;stroke:#ffffff;stroke-linecap:round;stroke-linejoin:bevel"
           id="g4656" />
        <g
           style="fill:#ffffff;stroke:#ffffff;stroke-linecap:round;stroke-linejoin:bevel"
           id="g4658" />
        <g
           style="fill:#ffffff;stroke:#ffffff;stroke-linecap:round;stroke-linejoin:bevel"
           id="g4660" />
        <g
           style="fill:#ffffff;stroke:#ffffff;stroke-linecap:round;stroke-linejoin:bevel"
           id="g4662" />
        <g
           style="fill:#ffffff;stroke:#ffffff;stroke-linecap:round;stroke-linejoin:bevel"
           id="g4664" />
        <g
           style="fill:#ffffff;stroke:#ffffff;stroke-linecap:round;stroke-linejoin:bevel"
           id="g4666" />
        <g
           style="fill:#ffffff;stroke:#ffffff;stroke-linecap:round;stroke-linejoin:bevel"
           id="g4668" />
        <g
           style="fill:#ffffff;stroke:#ffffff;stroke-linecap:round;stroke-linejoin:bevel"
           id="g4670" />
        <g
           style="fill:#ffffff;stroke:#ffffff;stroke-linecap:round;stroke-linejoin:bevel"
           id="g4672" />
        <g
           style="fill:#ffffff;stroke:#ffffff;stroke-linecap:round;stroke-linejoin:bevel"
           id="g4674" />
        <g
           style="fill:#ffffff;stroke:#ffffff;stroke-linecap:round;stroke-linejoin:bevel"
           id="g4676" />
        <g
           style="fill:#ffffff;stroke:#ffffff;stroke-linecap:round;stroke-linejoin:bevel"
           id="g4678" />
        <g
           style="fill:#ffffff;stroke:#ffffff;stroke-linecap:round;stroke-linejoin:bevel"
           id="g4680" />
        <g
           style="fill:#ffffff;stroke:#ffffff;stroke-linecap:round;stroke-linejoin:bevel"
           id="g4682" />
        <g
           style="fill:#ffffff;stroke:#ffffff;stroke-linecap:round;stroke-linejoin:bevel"
           id="g4684" />
      </g>
      <g
         transform="matrix(1.0436208,0,0,1.0436208,-19.320228,8.435625)"
         id="text4802"
         style="font-size:60px;font-style:normal;font-variant:normal;font-weight:bold;font-stretch:normal;text-align:start;line-height:125%;letter-spacing:0px;word-spacing:0px;writing-mode:lr-tb;text-anchor:start;fill:#800000;fill-opacity:1;stroke:none;font-family:Oriya MN;-inkscape-font-specification:Oriya MN Bold">
        <path
           id="path4809"
           style="fill:#800000"
           d="m 304.51492,146.6467 10.60547,26.95312 10.63477,-27.42187 10.72265,27.27539 10.3125,-26.80664 6.82618,0 -16.40625,42.36328 -4.62891,0 -8.55469,-21.79688 -8.4082,21.79688 -4.6582,0 -16.72852,-42.36328 10.2832,0"
           inkscape:connector-curvature="0" />
        <path
           id="path4811"
           style="fill:#800000"
           d="m 358.01102,158.62912 9.52148,-2.63672 0,32.37305 -9.52148,0 0,-29.73633 m -0.41016,-11.74805 c 0,-0.64449 0.12695,-1.24995 0.38086,-1.8164 0.27343,-0.56637 0.64453,-1.05465 1.11328,-1.46485 0.46875,-0.42964 1.01562,-0.76167 1.64063,-0.99609 0.62499,-0.25386 1.28905,-0.38081 1.99218,-0.38086 0.70312,5e-5 1.36718,0.127 1.99219,0.38086 0.62499,0.23442 1.17186,0.56645 1.64063,0.99609 0.46873,0.4102 0.83983,0.89848 1.11328,1.46485 0.27342,0.56645 0.41014,1.17191 0.41015,1.8164 -10e-6,0.64458 -0.13673,1.25004 -0.41015,1.81641 -0.27345,0.56644 -0.64455,1.05473 -1.11328,1.46484 -0.46877,0.4102 -1.01564,0.74223 -1.64063,0.9961 -0.62501,0.23441 -1.28907,0.3516 -1.99219,0.35156 -0.70313,4e-5 -1.36719,-0.11715 -1.99218,-0.35156 -0.62501,-0.25387 -1.17188,-0.5859 -1.64063,-0.9961 -0.46875,-0.41011 -0.83985,-0.8984 -1.11328,-1.46484 -0.25391,-0.56637 -0.38086,-1.17183 -0.38086,-1.81641"
           inkscape:connector-curvature="0" />
        <path
           id="path4813"
           style="fill:#800000"
           d="m 394.86649,166.83224 c -3e-5,-0.80075 -0.0879,-1.51364 -0.26368,-2.13867 -0.1758,-0.62497 -0.41017,-1.14255 -0.70312,-1.55273 -0.29299,-0.42966 -0.63479,-0.75193 -1.02539,-0.9668 -0.37112,-0.21482 -0.76174,-0.32224 -1.17188,-0.32226 -0.41017,2e-5 -0.88869,0.0879 -1.43554,0.26367 -0.52737,0.15627 -1.08401,0.39065 -1.66993,0.70312 -0.58595,0.293 -1.18165,0.65432 -1.78711,1.08399 -0.60548,0.42971 -1.19142,0.90822 -1.75781,1.43554 l 0,23.02735 -9.58008,0 0,-31.43555 9.58008,0 0,2.46094 c 1.46483,-1.07419 3.0371,-1.85544 4.7168,-2.34375 1.67967,-0.50778 3.35935,-0.76169 5.03906,-0.76172 1.28904,3e-5 2.50974,0.25394 3.66211,0.76172 1.17185,0.48831 2.18747,1.1719 3.04688,2.05078 0.87887,0.8594 1.57223,1.87503 2.08007,3.04687 0.52732,1.15237 0.79099,2.39261 0.79102,3.72071 l 0,22.5 -9.52148,0 0,-21.53321"
           inkscape:connector-curvature="0" />
        <path
           id="path4815"
           style="fill:#800000"
           d="m 426.38992,189.06857 c -2.24611,0 -4.35548,-0.41015 -6.32812,-1.23047 -1.95314,-0.83984 -3.66212,-1.96288 -5.12696,-3.36914 -1.46484,-1.40624 -2.61719,-3.0371 -3.45703,-4.89257 -0.83984,-1.87499 -1.25976,-3.84765 -1.25976,-5.91797 0,-2.48045 0.39062,-4.77537 1.17187,-6.88477 0.78125,-2.12888 1.88476,-3.96482 3.31055,-5.50781 1.42577,-1.56247 3.14452,-2.78317 5.15625,-3.66211 2.0117,-0.87888 4.24803,-1.31833 6.70898,-1.31836 2.18748,3e-5 4.18943,0.35159 6.00586,1.05469 1.83591,0.68362 3.39841,1.64065 4.6875,2.87109 1.30857,1.21097 2.32419,2.63675 3.04688,4.27734 0.72262,1.62112 1.08395,3.36917 1.08398,5.24415 l -21.79687,0 c 0.0586,1.73829 0.30272,3.39845 0.73242,4.98046 0.44921,1.58205 1.04491,2.97853 1.78711,4.18946 0.74217,1.21094 1.61131,2.17774 2.60742,2.90039 0.99608,0.70313 2.09959,1.05469 3.31055,1.05469 1.05466,0 2.08982,-0.17578 3.10547,-0.52735 1.0156,-0.37109 1.9531,-0.86913 2.8125,-1.49414 0.85935,-0.64452 1.60153,-1.38671 2.22656,-2.22656 0.62497,-0.83983 1.08395,-1.72851 1.37695,-2.66602 l 4.89258,0.73242 c -0.48831,1.69923 -1.27933,3.30079 -2.37305,4.80469 -1.07425,1.50391 -2.33401,2.82227 -3.77929,3.95508 -1.44534,1.11328 -3.02737,2.00195 -4.7461,2.66602 -1.69924,0.64453 -3.41799,0.96679 -5.15625,0.96679 m 4.04297,-22.58789 c -0.0781,-0.93747 -0.28322,-1.78708 -0.61523,-2.54883 -0.31252,-0.76169 -0.72268,-1.41599 -1.23047,-1.96289 -0.4883,-0.54684 -1.06447,-0.96677 -1.72852,-1.25976 -0.64455,-0.31247 -1.34767,-0.46872 -2.10937,-0.46875 -0.58596,3e-5 -1.16213,0.14651 -1.72852,0.43945 -0.56642,0.293 -1.084,0.71292 -1.55273,1.25977 -0.46876,0.5469 -0.86916,1.21096 -1.20117,1.99218 -0.31252,0.76175 -0.51759,1.61136 -0.61524,2.54883 l 10.78125,0"
           inkscape:connector-curvature="0" />
        <path
           id="path4817"
           style="fill:#800000"
           d="m 452.31766,179.57639 c 0.5664,1.69922 1.36718,3.03711 2.40234,4.01367 1.03515,0.95703 2.33397,1.43555 3.89649,1.43554 0.66404,1e-5 1.26951,-0.0879 1.8164,-0.26367 0.54686,-0.17578 1.01561,-0.41015 1.40625,-0.70312 0.39061,-0.29297 0.69334,-0.63476 0.9082,-1.02539 0.21483,-0.39062 0.32225,-0.81054 0.32227,-1.25977 -2e-5,-0.74218 -0.1465,-1.40624 -0.43945,-1.99219 -0.27346,-0.58592 -0.65432,-1.11327 -1.14258,-1.58203 -0.4883,-0.46874 -1.07424,-0.89842 -1.75781,-1.28906 -0.68361,-0.41014 -1.41603,-0.791 -2.19727,-1.14258 -1.23048,-0.54686 -2.46095,-1.14256 -3.69141,-1.78711 -1.23047,-0.64451 -2.34375,-1.37693 -3.33984,-2.19726 -0.97657,-0.83983 -1.76758,-1.78709 -2.37305,-2.8418 -0.60547,-1.0742 -0.9082,-2.31443 -0.9082,-3.7207 0,-1.3281 0.27344,-2.53904 0.82031,-3.63282 0.56641,-1.09372 1.34766,-2.03122 2.34375,-2.8125 0.99609,-0.78122 2.1875,-1.38668 3.57422,-1.8164 1.40624,-0.42966 2.94921,-0.6445 4.62891,-0.64453 1.54295,3e-5 2.91014,0.14651 4.10156,0.43945 1.19139,0.27347 2.23631,0.68362 3.13477,1.23047 0.91794,0.52737 1.71872,1.1719 2.40234,1.93359 0.68357,0.76175 1.30857,1.62112 1.875,2.57813 l -5.50781,1.93359 c -0.29299,-1.0156 -0.65432,-1.79685 -1.08399,-2.34375 -0.41017,-0.56638 -0.83986,-0.9863 -1.28906,-1.25976 -0.4297,-0.27341 -0.86916,-0.43943 -1.31836,-0.49805 -0.4297,-0.0586 -0.81056,-0.0879 -1.14258,-0.0879 -0.58595,3e-5 -1.14259,0.0684 -1.66992,0.20508 -0.52735,0.11721 -0.9961,0.30276 -1.40625,0.55664 -0.41017,0.2344 -0.7422,0.53713 -0.99609,0.9082 -0.23439,0.37112 -0.35158,0.79104 -0.35156,1.25977 -2e-5,0.60549 0.15623,1.17189 0.46875,1.69921 0.31248,0.52737 0.74217,1.02542 1.28906,1.49414 0.54686,0.44925 1.19139,0.87893 1.93359,1.28907 0.76171,0.41017 1.58202,0.8008 2.46094,1.17187 1.34764,0.5469 2.64646,1.16213 3.89648,1.84571 1.26951,0.66408 2.39256,1.42579 3.36914,2.28515 0.97654,0.83986 1.75779,1.77736 2.34375,2.8125 0.60545,1.03517 0.90818,2.19728 0.90821,3.48633 -3e-5,1.3672 -0.22464,2.64649 -0.67383,3.83789 -0.44925,1.19141 -1.18167,2.23633 -2.19727,3.13477 -1.01564,0.8789 -2.334,1.57226 -3.95507,2.08007 -1.60159,0.50782 -3.55471,0.76172 -5.85938,0.76172 -1.95314,0 -3.61329,-0.22461 -4.98047,-0.67383 -1.36719,-0.44921 -2.5293,-1.02538 -3.48633,-1.72851 -0.9375,-0.72265 -1.71875,-1.52344 -2.34375,-2.40234 -0.60547,-0.87891 -1.14258,-1.74805 -1.61132,-2.60743 l 5.41992,-2.08007"
           inkscape:connector-curvature="0" />
        <path
           id="path4819"
           style="fill:#800000"
           d="m 499.04617,145.73849 19.54102,42.62696 -10.45899,0 -5.21484,-11.39649 -16.20117,0 -5.47852,11.39649 -6.97265,0 20.36132,-42.62696 4.42383,0 m -10.42968,27.33399 12.56835,0 -6.18164,-13.47656 -6.38671,13.47656"
           inkscape:connector-curvature="0" />
        <path
           id="path4821"
           style="fill:#800000"
           d="m 522.30789,156.9299 9.58008,0 0,2.46094 c 1.09374,-0.89841 2.34373,-1.6406 3.75,-2.22656 1.42576,-0.58591 3.08592,-0.87888 4.98047,-0.87891 2.01169,3e-5 3.83786,0.40042 5.47851,1.20117 1.6406,0.78128 3.04685,1.84573 4.21875,3.19336 1.17185,1.34768 2.07028,2.91995 2.69532,4.7168 0.64449,1.77736 0.96676,3.67189 0.96679,5.68359 -3e-5,2.57814 -0.38089,4.96095 -1.14257,7.14844 -0.74223,2.16798 -1.81644,4.05274 -3.22266,5.6543 -1.40628,1.58203 -3.1055,2.82226 -5.09766,3.7207 -1.99221,0.89844 -4.22853,1.34765 -6.70898,1.34766 -1.25002,-1e-5 -2.334,-0.0488 -3.25195,-0.14649 -0.91799,-0.0977 -1.80666,-0.32226 -2.66602,-0.67383 l 0,12.59766 -9.58008,0 0,-43.79883 m 9.58008,22.67578 c -10e-6,0.76173 0.13671,1.48438 0.41016,2.16797 0.29295,0.66407 0.69334,1.25001 1.20117,1.75781 0.52733,0.48829 1.15233,0.87891 1.875,1.17188 0.74217,0.27344 1.55271,0.41016 2.43164,0.41015 0.82029,10e-6 1.59177,-0.27343 2.31445,-0.82031 0.72264,-0.54687 1.34764,-1.29882 1.875,-2.25586 0.54685,-0.97655 0.97654,-2.13866 1.28906,-3.48633 0.33201,-1.34764 0.49803,-2.81248 0.49805,-4.39453 -2e-5,-2.03123 -0.14651,-3.80857 -0.43945,-5.33203 -0.27346,-1.54295 -0.66409,-2.83201 -1.17188,-3.86719 -0.50783,-1.03513 -1.1133,-1.80661 -1.8164,-2.31445 -0.70315,-0.52732 -1.47463,-0.79099 -2.31446,-0.79101 -0.60548,2e-5 -1.19142,0.10744 -1.75781,0.32226 -0.56642,0.19534 -1.1133,0.46878 -1.64062,0.82031 -0.50783,0.35159 -0.99611,0.77151 -1.46485,1.25977 -0.46876,0.46877 -0.89845,0.96682 -1.28906,1.49414 l 0,13.85742"
           inkscape:connector-curvature="0" />
        <path
           id="path4823"
           style="fill:#800000"
           d="m 559.92508,156.9299 9.58008,0 0,2.46094 c 1.09373,-0.89841 2.34373,-1.6406 3.75,-2.22656 1.42576,-0.58591 3.08591,-0.87888 4.98047,-0.87891 2.01169,3e-5 3.83786,0.40042 5.47851,1.20117 1.6406,0.78128 3.04685,1.84573 4.21875,3.19336 1.17184,1.34768 2.07028,2.91995 2.69531,4.7168 0.6445,1.77736 0.96677,3.67189 0.9668,5.68359 -3e-5,2.57814 -0.38089,4.96095 -1.14258,7.14844 -0.74222,2.16798 -1.81644,4.05274 -3.22265,5.6543 -1.40628,1.58203 -3.1055,2.82226 -5.09766,3.7207 -1.99221,0.89844 -4.22854,1.34765 -6.70898,1.34766 -1.25002,-1e-5 -2.334,-0.0488 -3.25196,-0.14649 -0.91798,-0.0977 -1.80665,-0.32226 -2.66601,-0.67383 l 0,12.59766 -9.58008,0 0,-43.79883 m 9.58008,22.67578 c -2e-5,0.76173 0.1367,1.48438 0.41015,2.16797 0.29296,0.66407 0.69335,1.25001 1.20118,1.75781 0.52732,0.48829 1.15232,0.87891 1.875,1.17188 0.74217,0.27344 1.55271,0.41016 2.43164,0.41015 0.82029,10e-6 1.59177,-0.27343 2.31445,-0.82031 0.72263,-0.54687 1.34763,-1.29882 1.875,-2.25586 0.54685,-0.97655 0.97654,-2.13866 1.28906,-3.48633 0.33201,-1.34764 0.49802,-2.81248 0.49805,-4.39453 -3e-5,-2.03123 -0.14651,-3.80857 -0.43945,-5.33203 -0.27347,-1.54295 -0.66409,-2.83201 -1.17188,-3.86719 -0.50783,-1.03513 -1.1133,-1.80661 -1.81641,-2.31445 -0.70314,-0.52732 -1.47463,-0.79099 -2.31445,-0.79101 -0.60549,2e-5 -1.19142,0.10744 -1.75781,0.32226 -0.56642,0.19534 -1.1133,0.46878 -1.64063,0.82031 -0.50782,0.35159 -0.99611,0.77151 -1.46484,1.25977 -0.46876,0.46877 -0.89845,0.96682 -1.28906,1.49414 l 0,13.85742"
           inkscape:connector-curvature="0" />
      </g>
      <path
         transform="matrix(1.1340114,0,0,1.1340114,51.949321,49.29914)"
         d="m 495.09569,372.91269 a 151.45601,151.45601 0 1 1 -302.91202,0 151.45601,151.45601 0 1 1 302.91202,0 z"
         sodipodi:ry="151.45601"
         sodipodi:rx="151.45601"
         sodipodi:cy="372.91269"
         sodipodi:cx="343.63968"
         id="path3973"
         style="color:#000000;fill:none;stroke:#ffffff;stroke-width:8.8182535;stroke-linecap:round;stroke-linejoin:round;stroke-miterlimit:4;stroke-opacity:1;stroke-dasharray:none;stroke-dashoffset:0;marker:none;visibility:visible;display:inline;overflow:visible;enable-background:accumulate"
         sodipodi:type="arc" />
    </g>
  </g>
</svg>
