<?xml version="1.0" encoding="UTF-8" standalone="no"?>
<svg xmlns:rdf="http://www.w3.org/1999/02/22-rdf-syntax-ns#" xmlns="http://www.w3.org/2000/svg" height="912pt" width="288pt" version="1.1" xmlns:cc="http://creativecommons.org/ns#" xmlns:dc="http://purl.org/dc/elements/1.1/" viewBox="0 0 288 912">
<g transform="matrix(3,0,0,3,-486,-6)">
<g>
<path d="m204 2v2h-2v2h-16v2h-6v2h-2v2h-2v2h-2v2h-2v6h-2v4h-2v2h-2v4h-2v2h-2v42h2v2h2v2h2v2h2v12h2v4 8 6 18h2v2h2 4v6h4 4v4h4 4v-6-4-4-8h2c-0.01-2.69-0.0397-5.3903-0.0797-8.0703-0.48-0.01-1.4206-0.0203-1.8906-0.0203 0.02-0.46 0.0503-1.3797 0.0703-1.8297-0.06-2.7-0.0894-5.3897-0.10938-8.0797 0-2.67 0.009-5.34 0.009-8v-6h-2v-4h-2v-4-4-8h-4v-10-8-4h2v-2h2v-2h6v-4-2-4c1.32 0.01 2.6394 0.01031 3.9594 0.02031 1.35-0.01 2.69-0.01 4.04-0.02v-4-4h20 6v2h2v2h2v4h8 4v-20h-6v-2h-2v-2h-4v-2h-2v-2h-2v-2h-14-12-2zm32 56v6h-2v2h-2v2h-6v8 2 12h6v12h4v4h4v4 2 4 4h4v4 4 4h4 4v4h2 2v-4h2v-4h-2v-4h-2v-8-6-8-12-14h-2v-2h-2v-2h-2v-4c0-3.33-0.01-6.67 0-10h-12z" fill="#663931"/>
<path d="m192 76v4 4h2v4h2v6c0 2.66-0.009 5.33-0.009 8 0.02 2.69 0.0494 5.3797 0.10938 8.0797 0.45 0.01 1.3406 0.0197 1.7906 0.0297 0.01 0.45 0.0197 1.3603 0.0297 1.8203 1.36 0.03 2.7197 0.0597 4.0797 0.0797v-2.01h4v2h6 2v-2h8 4v2h6v-2h8v-4h-4v-4h-4v-12h-6v-12h-4v2h-2v4h-2v4h-2v2h-2v2h-2v-2h-4v-2h-2v-2h-2v-2h-2v-2h-2v-4h-2v-2h-6zm34 40v4h2v-4h-2zm-16 4v8h2 2v-4-4h-2-2zm0 8h-4v4h-4v4h-4v-4h-2v4 6h-4-4v-4h-4-4v-6h-4-2v-2h-2v24h20v2h2v2h2v2h2v4h-2v4h-4v4h-4-2v-2h-2v-2h-4v-2h-2v-2h-2v16h12v4h28 2v4c2.66-0.01 5.33-0.01 8 0 3.33-0.01 6.67 0 10 0h8v-4h4v-4-8h-4v-8h-4v-2h2v-2h2v-2h2v-2h2v-2h2v-2h2v-2h2v-14h-2v-4h-4-4v-4h-4v4h-4v4h-4v-4h-4-2v4h-4-8v-2-2h-4v-4z" fill="#9d9b9c"/>
<path d="m201.87 33.87c0.02 0.54 0.07 1.5991 0.1 2.1391 0.01 0.5 0.0291 1.4906 0.0391 1.9906 0 2.67 0.00062 5.33-0.009 8h16v-6-2-4h-4c-2.67 0.02-5.33 0.01937-8 0.0094-1.38-0.03-2.7497-0.06906-4.1297-0.13906zm28.13 0.13v6 6h5 9v-4-8h-14z" fill="#d1990e"/>
<path d="m206 2v6h12v-6h-12zm12 6v8h8v-8h-8zm8 8v8h6 4v-8h-10zm-46-8v2h-2v2h-2v2 2h12v-8h-2-6zm8 8v8h10v-8h-10zm14 8v2h-2v2h-2v4c1.32 0.01 2.6394 0.01031 3.9594 0.02031 1.35-0.01 2.69-0.01 4.04-0.02v-4-4h-4zm-36 4v4h4v-4h-2-2zm4 4v10h6v-10h-6zm6 10v8h12v-4-4h-12zm0 16v10h12v-10h-12zm0 10h-6v8h6v-8zm-6 8h-4v2 2h2 2v-4zm66-18v6 4h12c0-3.33-0.01-6.67 0-10h-12zm0 10h-4-6v8c3.33 0 6.66-0.01 10 0v-8zm0 8v14h12v-14h-12zm12 14v8h4v4h2v-12h-6zm0 8h-12v4 4h4v4h8v-12zm0 12v6h6v-6h-6zm-68-30v10h12v-6-4h-12zm0 10h-8v4 4h8v-8zm8 4v4h-4v8h8v-4h3.9906c0-2.67 0.009-5.34 0.009-8h-8zm-4 12h-12v6h12v-6zm8 3.9797v2.0203h-4v8h8c0.02-2.7 0.0297-5.4006 0.0297-8.0906 0.02-0.46 0.0503-1.3797 0.0703-1.8297-1.37-0.04-2.73-0.08-4.1-0.1zm-12 10.02v4h-4v8h4 4v-4h4v-4h-4v-4h-4zm8 8v8h8v-4-4h-8zm0 8h-4v2h4v-2zm56-16v4 4h8v-8h-8zm8 8v4h2v-4h-2z" fill="#8f563b"/>
<path d="m206 24v4h8v4h4v2c1.34 0 2.5276 0.000625 3.8776-0.0094-0.05 0.53 0.0124 1.5794-0.0276 2.1094 1.44-0.02 2.8803-0.000625 4.3203 0.05937-0.05-0.55 0.002-1.6288-0.0479-2.1688 1.34 0 2.5376 0.0094 3.8776 0.0094v-2h-2v-4h6v-2h-2v-2h-6zm20.17 12.159v0.84062l0.0203 0.94062c-1.42 0.02-2.932 0.03906-4.342 0.03906l0.0311-1.15-0.03-0.73-0.72031-0.0094-1.0891-0.03125c-0.02 1.31-0.04 2.6103-0.05 3.9203 1.52 0 4.5597-0.0094 6.0797-0.0094 0.45-0.03 1.3494 0.02046 1.8094-0.0095l-0.0217-1.9405c-0.04-0.47-0.0377-1.4003-0.0877-1.8703h-0.82031l-0.77969 0.0094zm-28.17-4.159v4c0.5 0 1.4906-0.000625 1.9906 0.0094 0.02-0.52 0.0494-1.5488 0.0594-2.0688l1.1-0.041 0.72-0.03 0.03-0.72 0.06-1.13c-1.32-0.01-2.64-0.01-3.96-0.02zm46 0v2h2v2h2v-4zm-46 6v4h-6v2h-2v2h-2v4 8 10h4v8h6v2h2v4h2v2h2v2h2v2h2v2h4v2h2v-2h2v-2h2v-4h2v-4h2v-2h4v-2-8h6v-2h2v-2h2v-6h12v-20h-2v8h-2v2h-14v-2h-2v-4h-8v4h-2v2h-16v-2h-2v-8zm8 22h18v2h-2v2h-2v2h-10v-2h-2v-2h-2zm46 90v2h-2v2h-2v2h-2v2h-2v2h-2v2h-2v2h4v8h4v-2h2v-2h2v-2h2v-16zm-80 4v8h2v2h2 2v2h2v2h4v2h2v2h2 4v-4h4v-4h2v-4h-2v-2h-2v-2h-2v-2zm12 134v6h2.0406c4.64 0 9.2797-0.01 13.93 0h2.0297v-6c-6-0.01-12 0-18 0zm34 0v6h2.0406c4.64 0 9.2797-0.01 13.93 0h2.0297v-6c-6-0.01-12 0-18 0z" fill="#eec39a"/>
<path d="m206 28v4h8v-4h-8zm22 0v4h2 6v-4h-2-6z" fill="#d9a066"/>
<path d="m206 32c-1.35 0.01-2.6906 0.01031-4.0406 0.02031l-0.06 1.13-0.0297 0.72031c1.38 0.07 2.7497 0.10906 4.1297 0.13906 2.67 0.01 5.33 0.01063 8-0.0094h4v-2h-4-8zm12 2v4 2 6h2v-4h8v4h2v-6-6c-1.34 0-2.5376-0.0094-3.8776-0.0094 0.05 0.54-0.002 1.6188 0.0479 2.1688l0.7797-0.0094h0.82031c0.05 0.47 0.0477 1.4003 0.0877 1.8703l0.0217 1.9405c-0.46 0.03-1.3594-0.02046-1.8094 0.0095-1.52 0-4.5597 0.0094-6.0797 0.0094 0.01-1.31 0.03-2.6103 0.05-3.9203l1.0891 0.03125 0.72 0.01c0.04-0.53-0.0224-1.5794 0.0276-2.1094-1.35 0.01-2.54 0.009-3.88 0.009zm3.85 2.1 0.0297 0.72969-0.0311 1.15c1.41 0 2.922-0.01906 4.342-0.03906l-0.02-0.941v-0.84062c-1.44-0.06-2.88-0.079-4.32-0.059zm8.15-2.1h14v-2h-8-6zm14 0v8 4h2v-8h2v-2h-2v-2zm0 12h-9-5v2h14zm-26 0h-16v2h16zm-16 0c0.01-2.67 0.009-5.33 0.009-8-0.01-0.5-0.0291-1.4906-0.0391-1.9906-0.03-0.54-0.08-1.5991-0.1-2.1391l-0.72 0.03-1.1 0.04062c-0.01 0.52-0.0394 1.5488-0.0594 2.0688-0.5-0.011-1.49-0.01-1.99-0.01v2h2v8z" fill="#eed6d6"/>
</g>
<path d="m201.87 33.87c1.38 0.07 2.75 0.11 4.13 0.14v1.99c-1.34 0-2.69 0-4.03 0.01-0.03-0.54-0.08-1.6-0.1-2.14z" fill="#f4bd4b"/>
<path d="m206 34.01c2.67 0.01 5.33 0.01 8-0.01v4h4v2h-10v-2h-5.99c-0.01-0.5-0.03-1.49-0.04-1.99 1.34-0.01 2.69-0.01 4.03-0.01v-1.99z" fill="#daa638"/>
<path d="m214 34h4v4h-4v-4z" fill="#f6c24e"/>
<path d="m230 34h14v8h-8v-2h-2v-2h-2v2h-2v-6z" fill="#f7c242"/>
<path d="m202.01 38h5.99v2h10v6h-16c0.01-2.67 0.01-5.33 0.01-8z" fill="#d1990e"/>
<path d="m232 38h2v2h2v2h8v4h-9v-3h-3v-3-2z" fill="#ca9820"/>
<path d="m230 40h2v3h3v3h-5v-6z" fill="#ddab36"/>
<path d="m206 60h18v2h-2v2h-2v2h-10v-2h-2v-2h-2v-2z" fill="#dd6975"/>
<path d="m192 76h6v2h2v4h2v2h2v2h2v2h2v2h4v2 20h-6v-2h-4v2.01c-1.36-0.02-2.72-0.05-4.08-0.08-0.01-0.46-0.02-1.37-0.03-1.82-0.45-0.01-1.34-0.02-1.79-0.03-0.06-2.7-0.09-5.39-0.11-8.08 0-2.67 0.01-5.34 0.01-8v-6h-2v-4h-2v-4-4z" fill="#959394"/>
<path d="m222 78h4v12 8h-4v12h-8v-18-2h2v-2h2v-4h2v-4h2v-2z" fill="#959394"/>
<path d="m226 90h6v12h4v4h4v4h-8-3v-4h-3v-8-8z" fill="#a2a0a1"/>
<path d="m212 92h2v18 2h-2v-20z" fill="#838182"/>
<path d="m222 98h4v8h3v4h3v2h-6v-2h-4v-12z" fill="#b2b1b2"/>
<path d="m202 110v2.0094c1.33 0 2.67-0.009 4-0.009v-2h-4zm4 2v16h4v-8h2 2v-8h-2-6zm8 0h12v-2h-4-8v2zm12 0v4h2v4h-2v12h2 4v-20h-6zm6 0h8v-2h-8v2zm0 20v4h4v-4h-4zm4 0h4v-4h4v-4h-8v8zm-10 0h-12v2 2h8 4v-4zm-12 0v-4h-2-2v4h4zm0-4h8v-4h-8v4zm12-8v-4h-8v4h8zm-20 8h-4v4h4v-4zm-4 4h-4v4h4v-4zm-4 0v-4h-2v4h2zm0-4h4v-15.991c-1.36-0.02-2.7197-0.0497-4.0797-0.0797 0.04 2.68 0.0697 5.3803 0.0797 8.0703 0.01 2.66 0 5.33 0 8zm-0.0797-16.07c-0.01-0.46-0.0197-1.3703-0.0297-1.8203-0.45-0.01-1.3406-0.0197-1.7906-0.0297-0.02 0.45-0.0503 1.3697-0.0703 1.8297 0.47 0 1.4106 0.0103 1.8906 0.0203zm38.08 4.07v4h4v-4h-4z" fill="#dedede"/>
<path d="m206 112c-1.33 0-2.67 0.009-4 0.009v15.991h4v-16zm-4 16h-4v4h4v-4zm-4 0c0-2.67 0.01-5.34 0-8h-2v8h2zm16-16v8 4h8v4h-8v4h12v-12h-8v-4h8v-4h-12zm18 0v20h4v-8h8v-4h-4-4v-4h4v-4h-8z" fill="#1c4ce2"/>
<path d="m226 116h2v4h-2v-4z" fill="#acaaab"/>
<path d="m210 120h2v8h-2v-8z" fill="#959394"/>
<path d="m212 120h2v4 4h-2v-8z" fill="#838182"/>
<path d="m206 128h4v4h4v2h-2v14h2v6c-4.67-0.01-9.33 0-14 0h-2v6h-2v-2h-2v-2h-2v-2-12h4v-6-4h2v4h4v-4h4v-4z" fill="#959394"/>
<path d="m240 128h4v4h4v22 2h-2v2h-2v2h-2v2h-2v-4h-2c-3.34-0.01-6.67 0-10 0v-26h4v4h4v-4h4v-4z" fill="#acaaab"/>
<path d="m172 130h2v2h2 4v6h4 4v4h4v12h-20v-24z" fill="#888687"/>
<path d="m226 132h2v26h-6v-2-20h4v-4z" fill="#9d9b9c"/>
<path d="m248 132h4v4h2v14h-2v2h-2v2h-2v-22z" fill="#888687"/>
<path d="m212 134h2v2 12h-2v-14z" fill="#838182"/>
<path d="m214 136h8v20h-6v-8h-2v-12z" fill="#959394"/>
<path d="m214 148h2v8h6v2 20h-4v6h-2v-6h-4v-2h-18v-2h2v-2h2v-4h4v-12h-2v-2c4.67 0 9.33-0.01 14 0v-6z" fill="#838182"/>
<path d="m198 154h2v2h2v12h-4v4h-2v2h-2v2h-6v-4h4v-4h4v-4h2v-4-6z" fill="#747273"/>
<path d="m222 158h6v20h-2v2h-4v-2-20z" fill="#908e8e"/>
<path d="m228 158c3.33 0 6.66-0.01 10 0v2h-2v8h4v8h4v4h-16v4h-2v4c-2.67-0.01-5.34-0.01-8 0v-4-6h4v2h4v-2h2v-20z" fill="#9d9b9c"/>
<path d="m238 158h2v4 2h4v8h4v8h-4v-4h-4v-8h-4v-8h2v-2z" fill="#747273"/>
<path d="m176 164h2v2h2v2h4v2h2v2h2v4h6 18v2h4v6h-28v-4h-12v-16z" fill="#959394"/>
<path d="m176 180h12v4h28 2v4c2.66-0.01 5.33-0.01 8 0 3.33-0.01 6.67 0 10 0v42h2v14h-2v40c-6-0.01-12 0-18 0v-92h-4v-2h-2v-2h-4v2h-2v2h-4v36h2v16h-2v40c-6-0.01-12 0-18 0v-94h-2v-2h-4v-2h-2v-6z" fill="#242324"/>
<path d="m228 180h16 4v4h-4v4h-8c-3.33 0-6.67-0.01-10 0v-4h2v-4z" fill="#acaaab"/>
<g>
<path d="m184 284v4c6 0 12-0.01 18 0v-4c-6-0.01-12 0-18 0zm34 0v4c6 0 12-0.01 18 0v-4c-6-0.01-12 0-18 0zm-31.959 10c-0.01 0.53-0.0212 1.5903-0.0312 2.1203 0.47-0.03 1.4206-0.0809 1.8906-0.11093 3.4 0.03 6.8 0.0209 10.2 0.0109 0.47 0.03 1.4206 0.07 1.8906 0.1-0.01-0.53-0.0203-1.5903-0.0203-2.1203-4.65-0.01-9.2897 0-13.93 0zm34 0c-0.01 0.53-0.0212 1.5903-0.0312 2.1203 0.47-0.03 1.4206-0.0809 1.8906-0.11093 3.4 0.03 6.79 0.0209 10.2 0.0109 0.47 0.03 1.4206 0.07 1.8906 0.1-0.01-0.53-0.0203-1.5903-0.0203-2.1203-4.65-0.01-9.2897 0-13.93 0z" fill="#161516"/>
<path d="m184 294v8h22v-6h-2v4h-2v-4-2h-2.0297c0 0.53 0.0103 1.5903 0.0203 2.1203-0.03 0.44-0.10124 1.3297-0.13124 1.7797-0.44 0.01-1.3297 0.0203-1.7797 0.0203-0.02 0.52-0.07 1.5691-0.1 2.0891h-9.9594c-0.03-0.52-0.0809-1.5591-0.11093-2.0891-0.44 0-1.3288-0.0103-1.7688-0.0203-0.03-0.45-0.0912-1.3397-0.13124-1.7797 0.01-0.53 0.0212-1.5903 0.0312-2.1203h-2.04zm3.9094 3.9203c3.39 0.13 6.7803 0.04 10.17 0 0.01-0.47 0.0203-1.42 0.0203-1.9-3.4 0.01-6.8 0.0191-10.2-0.0109 0 0.48 0.009 1.4409 0.009 1.9109zm30.09-3.92v8h22v-6h-2v4h-2v-4-2h-2.0297c0 0.53 0.0103 1.5903 0.0203 2.1203-0.03 0.44-0.10124 1.3297-0.13124 1.7797-0.44 0.01-1.3297 0.0203-1.7797 0.0203-0.02 0.52-0.07 1.5691-0.1 2.0891h-9.9594c-0.03-0.52-0.0809-1.5591-0.11093-2.0891-0.44 0-1.3288-0.0103-1.7688-0.0203-0.03-0.45-0.0912-1.3397-0.13124-1.7797 0.01-0.53 0.0212-1.5903 0.0312-2.1203h-2.04zm3.9094 3.9203c3.39 0.13 6.7803 0.04 10.17 0 0.01-0.47 0.0203-1.42 0.0203-1.9-3.41 0.01-6.8 0.0191-10.2-0.0109 0 0.48 0.009 1.4409 0.009 1.9109z" fill="#cb010e"/>
<path d="m202 296v4h2v-4h-2zm4 0v6h-22v4c8 0 16-0.01 24 0v-2h2v-6h-2v-2h-2zm30 0v4h2v-4h-2zm4 0v6h-22v4c8 0 16-0.01 24 0v-2h2v-6h-2v-2h-2zm-52.1 0.009c-0.47 0.03-1.4206 0.0809-1.8906 0.11093 0.04 0.44 0.10124 1.3297 0.13124 1.7797 0.44 0.01 1.3288 0.0203 1.7688 0.0203 0-0.47-0.009-1.4309-0.009-1.9109zm0.009 1.9109c0.03 0.53 0.0809 1.5691 0.11093 2.0891h9.9594c0.03-0.52 0.08-1.5691 0.1-2.0891-3.39 0.04-6.7803 0.13-10.17 0zm10.17 0c0.45 0 1.3397-0.0103 1.7797-0.0203 0.03-0.45 0.10124-1.3397 0.13124-1.7797-0.47-0.03-1.4206-0.07-1.8906-0.1 0 0.48-0.0103 1.43-0.0203 1.9zm23.82-1.91c-0.47 0.03-1.4206 0.0809-1.8906 0.11093 0.04 0.44 0.10124 1.3297 0.13124 1.7797 0.44 0.01 1.3288 0.0203 1.7688 0.0203 0-0.47-0.009-1.4309-0.009-1.9109zm0.009 1.9109c0.03 0.53 0.0809 1.5691 0.11093 2.0891h9.9594c0.03-0.52 0.08-1.5691 0.1-2.0891-3.39 0.04-6.7803 0.13-10.17 0zm10.17 0c0.45 0 1.3397-0.0103 1.7797-0.0203 0.03-0.45 0.10124-1.3397 0.13124-1.7797-0.47-0.03-1.4206-0.07-1.8906-0.1 0 0.48-0.0103 1.43-0.0203 1.9z" fill="#ffebec"/>
</g>
</g>
</svg>
