<?xml version="1.0" encoding="UTF-8" standalone="no"?>
<!-- Created with Inkscape (http://www.inkscape.org/) -->

<svg
   xmlns:dc="http://purl.org/dc/elements/1.1/"
   xmlns:cc="http://creativecommons.org/ns#"
   xmlns:rdf="http://www.w3.org/1999/02/22-rdf-syntax-ns#"
   xmlns:svg="http://www.w3.org/2000/svg"
   xmlns="http://www.w3.org/2000/svg"
   xmlns:sodipodi="http://sodipodi.sourceforge.net/DTD/sodipodi-0.dtd"
   xmlns:inkscape="http://www.inkscape.org/namespaces/inkscape"
   width="78.044228mm"
   height="78.04425mm"
   viewBox="0 0 276.53466 276.53474"
   id="svg3898"
   version="1.1"
   inkscape:version="0.91 r13725"
   sodipodi:docname="corner-curves00.svg">
  <title
     id="title4060">Corner Curves 00</title>
  <defs
     id="defs3900" />
  <sodipodi:namedview
     id="base"
     pagecolor="#ffffff"
     bordercolor="#666666"
     borderopacity="1.0"
     inkscape:pageopacity="0.0"
     inkscape:pageshadow="2"
     inkscape:zoom="1"
     inkscape:cx="362.67284"
     inkscape:cy="19.739791"
     inkscape:document-units="px"
     inkscape:current-layer="layer1"
     showgrid="true"
     inkscape:window-width="1366"
     inkscape:window-height="712"
     inkscape:window-x="0"
     inkscape:window-y="0"
     inkscape:window-maximized="1"
     fit-margin-top="0"
     fit-margin-left="0"
     fit-margin-right="0"
     fit-margin-bottom="0">
    <inkscape:grid
       type="xygrid"
       id="grid3908"
       originx="738.76731"
       originy="-905.64873" />
  </sodipodi:namedview>
  <metadata
     id="metadata3903">
    <rdf:RDF>
      <cc:Work
         rdf:about="">
        <dc:format>image/svg+xml</dc:format>
        <dc:type
           rdf:resource="http://purl.org/dc/dcmitype/StillImage" />
        <dc:title>Corner Curves 00</dc:title>
        <dc:creator>
          <cc:Agent>
            <dc:title>Algot Runeman</dc:title>
          </cc:Agent>
        </dc:creator>
        <dc:rights>
          <cc:Agent>
            <dc:title>Algot Runeman</dc:title>
          </cc:Agent>
        </dc:rights>
        <dc:publisher>
          <cc:Agent>
            <dc:title>runeman.org</dc:title>
          </cc:Agent>
        </dc:publisher>
        <dc:date>2016-01-29</dc:date>
        <dc:identifier>corner-curves00.svg</dc:identifier>
        <cc:license
           rdf:resource="http://creativecommons.org/publicdomain/zero/1.0/" />
      </cc:Work>
      <cc:License
         rdf:about="http://creativecommons.org/publicdomain/zero/1.0/">
        <cc:permits
           rdf:resource="http://creativecommons.org/ns#Reproduction" />
        <cc:permits
           rdf:resource="http://creativecommons.org/ns#Distribution" />
        <cc:permits
           rdf:resource="http://creativecommons.org/ns#DerivativeWorks" />
      </cc:License>
    </rdf:RDF>
  </metadata>
  <g
     inkscape:label="Layer 1"
     inkscape:groupmode="layer"
     id="layer1"
     transform="translate(738.76733,129.82135)">
    <g
       id="g4000"
       inkscape:export-xdpi="195.2739"
       inkscape:export-ydpi="195.2739">
      <g
         id="g3930">
        <g
           id="g3920">
          <path
             style="fill:#ff0000;fill-rule:evenodd;stroke:#ff0000;stroke-width:1px;stroke-linecap:butt;stroke-linejoin:miter;stroke-opacity:1"
             d="m -600,7.945986 80,0 c 0,0 -43.37886,-7.378859 -58,-22 -14.62114,-14.621141 -22,-58 -22,-58 z"
             id="path3914"
             inkscape:connector-curvature="0"
             sodipodi:nodetypes="ccscc" />
          <path
             sodipodi:nodetypes="ccscc"
             inkscape:connector-curvature="0"
             id="path3916"
             d="m -601,7.945986 -80,0 c 0,0 43.37886,-7.378859 58,-22 14.62114,-14.621141 22,-58 22,-58 z"
             style="fill:#ff0000;fill-rule:evenodd;stroke:#ff0000;stroke-width:1px;stroke-linecap:butt;stroke-linejoin:miter;stroke-opacity:1" />
        </g>
        <g
           id="g3926"
           transform="translate(0,-3.416109)">
          <path
             sodipodi:nodetypes="ccscc"
             inkscape:connector-curvature="0"
             id="path3912"
             d="m -600,12.362183 80,0 c 0,0 -43.37886,7.378859 -58,22 -14.62114,14.621141 -22,58 -22,58 z"
             style="fill:#ff0000;fill-rule:evenodd;stroke:#ff0000;stroke-width:1px;stroke-linecap:butt;stroke-linejoin:miter;stroke-opacity:1" />
          <path
             style="fill:#ff0000;fill-rule:evenodd;stroke:#ff0000;stroke-width:1px;stroke-linecap:butt;stroke-linejoin:miter;stroke-opacity:1"
             d="m -601,12.362095 -80,0 c 0,0 43.37886,7.378859 58,22 14.62114,14.621141 22,58 22,58 z"
             id="path3918"
             inkscape:connector-curvature="0"
             sodipodi:nodetypes="ccscc" />
        </g>
      </g>
      <path
         style="fill:#ff0000;fill-rule:evenodd;stroke:#ff0000;stroke-width:1px;stroke-linecap:butt;stroke-linejoin:miter;stroke-opacity:1"
         d="m -599.97467,-129.11424 56.56854,56.568544 c 0,0 -35.89113,-25.45584 -56.56854,-25.45584 -20.67741,0 -56.56854,25.45583 -56.56854,25.45583 z"
         id="path3924"
         inkscape:connector-curvature="0"
         sodipodi:nodetypes="ccscc" />
      <g
         style="fill:#000080;stroke:#000080"
         transform="matrix(0.49637739,0,0,0.49637739,-343.00922,44.83747)"
         id="g3938">
        <g
           style="fill:#000080;stroke:#000080"
           id="g3940">
          <path
             sodipodi:nodetypes="ccscc"
             inkscape:connector-curvature="0"
             id="path3942"
             d="m -600,7.945986 80,0 c 0,0 -43.37886,-7.378859 -58,-22 -14.62114,-14.621141 -22,-58 -22,-58 z"
             style="fill:#000080;fill-rule:evenodd;stroke:#000080;stroke-width:1px;stroke-linecap:butt;stroke-linejoin:miter;stroke-opacity:1" />
          <path
             style="fill:#000080;fill-rule:evenodd;stroke:#000080;stroke-width:1px;stroke-linecap:butt;stroke-linejoin:miter;stroke-opacity:1"
             d="m -601,7.945986 -80,0 c 0,0 43.37886,-7.378859 58,-22 14.62114,-14.621141 22,-58 22,-58 z"
             id="path3944"
             inkscape:connector-curvature="0"
             sodipodi:nodetypes="ccscc" />
        </g>
        <g
           style="fill:#000080;stroke:#000080"
           transform="translate(0,-3.416109)"
           id="g3946">
          <path
             style="fill:#000080;fill-rule:evenodd;stroke:#000080;stroke-width:1px;stroke-linecap:butt;stroke-linejoin:miter;stroke-opacity:1"
             d="m -600,12.362183 80,0 c 0,0 -43.37886,7.378859 -58,22 -14.62114,14.621141 -22,58 -22,58 z"
             id="path3948"
             inkscape:connector-curvature="0"
             sodipodi:nodetypes="ccscc" />
          <path
             sodipodi:nodetypes="ccscc"
             inkscape:connector-curvature="0"
             id="path3950"
             d="m -601,12.362095 -80,0 c 0,0 43.37886,7.378859 58,22 14.62114,14.621141 22,58 22,58 z"
             style="fill:#000080;fill-rule:evenodd;stroke:#000080;stroke-width:1px;stroke-linecap:butt;stroke-linejoin:miter;stroke-opacity:1" />
        </g>
      </g>
      <g
         id="g3952"
         transform="matrix(0.49637739,0,0,0.49637739,-343.00922,-36.330258)"
         style="fill:#000080;stroke:#000080">
        <g
           id="g3954"
           style="fill:#000080;stroke:#000080">
          <path
             style="fill:#000080;fill-rule:evenodd;stroke:#000080;stroke-width:1px;stroke-linecap:butt;stroke-linejoin:miter;stroke-opacity:1"
             d="m -600,7.945986 80,0 c 0,0 -43.37886,-7.378859 -58,-22 -14.62114,-14.621141 -22,-58 -22,-58 z"
             id="path3956"
             inkscape:connector-curvature="0"
             sodipodi:nodetypes="ccscc" />
          <path
             sodipodi:nodetypes="ccscc"
             inkscape:connector-curvature="0"
             id="path3958"
             d="m -601,7.945986 -80,0 c 0,0 43.37886,-7.378859 58,-22 14.62114,-14.621141 22,-58 22,-58 z"
             style="fill:#000080;fill-rule:evenodd;stroke:#000080;stroke-width:1px;stroke-linecap:butt;stroke-linejoin:miter;stroke-opacity:1" />
        </g>
        <g
           id="g3960"
           transform="translate(0,-3.416109)"
           style="fill:#000080;stroke:#000080">
          <path
             sodipodi:nodetypes="ccscc"
             inkscape:connector-curvature="0"
             id="path3962"
             d="m -600,12.362183 80,0 c 0,0 -43.37886,7.378859 -58,22 -14.62114,14.621141 -22,58 -22,58 z"
             style="fill:#000080;fill-rule:evenodd;stroke:#000080;stroke-width:1px;stroke-linecap:butt;stroke-linejoin:miter;stroke-opacity:1" />
          <path
             style="fill:#000080;fill-rule:evenodd;stroke:#000080;stroke-width:1px;stroke-linecap:butt;stroke-linejoin:miter;stroke-opacity:1"
             d="m -601,12.362095 -80,0 c 0,0 43.37886,7.378859 58,22 14.62114,14.621141 22,58 22,58 z"
             id="path3964"
             inkscape:connector-curvature="0"
             sodipodi:nodetypes="ccscc" />
        </g>
      </g>
      <g
         style="fill:#000080;stroke:#000080"
         transform="matrix(0.49637739,0,0,0.49637739,-261.84153,-36.330258)"
         id="g3966">
        <g
           style="fill:#000080;stroke:#000080"
           id="g3968">
          <path
             sodipodi:nodetypes="ccscc"
             inkscape:connector-curvature="0"
             id="path3970"
             d="m -600,7.945986 80,0 c 0,0 -43.37886,-7.378859 -58,-22 -14.62114,-14.621141 -22,-58 -22,-58 z"
             style="fill:#000080;fill-rule:evenodd;stroke:#000080;stroke-width:1px;stroke-linecap:butt;stroke-linejoin:miter;stroke-opacity:1" />
          <path
             style="fill:#000080;fill-rule:evenodd;stroke:#000080;stroke-width:1px;stroke-linecap:butt;stroke-linejoin:miter;stroke-opacity:1"
             d="m -601,7.945986 -80,0 c 0,0 43.37886,-7.378859 58,-22 14.62114,-14.621141 22,-58 22,-58 z"
             id="path3972"
             inkscape:connector-curvature="0"
             sodipodi:nodetypes="ccscc" />
        </g>
        <g
           style="fill:#000080;stroke:#000080"
           transform="translate(0,-3.416109)"
           id="g3974">
          <path
             style="fill:#000080;fill-rule:evenodd;stroke:#000080;stroke-width:1px;stroke-linecap:butt;stroke-linejoin:miter;stroke-opacity:1"
             d="m -600,12.362183 80,0 c 0,0 -43.37886,7.378859 -58,22 -14.62114,14.621141 -22,58 -22,58 z"
             id="path3976"
             inkscape:connector-curvature="0"
             sodipodi:nodetypes="ccscc" />
          <path
             sodipodi:nodetypes="ccscc"
             inkscape:connector-curvature="0"
             id="path3978"
             d="m -601,12.362095 -80,0 c 0,0 43.37886,7.378859 58,22 14.62114,14.621141 22,58 22,58 z"
             style="fill:#000080;fill-rule:evenodd;stroke:#000080;stroke-width:1px;stroke-linecap:butt;stroke-linejoin:miter;stroke-opacity:1" />
        </g>
      </g>
      <g
         id="g3980"
         transform="matrix(0.49637739,0,0,0.49637739,-261.84153,44.837481)"
         style="fill:#000080;stroke:#000080">
        <g
           id="g3982"
           style="fill:#000080;stroke:#000080">
          <path
             style="fill:#000080;fill-rule:evenodd;stroke:#000080;stroke-width:1px;stroke-linecap:butt;stroke-linejoin:miter;stroke-opacity:1"
             d="m -600,7.945986 80,0 c 0,0 -43.37886,-7.378859 -58,-22 -14.62114,-14.621141 -22,-58 -22,-58 z"
             id="path3984"
             inkscape:connector-curvature="0"
             sodipodi:nodetypes="ccscc" />
          <path
             sodipodi:nodetypes="ccscc"
             inkscape:connector-curvature="0"
             id="path3986"
             d="m -601,7.945986 -80,0 c 0,0 43.37886,-7.378859 58,-22 14.62114,-14.621141 22,-58 22,-58 z"
             style="fill:#000080;fill-rule:evenodd;stroke:#000080;stroke-width:1px;stroke-linecap:butt;stroke-linejoin:miter;stroke-opacity:1" />
        </g>
        <g
           id="g3988"
           transform="translate(0,-3.416109)"
           style="fill:#000080;stroke:#000080">
          <path
             sodipodi:nodetypes="ccscc"
             inkscape:connector-curvature="0"
             id="path3990"
             d="m -600,12.362183 80,0 c 0,0 -43.37886,7.378859 -58,22 -14.62114,14.621141 -22,58 -22,58 z"
             style="fill:#000080;fill-rule:evenodd;stroke:#000080;stroke-width:1px;stroke-linecap:butt;stroke-linejoin:miter;stroke-opacity:1" />
          <path
             style="fill:#000080;fill-rule:evenodd;stroke:#000080;stroke-width:1px;stroke-linecap:butt;stroke-linejoin:miter;stroke-opacity:1"
             d="m -601,12.362095 -80,0 c 0,0 43.37886,7.378859 58,22 14.62114,14.621141 22,58 22,58 z"
             id="path3992"
             inkscape:connector-curvature="0"
             sodipodi:nodetypes="ccscc" />
        </g>
      </g>
      <path
         sodipodi:nodetypes="ccscc"
         inkscape:connector-curvature="0"
         id="path3994"
         d="m -462.93978,8.44603 -56.56854,56.56854 c 0,0 25.45584,-35.89113 25.45584,-56.56854 0,-20.67741 -25.45583,-56.56854 -25.45583,-56.56854 z"
         style="fill:#ff0000;fill-rule:evenodd;stroke:#ff0000;stroke-width:1px;stroke-linecap:butt;stroke-linejoin:miter;stroke-opacity:1" />
      <path
         sodipodi:nodetypes="ccscc"
         inkscape:connector-curvature="0"
         id="path3996"
         d="m -738.06022,8.446029 56.56854,-56.56854 c 0,0 -25.45584,35.89113 -25.45584,56.56854 0,20.677412 25.45583,56.568542 25.45583,56.568542 z"
         style="fill:#ff0000;fill-rule:evenodd;stroke:#ff0000;stroke-width:1px;stroke-linecap:butt;stroke-linejoin:miter;stroke-opacity:1" />
      <path
         style="fill:#ff0000;fill-rule:evenodd;stroke:#ff0000;stroke-width:1px;stroke-linecap:butt;stroke-linejoin:miter;stroke-opacity:1"
         d="m -600.5,146.0063 -56.56854,-56.568544 c 0,0 35.89113,25.455844 56.56854,25.455844 20.67741,0 56.56854,-25.455834 56.56854,-25.455834 z"
         id="path3998"
         inkscape:connector-curvature="0"
         sodipodi:nodetypes="ccscc" />
    </g>
  </g>
</svg>
