<?xml version="1.0"?>
<svg xmlns:rdf="http://www.w3.org/1999/02/22-rdf-syntax-ns#" xmlns="http://www.w3.org/2000/svg" xmlns:cc="http://creativecommons.org/ns#" xmlns:xlink="http://www.w3.org/1999/xlink" xmlns:dc="http://purl.org/dc/elements/1.1/" xmlns:svg="http://www.w3.org/2000/svg" id="svg21907" viewBox="0 0 166.21 42.144" version="1.1">
  <defs id="defs21909">
    <radialGradient id="radialGradient20529" gradientUnits="userSpaceOnUse" cy="500.28" cx="275.36" gradientTransform="matrix(1.6481 .00032165 -.000085511 .50827 -260.22 164.65)" r="76.21">
      <stop id="stop39122-4" stop-color="#980101" offset="0"/>
      <stop id="stop39124-5" offset="1"/>
    </radialGradient>
    <linearGradient id="linearGradient20531" y2="374.54" xlink:href="#linearGradient40420-4" gradientUnits="userSpaceOnUse" x2="230.32" gradientTransform="translate(-4.2294 65.979)" y1="378.79" x1="226.79"/>
    <linearGradient id="linearGradient40420-4">
      <stop id="stop40422-6" stop-opacity=".58462" offset="0"/>
      <stop id="stop40424-2" stop-color="#eee" stop-opacity=".43077" offset="1"/>
    </linearGradient>
    <linearGradient id="linearGradient20533" y2="374.54" xlink:href="#linearGradient40420-4" gradientUnits="userSpaceOnUse" x2="230.32" gradientTransform="translate(-4.2294 75.979)" y1="378.79" x1="226.79"/>
    <linearGradient id="linearGradient20535" y2="374.54" xlink:href="#linearGradient40420-4" gradientUnits="userSpaceOnUse" x2="230.32" gradientTransform="translate(-4.2294 70.979)" y1="378.79" x1="226.79"/>
    <linearGradient id="linearGradient20537" y2="374.54" xlink:href="#linearGradient40420-4" gradientUnits="userSpaceOnUse" x2="230.32" gradientTransform="translate(-4.2294 80.979)" y1="378.79" x1="226.79"/>
    <linearGradient id="linearGradient20539" y2="374.54" xlink:href="#linearGradient40420-4" gradientUnits="userSpaceOnUse" x2="230.32" gradientTransform="translate(.77058 65.979)" y1="378.79" x1="226.79"/>
    <linearGradient id="linearGradient20541" y2="374.54" xlink:href="#linearGradient40420-4" gradientUnits="userSpaceOnUse" x2="230.32" gradientTransform="translate(.77058 75.979)" y1="378.79" x1="226.79"/>
    <linearGradient id="linearGradient20543" y2="374.54" xlink:href="#linearGradient40420-4" gradientUnits="userSpaceOnUse" x2="230.32" gradientTransform="translate(.77058 70.979)" y1="378.79" x1="226.79"/>
    <linearGradient id="linearGradient20545" y2="374.54" xlink:href="#linearGradient40420-4" gradientUnits="userSpaceOnUse" x2="230.32" gradientTransform="translate(.77058 80.979)" y1="378.79" x1="226.79"/>
    <linearGradient id="linearGradient20547" y2="374.54" xlink:href="#linearGradient40420-4" gradientUnits="userSpaceOnUse" x2="230.32" gradientTransform="translate(5.7706 65.979)" y1="378.79" x1="226.79"/>
    <linearGradient id="linearGradient20549" y2="374.54" xlink:href="#linearGradient40420-4" gradientUnits="userSpaceOnUse" x2="230.32" gradientTransform="translate(5.7706 75.979)" y1="378.79" x1="226.79"/>
    <linearGradient id="linearGradient20551" y2="374.54" xlink:href="#linearGradient40420-4" gradientUnits="userSpaceOnUse" x2="230.32" gradientTransform="translate(5.7706 70.979)" y1="378.79" x1="226.79"/>
    <linearGradient id="linearGradient20553" y2="374.54" xlink:href="#linearGradient40420-4" gradientUnits="userSpaceOnUse" x2="230.32" gradientTransform="translate(5.7706 80.979)" y1="378.79" x1="226.79"/>
    <linearGradient id="linearGradient20555" y2="374.54" xlink:href="#linearGradient40420-4" gradientUnits="userSpaceOnUse" x2="230.32" gradientTransform="translate(10.771 65.979)" y1="378.79" x1="226.79"/>
    <linearGradient id="linearGradient20557" y2="374.54" xlink:href="#linearGradient40420-4" gradientUnits="userSpaceOnUse" x2="230.32" gradientTransform="translate(10.771 75.979)" y1="378.79" x1="226.79"/>
    <linearGradient id="linearGradient20559" y2="374.54" xlink:href="#linearGradient40420-4" gradientUnits="userSpaceOnUse" x2="230.32" gradientTransform="translate(10.771 70.979)" y1="378.79" x1="226.79"/>
    <linearGradient id="linearGradient20561" y2="374.54" xlink:href="#linearGradient40420-4" gradientUnits="userSpaceOnUse" x2="230.32" gradientTransform="translate(10.771 80.979)" y1="378.79" x1="226.79"/>
    <linearGradient id="linearGradient20723" y2="412.41" gradientUnits="userSpaceOnUse" x2="205.17" y1="396.86" x1="205.17">
      <stop id="stop41822-8" stop-color="#eee" offset="0"/>
      <stop id="stop41824-3" stop-color="#eee" stop-opacity="0" offset="1"/>
    </linearGradient>
    <radialGradient id="radialGradient4399" gradientUnits="userSpaceOnUse" cy="510.29" cx="284.34" gradientTransform="matrix(.0032763 .41224 -1.2792 .00018605 807.29 21.265)" r="88.206">
      <stop id="stop39102" stop-color="#ccc" offset="0"/>
      <stop id="stop39104" offset="1"/>
    </radialGradient>
  </defs>
  <g id="layer1" transform="translate(-81.1 -137.07)">
    <path id="rect17123" style="color:#000000" d="m87.803 137.66h152.82c3.3894 0 6.1181 2.8429 6.1181 6.3743v28.25c0 3.5314-2.7287 6.3743-6.1181 6.3743h-152.82c-3.3894 0-6.1181-2.8429-6.1181-6.3743v-28.25c0-3.5314 2.7287-6.3743 6.1181-6.3743z" stroke-dashoffset="1.4" stroke="#000" stroke-linecap="round" stroke-miterlimit="6" stroke-width=".34609" fill="url(#radialGradient4399)"/>
    <g id="g17125" transform="translate(-50.42 -253.37)">
      <path id="rect17127" style="color:#000000" d="m140.45 397.17h146.29c1.5016 0 2.7105 0.61353 2.7105 1.3756v23.307c0 0.76209-1.2089 1.3756-2.7105 1.3756h-146.29c-1.5016 0-2.7105-0.61353-2.7105-1.3756v-23.307c0-0.76209 1.2089-1.3756 2.7105-1.3756z" stroke="#000" stroke-width=".7124" fill="url(#radialGradient20529)"/>
      <g id="g17129" opacity=".53086" stroke="#980101" stroke-width=".1" transform="translate(-79.776 -39.212)">
        <g id="g17131" opacity=".55144">
          <path id="path17133" opacity=".80658" d="m222.19 444.84v-5h5v5z" fill="url(#linearGradient20531)"/>
          <path id="path17135" opacity=".80658" d="m222.19 454.84v-5h5v5z" fill="url(#linearGradient20533)"/>
          <path id="path17137" opacity=".80658" d="m222.19 449.84v-5h5v5z" fill="url(#linearGradient20535)"/>
          <path id="path17139" opacity=".80658" d="m222.19 459.84v-5h5v5z" fill="url(#linearGradient20537)"/>
          <path id="path17141" opacity=".80658" d="m227.19 444.84v-5h5v5z" fill="url(#linearGradient20539)"/>
          <path id="path17143" opacity=".80658" d="m227.19 454.84v-5h5v5z" fill="url(#linearGradient20541)"/>
          <path id="path17145" opacity=".80658" d="m227.19 449.84v-5h5v5z" fill="url(#linearGradient20543)"/>
          <path id="path17147" opacity=".80658" d="m227.19 459.84v-5h5v5z" fill="url(#linearGradient20545)"/>
          <path id="path17149" opacity=".80658" d="m232.19 444.84v-5h5v5z" fill="url(#linearGradient20547)"/>
          <path id="path17151" opacity=".80658" d="m232.19 454.84v-5h5v5z" fill="url(#linearGradient20549)"/>
          <path id="path17153" opacity=".80658" d="m232.19 449.84v-5h5v5z" fill="url(#linearGradient20551)"/>
          <path id="path17155" opacity=".80658" d="m232.19 459.84v-5h5v5z" fill="url(#linearGradient20553)"/>
          <path id="path17157" opacity=".80658" d="m237.19 444.84v-5h5v5z" fill="url(#linearGradient20555)"/>
          <path id="path17159" opacity=".80658" d="m237.19 454.84v-5h5v5z" fill="url(#linearGradient20557)"/>
          <path id="path17161" opacity=".80658" d="m237.19 449.84v-5h5v5z" fill="url(#linearGradient20559)"/>
          <path id="path17163" opacity=".80658" d="m237.19 459.84v-5h5v5z" fill="url(#linearGradient20561)"/>
        </g>
        <g id="g17165" opacity=".55144" transform="translate(25 5.8594e-7)">
          <path id="path17167" opacity=".80658" d="m222.19 444.84v-5h5v5z" fill="url(#linearGradient20531)"/>
          <path id="path17169" opacity=".80658" d="m222.19 454.84v-5h5v5z" fill="url(#linearGradient20533)"/>
          <path id="path17171" opacity=".80658" d="m222.19 449.84v-5h5v5z" fill="url(#linearGradient20535)"/>
          <path id="path17173" opacity=".80658" d="m222.19 459.84v-5h5v5z" fill="url(#linearGradient20537)"/>
          <path id="path17175" opacity=".80658" d="m227.19 444.84v-5h5v5z" fill="url(#linearGradient20539)"/>
          <path id="path17177" opacity=".80658" d="m227.19 454.84v-5h5v5z" fill="url(#linearGradient20541)"/>
          <path id="path17179" opacity=".80658" d="m227.19 449.84v-5h5v5z" fill="url(#linearGradient20543)"/>
          <path id="path17181" opacity=".80658" d="m227.19 459.84v-5h5v5z" fill="url(#linearGradient20545)"/>
          <path id="path17183" opacity=".80658" d="m232.19 444.84v-5h5v5z" fill="url(#linearGradient20547)"/>
          <path id="path17185" opacity=".80658" d="m232.19 454.84v-5h5v5z" fill="url(#linearGradient20549)"/>
          <path id="path17187" opacity=".80658" d="m232.19 449.84v-5h5v5z" fill="url(#linearGradient20551)"/>
          <path id="path17189" opacity=".80658" d="m232.19 459.84v-5h5v5z" fill="url(#linearGradient20553)"/>
          <path id="path17191" opacity=".80658" d="m237.19 444.84v-5h5v5z" fill="url(#linearGradient20555)"/>
          <path id="path17193" opacity=".80658" d="m237.19 454.84v-5h5v5z" fill="url(#linearGradient20557)"/>
          <path id="path17195" opacity=".80658" d="m237.19 449.84v-5h5v5z" fill="url(#linearGradient20559)"/>
          <path id="path17197" opacity=".80658" d="m237.19 459.84v-5h5v5z" fill="url(#linearGradient20561)"/>
        </g>
        <g id="g17199" opacity=".55144" transform="translate(50 5.8594e-7)">
          <path id="path17201" opacity=".80658" d="m222.19 444.84v-5h5v5z" fill="url(#linearGradient20531)"/>
          <path id="path17203" opacity=".80658" d="m222.19 454.84v-5h5v5z" fill="url(#linearGradient20533)"/>
          <path id="path17205" opacity=".80658" d="m222.19 449.84v-5h5v5z" fill="url(#linearGradient20535)"/>
          <path id="path17207" opacity=".80658" d="m222.19 459.84v-5h5v5z" fill="url(#linearGradient20537)"/>
          <path id="path17209" opacity=".80658" d="m227.19 444.84v-5h5v5z" fill="url(#linearGradient20539)"/>
          <path id="path17211" opacity=".80658" d="m227.19 454.84v-5h5v5z" fill="url(#linearGradient20541)"/>
          <path id="path17213" opacity=".80658" d="m227.19 449.84v-5h5v5z" fill="url(#linearGradient20543)"/>
          <path id="path17215" opacity=".80658" d="m227.19 459.84v-5h5v5z" fill="url(#linearGradient20545)"/>
          <path id="path17217" opacity=".80658" d="m232.19 444.84v-5h5v5z" fill="url(#linearGradient20547)"/>
          <path id="path17219" opacity=".80658" d="m232.19 454.84v-5h5v5z" fill="url(#linearGradient20549)"/>
          <path id="path17221" opacity=".80658" d="m232.19 449.84v-5h5v5z" fill="url(#linearGradient20551)"/>
          <path id="path17223" opacity=".80658" d="m232.19 459.84v-5h5v5z" fill="url(#linearGradient20553)"/>
          <path id="path17225" opacity=".80658" d="m237.19 444.84v-5h5v5z" fill="url(#linearGradient20555)"/>
          <path id="path17227" opacity=".80658" d="m237.19 454.84v-5h5v5z" fill="url(#linearGradient20557)"/>
          <path id="path17229" opacity=".80658" d="m237.19 449.84v-5h5v5z" fill="url(#linearGradient20559)"/>
          <path id="path17231" opacity=".80658" d="m237.19 459.84v-5h5v5z" fill="url(#linearGradient20561)"/>
        </g>
        <g id="g17233" opacity=".55144" transform="translate(75 5.8594e-7)">
          <path id="path17235" opacity=".80658" d="m222.19 444.84v-5h5v5z" fill="url(#linearGradient20531)"/>
          <path id="path17237" opacity=".80658" d="m222.19 454.84v-5h5v5z" fill="url(#linearGradient20533)"/>
          <path id="path17239" opacity=".80658" d="m222.19 449.84v-5h5v5z" fill="url(#linearGradient20535)"/>
          <path id="path17241" opacity=".80658" d="m222.19 459.84v-5h5v5z" fill="url(#linearGradient20537)"/>
          <path id="path17243" opacity=".80658" d="m227.19 444.84v-5h5v5z" fill="url(#linearGradient20539)"/>
          <path id="path17245" opacity=".80658" d="m227.19 454.84v-5h5v5z" fill="url(#linearGradient20541)"/>
          <path id="path17247" opacity=".80658" d="m227.19 449.84v-5h5v5z" fill="url(#linearGradient20543)"/>
          <path id="path17249" opacity=".80658" d="m227.19 459.84v-5h5v5z" fill="url(#linearGradient20545)"/>
          <path id="path17251" opacity=".80658" d="m232.19 444.84v-5h5v5z" fill="url(#linearGradient20547)"/>
          <path id="path17253" opacity=".80658" d="m232.19 454.84v-5h5v5z" fill="url(#linearGradient20549)"/>
          <path id="path17255" opacity=".80658" d="m232.19 449.84v-5h5v5z" fill="url(#linearGradient20551)"/>
          <path id="path17257" opacity=".80658" d="m232.19 459.84v-5h5v5z" fill="url(#linearGradient20553)"/>
          <path id="path17259" opacity=".80658" d="m237.19 444.84v-5h5v5z" fill="url(#linearGradient20555)"/>
          <path id="path17261" opacity=".80658" d="m237.19 454.84v-5h5v5z" fill="url(#linearGradient20557)"/>
          <path id="path17263" opacity=".80658" d="m237.19 449.84v-5h5v5z" fill="url(#linearGradient20559)"/>
          <path id="path17265" opacity=".80658" d="m237.19 459.84v-5h5v5z" fill="url(#linearGradient20561)"/>
        </g>
        <g id="g17267" opacity=".55144" transform="translate(100 5.8594e-7)">
          <path id="path17269" opacity=".80658" d="m222.19 444.84v-5h5v5z" fill="url(#linearGradient20531)"/>
          <path id="path17271" opacity=".80658" d="m222.19 454.84v-5h5v5z" fill="url(#linearGradient20533)"/>
          <path id="path17273" opacity=".80658" d="m222.19 449.84v-5h5v5z" fill="url(#linearGradient20535)"/>
          <path id="path17275" opacity=".80658" d="m222.19 459.84v-5h5v5z" fill="url(#linearGradient20537)"/>
          <path id="path17277" opacity=".80658" d="m227.19 444.84v-5h5v5z" fill="url(#linearGradient20539)"/>
          <path id="path17279" opacity=".80658" d="m227.19 454.84v-5h5v5z" fill="url(#linearGradient20541)"/>
          <path id="path17281" opacity=".80658" d="m227.19 449.84v-5h5v5z" fill="url(#linearGradient20543)"/>
          <path id="path17283" opacity=".80658" d="m227.19 459.84v-5h5v5z" fill="url(#linearGradient20545)"/>
          <path id="path17285" opacity=".80658" d="m232.19 444.84v-5h5v5z" fill="url(#linearGradient20547)"/>
          <path id="path17287" opacity=".80658" d="m232.19 454.84v-5h5v5z" fill="url(#linearGradient20549)"/>
          <path id="path17289" opacity=".80658" d="m232.19 449.84v-5h5v5z" fill="url(#linearGradient20551)"/>
          <path id="path17291" opacity=".80658" d="m232.19 459.84v-5h5v5z" fill="url(#linearGradient20553)"/>
          <path id="path17293" opacity=".80658" d="m237.19 444.84v-5h5v5z" fill="url(#linearGradient20555)"/>
          <path id="path17295" opacity=".80658" d="m237.19 454.84v-5h5v5z" fill="url(#linearGradient20557)"/>
          <path id="path17297" opacity=".80658" d="m237.19 449.84v-5h5v5z" fill="url(#linearGradient20559)"/>
          <path id="path17299" opacity=".80658" d="m237.19 459.84v-5h5v5z" fill="url(#linearGradient20561)"/>
        </g>
        <g id="g17301" opacity=".55144" transform="translate(125 5.8594e-7)">
          <path id="path17303" opacity=".80658" d="m222.19 444.84v-5h5v5z" fill="url(#linearGradient20531)"/>
          <path id="path17305" opacity=".80658" d="m222.19 454.84v-5h5v5z" fill="url(#linearGradient20533)"/>
          <path id="path17307" opacity=".80658" d="m222.19 449.84v-5h5v5z" fill="url(#linearGradient20535)"/>
          <path id="path17309" opacity=".80658" d="m222.19 459.84v-5h5v5z" fill="url(#linearGradient20537)"/>
          <path id="path17311" opacity=".80658" d="m227.19 444.84v-5h5v5z" fill="url(#linearGradient20539)"/>
          <path id="path17313" opacity=".80658" d="m227.19 454.84v-5h5v5z" fill="url(#linearGradient20541)"/>
          <path id="path17315" opacity=".80658" d="m227.19 449.84v-5h5v5z" fill="url(#linearGradient20543)"/>
          <path id="path17317" opacity=".80658" d="m227.19 459.84v-5h5v5z" fill="url(#linearGradient20545)"/>
          <path id="path17319" opacity=".80658" d="m232.19 444.84v-5h5v5z" fill="url(#linearGradient20547)"/>
          <path id="path17321" opacity=".80658" d="m232.19 454.84v-5h5v5z" fill="url(#linearGradient20549)"/>
          <path id="path17323" opacity=".80658" d="m232.19 449.84v-5h5v5z" fill="url(#linearGradient20551)"/>
          <path id="path17325" opacity=".80658" d="m232.19 459.84v-5h5v5z" fill="url(#linearGradient20553)"/>
          <path id="path17327" opacity=".80658" d="m237.19 444.84v-5h5v5z" fill="url(#linearGradient20555)"/>
          <path id="path17329" opacity=".80658" d="m237.19 454.84v-5h5v5z" fill="url(#linearGradient20557)"/>
          <path id="path17331" opacity=".80658" d="m237.19 449.84v-5h5v5z" fill="url(#linearGradient20559)"/>
          <path id="path17333" opacity=".80658" d="m237.19 459.84v-5h5v5z" fill="url(#linearGradient20561)"/>
        </g>
      </g>
      <path id="path17335" d="m139.92 422.8v-25.662m3.3804 25.662v-25.662m3.3804 25.662v-25.662m3.3804 25.662v-25.662m3.3804 25.662v-25.662m3.3804 25.662v-25.662m3.3804 25.662v-25.662m3.3804 25.662v-25.662m3.3804 25.662v-25.662m3.3804 25.662v-25.662m3.3804 25.662v-25.662m3.3804 25.662v-25.662m3.3804 25.662v-25.662m3.3804 25.662v-25.662m3.3804 25.662v-25.662m3.3804 25.662v-25.662m3.3804 25.662v-25.662m3.3804 25.662v-25.662m3.3804 25.662v-25.662m3.3804 25.662v-25.662m3.3804 25.662v-25.662m3.3804 25.662v-25.662m3.3804 25.662v-25.662m3.3804 25.662v-25.662m3.3804 25.662v-25.662m3.3804 25.662v-25.662m3.3804 25.662v-25.662m3.3804 25.662v-25.662m3.3804 25.662v-25.662m3.3804 25.662v-25.662m3.3804 25.662v-25.662m3.3804 25.662v-25.662m3.3804 25.662v-25.662m3.3804 25.662v-25.662m3.3804 25.662v-25.662m3.3804 25.662v-25.662m3.3804 25.662v-25.662m3.3804 25.662v-25.662m3.3804 25.662v-25.662m3.3804 25.662v-25.662m3.3804 25.662v-25.662m3.3804 25.662v-25.662m3.3804 25.662v-25.662m3.3804 25.662v-25.662m3.3804 25.662v-25.662" stroke="#f44800" stroke-width=".1" fill="none"/>
      <path id="path17337" d="m288.26 400.24h-150.7m150.7 2.0589h-150.7m150.7 2.0589h-150.7m150.7 2.0589h-150.7m150.7 2.0589h-150.7m150.7 2.0589h-150.7m150.7 2.059h-150.7m150.7 2.0589h-150.7m150.7 2.0589h-150.7m150.7 2.0589h-150.7m150.7 2.0589h-150.7m150.7 2.0589h-150.7" stroke="#fd3301" stroke-width=".1" fill="none"/>
      <path id="rect17339" opacity=".39506" stroke-linejoin="round" d="m140.26 398.88h146.83v20.986h-146.83z" stroke="#980101" stroke-linecap="round" stroke-width=".20431" fill="url(#linearGradient20723)"/>
    </g>
  </g>
  <metadata>
    <rdf:RDF>
      <cc:Work>
        <dc:format>image/svg+xml</dc:format>
        <dc:type rdf:resource="http://purl.org/dc/dcmitype/StillImage"/>
        <cc:license rdf:resource="http://creativecommons.org/licenses/publicdomain/"/>
        <dc:publisher>
          <cc:Agent rdf:about="http://openclipart.org/">
            <dc:title>Openclipart</dc:title>
          </cc:Agent>
        </dc:publisher>
        <dc:title>Solar Cell 2</dc:title>
        <dc:date>2013-04-10T19:36:58</dc:date>
        <dc:description>A solar cell. Drawn with Inkscape.</dc:description>
        <dc:source>http://openclipart.org/detail/176939/solar-cell-2-by-merlin2525-176939</dc:source>
        <dc:creator>
          <cc:Agent>
            <dc:title>Merlin2525</dc:title>
          </cc:Agent>
        </dc:creator>
        <dc:subject>
          <rdf:Bag>
            <rdf:li>ambiente</rdf:li>
            <rdf:li>avenir</rdf:li>
            <rdf:li>bateria</rdf:li>
            <rdf:li>bater&#xC3;&#xAD;a</rdf:li>
            <rdf:li>batterie</rdf:li>
            <rdf:li>battery</rdf:li>
            <rdf:li>cell</rdf:li>
            <rdf:li>cells</rdf:li>
            <rdf:li>cellule</rdf:li>
            <rdf:li>cellules</rdf:li>
            <rdf:li>celula</rdf:li>
            <rdf:li>celulas</rdf:li>
            <rdf:li>clean</rdf:li>
            <rdf:li>clip art</rdf:li>
            <rdf:li>clipart</rdf:li>
            <rdf:li>comercial</rdf:li>
            <rdf:li>commercial</rdf:li>
            <rdf:li>commerciale</rdf:li>
            <rdf:li>continu</rdf:li>
            <rdf:li>corriente</rdf:li>
            <rdf:li>courant</rdf:li>
            <rdf:li>cristal</rdf:li>
            <rdf:li>crystal</rdf:li>
            <rdf:li>current</rdf:li>
            <rdf:li>c&#xC3;&#xA9;lula</rdf:li>
            <rdf:li>c&#xC3;&#xA9;lulas</rdf:li>
            <rdf:li>dc</rdf:li>
            <rdf:li>diode</rdf:li>
            <rdf:li>diodes</rdf:li>
            <rdf:li>diodo</rdf:li>
            <rdf:li>diodos</rdf:li>
            <rdf:li>direct</rdf:li>
            <rdf:li>directa</rdf:li>
            <rdf:li>eco</rdf:li>
            <rdf:li>ecologia</rdf:li>
            <rdf:li>ecologie</rdf:li>
            <rdf:li>ecology</rdf:li>
            <rdf:li>ecolog&#xC3;&#xAD;a</rdf:li>
            <rdf:li>efecto</rdf:li>
            <rdf:li>effect</rdf:li>
            <rdf:li>effet</rdf:li>
            <rdf:li>efficace</rdf:li>
            <rdf:li>efficacite</rdf:li>
            <rdf:li>efficacit&#xC3;&#xA9;</rdf:li>
            <rdf:li>efficiency</rdf:li>
            <rdf:li>efficient</rdf:li>
            <rdf:li>eficiencia</rdf:li>
            <rdf:li>eficiente</rdf:li>
            <rdf:li>electicite</rdf:li>
            <rdf:li>electric</rdf:li>
            <rdf:li>electricidad</rdf:li>
            <rdf:li>electricity</rdf:li>
            <rdf:li>electrico</rdf:li>
            <rdf:li>electrique</rdf:li>
            <rdf:li>el&#xC3;&#xA9;ctrico</rdf:li>
            <rdf:li>energia</rdf:li>
            <rdf:li>energie</rdf:li>
            <rdf:li>energy</rdf:li>
            <rdf:li>energ&#xC3;&#xAD;a</rdf:li>
            <rdf:li>entorno</rdf:li>
            <rdf:li>enviroment</rdf:li>
            <rdf:li>environment</rdf:li>
            <rdf:li>environnement</rdf:li>
            <rdf:li>foton</rdf:li>
            <rdf:li>fotones</rdf:li>
            <rdf:li>fotovoltaica</rdf:li>
            <rdf:li>fotovoltaico</rdf:li>
            <rdf:li>fot&#xC3;&#xB3;n</rdf:li>
            <rdf:li>futur</rdf:li>
            <rdf:li>future</rdf:li>
            <rdf:li>futuro</rdf:li>
            <rdf:li>green</rdf:li>
            <rdf:li>inversor</rdf:li>
            <rdf:li>inverter</rdf:li>
            <rdf:li>l'efficacite</rdf:li>
            <rdf:li>l'efficacit&#xC3;&#xA9;</rdf:li>
            <rdf:li>l'&#xC3;&#xA9;lectricit&#xC3;&#xA9;</rdf:li>
            <rdf:li>limpia</rdf:li>
            <rdf:li>medio</rdf:li>
            <rdf:li>module</rdf:li>
            <rdf:li>modulo</rdf:li>
            <rdf:li>monocristalino</rdf:li>
            <rdf:li>monocristallin</rdf:li>
            <rdf:li>monocrystaline</rdf:li>
            <rdf:li>monocrystalline</rdf:li>
            <rdf:li>m&#xC3;&#xB3;dulo</rdf:li>
            <rdf:li>nettoyer</rdf:li>
            <rdf:li>onduleur</rdf:li>
            <rdf:li>panel</rdf:li>
            <rdf:li>panneau</rdf:li>
            <rdf:li>photon</rdf:li>
            <rdf:li>photons</rdf:li>
            <rdf:li>photovoltaic</rdf:li>
            <rdf:li>photovoltaique</rdf:li>
            <rdf:li>photovolta&#xC3;&#xAF;que</rdf:li>
            <rdf:li>policristalino</rdf:li>
            <rdf:li>polycristallin</rdf:li>
            <rdf:li>polycrystaline</rdf:li>
            <rdf:li>polycrystalline</rdf:li>
            <rdf:li>porvenir</rdf:li>
            <rdf:li>rastreador</rdf:li>
            <rdf:li>residencial</rdf:li>
            <rdf:li>residential</rdf:li>
            <rdf:li>residentiel</rdf:li>
            <rdf:li>r&#xC3;&#xA9;sidentiel</rdf:li>
            <rdf:li>silicio</rdf:li>
            <rdf:li>silicium</rdf:li>
            <rdf:li>silicon</rdf:li>
            <rdf:li>sol</rdf:li>
            <rdf:li>solaire</rdf:li>
            <rdf:li>solar</rdf:li>
            <rdf:li>soleil</rdf:li>
            <rdf:li>sun</rdf:li>
            <rdf:li>technologie</rdf:li>
            <rdf:li>technology</rdf:li>
            <rdf:li>tecnologia</rdf:li>
            <rdf:li>tecnolog&#xC3;&#xAD;a</rdf:li>
            <rdf:li>tracker</rdf:li>
            <rdf:li>traqueur</rdf:li>
            <rdf:li>verde</rdf:li>
            <rdf:li>vert</rdf:li>
            <rdf:li>volt</rdf:li>
            <rdf:li>voltio</rdf:li>
            <rdf:li>&#xC3;&#xA9;cologie</rdf:li>
            <rdf:li>&#xC3;&#xA9;lectrique</rdf:li>
            <rdf:li>&#xC3;&#xA9;nergie</rdf:li>
          </rdf:Bag>
        </dc:subject>
      </cc:Work>
      <cc:License rdf:about="http://creativecommons.org/licenses/publicdomain/">
        <cc:permits rdf:resource="http://creativecommons.org/ns#Reproduction"/>
        <cc:permits rdf:resource="http://creativecommons.org/ns#Distribution"/>
        <cc:permits rdf:resource="http://creativecommons.org/ns#DerivativeWorks"/>
      </cc:License>
    </rdf:RDF>
  </metadata>
</svg>
