<?xml version="1.0"?>
<svg xmlns:rdf="http://www.w3.org/1999/02/22-rdf-syntax-ns#" xmlns="http://www.w3.org/2000/svg" xmlns:cc="http://creativecommons.org/ns#" xmlns:xlink="http://www.w3.org/1999/xlink" xmlns:dc="http://purl.org/dc/elements/1.1/" xmlns:svg="http://www.w3.org/2000/svg" id="svg2" viewBox="0 0 323.24 298.33" version="1.1">
  <g id="layer1" transform="translate(-194.72 -406.59)">
    <g id="g3361" stroke="#000" stroke-width="1.6723" transform="matrix(.76260 -.64687 -.64687 -.76260 469.44 1346.4)" fill="#fff">
      <path id="path3363" d="m417.65 619.98c2.1931 11.325 69.938-13.823 76.21-30.488-2.6466-26.711-80.078 19.763-76.21 30.488z"/>
      <path id="path3365" d="m416.17 626.45c1.2735 1.641-5.5867 2.9984-3.3617 6.2698 1.9277 1.8836 10.403-5.7917 10.189-9.7574 0.19283-0.90276-0.8175-2.579-1.4146-3.6561-3.5875-6.3314-12.791-2.048-19.261 1.8304-2.7449 0.41628-1.0472 4.9944 0.36742 7.5074 1.4464 2.5175 9.1437-0.95684 13.481-2.1941z"/>
    </g>
    <path id="path2845" d="m421.88 661.82s-8.7402-101.37 38.406-101.37 39.934 101.27 39.934 101.27l-78.34 0.10262z" stroke="#000" stroke-width="2" fill="#fff"/>
    <g id="g2839" stroke-dashoffset="63" transform="matrix(.90059 0 0 1 30.657 297.94)" stroke="#000" stroke-linecap="round" stroke-width="2" fill="#fff">
      <rect id="rect2835" y="329.09" width="352.36" height="74.181" x="185.45"/>
      <rect id="rect2837" y="316.48" width="356.81" height="13.353" x="183.23"/>
    </g>
    <path id="path2847" d="m220.33 240c0 27.317-16.441 49.461-36.721 49.461-20.281 0-36.721-22.145-36.721-49.461 0-27.317 16.441-49.461 36.721-49.461 20.281 0 36.721 22.145 36.721 49.461z" stroke-dashoffset="63" transform="matrix(.81270 0 0 .81270 310.79 329.18)" stroke="#000" stroke-linecap="round" stroke-width="2.4609" fill="#fff"/>
    <path id="path2818" d="m207.28 703.92s-10.755-124.73 47.258-124.73c58.012 0 49.138 124.6 49.138 124.6l-96.395 0.12628z" stroke="#000" stroke-width="2" fill="#fff"/>
    <path id="path2816" d="m220.33 240c0 27.317-16.441 49.461-36.721 49.461-20.281 0-36.721-22.145-36.721-49.461 0-27.317 16.441-49.461 36.721-49.461 20.281 0 36.721 22.145 36.721 49.461z" stroke-dashoffset="63" transform="translate(70.584 294.62)" stroke="#000" stroke-linecap="round" stroke-width="2" fill="#fff"/>
    <path id="path2876" d="m209.93 177.76c0 11.881-9.6315 21.513-21.513 21.513-11.881 0-21.513-9.6315-21.513-21.513 0-11.881 9.6315-21.513 21.513-21.513 11.881 0 21.513 9.6315 21.513 21.513z" stroke-dashoffset="63" transform="matrix(1.1105 0 0 1.1105 62.171 240.2)" stroke="#000" stroke-linecap="round" stroke-width="1.801" fill="#fff"/>
    <path id="path2880" d="m300.43 159.22-21.141-1.6519-13.346 16.479-4.9619-20.617-19.796-7.6004 18.074-11.09 1.111-21.176 16.132 13.763 20.483-5.4872-8.1039 19.596 11.548 17.785z" stroke-dashoffset="63" transform="matrix(.76868 .32936 -.32936 .76868 277 234.54)" stroke="#000" stroke-linecap="round" stroke-width="2.3916" fill="#fff"/>
    <g id="layer1-0" stroke="#000" stroke-width="2" transform="matrix(.76166 0 0 .76166 282.09 400.77)" fill="#fff">
      <path id="path2816-4" opacity=".64878" d="m186.71 88.531c0 13.38-14.302 29.869-28.13 38.637-0.91362 5.3842 18.77 33.729 38.088 60.302-11.94-1.4484-62.619-46.115-64.968-52.219-4.974 0.64546-16.124 1.7344-21.399 1.7344-42.199 0-76.409-21.694-76.409-48.454 0-26.761 34.209-48.454 76.409-48.454 42.199 0 76.409 21.694 76.409 48.454z" stroke="#000" stroke-width="2" fill="#fff"/>
    </g>
    <text id="text3146" font-size="19.839px" xml:space="preserve" y="463.67892" x="364.47897" font-family="ChunkFive" fill="#000000">
      <tspan id="tspan3347" y="463.67892" x="366.95886" style="text-anchor:middle;text-align:center">Here you </tspan>
      <tspan id="tspan4179" y="488.47766" x="364.47897" style="text-anchor:middle;text-align:center">are</tspan>
    </text>
    <path id="path3299" d="m416.16 141.73c0 1.8436-1.4946 3.3382-3.3382 3.3382s-3.3382-1.4946-3.3382-3.3382 1.4945-3.3382 3.3382-3.3382c1.8436 0 3.3382 1.4946 3.3382 3.3382z" stroke-dashoffset="63" transform="matrix(.65801 0 0 .65801 176.71 424.35)" stroke="#000" stroke-linecap="round" stroke-width="2"/>
    <path id="path3301" d="m416.16 141.73c0 1.8436-1.4946 3.3382-3.3382 3.3382s-3.3382-1.4946-3.3382-3.3382 1.4945-3.3382 3.3382-3.3382c1.8436 0 3.3382 1.4946 3.3382 3.3382z" stroke-dashoffset="63" transform="matrix(.65801 0 0 .65801 194.28 424.35)" stroke="#000" stroke-linecap="round" stroke-width="2"/>
    <path id="path3303" d="m449.3 538.9c1.3114 4.7209 4.1203 5.0112 7.8681 5.2454 4.1963 0.26227 9.4417-2.6227 9.1795-5.5077" stroke="#000" stroke-width="1px" fill="none"/>
    <g id="g3357" stroke="#000" stroke-width="1.6723" transform="matrix(.98933 -.14572 .14572 .98933 -82.654 68.524)" fill="#fff">
      <path id="path3351" d="m417.65 619.98c2.1931 11.325 69.938-13.823 76.21-30.488-2.6466-26.711-80.078 19.763-76.21 30.488z"/>
      <path id="path3353" d="m416.17 626.45c1.2735 1.641-5.5867 2.9984-3.3617 6.2698 1.9277 1.8836 10.403-5.7917 10.189-9.7574 0.19283-0.90276-0.8175-2.579-1.4146-3.6561-3.5875-6.3314-12.791-2.048-19.261 1.8304-2.7449 0.41628-1.0472 4.9944 0.36742 7.5074 1.4464 2.5175 9.1437-0.95684 13.481-2.1941z"/>
    </g>
    <path id="path2878" d="m250.75 181.49-45.668-12.237 33.431-33.431 12.237 45.668z" stroke-dashoffset="63" transform="matrix(1.1242 -.29976 .29976 1.1242 88.671 492.56)" stroke="#000" stroke-linecap="round" stroke-width="1.7189" fill="#fff"/>
  </g>
  <metadata>
    <rdf:RDF>
      <cc:Work>
        <dc:format>image/svg+xml</dc:format>
        <dc:type rdf:resource="http://purl.org/dc/dcmitype/StillImage"/>
        <cc:license rdf:resource="http://creativecommons.org/licenses/publicdomain/"/>
        <dc:publisher>
          <cc:Agent rdf:about="http://openclipart.org/">
            <dc:title>Openclipart</dc:title>
          </cc:Agent>
        </dc:publisher>
        <dc:title>Here you are</dc:title>
        <dc:date>2011-03-01T02:35:51</dc:date>
        <dc:description>A shopkeeper figure hands a customer a triangle he selected from a choice of a triangle, a circle, and a star.  A speech bubble includes the English text, "Here you are".</dc:description>
        <dc:source>http://openclipart.org/detail/124375/here-you-are-by-evilestmark</dc:source>
        <dc:creator>
          <cc:Agent>
            <dc:title>evilestmark</dc:title>
          </cc:Agent>
        </dc:creator>
        <dc:subject>
          <rdf:Bag>
            <rdf:li>Here you are</rdf:li>
            <rdf:li>action</rdf:li>
            <rdf:li>clip art</rdf:li>
            <rdf:li>clipart</rdf:li>
            <rdf:li>figure</rdf:li>
            <rdf:li>giving</rdf:li>
            <rdf:li>interaction</rdf:li>
            <rdf:li>selecting</rdf:li>
            <rdf:li>selling</rdf:li>
            <rdf:li>shapes</rdf:li>
            <rdf:li>shopping</rdf:li>
            <rdf:li>stick figure</rdf:li>
            <rdf:li>triangle</rdf:li>
          </rdf:Bag>
        </dc:subject>
      </cc:Work>
      <cc:License rdf:about="http://creativecommons.org/licenses/publicdomain/">
        <cc:permits rdf:resource="http://creativecommons.org/ns#Reproduction"/>
        <cc:permits rdf:resource="http://creativecommons.org/ns#Distribution"/>
        <cc:permits rdf:resource="http://creativecommons.org/ns#DerivativeWorks"/>
      </cc:License>
    </rdf:RDF>
  </metadata>
</svg>
