<?xml version="1.0"?>
<svg xmlns:rdf="http://www.w3.org/1999/02/22-rdf-syntax-ns#" xmlns="http://www.w3.org/2000/svg" xmlns:cc="http://creativecommons.org/ns#" xmlns:dc="http://purl.org/dc/elements/1.1/" xmlns:svg="http://www.w3.org/2000/svg" id="svg2" viewBox="0 0 744.09 1052.4" version="1.1">
  <g id="layer1">
    <g id="g3874">
      <g id="g3856">
        <g id="g236" fill="#1a1a1a" transform="translate(343.29 285.49)">
          <path id="path238" fill="#1a1a1a" d="m198.88 355.36c0 16.016-12.983 29-29 29h-140.88c-16.016 0-29-12.984-29-29v-326.36c0-16.016 12.984-29 29-29h140.88c16.017 0 29 12.984 29 29v326.36z"/>
        </g>
        <g id="g240" transform="translate(343.29 285.49)">
          <path id="path242" d="m191.71 349.71c0 16.346-13.681 29.595-30.561 29.595h-124.92c-16.878 0-30.561-13.249-30.561-29.595v-313.67c0.003-16.341 13.685-29.591 30.564-29.591h124.92c16.88 0 30.561 13.25 30.561 29.595v313.67z"/>
        </g>
        <path id="path244" stroke="#000" fill="#fff" d="m527.49 626.76c0 16.017-12.983 29-29 29h-112c-16.016 0-29-12.983-29-29v-300c0-16.016 12.984-29 29-29h112c16.017 0 29 12.984 29 29v300z"/>
        <path id="path267" fill="url(#SVGID_1_)" d="m527.49 626.76c0 16.017-12.983 29-29 29h-112c-16.016 0-29-12.983-29-29v-300c0-16.016 12.984-29 29-29h112c16.017 0 29 12.984 29 29v300z"/>
        <path id="path290" fill="url(#SVGID_2_)" d="m527.49 498.86v-172.1c0-16.016-12.983-29-29-29h-112c-16.016 0-29 12.984-29 29v164.64c43.648 16.149 107.51 29.898 170 7.457z"/>
        <path id="path292" d="m357.49 629.39c0 16.226 12.984 29.378 29 29.378h112c16.017 0 29-13.152 29-29.378v-26.847h-170v26.847zm141-333.29h-112c-16.016 0-29 13.153-29 29.378v17.728h170v-17.728c0-16.224-12.984-29.378-29-29.378z" stroke="#000" stroke-width="4" fill="#1a1a1a"/>
        <g id="g3569" transform="translate(62.149 -.88838)">
          <rect id="rect3571" rx="4.1317" ry="4.2209" height="23.163" width="44.029" y="613.67" x="306.91"/>
          <path id="path3573" d="m350.94 625.54s-8.8382 3.4062-21.44 3.2544c-12.602-0.15187-22.589-3.2544-22.589-3.2544v7.3607c0 2.3384 1.8428 4.2209 4.1317 4.2209h35.766c2.289 0 4.1317-1.8825 4.1317-4.2209v-7.3607z" fill="#4d4d4d"/>
          <rect id="rect3575" rx="2" ry="2" height="16.463" width="37.138" y="617.5" x="310.36" fill="#999"/>
        </g>
        <g id="g3577" transform="translate(164.11 -.88838)">
          <rect id="rect3579" rx="4.1317" ry="4.2209" height="23.163" width="44.029" y="613.67" x="306.91"/>
          <path id="path3581" d="m350.94 625.54s-8.8382 3.4062-21.44 3.2544c-12.602-0.15187-22.589-3.2544-22.589-3.2544v7.3607c0 2.3384 1.8428 4.2209 4.1317 4.2209h35.766c2.289 0 4.1317-1.8825 4.1317-4.2209v-7.3607z" fill="#4d4d4d"/>
          <rect id="rect3583" rx="2" ry="2" height="16.463" width="37.138" y="617.5" x="310.36" fill="#999"/>
        </g>
      </g>
      <g id="g3638" transform="translate(-165.33 -68.144)">
        <rect id="rect3529" y="486.33" width="118.96" height="118.96" x="548.58"/>
        <rect id="rect3585" height="89.223" width="89.223" y="501.2" x="563.45" fill="#fff"/>
        <g id="g3623" transform="translate(2,2)">
          <rect id="rect3589" y="509.04" width="14.276" height="14.276" x="570.26"/>
          <rect id="rect3599" y="523.04" width="14.276" height="14.276" x="584.26"/>
          <rect id="rect3601" y="537.04" width="14.276" height="14.276" x="598.26"/>
          <rect id="rect3603" y="551.04" width="14.276" height="14.276" x="612.26"/>
          <rect id="rect3605" y="523.04" width="14.276" height="14.276" x="612.26"/>
          <rect id="rect3607" y="537.04" width="14.276" height="14.276" x="626.26"/>
          <rect id="rect3609" y="509.04" width="14.276" height="14.276" x="626.26"/>
          <rect id="rect3611" y="565.04" width="14.276" height="14.276" x="626.26"/>
          <rect id="rect3613" y="565.04" width="14.276" height="14.276" x="598.26"/>
          <rect id="rect3615" y="565.04" width="14.276" height="14.276" x="570.26"/>
          <rect id="rect3617" y="551.04" width="14.276" height="14.276" x="584.26"/>
          <rect id="rect3619" y="537.04" width="14.276" height="14.276" x="570.26"/>
          <rect id="rect3621" y="509.04" width="14.276" height="14.276" x="598.26"/>
        </g>
      </g>
    </g>
    <g id="g4787" transform="translate(142.95 -79.943)" stroke="#000" stroke-linecap="square" stroke-width="15" fill="none">
      <path id="path4769" d="m143.03 381.32c0-39.942 32.38-72.322 72.322-72.322"/>
      <path id="path4771" d="m179.19 381.32c0-19.971 16.19-36.161 36.161-36.161"/>
      <path id="path4775" d="m106.87 381.32c0-59.913 48.569-108.48 108.48-108.48"/>
    </g>
  </g>
  <metadata>
    <rdf:RDF>
      <cc:Work>
        <dc:format>image/svg+xml</dc:format>
        <dc:type rdf:resource="http://purl.org/dc/dcmitype/StillImage"/>
        <cc:license rdf:resource="http://creativecommons.org/licenses/publicdomain/"/>
        <dc:publisher>
          <cc:Agent rdf:about="http://openclipart.org/">
            <dc:title>Openclipart</dc:title>
          </cc:Agent>
        </dc:publisher>
        <dc:title>qrcode reader</dc:title>
        <dc:date>2011-04-16T06:59:03</dc:date>
        <dc:description>I created this icon to add into a logo of a new service base on qrcode.&#xD;\nIt is very explicit on how the qrcode works.&#xD;\n</dc:description>
        <dc:source>http://openclipart.org/detail/132709/qrcode-reader-by-dexmilano</dc:source>
        <dc:creator>
          <cc:Agent>
            <dc:title>dexMilano</dc:title>
          </cc:Agent>
        </dc:creator>
        <dc:subject>
          <rdf:Bag>
            <rdf:li>cell</rdf:li>
            <rdf:li>clip art</rdf:li>
            <rdf:li>clipart</rdf:li>
            <rdf:li>mobile</rdf:li>
            <rdf:li>phone</rdf:li>
            <rdf:li>qrcode</rdf:li>
            <rdf:li>smartphone</rdf:li>
          </rdf:Bag>
        </dc:subject>
      </cc:Work>
      <cc:License rdf:about="http://creativecommons.org/licenses/publicdomain/">
        <cc:permits rdf:resource="http://creativecommons.org/ns#Reproduction"/>
        <cc:permits rdf:resource="http://creativecommons.org/ns#Distribution"/>
        <cc:permits rdf:resource="http://creativecommons.org/ns#DerivativeWorks"/>
      </cc:License>
    </rdf:RDF>
  </metadata>
</svg>
