<?xml version="1.0" encoding="UTF-8" standalone="no"?>
<!-- Created with Inkscape (http://www.inkscape.org/) -->

<svg
   xmlns:dc="http://purl.org/dc/elements/1.1/"
   xmlns:cc="http://creativecommons.org/ns#"
   xmlns:rdf="http://www.w3.org/1999/02/22-rdf-syntax-ns#"
   xmlns:svg="http://www.w3.org/2000/svg"
   xmlns="http://www.w3.org/2000/svg"
   xmlns:xlink="http://www.w3.org/1999/xlink"
   xmlns:sodipodi="http://sodipodi.sourceforge.net/DTD/sodipodi-0.dtd"
   xmlns:inkscape="http://www.inkscape.org/namespaces/inkscape"
   width="509.72186"
   height="490.66714"
   id="svg23697"
   version="1.1"
   inkscape:version="0.48.2 r9819"
   sodipodi:docname="chick.svg"
   inkscape:export-filename="C:\Users\user\Pictures\concept_preposition_for.png"
   inkscape:export-xdpi="49.279999"
   inkscape:export-ydpi="49.279999">
  <defs
     id="defs23699">
    <linearGradient
       inkscape:collect="always"
       id="linearGradient4000">
      <stop
         style="stop-color:#7d9d00;stop-opacity:1"
         offset="0"
         id="stop4002" />
      <stop
         style="stop-color:#9cc300;stop-opacity:0;"
         offset="1"
         id="stop4004" />
    </linearGradient>
    <linearGradient
       inkscape:collect="always"
       id="linearGradient3986">
      <stop
         style="stop-color:#d65500;stop-opacity:1;"
         offset="0"
         id="stop3988" />
      <stop
         style="stop-color:#d65500;stop-opacity:0;"
         offset="1"
         id="stop3990" />
    </linearGradient>
    <linearGradient
       inkscape:collect="always"
       id="linearGradient3976">
      <stop
         style="stop-color:#ffffff;stop-opacity:1;"
         offset="0"
         id="stop3978" />
      <stop
         style="stop-color:#ffffff;stop-opacity:0;"
         offset="1"
         id="stop3980" />
    </linearGradient>
    <linearGradient
       inkscape:collect="always"
       id="linearGradient3968">
      <stop
         style="stop-color:#000000;stop-opacity:0.02621723"
         offset="0"
         id="stop3970" />
      <stop
         style="stop-color:#ffffff;stop-opacity:1"
         offset="1"
         id="stop3972" />
    </linearGradient>
    <linearGradient
       inkscape:collect="always"
       id="linearGradient3909">
      <stop
         style="stop-color:#ffe700;stop-opacity:1"
         offset="0"
         id="stop3911" />
      <stop
         style="stop-color:#ffc500;stop-opacity:1"
         offset="1"
         id="stop3913" />
    </linearGradient>
    <radialGradient
       inkscape:collect="always"
       xlink:href="#linearGradient3909"
       id="radialGradient3915"
       cx="163.57587"
       cy="626.47119"
       fx="163.57587"
       fy="626.47119"
       r="233.37218"
       gradientTransform="matrix(0.88895995,0.90859183,-0.36683777,0.35891609,258.73781,297.44396)"
       gradientUnits="userSpaceOnUse" />
    <filter
       inkscape:collect="always"
       id="filter3940"
       x="-0.089101963"
       width="1.1782039"
       y="-0.12267074"
       height="1.2453415"
       color-interpolation-filters="sRGB">
      <feGaussianBlur
         inkscape:collect="always"
         stdDeviation="5.2801164"
         id="feGaussianBlur3942" />
    </filter>
    <filter
       inkscape:collect="always"
       id="filter3962"
       x="-0.1225215"
       width="1.245043"
       y="-0.49253649"
       height="1.985073"
       color-interpolation-filters="sRGB">
      <feGaussianBlur
         inkscape:collect="always"
         stdDeviation="26.900779"
         id="feGaussianBlur3964" />
    </filter>
    <linearGradient
       inkscape:collect="always"
       xlink:href="#linearGradient3968"
       id="linearGradient3974"
       x1="140.25601"
       y1="114.62366"
       x2="137.63441"
       y2="77.265747"
       gradientUnits="userSpaceOnUse" />
    <linearGradient
       inkscape:collect="always"
       xlink:href="#linearGradient3976"
       id="linearGradient3982"
       x1="137.4393"
       y1="107.06189"
       x2="141.52258"
       y2="107.6647"
       gradientUnits="userSpaceOnUse" />
    <linearGradient
       inkscape:collect="always"
       xlink:href="#linearGradient3986"
       id="linearGradient3992"
       x1="30.356806"
       y1="197.54875"
       x2="27.209444"
       y2="185.77153"
       gradientUnits="userSpaceOnUse"
       gradientTransform="translate(-0.20305556,553.37746)" />
    <filter
       inkscape:collect="always"
       id="filter3996"
       x="-0.10258937"
       width="1.2051787"
       y="-0.14452814"
       height="1.2890563"
       color-interpolation-filters="sRGB">
      <feGaussianBlur
         inkscape:collect="always"
         stdDeviation="5.938238"
         id="feGaussianBlur3998" />
    </filter>
    <linearGradient
       inkscape:collect="always"
       xlink:href="#linearGradient4000"
       id="linearGradient4006"
       x1="389.86667"
       y1="731.53442"
       x2="374.43445"
       y2="653.5611"
       gradientUnits="userSpaceOnUse" />
    <linearGradient
       inkscape:collect="always"
       xlink:href="#linearGradient4000"
       id="linearGradient4027"
       gradientUnits="userSpaceOnUse"
       x1="389.86667"
       y1="731.53442"
       x2="374.43445"
       y2="653.5611" />
    <radialGradient
       inkscape:collect="always"
       xlink:href="#linearGradient3909"
       id="radialGradient4029"
       gradientUnits="userSpaceOnUse"
       gradientTransform="matrix(0.88895995,0.90859183,-0.36683777,0.35891609,258.73781,297.44396)"
       cx="163.57587"
       cy="626.47119"
       fx="163.57587"
       fy="626.47119"
       r="233.37218" />
    <linearGradient
       inkscape:collect="always"
       xlink:href="#linearGradient3976"
       id="linearGradient4031"
       gradientUnits="userSpaceOnUse"
       x1="137.4393"
       y1="107.06189"
       x2="141.52258"
       y2="107.6647" />
    <linearGradient
       inkscape:collect="always"
       xlink:href="#linearGradient3968"
       id="linearGradient4033"
       gradientUnits="userSpaceOnUse"
       x1="140.25601"
       y1="114.62366"
       x2="137.63441"
       y2="77.265747" />
    <linearGradient
       inkscape:collect="always"
       xlink:href="#linearGradient3986"
       id="linearGradient4035"
       gradientUnits="userSpaceOnUse"
       gradientTransform="translate(-0.20305556,553.37746)"
       x1="30.356806"
       y1="197.54875"
       x2="27.209444"
       y2="185.77153" />
  </defs>
  <sodipodi:namedview
     id="base"
     pagecolor="#ffffff"
     bordercolor="#666666"
     borderopacity="1.0"
     inkscape:pageopacity="0.0"
     inkscape:pageshadow="2"
     inkscape:zoom="0.61559508"
     inkscape:cx="256.47028"
     inkscape:cy="348.57461"
     inkscape:document-units="px"
     inkscape:current-layer="layer1"
     showgrid="false"
     inkscape:window-width="1276"
     inkscape:window-height="756"
     inkscape:window-x="4"
     inkscape:window-y="0"
     inkscape:window-maximized="1"
     fit-margin-top="0"
     fit-margin-left="0"
     fit-margin-right="0"
     fit-margin-bottom="0" />
  <metadata
     id="metadata23702">
    <rdf:RDF>
      <cc:Work
         rdf:about="">
        <dc:format>image/svg+xml</dc:format>
        <dc:type
           rdf:resource="http://purl.org/dc/dcmitype/StillImage" />
        <dc:title></dc:title>
      </cc:Work>
    </rdf:RDF>
  </metadata>
  <g
     inkscape:label="Layer 1"
     inkscape:groupmode="layer"
     id="layer1"
     transform="translate(0.56562107,-561.02978)">
    <g
       id="g4008">
      <path
         transform="matrix(0.6515036,0,0,0.59939842,39.34832,705.44249)"
         d="m 639.6723,447.56784 c 0,36.19685 -117.96025,65.54019 -263.47159,65.54019 -145.51134,0 -263.47158,-29.34334 -263.47158,-65.54019 0,-36.19685 117.96024,-65.54019 263.47158,-65.54019 145.51134,0 263.47159,29.34334 263.47159,65.54019 z"
         sodipodi:ry="65.540192"
         sodipodi:rx="263.47159"
         sodipodi:cy="447.56784"
         sodipodi:cx="376.20071"
         id="path3948"
         style="opacity:0.73818204;fill:#b09c2e;fill-opacity:1;stroke:none;filter:url(#filter3962)"
         sodipodi:type="arc" />
      <g
         id="g3929">
        <path
           style="color:#000000;fill:none;stroke:#280b0b;stroke-width:7.99999952;stroke-linecap:round;stroke-linejoin:round;stroke-miterlimit:4.19999981;stroke-opacity:1;stroke-dasharray:none;stroke-dashoffset:0;marker:none;visibility:visible;display:inline;overflow:visible;enable-background:accumulate"
           d="m 206.13981,843.01409 12.42153,157.23731 56.26415,17.2357"
           id="path3851-4-6-1-6"
           inkscape:connector-curvature="0"
           sodipodi:nodetypes="ccc" />
        <path
           style="color:#000000;fill:none;stroke:#280b0b;stroke-width:7.99999952;stroke-linecap:round;stroke-linejoin:round;stroke-miterlimit:4.19999981;stroke-opacity:1;stroke-dasharray:none;stroke-dashoffset:0;marker:none;visibility:visible;display:inline;overflow:visible;enable-background:accumulate"
           d="m 166.15257,1021.108 49.55338,-19.4002 -7.07906,38.8003 0,0"
           id="path6131"
           inkscape:connector-curvature="0" />
      </g>
      <g
         id="g3925">
        <path
           style="color:#000000;fill:none;stroke:#280b0b;stroke-width:7.99999952;stroke-linecap:round;stroke-linejoin:round;stroke-miterlimit:4.19999981;stroke-opacity:1;stroke-dasharray:none;stroke-dashoffset:0;marker:none;visibility:visible;display:inline;overflow:visible;enable-background:accumulate"
           d="m 325.24021,844.437 12.42153,157.2373 56.26415,17.2357"
           id="path3851-4-6-1-6-5"
           inkscape:connector-curvature="0"
           sodipodi:nodetypes="ccc" />
        <path
           style="color:#000000;fill:none;stroke:#280b0b;stroke-width:7.99999952;stroke-linecap:round;stroke-linejoin:round;stroke-miterlimit:4.19999981;stroke-opacity:1;stroke-dasharray:none;stroke-dashoffset:0;marker:none;visibility:visible;display:inline;overflow:visible;enable-background:accumulate"
           d="m 285.25297,1022.5309 49.55338,-19.4002 -7.07906,38.8003 0,0"
           id="path6131-4"
           inkscape:connector-curvature="0" />
      </g>
      <path
         sodipodi:nodetypes="szscssss"
         inkscape:connector-curvature="0"
         id="path6055"
         d="m 282.43396,242.71014 c -1.09277,1.09277 -14.17342,-0.50311 -26.18878,-2.51088 -12.01536,-2.00777 -35.92028,-11.6798 -36.32026,-13.17255 -0.19999,-0.74637 29.12351,-15.89909 45.17288,-23.51834 -14.73767,-2.23626 -45.04222,-7.25489 -44.49584,-7.80128 1.09277,-1.09277 10.20047,-19.79577 53.75884,-23.11626 1.5389,-0.11731 12.77257,34.82751 13.17255,36.32026 0.39998,1.49275 -4.00662,32.70628 -5.09939,33.79905 z"
         inkscape:transform-center-y="-5.5920654"
         inkscape:transform-center-x="3.5927131"
         style="color:#000000;fill:#ff7f2a;fill-opacity:1;fill-rule:nonzero;stroke:#ffffff;stroke-width:0;stroke-linecap:butt;stroke-linejoin:miter;stroke-miterlimit:4;stroke-opacity:1;stroke-dashoffset:0;marker:none;visibility:visible;display:inline;overflow:visible;enable-background:accumulate"
         transform="matrix(0.86244909,-0.05611046,0.06245203,0.77487327,-202.98562,581.44138)" />
      <path
         inkscape:export-ydpi="94.029999"
         inkscape:export-xdpi="94.029999"
         inkscape:export-filename="C:\Users\user\Pictures\[svg]English_concepts\chicken.png"
         sodipodi:nodetypes="sscsss"
         inkscape:connector-curvature="0"
         id="path23705-3-7-6"
         d="m 336.16578,654.11914 c 28.93773,-15.07362 84.1295,-20.4717 104.71377,0.67253 10.29213,10.57211 15.66924,49.33251 -28.19168,45.91075 25.17796,13.63491 12.48902,22.44989 -1.97984,29.98669 -28.93773,15.07361 -69.08323,10.15244 -89.66749,-10.99176 -20.58428,-21.14424 -13.81247,-50.5046 15.12524,-65.57821 z"
         style="color:#000000;fill:#aad400;fill-opacity:1;fill-rule:nonzero;stroke:#008000;stroke-width:1;stroke-linecap:butt;stroke-linejoin:miter;stroke-miterlimit:4;stroke-opacity:1;stroke-dasharray:none;stroke-dashoffset:0;marker:none;visibility:visible;display:inline;overflow:visible;enable-background:accumulate" />
      <path
         transform="matrix(0.97574357,0,0,0.98722042,7.1527329,8.0072329)"
         style="opacity:0.98999999;color:#000000;fill:url(#linearGradient4027);fill-opacity:1;fill-rule:nonzero;stroke:none;stroke-width:1;marker:none;visibility:visible;display:inline;overflow:visible;filter:url(#filter3996);enable-background:accumulate"
         d="m 336.16578,654.11914 c 28.93773,-15.07362 84.1295,-20.4717 104.71377,0.67253 10.29213,10.57211 15.66924,49.33251 -28.19168,45.91075 25.17796,13.63491 12.48902,22.44989 -1.97984,29.98669 -28.93773,15.07361 -69.08323,10.15244 -89.66749,-10.99176 -20.58428,-21.14424 -13.81247,-50.5046 15.12524,-65.57821 z"
         id="path3994"
         inkscape:connector-curvature="0"
         sodipodi:nodetypes="sscsss"
         inkscape:export-filename="C:\Users\user\Pictures\[svg]English_concepts\chicken.png"
         inkscape:export-xdpi="94.029999"
         inkscape:export-ydpi="94.029999" />
      <path
         inkscape:export-ydpi="94.029999"
         inkscape:export-xdpi="94.029999"
         inkscape:export-filename="C:\Users\user\Pictures\[svg]English_concepts\chicken.png"
         sodipodi:nodetypes="sccss"
         inkscape:connector-curvature="0"
         id="path23705-3"
         d="m 302.51975,608.50995 c 63.16178,47.1985 150.56308,210.10212 206.21167,178.30653 C 437.60246,901.47095 238.38756,938.46018 123.67334,858.42579 41.903019,797.32183 17.425009,688.459 69.000173,615.27385 120.57534,542.08872 220.74944,547.40598 302.51975,608.50995 z"
         style="color:#000000;fill:url(#radialGradient4029);fill-opacity:1;fill-rule:nonzero;stroke:#ff8f00;stroke-width:1;stroke-linecap:butt;stroke-linejoin:miter;stroke-miterlimit:4;stroke-opacity:1;stroke-dasharray:none;stroke-dashoffset:0;marker:none;visibility:visible;display:inline;overflow:visible;enable-background:accumulate" />
      <path
         transform="translate(0,552.36218)"
         inkscape:connector-curvature="0"
         id="path3934"
         d="m 243.15412,260.77829 c 0,0 32.1147,55.05376 75.37123,46.53354 43.25652,-8.52023 66.85099,-26.21608 66.85099,-32.7701 0,-6.55402 -5.24321,-36.04711 -13.76344,-37.35791 -8.52022,-1.3108 -16.38505,-7.20942 -16.38505,-7.20942 0,0 20.97287,-1.96621 22.28367,-5.89862 1.3108,-3.93241 9.83103,-12.45264 -15.07424,-18.35125 -24.90528,-5.89862 -102.89811,21.62826 -110.76293,31.45929 -7.86483,9.83103 -8.52023,23.59447 -8.52023,23.59447 z"
         style="opacity:0.43272729;fill:#658d00;fill-opacity:1;stroke:none;filter:url(#filter3940)" />
      <path
         id="path23705-3-7"
         transform="translate(0,552.36218)"
         d="m 289.6875,186.6875 c -10.83982,0.03 -20.64896,0.66184 -27.84375,1.84375 -14.85481,2.44024 -19.6106,7.80489 -14.5625,13.875 -5.38975,1.7239 -8.96957,6.56143 -10.40625,16.3125 -4.13173,28.04306 17.966,59.06351 49.34375,69.28125 31.37774,10.21773 78.5245,-0.55069 82.65625,-28.59375 2.66754,-18.10517 -16.13088,-27.66558 -38.21875,-34.9375 7.26421,0.0609 14.00104,-0.36297 19.78125,-1.3125 23.02334,-3.78209 33.21816,-17.53332 8.75,-27.09375 -16.8219,-6.5728 -45.6524,-9.44111 -69.5,-9.375 z"
         style="color:#000000;fill:#aad400;fill-opacity:1;fill-rule:nonzero;stroke:#008000;stroke-width:1;stroke-linecap:butt;stroke-linejoin:miter;stroke-miterlimit:4;stroke-opacity:1;stroke-dasharray:none;stroke-dashoffset:0;marker:none;visibility:visible;display:inline;overflow:visible;enable-background:accumulate"
         inkscape:connector-curvature="0" />
      <path
         inkscape:export-ydpi="94.029999"
         inkscape:export-xdpi="94.029999"
         inkscape:export-filename="C:\Users\user\Pictures\[svg]English_concepts\chicken.png"
         transform="matrix(1.2388347,0,0,1.1316758,-361.23707,437.37969)"
         d="m 420,194.09448 c 0,10.25672 -7.67511,18.57143 -17.14285,18.57143 -9.46774,0 -17.14286,-8.31471 -17.14286,-18.57143 0,-10.25671 7.67512,-18.57143 17.14286,-18.57143 9.46774,0 17.14285,8.31472 17.14285,18.57143 z"
         sodipodi:ry="18.571428"
         sodipodi:rx="17.142857"
         sodipodi:cy="194.09448"
         sodipodi:cx="402.85715"
         id="path6057"
         style="color:#000000;fill:#000000;fill-opacity:1;fill-rule:nonzero;stroke:#ffffff;stroke-width:0;stroke-linecap:butt;stroke-linejoin:miter;stroke-miterlimit:4;stroke-opacity:1;stroke-dasharray:none;stroke-dashoffset:0;marker:none;visibility:visible;display:inline;overflow:visible;enable-background:accumulate"
         sodipodi:type="arc" />
      <path
         inkscape:transform-center-y="-11.141833"
         sodipodi:end="5.0444223"
         sodipodi:start="4.20697"
         transform="matrix(-0.50578368,-1.3766968,1.2515425,-0.45980332,63.653133,896.57756)"
         d="m 131.56368,104.05558 c 2.43693,-1.3485 5.33148,-1.60007 7.96451,-0.69221 l -3.20458,9.29408 z"
         sodipodi:ry="9.8310289"
         sodipodi:rx="9.8310289"
         sodipodi:cy="112.65745"
         sodipodi:cx="136.32361"
         id="path3946"
         style="fill:url(#linearGradient4031);fill-opacity:1;stroke:none"
         sodipodi:type="arc" />
      <path
         sodipodi:nodetypes="cscc"
         transform="translate(0,552.36218)"
         inkscape:connector-curvature="0"
         id="path3966"
         d="m 118.19725,102.93887 c 0,0 2.62161,-16.577011 19.05323,-16.577011 15.50475,0 20.20501,16.464561 20.20501,16.464561 z"
         style="fill:url(#linearGradient4033);fill-opacity:1;stroke:none" />
      <path
         sodipodi:nodetypes="cccc"
         inkscape:connector-curvature="0"
         id="path3984"
         d="m 6.2850926,745.65386 c 0,0 16.6838094,7.41502 42.6364024,8.3419 -3.287407,-9.32743 -5.066759,-21.50813 -5.066759,-21.50813 z"
         style="fill:url(#linearGradient4035);fill-opacity:1;stroke:none" />
    </g>
  </g>
</svg>
