<?xml version="1.0" encoding="UTF-8" standalone="no"?>


<svg
   xmlns:dc="http://purl.org/dc/elements/1.1/"
   xmlns:cc="http://creativecommons.org/ns#"
   xmlns:rdf="http://www.w3.org/1999/02/22-rdf-syntax-ns#"
   xmlns:svg="http://www.w3.org/2000/svg"
   xmlns="http://www.w3.org/2000/svg"
   xmlns:sodipodi="http://sodipodi.sourceforge.net/DTD/sodipodi-0.dtd"
   xmlns:inkscape="http://www.inkscape.org/namespaces/inkscape"
   version="1.1"
   id="Layer_1"
   x="0px"
   y="0px"
   viewBox="1304.8558 -17.8962 1495.5209 508.3554"
   enable-background="new 1304.8558 -17.8962 1495.5209 508.3554"
   xml:space="preserve"
   inkscape:version="0.91 r13725"
   sodipodi:docname="Anthropomorphic Eggs.svg"><metadata
     id="metadata141"><rdf:RDF><cc:Work
         rdf:about=""><dc:format>image/svg+xml</dc:format><dc:type
           rdf:resource="http://purl.org/dc/dcmitype/StillImage" /></cc:Work></rdf:RDF></metadata><defs
     id="defs139"><filter
       style="color-interpolation-filters:sRGB;"
       inkscape:label="Drop Shadow"
       id="filter4472"><feFlood
         flood-opacity="0.686275"
         flood-color="rgb(0,0,0)"
         result="flood"
         id="feFlood4474" /><feComposite
         in="flood"
         in2="SourceGraphic"
         operator="in"
         result="composite1"
         id="feComposite4476" /><feGaussianBlur
         in="composite1"
         stdDeviation="13"
         result="blur"
         id="feGaussianBlur4478" /><feOffset
         dx="9.4"
         dy="9.6"
         result="offset"
         id="feOffset4480" /><feComposite
         in="SourceGraphic"
         in2="offset"
         operator="over"
         result="composite2"
         id="feComposite4482" /></filter><filter
       style="color-interpolation-filters:sRGB;"
       inkscape:label="Drop Shadow"
       id="filter4484"><feFlood
         flood-opacity="0.686275"
         flood-color="rgb(0,0,0)"
         result="flood"
         id="feFlood4486" /><feComposite
         in="flood"
         in2="SourceGraphic"
         operator="in"
         result="composite1"
         id="feComposite4488" /><feGaussianBlur
         in="composite1"
         stdDeviation="13"
         result="blur"
         id="feGaussianBlur4490" /><feOffset
         dx="9.4"
         dy="9.6"
         result="offset"
         id="feOffset4492" /><feComposite
         in="SourceGraphic"
         in2="offset"
         operator="over"
         result="composite2"
         id="feComposite4494" /></filter><filter
       style="color-interpolation-filters:sRGB;"
       inkscape:label="Drop Shadow"
       id="filter4496"><feFlood
         flood-opacity="0.686275"
         flood-color="rgb(0,0,0)"
         result="flood"
         id="feFlood4498" /><feComposite
         in="flood"
         in2="SourceGraphic"
         operator="in"
         result="composite1"
         id="feComposite4500" /><feGaussianBlur
         in="composite1"
         stdDeviation="13"
         result="blur"
         id="feGaussianBlur4502" /><feOffset
         dx="9.4"
         dy="9.6"
         result="offset"
         id="feOffset4504" /><feComposite
         in="SourceGraphic"
         in2="offset"
         operator="over"
         result="composite2"
         id="feComposite4506" /></filter><filter
       style="color-interpolation-filters:sRGB;"
       inkscape:label="Drop Shadow"
       id="filter4508"><feFlood
         flood-opacity="0.686275"
         flood-color="rgb(0,0,0)"
         result="flood"
         id="feFlood4510" /><feComposite
         in="flood"
         in2="SourceGraphic"
         operator="in"
         result="composite1"
         id="feComposite4512" /><feGaussianBlur
         in="composite1"
         stdDeviation="13"
         result="blur"
         id="feGaussianBlur4514" /><feOffset
         dx="9.4"
         dy="9.6"
         result="offset"
         id="feOffset4516" /><feComposite
         in="SourceGraphic"
         in2="offset"
         operator="over"
         result="composite2"
         id="feComposite4518" /></filter></defs><sodipodi:namedview
     pagecolor="#ffffff"
     bordercolor="#666666"
     borderopacity="1"
     objecttolerance="10"
     gridtolerance="10"
     guidetolerance="10"
     inkscape:pageopacity="0"
     inkscape:pageshadow="2"
     inkscape:window-width="640"
     inkscape:window-height="480"
     id="namedview137"
     showgrid="false"
     inkscape:zoom="0.74353417"
     inkscape:cx="604.41069"
     inkscape:cy="188.74906"
     inkscape:current-layer="Layer_1" /><g
     id="g3"
     style="filter:url(#filter4508)"><linearGradient
       id="SVGID_1_"
       gradientUnits="userSpaceOnUse"
       x1="1406.5702"
       y1="114.2641"
       x2="1635.8287"
       y2="387.4838"><stop
         offset="0"
         style="stop-color:#FFFFFF"
         id="stop6" /><stop
         offset="1"
         style="stop-color:#C7C5C0"
         id="stop8" /></linearGradient><ellipse
       fill="url(#SVGID_1_)"
       cx="1523.8926"
       cy="254.0837"
       rx="142.1179"
       ry="210.2293"
       id="ellipse10" /><path
       d="M1496,54.6581c4.9557-14.646,11.6354-29.2138,19.5234-42.5126C1510.5758,26.7949,1503.8798,41.3547,1496,54.6581z"
       id="path12" /><path
       d="M1505.7617,59.9802c3.5027-13.6083,8.7455-27.3019,15.2527-39.757C1517.5208,33.8345,1512.2603,47.5213,1505.7617,59.9802z   "
       id="path14" /><path
       d="M1536.5,8.25c-5.2517,16.5175-12.2087,32.9487-20.4385,48.203C1521.3042,39.9322,1528.2789,23.5084,1536.5,8.25z"
       id="path16" /><g
       id="g18"><path
         fill="#010101"
         d="M1599.3953,134.11c3.0499-8.96,14.1799-10.14,22.2799-10.41c-0.1,0.62-0.2899,1.85-0.39,2.46    c-7.1399,0.6-15.47,1.45-19.73,8.05C1601.0153,134.19,1599.9352,134.14,1599.3953,134.11z"
         id="path20" /><path
         fill="#010101"
         d="M1543.5752,125.77c7.03,0.39,15.5,0.48,20.3301,6.46l0.0299,0.78c-0.51,0.18-1.5299,0.53-2.0399,0.71    c-4.76-4.91-12.0801-4.95-18.4301-5.33C1543.4952,127.74,1543.5552,126.42,1543.5752,125.77z"
         id="path22" /><path
         d="M1546.5952,153.09c2.61-4.54,7.3-8.62,12.84-8.19c4.8301,0.16,8.5801,3.78,11.16,7.53c6.38,11.04,6.67,25.63-0.0599,36.59    c-2.66,4.37-7.4401,8.07-12.8,7.53c-4.85-0.39-8.63-4.05-11.09-7.98C1540.6252,177.84,1540.5852,163.82,1546.5952,153.09     M1552.0952,149.62c-4.36,3.99-6.55,9.8-7.48,15.53c-1.09,8.59,0.14,18.07,5.78,24.96c2.5299,3.22,6.9299,5.31,11,4.02    c4.2799-1.22,6.6799-5.26,9.02-8.72c-2.02-0.12-4.4801,0.34-5.92-1.46c-3.25-3.41-3.96-8.46-3.87-12.99    c0.34-4.28,1.29-9.31,5.2-11.78c1.9401-1.29,4.0901,0.09,6.03,0.61c-2.01-4.59-4.39-9.65-9.15-11.94    C1559.2352,146.1,1554.8953,147.05,1552.0952,149.62z"
         id="path24" /><path
         d="M1604.3352,145.89c4.24-2.07,9.52-0.89,12.89,2.28c5.1899,4.63,7.25,11.6,8.4301,18.22    c0.1599,7.84-0.4901,16.14-4.9801,22.85c-2.8099,4.6-8.13,8.3-13.73,7.17c-5.99-1.2-9.7799-6.65-12.0399-11.92    c-3.1901-8.42-3.3301-17.99-0.3501-26.49C1596.3953,153.09,1599.4352,148.19,1604.3352,145.89 M1601.7052,150.23    c-5,5.25-7.02,12.67-7.22,19.76c-0.04,7.47,1.78,15.4,6.99,21c2.66,2.91,7,4.44,10.79,2.93c4.75-1.79,7.21-6.59,9.47-10.8    c-1.4301,0.81-2.73,1.89-4.3201,2.39c-2.8099,0.17-4.8199-2.26-5.8099-4.61c-2.17-5.2-2.23-11.14-0.66-16.51    c0.9-2.72,2.54-5.74,5.6-6.36c2.9301-0.27,4.41,2.67,6.1901,4.43c-1.49-5.53-4.09-11.43-9.29-14.38    C1609.6152,145.86,1604.6553,147.15,1601.7052,150.23z"
         id="path26" /><path
         fill="#FFFFFF"
         d="M1552.0952,149.62c2.8-2.57,7.14-3.52,10.61-1.77c4.76,2.29,7.14,7.35,9.15,11.94    c-1.9399-0.52-4.09-1.9-6.03-0.61c-3.9099,2.47-4.86,7.5-5.2,11.78c-0.09,4.53,0.62,9.58,3.87,12.99    c1.4399,1.8,3.9,1.34,5.92,1.46c-2.3401,3.46-4.7401,7.5-9.02,8.72c-4.0701,1.29-8.4701-0.8-11-4.02    c-5.64-6.89-6.87-16.37-5.78-24.96C1545.5452,159.42,1547.7352,153.61,1552.0952,149.62z"
         id="path28" /><path
         fill="#FFFFFF"
         d="M1601.7052,150.23c2.9501-3.08,7.91-4.37,11.74-2.15c5.2001,2.95,7.8,8.85,9.29,14.38    c-1.78-1.76-3.26-4.7-6.1901-4.43c-3.0599,0.62-4.7,3.64-5.6,6.36c-1.5699,5.37-1.51,11.31,0.66,16.51    c0.99,2.35,3,4.78,5.8099,4.61c1.5901-0.5,2.89-1.58,4.3201-2.39c-2.26,4.21-4.72,9.01-9.47,10.8c-3.79,1.51-8.13-0.02-10.79-2.93    c-5.21-5.6-7.03-13.53-6.99-21C1594.6852,162.9,1596.7052,155.48,1601.7052,150.23z"
         id="path30" /><path
         fill="#010101"
         d="M1584.1653,209.77c1.7899-0.93,3.83-2.27,5.9299-1.54c4.3,1.34,6.84,5.43,8.89,9.16    c2.14,4.27,4.49,8.53,5.48,13.24c-5.16-5.41-5.77-13.95-11.59-19.02c-2.09-2.34-5.77-2.16-8.15-0.39    c-7.86,5.3-13.6,13.03-20.5,19.41c-0.12-0.56-0.34-1.67-0.46-2.23C1570.9452,222.61,1576.2452,214.67,1584.1653,209.77z"
         id="path32" /><path
         fill="#010101"
         d="M1554.2352,270.69c14.33-9.95,33.9-8.32,48.64-0.09c4.09,2.48,8.02,5.24,11.5599,8.47    c2.5901,2.41,5.38,4.9,6.4501,8.4c-3.13-0.85-5.02-3.55-7.25-5.67c-3.61-3.56-7.74-6.57-12.15-9.05    c-11.09-6.13-24.67-8.53-36.89-4.49c-4.51,1.34-8.24,4.3-12.47,6.23C1552.5952,273.1,1552.7252,271.38,1554.2352,270.69z"
         id="path34" /></g></g><g
     id="g36"
     style="filter:url(#filter4496)"><linearGradient
       id="SVGID_2_"
       gradientUnits="userSpaceOnUse"
       x1="1757.342"
       y1="112.2257"
       x2="1995.4081"
       y2="395.9417"><stop
         offset="0"
         style="stop-color:#FFFFFF"
         id="stop39" /><stop
         offset="1"
         style="stop-color:#C7C5C0"
         id="stop41" /></linearGradient><ellipse
       fill="url(#SVGID_2_)"
       cx="1876.375"
       cy="254.0837"
       rx="142.1179"
       ry="210.2293"
       id="ellipse43" /><path
       d="M1848.4824,54.6581c4.9557-14.646,11.6354-29.2138,19.5234-42.5126C1863.0581,26.7949,1856.3622,41.3547,1848.4824,54.6581   z"
       id="path45" /><path
       d="M1858.2441,59.9802c3.5027-13.6083,8.7454-27.3019,15.2527-39.757C1870.0032,33.8345,1864.7426,47.5213,1858.2441,59.9802z   "
       id="path47" /><path
       d="M1888.9824,8.25c-5.2518,16.5175-12.2087,32.9487-20.4385,48.203C1873.7866,39.9322,1880.7612,23.5084,1888.9824,8.25z"
       id="path49" /><g
       id="g51"><path
         d="M1941.7081,113.46c-0.74-3.14,3.04-3.42,5.25-3.24c6.72,0.98,12.1901,5.48,16.91,10.06c-0.61,0.6-1.2001,1.21-1.8,1.81    C1956.7881,116.85,1949.6981,110.81,1941.7081,113.46z"
         id="path53" /><path
         fill="#010101"
         d="M1873.6581,120.89c3.87-3.44,8.49-6.18,13.4601-7.7c2.23-0.55,5.96-1.09,6.37,2.04    c-7.39-0.8-13.38,4-19.23,7.73C1874.1082,122.44,1873.8081,121.41,1873.6581,120.89z"
         id="path55" /><path
         d="M1881.4481,146.36c2.4301-4.25,6.52-8.16,11.66-8.38c3.37-0.27,6.46,1.45,9.01,3.49c7.34,7.65,9.13,19.03,7.62,29.19    c-1.0901,6.39-3.6801,12.99-8.9301,17.08c-3.87,3.14-9.7899,3.31-13.8099,0.39c-4.51-3.12-6.9401-8.29-8.6801-13.31    C1876.1282,165.38,1876.4781,154.89,1881.4481,146.36 M1885.4081,144.39c-4.9299,5.99-6.62,14.08-6.2799,21.69    c0.46,6.94,2.49,14.29,7.6599,19.23c3.1001,3.03,8.27,3.83,11.9301,1.33c4.37-2.77,6.41-7.74,8.35-12.3    c-1.51,1.24-2.84,3.17-4.97,3.23c-2.86,0.15-4.89-2.32-5.92-4.69c-2.26-5.33-2.2899-11.55-0.25-16.96    c0.98-2.57,3.0801-5.27,6.1-5.25c1.7401,0.24,3.0801,1.52,4.6101,2.29c-2.03-4.9-4.7001-10.4-10.02-12.37    C1892.5281,138.97,1888.0082,141.16,1885.4081,144.39z"
         id="path57" /><path
         d="M1930.5681,148.55c2.16-4.54,5.66-8.98,10.75-10.28c3.39-0.92,6.91,0.26,9.79,2.1c6.98,6.04,9.64,15.68,9.4,24.64    c-0.16,7.94-2.49,16.41-8.4701,21.96c-3.7599,3.65-10,4.36-14.37,1.41c-4.6599-2.92-6.95-8.15-8.95-13.04    C1926.5881,166.52,1926.6482,156.87,1930.5681,148.55 M1936.0681,143.98c-4.7899,5.46-6.59,12.9-6.71,20.02    c0.1,7.13,1.8099,14.62,6.5699,20.14c2.5701,3.08,6.89,4.9,10.8401,3.57c4.46-1.49,6.97-5.79,9.1899-9.62    c-2.11,0.21-4.59,1.1-6.35-0.58c-3.65-3.3-4.4-8.64-4.35-13.31c0.35-4.31,1.25-9.44,5.22-11.91c2.39-1.53,4.78,0.4,6.8,1.6    c-2.0701-5.06-4.52-10.81-9.89-13.11C1943.4181,138.91,1938.7582,140.84,1936.0681,143.98z"
         id="path59" /><path
         fill="#FFFFFF"
         d="M1885.4081,144.39c2.6001-3.23,7.12-5.42,11.2101-3.8c5.3199,1.97,7.99,7.47,10.02,12.37    c-1.53-0.77-2.87-2.05-4.6101-2.29c-3.0199-0.02-5.12,2.68-6.1,5.25c-2.0399,5.41-2.01,11.63,0.25,16.96    c1.03,2.37,3.0601,4.84,5.92,4.69c2.13-0.06,3.46-1.99,4.97-3.23c-1.9399,4.56-3.98,9.53-8.35,12.3    c-3.66,2.5-8.83,1.7-11.9301-1.33c-5.1699-4.94-7.2-12.29-7.6599-19.23C1878.7881,158.47,1880.4781,150.38,1885.4081,144.39z"
         id="path61" /><path
         fill="#FFFFFF"
         d="M1936.0681,143.98c2.6901-3.14,7.35-5.07,11.3201-3.2c5.37,2.3,7.8199,8.05,9.89,13.11    c-2.02-1.2-4.41-3.13-6.8-1.6c-3.97,2.47-4.87,7.6-5.22,11.91c-0.05,4.67,0.7,10.01,4.35,13.31c1.76,1.68,4.24,0.79,6.35,0.58    c-2.22,3.83-4.73,8.13-9.1899,9.62c-3.9501,1.33-8.27-0.49-10.8401-3.57c-4.76-5.52-6.47-13.01-6.5699-20.14    C1929.4781,156.88,1931.2782,149.44,1936.0681,143.98z"
         id="path63" /><path
         fill="#010101"
         d="M1920.2482,209.23c2.1799-1.44,5.02-2.08,7.52-1.06c3.73,1.9,6.0299,5.59,8,9.14    c2,3.86,3.99,7.77,5.22,11.96c-0.4-0.17-1.1901-0.51-1.58-0.68c-3.4-6.32-5.3301-14.09-11.4601-18.45    c-3.1799-2.44-6.8099,0.37-9.49,2.18c-6.38,5.01-11.88,11.03-17.51,16.83c-0.5599,0.02-1.7,0.05-2.27,0.06    c2.11-2.74,4.8-4.94,7.2001-7.4C1910.4181,217.35,1914.7981,212.61,1920.2482,209.23z"
         id="path65" /><path
         d="M1907.1581,259.08c3.5801-3.77,9.1801-5.7,14.27-4.34c6.0701,1.52,10.5801,6.91,12.26,12.78    c1.4301,4.64,0.9,9.56-0.0599,14.24c-0.0801,0.26-0.25,0.8-0.3401,1.07c-2.4399,4.14-5.48,8.39-10.21,10.06    c-5.04,2.1-11,0.65-15-2.91C1899.4181,282.28,1899.0881,267.32,1907.1581,259.08z"
         id="path67" /></g></g><g
     id="g69"
     style="filter:url(#filter4484)"><linearGradient
       id="SVGID_3_"
       gradientUnits="userSpaceOnUse"
       x1="2109.8245"
       y1="112.2257"
       x2="2347.8904"
       y2="395.9417"><stop
         offset="0"
         style="stop-color:#FFFFFF"
         id="stop72" /><stop
         offset="1"
         style="stop-color:#C7C5C0"
         id="stop74" /></linearGradient><ellipse
       fill="url(#SVGID_3_)"
       cx="2228.8574"
       cy="254.0837"
       rx="142.1179"
       ry="210.2293"
       id="ellipse76" /><path
       d="M2200.9648,54.6581c4.9556-14.646,11.6353-29.2138,19.5234-42.5126C2215.5405,26.7949,2208.8445,41.3547,2200.9648,54.6581   z"
       id="path78" /><path
       d="M2210.7266,59.9802c3.5027-13.6083,8.7454-27.3019,15.2527-39.757C2222.4856,33.8345,2217.2249,47.5213,2210.7266,59.9802z   "
       id="path80" /><path
       d="M2241.4648,8.25c-5.252,16.5175-12.2087,32.9487-20.4385,48.203C2226.269,39.9322,2233.2437,23.5084,2241.4648,8.25z"
       id="path82" /><g
       id="g84"><path
         stroke="#000000"
         stroke-width="0.0938"
         d="M2243.2041,121.16c1.55-3.49,3.8901-7.46,8.01-8.13    c4.21-0.34,7.6501,2.73,10.6201,5.32c7.3301,7.02,13.3301,15.27,19.3301,23.41c1.25,1.18-0.52,3.12-1.6902,1.86    c-4.72-5.71-8.8499-11.9-13.8398-17.4c-3.47-3.87-6.9402-8.16-11.8501-10.22c-2.4199-1.08-4.9299,0.53-6.1799,2.58    c-4.3701,6.75-5.22,14.98-7.96,22.39c-0.5801,0.12-1.74,0.38-2.3201,0.51C2238.6741,134.56,2240.4841,127.68,2243.2041,121.16z"
         id="path86" /><path
         stroke="#000000"
         stroke-width="0.0938"
         d="M2313.4941,115.49c2.6799-1.98,6.47-3.55,9.6201-1.64    c3.8799,2.38,5.5898,6.91,7.1199,10.99c1.8,5.04,2.95,10.28,4.4001,15.43c-0.6401,0.23-1.9302,0.7-2.5701,0.93    c-1.5901-6.28-3.0601-12.62-5.5801-18.61c-1.0898-2.46-2.3899-5.04-4.75-6.51c-3.23-1.33-6.27,1.15-8.6599,3.02    c-8.1501,7.07-14.1101,16.19-21.01,24.38c-0.5601-0.15-1.6899-0.44-2.25-0.59c1.9199-3.61,4.72-6.64,7.1799-9.89    C2302.0142,126.76,2306.9841,120.27,2313.4941,115.49z"
         id="path88" /><path
         stroke="#000000"
         stroke-width="0.0938"
         d="M2254.4741,152.43c3.05-2.26,7.24-3.02,10.8101-1.56    c4.8,1.86,7.9299,6.39,9.8999,10.96c4.3401,10.44,3.4702,22.66-1.5999,32.69c-2.99,3.6-6.46,7.76-11.5701,7.83    c-4.73,0.56-8.53-2.71-11.5801-5.87c-5.9299-9.16-7.1199-20.87-4.2-31.27C2247.7141,160.32,2250.2742,155.5,2254.4741,152.43     M2254.3042,155.28c-5.3801,5.38-7.47,13.27-7.48,20.7c-0.0601,7.5,1.8699,15.49,7.1699,21.05    c2.8401,3.02,7.6001,4.3,11.4001,2.33c3.7798-1.85,5.9399-5.66,8-9.15c-2.2002,1.06-4.9302,2.74-7.04,0.53    c-4.3301-4.34-4.8-11.28-3.78-17.03c0.7-3.56,2.3599-8.21,6.48-8.75c3.8799-0.06,5.25,4.17,6.8699,6.95    c-1.46-6.7-3.5698-14.2-9.6199-18.19C2262.5642,151.15,2257.3643,152.1,2254.3042,155.28z"
         id="path90" /><path
         stroke="#000000"
         stroke-width="0.0938"
         d="M2298.7742,158.71c2.6799-4.94,7.9099-9.41,13.8801-8.47    c5.5698,0.75,9.1499,5.61,11.8699,10.07c4.28,10.8,4.6001,23.67-1.3501,33.91c-2.6499,4.62-7.47,8.77-13.1299,8.12    c-4.55-0.18-7.74-3.75-10.6001-6.84C2293.2041,184.39,2292.5742,169.96,2298.7742,158.71 M2304.1941,155.16    c-5.51,5.38-7.5398,13.35-7.6499,20.85c0.02,7.32,1.8301,15.07,6.8601,20.64c2.72,3.1,7.3398,4.68,11.25,2.94    c4.0999-1.77,6.4199-5.84,8.5999-9.52c-1.8899,0.7-3.77,2.46-5.8799,1.58c-2.6201-0.96-4.0901-3.58-4.9102-6.08    c-1.6799-5.29-1.51-11.24,0.8-16.32c1.1201-2.48,3.6201-4.86,6.5701-4.21c2.55,0.8,3.7,3.46,5.3699,5.32    c-1.1299-6.21-3.5898-12.83-8.99-16.55C2312.5142,151.2,2307.3042,152.02,2304.1941,155.16z"
         id="path92" /><path
         fill="#FFFFFF"
         stroke="#FFFFFF"
         stroke-width="0.0938"
         d="M2254.3042,155.28c3.0601-3.18,8.26-4.13,12-1.56    c6.05,3.99,8.1599,11.49,9.6199,18.19c-1.6199-2.78-2.99-7.01-6.8699-6.95c-4.1201,0.54-5.78,5.19-6.48,8.75    c-1.02,5.75-0.55,12.69,3.78,17.03c2.1099,2.21,4.8398,0.53,7.04-0.53c-2.0601,3.49-4.2202,7.3-8,9.15    c-3.8,1.97-8.5601,0.69-11.4001-2.33c-5.3-5.56-7.23-13.55-7.1699-21.05C2246.8342,168.55,2248.9241,160.66,2254.3042,155.28z"
         id="path94" /><path
         fill="#FFFFFF"
         stroke="#FFFFFF"
         stroke-width="0.0938"
         d="M2304.1941,155.16c3.1101-3.14,8.3201-3.96,12.02-1.35    c5.4001,3.72,7.8601,10.34,8.99,16.55c-1.6699-1.86-2.8198-4.52-5.3699-5.32c-2.95-0.65-5.45,1.73-6.5701,4.21    c-2.3101,5.08-2.48,11.03-0.8,16.32c0.8201,2.5,2.29,5.12,4.9102,6.08c2.1099,0.88,3.99-0.88,5.8799-1.58    c-2.1799,3.68-4.5,7.75-8.5999,9.52c-3.9102,1.74-8.53,0.16-11.25-2.94c-5.03-5.57-6.8401-13.32-6.8601-20.64    C2296.6543,168.51,2298.6841,160.54,2304.1941,155.16z"
         id="path96" /><path
         fill="#010101"
         stroke="#010101"
         stroke-width="0.0938"
         d="M2276.8743,229.86c4.1599-3.85,8.3499-8.49,14.1399-9.66    c4.6201,0.3,7.5901,4.44,9.76,8.08c2.53,4.52,4.77,9.22,6.4299,14.13c-0.45-0.18-1.3499-0.55-1.7998-0.73    c-3.1902-6.31-5.2002-13.64-10.7102-18.43c-2.3298-2.12-5.77-1.36-8.0498,0.39c-7.52,5.2-13.3201,12.42-19.76,18.8    c-0.53-0.05-1.5901-0.15-2.1201-0.2C2268.6443,237.97,2272.8943,234.04,2276.8743,229.86z"
         id="path98" /><path
         stroke="#000000"
         stroke-width="0.0938"
         d="M2299.3042,270.24c2.0801-3.02,5.3799-6.49,9.46-5.09    c7.1201,2.69,11.51,9.41,16.1401,15.07c-0.6802,0.6-1.3601,1.21-2.03,1.81c-4.1001-5.19-8.03-11.08-14.1201-14.11    c-2.1899-1.28-4.5,0.28-5.8201,2.01c-5.8198,7.09-9.1299,15.9-15.1099,22.87c-1.79,2.06-4.5901,4.31-7.4399,2.97    c-3.5701-1.91-5.25-5.84-7.1501-9.18c-2.77-5.17-4.6499-10.91-8.4099-15.48c-2.04-2.84-5,0.51-6.4399,2.28    c-5.79,8.02-8.97,17.54-12.77,26.59c-0.8501-0.34-1.6902-0.68-2.52-1.01c1.95-4.68,3.8398-9.39,5.8999-14.02    c2.55-5.48,5.02-11.26,9.46-15.51c2-2.05,5.6301-3.13,7.77-0.66c6.8801,7.35,7.98,18.6,15.8,25.26c2.6301-1.63,4.8-3.87,6.48-6.47    C2292.3542,281.96,2295.3242,275.77,2299.3042,270.24z"
         id="path100" /></g></g><g
     id="g102"
     style="filter:url(#filter4472)"><linearGradient
       id="SVGID_4_"
       gradientUnits="userSpaceOnUse"
       x1="2463.1338"
       y1="112.7618"
       x2="2688.1338"
       y2="381.7618"><stop
         offset="0"
         style="stop-color:#FFFF00"
         id="stop105" /><stop
         offset="1"
         style="stop-color:#FF6E00"
         id="stop107" /></linearGradient><ellipse
       fill="url(#SVGID_4_)"
       cx="2581.3398"
       cy="254.0837"
       rx="142.1179"
       ry="210.2293"
       id="ellipse109" /><path
       d="M2569.2324,54.6581c-4.9556-14.646-11.6353-29.2138-19.5234-42.5126   C2554.6567,26.7949,2561.3528,41.3547,2569.2324,54.6581z"
       id="path111" /><path
       d="M2559.4707,59.9802c-3.5027-13.6083-8.7454-27.3019-15.2527-39.757C2547.7117,33.8345,2552.9724,47.5213,2559.4707,59.9802   z"
       id="path113" /><path
       d="M2528.7324,8.25c5.252,16.5175,12.2087,32.9487,20.4385,48.203C2543.9282,39.9322,2536.9536,23.5084,2528.7324,8.25z"
       id="path115" /><g
       id="g117"><path
         fill="#010100"
         stroke="#010100"
         stroke-width="0.0938"
         d="M2539.2925,151.99c5-4.15,11.1799-6.89,17.77-6.7    c2.02,1.17,5.9099,1.52,5.77,4.47c-0.9199-0.02-1.8201-0.07-2.7-0.16c-6.6001-4.04-14.1201,0.27-19.45,4.43    C2540.3425,153.52,2539.6426,152.5,2539.2925,151.99z"
         id="path119" /><path
         fill="#010100"
         stroke="#010100"
         stroke-width="0.0938"
         d="M2593.9924,150.03c3.24-6.56,12.1802-4.86,17.6501-2.42    c2.54,1.49,4.99,3.22,6.75,5.64c-2.1301,0.29-3.96-0.73-5.6802-1.83c-2.5798-1.6-5.3398-3.1-8.3999-3.38    C2600.7224,147.59,2597.4326,149.41,2593.9924,150.03z"
         id="path121" /><path
         stroke="#000000"
         stroke-width="0.0938"
         d="M2594.6226,170.07c2.8398-4.06,7.75-5.97,12.6099-5.74    c4.48,1.63,8.0701,4.94,10.6301,8.93c5.23,11.61,5.4399,26.27-2.1501,36.91c-2.8699,4.26-7.9199,6.3-12.95,6.05    c-4.1199-1.4-7.27-4.45-10.01-7.7C2586.8726,196.58,2586.4226,181.05,2594.6226,170.07 M2596.1426,171.59    c-5.24,7.02-6.51,16.38-5.1401,24.87c1.0801,6.69,4.24,13.52,10.26,17.1c-3.8198-6.36-4.5-14.48-1.5601-21.31    c1.0701-2.27,3.02-4.69,5.79-4.55c2.7002,0.11,4.49,2.61,5.51,4.87c2.6602,6.5,1.9001,13.98-1.03,20.25    c5.26-3.81,8.04-10.11,9.0701-16.36c1.21-7.58,0.29-15.71-3.5-22.46c-2.01-3.38-4.97-6.68-9.03-7.35    C2602.4126,165.89,2598.4524,168.36,2596.1426,171.59z"
         id="path123" /><path
         stroke="#000000"
         stroke-width="0.0938"
         d="M2550.9126,165.3c3.4299-1.58,7.3298-0.78,10.6099,0.79    c10.3501,7.86,11.6602,22.4,9.3101,34.28c-1.8601,4.48-3.6101,9.28-7.4099,12.51c-2.9202,2.84-7.1101,3.36-10.99,3.34    c-3.9502-1.93-7.51-4.75-9.6201-8.67c-4.74-8.73-5.3101-19.39-2.4399-28.81C2542.1826,173.28,2545.4126,167.68,2550.9126,165.3     M2548.6626,169.13c-4.97,4.55-7.2002,11.37-7.8101,17.93c-0.73,8.68,1.4199,18.02,7.5901,24.45    c-1.3801-5.38-2.0901-11.17-0.0901-16.5c0.9299-2.73,3.01-5.64,6.1599-5.8c2.78,0.19,4.78,2.62,5.76,5.05    c2.52,6.11,1.75,13.08-0.75,19.06c8.0801-5.52,10.75-16.05,10.1401-25.34c-0.4102-7.16-2.8-14.85-8.5901-19.47    C2557.4524,165.64,2552.0024,166.01,2548.6626,169.13z"
         id="path125" /><path
         fill="#FFFFFF"
         stroke="#FFFFFF"
         stroke-width="0.0938"
         d="M2548.6626,169.13c3.3398-3.12,8.7898-3.49,12.4099-0.62    c5.79,4.62,8.1799,12.31,8.5901,19.47c0.6099,9.29-2.0601,19.82-10.1401,25.34c2.5-5.98,3.27-12.95,0.75-19.06    c-0.98-2.43-2.98-4.86-5.76-5.05c-3.1499,0.16-5.23,3.07-6.1599,5.8c-2,5.33-1.29,11.12,0.0901,16.5    c-6.1702-6.43-8.3201-15.77-7.5901-24.45C2541.4624,180.5,2543.6926,173.68,2548.6626,169.13z"
         id="path127" /><path
         fill="#FFFFFF"
         stroke="#FFFFFF"
         stroke-width="0.0938"
         d="M2596.1426,171.59c2.3098-3.23,6.27-5.7,10.3699-4.94    c4.0601,0.67,7.02,3.97,9.03,7.35c3.79,6.75,4.71,14.88,3.5,22.46c-1.03,6.25-3.8101,12.55-9.0701,16.36    c2.9302-6.27,3.6902-13.75,1.03-20.25c-1.02-2.26-2.8098-4.76-5.51-4.87c-2.77-0.14-4.72,2.28-5.79,4.55    c-2.9399,6.83-2.2598,14.95,1.5601,21.31c-6.02-3.58-9.1799-10.41-10.26-17.1C2589.6326,187.97,2590.9026,178.61,2596.1426,171.59    z"
         id="path129" /><path
         fill="#010100"
         stroke="#010100"
         stroke-width="0.0938"
         d="M2568.9426,229.5c2.7-2.52,6.6899-1.86,9.6599-0.2    c5.72,4.12,10.5901,9.24,15.5901,14.18c1.75,2.04,4.1399,3.69,5.1099,6.3c-2.9199-0.27-4.3699-3.34-6.46-5.04    c-4.1301-4.38-8.1899-8.9-13.04-12.5c-2.5801-1.75-6.03-4.3-9.0701-2.02c-6.24,4.8-8.3699,12.86-11.72,19.65    c-0.3198-0.26-0.98-0.77-1.3101-1.03C2560.8726,242.13,2563.2825,234.6,2568.9426,229.5z"
         id="path131" /><path
         stroke="#000000"
         stroke-width="0.0938"
         d="M2626.1226,263.72c-0.03-4.21-5.21-8.17-2.4202-12.38    c2.3301,4.15,3.4902,9.07,7.0601,12.43c2.5801,2.75,6.97,2.51,9.3301,5.56c-4.6101,0.75-8.6799-1.62-12.1599-4.33    c2.25,22.9-0.24,46.56-9.6501,67.72c-0.1299,0.27-0.3799,0.81-0.51,1.08c-4.4099,7.44-9.48,14.83-16.8699,19.59    c-6.01,3.97-13.6702,5.49-20.7002,3.82c6.0701-0.06,12.8801,0.49,18.05-3.32c1.9102-1.3,3.1702-4.07,1.45-6.05    c-3.4299-4.02-9.24-4.59-14.1899-4.79c-4.98,0.17-10.8499,0.71-14.3,4.75c-2.21,2.78,0.8701,5.52,2.3501,7.76    c-7.6101-4.57-14.55-10.36-19.5901-17.72c-4.5398-5.92-7.6799-12.71-11.0999-19.3c-5.72-14.92-9.7-30.57-10.75-46.54    c-2.01,1.93-4.1401,3.73-6.1201,5.68c-2.4199,0.4-4.8499,0.71-7.27,0.8c1.1902-2.94,4.8401-2.58,7.1702-4.16    c4.5498-2.95,6.6699-8.29,8.01-13.32c0.52,0,1.5598,0.01,2.0698,0.01c0.04,0.41,0.1301,1.22,0.1702,1.63    c-0.8801,2.76-2.3101,5.33-2.9502,8.16c3.53,8.78,8.6101,16.95,14.4102,24.43c4.5601,5.62,9.8101,10.81,16.1299,14.44    c3.53,2.2,7.4202,3.88,11.52,4.66c5.8101,1.34,11.97,0.76,17.5-1.44c7.8101-3.04,14.05-9.11,18.8601-15.84    C2618.6626,287.08,2623.2024,275.51,2626.1226,263.72z"
         id="path133" /><path
         fill="#FF0000"
         stroke="#FF0000"
         stroke-width="0.0938"
         d="M2571.2124,347.8c3.4502-4.04,9.3201-4.58,14.3-4.75    c4.95,0.2,10.76,0.77,14.1899,4.79c1.7202,1.98,0.4602,4.75-1.45,6.05c-5.1699,3.81-11.98,3.26-18.05,3.32    c-2.25-0.45-4.4299-1.12-6.6399-1.65C2572.0825,353.32,2569.0024,350.58,2571.2124,347.8z"
         id="path135" /></g></g></svg>