<?xml version="1.0" encoding="UTF-8"?>
<!DOCTYPE svg PUBLIC "-//W3C//DTD SVG 1.1//EN" "http://www.w3.org/Graphics/SVG/1.1/DTD/svg11.dtd">
<svg version="1.1" xmlns="http://www.w3.org/2000/svg" xmlns:xlink="http://www.w3.org/1999/xlink" x="0" y="0" width="596" height="720" viewBox="0, 0, 596, 720">
  <defs>
    <clipPath id="Clip_1">
      <path d="M0,3.96 L593.6,3.96 L593.6,719.76 L0,719.76 z"/>
    </clipPath>
  </defs>
  <g id="Layer_1">
    <g clip-path="url(#Clip_1)">
      <path d="M15.164,616.156 C73.9,678.456 179.244,720 299.468,720 C419.7,720 525.036,678.456 583.772,616.156 L15.164,616.156" fill="#E4E4E3"/>
      <path d="M2.8,614.804 L135.132,614.804 M494.128,614.804 L590.8,614.804" fill-opacity="0" stroke="#1A1919" stroke-width="5.6" stroke-linecap="round" stroke-linejoin="round"/>
    </g>
    <path d="M465.956,633.8 C498.456,632.3 499.956,600.136 489.456,574.3 L463.956,511.136 C463.956,511.136 430.492,450.156 427.456,443.136 C419.456,424.636 396.536,417.108 384.628,414.812 C372.724,412.524 326.952,396.248 326.952,396.248 L282.132,400.172 C282.132,400.172 236.364,412.524 224.456,414.812 C212.552,417.108 189.628,424.636 181.628,443.136 C178.592,450.156 145.128,511.136 145.128,511.136 L119.628,574.3 C109.128,600.136 110.628,632.3 143.128,633.8" fill="#636463"/>
    <path d="M266.128,404.636 C266.128,404.636 236.364,412.524 224.456,414.812 C212.552,417.108 189.628,424.636 181.628,443.136 C178.592,450.156 145.128,511.136 145.128,511.136 L147.128,521.136 C147.128,521.136 180.592,460.156 183.628,453.136 C191.628,434.636 214.552,427.108 226.456,424.812 C232.412,423.668 246.828,420.008 259.76,416.632 L266.128,404.636" fill="#CBCCCB"/>
    <path d="M343.628,409.636 C343.628,409.636 374.724,422.524 386.628,424.812 C398.536,427.108 421.456,434.636 429.456,453.136 L427.456,443.136 C419.456,424.636 396.536,417.108 384.628,414.812 C372.724,412.524 338.628,400.636 338.628,400.636 L343.628,409.636" fill="#CBCCCB"/>
    <path d="M323.976,399.704 L323.104,387.336 L323.976,376.62 L283.004,379.06 L283.004,387.336 L282.132,399.704 L285.964,446.648 L313.432,446.648 L323.976,399.704" fill="#F8D4B3"/>
    <path d="M283.004,382.048 L323.104,382.048 L323.44,397.636 C323.44,397.636 315.812,408.828 286.808,412.9 L281.724,401.2 L283.004,382.048" fill="#CF957E"/>
    <path d="M303.664,571.4 L327.632,441.536 L327.632,393.716 L303.312,440.876 L279.212,401.196 L279.212,441.536 L302.448,571.4" fill="#FFFFFE"/>
    <path d="M279.464,398.02 L276.196,399.704 L267.04,447.836 L297.236,432.208 L279.464,398.02" fill="#FFFFFE"/>
    <g>
      <path d="M308.88,432.208 L339.072,447.836 L329.9,394.432 L327.632,393.716 L308.88,432.208" fill="#FFFFFE"/>
      <path d="M342.052,387.828 C408.2,395.508 420.288,359.9 420.288,359.9 L428.78,393.872 C451.644,374.92 457.028,292.924 457.028,292.924 L466.016,219.54 C477.608,53.428 390.56,45.188 390.56,45.188 C372.184,4.028 237.924,-25.372 170.404,72.952 C127.736,135.092 135.556,221.948 135.556,221.948 L157.136,296.844 C157.136,296.844 173.68,357.944 158.148,386.684 C158.148,386.684 187.048,380.808 190.312,371.66 C190.312,371.66 199.448,390.608 258.248,386.684" fill="#7D4D3F"/>
      <path d="M390.56,45.188 C372.184,4.028 237.924,-25.372 170.404,72.952 C127.736,135.092 135.556,221.948 135.556,221.948 L148.988,218.644 C148.988,218.644 141.532,102.12 209.912,51.72 C288.188,-5.98 360.604,30.912 388.924,44.532 C389.58,44.532 390.56,45.188 390.56,45.188" fill="#E0B79F"/>
    </g>
    <path d="M169.668,228.684 C169.668,228.684 161.756,213.324 146.856,217.976 C115.792,227.688 125.752,295.028 177.088,300.836" fill="#F8D2B5"/>
    <path d="M434.532,228.944 C434.532,228.944 442.444,213.58 457.34,218.236 C488.408,227.944 480.152,295.288 428.016,301.096" fill="#F8D2B5"/>
    <path d="M432.924,212.764 C429.204,221.568 425.424,226.932 425.424,226.932 C413.096,132.204 311.18,90.264 311.18,90.264 C364.868,137.468 365.324,163.848 365.324,163.848 C274.676,168.744 229.328,104.168 229.328,104.168 C229.328,104.168 228.852,115.392 222.94,132.54 C215.964,152.764 201.38,181.224 171.12,209.22 C171.072,209.648 171.048,209.892 171.048,209.892 C169.508,235.44 169.916,279.836 181.82,315.468 C202.892,378.536 270.116,392.828 302.036,392.828 C333.948,392.828 401.18,378.536 422.252,315.468 C433.512,281.752 438.432,239.708 433.252,214.184 C433.16,213.708 433.024,213.236 432.924,212.764" fill="#F8D2B5"/>
    <path d="M267.22,250.472 C267.22,269.94 255.12,285.72 240.2,285.72 C225.276,285.72 213.172,269.94 213.172,250.472 C213.172,231.004 225.276,215.224 240.2,215.224 C255.12,215.224 267.22,231.004 267.22,250.472" fill="#FFFFFE"/>
    <path d="M392.344,250.472 C392.344,269.94 380.248,285.72 365.324,285.72 C350.404,285.72 338.3,269.94 338.3,250.472 C338.3,231.004 350.404,215.224 365.324,215.224 C380.248,215.224 392.344,231.004 392.344,250.472" fill="#FFFFFE"/>
    <path d="M225.184,292.684 C225.184,298.776 214.912,303.72 202.236,303.72 C189.56,303.72 179.28,298.776 179.28,292.684 C179.28,286.592 189.56,281.648 202.236,281.648 C214.912,281.648 225.184,286.592 225.184,292.684" fill="#EC9896"/>
    <path d="M425.004,292.684 C425.004,298.776 414.728,303.72 402.052,303.72 C389.372,303.72 379.096,298.776 379.096,292.684 C379.096,286.592 389.372,281.648 402.052,281.648 C414.728,281.648 425.004,286.592 425.004,292.684" fill="#EC9896"/>
    <path d="M173.328,279.592 L171.04,254.812 C171.04,254.812 164.6,239.448 154.708,237.072 C141.968,234.012 141.708,254.544 150.46,266.132 C163.852,283.876 173.328,279.592 173.328,279.592" fill="#CF957E"/>
    <path d="M432.7,279.592 L434.988,254.812 C434.988,254.812 441.424,239.448 451.32,237.072 C464.06,234.012 464.32,254.544 455.572,266.132 C442.18,283.876 432.7,279.592 432.7,279.592" fill="#CF957E"/>
    <path d="M279.944,442.404 L298.004,432.484 L303.312,440.876 L309.196,432.484 L326.236,441.388 L325.22,455.628 C325.22,455.628 321.512,445.46 304.596,445.46 C287.688,445.46 280.96,455.884 280.96,455.884 L279.944,442.404" fill="#A8BFD9"/>
    <path d="M242.58,223.86 C248.84,223.86 254.8,224.996 260.304,226.988 C255.36,219.788 248.196,215.224 240.2,215.224 C231.164,215.224 223.196,221.028 218.284,229.904 C225.448,226.08 233.732,223.86 242.58,223.86" fill="#D2E0EB"/>
    <path d="M363.116,223.86 C356.856,223.86 350.892,224.996 345.392,226.988 C350.336,219.788 357.5,215.224 365.496,215.224 C374.532,215.224 382.5,221.028 387.412,229.904 C380.248,226.08 371.964,223.86 363.116,223.86" fill="#D2E0EB"/>
    <path d="M185.692,66.092 C228.48,80.456 256.9,80.616 272.824,78.428 C283.524,76.96 277.888,73.132 273.012,72.28 C222.872,63.488 207.912,44.236 207.912,44.236 L185.692,66.092" fill="#E0B79F"/>
    <path d="M121.628,570.636 L135.128,563.636 L135.128,570.136 C135.128,570.136 117.628,577.636 115.128,585.636 C112.628,593.636 116.628,575.136 121.628,570.636" fill="#CBCCCB"/>
    <path d="M485.844,570.636 L466.216,560.616 L466.216,567.116 C466.216,567.116 489.844,577.636 492.344,585.636 C494.844,593.636 490.844,575.136 485.844,570.636" fill="#CBCCCB"/>
    <path d="M263.16,180.224 C252.872,172.384 226.9,168.464 212.692,185.612" fill-opacity="0" stroke="#1A1919" stroke-width="5.6" stroke-linecap="round" stroke-linejoin="round"/>
    <path d="M264.26,230.04 C252.924,206.136 205.42,206.032 212.2,262.42" fill-opacity="0" stroke="#1A1919" stroke-width="6.4" stroke-linecap="round" stroke-linejoin="round"/>
    <path d="M169.668,228.684 C169.668,228.684 161.756,213.324 146.856,217.976 C115.792,227.688 125.752,295.028 177.088,300.836 M147.416,236.132 C147.416,236.132 157.656,229.148 170.224,256.616 M171.048,209.892 C169.508,235.44 169.916,279.836 181.82,315.468 C202.892,378.536 270.116,392.828 302.036,392.828 C333.948,392.828 401.18,378.536 422.252,315.468 C433.512,281.752 434.488,240.2 433.252,214.184 M340.088,180.224 C350.38,172.384 376.348,168.464 390.56,185.612" fill-opacity="0" stroke="#1A1919" stroke-width="5.6" stroke-linecap="round" stroke-linejoin="round"/>
    <path d="M340.148,232.356 C349.416,206.2 400.168,204.268 393.172,262.42" fill-opacity="0" stroke="#1A1919" stroke-width="6.4" stroke-linecap="round" stroke-linejoin="round"/>
    <path d="M434.532,228.944 C434.532,228.944 442.444,213.58 457.34,218.236 C488.408,227.944 480.152,295.288 428.016,301.096 M456.488,236.392 C456.488,236.392 446.252,229.408 433.68,256.876 M202.892,245.76 L211.544,251.148 M393.828,251.148 L405.42,245.76 M302.036,307.788 L302.036,299.948 M430.088,142.656 C454.996,185.124 425.424,226.932 425.424,226.932 C413.096,132.204 311.18,90.264 311.18,90.264 C364.868,137.468 365.324,163.848 365.324,163.848 C274.676,168.744 229.328,104.168 229.328,104.168 C229.328,104.168 227.008,159.064 168.672,211.496 C168.672,211.496 160.26,174.676 172.508,147.228 M136.412,224.924 C136.412,224.924 127.736,135.092 170.404,72.952 C237.924,-25.372 372.184,4.028 390.56,45.188 C390.56,45.188 477.332,55.716 465.736,221.828 M157.136,296.844 C157.136,296.844 173.68,357.944 158.148,386.684 C158.148,386.684 187.048,380.808 190.312,371.66 C190.312,371.66 199.448,390.608 258.248,386.684 M457.028,292.924 C457.028,292.924 451.644,374.92 428.78,393.872 L420.288,359.9 C420.288,359.9 408.2,395.508 342.052,387.828 M282.132,400.172 C282.132,400.172 236.364,412.524 224.456,414.812 C212.552,417.108 189.628,424.636 181.628,443.136 C178.592,450.156 145.128,511.136 145.128,511.136 L119.628,574.3 C109.128,600.136 110.628,632.3 143.128,633.8 M326.952,396.248 C326.952,396.248 372.724,412.524 384.628,414.812 C396.536,417.108 419.456,424.636 427.456,443.136 C430.492,450.156 463.956,511.136 463.956,511.136 L489.456,574.3 C499.956,600.136 498.456,632.3 465.956,633.8 M279.212,401.196 L303.312,440.876 L326.88,396.636 M297.236,432.208 L267.04,447.836 L278.38,401.636 M279.212,441.536 L302.448,571.4 M266.628,405.136 L242.524,440.876 L254.84,452.36 L240.94,467.728 L294.056,568.192 M326.88,396.636 L339.072,447.836 L308.88,432.208 M327.38,442.636 L303.664,571.4 M337.38,400.888 L363.836,442.376 L351.524,453.86 L365.168,467.728 L312.06,568.192 M282.132,399.704 L283.036,392.268 M323.976,399.704 L323.104,391.428" fill-opacity="0" stroke="#1A1919" stroke-width="5.6" stroke-linecap="round" stroke-linejoin="round"/>
    <path d="M263.008,265.092 C263.008,278.356 255.548,289.104 246.348,289.104 C237.144,289.104 229.688,278.356 229.688,265.092 C229.688,251.832 237.144,241.084 246.348,241.084 C255.548,241.084 263.008,251.832 263.008,265.092" fill="#1A1919"/>
    <path d="M342.052,265.092 C342.052,278.356 349.508,289.104 358.712,289.104 C367.916,289.104 375.372,278.356 375.372,265.092 C375.372,251.832 367.916,241.084 358.712,241.084 C349.508,241.084 342.052,251.832 342.052,265.092" fill="#1A1919"/>
    <path d="M262.712,257.052 C262.712,259.772 260.512,261.972 257.792,261.972 C255.076,261.972 252.872,259.772 252.872,257.052 C252.872,254.336 255.076,252.132 257.792,252.132 C260.512,252.132 262.712,254.336 262.712,257.052" fill="#FFFFFE"/>
    <path d="M374.084,257.052 C374.084,259.772 371.88,261.972 369.16,261.972 C366.44,261.972 364.24,259.772 364.24,257.052 C364.24,254.336 366.44,252.132 369.16,252.132 C371.88,252.132 374.084,254.336 374.084,257.052" fill="#FFFFFE"/>
    <path d="M286.252,361.74 C290.432,368.9 309.24,370.096 316.7,362.036" fill-opacity="0" stroke="#1A1919" stroke-width="5.6" stroke-linecap="round" stroke-linejoin="round"/>
    <path d="M463.628,669.604 C463.628,672.1 461.588,674.136 459.092,674.136 L141.164,674.136 C138.668,674.136 136.628,672.1 136.628,669.604 L136.628,658.672 C136.628,656.176 138.668,654.136 141.164,654.136 L459.092,654.136 C461.588,654.136 463.628,656.176 463.628,658.672 L463.628,669.604" fill="#949594"/>
    <path d="M463.628,669.604 C463.628,672.1 461.588,674.136 459.092,674.136 L141.164,674.136 C138.668,674.136 136.628,672.1 136.628,669.604 L136.628,658.672 C136.628,656.176 138.668,654.136 141.164,654.136 L459.092,654.136 C461.588,654.136 463.628,656.176 463.628,658.672 L463.628,669.604 z" fill-opacity="0" stroke="#1A1919" stroke-width="5.6" stroke-linecap="round" stroke-linejoin="round"/>
    <path d="M464.3,651.232 C463.932,655.58 460.06,659.136 455.692,659.136 L144.568,659.136 C140.2,659.136 136.324,655.58 135.952,651.232 L119.916,463.044 C119.544,458.696 122.808,455.136 127.176,455.136 L473.08,455.136 C477.444,455.136 480.712,458.696 480.34,463.044 L464.3,651.232" fill="#A7A8A7"/>
    <path d="M139.612,654.292 L123.776,468.472 C123.408,464.124 126.672,460.568 131.04,460.568 L476.94,460.568" fill-opacity="0" stroke="#ECECEB" stroke-width="8" stroke-linecap="round" stroke-linejoin="round"/>
    <path d="M464.3,651.232 C463.932,655.58 460.06,659.136 455.692,659.136 L144.568,659.136 C140.2,659.136 136.324,655.58 135.952,651.232 L119.916,463.044 C119.544,458.696 122.808,455.136 127.176,455.136 L473.08,455.136 C477.444,455.136 480.712,458.696 480.34,463.044 L464.3,651.232 z" fill-opacity="0" stroke="#1A1919" stroke-width="5.6" stroke-linecap="round" stroke-linejoin="round"/>
  </g>
</svg>
