<?xml version="1.0"?>
<svg xmlns:rdf="http://www.w3.org/1999/02/22-rdf-syntax-ns#" xmlns="http://www.w3.org/2000/svg" xmlns:sodipodi="http://inkscape.sourceforge.net/DTD/sodipodi-0.dtd" xmlns:cc="http://web.resource.org/cc/" xmlns:xlink="http://www.w3.org/1999/xlink" xmlns:dc="http://purl.org/dc/elements/1.1/" xmlns:svg="http://www.w3.org/2000/svg" id="svg2" viewBox="0 0 140 190" sodipodi:version="0.32" version="1.0" y="0" x="0" sodipodi:docname="white_s_j.svg" sodipodi:docbase="/home/nicu/Desktop/card_nicu_buculei_01.zip_FILES/cards/white">
  <sodipodi:namedview id="base" bordercolor="#666666" borderopacity="1.0" pagecolor="#ffffff"/>
  <defs id="defs3">
    <linearGradient id="linearGradient6214">
      <stop id="stop6216" stop-color="#c10000" offset="0"/>
      <stop id="stop6218" stop-color="#ff433e" offset="1"/>
    </linearGradient>
    <linearGradient id="linearGradient5407">
      <stop id="stop5409" stop-color="#f0eb00" offset="0"/>
      <stop id="stop5411" stop-color="#ff0" offset="1"/>
    </linearGradient>
    <linearGradient id="linearGradient28236" x1="356.44" gradientUnits="userSpaceOnUse" y1="437.5" gradientTransform="matrix(.18682 0 0 .14486 77.301 1.4751)" x2="484.8" y2="256.18">
      <stop id="stop3859" stop-color="#ffd8c1" offset="0"/>
      <stop id="stop3861" stop-color="#ffeded" offset="1"/>
    </linearGradient>
    <linearGradient id="linearGradient28238" x1="298.99" xlink:href="#linearGradient6214" gradientUnits="userSpaceOnUse" y1="540.54" gradientTransform="matrix(.14486 0 0 .14486 102.21 13.455)" x2="449.32" y2="415.54"/>
    <linearGradient id="linearGradient28240" x1="294.25" xlink:href="#linearGradient6214" gradientUnits="userSpaceOnUse" y1="346.33" gradientTransform="matrix(.14486 0 0 .14486 100.09 14.808)" x2="312.09" y2="322.14"/>
    <linearGradient id="linearGradient28242" x1="101.39" xlink:href="#linearGradient5407" gradientUnits="userSpaceOnUse" y1="124.16" gradientTransform="translate(46.646 -34.28)" x2="105.55" y2="120.97"/>
    <linearGradient id="linearGradient28244" x1="98.818" gradientUnits="userSpaceOnUse" y1="108.76" gradientTransform="translate(42.501 -33.244)" x2="112.89" y2="103.33">
      <stop id="stop3198" stop-color="#008200" offset="0"/>
      <stop id="stop3200" stop-color="#00d000" offset="1"/>
    </linearGradient>
    <linearGradient id="linearGradient28246" x1="103.56" xlink:href="#linearGradient5407" gradientUnits="userSpaceOnUse" y1="65.109" gradientTransform="translate(43.119 -34.155)" x2="111.88" y2="62.671"/>
    <linearGradient id="linearGradient28248" x1="93.5" xlink:href="#linearGradient6214" gradientUnits="userSpaceOnUse" y1="62.938" gradientTransform="translate(46.646 -34.28)" x2="117.14" y2="57.702"/>
    <linearGradient id="linearGradient28250" x1="104.75" xlink:href="#linearGradient5407" gradientUnits="userSpaceOnUse" x2="109.5" y1="57.469" y2="55.781"/>
    <linearGradient id="linearGradient28252" x1="652.3" gradientUnits="userSpaceOnUse" y1="77.395" gradientTransform="matrix(.18685 0 0 .14486 77.296 1.4867)" x2="410.91" y2="344.42">
      <stop id="stop2582" stop-color="#fff" offset="0"/>
      <stop id="stop2584" stop-color="#fff" stop-opacity="0" offset="1"/>
    </linearGradient>
  </defs>
  <g id="layer1">
    <g id="g5630">
      <path id="rect2070" d="m21 5h103c8.86 0 16 7.136 16 16v153c0 8.86-7.14 16-16 16h-103c-8.864 0-16-7.14-16-16v-153c0-8.864 7.136-16 16-16z" fill-opacity=".49804"/>
      <path id="rect1300" d="m17 1h103c8.86 0 16 7.136 16 16v153c0 8.86-7.14 16-16 16h-103c-8.864 0-16-7.14-16-16v-153c0-8.864 7.136-16 16-16z" fill="#e7e7e7"/>
      <path id="path5624" d="m19 3h103c8.86 0 16 7.136 16 16v153c0 8.86-7.14 16-16 16h-103c-8.864 0-16-7.14-16-16v-153c0-8.864 7.136-16 16-16z" fill="#c7891f"/>
      <path id="rect1306" d="m18 2h103c8.86 0 16 7.136 16 16v153c0 8.86-7.14 16-16 16h-103c-8.864 0-16-7.14-16-16v-153c0-8.864 7.136-16 16-16z" fill="#fff"/>
    </g>
  </g>
  <path id="path1561" sodipodi:nodetypes="cccccccccc" fill-rule="evenodd" d="m20.645 48.665c-4.925 7.825-20.035 21.149-10.463 25.263 5.811 1.894 8.576-1.983 9.747-4.549h0.235l-3.859 12.946 8.937-0.038s-3.85-12.445-3.859-12.921h0.094c0.946 2.097 4.536 6.439 8.484 4.785 11.546-4.635-5.455-17.824-9.316-25.486z"/>
  <path id="text1883" d="m18.683 12.234h6.396v21.359c0 2.947-0.841 5.149-2.525 6.607-1.672 1.458-4.208 2.186-7.608 2.186h-1.296v-4.61h0.996c1.33 0 2.332-0.354 3.007-1.062 0.687-0.708 1.03-1.748 1.03-3.121v-21.359"/>
  <path id="path19646" sodipodi:nodetypes="cccccccccc" fill-rule="evenodd" d="m118.04 140c4.92-7.82 20.03-21.15 10.46-25.26-5.81-1.9-8.58 1.98-9.75 4.55h-0.23l3.86-12.95-8.94 0.04s3.85 12.44 3.86 12.92h-0.1c-0.94-2.1-4.53-6.44-8.48-4.79-11.547 4.64 5.45 17.83 9.32 25.49z"/>
  <path id="text19648" d="m120 177h-6.4v-21.36c0-2.95 0.84-5.15 2.53-6.61 1.67-1.45 4.2-2.18 7.6-2.18h1.3v4.61h-1c-1.33 0-2.33 0.35-3 1.06-0.69 0.71-1.03 1.75-1.03 3.12v21.36"/>
  <g id="g3325" transform="translate(-82.637 36.75)">
    <path id="path3729" sodipodi:nodetypes="cccccccccccccccccc" d="m150.53 17.563c-5.97 3.774-13.47-3.165-17.45 4.88-3.5 4.782 7.53 6.173 0.57 10.424-4.76 5.124-4.48 7.38-0.37 8.007-1.19 5.664-0.32 15.171 2.27 20.356-3.21 3.903-0.8 2.562 3.55 3.376-1.35 2.154-0.57 10.049-5.2 12.489-2.33 7.021-0.59 14.642-1.13 21.906 11.28 4.749 24.63 5.289 35.4 2.759 4.74-0.99 10.15-1.37 9.2-8.134 0.28-8.426 1.28-19.518-7.91-23.83-5.38-0.753-7.17-4.388-3.05-9.55 3.07-8.358 6.44-4.861 11.15-6.975 4.9-1.311-7-4.539-5.43-9.977-1.52-4.254-3.38-9.258-6.43-12.711 7.68-0.69 8.5-8.698 2.26-10.332-6.19-4.122-9.84 2.914-14.55-2.375-0.78-0.013-2.1-0.504-2.88-0.313z"/>
    <path id="path1624" d="m167.87 48.823c0 11.413-7.56 20.676-16.88 20.676s-16.88-9.263-16.88-20.676c0-11.414 7.56-20.677 16.88-20.677s16.88 9.263 16.88 20.677z" fill="url(#linearGradient28236)"/>
    <path id="path1628" sodipodi:nodetypes="ccccccc" fill="url(#linearGradient28238)" d="m147.48 69.977c-7.05 0-12.72 5.675-12.72 12.725v14.929c9.38 4.649 29.52 4.889 40.62 0v-14.929c0-7.05-5.68-12.725-12.73-12.725h-15.17z"/>
    <path id="path1630" sodipodi:nodetypes="cccccc" fill-rule="evenodd" d="m132.28 39.191c2.52-4.528 5.05-13.18 19.12-13.09 21.84 0.639 16.63 23.381 24.45 25.835-4.85 1.578-7.3 2.929-14.54 0.43 0.79-5.699-0.5-9.878-3.92-12.815-4.27 2.239-20.74 1.175-25.11-0.36z"/>
    <g id="g1632" transform="matrix(.14486 0 0 .097903 99.895 25.539)">
      <path id="path1634" transform="translate(-4 -6)" fill="#fff" d="m353 245.86c0 11.87-9.41 21.5-21 21.5s-21-9.63-21-21.5 9.41-21.5 21-21.5 21 9.63 21 21.5z"/>
      <path id="path1636" transform="matrix(.57143 0 0 .83721 129.29 34.524)" fill="#1e2ecf" d="m353 245.86c0 11.87-9.41 21.5-21 21.5s-21-9.63-21-21.5 9.41-21.5 21-21.5 21 9.63 21 21.5z"/>
      <path id="path1638" transform="matrix(.35714 0 0 .67442 195.93 76.048)" d="m353 245.86c0 11.87-9.41 21.5-21 21.5s-21-9.63-21-21.5 9.41-21.5 21-21.5 21 9.63 21 21.5z"/>
    </g>
    <g id="g1640" transform="matrix(.14486 0 0 .097903 89.807 25.198)">
      <path id="path1642" transform="translate(-4 -6)" fill="#fff" d="m353 245.86c0 11.87-9.41 21.5-21 21.5s-21-9.63-21-21.5 9.41-21.5 21-21.5 21 9.63 21 21.5z"/>
      <path id="path1644" transform="matrix(.57143 0 0 .83721 129.29 34.524)" fill="#1828ce" d="m353 245.86c0 11.87-9.41 21.5-21 21.5s-21-9.63-21-21.5 9.41-21.5 21-21.5 21 9.63 21 21.5z"/>
      <path id="path1646" transform="matrix(.35714 0 0 .67442 195.93 76.048)" d="m353 245.86c0 11.87-9.41 21.5-21 21.5s-21-9.63-21-21.5 9.41-21.5 21-21.5 21 9.63 21 21.5z"/>
    </g>
    <path id="path1648" sodipodi:nodetypes="ccc" fill-rule="evenodd" fill="url(#linearGradient28240)" d="m139.44 62.205c1.85 3.622 6.9 1.943 11.73 0-5.33 0.559-9 0.969-11.73 0z"/>
    <path id="path1650" sodipodi:nodetypes="ccccc" fill="#700000" d="m161.58 85.856l1.26 0.123 1.37 14.511-3.46 0.47 0.83-15.104z"/>
    <path id="path1652" sodipodi:nodetypes="ccccccc" fill-rule="evenodd" d="m141.64 50.147c-0.8 1.287-1.95 3.402-1.78 4.375 0.16 0.972 1.65 0.762 2.44 1.323l0.33-0.478c-0.7-0.493-1.78-0.008-1.92-0.808-0.13-0.799 0.68-2.915 1.42-4.118l-0.49-0.294z"/>
    <path id="path1656" sodipodi:nodetypes="cccc" fill-rule="evenodd" d="m142.93 57.8c-3.8 0.378-6.13 3.301-8.06 5.42 0 0 6.24-3.456 8.2-3.386-0.14-0.491 0.07-1.122-0.14-2.034z"/>
    <path id="path1658" sodipodi:nodetypes="cccc" fill-rule="evenodd" d="m143.8 57.655c3.38 0.346 9.84 2.97 10.14 5.46 0 0-7.88-4.218-9.73-3.564-0.02-0.51-0.34-0.963-0.41-1.896z"/>
    <path id="path1666" sodipodi:nodetypes="ccccc" fill-rule="evenodd" fill="url(#linearGradient28242)" d="m141.27 71.649c3.63 11.223 8.7 20.946 14.46 29.541l3.69-0.11c-5.74-9.207-11.73-19.602-15.15-30.81 0 0-2.04 0.624-3 1.379z"/>
    <path id="path2436" sodipodi:nodetypes="ccccccccccccc" fill-rule="evenodd" fill="url(#linearGradient28244)" d="m138.69 68.131l-0.25 10.25 9.31-5.688v1.438l3.69 0.312-0.06-1.937 12.12 5.437-1.25-12.062-10.69 5.437-0.25-1.812-3.75-0.25v1.937l-8.87-3.062z"/>
    <path id="path1466" sodipodi:nodetypes="ccccc" fill-rule="evenodd" fill="url(#linearGradient28246)" d="m138.49 28.032l-0.53 2.6c7.66 2.229 17.9 1.877 26.76 0.919-0.02-0.359-0.35-2.519-0.35-2.519-8.52 0.875-19.42 0.813-25.88-1z"/>
    <path id="path2448" sodipodi:nodetypes="ccc" fill-rule="evenodd" fill="url(#linearGradient28248)" d="m150.74 29.595c28.52 3.833 23.48-13.396 1.57-7.625-21.15-7.459-26.23 9.833-1.57 7.625z"/>
    <path id="path3498" sodipodi:rx="3.7187500" sodipodi:ry="1.6562500" sodipodi:type="arc" d="m110.81 56.406a3.7188 1.6562 0 1 1 -7.43 0 3.7188 1.6562 0 1 1 7.43 0z" transform="translate(44.306 -35.218)" sodipodi:cy="56.406250" sodipodi:cx="107.09375" fill="url(#linearGradient28250)"/>
    <path id="path3631" d="m151.4 19.544c-1.81 0-3.14 0.611-3.47 1.375-12.88-2.722-17.58 4.484-9.53 7.562l-0.41 2.063c-2.99 2.789-4.39 6.278-5.71 8.656 0.75 0.264 2.22 0.497 3.56 0.719-1.07 2.711-1.72 5.696-1.72 8.906 0 4.471 1.18 8.585 3.16 11.969-0.85 0.816-1.72 1.673-2.41 2.437 0 0 1.46-0.778 3-1.531 3.03 4.621 7.6 7.652 12.78 7.781l-3.09-0.219v0.719h-0.06c-0.92 0-1.83 0.099-2.69 0.281l-6.13-2.124-0.12 5.531c-2.33 2.304-3.78 5.481-3.78 9.031v14.938c4.95 2.452 12.89 3.612 20.94 3.502 0.01 0.02 0.01 0.04 0.03 0.06l3.69-0.09c-0.05-0.08-0.11-0.17-0.16-0.25 0.49-0.04 0.98-0.09 1.47-0.13v0.25l3.47-0.47v-0.03c4.13-0.578 8.02-1.459 11.15-2.842v-14.938c0-7.038-5.65-12.702-12.68-12.719l-0.44-4.093-8.03 4.093h-2.85l-0.06-0.469h-0.22c7.93-0.053 14.52-6.816 16.28-15.874 3.11 0.162 5.35-0.662 8.51-1.688-5.49-1.721-4.74-13.318-11.23-20.375 0.02-0.002 0.05 0.002 0.07 0-0.02-0.297-0.21-1.574-0.28-2.094 10.99-2.385 5.53-10.841-9.69-7.906 0.08-0.14 0.37-0.223 0.37-0.375 0-0.914-1.66-1.656-3.72-1.656z" fill="url(#linearGradient28252)"/>
  </g>
  <metadata>
    <rdf:RDF>
      <cc:Work>
        <dc:format>image/svg+xml</dc:format>
        <dc:type rdf:resource="http://purl.org/dc/dcmitype/StillImage"/>
        <cc:license rdf:resource="http://creativecommons.org/licenses/publicdomain/"/>
        <dc:publisher>
          <cc:Agent rdf:about="http://openclipart.org/">
            <dc:title>Openclipart</dc:title>
          </cc:Agent>
        </dc:publisher>
        <dc:title>White deck: Jack of spades</dc:title>
        <dc:date>2009-03-24T13:42:48</dc:date>
        <dc:description>playing card from the "White" set</dc:description>
        <dc:source>http://openclipart.org/detail/23226/white-deck:-jack-of-spades-by-nicubunu</dc:source>
        <dc:creator>
          <cc:Agent>
            <dc:title>nicubunu</dc:title>
          </cc:Agent>
        </dc:creator>
        <dc:subject>
          <rdf:Bag>
            <rdf:li>card</rdf:li>
            <rdf:li>cards</rdf:li>
            <rdf:li>clip art</rdf:li>
            <rdf:li>clipart</rdf:li>
            <rdf:li>deck</rdf:li>
            <rdf:li>gambling</rdf:li>
            <rdf:li>game</rdf:li>
            <rdf:li>image</rdf:li>
            <rdf:li>media</rdf:li>
            <rdf:li>play</rdf:li>
            <rdf:li>playing cards</rdf:li>
            <rdf:li>png</rdf:li>
            <rdf:li>public domain</rdf:li>
            <rdf:li>svg</rdf:li>
            <rdf:li>white deck</rdf:li>
          </rdf:Bag>
        </dc:subject>
      </cc:Work>
      <cc:License rdf:about="http://creativecommons.org/licenses/publicdomain/">
        <cc:permits rdf:resource="http://creativecommons.org/ns#Reproduction"/>
        <cc:permits rdf:resource="http://creativecommons.org/ns#Distribution"/>
        <cc:permits rdf:resource="http://creativecommons.org/ns#DerivativeWorks"/>
      </cc:License>
    </rdf:RDF>
  </metadata>
</svg>
