<?xml version="1.0"?>
<svg xmlns:rdf="http://www.w3.org/1999/02/22-rdf-syntax-ns#" xmlns="http://www.w3.org/2000/svg" xmlns:cc="http://creativecommons.org/ns#" xmlns:xlink="http://www.w3.org/1999/xlink" xmlns:dc="http://purl.org/dc/elements/1.1/" xmlns:svg="http://www.w3.org/2000/svg" id="svg2" viewBox="0 0 385.43 165.94" version="1.1">
  <defs id="defs4">
    <linearGradient id="linearGradient4594">
      <stop id="stop4596" stop-color="#191919" offset="0"/>
      <stop id="stop4598" stop-color="#0c0c0c" offset="1"/>
    </linearGradient>
    <linearGradient id="linearGradient4578">
      <stop id="stop4580" offset="0"/>
      <stop id="stop4582" stop-color="#1a1a1a" offset="1"/>
    </linearGradient>
    <linearGradient id="linearGradient4200">
      <stop id="stop4202" stop-color="#ff954f" offset="0"/>
      <stop id="stop4204" stop-color="#ee5f00" offset="1"/>
    </linearGradient>
    <linearGradient id="linearGradient4192">
      <stop id="stop4194" stop-color="#f9f9f9" offset="0"/>
      <stop id="stop4196" stop-color="#d8d8d8" offset="1"/>
    </linearGradient>
    <linearGradient id="linearGradient4041">
      <stop id="stop4043" offset="0"/>
      <stop id="stop4049" stop-color="#1f1f1f" offset=".33623"/>
      <stop id="stop4045" offset="1"/>
    </linearGradient>
    <linearGradient id="linearGradient4031">
      <stop id="stop4033" offset="0"/>
      <stop id="stop4039" offset=".58529"/>
      <stop id="stop4035" stop-color="#1c1c1c" offset="1"/>
    </linearGradient>
    <linearGradient id="linearGradient4021">
      <stop id="stop4023" offset="0"/>
      <stop id="stop4029" stop-color="#b0b0b0" offset=".78072"/>
      <stop id="stop4025" stop-color="#71716f" offset="1"/>
    </linearGradient>
    <linearGradient id="linearGradient4013">
      <stop id="stop4015" stop-color="#7e7e7c" offset="0"/>
      <stop id="stop4017" stop-color="#c8c8c8" offset=".41977"/>
      <stop id="stop4019" stop-color="#9e9e9e" offset="1"/>
    </linearGradient>
    <linearGradient id="linearGradient3985">
      <stop id="stop3987" stop-color="#7e7e7c" offset="0"/>
      <stop id="stop4009" stop-color="#747472" offset=".88124"/>
      <stop id="stop3989" stop-color="#2f2f2f" offset="1"/>
    </linearGradient>
    <radialGradient id="radialGradient4066" xlink:href="#linearGradient4041" gradientUnits="userSpaceOnUse" cy="589.08" cx="508.49" r="27.653"/>
    <radialGradient id="radialGradient4068" xlink:href="#linearGradient3985" gradientUnits="userSpaceOnUse" cy="589.08" cx="508.49" r="27.653"/>
    <radialGradient id="radialGradient4070" xlink:href="#linearGradient4013" gradientUnits="userSpaceOnUse" cy="589.08" cx="508.49" r="27.653"/>
    <radialGradient id="radialGradient4072" xlink:href="#linearGradient4021" gradientUnits="userSpaceOnUse" cy="589.08" cx="508.49" r="27.653"/>
    <radialGradient id="radialGradient4074" xlink:href="#linearGradient4031" gradientUnits="userSpaceOnUse" cy="589.08" cx="508.49" r="27.653"/>
    <radialGradient id="radialGradient4256" gradientUnits="userSpaceOnUse" cy="502.51" cx="556.98" gradientTransform="matrix(1 0 0 4.1568 0 -1586.3)" r="2.8965">
      <stop id="stop4252" stop-color="#ff3131" offset="0"/>
      <stop id="stop4254" stop-color="#f80000" offset="1"/>
    </radialGradient>
    <radialGradient id="radialGradient4264" xlink:href="#linearGradient4200" gradientUnits="userSpaceOnUse" cy="517.52" cx="558.22" gradientTransform="matrix(.54167 -.000011931 .000026412 1.1991 255.83 -103.08)" r="2.1429"/>
    <radialGradient id="radialGradient4272" xlink:href="#linearGradient4192" gradientUnits="userSpaceOnUse" cy="531.27" cx="556.79" gradientTransform="matrix(.67192 9.8275e-7 -.0000023478 1.6052 182.67 -321.55)" r="3.215"/>
    <radialGradient id="radialGradient4716" xlink:href="#linearGradient4200" gradientUnits="userSpaceOnUse" cy="541.6" cx="183.79" gradientTransform="matrix(.53081 1.0522 -1.2953 .65345 787.78 -4.271)" r="6.8304"/>
    <radialGradient id="radialGradient4719" xlink:href="#linearGradient4192" gradientUnits="userSpaceOnUse" cy="532.39" cx="189.59" gradientTransform="matrix(.99652 1.1057 -1.3125 1.1829 699.45 -307.39)" r="5.8929"/>
    <radialGradient id="radialGradient4723" xlink:href="#linearGradient4594" gradientUnits="userSpaceOnUse" cy="557.51" cx="528.72" gradientTransform="matrix(.53788 1.2992 -1.5598 .64577 1108.9 -494.95)" r="19.498"/>
    <radialGradient id="radialGradient4726" xlink:href="#linearGradient4578" gradientUnits="userSpaceOnUse" cy="560.31" cx="337.24" gradientTransform="matrix(12.894 .000012148 0 .10454 -4011 501.73)" r="51.979"/>
    <radialGradient id="radialGradient4729" xlink:href="#linearGradient4578" gradientUnits="userSpaceOnUse" cy="560.17" cx="429" gradientTransform="matrix(17.606 -1.2409e-8 0 .19504 -7123.8 450.91)" r="38.197"/>
    <radialGradient id="radialGradient4732" xlink:href="#linearGradient4594" gradientUnits="userSpaceOnUse" cy="561.64" cx="180.5" gradientTransform="matrix(.62423 1.3676 -1.2183 .55609 751.23 -1.8912)" r="16.982"/>
    <radialGradient id="radialGradient4763" gradientUnits="userSpaceOnUse" cy="495.09" cx="275.29" gradientTransform="matrix(.0015028 .64354 -.77099 .0018004 669.74 308.23)" r="47.366">
      <stop id="stop4226" stop-color="#0e0e0e" offset="0"/>
      <stop id="stop4228" offset="1"/>
    </radialGradient>
    <radialGradient id="radialGradient4766" gradientUnits="userSpaceOnUse" cy="466.2" cx="327.71" gradientTransform="matrix(.41154 .95675 -1.1427 .49151 725.55 -67.31)" r="49.309">
      <stop id="stop4218" stop-color="#fff" offset="0"/>
      <stop id="stop4220" stop-color="#83ffff" offset="1"/>
    </radialGradient>
    <radialGradient id="radialGradient4769" gradientUnits="userSpaceOnUse" cy="517.15" cx="335.57" gradientTransform="matrix(1.3734 1.3705e-7 -1.2026e-7 1.2051 -124.6 -105.97)" r="59.726">
      <stop id="stop4178" stop-color="#00006a" offset="0"/>
      <stop id="stop4180" stop-color="#000032" offset="1"/>
    </radialGradient>
    <linearGradient id="linearGradient4772" y2="514.96" gradientUnits="userSpaceOnUse" x2="541.94" y1="514.96" x1="189.41">
      <stop id="stop4278" stop-color="#00004c" offset="0"/>
      <stop id="stop4280" stop-color="#00005a" offset="1"/>
    </linearGradient>
    <linearGradient id="linearGradient4776" y2="525.95" gradientUnits="userSpaceOnUse" x2="552.3" gradientTransform="matrix(1 0 0 .61353 0 213.37)" y1="525.95" x1="389.67">
      <stop id="stop4168" stop-color="#a40000" offset="0"/>
      <stop id="stop4170" stop-color="#980000" offset="1"/>
    </linearGradient>
    <linearGradient id="linearGradient4779" y2="479.23" gradientUnits="userSpaceOnUse" x2="477.74" y1="501.51" x1="477.74">
      <stop id="stop4160" stop-color="#a60000" offset="0"/>
      <stop id="stop4162" stop-color="#c00000" offset="1"/>
    </linearGradient>
  </defs>
  <g id="layer1" transform="translate(-178.29 -448.9)">
    <path id="path4600" d="m389.67 552.08 162.63-5.2618-0.75761-52.064h-160.61z" fill="#720000"/>
    <path id="path4148" d="m390.36 502.36 166.07-0.71428 0.53572-23.214h-165.89z" stroke="url(#linearGradient4779)" stroke-width="1px" fill="url(#linearGradient4779)"/>
    <path id="path4114" d="m194.29 585.22 8.9286-39.286 53.214-3.5714 26.429 38.214h173.21l30-28.214c18.421-5.0987 31.083 0.67904 43.571 6.7857l6.4286 15.714 27.143-0.71428c-0.0972 3.9863-5.39 6.387-13.929 8.9286-39.892 11.874-339.27 9.8279-355 2.1428z" stroke="#000" stroke-width="1px"/>
    <path id="path3050" d="m266.18 507.89c11.75 0.0121 17.511-6.139 22.223-10.102l44.447-37.376c16.547-13.914 33.408-10.917 51.013-11.514l9.9752 0.56636c0.58504 0.0332 1.3682 0.46385 1.3281 1.3573l-4.4848 99.999 150.77-3.5355-10.607 18.688c-24.506-23.33-55.323-12.075-61.619 12.122-1.7529 6.7361-2.28 8.4938-9.0914 8.5863l-185.87 2.5254c-3.4218-26.035-17.52-39.859-34.345-41.416-16.825-1.5576-21.916 7.3587-31.82 12.627l-18.183-8.0812 6.566-27.779c24.969-13.93 56.461-16.681 69.701-16.668z" fill="url(#linearGradient4772)"/>
    <path id="path3052" d="m274.51 518.75c0.11795-10.439 8.4445-13.513 14.142-18.183l46.214-37.881c7.787-6.3828 17.76-10.29 29.8-10.607l28.789-0.75761-3.7881 99.5 0.50508 25.759c0.12675 6.464-6.4752 5.2917-10.607 5.3033l-89.904 0.25254c-11.578 0.0325-15.775-8.2338-15.657-18.688z" fill="url(#radialGradient4769)"/>
    <path id="path3054" d="m296.43 499.15 34.643-28.214c9.7169-7.9138 19.767-9.6812 30.357-10.357l16.786-1.0714c12.809-0.81761 10.202 5.4235 9.6428 10l-3.9286 32.143c-0.83602 6.8401-3.2058 10.845-10.714 11.071l-71.071 2.1429c-16.047 0.48384-14.682-8.4108-5.7143-15.714z" fill="url(#radialGradient4766)"/>
    <path id="path3056" d="m307.86 491.65v16.786c0 2.1117 1.3958 3.1096 5.3572 3.0357l66.964-1.25c0.10229-0.002 0.0791 0.18605 0.055 0.30715l-1.0242 5.142c-0.0379 0.19008 0.0204 0.43825-0.2808 0.44368l-89.107 1.6071c-0.17769 0.003-0.23557-0.0111-0.34208-0.26526l-3.595-8.5787c-0.25747-0.6144-0.66989-1.7139 0.009-2.9417 0 0 6.9719-7.9521 11.071-11.25 3.3971-2.7328 10.119-6.4345 10.377-6.4908 0.37058-0.081 0.64933 0.0508 0.63268 0.4757z" fill="url(#radialGradient4763)"/>
    <g id="g4051" transform="translate(365.22 -29.294)">
      <path id="path3946" d="m536.14 589.08c0 15.272-12.381 27.653-27.653 27.653s-27.653-12.381-27.653-27.653 12.381-27.653 27.653-27.653 27.653 12.381 27.653 27.653z" transform="translate(-369.97 27.4)" fill="url(#radialGradient4066)"/>
      <path id="path3948" d="m536.14 589.08c0 15.272-12.381 27.653-27.653 27.653s-27.653-12.381-27.653-27.653 12.381-27.653 27.653-27.653 27.653 12.381 27.653 27.653z" transform="matrix(.68271 0 0 .68271 -208.63 214.31)" fill="url(#radialGradient4068)"/>
      <path id="path3950" d="m536.14 589.08c0 15.272-12.381 27.653-27.653 27.653s-27.653-12.381-27.653-27.653 12.381-27.653 27.653-27.653 27.653 12.381 27.653 27.653z" transform="matrix(.58380 0 0 .58380 -158.34 272.58)" fill="url(#radialGradient4070)"/>
      <path id="path3952" d="m536.14 589.08c0 15.272-12.381 27.653-27.653 27.653s-27.653-12.381-27.653-27.653 12.381-27.653 27.653-27.653 27.653 12.381 27.653 27.653z" transform="matrix(.28465 0 0 .28465 -6.2256 448.8)" fill="url(#radialGradient4072)"/>
      <path id="path3954" d="m536.14 589.08c0 15.272-12.381 27.653-27.653 27.653s-27.653-12.381-27.653-27.653 12.381-27.653 27.653-27.653 27.653 12.381 27.653 27.653z" transform="matrix(.16624 0 0 .16624 53.985 518.55)" fill="url(#radialGradient4074)"/>
      <path id="path3956" d="m141.02 601.48c0 0.98622-1.1193 1.7857-2.5 1.7857s-2.5-0.79949-2.5-1.7857c1.712-0.63477 3.3721-0.54222 5 0z" fill="#727270"/>
      <path id="path3958" d="m136.02 631.45c0.00001-0.98622 1.1193-1.7857 2.5-1.7857s2.5 0.79949 2.5 1.7857c-1.712 0.63477-3.372 0.54222-5 0z" fill="#727270"/>
      <path id="path3960" d="m153.4 618.98c-0.98622-0.00001-1.7857-1.1193-1.7857-2.5s0.79949-2.5 1.7857-2.5c0.63477 1.712 0.54222 3.372 0 5z" fill="#727270"/>
      <path id="path3962" d="m147.42 628.69c-0.69736-0.69737-0.47122-2.0542 0.50508-3.0304 0.97631-0.97632 2.3331-1.2024 3.0304-0.50508-0.76171 1.6594-2.001 2.7678-3.5355 3.5355z" fill="#727270"/>
      <path id="path3964" d="m123.57 613.98c0.98622 0.00001 1.7857 1.1193 1.7857 2.5s-0.79949 2.5-1.7857 2.5c-0.63477-1.712-0.54222-3.372 0-5z" fill="#727270"/>
      <path id="path3966" d="m129.56 604.07c0.69736 0.69737 0.47122 2.0542-0.50508 3.0304-0.97631 0.97632-2.3331 1.2024-3.0304 0.50508 0.7617-1.6594 2.001-2.7678 3.5355-3.5355z" fill="#727270"/>
      <path id="path3968" d="m126.02 625.16c0.69736-0.69736 2.0541-0.47122 3.0304 0.50508 0.97632 0.97631 1.2024 2.3331 0.50508 3.0304-1.6594-0.76171-2.7678-2.001-3.5355-3.5355z" fill="#727270"/>
      <path id="path3970" d="m150.95 607.61c-0.69736 0.69736-2.0541 0.47123-3.0304-0.50508-0.97631-0.97631-1.2024-2.3331-0.50508-3.0304 1.6594 0.76172 2.7678 2.001 3.5355 3.5355z" fill="#727270"/>
    </g>
    <g id="g4076" transform="translate(99.553 -29.294)">
      <path id="path4078" d="m536.14 589.08c0 15.272-12.381 27.653-27.653 27.653s-27.653-12.381-27.653-27.653 12.381-27.653 27.653-27.653 27.653 12.381 27.653 27.653z" transform="translate(-369.97 27.4)" fill="url(#radialGradient4066)"/>
      <path id="path4080" d="m536.14 589.08c0 15.272-12.381 27.653-27.653 27.653s-27.653-12.381-27.653-27.653 12.381-27.653 27.653-27.653 27.653 12.381 27.653 27.653z" transform="matrix(.68271 0 0 .68271 -208.63 214.31)" fill="url(#radialGradient4068)"/>
      <path id="path4082" d="m536.14 589.08c0 15.272-12.381 27.653-27.653 27.653s-27.653-12.381-27.653-27.653 12.381-27.653 27.653-27.653 27.653 12.381 27.653 27.653z" transform="matrix(.58380 0 0 .58380 -158.34 272.58)" fill="url(#radialGradient4070)"/>
      <path id="path4084" d="m536.14 589.08c0 15.272-12.381 27.653-27.653 27.653s-27.653-12.381-27.653-27.653 12.381-27.653 27.653-27.653 27.653 12.381 27.653 27.653z" transform="matrix(.28465 0 0 .28465 -6.2256 448.8)" fill="url(#radialGradient4072)"/>
      <path id="path4086" d="m536.14 589.08c0 15.272-12.381 27.653-27.653 27.653s-27.653-12.381-27.653-27.653 12.381-27.653 27.653-27.653 27.653 12.381 27.653 27.653z" transform="matrix(.16624 0 0 .16624 53.985 518.55)" fill="url(#radialGradient4074)"/>
      <path id="path4088" d="m141.02 601.48c0 0.98622-1.1193 1.7857-2.5 1.7857s-2.5-0.79949-2.5-1.7857c1.712-0.63477 3.3721-0.54222 5 0z" fill="#727270"/>
      <path id="path4090" d="m136.02 631.45c0.00001-0.98622 1.1193-1.7857 2.5-1.7857s2.5 0.79949 2.5 1.7857c-1.712 0.63477-3.372 0.54222-5 0z" fill="#727270"/>
      <path id="path4092" d="m153.4 618.98c-0.98622-0.00001-1.7857-1.1193-1.7857-2.5s0.79949-2.5 1.7857-2.5c0.63477 1.712 0.54222 3.372 0 5z" fill="#727270"/>
      <path id="path4094" d="m147.42 628.69c-0.69736-0.69737-0.47122-2.0542 0.50508-3.0304 0.97631-0.97632 2.3331-1.2024 3.0304-0.50508-0.76171 1.6594-2.001 2.7678-3.5355 3.5355z" fill="#727270"/>
      <path id="path4096" d="m123.57 613.98c0.98622 0.00001 1.7857 1.1193 1.7857 2.5s-0.79949 2.5-1.7857 2.5c-0.63477-1.712-0.54222-3.372 0-5z" fill="#727270"/>
      <path id="path4098" d="m129.56 604.07c0.69736 0.69737 0.47122 2.0542-0.50508 3.0304-0.97631 0.97632-2.3331 1.2024-3.0304 0.50508 0.7617-1.6594 2.001-2.7678 3.5355-3.5355z" fill="#727270"/>
      <path id="path4100" d="m126.02 625.16c0.69736-0.69736 2.0541-0.47122 3.0304 0.50508 0.97632 0.97631 1.2024 2.3331 0.50508 3.0304-1.6594-0.76171-2.7678-2.001-3.5355-3.5355z" fill="#727270"/>
      <path id="path4102" d="m150.95 607.61c-0.69736 0.69736-2.0541 0.47123-3.0304-0.50508-0.97631-0.97631-1.2024-2.3331-0.50508-3.0304 1.6594 0.76172 2.7678 2.001 3.5355 3.5355z" fill="#727270"/>
    </g>
    <path id="path4116" d="m212.25 557.95c-12.016-7.149-17.737-6.7205-24.364-7.1324-6.8493-0.42573-8.4764 2.4144-8.8388 5.5558l-0.75762 6.566c-0.20333 1.7621 6.2363 9.9892 3.0305 17.93 3.6094 4.8624 14.058 4.4056 21.466 6.3134 0.19274-10.56 0.91443-20.065 9.4638-29.233z" fill="url(#radialGradient4732)"/>
    <path id="path4120" d="m390.8 556.88h69.448c9.4288 0 9.0923 6.566 0 6.566h-69.448z" fill="url(#radialGradient4729)"/>
    <path id="path4122" d="m388.72 556.83h-95.536c-9.9816 0-9.811 6.9643 0 6.9643h95.536z" fill="url(#radialGradient4726)"/>
    <path id="path4124" d="m523.76 560.39c2.8084-5.1863 6.221-13.6 12.491-13.741l15.893-0.35715c6.6055-0.14844 9.4285 1.9417 10.714 6.9643-0.1456 5.8482-1.2841 14.476-0.35714 17.321 1.6138 1.131 1.1046 2.2619 0.89286 3.3928l-26.786 0.89286c-2.5326-5.231-4.9586-8.9356-12.848-14.473z" fill="url(#radialGradient4723)"/>
    <path id="path4126" fill="#f00" d="m562.5 555.04c-1.3069-0.5466-2.4596-0.86204-2.7679 0.0893v6.6071c0.96205 1.2574 1.6916 0.18929 2.5-0.0893z"/>
    <path id="path4128" d="m196.61 524.42c-7.6342 3.5779-10.278 10.044-11.518 17.411h11.161z" fill="url(#radialGradient4719)"/>
    <path id="path4130" d="m185.18 541.56c-1.7842 3.501-2.1616 7.2248-2.5893 9.8214l12.768-0.0893 0.89286-9.8214z" fill="url(#radialGradient4716)"/>
    <g id="g4142">
      <path id="path4132" d="m560.63 549.81c-1.0852-23.901 1.0631-45.863-3.283-71.721-2.597 1.9149-4.8948 5.3254-6.8185 10.607l0.50507 57.579z"/>
      <path id="path4134" d="m558.61 490.46c-4.443 2.4772-3.9419 14.121-4.5304 24.08 1.7003-0.67231 3.7358-2.3678 5.7931-4.1299z" fill="url(#radialGradient4256)"/>
      <path id="path4136" d="m559.75 511.68c-5.4283 6.4038-5.4095 6.3706 0.25254 11.743z" fill="url(#radialGradient4264)"/>
      <path id="path4138" d="m560 525.82c-2.2201-3.4402-3.9199-4.2789-5.6821-5.4296-1.0128 7.1232-0.89448 13.251-0.25254 19.698 0.30253 3.0383 3.4559 1.8695 5.6821 1.6415z" fill="url(#radialGradient4272)"/>
    </g>
    <path id="path4140" fill="url(#linearGradient4776)" d="m389.67 552.08 162.63-2.9438-0.75761-29.128h-160.61z"/>
  </g>
  <metadata>
    <rdf:RDF>
      <cc:Work>
        <dc:format>image/svg+xml</dc:format>
        <dc:type rdf:resource="http://purl.org/dc/dcmitype/StillImage"/>
        <cc:license rdf:resource="http://creativecommons.org/licenses/publicdomain/"/>
        <dc:publisher>
          <cc:Agent rdf:about="http://openclipart.org/">
            <dc:title>Openclipart</dc:title>
          </cc:Agent>
        </dc:publisher>
        <dc:title>Small Truck</dc:title>
        <dc:date>2013-11-12T12:04:38</dc:date>
        <dc:description/>
        <dc:source>http://openclipart.org/detail/188680/small-truck-by-cyberscooty-188680</dc:source>
        <dc:creator>
          <cc:Agent>
            <dc:title>cyberscooty</dc:title>
          </cc:Agent>
        </dc:creator>
        <dc:subject>
          <rdf:Bag>
            <rdf:li>truck</rdf:li>
            <rdf:li>camion</rdf:li>
            <rdf:li>livraison</rdf:li>
            <rdf:li>camionnette</rdf:li>
            <rdf:li>car</rdf:li>
            <rdf:li>voiture</rdf:li>
          </rdf:Bag>
        </dc:subject>
      </cc:Work>
      <cc:License rdf:about="http://creativecommons.org/licenses/publicdomain/">
        <cc:permits rdf:resource="http://creativecommons.org/ns#Reproduction"/>
        <cc:permits rdf:resource="http://creativecommons.org/ns#Distribution"/>
        <cc:permits rdf:resource="http://creativecommons.org/ns#DerivativeWorks"/>
      </cc:License>
    </rdf:RDF>
  </metadata>
</svg>
