<?xml version="1.0"?>
<svg xmlns="http://www.w3.org/2000/svg" version="1.1" width="600px" height="600px" viewBox="0 0 200 200" style="overflow:hidden!important;">
  <defs id="SvgjsDefs105080">
    <radialGradient id="SvgjsRadialGradient105141" cx="100" cy="113" r="40" gradientUnits="userSpaceOnUse" class="svga-on-canvas-facehighlight-gradient-single-0">
      <stop id="SvgjsStop105142" stop-opacity="0.5" stop-color="#f0beb7" offset="0"/>
      <stop id="SvgjsStop105143" stop-opacity="0" stop-color="#e19e95" offset="0.9"/>
    </radialGradient>
    <radialGradient id="SvgjsRadialGradient105145" cx="100" cy="57" r="36" gradientUnits="userSpaceOnUse" class="svga-on-canvas-facehighlight-gradient-single-1">
      <stop id="SvgjsStop105146" stop-opacity="0.5" stop-color="#f0beb7" offset="0"/>
      <stop id="SvgjsStop105147" stop-opacity="0" stop-color="#e19e95" offset="0.9"/>
    </radialGradient>
    <radialGradient id="SvgjsRadialGradient105226" cx="-558.588" cy="-490.918" r="84.646" gradientTransform="matrix(0.096 -0.0248 0.0245 0.0961 140.5478 120.3577)" gradientUnits="userSpaceOnUse" class="svga-on-canvas-eyesiris-gradient-left-1">
      <stop id="SvgjsStop105227" stop-opacity="0.8" stop-color="#ffffff" offset="0"/>
      <stop id="SvgjsStop105228" stop-opacity="0" stop-color="#ffffff" offset="1"/>
    </radialGradient>
    <radialGradient id="SvgjsRadialGradient105230" cx="-565.337" cy="-492.691" r="84.644" gradientTransform="matrix(0.0991 8.856325e-004 -0.0011 0.0991 130.3774 136.3533)" gradientUnits="userSpaceOnUse" class="svga-on-canvas-eyesiris-gradient-left-2">
      <stop id="SvgjsStop105231" stop-opacity="0.8" stop-color="#ffffff" offset="0"/>
      <stop id="SvgjsStop105232" stop-opacity="0" stop-color="#ffffff" offset="1"/>
    </radialGradient>
    <linearGradient id="SvgjsLinearGradient105236" x1="122.283" y1="93.047" x2="123.61" y2="91.466" gradientTransform="matrix(1 0 0 1 -52 0)" gradientUnits="userSpaceOnUse" class="svga-on-canvas-eyesiris-gradient-left-5">
      <stop id="SvgjsStop105237" stop-opacity="1" stop-color="#ffffff" offset="0"/>
      <stop id="SvgjsStop105238" stop-opacity="0" stop-color="#ffffff" offset="1"/>
    </linearGradient>
    <linearGradient id="SvgjsLinearGradient105244" x1="130" y1="81" x2="126" y2="85" gradientTransform="matrix(1 0 0 1 -50 0)" gradientUnits="userSpaceOnUse" class="svga-on-canvas-eyesiris-gradient-left-7">
      <stop id="SvgjsStop105245" stop-opacity="1" stop-color="#ffffff" offset="0"/>
      <stop id="SvgjsStop105246" stop-opacity="0" stop-color="#ffffff" offset="1"/>
    </linearGradient>
    <radialGradient id="SvgjsRadialGradient105249" cx="-578.76" cy="-490.73" r="84.646" gradientTransform="matrix(0.096 -0.0248 0.0245 0.0961 192.4794 119.8404)" gradientUnits="userSpaceOnUse" class="svga-on-canvas-eyesiris-gradient-right-1">
      <stop id="SvgjsStop105250" stop-opacity="0.8" stop-color="#ffffff" offset="0"/>
      <stop id="SvgjsStop105251" stop-opacity="0" stop-color="#ffffff" offset="1"/>
    </radialGradient>
    <radialGradient id="SvgjsRadialGradient105253" cx="-584.778" cy="-487.329" r="84.644" gradientTransform="matrix(0.0991 8.856325e-004 -0.0011 0.0991 182.3104 135.839)" gradientUnits="userSpaceOnUse" class="svga-on-canvas-eyesiris-gradient-right-2">
      <stop id="SvgjsStop105254" stop-opacity="0.8" stop-color="#ffffff" offset="0"/>
      <stop id="SvgjsStop105255" stop-opacity="0" stop-color="#ffffff" offset="1"/>
    </radialGradient>
    <linearGradient id="SvgjsLinearGradient105259" x1="120.284" y1="93.047" x2="121.611" y2="91.467" gradientUnits="userSpaceOnUse" class="svga-on-canvas-eyesiris-gradient-right-5">
      <stop id="SvgjsStop105260" stop-opacity="1" stop-color="#ffffff" offset="0"/>
      <stop id="SvgjsStop105261" stop-opacity="0" stop-color="#ffffff" offset="1"/>
    </linearGradient>
    <linearGradient id="SvgjsLinearGradient105267" x1="130" y1="81" x2="126" y2="85" gradientUnits="userSpaceOnUse" class="svga-on-canvas-eyesiris-gradient-right-7">
      <stop id="SvgjsStop105268" stop-opacity="1" stop-color="#ffffff" offset="0"/>
      <stop id="SvgjsStop105269" stop-opacity="0" stop-color="#ffffff" offset="1"/>
    </linearGradient>
    <radialGradient id="SvgjsRadialGradient105332" cx="125.187" cy="86.184" r="12.84" gradientTransform="matrix(-1.0592 3.999999e-004 -4.000000e-004 1.0589 206.5114 -6.1261)" gradientUnits="userSpaceOnUse" class="svga-on-canvas-eyesback-gradient-left-0">
      <stop id="SvgjsStop105333" stop-opacity="1" stop-color="#ffffff" offset="0"/>
      <stop id="SvgjsStop105334" stop-opacity="1" stop-color="#fdfefe" offset="0.544"/>
      <stop id="SvgjsStop105335" stop-opacity="1" stop-color="#f6f8f9" offset="0.74"/>
      <stop id="SvgjsStop105336" stop-opacity="1" stop-color="#eaeff2" offset="0.879"/>
      <stop id="SvgjsStop105337" stop-opacity="1" stop-color="#d9e3e8" offset="0.992"/>
      <stop id="SvgjsStop105338" stop-opacity="1" stop-color="#d8e2e7" offset="1"/>
    </radialGradient>
    <radialGradient id="SvgjsRadialGradient105340" cx="125.187" cy="86.184" r="12.84" gradientTransform="matrix(1.0592 4.000000e-004 4.000000e-004 1.0589 -6.5114 -6.1261)" gradientUnits="userSpaceOnUse" class="svga-on-canvas-eyesback-gradient-right-0">
      <stop id="SvgjsStop105341" stop-opacity="1" stop-color="#ffffff" offset="0"/>
      <stop id="SvgjsStop105342" stop-opacity="1" stop-color="#fdfefe" offset="0.544"/>
      <stop id="SvgjsStop105343" stop-opacity="1" stop-color="#f6f8f9" offset="0.74"/>
      <stop id="SvgjsStop105344" stop-opacity="1" stop-color="#eaeff2" offset="0.879"/>
      <stop id="SvgjsStop105345" stop-opacity="1" stop-color="#d9e3e8" offset="0.992"/>
      <stop id="SvgjsStop105346" stop-opacity="1" stop-color="#d8e2e7" offset="1"/>
    </radialGradient>
    <radialGradient id="SvgjsRadialGradient105348" cx="125.187" cy="86.184" r="12.84" gradientTransform="matrix(-1.0592 3.999999e-004 -4.000000e-004 1.0589 206.5114 -6.1261)" gradientUnits="userSpaceOnUse" class="svga-on-canvas-eyesfront-gradient-left-0">
      <stop id="SvgjsStop105349" stop-opacity="1" stop-color="#ffffff" offset="0"/>
      <stop id="SvgjsStop105350" stop-opacity="1" stop-color="#fdfefe" offset="0.544"/>
      <stop id="SvgjsStop105351" stop-opacity="1" stop-color="#f6f8f9" offset="0.74"/>
      <stop id="SvgjsStop105352" stop-opacity="1" stop-color="#eaeff2" offset="0.879"/>
      <stop id="SvgjsStop105353" stop-opacity="1" stop-color="#d9e3e8" offset="0.992"/>
      <stop id="SvgjsStop105354" stop-opacity="1" stop-color="#d8e2e7" offset="1"/>
    </radialGradient>
    <radialGradient id="SvgjsRadialGradient105358" cx="123.021" cy="84.391" fx="133.604" fy="80.492" r="17.898" gradientTransform="matrix(0.9998 0.0208 0.0166 -0.7998 -47.4114 149.3288)" gradientUnits="userSpaceOnUse" class="svga-on-canvas-eyesfront-gradient-left-3">
      <stop id="SvgjsStop105359" stop-opacity="1" stop-color="#d28176" offset="0"/>
      <stop id="SvgjsStop105360" stop-opacity="0.3" stop-color="#d28176" offset="0.7"/>
      <stop id="SvgjsStop105361" stop-opacity="0" stop-color="#e19e95" offset="1"/>
    </radialGradient>
    <radialGradient id="SvgjsRadialGradient105363" cx="79.54" cy="83.579" r="23.208" gradientTransform="matrix(1.0971 -0.0567 0.0576 1.0844 -20.1314 20.8883)" gradientUnits="userSpaceOnUse" class="svga-on-canvas-eyesfront-gradient-left-4">
      <stop id="SvgjsStop105364" stop-opacity="0" stop-color="#000000" offset="0.94"/>
      <stop id="SvgjsStop105365" stop-opacity="0.3" stop-color="#000000" offset="1"/>
    </radialGradient>
    <radialGradient id="SvgjsRadialGradient105369" cx="125.187" cy="86.184" r="12.84" gradientTransform="matrix(1.0592 4.000000e-004 4.000000e-004 1.0589 -6.5114 -6.1261)" gradientUnits="userSpaceOnUse" class="svga-on-canvas-eyesfront-gradient-right-0">
      <stop id="SvgjsStop105370" stop-opacity="1" stop-color="#ffffff" offset="0"/>
      <stop id="SvgjsStop105371" stop-opacity="1" stop-color="#fdfefe" offset="0.544"/>
      <stop id="SvgjsStop105372" stop-opacity="1" stop-color="#f6f8f9" offset="0.74"/>
      <stop id="SvgjsStop105373" stop-opacity="1" stop-color="#eaeff2" offset="0.879"/>
      <stop id="SvgjsStop105374" stop-opacity="1" stop-color="#d9e3e8" offset="0.992"/>
      <stop id="SvgjsStop105375" stop-opacity="1" stop-color="#d8e2e7" offset="1"/>
    </radialGradient>
    <radialGradient id="SvgjsRadialGradient105379" cx="123.021" cy="84.391" fx="133.604" fy="80.492" r="17.898" gradientTransform="matrix(-0.9998 0.0208 -0.0166 -0.7998 247.4192 149.3287)" gradientUnits="userSpaceOnUse" class="svga-on-canvas-eyesfront-gradient-right-3">
      <stop id="SvgjsStop105380" stop-opacity="1" stop-color="#d28176" offset="0"/>
      <stop id="SvgjsStop105381" stop-opacity="0.3" stop-color="#d28176" offset="0.7"/>
      <stop id="SvgjsStop105382" stop-opacity="0" stop-color="#e19e95" offset="1"/>
    </radialGradient>
    <radialGradient id="SvgjsRadialGradient105384" cx="79.54" cy="83.579" r="23.208" gradientTransform="matrix(-1.0971 -0.0567 -0.0576 1.0844 220.1314 20.8883)" gradientUnits="userSpaceOnUse" class="svga-on-canvas-eyesfront-gradient-right-4">
      <stop id="SvgjsStop105385" stop-opacity="0" stop-color="#000000" offset="0.94"/>
      <stop id="SvgjsStop105386" stop-opacity="0.3" stop-color="#000000" offset="1"/>
    </radialGradient>
    <linearGradient id="SvgjsLinearGradient105396" x1="130" y1="81" x2="126" y2="85" gradientTransform="matrix(1 0 0 1 -50 0)" gradientUnits="userSpaceOnUse" class="svga-on-canvas-eyesiris-gradient-left-6">
      <stop id="SvgjsStop105397" stop-opacity="1" stop-color="#ffffff" offset="0"/>
      <stop id="SvgjsStop105398" stop-opacity="0" stop-color="#ffffff" offset="1"/>
    </linearGradient>
    <linearGradient id="SvgjsLinearGradient105406" x1="130" y1="81" x2="126" y2="85" gradientUnits="userSpaceOnUse" class="svga-on-canvas-eyesiris-gradient-right-6">
      <stop id="SvgjsStop105407" stop-opacity="1" stop-color="#ffffff" offset="0"/>
      <stop id="SvgjsStop105408" stop-opacity="0" stop-color="#ffffff" offset="1"/>
    </linearGradient>
    <linearGradient id="SvgjsLinearGradient105417" x1="100" y1="142" x2="100" y2="139" gradientUnits="userSpaceOnUse" class="svga-on-canvas-mouth-gradient-single-0">
      <stop id="SvgjsStop105418" stop-opacity="1" stop-color="#d98f85" offset="0.1"/>
      <stop id="SvgjsStop105419" stop-opacity="1" stop-color="#d28176" offset="1"/>
    </linearGradient>
    <linearGradient id="SvgjsLinearGradient105445" x1="99.98" y1="171.27" x2="99.98" y2="136.351" gradientUnits="userSpaceOnUse" class="svga-on-canvas-chinshadow-gradient-single-0">
      <stop id="SvgjsStop105446" stop-opacity="0.8" stop-color="#d28176" offset="0"/>
      <stop id="SvgjsStop105447" stop-opacity="1" stop-color="#b34e41" offset="0.7"/>
    </linearGradient>
  </defs>
  <g id="svga-group-wrapper">
    <g id="svga-group-backs-single">
      <path id="SvgjsPath105294" d="M225 225H-25V-25h250V225z" fill="#ece5ce" stroke-width="none" opacity="1" stroke="none"/>
      <path id="SvgjsPath105295" d="M10 33.299L0 16.649l10-16.65 10 16.65L10 33.299zM40 16.649L30-0.001l-10 16.65 10 16.65L40 16.649zM60 16.649L50-0.001l-10 16.65 10 16.65L60 16.649zM80 16.649L70-0.001l-10 16.65 10 16.65L80 16.649zM100 16.649L90-0.001l-10 16.65 10 16.65L100 16.649zM120 16.649l-10-16.65 -10 16.65 10 16.65L120 16.649zM140 16.649l-10-16.65 -10 16.65 10 16.65L140 16.649zM160 16.649l-10-16.65 -10 16.65 10 16.65L160 16.649zM180 16.649l-10-16.65 -10 16.65 10 16.65L180 16.649zM200 16.649l-10-16.65 -10 16.65 10 16.65L200 16.649zM20 49.982l-10-16.65L0 49.982l10 16.65L20 49.982zM40 49.982l-10-16.65 -10 16.65 10 16.65L40 49.982zM60 49.982l-10-16.65 -10 16.65 10 16.65L60 49.982zM80 49.982l-10-16.65 -10 16.65 10 16.65L80 49.982zM100 49.982l-10-16.65 -10 16.65 10 16.65L100 49.982zM120 49.982l-10-16.65 -10 16.65 10 16.65L120 49.982zM140 49.982l-10-16.65 -10 16.65 10 16.65L140 49.982zM160 49.982l-10-16.65 -10 16.65 10 16.65L160 49.982zM180 49.982l-10-16.65 -10 16.65 10 16.65L180 49.982zM200 49.982l-10-16.65 -10 16.65 10 16.65L200 49.982zM20 83.316l-10-16.65L0 83.316l10 16.65L20 83.316zM40 83.316l-10-16.65 -10 16.65 10 16.65L40 83.316zM60 83.316l-10-16.65 -10 16.65 10 16.65L60 83.316zM80 83.316l-10-16.65 -10 16.65 10 16.65L80 83.316zM100 83.316l-10-16.65 -10 16.65 10 16.65L100 83.316zM120 83.316l-10-16.65 -10 16.65 10 16.65L120 83.316zM140 83.316l-10-16.65 -10 16.65 10 16.65L140 83.316zM160 83.316l-10-16.65 -10 16.65 10 16.65L160 83.316zM180 83.316l-10-16.65 -10 16.65 10 16.65L180 83.316zM200 83.316l-10-16.65 -10 16.65 10 16.65L200 83.316zM20 116.649L10 100l-10 16.65 10 16.649L20 116.649zM40 116.649L30 100l-10 16.65 10 16.649L40 116.649zM60 116.649L50 100l-10 16.65 10 16.649L60 116.649zM80 116.649L70 100l-10 16.65 10 16.649L80 116.649zM100 116.649L90 100l-10 16.65 10 16.649L100 116.649zM120 116.649L110 100l-10 16.65 10 16.649L120 116.649zM140 116.649L130 100l-10 16.65 10 16.649L140 116.649zM160 116.649L150 100l-10 16.65 10 16.649L160 116.649zM180 116.649L170 100l-10 16.65 10 16.649L180 116.649zM200 116.649L190 100l-10 16.65 10 16.649L200 116.649zM20 149.982l-10-16.649L0 149.982l10 16.649L20 149.982zM40 149.982l-10-16.649 -10 16.649 10 16.649L40 149.982zM60 149.982l-10-16.649 -10 16.649 10 16.649L60 149.982zM80 149.982l-10-16.649 -10 16.649 10 16.649L80 149.982zM100 149.982l-10-16.649 -10 16.649 10 16.649L100 149.982zM120 149.982l-10-16.649 -10 16.649 10 16.649L120 149.982zM140 149.982l-10-16.649 -10 16.649 10 16.649L140 149.982zM160 149.982l-10-16.649 -10 16.649 10 16.649L160 149.982zM180 149.982l-10-16.649 -10 16.649 10 16.649L180 149.982zM200 149.982l-10-16.649 -10 16.649 10 16.649L200 149.982zM20 183.315l-10-16.649L0 183.315l10 16.649L20 183.315zM40 183.315l-10-16.649 -10 16.649 10 16.649L40 183.315zM60 183.315l-10-16.649 -10 16.649 10 16.649L60 183.315zM80 183.315l-10-16.649 -10 16.649 10 16.649L80 183.315zM100 183.315l-10-16.649 -10 16.649 10 16.649L100 183.315zM120 183.315l-10-16.649 -10 16.649 10 16.649L120 183.315zM140 183.315l-10-16.649 -10 16.649 10 16.649L140 183.315zM160 183.315l-10-16.649 -10 16.649 10 16.649L160 183.315zM180 183.315l-10-16.649 -10 16.649 10 16.649L180 183.315zM200 183.315l-10-16.649 -10 16.649 10 16.649L200 183.315z" fill="#ddd1ab" stroke-width="none" opacity="1" stroke="none"/>
    </g>
    <g id="svga-group-humanwrap-move" transform="matrix(1,0,0,1,0,0)">
      <g id="svga-group-humanwrap" transform="matrix(1,0,0,1,0,0)">
        <g id="svga-group-hair-back-move" transform="matrix(1,0,0,1,0,0)">
          <g id="svga-group-hair-back" transform="matrix(1,0,0,1,0,0)">
            <path id="SvgjsPath105307" d="M100.5,100.5h-1v-1h1V100.5z" fill="#504543" stroke-width="none" opacity="1" stroke="none"/>
          </g>
        </g>
        <g id="svga-group-humanbody-single">
          <path id="SvgjsPath105148" d="M190.858 199.866c-6.008-10.158-13.474-11.973-19.628-13.936 -6.323-2.016-19.346-3.178-26.449-4.6 -6.86-1.373-23.153-5.789-23.339-13.488 -0.192-8.066 4.291-40.09 4.291-40.09H74.005c0 0 4.487 32.023 4.294 40.09 -0.184 7.699-16.48 12.115-23.341 13.488 -7.104 1.422-20.125 2.584-26.448 4.6 -6.156 1.963-13.624 3.777-19.632 13.936 -3.644 6.16-6.008 16.133-6.008 27.133h194C196.869 215.999 194.509 206.026 190.858 199.866z" fill="#e19e95" stroke-width="none" opacity="1" stroke="none"/>
          <path id="SvgjsPath105149" d="M121.442 167.843c2.495 10.929 18.165 13.698 26.293 15.325 21.909 4.379 33.772 5.134 42.297 19.539 2.903 4.916 5.459 15.864 5.962 24.153 1.835 0.291 0.531-17.432-5.136-26.994 -9.742-16.472-29.089-15.135-46.077-18.535C137.921 179.958 121.628 175.542 121.442 167.843L121.442 167.843zM78.558 167.843c-0.186 7.699-16.479 12.115-23.339 13.488 -16.988 3.4-36.335 2.063-46.077 18.535 -5.667 9.563-6.971 27.285-5.136 26.994 0.503-8.289 3.059-19.237 5.962-24.153 8.524-14.405 20.388-15.16 42.297-19.539C60.393 181.541 76.063 178.771 78.558 167.843L78.558 167.843z" fill="#f0beb7" stroke-width="none" opacity="1" stroke="none"/>
          <path id="SvgjsPath105150" d="M51.206 189.513c0 0 28.641 0.299 33.473 1.885 2.314 0.758 8.372 5.633 8.372 5.633s-6.556-3.17-8.658-3.758C79.51 191.909 51.206 189.513 51.206 189.513zM99.795 199.999c2.053-0.041 7.887-3.799 7.887-3.799s-5.574 2.059-7.342 2.16c-1.491 0.086-6.366-1.238-6.366-1.238S98.112 200.032 99.795 199.999zM117.008 192.757c6.75-1.818 29.786-3.23 29.786-3.23s-23.791-0.516-30.51 1.725c-2.252 0.752-7.562 5.16-7.562 5.16S114.786 193.354 117.008 192.757z" fill="#d28176" stroke-width="none" opacity="1" stroke="none"/>
          <path id="SvgjsPath105151" d="M190.858 199.866c-9.741-16.471-29.122-15.142-46.077-18.535 -6.86-1.373-23.153-5.789-23.339-13.488 -0.192-8.066 4.291-40.09 4.291-40.09H74.005c0 0 4.487 32.023 4.294 40.09 -0.184 7.699-16.48 12.115-23.341 13.488 -7.104 1.422-20.125 2.584-26.448 4.6 -6.156 1.963-13.624 3.777-19.632 13.936 -3.644 6.16-6.008 16.133-6.008 27.133h194C196.869 215.999 194.509 206.026 190.858 199.866z" fill="none" stroke="#b34e41" stroke-width="1.5" opacity="1"/>
        </g>
        <g id="svga-group-chinshadow-single">
          <path id="SvgjsPath105444" d="M74.767 128.517c0.594 4.297 3.11 22.794 3.929 33.496 6.172 3.567 11.423 8.992 21.307 8.992 9.736 0 14.976-5.264 21.031-8.831 0.805-10.679 3.341-29.34 3.938-33.657l0.017-0.113H74.751L74.767 128.517z" fill="url(#SvgjsLinearGradient105445)" opacity="1"/>
        </g>
        <g id="svga-group-clothes-single">
          <path id="SvgjsPath105430" d="M1.21 226.811c-0.09-1.096 0.089-6.144 0.169-7.69 1.305-24.199 9.403-29.321 42.489-39.116 15.99-4.732 20.453-6.269 26.144-18.359 1.614-3.43 3.009-6.393 6.011-7.444 15.289 8.429 28.472 8.16 47.416 1.143 3.516 0.491 4.597 4.978 5.414 8.217 5.254 20.016 37.606 15.497 52.146 23.753 15.091 7.44 15.778 32.33 15.631 39.781 0.003 0.021 0.005 0.039 0.006 0.056C177.005 227.983 25.68 228.386 1.21 226.811z" fill="#cbe9ee" stroke-width="none" opacity="1" stroke="none"/>
          <path id="SvgjsPath105431" d="M176.786 216.725c0.847-10.266 1.101-18.312 4.157-27.83 -4.426 14.753 1.476 26.354-7.266 34.423C174.774 220.681 176.516 219.998 176.786 216.725zM24 203c-1.608-3.938-3.672-7.405-4.444-13.604 -0.28 0.134-0.394-0.626-0.666-0.492 1.111 11.097 4.736 15.713 5.84 31.829C24.556 214.957 25.534 206.758 24 203zM121.459 156.274c-0.581 0.144-1.164 0.78-1.75 0.899 8.181 7.474 2.813 10.296 14.771 23.422 0.333-0.167 1.415-0.766 2.718-1.523C129.319 174.611 127.548 163.537 121.459 156.274zM126 180c0.447 1.342 1.101 2.482 1.859 3.603 -0.457 0.174-0.908 0.362-1.37 0.522 -2.363-3.073-4.632-6.134-6.139-12.489 -1.558-6.561-0.884-5.584-5.94-12.752 0.319-0.045 0.954-0.411 1.448-0.491C120.643 165.023 122.608 172.368 126 180zM133.719 181.005c-0.481 0.25-0.969 0.488-1.457 0.725 -6.715-7.001-9.364-15.664-13.832-23.789 0.307-0.059 0.907-0.818 1.188-0.876 3.964 4.215 3.947 6.305 5.151 10.061C126.338 171.828 130.603 177.889 133.719 181.005zM111.212 160.025c3.591 9.259 5.941 16.57 6.595 26.388 -0.469 0.085-0.937 0.17-1.407 0.242 -0.65-5.13-1.491-10.462-1.739-11.689 -0.992-4.915-2.781-11.482-4.401-14.82C110.578 160.113 110.894 160.063 111.212 160.025zM125.619 184.426c-0.555 0.185-1.115 0.352-1.676 0.519 -5.889-7.32-5.781-16.893-10.411-26.211 0.182-0.025 0.465-0.041 0.646-0.068 5.14 8.711 3.5 6.198 5.83 15.03C121.229 178.313 123.751 182.464 125.619 184.426zM115.509 186.785c-0.369 0.053-0.746 0.089-1.12 0.133 -1.339-9.809-1.877-17.542-5.437-26.651 0.249-0.022 0.499-0.037 0.747-0.062C112.922 168.123 114.231 179.352 115.509 186.785zM91.081 160.364c-3.267 8.975-3.961 15.986-4.586 25.452 -0.369-0.063-0.742-0.123-1.105-0.191 0.281-8.057 1.408-18.063 4.9-25.33C90.553 160.322 90.817 160.34 91.081 160.364zM75.389 182.894c-0.419-0.152-0.842-0.297-1.26-0.458 5.056-6.227 7.374-16.511 7.99-24.521 0.332 0.081 0.663 0.15 0.995 0.226C83.353 167.592 79.914 174.831 75.389 182.894zM89.779 160.245c-4.003 7.147-5.299 17.074-5.13 25.23 -0.319-0.063-0.618-0.137-0.93-0.203 -0.337-9.561 0.856-17.051 5.107-25.256C89.146 160.056 89.455 160.212 89.779 160.245zM66.165 179.01c-0.527-0.256-1.054-0.51-1.576-0.774 2.807-1.871 5.653-4.711 7.56-7.97 1.716-2.93 5.611-11.628 6.41-14.44 0.269 0.104 0.543 0.189 0.816 0.282C77.312 165.13 72.909 173.355 66.165 179.01zM73.509 182.205c-0.559-0.215-1.106-0.456-1.661-0.682 4.743-7.656 6.889-16.213 7.854-25.317 0.614 0.203 1.23 1.398 1.847 1.56C80.13 166.507 78.633 174.861 73.509 182.205zM78.229 155.705c-0.65 1.82-1.54 3.55-2.45 5.311 -2.167 4.379-4.345 11.597-11.83 16.88 -0.542-0.276-1.08-0.564-1.618-0.854 6.891-5.698 10.479-14.131 14.154-21.908C77.048 155.346 77.63 155.466 78.229 155.705z" fill="#a8d7df" stroke-width="none" opacity="1" stroke="none"/>
          <path id="SvgjsPath105432" d="M60.172 177.15l-1.928-1.29c-16.809 6.537-42.125 8.875-52 25.125 -3.719 6.119-4.913 15.014-4.913 26.014 2.027-5.485 0.759-14.439 6.636-23.292C19.401 186.481 39.771 188.32 60.172 177.15zM190.033 203.707c5.067 9.34 4.608 17.807 6.636 23.292 0-11-2.281-19.354-4.913-26.014 -7.483-18.933-33.191-16.791-50-23.328l-1.928 1.29C160.229 190.117 178.203 181.902 190.033 203.707z" fill="#f1fcfd" stroke-width="none" opacity="1" stroke="none"/>
          <path id="SvgjsPath105433" d="M181.049 187.226c-14.496-8.229-46.88-3.804-52.1-23.69 -0.653-2.542-1.702-7.762-5.53-8.29 -0.188 0.037-0.761-0.129-0.76-0.129 -15.076 5.88-30.845 7.63-46.67-1.011 -7.111 2.493-5.169 15.246-18.61 21.22 -5.86 2.654-13.6 4.395-24.6 7.98 -25.782 8.41-30.463 16.581-31.5 35.81 -0.073 1.41-0.273 6.859-0.16 7.79 27.119 1.767 181.426 0.968 195.61 0.34 0.01-0.05 0.01-0.1 0-0.149C197.017 212.672 193.824 193.524 181.049 187.226zM123.799 155.824c7.203 2.412-0.831 13.455 15.84 21.791 -2.201 1.354-4.629 2.715-5.159 2.98 -11.958-13.126-6.443-15.043-14.173-23.123C121.739 156.826 122.459 156.244 123.799 155.824zM119.917 157.563c3.964 4.215 3.648 5.807 4.853 9.563 1.568 4.703 5.833 10.764 8.949 13.88 -2.33 1.211-4.75 2.261-7.229 3.12 -2.363-3.073-4.408-6.164-6.039-12.489 -1.438-5.573-0.936-6.018-5.741-12.652C115.709 158.843 118.341 157.886 119.917 157.563zM114.278 159.063c5.14 8.711 3.4 5.8 5.73 14.632 1.22 4.618 3.742 8.769 5.61 10.73 -3.01 1-6.1 1.75-9.22 2.229 -0.65-5.13-1.414-10.458-1.64-11.689 -1-5.454-2.881-11.482-4.501-14.82C111.539 160.016 113.009 159.254 114.278 159.063zM109.699 160.205c3.223 7.918 4.532 19.146 5.81 26.58 -2.942 0.418-6.063 0.57-8.979 0.57 -0.001-0.025-1.897-15.809-2.641-26.162C105.917 160.893 108.049 160.662 109.699 160.205zM103.389 161.213c0.05 11.677 0.956 14.712 2.41 26.152 -3.489 0.01-6.97-0.149-10.459-0.45 2.365-19.61 3.55-25.632 3.55-25.632C100.732 161.283 102.403 161.246 103.389 161.213zM98.269 161.283c-2.776 15.35-3.252 19.064-3.58 25.572 -3.189-0.268-6.325-0.668-9.3-1.23 0.281-8.057 1.408-18.063 4.9-25.33C92.939 160.565 95.609 161.273 98.269 161.283zM89.779 160.245c-4.003 7.147-5.299 17.074-5.13 25.23 -3.873-0.771-7.202-1.758-10.52-3.04 5.056-6.227 7.374-16.511 7.99-24.521C84.642 158.53 87.31 159.698 89.779 160.245zM81.549 157.766c-1.419 8.741-2.916 17.096-8.04 24.439 -3.04-1.17-6.02-2.5-8.92-3.97 2.807-1.871 5.653-4.711 7.56-7.97 1.716-2.93 5.511-11.429 6.31-14.241C79.439 156.404 80.549 157.505 81.549 157.766zM75.789 154.804c0.77 0.471 1.49 0.761 2.34 1.101 -0.65 1.82-1.44 3.351-2.35 5.111 -2.167 4.379-4.345 11.597-11.83 16.88 -1.39-0.71-2.77-1.46-4.12-2.25C71.408 169.404 69.452 157.678 75.789 154.804zM1.559 226.655c0.136-3.996 0.887-16.321 3.59-22.41 2.73-6.149 8-10.39 13.88-13.52 -0.402 9.421 4.184 10.589 4.5 21.85 0.09 3.41 0.56 6.76 1.13 10.12 -0.26-3.53-0.37-7.03-0.35-10.57 0.058-10.247-4.58-12.021-4.58-21.779 7.43-3.782 15.967-6.216 24.41-8.761 4.94-1.479 9.94-3.029 14.56-5.359 13.184 8.692 25.449 13.279 47.35 13.149 15.873 0 25.119-4.104 34.9-11.109 13.149 6.077 30.126 5.28 39.46 10.91 -1.655 4.925-2.791 7.494-3.1 10.18 -0.715 6.32 0.347 10.814-0.561 16.62 -0.53 3.37-3.12 5.85-3.82 9.16 2.036-6.202 5.709-3.93 5.261-18.551 -0.257-8.245 0.476-8.458 2.779-17.069 11.486 7.199 14.441 24.116 15.091 37.58C162.822 226.877 14.665 226.935 1.559 226.655z" fill="#6ab4c0" stroke-width="none" opacity="1" stroke="none"/>
        </g>
        <g id="svga-group-head" transform="matrix(1,0,0,1,0,0)">
          <g id="svga-group-ears-left-move" transform="matrix(1,0,0,1,0,0)" style="display: none;">
            <g id="svga-group-ears-left" transform="matrix(1,0,0,1,0,0)">
              <path id="SvgjsPath105425" d="M45.443 81.864c-1.469-2.399-6.648-7.441-10.31-6.519 -2.979 0.752-6.032 3.199-6.032 7.37 -0.001 6.462 1.496 9.209 2.501 12.141 0.856 2.495 3.915 7.068 5.761 8.841 2.273 2.179 5.957 9.221 6.404 9.941 0.705 1.137 1.877 2.946 4.043 3.014 3.29 0.103 7.085-2.077 7.323-3.44C56.42 105.816 49.263 88.107 45.443 81.864z" fill="#e19e95" stroke="#b34e41" stroke-width="1.5" opacity="1"/>
              <path id="SvgjsPath105426" d="M43.596 98.002c-0.142-0.549 0.007-1.474 0.152-2.367 0.131-0.814 0.255-1.583 0.18-2.126 -0.285-2.036-1.892-5.906-2.942-8.003 -1.208-2.412-4.117-5.452-6.568-6.235 -1.013-0.325-1.681 0.063-2.067 0.456 -0.284 0.289-0.347 0.628-0.254 0.668 0.093 0.04 0.304-0.241 0.61-0.505 0.25-0.217 0.617-0.402 1.122-0.364 -0.203 1.014-3.138 4.164-1.381 10.249 0.822 2.849 1.992 5.143 2.202 5.473 0.032 0.347 0.083 0.687 0.159 1.016 0.991 4.297 7.286 11.382 8.785 12.981 0.277 0.296 0.567 0.471 0.639 0.4 0.072-0.071-0.1-0.363-0.376-0.661 -1.48-1.589-7.734-8.657-8.69-12.803 -1.754-7.595 1.916-7.723 4.499-12.3 0.397 0.647 0.733 1.27 0.993 1.789 0.203 0.407 0.429 0.883 0.661 1.398 -0.458 0.719-5.059 5.972-3.889 10.175 0.433 1.55 3.779 3.548 5.073 4.096 0.712 0.302 0.979 0.752 1.289 1.273 0.359 0.605 0.767 2.758 1.95 3.254 0.241 0.101 0.458 0.143 0.651 0.143 0.334 0 0.587-0.126 0.774-0.276 0.019 0.264 0.018 0.604 0.008 0.917 -0.011 0.405 0.046 0.738 0.147 0.746s0.208-0.313 0.221-0.717c0.016-0.497 0.014-1.112-0.077-1.407 -0.265-0.867-1.076-1.845-1.934-2.88C44.688 101.372 43.815 98.852 43.596 98.002zM34.616 94.192c-2.322-6.746 0.993-12.568 1.514-13.495 0.908 0.776 2.662 1.815 3.314 2.83C36.33 88.848 34.811 85.147 34.616 94.192zM45.884 105.528c-1.072-0.449-1.431-2.52-1.778-3.104 -0.314-0.528-0.639-1.074-1.461-1.423 -0.179-0.076-0.376-0.191-0.578-0.324 -3.861-5.679 0.291-8.507 1.027-9.037 0.226 0.724 0.396 1.387 0.47 1.919 0.068 0.489-0.058 1.266-0.179 2.017 -0.15 0.931-0.306 1.894-0.145 2.518 0.24 0.928 1.14 3.481 2.01 4.531 0.772 0.933 1.564 1.893 1.835 2.676C46.97 105.458 46.604 105.83 45.884 105.528z" fill="#b34e41" stroke-width="none" opacity="1" stroke="none"/>
            </g>
          </g>
          <g id="svga-group-ears-right-move" transform="matrix(1,0,0,1,0,0)" style="display: none;">
            <g id="svga-group-ears-right" transform="matrix(1,0,0,1,0,0)">
              <path id="SvgjsPath105427" d="M154.295 81.864c1.469-2.399 6.648-7.441 10.311-6.519 2.979 0.752 6.031 3.199 6.031 7.37 0.002 6.462-1.496 9.209-2.5 12.141 -0.857 2.495-3.916 7.068-5.762 8.841 -2.273 2.179-5.957 9.221-6.404 9.941 -0.705 1.137-1.877 2.946-4.043 3.014 -3.291 0.103-7.086-2.077-7.324-3.44C143.318 105.816 150.475 88.107 154.295 81.864z" fill="#e19e95" stroke="#b34e41" stroke-width="1.5" opacity="1"/>
              <path id="SvgjsPath105428" d="M154.205 102.391c-0.857 1.036-1.668 2.013-1.934 2.88 -0.09 0.295-0.092 0.91-0.076 1.407 0.014 0.404 0.119 0.725 0.221 0.717s0.158-0.341 0.146-0.746c-0.01-0.313-0.01-0.653 0.01-0.917 0.186 0.15 0.439 0.276 0.773 0.276 0.193 0 0.41-0.042 0.65-0.143 1.184-0.496 1.592-2.649 1.951-3.254 0.311-0.521 0.576-0.971 1.289-1.273 1.293-0.548 4.639-2.545 5.072-4.096 1.17-4.204-3.432-9.456-3.889-10.175 0.232-0.515 0.457-0.991 0.66-1.398 0.26-0.519 0.596-1.141 0.994-1.789 2.582 4.577 6.252 4.705 4.498 12.3 -0.957 4.146-7.209 11.214-8.689 12.803 -0.275 0.298-0.447 0.59-0.377 0.661 0.072 0.07 0.361-0.104 0.639-0.4 1.5-1.6 7.795-8.685 8.785-12.981 0.076-0.33 0.129-0.669 0.16-1.016 0.209-0.33 1.379-2.624 2.201-5.473 1.758-6.085-1.178-9.235-1.381-10.249 0.504-0.039 0.871 0.147 1.123 0.364 0.305 0.265 0.518 0.545 0.609 0.505 0.094-0.041 0.029-0.379-0.254-0.668 -0.387-0.393-1.055-0.781-2.068-0.456 -2.451 0.783-5.359 3.823-6.568 6.235 -1.049 2.097-2.656 5.967-2.941 8.003 -0.074 0.544 0.049 1.313 0.18 2.126 0.145 0.894 0.293 1.818 0.152 2.367C155.924 98.852 155.051 101.372 154.205 102.391zM160.295 83.528c0.652-1.015 2.406-2.054 3.313-2.83 0.521 0.926 3.836 6.749 1.516 13.495C164.928 85.147 163.408 88.848 160.295 83.528zM152.652 105.301c0.271-0.783 1.064-1.743 1.836-2.676 0.869-1.05 1.77-3.603 2.01-4.531 0.16-0.624 0.006-1.586-0.145-2.518 -0.121-0.751-0.248-1.528-0.18-2.017 0.074-0.532 0.244-1.195 0.471-1.919 0.734 0.53 4.887 3.358 1.025 9.037 -0.201 0.133-0.398 0.248-0.578 0.324 -0.822 0.349-1.146 0.895-1.461 1.423 -0.346 0.584-0.705 2.655-1.777 3.104C153.135 105.83 152.768 105.458 152.652 105.301z" fill="#b34e41" stroke-width="none" opacity="1" stroke="none"/>
            </g>
          </g>
          <g id="svga-group-faceshape-wrap" transform="matrix(1,0,0,1,0,0)">
            <g id="svga-group-faceshape-single">
              <path id="SvgjsPath105441" d="M100.002 0.867C66.384 0.919 39.082 28.09 39.134 61.564c0.009 5.316 0.704 10.471 2.002 15.382h0.001c0.012 0.053 8.12 35.231 11.82 46.756 2.775 8.646 14.288 21.634 22.398 24.913 7.826 3.165 13.039 10.654 24.646 10.654s16.82-7.489 24.646-10.654c8.11-3.279 19.624-16.268 22.398-24.913 3.7-11.524 11.809-46.703 11.819-46.756h0.002c1.298-4.911 1.994-10.066 2.002-15.382C160.923 28.09 133.62 0.919 100.002 0.867z" fill="#e19e95" stroke-width="none" opacity="1" stroke="none"/>
              <path id="SvgjsPath105442" d="M140.727 16.481c10.424 10.984 16.867 26.145 16.844 42.883 -0.009 5.316-0.666 10.471-1.894 15.382h-0.001c-0.011 0.053-7.681 35.231-11.18 46.756 -2.623 8.646-13.515 21.634-21.184 24.913 -7.403 3.164-12.333 10.654-23.31 10.654 -10.978 0-15.908-7.49-23.309-10.654 -7.671-3.279-18.56-16.268-21.184-24.913 -3.5-11.524-11.168-46.703-11.18-46.756h-0.001c-1.229-4.911-1.886-10.066-1.894-15.382 -0.025-16.736 6.418-31.896 16.84-42.88 -12.382 11.111-20.168 27.193-20.141 45.08 0.009 5.316 0.704 10.471 2.002 15.382h0.001c0.012 0.053 8.12 35.231 11.82 46.756 2.775 8.646 14.288 21.634 22.398 24.913 7.826 3.165 13.039 10.654 24.646 10.654s16.82-7.489 24.646-10.654c8.11-3.279 19.624-16.268 22.398-24.913 3.7-11.524 11.809-46.703 11.819-46.756h0.002c1.298-4.911 1.994-10.066 2.002-15.382C160.898 43.676 153.111 27.593 140.727 16.481z" fill="#d98f85" stroke-width="none" opacity="1" stroke="none"/>
              <path id="SvgjsPath105443" d="M100.002 0.867C66.384 0.919 39.082 28.09 39.134 61.564c0.009 5.316 0.704 10.471 2.002 15.382h0.001c0.012 0.053 8.12 35.231 11.82 46.756 2.775 8.646 14.288 21.634 22.398 24.913 7.826 3.165 13.039 10.654 24.646 10.654s16.82-7.489 24.646-10.654c8.11-3.279 19.624-16.268 22.398-24.913 3.7-11.524 11.809-46.703 11.819-46.756h0.002c1.298-4.911 1.994-10.066 2.002-15.382C160.923 28.09 133.62 0.919 100.002 0.867z" fill="none" stroke="#b34e41" stroke-width="1.5" opacity="1"/>
            </g>
          </g>
          <g id="svga-group-mouth-single-move" transform="matrix(1,0,0,1,0,0)">
            <g id="svga-group-mouth-single" transform="matrix(1,0,0,1,0,0)">
              <path id="SvgjsPath105416" d="M100.126 141.95c-2.835 0-3.5-2.934-3.5-2.934s3.898 0.763 7 0C103.626 139.017 102.621 141.95 100.126 141.95z" fill="url(#SvgjsLinearGradient105417)" opacity="1"/>
              <path id="SvgjsPath105420" d="M100.523 139.779c-1.987 0-3.757-0.267-3.868-0.283 -0.137-0.021-0.23-0.147-0.209-0.284 0.021-0.137 0.154-0.226 0.285-0.209 0.041 0.005 4.071 0.61 6.747 0.002 0.133-0.025 0.27 0.055 0.3 0.189s-0.054 0.268-0.188 0.299C102.643 139.708 101.554 139.779 100.523 139.779z" fill="#b34e41" stroke-width="none" opacity="1" stroke="none"/>
              <path id="SvgjsPath105421" d="M84 130c0 0 11.487 1.189 15.325 1.199C103.499 131.208 117 130 117 130c-3.903 2.826-8.199 5.543-17.926 5.597C90.373 135.646 88.145 132.889 84 130z" fill="#ffffff" stroke-width="none" opacity="1"/>
              <path id="SvgjsPath105422" d="M84 130c0 0 11.487 1.189 15.325 1.199C103.499 131.208 117 130 117 130c-3.903 2.826-8.199 5.543-17.926 5.597C90.373 135.646 88.145 132.889 84 130z" fill="none" stroke="#c92066" stroke-width="0.75" opacity="1"/>
            </g>
          </g>
          <g id="svga-group-eyes-left-move" transform="matrix(1,0,0,1,0,0)">
            <g id="svga-group-eyes-left" transform="matrix(1,0,0,1,0,0)">
              <g id="svga-group-eyesback-left">
                <path id="SvgjsPath105331" d="M83.271 92.712c-3.293-0.892-4.969 1.202-9.809 1.324 -8.057 0.203-9.938-0.703-11.199-2.996C61.74 90.088 61.24 88.849 61 88.083l-0.1-4.715c1.328-4.488 19.541-4.944 25.9 2.027 0.287 0.757 0.433 1.463 0.465 2.122 -0.19 1.09-0.512 2.136-0.947 3.124C85.611 91.562 84.556 92.262 83.271 92.712z" fill="url(#SvgjsRadialGradient105332)" opacity="1"/>
              </g>
              <g id="svga-group-eyesiriswrapper-left" transform="matrix(1,0,0,1,-0.5,0)">
                <g id="svga-group-eyesiriscontrol-left" transform="matrix(1,0,0,1,0,0)">
                  <g id="svga-group-eyesiris-left" transform="matrix(1,0,0,1,0,0)">
                    <path id="SvgjsPath105389" d="M83.206 89.25c-1.231 4.522-5.896 7.187-10.429 5.944 -4.528-1.241-7.203-5.918-5.97-10.442 1.23-4.526 5.905-7.19 10.434-5.947C81.768 80.045 84.439 84.723 83.206 89.25z" fill="#3c8d8e" stroke="#0c5f60" stroke-width="0.5" opacity="1"/>
                    <path id="SvgjsPath105390" d="M73.962 81.918l-0.221-0.395c-0.776 0.308-1.524 0.631-2.232 0.973l0.524 1.267 -0.066 0.732 -2.021-1.189c-0.66 0.367-1.273 0.75-1.867 1.14l0.005 0.013 -0.692 0.78 1.107 1.132 -1.491 0.813 0.563 0.931 2.633 0.262 -2.468 1.673 2.641-0.146L68.984 92.3l3.255-1.969 -0.875 3.349 1.883-3.093 0.363 3.319 0.544-2.936 0.5-0.061 0.709 3.329 0.216-0.998c0.284-0.074 1.018 0.997 1.297 0.922l-0.829-3.621 1.817 3.621 -0.737-3.756 2.236 2.905c0.08-0.025 0.278-1.204 0.357-1.228l-1.392-2.081 2.53 0.763 -1.518-1.643 -1.219-1.009 5.083 1.137 -2.83-1.723 2-0.818 -4.329-0.437 4.281-2.27 -3.875 0.988 -1.043-0.565 -0.256-0.501 0.074-1.199 0.086-1.967 -1.768 3.113 -0.156-2.279 -0.222-0.597c-0.354 0.124-0.702 0.245-1.043 0.375L73.962 81.918z" fill="#529c9d" stroke-width="none" opacity="1" stroke="none"/>
                    <path id="SvgjsPath105391" d="M83.303 85.237c-7.429 0.338-11.206 1.927-16.591 3.727 -1.038-4.574 1.839-9.12 6.42-10.149C77.712 77.786 82.267 80.661 83.303 85.237z" fill="#297e7f" stroke-width="none" opacity="0.9" stroke="none"/>
                    <path id="SvgjsPath105392" d="M76.234,84.165c-1.869-0.536-3.777,0.532-4.258,2.395c-0.484,1.853,0.64,3.793,2.51,4.329c1.871,0.537,3.781-0.532,4.264-2.386C79.237,86.639,78.107,84.7,76.234,84.165z" fill="#000000" stroke-width="none" opacity="0.8"/>
                    <path id="SvgjsPath105393" d="M76.234,84.165c-1.869-0.536-3.777,0.532-4.258,2.395c-0.484,1.853,0.64,3.793,2.51,4.329c1.871,0.537,3.781-0.532,4.264-2.386C79.237,86.639,78.107,84.7,76.234,84.165z" fill="none" stroke="#0c5f60" stroke-width="0.75" opacity="1"/>
                    <path id="SvgjsPath105394" d="M68.812 92.044c0.868 1.378 2.021 2.416 3.653 2.762 1.879 0.398 2.094-2.101 0.748-2.387 -1.02-0.215-1.667-0.715-2.199-1.561C70.039 89.31 68.029 90.803 68.812 92.044L68.812 92.044z" fill="#ffffff" stroke-width="none" opacity="0.5"/>
                    <path id="SvgjsPath105395" d="M76.468 83.449c1.316 0.265 2.082 1.087 2.747 2.323 1.222 2.272 4.676 0.252 3.453-2.019 -1.073-1.995-2.86-3.703-5.138-4.162C74.615 79.004 74.206 82.993 76.468 83.449L76.468 83.449z" fill="url(#SvgjsLinearGradient105396)" opacity="1"/>
                  </g>
                </g>
              </g>
              <g id="svga-group-eyesfront-left">
                <path id="SvgjsPath105356" d="M55.5 87c0 13.808 8.283 24.999 18.5 24.999S92.5 100.808 92.5 87c0-13.809-8.283-25.001-18.5-25.001S55.5 73.191 55.5 87zM61 88.083l-0.1-4.715c1.328-4.488 19.541-4.944 25.9 2.027 1.396 3.674-0.409 6.224-3.529 7.317 -3.293-0.892-4.969 1.202-9.809 1.324 -8.057 0.203-9.938-0.703-11.199-2.996C61.74 90.088 61.24 88.849 61 88.083z" fill="#e19e95" stroke-width="none" opacity="1" stroke="none"/>
                <path id="SvgjsPath105357" d="M59.898 85.083c0.023 8.56 7.646 15.459 17.038 15.416 9.389-0.049 16.985-7.022 16.961-15.583 -0.023-8.562-7.647-15.463-17.04-15.417C67.465 69.549 59.874 76.522 59.898 85.083zM61 88.083l-0.1-4.715c1.328-4.488 19.541-4.944 25.9 2.027 1.396 3.674-0.409 6.224-3.529 7.317 -3.293-0.892-4.969 1.202-9.809 1.324 -8.057 0.203-9.938-0.703-11.199-2.996C61.74 90.088 61.24 88.849 61 88.083z" fill="url(#SvgjsRadialGradient105358)" opacity="1"/>
                <path id="SvgjsPath105362" d="M62.264 91.041C61.74 90.088 61.24 88.849 61 88.083l-0.1-4.715c1.328-4.488 19.541-4.944 25.9 2.027 1.396 3.674-0.409 6.224-3.529 7.317 -3.293-0.892-4.969 1.202-9.809 1.324C65.406 94.239 63.524 93.333 62.264 91.041z" fill="url(#SvgjsRadialGradient105363)" opacity="1"/>
                <path id="SvgjsPath105366" d="M89.665 83.698c-9.617-6.546-16.701-6.963-28.117-6.129C71.077 75.863 82.052 77.099 89.665 83.698z" fill="#b34e41" stroke-width="none" opacity="1" stroke="none"/>
                <path id="SvgjsPath105367" d="M87.697 85.861c0.371 0.625 0.543 0.968 0.733 2.484C85.19 78.896 62.487 78.841 61 83.593v4.427c-1.021-1.75-1.494-3.878-1.931-5.889 -0.093-0.428-2.348-2.602-2.348-2.602s2.435 1.326 2.798 1.349c-0.182-0.216-1.127-1.248-1.127-1.248s2.251 0.931 2.576 0.843c-0.436-0.186-1.071-0.823-1.071-0.823 0.483 0.141 1.646 0.604 2.723 0.369 10.863-2.365 22.558 0.247 26.703 8C88.648 87.037 88.225 86.47 87.697 85.861zM84.943 93.048c-4.625-2.25-5.94 0.428-11.563 0.563 -8.004 0.191-9.567-0.871-11.125-2.813 0.813 2.375 1.375 3.504 10.875 3.438C78.506 94.198 81.443 91.673 84.943 93.048z" fill="#302040" stroke-width="none" opacity="1" stroke="none"/>
              </g>
            </g>
          </g>
          <g id="svga-group-eyes-right-move" transform="matrix(1,0,0,1,0,0)">
            <g id="svga-group-eyes-right" transform="matrix(1,0,0,1,0,0)">
              <g id="svga-group-eyesback-right">
                <path id="SvgjsPath105339" d="M116.729 92.712c3.293-0.892 4.969 1.202 9.809 1.324 8.057 0.203 9.938-0.703 11.199-2.996 0.523-0.952 1.023-2.191 1.264-2.958l0.1-4.715c-1.328-4.488-19.541-4.944-25.9 2.027 -0.287 0.757-0.433 1.463-0.465 2.122 0.19 1.09 0.512 2.136 0.947 3.124C114.389 91.562 115.444 92.262 116.729 92.712z" fill="url(#SvgjsRadialGradient105340)" opacity="1"/>
              </g>
              <g id="svga-group-eyesiriswrapper-right" transform="matrix(1,0,0,1,0.5,0)">
                <g id="svga-group-eyesiriscontrol-right" transform="matrix(1,0,0,1,0,0)">
                  <g id="svga-group-eyesiris-right" transform="matrix(1,0,0,1,0,0)">
                    <path id="SvgjsPath105399" d="M133.199 89.25c-1.231 4.522-5.896 7.187-10.429 5.944 -4.528-1.241-7.203-5.918-5.97-10.442 1.23-4.526 5.905-7.19 10.434-5.947C131.761 80.045 134.433 84.723 133.199 89.25z" fill="#3c8d8e" stroke="#0c5f60" stroke-width="0.5" opacity="1"/>
                    <path id="SvgjsPath105400" d="M123.955 81.918l-0.221-0.395c-0.776 0.308-1.524 0.631-2.232 0.973l0.524 1.267 -0.066 0.732 -2.021-1.189c-0.66 0.367-1.273 0.75-1.867 1.14l0.005 0.013 -0.692 0.78 1.107 1.132L117 87.182l0.563 0.931 2.633 0.262 -2.468 1.673 2.641-0.146 -1.392 2.398 3.255-1.969 -0.875 3.349 1.883-3.093 0.363 3.319 0.544-2.936 0.5-0.061 0.709 3.329 0.216-0.998c0.284-0.074 1.018 0.997 1.297 0.922l-0.829-3.621 1.817 3.621 -0.737-3.756 2.236 2.905c0.08-0.025 0.278-1.204 0.357-1.228l-1.392-2.081 2.53 0.763 -1.518-1.643 -1.219-1.009 5.083 1.137 -2.83-1.723 2-0.818 -4.329-0.437 4.281-2.27 -3.875 0.988 -1.043-0.565 -0.256-0.501 0.074-1.199 0.086-1.967 -1.768 3.113 -0.156-2.279 -0.222-0.597c-0.354 0.124-0.702 0.245-1.043 0.375L123.955 81.918z" fill="#529c9d" stroke-width="none" opacity="1" stroke="none"/>
                    <path id="SvgjsPath105401" d="M133.296 85.237c-7.429 0.338-11.206 1.927-16.591 3.727 -1.038-4.574 1.839-9.12 6.42-10.149C127.705 77.786 132.26 80.661 133.296 85.237z" fill="#297e7f" stroke-width="none" opacity="0.9" stroke="none"/>
                    <path id="SvgjsPath105402" d="M126.229,84.165c-1.869-0.536-3.777,0.532-4.259,2.395c-0.484,1.853,0.641,3.793,2.509,4.329c1.873,0.537,3.78-0.532,4.266-2.386C129.229,86.639,128.101,84.7,126.229,84.165z" fill="#000000" stroke-width="none" opacity="0.8"/>
                    <path id="SvgjsPath105403" d="M126.229,84.165c-1.869-0.536-3.777,0.532-4.259,2.395c-0.484,1.853,0.641,3.793,2.509,4.329c1.873,0.537,3.78-0.532,4.266-2.386C129.229,86.639,128.101,84.7,126.229,84.165z" fill="none" stroke="#0c5f60" stroke-width="0.75" opacity="1"/>
                    <path id="SvgjsPath105404" d="M118.805 92.044c0.868 1.378 2.021 2.416 3.653 2.762 1.879 0.398 2.094-2.101 0.748-2.387 -1.02-0.215-1.667-0.715-2.199-1.561C120.032 89.31 118.022 90.803 118.805 92.044L118.805 92.044z" fill="#ffffff" stroke-width="none" opacity="0.5"/>
                    <path id="SvgjsPath105405" d="M126.461 83.449c1.316 0.265 2.082 1.087 2.747 2.323 1.222 2.272 4.676 0.252 3.453-2.019 -1.073-1.995-2.86-3.703-5.138-4.162C124.608 79.004 124.199 82.993 126.461 83.449L126.461 83.449z" fill="url(#SvgjsLinearGradient105406)" opacity="1"/>
                  </g>
                </g>
              </g>
              <g id="svga-group-eyesfront-right">
                <path id="SvgjsPath105377" d="M126 61.999c-10.217 0-18.5 11.192-18.5 25.001 0 13.808 8.283 24.999 18.5 24.999S144.5 100.808 144.5 87C144.5 73.191 136.217 61.999 126 61.999zM137.736 91.041c-1.261 2.293-3.143 3.199-11.199 2.996 -4.84-0.122-6.516-2.216-9.809-1.324 -3.12-1.093-4.925-3.643-3.529-7.317 6.359-6.971 24.572-6.516 25.9-2.027l-0.1 4.715C138.76 88.849 138.26 90.088 137.736 91.041z" fill="#e19e95" stroke-width="none" opacity="1" stroke="none"/>
                <path id="SvgjsPath105378" d="M123.146 69.499c-9.393-0.045-17.017 6.856-17.04 15.417 -0.024 8.56 7.572 15.533 16.961 15.583 9.392 0.043 17.015-6.856 17.038-15.416C140.129 76.522 132.537 69.549 123.146 69.499zM137.736 91.041c-1.261 2.293-3.143 3.199-11.199 2.996 -4.84-0.122-6.516-2.216-9.809-1.324 -3.12-1.093-4.925-3.643-3.529-7.317 6.359-6.971 24.572-6.516 25.9-2.027l-0.1 4.715C138.76 88.849 138.26 90.088 137.736 91.041z" fill="url(#SvgjsRadialGradient105379)" opacity="1"/>
                <path id="SvgjsPath105383" d="M137.736 91.041c0.523-0.952 1.023-2.191 1.264-2.958l0.1-4.715c-1.328-4.488-19.541-4.944-25.9 2.027 -1.396 3.674 0.409 6.224 3.529 7.317 3.293-0.892 4.969 1.202 9.809 1.324C134.594 94.239 136.476 93.333 137.736 91.041z" fill="url(#SvgjsRadialGradient105384)" opacity="1"/>
                <path id="SvgjsPath105387" d="M110.335 83.698c9.617-6.546 16.701-6.963 28.117-6.129C128.923 75.863 117.948 77.099 110.335 83.698z" fill="#b34e41" stroke-width="none" opacity="1" stroke="none"/>
                <path id="SvgjsPath105388" d="M110.677 88.021c4.146-7.754 15.84-10.365 26.703-8 1.077 0.234 2.239-0.229 2.723-0.369 0 0-0.636 0.637-1.071 0.823 0.325 0.088 2.576-0.843 2.576-0.843s-0.945 1.032-1.127 1.248c0.363-0.022 2.798-1.349 2.798-1.349s-2.255 2.174-2.348 2.602c-0.437 2.011-0.91 4.139-1.931 5.889v-4.427c-1.487-4.752-24.19-4.698-27.431 4.751 0.19-1.516 0.362-1.859 0.733-2.484C111.775 86.47 111.352 87.037 110.677 88.021zM126.869 94.235c9.5 0.066 10.063-1.063 10.875-3.438 -1.558 1.941-3.121 3.004-11.125 2.813 -5.622-0.134-6.938-2.813-11.563-0.563C118.557 91.673 121.494 94.198 126.869 94.235z" fill="#302040" stroke-width="none" opacity="1" stroke="none"/>
              </g>
            </g>
          </g>
          <g id="svga-group-facehighlight-single">
            <path id="SvgjsPath105140" d="M140.204 113.007c0.035 22.275-17.995 40.365-40.273 40.396 -22.274 0.036-40.361-17.993-40.396-40.272C59.501 90.857 77.53 72.77 99.808 72.735 122.083 72.701 140.171 90.73 140.204 113.007z" fill="url(#SvgjsRadialGradient105141)" opacity="1"/>
            <path id="SvgjsPath105144" d="M135,55.999c0,19.329-15.671,35-35,35c-19.329,0-35-15.671-35-35s15.671-35,35-35C119.329,20.999,135,36.67,135,55.999z" fill="url(#SvgjsRadialGradient105145)" opacity="1"/>
          </g>
          <g id="svga-group-eyebrows-left-move" transform="matrix(1,0,0,1,0,0)">
            <g id="svga-group-eyebrows-left-rotate" transform="matrix(1,0,0,1,0,0)">
              <g id="svga-group-eyebrows-left" transform="matrix(1,0,0,1,0,0)">
                <path id="SvgjsPath105409" d="M57.992 72.441c14.723-3.028 33.357 2.799 33.336-0.649 0-0.869-0.892-1.128-1.755-1.194C74.692 69.333 68.299 68.423 57.992 72.441z" fill="#504543" stroke-width="none" opacity="1" stroke="none"/>
              </g>
            </g>
          </g>
          <g id="svga-group-eyebrows-right-move" transform="matrix(1,0,0,1,0,0)">
            <g id="svga-group-eyebrows-right-rotate" transform="matrix(1,0,0,1,0,0)">
              <g id="svga-group-eyebrows-right" transform="matrix(1,0,0,1,0,0)">
                <path id="SvgjsPath105410" d="M142.008 72.441c-4.028-0.829-6.352-1.175-12.865-0.904 -7.413 0.219-20.486 2.799-20.471 0.254 0-0.869 0.892-1.128 1.755-1.194C125.38 69.328 131.708 68.426 142.008 72.441z" fill="#504543" stroke-width="none" opacity="1" stroke="none"/>
              </g>
            </g>
          </g>
          <g id="svga-group-nose-single-move" transform="matrix(1,0,0,1,0,0)">
            <g id="svga-group-nose-single" transform="matrix(1,0,0,1,0,0)">
              <path id="SvgjsPath105423" d="M100.906,119.814c-0.402,0.434-0.73,0.381-1.108-0.07c0,0-4.82-3.077-4.208-4.488c0.967-2.233,9.735,0,9.735,0L100.906,119.814z" fill="#d28176" stroke-width="none" opacity="1" stroke="none"/>
              <path id="SvgjsPath105424" d="M94.389,113.263c0,0,4.937-12.754,5.366-15.484c0.814,4.431-1.917,14.293-2.125,16.306c-0.251,2.444,2.645,5.497,2.645,5.497c0.238,0.544,0.062,0.682-0.395,0.313l-5.077-3.354C93.601,115.627,93.601,114.756,94.389,113.263z M102.579,115.924c0.7,0.143,0.847,0.395,0.793,0.655c-0.054,0.264-0.354,0.625-0.986,0.295c-0.695-0.36-2.005-0.525-2.005-0.525S101.879,115.78,102.579,115.924z" fill="#b34e41" stroke-width="none" opacity="1" stroke="none"/>
            </g>
          </g>
          <g id="svga-group-hair-front" transform="matrix(1,0,0,1,0,0)">
            <path id="SvgjsPath105309" d="M47.869 62.985c3.513-27.218 48.858-44.766 54.189-42.089 3.002-1.44 59.328 41.036 59.561 62.839 0 0-22.007 19.356-22.043 12.485 -0.167-6.713-13.667-24.08-19.264-31.097 -5.428-6.805-11.027-15.225-14.647-23.392 -4.578 8.854-19.762 23.128-25.737 27.531C67.71 78.266 61 97.833 57.482 108.704c-0.619 1.911-4.764 11.061-5.409 13.031C47.527 110.639 44.016 90.357 47.869 62.985z" fill="#504543" stroke-width="none" opacity="0.1" stroke="none"/>
            <path id="SvgjsPath105310" d="M168.612 36.164c-11.808-25.213-46.156-48.481-67.878-36.371C56.411-23.993-12.496 66.971 47.647 132.54c0.04 0.039 0.068 0.08 0.106 0.117 6.074 6.596 13.227 12.621 20.452 17.504 -7.228-9.984-13.803-23.407-15.666-35.879 5.939-18.021 9.266-33.725 25.459-47.317 11.026-9.255 24.281-19.122 26.669-31.375 8.063 19.831 29.816 38.467 34.742 52.624 0.175 14.627-3.735 28.098-4.854 32.623 0.078-0.156 0.164-0.309 0.252-0.461 2.984-5.375 5.861-10.77 7.771-16.451 0.83 17.059-5.808 30.435-9.904 39.925 -0.024 0.074-0.057 0.152-0.096 0.229 0.096-0.055 0.184-0.117 0.277-0.174 10.322-6.818 20.082-19.361 26.105-31.27 -0.029 6.242-0.487 14.134-0.654 16.42 12.835-17.958 14.087-34.884 15.084-37.911 1.148 5.97 3.297 11.975 4.45 14.41C177.24 88.977 179.117 61.413 168.612 36.164z" fill="#504543" stroke-width="none" opacity="1" stroke="none"/>
            <path id="SvgjsPath105311" d="M51.208 109.438c0-6.093 5.659-15.235 9.328-19.373 -2.775 5.59-9.544 23.984-12.005 36.941 -10.121-26.649-12.492-60.43 1.831-85.612 -7.582 20.698-12.034 42.867-4.909 64.212 -0.282-10.386-3.378-28.761 11.511-52.691C52.404 70.117 49.348 88.952 51.208 109.438zM132.976 143.647c7.391-16.72 11.956-30.775 10.782-43.793 -2.152-25.444-27.056-37.068-38.985-64.839 0.318-1.777 0.471-3.621 0.444-5.539 9.521 17.034 19.978 32.215 32.325 47.389 8.24 11.171 9.617 24.143 9.675 37.368 8.372-21.988 6.938-47.563-1.999-68.982 10.55 22.035 11.512 45.986 7.673 69.938 9.591-21.079 15.347-44.071 9.591-67.063 7.674 15.328 6.716 32.574 4.798 49.817 4.887-15.444 4.245-31.577 4.527-47.23 4.599 17.244 5.055 34.973 5.669 53.032 -1.95-5.682-2.966-10.747-3.828-15.828 -0.933 7.967-8.212 29.021-13.68 36.627 0.328-4.131 1.277-12.111 0.624-15.301 7.063-15.559 9.48-33.147 4.829-48.237 5.855 21.703-3.052 49.26-18.405 68.239C140.26 137.597 132.976 143.647 132.976 143.647zM31.064 89.32c-6.8-45.275 9.097-58.79 13.522-70.31 -29.467 43.476-22.078 83.66 4.453 113.845 -4.957-12.771-8.754-27.238-9.195-40.821 -2.356-23.177 2.663-43.048 16.813-60.129C36.466 39.67 32.89 69.26 31.064 89.32zM61.507 71.393c0.009-0.046 0.054-0.11 0.073-0.151 6.306-13.188 36.734-34.118 34.307-50.216C95.953 36.276 64.273 57.929 61.507 71.393zM144.898 70.541c-6.164-26.016-21.354-29.824-28.256-47.629C121.069 39.346 141.615 56.636 144.898 70.541zM156.993 57.518c-0.429-1-2.813-44.361-41.932-52.052C147.991 14.834 155.178 53.282 156.993 57.518zM54.609 48.921c2.004-8.177 19.884-29.726 44.862-36.666C66.938 18.025 56.496 41.245 54.609 48.921z" fill="#413230" stroke-width="none" opacity="1" stroke="none"/>
            <path id="SvgjsPath105312" d="M139.866 89.507c1.416 4.177 2.241 8.354 2.585 12.531 -1.793 5.488-4.423 10.873-7.097 16.119C138.077 106.88 139.948 98.58 139.866 89.507zM66.029 147.937c-6.774-9.178-12.443-20.299-14.15-31.596 -1.161 3.689-2.178 7.482-3.069 11.373 -0.164 1-7.26-16.94-9.166-35.68 0.441 13.583 3.739 27.053 8.696 39.825C53.527 137.663 59.466 143.026 66.029 147.937z" fill="#31221f" stroke-width="none" opacity="1" stroke="none"/>
            <path id="SvgjsPath105313" d="M99.492 21.262c6.403 27.793-34.873 40.474-47.226 76.474C58.369 65.985 105.136 46.985 99.492 21.262zM61.565 55.39c7.799-16.374 20.656-28.475 35.459-38.564C80.005 25.778 68.787 37.707 61.565 55.39zM44.976 31.335C57.328 16.982 73.192 2.764 93.413 6.039 71.708-0.369 56.906 15.907 44.976 31.335zM144.42 40.044c-7.511-14.379-11.145-24.352-28.859-28.113C128.931 15.938 138.894 27.608 144.42 40.044zM160.831 41.313c-8.623-20.082-15.026-37.805-40.267-40.29C140.522 4.832 153.31 23.794 160.831 41.313zM148.999 87.979c-6.548-25.538-31.097-43.208-37.737-69.219C117.109 44.848 140.279 62.557 148.999 87.979z" fill="#5f5a59" stroke-width="none" opacity="1" stroke="none"/>
            <path id="SvgjsPath105314" d="M68.099 150.319c-0.357-0.24-0.713-0.482-1.071-0.742 -7.286-5.061-13.82-10.709-19.416-16.789l-0.105-0.117c-18.576-20.25-26.419-44.969-22.688-71.48C28.485 32.793 56.267-4.408 85.672-4.408c5.168 0 10.234 1.339 15.061 3.98 3.049-1.681 6.354-2.657 9.824-2.902 0.989-0.11 2.008-0.165 3.02-0.165 22.907 0 46.485 20.957 55.21 39.577 10.676 25.664 8.609 53.598 9.244 69.465 -1.773 0.431-4.38-14.611-4.7-13.611 -2.573 15.701-7.636 27.015-15.258 37.785 0.342-5.056 0.642-11.302 0.69-16.279 -5.813 11.226-16.08 24.686-26.651 31.145 0.644-1.295 5.088-11.688 6.555-15.709 2.759-8.625 3.989-16.467 3.762-23.93 -1.189 3.328-7.057 16.209-8.058 15.842 1.29-5.103 5.015-18.297 4.849-32.574 -2.741-7.384-12.181-19.162-16.715-24.847 -6.644-8.33-13.507-16.938-17.777-27.128 -2.516 11.593-15.759 20.462-25.535 29.844l-1.06 1.019C62.619 79.735 58.88 95.656 52.723 114.343c1.617 10.686 6.855 22.955 14.758 34.453l0.317 0.453c0.187 0.271 0.373 0.535 0.563 0.799L68.099 150.319zM85.601-3.042c-27.724 0-51.227 30.485-57.536 57.25 -8.282 38.193 6.515 69.453 37.047 92.8 -5.138-7.166-11.279-17.813-13.293-29.828 -1.255 4.081-2.127 7.559-2.953 11.145 -0.874-1.174-11.19-25.575-9.863-52.053 1.522-30.324 18.792-47.229 19.792-46.254C34.57 56.681 38.052 98.385 48.472 126.302c8.589-43.809 21.73-53.742 30.996-62.736 9.346-9.079 22.174-17.653 24.512-29.297 0.84-3.792 0.87-8.88-0.459-14.422 1-0.263 2.621 8.516 1.45 15.145 4.28 9.938 11.15 18.077 17.798 25.946 11.641 13.784 20.032 24.737 21.18 38.901 1.676 18.497-6.649 34.395-10.519 43.248 9.021-7.685 19.341-20.076 25.357-33.021 12.789-27.033 6.814-49.114 6.814-49.114 4.394 14.256 2.641 31.864-4.81 48.315 0.605 3.115-0.233 10.563-0.574 14.588 4.892-7.168 12.303-27.878 13.241-35.958 0.15-0.004 3.665 14.189 3.777 14.535 -0.797-25.368-1.724-48.296-12.615-70.531 -7.655-16.931-31.764-34.917-52.126-34.917 -5.002 0-10.735 1.879-15.997 6.018l-0.243-0.296c1.055-0.911 2.188-1.744 3.368-2.48C95.049-1.944 90.333-3.042 85.601-3.042zM136.789 112.726c-0.259 1.234-0.548 2.518-0.87 3.895 2.262-4.479 4.684-9.54 6.353-14.64 -0.331-3.818-1.073-7.623-2.217-11.269C139.975 98.485 138.447 105.874 136.789 112.726z" fill="#221512" stroke-width="none" opacity="1" stroke="none"/>
          </g>
          <g id="svga-group-glasses-single-move" transform="matrix(1,0,0,1,0,0)">
            <g id="svga-group-glasses-single" transform="matrix(1,0,0,1,0,0)">
              <path id="SvgjsPath105411" d="M126.39 107.87c-15.66 0-21.19-17.14-21.19-21.52 0-8.59 6.99-15.59 15.59-15.59h18.09c6.52 0 11.83 5.3 11.83 11.82C150.7 97 140.25 107.87 126.39 107.87zM73.61 107.87c15.66 0 21.19-17.14 21.19-21.52 0-8.59-6.99-15.59-15.59-15.59h-18.1c-6.52 0-11.82 5.3-11.82 11.82C49.3 97 59.75 107.87 73.61 107.87z" fill="#da6972" stroke-width="none" opacity="0.7" stroke="none"/>
              <path id="SvgjsPath105412" d="M150.31 87.31c-12.66-3.75-27.83-6.14-43.59-7.63 2.51-5.26 7.86-8.91 14.06-8.91h18.09c6.52 0 11.83 5.3 11.83 11.82C150.7 84.21 150.56 85.79 150.31 87.31zM92.71 78.58c-2.7-4.66-7.73-7.81-13.49-7.81h-18.1c-4.66 0-8.69 2.72-10.62 6.65C63.59 77.4 78.15 77.67 92.71 78.58z" fill="#5b1d0d" stroke-width="none" opacity="0.1"/>
              <path id="SvgjsPath105413" d="M138.88 70.29h-18.09c-5.72 0-10.74 2.99-13.58 7.49 -3.76 1.11-10.53 1.14-14.39 0 -2.85-4.5-7.87-7.49-13.58-7.49h-18.1c-6.79 0-12.3 5.51-12.3 12.3 0 14.25 9.98 25.39 24.23 25.75 15.9 0.41 22.23-16.43 22.23-21.99 0-1.27-0.15-2.5-0.43-3.69 1.73-1.13 8.53-1.15 10.29 0 -0.28 1.18-0.43 2.42-0.43 3.69 0 5.55 6.33 22.4 22.24 21.99 14.24-0.36 24.23-11.5 24.23-25.75C151.18 75.8 145.67 70.29 138.88 70.29zM73.61 107.4c-13.39 0-23.84-10.28-23.84-24.8 0-6.26 5.09-11.35 11.35-11.35h18.1c8.33 0 15.11 6.78 15.11 15.11C94.33 90.64 88.92 107.4 73.61 107.4zM126.39 107.4c-15.31 0-20.72-16.76-20.72-21.04 0-8.33 6.78-15.11 15.11-15.11h18.09c6.26 0 11.35 5.09 11.35 11.35C150.22 97.12 139.78 107.4 126.39 107.4z" fill="#1a1a1a" stroke-width="none" opacity="1"/>
              <path id="SvgjsPath105414" d="M104.36 79.25c1.67-6.81 10.16-10.06 20.78-11.12 12.62-1.26 21.46-0.12 29.13 4.46 0.45 0.27 0.73 0.76 0.73 1.28v3.87c0 0.51-0.21 0.99-0.58 1.34l-3.6 3.4c0.05-2.41-1.05-5.04-3.94-7.36 -2.64-2.11-11-2.97-20.31-2.8 -9.91 0.19-15.12 1.75-20.32 6.6L104.36 79.25zM95.64 79.25c-1.67-6.81-10.16-10.06-20.78-11.12C62.24 66.87 53.41 68 45.73 72.59 45.28 72.86 45 73.35 45 73.87v3.87c0 0.51 0.21 0.99 0.58 1.34l3.6 3.4c-0.05-2.41 1.05-5.04 3.94-7.36 2.64-2.11 11-2.97 20.31-2.8 9.91 0.19 15.12 1.75 20.32 6.6L95.64 79.25z" fill="#000000" stroke-width="none" opacity="1"/>
              <path id="SvgjsPath105415" d="M154.04 77.3c-0.14-3.26-0.6-3.52-1.98-4.41 0 0-1.23-0.83-2.92-1.57 -2.31-1.03-3.17-1.34-4.92-1.91 2.67 0.52 9.19 2.52 9.76 5.16C154.19 75.43 154.12 76.41 154.04 77.3zM125.95 68.67c-7.38 0.84-15.72 2.28-19.97 8.35C110.43 71.69 117.37 70.45 125.95 68.67zM47.93 72.88c1.24-0.83 2.92-1.57 2.92-1.57 2.95-1.32 4-1.61 4.92-1.91 -1.68 0.32-3.38 0.74-5.1 1.51 -4.97 2.2-4.98 3.34-4.71 6.38C46.1 73.84 46.7 73.69 47.93 72.88zM74.05 68.67c9.17 1.91 12.03 2.63 16.29 5.07 2.3 1.55 2.69 2.1 3.68 3.29C89.77 70.94 81.48 69.51 74.05 68.67z" fill="#4d4d4d" stroke-width="none" opacity="1"/>
            </g>
          </g>
        </g>
      </g>
    </g>
    <rect id="SvgjsRect105125" width="200" height="15" x="0" y="185" fill="#ecf0f1" opacity="0.5" style="display: none;"/>
    <text id="SvgjsText105126" font-family="Roboto, Helvetica, Arial, sans-serif" font-size="10px" text-anchor="start" font-weight="400" anchor="start" fill="#333333" x="58.03125" y="182.4296875" style="display: none;">
      <tspan id="SvgjsTspan105127" dy="13" x="58.03125">Created on face.co</tspan>
    </text>
  </g>
</svg>
