<?xml version="1.0"?>
<svg xmlns="http://www.w3.org/2000/svg" version="1.1" width="600px" height="600px" viewBox="0 0 200 200" style="overflow:hidden!important;">
  <defs id="SvgjsDefs48753">
    <radialGradient id="SvgjsRadialGradient48814" cx="100" cy="113" r="40" gradientUnits="userSpaceOnUse" class="svga-on-canvas-facehighlight-gradient-single-0">
      <stop id="SvgjsStop48815" stop-opacity="0.5" stop-color="#fff4f3" offset="0"/>
      <stop id="SvgjsStop48816" stop-opacity="0" stop-color="#f3d4cf" offset="0.9"/>
    </radialGradient>
    <radialGradient id="SvgjsRadialGradient48818" cx="100" cy="57" r="36" gradientUnits="userSpaceOnUse" class="svga-on-canvas-facehighlight-gradient-single-1">
      <stop id="SvgjsStop48819" stop-opacity="0.5" stop-color="#fff4f3" offset="0"/>
      <stop id="SvgjsStop48820" stop-opacity="0" stop-color="#f3d4cf" offset="0.9"/>
    </radialGradient>
    <radialGradient id="SvgjsRadialGradient48903" cx="-565.337" cy="-492.691" r="84.644" gradientTransform="matrix(0.0991 8.856325e-004 -0.0011 0.0991 130.3774 136.3533)" gradientUnits="userSpaceOnUse" class="svga-on-canvas-eyesiris-gradient-left-2">
      <stop id="SvgjsStop48904" stop-opacity="0.8" stop-color="#ffffff" offset="0"/>
      <stop id="SvgjsStop48905" stop-opacity="0" stop-color="#ffffff" offset="1"/>
    </radialGradient>
    <linearGradient id="SvgjsLinearGradient48909" x1="122.283" y1="93.047" x2="123.61" y2="91.466" gradientTransform="matrix(1 0 0 1 -52 0)" gradientUnits="userSpaceOnUse" class="svga-on-canvas-eyesiris-gradient-left-5">
      <stop id="SvgjsStop48910" stop-opacity="1" stop-color="#ffffff" offset="0"/>
      <stop id="SvgjsStop48911" stop-opacity="0" stop-color="#ffffff" offset="1"/>
    </linearGradient>
    <linearGradient id="SvgjsLinearGradient48913" x1="127" y1="85" x2="125" y2="87" gradientTransform="matrix(1 0 0 1 -50 0)" gradientUnits="userSpaceOnUse" class="svga-on-canvas-eyesiris-gradient-left-6">
      <stop id="SvgjsStop48914" stop-opacity="1" stop-color="#ffffff" offset="0"/>
      <stop id="SvgjsStop48915" stop-opacity="0" stop-color="#ffffff" offset="1"/>
    </linearGradient>
    <linearGradient id="SvgjsLinearGradient48917" x1="130" y1="81" x2="126" y2="85" gradientTransform="matrix(1 0 0 1 -50 0)" gradientUnits="userSpaceOnUse" class="svga-on-canvas-eyesiris-gradient-left-7">
      <stop id="SvgjsStop48918" stop-opacity="1" stop-color="#ffffff" offset="0"/>
      <stop id="SvgjsStop48919" stop-opacity="0" stop-color="#ffffff" offset="1"/>
    </linearGradient>
    <radialGradient id="SvgjsRadialGradient48926" cx="-584.778" cy="-487.329" r="84.644" gradientTransform="matrix(0.0991 8.856325e-004 -0.0011 0.0991 182.3104 135.839)" gradientUnits="userSpaceOnUse" class="svga-on-canvas-eyesiris-gradient-right-2">
      <stop id="SvgjsStop48927" stop-opacity="0.8" stop-color="#ffffff" offset="0"/>
      <stop id="SvgjsStop48928" stop-opacity="0" stop-color="#ffffff" offset="1"/>
    </radialGradient>
    <linearGradient id="SvgjsLinearGradient48932" x1="120.284" y1="93.047" x2="121.611" y2="91.467" gradientUnits="userSpaceOnUse" class="svga-on-canvas-eyesiris-gradient-right-5">
      <stop id="SvgjsStop48933" stop-opacity="1" stop-color="#ffffff" offset="0"/>
      <stop id="SvgjsStop48934" stop-opacity="0" stop-color="#ffffff" offset="1"/>
    </linearGradient>
    <linearGradient id="SvgjsLinearGradient48936" x1="127" y1="85" x2="125" y2="87" gradientUnits="userSpaceOnUse" class="svga-on-canvas-eyesiris-gradient-right-6">
      <stop id="SvgjsStop48937" stop-opacity="1" stop-color="#ffffff" offset="0"/>
      <stop id="SvgjsStop48938" stop-opacity="0" stop-color="#ffffff" offset="1"/>
    </linearGradient>
    <linearGradient id="SvgjsLinearGradient48940" x1="130" y1="81" x2="126" y2="85" gradientUnits="userSpaceOnUse" class="svga-on-canvas-eyesiris-gradient-right-7">
      <stop id="SvgjsStop48941" stop-opacity="1" stop-color="#ffffff" offset="0"/>
      <stop id="SvgjsStop48942" stop-opacity="0" stop-color="#ffffff" offset="1"/>
    </linearGradient>
    <linearGradient id="SvgjsLinearGradient48948" x1="100" y1="141" x2="100" y2="138" gradientUnits="userSpaceOnUse" class="svga-on-canvas-mouth-gradient-single-0">
      <stop id="SvgjsStop48949" stop-opacity="1" stop-color="#ebc3bd" offset="0.1"/>
      <stop id="SvgjsStop48950" stop-opacity="1" stop-color="#e4b3ab" offset="1"/>
    </linearGradient>
    <radialGradient id="SvgjsRadialGradient48988" cx="125.187" cy="86.184" r="12.84" gradientTransform="matrix(-1.0592 3.999999e-004 -4.000000e-004 1.0589 206.5114 -6.1261)" gradientUnits="userSpaceOnUse" class="svga-on-canvas-eyesback-gradient-left-0">
      <stop id="SvgjsStop48989" stop-opacity="1" stop-color="#ffffff" offset="0"/>
      <stop id="SvgjsStop48990" stop-opacity="1" stop-color="#fdfefe" offset="0.544"/>
      <stop id="SvgjsStop48991" stop-opacity="1" stop-color="#f6f8f9" offset="0.74"/>
      <stop id="SvgjsStop48992" stop-opacity="1" stop-color="#eaeff2" offset="0.879"/>
      <stop id="SvgjsStop48993" stop-opacity="1" stop-color="#d9e3e8" offset="0.992"/>
      <stop id="SvgjsStop48994" stop-opacity="1" stop-color="#d8e2e7" offset="1"/>
    </radialGradient>
    <radialGradient id="SvgjsRadialGradient48996" cx="125.187" cy="86.184" r="12.84" gradientTransform="matrix(1.0592 4.000000e-004 4.000000e-004 1.0589 -6.5114 -6.1261)" gradientUnits="userSpaceOnUse" class="svga-on-canvas-eyesback-gradient-right-0">
      <stop id="SvgjsStop48997" stop-opacity="1" stop-color="#ffffff" offset="0"/>
      <stop id="SvgjsStop48998" stop-opacity="1" stop-color="#fdfefe" offset="0.544"/>
      <stop id="SvgjsStop48999" stop-opacity="1" stop-color="#f6f8f9" offset="0.74"/>
      <stop id="SvgjsStop49000" stop-opacity="1" stop-color="#eaeff2" offset="0.879"/>
      <stop id="SvgjsStop49001" stop-opacity="1" stop-color="#d9e3e8" offset="0.992"/>
      <stop id="SvgjsStop49002" stop-opacity="1" stop-color="#d8e2e7" offset="1"/>
    </radialGradient>
    <radialGradient id="SvgjsRadialGradient49004" cx="125.187" cy="86.184" r="12.84" gradientTransform="matrix(-1.0592 3.999999e-004 -4.000000e-004 1.0589 206.5114 -6.1261)" gradientUnits="userSpaceOnUse" class="svga-on-canvas-eyesfront-gradient-left-0">
      <stop id="SvgjsStop49005" stop-opacity="1" stop-color="#ffffff" offset="0"/>
      <stop id="SvgjsStop49006" stop-opacity="1" stop-color="#fdfefe" offset="0.544"/>
      <stop id="SvgjsStop49007" stop-opacity="1" stop-color="#f6f8f9" offset="0.74"/>
      <stop id="SvgjsStop49008" stop-opacity="1" stop-color="#eaeff2" offset="0.879"/>
      <stop id="SvgjsStop49009" stop-opacity="1" stop-color="#d9e3e8" offset="0.992"/>
      <stop id="SvgjsStop49010" stop-opacity="1" stop-color="#d8e2e7" offset="1"/>
    </radialGradient>
    <radialGradient id="SvgjsRadialGradient49014" cx="123.021" cy="84.391" fx="133.604" fy="80.492" r="17.898" gradientTransform="matrix(0.9998 0.0208 0.0166 -0.7998 -47.4114 149.3288)" gradientUnits="userSpaceOnUse" class="svga-on-canvas-eyesfront-gradient-left-3">
      <stop id="SvgjsStop49015" stop-opacity="1" stop-color="#e4b3ab" offset="0"/>
      <stop id="SvgjsStop49016" stop-opacity="0.3" stop-color="#e4b3ab" offset="0.7"/>
      <stop id="SvgjsStop49017" stop-opacity="0" stop-color="#f3d4cf" offset="1"/>
    </radialGradient>
    <radialGradient id="SvgjsRadialGradient49019" cx="79.54" cy="83.579" r="23.208" gradientTransform="matrix(1.0971 -0.0567 0.0576 1.0844 -20.1314 20.8883)" gradientUnits="userSpaceOnUse" class="svga-on-canvas-eyesfront-gradient-left-4">
      <stop id="SvgjsStop49020" stop-opacity="0" stop-color="#000000" offset="0.94"/>
      <stop id="SvgjsStop49021" stop-opacity="0.3" stop-color="#000000" offset="1"/>
    </radialGradient>
    <radialGradient id="SvgjsRadialGradient49025" cx="125.187" cy="86.184" r="12.84" gradientTransform="matrix(1.0592 4.000000e-004 4.000000e-004 1.0589 -6.5114 -6.1261)" gradientUnits="userSpaceOnUse" class="svga-on-canvas-eyesfront-gradient-right-0">
      <stop id="SvgjsStop49026" stop-opacity="1" stop-color="#ffffff" offset="0"/>
      <stop id="SvgjsStop49027" stop-opacity="1" stop-color="#fdfefe" offset="0.544"/>
      <stop id="SvgjsStop49028" stop-opacity="1" stop-color="#f6f8f9" offset="0.74"/>
      <stop id="SvgjsStop49029" stop-opacity="1" stop-color="#eaeff2" offset="0.879"/>
      <stop id="SvgjsStop49030" stop-opacity="1" stop-color="#d9e3e8" offset="0.992"/>
      <stop id="SvgjsStop49031" stop-opacity="1" stop-color="#d8e2e7" offset="1"/>
    </radialGradient>
    <radialGradient id="SvgjsRadialGradient49035" cx="123.021" cy="84.391" fx="133.604" fy="80.492" r="17.898" gradientTransform="matrix(-0.9998 0.0208 -0.0166 -0.7998 247.4192 149.3287)" gradientUnits="userSpaceOnUse" class="svga-on-canvas-eyesfront-gradient-right-3">
      <stop id="SvgjsStop49036" stop-opacity="1" stop-color="#e4b3ab" offset="0"/>
      <stop id="SvgjsStop49037" stop-opacity="0.3" stop-color="#e4b3ab" offset="0.7"/>
      <stop id="SvgjsStop49038" stop-opacity="0" stop-color="#f3d4cf" offset="1"/>
    </radialGradient>
    <radialGradient id="SvgjsRadialGradient49040" cx="79.54" cy="83.579" r="23.208" gradientTransform="matrix(-1.0971 -0.0567 -0.0576 1.0844 220.1314 20.8883)" gradientUnits="userSpaceOnUse" class="svga-on-canvas-eyesfront-gradient-right-4">
      <stop id="SvgjsStop49041" stop-opacity="0" stop-color="#000000" offset="0.94"/>
      <stop id="SvgjsStop49042" stop-opacity="0.3" stop-color="#000000" offset="1"/>
    </radialGradient>
    <linearGradient id="SvgjsLinearGradient49047" x1="130" y1="81" x2="126" y2="85" gradientTransform="matrix(1 0 0 1 -50 0)" gradientUnits="userSpaceOnUse" class="svga-on-canvas-eyesiris-gradient-left-1">
      <stop id="SvgjsStop49048" stop-opacity="1" stop-color="#ffffff" offset="0"/>
      <stop id="SvgjsStop49049" stop-opacity="0" stop-color="#ffffff" offset="1"/>
    </linearGradient>
    <linearGradient id="SvgjsLinearGradient49052" x1="130" y1="81" x2="126" y2="85" gradientUnits="userSpaceOnUse" class="svga-on-canvas-eyesiris-gradient-right-1">
      <stop id="SvgjsStop49053" stop-opacity="1" stop-color="#ffffff" offset="0"/>
      <stop id="SvgjsStop49054" stop-opacity="0" stop-color="#ffffff" offset="1"/>
    </linearGradient>
    <linearGradient id="SvgjsLinearGradient49078" x1="99.98" y1="171.27" x2="99.98" y2="136.351" gradientUnits="userSpaceOnUse" class="svga-on-canvas-chinshadow-gradient-single-0">
      <stop id="SvgjsStop49079" stop-opacity="0.8" stop-color="#e4b3ab" offset="0"/>
      <stop id="SvgjsStop49080" stop-opacity="1" stop-color="#c5796d" offset="0.7"/>
    </linearGradient>
  </defs>
  <g id="svga-group-wrapper">
    <g id="svga-group-backs-single">
      <path id="SvgjsPath48967" d="M225 225H-25V-25h250V225z" fill="#e5fcc2" stroke-width="none" opacity="1" stroke="none"/>
      <path id="SvgjsPath48968" d="M103-37.266L99.131 71.999 96.536-37.598 103-37.266zM73.203-36.265L91.025 71.904 79.65-36.835 73.203-36.265zM66.869-16.598l24.577 89.921L68.869-17.931 66.869-16.598zM26.203-29.931L87.817 74.773 32.243-32.257 26.203-29.931zM23.545-16.454l60.278 91.568L25.536-20.265 23.545-16.454zM-11.865-28.757l57.2 61.532L-6.7-32.658 -11.865-28.757zM-15.464-0.265l94.073 82.174 -89.74-88.174L-15.464-0.265zM-30.131 2.069l85.667 64.667 -85.11-67.506L-30.131 2.069zM-25.19 42.794l99.642 45.712 -96.509-51.375L-25.19 42.794zM-44.131 43.402L56.536 85.069 -44.797 39.735 -44.131 43.402zM-54.775 75.518L53.607 91.994l-109.599-19.45L-54.775 75.518zM-44.102 97.566l109.62 1.232 -109.063-7.68L-44.102 97.566zM-58.131 52.069l89 27.333 -89.667-31L-58.131 52.069zM79.65 236.833l11.375-108.739L73.203 236.263 79.65 236.833zM68.869 217.929l22.577-91.254 -24.577 89.921L68.869 217.929zM30.826 240.293l47.61-91.392 -53.65 89.065L30.826 240.293zM25.536 220.263l58.287-95.379 -60.278 91.568L25.536 220.263zM-11.212 239.563l67.27-86.188 -72.435 82.287L-11.212 239.563zM-11.131 206.263l89.74-88.174 -94.073 82.174L-11.131 206.263zM-29.574 200.769l85.11-67.506 -85.667 64.666L-29.574 200.769zM-22.058 162.867l96.509-51.376 -99.642 45.713L-22.058 162.867zM-44.797 160.263l101.333-45.334 -100.667 41.667L-44.797 160.263zM-55.992 127.454l109.599-19.449L-54.775 124.48 -55.992 127.454zM-58.797 151.597l89.667-31.001 -89 27.333L-58.797 151.597zM120.438-43.631L106.913 64.863l14.599-89.479L120.438-43.631zM141.813-31.87L113.32 73.685l34.767-103.968L141.813-31.87zM149.456-11.494L112.68 75.019 151.219-9.86 149.456-11.494zM187.892-19.824l-71.859 96.851 77.454-93.596L187.892-19.824zM192.61-6.919l-72.688 84.917 74.049-80.838L192.61-6.919zM226.479-19.459l-61.838 61.764 66.318-57.093L226.479-19.459zM226.59 12.723L123.991 85.534l105.924-66.199L226.59 12.723zM243.926 21.075l-94.745 53.14 94.846-50.248L243.926 21.075zM230.489 57.303L127.048 92.708l105.635-29.315L230.489 57.303zM252.527 63.484L145.283 92.157l106.004-25.158L252.527 63.484zM255.805 96.376l-109.623-0.937 112.19 2.214L255.805 96.376zM239.29 109.779l-108.899-9.73 108.426 16.185L239.29 109.779zM241.298 126.083l-67.52-9.087 66.28 12.603L241.298 126.083zM104.827 238.789l-0.426-109.627 -6.031 109.166L104.827 238.789zM114.202 220.376l-9.991-92.682 7.806 93.681L114.202 220.376zM162.61 237.612l-54.587-110.773 48.254 112.112L162.61 237.612zM167.971 224.657l-55.949-97.521L165.4 228.103 167.971 224.657zM198.084 217.32l-79.836-96.065 74.605 101.301L198.084 217.32zM212.936 217.344l-74.315-77.444 73.314 80.159L212.936 217.344zM214.521 176.351l-91.122-60.95 87.131 66.045L214.521 176.351zM233.319 178.757l-92.776-57.118 92.852 60.845L233.319 178.757zM248.926 148.738l-104.393-33.471 105.123 36.601L248.926 148.738zM248.518 172.422l-83.533-41.113 83.608 44.841L248.518 172.422z" fill="#ceed9f" stroke-width="none" opacity="1" stroke="none"/>
    </g>
    <g id="svga-group-humanwrap-move" transform="matrix(1,0,0,1,0,0)">
      <g id="svga-group-humanwrap" transform="matrix(1,0,0,1,0,0)">
        <g id="svga-group-hair-back-move" transform="matrix(1,0,0,1,0,0)">
          <g id="svga-group-hair-back" transform="matrix(1,0,0,1,0,0)">
            <path id="SvgjsPath48980" d="M100.5,100.5h-1v-1h1V100.5z" fill="#a68469" stroke-width="none" opacity="1" stroke="none"/>
          </g>
        </g>
        <g id="svga-group-humanbody-single">
          <path id="SvgjsPath48821" d="M190.858 199.866c-6.008-10.158-13.474-11.973-19.628-13.936 -6.323-2.016-19.346-3.178-26.449-4.6 -6.86-1.373-23.153-5.789-23.339-13.488 -0.192-8.066 4.291-40.09 4.291-40.09H74.005c0 0 4.487 32.023 4.294 40.09 -0.184 7.699-16.48 12.115-23.341 13.488 -7.104 1.422-20.125 2.584-26.448 4.6 -6.156 1.963-13.624 3.777-19.632 13.936 -3.644 6.16-6.008 16.133-6.008 27.133h194C196.869 215.999 194.509 206.026 190.858 199.866z" fill="#f3d4cf" stroke-width="none" opacity="1" stroke="none"/>
          <path id="SvgjsPath48822" d="M121.442 167.843c2.495 10.929 18.165 13.698 26.293 15.325 21.909 4.379 33.772 5.134 42.297 19.539 2.903 4.916 5.459 15.864 5.962 24.153 1.835 0.291 0.531-17.432-5.136-26.994 -9.742-16.472-29.089-15.135-46.077-18.535C137.921 179.958 121.628 175.542 121.442 167.843L121.442 167.843zM78.558 167.843c-0.186 7.699-16.479 12.115-23.339 13.488 -16.988 3.4-36.335 2.063-46.077 18.535 -5.667 9.563-6.971 27.285-5.136 26.994 0.503-8.289 3.059-19.237 5.962-24.153 8.524-14.405 20.388-15.16 42.297-19.539C60.393 181.541 76.063 178.771 78.558 167.843L78.558 167.843z" fill="#fff4f3" stroke-width="none" opacity="1" stroke="none"/>
          <path id="SvgjsPath48823" d="M51.206 189.513c0 0 28.641 0.299 33.473 1.885 2.314 0.758 8.372 5.633 8.372 5.633s-6.556-3.17-8.658-3.758C79.51 191.909 51.206 189.513 51.206 189.513zM99.795 199.999c2.053-0.041 7.887-3.799 7.887-3.799s-5.574 2.059-7.342 2.16c-1.491 0.086-6.366-1.238-6.366-1.238S98.112 200.032 99.795 199.999zM117.008 192.757c6.75-1.818 29.786-3.23 29.786-3.23s-23.791-0.516-30.51 1.725c-2.252 0.752-7.562 5.16-7.562 5.16S114.786 193.354 117.008 192.757z" fill="#e4b3ab" stroke-width="none" opacity="1" stroke="none"/>
          <path id="SvgjsPath48824" d="M190.858 199.866c-9.741-16.471-29.122-15.142-46.077-18.535 -6.86-1.373-23.153-5.789-23.339-13.488 -0.192-8.066 4.291-40.09 4.291-40.09H74.005c0 0 4.487 32.023 4.294 40.09 -0.184 7.699-16.48 12.115-23.341 13.488 -7.104 1.422-20.125 2.584-26.448 4.6 -6.156 1.963-13.624 3.777-19.632 13.936 -3.644 6.16-6.008 16.133-6.008 27.133h194C196.869 215.999 194.509 206.026 190.858 199.866z" fill="none" stroke="#c5796d" stroke-width="1.5" opacity="1"/>
        </g>
        <g id="svga-group-chinshadow-single">
          <path id="SvgjsPath49077" d="M74.767 128.517c0.594 4.297 3.11 22.794 3.929 33.496 6.172 3.567 11.423 8.992 21.307 8.992 9.736 0 14.976-5.264 21.031-8.831 0.805-10.679 3.341-29.34 3.938-33.657l0.017-0.113H74.751L74.767 128.517z" fill="url(#SvgjsLinearGradient49078)" opacity="1"/>
        </g>
        <g id="svga-group-clothes-single">
          <path id="SvgjsPath49064" d="M36.917 226.987c-12.142-0.106-34.504-0.481-34.504-0.481 -1.001-13.221 2.596-27.552 13.625-35.288 12.837-8.999 26.79-7.649 37.699-10.586 1 0.851 7.132 5.092 15.783 8.984 17.875 8.037 35.664 11.938 66.937 18.887 7.121-21.609 8.549-27.237 8.753-28.237 0.012 0.039 1.217-0.015 1.259-0.015 0.868 0 1.157 0.083 1.898 0.661 1.372-0.662 2.97-0.267 3.693 0.703 -3.046 12.205 4.021 43.22 4.021 45.2C138.413 226.815 120.95 227.716 36.917 226.987z" fill="#653220" stroke-width="none" opacity="1" stroke="none"/>
          <path id="SvgjsPath49065" d="M2.319 226.605c-0.842-13.045 3.389-27.448 14.244-35.063 12.837-8.999 26.263-7.477 37.172-10.413 0.146 0.124 1.683 0.998 2.04 1.256C17.586 186.399 4.214 199.521 2.319 226.605zM152.059 181.615c-0.144-0.192-0.329-0.354-0.532-0.498 -0.395-0.277-0.88-0.454-1.405-0.507 -0.572-0.058-1.183 0.025-1.756 0.302 -0.372-0.29-0.631-0.455-0.905-0.548 -0.272-0.092-0.562-0.113-0.993-0.113 -0.002 0-0.016 0-0.021 0.001 -0.123 0.004-1.227 0.051-1.238 0.014 -0.057 0.275 0.368-0.521 0.033 0.692 0.512 2.387-0.894 6.45-3.241 22.042 4.722-16.694 5.029-20.603 6.493-21.467 1.563 1.452-0.73 13.11 1.507 26.467 -0.506-8.89-0.193-24.89 1.863-25.892C151.976 181.263 151.878 182.339 152.059 181.615zM47.247 183.5c9.949 11.154 13.767 13.82 35.127 21.874C60.79 195.24 60.259 195.633 47.247 183.5zM52.952 182.397c14.55 15.296 34.438 21.115 65.001 29.648C84.391 201.231 67.467 196.433 52.952 182.397z" fill="#744230" stroke-width="none" opacity="1" stroke="none"/>
          <path id="SvgjsPath49066" d="M148.378 180.795c-0.229-0.18-0.719-0.509-1.068-0.579 -0.62-0.14-2.07-0.019-2.2 0.031 -1.778 9.483-5.687 19.042-8.721 28.139 -27.713-6.149-62.451-12.981-82.68-27.851 -15.189 4.111-53.002-0.132-51.41 45.681 0 0.13 0.01 0.26 0.02 0.39 0 0 56.588 0.76 56.59 0.76 27.246 0.539 96.468-0.45 97.47-0.45 0-9.142-6.396-31.019-4.24-45.359C151.432 180.605 149.782 180.116 148.378 180.795zM155.811 226.476c-54.167-1.382-122.589-1.144-153.231-0.271 0.987-44.587 35.332-39.994 51.72-44.38 20.665 15.798 56.059 22.312 82 26.87 -1.166 3.355-2.854 8.168-4.6 11.87 4.504-7.593 12.158-29.512 13.76-39.7 1.52-0.324 2.495 0.128 2.74 0.49 -1.521 7.91-2.222 15.998-3.53 24.079 2.125-10.09 2.051-11.999 4.3-24.339 0.561-0.08 1.141-0.051 1.721 0.109 0.46 0.2 0.62 0.48 0.91 0.811C149.588 191.271 152.864 208.45 155.811 226.476z" fill="#370f01" stroke-width="none" opacity="1" stroke="none"/>
        </g>
        <g id="svga-group-head" transform="matrix(1,0,0,1,0,0)">
          <g id="svga-group-ears-left-move" transform="matrix(1,0,0,1,0,0)">
            <g id="svga-group-ears-left" transform="matrix(1,0,0,1,0,0)">
              <path id="SvgjsPath49059" d="M45.443 81.864c-1.469-2.399-6.648-7.441-10.31-6.519 -2.979 0.752-6.032 3.199-6.032 7.37 -0.001 6.462 1.496 9.209 2.501 12.141 0.856 2.495 3.915 7.068 5.761 8.841 2.273 2.179 5.957 9.221 6.404 9.941 0.705 1.137 1.877 2.946 4.043 3.014 3.29 0.103 7.085-2.077 7.323-3.44C56.42 105.816 49.263 88.107 45.443 81.864z" fill="#f3d4cf" stroke="#c5796d" stroke-width="1.5" opacity="1"/>
              <path id="SvgjsPath49060" d="M43.596 98.002c-0.142-0.549 0.007-1.474 0.152-2.367 0.131-0.814 0.255-1.583 0.18-2.126 -0.285-2.036-1.892-5.906-2.942-8.003 -1.208-2.412-4.117-5.452-6.568-6.235 -1.013-0.325-1.681 0.063-2.067 0.456 -0.284 0.289-0.347 0.628-0.254 0.668 0.093 0.04 0.304-0.241 0.61-0.505 0.25-0.217 0.617-0.402 1.122-0.364 -0.203 1.014-3.138 4.164-1.381 10.249 0.822 2.849 1.992 5.143 2.202 5.473 0.032 0.347 0.083 0.687 0.159 1.016 0.991 4.297 7.286 11.382 8.785 12.981 0.277 0.296 0.567 0.471 0.639 0.4 0.072-0.071-0.1-0.363-0.376-0.661 -1.48-1.589-7.734-8.657-8.69-12.803 -1.754-7.595 1.916-7.723 4.499-12.3 0.397 0.647 0.733 1.27 0.993 1.789 0.203 0.407 0.429 0.883 0.661 1.398 -0.458 0.719-5.059 5.972-3.889 10.175 0.433 1.55 3.779 3.548 5.073 4.096 0.712 0.302 0.979 0.752 1.289 1.273 0.359 0.605 0.767 2.758 1.95 3.254 0.241 0.101 0.458 0.143 0.651 0.143 0.334 0 0.587-0.126 0.774-0.276 0.019 0.264 0.018 0.604 0.008 0.917 -0.011 0.405 0.046 0.738 0.147 0.746s0.208-0.313 0.221-0.717c0.016-0.497 0.014-1.112-0.077-1.407 -0.265-0.867-1.076-1.845-1.934-2.88C44.688 101.372 43.815 98.852 43.596 98.002zM34.616 94.192c-2.322-6.746 0.993-12.568 1.514-13.495 0.908 0.776 2.662 1.815 3.314 2.83C36.33 88.848 34.811 85.147 34.616 94.192zM45.884 105.528c-1.072-0.449-1.431-2.52-1.778-3.104 -0.314-0.528-0.639-1.074-1.461-1.423 -0.179-0.076-0.376-0.191-0.578-0.324 -3.861-5.679 0.291-8.507 1.027-9.037 0.226 0.724 0.396 1.387 0.47 1.919 0.068 0.489-0.058 1.266-0.179 2.017 -0.15 0.931-0.306 1.894-0.145 2.518 0.24 0.928 1.14 3.481 2.01 4.531 0.772 0.933 1.564 1.893 1.835 2.676C46.97 105.458 46.604 105.83 45.884 105.528z" fill="#c5796d" stroke-width="none" opacity="1" stroke="none"/>
            </g>
          </g>
          <g id="svga-group-ears-right-move" transform="matrix(1,0,0,1,0,0)">
            <g id="svga-group-ears-right" transform="matrix(1,0,0,1,0,0)">
              <path id="SvgjsPath49061" d="M154.295 81.864c1.469-2.399 6.648-7.441 10.311-6.519 2.979 0.752 6.031 3.199 6.031 7.37 0.002 6.462-1.496 9.209-2.5 12.141 -0.857 2.495-3.916 7.068-5.762 8.841 -2.273 2.179-5.957 9.221-6.404 9.941 -0.705 1.137-1.877 2.946-4.043 3.014 -3.291 0.103-7.086-2.077-7.324-3.44C143.318 105.816 150.475 88.107 154.295 81.864z" fill="#f3d4cf" stroke="#c5796d" stroke-width="1.5" opacity="1"/>
              <path id="SvgjsPath49062" d="M154.205 102.391c-0.857 1.036-1.668 2.013-1.934 2.88 -0.09 0.295-0.092 0.91-0.076 1.407 0.014 0.404 0.119 0.725 0.221 0.717s0.158-0.341 0.146-0.746c-0.01-0.313-0.01-0.653 0.01-0.917 0.186 0.15 0.439 0.276 0.773 0.276 0.193 0 0.41-0.042 0.65-0.143 1.184-0.496 1.592-2.649 1.951-3.254 0.311-0.521 0.576-0.971 1.289-1.273 1.293-0.548 4.639-2.545 5.072-4.096 1.17-4.204-3.432-9.456-3.889-10.175 0.232-0.515 0.457-0.991 0.66-1.398 0.26-0.519 0.596-1.141 0.994-1.789 2.582 4.577 6.252 4.705 4.498 12.3 -0.957 4.146-7.209 11.214-8.689 12.803 -0.275 0.298-0.447 0.59-0.377 0.661 0.072 0.07 0.361-0.104 0.639-0.4 1.5-1.6 7.795-8.685 8.785-12.981 0.076-0.33 0.129-0.669 0.16-1.016 0.209-0.33 1.379-2.624 2.201-5.473 1.758-6.085-1.178-9.235-1.381-10.249 0.504-0.039 0.871 0.147 1.123 0.364 0.305 0.265 0.518 0.545 0.609 0.505 0.094-0.041 0.029-0.379-0.254-0.668 -0.387-0.393-1.055-0.781-2.068-0.456 -2.451 0.783-5.359 3.823-6.568 6.235 -1.049 2.097-2.656 5.967-2.941 8.003 -0.074 0.544 0.049 1.313 0.18 2.126 0.145 0.894 0.293 1.818 0.152 2.367C155.924 98.852 155.051 101.372 154.205 102.391zM160.295 83.528c0.652-1.015 2.406-2.054 3.313-2.83 0.521 0.926 3.836 6.749 1.516 13.495C164.928 85.147 163.408 88.848 160.295 83.528zM152.652 105.301c0.271-0.783 1.064-1.743 1.836-2.676 0.869-1.05 1.77-3.603 2.01-4.531 0.16-0.624 0.006-1.586-0.145-2.518 -0.121-0.751-0.248-1.528-0.18-2.017 0.074-0.532 0.244-1.195 0.471-1.919 0.734 0.53 4.887 3.358 1.025 9.037 -0.201 0.133-0.398 0.248-0.578 0.324 -0.822 0.349-1.146 0.895-1.461 1.423 -0.346 0.584-0.705 2.655-1.777 3.104C153.135 105.83 152.768 105.458 152.652 105.301z" fill="#c5796d" stroke-width="none" opacity="1" stroke="none"/>
            </g>
          </g>
          <g id="svga-group-faceshape-wrap" transform="matrix(1,0,0,1,0,0)">
            <g id="svga-group-faceshape-single">
              <path id="SvgjsPath49074" d="M100.002 0.867C66.384 0.919 39.082 28.09 39.134 61.564c0.009 5.316 0.704 10.471 2.002 15.382h0.001c0.012 0.053 8.12 35.231 11.82 46.756 2.775 8.646 14.288 21.634 22.398 24.913 7.826 3.165 13.039 10.654 24.646 10.654s16.82-7.489 24.646-10.654c8.11-3.279 19.624-16.268 22.398-24.913 3.7-11.524 11.809-46.703 11.819-46.756h0.002c1.298-4.911 1.994-10.066 2.002-15.382C160.923 28.09 133.62 0.919 100.002 0.867z" fill="#f3d4cf" stroke-width="none" opacity="1" stroke="none"/>
              <path id="SvgjsPath49075" d="M140.727 16.481c10.424 10.984 16.867 26.145 16.844 42.883 -0.009 5.316-0.666 10.471-1.894 15.382h-0.001c-0.011 0.053-7.681 35.231-11.18 46.756 -2.623 8.646-13.515 21.634-21.184 24.913 -7.403 3.164-12.333 10.654-23.31 10.654 -10.978 0-15.908-7.49-23.309-10.654 -7.671-3.279-18.56-16.268-21.184-24.913 -3.5-11.524-11.168-46.703-11.18-46.756h-0.001c-1.229-4.911-1.886-10.066-1.894-15.382 -0.025-16.736 6.418-31.896 16.84-42.88 -12.382 11.111-20.168 27.193-20.141 45.08 0.009 5.316 0.704 10.471 2.002 15.382h0.001c0.012 0.053 8.12 35.231 11.82 46.756 2.775 8.646 14.288 21.634 22.398 24.913 7.826 3.165 13.039 10.654 24.646 10.654s16.82-7.489 24.646-10.654c8.11-3.279 19.624-16.268 22.398-24.913 3.7-11.524 11.809-46.703 11.819-46.756h0.002c1.298-4.911 1.994-10.066 2.002-15.382C160.898 43.676 153.111 27.593 140.727 16.481z" fill="#ebc3bd" stroke-width="none" opacity="1" stroke="none"/>
              <path id="SvgjsPath49076" d="M100.002 0.867C66.384 0.919 39.082 28.09 39.134 61.564c0.009 5.316 0.704 10.471 2.002 15.382h0.001c0.012 0.053 8.12 35.231 11.82 46.756 2.775 8.646 14.288 21.634 22.398 24.913 7.826 3.165 13.039 10.654 24.646 10.654s16.82-7.489 24.646-10.654c8.11-3.279 19.624-16.268 22.398-24.913 3.7-11.524 11.809-46.703 11.819-46.756h0.002c1.298-4.911 1.994-10.066 2.002-15.382C160.923 28.09 133.62 0.919 100.002 0.867z" fill="none" stroke="#c5796d" stroke-width="1.5" opacity="1"/>
            </g>
          </g>
          <g id="svga-group-mouth-single-move" transform="matrix(1,0,0,1,0,0)">
            <g id="svga-group-mouth-single" transform="matrix(1,0,0,1,0,0)">
              <path id="SvgjsPath48947" d="M100.002 141.435c-4.158 0-5.133-3.232-5.133-3.232h10.267C105.136 138.202 103.659 141.435 100.002 141.435z" fill="url(#SvgjsLinearGradient48948)" opacity="1"/>
              <path id="SvgjsPath48951" d="M87.536 132.96c2.756-0.951 6.239-3.625 8.432-3.723 1.133-0.051 2.351 0.87 3.574 1.166 0.851 0.207 3.264-1.156 4.13-1.166 2.272-0.022 6.326 2.771 8.769 3.723 0.135 0.055 0 0 0 0s-5.056 6.021-12.452 6.021C91.618 138.98 87.536 132.96 87.536 132.96S87.399 133.01 87.536 132.96z" fill="#f771a9" stroke="#e85391" stroke-width="0.75" opacity="1"/>
              <path id="SvgjsPath48952" d="M112.808 132.902c-0.187-0.076-0.606-0.028-0.753-0.021 -0.304 0.016-0.546-0.117-1.214-0.129 -0.742-0.012-3.945-0.268-5.003-0.338 -2.129-0.143-3.824 0.666-5.848 0.666 -2.025 0-3.868-0.883-5.996-0.74 -1.057 0.072-4.113 0.395-4.857 0.412 -0.663 0.019-0.923 0.133-1.231 0.12 -0.143-0.007-0.595-0.05-0.771 0.05 -0.147 0.086-0.09 0.559 0.027 0.683 0.285 0.298 1.397-0.233 1.959-0.22 0.777 0.017 3.843-0.05 4.917-0.121 2.081-0.142 3.936 0.821 5.952 0.821s3.725-0.889 5.806-0.749c1.071 0.072 4.281 0.064 5.06 0.049 0.563-0.014 1.764 0.449 2.052 0.22C113.043 133.495 112.972 132.969 112.808 132.902z" fill="#c92066" stroke-width="none" opacity="1" stroke="none"/>
              <path id="SvgjsPath48953" d="M99.989 137.439c-3.37 0-6.645-1.154-9.241-3.306 1.307-0.072 2.652-0.277 3.961-0.219 1.613 0.07 3.144 0.705 4.756 0.813 1.742 0.116 3.358-0.488 5.064-0.695 1.422-0.171 2.931 0.059 4.357 0.111C106.335 136.101 103.244 137.439 99.989 137.439zM104.78 131.682c1.313-0.08 2.661 0.088 3.974 0.141 -1.43-0.712-2.953-1.553-4.549-1.807 -1.374-0.218-2.71 0.882-4.045 1.104 -1.506 0.25-2.69-1.15-4.16-1.15 -1.592 0.07-3.198 1.099-4.576 1.805 1.282-0.076 2.6-0.263 3.884-0.141 1.572 0.147 3.094 0.714 4.682 0.714C101.612 132.348 103.161 131.78 104.78 131.682z" fill="#ff8ebd" stroke-width="none" opacity="1" stroke="none"/>
              <path id="SvgjsPath48954" d="M99.941 136.486c-2.029 0-4.007-0.701-5.707-2.001 0.38-0.037 0.764-0.066 1.133-0.066 0.117 0 0.234 0.003 0.351 0.009 0.609 0.033 1.209 0.208 1.846 0.394 0.618 0.178 1.256 0.363 1.923 0.419 0.132 0.012 0.264 0.016 0.395 0.016 0.819 0 1.596-0.204 2.348-0.399 0.477-0.126 0.928-0.245 1.392-0.313 0.253-0.04 0.527-0.058 0.837-0.058 0.268 0 0.544 0.014 0.818 0.034C103.862 135.572 102.03 136.486 99.941 136.486z" fill="#ffa8cc" stroke-width="none" opacity="1" stroke="none"/>
            </g>
          </g>
          <g id="svga-group-eyes-left-move" transform="matrix(1,0,0,1,0,0)">
            <g id="svga-group-eyes-left" transform="matrix(1,0,0,1,0,0)">
              <g id="svga-group-eyesback-left">
                <path id="SvgjsPath48987" d="M83.271 92.712c-3.293-0.892-4.969 1.202-9.809 1.324 -8.057 0.203-9.938-0.703-11.199-2.996C61.74 90.088 61.24 88.849 61 88.083l-0.1-4.715c1.328-4.488 19.541-4.944 25.9 2.027 0.287 0.757 0.433 1.463 0.465 2.122 -0.19 1.09-0.512 2.136-0.947 3.124C85.611 91.562 84.556 92.262 83.271 92.712z" fill="url(#SvgjsRadialGradient48988)" opacity="1"/>
              </g>
              <g id="svga-group-eyesiriswrapper-left" transform="matrix(1,0,0,1,-0.5,0)">
                <g id="svga-group-eyesiriscontrol-left" transform="matrix(1,0,0,1,0,0)">
                  <g id="svga-group-eyesiris-left" transform="matrix(1,0,0,1,0,0)">
                    <path id="SvgjsPath49045" d="M83.199 89.25c-1.231 4.522-5.896 7.187-10.429 5.944 -4.528-1.241-7.203-5.918-5.97-10.442 1.23-4.526 5.905-7.19 10.434-5.947C81.761 80.045 84.433 84.723 83.199 89.25z" fill="#724f7c" stroke="#431a4e" stroke-width="0.75" opacity="1"/>
                    <path id="SvgjsPath49046" d="M81.682 85.121c-0.806 1.237-2.884 1.31-4.641 0.166 -1.756-1.145-2.527-3.075-1.722-4.311 0.806-1.235 2.884-1.31 4.641-0.166C81.715 81.956 82.485 83.887 81.682 85.121L81.682 85.121z" fill="url(#SvgjsLinearGradient49047)" opacity="0.5"/>
                  </g>
                </g>
              </g>
              <g id="svga-group-eyesfront-left">
                <path id="SvgjsPath49012" d="M55.5 87c0 13.808 8.283 24.999 18.5 24.999S92.5 100.808 92.5 87c0-13.809-8.283-25.001-18.5-25.001S55.5 73.191 55.5 87zM61 88.083l-0.1-4.715c1.328-4.488 19.541-4.944 25.9 2.027 1.396 3.674-0.409 6.224-3.529 7.317 -3.293-0.892-4.969 1.202-9.809 1.324 -8.057 0.203-9.938-0.703-11.199-2.996C61.74 90.088 61.24 88.849 61 88.083z" fill="#f3d4cf" stroke-width="none" opacity="1" stroke="none"/>
                <path id="SvgjsPath49013" d="M59.898 85.083c0.023 8.56 7.646 15.459 17.038 15.416 9.389-0.049 16.985-7.022 16.961-15.583 -0.023-8.562-7.647-15.463-17.04-15.417C67.465 69.549 59.874 76.522 59.898 85.083zM61 88.083l-0.1-4.715c1.328-4.488 19.541-4.944 25.9 2.027 1.396 3.674-0.409 6.224-3.529 7.317 -3.293-0.892-4.969 1.202-9.809 1.324 -8.057 0.203-9.938-0.703-11.199-2.996C61.74 90.088 61.24 88.849 61 88.083z" fill="url(#SvgjsRadialGradient49014)" opacity="1"/>
                <path id="SvgjsPath49018" d="M62.264 91.041C61.74 90.088 61.24 88.849 61 88.083l-0.1-4.715c1.328-4.488 19.541-4.944 25.9 2.027 1.396 3.674-0.409 6.224-3.529 7.317 -3.293-0.892-4.969 1.202-9.809 1.324C65.406 94.239 63.524 93.333 62.264 91.041z" fill="url(#SvgjsRadialGradient49019)" opacity="1"/>
                <path id="SvgjsPath49022" d="M89.665 83.698c-9.617-6.546-16.701-6.963-28.117-6.129C71.077 75.863 82.052 77.099 89.665 83.698z" fill="#c5796d" stroke-width="none" opacity="1" stroke="none"/>
                <path id="SvgjsPath49023" d="M87.697 85.861c0.371 0.625 0.543 0.968 0.733 2.484C85.19 78.896 62.487 78.841 61 83.593v4.427c-1.021-1.75-1.494-3.878-1.931-5.889 -0.093-0.428-2.348-2.602-2.348-2.602s2.435 1.326 2.798 1.349c-0.182-0.216-1.127-1.248-1.127-1.248s2.251 0.931 2.576 0.843c-0.436-0.186-1.071-0.823-1.071-0.823 0.483 0.141 1.646 0.604 2.723 0.369 10.863-2.365 22.558 0.247 26.703 8C88.648 87.037 88.225 86.47 87.697 85.861zM84.943 93.048c-4.625-2.25-5.94 0.428-11.563 0.563 -8.004 0.191-9.567-0.871-11.125-2.813 0.813 2.375 1.375 3.504 10.875 3.438C78.506 94.198 81.443 91.673 84.943 93.048z" fill="#000000" stroke-width="none" opacity="1" stroke="none"/>
              </g>
            </g>
          </g>
          <g id="svga-group-eyes-right-move" transform="matrix(1,0,0,1,0,0)">
            <g id="svga-group-eyes-right" transform="matrix(1,0,0,1,0,0)">
              <g id="svga-group-eyesback-right">
                <path id="SvgjsPath48995" d="M116.729 92.712c3.293-0.892 4.969 1.202 9.809 1.324 8.057 0.203 9.938-0.703 11.199-2.996 0.523-0.952 1.023-2.191 1.264-2.958l0.1-4.715c-1.328-4.488-19.541-4.944-25.9 2.027 -0.287 0.757-0.433 1.463-0.465 2.122 0.19 1.09 0.512 2.136 0.947 3.124C114.389 91.562 115.444 92.262 116.729 92.712z" fill="url(#SvgjsRadialGradient48996)" opacity="1"/>
              </g>
              <g id="svga-group-eyesiriswrapper-right" transform="matrix(1,0,0,1,0.5,0)">
                <g id="svga-group-eyesiriscontrol-right" transform="matrix(1,0,0,1,0,0)">
                  <g id="svga-group-eyesiris-right" transform="matrix(1,0,0,1,0,0)">
                    <path id="SvgjsPath49050" d="M133.199 89.25c-1.231 4.522-5.896 7.187-10.429 5.944 -4.528-1.241-7.203-5.918-5.97-10.442 1.23-4.526 5.905-7.19 10.434-5.947C131.761 80.045 134.433 84.723 133.199 89.25z" fill="#724f7c" stroke="#431a4e" stroke-width="0.75" opacity="1"/>
                    <path id="SvgjsPath49051" d="M131.682 85.121c-0.806 1.237-2.884 1.31-4.641 0.166 -1.756-1.145-2.527-3.075-1.722-4.311 0.806-1.235 2.884-1.31 4.641-0.166C131.715 81.956 132.485 83.887 131.682 85.121L131.682 85.121z" fill="url(#SvgjsLinearGradient49052)" opacity="0.5"/>
                  </g>
                </g>
              </g>
              <g id="svga-group-eyesfront-right">
                <path id="SvgjsPath49033" d="M126 61.999c-10.217 0-18.5 11.192-18.5 25.001 0 13.808 8.283 24.999 18.5 24.999S144.5 100.808 144.5 87C144.5 73.191 136.217 61.999 126 61.999zM137.736 91.041c-1.261 2.293-3.143 3.199-11.199 2.996 -4.84-0.122-6.516-2.216-9.809-1.324 -3.12-1.093-4.925-3.643-3.529-7.317 6.359-6.971 24.572-6.516 25.9-2.027l-0.1 4.715C138.76 88.849 138.26 90.088 137.736 91.041z" fill="#f3d4cf" stroke-width="none" opacity="1" stroke="none"/>
                <path id="SvgjsPath49034" d="M123.146 69.499c-9.393-0.045-17.017 6.856-17.04 15.417 -0.024 8.56 7.572 15.533 16.961 15.583 9.392 0.043 17.015-6.856 17.038-15.416C140.129 76.522 132.537 69.549 123.146 69.499zM137.736 91.041c-1.261 2.293-3.143 3.199-11.199 2.996 -4.84-0.122-6.516-2.216-9.809-1.324 -3.12-1.093-4.925-3.643-3.529-7.317 6.359-6.971 24.572-6.516 25.9-2.027l-0.1 4.715C138.76 88.849 138.26 90.088 137.736 91.041z" fill="url(#SvgjsRadialGradient49035)" opacity="1"/>
                <path id="SvgjsPath49039" d="M137.736 91.041c0.523-0.952 1.023-2.191 1.264-2.958l0.1-4.715c-1.328-4.488-19.541-4.944-25.9 2.027 -1.396 3.674 0.409 6.224 3.529 7.317 3.293-0.892 4.969 1.202 9.809 1.324C134.594 94.239 136.476 93.333 137.736 91.041z" fill="url(#SvgjsRadialGradient49040)" opacity="1"/>
                <path id="SvgjsPath49043" d="M110.335 83.698c9.617-6.546 16.701-6.963 28.117-6.129C128.923 75.863 117.948 77.099 110.335 83.698z" fill="#c5796d" stroke-width="none" opacity="1" stroke="none"/>
                <path id="SvgjsPath49044" d="M110.677 88.021c4.146-7.754 15.84-10.365 26.703-8 1.077 0.234 2.239-0.229 2.723-0.369 0 0-0.636 0.637-1.071 0.823 0.325 0.088 2.576-0.843 2.576-0.843s-0.945 1.032-1.127 1.248c0.363-0.022 2.798-1.349 2.798-1.349s-2.255 2.174-2.348 2.602c-0.437 2.011-0.91 4.139-1.931 5.889v-4.427c-1.487-4.752-24.19-4.698-27.431 4.751 0.19-1.516 0.362-1.859 0.733-2.484C111.775 86.47 111.352 87.037 110.677 88.021zM126.869 94.235c9.5 0.066 10.063-1.063 10.875-3.438 -1.558 1.941-3.121 3.004-11.125 2.813 -5.622-0.134-6.938-2.813-11.563-0.563C118.557 91.673 121.494 94.198 126.869 94.235z" fill="#000000" stroke-width="none" opacity="1" stroke="none"/>
              </g>
            </g>
          </g>
          <g id="svga-group-facehighlight-single">
            <path id="SvgjsPath48813" d="M140.204 113.007c0.035 22.275-17.995 40.365-40.273 40.396 -22.274 0.036-40.361-17.993-40.396-40.272C59.501 90.857 77.53 72.77 99.808 72.735 122.083 72.701 140.171 90.73 140.204 113.007z" fill="url(#SvgjsRadialGradient48814)" opacity="1"/>
            <path id="SvgjsPath48817" d="M135,55.999c0,19.329-15.671,35-35,35c-19.329,0-35-15.671-35-35s15.671-35,35-35C119.329,20.999,135,36.67,135,55.999z" fill="url(#SvgjsRadialGradient48818)" opacity="1"/>
          </g>
          <g id="svga-group-eyebrows-left-move" transform="matrix(1,0,0,1,0,0)">
            <g id="svga-group-eyebrows-left-rotate" transform="matrix(1,0,0,1,0,0)">
              <g id="svga-group-eyebrows-left" transform="matrix(1,0,0,1,0,0)">
                <path id="SvgjsPath49055" d="M57.004 67.78c11.555 9.335 37.156 4.096 34.985 0.54 -0.511-0.85-1.357-0.521-2.207-0.27C81.967 70.765 65.022 72.278 57.004 67.78z" fill="#a68469" stroke-width="none" opacity="1" stroke="none"/>
              </g>
            </g>
          </g>
          <g id="svga-group-eyebrows-right-move" transform="matrix(1,0,0,1,0,0)">
            <g id="svga-group-eyebrows-right-rotate" transform="matrix(1,0,0,1,0,0)">
              <g id="svga-group-eyebrows-right" transform="matrix(1,0,0,1,0,0)">
                <path id="SvgjsPath49056" d="M142.996 67.78c-11.456 9.255-37.187 4.146-34.985 0.54 0.951-1.583 2.076 0.616 11.924 1.808C126.627 70.951 136.795 71.259 142.996 67.78z" fill="#a68469" stroke-width="none" opacity="1" stroke="none"/>
              </g>
            </g>
          </g>
          <g id="svga-group-nose-single-move" transform="matrix(1,0,0,1,0,0)">
            <g id="svga-group-nose-single" transform="matrix(1,0,0,1,0,0)">
              <path id="SvgjsPath49057" d="M99.774 119.881c-0.868 0-1.793 0.006-2.595-0.354 -0.858-0.387-1.429-0.54-2.317-0.86 -0.858-0.31-1.889 0.445-2.748 0.516 -0.694 0.057-1.487-0.142-1.911-0.685 -1.43-1.829 0.273-2.953 0.273-2.953s-0.557 1.283-0.202 1.853c0.304 0.485 0.752 0.882 1.306 1.015 0.923 0.225 1.802-0.454 2.708-0.525 1.013-0.079 1.748-0.097 2.482 0.495 0.732 0.591 1.532 0.704 2.463 0.752 0.865 0.045 1.771 0.082 2.583-0.251 0.709-0.289 1.303-0.797 1.967-1.17 1.414-0.792 2.525 0.202 4.001 0.604 1.182 0.323 2.456-0.82 1.993-2.122 -0.264-0.741-0.221-1.183-0.221-1.183s1.126 0.511 1.059 1.768c-0.085 1.566-1.45 2.665-2.992 2.253 -0.758-0.2-1.574-0.771-2.378-0.626 -0.818 0.146-1.446 0.147-2.126 0.594C102.092 119.673 101.004 119.881 99.774 119.881z" fill="#c5796d" stroke-width="none" opacity="1" stroke="none"/>
              <path id="SvgjsPath49058" d="M93.63 110.544c0 0 3.096-4.31 5.907-4.362 2.605-0.048 6.032 3.786 6.032 3.786s-3.158-1.323-6.284-1.104C96.495 109.06 93.63 110.544 93.63 110.544z" fill="#ebc3bd" stroke-width="none" opacity="1" stroke="none"/>
            </g>
          </g>
          <g id="svga-group-hair-front" transform="matrix(1,0,0,1,0,0)">
            <path id="SvgjsPath48982" d="M152.307 91.487c-3.852-4.398-4.376-6.578-2.979-11.314 -3.135-2.417-4.33-5.415-2.256-11.703 -8.03-0.362-9.319-3.996-8.175-11.755 -4.594-0.54-7.891-3.289-8.357-8.541 -3.963 0.138-8.343-1.103-9.574-4.694 -4.476 0.66-6.139-0.673-7.297-3.01 -4.41 1.766-7.511 0.911-10.794-2.012 -2.949 0.936-5.324 0.157-7.744-1.107 -1.709 3.5-3.815 4.289-7.577 3.619 -1.134 4.489-5.215 7.274-11.498 5.855 -1.717 4.607-4.878 6.44-9.475 5.764 -2.797 4.744-7.751 6.055-13.437 5.505 1.914 4.99 0.686 7.206-3.663 8.643 2.276 5.206 3.236 6.714-0.048 11.011 3.455 5.17 1.254 11.14-2.436 12.382v0.423c-8.695-10.118-8.114-74.354-0.022-74.653 -1.651-7.591 101.586-6.334 101.586-1.216C156.112 15.083 158.648 87.485 152.307 91.487z" fill="#a68469" stroke-width="none" opacity="0.1" stroke="none"/>
            <path id="SvgjsPath48983" d="M152.306 91.585c-3.854-4.643-4.377-6.941-2.981-11.94 -3.133-2.549-4.329-5.714-2.254-12.349 -8.032-0.382-9.32-4.218-8.176-12.405 -4.592-0.569-7.891-3.47-8.357-9.013 -3.963 0.146-8.342-1.163-9.574-4.953 -4.475 0.696-6.137-0.71-7.296-3.178 -4.409 1.864-7.51 0.962-10.793-2.122 -2.949 0.986-5.324 0.166-7.743-1.168 -1.709 3.693-3.815 4.525-7.577 3.818 -1.134 4.737-5.215 7.677-11.497 6.178 -1.718 4.862-4.878 6.796-9.475 6.083 -2.797 5.005-7.751 6.39-13.435 5.809 1.914 5.266 0.685 7.604-3.663 9.121 2.275 5.494 3.235 7.085-0.048 11.62 3.455 5.457 1.253 11.754-2.437 13.065v0.445c3.952 11.448-9.554 16.223-11.48 6.834 -5.114-0.087-7.45-3.416-3.724-8.759 -7.115-1.293-6.373-7.842 0.1-11.886 -5.866-2.453-9.144-6.8-2.46-12.625 -8.059-3.511-6.461-10.86 0.006-16.754 -5.489-4.566-2.71-8.938 4.064-11.443 -2.809-5.928 0.644-10.55 7.04-11.991 -4.444-5.361-1.657-11.837 6.434-12.152C45.326 3.81 50.979 0.26 59.132 1.968c1.805-5.814 5.683-6.576 11.382-4.692 1.562-4.613 6.007-5.533 10.743-4.105 3.044-3.768 7.978-1.952 12.283 0.107 3.656-4.056 8.893-2.555 13.356 0.653 5.712-4.897 12.8-2.474 17.862 3.303 6.497-2.672 11.717-1.117 15.407 5.396 6.038-0.279 8.394 2.509 8.394 7.909 7.55 0.422 16.386 6.16 13.794 14.477 5.662 1.042 8.607 5.278 6.109 12.043 3.362 1.625 4.864 5.743 4.707 7.82 -0.178 2.294-1.575 4.652-2.786 6.823 5.17 3.334 6.954 10.875 3.206 14.727 2.481 3.13 0.363 10.575-4.989 14.529 2.983 3.18 3.861 4.363-3.475 10.415 4.771 6.469 1.16 11.849-3.096 11.849l0 0c-1.118 0-1.891-0.299-2.845-0.725C154.076 110.256 144.69 103.662 152.306 91.585z" fill="#a68469" stroke-width="none" opacity="1" stroke="none"/>
            <path id="SvgjsPath48984" d="M161 88c-3 0-7 2-7 0 -0.902-2.708 0.643-4.227 3.159-6.358C155.256 82.731 153 81.867 153 81c-1.802-4.503-0.347-9.808 4.342-12.281C155.562 69.375 153.5 69.75 152 69c-2.398-3.198-1.593-9.58 1.89-12.016 -3.294 1.13-6.876 2.276-9.89 0.016 -3-4-1-11 4-14 -4 0-9 4-13 2 -4-3-1-7 2-10 -4 0-8 6-12 1 -1-2 1-4 1-6 -2 2-7 6-9 3 -1-3 3-5 3-8 -2 2-8 6-9 3 -1-2 0-6 3-7 -5 1-8 9-13 5 -1 0-2-4-1-6 -2 4-5 7-9 9 -1-2-3-4-2-6 -2 4-1 11-7 11 -1 0-4.061-3.793-4.061-5.793C77.939 33.207 78 38 75 40c-4 3-7-2-9-6 -2 6-3 12-9 14 -3 1-6-1-7-4 0 4-1.166 8.23 2 12 -4.096-3.56-8.275-1.443-12 0 4 6 10 14 0 17 5 1 10 7 7 11 -2 1-4-1-6-2 3.798 6.646 4.882 16.889-5.287 16.197 2.491 8.342 15.125 3.522 11.286-7.6v-0.445c3.69-1.311 5.891-7.609 2.437-13.065 3.284-4.535 2.324-6.125 0.048-11.62 4.348-1.516 5.577-3.855 3.663-9.121 5.684 0.581 10.638-0.803 13.435-5.809 4.597 0.713 7.757-1.222 9.475-6.083 6.282 1.499 10.362-1.441 11.497-6.178 3.762 0.707 5.868-0.125 7.577-3.818 2.419 1.334 4.794 2.155 7.743 1.168 3.283 3.084 6.384 3.986 10.793 2.122 1.159 2.467 2.821 3.874 7.296 3.178 1.232 3.79 5.611 5.099 9.574 4.953 0.467 5.543 3.766 8.444 8.357 9.013 -1.145 8.187 0.144 12.023 8.176 12.405 -2.075 6.635-0.879 9.8 2.254 12.349 -1.396 4.999-0.872 7.297 2.981 11.94 -6.637 10.525-0.362 16.882 4.742 13.207C153.603 99.472 155.788 91.475 161 88z" fill="#976f50" stroke-width="none" opacity="1" stroke="none"/>
            <path id="SvgjsPath48985" d="M173.59 66.428c3.748-3.852 1.964-11.393-3.206-14.727 0.185-0.331 0.806-1.293 1.411-2.6 0.699-1.394 1.267-2.82 1.375-4.224 0.022-0.3 0.007-0.647-0.041-1.02 0.014-2.504-1.075-5.065-4.666-6.8 2.498-6.765-0.447-11.001-6.109-12.043 2.592-8.317-6.244-14.055-13.794-14.477 0-5.4-2.355-8.188-8.394-7.909 -3.69-6.513-8.91-8.067-15.407-5.396 -5.063-5.777-12.15-8.2-17.862-3.303 -4.464-3.208-9.7-4.709-13.356-0.653 -4.305-2.059-9.239-3.875-12.283-0.107 -4.736-1.428-9.182-0.508-10.743 4.105 -5.699-1.884-9.577-1.122-11.382 4.692C50.979 0.26 45.326 3.81 46.978 11.822c-8.091 0.315-10.878 6.791-6.434 12.152 -6.396 1.441-9.848 6.063-7.04 11.991 -6.775 2.506-9.553 6.877-4.064 11.443 -6.467 5.894-8.065 13.243-0.006 16.754 -6.684 5.824-3.406 10.172 2.46 12.625 -6.472 4.043-7.215 10.592-0.1 11.886 -0.225 0.323-0.426 0.637-0.607 0.945 -0.062 0.104-0.109 0.204-0.166 0.306 -0.11 0.2-0.221 0.399-0.313 0.592 -0.057 0.12-0.101 0.235-0.152 0.353 -0.072 0.167-0.145 0.335-0.203 0.498 -0.044 0.123-0.076 0.241-0.112 0.361 -0.045 0.148-0.09 0.297-0.124 0.44 -0.028 0.122-0.046 0.239-0.066 0.357 -0.022 0.132-0.043 0.264-0.055 0.392 -0.011 0.118-0.014 0.233-0.017 0.347 -0.002 0.118-0.002 0.235 0.005 0.348 0.007 0.114 0.02 0.226 0.035 0.335 0.015 0.104 0.034 0.205 0.057 0.305 0.025 0.11 0.055 0.217 0.09 0.321 0.03 0.089 0.064 0.176 0.101 0.261 0.045 0.105 0.092 0.208 0.146 0.307 0.042 0.074 0.088 0.145 0.136 0.216 0.065 0.1 0.132 0.199 0.209 0.292 0.048 0.059 0.104 0.114 0.156 0.17 0.089 0.095 0.179 0.19 0.28 0.278 0.048 0.042 0.103 0.079 0.153 0.118 0.119 0.093 0.238 0.185 0.37 0.268 0.03 0.019 0.065 0.034 0.096 0.053 0.711 0.421 1.604 0.702 2.651 0.824 0.005 0 0.01 0.002 0.015 0.002l0 0c0.333 0.038 0.676 0.064 1.038 0.071 0.055 0.268 0.122 0.521 0.195 0.765 2.503 0.17 4.321-0.324 5.588-1.262C38.826 96.513 37.753 93.917 35 93c-0.066-0.022-0.114-0.053-0.175-0.078 1.14-1.365 2.434-2.966 1.869-5.297C37.117 87.366 37.558 87.147 38 87c-0.526 0-1.051-0.064-1.561-0.171 -0.008-0.021-0.014-0.041-0.022-0.062 -0.649-1.574-2.054-2.709-3.728-3.014 -0.34-0.062-0.594-0.134-0.78-0.2 0.814-1.526 7.467-5.587 5.172-9.072C37.076 74.321 37.054 74.161 37 74c-0.469-1.406-2.256-1.717-4.125-2.265 -1.273-0.643-1.9-1.217-2.112-1.498 0.835-2.016 4.208-2.979 3.613-6.836 -0.023-0.151-0.061-0.283-0.093-0.421C35.064 61.762 35.654 60.383 36 59c-2.654 0-5.738-0.886-6.935-2.648 0.671-2.583 4.604-5.38 5.379-8.358C35.933 47.333 37.533 46.733 39 46c-2.268 0-5.672-2.285-5.907-4.265 1.794-0.933 4.501-2.122 5.292-4.294C39.51 36.902 40.654 36.449 42 36c-1.533-1.533-4.232-3.065-4.512-4.147 0.002-0.164 0.015-0.319 0.049-0.459C37.62 31.25 37.765 31.117 38 31c0.601-0.501 1.139-0.953 1.643-1.384 1.969-0.763 4.708-1.311 5.634-4.029 0.562-1.646 0.227-3.465-0.883-4.804 -0.038-0.045-0.067-0.086-0.103-0.131C44.239 19.868 44.143 19 44 18c0-0.108 0.028-0.203 0.046-0.303 1.513-0.886 5.085-0.883 6.688-2.587C52.493 15.002 54.354 15 56 15c-2.998-2.248-3.187-6.181-1.41-8.432 2.518-0.036 5.943 1.124 8.015-0.858 0.85 0.217 1.684 0.465 2.475 0.783C64.712 5.458 65 4.084 65 3c0.618-0.618 1.411-1.101 2.289-1.455 0.968 0.286 2.057 0.732 3.226 0.732 1.549 0 2.476-0.408 3.107-0.984C75.083 1.771 76.327 2.654 77 4c-1-3 0.763-5.015 2-6 0.086-0.069 0.169-0.131 0.254-0.197 0.179 0.045 0.364 0.096 0.56 0.155 6.004 1.811 2.094-4.704 11.569-0.169 2.221 1.062 3.684 0.428 4.853-0.393 2.464 0.842 5.023 1.989 4.691 2.624 1.099-0.776 2.167-1.444 3.223-1.97 1.854 1.007 3.764 1.597 6.002-0.323 0.294-0.252 0.583-0.46 0.869-0.645 1.061 0.28 2.146 0.77 3.276 1.523 0.594 1.188 2.477 3.767 1.296 4.536 1.856-0.819 3.612-1.951 5.392-2.728 1.276 1.018 2.52 1.82 3.775 1.82 1.223 0 2.636-0.728 4.158-1.078C129.521 1.527 130 2.024 130 3c0 0.945-0.231 1.659-0.678 2.157 2.01-0.653 3.993-1.064 5.887-1.042 0.202 0.302 0.404 0.622 0.606 0.979 1.647 2.906 3.893 2.402 5.541 2.454 0.046 1.747-0.923 3.8-3.209 4.319 2.041-0.107 4.381 0.482 6.373 1.589 0.593 0.818 1.423 1.442 2.398 1.783 1.505 1.5 2.41 3.42 2.092 5.625 0.928-0.192 1.892-0.23 2.989 0.136 2 2 5 7 1 9 5-1 13 2 9 8 0 0-2 1-3 2 2.843 0 5.671 0.522 7.796 1.891 1.167 1.209 1.636 3.042-0.778 7.375 -0.452 0.81-0.688 1.509-0.768 2.131C164.261 51.777 163.16 52 162 52c1.239 0 2.303 0.176 3.271 0.447 0.374 2.064 2.676 3.243 4.129 5.238 -0.965 1.202-2.816 2.259-4.399 3.314 2.108 0.327 3.335 2.419 3.607 4.834 -0.124 0.531-0.136 1.1 0.03 1.726 -0.155 2.112-1.008 4.218-2.638 5.44 -0.3 0-0.528 0-0.566 0 1.001 0.317 1.839 0.995 2.321 1.773 -0.568 0.78-1.27 1.53-2.125 2.162 -2.992 2.21-2.23 4.737-1.201 6.494 -0.315-0.025-0.654-0.061-1.049-0.117 0.066 0 0.831-1.633 1.613-1.009 0.339 0.482 0.64 0.861 0.766 1.083 -0.158 0.386 0.498 1.692-2.447 4.122 -2.049 1.69-1.842 4.799-0.19 6.88 0.944 1.19 1.349 2.315 1.445 3.341 -0.477 2.259-1.398 4.345-2.536 5.492 0.165 0 0.327-0.022 0.49-0.039 0.126 0.266 1.102 0.021 2.154-0.721 1.038-0.628 1.877-1.619 2.333-2.884 0.802-1.969 0.696-4.71-1.882-8.206 7.336-6.051 6.458-7.235 3.475-10.415C173.953 77.003 176.071 69.558 173.59 66.428z" fill="#b59a85" stroke-width="none" opacity="1" stroke="none"/>
            <path id="SvgjsPath48986" d="M174.299 66.416c3.293-3.392 1.876-11.575-3.25-14.88 1.12-2.01 2.44-4.31 2.62-6.62 0.191-2.535-1.812-6.772-4.58-8.11 2.549-6.915-1.351-11.307-6.09-12.18 2.412-7.708-6.373-14.135-13.939-14.56 0-5.233-2.849-8.217-8.61-7.95 -3.271-5.763-8.628-8.322-15.55-5.48 -6.263-7.151-13.772-6.987-18.03-3.34 -4.078-2.933-9.855-4.615-13.45-0.63 -4.297-2.055-9.469-3.629-12.34-0.07 -2.803-0.845-9.092-1.229-10.88 4.05 -5.332-1.761-9.714-0.724-11.41 4.74 -7.848-1.643-13.989 2.354-12.42 9.96 -7.782 0.308-10.638 7.607-6.73 12.32 -4.588 1.033-9.819 5.691-6.82 12.02 -6.342 2.346-9.419 7.351-4.14 11.74 -4.602 4.192-8.915 13.07-0.17 16.88 -5.861 5.104-3.096 10.314 2.3 12.57 -5.79 3.619-6.346 10.97 0.13 12.15 -2.858 4.098-1.602 8.805 4.17 8.9 1.995 9.712 16.81 4.148 12.39-7.41v-0.01c3.433-1.22 5.983-7.964 2.54-13.4 2.995-4.138 1.749-5.778-0.39-10.94 4.537-1.58 5.66-5.331 4.24-9.24 6.073 0.623 10.812-1.999 12.96-5.84 4.749 0.733 8.072-1.908 9.53-6.04 5.768 1.377 10.458-1.623 11.55-6.19 3.305 0.621 5.926-0.446 7.43-3.7 2.279 1.258 4.956 1.851 7.39 1.04 3.477 3.271 7.086 3.713 10.67 2.2 1.332 2.827 4.07 3.576 7.2 3.09 1.018 3.134 5.415 5.06 9.46 4.91 0.441 5.225 4.121 8.416 8.25 8.93 -1.039 7.4 0.329 12.072 8.07 12.44 -2.208 7.042-1.61 8.265 2.319 12.19 -1.379 4.964-0.396 7.617 2.971 11.67 -7.787 12.375 2.62 19.174 7.68 11.5 6.18 2.762 11.669-4.593 6.44-11.67 4.317-3.566 7.809-5.878 3.54-10.43C174.24 77.414 176.76 69.558 174.299 66.416zM168.6 80.305c-1-0.87-2.221-1.56-3.4-1.74 0.59 0.095 2.724 1.762 3.7 3.62 2.193 3.788-2.641 8.104-3.641 8.58 -0.63-0.72-1.399-1.32-2.27-1.71 4.498 1.989 4.397 15.001-3.12 13.23 1.866-3.573 1.295-7.331 1.295-7.331s0.289-0.26-1.816 5.105c-3.267 8.313-12.995 4.456-7.328-8.034 0.451-1.005 1.216-2.309 2.31-2.44 -0.68 0.02-1.27 0.4-1.78 0.93 -4.503-7.609-3.564-11.15-1.56-15.6 -0.79 1.24-1.45 2.58-1.93 3.97 -4.906-4.514-1.425-13.327-0.33-16.7 -0.7 1.4-1.41 2.94-1.99 4.54 -9.358-0.954-9.139-14.536-6.12-15.1 -1.2-0.15-1.8 1.13-2.11 2.63 -3.972-1.242-9.11-5.575-7.75-14.05 -0.439 1.52-0.72 3.17-0.739 4.82 -3.147-0.441-8.19-1.053-9.051-4.32l0.311-3.92c-0.62 1.28-1.03 2.64-0.83 3.96 -8.767 0.467-7.61-8.084-6.51-9.93 -0.899 1.236-1.521 4.139-1 6.17 -5.244 1.009-7.273 0.052-9.391-1.11 3.052-1.383 5.58-5.213 6-7.56 -0.153 0.813-2.374 3.287-3.01 3.86 -1.835 1.646-3.758 2.042-5.18 2.48h-0.01c-1.831 0.58-3.86 0.32-5.661-0.3 0.656-1.524 0.784-4.702 0.62-5.04 0.227 1.095-1.416 8.48-8.2 8.48 0.14-1.33-0.08-2.69-0.74-3.95 2.076 5.417-4.969 11.143-10.82 10.68 0.572-1.61 1.061-5.427 1-5.67 0.173 1-3.134 11.186-10.24 11.28 0.41-1.03 0.59-2.17 0.44-3.4 0.453 3.618-5.418 9.59-14.1 9.59 -0.57-1.32-1.42-2.53-2.39-3.5 2.111 3.032 2.345 6.896 1.96 7.3 0 1.958-2.408 3.82-4.16 4.77 -0.83-1.67-1.88-3.24-3.04-4.58 2.176 3.245 6.751 10.324 3.61 16.18 -0.882-1.159-1.674-2.069-4.591-3.262 6 2.454 7.52 14.298 2.142 16.592 -0.813-1.504-2.588-3.028-2.588-3.028s1.437 1.745 1.908 3.979c0.512 1 0.633 5.174-1.87 8.39 -1.934 2.5-6.979 3.894-8.85-1.25 1.71-0.09 3.43-0.58 4.63-1.27 -1.479 0.748-9.968 1.232-9.34-4.28 0.301-3.081 2.626-6.51 5.77-6.51 -1.84-0.27-3.73 0.71-5.13 2.22 -7.167-2.636-2.441-10.856 4.77-13.85 -1 0.269-2.281 0.543-4.55 1.91 -8.558-4.525-1.959-13.669 1.67-14.3 -1.56 0.14-2.99 0.84-4.25 1.78 -8.094-4.805-1.063-18.69 4.81-17.8 -1.85-0.58-3.42 0-4.79 1.04 -5.861-5.887 4.912-12.546 8.54-11.51 -1.31-0.48-2.69-0.38-4.02-0.01 -0.86-3.383 0.16-11.205 11.24-11.75 -1.45-0.15-2.93-0.27-4.37-0.1 -3.506-6.863 2.523-13.311 11.41-11.15 -1.44-0.57-3.04-0.92-4.63-0.99 0-12.784 15.759-8.419 16.88-8.29 -1.48-0.5-3.02-1.02-4.57-1.42 3.495-6.831 14.659-4.202 15.91-0.45 -0.41-1.85-2.07-3.05-3.77-3.83 3.366-5.466 11.211-4.896 12.29-1.93 -0.19-0.78-0.62-1.38-1.18-1.83 2.964-2.01 12.098-1.161 13.67 2.6 -0.3-1.23-1.08-2.13-2.07-2.8 1.896-1.267 6.499-1.938 11.55 0.48 -1.103 1.13-1.61 2.212-2.47 3.47 1.06-1.12 2.04-2.23 3.21-3.08 1.07 0.64 1.91 1.54 2.25 2.89 -0.132-1-0.128-1.918-1.66-3.28 4.873-3.02 10.861 0.167 15.53 3.56 -1.141 0.54-2.28 1.07-3.44 1.49 6.318-1.098 10.604-4.965 18.681 3.39 -1.721 0.24-3.431 0.62-4.98 0.84 0.387 0.02 7.437-0.082 7.69 0.16 3.846 0.547 5.627 3.225 6.579 6.81 -1.229 0.17-2.289 0.73-2.84 1.96 2.756-4.704 17.408 3.675 16.391 12.35 -1.83-0.02-3.63 0.46-5.24 1.47 6.482-2.601 13.192 1.838 11.71 10.49 -0.73-0.06-1.45 0.12-2.11 0.66 2.186-1.81 8.681 2.768 4.641 14 -1.08-0.49-2.25-0.6-3.16 0.28 3.409-3.306 9.756 10.281 6.7 14.58 -1.051-0.86-2.311-1.5-3.7-1.8C175.596 65.811 173.77 75.195 168.6 80.305z" fill="#784b28" stroke-width="none" opacity="1" stroke="none"/>
          </g>
          <g id="svga-group-glasses-single-move" transform="matrix(1,0,0,1,0,0)">
            <g id="svga-group-glasses-single" transform="matrix(1,0,0,1,0,0)">
              <path id="SvgjsPath48945" d="M100,18.13L100,18.13L100,18.13L100,18.13z" fill="#26120b" stroke-width="none" opacity="1"/>
            </g>
          </g>
        </g>
      </g>
    </g>
    <rect id="SvgjsRect48798" width="200" height="15" x="0" y="185" fill="#ecf0f1" opacity="0.5" style="display: none;"/>
    <text id="SvgjsText48799" font-family="Roboto, Helvetica, Arial, sans-serif" font-size="10px" text-anchor="start" font-weight="400" anchor="start" fill="#333333" x="58.03125" y="182.4296875" style="display: none;">
      <tspan id="SvgjsTspan48800" dy="13" x="58.03125">Created on face.co</tspan>
    </text>
  </g>
</svg>
