<?xml version="1.0"?>
<svg xmlns="http://www.w3.org/2000/svg" version="1.1" width="600px" height="600px" viewBox="0 0 200 200" style="overflow:hidden!important;">
  <defs id="SvgjsDefs350607">
    <radialGradient id="SvgjsRadialGradient350673" cx="100" cy="114" r="41" gradientUnits="userSpaceOnUse" class="svga-on-canvas-facehighlight-gradient-single-0">
      <stop id="SvgjsStop350674" stop-opacity="0.5" stop-color="#ffe4d6" offset="0"/>
      <stop id="SvgjsStop350675" stop-opacity="0" stop-color="#f0c7b1" offset="0.9"/>
    </radialGradient>
    <radialGradient id="SvgjsRadialGradient350677" cx="100" cy="54" r="37" gradientUnits="userSpaceOnUse" class="svga-on-canvas-facehighlight-gradient-single-1">
      <stop id="SvgjsStop350678" stop-opacity="0.5" stop-color="#ffe4d6" offset="0"/>
      <stop id="SvgjsStop350679" stop-opacity="0" stop-color="#f0c7b1" offset="0.9"/>
    </radialGradient>
    <radialGradient id="SvgjsRadialGradient350762" cx="-568.659" cy="-521.042" r="59.751" gradientTransform="matrix(0.096 -0.0248 0.0245 0.0961 141.2814 119.9893)" gradientUnits="userSpaceOnUse" class="svga-on-canvas-eyesiris-gradient-left-1">
      <stop id="SvgjsStop350763" stop-opacity="1" stop-color="#ffffff" offset="0"/>
      <stop id="SvgjsStop350764" stop-opacity="0" stop-color="#ffffff" offset="1"/>
    </radialGradient>
    <radialGradient id="SvgjsRadialGradient350766" cx="-582.838" cy="-519.099" r="59.745" gradientTransform="matrix(0.0991 8.856319e-004 -0.0011 0.0991 131.1134 135.9855)" gradientUnits="userSpaceOnUse" class="svga-on-canvas-eyesiris-gradient-left-2">
      <stop id="SvgjsStop350767" stop-opacity="1" stop-color="#ffffff" offset="0"/>
      <stop id="SvgjsStop350768" stop-opacity="0" stop-color="#ffffff" offset="1"/>
    </radialGradient>
    <linearGradient id="SvgjsLinearGradient350772" x1="122.67" y1="88.268" x2="123.606" y2="87.152" gradientTransform="matrix(1 0 0 1 -52 0)" gradientUnits="userSpaceOnUse" class="svga-on-canvas-eyesiris-gradient-left-5">
      <stop id="SvgjsStop350773" stop-opacity="1" stop-color="#ffffff" offset="0"/>
      <stop id="SvgjsStop350774" stop-opacity="0" stop-color="#ffffff" offset="1"/>
    </linearGradient>
    <linearGradient id="SvgjsLinearGradient350780" x1="129.636" y1="79.822" x2="127.91" y2="81.879" gradientTransform="matrix(1 0 0 1 -52 0)" gradientUnits="userSpaceOnUse" class="svga-on-canvas-eyesiris-gradient-left-7">
      <stop id="SvgjsStop350781" stop-opacity="1" stop-color="#ffffff" offset="0"/>
      <stop id="SvgjsStop350782" stop-opacity="0" stop-color="#ffffff" offset="1"/>
    </linearGradient>
    <radialGradient id="SvgjsRadialGradient350785" cx="-568.654" cy="-521.042" r="59.752" gradientTransform="matrix(0.096 -0.0248 0.0245 0.0961 193.2804 119.9894)" gradientUnits="userSpaceOnUse" class="svga-on-canvas-eyesiris-gradient-right-1">
      <stop id="SvgjsStop350786" stop-opacity="1" stop-color="#ffffff" offset="0"/>
      <stop id="SvgjsStop350787" stop-opacity="0" stop-color="#ffffff" offset="1"/>
    </radialGradient>
    <radialGradient id="SvgjsRadialGradient350789" cx="-582.833" cy="-519.102" r="59.747" gradientTransform="matrix(0.0991 8.856319e-004 -0.0011 0.0991 183.1126 135.9856)" gradientUnits="userSpaceOnUse" class="svga-on-canvas-eyesiris-gradient-right-2">
      <stop id="SvgjsStop350790" stop-opacity="1" stop-color="#ffffff" offset="0"/>
      <stop id="SvgjsStop350791" stop-opacity="0" stop-color="#ffffff" offset="1"/>
    </radialGradient>
    <linearGradient id="SvgjsLinearGradient350795" x1="122.67" y1="88.268" x2="123.606" y2="87.152" gradientUnits="userSpaceOnUse" class="svga-on-canvas-eyesiris-gradient-right-5">
      <stop id="SvgjsStop350796" stop-opacity="1" stop-color="#ffffff" offset="0"/>
      <stop id="SvgjsStop350797" stop-opacity="0" stop-color="#ffffff" offset="1"/>
    </linearGradient>
    <linearGradient id="SvgjsLinearGradient350803" x1="129.636" y1="79.822" x2="127.91" y2="81.879" gradientUnits="userSpaceOnUse" class="svga-on-canvas-eyesiris-gradient-right-7">
      <stop id="SvgjsStop350804" stop-opacity="1" stop-color="#ffffff" offset="0"/>
      <stop id="SvgjsStop350805" stop-opacity="0" stop-color="#ffffff" offset="1"/>
    </linearGradient>
    <radialGradient id="SvgjsRadialGradient350867" cx="126.682" cy="84.862" r="13.37" gradientTransform="matrix(-1.0172 0 0 1.0172 202.5653 -1.4692)" gradientUnits="userSpaceOnUse" class="svga-on-canvas-eyesback-gradient-left-0">
      <stop id="SvgjsStop350868" stop-opacity="1" stop-color="#ffffff" offset="0"/>
      <stop id="SvgjsStop350869" stop-opacity="1" stop-color="#fdfefe" offset="0.544"/>
      <stop id="SvgjsStop350870" stop-opacity="1" stop-color="#f6f8f9" offset="0.74"/>
      <stop id="SvgjsStop350871" stop-opacity="1" stop-color="#eaeff2" offset="0.879"/>
      <stop id="SvgjsStop350872" stop-opacity="1" stop-color="#d9e3e8" offset="0.992"/>
      <stop id="SvgjsStop350873" stop-opacity="1" stop-color="#d8e2e7" offset="1"/>
    </radialGradient>
    <radialGradient id="SvgjsRadialGradient350875" cx="126.289" cy="84.862" r="13.371" gradientTransform="matrix(1.0172 0 0 1.0172 -2.5653 -1.4692)" gradientUnits="userSpaceOnUse" class="svga-on-canvas-eyesback-gradient-right-0">
      <stop id="SvgjsStop350876" stop-opacity="1" stop-color="#ffffff" offset="0"/>
      <stop id="SvgjsStop350877" stop-opacity="1" stop-color="#fdfefe" offset="0.544"/>
      <stop id="SvgjsStop350878" stop-opacity="1" stop-color="#f6f8f9" offset="0.74"/>
      <stop id="SvgjsStop350879" stop-opacity="1" stop-color="#eaeff2" offset="0.879"/>
      <stop id="SvgjsStop350880" stop-opacity="1" stop-color="#d9e3e8" offset="0.992"/>
      <stop id="SvgjsStop350881" stop-opacity="1" stop-color="#d8e2e7" offset="1"/>
    </radialGradient>
    <radialGradient id="SvgjsRadialGradient350883" cx="126.682" cy="84.862" r="13.37" gradientTransform="matrix(-1.0172 0 0 1.0172 202.5653 -1.4692)" gradientUnits="userSpaceOnUse" class="svga-on-canvas-eyesfront-gradient-left-0">
      <stop id="SvgjsStop350884" stop-opacity="1" stop-color="#ffffff" offset="0"/>
      <stop id="SvgjsStop350885" stop-opacity="1" stop-color="#fdfefe" offset="0.544"/>
      <stop id="SvgjsStop350886" stop-opacity="1" stop-color="#f6f8f9" offset="0.74"/>
      <stop id="SvgjsStop350887" stop-opacity="1" stop-color="#eaeff2" offset="0.879"/>
      <stop id="SvgjsStop350888" stop-opacity="1" stop-color="#d9e3e8" offset="0.992"/>
      <stop id="SvgjsStop350889" stop-opacity="1" stop-color="#d8e2e7" offset="1"/>
    </radialGradient>
    <radialGradient id="SvgjsRadialGradient350893" cx="122.115" cy="84.345" fx="133.972" fy="84.379" r="16.863" gradientTransform="matrix(0.9998 0.0208 0.0166 -0.7998 -45.6081 149.2658)" gradientUnits="userSpaceOnUse" class="svga-on-canvas-eyesfront-gradient-left-3">
      <stop id="SvgjsStop350894" stop-opacity="1" stop-color="#e1ac8f" offset="0"/>
      <stop id="SvgjsStop350895" stop-opacity="0.3" stop-color="#e1ac8f" offset="0.7"/>
      <stop id="SvgjsStop350896" stop-opacity="0" stop-color="#f0c7b1" offset="1"/>
    </radialGradient>
    <radialGradient id="SvgjsRadialGradient350898" cx="72.882" cy="102.392" r="22.097" gradientTransform="matrix(1.0455 -0.0545 0.0548 1.0391 -8.9534 0.4299)" gradientUnits="userSpaceOnUse" class="svga-on-canvas-eyesfront-gradient-left-4">
      <stop id="SvgjsStop350899" stop-opacity="0" stop-color="#000000" offset="0.95"/>
      <stop id="SvgjsStop350900" stop-opacity="0.2" stop-color="#000000" offset="1"/>
    </radialGradient>
    <radialGradient id="SvgjsRadialGradient350904" cx="126.289" cy="84.862" r="13.371" gradientTransform="matrix(1.0172 0 0 1.0172 -2.5653 -1.4692)" gradientUnits="userSpaceOnUse" class="svga-on-canvas-eyesfront-gradient-right-0">
      <stop id="SvgjsStop350905" stop-opacity="1" stop-color="#ffffff" offset="0"/>
      <stop id="SvgjsStop350906" stop-opacity="1" stop-color="#fdfefe" offset="0.544"/>
      <stop id="SvgjsStop350907" stop-opacity="1" stop-color="#f6f8f9" offset="0.74"/>
      <stop id="SvgjsStop350908" stop-opacity="1" stop-color="#eaeff2" offset="0.879"/>
      <stop id="SvgjsStop350909" stop-opacity="1" stop-color="#d9e3e8" offset="0.992"/>
      <stop id="SvgjsStop350910" stop-opacity="1" stop-color="#d8e2e7" offset="1"/>
    </radialGradient>
    <radialGradient id="SvgjsRadialGradient350914" cx="121.716" cy="84.345" fx="133.573" fy="84.379" r="16.863" gradientTransform="matrix(-0.9998 0.0208 -0.0166 -0.7998 244.8094 149.2741)" gradientUnits="userSpaceOnUse" class="svga-on-canvas-eyesfront-gradient-right-3">
      <stop id="SvgjsStop350915" stop-opacity="1" stop-color="#e1ac8f" offset="0"/>
      <stop id="SvgjsStop350916" stop-opacity="0.3" stop-color="#e1ac8f" offset="0.7"/>
      <stop id="SvgjsStop350917" stop-opacity="0" stop-color="#f0c7b1" offset="1"/>
    </radialGradient>
    <radialGradient id="SvgjsRadialGradient350919" cx="73.264" cy="102.408" r="22.097" gradientTransform="matrix(-1.0455 -0.0545 -0.0548 1.0391 208.9532 0.4342)" gradientUnits="userSpaceOnUse" class="svga-on-canvas-eyesfront-gradient-right-4">
      <stop id="SvgjsStop350920" stop-opacity="0" stop-color="#000000" offset="0.95"/>
      <stop id="SvgjsStop350921" stop-opacity="0.2" stop-color="#000000" offset="1"/>
    </radialGradient>
    <linearGradient id="SvgjsLinearGradient350931" x1="132" y1="78" x2="126" y2="84" gradientTransform="matrix(1 0 0 1 -50 0)" gradientUnits="userSpaceOnUse" class="svga-on-canvas-eyesiris-gradient-left-6">
      <stop id="SvgjsStop350932" stop-opacity="1" stop-color="#ffffff" offset="0"/>
      <stop id="SvgjsStop350933" stop-opacity="0" stop-color="#ffffff" offset="1"/>
    </linearGradient>
    <linearGradient id="SvgjsLinearGradient350941" x1="132" y1="78" x2="126" y2="84" gradientUnits="userSpaceOnUse" class="svga-on-canvas-eyesiris-gradient-right-6">
      <stop id="SvgjsStop350942" stop-opacity="1" stop-color="#ffffff" offset="0"/>
      <stop id="SvgjsStop350943" stop-opacity="0" stop-color="#ffffff" offset="1"/>
    </linearGradient>
    <linearGradient id="SvgjsLinearGradient350951" x1="100" y1="140" x2="100" y2="138" gradientUnits="userSpaceOnUse" class="svga-on-canvas-mouth-gradient-single-0">
      <stop id="SvgjsStop350952" stop-opacity="1" stop-color="#e8b9a0" offset="0.1"/>
      <stop id="SvgjsStop350953" stop-opacity="1" stop-color="#e1ac8f" offset="1"/>
    </linearGradient>
    <linearGradient id="SvgjsLinearGradient350979" x1="100" y1="172" x2="100" y2="130" gradientUnits="userSpaceOnUse" class="svga-on-canvas-chinshadow-gradient-single-0">
      <stop id="SvgjsStop350980" stop-opacity="0.8" stop-color="#e1ac8f" offset="0"/>
      <stop id="SvgjsStop350981" stop-opacity="1" stop-color="#c27b55" offset="0.7"/>
    </linearGradient>
  </defs>
  <g id="svga-group-wrapper">
    <g id="svga-group-backs-single">
      <path id="SvgjsPath350827" d="M225 225H-25V-25h250V225z" fill="#c5e0dc" stroke-width="none" opacity="1" stroke="none"/>
      <path id="SvgjsPath350828" d="M30.816 56.624l3.375 1.049 -2.886 2.041 0.045 3.535 -2.833-2.114 -3.347 1.136 1.134-3.348 -2.114-2.833 3.535 0.044 2.041-2.886L30.816 56.624zM40.051 33.259l-1.586 5.428 -5.372 1.771 4.672 3.187L37.79 49.3l4.475-3.458 5.385 1.725 -1.905-5.325 3.303-4.588 -5.653 0.168L40.051 33.259zM9.358 99.38l-2.422 3.986 -4.711 0.273 3.104 3.526 -1.17 4.508 4.344-1.807 3.987 2.514 -0.421-4.643 3.633-2.954 -4.602-1.063L9.358 99.38zM11.271 71.054l0.168 3.531 -2.814 2.14 3.41 0.932 1.166 3.337 1.939-2.955 3.534-0.077 -2.21-2.759 1.019-3.384 -3.306 1.25L11.271 71.054zM5.396 51.958l3.615-2.959 0.182 4.63 3.969 2.479L8.755 57.71 7.592 62.2l-2.905-3.641L0 58.856l2.612-3.853 -1.735-4.307L5.396 51.958zM5.222 135.998l2.556-1.095 -0.621 2.515 1.908 1.88 -2.799 0.256 -1.377 2.256 -1.111-2.357 -2.758-0.484 2.115-1.714 -0.329-2.556L5.222 135.998zM20.532 155.007l2.81 0.867 -2.402 1.688 0.038 2.922 -2.358-1.748 -2.785 0.939 0.943-2.768 -1.76-2.342 2.942 0.037 1.699-2.387L20.532 155.007zM31.034 83.795l4.647 0.739 -3.406 3.215 0.738 4.622 -4.139-2.236 -4.191 2.116 0.849-4.598 -3.329-3.312 4.666-0.606 2.132-4.164L31.034 83.795zM22.119 29.902l5.203 1.198 -4.104 3.329 0.474 5.232 -4.507-2.832 -4.909 2.035 1.322-5.08 -3.509-3.974 5.325-0.307 2.738-4.491L22.119 29.902zM26.758 136.314l4.432-0.083 -2.633 3.463 1.437 4.064 -4.2-1.354L22.251 145l0.04-4.301 -3.627-2.46 4.226-1.304 1.298-4.115L26.758 136.314zM56.458 148.571l4.296-0.914 -1.894 3.861 2.184 3.68 -4.349-0.525 -2.947 3.188 -0.792-4.187 -4.005-1.709 3.86-2.063 0.468-4.242L56.458 148.571zM41.369 162.985l5.203 1.198 -4.104 3.329 0.474 5.232 -4.507-2.832 -4.909 2.035 1.322-5.08 -3.509-3.975 5.325-0.307 2.738-4.491L41.369 162.985zM30.869 110.835l5.203 1.199 -4.104 3.328 0.474 5.232 -4.507-2.832 -4.909 2.035 1.322-5.08 -3.509-3.974 5.325-0.308 2.738-4.49L30.869 110.835zM45.782 133.007l2.81 0.867 -2.402 1.688 0.038 2.922 -2.358-1.748 -2.785 0.939 0.943-2.768 -1.76-2.342 2.942 0.037 1.699-2.387L45.782 133.007zM39.066 13.124l3.375 1.049 -2.886 2.041 0.045 3.535 -2.833-2.114 -3.347 1.136 1.134-3.348 -2.114-2.833 3.535 0.044 2.041-2.886L39.066 13.124zM60.934 3.517L65.4 3.387l-2.609 3.538 1.505 4.106 -4.255-1.331 -3.536 2.667 -0.019-4.36L52.795 5.55l4.244-1.365L58.293 0 60.934 3.517zM65.782 172.007l2.81 0.867 -2.402 1.688 0.038 2.922 -2.358-1.748 -2.785 0.939 0.943-2.768 -1.76-2.342 2.942 0.037 1.699-2.387L65.782 172.007zM49.908 108.489l4.072-0.469 -2.299 3.158 1.465 3.299 -3.91-0.764 -3.165 2.505 -0.116-3.63 -3.422-1.752 3.84-1.479 1.047-3.586L49.908 108.489zM169.184 120.86l-3.376-1.049 2.886-2.041 -0.045-3.535 2.833 2.113 3.347-1.135 -1.134 3.348 2.114 2.832 -3.535-0.045 -2.04 2.887L169.184 120.86zM159.948 144.224l1.587-5.428 5.371-1.771 -4.672-3.187 -0.024-5.655 -4.475 3.458 -5.386-1.725 1.905 5.325 -3.303 4.589 5.652-0.168L159.948 144.224zM190.642 78.103l2.422-3.986 4.712-0.273 -3.104-3.526 1.17-4.508 -4.345 1.807 -3.987-2.514 0.421 4.643 -3.633 2.954 4.602 1.063L190.642 78.103zM188.729 106.43l-0.168-3.531 2.814-2.14 -3.409-0.932L186.8 96.49l-1.939 2.955 -3.534 0.077 2.211 2.759 -1.02 3.384 3.307-1.25L188.729 106.43zM194.604 125.525l-3.615 2.959 -0.182-4.63 -3.969-2.479 4.406-1.602 1.163-4.49 2.905 3.642 4.688-0.298 -2.612 3.853 1.735 4.307L194.604 125.525zM194.778 41.485l-2.556 1.095 0.62-2.515 -1.907-1.88 2.799-0.256 1.377-2.256 1.11 2.357 2.759 0.484 -2.115 1.714 0.329 2.556L194.778 41.485zM179.468 22.477l-2.811-0.867 2.402-1.688L179.022 17l2.358 1.748 2.784-0.939 -0.943 2.768 1.76 2.342 -2.942-0.037 -1.699 2.387L179.468 22.477zM168.966 93.688l-4.647-0.739 3.406-3.215 -0.738-4.622 4.139 2.236 4.191-2.116 -0.85 4.598 3.329 3.312 -4.665 0.606 -2.132 4.164L168.966 93.688zM177.881 147.581l-5.203-1.198 4.104-3.329 -0.474-5.232 4.507 2.832 4.909-2.035 -1.322 5.08 3.509 3.975 -5.325 0.307 -2.737 4.491L177.881 147.581zM173.241 41.169l-4.432 0.083 2.634-3.463 -1.437-4.064 4.2 1.354 3.541-2.595 -0.039 4.301 3.627 2.46 -4.226 1.304 -1.299 4.115L173.241 41.169zM151.968 35.013l-4.296 0.914 1.894-3.861 -2.185-3.68 4.349 0.525 2.947-3.188 0.792 4.187 4.006 1.709 -3.86 2.063 -0.469 4.242L151.968 35.013zM158.631 14.498l-5.203-1.198 4.104-3.329 -0.474-5.232 4.507 2.832 4.909-2.035 -1.322 5.08 3.509 3.975 -5.325 0.307 -2.737 4.491L158.631 14.498zM169.131 66.648l-5.203-1.199 4.104-3.328 -0.474-5.232 4.507 2.832 4.909-2.035 -1.322 5.08 3.509 3.974 -5.325 0.308 -2.737 4.49L169.131 66.648zM131.544 149.7l-2.81-0.867 2.402-1.688 -0.038-2.922 2.358 1.748 2.784-0.939 -0.943 2.768 1.76 2.342 -2.942-0.037 -1.699 2.387L131.544 149.7zM160.934 164.36l-3.376-1.049 2.886-2.041 -0.045-3.535 2.833 2.113 3.347-1.135 -1.134 3.348 2.114 2.832 -3.535-0.045 -2.04 2.887L160.934 164.36zM139.065 173.967l-4.466 0.13 2.609-3.539 -1.505-4.105 4.255 1.33 3.535-2.667 0.019 4.36 3.691 2.457 -4.243 1.365 -1.254 4.186L139.065 173.967zM134.218 5.477l-2.811-0.867 2.402-1.688L133.772 0l2.358 1.748 2.784-0.939 -0.943 2.768 1.76 2.342 -2.942-0.037 -1.699 2.387L134.218 5.477zM151.776 111.519l-4.072 0.469 2.299-3.158 -1.465-3.299 3.91 0.764 3.165-2.505 0.115 3.63 3.423 1.752 -3.84 1.479 -1.048 3.586L151.776 111.519z" fill="#eaefef" stroke-width="none" opacity="1" stroke="none"/>
    </g>
    <g id="svga-group-humanwrap-move" transform="matrix(1,0,0,1,0,0)">
      <g id="svga-group-humanwrap" transform="matrix(1,0,0,1,0,0)">
        <g id="svga-group-hair-back-move" transform="matrix(1,0,0,1,0,0)">
          <g id="svga-group-hair-back" transform="matrix(1,0,0,1,0,0)">
            <path id="SvgjsPath350840" d="M100.5,100.5h-1v-1h1V100.5z" fill="#cac1b2" stroke-width="none" opacity="1" stroke="none"/>
          </g>
        </g>
        <g id="svga-group-humanbody-single">
          <path id="SvgjsPath350680" d="M195.417 199.778c-2.196-4.746-8.195-11.779-14.86-13.722 -8.239-2.403-26.837-5.308-33.733-6.923 -5.528-1.296-16.662-11.294-20.564-14.65 -0.7-0.6-1.273-1.839-1.287-2.76 -0.139-10.864 4.195-39.724 4.195-39.724H100 70.833c0 0 4.334 28.859 4.193 39.724 -0.011 0.921-0.587 2.16-1.285 2.76 -3.902 3.356-15.036 13.354-20.564 14.65 -6.897 1.615-25.495 4.619-33.733 7.022 -6.667 1.942-12.664 8.876-14.86 13.622 -3.708 8.008-4.584 22.5-4.584 35h100 100C200 222.278 199.123 207.786 195.417 199.778z" fill="#f0c7b1" stroke-width="none" opacity="1" stroke="none"/>
          <path id="SvgjsPath350681" d="M159.156 184.058c24.342 3.542 34.586 8.708 37.794 50.721H200c0-12.5-0.877-26.992-4.583-35 -2.196-4.746-8.195-11.779-14.86-13.722 -8.239-2.403-26.837-5.308-33.733-6.923 -5.528-1.296-18.242-12.069-21.643-16.35 3.36 4.704 12.791 15.605 21.054 18.46C150.188 182.61 153.48 183.232 159.156 184.058zM53.766 181.244c8.263-2.854 17.693-13.756 21.054-18.46 -3.4 4.28-16.114 15.054-21.643 16.35 -6.896 1.615-25.494 4.619-33.733 7.022 -6.665 1.942-12.664 8.876-14.86 13.622 -3.706 8.008-4.583 22.5-4.583 35h3.05c3.188-41.744 13.475-47.183 37.794-50.721C46.52 183.232 49.813 182.61 53.766 181.244z" fill="#ffe4d6" stroke-width="none" opacity="1" stroke="none"/>
          <path id="SvgjsPath350682" d="M95.646 197.62c0 0-5.074-1.609-7.083-2.379 -10.449-4.009-44.395-6.607-44.395-6.607s35.754 1.419 43.644 2.779c-0.458-4.767-3.017-20.004-3.017-20.004s5.149 16.815 6.409 21.057C91.878 194.734 95.646 197.62 95.646 197.62zM106.445 196.278c-0.089 0.073-0.191 0.168-0.302 0.268C106.256 196.461 106.358 196.372 106.445 196.278zM95.646 197.62c0 0 2.893 2.992 4.347 3.03 1.91 0.051 4.828-2.899 6.151-4.104 -1.265 0.957-4.159 1.391-5.31 1.436C99.504 198.033 95.646 197.62 95.646 197.62zM116.664 190.101c-1.545 0.248-4.386 0.789-4.386 0.789l2.287-14.89c-0.646 3.071-4.474 16.211-8.12 20.278 1.91-1.616 6.158-2.391 8.324-2.704 10.236-1.484 10.232-1.483 41.062-4.94C155.831 188.634 126.76 188.479 116.664 190.101z" fill="#e1ac8f" stroke-width="none" opacity="1" stroke="none"/>
          <path id="SvgjsPath350683" d="M195.417 199.778c-2.196-4.746-8.195-11.779-14.86-13.722 -8.239-2.403-26.837-5.308-33.733-6.923 -5.528-1.296-16.662-11.294-20.564-14.65 -0.7-0.6-1.273-1.839-1.287-2.76 -0.139-10.864 4.195-39.724 4.195-39.724H100 70.833c0 0 4.334 28.859 4.193 39.724 -0.011 0.921-0.587 2.16-1.285 2.76 -3.902 3.356-15.036 13.354-20.564 14.65 -6.897 1.615-25.495 4.619-33.733 7.022 -6.667 1.942-12.664 8.876-14.86 13.622 -3.708 8.008-4.584 22.5-4.584 35h100 100C200 222.278 199.123 207.786 195.417 199.778z" fill="none" stroke="#c27b55" stroke-width="1.5" opacity="1"/>
        </g>
        <g id="svga-group-chinshadow-single">
          <path id="SvgjsPath350978" d="M75.464 163.188c5.276 4.256 10.716 8.678 24.538 8.678 13.815 0 19.256-4.418 24.531-8.672 -0.188-0.49-0.305-0.997-0.312-1.461 -0.088-6.889 1.573-20.711 2.835-30.131 -15.695-2.201-38.418-2.201-54.113 0 1.261 9.421 2.922 23.242 2.833 30.13C75.771 162.188 75.654 162.695 75.464 163.188z" fill="url(#SvgjsLinearGradient350979)" opacity="1"/>
        </g>
        <g id="svga-group-clothes-single">
          <path id="SvgjsPath350965" d="M-0.35 235.399c-5.397-68.442 34.095-42.726 62.751-62.455 0.43-2.869 2.012-4.49 4.209-6.688 8.539-8.537 3.556-12.475 6.837-16.225 0.061 0.682 0.121 1.609 0.203 2.609 14.335 15.54 41.122 21.975 52.534 1.957 0.057-1.388 0.281-4.84 0.455-6.532 2.596 1.968 2.467 4.504 2.671 7.165 0.952 12.423 8.132 15.523 9.356 18.519 29.112 18.84 64.362-8.488 61.582 61.22C190.104 235.4 82.543 236.083-0.35 235.399z" fill="#386e77" stroke-width="none" opacity="1" stroke="none"/>
          <path id="SvgjsPath350966" d="M200.249 234.97c-0.493 0.021-1.225 0.043-2.165 0.064C197.343 222.419 196.966 209.61 190 198c-10-16-30-10-46-18 -12.592-5.396-14.666-18.072-15.685-30.026 0.869 1.59 0.853 3.393 0.995 5.258 0.952 12.423 8.132 15.523 9.356 18.519C167.779 192.59 203.029 165.262 200.249 234.97zM12 194.805c11.883-11.718 38-5.801 51-20.801 2.369-5.019 8.619-7.769 9.354-21.899 -0.828 3.247 1.257 7.153-5.743 14.152 -2.197 2.197-3.779 3.818-4.209 6.688 -28.656 19.729-68.148-5.987-62.751 62.455 0.475 0.004 0.955 0.008 1.432 0.012C0.058 220.805 2.523 204.149 12 194.805zM73.869 166.735c14.154 9.8 28.403 14.222 47.5 6.75C98.572 180.314 85.85 173.819 73.869 166.735zM93.095 170.59c12.673 4 24.608 2.148 35.774-6.604C117.411 171.174 106.868 173.999 93.095 170.59zM67.786 176.957c11.886 10.565 44.754 17.908 69.083-1.222C111.67 193.004 79.525 186.392 67.786 176.957zM86.209 180.108c16.699 7.246 43.293-0.997 47.602-5.373C129.232 178.65 101.399 185.549 86.209 180.108z" fill="#4d7e86" stroke-width="none" opacity="1" stroke="none"/>
          <path id="SvgjsPath350967" d="M139.439 173.615h-0.011c-0.119-0.06-0.239-0.13-0.359-0.2 -0.018-0.054-0.39-0.846-0.851-1.3 -13.21-13.021-4.921-19.103-11.609-24.479 -0.035 0.62-0.531 4.908-0.62 6.819 -11.334 19.824-38.513 12.837-52.13-1.939 -0.045-0.542-0.211-2.664-0.29-3.221 -1.843 1.843-2.156 3.686-2.122 6.281 0.117 9.025-8.533 10.548-9.508 17.079 -28.303 19.487-68.409-6.355-62.75 63.24 84.796 0.705 195.013-0.026 201.541-0.45C203.572 167.624 173.061 191.379 139.439 173.615zM126.739 148.365c0.092 0.092 0.661 0.819 1.11 1.521 -0.366 1-0.638 2.347-1.53 3.93C126.651 149.852 126.667 149.771 126.739 148.365zM73.379 150.216c0.037 0.463 0.12 1.46 0.16 1.949 -0.29-0.31-0.57-0.6-0.82-0.88C72.919 150.905 73.129 150.545 73.379 150.216zM65.859 167.075c18.439 21.978 40.26 18.955 62.26 11.08 -30.612 9.414-44.329 5.81-61.99-11.37 7.46-6.32 5.691-8.829 6.35-15.01 20.39 23.21 50.375 17.96 55.81-1.13h0.01c1.958 11.071-2.637 8.336 10.301 23.06 -12.049 15.935-54.963 20.369-76.121-0.739C62.904 170.416 64.056 168.941 65.859 167.075zM0.109 234.838C0 165.37 32.869 196.235 62.059 173.204c18.395 20.038 59.684 22.314 76.89 0.892 24.883 17.816 61.965-6.61 60.533 60.223C140.951 233.913 65.786 234.118 0.109 234.838zM120.929 174.306c-5.603 3.779-29.402 8.238-44-5.38h-0.01l-0.07-0.061c0.235 0.061 0.513 0.131 0.73 0.46 -0.01-0.01-0.03-0.03-0.06-0.05 -0.085-0.105-0.354-0.32-0.5-0.32C103.716 186.869 130.316 168.975 120.929 174.306zM128.089 164.665c-17.654 15.185-38.134 9.989-54.24-3.34C89.656 172.72 108.896 177.796 128.089 164.665z" fill="#0c4049" stroke-width="none" opacity="1" stroke="none"/>
        </g>
        <g id="svga-group-head" transform="matrix(1,0,0,1,0,0)">
          <g id="svga-group-ears-left-move" transform="matrix(1,0,0,1,0,0)">
            <g id="svga-group-ears-left" transform="matrix(1,0,0,1,0,0)">
              <path id="SvgjsPath350960" d="M45.443 82.722c-1.469-2.433-6.648-7.545-10.31-6.61 -2.979 0.762-6.032 3.243-6.032 7.473 -0.001 6.553 1.496 9.338 2.501 12.311 0.856 2.53 3.915 7.167 5.761 8.964 2.273 2.208 5.957 9.35 6.404 10.079 0.705 1.154 1.877 2.988 4.043 3.057 3.29 0.104 7.085-2.105 7.323-3.488C56.42 107.009 49.263 89.052 45.443 82.722z" fill="#f0c7b1" stroke="#c27b55" stroke-width="1.5" opacity="1"/>
              <path id="SvgjsPath350961" d="M43.596 99.086c-0.142-0.558 0.007-1.495 0.152-2.4 0.131-0.826 0.255-1.605 0.18-2.157 -0.285-2.064-1.892-5.988-2.942-8.115 -1.208-2.446-4.117-5.528-6.568-6.322 -1.013-0.329-1.681 0.064-2.067 0.463 -0.284 0.293-0.347 0.637-0.254 0.678 0.093 0.041 0.304-0.244 0.61-0.513 0.25-0.22 0.617-0.408 1.122-0.369 -0.203 1.028-3.138 4.222-1.381 10.392 0.822 2.888 1.992 5.214 2.202 5.549 0.032 0.352 0.083 0.696 0.159 1.031 0.991 4.357 7.286 11.54 8.785 13.162 0.277 0.3 0.567 0.477 0.639 0.406 0.072-0.072-0.1-0.368-0.376-0.671 -1.48-1.611-7.734-8.777-8.69-12.981 -1.754-7.702 1.916-7.832 4.499-12.473 0.397 0.657 0.733 1.288 0.993 1.814 0.203 0.413 0.429 0.896 0.661 1.417 -0.458 0.729-5.059 6.055-3.889 10.317 0.433 1.572 3.779 3.598 5.073 4.153 0.712 0.306 0.979 0.763 1.289 1.291 0.359 0.613 0.767 2.796 1.95 3.298 0.241 0.103 0.458 0.146 0.651 0.146 0.334 0 0.587-0.128 0.774-0.28 0.019 0.267 0.018 0.612 0.008 0.93 -0.011 0.411 0.046 0.748 0.147 0.756s0.208-0.317 0.221-0.727c0.016-0.504 0.014-1.128-0.077-1.426 -0.265-0.88-1.076-1.871-1.934-2.921C44.688 102.503 43.815 99.947 43.596 99.086zM34.616 95.223c-2.322-6.84 0.993-12.744 1.514-13.684 0.908 0.787 2.662 1.841 3.314 2.87C36.33 89.804 34.811 86.051 34.616 95.223zM45.884 106.717c-1.072-0.455-1.431-2.555-1.778-3.147 -0.314-0.536-0.639-1.089-1.461-1.443 -0.179-0.077-0.376-0.194-0.578-0.328 -3.861-5.758 0.291-8.626 1.027-9.163 0.226 0.734 0.396 1.407 0.47 1.946 0.068 0.496-0.058 1.284-0.179 2.045 -0.15 0.944-0.306 1.92-0.145 2.553 0.24 0.941 1.14 3.529 2.01 4.594 0.772 0.945 1.564 1.919 1.835 2.713C46.97 106.645 46.604 107.022 45.884 106.717z" fill="#c27b55" stroke-width="none" opacity="1" stroke="none"/>
            </g>
          </g>
          <g id="svga-group-ears-right-move" transform="matrix(1,0,0,1,0,0)">
            <g id="svga-group-ears-right" transform="matrix(1,0,0,1,0,0)">
              <path id="SvgjsPath350962" d="M154.295 82.722c1.469-2.433 6.648-7.545 10.311-6.61 2.979 0.762 6.031 3.243 6.031 7.473 0.002 6.553-1.496 9.338-2.5 12.311 -0.857 2.53-3.916 7.167-5.762 8.964 -2.273 2.208-5.957 9.35-6.404 10.079 -0.705 1.154-1.877 2.988-4.043 3.057 -3.291 0.104-7.086-2.105-7.324-3.488C143.318 107.009 150.475 89.052 154.295 82.722z" fill="#f0c7b1" stroke="#c27b55" stroke-width="1.5" opacity="1"/>
              <path id="SvgjsPath350963" d="M154.205 103.536c-0.857 1.05-1.668 2.041-1.934 2.921 -0.09 0.298-0.092 0.922-0.076 1.426 0.014 0.409 0.119 0.734 0.221 0.727s0.158-0.345 0.146-0.756c-0.01-0.317-0.01-0.663 0.01-0.93 0.186 0.152 0.439 0.28 0.773 0.28 0.193 0 0.41-0.043 0.65-0.146 1.184-0.502 1.592-2.686 1.951-3.298 0.311-0.528 0.576-0.985 1.289-1.291 1.293-0.555 4.639-2.581 5.072-4.153 1.17-4.262-3.432-9.588-3.889-10.317 0.232-0.522 0.457-1.004 0.66-1.417 0.26-0.526 0.596-1.157 0.994-1.814 2.582 4.641 6.252 4.771 4.498 12.473 -0.957 4.204-7.209 11.37-8.689 12.981 -0.275 0.303-0.447 0.599-0.377 0.671 0.072 0.07 0.361-0.106 0.639-0.406 1.5-1.622 7.795-8.805 8.785-13.162 0.076-0.334 0.129-0.679 0.16-1.031 0.209-0.334 1.379-2.661 2.201-5.549 1.758-6.17-1.178-9.364-1.381-10.392 0.504-0.039 0.871 0.149 1.123 0.369 0.305 0.269 0.518 0.553 0.609 0.513 0.094-0.041 0.029-0.385-0.254-0.678 -0.387-0.399-1.055-0.792-2.068-0.463 -2.451 0.794-5.359 3.876-6.568 6.322 -1.049 2.126-2.656 6.05-2.941 8.115 -0.074 0.552 0.049 1.331 0.18 2.157 0.145 0.906 0.293 1.843 0.152 2.4C155.924 99.947 155.051 102.503 154.205 103.536zM160.295 84.409c0.652-1.029 2.406-2.083 3.313-2.87 0.521 0.939 3.836 6.843 1.516 13.684C164.928 86.051 163.408 89.804 160.295 84.409zM152.652 106.486c0.271-0.794 1.064-1.768 1.836-2.713 0.869-1.065 1.77-3.653 2.01-4.594 0.16-0.632 0.006-1.608-0.145-2.553 -0.121-0.761-0.248-1.55-0.18-2.045 0.074-0.539 0.244-1.212 0.471-1.946 0.734 0.537 4.887 3.405 1.025 9.163 -0.201 0.134-0.398 0.251-0.578 0.328 -0.822 0.354-1.146 0.908-1.461 1.443 -0.346 0.592-0.705 2.692-1.777 3.147C153.135 107.022 152.768 106.645 152.652 106.486z" fill="#c27b55" stroke-width="none" opacity="1" stroke="none"/>
            </g>
          </g>
          <g id="svga-group-faceshape-wrap" transform="matrix(1,0,0,1,0,0)">
            <g id="svga-group-faceshape-single">
              <path id="SvgjsPath350975" d="M100.002 0.867C66.384 0.92 39.082 28.536 39.134 62.56c0.008 5.403 0.704 10.643 2.002 15.634h0.001c0.012 0.054 11.542 38.591 14.02 51.25 1.382 7.06 9.063 15.656 16.531 20.849 6.967 4.845 11.263 11.574 28.313 11.574s21.346-6.729 28.313-11.574c7.468-5.192 15.149-13.789 16.531-20.849 2.479-12.658 14.009-51.196 14.02-51.25h0.002c1.298-4.992 1.994-10.231 2.002-15.634C160.923 28.536 133.62 0.92 100.002 0.867z" fill="#f0c7b1" stroke-width="none" opacity="1" stroke="none"/>
              <path id="SvgjsPath350976" d="M146.772 23.096c7.478 10.35 11.917 23.245 11.898 37.227 -0.009 5.403-0.679 10.643-1.93 15.634h-0.002c-0.011 0.054-11.124 38.591-13.512 51.25 -1.335 7.06-8.737 15.656-15.935 20.849 -6.718 4.845-10.854 11.575-27.291 11.575 -16.434 0-20.575-6.73-27.291-11.575 -7.197-5.192-14.602-13.789-15.931-20.849 -2.391-12.658-13.504-51.195-13.515-51.25h0c-1.252-4.992-1.922-10.231-1.931-15.634 -0.021-13.978 4.416-26.868 11.889-37.217 -8.812 10.697-14.112 24.45-14.089 39.453 0.008 5.403 0.704 10.643 2.002 15.634h0.001c0.012 0.054 11.542 38.591 14.02 51.25 1.382 7.06 9.063 15.656 16.531 20.849 6.967 4.845 11.263 11.574 28.313 11.574s21.346-6.729 28.313-11.574c7.468-5.192 15.149-13.789 16.531-20.849 2.479-12.658 14.009-51.196 14.02-51.25h0.002c1.298-4.992 1.994-10.231 2.002-15.634C160.894 47.552 155.589 33.795 146.772 23.096z" fill="#e8b9a0" stroke-width="none" opacity="1" stroke="none"/>
              <path id="SvgjsPath350977" d="M100.002 0.867C66.384 0.92 39.082 28.536 39.134 62.56c0.008 5.403 0.704 10.643 2.002 15.634h0.001c0.012 0.054 11.542 38.591 14.02 51.25 1.382 7.06 9.063 15.656 16.531 20.849 6.967 4.845 11.263 11.574 28.313 11.574s21.346-6.729 28.313-11.574c7.468-5.192 15.149-13.789 16.531-20.849 2.479-12.658 14.009-51.196 14.02-51.25h0.002c1.298-4.992 1.994-10.231 2.002-15.634C160.923 28.536 133.62 0.92 100.002 0.867z" fill="none" stroke="#c27b55" stroke-width="1.5" opacity="1"/>
            </g>
          </g>
          <g id="svga-group-mouth-single-move" transform="matrix(1,0,0,1,0,0)">
            <g id="svga-group-mouth-single" transform="matrix(1,0,0,1,0,0)">
              <path id="SvgjsPath350950" d="M100.002 140.198c-5.219 0-6.442-2.251-6.442-2.251 6.903 1.402 12.884-0.096 12.884-0.096S104.592 140.198 100.002 140.198z" fill="url(#SvgjsLinearGradient350951)" opacity="1"/>
              <path id="SvgjsPath350954" d="M83.436 134.045c5.529-0.367 8.751-1.781 11.503-1.845 1.422-0.035 2.951 0.575 4.485 0.771 1.066 0.136 4.094-0.765 5.184-0.771 2.852-0.017 7.046 1.422 11.926 1.845 0.175 0.015 0 0 0 0s-7.268 4.597-16.549 4.597C89.479 138.642 83.436 134.045 83.436 134.045S83.259 134.056 83.436 134.045z" fill="#da7c87" stroke-width="none" opacity="1" stroke="none"/>
              <path id="SvgjsPath350955" d="M116.994 133.91c-0.061-0.109-0.606-0.244-0.82-0.238 -0.392 0.011-0.842 0.262-1.648 0.271 -0.933 0.01-5.871 0.402-7.197 0.356 -2.674-0.094-4.802 0.44-7.342 0.44 -2.542 0-4.853-0.583-7.524-0.489 -1.327 0.048-6.085-0.297-7.019-0.308 -0.807-0.01-1.119-0.273-1.463-0.308 -0.241-0.023-0.833 0.11-0.95 0.222 -0.104 0.102 0.115 0.445 0.262 0.527 0.357 0.195 1.425 0.16 2.132 0.169 0.974 0.012 5.744 0.355 7.091 0.308 2.611-0.093 4.94 0.544 7.471 0.544 2.53 0 4.676-0.587 7.287-0.494 1.343 0.048 6.295-0.347 7.271-0.357 0.706-0.009 1.715-0.039 2.075-0.193C116.792 134.288 117.055 134.021 116.994 133.91z" fill="#ac2e3d" stroke-width="none" opacity="1" stroke="none"/>
              <path id="SvgjsPath350956" d="M88.386 135.437c9.831-0.289 6.257 0.233 10.942 0.392 2.369 0.085 9.812-0.924 12.748-0.869C103.053 138.602 94.777 138.226 88.386 135.437zM111.654 133.622c-5.961-1.694-10.568-0.265-11.703-0.185 -3.81 0.264-1.78-2.049-10.986 0.24 8.953-0.126 6.496 0.491 10.721 0.567C101.363 134.273 109.856 133.553 111.654 133.622z" fill="#e28c96" stroke-width="none" opacity="1" stroke="none"/>
              <path id="SvgjsPath350957" d="M92.763 135.67c4.978-0.262 4.379 1.022 10.036 0.243 1.552-0.212 2.205-0.288 3.822-0.221C101.79 137.59 96.695 137.254 92.763 135.67z" fill="#e99ca5" stroke-width="none" opacity="1" stroke="none"/>
            </g>
          </g>
          <g id="svga-group-eyes-left-move" transform="matrix(1,0,0,1,0,0)">
            <g id="svga-group-eyes-left" transform="matrix(1,0,0,1,0,0)">
              <g id="svga-group-eyesback-left">
                <path id="SvgjsPath350866" d="M86.729 84.747c0.161 0.571 0.257 1.157 0.257 1.758 0 1.481-0.523 2.881-1.44 4.135 -4.077 0.038-16.966 0.706-18.935-0.303 -2.813-1.441-5.323-7.369-5.506-8.827C71.1 75.761 78.475 76.879 86.729 84.747z" fill="url(#SvgjsRadialGradient350867)" opacity="1"/>
              </g>
              <g id="svga-group-eyesiriswrapper-left" transform="matrix(1,0,0,1,0.75,0.5)">
                <g id="svga-group-eyesiriscontrol-left" transform="matrix(1,0,0,1,0,0)">
                  <g id="svga-group-eyesiris-left" transform="matrix(1,0,0,1,0,0)">
                    <path id="SvgjsPath350924" d="M79.788 85.588c-0.869 3.192-4.16 5.073-7.358 4.196 -3.195-0.876-5.083-4.178-4.212-7.371 0.868-3.195 4.167-5.076 7.362-4.198C78.773 79.09 80.658 82.392 79.788 85.588z" fill="#b0b9d9" stroke="#576aab" stroke-width="0.5" opacity="1"/>
                    <path id="SvgjsPath350925" d="M73.265 80.413l-0.156-0.279c-0.548 0.218-1.076 0.445-1.575 0.687l0.37 0.894 -0.047 0.517 -1.426-0.839c-0.466 0.259-0.898 0.529-1.318 0.804l0.004 0.009 -0.489 0.55 0.781 0.799 -1.052 0.574 0.398 0.657 1.857 0.185 -1.741 1.181 1.863-0.103 -0.982 1.693 2.297-1.39 -0.618 2.364 1.329-2.184 0.256 2.343 0.384-2.072 0.353-0.043 0.5 2.35 0.152-0.705c0.201-0.052 0.718 0.704 0.915 0.651L74.736 86.5l1.282 2.556 -0.52-2.651 1.578 2.05c0.057-0.018 0.196-0.85 0.252-0.867l-0.982-1.469 1.785 0.539 -1.071-1.16 -0.86-0.712 3.586 0.803 -1.997-1.217 1.411-0.577 -3.055-0.309 3.021-1.602 -2.734 0.698 -0.736-0.399 -0.181-0.354 0.052-0.846 0.061-1.389 -1.248 2.198 -0.11-1.609 -0.157-0.421c-0.25 0.087-0.495 0.172-0.736 0.265L73.265 80.413z" fill="#d4d8e8" stroke-width="none" opacity="1" stroke="none"/>
                    <path id="SvgjsPath350926" d="M79.856 82.755c-5.242 0.239-7.907 1.36-11.707 2.631 -0.732-3.229 1.298-6.438 4.53-7.164S79.125 79.525 79.856 82.755z" fill="#8f9cca" stroke-width="none" opacity="0.9" stroke="none"/>
                    <path id="SvgjsPath350927" d="M74.869 81.998c-1.319-0.378-2.666 0.375-3.005 1.69 -0.342 1.308 0.452 2.678 1.771 3.056 1.32 0.379 2.667-0.375 3.009-1.684C76.987 83.745 76.19 82.376 74.869 81.998z" fill="#000000" stroke-width="none" opacity="0.8"/>
                    <path id="SvgjsPath350928" d="M74.869 81.998c-1.319-0.378-2.666 0.375-3.005 1.69 -0.342 1.308 0.452 2.678 1.771 3.056 1.32 0.379 2.667-0.375 3.009-1.684C76.987 83.745 76.19 82.376 74.869 81.998z" fill="none" stroke="#576aab" stroke-width="0.75" opacity="1"/>
                    <path id="SvgjsPath350929" d="M69.631 87.56c0.613 0.973 1.426 1.706 2.578 1.95 1.326 0.281 1.477-1.483 0.528-1.685 -0.72-0.152-1.176-0.505-1.552-1.102C70.497 85.63 69.079 86.684 69.631 87.56L69.631 87.56z" fill="#ffffff" stroke-width="none" opacity="0.4"/>
                    <path id="SvgjsPath350930" d="M75.033 81.493c0.929 0.187 1.469 0.768 1.938 1.64 0.862 1.604 3.299 0.178 2.437-1.425 -0.757-1.408-2.019-2.613-3.625-2.938C73.726 78.355 73.438 81.171 75.033 81.493L75.033 81.493z" fill="url(#SvgjsLinearGradient350931)" opacity="1"/>
                  </g>
                </g>
              </g>
              <g id="svga-group-eyesfront-left">
                <path id="SvgjsPath350891" d="M55.8 79.995c0 13.808 8.06 31.404 18 31.404s18-11.191 18-24.999c0-13.809-8.06-25.001-18-25.001S55.8 66.187 55.8 79.995zM61.104 81.51c9.995-5.749 17.37-4.63 25.624 3.237 0.161 0.571 0.257 1.157 0.257 1.758 0 1.481-0.523 2.881-1.44 4.135 -4.077 0.038-16.966 0.706-18.935-0.303C63.798 88.896 61.287 82.968 61.104 81.51z" fill="#f0c7b1" stroke-width="none" opacity="1" stroke="none"/>
                <path id="SvgjsPath350892" d="M61.209 81.995c0.522 1.979 2.833 7.026 5.401 8.342 1.969 1.009 14.857 0.341 18.935 0.303 0.917-1.253 1.44-2.653 1.44-4.135 0-0.601-0.096-1.187-0.257-1.758 -8.166-7.784-15.476-8.95-25.31-3.407 1.968-5.724 8.522-9.952 16.34-9.987 9.393-0.04 17.018 5.981 17.041 13.451 0.023 7.469-7.572 13.554-16.961 13.596 -9.393 0.04-17.016-5.981-17.039-13.45C60.797 83.934 60.945 82.948 61.209 81.995z" fill="url(#SvgjsRadialGradient350893)" opacity="1"/>
                <path id="SvgjsPath350897" d="M66.61 90.337c-2.813-1.441-5.323-7.369-5.506-8.827 9.995-5.749 17.37-4.63 25.624 3.237 0.161 0.571 0.257 1.157 0.257 1.758 0 1.481-0.523 2.881-1.44 4.135C81.468 90.678 68.579 91.346 66.61 90.337z" fill="url(#SvgjsRadialGradient350898)" opacity="1"/>
                <path id="SvgjsPath350901" d="M61.138 78.389c3.414-1.34 17.798-6.314 25.648 4.274C77.8 72.562 65.582 77.218 61.138 78.389z" fill="#c27b55" stroke-width="none" opacity="1" stroke="none"/>
                <path id="SvgjsPath350902" d="M58.8 80.972c1.217 2.342 6.361 10.159 7.561 10.218 10.059 0.608 16.311-0.248 20.313-0.813 -1.499-0.19-17.826 0.781-20.063-0.313 -2.813-1.375-5.323-7.031-5.506-8.423 10.251-5.626 17.743-4.379 26.256 3.659C79.06 72.701 61.853 78.441 58.8 80.972z" fill="#582311" stroke-width="none" opacity="1" stroke="none"/>
              </g>
            </g>
          </g>
          <g id="svga-group-eyes-right-move" transform="matrix(1,0,0,1,0,0)">
            <g id="svga-group-eyes-right" transform="matrix(1,0,0,1,0,0)">
              <g id="svga-group-eyesback-right">
                <path id="SvgjsPath350874" d="M112.872 84.747c-0.161 0.571-0.257 1.157-0.257 1.758 0 1.481 0.523 2.881 1.44 4.135 4.077 0.038 16.966 0.706 18.935-0.303 2.813-1.441 5.323-7.369 5.506-8.827C128.501 75.761 121.126 76.879 112.872 84.747z" fill="url(#SvgjsRadialGradient350875)" opacity="1"/>
              </g>
              <g id="svga-group-eyesiriswrapper-right" transform="matrix(1,0,0,1,-0.75,0.5)">
                <g id="svga-group-eyesiriscontrol-right" transform="matrix(1,0,0,1,0,0)">
                  <g id="svga-group-eyesiris-right" transform="matrix(1,0,0,1,0,0)">
                    <path id="SvgjsPath350934" d="M131.788 85.587c-0.869 3.193-4.16 5.074-7.358 4.196 -3.195-0.876-5.082-4.178-4.212-7.371 0.867-3.195 4.167-5.076 7.361-4.198C130.774 79.091 132.658 82.393 131.788 85.587z" fill="#b0b9d9" stroke="#576aab" stroke-width="0.5" opacity="1"/>
                    <path id="SvgjsPath350935" d="M125.266 80.413l-0.155-0.278c-0.548 0.217-1.076 0.445-1.576 0.686l0.37 0.894 -0.047 0.517 -1.426-0.839c-0.467 0.259-0.898 0.529-1.317 0.804l0.004 0.009 -0.49 0.551 0.782 0.799 -1.052 0.573 0.397 0.657 1.857 0.185 -1.741 1.181 1.863-0.103 -0.982 1.692 2.296-1.39 -0.616 2.364 1.328-2.184 0.257 2.343 0.384-2.073 0.353-0.043 0.501 2.35 0.151-0.704c0.201-0.052 0.719 0.703 0.915 0.651l-0.585-2.556 1.283 2.556 -0.521-2.651 1.577 2.05c0.057-0.018 0.197-0.85 0.253-0.867l-0.982-1.469 1.786 0.538 -1.071-1.16 -0.859-0.712 3.586 0.802 -1.997-1.216 1.411-0.577 -3.054-0.308 3.021-1.603 -2.734 0.698 -0.736-0.399 -0.18-0.354 0.052-0.847 0.061-1.388 -1.247 2.198 -0.11-1.609 -0.156-0.422c-0.25 0.087-0.495 0.173-0.735 0.265L125.266 80.413z" fill="#d4d8e8" stroke-width="none" opacity="1" stroke="none"/>
                    <path id="SvgjsPath350936" d="M131.855 82.755c-5.24 0.239-7.906 1.36-11.706 2.631 -0.731-3.229 1.298-6.438 4.53-7.164C127.911 77.495 131.126 79.525 131.855 82.755z" fill="#8f9cca" stroke-width="none" opacity="0.9" stroke="none"/>
                    <path id="SvgjsPath350937" d="M126.87 81.998c-1.319-0.378-2.666 0.376-3.005 1.69 -0.343 1.308 0.451 2.678 1.77 3.056 1.322 0.379 2.668-0.375 3.009-1.684C128.987 83.745 128.189 82.376 126.87 81.998z" fill="#000000" stroke-width="none" opacity="0.8"/>
                    <path id="SvgjsPath350938" d="M126.87 81.998c-1.319-0.378-2.666 0.376-3.005 1.69 -0.343 1.308 0.451 2.678 1.77 3.056 1.322 0.379 2.668-0.375 3.009-1.684C128.987 83.745 128.189 82.376 126.87 81.998z" fill="none" stroke="#576aab" stroke-width="0.75" opacity="1"/>
                    <path id="SvgjsPath350939" d="M121.632 87.56c0.612 0.973 1.426 1.706 2.577 1.95 1.326 0.281 1.478-1.482 0.528-1.685 -0.72-0.152-1.177-0.504-1.552-1.102C122.498 85.63 121.079 86.684 121.632 87.56L121.632 87.56z" fill="#ffffff" stroke-width="none" opacity="0.4"/>
                    <path id="SvgjsPath350940" d="M127.034 81.493c0.929 0.187 1.469 0.767 1.938 1.639 0.862 1.604 3.3 0.178 2.437-1.425 -0.757-1.408-2.018-2.613-3.625-2.938C125.727 78.355 125.438 81.171 127.034 81.493L127.034 81.493z" fill="url(#SvgjsLinearGradient350941)" opacity="1"/>
                  </g>
                </g>
              </g>
              <g id="svga-group-eyesfront-right">
                <path id="SvgjsPath350912" d="M125.801 61.399c-9.94 0-18 11.193-18 25.001 0 13.808 8.06 24.999 18 24.999s18-16.226 18-30.033C143.801 67.558 135.741 61.399 125.801 61.399zM132.99 90.337c-1.969 1.009-14.857 0.341-18.935 0.303 -0.917-1.253-1.44-2.653-1.44-4.135 0-0.601 0.096-1.187 0.257-1.758 8.254-7.868 15.629-8.986 25.624-3.237C138.313 82.968 135.803 88.896 132.99 90.337z" fill="#f0c7b1" stroke-width="none" opacity="1" stroke="none"/>
                <path id="SvgjsPath350913" d="M138.392 81.995c-0.522 1.979-2.833 7.026-5.401 8.342 -1.969 1.009-14.857 0.341-18.935 0.303 -0.917-1.253-1.44-2.653-1.44-4.135 0-0.601 0.096-1.187 0.257-1.758 8.166-7.784 15.476-8.95 25.31-3.407 -1.968-5.724-8.522-9.952-16.34-9.987 -9.393-0.04-17.018 5.981-17.041 13.451 -0.023 7.469 7.572 13.554 16.961 13.596 9.393 0.04 17.016-5.981 17.039-13.45C138.804 83.934 138.655 82.948 138.392 81.995z" fill="url(#SvgjsRadialGradient350914)" opacity="1"/>
                <path id="SvgjsPath350918" d="M132.99 90.337c2.813-1.441 5.323-7.369 5.506-8.827 -9.995-5.749-17.37-4.63-25.624 3.237 -0.161 0.571-0.257 1.157-0.257 1.758 0 1.481 0.523 2.881 1.44 4.135C118.133 90.678 131.021 91.346 132.99 90.337z" fill="url(#SvgjsRadialGradient350919)" opacity="1"/>
                <path id="SvgjsPath350922" d="M112.814 82.664c7.85-10.588 22.234-5.615 25.648-4.274C134.019 77.218 121.801 72.562 112.814 82.664z" fill="#c27b55" stroke-width="none" opacity="1" stroke="none"/>
                <path id="SvgjsPath350923" d="M140.801 80.972c-1.217 2.342-6.361 10.159-7.561 10.218 -10.059 0.608-16.311-0.248-20.313-0.813 1.499-0.19 17.826 0.781 20.063-0.313 2.813-1.375 5.323-7.031 5.506-8.423 -10.251-5.626-17.743-4.379-26.256 3.659C120.541 72.701 137.748 78.441 140.801 80.972z" fill="#582311" stroke-width="none" opacity="1" stroke="none"/>
              </g>
            </g>
          </g>
          <g id="svga-group-facehighlight-single">
            <path id="SvgjsPath350672" d="M141 113.974c0.035 22.622-18.292 40.994-40.938 41.025 -22.642 0.037-41.028-18.273-41.063-40.9 -0.035-22.62 18.292-41.064 40.937-41.1C122.579 72.964 140.967 91.349 141 113.974z" fill="url(#SvgjsRadialGradient350673)" opacity="1"/>
            <path id="SvgjsPath350676" d="M137.5 53.999c0 20.711-16.789 37.5-37.499 37.5 -20.711 0-37.501-16.789-37.501-37.5s16.79-37.5 37.501-37.5C120.711 16.499 137.5 33.288 137.5 53.999z" fill="url(#SvgjsRadialGradient350677)" opacity="1"/>
          </g>
          <g id="svga-group-eyebrows-left-move" transform="matrix(1,0,0,1,0,0)">
            <g id="svga-group-eyebrows-left-rotate" transform="matrix(1,0,0,1,0,0)">
              <g id="svga-group-eyebrows-left" transform="matrix(1,0,0,1,0,0)">
                <path id="SvgjsPath350944" d="M53.149 74.996c9.743-15.115 36.491 5.148 38.018-1.191 0.299-1.271-0.407-2.015-1.564-2.492C75.982 65.807 57.955 61.18 53.149 74.996z" fill="#cac1b2" stroke-width="none" opacity="1" stroke="none"/>
              </g>
            </g>
          </g>
          <g id="svga-group-eyebrows-right-move" transform="matrix(1,0,0,1,0,0)">
            <g id="svga-group-eyebrows-right-rotate" transform="matrix(1,0,0,1,0,0)">
              <g id="svga-group-eyebrows-right" transform="matrix(1,0,0,1,0,0)">
                <path id="SvgjsPath350945" d="M146.851 74.996c-9.743-15.115-36.491 5.148-38.018-1.191 -0.299-1.271 0.407-2.015 1.564-2.492C124.018 65.807 142.045 61.18 146.851 74.996z" fill="#cac1b2" stroke-width="none" opacity="1" stroke="none"/>
              </g>
            </g>
          </g>
          <g id="svga-group-nose-single-move" transform="matrix(1,0,0,1,0,0)">
            <g id="svga-group-nose-single" transform="matrix(1,0,0,1,0,0)">
              <path id="SvgjsPath350958" d="M95.993 113.767c-0.221 2.279 0.695 4.137 1.688 4.511 2.534 0.951 2.097-0.253 2.327-4.159 0.493-8.369-0.306-28.12-0.306-28.12S96.513 108.409 95.993 113.767z" fill="#fff5ef" stroke-width="none" opacity="0.2" stroke="none"/>
              <path id="SvgjsPath350959" d="M96.658 109.854c0 0-2.249 4.36-1.897 5.857 0.458 1.947 2.677 3.501 6.516 3.265 -3.965-0.567-4.419-1.791-4.819-3.392C96.109 114.188 96.658 109.854 96.658 109.854z" fill="#c27b55" stroke-width="none" opacity="1" stroke="none"/>
            </g>
          </g>
          <g id="svga-group-beardwrap" transform="matrix(1,0,0,1,0,0)">
            <g id="svga-group-beard-single-move" transform="matrix(1,0,0,1,0,0)">
              <g id="svga-group-beard-single" transform="matrix(1,0,0,1,0,0)">
                <path id="SvgjsPath350847" d="M76.19 153.24c9.75 0 11.54-0.14 14.22-1.85 3.11-1.91 5.32-7.48 2.27-14.37l0.33 0.07c3.87 0.79 6.25 1.26 13.58-0.2 -2 4.15-2.1 8.39-0.28 11.66 3.21 5.78 8.55 4.29 17.47 4.76 -9.45 9.92-16.94 14.35-24.29 14.35C90.64 167.65 81.24 160.27 76.19 153.24z" fill="#cac1b2" stroke-width="none" opacity="1" stroke="none"/>
                <path id="SvgjsPath350848" d="M93.09 138.31c-0.17-0.48-0.37-0.96-0.58-1.42 4.2 0.85 6.44 1.44 14.26-0.13 -0.21 0.43-0.4 0.86-0.57 1.29C101.74 140.87 97.01 141.69 93.09 138.31zM112.77 152.81c-1.71-0.16-3.26-0.88-4.52-2 1.68 3.65 6.7 4.19 11.74 4.19 -4 0-3 3-6 0 0.82 1.63-0.66 4.66-1 5 0-0.37-0.41-2.16-1-3 -2 1 0 3-2 4 1-1-1-2-1-3 -1 2-1.46 3.02-2.46 5.02 0-2-0.59-2.24-1.59-3.24 0 2-0.94 2.22-1.94 4.22 0-1-2-2-1-4 -2 1-2 3-2 5 -1-1-1-2-1-4 -3 0-2 4-3 4 -1-1 0-4-2-6 1 2-3 3-2 5 -2-2 0-4-2-6 -0.73 0.73-1.46 2-1.8 3.02 0.01 0.33-0.03 0.65-0.2 0.98 0-0.27 0.07-0.61 0.2-0.98 -0.07-1.67-2.03-3.35-1.2-5.02 -1 1-2 3-2 4 0-2-2-4-2-4l-1 2c0 0 0.72-2.71-0.63-2.97 -0.13-0.01-0.25-0.02-0.37-0.03 0.15 0 0.27 0.01 0.37 0.03 4.83 0.55 9.12-1.76 10.88-5.59 -0.51 0.64-1.25 1.47-1.9 1.87 -2.68 1.71-4.42 1.83-14.36 1.83 1.81 2.54 2.51 3.08 3.73 4.48 16.88 16.53 29.43 11.24 44.27-4.4C120.58 153.02 115.46 153.2 112.77 152.81z" fill="#bbab92" stroke-width="none" opacity="1" stroke="none"/>
                <path id="SvgjsPath350849" d="M112.77 152.81c-5.97-0.57-10.12-7.74-6-16.05 -7.82 1.58-10.06 0.98-14.26 0.13 1.67 3.68 2.24 7.86 0.35 11.68 0.07 0.04-1.37 2.05-2.5 2.74 -2.68 1.71-4.42 1.83-14.36 1.83 1.81 2.54 2.51 3.08 3.73 4.48 16.88 16.53 29.43 11.24 44.27-4.4C120.58 153.02 115.46 153.2 112.77 152.81zM105.44 165.35c-10.42 3.18-21-3.33-28.67-11.73 5.19 0.22 17.81 2.42 17.93-9.78 -0.1-2.42-0.6-4.27-1.59-6.38 3.44 0.95 6.67 1.43 13.07-0.19 -4.19 8.26-0.1 15.93 6.87 16.46 1.89 0.33 7.5-0.13 9.99-0.21C118.75 157.52 111.05 163.37 105.44 165.35z" fill="#ab9775" stroke-width="none" opacity="1" stroke="none"/>
              </g>
            </g>
          </g>
          <g id="svga-group-mustache-single-move" transform="matrix(1,0,0,1,0,0)">
            <g id="svga-group-mustache-single" transform="matrix(1,0,0,1,0,0)">
              <path id="SvgjsPath350688" d="M100,18.13L100,18.13L100,18.13L100,18.13z" fill="#2a232b" stroke-width="none" opacity="1"/>
            </g>
          </g>
          <g id="svga-group-hair-front" transform="matrix(1,0,0,1,0,0)">
            <path id="SvgjsPath350842" d="M49.154 100.989C41.04 86.852 35.757 72.474 32.071 54.535c-3.5-17.697 8.226-36.577 20.601-46.629C67.818-4.442 92.105-9.52 105.745-9.52c7.418 0 18.449 2.012 24.415 3.877 7.057 2.059 15.913 7.557 20.008 15.023 2.753-1.839 4.011-2.934 6.237-5.747 -1.313 3.125-1.996 4.076-5.692 8.969 2.123-0.538 4.48-0.844 7.924-2.589 -3.487 3.242-3.551 3.677-5.566 5.744 4.989 1.96 9.135 6.575 11.729 10.739 9.042 14.558-0.657 41.766-5.318 54.841 -5.015 14.046-1.861 6.874-6.486 16.838 -7.409-16.445-9.127-25.471-10.057-30.354 -2.46-12.795-5.433-17.035-4.421-28.938 -18.036 11.75-48.595 17.209-62.768 17.209 -7.201 0-11.792-1.1-16.393-2.147 -9.306 27.486-4.284 21.064-8.418 38.616C50.498 94.432 49.958 96.725 49.154 100.989z" fill="#cac1b2" stroke-width="none" opacity="1" stroke="none"/>
            <path id="SvgjsPath350843" d="M159.48 81.338c-5.015 14.046-1.861 6.874-6.486 16.838 -7.409-16.445-9.127-25.471-10.057-30.354 -1.871-9.732-4.033-14.521-4.52-21.49C146.461 63.629 148.82 67.361 152 84c-0.537-10.842 4.329-20.013 3.14-33.375 2.473 7.109 0.744 19.037 1.926 25.374 2.197-17 11.835-28.889 3.675-54.776 1.593 1.683 2.965 3.517 4.059 5.273C173.841 41.054 164.142 68.262 159.48 81.338zM45.041 57.624C42.038 67.361 44 75 44 82c-5.642-15.313-10.507-26.644-9.879-48.268 -2.443 6.712-3.426 13.848-2.05 20.802 3.687 17.939 8.969 32.317 17.083 46.455 0.804-4.264 1.344-6.558 1.784-8.428 4.022-17.078 0.101-13.616 8.418-38.616C52.858 64.136 49.459 75 48.499 85.999 48.528 77.259 44.466 69.543 45.041 57.624zM145.521 25.877c-1.89 15.953-1.267 16.889 0.128 23.438 0.212 0.888 0.376 1.469 0.377 1.469 1.989 7.238 2.726 8.845 3.206 14.878C149.703 46.899 144.425 58.765 145.521 25.877zM157.891 55.356c0.073-13.8 0.261-25.658-6.185-33.808C159.559 29.782 159.259 44.061 157.891 55.356zM151.088 49.996c-0.504-10.126 2.531-24.609-4.535-30.715C154.616 25.063 151.705 40.792 151.088 49.996zM41.007 69.58c-2.188-6.914-1.09-10.268-1.031-18.759C40.674 58.797 39.294 61.735 41.007 69.58zM48.459 77.413c-0.411-6.977 0.67-17.285 6.154-21.645C50.083 60.093 48.898 68.918 48.459 77.413zM120.869-3.265c8.801-1.031 26.102 10.208 27 19.333C146.272 7.702 128.673-3.535 120.869-3.265zM97.203 0.735c13.247-4.339 30.327 3.968 30.327 3.968 5.783 2.646 11.377 6.957 13.34 13.032 -2.42-5.801-7.938-9.339-13.813-12.024C127.057 5.711 109.873-2.221 97.203 0.735zM38.869 37.402c4.04-11.192 11.108-22.028 22-28C51.029 15.858 43.705 26.812 38.869 37.402zM64.203 19.069c8.703-12.302 33.537-17.684 48-13.667C98.704 2.828 73.49 8.104 64.203 19.069zM134.619 33.985c-26.546 15.834-51.703 17.264-82.75 11.75C82.966 48.817 107.52 47.559 134.619 33.985zM79.869 37.735c20.661-0.885 30.552-1.047 46-8C111.563 37.651 99.996 38.712 79.869 37.735zM49.869 41.735c16.223-13.189 32.838-14.953 60-18C82.451 29.105 67.577 29.656 49.869 41.735zM103.869 12.735c2.269-0.251 6.484-0.926 14.006-0.081 0 0 12.716 1.115 19.095 8.958 0.559 0.698 0.899 1.123 0.899 1.123C129.521 13.966 116.049 12.457 103.869 12.735z" fill="#bbab92" stroke-width="none" opacity="1" stroke="none"/>
            <path id="SvgjsPath350844" d="M61.841 7.462c25.283-15.239 49.736-19.184 74.028-2.394C111.12-9.22 88.093-5.349 61.841 7.462zM151.202 17.402c10.816 13.112 11.747 30.038 6.667 46C165.752 45.119 161.784 28.208 151.202 17.402zM44.534 22.551c-5.779 6.816-8.426 11.286-9.649 20.271 -0.534 9.549 1.299 16.205 4.768 26.548C34.845 48.605 32.631 39.359 44.534 22.551z" fill="#d9d8d5" stroke-width="none" opacity="1" stroke="none"/>
            <path id="SvgjsPath350845" d="M165.139 26.285c-2.537-4.073-7.433-8.843-11.859-10.58 2.086-2.138 3.192-3.127 7.91-7.52 -2.367 1.29-4.958 2.856-9.67 4.05 4.25-5.623 4.339-6.192 6.359-11.15 -2.641 3.395-4.018 5.412-7.77 7.92 -4.119-7.511-13.391-13.151-19.83-15.03 -5.879-1.837-17.485-4.013-25.17-3.89 -13.995 0.112-37.791 5.363-52.69 17.51 -11.061 8.984-24.482 28.094-20.74 47.02 3.401 16.551 8.392 31.602 17.67 47.51 2.605-14.126 2.609-8.458 4.62-27.54 0.412-4.89 4.173-15.797 5.65-20.17 8.703 1.981 18.616 4.319 46.61-2.29 10.261-2.374 22.654-6.484 31.819-12.46 -0.873 10.335 1.949 15.81 4.271 27.06 0.891 4.487 2.267 13.943 10.67 32.41 5.618-12.105 1.914-3.98 5.89-14.9C162.791 72.991 175.003 42.167 165.139 26.285zM160.919 70.976c-7.884 24.153-4.516 16.809-8.09 25.74 -0.696-1.823-5.499-15.777-7.37-23.55 -5.207-23.993-5.769-22.234-6.229-29.04 -0.608-10.554 1.64-16.228 2.27-18.75 -2.706 7.294-3.39 12.414-3.39 13.54 -12.465 7.624-40.495 13.263-54.65 14.74 -14.557 1.521-32.529-1.898-45.52-6.56 6.718 3.623 17.987 6.342 20.93 7.14 -1.758 4.375-5.733 14.022-6.29 20.16 -1.704 16.68-3.133 19.904-3.75 25.66 -9.817-18.234-15.205-43.456-15.69-49.61 -1.82-11.616 8.195-30.908 20.73-41.06C68.92-3.005 93.752-7.681 105.049-7.985c6.584-0.383 18.69 1.435 24.79 3.13 6.272 1.554 16.384 7.239 20.271 14.59 0 0 0 0.01 0.01 0.01 2.345-1.555 2.967-1.997 4.92-3.95 0 0.01 0 0.02-0.01 0.03 -1.053 1.94-3.255 4.893-4.601 6.89 2.66-0.462 5.147-1.105 7.54-2.24 -3.76 3.525-3.145 3.008-5.3 5.41 3.441 1.37 12.215 8.283 13.58 18.97C167.792 48.867 163.971 61.387 160.919 70.976z" fill="#9c845b" stroke-width="none" opacity="1" stroke="none"/>
          </g>
          <g id="svga-group-glasses-single-move" transform="matrix(1,0,0,1,0,0)">
            <g id="svga-group-glasses-single" transform="matrix(1,0,0,1,0,0)">
              <path id="SvgjsPath350946" d="M143.62 100.1c-2.36 2.2-6.23 3.04-13.56 3.04 -9.78 0-16.18-1.09-20.41-9.51 -3.29-6.54-4.62-13.56-3.02-15.98 2.21-3.34 8.57-5.61 15.67-6.28C134.63 77.23 143.29 88.98 143.62 100.1zM72.01 71.17c-7.64 0.21-15.09 2.35-18.27 7.05 -2.18 3.21-1.69 12.55-0.22 16.94 2 5.99 5.07 7.98 16.42 7.98 9.78 0 16.18-1.09 20.41-9.51 0.42-0.84 0.81-1.69 1.17-2.54C88.29 82.95 81.16 75.43 72.01 71.17z" fill="#ffffff" stroke-width="none" opacity="0.2"/>
              <path id="SvgjsPath350947" d="M146.48 95.17c-0.71 2.12-1.56 3.73-2.86 4.94 -0.33-11.12-8.99-22.87-21.33-28.74 9.37-0.89 19.99 0.99 23.97 6.86C148.44 81.44 147.95 90.77 146.48 95.17zM93.38 77.65c-2.79-4.23-12.22-6.73-21.37-6.47 9.16 4.25 16.28 11.77 19.52 19.92C93.94 85.36 94.77 79.76 93.38 77.65z" fill="#ffffff" stroke-width="none" opacity="0.4"/>
              <path id="SvgjsPath350948" d="M151.79 73.61c-10.18-5.46-36.14-7.01-45.5 0.15 -0.8 0.47-4.23-0.53-6.29-0.53 -1.95 0-5.42 1.05-6.29 0.53 -9.36-7.16-35.32-5.61-45.5-0.15 -1.46 0.79-1.62 4.51-0.35 5.08 0.91 0.41 1.51 0.98 1.46 1.98C49 86.29 50.55 93.59 51.23 95.6c0.87 2.59 2.44 7.41 9.29 8.6 5.83 1.01 16.43 1.48 21.94-0.17 9.99-2.98 14.24-18.04 14.42-23.17l0.01 0.02c0.4-1.8 5.82-1.8 6.23 0l0.01-0.02c0.17 5.13 4.43 20.19 14.42 23.17 5.51 1.65 16.11 1.18 21.94 0.17 6.85-1.19 8.42-6.01 9.29-8.6 0.68-2.02 2.23-9.31 1.92-14.93 -0.05-1 0.56-1.57 1.46-1.98C153.41 78.12 153.25 74.4 151.79 73.61zM81.41 101.36c-5.06 1.51-14.32 1.61-19.71 0.67 -4.54-0.79-6.44-3.26-7.7-7.03 -1.48-4.4-1.87-13.51 0.16-16.5 6.76-9.98 33.87-8.05 38.8-0.58C95.16 81.27 90.89 98.53 81.41 101.36zM146 95.01c-1.26 3.77-3.17 6.24-7.7 7.03 -5.39 0.94-14.65 0.84-19.71-0.67 -9.48-2.83-13.75-20.09-11.55-23.44 4.93-7.47 32.04-9.4 38.8 0.58C147.87 81.49 147.48 90.61 146 95.01z" fill="#092e0c" stroke-width="none" opacity="1" stroke="none"/>
              <path id="SvgjsPath350949" d="M118.58 101.32c2.79 0.83 6.86 1.24 10.85 1.27 -12.54 1.22-15.39-3.4-17.12-5.16 -3.52-3.59-5.69-8.95-5.85-16.65C106.49 86.86 110.76 98.99 118.58 101.32zM93.69 73.72c-9.36-7.16-35.32-5.62-45.5-0.15C71.43 67.05 84.93 70.42 93.69 73.72zM61.68 102c-4.54-0.79-6.44-3.26-7.7-7.03 -1.32-3.93-1.77-11.62-0.4-15.35 -1.83 4.22-1.12 12.39 0.26 16.5 1.6 4.8 4.54 7.18 17.34 6.46C67.71 102.65 64.25 102.44 61.68 102zM152.97 76.3c-0.04-1.13-0.45-2.32-1.2-2.73 -9.98-5.36-35.14-6.94-44.93-0.25C120 68.05 138.97 67.31 152.97 76.3z" fill="#123d16" stroke-width="none" opacity="1" stroke="none"/>
            </g>
          </g>
        </g>
      </g>
    </g>
    <rect id="SvgjsRect350657" width="200" height="15" x="0" y="185" fill="#ecf0f1" opacity="0.5" style="display: none;"/>
    <text id="SvgjsText350658" font-family="Roboto, Helvetica, Arial, sans-serif" font-size="10px" text-anchor="start" font-weight="400" anchor="start" fill="#333333" x="58.03125" y="182.4296875" style="display: none;">
      <tspan id="SvgjsTspan350659" dy="13" x="58.03125">Created on face.co</tspan>
    </text>
  </g>
</svg>
