<?xml version="1.0"?>
<svg xmlns="http://www.w3.org/2000/svg" version="1.1" width="600px" height="600px" viewBox="0 0 200 200" style="overflow:hidden!important;">
  <defs id="SvgjsDefs329567">
    <radialGradient id="SvgjsRadialGradient329628" cx="100" cy="113" r="40" gradientUnits="userSpaceOnUse" class="svga-on-canvas-facehighlight-gradient-single-0">
      <stop id="SvgjsStop329629" stop-opacity="0.5" stop-color="#fdc5a5" offset="0"/>
      <stop id="SvgjsStop329630" stop-opacity="0" stop-color="#eeaa83" offset="0.9"/>
    </radialGradient>
    <radialGradient id="SvgjsRadialGradient329632" cx="100" cy="57" r="36" gradientUnits="userSpaceOnUse" class="svga-on-canvas-facehighlight-gradient-single-1">
      <stop id="SvgjsStop329633" stop-opacity="0.5" stop-color="#fdc5a5" offset="0"/>
      <stop id="SvgjsStop329634" stop-opacity="0" stop-color="#eeaa83" offset="0.9"/>
    </radialGradient>
    <radialGradient id="SvgjsRadialGradient329713" cx="-558.588" cy="-490.918" r="84.646" gradientTransform="matrix(0.096 -0.0248 0.0245 0.0961 140.5478 120.3577)" gradientUnits="userSpaceOnUse" class="svga-on-canvas-eyesiris-gradient-left-1">
      <stop id="SvgjsStop329714" stop-opacity="0.8" stop-color="#ffffff" offset="0"/>
      <stop id="SvgjsStop329715" stop-opacity="0" stop-color="#ffffff" offset="1"/>
    </radialGradient>
    <radialGradient id="SvgjsRadialGradient329717" cx="-565.337" cy="-492.691" r="84.644" gradientTransform="matrix(0.0991 8.856325e-004 -0.0011 0.0991 130.3774 136.3533)" gradientUnits="userSpaceOnUse" class="svga-on-canvas-eyesiris-gradient-left-2">
      <stop id="SvgjsStop329718" stop-opacity="0.8" stop-color="#ffffff" offset="0"/>
      <stop id="SvgjsStop329719" stop-opacity="0" stop-color="#ffffff" offset="1"/>
    </radialGradient>
    <linearGradient id="SvgjsLinearGradient329723" x1="122.283" y1="93.047" x2="123.61" y2="91.466" gradientTransform="matrix(1 0 0 1 -52 0)" gradientUnits="userSpaceOnUse" class="svga-on-canvas-eyesiris-gradient-left-5">
      <stop id="SvgjsStop329724" stop-opacity="1" stop-color="#ffffff" offset="0"/>
      <stop id="SvgjsStop329725" stop-opacity="0" stop-color="#ffffff" offset="1"/>
    </linearGradient>
    <linearGradient id="SvgjsLinearGradient329727" x1="127" y1="85" x2="125" y2="87" gradientTransform="matrix(1 0 0 1 -50 0)" gradientUnits="userSpaceOnUse" class="svga-on-canvas-eyesiris-gradient-left-6">
      <stop id="SvgjsStop329728" stop-opacity="1" stop-color="#ffffff" offset="0"/>
      <stop id="SvgjsStop329729" stop-opacity="0" stop-color="#ffffff" offset="1"/>
    </linearGradient>
    <linearGradient id="SvgjsLinearGradient329731" x1="130" y1="81" x2="126" y2="85" gradientTransform="matrix(1 0 0 1 -50 0)" gradientUnits="userSpaceOnUse" class="svga-on-canvas-eyesiris-gradient-left-7">
      <stop id="SvgjsStop329732" stop-opacity="1" stop-color="#ffffff" offset="0"/>
      <stop id="SvgjsStop329733" stop-opacity="0" stop-color="#ffffff" offset="1"/>
    </linearGradient>
    <radialGradient id="SvgjsRadialGradient329736" cx="-578.76" cy="-490.73" r="84.646" gradientTransform="matrix(0.096 -0.0248 0.0245 0.0961 192.4794 119.8404)" gradientUnits="userSpaceOnUse" class="svga-on-canvas-eyesiris-gradient-right-1">
      <stop id="SvgjsStop329737" stop-opacity="0.8" stop-color="#ffffff" offset="0"/>
      <stop id="SvgjsStop329738" stop-opacity="0" stop-color="#ffffff" offset="1"/>
    </radialGradient>
    <radialGradient id="SvgjsRadialGradient329740" cx="-584.778" cy="-487.329" r="84.644" gradientTransform="matrix(0.0991 8.856325e-004 -0.0011 0.0991 182.3104 135.839)" gradientUnits="userSpaceOnUse" class="svga-on-canvas-eyesiris-gradient-right-2">
      <stop id="SvgjsStop329741" stop-opacity="0.8" stop-color="#ffffff" offset="0"/>
      <stop id="SvgjsStop329742" stop-opacity="0" stop-color="#ffffff" offset="1"/>
    </radialGradient>
    <linearGradient id="SvgjsLinearGradient329746" x1="120.284" y1="93.047" x2="121.611" y2="91.467" gradientUnits="userSpaceOnUse" class="svga-on-canvas-eyesiris-gradient-right-5">
      <stop id="SvgjsStop329747" stop-opacity="1" stop-color="#ffffff" offset="0"/>
      <stop id="SvgjsStop329748" stop-opacity="0" stop-color="#ffffff" offset="1"/>
    </linearGradient>
    <linearGradient id="SvgjsLinearGradient329750" x1="127" y1="85" x2="125" y2="87" gradientUnits="userSpaceOnUse" class="svga-on-canvas-eyesiris-gradient-right-6">
      <stop id="SvgjsStop329751" stop-opacity="1" stop-color="#ffffff" offset="0"/>
      <stop id="SvgjsStop329752" stop-opacity="0" stop-color="#ffffff" offset="1"/>
    </linearGradient>
    <linearGradient id="SvgjsLinearGradient329754" x1="130" y1="81" x2="126" y2="85" gradientUnits="userSpaceOnUse" class="svga-on-canvas-eyesiris-gradient-right-7">
      <stop id="SvgjsStop329755" stop-opacity="1" stop-color="#ffffff" offset="0"/>
      <stop id="SvgjsStop329756" stop-opacity="0" stop-color="#ffffff" offset="1"/>
    </linearGradient>
    <linearGradient id="SvgjsLinearGradient329762" x1="100" y1="141" x2="100" y2="138" gradientUnits="userSpaceOnUse" class="svga-on-canvas-mouth-gradient-single-0">
      <stop id="SvgjsStop329763" stop-opacity="1" stop-color="#e69d73" offset="0.1"/>
      <stop id="SvgjsStop329764" stop-opacity="1" stop-color="#df9164" offset="1"/>
    </linearGradient>
    <radialGradient id="SvgjsRadialGradient329811" cx="126.653" cy="88.227" r="13.678" gradientTransform="matrix(-1.0357 0 0 1.0357 204.6606 -3.2718)" gradientUnits="userSpaceOnUse" class="svga-on-canvas-eyesback-gradient-left-0">
      <stop id="SvgjsStop329812" stop-opacity="1" stop-color="#ffffff" offset="0"/>
      <stop id="SvgjsStop329813" stop-opacity="1" stop-color="#fdfefe" offset="0.544"/>
      <stop id="SvgjsStop329814" stop-opacity="1" stop-color="#f6f8f9" offset="0.74"/>
      <stop id="SvgjsStop329815" stop-opacity="1" stop-color="#eaeff2" offset="0.879"/>
      <stop id="SvgjsStop329816" stop-opacity="1" stop-color="#d9e3e8" offset="0.992"/>
      <stop id="SvgjsStop329817" stop-opacity="1" stop-color="#d8e2e7" offset="1"/>
    </radialGradient>
    <radialGradient id="SvgjsRadialGradient329819" cx="126.654" cy="88.227" r="13.678" gradientTransform="matrix(1.0357 0 0 1.0357 -4.6606 -3.2718)" gradientUnits="userSpaceOnUse" class="svga-on-canvas-eyesback-gradient-right-0">
      <stop id="SvgjsStop329820" stop-opacity="1" stop-color="#ffffff" offset="0"/>
      <stop id="SvgjsStop329821" stop-opacity="1" stop-color="#fdfefe" offset="0.544"/>
      <stop id="SvgjsStop329822" stop-opacity="1" stop-color="#f6f8f9" offset="0.74"/>
      <stop id="SvgjsStop329823" stop-opacity="1" stop-color="#eaeff2" offset="0.879"/>
      <stop id="SvgjsStop329824" stop-opacity="1" stop-color="#d9e3e8" offset="0.992"/>
      <stop id="SvgjsStop329825" stop-opacity="1" stop-color="#d8e2e7" offset="1"/>
    </radialGradient>
    <radialGradient id="SvgjsRadialGradient329827" cx="126.653" cy="88.227" r="13.678" gradientTransform="matrix(-1.0357 0 0 1.0357 204.6606 -3.2718)" gradientUnits="userSpaceOnUse" class="svga-on-canvas-eyesfront-gradient-left-0">
      <stop id="SvgjsStop329828" stop-opacity="1" stop-color="#ffffff" offset="0"/>
      <stop id="SvgjsStop329829" stop-opacity="1" stop-color="#fdfefe" offset="0.544"/>
      <stop id="SvgjsStop329830" stop-opacity="1" stop-color="#f6f8f9" offset="0.74"/>
      <stop id="SvgjsStop329831" stop-opacity="1" stop-color="#eaeff2" offset="0.879"/>
      <stop id="SvgjsStop329832" stop-opacity="1" stop-color="#d9e3e8" offset="0.992"/>
      <stop id="SvgjsStop329833" stop-opacity="1" stop-color="#d8e2e7" offset="1"/>
    </radialGradient>
    <radialGradient id="SvgjsRadialGradient329837" cx="123.012" cy="86.371" fx="135.984" fy="86.407" r="18.449" gradientTransform="matrix(0.9996 0.028 0.0231 -0.8278 -47.9747 154.4321)" gradientUnits="userSpaceOnUse" class="svga-on-canvas-eyesfront-gradient-left-3">
      <stop id="SvgjsStop329838" stop-opacity="1" stop-color="#df9164" offset="0"/>
      <stop id="SvgjsStop329839" stop-opacity="0.3" stop-color="#df9164" offset="0.7"/>
      <stop id="SvgjsStop329840" stop-opacity="0" stop-color="#eeaa83" offset="1"/>
    </radialGradient>
    <radialGradient id="SvgjsRadialGradient329842" cx="73.035" cy="94.844" r="16.125" gradientTransform="matrix(0.9522 -0.0499 0.0499 0.9514 0.1249 7.7016)" gradientUnits="userSpaceOnUse" class="svga-on-canvas-eyesfront-gradient-left-4">
      <stop id="SvgjsStop329843" stop-opacity="0" stop-color="#000000" offset="0.9"/>
      <stop id="SvgjsStop329844" stop-opacity="0.3" stop-color="#000000" offset="1"/>
    </radialGradient>
    <radialGradient id="SvgjsRadialGradient329848" cx="126.654" cy="88.227" r="13.678" gradientTransform="matrix(1.0357 0 0 1.0357 -4.6606 -3.2718)" gradientUnits="userSpaceOnUse" class="svga-on-canvas-eyesfront-gradient-right-0">
      <stop id="SvgjsStop329849" stop-opacity="1" stop-color="#ffffff" offset="0"/>
      <stop id="SvgjsStop329850" stop-opacity="1" stop-color="#fdfefe" offset="0.544"/>
      <stop id="SvgjsStop329851" stop-opacity="1" stop-color="#f6f8f9" offset="0.74"/>
      <stop id="SvgjsStop329852" stop-opacity="1" stop-color="#eaeff2" offset="0.879"/>
      <stop id="SvgjsStop329853" stop-opacity="1" stop-color="#d9e3e8" offset="0.992"/>
      <stop id="SvgjsStop329854" stop-opacity="1" stop-color="#d8e2e7" offset="1"/>
    </radialGradient>
    <radialGradient id="SvgjsRadialGradient329858" cx="123.012" cy="86.371" fx="135.984" fy="86.407" r="18.449" gradientTransform="matrix(-0.9996 0.028 -0.0231 -0.8278 247.9747 154.4321)" gradientUnits="userSpaceOnUse" class="svga-on-canvas-eyesfront-gradient-right-3">
      <stop id="SvgjsStop329859" stop-opacity="1" stop-color="#df9164" offset="0"/>
      <stop id="SvgjsStop329860" stop-opacity="0.3" stop-color="#df9164" offset="0.7"/>
      <stop id="SvgjsStop329861" stop-opacity="0" stop-color="#eeaa83" offset="1"/>
    </radialGradient>
    <radialGradient id="SvgjsRadialGradient329863" cx="73.035" cy="94.844" r="16.125" gradientTransform="matrix(-0.9522 -0.0499 -0.0499 0.9514 199.8751 7.7016)" gradientUnits="userSpaceOnUse" class="svga-on-canvas-eyesfront-gradient-right-4">
      <stop id="SvgjsStop329864" stop-opacity="0" stop-color="#000000" offset="0.9"/>
      <stop id="SvgjsStop329865" stop-opacity="0.3" stop-color="#000000" offset="1"/>
    </radialGradient>
    <linearGradient id="SvgjsLinearGradient329908" x1="99.98" y1="171.27" x2="99.98" y2="136.351" gradientUnits="userSpaceOnUse" class="svga-on-canvas-chinshadow-gradient-single-0">
      <stop id="SvgjsStop329909" stop-opacity="0.8" stop-color="#df9164" offset="0"/>
      <stop id="SvgjsStop329910" stop-opacity="1" stop-color="#c06530" offset="0.7"/>
    </linearGradient>
  </defs>
  <g id="svga-group-wrapper">
    <g id="svga-group-backs-single">
      <path id="SvgjsPath329781" d="M225 225H-25V-25h250V225z" fill="#f1d4af" stroke-width="none" opacity="1" stroke="none"/>
      <path id="SvgjsPath329782" d="M0-5v210M10,205V-5 M20,205V-5 M30,205V-5 M40,205V-5 M50,205V-5 M60,205V-5 M70,205V-5 M80,205V-5 M90,205V-5 M100,205V-5 M110,205V-5M120,205V-5 M130,205V-5 M140,205V-5 M150,205V-5 M160,205V-5 M170,205V-5 M180,205V-5 M190,205V-5 M200,205V-5" fill="none" stroke="#e2bd8d" stroke-width="5" opacity="1"/>
    </g>
    <g id="svga-group-humanwrap-move" transform="matrix(1,0,0,1,0,0)">
      <g id="svga-group-humanwrap" transform="matrix(1,0,0,1,0,0)">
        <g id="svga-group-hair-back-move" transform="matrix(1,0,0,1,0,0)">
          <g id="svga-group-hair-back" transform="matrix(1,0,0,1,0,0)">
            <path id="SvgjsPath329639" d="M100.5,100.5h-1v-1h1V100.5z" fill="#2a232b" stroke-width="none" opacity="1"/>
          </g>
        </g>
        <g id="svga-group-humanbody-single">
          <path id="SvgjsPath329635" d="M190.858 199.866c-6.008-10.158-13.474-11.973-19.628-13.936 -6.323-2.016-19.346-3.178-26.449-4.6 -6.86-1.373-23.153-5.789-23.339-13.488 -0.192-8.066 4.291-40.09 4.291-40.09H74.005c0 0 4.487 32.023 4.294 40.09 -0.184 7.699-16.48 12.115-23.341 13.488 -7.104 1.422-20.125 2.584-26.448 4.6 -6.156 1.963-13.624 3.777-19.632 13.936 -3.644 6.16-6.008 16.133-6.008 27.133h194C196.869 215.999 194.509 206.026 190.858 199.866z" fill="#eeaa83" stroke-width="none" opacity="1" stroke="none"/>
          <path id="SvgjsPath329636" d="M121.442 167.843c2.495 10.929 18.165 13.698 26.293 15.325 21.909 4.379 33.772 5.134 42.297 19.539 2.903 4.916 5.459 15.864 5.962 24.153 1.835 0.291 0.531-17.432-5.136-26.994 -9.742-16.472-29.089-15.135-46.077-18.535C137.921 179.958 121.628 175.542 121.442 167.843L121.442 167.843zM78.558 167.843c-0.186 7.699-16.479 12.115-23.339 13.488 -16.988 3.4-36.335 2.063-46.077 18.535 -5.667 9.563-6.971 27.285-5.136 26.994 0.503-8.289 3.059-19.237 5.962-24.153 8.524-14.405 20.388-15.16 42.297-19.539C60.393 181.541 76.063 178.771 78.558 167.843L78.558 167.843z" fill="#fdc5a5" stroke-width="none" opacity="1" stroke="none"/>
          <path id="SvgjsPath329637" d="M51.206 189.513c0 0 28.641 0.299 33.473 1.885 2.314 0.758 8.372 5.633 8.372 5.633s-6.556-3.17-8.658-3.758C79.51 191.909 51.206 189.513 51.206 189.513zM99.795 199.999c2.053-0.041 7.887-3.799 7.887-3.799s-5.574 2.059-7.342 2.16c-1.491 0.086-6.366-1.238-6.366-1.238S98.112 200.032 99.795 199.999zM117.008 192.757c6.75-1.818 29.786-3.23 29.786-3.23s-23.791-0.516-30.51 1.725c-2.252 0.752-7.562 5.16-7.562 5.16S114.786 193.354 117.008 192.757z" fill="#df9164" stroke-width="none" opacity="1" stroke="none"/>
          <path id="SvgjsPath329638" d="M190.858 199.866c-9.741-16.471-29.122-15.142-46.077-18.535 -6.86-1.373-23.153-5.789-23.339-13.488 -0.192-8.066 4.291-40.09 4.291-40.09H74.005c0 0 4.487 32.023 4.294 40.09 -0.184 7.699-16.48 12.115-23.341 13.488 -7.104 1.422-20.125 2.584-26.448 4.6 -6.156 1.963-13.624 3.777-19.632 13.936 -3.644 6.16-6.008 16.133-6.008 27.133h194C196.869 215.999 194.509 206.026 190.858 199.866z" fill="none" stroke="#c06530" stroke-width="1.5" opacity="1"/>
        </g>
        <g id="svga-group-chinshadow-single">
          <path id="SvgjsPath329907" d="M96.621 172.397c1.862 1.009 4.905 1.009 6.765 0.001 4.022-2.175 10.793-6.271 17.707-10.99 0.604-7.53 1.97-18.516 2.938-25.903 -14.398-1.508-33.984-1.493-48.319 0.038 0.961 7.323 2.309 18.157 2.919 25.666C85.646 166.01 92.547 170.19 96.621 172.397z" fill="url(#SvgjsLinearGradient329908)" opacity="1"/>
        </g>
        <g id="svga-group-clothes-single">
          <path id="SvgjsPath329893" d="M2.258 224.437c-2.481-20.683 6.836-35.34 29.389-41.745 6.619-1.876 14.221-2.843 15.221-2.903 -0.032-0.179-0.039-0.169-0.039-0.532h-0.03c0.074-6.837 7.69-5.493 9.87-5.953 8.623-1.833 11.551-10.877 21.398-8.496 0.242 2.074 0.063 4.47-1.168 13.335 9.286 19.972 19.359 18.247 22.939 29.43 3.245-10.001 14.771-11.587 23.26-29.433 -0.558-5.015-1.771-9.396-1.261-13.568l0.05-0.036c6.596-2.198 9.477 0.747 12.104 3.281 8.005 7.727 12.259 2.831 16.262 6.355 1.592 1.403 2.167 3.398 2.167 5.54 18.244 2.649 49.051 3.68 44.89 44.185l0.079 0.09C178.926 223.985 54.422 228.609 2.258 224.437z" fill="#09aac5" stroke-width="none" opacity="1"/>
          <path id="SvgjsPath329894" d="M100.187 206.617c3.609-9.059 14.44-11.18 22.618-27.884 0.08-0.092 0.291-0.507 0.557-1.056 -0.135-1.56-0.313-3.188-1.034-4.899 -0.442-2.854-0.796-5.524-0.496-8.114 1.68 0.489 3.271 1.072 4.362 2.264 1.601 1.748 0.386 4.776-1.148 7.69C122.164 187.172 114.949 196.237 100.187 206.617zM168.869 197.402c2.5 8.834 4.167 18.167 2.165 27.128 1.67-0.041 2.288-0.081 3.84-0.118C175.566 215.002 173.869 204.736 168.869 197.402zM132 199c-10.913 6.366-21.885 8.816-31.799 17.276 -9.916-8.437-20.994-9.911-31.906-16.276 -5-2-12.672-9.104-17.36-14.104 14.75 22.375 25.309 16.026 48.934 31.108 23.625-15.082 34.25-9.957 49-32.332C144.182 189.673 137 197 132 199zM99.796 207.68c-3.609-9.059-14.018-12.242-22.196-28.946 -0.08-0.092-0.291-0.507-0.557-1.056 0.135-1.56-0.22-3.273 0.5-4.985 0.442-2.854 0.635-5.185 0.335-7.774 -1.68 0.489-2.577 0.818-3.667 2.01 -1.601 1.748-0.386 4.776 1.148 7.69C78.241 187.172 85.034 197.3 99.796 207.68zM28.536 196.402c-3.667 8-3.697 18.6-3.005 28.01 1.552 0.037 2.17 0.077 3.84 0.118C27.369 215.569 27.869 205.402 28.536 196.402zM99.869 209.409c13.958-4.18 28.804-11.829 41.144-30.515 -11.142 15.02-27.705 23.887-40.827 29.327 -13.536-4.901-29.742-14.66-39.19-27.776C72.066 198.567 85.911 205.229 99.869 209.409z" fill="#009cb6" stroke-width="none" opacity="1"/>
          <path id="SvgjsPath329895" d="M197.389 223.985c-0.097 0-0.216 0.001-0.318 0.001 -0.359-7.608-1.073-15.39-5.076-22.251 -8-15-25-15.375-40.994-18.735 -2 0-3.032-5.541-4.506-7.015 -1.25-1.25-10.875-1.25-13.926-9.508 0.494 0.438 0.963 0.895 1.423 1.338 8.005 7.727 12.259 2.831 16.262 6.355 1.592 1.403 2.167 3.398 2.167 5.54 18.244 2.649 49.051 3.68 44.89 44.185L197.389 223.985zM2.017 224.985c0.097 0 0.216 0.001 0.318 0.001 0.359-7.608 1.173-13.796 5.176-20.657 8-15 25.299-18.367 41.293-21.728 2.939-1.116 1.391-3.242 2.864-4.716 1.25-1.25 8.2-1.275 17.825-11.4 -0.494 0.438-2.62 0.887-3.08 1.33 -8.005 7.727-14.045 5.545-16.262 6.355 -2.735 1-3.158 3.423-3.158 5.564 -18.244 2.649-46.994 8-44.898 45.16L2.017 224.985z" fill="#1fbad4" stroke-width="none" opacity="1"/>
          <path id="SvgjsPath329896" d="M196.159 204.835c-6.314-22.445-28.114-22.805-43.64-25.21 0-8.395-7.898-6.726-11.53-7.5 -8.012-1.717-7.761-10.998-19.24-7.649 -0.483 3.964 0.445 7.44 1.26 13.62 -8.416 17.668-20.089 19.653-23.169 29.149 -3.372-10.536-13.67-9.479-22.84-29.09 1.274-9.228 1.403-11.365 1.16-13.43 -8.753-1.998-10.727 3.679-18.64 7.47 -4.8 2.249-6.159 0.228-10.28 2.24 -1.71 0.83-2.57 3.08-2.51 4.91 -0.01 0.01 0 0.01 0 0.01 0 0.12 0 0.229 0.02 0.34 -1 0.065-8.597 1.049-15.13 2.9 -22.821 6.48-31.958 21.382-29.45 41.939 10.13 0 20.114 3.728 175.28-0.069 7.202-0.181 19.426-0.381 19.939-0.381C197.569 223.085 198.475 213.097 196.159 204.835zM2.309 224.315c-1.146-27.296 17.235-39.776 44.34-44.05 15.316 25.402 34.063 21.702 53.02 35.91 -17.183-14.276-35.189-12.385-52.5-36.25 -0.194-1.997 0.851-4.209 3.01-5.07 1.53-0.601 3.17-0.43 4.77-0.42 6.04 0.05 10.69-4.681 15.16-8.15 2.13-1.42 5.3-1.49 7.84-1.1 0.198 3.302-1.077 8.271-1.5 11.79 -0.89-1.96-1.73-3.971-2.57-5.98 10.623 31.175 21.215 24.115 25.95 37.05 -1-0.279-17.902-6.352-31.37-19.739 -2.86-2.831-8.527-9.069-8.96-9.65 16.676 22.564 27.331 23.715 40.38 29.53 0 0.01 0.01 0.03 0.01 0.04 0.011 0.033 0.064 0.188 0.08 0.22 0.06-0.03 0.13-0.06 0.2-0.08 0.02-0.02 0.04-0.03 0.07-0.03 1.807-0.882 13.688-5.019 22.729-11.229 9.309-6.403 19.925-20.281 19.131-19.28 -15.556 15.814-17.958 19.4-41.931 30.37 -0.02 0-0.04-0.01-0.06-0.02 -0.02-0.11-0.05-0.221-0.09-0.33 0.01-0.051 0.03-0.101 0.05-0.15 4.212-11.556 16.587-7.09 26.84-38.78 -1.05 2.74-2.15 5.44-3.39 8.08 -0.389-4.649-1.741-8.305-1.591-12.13 1.777-0.593 6.598-0.873 7.931 0.46 5.566 4.755 6.012 8.24 15.08 8.24 2.9 0.019 6.703 0.384 7.13 5.71 -0.53 0.786-4.503 5.471-8.26 9.2 -13.155 13.082-24.923 13.333-43.13 27.25 0.45 0 1.37-0.96 1.73-1.21 14.236-10.101 24.469-9.945 37.56-20.641 6.031-4.927 11.838-12.81 12.46-13.81 0.021 0.01 0.051 0.01 0.07 0.01 24.023 4.132 45.554 8.064 44.61 43.83C89.435 223.233 55.562 226.094 2.309 224.315z" fill="#008197" stroke-width="none" opacity="1"/>
        </g>
        <g id="svga-group-head" transform="matrix(1,0,0,1,0,0)">
          <g id="svga-group-ears-left-move" transform="matrix(1,0,0,1,0,0)">
            <g id="svga-group-ears-left" transform="matrix(1,0,0,1,0,0)">
              <path id="SvgjsPath329888" d="M47.69 82.611c-1.588-2.324-8.025-7.659-11.703-6.839 -4.355 0.971-5.708 4.275-5.603 6.332 0.606 11.758 4.426 11.749 6.71 16.271 1.709 3.383 3.126 4.933 4.172 11.692 0.598 3.866 4.427 6.83 7.217 6.684 3.908-0.205 6.994-3.634 8.291-7.014C59.463 102.718 51.823 88.658 47.69 82.611z" fill="#eeaa83" stroke="#c06530" stroke-width="1.5" opacity="1"/>
              <path id="SvgjsPath329889" d="M43.274 99.484c-0.15-0.542-0.062-1.474 0.024-2.376 0.077-0.821 1.438-3.801 1.348-4.341 -0.344-2.022-1.931-5.809-2.949-7.853 -1.169-2.35-3.604-5.289-5.79-5.943 -0.904-0.271-3.479 0.039-3.781 0.625 -1.131 2.191-0.615 4.313 1.1 9.984 0.85 2.809 3.915 6.069 3.998 6.395 1.067 4.247 5.099 11.032 6.488 12.554 0.256 0.281 0.519 0.442 0.579 0.367 0.059-0.075-0.104-0.359-0.361-0.642 -1.372-1.513-5.367-8.282-6.396-12.38 -1.092-4.347 2.313-11.094 2.93-12.516 0.379 0.627 0.703 1.233 0.954 1.738 0.198 0.397 0.417 0.861 0.645 1.364 -0.367 0.744-4.245 6.226-3.026 10.371 0.451 1.528 2.054 4.491 3.432 6.049 0.483 0.546 0.893 0.702 1.19 1.207 0.341 0.586 0.732 1.251 1.792 1.687 0.215 0.089 0.408 0.118 0.577 0.108 0.293-0.019 0.51-0.157 0.667-0.318 0.029 0.265 0.044 0.604 0.051 0.919 0.007 0.404 0.073 0.735 0.162 0.738s0.168-0.325 0.161-0.729c-0.009-0.497-0.04-1.113-0.132-1.403 -0.273-0.854-1.028-1.791-1.829-2.781C44.319 101.332 43.505 100.323 43.274 99.484zM36.96 93.913c-2.347-6.628-1.518-13.365-1.103-14.318 1.345 0 3.778 2.439 4.397 3.42C39.874 83.854 36.837 89.368 36.96 93.913zM45.559 105.428c-0.961-0.395-1.303-0.979-1.635-1.545 -0.299-0.513-1.018-1-1.346-1.348 -0.191-0.204-0.531-0.75-0.715-0.872 -1.762-7.438 1.345-10.152 1.967-10.722 0.231 0.712 0.411 1.368 0.5 1.896 0.082 0.485-1.28 3.474-1.352 4.231 -0.089 0.939-0.182 1.911-0.012 2.526 0.253 0.917 1.093 1.955 1.904 2.96 0.72 0.892 1.459 1.811 1.732 2.581C46.509 105.299 46.204 105.692 45.559 105.428z" fill="#c06530" stroke-width="none" opacity="1" stroke="none"/>
            </g>
          </g>
          <g id="svga-group-ears-right-move" transform="matrix(1,0,0,1,0,0)">
            <g id="svga-group-ears-right" transform="matrix(1,0,0,1,0,0)">
              <path id="SvgjsPath329890" d="M152.049 82.611c1.588-2.324 8.025-7.659 11.701-6.839 4.357 0.971 5.709 4.275 5.604 6.332 -0.605 11.758-4.426 11.749-6.709 16.271 -1.711 3.383-3.127 4.933-4.174 11.692 -0.598 3.866-4.428 6.83-7.217 6.684 -3.908-0.205-6.994-3.634-8.291-7.014C140.275 102.718 147.916 88.658 152.049 82.611z" fill="#eeaa83" stroke="#c06530" stroke-width="1.5" opacity="1"/>
              <path id="SvgjsPath329891" d="M154.633 102.307c-0.801 0.99-1.557 1.928-1.83 2.781 -0.092 0.29-0.123 0.906-0.131 1.403 -0.008 0.404 0.072 0.732 0.16 0.729 0.09-0.003 0.154-0.334 0.162-0.738 0.008-0.315 0.021-0.654 0.051-0.919 0.156 0.161 0.373 0.3 0.666 0.318 0.17 0.01 0.361-0.02 0.578-0.108 1.061-0.436 1.449-1.101 1.791-1.687 0.297-0.505 0.709-0.66 1.191-1.207 1.377-1.559 2.98-4.521 3.432-6.049 1.219-4.145-2.66-9.627-3.027-10.371 0.229-0.503 0.447-0.967 0.645-1.364 0.252-0.505 0.576-1.111 0.955-1.738 0.617 1.421 4.021 8.168 2.93 12.516 -1.029 4.098-5.025 10.868-6.396 12.38 -0.256 0.282-0.42 0.566-0.361 0.642 0.061 0.075 0.322-0.086 0.578-0.367 1.391-1.521 5.422-8.307 6.49-12.554 0.082-0.326 3.146-3.586 3.996-6.395 1.715-5.671 2.232-7.793 1.102-9.984 -0.303-0.586-2.877-0.896-3.783-0.625 -2.186 0.655-4.619 3.594-5.789 5.943 -1.018 2.044-2.605 5.831-2.949 7.853 -0.09 0.54 1.271 3.52 1.348 4.341 0.086 0.902 0.176 1.834 0.025 2.376C156.232 100.323 155.42 101.332 154.633 102.307zM159.484 83.016c0.619-0.981 3.053-3.42 4.396-3.42 0.416 0.953 1.244 7.689-1.104 14.318C162.902 89.368 159.863 83.854 159.484 83.016zM153.137 105.137c0.273-0.771 1.012-1.689 1.732-2.581 0.811-1.005 1.65-2.044 1.904-2.96 0.168-0.616 0.076-1.587-0.014-2.526 -0.07-0.758-1.434-3.746-1.352-4.231 0.09-0.528 0.27-1.184 0.5-1.896 0.623 0.569 3.729 3.284 1.967 10.722 -0.184 0.122-0.523 0.668-0.715 0.872 -0.328 0.348-1.047 0.834-1.346 1.348 -0.332 0.565-0.674 1.15-1.635 1.545C153.533 105.692 153.23 105.299 153.137 105.137z" fill="#c06530" stroke-width="none" opacity="1" stroke="none"/>
            </g>
          </g>
          <g id="svga-group-faceshape-wrap" transform="matrix(1,0,0,1,0,0)">
            <g id="svga-group-faceshape-single">
              <path id="SvgjsPath329904" d="M140.337 130.669c-6.672 9.572-28.551 24.338-37.142 29.263 -1.757 1.008-4.626 1.008-6.383-0.001 -8.584-4.93-30.469-19.691-37.144-29.262C51.541 119.018 41.15 77 41.138 76.946c-1.3-4.911-1.996-10.066-2.004-15.382C39.082 28.09 66.289 0.919 99.907 0.867c33.621-0.052 60.913 27.033 60.963 60.507 0.009 5.316-0.669 10.473-1.952 15.389C158.901 76.815 148.488 118.976 140.337 130.669z" fill="#eeaa83" stroke-width="none" opacity="1" stroke="none"/>
              <path id="SvgjsPath329905" d="M132.741 10.389c15.702 10.981 25.962 29.15 25.93 49.708 -0.009 5.316-0.704 10.471-2.004 15.382 -0.012 0.053-10.491 42.01-18.53 53.723 -6.665 9.715-25.83 26.717-37.145 29.995 -0.475 0.138-1.505 0.138-1.98 0 -11.314-3.278-30.479-20.28-37.144-29.995 -8.039-11.713-18.519-53.669-18.53-53.723 -1.3-4.911-1.996-10.066-2.004-15.382 -0.032-20.559 10.227-38.727 25.929-49.708C50.326 21.172 39.101 40.061 39.134 61.564c0.008 5.316 0.704 10.471 2.004 15.382 0.012 0.053 10.403 42.071 18.53 53.723 6.675 9.57 28.56 24.332 37.144 29.262 0 0.001 0.001 0.001 0.002 0.001 -0.001 0-0.005 0-0.005 0 0.879 0.504 2.036 0.757 3.193 0.755 1.157 0.002 2.314-0.251 3.193-0.755h-0.005c0 0 0.001 0 0.002-0.001 8.585-4.93 30.469-19.691 37.145-29.262 8.127-11.651 18.519-53.669 18.529-53.723 1.3-4.911 1.996-10.066 2.004-15.382C160.904 40.061 149.679 21.172 132.741 10.389z" fill="#e69d73" stroke-width="none" opacity="1" stroke="none"/>
              <path id="SvgjsPath329906" d="M140.337 130.669c-6.672 9.572-28.551 24.338-37.142 29.263 -1.757 1.008-4.626 1.008-6.383-0.001 -8.584-4.93-30.469-19.691-37.144-29.262C51.541 119.018 41.15 77 41.138 76.946c-1.3-4.911-1.996-10.066-2.004-15.382C39.082 28.09 66.289 0.919 99.907 0.867c33.621-0.052 60.913 27.033 60.963 60.507 0.009 5.316-0.669 10.473-1.952 15.389C158.901 76.815 148.488 118.976 140.337 130.669z" fill="none" stroke="#c06530" stroke-width="1.5" opacity="1"/>
            </g>
          </g>
          <g id="svga-group-mouth-single-move" transform="matrix(1,0,0,1,0,0)">
            <g id="svga-group-mouth-single" transform="matrix(1,0,0,1,0,0)">
              <path id="SvgjsPath329883" d="M94.859 136.427c0.259 0.002 11.018-0.099 11.018-0.099s-3.174 0.714-5.865 0.688C97.688 136.997 94.859 136.427 94.859 136.427z" fill="#df9164" stroke-width="none" opacity="1" stroke="none"/>
              <path id="SvgjsPath329884" d="M86.537 134.998c-0.649-0.642 3.796-2.875 5.987-3.547 2.769-0.882 5.481-0.17 8.3-0.383 2.571-0.195 4.901-0.735 7.421 0.076 2.277 0.733 6.579 3.048 6.292 3.601 -0.289 0.558-4.189-1.703-6.378-2.18 -2.508-0.534-4.781 0.241-7.28 0.488 -2.558 0.254-5.083-0.713-7.64-0.307C90.92 133.114 86.894 135.351 86.537 134.998z" fill="#c06530" stroke-width="none" opacity="1" stroke="none"/>
            </g>
          </g>
          <g id="svga-group-eyes-left-move" transform="matrix(1,0,0,1,0,0)">
            <g id="svga-group-eyes-left" transform="matrix(1,0,0,1,0,0)">
              <g id="svga-group-eyesback-left">
                <path id="SvgjsPath329810" d="M74.285 78.051c2.405 0.037 5.43 0.584 8.73 2.542 2.382 1.412 3.481 3.918 4.146 6.074 0.051 1.025 0.034 2.001-0.015 2.872 -0.498 3.228-1.36 5.328-3.214 7.521 -0.523 0.413-1.124 0.765-1.814 0.984 -0.186 0.059-0.518-0.332-1.056-0.316 -1.889 0.053-5.997-0.058-7.633-0.029 -3.664 0.063-5.617 0-7.388-0.682 -1.779-0.685-3.124-3.201-4.519-7.747 -0.315-1.029-0.714-3.565-0.183-4.71C63.753 79.354 70.382 77.991 74.285 78.051z" fill="url(#SvgjsRadialGradient329811)" opacity="1"/>
              </g>
              <g id="svga-group-eyesiriswrapper-left" transform="matrix(1,0,0,1,-0.5,1.5)">
                <g id="svga-group-eyesiriscontrol-left" transform="matrix(1,0,0,1,0,0)">
                  <g id="svga-group-eyesiris-left" transform="matrix(1,0,0,1,0,0)">
                    <path id="SvgjsPath329868" d="M85.129 90.705c-1.521 7.45-7.283 11.838-12.882 9.792 -5.594-2.044-8.899-9.75-7.376-17.2 1.521-7.454 7.296-11.841 12.89-9.794C83.351 75.546 86.652 83.251 85.129 90.705z" fill="#7085b3" stroke="#2b4785" stroke-width="0.5" opacity="1"/>
                    <path id="SvgjsPath329869" d="M83.496 90.879c-1.484 5.719-5.964 9.057-10.323 7.465 -4.024-1.474-6.565-6.625-6.235-12.067 1.495-0.156 3.126-0.205 4.822-0.093 -0.017 0.078-0.047 0.145-0.063 0.225 -0.533 2.626 0.713 5.377 2.787 6.138 2.081 0.759 4.202-0.764 4.738-3.387 0.066-0.343 0.103-0.687 0.113-1.025C80.757 88.826 82.153 89.72 83.496 90.879z" fill="#8d9ec2" stroke-width="none" opacity="1" stroke="none"/>
                    <path id="SvgjsPath329870" d="M76.421 82.826c-2.102-0.804-4.249 0.797-4.791 3.59 -0.544 2.781 0.721 5.689 2.823 6.493 2.107 0.805 4.254-0.797 4.797-3.577C79.798 86.537 78.527 83.627 76.421 82.826zM76.882 92.7c-0.875 0.362-1.78-0.119-2.021-1.079 -0.232-0.958 0.286-2.022 1.167-2.377 0.881-0.362 1.782 0.12 2.025 1.073C78.29 91.271 77.769 92.337 76.882 92.7z" fill="#000000" stroke-width="none" opacity="0.9"/>
                    <path id="SvgjsPath329871" d="M69.42 94.372c-0.648 0.518-1.613 0.056-2.168-1.042 -0.554-1.088-0.47-2.391 0.181-2.911 0.641-0.51 1.618-0.047 2.168 1.042C70.145 92.551 70.067 93.855 69.42 94.372z" fill="#ffffff" stroke-width="none" opacity="0.6"/>
                    <path id="SvgjsPath329872" d="M83.243 86.395c-1.481 1.181-3.707 0.116-4.966-2.38 -1.26-2.5-1.07-5.489 0.41-6.667 1.478-1.188 3.704-0.123 4.958 2.378C84.904 82.226 84.723 85.209 83.243 86.395z" fill="#ffffff" stroke-width="none" opacity="0.9"/>
                  </g>
                </g>
              </g>
              <g id="svga-group-eyesfront-left">
                <path id="SvgjsPath329835" d="M55 88c0 13.808 8.507 24.999 19 24.999S93 101.808 93 88c0-13.809-8.507-25.001-19-25.001S55 74.191 55 88zM61.524 89.269c-0.315-1.029-0.714-3.565-0.183-4.71 2.411-5.206 9.04-6.568 12.943-6.508 2.405 0.037 5.43 0.584 8.73 2.542 2.382 1.412 3.481 3.918 4.146 6.074 0.051 1.025 0.034 2.001-0.015 2.872 -0.498 3.228-1.36 5.328-3.214 7.521 -0.523 0.413-1.124 0.765-1.814 0.984 -0.186 0.059-0.518-0.332-1.056-0.316 -1.889 0.053-5.997-0.058-7.633-0.029 -3.664 0.063-5.617 0-7.388-0.682C64.264 96.331 62.919 93.815 61.524 89.269z" fill="#eeaa83" stroke-width="none" opacity="1" stroke="none"/>
                <path id="SvgjsPath329836" d="M59.4 87.087c0.023 8.835 7.871 15.959 17.541 15.912 9.664-0.05 17.482-7.249 17.459-16.085 -0.023-8.838-7.873-15.962-17.541-15.915C67.191 71.049 59.375 78.248 59.4 87.087zM61.425 89.269c-0.315-1.029-0.714-3.565-0.183-4.71 2.411-5.206 9.04-6.568 12.943-6.508 2.405 0.037 5.43 0.584 8.73 2.542 2.382 1.412 3.481 3.918 4.146 6.074 0.051 1.025 0.034 2.001-0.015 2.872 -0.498 3.228-1.36 5.328-3.214 7.521 -0.523 0.413-1.124 0.765-1.814 0.984 -0.186 0.059-0.518-0.332-1.056-0.316 -1.889 0.053-5.997-0.058-7.633-0.029 -3.664 0.063-5.617 0-7.388-0.682C64.164 96.331 62.819 93.815 61.425 89.269z" fill="url(#SvgjsRadialGradient329837)" opacity="1"/>
                <path id="SvgjsPath329841" d="M74.285 78.051c2.405 0.037 5.43 0.584 8.73 2.542 2.382 1.412 3.481 3.918 4.146 6.074 0.051 1.025 0.034 2.001-0.015 2.872 -0.498 3.228-1.36 5.328-3.214 7.521 -0.523 0.413-1.124 0.765-1.814 0.984 -0.186 0.059-0.518-0.332-1.056-0.316 -1.889 0.053-5.997-0.058-7.633-0.029 -3.664 0.063-5.617 0-7.388-0.682 -1.779-0.685-3.124-3.201-4.519-7.747 -0.315-1.029-0.714-3.565-0.183-4.71C63.753 79.354 70.382 77.991 74.285 78.051z" fill="url(#SvgjsRadialGradient329842)" opacity="1"/>
                <path id="SvgjsPath329845" d="M62.929 75.008c3.48-1.16 13.972-1.121 18.53 1.682C75.11 74.179 69.218 74.275 62.929 75.008zM84.433 77.843c1.651 0.614 2.711 1.961 3.462 3.018C86.797 79.697 85.264 78.468 84.433 77.843z" fill="#c06530" stroke-width="none" opacity="1" stroke="none"/>
                <path id="SvgjsPath329846" d="M89.427 83.939l-3.419-2.076c0 0 1.154 1.526 1.154 4.824 -0.665-2.123-1.765-4.592-4.146-5.983 -3.301-1.928-6.325-2.467-8.73-2.503 -3.903-0.06-10.532 1.283-12.943 6.411 -0.531 1.128-0.133 3.626 0.183 4.64 1.395 4.478 2.739 6.957 4.519 7.632 1.771 0.672 3.724 0.733 7.388 0.671 1.636-0.028 5.744 0.081 7.633 0.029 0.538-0.015 1.014 0.123 1.056 0.312 0.041 0.189-0.395 0.357-0.934 0.388 -2.036 0.114-3.359 0.311-8.537 0.311 -4.591 0-6.316-0.105-7.461-0.574 -1.544-0.632-2.398-2.7-4.601-9.561 -2.888-4.32-5.457-7.39-8.587-9.511l4.988 1.574c-0.918-1.097-1.854-2.061-3.828-3.673 4.084 0.439 5.593 0.581 8.603 0.113 4.769-0.742 7.774-0.87 12.095-0.714C80.361 77.261 85.175 79.412 89.427 83.939zM83.87 97.003c2.504-1.659 3.292-4.259 3.292-7.569C86.66 92.701 85.787 94.795 83.87 97.003z" fill="#210d34" stroke-width="none" opacity="1" stroke="none"/>
              </g>
            </g>
          </g>
          <g id="svga-group-eyes-right-move" transform="matrix(1,0,0,1,0,0)">
            <g id="svga-group-eyes-right" transform="matrix(1,0,0,1,0,0)">
              <g id="svga-group-eyesback-right">
                <path id="SvgjsPath329818" d="M125.715 78.051c-2.405 0.037-5.43 0.584-8.73 2.542 -2.382 1.412-3.481 3.918-4.146 6.074 -0.051 1.025-0.034 2.001 0.015 2.872 0.498 3.228 1.36 5.328 3.214 7.521 0.523 0.413 1.124 0.765 1.814 0.984 0.186 0.059 0.518-0.332 1.056-0.316 1.889 0.053 5.997-0.058 7.633-0.029 3.664 0.063 5.617 0 7.388-0.682 1.779-0.685 3.124-3.201 4.519-7.747 0.315-1.029 0.714-3.565 0.183-4.71C136.247 79.354 129.618 77.991 125.715 78.051z" fill="url(#SvgjsRadialGradient329819)" opacity="1"/>
              </g>
              <g id="svga-group-eyesiriswrapper-right" transform="matrix(1,0,0,1,0.5,1.5)">
                <g id="svga-group-eyesiriscontrol-right" transform="matrix(1,0,0,1,0,0)">
                  <g id="svga-group-eyesiris-right" transform="matrix(1,0,0,1,0,0)">
                    <path id="SvgjsPath329873" d="M135.129 90.705c-1.521 7.45-7.283 11.838-12.882 9.792 -5.594-2.044-8.899-9.75-7.376-17.2 1.521-7.454 7.296-11.841 12.89-9.794C133.351 75.546 136.652 83.251 135.129 90.705z" fill="#7085b3" stroke="#2b4785" stroke-width="0.5" opacity="1"/>
                    <path id="SvgjsPath329874" d="M133.496 90.879c-1.484 5.719-5.964 9.057-10.323 7.465 -4.024-1.474-6.565-6.625-6.235-12.067 1.495-0.156 3.126-0.205 4.822-0.093 -0.017 0.078-0.047 0.145-0.063 0.225 -0.533 2.626 0.713 5.377 2.787 6.138 2.081 0.759 4.202-0.764 4.738-3.387 0.066-0.343 0.103-0.687 0.113-1.025C130.757 88.826 132.153 89.72 133.496 90.879z" fill="#8d9ec2" stroke-width="none" opacity="1" stroke="none"/>
                    <path id="SvgjsPath329875" d="M126.421 82.826c-2.102-0.804-4.249 0.797-4.791 3.59 -0.544 2.781 0.721 5.689 2.823 6.493 2.107 0.805 4.254-0.797 4.797-3.577C129.798 86.537 128.527 83.627 126.421 82.826zM126.882 92.7c-0.875 0.362-1.78-0.119-2.021-1.079 -0.232-0.958 0.286-2.022 1.167-2.377 0.881-0.362 1.782 0.12 2.025 1.073C128.29 91.271 127.769 92.337 126.882 92.7z" fill="#000000" stroke-width="none" opacity="0.9"/>
                    <path id="SvgjsPath329876" d="M119.42 94.372c-0.648 0.518-1.613 0.056-2.168-1.042 -0.554-1.088-0.47-2.391 0.181-2.911 0.641-0.51 1.618-0.047 2.168 1.042C120.145 92.551 120.067 93.855 119.42 94.372z" fill="#ffffff" stroke-width="none" opacity="0.6"/>
                    <path id="SvgjsPath329877" d="M133.243 86.395c-1.481 1.181-3.707 0.116-4.966-2.38 -1.26-2.5-1.07-5.489 0.41-6.667 1.478-1.188 3.704-0.123 4.958 2.378C134.904 82.226 134.723 85.209 133.243 86.395z" fill="#ffffff" stroke-width="none" opacity="0.9"/>
                  </g>
                </g>
              </g>
              <g id="svga-group-eyesfront-right">
                <path id="SvgjsPath329856" d="M126 62.999c-10.493 0-19 11.193-19 25.001 0 13.808 8.507 24.999 19 24.999S145 101.808 145 88C145 74.191 136.493 62.999 126 62.999zM133.957 97.016c-1.771 0.682-3.724 0.744-7.388 0.682 -1.636-0.028-5.744 0.083-7.633 0.029 -0.538-0.015-0.87 0.375-1.056 0.316 -0.69-0.219-1.291-0.571-1.814-0.984 -1.854-2.192-2.716-4.293-3.214-7.521 -0.049-0.871-0.065-1.847-0.015-2.872 0.665-2.155 1.765-4.662 4.146-6.074 3.301-1.957 6.325-2.504 8.73-2.542 3.903-0.061 10.532 1.302 12.943 6.508 0.531 1.145 0.133 3.681-0.183 4.71C137.081 93.815 135.736 96.331 133.957 97.016z" fill="#eeaa83" stroke-width="none" opacity="1" stroke="none"/>
                <path id="SvgjsPath329857" d="M123.141 70.999c-9.668-0.047-17.518 7.077-17.541 15.915 -0.023 8.836 7.795 16.035 17.459 16.085 9.67 0.047 17.518-7.077 17.541-15.912C140.625 78.248 132.809 71.049 123.141 70.999zM134.057 97.016c-1.771 0.682-3.724 0.744-7.388 0.682 -1.636-0.028-5.744 0.083-7.633 0.029 -0.538-0.015-0.87 0.375-1.056 0.316 -0.69-0.219-1.291-0.571-1.814-0.984 -1.854-2.192-2.716-4.293-3.214-7.521 -0.049-0.871-0.065-1.847-0.015-2.872 0.665-2.155 1.765-4.662 4.146-6.074 3.301-1.957 6.325-2.504 8.73-2.542 3.903-0.061 10.532 1.302 12.943 6.508 0.531 1.145 0.133 3.681-0.183 4.71C137.181 93.815 135.836 96.331 134.057 97.016z" fill="url(#SvgjsRadialGradient329858)" opacity="1"/>
                <path id="SvgjsPath329862" d="M125.715 78.051c-2.405 0.037-5.43 0.584-8.73 2.542 -2.382 1.412-3.481 3.918-4.146 6.074 -0.051 1.025-0.034 2.001 0.015 2.872 0.498 3.228 1.36 5.328 3.214 7.521 0.523 0.413 1.124 0.765 1.814 0.984 0.186 0.059 0.518-0.332 1.056-0.316 1.889 0.053 5.997-0.058 7.633-0.029 3.664 0.063 5.617 0 7.388-0.682 1.779-0.685 3.124-3.201 4.519-7.747 0.315-1.029 0.714-3.565 0.183-4.71C136.247 79.354 129.618 77.991 125.715 78.051z" fill="url(#SvgjsRadialGradient329863)" opacity="1"/>
                <path id="SvgjsPath329866" d="M118.541 76.689c4.559-2.803 15.05-2.842 18.53-1.682C130.782 74.275 124.89 74.179 118.541 76.689zM112.105 80.861c0.751-1.057 1.811-2.404 3.462-3.018C114.736 78.468 113.203 79.697 112.105 80.861z" fill="#c06530" stroke-width="none" opacity="1" stroke="none"/>
                <path id="SvgjsPath329867" d="M126.143 76.247c4.32-0.156 7.326-0.028 12.095 0.714 3.01 0.468 4.519 0.327 8.603-0.113 -1.974 1.612-2.91 2.576-3.828 3.673L148 78.947c-3.13 2.121-5.699 5.191-8.587 9.511 -2.202 6.861-3.057 8.929-4.601 9.561 -1.145 0.469-2.87 0.574-7.461 0.574 -5.178 0-6.501-0.197-8.537-0.311 -0.539-0.03-0.975-0.199-0.934-0.388 0.042-0.188 0.518-0.327 1.056-0.312 1.889 0.052 5.997-0.057 7.633-0.029 3.664 0.062 5.617 0 7.388-0.671 1.779-0.675 3.124-3.154 4.519-7.632 0.315-1.014 0.714-3.512 0.183-4.64 -2.411-5.128-9.04-6.47-12.943-6.411 -2.405 0.037-5.43 0.576-8.73 2.503 -2.382 1.391-3.481 3.86-4.146 5.983 0-3.297 1.154-4.824 1.154-4.824l-3.419 2.076C114.825 79.412 119.639 77.261 126.143 76.247zM112.838 89.434c0 3.31 0.788 5.91 3.292 7.569C114.213 94.795 113.34 92.701 112.838 89.434z" fill="#210d34" stroke-width="none" opacity="1" stroke="none"/>
              </g>
            </g>
          </g>
          <g id="svga-group-facehighlight-single">
            <path id="SvgjsPath329627" d="M140.204 113.007c0.035 22.275-17.995 40.365-40.273 40.396 -22.274 0.036-40.361-17.993-40.396-40.272C59.501 90.857 77.53 72.77 99.808 72.735 122.083 72.701 140.171 90.73 140.204 113.007z" fill="url(#SvgjsRadialGradient329628)" opacity="1"/>
            <path id="SvgjsPath329631" d="M135,55.999c0,19.329-15.671,35-35,35c-19.329,0-35-15.671-35-35s15.671-35,35-35C119.329,20.999,135,36.67,135,55.999z" fill="url(#SvgjsRadialGradient329632)" opacity="1"/>
          </g>
          <g id="svga-group-eyebrows-left-move" transform="matrix(1,0,0,1,0,0)">
            <g id="svga-group-eyebrows-left-rotate" transform="matrix(1,0,0,1,0,0)">
              <g id="svga-group-eyebrows-left" transform="matrix(1,0,0,1,0,0)">
                <path id="SvgjsPath329878" d="M52.488 73.87c7.475-9.383 20.338-7.822 30.878-6.314 2.681 0.384 5.441 0.672 8.07 1.336 1.884 0.475 3.365 2.622 1.851 4.356 -0.708 0.825-2.253 0.672-3.207 0.652C77.459 73.645 63.193 66.387 52.488 73.87z" fill="#a46c47" stroke-width="none" opacity="1" stroke="none"/>
              </g>
            </g>
          </g>
          <g id="svga-group-eyebrows-right-move" transform="matrix(1,0,0,1,0,0)">
            <g id="svga-group-eyebrows-right-rotate" transform="matrix(1,0,0,1,0,0)">
              <g id="svga-group-eyebrows-right" transform="matrix(1,0,0,1,0,0)">
                <path id="SvgjsPath329879" d="M147.577 73.49c-2.164-1.448-4.454-2.47-7.043-2.889 -9.497-1.54-27.586 4.79-32.341 3.45 -2.912-0.822-2.323-3.739-1.035-4.458 0.775-0.433 0.99-0.422 7.909-1.612C126.824 65.961 139.988 64.355 147.577 73.49z" fill="#a46c47" stroke-width="none" opacity="1" stroke="none"/>
              </g>
            </g>
          </g>
          <g id="svga-group-nose-single-move" transform="matrix(1,0,0,1,0,0)">
            <g id="svga-group-nose-single" transform="matrix(1,0,0,1,0,0)">
              <path id="SvgjsPath329885" d="M97.363 92.602c0 0 0.055 7.962-0.458 9.512 -1.129 3.405-6.123 11.297-5.49 13.486 0.985 3.403 5.817 3.652 8.259 3.771 2.338 0.115 7.091-0.055 7.857-2.267 0.312-0.9-0.361-3.197-0.361-3.197s-2.165 2.228-7.266 1.98c-1.456-0.07-3.824-1.5-3.851-3.517 -0.036-2.734 1.805-5.87 2.135-8.583C98.438 101.726 97.363 92.602 97.363 92.602z" fill="#df9164" stroke-width="none" opacity="1" stroke="none"/>
              <path id="SvgjsPath329886" d="M104.209 117.032c0.881 0 1.119 0.234 1.119 0.522 0 0.29-0.274 0.735-1.119 0.522 -0.928-0.231-2.548-0.124-2.548-0.124S103.328 117.032 104.209 117.032zM95.8 117.032c-0.881 0.001-1.119 0.236-1.119 0.525 0 0.288 0.265 0.704 1.119 0.521 0.941-0.201 2.548-0.125 2.548-0.125S96.682 117.035 95.8 117.032zM107.169 113.906c0 0 1.22 1.384 0.966 2.847 -0.246 1.421-2.709 2.047-2.709 2.047s1.71-1.085 1.917-2.403C107.439 115.781 107.169 113.906 107.169 113.906zM92.12 112.482c0 0-0.89 1.938-0.632 3.117 0.467 2.13 3.032 2.982 3.032 2.982s-1.601-1.462-2.17-2.753C91.729 114.42 92.12 112.482 92.12 112.482z" fill="#c06530" stroke-width="none" opacity="1" stroke="none"/>
              <path id="SvgjsPath329887" d="M104.166 114.937c0.854-0.637 0.939-1 0.763-1.237 -0.176-0.238-0.688-0.389-1.403 0.379 -0.788 0.846-2.502 1.47-2.502 1.47S103.312 115.574 104.166 114.937z" fill="#fdc5a5" stroke-width="none" opacity="1" stroke="none"/>
            </g>
          </g>
          <g id="svga-group-hair-front" transform="matrix(1,0,0,1,0,0)">
            <path id="SvgjsPath329641" d="M158.43 41.325C140-4.765 100 0.405 100 0.405s-40-5.169-58.43 40.92c-9.245 23.12 2.158 50.324 2.158 50.324h5.826c0 0-2.881-12.303-1.722-16.915 0.281-1.118 2.791-3.66 2.898-4.807 0.118-1.255-0.3-3.367-0.421-4.622 -0.592-6.112 1.982-18.029 5.245-23.173 1.603-2.526 5.369-6.659 8.174-7.699 3.8-1.408 10.327-1.739 14.312-1 2.276 0.422 6.297 1.857 8.542 2.421C89.851 36.676 100 36.722 100 36.722s10.148-0.046 13.418-0.867c2.245-0.563 6.267-1.898 8.543-2.321 3.984-0.739 10.512-0.408 14.312 1 2.806 1.04 6.871 4.972 8.474 7.499 3.263 5.144 5.537 16.16 4.945 22.272 -0.121 1.255-0.539 4.367-0.422 5.623 0.107 1.147 2.617 3.689 2.898 4.807 1.16 4.612-1.722 16.915-1.722 16.915h5.825C156.271 91.649 167.676 64.445 158.43 41.325z" fill="#2a232b" stroke-width="none" opacity="1"/>
            <path id="SvgjsPath329642" d="M154.938 31.163C136.178-3.114 101.979-0.631 100-0.455c-1.979-0.176-36.177-2.659-54.938 31.618C30.57 57.641 41.57 88.137 42.907 91.612c0.076 0.197 1.576 0.038 1.576 0.038 -0.006-0.015-0.104-0.392-0.166-0.55 -1.209-3.12-12.189-33.18 2.061-59.216C65.111-2.342 99.595 1.007 99.94 1.046L100 0.504l0.06 0.542c0.345-0.039 34.829-3.388 53.563 30.837 14.563 26.61 2.773 57.423 1.996 59.383 -0.021 0.055-0.107 0.375-0.111 0.383 0 0 1.506 0.169 1.575-0.011C158.374 88.294 169.467 57.709 154.938 31.163z" fill="#000000" stroke-width="none" opacity="1"/>
          </g>
          <g id="svga-group-glasses-single-move" transform="matrix(1,0,0,1,0,0)">
            <g id="svga-group-glasses-single" transform="matrix(1,0,0,1,0,0)">
              <path id="SvgjsPath329880" d="M91.69 89.23c-3.71 7.46-14.12 8.15-17.78 8.15H61.79c-5.75 0-10.86-7.99-10.86-14.29v-6.16c0-0.23 0.11-0.46 0.29-0.7L91.69 89.23zM110.37 76.65c-2.07 1.43-3.39 3.35-3.39 5.92v0.5c0 2.44 0.5 4.47 1.34 6.15 3.71 7.46 14.12 8.15 17.78 8.15h12.12c4.09 0 7.85-4.05 9.68-8.66L110.37 76.65z" fill="#ffffff" stroke-width="none" opacity="0.2"/>
              <path id="SvgjsPath329881" d="M91.69 89.23L51.21 76.22c0.99-1.32 4.4-2.7 6.15-2.91 2.18-0.26 6.63-0.69 11.94-0.69 8.86 0 23.72 1.29 23.72 9.96v0.5C93.02 85.52 92.52 87.55 91.69 89.23zM149.07 83.08v-6.16c0-0.23-0.11-0.46-0.29-0.7 -0.99-1.32-4.4-2.7-6.15-2.91 -2.18-0.26-6.63-0.69-11.94-0.69 -6.23 0-15.41 0.64-20.33 4.03l37.53 12.06C148.64 86.85 149.07 84.9 149.07 83.08z" fill="#ffffff" stroke-width="none" opacity="0.4"/>
              <path id="SvgjsPath329882" d="M149.73 78.68v-1.76c0-2.1-4.9-3.99-7.01-4.25 -9.42-1.12-31.52-2.02-35.7 6.76 -2.78-0.92-5.88-1.28-7.02-1.29 -1.14 0.01-4.24 0.37-7.02 1.29 -4.17-8.77-26.27-7.88-35.7-6.76 -2.11 0.25-7.01 2.14-7.01 4.25v1.76H45.5v2.36h4.77v2.04c0 6.3 5.15 14.94 11.51 14.94h12.12c8.33 0 19.76-3.13 19.76-14.94v-0.5c0-0.76-0.1-1.46-0.29-2.12 3.46-1.07 5.55-1.29 6.62-1.31 1.07 0.01 3.16 0.24 6.62 1.31 -0.19 0.66-0.29 1.36-0.29 2.12v0.5c0 11.81 11.44 14.94 19.76 14.94h12.12c6.36 0 11.51-8.64 11.51-14.94v-2.04h4.77v-2.36H149.73zM92.86 83.08c0 13.11-14.5 14.13-18.95 14.13H61.79c-5.66 0-10.7-7.9-10.7-14.13v-6.16c0-1.31 4.09-3.18 6.29-3.44 2.17-0.26 6.62-0.69 11.92-0.69 8.8 0 23.55 1.27 23.55 9.79V83.08zM148.91 83.08c0 6.23-5.04 14.13-10.7 14.13h-12.12c-4.45 0-18.95-1.02-18.95-14.13v-0.5c0-8.52 14.76-9.79 23.55-9.79 5.31 0 9.75 0.43 11.92 0.69 2.2 0.26 6.3 2.13 6.3 3.44V83.08z" fill="#28be9c" stroke-width="none" opacity="1" stroke="none"/>
            </g>
          </g>
        </g>
      </g>
    </g>
    <rect id="SvgjsRect329612" width="200" height="15" x="0" y="185" fill="#ecf0f1" opacity="0.5" style="display: none;"/>
    <text id="SvgjsText329613" font-family="Roboto, Helvetica, Arial, sans-serif" font-size="10px" text-anchor="start" font-weight="400" anchor="start" fill="#333333" x="58.03125" y="182.4296875" style="display: none;">
      <tspan id="SvgjsTspan329614" dy="13" x="58.03125">Created on face.co</tspan>
    </text>
  </g>
</svg>
