<?xml version="1.0"?>
<svg xmlns="http://www.w3.org/2000/svg" version="1.1" width="600px" height="600px" viewBox="0 0 200 200" style="overflow:hidden!important;">
  <defs id="SvgjsDefs219148">
    <radialGradient id="SvgjsRadialGradient219214" cx="100" cy="114" r="41" gradientUnits="userSpaceOnUse" class="svga-on-canvas-facehighlight-gradient-single-0">
      <stop id="SvgjsStop219215" stop-opacity="0.5" stop-color="#e9bfa9" offset="0"/>
      <stop id="SvgjsStop219216" stop-opacity="0" stop-color="#daa488" offset="0.9"/>
    </radialGradient>
    <radialGradient id="SvgjsRadialGradient219218" cx="100" cy="54" r="37" gradientUnits="userSpaceOnUse" class="svga-on-canvas-facehighlight-gradient-single-1">
      <stop id="SvgjsStop219219" stop-opacity="0.5" stop-color="#e9bfa9" offset="0"/>
      <stop id="SvgjsStop219220" stop-opacity="0" stop-color="#daa488" offset="0.9"/>
    </radialGradient>
    <radialGradient id="SvgjsRadialGradient219307" cx="-582.838" cy="-519.099" r="59.745" gradientTransform="matrix(0.0991 8.856319e-004 -0.0011 0.0991 131.1134 135.9855)" gradientUnits="userSpaceOnUse" class="svga-on-canvas-eyesiris-gradient-left-2">
      <stop id="SvgjsStop219308" stop-opacity="1" stop-color="#ffffff" offset="0"/>
      <stop id="SvgjsStop219309" stop-opacity="0" stop-color="#ffffff" offset="1"/>
    </radialGradient>
    <linearGradient id="SvgjsLinearGradient219313" x1="122.67" y1="88.268" x2="123.606" y2="87.152" gradientTransform="matrix(1 0 0 1 -52 0)" gradientUnits="userSpaceOnUse" class="svga-on-canvas-eyesiris-gradient-left-5">
      <stop id="SvgjsStop219314" stop-opacity="1" stop-color="#ffffff" offset="0"/>
      <stop id="SvgjsStop219315" stop-opacity="0" stop-color="#ffffff" offset="1"/>
    </linearGradient>
    <linearGradient id="SvgjsLinearGradient219317" x1="127.212" y1="82.296" x2="126.463" y2="83.189" gradientTransform="matrix(1 0 0 1 -52 0)" gradientUnits="userSpaceOnUse" class="svga-on-canvas-eyesiris-gradient-left-6">
      <stop id="SvgjsStop219318" stop-opacity="1" stop-color="#ffffff" offset="0"/>
      <stop id="SvgjsStop219319" stop-opacity="0" stop-color="#ffffff" offset="1"/>
    </linearGradient>
    <linearGradient id="SvgjsLinearGradient219321" x1="129.636" y1="79.822" x2="127.91" y2="81.879" gradientTransform="matrix(1 0 0 1 -52 0)" gradientUnits="userSpaceOnUse" class="svga-on-canvas-eyesiris-gradient-left-7">
      <stop id="SvgjsStop219322" stop-opacity="1" stop-color="#ffffff" offset="0"/>
      <stop id="SvgjsStop219323" stop-opacity="0" stop-color="#ffffff" offset="1"/>
    </linearGradient>
    <radialGradient id="SvgjsRadialGradient219330" cx="-582.833" cy="-519.102" r="59.747" gradientTransform="matrix(0.0991 8.856319e-004 -0.0011 0.0991 183.1126 135.9856)" gradientUnits="userSpaceOnUse" class="svga-on-canvas-eyesiris-gradient-right-2">
      <stop id="SvgjsStop219331" stop-opacity="1" stop-color="#ffffff" offset="0"/>
      <stop id="SvgjsStop219332" stop-opacity="0" stop-color="#ffffff" offset="1"/>
    </radialGradient>
    <linearGradient id="SvgjsLinearGradient219336" x1="122.67" y1="88.268" x2="123.606" y2="87.152" gradientUnits="userSpaceOnUse" class="svga-on-canvas-eyesiris-gradient-right-5">
      <stop id="SvgjsStop219337" stop-opacity="1" stop-color="#ffffff" offset="0"/>
      <stop id="SvgjsStop219338" stop-opacity="0" stop-color="#ffffff" offset="1"/>
    </linearGradient>
    <linearGradient id="SvgjsLinearGradient219340" x1="127.212" y1="82.296" x2="126.463" y2="83.189" gradientUnits="userSpaceOnUse" class="svga-on-canvas-eyesiris-gradient-right-6">
      <stop id="SvgjsStop219341" stop-opacity="1" stop-color="#ffffff" offset="0"/>
      <stop id="SvgjsStop219342" stop-opacity="0" stop-color="#ffffff" offset="1"/>
    </linearGradient>
    <linearGradient id="SvgjsLinearGradient219344" x1="129.636" y1="79.822" x2="127.91" y2="81.879" gradientUnits="userSpaceOnUse" class="svga-on-canvas-eyesiris-gradient-right-7">
      <stop id="SvgjsStop219345" stop-opacity="1" stop-color="#ffffff" offset="0"/>
      <stop id="SvgjsStop219346" stop-opacity="0" stop-color="#ffffff" offset="1"/>
    </linearGradient>
    <radialGradient id="SvgjsRadialGradient219403" cx="127.199" cy="84.835" r="14" gradientTransform="matrix(-1 0 0 1 200 0)" gradientUnits="userSpaceOnUse" class="svga-on-canvas-eyesback-gradient-left-0">
      <stop id="SvgjsStop219404" stop-opacity="1" stop-color="#ffffff" offset="0"/>
      <stop id="SvgjsStop219405" stop-opacity="1" stop-color="#fdfefe" offset="0.544"/>
      <stop id="SvgjsStop219406" stop-opacity="1" stop-color="#f6f8f9" offset="0.74"/>
      <stop id="SvgjsStop219407" stop-opacity="1" stop-color="#eaeff2" offset="0.879"/>
      <stop id="SvgjsStop219408" stop-opacity="1" stop-color="#d9e3e8" offset="0.992"/>
      <stop id="SvgjsStop219409" stop-opacity="1" stop-color="#d8e2e7" offset="1"/>
    </radialGradient>
    <radialGradient id="SvgjsRadialGradient219411" cx="126.801" cy="84.835" r="14" gradientUnits="userSpaceOnUse" class="svga-on-canvas-eyesback-gradient-right-0">
      <stop id="SvgjsStop219412" stop-opacity="1" stop-color="#ffffff" offset="0"/>
      <stop id="SvgjsStop219413" stop-opacity="1" stop-color="#fdfefe" offset="0.544"/>
      <stop id="SvgjsStop219414" stop-opacity="1" stop-color="#f6f8f9" offset="0.74"/>
      <stop id="SvgjsStop219415" stop-opacity="1" stop-color="#eaeff2" offset="0.879"/>
      <stop id="SvgjsStop219416" stop-opacity="1" stop-color="#d9e3e8" offset="0.992"/>
      <stop id="SvgjsStop219417" stop-opacity="1" stop-color="#d8e2e7" offset="1"/>
    </radialGradient>
    <radialGradient id="SvgjsRadialGradient219419" cx="127.199" cy="84.835" r="14" gradientTransform="matrix(-1 0 0 1 200 0)" gradientUnits="userSpaceOnUse" class="svga-on-canvas-eyesfront-gradient-left-0">
      <stop id="SvgjsStop219420" stop-opacity="1" stop-color="#ffffff" offset="0"/>
      <stop id="SvgjsStop219421" stop-opacity="1" stop-color="#fdfefe" offset="0.544"/>
      <stop id="SvgjsStop219422" stop-opacity="1" stop-color="#f6f8f9" offset="0.74"/>
      <stop id="SvgjsStop219423" stop-opacity="1" stop-color="#eaeff2" offset="0.879"/>
      <stop id="SvgjsStop219424" stop-opacity="1" stop-color="#d9e3e8" offset="0.992"/>
      <stop id="SvgjsStop219425" stop-opacity="1" stop-color="#d8e2e7" offset="1"/>
    </radialGradient>
    <radialGradient id="SvgjsRadialGradient219429" cx="125.36" cy="83.943" fx="138.934" fy="82.45" r="18.705" gradientTransform="matrix(0.9998 0.0208 0.0131 -0.6281 -51.791 134.0611)" gradientUnits="userSpaceOnUse" class="svga-on-canvas-eyesfront-gradient-left-3">
      <stop id="SvgjsStop219430" stop-opacity="1" stop-color="#cb8b6a" offset="0"/>
      <stop id="SvgjsStop219431" stop-opacity="0.3" stop-color="#cb8b6a" offset="0.7"/>
      <stop id="SvgjsStop219432" stop-opacity="0" stop-color="#daa488" offset="1"/>
    </radialGradient>
    <radialGradient id="SvgjsRadialGradient219434" cx="67.679" cy="106.859" r="29.505" gradientTransform="matrix(1.0322 -0.0541 0.0541 1.0322 -5.894 5.3941)" gradientUnits="userSpaceOnUse" class="svga-on-canvas-eyesfront-gradient-left-4">
      <stop id="SvgjsStop219435" stop-opacity="0" stop-color="#000000" offset="0.95"/>
      <stop id="SvgjsStop219436" stop-opacity="0.2" stop-color="#000000" offset="1"/>
    </radialGradient>
    <radialGradient id="SvgjsRadialGradient219440" cx="126.801" cy="84.835" r="14" gradientUnits="userSpaceOnUse" class="svga-on-canvas-eyesfront-gradient-right-0">
      <stop id="SvgjsStop219441" stop-opacity="1" stop-color="#ffffff" offset="0"/>
      <stop id="SvgjsStop219442" stop-opacity="1" stop-color="#fdfefe" offset="0.544"/>
      <stop id="SvgjsStop219443" stop-opacity="1" stop-color="#f6f8f9" offset="0.74"/>
      <stop id="SvgjsStop219444" stop-opacity="1" stop-color="#eaeff2" offset="0.879"/>
      <stop id="SvgjsStop219445" stop-opacity="1" stop-color="#d9e3e8" offset="0.992"/>
      <stop id="SvgjsStop219446" stop-opacity="1" stop-color="#d8e2e7" offset="1"/>
    </radialGradient>
    <radialGradient id="SvgjsRadialGradient219450" cx="124.961" cy="83.943" fx="138.535" fy="82.45" r="18.705" gradientTransform="matrix(-0.9998 0.0208 -0.0131 -0.6281 250.9922 134.0695)" gradientUnits="userSpaceOnUse" class="svga-on-canvas-eyesfront-gradient-right-3">
      <stop id="SvgjsStop219451" stop-opacity="1" stop-color="#cb8b6a" offset="0"/>
      <stop id="SvgjsStop219452" stop-opacity="0.3" stop-color="#cb8b6a" offset="0.7"/>
      <stop id="SvgjsStop219453" stop-opacity="0" stop-color="#daa488" offset="1"/>
    </radialGradient>
    <radialGradient id="SvgjsRadialGradient219455" cx="68.065" cy="106.876" r="29.506" gradientTransform="matrix(-1.0322 -0.0541 -0.0541 1.0322 205.8938 5.3986)" gradientUnits="userSpaceOnUse" class="svga-on-canvas-eyesfront-gradient-right-4">
      <stop id="SvgjsStop219456" stop-opacity="0" stop-color="#000000" offset="0.95"/>
      <stop id="SvgjsStop219457" stop-opacity="0.2" stop-color="#000000" offset="1"/>
    </radialGradient>
    <linearGradient id="SvgjsLinearGradient219462" x1="127.637" y1="79.822" x2="125.91" y2="81.88" gradientTransform="matrix(1 0 0 1 -50 0)" gradientUnits="userSpaceOnUse" class="svga-on-canvas-eyesiris-gradient-left-1">
      <stop id="SvgjsStop219463" stop-opacity="1" stop-color="#ffffff" offset="0"/>
      <stop id="SvgjsStop219464" stop-opacity="0" stop-color="#ffffff" offset="1"/>
    </linearGradient>
    <linearGradient id="SvgjsLinearGradient219467" x1="129.637" y1="79.823" x2="127.91" y2="81.881" gradientUnits="userSpaceOnUse" class="svga-on-canvas-eyesiris-gradient-right-1">
      <stop id="SvgjsStop219468" stop-opacity="1" stop-color="#ffffff" offset="0"/>
      <stop id="SvgjsStop219469" stop-opacity="0" stop-color="#ffffff" offset="1"/>
    </linearGradient>
    <linearGradient id="SvgjsLinearGradient219473" x1="100" y1="141" x2="100" y2="137" gradientUnits="userSpaceOnUse" class="svga-on-canvas-mouth-gradient-single-0">
      <stop id="SvgjsStop219474" stop-opacity="1" stop-color="#d29779" offset="0.1"/>
      <stop id="SvgjsStop219475" stop-opacity="1" stop-color="#cb8b6a" offset="1"/>
    </linearGradient>
    <linearGradient id="SvgjsLinearGradient219509" x1="100" y1="172" x2="100" y2="133" gradientUnits="userSpaceOnUse" class="svga-on-canvas-chinshadow-gradient-single-0">
      <stop id="SvgjsStop219510" stop-opacity="0.8" stop-color="#cb8b6a" offset="0"/>
      <stop id="SvgjsStop219511" stop-opacity="1" stop-color="#ac5f38" offset="0.7"/>
    </linearGradient>
  </defs>
  <g id="svga-group-wrapper">
    <g id="svga-group-backs-single">
      <path id="SvgjsPath219368" d="M225 225H-25V-25h250V225z" fill="#ece5ce" stroke-width="none" opacity="1" stroke="none"/>
      <path id="SvgjsPath219369" d="M10 33.299L0 16.649l10-16.65 10 16.65L10 33.299zM40 16.649L30-0.001l-10 16.65 10 16.65L40 16.649zM60 16.649L50-0.001l-10 16.65 10 16.65L60 16.649zM80 16.649L70-0.001l-10 16.65 10 16.65L80 16.649zM100 16.649L90-0.001l-10 16.65 10 16.65L100 16.649zM120 16.649l-10-16.65 -10 16.65 10 16.65L120 16.649zM140 16.649l-10-16.65 -10 16.65 10 16.65L140 16.649zM160 16.649l-10-16.65 -10 16.65 10 16.65L160 16.649zM180 16.649l-10-16.65 -10 16.65 10 16.65L180 16.649zM200 16.649l-10-16.65 -10 16.65 10 16.65L200 16.649zM20 49.982l-10-16.65L0 49.982l10 16.65L20 49.982zM40 49.982l-10-16.65 -10 16.65 10 16.65L40 49.982zM60 49.982l-10-16.65 -10 16.65 10 16.65L60 49.982zM80 49.982l-10-16.65 -10 16.65 10 16.65L80 49.982zM100 49.982l-10-16.65 -10 16.65 10 16.65L100 49.982zM120 49.982l-10-16.65 -10 16.65 10 16.65L120 49.982zM140 49.982l-10-16.65 -10 16.65 10 16.65L140 49.982zM160 49.982l-10-16.65 -10 16.65 10 16.65L160 49.982zM180 49.982l-10-16.65 -10 16.65 10 16.65L180 49.982zM200 49.982l-10-16.65 -10 16.65 10 16.65L200 49.982zM20 83.316l-10-16.65L0 83.316l10 16.65L20 83.316zM40 83.316l-10-16.65 -10 16.65 10 16.65L40 83.316zM60 83.316l-10-16.65 -10 16.65 10 16.65L60 83.316zM80 83.316l-10-16.65 -10 16.65 10 16.65L80 83.316zM100 83.316l-10-16.65 -10 16.65 10 16.65L100 83.316zM120 83.316l-10-16.65 -10 16.65 10 16.65L120 83.316zM140 83.316l-10-16.65 -10 16.65 10 16.65L140 83.316zM160 83.316l-10-16.65 -10 16.65 10 16.65L160 83.316zM180 83.316l-10-16.65 -10 16.65 10 16.65L180 83.316zM200 83.316l-10-16.65 -10 16.65 10 16.65L200 83.316zM20 116.649L10 100l-10 16.65 10 16.649L20 116.649zM40 116.649L30 100l-10 16.65 10 16.649L40 116.649zM60 116.649L50 100l-10 16.65 10 16.649L60 116.649zM80 116.649L70 100l-10 16.65 10 16.649L80 116.649zM100 116.649L90 100l-10 16.65 10 16.649L100 116.649zM120 116.649L110 100l-10 16.65 10 16.649L120 116.649zM140 116.649L130 100l-10 16.65 10 16.649L140 116.649zM160 116.649L150 100l-10 16.65 10 16.649L160 116.649zM180 116.649L170 100l-10 16.65 10 16.649L180 116.649zM200 116.649L190 100l-10 16.65 10 16.649L200 116.649zM20 149.982l-10-16.649L0 149.982l10 16.649L20 149.982zM40 149.982l-10-16.649 -10 16.649 10 16.649L40 149.982zM60 149.982l-10-16.649 -10 16.649 10 16.649L60 149.982zM80 149.982l-10-16.649 -10 16.649 10 16.649L80 149.982zM100 149.982l-10-16.649 -10 16.649 10 16.649L100 149.982zM120 149.982l-10-16.649 -10 16.649 10 16.649L120 149.982zM140 149.982l-10-16.649 -10 16.649 10 16.649L140 149.982zM160 149.982l-10-16.649 -10 16.649 10 16.649L160 149.982zM180 149.982l-10-16.649 -10 16.649 10 16.649L180 149.982zM200 149.982l-10-16.649 -10 16.649 10 16.649L200 149.982zM20 183.315l-10-16.649L0 183.315l10 16.649L20 183.315zM40 183.315l-10-16.649 -10 16.649 10 16.649L40 183.315zM60 183.315l-10-16.649 -10 16.649 10 16.649L60 183.315zM80 183.315l-10-16.649 -10 16.649 10 16.649L80 183.315zM100 183.315l-10-16.649 -10 16.649 10 16.649L100 183.315zM120 183.315l-10-16.649 -10 16.649 10 16.649L120 183.315zM140 183.315l-10-16.649 -10 16.649 10 16.649L140 183.315zM160 183.315l-10-16.649 -10 16.649 10 16.649L160 183.315zM180 183.315l-10-16.649 -10 16.649 10 16.649L180 183.315zM200 183.315l-10-16.649 -10 16.649 10 16.649L200 183.315z" fill="#ddd1ab" stroke-width="none" opacity="1" stroke="none"/>
    </g>
    <g id="svga-group-humanwrap-move" transform="matrix(1,0,0,1,0,0)">
      <g id="svga-group-humanwrap" transform="matrix(1,0,0,1,0,0)">
        <g id="svga-group-hair-back-move" transform="matrix(1,0,0,1,0,0)">
          <g id="svga-group-hair-back" transform="matrix(1,0,0,1,0,0)">
            <path id="SvgjsPath219381" d="M100.5,100.5h-1v-1h1V100.5z" fill="#b84131" stroke-width="none" opacity="1" stroke="none"/>
          </g>
        </g>
        <g id="svga-group-humanbody-single">
          <path id="SvgjsPath219221" d="M195.417 199.778c-2.196-4.746-8.195-11.779-14.86-13.722 -8.239-2.403-26.837-5.308-33.733-6.923 -5.528-1.296-16.662-11.294-20.564-14.65 -0.7-0.6-1.273-1.839-1.287-2.76 -0.139-10.864 4.195-39.724 4.195-39.724H100 70.833c0 0 4.334 28.859 4.193 39.724 -0.011 0.921-0.587 2.16-1.285 2.76 -3.902 3.356-15.036 13.354-20.564 14.65 -6.897 1.615-25.495 4.619-33.733 7.022 -6.667 1.942-12.664 8.876-14.86 13.622 -3.708 8.008-4.584 22.5-4.584 35h100 100C200 222.278 199.123 207.786 195.417 199.778z" fill="#daa488" stroke-width="none" opacity="1" stroke="none"/>
          <path id="SvgjsPath219222" d="M159.156 184.058c24.342 3.542 34.586 8.708 37.794 50.721H200c0-12.5-0.877-26.992-4.583-35 -2.196-4.746-8.195-11.779-14.86-13.722 -8.239-2.403-26.837-5.308-33.733-6.923 -5.528-1.296-18.242-12.069-21.643-16.35 3.36 4.704 12.791 15.605 21.054 18.46C150.188 182.61 153.48 183.232 159.156 184.058zM53.766 181.244c8.263-2.854 17.693-13.756 21.054-18.46 -3.4 4.28-16.114 15.054-21.643 16.35 -6.896 1.615-25.494 4.619-33.733 7.022 -6.665 1.942-12.664 8.876-14.86 13.622 -3.706 8.008-4.583 22.5-4.583 35h3.05c3.188-41.744 13.475-47.183 37.794-50.721C46.52 183.232 49.813 182.61 53.766 181.244z" fill="#e9bfa9" stroke-width="none" opacity="1" stroke="none"/>
          <path id="SvgjsPath219223" d="M95.646 197.62c0 0-5.074-1.609-7.083-2.379 -10.449-4.009-44.395-6.607-44.395-6.607s35.754 1.419 43.644 2.779c-0.458-4.767-3.017-20.004-3.017-20.004s5.149 16.815 6.409 21.057C91.878 194.734 95.646 197.62 95.646 197.62zM106.445 196.278c-0.089 0.073-0.191 0.168-0.302 0.268C106.256 196.461 106.358 196.372 106.445 196.278zM95.646 197.62c0 0 2.893 2.992 4.347 3.03 1.91 0.051 4.828-2.899 6.151-4.104 -1.265 0.957-4.159 1.391-5.31 1.436C99.504 198.033 95.646 197.62 95.646 197.62zM116.664 190.101c-1.545 0.248-4.386 0.789-4.386 0.789l2.287-14.89c-0.646 3.071-4.474 16.211-8.12 20.278 1.91-1.616 6.158-2.391 8.324-2.704 10.236-1.484 10.232-1.483 41.062-4.94C155.831 188.634 126.76 188.479 116.664 190.101z" fill="#cb8b6a" stroke-width="none" opacity="1" stroke="none"/>
          <path id="SvgjsPath219224" d="M195.417 199.778c-2.196-4.746-8.195-11.779-14.86-13.722 -8.239-2.403-26.837-5.308-33.733-6.923 -5.528-1.296-16.662-11.294-20.564-14.65 -0.7-0.6-1.273-1.839-1.287-2.76 -0.139-10.864 4.195-39.724 4.195-39.724H100 70.833c0 0 4.334 28.859 4.193 39.724 -0.011 0.921-0.587 2.16-1.285 2.76 -3.902 3.356-15.036 13.354-20.564 14.65 -6.897 1.615-25.495 4.619-33.733 7.022 -6.667 1.942-12.664 8.876-14.86 13.622 -3.708 8.008-4.584 22.5-4.584 35h100 100C200 222.278 199.123 207.786 195.417 199.778z" fill="none" stroke="#ac5f38" stroke-width="1.5" opacity="1"/>
        </g>
        <g id="svga-group-chinshadow-single">
          <path id="SvgjsPath219508" d="M124.253 159.292c0.209-6.588 1.387-16.822 2.44-24.934 -15.046-2.317-38.404-2.272-53.372 0.112 1.041 8.028 2.198 18.103 2.419 24.664 8.455 6.921 18.045 12.742 24.414 12.731C106.453 171.856 115.887 166.136 124.253 159.292z" fill="url(#SvgjsLinearGradient219509)" opacity="1"/>
        </g>
        <g id="svga-group-clothes-single">
          <path id="SvgjsPath219489" d="M42.77 235.757l1.323-60.852c0 0 10.194-2.487 16.635-6.313 17.496 21.953 69.451 17.333 78.336-0.62 1.489 0.525 2.721 1.197 4.262 1.713 5 3.386 9.213 4.494 9.213 4.494l0.935 61.685C139.188 236.052 42.77 235.757 42.77 235.757z" fill="#f5f4f5" stroke-width="none" opacity="1"/>
          <path id="SvgjsPath219490" d="M154.014 177.705c-4.236-0.719-7.611-1.697-9.452-3.544 -5.343 10.025-26.763 16.378-33.855 17.309 20.554-6.276 29.188-10.813 32.598-21.583 1.99 2.383 6.522 3.549 12.313 4.538L154.014 177.705zM52.67 174.381c1.454-0.312 2.18-1.234 3.623-1.593l-1.528-1.867c-3.114 2.234-8.971 3.305-15.9 4.424l0.188 3.738c3.956-0.79 7.817-1.788 11.429-3.323 7.483 8.485 19.168 12.659 31.06 14.387C66.624 186.562 58.07 180.511 52.67 174.381z" fill="#ffffff" stroke-width="none" opacity="1"/>
          <path id="SvgjsPath219491" d="M137.861 170.055c-5.929 11.361-50.74 24.595-76.009 0.866 -1.571 0.615-6.271 2.085-6.271 2.085 18.406 23.08 72.345 23.227 86.702-0.112C142.221 172.87 139.321 170.737 137.861 170.055z" fill="#dfdde2" stroke-width="none" opacity="1"/>
          <path id="SvgjsPath219492" d="M139.008 167.841c-10.087 18.575-62.578 21.204-78.239 0.625 -5.72 1.556-11.219 4.876-16.756 5.707l-1.243 61.584 110.703 0.107 -0.855-62.386c-3.369-0.707-6.501-2.737-9.254-3.894C141.842 168.945 140.55 168.37 139.008 167.841zM60.39 169.087c13.903 23.086 68.817 18.455 79.419 0.099 1.286 0.499 1.615 0.696 3.106 1.183 -10.982 21.208-65.306 27.967-87.525 1.147C55.546 171.476 58.823 169.629 60.39 169.087zM54.287 172.418c17.963 27.046 77.26 22.856 89.583-1.287 1.771 1.391 4.53 2.989 7.936 3.735l1.66 59.08 -110.377 0.016 1.904-58.299C47.777 174.264 52.247 173.232 54.287 172.418z" fill="#b8b6c9" stroke-width="none" opacity="1"/>
          <path id="SvgjsPath219493" d="M-4.529 235.566c-2.574-13.852-2.292-47.592 9.013-47.521 13.136-5.311 29.269-11.404 42.802-15.311 6.908-7.246 13.436-14.137 26.188-21.314 0.389 2.599 1.874 8.541 0.011 11.773 -1.355 2.352-5.783 5.576-9.554 8.368 -2.029 2.72-3.927 5.374-6.599 9.089 5.168 22.301 9.601 33.78 10.097 53.123 0 0-1.452 0.689 64.471 0.397 2.215-22.339 4.993-33.561 10.379-54.098 0 0-4.308-5.014-7.207-8.87 -2.054-1.997-8.36-7.532-8.84-8.651 -1.175-2.741-0.548-6.188 0.11-11.367 10.793 4.873 17 12.021 26.082 21.303 7.729 2.119 30.86 9.967 42.445 15.216 3.965-0.11 6.203 1.999 7.872 5.466 5.405 11.195 4.126 27.297 2.18 42.789C185.83 235.989 49.887 238.17-4.529 235.566z" fill="#cbe9ee" stroke-width="none" opacity="1" stroke="none"/>
          <path id="SvgjsPath219494" d="M73.875 154.081c0.16 1.07 0.304 2.085 0.411 3.041 -0.218 0.266-17.212 23.353-17.336 23.525C61.126 171.148 67.1 161.305 73.875 154.081zM126.053 154.081c-0.159 1.07-0.184 2.085-0.291 3.041 0.218 0.266 16.931 22.469 17.054 22.642C138.391 170.914 132.828 161.305 126.053 154.081zM165.008 185.154c-4.28 6.231-5.194 8.382-9.879 14.557 1.071 0 2.799 0.166 3.87 0.166C162.663 193.592 162.67 190.393 165.008 185.154zM169.394 230.379c3.793-8.9 6.934-16.711 10.739-25.624l-1.247-2.014C175.717 211.896 172.354 221.199 169.394 230.379zM41.048 199.877c1.071 0 2.799-0.166 3.871-0.166 -4.685-6.175-5.599-6.561-9.878-12.792C37.377 192.158 37.384 193.592 41.048 199.877zM21.161 202.741l-1.247 2.014c3.806 8.913 4.765 16.724 8.559 25.624C25.512 221.199 24.33 211.896 21.161 202.741z" fill="#a8d7df" stroke-width="none" opacity="1" stroke="none"/>
          <path id="SvgjsPath219495" d="M65.638 169.283c1.181-1.646 5.237-7.272 8.601-12.561C75.227 162.179 73.413 165.416 65.638 169.283zM125.74 156.36c2.553 4.396 5.562 8.772 8.664 12.803C126 165.336 125.435 161.423 125.74 156.36z" fill="#87c5cf" stroke-width="none" opacity="1" stroke="none"/>
          <path id="SvgjsPath219496" d="M126.318 151.359c0.008-0.061 0.017-0.118 0.023-0.174 18.093 9.999 28.576 25.02 40.747 36.217 -0.448 0.721-1.228 1.193-1.687 1.905C152.656 179.609 146.599 164.946 126.318 151.359zM71.736 152.022c-15.034 8.213-36.242 33.357-38.318 35.269 0.448 0.724 0.691 0.577 1.15 1.288C47.314 178.882 50.793 169.283 71.736 152.022zM194.869 187.704c-1-0.799-24.646-10.039-42.59-14.969 33.698 16.299 45.587 18.545 51.471 24.321C203.367 196.057 202.586 187.489 194.869 187.704zM47.458 172.555c-13.524 3.914-30.839 10.098-42.975 15.491 -5.364 0.106-9.208 7.93-10.031 16.084C1.914 187.317-1.773 198.62 47.458 172.555z" fill="#f1fcfd" stroke-width="none" opacity="1" stroke="none"/>
          <path id="SvgjsPath219497" d="M206.6 210.062c-0.34-8.635-3.055-23.103-11.691-22.46 -0.714-0.61-20.822-9.767-42.285-15.611 -7.353-7.455-16.515-17.598-26.371-20.957 -0.711 6.428-1.477 10.622 0.216 12.714 2.241 2.439 4.93 4.879 7.568 6.522 4.616 6.136 8.139 9.778 8.139 9.778 -5.43 20.703-8.815 31.314-10.973 53.688H68.798c-2.157-22.373-5.543-32.984-10.973-53.688 0 0 3.522-3.643 8.139-9.778 2.639-1.644 5.327-4.083 7.568-6.522 1.692-2.092 0.927-6.286 0.216-12.714 -9.856 3.359-19.019 13.502-26.371 20.957 -21.463 5.845-41.571 15.001-42.285 15.611 -8.637-0.643-11.352 13.825-11.691 22.46 -0.411 10.487 1.435 24.938 1.585 25.938h210.029C205.165 234.999 207.011 220.549 206.6 210.062zM72.984 163.194c-2.258 2.233-3.658 3.181-6.473 5.282 4.829-6.271 4.341-5.433 7.708-11.229C74.37 159.739 73.433 162.751 72.984 163.194zM-3.172 234.028c-1.082-12.844-2.916-24.41 0.43-36.992 1.281-4.827 2.484-8.095 7.455-8.509 1.067 5.538 8.132 28.724 14.298 44.533 -6.226-24.192-5.311-18.81-8.219-28.452 -0.964-3.235-1.854-6.486-2.979-9.672 -0.783-2.214-1.65-4.387-2.262-6.653l40.433-14.865c-0.279 0.283-12.895 13.434-13.199 13.804 1.847 3.021 7.816 7.222 10.845 11.758 -12.436 1.174-18.508 3.173-23 3.84 0.331 0.919 9.061 25.353 9.976 27.656 -1.479-7.917-4.816-20.297-8.637-27.211 1.41-0.179 18.077-2.492 23.393-3.477 -1.476-2.854-8.043-8.437-11.559-12.619 20.646-18.162 25.422-27.402 39.593-35.454 0.15 1.509 0.443 3.011 0.55 4.519 -15.795 23.533-17.649 23.567-17.649 23.567 4.585 17.81 10.532 35.824 10.532 54.073L-3.172 234.028zM127.016 163.194c-0.448-0.443-1.386-3.455-1.235-5.947 3.367 5.797 2.879 4.958 7.708 11.229C130.674 166.375 129.273 165.428 127.016 163.194zM203.172 234.028l-70-0.154c0-18.249 5.947-36.264 10.532-54.073 0 0-1.854-0.034-17.649-23.567 0.106-1.508 0.399-3.01 0.55-4.519 14.171 8.052 18.946 17.292 39.593 35.454 -3.516 4.183-10.083 9.766-11.559 12.619 5.315 0.984 21.982 3.298 23.393 3.477 -3.82 6.914-7.157 19.294-8.637 27.211 0.915-2.304 9.645-26.737 9.976-27.656 -4.492-0.667-10.564-2.666-23-3.84 3.028-4.536 8.998-8.736 10.845-11.758 -0.305-0.37-12.92-13.521-13.199-13.804 0.001 0 40.433 14.865 40.433 14.865 -0.611 2.267-1.479 4.439-2.262 6.653 -1.125 3.186-2.015 6.437-2.979 9.672 -2.908 9.643-1.993 4.26-8.219 28.452 6.166-15.81 13.23-38.995 14.298-44.533 4.971 0.414 6.174 3.682 7.455 8.509C206.088 209.618 204.254 221.185 203.172 234.028z" fill="#6ab4c0" stroke-width="none" opacity="1" stroke="none"/>
        </g>
        <g id="svga-group-head" transform="matrix(1,0,0,1,0,0)">
          <g id="svga-group-ears-left-move" transform="matrix(1,0,0,1,0,0)">
            <g id="svga-group-ears-left" transform="matrix(1,0,0,1,0,0)">
              <path id="SvgjsPath219484" d="M47.001 83.231c-1.376-2.453-5.638-8.48-9.98-7.003 -2.749 0.935-3.293 3.993-3.735 6.693 -0.588 3.591 0.471 10.694 1.389 13.26 0.881 2.467 3.533 7.23 5.264 9.045 2.13 2.225 4.775 9.324 5.194 10.061 0.66 1.162 1.536 2.911 4.122 2.692 2.853-0.244 4.584-1.85 5.856-2.121C58.253 115.192 50.582 89.616 47.001 83.231z" fill="#daa488" stroke="#ac5f38" stroke-width="1.5" opacity="1"/>
              <path id="SvgjsPath219485" d="M44.197 98.104c-0.132-0.581 0.007-1.56 0.142-2.504 0.124-0.861 0.24-1.675 0.169-2.251 -0.267-2.154-1.773-6.249-2.757-8.467 -1.132-2.554-2.963-5.77-5.262-6.599 -0.95-0.343-1.575 0.067-1.938 0.484 -0.266 0.305-0.325 0.665-0.238 0.707 0.086 0.042 0.285-0.254 0.572-0.535 0.235-0.229 0.579-0.426 1.051-0.385 -0.19 1.073-1.167 6.883-0.744 10.845 0.333 3.115 1.593 5.442 1.79 5.791 0.029 0.367 0.077 0.726 0.148 1.075 0.929 4.547 4.971 9.717 6.378 11.409 0.259 0.313 0.531 0.497 0.598 0.423 0.066-0.076-0.094-0.387-0.353-0.7 -1.388-1.679-5.391-6.831-6.289-11.218 -0.952-4.656 2.318-11.556 3.048-13.017 0.371 0.685 0.687 1.344 0.93 1.893 0.19 0.431 0.402 0.936 0.619 1.479 -0.429 0.762-3.434 6.32-2.338 10.767 0.406 1.641 2.235 3.755 3.447 4.333 0.667 0.32 0.919 0.797 1.209 1.349 0.336 0.64 0.718 1.365 1.828 1.892 0.225 0.108 0.429 0.151 0.61 0.151 0.313 0 0.551-0.135 0.725-0.293 0.018 0.28 0.017 0.64 0.009 0.97 -0.012 0.431 0.042 0.783 0.137 0.791 0.094 0.008 0.196-0.332 0.207-0.76 0.016-0.526 0.013-1.177-0.072-1.488 -0.248-0.917-1.008-1.953-1.813-3.048C45.221 100.116 44.403 99.003 44.197 98.104zM36.95 94.073c-2.177-7.139 0.656-13.3 1.144-14.28 0.85 0.822 1.6 1.919 2.21 2.995C39.86 83.646 37.041 89.271 36.95 94.073zM46.341 104.515c-1.004-0.475-1.339-1.115-1.666-1.733 -0.293-0.559-0.598-1.136-1.369-1.505 -0.168-0.081-0.352-0.203-0.542-0.343 -2.486-6.263 0.272-9.001 0.963-9.562 0.211 0.766 0.369 1.468 0.439 2.031 0.063 0.517-0.052 1.339-0.167 2.134 -0.142 0.985-0.286 2.004-0.137 2.664 0.226 0.982 1.069 2.131 1.884 3.242 0.723 0.986 1.466 2.003 1.721 2.832C47.359 104.439 47.017 104.836 46.341 104.515z" fill="#ac5f38" stroke-width="none" opacity="1" stroke="none"/>
            </g>
          </g>
          <g id="svga-group-ears-right-move" transform="matrix(1,0,0,1,0,0)">
            <g id="svga-group-ears-right" transform="matrix(1,0,0,1,0,0)">
              <path id="SvgjsPath219486" d="M152.736 83.231c1.377-2.453 5.639-8.48 9.98-7.003 2.75 0.935 3.293 3.993 3.736 6.693 0.588 3.591-0.471 10.694-1.389 13.26 -0.881 2.467-3.533 7.23-5.266 9.045 -2.129 2.225-4.775 9.324-5.193 10.061 -0.658 1.162-1.535 2.911-4.121 2.692 -2.854-0.244-4.584-1.85-5.857-2.121C141.484 115.192 149.156 89.616 152.736 83.231z" fill="#daa488" stroke="#ac5f38" stroke-width="1.5" opacity="1"/>
              <path id="SvgjsPath219487" d="M153.727 101.196c-0.805 1.096-1.564 2.131-1.813 3.048 -0.086 0.311-0.088 0.962-0.072 1.488 0.012 0.428 0.113 0.768 0.207 0.76s0.148-0.36 0.137-0.791c-0.008-0.331-0.008-0.69 0.01-0.97 0.174 0.158 0.412 0.293 0.725 0.293 0.182 0 0.385-0.043 0.609-0.151 1.109-0.526 1.492-1.252 1.828-1.892 0.289-0.552 0.543-1.028 1.209-1.349 1.213-0.578 3.041-2.692 3.447-4.333 1.096-4.447-1.908-10.005-2.338-10.767 0.217-0.544 0.43-1.049 0.619-1.479 0.244-0.549 0.559-1.208 0.93-1.893 0.73 1.46 4 8.361 3.049 13.017 -0.896 4.387-4.9 9.539-6.289 11.218 -0.258 0.313-0.418 0.624-0.352 0.7 0.066 0.074 0.338-0.109 0.598-0.423 1.406-1.692 5.449-6.862 6.379-11.409 0.07-0.35 0.117-0.708 0.146-1.075 0.197-0.349 1.459-2.676 1.791-5.791 0.422-3.961-0.555-9.772-0.744-10.845 0.473-0.042 0.814 0.156 1.051 0.385 0.287 0.281 0.486 0.577 0.572 0.535 0.086-0.042 0.027-0.402-0.238-0.707 -0.363-0.417-0.988-0.827-1.938-0.484 -2.299 0.83-4.131 4.045-5.262 6.599 -0.984 2.218-2.49 6.313-2.758 8.467 -0.072 0.576 0.045 1.39 0.17 2.251 0.135 0.945 0.273 1.924 0.141 2.504C155.336 99.003 154.518 100.116 153.727 101.196zM159.434 82.787c0.611-1.075 1.361-2.173 2.211-2.995 0.488 0.98 3.32 7.141 1.145 14.28C162.697 89.271 159.879 83.646 159.434 82.787zM152.27 104.275c0.254-0.829 0.998-1.846 1.721-2.832 0.816-1.111 1.658-2.26 1.885-3.242 0.148-0.66 0.004-1.679-0.137-2.664 -0.115-0.795-0.23-1.617-0.166-2.134 0.068-0.563 0.227-1.266 0.438-2.031 0.691 0.561 3.449 3.299 0.965 9.562 -0.191 0.14-0.375 0.263-0.543 0.343 -0.771 0.369-1.074 0.946-1.369 1.505 -0.326 0.618-0.662 1.258-1.666 1.733C152.721 104.836 152.379 104.439 152.27 104.275z" fill="#ac5f38" stroke-width="none" opacity="1" stroke="none"/>
            </g>
          </g>
          <g id="svga-group-faceshape-wrap" transform="matrix(1,0,0,1,0,0)">
            <g id="svga-group-faceshape-single">
              <path id="SvgjsPath219505" d="M158.918 78.006l-0.005 0c-0.012 0.054-9.983 41.375-18.186 54.159 -6.452 10.056-28.899 29.684-40.573 29.701 -11.671 0.021-34.17-19.539-40.652-29.576 -8.242-12.758-18.353-54.042-18.365-54.096h-0.001c-1.298-4.992-1.994-10.231-2.002-15.634C39.082 28.536 66.289 0.92 99.907 0.867c33.621-0.053 60.913 27.476 60.963 61.499C160.879 67.769 160.201 73.01 158.918 78.006z" fill="#daa488" stroke-width="none" opacity="1" stroke="none"/>
              <path id="SvgjsPath219506" d="M124.597 6.119c18.568 10.001 31.371 30.966 31.404 55.247 0.008 5.403-0.616 10.644-1.796 15.641l-0.005 0c-0.011 0.054-9.185 41.375-16.73 54.159 -5.937 10.056-26.588 29.684-37.327 29.701 -10.737 0.021-31.437-19.539-37.4-29.576 -7.582-12.758-16.885-54.042-16.896-54.096h-0.001c-1.195-4.992-1.835-10.231-1.842-15.634C43.969 37.217 56.775 16.161 75.391 6.126 54.006 15.706 39.096 37.37 39.134 62.56c0.008 5.403 0.704 10.643 2.002 15.634h0.001c0.012 0.054 10.123 41.338 18.365 54.096 6.482 10.037 28.981 29.597 40.652 29.576 11.673-0.018 34.121-19.646 40.573-29.701 8.202-12.784 18.174-54.105 18.186-54.159l0.005 0c1.283-4.997 1.961-10.237 1.952-15.641C160.833 37.238 145.928 15.667 124.597 6.119z" fill="#d29779" stroke-width="none" opacity="1" stroke="none"/>
              <path id="SvgjsPath219507" d="M158.918 78.006l-0.005 0c-0.012 0.054-9.983 41.375-18.186 54.159 -6.452 10.056-28.899 29.684-40.573 29.701 -11.671 0.021-34.17-19.539-40.652-29.576 -8.242-12.758-18.353-54.042-18.365-54.096h-0.001c-1.298-4.992-1.994-10.231-2.002-15.634C39.082 28.536 66.289 0.92 99.907 0.867c33.621-0.053 60.913 27.476 60.963 61.499C160.879 67.769 160.201 73.01 158.918 78.006z" fill="none" stroke="#ac5f38" stroke-width="1.5" opacity="1"/>
            </g>
          </g>
          <g id="svga-group-mouth-single-move" transform="matrix(1,0,0,1,0,0)">
            <g id="svga-group-mouth-single" transform="matrix(1,0,0,1,0,0)">
              <path id="SvgjsPath219472" d="M100.671 140.999c-5.683-0.008-7.963-3.983-7.963-3.983 6.845 2.441 15.408 0.264 15.408 0.264S106.377 141.008 100.671 140.999z" fill="url(#SvgjsLinearGradient219473)" opacity="1"/>
              <path id="SvgjsPath219476" d="M81.783 130.557c3.57-0.112 10.625-0.609 13.211-0.457 1.337 0.079 3.53 0.999 4.971 1.313 1.003 0.22 4.814-0.817 5.842-0.822 2.687-0.017 8.513 1.274 11.642 1.782 0.173 0.027 0 0 0 0s-7.699 6.575-17.56 6.143C88.728 138.025 81.783 130.557 81.783 130.557S81.606 130.562 81.783 130.557z" fill="#da7c87" stroke-width="none" opacity="1" stroke="none"/>
              <path id="SvgjsPath219477" d="M117.743 132.177c-0.085-0.126-0.641-0.245-0.846-0.221 -0.373 0.044-0.643 0.389-1.425 0.458 -0.904 0.084-5.695 0.815-7.002 0.782 -2.629-0.064-5.647 0.561-8.157 0.451 -2.513-0.11-6.464-1.159-9.077-1.344 -1.297-0.092-6.623-1.333-7.505-1.507 -0.759-0.15-0.82-0.506-1.125-0.607 -0.215-0.074-0.832-0.023-0.999 0.09 -0.145 0.1-0.1 0.557 0.001 0.683 0.248 0.305 1.167 0.435 1.838 0.568 0.931 0.184 6.336 1.438 7.67 1.532 2.586 0.186 6.589 1.303 9.123 1.414 2.532 0.112 5.608-0.587 8.21-0.521 1.338 0.034 6.197-0.699 7.156-0.784 0.694-0.064 1.556-0.179 1.876-0.402C117.634 132.664 117.826 132.309 117.743 132.177z" fill="#ac2e3d" stroke-width="none" opacity="1" stroke="none"/>
              <path id="SvgjsPath219478" d="M99.999 137.244c-4.411-0.192-11.369-1.912-14.032-4.152 1.629 0.195 5.155 0.481 6.772 0.693 1.997 0.265 4.761 1.003 6.795 1.192 2.196 0.202 5.2-0.237 7.342-0.422 1.79-0.153 4.563-0.661 6.35-0.72C110.221 135.628 104.257 137.43 99.999 137.244zM107.157 132.606c1.602-0.081 4.101-0.628 5.694-0.675 -1.796-0.491-4.499-0.493-6.406-0.697 -1.646-0.174-4.155 0.69-5.787 0.804 -1.838 0.132-4.022-1.204-5.733-1.333 -1.857-0.138-5.733 0.283-7.555 0.604 1.556 0.17 4.94 0.433 6.472 0.682 1.878 0.306 4.573 0.966 6.522 1.052C102.362 133.131 105.183 132.708 107.157 132.606z" fill="#e28c96" stroke-width="none" opacity="1" stroke="none"/>
              <path id="SvgjsPath219479" d="M100.006 136.455c-2.626-0.118-6.989-1.062-8.873-2.365 0.482 0.022 1.884 0.146 2.348 0.189 0.146 0.015 0.293 0.031 0.438 0.05 0.757 0.101 1.489 0.304 2.271 0.515 0.759 0.207 2.481 0.47 3.329 0.557 0.167 0.019 0.333 0.027 0.501 0.034 1.043 0.048 2.983-0.061 3.943-0.21 0.609-0.095 1.182-0.192 1.77-0.247 0.32-0.032 0.669-0.047 1.061-0.049 0.336-0.003 0.689 0.006 1.036 0.017C106.063 135.841 102.713 136.574 100.006 136.455z" fill="#e99ca5" stroke-width="none" opacity="1" stroke="none"/>
              <path id="SvgjsPath219480" d="M79.382 131.481c0 0-0.708-1.188-0.609-1.633 0.139-0.619 1.923-1.85 1.923-1.85s-1.08 1.415-1.247 1.863C79.288 130.294 79.382 131.481 79.382 131.481z" fill="#ac5f38" stroke-width="none" opacity="1" stroke="none"/>
            </g>
          </g>
          <g id="svga-group-eyes-left-move" transform="matrix(1,0,0,1,0,0)">
            <g id="svga-group-eyes-left" transform="matrix(1,0,0,1,0,0)">
              <g id="svga-group-eyesback-left">
                <path id="SvgjsPath219402" d="M78.863 89.23c-4.31 0.755-7.656 0.71-10.688-0.204 -3.127-0.943-7.188-4.825-8.596-8.495 3.715-0.277 11.349-0.597 14.89-0.154 4.688 0.586 9.474 2.406 12.305 5.236 -0.016 0.294-0.053 0.583-0.087 0.872C84.401 88.032 81.166 88.826 78.863 89.23z" fill="url(#SvgjsRadialGradient219403)" opacity="1"/>
              </g>
              <g id="svga-group-eyesiriswrapper-left" transform="matrix(1,0,0,1,0.25,0.25)">
                <g id="svga-group-eyesiriscontrol-left" transform="matrix(1,0,0,1,0,0)">
                  <g id="svga-group-eyesiris-left" transform="matrix(1,0,0,1,0,0)">
                    <path id="SvgjsPath219460" d="M79.788 85.588c-0.869 3.192-4.162 5.073-7.361 4.196 -3.197-0.876-5.084-4.178-4.214-7.371 0.869-3.195 4.168-5.076 7.365-4.198C78.772 79.09 80.659 82.392 79.788 85.588z" fill="#282978" stroke="#02034a" stroke-width="0.5" opacity="1"/>
                    <path id="SvgjsPath219461" d="M78.717 82.673c-0.569 0.873-2.036 0.925-3.276 0.117 -1.24-0.808-1.784-2.17-1.215-3.043 0.568-0.872 2.036-0.924 3.276-0.117C78.74 80.439 79.284 81.802 78.717 82.673L78.717 82.673z" fill="url(#SvgjsLinearGradient219462)" opacity="0.7"/>
                  </g>
                </g>
              </g>
              <g id="svga-group-eyesfront-left">
                <path id="SvgjsPath219427" d="M55.8 85.001c0 13.808 8.06 24.999 18 24.999s18-11.191 18-24.999C91.8 71.192 83.74 60 73.8 60S55.8 71.192 55.8 85.001zM59.58 80.531c3.715-0.277 11.349-0.597 14.89-0.154 4.952 0.619 10.04 2.6 12.788 5.71 -2.289 1.82-5.897 2.705-8.395 3.143 -4.31 0.755-7.656 0.71-10.688-0.204C65.049 88.083 60.988 84.201 59.58 80.531z" fill="#daa488" stroke-width="none" opacity="1" stroke="none"/>
                <path id="SvgjsPath219428" d="M55.942 83.916c0.027 8.284 8.484 14.962 18.902 14.919 10.414-0.047 18.836-6.796 18.813-15.08 -0.027-8.285-8.486-14.963-18.902-14.92C64.339 68.882 55.919 75.631 55.942 83.916zM59.58 80.531c3.715-0.277 11.349-0.597 14.89-0.154 4.952 0.619 10.04 2.6 12.788 5.71 -2.289 1.82-5.897 2.705-8.395 3.143 -4.31 0.755-7.656 0.71-10.688-0.204C65.049 88.083 60.988 84.201 59.58 80.531z" fill="url(#SvgjsRadialGradient219429)" opacity="1"/>
                <path id="SvgjsPath219433" d="M59.58 80.531c3.715-0.277 11.349-0.597 14.89-0.154 4.952 0.619 10.04 2.6 12.788 5.71 -2.289 1.82-5.897 2.705-8.395 3.143 -4.31 0.755-7.656 0.71-10.688-0.204C65.049 88.083 60.988 84.201 59.58 80.531z" fill="url(#SvgjsRadialGradient219434)" opacity="1"/>
                <path id="SvgjsPath219437" d="M67.563 77.096c10.603-0.48 13.849 1.478 18.339 4.3C78.442 77.023 69.03 77.042 67.563 77.096zM59.597 84.153c2.854 5.494 4.797 4.894 7.531 6.058 0.025 0.009-1.51-0.579-2.664-1.196C61.474 87.296 61.108 86.564 59.597 84.153z" fill="#ac5f38" stroke-width="none" opacity="1" stroke="none"/>
                <path id="SvgjsPath219438" d="M58.468 79.966c2.857 5.992 4.761 9.926 14.332 10.071 7.283 0.109 11.794-0.564 15.584-3.374 -3.395-5.194-7.754-6.771-13.57-7.358C68.915 78.709 58.468 79.966 58.468 79.966zM60.505 80.827c3.467-0.258 10.59-0.557 13.895-0.144 4.621 0.577 9.369 2.426 11.934 5.328 -2.137 1.699-5.504 2.524-7.834 2.933 -4.021 0.705-7.145 0.663-9.973-0.19C65.608 87.875 61.819 84.252 60.505 80.827z" fill="#782c76" stroke-width="none" opacity="1" stroke="none"/>
              </g>
            </g>
          </g>
          <g id="svga-group-eyes-right-move" transform="matrix(1,0,0,1,0,0)">
            <g id="svga-group-eyes-right" transform="matrix(1,0,0,1,0,0)">
              <g id="svga-group-eyesback-right">
                <path id="SvgjsPath219410" d="M120.737 89.23c4.31 0.755 7.656 0.71 10.688-0.204 3.127-0.943 7.188-4.825 8.596-8.495 -3.715-0.277-11.349-0.597-14.89-0.154 -4.688 0.586-9.474 2.406-12.305 5.236 0.016 0.294 0.053 0.583 0.087 0.872C115.199 88.032 118.435 88.826 120.737 89.23z" fill="url(#SvgjsRadialGradient219411)" opacity="1"/>
              </g>
              <g id="svga-group-eyesiriswrapper-right" transform="matrix(1,0,0,1,-0.25,0.25)">
                <g id="svga-group-eyesiriscontrol-right" transform="matrix(1,0,0,1,0,0)">
                  <g id="svga-group-eyesiris-right" transform="matrix(1,0,0,1,0,0)">
                    <path id="SvgjsPath219465" d="M131.788 85.588c-0.869 3.192-4.162 5.073-7.362 4.196 -3.196-0.876-5.084-4.178-4.214-7.371 0.869-3.195 4.169-5.076 7.365-4.198C130.772 79.09 132.658 82.392 131.788 85.588z" fill="#282978" stroke="#02034a" stroke-width="0.5" opacity="1"/>
                    <path id="SvgjsPath219466" d="M130.717 82.673c-0.569 0.873-2.036 0.925-3.276 0.117 -1.239-0.808-1.784-2.17-1.215-3.043 0.568-0.872 2.035-0.924 3.275-0.117C130.74 80.439 131.284 81.802 130.717 82.673L130.717 82.673z" fill="url(#SvgjsLinearGradient219467)" opacity="0.7"/>
                  </g>
                </g>
              </g>
              <g id="svga-group-eyesfront-right">
                <path id="SvgjsPath219448" d="M125.801 60c-9.94 0-18 11.193-18 25.001 0 13.808 8.06 24.999 18 24.999s18-11.191 18-24.999C143.801 71.192 135.741 60 125.801 60zM131.425 89.026c-3.031 0.914-6.378 0.959-10.688 0.204 -2.497-0.438-6.105-1.323-8.395-3.143 2.748-3.11 7.836-5.091 12.788-5.71 3.541-0.443 11.175-0.123 14.89 0.154C138.612 84.201 134.552 88.083 131.425 89.026z" fill="#daa488" stroke-width="none" opacity="1" stroke="none"/>
                <path id="SvgjsPath219449" d="M124.846 68.835c-10.416-0.043-18.875 6.635-18.902 14.92 -0.023 8.284 8.398 15.033 18.813 15.08 10.418 0.043 18.875-6.635 18.902-14.919C143.682 75.631 135.262 68.882 124.846 68.835zM131.425 89.026c-3.031 0.914-6.378 0.959-10.688 0.204 -2.497-0.438-6.105-1.323-8.395-3.143 2.748-3.11 7.836-5.091 12.788-5.71 3.541-0.443 11.175-0.123 14.89 0.154C138.612 84.201 134.552 88.083 131.425 89.026z" fill="url(#SvgjsRadialGradient219450)" opacity="1"/>
                <path id="SvgjsPath219454" d="M140.021 80.531c-3.715-0.277-11.349-0.597-14.89-0.154 -4.952 0.619-10.04 2.6-12.788 5.71 2.289 1.82 5.897 2.705 8.395 3.143 4.31 0.755 7.656 0.71 10.688-0.204C134.552 88.083 138.612 84.201 140.021 80.531z" fill="url(#SvgjsRadialGradient219455)" opacity="1"/>
                <path id="SvgjsPath219458" d="M113.697 81.396c4.491-2.822 7.736-4.781 18.34-4.3C130.57 77.042 121.158 77.023 113.697 81.396zM135.137 89.016c-1.154 0.617-2.689 1.205-2.664 1.196 2.734-1.164 4.678-0.564 7.531-6.058C138.492 86.564 138.127 87.296 135.137 89.016z" fill="#ac5f38" stroke-width="none" opacity="1" stroke="none"/>
                <path id="SvgjsPath219459" d="M124.787 79.305c-5.816 0.587-10.176 2.165-13.57 7.358 3.79 2.809 8.301 3.483 15.584 3.374 9.57-0.145 11.474-4.079 14.331-10.071C141.132 79.966 130.686 78.709 124.787 79.305zM131.074 88.754c-2.828 0.853-5.951 0.895-9.973 0.19 -2.33-0.409-5.697-1.234-7.834-2.933 2.564-2.902 7.313-4.751 11.934-5.328 3.305-0.413 10.428-0.114 13.895 0.144C137.781 84.252 133.992 87.875 131.074 88.754z" fill="#782c76" stroke-width="none" opacity="1" stroke="none"/>
              </g>
            </g>
          </g>
          <g id="svga-group-facehighlight-single">
            <path id="SvgjsPath219213" d="M141 113.974c0.035 22.622-18.292 40.994-40.938 41.025 -22.642 0.037-41.028-18.273-41.063-40.9 -0.035-22.62 18.292-41.064 40.937-41.1C122.579 72.964 140.967 91.349 141 113.974z" fill="url(#SvgjsRadialGradient219214)" opacity="1"/>
            <path id="SvgjsPath219217" d="M137.5 53.999c0 20.711-16.789 37.5-37.499 37.5 -20.711 0-37.501-16.789-37.501-37.5s16.79-37.5 37.501-37.5C120.711 16.499 137.5 33.288 137.5 53.999z" fill="url(#SvgjsRadialGradient219218)" opacity="1"/>
          </g>
          <g id="svga-group-eyebrows-left-move" transform="matrix(1,0,0,1,0,0)">
            <g id="svga-group-eyebrows-left-rotate" transform="matrix(1,0,0,1,0,0)">
              <g id="svga-group-eyebrows-left" transform="matrix(1,0,0,1,0,0)">
                <path id="SvgjsPath219470" d="M56.113 72.739c32.178-9.407 39.48 9.836 32.802 3.849C81.977 70.368 65.958 70.92 56.113 72.739z" fill="#b84131" stroke-width="none" opacity="1" stroke="none"/>
              </g>
            </g>
          </g>
          <g id="svga-group-eyebrows-right-move" transform="matrix(1,0,0,1,0,0)">
            <g id="svga-group-eyebrows-right-rotate" transform="matrix(1,0,0,1,0,0)">
              <g id="svga-group-eyebrows-right" transform="matrix(1,0,0,1,0,0)">
                <path id="SvgjsPath219471" d="M143.889 72.731c-9.304-1.701-22.773-2.38-30.946 2.53 -1.01 0.606-5.017 4.041-3.951 1.625C110.929 72.486 123.744 66.882 143.889 72.731z" fill="#b84131" stroke-width="none" opacity="1" stroke="none"/>
              </g>
            </g>
          </g>
          <g id="svga-group-nose-single-move" transform="matrix(1,0,0,1,0,0)">
            <g id="svga-group-nose-single" transform="matrix(1,0,0,1,0,0)">
              <path id="SvgjsPath219481" d="M96.831 88.524c0 0-1.399 11.117-2.026 13.281 -1.379 4.752-6.168 11.417-5.239 14.429 1.859 6.022 7.537 4.493 10.524 4.471 2.763-0.022 8.072 1.552 9.162-2.37 0.352-1.266-0.441-4.466-0.441-4.466s-2.644 3.112-8.875 2.767c-1.778-0.099-4.671-2.096-4.704-4.912 -0.043-3.817 1.802-7.035 2.205-10.824C97.741 98.022 96.831 88.524 96.831 88.524z" fill="#cb8b6a" stroke-width="none" opacity="1" stroke="none"/>
              <path id="SvgjsPath219482" d="M105.194 118.969c1.075 0 1.366 0.326 1.366 0.729 0 0.404-0.335 1.026-1.366 0.73 -1.134-0.323-3.113-0.175-3.113-0.175S104.117 118.969 105.194 118.969zM94.922 118.969c-1.077 0.001-1.366 0.328-1.366 0.733 -0.001 0.403 0.323 0.983 1.366 0.729 1.15-0.282 3.112-0.175 3.112-0.175S95.999 118.973 94.922 118.969zM108.81 113.869c0 0 1.489 1.933 1.18 3.975 -0.301 1.983-3.31 2.861-3.31 2.861s2.089-1.516 2.342-3.356C109.14 116.486 108.81 113.869 108.81 113.869zM90.427 111.883c0 0-1.086 2.704-0.772 4.352 0.571 2.976 3.704 4.164 3.704 4.164s-1.955-2.039-2.65-3.842C89.948 114.587 90.427 111.883 90.427 111.883z" fill="#ac5f38" stroke-width="none" opacity="1" stroke="none"/>
              <path id="SvgjsPath219483" d="M105.141 115.311c1.043-0.889 1.148-1.396 0.932-1.729 -0.215-0.334-0.841-0.545-1.714 0.528 -0.963 1.18-3.056 2.054-3.056 2.054S104.098 116.198 105.141 115.311z" fill="#e9bfa9" stroke-width="none" opacity="1" stroke="none"/>
            </g>
          </g>
          <g id="svga-group-beardwrap" transform="matrix(1,0,0,1,0,0)">
            <g id="svga-group-beard-single-move" transform="matrix(1,0,0,1,0,0)">
              <g id="svga-group-beard-single" transform="matrix(1,0,0,1,0,0)">
                <path id="SvgjsPath219231" d="M100,18.13L100,18.13L100,18.13L100,18.13z" fill="#2a232b" stroke-width="none" opacity="1"/>
              </g>
            </g>
          </g>
          <g id="svga-group-mustache-single-move" transform="matrix(1,0,0,1,0,0)">
            <g id="svga-group-mustache-single" transform="matrix(1,0,0,1,0,0)">
              <path id="SvgjsPath219229" d="M100,18.13L100,18.13L100,18.13L100,18.13z" fill="#2a232b" stroke-width="none" opacity="1"/>
            </g>
          </g>
          <g id="svga-group-hair-front" transform="matrix(1,0,0,1,0,0)">
            <path id="SvgjsPath219383" d="M162.973 40.273C147.94-14.754 61.012-21.557 36.378 40.045c-11.02 27.558 15.94 73.711 15.94 73.711 -0.962-6.957-4.86-37.856-4.86-37.856 0-2 1.915-4.507 2.272-5.973 1.718-7.055-4.882-16.666-2.272-28.859 2.222-10.38 5.558-17.637 15.408-23.673 13.231-8.108 20.458 5.525 26.34 9.323 4.617 2.98 17.091 3.121 21.972 0.597 6.122-3.166 14.95-14.205 24.761-11.017 11.622 3.776 16.601 19.828 17.03 22.789 0.916 8.798-4.469 26.247-2.699 30.84 0.504 1.309 1.617 3.689 1.898 4.807 1.16 4.612-4.088 39.009-4.088 39.009S170.468 67.708 162.973 40.273z" fill="#b84131" stroke-width="none" opacity="1" stroke="none"/>
            <path id="SvgjsPath219384" d="M137.697 13.5C127.979 8.857 119 17 110 23c-13.773 7.069-21-5-32-10 -9-5-21 3-28 12 -10.24 15.824-7.005 28.784-3.229 45.535 -3.841 3.196 2.723 27.464 5.036 39.4C50.406 99.271 47.458 75.9 47.458 75.9c0-0.415 0.096-0.854 0.229-1.299 0.511-1.699 1.76-3.512 2.042-4.674 1.718-7.055-4.882-16.666-2.272-28.859 2.222-10.38 5.558-17.637 15.408-23.673 13.231-8.108 20.458 5.525 26.34 9.323 4.617 2.98 17.091 3.121 21.972 0.597 6.122-3.166 14.95-14.205 24.761-11.017 11.622 3.776 16.601 19.828 17.03 22.789 0.916 8.798-4.469 26.247-2.699 30.84 0.504 1.309 1.617 3.689 1.898 4.807 0.037 0.146 0.066 0.323 0.091 0.527 0.001-0.016 0.003-0.032 0.005-0.047 0.54 4.834-2.166 24.674-3.489 33.824 3.99-18.04 8.449-34.593 4.355-41.351C156.869 45.402 161.567 24.902 137.697 13.5z" fill="#a92d1c" stroke-width="none" opacity="1" stroke="none"/>
            <path id="SvgjsPath219385" d="M148.08 113.744c8.659-21.56 17.811-48.317 13.182-72.508 -1.357-4.808-3.467-12.578-12.334-22.463C115.737-18.332 59.483-6.218 39.958 35.8c-11.417 24.404-0.214 54.246 12.359 77.957 -11.042-19.293-16.693-32.944-18.75-54.101 -0.622-7.079 0.718-16.492 4.499-24.868 15.194-33.563 54.39-49.58 87.349-35.863 13.259 5.328 27.885 17.106 35.03 32.893 4.882 10.828 4.249 20.507 3.181 32.421 -0.771 6.491-3.043 16.094-3.617 17.865 -2.544 8.367-0.627 2.872-4.759 14.623C152.264 104.495 150.642 107.987 148.08 113.744z" fill="#8a1000" stroke-width="none" opacity="1" stroke="none"/>
          </g>
          <g id="svga-group-glasses-single-move" transform="matrix(1,0,0,1,0,0)">
            <g id="svga-group-glasses-single" transform="matrix(1,0,0,1,0,0)">
              <path id="SvgjsPath219349" d="M100,18.13L100,18.13L100,18.13L100,18.13z" fill="#26120b" stroke-width="none" opacity="1"/>
            </g>
          </g>
        </g>
      </g>
    </g>
    <rect id="SvgjsRect219198" width="200" height="15" x="0" y="185" fill="#ecf0f1" opacity="0.5" style="display: none;"/>
    <text id="SvgjsText219199" font-family="Roboto, Helvetica, Arial, sans-serif" font-size="10px" text-anchor="start" font-weight="400" anchor="start" fill="#333333" x="58.03125" y="182.4296875" style="display: none;">
      <tspan id="SvgjsTspan219200" dy="13" x="58.03125">Created on face.co</tspan>
    </text>
  </g>
</svg>
