<?xml version="1.0"?>
<svg xmlns="http://www.w3.org/2000/svg" version="1.1" width="600px" height="600px" viewBox="0 0 200 200" style="overflow:hidden!important;">
  <defs id="SvgjsDefs148104">
    <radialGradient id="SvgjsRadialGradient148165" cx="100" cy="113" r="40" gradientUnits="userSpaceOnUse" class="svga-on-canvas-facehighlight-gradient-single-0">
      <stop id="SvgjsStop148166" stop-opacity="0.5" stop-color="#fbe4dd" offset="0"/>
      <stop id="SvgjsStop148167" stop-opacity="0" stop-color="#ecc4b8" offset="0.9"/>
    </radialGradient>
    <radialGradient id="SvgjsRadialGradient148169" cx="100" cy="57" r="36" gradientUnits="userSpaceOnUse" class="svga-on-canvas-facehighlight-gradient-single-1">
      <stop id="SvgjsStop148170" stop-opacity="0.5" stop-color="#fbe4dd" offset="0"/>
      <stop id="SvgjsStop148171" stop-opacity="0" stop-color="#ecc4b8" offset="0.9"/>
    </radialGradient>
    <radialGradient id="SvgjsRadialGradient148250" cx="-558.588" cy="-490.918" r="84.646" gradientTransform="matrix(0.096 -0.0248 0.0245 0.0961 140.5478 120.3577)" gradientUnits="userSpaceOnUse" class="svga-on-canvas-eyesiris-gradient-left-1">
      <stop id="SvgjsStop148251" stop-opacity="0.8" stop-color="#ffffff" offset="0"/>
      <stop id="SvgjsStop148252" stop-opacity="0" stop-color="#ffffff" offset="1"/>
    </radialGradient>
    <radialGradient id="SvgjsRadialGradient148254" cx="-565.337" cy="-492.691" r="84.644" gradientTransform="matrix(0.0991 8.856325e-004 -0.0011 0.0991 130.3774 136.3533)" gradientUnits="userSpaceOnUse" class="svga-on-canvas-eyesiris-gradient-left-2">
      <stop id="SvgjsStop148255" stop-opacity="0.8" stop-color="#ffffff" offset="0"/>
      <stop id="SvgjsStop148256" stop-opacity="0" stop-color="#ffffff" offset="1"/>
    </radialGradient>
    <linearGradient id="SvgjsLinearGradient148260" x1="122.283" y1="93.047" x2="123.61" y2="91.466" gradientTransform="matrix(1 0 0 1 -52 0)" gradientUnits="userSpaceOnUse" class="svga-on-canvas-eyesiris-gradient-left-5">
      <stop id="SvgjsStop148261" stop-opacity="1" stop-color="#ffffff" offset="0"/>
      <stop id="SvgjsStop148262" stop-opacity="0" stop-color="#ffffff" offset="1"/>
    </linearGradient>
    <linearGradient id="SvgjsLinearGradient148264" x1="127" y1="85" x2="125" y2="87" gradientTransform="matrix(1 0 0 1 -50 0)" gradientUnits="userSpaceOnUse" class="svga-on-canvas-eyesiris-gradient-left-6">
      <stop id="SvgjsStop148265" stop-opacity="1" stop-color="#ffffff" offset="0"/>
      <stop id="SvgjsStop148266" stop-opacity="0" stop-color="#ffffff" offset="1"/>
    </linearGradient>
    <linearGradient id="SvgjsLinearGradient148268" x1="130" y1="81" x2="126" y2="85" gradientTransform="matrix(1 0 0 1 -50 0)" gradientUnits="userSpaceOnUse" class="svga-on-canvas-eyesiris-gradient-left-7">
      <stop id="SvgjsStop148269" stop-opacity="1" stop-color="#ffffff" offset="0"/>
      <stop id="SvgjsStop148270" stop-opacity="0" stop-color="#ffffff" offset="1"/>
    </linearGradient>
    <radialGradient id="SvgjsRadialGradient148273" cx="-578.76" cy="-490.73" r="84.646" gradientTransform="matrix(0.096 -0.0248 0.0245 0.0961 192.4794 119.8404)" gradientUnits="userSpaceOnUse" class="svga-on-canvas-eyesiris-gradient-right-1">
      <stop id="SvgjsStop148274" stop-opacity="0.8" stop-color="#ffffff" offset="0"/>
      <stop id="SvgjsStop148275" stop-opacity="0" stop-color="#ffffff" offset="1"/>
    </radialGradient>
    <radialGradient id="SvgjsRadialGradient148277" cx="-584.778" cy="-487.329" r="84.644" gradientTransform="matrix(0.0991 8.856325e-004 -0.0011 0.0991 182.3104 135.839)" gradientUnits="userSpaceOnUse" class="svga-on-canvas-eyesiris-gradient-right-2">
      <stop id="SvgjsStop148278" stop-opacity="0.8" stop-color="#ffffff" offset="0"/>
      <stop id="SvgjsStop148279" stop-opacity="0" stop-color="#ffffff" offset="1"/>
    </radialGradient>
    <linearGradient id="SvgjsLinearGradient148283" x1="120.284" y1="93.047" x2="121.611" y2="91.467" gradientUnits="userSpaceOnUse" class="svga-on-canvas-eyesiris-gradient-right-5">
      <stop id="SvgjsStop148284" stop-opacity="1" stop-color="#ffffff" offset="0"/>
      <stop id="SvgjsStop148285" stop-opacity="0" stop-color="#ffffff" offset="1"/>
    </linearGradient>
    <linearGradient id="SvgjsLinearGradient148287" x1="127" y1="85" x2="125" y2="87" gradientUnits="userSpaceOnUse" class="svga-on-canvas-eyesiris-gradient-right-6">
      <stop id="SvgjsStop148288" stop-opacity="1" stop-color="#ffffff" offset="0"/>
      <stop id="SvgjsStop148289" stop-opacity="0" stop-color="#ffffff" offset="1"/>
    </linearGradient>
    <linearGradient id="SvgjsLinearGradient148291" x1="130" y1="81" x2="126" y2="85" gradientUnits="userSpaceOnUse" class="svga-on-canvas-eyesiris-gradient-right-7">
      <stop id="SvgjsStop148292" stop-opacity="1" stop-color="#ffffff" offset="0"/>
      <stop id="SvgjsStop148293" stop-opacity="0" stop-color="#ffffff" offset="1"/>
    </linearGradient>
    <linearGradient id="SvgjsLinearGradient148299" x1="100" y1="141" x2="100" y2="138" gradientUnits="userSpaceOnUse" class="svga-on-canvas-mouth-gradient-single-0">
      <stop id="SvgjsStop148300" stop-opacity="1" stop-color="#e4b5a7" offset="0.1"/>
      <stop id="SvgjsStop148301" stop-opacity="1" stop-color="#dda696" offset="1"/>
    </linearGradient>
    <radialGradient id="SvgjsRadialGradient148356" cx="126.653" cy="88.227" r="13.678" gradientTransform="matrix(-1.0357 0 0 1.0357 204.6606 -3.2718)" gradientUnits="userSpaceOnUse" class="svga-on-canvas-eyesback-gradient-left-0">
      <stop id="SvgjsStop148357" stop-opacity="1" stop-color="#ffffff" offset="0"/>
      <stop id="SvgjsStop148358" stop-opacity="1" stop-color="#fdfefe" offset="0.544"/>
      <stop id="SvgjsStop148359" stop-opacity="1" stop-color="#f6f8f9" offset="0.74"/>
      <stop id="SvgjsStop148360" stop-opacity="1" stop-color="#eaeff2" offset="0.879"/>
      <stop id="SvgjsStop148361" stop-opacity="1" stop-color="#d9e3e8" offset="0.992"/>
      <stop id="SvgjsStop148362" stop-opacity="1" stop-color="#d8e2e7" offset="1"/>
    </radialGradient>
    <radialGradient id="SvgjsRadialGradient148364" cx="126.654" cy="88.227" r="13.678" gradientTransform="matrix(1.0357 0 0 1.0357 -4.6606 -3.2718)" gradientUnits="userSpaceOnUse" class="svga-on-canvas-eyesback-gradient-right-0">
      <stop id="SvgjsStop148365" stop-opacity="1" stop-color="#ffffff" offset="0"/>
      <stop id="SvgjsStop148366" stop-opacity="1" stop-color="#fdfefe" offset="0.544"/>
      <stop id="SvgjsStop148367" stop-opacity="1" stop-color="#f6f8f9" offset="0.74"/>
      <stop id="SvgjsStop148368" stop-opacity="1" stop-color="#eaeff2" offset="0.879"/>
      <stop id="SvgjsStop148369" stop-opacity="1" stop-color="#d9e3e8" offset="0.992"/>
      <stop id="SvgjsStop148370" stop-opacity="1" stop-color="#d8e2e7" offset="1"/>
    </radialGradient>
    <radialGradient id="SvgjsRadialGradient148372" cx="126.653" cy="88.227" r="13.678" gradientTransform="matrix(-1.0357 0 0 1.0357 204.6606 -3.2718)" gradientUnits="userSpaceOnUse" class="svga-on-canvas-eyesfront-gradient-left-0">
      <stop id="SvgjsStop148373" stop-opacity="1" stop-color="#ffffff" offset="0"/>
      <stop id="SvgjsStop148374" stop-opacity="1" stop-color="#fdfefe" offset="0.544"/>
      <stop id="SvgjsStop148375" stop-opacity="1" stop-color="#f6f8f9" offset="0.74"/>
      <stop id="SvgjsStop148376" stop-opacity="1" stop-color="#eaeff2" offset="0.879"/>
      <stop id="SvgjsStop148377" stop-opacity="1" stop-color="#d9e3e8" offset="0.992"/>
      <stop id="SvgjsStop148378" stop-opacity="1" stop-color="#d8e2e7" offset="1"/>
    </radialGradient>
    <radialGradient id="SvgjsRadialGradient148382" cx="123.012" cy="86.371" fx="135.984" fy="86.407" r="18.449" gradientTransform="matrix(0.9996 0.028 0.0231 -0.8278 -47.9747 154.4321)" gradientUnits="userSpaceOnUse" class="svga-on-canvas-eyesfront-gradient-left-3">
      <stop id="SvgjsStop148383" stop-opacity="1" stop-color="#dda696" offset="0"/>
      <stop id="SvgjsStop148384" stop-opacity="0.3" stop-color="#dda696" offset="0.7"/>
      <stop id="SvgjsStop148385" stop-opacity="0" stop-color="#ecc4b8" offset="1"/>
    </radialGradient>
    <radialGradient id="SvgjsRadialGradient148387" cx="73.035" cy="94.844" r="16.125" gradientTransform="matrix(0.9522 -0.0499 0.0499 0.9514 0.1249 7.7016)" gradientUnits="userSpaceOnUse" class="svga-on-canvas-eyesfront-gradient-left-4">
      <stop id="SvgjsStop148388" stop-opacity="0" stop-color="#000000" offset="0.9"/>
      <stop id="SvgjsStop148389" stop-opacity="0.3" stop-color="#000000" offset="1"/>
    </radialGradient>
    <radialGradient id="SvgjsRadialGradient148393" cx="126.654" cy="88.227" r="13.678" gradientTransform="matrix(1.0357 0 0 1.0357 -4.6606 -3.2718)" gradientUnits="userSpaceOnUse" class="svga-on-canvas-eyesfront-gradient-right-0">
      <stop id="SvgjsStop148394" stop-opacity="1" stop-color="#ffffff" offset="0"/>
      <stop id="SvgjsStop148395" stop-opacity="1" stop-color="#fdfefe" offset="0.544"/>
      <stop id="SvgjsStop148396" stop-opacity="1" stop-color="#f6f8f9" offset="0.74"/>
      <stop id="SvgjsStop148397" stop-opacity="1" stop-color="#eaeff2" offset="0.879"/>
      <stop id="SvgjsStop148398" stop-opacity="1" stop-color="#d9e3e8" offset="0.992"/>
      <stop id="SvgjsStop148399" stop-opacity="1" stop-color="#d8e2e7" offset="1"/>
    </radialGradient>
    <radialGradient id="SvgjsRadialGradient148403" cx="123.012" cy="86.371" fx="135.984" fy="86.407" r="18.449" gradientTransform="matrix(-0.9996 0.028 -0.0231 -0.8278 247.9747 154.4321)" gradientUnits="userSpaceOnUse" class="svga-on-canvas-eyesfront-gradient-right-3">
      <stop id="SvgjsStop148404" stop-opacity="1" stop-color="#dda696" offset="0"/>
      <stop id="SvgjsStop148405" stop-opacity="0.3" stop-color="#dda696" offset="0.7"/>
      <stop id="SvgjsStop148406" stop-opacity="0" stop-color="#ecc4b8" offset="1"/>
    </radialGradient>
    <radialGradient id="SvgjsRadialGradient148408" cx="73.035" cy="94.844" r="16.125" gradientTransform="matrix(-0.9522 -0.0499 -0.0499 0.9514 199.8751 7.7016)" gradientUnits="userSpaceOnUse" class="svga-on-canvas-eyesfront-gradient-right-4">
      <stop id="SvgjsStop148409" stop-opacity="0" stop-color="#000000" offset="0.9"/>
      <stop id="SvgjsStop148410" stop-opacity="0.3" stop-color="#000000" offset="1"/>
    </radialGradient>
    <linearGradient id="SvgjsLinearGradient148476" x1="99.98" y1="171.27" x2="99.98" y2="136.351" gradientUnits="userSpaceOnUse" class="svga-on-canvas-chinshadow-gradient-single-0">
      <stop id="SvgjsStop148477" stop-opacity="0.8" stop-color="#dda696" offset="0"/>
      <stop id="SvgjsStop148478" stop-opacity="1" stop-color="#be725b" offset="0.7"/>
    </linearGradient>
  </defs>
  <g id="svga-group-wrapper">
    <g id="svga-group-backs-single">
      <path id="SvgjsPath148318" d="M225 225H-25V-25h250V225z" fill="#aee239" stroke-width="none" opacity="1" stroke="none"/>
    </g>
    <g id="svga-group-humanwrap-move" transform="matrix(1,0,0,1,0,0)">
      <g id="svga-group-humanwrap" transform="matrix(1,0,0,1,0,0)">
        <g id="svga-group-hair-back-move" transform="matrix(1,0,0,1,0,0)">
          <g id="svga-group-hair-back" transform="matrix(1,0,0,1,0,0)">
            <path id="SvgjsPath148330" d="M160.527 108.896c-0.826 32.13-5.272 102.953-58.469 102.589 -80.381-0.551-60.969-69.5-61.767-102.589 -1.15-47.67 26.917-86.339 60.118-86.339C133.611 22.558 161.753 61.229 160.527 108.896z" fill="#85481f" stroke-width="none" opacity="1" stroke="none"/>
          </g>
        </g>
        <g id="svga-group-humanbody-single">
          <path id="SvgjsPath148172" d="M190.858 199.866c-6.008-10.158-13.474-11.973-19.628-13.936 -6.323-2.016-19.346-3.178-26.449-4.6 -6.86-1.373-23.153-5.789-23.339-13.488 -0.192-8.066 4.291-40.09 4.291-40.09H74.005c0 0 4.487 32.023 4.294 40.09 -0.184 7.699-16.48 12.115-23.341 13.488 -7.104 1.422-20.125 2.584-26.448 4.6 -6.156 1.963-13.624 3.777-19.632 13.936 -3.644 6.16-6.008 16.133-6.008 27.133h194C196.869 215.999 194.509 206.026 190.858 199.866z" fill="#ecc4b8" stroke-width="none" opacity="1" stroke="none"/>
          <path id="SvgjsPath148173" d="M121.442 167.843c2.495 10.929 18.165 13.698 26.293 15.325 21.909 4.379 33.772 5.134 42.297 19.539 2.903 4.916 5.459 15.864 5.962 24.153 1.835 0.291 0.531-17.432-5.136-26.994 -9.742-16.472-29.089-15.135-46.077-18.535C137.921 179.958 121.628 175.542 121.442 167.843L121.442 167.843zM78.558 167.843c-0.186 7.699-16.479 12.115-23.339 13.488 -16.988 3.4-36.335 2.063-46.077 18.535 -5.667 9.563-6.971 27.285-5.136 26.994 0.503-8.289 3.059-19.237 5.962-24.153 8.524-14.405 20.388-15.16 42.297-19.539C60.393 181.541 76.063 178.771 78.558 167.843L78.558 167.843z" fill="#fbe4dd" stroke-width="none" opacity="1" stroke="none"/>
          <path id="SvgjsPath148174" d="M51.206 189.513c0 0 28.641 0.299 33.473 1.885 2.314 0.758 8.372 5.633 8.372 5.633s-6.556-3.17-8.658-3.758C79.51 191.909 51.206 189.513 51.206 189.513zM99.795 199.999c2.053-0.041 7.887-3.799 7.887-3.799s-5.574 2.059-7.342 2.16c-1.491 0.086-6.366-1.238-6.366-1.238S98.112 200.032 99.795 199.999zM117.008 192.757c6.75-1.818 29.786-3.23 29.786-3.23s-23.791-0.516-30.51 1.725c-2.252 0.752-7.562 5.16-7.562 5.16S114.786 193.354 117.008 192.757z" fill="#dda696" stroke-width="none" opacity="1" stroke="none"/>
          <path id="SvgjsPath148175" d="M190.858 199.866c-9.741-16.471-29.122-15.142-46.077-18.535 -6.86-1.373-23.153-5.789-23.339-13.488 -0.192-8.066 4.291-40.09 4.291-40.09H74.005c0 0 4.487 32.023 4.294 40.09 -0.184 7.699-16.48 12.115-23.341 13.488 -7.104 1.422-20.125 2.584-26.448 4.6 -6.156 1.963-13.624 3.777-19.632 13.936 -3.644 6.16-6.008 16.133-6.008 27.133h194C196.869 215.999 194.509 206.026 190.858 199.866z" fill="none" stroke="#be725b" stroke-width="1.5" opacity="1"/>
        </g>
        <g id="svga-group-chinshadow-single">
          <path id="SvgjsPath148475" d="M100.002 171.005c7.478 0 14.576-2.63 20.879-6.56 0.487-8.706 2.716-25.793 3.721-33.231 -14.77-1.574-34.756-1.565-49.463 0.027 1.001 7.405 3.205 24.29 3.711 33.034C85.222 168.3 92.418 171.005 100.002 171.005z" fill="url(#SvgjsLinearGradient148476)" opacity="1"/>
        </g>
        <g id="svga-group-clothes-single">
          <path id="SvgjsPath148462" d="M36.917 226.987c-12.142-0.106-34.504-0.481-34.504-0.481 -1.001-13.221 2.596-27.552 13.625-35.288 12.837-8.999 26.79-7.649 37.699-10.586 1 0.851 7.132 5.092 15.783 8.984 17.875 8.037 35.664 11.938 66.937 18.887 7.121-21.609 8.549-27.237 8.753-28.237 0.012 0.039 1.217-0.015 1.259-0.015 0.868 0 1.157 0.083 1.898 0.661 1.372-0.662 2.97-0.267 3.693 0.703 -3.046 12.205 4.021 43.22 4.021 45.2C138.413 226.815 120.95 227.716 36.917 226.987z" fill="#cbe9ee" stroke-width="none" opacity="1" stroke="none"/>
          <path id="SvgjsPath148463" d="M2.319 226.605c-0.842-13.045 3.389-27.448 14.244-35.063 12.837-8.999 26.263-7.477 37.172-10.413 0.146 0.124 1.683 0.998 2.04 1.256C17.586 186.399 4.214 199.521 2.319 226.605zM152.059 181.615c-0.144-0.192-0.329-0.354-0.532-0.498 -0.395-0.277-0.88-0.454-1.405-0.507 -0.572-0.058-1.183 0.025-1.756 0.302 -0.372-0.29-0.631-0.455-0.905-0.548 -0.272-0.092-0.562-0.113-0.993-0.113 -0.002 0-0.016 0-0.021 0.001 -0.123 0.004-1.227 0.051-1.238 0.014 -0.057 0.275 0.368-0.521 0.033 0.692 0.512 2.387-0.894 6.45-3.241 22.042 4.722-16.694 5.029-20.603 6.493-21.467 1.563 1.452-0.73 13.11 1.507 26.467 -0.506-8.89-0.193-24.89 1.863-25.892C151.976 181.263 151.878 182.339 152.059 181.615zM47.247 183.5c9.949 11.154 13.767 13.82 35.127 21.874C60.79 195.24 60.259 195.633 47.247 183.5zM52.952 182.397c14.55 15.296 34.438 21.115 65.001 29.648C84.391 201.231 67.467 196.433 52.952 182.397z" fill="#f1fcfd" stroke-width="none" opacity="1" stroke="none"/>
          <path id="SvgjsPath148464" d="M148.378 180.795c-0.229-0.18-0.719-0.509-1.068-0.579 -0.62-0.14-2.07-0.019-2.2 0.031 -1.778 9.483-5.687 19.042-8.721 28.139 -27.713-6.149-62.451-12.981-82.68-27.851 -15.189 4.111-53.002-0.132-51.41 45.681 0 0.13 0.01 0.26 0.02 0.39 0 0 56.588 0.76 56.59 0.76 27.246 0.539 96.468-0.45 97.47-0.45 0-9.142-6.396-31.019-4.24-45.359C151.432 180.605 149.782 180.116 148.378 180.795zM155.811 226.476c-54.167-1.382-122.589-1.144-153.231-0.271 0.987-44.587 35.332-39.994 51.72-44.38 20.665 15.798 56.059 22.312 82 26.87 -1.166 3.355-2.854 8.168-4.6 11.87 4.504-7.593 12.158-29.512 13.76-39.7 1.52-0.324 2.495 0.128 2.74 0.49 -1.521 7.91-2.222 15.998-3.53 24.079 2.125-10.09 2.051-11.999 4.3-24.339 0.561-0.08 1.141-0.051 1.721 0.109 0.46 0.2 0.62 0.48 0.91 0.811C149.588 191.271 152.864 208.45 155.811 226.476z" fill="#6ab4c0" stroke-width="none" opacity="1" stroke="none"/>
        </g>
        <g id="svga-group-head" transform="matrix(1,0,0,1,0,0)">
          <g id="svga-group-ears-left-move" transform="matrix(1,0,0,1,0,0)" style="display: none;">
            <g id="svga-group-ears-left" transform="matrix(1,0,0,1,0,0)">
              <path id="SvgjsPath148309" d="M47.001 83.974c-1.376-2.313-5.638-7.997-9.98-6.603 -2.749 0.882-3.293 3.765-3.735 6.311 -0.588 3.386 0.471 10.083 1.389 12.503 0.881 2.325 3.533 6.816 5.264 8.527 2.13 2.1 4.775 8.793 5.194 9.487 0.66 1.097 1.536 2.745 4.122 2.538 2.853-0.229 4.584-1.742 5.856-1.999C58.253 114.109 50.582 89.995 47.001 83.974z" fill="#ecc4b8" stroke="#be725b" stroke-width="1.5" opacity="1"/>
              <path id="SvgjsPath148310" d="M44.197 97.997c-0.132-0.548 0.007-1.47 0.142-2.362 0.124-0.812 0.24-1.579 0.169-2.121 -0.267-2.032-1.773-5.893-2.757-7.985 -1.132-2.407-2.963-5.439-5.262-6.221 -0.95-0.324-1.575 0.063-1.938 0.456 -0.266 0.289-0.325 0.627-0.238 0.667 0.086 0.04 0.285-0.24 0.572-0.504 0.235-0.216 0.579-0.402 1.051-0.363 -0.19 1.011-1.167 6.49-0.744 10.225 0.333 2.938 1.593 5.131 1.79 5.46 0.029 0.346 0.077 0.685 0.148 1.014 0.929 4.287 4.971 9.163 6.378 10.758 0.259 0.295 0.531 0.47 0.598 0.398 0.066-0.072-0.094-0.364-0.353-0.66 -1.388-1.585-5.391-6.442-6.289-10.579 -0.952-4.389 2.318-10.896 3.048-12.272 0.371 0.646 0.687 1.267 0.93 1.785 0.19 0.406 0.402 0.881 0.619 1.395 -0.429 0.718-3.434 5.958-2.338 10.153 0.406 1.546 2.235 3.54 3.447 4.086 0.667 0.301 0.919 0.75 1.209 1.271 0.336 0.604 0.718 1.288 1.828 1.784 0.225 0.102 0.429 0.142 0.61 0.142 0.313 0 0.551-0.126 0.725-0.276 0.018 0.266 0.017 0.604 0.009 0.917 -0.012 0.404 0.042 0.737 0.137 0.745 0.094 0.008 0.196-0.313 0.207-0.717 0.016-0.496 0.013-1.11-0.072-1.403 -0.248-0.865-1.008-1.841-1.813-2.875C45.221 99.896 44.403 98.844 44.197 97.997zM36.95 94.196c-2.177-6.731 0.656-12.54 1.144-13.464 0.85 0.775 1.6 1.811 2.21 2.824C39.86 84.365 37.041 89.669 36.95 94.196zM46.341 104.042c-1.004-0.447-1.339-1.051-1.666-1.633 -0.293-0.527-0.598-1.072-1.369-1.42 -0.168-0.075-0.352-0.191-0.542-0.323 -2.486-5.906 0.272-8.488 0.963-9.017 0.211 0.722 0.369 1.384 0.439 1.915 0.063 0.488-0.052 1.263-0.167 2.012 -0.142 0.929-0.286 1.89-0.137 2.512 0.226 0.926 1.069 2.009 1.884 3.057 0.723 0.929 1.466 1.888 1.721 2.67C47.359 103.972 47.017 104.345 46.341 104.042z" fill="#be725b" stroke-width="none" opacity="1" stroke="none"/>
            </g>
          </g>
          <g id="svga-group-ears-right-move" transform="matrix(1,0,0,1,0,0)" style="display: none;">
            <g id="svga-group-ears-right" transform="matrix(1,0,0,1,0,0)">
              <path id="SvgjsPath148311" d="M152.736 83.974c1.377-2.313 5.639-7.997 9.98-6.603 2.75 0.882 3.293 3.765 3.736 6.311 0.588 3.386-0.471 10.083-1.389 12.503 -0.881 2.325-3.533 6.816-5.266 8.527 -2.129 2.1-4.775 8.793-5.193 9.487 -0.658 1.097-1.535 2.745-4.121 2.538 -2.854-0.229-4.584-1.742-5.857-1.999C141.484 114.109 149.156 89.995 152.736 83.974z" fill="#ecc4b8" stroke="#be725b" stroke-width="1.5" opacity="1"/>
              <path id="SvgjsPath148312" d="M153.727 100.913c-0.805 1.033-1.564 2.009-1.813 2.875 -0.086 0.293-0.088 0.907-0.072 1.403 0.012 0.404 0.113 0.725 0.207 0.717s0.148-0.341 0.137-0.745c-0.008-0.313-0.008-0.651 0.01-0.917 0.174 0.15 0.412 0.276 0.725 0.276 0.182 0 0.385-0.04 0.609-0.142 1.109-0.496 1.492-1.18 1.828-1.784 0.289-0.52 0.543-0.969 1.209-1.271 1.213-0.546 3.041-2.54 3.447-4.086 1.096-4.194-1.908-9.435-2.338-10.153 0.217-0.513 0.43-0.988 0.619-1.395 0.244-0.518 0.559-1.139 0.93-1.785 0.73 1.377 4 7.883 3.049 12.272 -0.896 4.137-4.9 8.994-6.289 10.579 -0.258 0.296-0.418 0.588-0.352 0.66 0.066 0.071 0.338-0.104 0.598-0.398 1.406-1.596 5.449-6.471 6.379-10.758 0.07-0.329 0.117-0.668 0.146-1.014 0.197-0.329 1.459-2.523 1.791-5.46 0.422-3.735-0.555-9.214-0.744-10.225 0.473-0.039 0.814 0.146 1.051 0.363 0.287 0.264 0.486 0.544 0.572 0.504s0.027-0.378-0.238-0.667c-0.363-0.393-0.988-0.779-1.938-0.456 -2.299 0.782-4.131 3.814-5.262 6.221 -0.984 2.093-2.49 5.953-2.758 7.985 -0.072 0.542 0.045 1.309 0.17 2.121 0.135 0.892 0.273 1.814 0.141 2.362C155.336 98.844 154.518 99.896 153.727 100.913zM159.434 83.555c0.611-1.013 1.361-2.049 2.211-2.824 0.488 0.925 3.32 6.733 1.145 13.464C162.697 89.669 159.879 84.365 159.434 83.555zM152.27 103.816c0.254-0.782 0.998-1.741 1.721-2.67 0.816-1.048 1.658-2.131 1.885-3.057 0.148-0.622 0.004-1.583-0.137-2.512 -0.115-0.749-0.23-1.524-0.166-2.012 0.068-0.531 0.227-1.193 0.438-1.915 0.691 0.529 3.449 3.111 0.965 9.017 -0.191 0.132-0.375 0.248-0.543 0.323 -0.771 0.348-1.074 0.893-1.369 1.42 -0.326 0.582-0.662 1.186-1.666 1.633C152.721 104.345 152.379 103.972 152.27 103.816z" fill="#be725b" stroke-width="none" opacity="1" stroke="none"/>
            </g>
          </g>
          <g id="svga-group-faceshape-wrap" transform="matrix(1,0,0,1,0,0)">
            <g id="svga-group-faceshape-single">
              <path id="SvgjsPath148472" d="M100.002 0.867C66.381 0.814 39.186 27.899 39.134 61.374c-0.008 5.316 0.669 10.473 1.953 15.389l0.004 0c0.011 0.053 8.713 38.607 14.519 50.351 6.073 12.285 23.814 32.157 44.392 32.157 20.582 0 38.32-19.872 44.392-32.157 5.805-11.743 14.507-50.297 14.519-50.351l0.005 0c1.283-4.916 1.961-10.072 1.952-15.389C160.819 27.899 133.623 0.814 100.002 0.867z" fill="#ecc4b8" stroke-width="none" opacity="1" stroke="none"/>
              <path id="SvgjsPath148473" d="M120.754 4.453c21.441 9.336 36.411 30.632 36.45 55.454 0.008 5.316-0.669 10.473-1.953 15.389l-0.005 0c-0.011 0.053-8.713 38.607-14.519 50.352 -5.709 11.548-21.608 31.944-40.725 31.944s-35.016-20.396-40.725-31.944c-5.806-11.744-14.507-50.298-14.519-50.352l-0.004 0c-1.284-4.916-1.962-10.072-1.953-15.389 0.038-24.822 15.008-46.118 36.45-55.454 -23.386 8.412-40.076 30.705-40.117 56.92 -0.008 5.316 0.669 10.473 1.953 15.389l0.004 0c0.011 0.053 8.713 38.607 14.519 50.351 6.073 12.285 23.814 32.157 44.392 32.157 20.579 0 38.319-19.872 44.392-32.157 5.805-11.743 14.507-50.297 14.519-50.351l0.005 0c1.283-4.916 1.961-10.072 1.952-15.389C160.83 35.158 144.14 12.865 120.754 4.453z" fill="#e4b5a7" stroke-width="none" opacity="1" stroke="none"/>
              <path id="SvgjsPath148474" d="M100.002 0.867C66.381 0.814 39.186 27.899 39.134 61.374c-0.008 5.316 0.669 10.473 1.953 15.389l0.004 0c0.011 0.053 8.713 38.607 14.519 50.351 6.073 12.285 23.814 32.157 44.392 32.157 20.582 0 38.32-19.872 44.392-32.157 5.805-11.743 14.507-50.297 14.519-50.351l0.005 0c1.283-4.916 1.961-10.072 1.952-15.389C160.819 27.899 133.623 0.814 100.002 0.867z" fill="none" stroke="#be725b" stroke-width="1.5" opacity="1"/>
            </g>
          </g>
          <g id="svga-group-mouth-single-move" transform="matrix(1,0,0,1,0,0)">
            <g id="svga-group-mouth-single" transform="matrix(1,0,0,1,0,0)">
              <path id="SvgjsPath148451" d="M99.867 142.685c-4.159 0-7.651-3.162-7.651-3.162 7.261 1.131 16.154-0.671 16.154-0.671S105.119 142.685 99.867 142.685z" fill="#dda696" stroke-width="none" opacity="1" stroke="none"/>
              <path id="SvgjsPath148452" d="M99.869 138.507c-2.691 0.025-8.86-1.635-11.18-2.938 -1.374-0.769-3.749-3.433-5.4-4.788 -0.635-0.521-0.371-1.528 0.466-1.569 2.036-0.099 4.65 0.979 5.876 1.169 2.565 0.389 5.805 1.835 10.195 1.835 3.262 0 6.828-1.15 9.101-1.574 1.367-0.254 4.529-1.376 6.755-1.501 0.838-0.05 1.18 0.777 0.56 1.316 -1.739 1.526-4.526 4.328-6.028 5.112C107.783 136.837 102.294 138.485 99.869 138.507z" fill="#000000" stroke-width="none" opacity="0.5"/>
              <path id="SvgjsPath148453" d="M86.859 129.328c0 0 0.286 2.427 0.722 3.12 0.6 0.954 4.257 2.914 5.717 3.188 0.993 0.184 2.814 0.476 3.816 0.613 1.085 0.148 1.695 0.015 2.791-0.021 1.179-0.038 2.186 0.132 3.336-0.135 0.819-0.19 3.215-0.834 3.997-1.145 0.604-0.242 1.814-0.643 2.364-0.992 0.456-0.288 1.866-1.333 2.146-1.795 0.366-0.605 0.709-2.752 0.709-2.752L86.859 129.328z" fill="#ffffff" stroke-width="none" opacity="1"/>
              <path id="SvgjsPath148454" d="M92.17 129.748c0 0-0.522 5.283-0.568 5.375 -0.047 0.092-0.179-5.375-0.179-5.375H92.17zM94.364 130.335l0.464 5.601 0.298-5.601H94.364zM99.485 131.161l0.579 5.088 0.375-5.176L99.485 131.161zM103.978 130.093c0.973 0.088 1.298 5.446 1.298 5.446l0.134-5.446H103.978zM107.705 129.438c0 0 0.386 5.114 0.44 5.018 0.053-0.097 0.153-5.018 0.153-5.018H107.705zM88.876 129.436l0.283 4.181 0.283-4.181H88.876zM110.375 129.011l0.086 4.38 0.432-4.413L110.375 129.011z" fill="#000000" stroke-width="none" opacity="0.1"/>
              <path id="SvgjsPath148455" d="M116.764 129.126c-1.218-0.406-3.771-0.125-5.061-0.294 -1.83-0.239-5.542-0.409-7.392-0.356 -1.161 0.034-3.449 0.457-4.608 0.484 -1.191 0.027-3.562-0.461-4.751-0.471 -1.888-0.012-5.689 0.214-7.54 0.534 -1.279 0.222-3.89-0.113-4.914 0.475 -0.237 0.137-0.095 0.75 0 0.981 0.862 2.089 4.188 5.489 7.067 7.497 3.698 2.579 7.586 3.38 10.643 3.381 4.035 0.003 8.785-2.247 12.762-5.639 1.758-1.5 3.982-4.091 4.353-5.537C117.512 129.451 117.079 129.231 116.764 129.126zM99.816 136.352c-2.488 0.019-8.26-1.229-10.697-2.494 -1.461-0.759-3.7-2.577-5.226-3.708 -0.588-0.435-0.454-0.789 0.321-0.822 1.882-0.084 5.042 0.944 6.177 1.1 2.371 0.324 5.366 1.531 9.425 1.531 3.013 0 6.312-0.959 8.414-1.311 1.264-0.213 4.833-1.278 6.89-1.384 0.775-0.04 0.926 0.276 0.354 0.727 -1.61 1.271-4.326 3.216-6.055 4.066C107.224 135.139 102.057 136.328 99.816 136.352z" fill="#92002a" stroke="#830026" stroke-width="0.75" opacity="1"/>
              <path id="SvgjsPath148456" d="M86.869 134.124c2.588 0.523 8.417 3.611 13.315 3.444 5.105-0.175 12.685-4.745 13.685-4.244 0.373 1.199-9.853 6.985-13.685 7.077C96.747 140.482 85.786 135.485 86.869 134.124zM99.485 131.161c3.109-0.042 6.909-0.442 9.469-1.672 -2.918-1.013-6.938 0.115-9.251 0.168 -3 0.07-5.51-0.934-8.289 0.058C94.069 130.622 96.798 131.198 99.485 131.161z" fill="#a1103a" stroke-width="none" opacity="1" stroke="none"/>
              <path id="SvgjsPath148457" d="M97.732 139.024c-1.881-0.424-1.945-0.596-0.162-0.42 1.09 0.106 2.18 0.132 3.238 0.03 0.141-0.015 0.281-0.029 0.419-0.049 1.195-0.157 2.479-0.546 3.768-1.051 2.015-0.792 2.051-0.6 0.053 0.446 -1.467 0.767-2.831 1.324-3.798 1.44l-0.062 0.007C100.364 139.509 99.123 139.34 97.732 139.024z" fill="#b1234c" stroke-width="none" opacity="1" stroke="none"/>
              <path id="SvgjsPath148458" d="M79.599 130.722c0 0-0.561-1.256-0.482-1.724 0.11-0.657 1.521-1.958 1.521-1.958s-0.854 1.498-0.986 1.971C79.523 129.468 79.599 130.722 79.599 130.722zM120.163 130.881c0 0 0.609-1.364 0.523-1.873 -0.119-0.714-1.652-2.127-1.652-2.127s0.929 1.628 1.072 2.142C120.245 129.519 120.163 130.881 120.163 130.881z" fill="#be725b" stroke-width="none" opacity="1" stroke="none"/>
            </g>
          </g>
          <g id="svga-group-eyes-left-move" transform="matrix(1,0,0,1,0,0)">
            <g id="svga-group-eyes-left" transform="matrix(1,0,0,1,0,0)">
              <g id="svga-group-eyesback-left">
                <path id="SvgjsPath148355" d="M74.285 78.051c2.405 0.037 5.43 0.584 8.73 2.542 2.382 1.412 3.481 3.918 4.146 6.074 0.051 1.025 0.034 2.001-0.015 2.872 -0.498 3.228-1.36 5.328-3.214 7.521 -0.523 0.413-1.124 0.765-1.814 0.984 -0.186 0.059-0.518-0.332-1.056-0.316 -1.889 0.053-5.997-0.058-7.633-0.029 -3.664 0.063-5.617 0-7.388-0.682 -1.779-0.685-3.124-3.201-4.519-7.747 -0.315-1.029-0.714-3.565-0.183-4.71C63.753 79.354 70.382 77.991 74.285 78.051z" fill="url(#SvgjsRadialGradient148356)" opacity="1"/>
              </g>
              <g id="svga-group-eyesiriswrapper-left" transform="matrix(1,0,0,1,-0.5,1.5)">
                <g id="svga-group-eyesiriscontrol-left" transform="matrix(1,0,0,1,0,0)">
                  <g id="svga-group-eyesiris-left" transform="matrix(1,0,0,1,0,0)">
                    <path id="SvgjsPath148413" d="M72.886 86.517l-6.655-1.519C66.084 85.643 66 86.311 66 86.999c0 0.689 0.085 1.357 0.231 2.001l8.768-2.001L72.886 86.517z" fill="#ea2e2e" stroke-width="none" opacity="1"/>
                    <path id="SvgjsPath148414" d="M67.969 92.608c0.838 1.049 1.907 1.902 3.129 2.492l3.9-8.099L67.969 92.608z" fill="#f09330" stroke-width="none" opacity="1"/>
                    <path id="SvgjsPath148415" d="M75.001 95.999c1.399 0 2.719-0.329 3.899-0.898l-3.9-8.1L75.001 95.999z" fill="#64398e" stroke-width="none" opacity="1"/>
                    <path id="SvgjsPath148416" d="M75 87l7.032 5.607c0.83-1.039 1.432-2.265 1.736-3.606L75 87z" fill="#393b97" stroke-width="none" opacity="1"/>
                    <path id="SvgjsPath148417" d="M75 86.999l2.738-0.625 6.03-1.376c-0.305-1.341-0.906-2.567-1.736-3.606L75 86.999z" fill="#00aa4f" stroke-width="none" opacity="1"/>
                    <path id="SvgjsPath148418" d="M78.9 78.897c-1.182-0.57-2.501-0.898-3.9-0.898v8.998L78.9 78.897z" fill="#fae636" stroke-width="none" opacity="1"/>
                    <path id="SvgjsPath148419" d="M71.098 78.898c-1.222 0.59-2.291 1.442-3.13 2.492l7.03 5.607L71.098 78.898z" fill="#9c2d91" stroke-width="none" opacity="1"/>
                    <path id="SvgjsPath148420" d="M75 86.999L83.769 89C83.915 88.356 84 87.688 84 86.999s-0.085-1.357-0.231-2.001l-6.03 1.376L75 86.999z" fill="#ea2e2e" stroke-width="none" opacity="1"/>
                    <path id="SvgjsPath148421" d="M75 86.999L75 86.999 75.001 87l3.9 8.1c1.223-0.59 2.293-1.443 3.131-2.493L75 86.999 75 86.999z" fill="#9b328d" stroke-width="none" opacity="1"/>
                    <path id="SvgjsPath148422" d="M75 87L75 87 75 87 75 87 75 87 75 87 75 87l-3.9 8.1c1.181 0.57 2.501 0.899 3.9 0.899h0.001L75 87 75 87z" fill="#fde92b" stroke-width="none" opacity="1"/>
                    <path id="SvgjsPath148423" d="M74.999 87L74.999 87 74.999 87 74.999 87 74.999 87 74.999 87 74.999 87 74.999 87 74.999 87 74.999 87 74.999 87l-8.768 2.001c0.305 1.341 0.907 2.567 1.737 3.607L74.999 87 74.999 87z" fill="#00aa4f" stroke-width="none" opacity="1"/>
                    <path id="SvgjsPath148424" d="M75 86.998L75 86.998 75 86.998 75 86.998 75 86.998 75 86.998 75 86.998v-8.999c-1.4 0-2.72 0.329-3.901 0.899L75 86.998 75 86.998z" fill="#65378f" stroke-width="none" opacity="1"/>
                    <path id="SvgjsPath148425" d="M75 86.999L75 86.999 75 86.999l7.032-5.608c-0.838-1.05-1.908-1.903-3.131-2.493l-3.9 8.1L75 86.999z" fill="#ec9236" stroke-width="none" opacity="1"/>
                    <path id="SvgjsPath148426" d="M74.999 86.999L74.999 86.999l-7.031-5.608c-0.83 1.04-1.432 2.266-1.736 3.606l6.654 1.519L74.999 86.999z" fill="#393b97" stroke-width="none" opacity="1"/>
                    <path id="SvgjsPath148427" d="M75 77.999c4.971 0 9 4.029 9 9s-4.029 9-9 9 -9-4.029-9-9S70.029 77.999 75 77.999z" fill="#000000" stroke-width="none" opacity="0.3"/>
                    <path id="SvgjsPath148428" d="M78.5 86.999c0 1.933-1.566 3.5-3.5 3.5s-3.5-1.567-3.5-3.5 1.566-3.5 3.5-3.5S78.5 85.066 78.5 86.999z" fill="#000000" stroke-width="none" opacity="1"/>
                    <path id="SvgjsPath148429" d="M71.653 93.108c-0.47 0.469-1.396 0.304-2.069-0.369 -0.674-0.673-0.84-1.601-0.369-2.07 0.469-0.47 1.395-0.304 2.068 0.369C71.956 91.712 72.122 92.639 71.653 93.108z" fill="#ffffff" stroke-width="none" opacity="0.7"/>
                    <path id="SvgjsPath148430" d="M81.809 85.326c-0.702 0.703-2.403 0.142-3.8-1.254 -1.396-1.396-1.957-3.098-1.256-3.8 0.703-0.703 2.405-0.142 3.8 1.254C81.949 82.922 82.512 84.624 81.809 85.326z" fill="#ffffff" stroke-width="none" opacity="0.9"/>
                  </g>
                </g>
              </g>
              <g id="svga-group-eyesfront-left">
                <path id="SvgjsPath148380" d="M55 88c0 13.808 8.507 24.999 19 24.999S93 101.808 93 88c0-13.809-8.507-25.001-19-25.001S55 74.191 55 88zM61.524 89.269c-0.315-1.029-0.714-3.565-0.183-4.71 2.411-5.206 9.04-6.568 12.943-6.508 2.405 0.037 5.43 0.584 8.73 2.542 2.382 1.412 3.481 3.918 4.146 6.074 0.051 1.025 0.034 2.001-0.015 2.872 -0.498 3.228-1.36 5.328-3.214 7.521 -0.523 0.413-1.124 0.765-1.814 0.984 -0.186 0.059-0.518-0.332-1.056-0.316 -1.889 0.053-5.997-0.058-7.633-0.029 -3.664 0.063-5.617 0-7.388-0.682C64.264 96.331 62.919 93.815 61.524 89.269z" fill="#ecc4b8" stroke-width="none" opacity="1" stroke="none"/>
                <path id="SvgjsPath148381" d="M59.4 87.087c0.023 8.835 7.871 15.959 17.541 15.912 9.664-0.05 17.482-7.249 17.459-16.085 -0.023-8.838-7.873-15.962-17.541-15.915C67.191 71.049 59.375 78.248 59.4 87.087zM61.425 89.269c-0.315-1.029-0.714-3.565-0.183-4.71 2.411-5.206 9.04-6.568 12.943-6.508 2.405 0.037 5.43 0.584 8.73 2.542 2.382 1.412 3.481 3.918 4.146 6.074 0.051 1.025 0.034 2.001-0.015 2.872 -0.498 3.228-1.36 5.328-3.214 7.521 -0.523 0.413-1.124 0.765-1.814 0.984 -0.186 0.059-0.518-0.332-1.056-0.316 -1.889 0.053-5.997-0.058-7.633-0.029 -3.664 0.063-5.617 0-7.388-0.682C64.164 96.331 62.819 93.815 61.425 89.269z" fill="url(#SvgjsRadialGradient148382)" opacity="1"/>
                <path id="SvgjsPath148386" d="M74.285 78.051c2.405 0.037 5.43 0.584 8.73 2.542 2.382 1.412 3.481 3.918 4.146 6.074 0.051 1.025 0.034 2.001-0.015 2.872 -0.498 3.228-1.36 5.328-3.214 7.521 -0.523 0.413-1.124 0.765-1.814 0.984 -0.186 0.059-0.518-0.332-1.056-0.316 -1.889 0.053-5.997-0.058-7.633-0.029 -3.664 0.063-5.617 0-7.388-0.682 -1.779-0.685-3.124-3.201-4.519-7.747 -0.315-1.029-0.714-3.565-0.183-4.71C63.753 79.354 70.382 77.991 74.285 78.051z" fill="url(#SvgjsRadialGradient148387)" opacity="1"/>
                <path id="SvgjsPath148390" d="M62.929 75.008c3.48-1.16 13.972-1.121 18.53 1.682C75.11 74.179 69.218 74.275 62.929 75.008zM84.433 77.843c1.651 0.614 2.711 1.961 3.462 3.018C86.797 79.697 85.264 78.468 84.433 77.843z" fill="#be725b" stroke-width="none" opacity="1" stroke="none"/>
                <path id="SvgjsPath148391" d="M89.427 83.939l-3.419-2.076c0 0 1.154 1.526 1.154 4.824 -0.665-2.123-1.765-4.592-4.146-5.983 -3.301-1.928-6.325-2.467-8.73-2.503 -3.903-0.06-10.532 1.283-12.943 6.411 -0.531 1.128-0.133 3.626 0.183 4.64 1.395 4.478 2.739 6.957 4.519 7.632 1.771 0.672 3.724 0.733 7.388 0.671 1.636-0.028 5.744 0.081 7.633 0.029 0.538-0.015 1.014 0.123 1.056 0.312 0.041 0.189-0.395 0.357-0.934 0.388 -2.036 0.114-3.359 0.311-8.537 0.311 -4.591 0-6.316-0.105-7.461-0.574 -1.544-0.632-2.398-2.7-4.601-9.561 -2.888-4.32-5.457-7.39-8.587-9.511l4.988 1.574c-0.918-1.097-1.854-2.061-3.828-3.673 4.084 0.439 5.593 0.581 8.603 0.113 4.769-0.742 7.774-0.87 12.095-0.714C80.361 77.261 85.175 79.412 89.427 83.939zM83.87 97.003c2.504-1.659 3.292-4.259 3.292-7.569C86.66 92.701 85.787 94.795 83.87 97.003z" fill="#2a150e" stroke-width="none" opacity="1" stroke="none"/>
              </g>
            </g>
          </g>
          <g id="svga-group-eyes-right-move" transform="matrix(1,0,0,1,0,0)">
            <g id="svga-group-eyes-right" transform="matrix(1,0,0,1,0,0)">
              <g id="svga-group-eyesback-right">
                <path id="SvgjsPath148363" d="M125.715 78.051c-2.405 0.037-5.43 0.584-8.73 2.542 -2.382 1.412-3.481 3.918-4.146 6.074 -0.051 1.025-0.034 2.001 0.015 2.872 0.498 3.228 1.36 5.328 3.214 7.521 0.523 0.413 1.124 0.765 1.814 0.984 0.186 0.059 0.518-0.332 1.056-0.316 1.889 0.053 5.997-0.058 7.633-0.029 3.664 0.063 5.617 0 7.388-0.682 1.779-0.685 3.124-3.201 4.519-7.747 0.315-1.029 0.714-3.565 0.183-4.71C136.247 79.354 129.618 77.991 125.715 78.051z" fill="url(#SvgjsRadialGradient148364)" opacity="1"/>
              </g>
              <g id="svga-group-eyesiriswrapper-right" transform="matrix(1,0,0,1,0.5,1.5)">
                <g id="svga-group-eyesiriscontrol-right" transform="matrix(1,0,0,1,0,0)">
                  <g id="svga-group-eyesiris-right" transform="matrix(1,0,0,1,0,0)">
                    <path id="SvgjsPath148431" d="M122.886 86.517l-6.655-1.519c-0.146 0.645-0.23 1.313-0.23 2.001 0 0.689 0.085 1.357 0.231 2.001l8.768-2.001L122.886 86.517z" fill="#ea2e2e" stroke-width="none" opacity="1"/>
                    <path id="SvgjsPath148432" d="M117.969 92.608c0.838 1.049 1.907 1.902 3.129 2.492l3.9-8.099L117.969 92.608z" fill="#f09330" stroke-width="none" opacity="1"/>
                    <path id="SvgjsPath148433" d="M125.001 95.999c1.399 0 2.719-0.329 3.899-0.898l-3.9-8.1L125.001 95.999z" fill="#64398e" stroke-width="none" opacity="1"/>
                    <path id="SvgjsPath148434" d="M125 87l7.032 5.607c0.83-1.039 1.432-2.265 1.736-3.606L125 87z" fill="#393b97" stroke-width="none" opacity="1"/>
                    <path id="SvgjsPath148435" d="M125 86.999l2.738-0.625 6.03-1.376c-0.305-1.341-0.906-2.567-1.736-3.606L125 86.999z" fill="#00aa4f" stroke-width="none" opacity="1"/>
                    <path id="SvgjsPath148436" d="M128.9 78.897c-1.182-0.57-2.501-0.898-3.9-0.898v8.998L128.9 78.897z" fill="#fae636" stroke-width="none" opacity="1"/>
                    <path id="SvgjsPath148437" d="M121.098 78.898c-1.222 0.59-2.291 1.442-3.13 2.492l7.03 5.607L121.098 78.898z" fill="#9c2d91" stroke-width="none" opacity="1"/>
                    <path id="SvgjsPath148438" d="M125 86.999L133.769 89c0.146-0.645 0.231-1.313 0.231-2.001s-0.085-1.357-0.231-2.001l-6.03 1.376L125 86.999z" fill="#ea2e2e" stroke-width="none" opacity="1"/>
                    <path id="SvgjsPath148439" d="M125 86.999L125 86.999 125.001 87l3.9 8.1c1.223-0.59 2.293-1.443 3.131-2.493L125 86.999 125 86.999z" fill="#9b328d" stroke-width="none" opacity="1"/>
                    <path id="SvgjsPath148440" d="M125 87L125 87 125 87 125 87 125 87 125 87 125 87l-3.9 8.1c1.181 0.57 2.501 0.899 3.9 0.899h0.001L125 87 125 87z" fill="#fde92b" stroke-width="none" opacity="1"/>
                    <path id="SvgjsPath148441" d="M124.999 87L124.999 87 124.999 87 124.999 87 124.999 87 124.999 87 124.999 87 124.999 87 124.999 87 124.999 87 124.999 87l-8.768 2.001c0.305 1.341 0.907 2.567 1.737 3.607L124.999 87 124.999 87z" fill="#00aa4f" stroke-width="none" opacity="1"/>
                    <path id="SvgjsPath148442" d="M125 86.998L125 86.998 125 86.998 125 86.998 125 86.998 125 86.998 125 86.998v-8.999c-1.4 0-2.72 0.329-3.901 0.899L125 86.998 125 86.998z" fill="#65378f" stroke-width="none" opacity="1"/>
                    <path id="SvgjsPath148443" d="M125 86.999L125 86.999 125 86.999l7.032-5.608c-0.838-1.05-1.908-1.903-3.131-2.493l-3.9 8.1L125 86.999z" fill="#ec9236" stroke-width="none" opacity="1"/>
                    <path id="SvgjsPath148444" d="M124.999 86.999L124.999 86.999l-7.031-5.608c-0.83 1.04-1.432 2.266-1.736 3.606l6.654 1.519L124.999 86.999z" fill="#393b97" stroke-width="none" opacity="1"/>
                    <path id="SvgjsPath148445" d="M125 77.999c4.971 0 9 4.029 9 9s-4.029 9-9 9 -9-4.029-9-9S120.029 77.999 125 77.999z" fill="#000000" stroke-width="none" opacity="0.3"/>
                    <path id="SvgjsPath148446" d="M128.5 86.999c0 1.933-1.566 3.5-3.5 3.5s-3.5-1.567-3.5-3.5 1.566-3.5 3.5-3.5S128.5 85.066 128.5 86.999z" fill="#000000" stroke-width="none" opacity="1"/>
                    <path id="SvgjsPath148447" d="M121.653 93.108c-0.47 0.469-1.396 0.304-2.069-0.369 -0.674-0.673-0.84-1.601-0.369-2.07 0.469-0.47 1.395-0.304 2.068 0.369C121.956 91.712 122.122 92.639 121.653 93.108z" fill="#ffffff" stroke-width="none" opacity="0.7"/>
                    <path id="SvgjsPath148448" d="M131.809 85.326c-0.702 0.703-2.403 0.142-3.8-1.254 -1.396-1.396-1.957-3.098-1.256-3.8 0.703-0.703 2.405-0.142 3.8 1.254C131.949 82.922 132.512 84.624 131.809 85.326z" fill="#ffffff" stroke-width="none" opacity="0.9"/>
                  </g>
                </g>
              </g>
              <g id="svga-group-eyesfront-right">
                <path id="SvgjsPath148401" d="M126 62.999c-10.493 0-19 11.193-19 25.001 0 13.808 8.507 24.999 19 24.999S145 101.808 145 88C145 74.191 136.493 62.999 126 62.999zM133.957 97.016c-1.771 0.682-3.724 0.744-7.388 0.682 -1.636-0.028-5.744 0.083-7.633 0.029 -0.538-0.015-0.87 0.375-1.056 0.316 -0.69-0.219-1.291-0.571-1.814-0.984 -1.854-2.192-2.716-4.293-3.214-7.521 -0.049-0.871-0.065-1.847-0.015-2.872 0.665-2.155 1.765-4.662 4.146-6.074 3.301-1.957 6.325-2.504 8.73-2.542 3.903-0.061 10.532 1.302 12.943 6.508 0.531 1.145 0.133 3.681-0.183 4.71C137.081 93.815 135.736 96.331 133.957 97.016z" fill="#ecc4b8" stroke-width="none" opacity="1" stroke="none"/>
                <path id="SvgjsPath148402" d="M123.141 70.999c-9.668-0.047-17.518 7.077-17.541 15.915 -0.023 8.836 7.795 16.035 17.459 16.085 9.67 0.047 17.518-7.077 17.541-15.912C140.625 78.248 132.809 71.049 123.141 70.999zM134.057 97.016c-1.771 0.682-3.724 0.744-7.388 0.682 -1.636-0.028-5.744 0.083-7.633 0.029 -0.538-0.015-0.87 0.375-1.056 0.316 -0.69-0.219-1.291-0.571-1.814-0.984 -1.854-2.192-2.716-4.293-3.214-7.521 -0.049-0.871-0.065-1.847-0.015-2.872 0.665-2.155 1.765-4.662 4.146-6.074 3.301-1.957 6.325-2.504 8.73-2.542 3.903-0.061 10.532 1.302 12.943 6.508 0.531 1.145 0.133 3.681-0.183 4.71C137.181 93.815 135.836 96.331 134.057 97.016z" fill="url(#SvgjsRadialGradient148403)" opacity="1"/>
                <path id="SvgjsPath148407" d="M125.715 78.051c-2.405 0.037-5.43 0.584-8.73 2.542 -2.382 1.412-3.481 3.918-4.146 6.074 -0.051 1.025-0.034 2.001 0.015 2.872 0.498 3.228 1.36 5.328 3.214 7.521 0.523 0.413 1.124 0.765 1.814 0.984 0.186 0.059 0.518-0.332 1.056-0.316 1.889 0.053 5.997-0.058 7.633-0.029 3.664 0.063 5.617 0 7.388-0.682 1.779-0.685 3.124-3.201 4.519-7.747 0.315-1.029 0.714-3.565 0.183-4.71C136.247 79.354 129.618 77.991 125.715 78.051z" fill="url(#SvgjsRadialGradient148408)" opacity="1"/>
                <path id="SvgjsPath148411" d="M118.541 76.689c4.559-2.803 15.05-2.842 18.53-1.682C130.782 74.275 124.89 74.179 118.541 76.689zM112.105 80.861c0.751-1.057 1.811-2.404 3.462-3.018C114.736 78.468 113.203 79.697 112.105 80.861z" fill="#be725b" stroke-width="none" opacity="1" stroke="none"/>
                <path id="SvgjsPath148412" d="M126.143 76.247c4.32-0.156 7.326-0.028 12.095 0.714 3.01 0.468 4.519 0.327 8.603-0.113 -1.974 1.612-2.91 2.576-3.828 3.673L148 78.947c-3.13 2.121-5.699 5.191-8.587 9.511 -2.202 6.861-3.057 8.929-4.601 9.561 -1.145 0.469-2.87 0.574-7.461 0.574 -5.178 0-6.501-0.197-8.537-0.311 -0.539-0.03-0.975-0.199-0.934-0.388 0.042-0.188 0.518-0.327 1.056-0.312 1.889 0.052 5.997-0.057 7.633-0.029 3.664 0.062 5.617 0 7.388-0.671 1.779-0.675 3.124-3.154 4.519-7.632 0.315-1.014 0.714-3.512 0.183-4.64 -2.411-5.128-9.04-6.47-12.943-6.411 -2.405 0.037-5.43 0.576-8.73 2.503 -2.382 1.391-3.481 3.86-4.146 5.983 0-3.297 1.154-4.824 1.154-4.824l-3.419 2.076C114.825 79.412 119.639 77.261 126.143 76.247zM112.838 89.434c0 3.31 0.788 5.91 3.292 7.569C114.213 94.795 113.34 92.701 112.838 89.434z" fill="#2a150e" stroke-width="none" opacity="1" stroke="none"/>
              </g>
            </g>
          </g>
          <g id="svga-group-facehighlight-single">
            <path id="SvgjsPath148164" d="M140.204 113.007c0.035 22.275-17.995 40.365-40.273 40.396 -22.274 0.036-40.361-17.993-40.396-40.272C59.501 90.857 77.53 72.77 99.808 72.735 122.083 72.701 140.171 90.73 140.204 113.007z" fill="url(#SvgjsRadialGradient148165)" opacity="1"/>
            <path id="SvgjsPath148168" d="M135,55.999c0,19.329-15.671,35-35,35c-19.329,0-35-15.671-35-35s15.671-35,35-35C119.329,20.999,135,36.67,135,55.999z" fill="url(#SvgjsRadialGradient148169)" opacity="1"/>
          </g>
          <g id="svga-group-eyebrows-left-move" transform="matrix(1,0,0,1,0,0)">
            <g id="svga-group-eyebrows-left-rotate" transform="matrix(1,0,0,1,0,0)">
              <g id="svga-group-eyebrows-left" transform="matrix(1,0,0,1,0,0)">
                <path id="SvgjsPath148449" d="M56.113 70.739c32.178-9.407 39.48 9.836 32.802 3.849C81.977 68.368 65.958 68.92 56.113 70.739z" fill="#a46c47" stroke-width="none" opacity="1" stroke="none"/>
              </g>
            </g>
          </g>
          <g id="svga-group-eyebrows-right-move" transform="matrix(1,0,0,1,0,0)">
            <g id="svga-group-eyebrows-right-rotate" transform="matrix(1,0,0,1,0,0)">
              <g id="svga-group-eyebrows-right" transform="matrix(1,0,0,1,0,0)">
                <path id="SvgjsPath148450" d="M143.889 70.731c-9.304-1.701-22.773-2.38-30.946 2.53 -1.01 0.606-5.017 4.041-3.951 1.625C110.929 70.486 123.744 64.882 143.889 70.731z" fill="#a46c47" stroke-width="none" opacity="1" stroke="none"/>
              </g>
            </g>
          </g>
          <g id="svga-group-nose-single-move" transform="matrix(1,0,0,1,0,0)">
            <g id="svga-group-nose-single" transform="matrix(1,0,0,1,0,0)">
              <path id="SvgjsPath148459" d="M99.044 91.436c0 0-0.827 19.066-0.713 23.254 0.032 1.188 2.32 4.304 2.164 6.575 0 0-4.462-0.325-5.914-0.838 -1.519-0.538-3.869-1.588-2.94-4.521C92.964 111.735 99.044 91.436 99.044 91.436z" fill="#dda696" stroke-width="none" opacity="1" stroke="none"/>
              <path id="SvgjsPath148460" d="M98.627 119.026c0 0-1.851-0.657-3.02-0.624 -1.064 0.033-1.218-0.676-1.11-1.079 0.108-0.403 0.473-0.654 1.501-0.38C97.027 117.219 98.627 119.026 98.627 119.026zM101.382 119.028c0 0 1.847-0.609 3.02-0.622 1.064-0.013 1.219-0.677 1.11-1.079 -0.108-0.404-0.473-0.657-1.501-0.383C102.982 117.222 101.382 119.028 101.382 119.028z" fill="#be725b" stroke-width="none" opacity="1" stroke="none"/>
            </g>
          </g>
          <g id="svga-group-hair-front" transform="matrix(1,0,0,1,0,0)">
            <path id="SvgjsPath148332" d="M137.933 141.731c16.512-55.946-2.844-86.784-5.085-96.474 -0.461-1.994-2.839-7.675-2.839-7.675 -8.857-4.884-13.91-5.96-24.344-5.96 -7.02 0-10.784 0.161-17.606 2.384 -7.164 7.132-27.936 32.674-36.394 51.778 4.185 15.866 6.826 68.128 4.833 72.716 -15.408 0.498-9.962-129.099-9.962-129.099 5.36 0 103.2-4.161 108.719-4.161C155.255 25.241 161.143 139.85 137.933 141.731z" fill="#a46c47" stroke-width="none" opacity="0.1" stroke="none"/>
            <path id="SvgjsPath148333" d="M129.421 235.813c7.562-15.873 5.54-26.495 3.584-36.774 -1.463-7.688-2.978-15.637-0.401-25.709 -0.845-13.438 2.629-24.662 6.307-36.547 7.017-22.68 14.97-48.384-6.036-96.463l-0.026-0.062 -0.061-0.033c-8.857-4.884-19.055-7.465-29.488-7.465 -7.02 0-14.039 1.127-20.861 3.351 -7.164 7.132-24.063 29.375-32.521 48.479 0.245 3.976 0.862 8.197 1.927 13.381 4.34 21.321 4.5 38.71 4.654 55.53 0.23 25.185 0.45 48.987 15.491 81.027 -1.855-1.622-3.654-3.18-5.397-4.688 -18.63-16.117-30.938-26.765-34.354-51.049l-0.398 0.021c0 0-0.33 9.248-0.47 13.14C21.141 141.693 19.924 101.158 25.877 60.5 30.869 26.402 62.752-6.334 88.302-6.334c5.36 0 10.53 0.952 15.365 2.83l0.073 0.028 0.072-0.029c6.084-2.401 11.969-3.619 17.488-3.619 16.125 0 29.904 7.554 39.849 27.521 11.614 23.322 17.796 59.631 16.534 97.126 -1.229 36.535-9.174 68.096-21.295 84.732 0.656-3.462 0.867-5.002 1.26-8.908l-0.388-0.089c-7.468 20.085-17.243 30.866-26.698 41.292C130.182 234.974 129.8 235.394 129.421 235.813z" fill="#a46c47" stroke-width="none" opacity="1" stroke="none"/>
            <path id="SvgjsPath148334" d="M50.023 86.038c0.295 3.558 0.885 7.374 1.822 11.934 4.341 21.321 4.5 38.712 4.654 55.53 0.231 25.185 0.45 48.987 15.491 81.027 -1.855-1.623-3.654-3.18-5.397-4.688 -9.569-8.279-17.466-15.118-23.351-23.1 -9.281-17.978-12.373-31.131-12.373-60.673 4.5 24.167 5.667 36.329 23.74 60.667C36.699 171.857 29.855 120.033 50.023 86.038zM175.502 121.842C173.57 134.101 170.613 161.006 166 173c2.684-17.925 2.144-23.32 2-41 -4 23-9.352 50.397-20 68 3.834-15.765 7.255-28.928 7.255-48.595C150.202 170.072 141.482 173.074 140 187c3.888-36.515 20.87-75.267 3.842-113.642 5.986 28.08 0.275 46.59-4.933 63.424 -3.679 11.885-7.15 23.11-6.308 36.547 -2.574 10.071-1.061 18.021 0.402 25.709 1.956 10.28 3.979 20.901-3.584 36.773 0.379-0.419 0.76-0.839 1.143-1.261 9.455-10.426 19.23-21.207 26.698-41.292l0.388 0.089c-0.393 3.906-0.604 5.446-1.26 8.908C168.029 186.278 173.814 156.535 175.502 121.842zM37.27 72.427c-2.445 5.423-6.514 62.265-3.284 74.552 0.046 0.17-0.056-0.172-0.268-0.912C28.817 130.232 34.444 77.602 37.27 72.427zM28.995 149.658c0.151 1.726 0.322 2.77 0.297 2.562 -0.132-0.51-1.95-44.056-1.492-44.315 0.1-0.021 0.069 0.018 0.102 0.025C26.832 108.215 27.775 136.716 28.995 149.658zM161.813 133.315c-1.464 16.704-5.294 35.469-2.028 18.988 5.737-27.943 7.126-52.795 0.201-80.288C162.865 85.764 164.776 96.6 161.813 133.315z" fill="#955932" stroke-width="none" opacity="1" stroke="none"/>
            <path id="SvgjsPath148335" d="M127 29c16.888 6.402 32 75 26 115 10.155-44 7.566-81.265-11-119 16.968 27.907 24.125 38.909 26.371 82.435 3.32-19.596 2.846-43.368-0.37-69.895 -2.007-6.258-4.298-12.015-6.852-17.143C151.206 0.43 137.427-7.124 121.302-7.124c-5.521 0-11.403 1.218-17.489 3.619l-0.071 0.029 -0.073-0.028c-4.835-1.878-10.005-2.83-15.365-2.83 -12.584 0-27.104 8.274-39.002 20.577C32.418 39.738 27.122 71.139 28 101c1-24 13-48 28-66 -11 26-19 53-20 81 6-39 35.469-88.265 58-96 6.9-2.369 15.467-1.286 17.615 6.42 1.188 1.846 1.794 4.125 1.385 6.58 1.407-1.126 2.791-1.964 4.165-2.536C120.504 27.823 124.108 27.904 127 29z" fill="#ac7653" stroke-width="none" opacity="1" stroke="none"/>
            <path id="SvgjsPath148336" d="M113 33c1-6-5-11.6-10-11.6 -8.118 0-16.148 7.781-21.182 15.339 0.212-0.22 0.42-0.433 0.619-0.63 6.822-2.224 13.841-3.351 20.861-3.351 10.435 0 20.63 2.582 29.488 7.465l0.06 0.033 0.027 0.062c0.054 0.123 0.102 0.24 0.152 0.362 -0.271-3.492-4.157-7.681-6.063-9.05C121.964 28.63 117.881 28.408 113 33z" fill="#85481f" stroke-width="none" opacity="1" stroke="none"/>
            <path id="SvgjsPath148337" d="M123.605 15.551c14.693 2.885 21.418 18.935 25.36 33.284C149.686 51.544 142.26 19.955 123.605 15.551zM167.8 60.71c-2.621-21.61-11.549-43.651-30.488-54.378C163.85 22.934 168.197 63.544 167.8 60.71zM91.438 18.545c1.918-0.426-12.385 1.221-23.378 15.036 -7.164 8.71-13.558 21.986-16.138 27.16C59.841 44.582 73.947 22.662 91.438 18.545zM75.803 6.583C59.858 11.72 49.913 23.31 44.498 37.629 55.194 12.346 80.312 5.185 75.803 6.583zM111.399 5.315C107.242-3.4 99.008-7.734 86.591-6.171c12.168-0.83 20.242 4.56 23.477 11.712 -6.828-7.43-19.214 1.181-18.223 0.847 0.978-0.692 13.933-4.741 18.745 0.193 2.196 4.651 3.396 10.396 3.765 16.96 0.41 8.729 0.354-4.552-0.186-8.375 -0.458-3.457-1.292-6.551-2.495-9.251 4.005-5.099 11.348-5.508 17.675-2.897l0.041-0.091C123.153-0.222 114.057-0.279 111.399 5.315z" fill="#a46c47" stroke-width="none" opacity="1" stroke="none"/>
            <path id="SvgjsPath148338" d="M114.04 32.379c5.321-4.434 12.993-3.73 18.039 6.7l0.61 1.32c31.857 72.917-2.776 93.617-0.28 132.88 -6.107 23.896 10.536 35.066-3.79 63.72 9.811-10.893 20.781-22.021 28.83-43.67 -0.429 4.271-0.652 5.762-1.42 9.75 38.854-51.466 30.84-240.344-52.29-206.77 -26.87-12.574-69.464 14.093-78.06 64.16 -7.504 43.708-3.863 86.184 5.83 133.16 0.025-0.661 0.53-14.811 0.53-14.811 3.785 26.906 18.251 36.949 40.54 56.49 -25.454-53.516-9.508-83.19-20.54-137.379 -0.9-4.38-1.64-8.8-1.94-13.26 8.343-18.843 25.079-41.048 32.4-48.37l1.21-1.21c0.099-0.095 5.39-5.147 5.63-5.37 8.201-3.25 17.274-4.018 22.341 3.593 -3.037-7.992-13.058-8.04-20.73-5.043 8.445-7.445 18.682-10.292 22.191 4.081 0.103 0.419 0.082 1.196 0.082 1.196S113.665 32.692 114.04 32.379zM175.077 118.061c-0.38 12.364-2.541 54.771-17.658 82.27 1.066-4.51 1.76-8.328 2.021-12.801 4.745-14.82 5.854-26.1 6.028-27.1 -5.55 27.37-15.529 51.351-34.619 73.569 13.535-29.831-2.641-35.97 1.67-59.33 0.967 11.022 4.291 21.701 7.739 32.05 0.49-9.871 2.533-21.996 7.271-30.71 -1.799 2.479-7.063 14.054-7.93 26.21 -14.464-50.55 5.344-49.98 8.17-108.66 2.604 21.148-0.119 28.44-0.119 28.44 5.72-19.17 0.543-32.426-0.826-43.12 -1.693-13.216-10.355-34.177-11.654-36.99 -4.865-10.169-12.197-16.503-21.13-10.39 -8.374-24.158-29.294-0.563-35.459 6.21 -8.888 9.765-22.52 28.087-29.211 44.29 0 0.01-0.01 0.02-0.01 0.03 -4.833 11.717-6.102 20.844-7.32 28.84 2.306-11.387 4.596-18.222 7.43-24.77 0.18 3.31 0.57 6.61 1.08 9.87 8.997 57.645-6.818 82.899 20.06 136.78 -34.449-32.043-38.365-41.664-39.7-80.58 -0.238 24.988 0.937 10.513-0.14 30.7 -5.768-39.082-10.682-67.553-2.5-118.52 9.267-57.727 52.276-77.212 75.43-67.42 30.296-12.349 48.97 5.949 61.2 35.04 2.775 6.604 10.469 37.291 5.6 62.41 0 0 2.195-6.328 3.66-18.7C175.565 89.307 175.505 104.127 175.077 118.061z" fill="#763810" stroke-width="none" opacity="1" stroke="none"/>
          </g>
          <g id="svga-group-glasses-single-move" transform="matrix(1,0,0,1,0,0)">
            <g id="svga-group-glasses-single" transform="matrix(1,0,0,1,0,0)">
              <path id="SvgjsPath148296" d="M100,18.13L100,18.13L100,18.13L100,18.13z" fill="#26120b" stroke-width="none" opacity="1"/>
            </g>
          </g>
        </g>
      </g>
    </g>
    <rect id="SvgjsRect148149" width="200" height="15" x="0" y="185" fill="#ecf0f1" opacity="0.5" style="display: none;"/>
    <text id="SvgjsText148150" font-family="Roboto, Helvetica, Arial, sans-serif" font-size="10px" text-anchor="start" font-weight="400" anchor="start" fill="#333333" x="58.03125" y="182.4296875" style="display: none;">
      <tspan id="SvgjsTspan148151" dy="13" x="58.03125">Created on face.co</tspan>
    </text>
  </g>
</svg>
