<?xml version="1.0"?>
<svg xmlns="http://www.w3.org/2000/svg" version="1.1" width="600px" height="600px" viewBox="0 0 200 200" style="overflow:hidden!important;">
  <defs id="SvgjsDefs82817">
    <radialGradient id="SvgjsRadialGradient82878" cx="100" cy="113" r="40" gradientUnits="userSpaceOnUse" class="svga-on-canvas-facehighlight-gradient-single-0">
      <stop id="SvgjsStop82879" stop-opacity="0.5" stop-color="#fff4f3" offset="0"/>
      <stop id="SvgjsStop82880" stop-opacity="0" stop-color="#f3d4cf" offset="0.9"/>
    </radialGradient>
    <radialGradient id="SvgjsRadialGradient82882" cx="100" cy="57" r="36" gradientUnits="userSpaceOnUse" class="svga-on-canvas-facehighlight-gradient-single-1">
      <stop id="SvgjsStop82883" stop-opacity="0.5" stop-color="#fff4f3" offset="0"/>
      <stop id="SvgjsStop82884" stop-opacity="0" stop-color="#f3d4cf" offset="0.9"/>
    </radialGradient>
    <radialGradient id="SvgjsRadialGradient82967" cx="-565.337" cy="-492.691" r="84.644" gradientTransform="matrix(0.0991 8.856325e-004 -0.0011 0.0991 130.3774 136.3533)" gradientUnits="userSpaceOnUse" class="svga-on-canvas-eyesiris-gradient-left-2">
      <stop id="SvgjsStop82968" stop-opacity="0.8" stop-color="#ffffff" offset="0"/>
      <stop id="SvgjsStop82969" stop-opacity="0" stop-color="#ffffff" offset="1"/>
    </radialGradient>
    <linearGradient id="SvgjsLinearGradient82973" x1="122.283" y1="93.047" x2="123.61" y2="91.466" gradientTransform="matrix(1 0 0 1 -52 0)" gradientUnits="userSpaceOnUse" class="svga-on-canvas-eyesiris-gradient-left-5">
      <stop id="SvgjsStop82974" stop-opacity="1" stop-color="#ffffff" offset="0"/>
      <stop id="SvgjsStop82975" stop-opacity="0" stop-color="#ffffff" offset="1"/>
    </linearGradient>
    <linearGradient id="SvgjsLinearGradient82977" x1="127" y1="85" x2="125" y2="87" gradientTransform="matrix(1 0 0 1 -50 0)" gradientUnits="userSpaceOnUse" class="svga-on-canvas-eyesiris-gradient-left-6">
      <stop id="SvgjsStop82978" stop-opacity="1" stop-color="#ffffff" offset="0"/>
      <stop id="SvgjsStop82979" stop-opacity="0" stop-color="#ffffff" offset="1"/>
    </linearGradient>
    <linearGradient id="SvgjsLinearGradient82981" x1="130" y1="81" x2="126" y2="85" gradientTransform="matrix(1 0 0 1 -50 0)" gradientUnits="userSpaceOnUse" class="svga-on-canvas-eyesiris-gradient-left-7">
      <stop id="SvgjsStop82982" stop-opacity="1" stop-color="#ffffff" offset="0"/>
      <stop id="SvgjsStop82983" stop-opacity="0" stop-color="#ffffff" offset="1"/>
    </linearGradient>
    <radialGradient id="SvgjsRadialGradient82990" cx="-584.778" cy="-487.329" r="84.644" gradientTransform="matrix(0.0991 8.856325e-004 -0.0011 0.0991 182.3104 135.839)" gradientUnits="userSpaceOnUse" class="svga-on-canvas-eyesiris-gradient-right-2">
      <stop id="SvgjsStop82991" stop-opacity="0.8" stop-color="#ffffff" offset="0"/>
      <stop id="SvgjsStop82992" stop-opacity="0" stop-color="#ffffff" offset="1"/>
    </radialGradient>
    <linearGradient id="SvgjsLinearGradient82996" x1="120.284" y1="93.047" x2="121.611" y2="91.467" gradientUnits="userSpaceOnUse" class="svga-on-canvas-eyesiris-gradient-right-5">
      <stop id="SvgjsStop82997" stop-opacity="1" stop-color="#ffffff" offset="0"/>
      <stop id="SvgjsStop82998" stop-opacity="0" stop-color="#ffffff" offset="1"/>
    </linearGradient>
    <linearGradient id="SvgjsLinearGradient83000" x1="127" y1="85" x2="125" y2="87" gradientUnits="userSpaceOnUse" class="svga-on-canvas-eyesiris-gradient-right-6">
      <stop id="SvgjsStop83001" stop-opacity="1" stop-color="#ffffff" offset="0"/>
      <stop id="SvgjsStop83002" stop-opacity="0" stop-color="#ffffff" offset="1"/>
    </linearGradient>
    <linearGradient id="SvgjsLinearGradient83004" x1="130" y1="81" x2="126" y2="85" gradientUnits="userSpaceOnUse" class="svga-on-canvas-eyesiris-gradient-right-7">
      <stop id="SvgjsStop83005" stop-opacity="1" stop-color="#ffffff" offset="0"/>
      <stop id="SvgjsStop83006" stop-opacity="0" stop-color="#ffffff" offset="1"/>
    </linearGradient>
    <radialGradient id="SvgjsRadialGradient83060" cx="125.187" cy="86.184" r="12.84" gradientTransform="matrix(-1.0592 3.999999e-004 -4.000000e-004 1.0589 206.5114 -6.1261)" gradientUnits="userSpaceOnUse" class="svga-on-canvas-eyesback-gradient-left-0">
      <stop id="SvgjsStop83061" stop-opacity="1" stop-color="#ffffff" offset="0"/>
      <stop id="SvgjsStop83062" stop-opacity="1" stop-color="#fdfefe" offset="0.544"/>
      <stop id="SvgjsStop83063" stop-opacity="1" stop-color="#f6f8f9" offset="0.74"/>
      <stop id="SvgjsStop83064" stop-opacity="1" stop-color="#eaeff2" offset="0.879"/>
      <stop id="SvgjsStop83065" stop-opacity="1" stop-color="#d9e3e8" offset="0.992"/>
      <stop id="SvgjsStop83066" stop-opacity="1" stop-color="#d8e2e7" offset="1"/>
    </radialGradient>
    <radialGradient id="SvgjsRadialGradient83068" cx="125.187" cy="86.184" r="12.84" gradientTransform="matrix(1.0592 4.000000e-004 4.000000e-004 1.0589 -6.5114 -6.1261)" gradientUnits="userSpaceOnUse" class="svga-on-canvas-eyesback-gradient-right-0">
      <stop id="SvgjsStop83069" stop-opacity="1" stop-color="#ffffff" offset="0"/>
      <stop id="SvgjsStop83070" stop-opacity="1" stop-color="#fdfefe" offset="0.544"/>
      <stop id="SvgjsStop83071" stop-opacity="1" stop-color="#f6f8f9" offset="0.74"/>
      <stop id="SvgjsStop83072" stop-opacity="1" stop-color="#eaeff2" offset="0.879"/>
      <stop id="SvgjsStop83073" stop-opacity="1" stop-color="#d9e3e8" offset="0.992"/>
      <stop id="SvgjsStop83074" stop-opacity="1" stop-color="#d8e2e7" offset="1"/>
    </radialGradient>
    <radialGradient id="SvgjsRadialGradient83076" cx="125.187" cy="86.184" r="12.84" gradientTransform="matrix(-1.0592 3.999999e-004 -4.000000e-004 1.0589 206.5114 -6.1261)" gradientUnits="userSpaceOnUse" class="svga-on-canvas-eyesfront-gradient-left-0">
      <stop id="SvgjsStop83077" stop-opacity="1" stop-color="#ffffff" offset="0"/>
      <stop id="SvgjsStop83078" stop-opacity="1" stop-color="#fdfefe" offset="0.544"/>
      <stop id="SvgjsStop83079" stop-opacity="1" stop-color="#f6f8f9" offset="0.74"/>
      <stop id="SvgjsStop83080" stop-opacity="1" stop-color="#eaeff2" offset="0.879"/>
      <stop id="SvgjsStop83081" stop-opacity="1" stop-color="#d9e3e8" offset="0.992"/>
      <stop id="SvgjsStop83082" stop-opacity="1" stop-color="#d8e2e7" offset="1"/>
    </radialGradient>
    <radialGradient id="SvgjsRadialGradient83086" cx="123.021" cy="84.391" fx="133.604" fy="80.492" r="17.898" gradientTransform="matrix(0.9998 0.0208 0.0166 -0.7998 -47.4114 149.3288)" gradientUnits="userSpaceOnUse" class="svga-on-canvas-eyesfront-gradient-left-3">
      <stop id="SvgjsStop83087" stop-opacity="1" stop-color="#e4b3ab" offset="0"/>
      <stop id="SvgjsStop83088" stop-opacity="0.3" stop-color="#e4b3ab" offset="0.7"/>
      <stop id="SvgjsStop83089" stop-opacity="0" stop-color="#f3d4cf" offset="1"/>
    </radialGradient>
    <radialGradient id="SvgjsRadialGradient83091" cx="79.54" cy="83.579" r="23.208" gradientTransform="matrix(1.0971 -0.0567 0.0576 1.0844 -20.1314 20.8883)" gradientUnits="userSpaceOnUse" class="svga-on-canvas-eyesfront-gradient-left-4">
      <stop id="SvgjsStop83092" stop-opacity="0" stop-color="#000000" offset="0.94"/>
      <stop id="SvgjsStop83093" stop-opacity="0.3" stop-color="#000000" offset="1"/>
    </radialGradient>
    <radialGradient id="SvgjsRadialGradient83097" cx="125.187" cy="86.184" r="12.84" gradientTransform="matrix(1.0592 4.000000e-004 4.000000e-004 1.0589 -6.5114 -6.1261)" gradientUnits="userSpaceOnUse" class="svga-on-canvas-eyesfront-gradient-right-0">
      <stop id="SvgjsStop83098" stop-opacity="1" stop-color="#ffffff" offset="0"/>
      <stop id="SvgjsStop83099" stop-opacity="1" stop-color="#fdfefe" offset="0.544"/>
      <stop id="SvgjsStop83100" stop-opacity="1" stop-color="#f6f8f9" offset="0.74"/>
      <stop id="SvgjsStop83101" stop-opacity="1" stop-color="#eaeff2" offset="0.879"/>
      <stop id="SvgjsStop83102" stop-opacity="1" stop-color="#d9e3e8" offset="0.992"/>
      <stop id="SvgjsStop83103" stop-opacity="1" stop-color="#d8e2e7" offset="1"/>
    </radialGradient>
    <radialGradient id="SvgjsRadialGradient83107" cx="123.021" cy="84.391" fx="133.604" fy="80.492" r="17.898" gradientTransform="matrix(-0.9998 0.0208 -0.0166 -0.7998 247.4192 149.3287)" gradientUnits="userSpaceOnUse" class="svga-on-canvas-eyesfront-gradient-right-3">
      <stop id="SvgjsStop83108" stop-opacity="1" stop-color="#e4b3ab" offset="0"/>
      <stop id="SvgjsStop83109" stop-opacity="0.3" stop-color="#e4b3ab" offset="0.7"/>
      <stop id="SvgjsStop83110" stop-opacity="0" stop-color="#f3d4cf" offset="1"/>
    </radialGradient>
    <radialGradient id="SvgjsRadialGradient83112" cx="79.54" cy="83.579" r="23.208" gradientTransform="matrix(-1.0971 -0.0567 -0.0576 1.0844 220.1314 20.8883)" gradientUnits="userSpaceOnUse" class="svga-on-canvas-eyesfront-gradient-right-4">
      <stop id="SvgjsStop83113" stop-opacity="0" stop-color="#000000" offset="0.94"/>
      <stop id="SvgjsStop83114" stop-opacity="0.3" stop-color="#000000" offset="1"/>
    </radialGradient>
    <linearGradient id="SvgjsLinearGradient83119" x1="130" y1="81" x2="126" y2="85" gradientTransform="matrix(1 0 0 1 -50 0)" gradientUnits="userSpaceOnUse" class="svga-on-canvas-eyesiris-gradient-left-1">
      <stop id="SvgjsStop83120" stop-opacity="1" stop-color="#ffffff" offset="0"/>
      <stop id="SvgjsStop83121" stop-opacity="0" stop-color="#ffffff" offset="1"/>
    </linearGradient>
    <linearGradient id="SvgjsLinearGradient83124" x1="130" y1="81" x2="126" y2="85" gradientUnits="userSpaceOnUse" class="svga-on-canvas-eyesiris-gradient-right-1">
      <stop id="SvgjsStop83125" stop-opacity="1" stop-color="#ffffff" offset="0"/>
      <stop id="SvgjsStop83126" stop-opacity="0" stop-color="#ffffff" offset="1"/>
    </linearGradient>
    <linearGradient id="SvgjsLinearGradient83130" x1="100" y1="141" x2="100" y2="138" gradientUnits="userSpaceOnUse" class="svga-on-canvas-mouth-gradient-single-0">
      <stop id="SvgjsStop83131" stop-opacity="1" stop-color="#f3d4cf" offset="0.1"/>
      <stop id="SvgjsStop83132" stop-opacity="1" stop-color="#d4958a" offset="0.9"/>
    </linearGradient>
    <linearGradient id="SvgjsLinearGradient83153" x1="99.98" y1="171.27" x2="99.98" y2="136.351" gradientUnits="userSpaceOnUse" class="svga-on-canvas-chinshadow-gradient-single-0">
      <stop id="SvgjsStop83154" stop-opacity="0.8" stop-color="#e4b3ab" offset="0"/>
      <stop id="SvgjsStop83155" stop-opacity="1" stop-color="#c5796d" offset="0.7"/>
    </linearGradient>
  </defs>
  <g id="svga-group-wrapper">
    <g id="svga-group-backs-single">
      <path id="SvgjsPath82865" d="M225 225H-25V-25h250V225z" fill="#ecf0f1" stroke-width="none" opacity="1"/>
    </g>
    <g id="svga-group-humanwrap-move" transform="matrix(1,0,0,1,0,0)">
      <g id="svga-group-humanwrap" transform="matrix(1,0,0,1,0,0)">
        <g id="svga-group-hair-back-move" transform="matrix(1,0,0,1,0,0)">
          <g id="svga-group-hair-back" transform="matrix(1,0,0,1,0,0)">
            <path id="SvgjsPath83035" d="M160.527 108.896c-0.826 32.13-25.267 102.589-58.469 102.589 -33.201 0-60.969-69.5-61.767-102.589 -1.15-47.67 26.917-86.339 60.118-86.339C133.611 22.558 161.753 61.229 160.527 108.896z" fill="#543c32" stroke-width="none" opacity="1" stroke="none"/>
          </g>
        </g>
        <g id="svga-group-humanbody-single">
          <path id="SvgjsPath82885" d="M190.858 199.866c-6.008-10.158-13.474-11.973-19.628-13.936 -6.323-2.016-19.346-3.178-26.449-4.6 -6.86-1.373-23.153-5.789-23.339-13.488 -0.192-8.066 4.291-40.09 4.291-40.09H74.005c0 0 4.487 32.023 4.294 40.09 -0.184 7.699-16.48 12.115-23.341 13.488 -7.104 1.422-20.125 2.584-26.448 4.6 -6.156 1.963-13.624 3.777-19.632 13.936 -3.644 6.16-6.008 16.133-6.008 27.133h194C196.869 215.999 194.509 206.026 190.858 199.866z" fill="#f3d4cf" stroke-width="none" opacity="1" stroke="none"/>
          <path id="SvgjsPath82886" d="M121.442 167.843c2.495 10.929 18.165 13.698 26.293 15.325 21.909 4.379 33.772 5.134 42.297 19.539 2.903 4.916 5.459 15.864 5.962 24.153 1.835 0.291 0.531-17.432-5.136-26.994 -9.742-16.472-29.089-15.135-46.077-18.535C137.921 179.958 121.628 175.542 121.442 167.843L121.442 167.843zM78.558 167.843c-0.186 7.699-16.479 12.115-23.339 13.488 -16.988 3.4-36.335 2.063-46.077 18.535 -5.667 9.563-6.971 27.285-5.136 26.994 0.503-8.289 3.059-19.237 5.962-24.153 8.524-14.405 20.388-15.16 42.297-19.539C60.393 181.541 76.063 178.771 78.558 167.843L78.558 167.843z" fill="#fff4f3" stroke-width="none" opacity="1" stroke="none"/>
          <path id="SvgjsPath82887" d="M51.206 189.513c0 0 28.641 0.299 33.473 1.885 2.314 0.758 8.372 5.633 8.372 5.633s-6.556-3.17-8.658-3.758C79.51 191.909 51.206 189.513 51.206 189.513zM99.795 199.999c2.053-0.041 7.887-3.799 7.887-3.799s-5.574 2.059-7.342 2.16c-1.491 0.086-6.366-1.238-6.366-1.238S98.112 200.032 99.795 199.999zM117.008 192.757c6.75-1.818 29.786-3.23 29.786-3.23s-23.791-0.516-30.51 1.725c-2.252 0.752-7.562 5.16-7.562 5.16S114.786 193.354 117.008 192.757z" fill="#e4b3ab" stroke-width="none" opacity="1" stroke="none"/>
          <path id="SvgjsPath82888" d="M190.858 199.866c-9.741-16.471-29.122-15.142-46.077-18.535 -6.86-1.373-23.153-5.789-23.339-13.488 -0.192-8.066 4.291-40.09 4.291-40.09H74.005c0 0 4.487 32.023 4.294 40.09 -0.184 7.699-16.48 12.115-23.341 13.488 -7.104 1.422-20.125 2.584-26.448 4.6 -6.156 1.963-13.624 3.777-19.632 13.936 -3.644 6.16-6.008 16.133-6.008 27.133h194C196.869 215.999 194.509 206.026 190.858 199.866z" fill="none" stroke="#c5796d" stroke-width="1.5" opacity="1"/>
        </g>
        <g id="svga-group-chinshadow-single">
          <path id="SvgjsPath83152" d="M100.021 171.27c5.607-0.009 13.53-3.627 20.967-8.478 0.485-6.84 1.756-17.341 2.758-25.098 -13.972-1.825-33.828-1.785-47.741 0.101 0.995 7.702 2.249 18.065 2.739 24.877C86.278 167.593 94.344 171.279 100.021 171.27z" fill="url(#SvgjsLinearGradient83153)" opacity="1"/>
        </g>
        <g id="svga-group-clothes-single">
          <path id="SvgjsPath83139" d="M103.441 229.899c-18.333 0-36.705-0.539-54.995-1.778 -15.203-1.031-30.378-2.423-45.577-3.513 -0.395 0.562-0.339-0.934-0.358-1.242 -0.063-1.019-0.104-2.04-0.108-3.061 -0.009-2.058 0.125-4.13 0.574-6.143 0.412-1.843 1.173-3.577 1.822-5.344 0.053-0.144-1.718-1.102-2-1.258 0.727-1.272 1.67-2.456 2.597-3.584 -1.756-1.127-3.547-2.263-5.246-3.476 2.355-2.815 5.602-4.512 8.114-7.131 -1.025-0.663-2.03-1.359-2.985-2.12 -0.249-0.198-0.494-0.4-0.739-0.604 -0.398-0.33-0.075-0.435 0.216-0.759 0.425-0.499 0.867-0.984 1.325-1.454 1.696-1.742 3.599-3.279 5.626-4.62 4.417-2.919 9.418-4.918 14.568-6.104 1.312-0.303 2.636-0.552 3.968-0.749 0.461-0.08 0.925-0.19 1.351-0.075 0.531 0.144 1.088 0.551 1.586 0.79 2.117 1.021 4.265 1.973 6.442 2.859 4.636 1.888 9.383 3.491 14.194 4.869 20.634 5.908 42.528 7.305 63.728 3.957 10.546-1.665 20.96-4.469 30.987-8.119 2.774-1.011 5.52-2.112 8.219-3.31 1.013-0.449 2.021-0.91 3.02-1.389 0.744-0.356 1.186-0.409 2.011-0.421 1.568-0.021 3.148-0.094 4.706 0.141 1.621 0.243 3.188 0.774 4.719 1.343 5.999 2.224 11.475 5.193 16.34 9.392 -0.431 0.458-0.87 0.913-1.323 1.35 1.913 1.457 3.546 3.266 5.062 5.121 0.879 1.077 1.694 2.196 2.517 3.315 0.321 0.438 0.049 2.004 0.067 2.573 0.1 3.061 0.932 5.686 2.035 8.515 0.77 1.973 1.441 3.979 1.761 6.08 0.436 2.859 0.07 5.589-0.246 8.435 -0.124 1.114-0.213 2.231-0.309 3.348 -0.022 0.256-0.044 0.512-0.071 0.768 -0.883 0-1.768 0.036-2.65 0.053 -4.932 0.09-9.864 0.194-14.795 0.344 -13.384 0.405-26.743 1.258-40.132 1.603 -6.907 0.178-13.815 0.343-20.715 0.725C113.639 229.509 108.56 229.899 103.441 229.899z" fill="#cbe9ee" stroke-width="none" opacity="1" stroke="none"/>
          <path id="SvgjsPath83140" d="M77.072 191.553c-1.295 1.902-2.474 3.882-3.612 5.878 0.287-2.083 0.496-4.185 0.693-6.286C75.123 191.296 76.092 191.433 77.072 191.553zM63.583 189.148c-1.714 3.7-3.554 7.359-4.999 11.145 2.029-3.547 4.106-7.188 5.76-10.973 2.949 0.654 5.948 1.226 8.976 1.7 -0.287 2.577-0.464 5.174-0.613 7.761 -0.95 1.683-1.88 3.374-2.84 5.041 -3.623 6.266-4.811 11.162-5.662 14.774 -1.625-0.151-2.969-0.323-3.7-0.436 -4.553-0.704-6.474-1.493-7.751-2.169 1.157-4.26 2.227-8.547 2.989-12.896 0.891-5.067 1.316-10.248 2.384-15.28C59.92 188.301 61.742 188.749 63.583 189.148zM43.154 182.938c-2.722 2.521-4.514 4.708-9.047 10.241 1.425-3.317 3.316-7.444 5.79-11.571C40.966 182.064 42.045 182.513 43.154 182.938zM187.52 189.909c0.012 0.01 0.028 0.027 0.049 0.049 2.069 1.976 4.257 4.631 6.019 6.931v0.009 0.011c-1.635 1.455-2.939 2.823-4.098 3.442 -0.674-0.798-1.366-1.588-2.059-2.398 -1.444-1.682-2.653-3.582-4.147-5.218 -0.079-0.087-0.16-0.183-0.238-0.268 -0.139-0.142-0.275-0.285-0.417-0.418 0.725-0.684 1.427-1.379 2.131-2.074 0.116-0.112 0.225-0.227 0.334-0.34 0.338-0.325 0.664-0.658 0.991-0.99C186.55 189.016 187.024 189.443 187.52 189.909zM173.05 206.446c1.269 1.824 3.257 4.154 5.147 6.285 -2.17 1.178-3.633 2.176-4.634 2.853 -1.474-1.827-3.256-3.832-6.097-7.256 0.149-0.076 0.298-0.151 0.445-0.229 1.682-0.901 2.84-1.862 4.356-2.852 0.206 0.353 0.452 0.741 0.752 1.151C173.021 206.407 173.029 206.426 173.05 206.446zM163.229 180.506c4.891 4.801 9.126 9.662 13.956 16.971 1.199-1.139 2.438-2.243 3.713-3.315 0.588-0.491 1.192-0.973 1.814-1.437 -6.55-6.479-13.323-12.555-22.224-14.804C161.277 178.646 162.18 179.49 163.229 180.506zM148.026 182.634c6.139 7.397 15.392 15.233 18.885 19.114 -4.039-5.621-12.343-13.122-18.212-19.37 2.318-0.885 4.585-1.836 6.823-2.86 6.084 7.7 14.174 19.093 17.991 24.551 -0.493 0.246-0.94 0.486-1.367 0.731 -0.03 0.021-0.057 0.037-0.086 0.058 -1.407 0.848-2.594 1.787-4.702 2.957 -0.071 0.037-0.148 0.076-0.218 0.115 -0.07 0.038-0.129 0.065-0.188 0.096 -1.481 0.768-2.979 1.243-4.653 1.604 -0.791 0.161-1.592 0.334-2.385 0.553 -3.394-4.488-6.057-9.527-9.213-14.169 -2.019-2.978-4.374-5.782-6.257-8.834 -0.535-0.875-1.058-1.797-1.633-2.689C144.574 183.909 146.317 183.29 148.026 182.634zM118.851 190.394c1.889 4.355 2.661 5.896 5.682 15.928 -0.495-2.482-0.931-4.964-1.693-7.379 -0.922-2.899-1.782-5.278-3.324-8.662 2.769-0.506 5.492-1.046 8.153-1.644 2.407 2.69 4.283 6.083 9.641 13.158 2.721 3.549 5.434 7.114 7.739 10.907 -1.166 0.617-2.384 1.141-3.654 1.454 -18.623 5.486-11.567 3.48-20.01 5.041 -0.148 0.026-0.347 0.057-0.565 0.085 -0.583-2.891-1.513-6.551-3.432-12.752 -2.307-7.427-4.168-11.837-5.651-14.986C114.148 191.192 116.515 190.812 118.851 190.394zM106.074 192.247c1.719 4.784 3.046 9.699 4.035 14.692 0.636 3.271 1.181 6.552 1.753 9.822 0.247 1.417 0.477 2.854 0.792 4.271 -4.93 0.818-10.224 0.077-13.531 0.03 0.07-2.283 0.051-2.807 0.189-4.148 0.306-3.042 0.484-6.113 0.802-9.166 0.317-3.178 0.714-6.351 0.671-9.547 -0.029-1.873-0.087-3.748 0.139-5.581C102.649 192.535 104.372 192.409 106.074 192.247zM96.463 192.752c-1.318 4.261-2.733 8.502-3.971 12.79 -0.02-4.279-0.147-8.549-0.386-12.819C93.562 192.761 95.017 192.771 96.463 192.752zM88.019 192.571c-0.396 5.212-0.989 10.394-1.325 15.614 1.197-6.856 1.593-10.974 1.572-15.593 1.17 0.055 2.336 0.104 3.505 0.12 -0.13 5.041-0.1 10.09 0.079 15.129 0 0.01 0 0.01 0 0.01 -1.465 5.439-1.772 9.215-1.841 12.496 -2.801 0.504-5.663 0.741-8.512 0.903 -5.87 0.333-7.988-0.172-10.224-0.353 0.147-0.504 0.316-1.006 0.484-1.513 0.041-0.122 0.09-0.256 0.129-0.379 1.791-5.287 4.147-10.643 5.571-13.475 3.625-7.169 5.316-10.839 6.642-13.228C85.406 192.421 86.713 192.504 88.019 192.571zM52.101 186.085c-0.841 2.995-1.771 7.361-4.414 15.368 -1.138 3.432-2.217 6.847-3.137 10.346 -0.218 0.836-0.327 1.702-0.376 2.577 -1.989-0.78-3.939-1.626-5.889-2.5 -1.218-0.581-2.237-1.087-3.088-1.522 -0.05-0.028-0.109-0.058-0.159-0.087 -0.96-0.492-1.711-0.911-2.326-1.234 2.197-3.14 4.652-6.676 6.77-9.775 3.217-4.688 5.988-9.68 9.433-14.206C49.963 185.4 51.022 185.754 52.101 186.085zM33.762 211.515c-1.861 2.157-3.257 5.315-4.771 8.414 -2.446-0.789-4.911-1.531-7.345-2.357 0.167-0.297 0.335-0.58 0.505-0.877 0.198-0.34 0.396-0.692 0.593-1.055 0.01-0.027 0.02-0.056 0.041-0.084 1.196-2.188 2.405-4.593 3.663-6.344 1.296 0.627 2.72 1.171 4.157 1.599 0.237 0.066 0.484 0.132 0.723 0.199 0.068-0.104 0.148-0.209 0.218-0.313 0.326-0.457 0.652-0.933 0.99-1.417 0.455 0.285 0.939 0.59 1.444 0.903 0.199 0.124 0.416 0.267 0.673 0.408 -0.238 0.229-0.475 0.465-0.691 0.714C33.889 211.37 33.83 211.447 33.762 211.515zM35.532 179.629c-2.483 3.558-4.74 7.324-6.135 11.317 2.098-3.767 4.463-7.37 6.622-11.089 1.108 0.533 2.247 1.046 3.406 1.542 -2.041 2.976-4.188 6.989-6.86 13.683 -2.644 3.319-5.137 6.78-7.295 10.424 -3.583-1.209-8.789-3.045-9.481-3.303 -1.575-0.513-3.713-1.53-5.592-2.528 -0.09-0.048-0.168-0.096-0.259-0.133 -0.959-0.522-1.83-1.026-2.502-1.454 1.099-1.065 2.207-2.113 3.336-3.129 0.168-0.161 0.345-0.322 0.523-0.475 6.623-5.991 13.699-11.251 22.161-15.892C34.126 178.944 34.82 179.288 35.532 179.629zM3.257 202.271c-0.12-0.076-0.248-0.162-0.367-0.237 -0.822-0.53-1.643-1.046-2.435-1.513 1.366-1.501 2.98-2.747 4.494-3.918 0.03-0.026 0.07-0.047 0.1-0.085 1.287-0.979 2.503-1.92 3.404-2.91 0.466 0.287 0.94 0.57 1.406 0.846 -1.039 1.019-2.079 2.085-3.098 3.187 -0.089 0.086-0.169 0.173-0.248 0.267 0.198 0.171 0.406 0.332 0.614 0.485 0.307 0.237 0.634 0.447 0.96 0.628 0.484 0.257 0.96 0.533 1.426 0.817 -1.505 1.103-2.91 2.547-4.069 3.929C4.732 203.27 3.998 202.768 3.257 202.271zM3.108 207.55c0.703-1.01 1.555-2.17 2.494-3.32 0.07-0.077 0.129-0.15 0.188-0.229 1.217-1.454 2.583-2.891 4-4.003 1.009 0.6 2.019 1.206 3.116 1.701 1.744 0.771 3.515 1.455 5.326 2.082 2.197 0.763 4.493 1.531 6.818 2.084 -0.335 0.581-0.661 1.16-0.979 1.75 -0.038 0.058-0.068 0.113-0.099 0.17 0.118 0.077 0.237 0.162 0.357 0.24 0.563 0.37 1.187 0.721 1.85 1.054 -1.296 1.646-2.544 3.966-3.751 6.361 -3.652-1.17-7.304-2.368-10.827-3.841 -1.882-0.828-3.761-1.616-5.583-2.567 -0.098-0.047-0.445-0.229-0.93-0.477 0.238-0.94 0.415-1.891 0.514-2.861 -0.188 0.931-0.465 1.834-0.771 2.729C4.336 208.156 3.722 207.852 3.108 207.55z" fill="#a8d7df" stroke-width="none" opacity="1" stroke="none"/>
          <path id="SvgjsPath83141" d="M194.201 202.214c-0.229-1.597-0.267-3.224-0.257-4.85 0-0.182 0-0.362 0-0.532 0-0.01 0.01-0.01 0.01-0.01 -0.01-0.076-0.01-0.152 0-0.228 -0.041 0.028-0.08 0.057-0.109 0.085 -0.07-0.095-0.141-0.19-0.209-0.294 -1.643-2.292-3.662-4.784-5.621-6.638 0.029-0.02 0.059-0.039 0.09-0.048 -0.031 0.009-0.071 0.019-0.101 0.039 -0.555-0.522-1.1-0.99-1.631-1.399 0.285-0.275 0.563-0.561 0.819-0.846 0.178-0.171 0.339-0.331 0.495-0.504 -0.119-0.105-0.238-0.198-0.355-0.303 -3.525-2.901-7.307-5.517-11.541-7.354 -8.026-3.354-9.216-3.394-13.232-3.318 -0.586 0-1.229 0.021-1.961 0.021 -0.297 0.142-0.604 0.293-0.91 0.436 -0.169 0.077-0.336 0.161-0.505 0.248 -0.159 0.066-0.317 0.143-0.485 0.218 -0.979 0.457-1.979 0.903-3.008 1.352 -0.288 0.114-0.566 0.236-0.854 0.359 -2.225 0.941-4.561 1.866-7.035 2.75 -0.2 0.074-0.396 0.15-0.604 0.219 -1.652 0.59-3.364 1.169-5.137 1.73 -0.156 0.057-0.315 0.104-0.474 0.151 -0.893 0.286-1.811 0.562-2.743 0.837 -0.132 0.038-0.255 0.076-0.386 0.115 -0.82 0.247-1.665 0.484-2.514 0.723 -0.318 0.094-0.644 0.179-0.971 0.266 -1.593 0.437-3.239 0.864-4.917 1.283 -1.041 0.255-2.088 0.505-3.142 0.742 -0.095 0.019-0.195 0.047-0.303 0.067 -2.546 0.559-5.109 1.063-7.68 1.5 -0.21 0.039-0.421 0.067-0.627 0.105 -2.404 0.392-4.83 0.731-7.256 1.007 -0.116 0.013-0.234 0.03-0.355 0.038 -1.632 0.184-3.272 0.333-4.919 0.468 -0.097 0.008-0.188 0.019-0.285 0.019 -1.417 0.104-2.832 0.19-4.257 0.256 -0.07 0-0.128 0.009-0.196 0.009 -1.297 0.06-2.585 0.096-3.881 0.104 -0.061 0.012-0.118 0.012-0.179 0 -0.377 0.012-0.753 0.021-1.129 0.021 -1.296 0.009-2.572 0-3.849-0.03 -0.06 0-0.118 0-0.179 0 -1.207-0.026-2.396-0.065-3.573-0.122 -0.04 0-0.079 0-0.119-0.009 -1.029-0.039-2.049-0.104-3.067-0.174 -0.109 0-0.219-0.009-0.328-0.019 0 0 0 0-0.009 0 -2.129-0.144-4.216-0.33-6.264-0.57 -0.121-0.009-0.248-0.018-0.367-0.037 -1.275-0.142-2.543-0.304-3.791-0.476 -0.268-0.037-0.534-0.076-0.802-0.116 -2.968-0.436-5.849-0.94-8.611-1.5 -0.236-0.048-0.485-0.104-0.721-0.153 -1.98-0.408-3.891-0.854-5.752-1.321 -0.137-0.038-0.277-0.066-0.415-0.104 -1.762-0.448-3.474-0.913-5.117-1.398 -0.15-0.037-0.288-0.084-0.436-0.123 -0.94-0.275-1.86-0.561-2.762-0.846 -0.147-0.047-0.296-0.096-0.435-0.145 -1.632-0.522-3.207-1.056-4.701-1.597 -0.168-0.065-0.336-0.122-0.505-0.19 -1.256-0.455-2.475-0.922-3.632-1.379 -0.138-0.057-0.277-0.114-0.416-0.171 -1.247-0.503-2.425-1.007-3.544-1.491 -0.138-0.066-0.276-0.126-0.405-0.184 -0.594-0.265-1.159-0.531-1.712-0.789 -0.169-0.073-0.338-0.15-0.495-0.234 -0.732-0.346-1.426-0.686-2.079-1.019 -0.109-0.058-0.217-0.117-0.325-0.173 -0.407 0.049-0.813 0.104-1.208 0.173 -11.185 1.655-20.191 6.665-25.547 12.959 -0.188 0.209-0.365 0.419-0.523 0.628 0.178 0.162 0.375 0.323 0.574 0.484 0.989 0.828 2.158 1.665 3.375 2.454 -0.912 0.935-2.158 1.854-3.484 2.873 -0.089-0.049-0.158-0.077-0.178-0.077 -0.04 0 0.01 0.077 0.079 0.153 -1.504 1.15-3.098 2.435-4.375 4.013 -0.049 0.056-0.099 0.113-0.148 0.17 0.089 0.058 0.177 0.123 0.277 0.192 0.703 0.454 1.525 1.007 2.396 1.587 0.109 0.075 0.217 0.153 0.336 0.218 0.722 0.495 1.483 0.998 2.237 1.483 -0.901 1.094-1.644 2.132-2.148 2.911 -0.11 0.162-0.208 0.323-0.307 0.475 -0.051 0.067-0.089 0.142-0.129 0.21 0.099 0.058 0.197 0.124 0.297 0.171 0.614 0.37 1.217 0.742 1.731 1.056 -0.375 1.016-0.782 2.023-1.148 3.063 -1.464 3.907-1.366 8.546-1.04 12.798 0 0.058 0.011 0.105 0.021 0.162 0.148 0 0.297 0 0.455 0 -0.009-0.043-0.009-0.087-0.009-0.13 17.807 1.25 48.215 4.196 69.411 4.714 52.426 1.265 26.427 0.161 65.135-0.779 33.931-0.839 23.727-1.42 59.207-2.037 0.13-0.011 0.269-0.011 0.407-0.011 0-0.063 0.009-0.131 0.019-0.199 0.168-1.844 0.287-3.699 0.564-5.543C199.12 211.467 194.934 207.283 194.201 202.214zM187.52 189.909c0.012 0.01 0.028 0.027 0.049 0.049 2.069 1.976 4.257 4.631 6.019 6.931v0.009 0.011c-1.635 1.455-2.939 2.823-4.098 3.442 -0.674-0.798-1.366-1.588-2.059-2.398 -1.444-1.682-2.653-3.582-4.147-5.218 -0.079-0.087-0.16-0.183-0.238-0.268 -0.139-0.142-0.275-0.285-0.417-0.418 0.725-0.684 1.427-1.379 2.131-2.074 0.116-0.112 0.225-0.227 0.334-0.34 0.338-0.325 0.664-0.658 0.991-0.99C186.55 189.016 187.024 189.443 187.52 189.909zM182.253 206.986c1.221 1.112 2.812 2.712 4.079 4.252 -1.861 1.599-3.563 3.251-5.722 3.756 -0.603-0.742-1.236-1.493-1.869-2.235 -0.071-0.076-0.128-0.143-0.19-0.218 -1.96-2.274-3.919-4.442-5.234-6.115 -0.011-0.01-0.021-0.019-0.021-0.027 -0.356-0.448-0.661-0.866-0.907-1.228 0.404-0.267 0.84-0.543 1.323-0.818 0.446 0.638 0.833 1.189 1.14 1.628 0.028 0.057 0.069 0.112 0.109 0.161 0.188-0.077 0.376-0.145 0.556-0.201 0.019-0.008 0.049-0.008 0.066-0.017 2.297-0.725 3.803-1.495 5.139-2.367 0.067-0.041 0.138-0.088 0.198-0.137 -0.042-0.064-0.073-0.122-0.111-0.177 -1.205-2.008-2.355-3.844-3.474-5.546 1.279-1.074 2.555-2.158 3.832-3.244 0.612-0.502 1.236-1.016 1.868-1.521 1.479 1.808 2.693 3.881 4.219 5.63 0.594 0.675 1.187 1.34 1.77 2.006 0.021 0.02 0.03 0.039 0.05 0.049 0.515 0.587 1.021 1.168 1.504 1.767 -2.671 1.655-5.567 2.892-8.314 4.46 -0.026 0.03-0.068 0.047-0.107 0.068C182.184 206.939 182.215 206.97 182.253 206.986zM173.05 206.446c1.269 1.824 3.257 4.154 5.147 6.285 -2.17 1.178-3.633 2.176-4.634 2.853 -1.474-1.827-3.256-3.832-6.097-7.256 0.149-0.076 0.298-0.151 0.445-0.229 1.682-0.901 2.84-1.862 4.356-2.852 0.206 0.353 0.452 0.741 0.752 1.151C173.021 206.407 173.029 206.426 173.05 206.446zM161.537 176.569c4.921 0.218 11.244 0.911 25.222 10.619 -0.3 0.249-0.595 0.516-0.882 0.8 -0.097 0.076-0.199 0.173-0.288 0.277 -0.356 0.331-0.702 0.685-1.027 1.044 -0.109 0.105-0.21 0.221-0.297 0.325 -0.647 0.71-1.248 1.464-1.804 2.263 -0.059 0.074-0.11 0.141-0.146 0.22 0.036 0.037 0.077 0.083 0.116 0.121 0.13 0.145 0.249 0.275 0.366 0.419 -0.653 0.484-1.284 0.99-1.899 1.504 -1.275 1.072-2.514 2.177-3.713 3.315 -4.83-7.309-9.065-12.17-13.956-16.971 -1.306-1.265-2.393-2.273-3.304-3.1C160.47 177.13 161.003 176.852 161.537 176.569zM159.38 177.681c2.752 2.947 6.721 6.847 10.799 11.875 2.227 2.749 4.376 5.573 6.485 8.427 0.036 0.058 0.075 0.114 0.114 0.171 1.278 1.73 2.545 3.47 3.804 5.21 -2.01 1.087-3.823 1.893-5.17 2.397 -0.056-0.114-0.115-0.239-0.188-0.353 -0.227-0.409-0.503-0.885-0.83-1.417 -0.036-0.074-0.088-0.161-0.147-0.246 -3.374-5.544-11.273-16.992-17.847-24.63C157.401 178.649 158.391 178.174 159.38 177.681zM148.026 182.634c6.139 7.397 15.392 15.233 18.885 19.114 -4.039-5.621-12.343-13.122-18.212-19.37 2.318-0.885 4.585-1.836 6.823-2.86 6.084 7.7 14.174 19.093 17.991 24.551 -0.493 0.246-0.94 0.486-1.367 0.731 -0.03 0.021-0.057 0.037-0.086 0.058 -1.407 0.848-2.594 1.787-4.702 2.957 -0.071 0.037-0.148 0.076-0.218 0.115 -0.07 0.038-0.129 0.065-0.188 0.096 -1.481 0.768-2.979 1.243-4.653 1.604 -0.791 0.161-1.592 0.334-2.385 0.553 -3.394-4.488-6.057-9.527-9.213-14.169 -2.019-2.978-4.374-5.782-6.257-8.834 -0.535-0.875-1.058-1.797-1.633-2.689C144.574 183.909 146.317 183.29 148.026 182.634zM142.24 184.67c0.622 1.188 1.187 2.405 1.811 3.518 1.672 3.025 4.028 5.821 5.978 8.691 3.057 4.526 5.839 9.301 9.49 13.417 0.031 0.048 0.069 0.087 0.109 0.124 0.129-0.028 0.267-0.057 0.405-0.076 1.792-0.313 3.685-0.19 7.226-1.91 1.623 2.178 3.729 4.926 5.81 7.482 0.03 0.047 0.067 0.094 0.108 0.143 0.359 0.447 0.711 0.886 1.06 1.314 -2.039 0.853-4.751 1.567-9.056 2.053 -1.011-1.305-2.138-2.502-3.248-3.709 -1.376-1.484-2.801-2.967-4.047-4.565 -0.355-0.474-0.703-0.949-1.039-1.443 -0.019-0.03-0.039-0.057-0.059-0.097 -0.081 0.019-0.158 0.049-0.238 0.076 -0.583 0.191-1.159 0.41-1.722 0.638 -4.187-7.009-12.672-20.817-13.114-21.576 -0.663-1.111-1.317-2.225-2.04-3.271C140.537 185.222 141.385 184.955 142.24 184.67zM135.783 186.618c3.464 5.05 6.591 10.308 9.72 15.548 -3.789-7.979-6.313-12.135-8.77-15.823 0.819-0.228 1.636-0.466 2.448-0.713 0.661 1.113 1.233 2.283 1.826 3.442 0.99 1.948 8.753 14.776 10.108 16.793 1.088 1.559 2.228 3.08 3.345 4.61 -2.711 1.124-5.284 2.54-8.007 3.663 -0.219-0.505-0.446-0.988-0.692-1.464 -0.039-0.098-0.091-0.191-0.149-0.286 -2.533-5.013-5.601-8.74-7.474-11.185 -5.016-6.606-7.333-10.105-10.028-12.672C130.717 187.952 133.268 187.313 135.783 186.618zM118.851 190.394c1.889 4.355 2.661 5.896 5.682 15.928 -0.495-2.482-0.931-4.964-1.693-7.379 -0.922-2.899-1.782-5.278-3.324-8.662 2.769-0.506 5.492-1.046 8.153-1.644 2.407 2.69 4.283 6.083 9.641 13.158 2.721 3.549 5.434 7.114 7.739 10.907 -1.166 0.617-2.384 1.141-3.654 1.454 -18.623 5.486-11.567 3.48-20.01 5.041 -0.148 0.026-0.347 0.057-0.565 0.085 -0.583-2.891-1.513-6.551-3.432-12.752 -2.307-7.427-4.168-11.837-5.651-14.986C114.148 191.192 116.515 190.812 118.851 190.394zM111.06 191.648c0.05-0.007 0.108-0.017 0.159-0.027 3.276 9.176 6.244 18.428 8.818 27.796 0.03 0.046 0.04 0.105 0.052 0.161 0.255 0.903 0.503 1.814 0.751 2.729 -2.268 0.503-4.534 0.731-6.949 0.637 -0.049 0-0.209-0.009-0.436-0.009 -0.108-0.601-0.207-1.207-0.286-1.817 -0.01-0.055-0.01-0.113-0.021-0.17 -0.196-1.57-0.326-3.149-0.505-4.698 -0.354-3.3-0.931-6.589-1.611-9.842 -1.208-5.829-2.478-9.852-4.505-14.207C108.052 192.049 109.565 191.868 111.06 191.648zM106.074 192.247c1.719 4.784 3.046 9.699 4.035 14.692 0.636 3.271 1.181 6.552 1.753 9.822 0.247 1.417 0.477 2.854 0.792 4.271 -4.93 0.818-10.224 0.077-13.531 0.03 0.07-2.283 0.051-2.807 0.189-4.148 0.306-3.042 0.484-6.113 0.802-9.166 0.317-3.178 0.714-6.351 0.671-9.547 -0.029-1.873-0.087-3.748 0.139-5.581C102.649 192.535 104.372 192.409 106.074 192.247zM100.567 192.63c-0.465 2.156-0.501 4.401-0.621 6.618 -0.198 3.431-0.743 6.854-1.03 10.276 -0.278 3.406-0.604 6.794-0.505 10.214 0 0.066 0.02 0.581 0.039 1.313 0 0.018 0 0.049 0 0.074 0.021 0.476 0.042 1.028 0.061 1.618 -2.664 0.209-5.343 0.058-8.018 0.008 0.07-0.74 0.138-1.501 0.218-2.291 0.01-0.084 0.01-0.161 0.019-0.247 0.258-2.527 0.574-5.344 1.278-8.653 0.138-0.684 0.307-1.387 0.484-2.119 0 0 0-0.01 0-0.021 0.129-0.493 0.258-0.998 0.396-1.521 1.366-5.049 2.792-10.06 3.899-15.155C98.055 192.734 99.313 192.697 100.567 192.63zM96.463 192.752c-1.318 4.261-2.733 8.502-3.971 12.79 -0.02-4.279-0.147-8.549-0.386-12.819C93.562 192.761 95.017 192.771 96.463 192.752zM88.019 192.571c-0.396 5.212-0.989 10.394-1.325 15.614 1.197-6.856 1.593-10.974 1.572-15.593 1.17 0.055 2.336 0.104 3.505 0.12 -0.13 5.041-0.1 10.09 0.079 15.129 0 0.01 0 0.01 0 0.01 -1.465 5.439-1.772 9.215-1.841 12.496 -2.801 0.504-5.663 0.741-8.512 0.903 -5.87 0.333-7.988-0.172-10.224-0.353 0.147-0.504 0.316-1.006 0.484-1.513 0.041-0.122 0.09-0.256 0.129-0.379 1.791-5.287 4.147-10.643 5.571-13.475 3.625-7.169 5.316-10.839 6.642-13.228C85.406 192.421 86.713 192.504 88.019 192.571zM83.596 192.269c-1.694 2.499-3.869 6.446-7.423 13.454 -2.179 4.299-3.959 8.701-5.127 13.275 -2.128-0.021-4.405-0.172-6.346-0.354 1.643-5.267 3.663-10.193 6.247-14.682 0.593-1.027 1.127-1.977 1.612-2.853l0.484-0.864c2.198-4.014 3.356-6.447 4.554-8.614C79.587 191.877 81.587 192.097 83.596 192.269zM77.072 191.553c-1.295 1.902-2.474 3.882-3.612 5.878 0.287-2.083 0.496-4.185 0.693-6.286C75.123 191.296 76.092 191.433 77.072 191.553zM63.583 189.148c-1.714 3.7-3.554 7.359-4.999 11.145 2.029-3.547 4.106-7.188 5.76-10.973 2.949 0.654 5.948 1.226 8.976 1.7 -0.287 2.577-0.464 5.174-0.613 7.761 -0.95 1.683-1.88 3.374-2.84 5.041 -3.623 6.266-4.811 11.162-5.662 14.774 -1.625-0.151-2.969-0.323-3.7-0.436 -4.553-0.704-6.474-1.493-7.751-2.169 1.157-4.26 2.227-8.547 2.989-12.896 0.891-5.067 1.316-10.248 2.384-15.28C59.92 188.301 61.742 188.749 63.583 189.148zM57.624 187.686c-1.415 4.962-2.01 10.117-2.929 15.233 -0.763 4.26-1.663 8.509-2.524 12.75 -0.02 0.068-0.03 0.133-0.04 0.2 -0.159 0.77-0.317 1.54-0.465 2.31 -0.99-0.304-1.99-0.596-2.99-0.894 -0.06-0.018-2.048-0.57-3.979-1.104 0.069-0.513 0.128-0.94 0.178-1.331 0.01-0.065 0.02-0.133 0.029-0.199 0.318-2.206 0.733-3.49 3.812-12.883 1.188-3.615 2.454-7.268 3.087-11.014 0.257-1.502 0.476-3.023 0.791-4.517C54.239 186.743 55.921 187.229 57.624 187.686zM52.101 186.085c-0.841 2.995-1.771 7.361-4.414 15.368 -1.138 3.432-2.217 6.847-3.137 10.346 -0.218 0.836-0.327 1.702-0.376 2.577 -1.989-0.78-3.939-1.626-5.889-2.5 -1.218-0.581-2.237-1.087-3.088-1.522 -0.05-0.028-0.109-0.058-0.159-0.087 -0.96-0.492-1.711-0.911-2.326-1.234 2.197-3.14 4.652-6.676 6.77-9.775 3.217-4.688 5.988-9.68 9.433-14.206C49.963 185.4 51.022 185.754 52.101 186.085zM33.762 211.515c-1.861 2.157-3.257 5.315-4.771 8.414 -2.446-0.789-4.911-1.531-7.345-2.357 0.167-0.297 0.335-0.58 0.505-0.877 0.198-0.34 0.396-0.692 0.593-1.055 0.01-0.027 0.02-0.056 0.041-0.084 1.196-2.188 2.405-4.593 3.663-6.344 1.296 0.627 2.72 1.171 4.157 1.599 0.237 0.066 0.484 0.132 0.723 0.199 0.068-0.104 0.148-0.209 0.218-0.313 0.326-0.457 0.652-0.933 0.99-1.417 0.455 0.285 0.939 0.59 1.444 0.903 0.199 0.124 0.416 0.267 0.673 0.408 -0.238 0.229-0.475 0.465-0.691 0.714C33.889 211.37 33.83 211.447 33.762 211.515zM48.399 184.868c-3.722 4.271-6.631 9.101-9.857 13.799 -1.484 2.159-4.108 6.097-6.572 9.965 -0.038 0.078-0.089 0.152-0.138 0.218 -0.347 0.554-0.683 1.095-1.02 1.626 -1.415-0.436-2.841-0.958-4.158-1.548 -0.088-0.039-0.168-0.078-0.257-0.114 -0.691-0.313-1.336-0.637-1.94-0.98 0.385-0.608 0.792-1.216 1.197-1.825 0.07-0.094 0.139-0.198 0.218-0.303 1.712-2.521 3.554-4.984 5.443-7.399 0.436-0.563 0.881-1.123 1.328-1.683 0.732-0.933 1.483-1.855 2.235-2.775 5.505-6.743 6.702-8.398 8.859-10.681C45.252 183.757 46.806 184.327 48.399 184.868zM43.154 182.938c-2.722 2.521-4.514 4.708-9.047 10.241 1.425-3.317 3.316-7.444 5.79-11.571C40.966 182.064 42.045 182.513 43.154 182.938zM35.532 179.629c-2.483 3.558-4.74 7.324-6.135 11.317 2.098-3.767 4.463-7.37 6.622-11.089 1.108 0.533 2.247 1.046 3.406 1.542 -2.041 2.976-4.188 6.989-6.86 13.683 -2.644 3.319-5.137 6.78-7.295 10.424 -3.583-1.209-8.789-3.045-9.481-3.303 -1.575-0.513-3.713-1.53-5.592-2.528 -0.09-0.048-0.168-0.096-0.259-0.133 -0.959-0.522-1.83-1.026-2.502-1.454 1.099-1.065 2.207-2.113 3.336-3.129 0.168-0.161 0.345-0.322 0.523-0.475 6.623-5.991 13.699-11.251 22.161-15.892C34.126 178.944 34.82 179.288 35.532 179.629zM5.326 190.289c5.265-5.6 13.708-10.716 25.307-13.196 0.743 0.418 1.504 0.826 2.287 1.225 -7.898 3.736-15.372 8.729-22.488 15.577 -0.435-0.313-0.9-0.639-1.366-0.972 -0.098-0.065-0.207-0.143-0.307-0.21C7.552 191.858 6.335 191.004 5.326 190.289zM4.475 196.232c0.029 0.019 0.059 0.049 0.089 0.067 0 0-0.01 0.01-0.021 0.019C4.523 196.281 4.503 196.251 4.475 196.232zM3.257 202.271c-0.12-0.076-0.248-0.162-0.367-0.237 -0.822-0.53-1.643-1.046-2.435-1.513 1.366-1.501 2.98-2.747 4.494-3.918 0.03-0.026 0.07-0.047 0.1-0.085 1.287-0.979 2.503-1.92 3.404-2.91 0.466 0.287 0.94 0.57 1.406 0.846 -1.039 1.019-2.079 2.085-3.098 3.187 -0.089 0.086-0.169 0.173-0.248 0.267 0.198 0.171 0.406 0.332 0.614 0.485 0.307 0.237 0.634 0.447 0.96 0.628 0.484 0.257 0.96 0.533 1.426 0.817 -1.505 1.103-2.91 2.547-4.069 3.929C4.732 203.27 3.998 202.768 3.257 202.271zM3.108 207.55c0.703-1.01 1.555-2.17 2.494-3.32 0.07-0.077 0.129-0.15 0.188-0.229 1.217-1.454 2.583-2.891 4-4.003 1.009 0.6 2.019 1.206 3.116 1.701 1.744 0.771 3.515 1.455 5.326 2.082 2.197 0.763 4.493 1.531 6.818 2.084 -0.335 0.581-0.661 1.16-0.979 1.75 -0.038 0.058-0.068 0.113-0.099 0.17 0.118 0.077 0.237 0.162 0.357 0.24 0.563 0.37 1.187 0.721 1.85 1.054 -1.296 1.646-2.544 3.966-3.751 6.361 -3.652-1.17-7.304-2.368-10.827-3.841 -1.882-0.828-3.761-1.616-5.583-2.567 -0.098-0.047-0.445-0.229-0.93-0.477 0.238-0.94 0.415-1.891 0.514-2.861 -0.188 0.931-0.465 1.834-0.771 2.729C4.336 208.156 3.722 207.852 3.108 207.55zM180.986 226.366c-3.603 0.037-8.088 0.22-13.421 0.419 -6.868 0.267-15.162 0.569-24.814 0.705 -6.083 0.084-12.925 0.388-20.694 0.691 -9.314 0.354-19.982 0.704-32.334 0.647 -6.205-0.018-12.838-0.151-19.934-0.428 -8.324-0.332-17.292-0.864-26.961-1.693 -6.948-0.588-11.887-0.958-15.569-1.188 -9.315-0.574-18.201-0.425-24.288-0.809 0-0.004 0-0.007 0-0.011 -0.068-2.271-0.119-4.543 0.059-6.799 0.099-3.089 1.208-5.961 1.95-8.909 0.594 0.362 1 0.618 1.039 0.637 1.782 1.056 3.722 1.893 5.642 2.663 3.493 1.398 7.047 2.405 10.708 3.263 -0.168 0.342-0.336 0.684-0.503 1.027 -0.029 0.056-0.218 0.425-0.445 0.911 -0.03 0.048-0.06 0.104-0.09 0.162 0.07 0.037 0.139 0.066 0.208 0.094 1.248 0.533 2.515 0.998 3.831 1.418 1.178 0.322 2.355 0.646 3.533 0.95 0.09 0.031 0.178 0.048 0.267 0.066 0.041-0.057 0.071-0.104 0.101-0.161 1.703-3.032 3.058-6.209 4.82-8.452 0.048-0.067 0.098-0.144 0.168-0.209 0.177-0.237 0.375-0.457 0.584-0.666 0.552 0.313 1.216 0.656 1.968 1.018 0.01 0 0.021 0.01 0.039 0.01 2 0.969 4.603 2.033 7.315 2.9 -0.03 0.466-0.04 0.932-0.06 1.396 0 0.105-0.01 0.22-0.01 0.335 0.179 0.067 0.367 0.131 0.555 0.189 2.276 0.741 4.611 1.368 6.947 1.968 0.148 0.038 0.287 0.076 0.436 0.116 0.029-0.096 0.059-0.201 0.089-0.307 0.188-0.685 0.376-1.377 0.563-2.072 1.287 0.874 2.91 1.798 7.712 2.53 1.196 0.179 2.425 0.351 3.661 0.475 0.148 0.019 0.296 0.028 0.435 0.048 2.138 0.199 4.306 0.285 6.434 0.151 -0.119 0.466-0.218 0.932-0.328 1.398 -0.009 0.047-0.019 0.096-0.029 0.152 0.208 0.019 0.425 0.059 0.644 0.085 1.305 0.21 2.613 0.513 3.929 0.695 2.712 0.407 9.304 0.189 14.856-1.15 -0.019 0.722-0.019 1.426-0.029 2.11 0 0.028 0 0.065 0 0.095 0.167 0.019 0.346 0.027 0.514 0.037 2.684 0.229 5.385 0.429 8.037 0.105 0.178-0.019 0.356-0.047 0.545-0.075 0-0.067 0-0.144 0-0.209 0.029-0.573 0.048-1.074 0.048-1.504 0.781 0.085 1.573 0.246 2.337 0.361 1.632 0.267 6.856 0.657 11.239-0.333 0.121 0.572 0.262 1.142 0.42 1.702 0.028 0.095 0.049 0.182 0.074 0.266l0.321 0.021c0.366 0.027 0.632 0.047 0.703 0.057 2.235 0.199 4.502-0.067 6.709-0.629l0.457-0.122c-0.011-0.104-0.029-0.21-0.051-0.314 -0.129-0.866-0.277-1.73-0.456-2.691 0.367-0.029 0.685-0.038 0.901-0.058 8.176-0.809 4.037-0.151 11.987-2.179 5.986-1.521 9.146-2.851 11.471-4.269 0.267 0.438 0.516 0.876 0.771 1.313 0.019 0.048 0.051 0.104 0.08 0.152 0.157-0.048 0.306-0.104 0.466-0.152 2.8-0.97 5.403-2.369 8.075-3.623 0.109-0.047 0.228-0.105 0.336-0.152 0.545-0.257 1.101-0.504 1.664-0.742 1.296 2.272 3.117 4.26 4.929 6.249 1.021 1.102 2.228 2.205 3.128 3.431 0.07 0.097 0.139 0.191 0.198 0.286 0.167-0.01 0.327-0.021 0.484-0.029 3.147-0.207 6.147-0.808 9.036-2.177 0.17-0.084 0.339-0.172 0.507-0.256 -0.042-0.059-0.081-0.115-0.12-0.162 -0.349-0.466-0.693-0.925-1.07-1.38 2.351-1.321 2.844-1.74 4.683-2.814 0.663 0.742 1.307 1.456 1.91 2.103 0.04 0.065 0.099 0.122 0.157 0.179 0.102-0.01 0.211-0.027 0.308-0.047 2.187-0.456 3.901-2.148 5.672-3.813 0.06-0.047 0.109-0.105 0.168-0.161 -0.028-0.037-0.059-0.084-0.1-0.123 -1.198-1.531-2.791-3.071-4.137-4.154 2.998-1.494 5.514-2.341 8.324-4.404 0.108-0.074 0.217-0.162 0.327-0.247 -0.031-0.037-0.062-0.086-0.089-0.125 -0.437-0.579-0.901-1.149-1.375-1.72 1.127-0.522 2.393-1.75 3.998-3.243 -0.179 1.816-0.278 3.634-0.082 5.429 0.625 5.517 4.219 7.049 3.378 18.552 -0.13 1.751-0.109 3.491-0.12 5.23C191.488 226.366 186.232 226.31 180.986 226.366z" fill="#6ab4c0" stroke-width="none" opacity="1" stroke="none"/>
        </g>
        <g id="svga-group-head" transform="matrix(1,0,0,1,0,0)">
          <g id="svga-group-ears-left-move" transform="matrix(1,0,0,1,0,0)">
            <g id="svga-group-ears-left" transform="matrix(1,0,0,1,0,0)">
              <path id="SvgjsPath83134" d="M46.778 83.745c-2.623-1.422-8.575-8.182-11.138-7.219 -1.655 0.62-2.377 5.286-2.638 7.174 -0.333 2.425-0.929 7.405-0.328 9.781 0.725 2.866 3.631 8.169 5.37 10.589 1.468 2.039 5.211 5.568 6.407 7.769 0.759 1.396 1.493 5.159 4.083 4.916 1.674-0.157 5.537-2.95 5.744-4.274C55.406 105.296 51.943 86.543 46.778 83.745z" fill="#f3d4cf" stroke="#c5796d" stroke-width="1.5" opacity="1"/>
              <path id="SvgjsPath83135" d="M43.313 99.25c-0.125-0.534 0.006-1.432 0.133-2.3 0.115-0.791 0.224-1.538 0.158-2.066 -0.251-1.978-1.66-5.737-2.578-7.775 -1.059-2.343-2.771-5.296-4.919-6.057 -0.888-0.316-1.473 0.061-1.813 0.443 -0.248 0.281-0.305 0.61-0.223 0.649 0.082 0.039 0.266-0.234 0.535-0.491 0.219-0.21 0.542-0.391 0.983-0.354 -0.178 0.985-1.091 6.32-0.696 9.957 0.311 2.86 1.489 4.996 1.673 5.316 0.028 0.337 0.073 0.667 0.139 0.987 0.869 4.175 4.648 8.921 5.963 10.476 0.243 0.285 0.496 0.456 0.56 0.388 0.062-0.07-0.087-0.354-0.33-0.642 -1.298-1.545-5.042-6.274-5.879-10.302 -0.89-4.273 2.167-10.609 2.849-11.949 0.348 0.629 0.643 1.234 0.87 1.737 0.179 0.396 0.378 0.858 0.581 1.358 -0.402 0.699-3.211 5.802-2.187 9.886 0.38 1.505 2.088 3.447 3.223 3.979 0.624 0.293 0.859 0.731 1.13 1.237 0.314 0.589 0.673 1.255 1.708 1.738 0.211 0.097 0.402 0.138 0.571 0.138 0.293 0 0.515-0.122 0.679-0.271 0.017 0.258 0.016 0.588 0.007 0.893 -0.01 0.395 0.041 0.717 0.129 0.725s0.182-0.305 0.192-0.696c0.016-0.483 0.013-1.081-0.067-1.367 -0.232-0.842-0.942-1.792-1.694-2.798C44.27 101.098 43.504 100.074 43.313 99.25zM36.538 95.548c-2.035-6.554 0-12.573 0.458-13.472 0.795 0.754 2.108 2.125 2.679 3.111C39.258 85.976 36.623 91.14 36.538 95.548zM45.318 105.137c-0.938-0.438-1.253-1.024-1.557-1.591 -0.275-0.514-0.56-1.044-1.281-1.383 -0.157-0.074-0.33-0.186-0.505-0.314 -2.324-5.75 0.254-8.264 0.899-8.779 0.199 0.703 0.346 1.348 0.411 1.865 0.061 0.475-0.05 1.229-0.156 1.959 -0.132 0.904-0.268 1.839-0.127 2.445 0.211 0.902 0.999 1.957 1.76 2.977 0.677 0.905 1.373 1.839 1.609 2.601C46.271 105.067 45.949 105.43 45.318 105.137z" fill="#c5796d" stroke-width="none" opacity="1" stroke="none"/>
            </g>
          </g>
          <g id="svga-group-ears-right-move" transform="matrix(1,0,0,1,0,0)">
            <g id="svga-group-ears-right" transform="matrix(1,0,0,1,0,0)">
              <path id="SvgjsPath83136" d="M152.961 83.745c2.623-1.422 8.574-8.182 11.137-7.219 1.656 0.62 2.379 5.286 2.639 7.174 0.334 2.425 0.928 7.405 0.328 9.781 -0.725 2.866-3.631 8.169-5.371 10.589 -1.467 2.039-5.211 5.568-6.406 7.769 -0.76 1.396-1.492 5.159-4.084 4.916 -1.674-0.157-5.535-2.95-5.744-4.274C144.332 105.296 147.795 86.543 152.961 83.745z" fill="#f3d4cf" stroke="#c5796d" stroke-width="1.5" opacity="1"/>
              <path id="SvgjsPath83137" d="M154.729 102.088c-0.752 1.006-1.463 1.957-1.695 2.798 -0.078 0.286-0.082 0.884-0.066 1.367 0.012 0.392 0.105 0.704 0.193 0.696s0.139-0.33 0.129-0.725c-0.01-0.305-0.01-0.635 0.006-0.893 0.164 0.148 0.387 0.271 0.68 0.271 0.168 0 0.359-0.041 0.57-0.138 1.035-0.483 1.395-1.149 1.709-1.738 0.271-0.506 0.506-0.943 1.131-1.237 1.133-0.532 2.842-2.473 3.223-3.979 1.023-4.084-1.785-9.187-2.188-9.886 0.203-0.5 0.402-0.962 0.582-1.358 0.225-0.503 0.521-1.108 0.869-1.737 0.682 1.34 3.738 7.676 2.848 11.949 -0.838 4.028-4.582 8.757-5.879 10.302 -0.242 0.288-0.393 0.571-0.33 0.642 0.064 0.068 0.318-0.103 0.561-0.388 1.314-1.555 5.094-6.301 5.963-10.476 0.066-0.32 0.111-0.65 0.139-0.987 0.184-0.32 1.363-2.457 1.674-5.316 0.395-3.637-0.518-8.972-0.695-9.957 0.441-0.038 0.764 0.143 0.982 0.354 0.268 0.257 0.453 0.53 0.535 0.491 0.08-0.039 0.023-0.369-0.223-0.649 -0.342-0.382-0.926-0.759-1.813-0.443 -2.148 0.761-3.861 3.713-4.92 6.057 -0.92 2.038-2.326 5.797-2.578 7.775 -0.066 0.528 0.043 1.275 0.158 2.066 0.127 0.868 0.256 1.766 0.133 2.3C156.234 100.074 155.469 101.098 154.729 102.088zM160.064 85.187c0.57-0.986 1.883-2.357 2.678-3.111 0.457 0.899 2.494 6.918 0.459 13.472C163.115 91.14 160.48 85.976 160.064 85.187zM153.367 104.916c0.236-0.762 0.932-1.695 1.609-2.601 0.762-1.02 1.549-2.075 1.76-2.977 0.141-0.606 0.006-1.541-0.127-2.445 -0.105-0.73-0.217-1.485-0.156-1.959 0.066-0.517 0.213-1.162 0.412-1.865 0.645 0.515 3.223 3.029 0.898 8.779 -0.176 0.129-0.348 0.241-0.504 0.314 -0.723 0.339-1.008 0.869-1.281 1.383 -0.305 0.567-0.619 1.154-1.559 1.591C153.789 105.43 153.467 105.067 153.367 104.916z" fill="#c5796d" stroke-width="none" opacity="1" stroke="none"/>
            </g>
          </g>
          <g id="svga-group-faceshape-wrap" transform="matrix(1,0,0,1,0,0)">
            <g id="svga-group-faceshape-single">
              <path id="SvgjsPath83149" d="M158.785 76.762l-0.005 0c-0.012 0.053-10.717 44.373-18.919 56.95 -6.452 9.895-28.166 25.54-39.84 25.558 -11.671 0.02-33.437-15.559-39.918-25.433C51.861 121.285 41.017 77 41.005 76.946h-0.001c-1.298-4.911-1.994-10.066-2.002-15.382C38.949 28.09 66.155 0.919 99.773 0.867c33.621-0.052 60.913 27.033 60.964 60.507C160.746 66.69 160.068 71.846 158.785 76.762z" fill="#f3d4cf" stroke-width="none" opacity="1" stroke="none"/>
              <path id="SvgjsPath83150" d="M125.766 6.622c19.104 10.248 32.075 30.355 32.039 53.476 -0.009 5.316-0.704 10.471-2.003 15.382h-0.001c-0.012 0.053-10.856 44.339-19.099 56.891 -5.946 9.061-24.555 25.121-36.833 25.121 -12.279 0-30.886-16.061-36.833-25.121 -8.242-12.552-19.086-56.837-19.098-56.891h-0.001c-1.298-4.911-1.994-10.066-2.002-15.382C41.898 36.977 54.87 16.87 73.972 6.622 53.277 16.324 38.963 37.28 39.001 61.564c0.008 5.316 0.704 10.471 2.002 15.382h0.001c0.012 0.053 10.856 44.339 19.098 56.891 4.416 6.728 15.922 16.095 26.5 21.382 -0.529-0.226-1.062-0.466-1.599-0.717 5.408 2.875 10.664 4.763 14.713 4.768 0.049 0 0.103-0.005 0.152-0.005s0.103 0.005 0.152 0.005c4.049-0.005 9.305-1.893 14.714-4.768 -0.538 0.253-1.071 0.491-1.601 0.718 10.577-5.287 22.085-14.655 26.501-21.383 8.242-12.552 19.087-56.837 19.098-56.891h0.002c1.298-4.911 1.994-10.066 2.002-15.382C160.775 37.28 146.462 16.324 125.766 6.622z" fill="#ebc3bd" stroke-width="none" opacity="1" stroke="none"/>
              <path id="SvgjsPath83151" d="M158.785 76.762l-0.005 0c-0.012 0.053-10.717 44.373-18.919 56.95 -6.452 9.895-28.166 25.54-39.84 25.558 -11.671 0.02-33.437-15.559-39.918-25.433C51.861 121.285 41.017 77 41.005 76.946h-0.001c-1.298-4.911-1.994-10.066-2.002-15.382C38.949 28.09 66.155 0.919 99.773 0.867c33.621-0.052 60.913 27.033 60.964 60.507C160.746 66.69 160.068 71.846 158.785 76.762z" fill="none" stroke="#c5796d" stroke-width="1.5" opacity="1"/>
            </g>
          </g>
          <g id="svga-group-mouth-single-move" transform="matrix(1,0,0,1,0,0)">
            <g id="svga-group-mouth-single" transform="matrix(1,0,0,1,0,0)">
              <path id="SvgjsPath83129" d="M99.983 141.177c-3.24 0-4.753-2.8-4.753-2.8s4.826-0.801 9.279-0.067C104.509 138.31 102.832 141.177 99.983 141.177z" fill="url(#SvgjsLinearGradient83130)" opacity="1"/>
              <path id="SvgjsPath83133" d="M88.955 135.571c-0.34-0.33 1.396-3.373 3.586-4.045 2.769-0.882 5.261 0.026 7.3 0.413 1.858 0.354 4.605 0.049 6.421 0.579 2.054 0.6 7.733 3.283 7.292 3.8 -0.218 0.255-4.535-1.676-7.378-2.278 -1.81-0.384-4.46-0.086-6.28-0.413 -1.884-0.337-4.083-1.21-6.64-0.805C90.938 133.189 89.343 135.947 88.955 135.571z" fill="#c5796d" stroke-width="none" opacity="1" stroke="none"/>
            </g>
          </g>
          <g id="svga-group-eyes-left-move" transform="matrix(1,0,0,1,0,0)">
            <g id="svga-group-eyes-left" transform="matrix(1,0,0,1,0,0)">
              <g id="svga-group-eyesback-left">
                <path id="SvgjsPath83059" d="M83.271 92.712c-3.293-0.892-4.969 1.202-9.809 1.324 -8.057 0.203-9.938-0.703-11.199-2.996C61.74 90.088 61.24 88.849 61 88.083l-0.1-4.715c1.328-4.488 19.541-4.944 25.9 2.027 0.287 0.757 0.433 1.463 0.465 2.122 -0.19 1.09-0.512 2.136-0.947 3.124C85.611 91.562 84.556 92.262 83.271 92.712z" fill="url(#SvgjsRadialGradient83060)" opacity="1"/>
              </g>
              <g id="svga-group-eyesiriswrapper-left" transform="matrix(1,0,0,1,-0.5,0)">
                <g id="svga-group-eyesiriscontrol-left" transform="matrix(1,0,0,1,0,0)">
                  <g id="svga-group-eyesiris-left" transform="matrix(1,0,0,1,0,0)">
                    <path id="SvgjsPath83117" d="M83.199 89.25c-1.231 4.522-5.896 7.187-10.429 5.944 -4.528-1.241-7.203-5.918-5.97-10.442 1.23-4.526 5.905-7.19 10.434-5.947C81.761 80.045 84.433 84.723 83.199 89.25z" fill="#66724e" stroke="#36441a" stroke-width="0.75" opacity="1"/>
                    <path id="SvgjsPath83118" d="M81.682 85.121c-0.806 1.237-2.884 1.31-4.641 0.166 -1.756-1.145-2.527-3.075-1.722-4.311 0.806-1.235 2.884-1.31 4.641-0.166C81.715 81.956 82.485 83.887 81.682 85.121L81.682 85.121z" fill="url(#SvgjsLinearGradient83119)" opacity="0.5"/>
                  </g>
                </g>
              </g>
              <g id="svga-group-eyesfront-left">
                <path id="SvgjsPath83084" d="M55.5 87c0 13.808 8.283 24.999 18.5 24.999S92.5 100.808 92.5 87c0-13.809-8.283-25.001-18.5-25.001S55.5 73.191 55.5 87zM61 88.083l-0.1-4.715c1.328-4.488 19.541-4.944 25.9 2.027 1.396 3.674-0.409 6.224-3.529 7.317 -3.293-0.892-4.969 1.202-9.809 1.324 -8.057 0.203-9.938-0.703-11.199-2.996C61.74 90.088 61.24 88.849 61 88.083z" fill="#f3d4cf" stroke-width="none" opacity="1" stroke="none"/>
                <path id="SvgjsPath83085" d="M59.898 85.083c0.023 8.56 7.646 15.459 17.038 15.416 9.389-0.049 16.985-7.022 16.961-15.583 -0.023-8.562-7.647-15.463-17.04-15.417C67.465 69.549 59.874 76.522 59.898 85.083zM61 88.083l-0.1-4.715c1.328-4.488 19.541-4.944 25.9 2.027 1.396 3.674-0.409 6.224-3.529 7.317 -3.293-0.892-4.969 1.202-9.809 1.324 -8.057 0.203-9.938-0.703-11.199-2.996C61.74 90.088 61.24 88.849 61 88.083z" fill="url(#SvgjsRadialGradient83086)" opacity="1"/>
                <path id="SvgjsPath83090" d="M62.264 91.041C61.74 90.088 61.24 88.849 61 88.083l-0.1-4.715c1.328-4.488 19.541-4.944 25.9 2.027 1.396 3.674-0.409 6.224-3.529 7.317 -3.293-0.892-4.969 1.202-9.809 1.324C65.406 94.239 63.524 93.333 62.264 91.041z" fill="url(#SvgjsRadialGradient83091)" opacity="1"/>
                <path id="SvgjsPath83094" d="M89.665 83.698c-9.617-6.546-16.701-6.963-28.117-6.129C71.077 75.863 82.052 77.099 89.665 83.698z" fill="#c5796d" stroke-width="none" opacity="1" stroke="none"/>
                <path id="SvgjsPath83095" d="M87.697 85.861c0.371 0.625 0.543 0.968 0.733 2.484C85.19 78.896 62.487 78.841 61 83.593v4.427c-1.021-1.75-1.494-3.878-1.931-5.889 -0.093-0.428-2.348-2.602-2.348-2.602s2.435 1.326 2.798 1.349c-0.182-0.216-1.127-1.248-1.127-1.248s2.251 0.931 2.576 0.843c-0.436-0.186-1.071-0.823-1.071-0.823 0.483 0.141 1.646 0.604 2.723 0.369 10.863-2.365 22.558 0.247 26.703 8C88.648 87.037 88.225 86.47 87.697 85.861zM84.943 93.048c-4.625-2.25-5.94 0.428-11.563 0.563 -8.004 0.191-9.567-0.871-11.125-2.813 0.813 2.375 1.375 3.504 10.875 3.438C78.506 94.198 81.443 91.673 84.943 93.048z" fill="#131111" stroke-width="none" opacity="1" stroke="none"/>
              </g>
            </g>
          </g>
          <g id="svga-group-eyes-right-move" transform="matrix(1,0,0,1,0,0)">
            <g id="svga-group-eyes-right" transform="matrix(1,0,0,1,0,0)">
              <g id="svga-group-eyesback-right">
                <path id="SvgjsPath83067" d="M116.729 92.712c3.293-0.892 4.969 1.202 9.809 1.324 8.057 0.203 9.938-0.703 11.199-2.996 0.523-0.952 1.023-2.191 1.264-2.958l0.1-4.715c-1.328-4.488-19.541-4.944-25.9 2.027 -0.287 0.757-0.433 1.463-0.465 2.122 0.19 1.09 0.512 2.136 0.947 3.124C114.389 91.562 115.444 92.262 116.729 92.712z" fill="url(#SvgjsRadialGradient83068)" opacity="1"/>
              </g>
              <g id="svga-group-eyesiriswrapper-right" transform="matrix(1,0,0,1,0.5,0)">
                <g id="svga-group-eyesiriscontrol-right" transform="matrix(1,0,0,1,0,0)">
                  <g id="svga-group-eyesiris-right" transform="matrix(1,0,0,1,0,0)">
                    <path id="SvgjsPath83122" d="M133.199 89.25c-1.231 4.522-5.896 7.187-10.429 5.944 -4.528-1.241-7.203-5.918-5.97-10.442 1.23-4.526 5.905-7.19 10.434-5.947C131.761 80.045 134.433 84.723 133.199 89.25z" fill="#66724e" stroke="#36441a" stroke-width="0.75" opacity="1"/>
                    <path id="SvgjsPath83123" d="M131.682 85.121c-0.806 1.237-2.884 1.31-4.641 0.166 -1.756-1.145-2.527-3.075-1.722-4.311 0.806-1.235 2.884-1.31 4.641-0.166C131.715 81.956 132.485 83.887 131.682 85.121L131.682 85.121z" fill="url(#SvgjsLinearGradient83124)" opacity="0.5"/>
                  </g>
                </g>
              </g>
              <g id="svga-group-eyesfront-right">
                <path id="SvgjsPath83105" d="M126 61.999c-10.217 0-18.5 11.192-18.5 25.001 0 13.808 8.283 24.999 18.5 24.999S144.5 100.808 144.5 87C144.5 73.191 136.217 61.999 126 61.999zM137.736 91.041c-1.261 2.293-3.143 3.199-11.199 2.996 -4.84-0.122-6.516-2.216-9.809-1.324 -3.12-1.093-4.925-3.643-3.529-7.317 6.359-6.971 24.572-6.516 25.9-2.027l-0.1 4.715C138.76 88.849 138.26 90.088 137.736 91.041z" fill="#f3d4cf" stroke-width="none" opacity="1" stroke="none"/>
                <path id="SvgjsPath83106" d="M123.146 69.499c-9.393-0.045-17.017 6.856-17.04 15.417 -0.024 8.56 7.572 15.533 16.961 15.583 9.392 0.043 17.015-6.856 17.038-15.416C140.129 76.522 132.537 69.549 123.146 69.499zM137.736 91.041c-1.261 2.293-3.143 3.199-11.199 2.996 -4.84-0.122-6.516-2.216-9.809-1.324 -3.12-1.093-4.925-3.643-3.529-7.317 6.359-6.971 24.572-6.516 25.9-2.027l-0.1 4.715C138.76 88.849 138.26 90.088 137.736 91.041z" fill="url(#SvgjsRadialGradient83107)" opacity="1"/>
                <path id="SvgjsPath83111" d="M137.736 91.041c0.523-0.952 1.023-2.191 1.264-2.958l0.1-4.715c-1.328-4.488-19.541-4.944-25.9 2.027 -1.396 3.674 0.409 6.224 3.529 7.317 3.293-0.892 4.969 1.202 9.809 1.324C134.594 94.239 136.476 93.333 137.736 91.041z" fill="url(#SvgjsRadialGradient83112)" opacity="1"/>
                <path id="SvgjsPath83115" d="M110.335 83.698c9.617-6.546 16.701-6.963 28.117-6.129C128.923 75.863 117.948 77.099 110.335 83.698z" fill="#c5796d" stroke-width="none" opacity="1" stroke="none"/>
                <path id="SvgjsPath83116" d="M110.677 88.021c4.146-7.754 15.84-10.365 26.703-8 1.077 0.234 2.239-0.229 2.723-0.369 0 0-0.636 0.637-1.071 0.823 0.325 0.088 2.576-0.843 2.576-0.843s-0.945 1.032-1.127 1.248c0.363-0.022 2.798-1.349 2.798-1.349s-2.255 2.174-2.348 2.602c-0.437 2.011-0.91 4.139-1.931 5.889v-4.427c-1.487-4.752-24.19-4.698-27.431 4.751 0.19-1.516 0.362-1.859 0.733-2.484C111.775 86.47 111.352 87.037 110.677 88.021zM126.869 94.235c9.5 0.066 10.063-1.063 10.875-3.438 -1.558 1.941-3.121 3.004-11.125 2.813 -5.622-0.134-6.938-2.813-11.563-0.563C118.557 91.673 121.494 94.198 126.869 94.235z" fill="#131111" stroke-width="none" opacity="1" stroke="none"/>
              </g>
            </g>
          </g>
          <g id="svga-group-facehighlight-single">
            <path id="SvgjsPath82877" d="M140.204 113.007c0.035 22.275-17.995 40.365-40.273 40.396 -22.274 0.036-40.361-17.993-40.396-40.272C59.501 90.857 77.53 72.77 99.808 72.735 122.083 72.701 140.171 90.73 140.204 113.007z" fill="url(#SvgjsRadialGradient82878)" opacity="1"/>
            <path id="SvgjsPath82881" d="M135,55.999c0,19.329-15.671,35-35,35c-19.329,0-35-15.671-35-35s15.671-35,35-35C119.329,20.999,135,36.67,135,55.999z" fill="url(#SvgjsRadialGradient82882)" opacity="1"/>
          </g>
          <g id="svga-group-eyebrows-left-move" transform="matrix(1,0,0,1,0,0)">
            <g id="svga-group-eyebrows-left-rotate" transform="matrix(1,0,0,1,0,0)">
              <g id="svga-group-eyebrows-left" transform="matrix(1,0,0,1,0,0)">
                <path id="SvgjsPath83127" d="M57.004 67.78c11.555 9.335 37.156 4.096 34.985 0.54 -0.511-0.85-1.357-0.521-2.207-0.27C81.967 70.765 65.022 72.278 57.004 67.78z" fill="#73625b" stroke-width="none" opacity="1" stroke="none"/>
              </g>
            </g>
          </g>
          <g id="svga-group-eyebrows-right-move" transform="matrix(1,0,0,1,0,0)">
            <g id="svga-group-eyebrows-right-rotate" transform="matrix(1,0,0,1,0,0)">
              <g id="svga-group-eyebrows-right" transform="matrix(1,0,0,1,0,0)">
                <path id="SvgjsPath83128" d="M142.996 67.78c-11.456 9.255-37.187 4.146-34.985 0.54 0.951-1.583 2.076 0.616 11.924 1.808C126.627 70.951 136.795 71.259 142.996 67.78z" fill="#73625b" stroke-width="none" opacity="1" stroke="none"/>
              </g>
            </g>
          </g>
          <g id="svga-group-nose-single-move" transform="matrix(1,0,0,1,0,0)">
            <g id="svga-group-nose-single" transform="matrix(1,0,0,1,0,0)">
              <path id="SvgjsPath83019" d="M92.281 116.235c-0.745 2.063 5.028 4.289 7.218 4.426 2.374 0.147 9.024-2.899 7.896-4.991 -1.185-2.197-5.63-0.286-7.547-0.286C97.94 115.384 93.276 113.479 92.281 116.235z" fill="#e4b3ab" stroke-width="none" opacity="1" stroke="none"/>
              <path id="SvgjsPath83020" d="M102.207 117.221c-0.243-0.522 1.194-1.333 1.748-1.493 0.777-0.226 2.505 0.238 2.438 0.831 -0.06 0.521-1.603-0.169-2.105-0.022C103.767 116.687 102.435 117.712 102.207 117.221zM95.214 116.742c0.706 0 1.753 0.457 1.945 0.057 0.229-0.479-1.56-1.065-2.086-1 -0.434 0.052-1.991 0.958-1.777 1.338C93.496 117.49 94.284 116.742 95.214 116.742z" fill="#c5796d" stroke-width="none" opacity="1" stroke="none"/>
              <path id="SvgjsPath83021" d="M99.857 113.479c0.669 0 1.807-0.637 1.978-1.9 0.754-5.575-0.521-20.246-1.978-20.246 -1.365 0-2.508 15.024-2.155 20.246C97.789 112.86 99.099 113.479 99.857 113.479" fill="#ffffff" stroke-width="none" opacity="0.2" stroke="none"/>
            </g>
          </g>
          <g id="svga-group-hair-front" transform="matrix(1,0,0,1,0,0)">
            <path id="SvgjsPath83037" d="M146.93 34.899H51.19l2.047 63.665c0.413-1.002 6.167-11.347 6.883-9.885 27.017-13.333 35.79-30.203 41.162-43.761 -8.006 33.653-27.315 38.394-27.315 38.394 4.23-0.47 16.372-1.724 24.386-10.048 1.049-1.109 9.917-7.806 17.639-28.686 1.598 17.179 9.102 35.856 21.778 43.817 -4.244-8.364-9.812-29.919-10.834-45.113 7.041 34.369 14.163 52.434 20.596 64.606 2.186 4.135 6.498 11.445 5.991 11.344C155.064 127.09 146.93 34.899 146.93 34.899z" fill="#73625b" stroke-width="none" opacity="0.1" stroke="none"/>
            <path id="SvgjsPath83038" d="M123.977 2.768c-3.083-1.172-5.286-2.017-8.009-2.746 -0.046-1-52.547-15.95-79.211 46.22C30 65.827 26.418 96.013 32.644 115.821c1.439 4.387 5.438 10.615 9.24 31.491 1.83 10.049 3.275 17.985 14.18 29.005 2.863 2.896 10.198 8.648 11.516 13.763 4.04-22.237-3.639-28.484-10.942-34.448 -5.008-4.09-9.886-5.026 3.084-1.95 0 0 2.742-0.172 8.082-3.547 -8.452 1.78-14.496-1.088-18.395-7.845 -5.153-8.931-5.126-22.432 0.063-31.404 5.211 2.94 4.943 17.158 5.213 18.975 2.336-7.38-1.068-29.004-1.447-31.296 -0.086-1.031 1.344-4.568 1.344-4.568 0.413-1.002 4.823-9.035 5.539-7.572 27.017-13.333 35.79-30.203 41.162-43.761 -8.006 33.653-26.338 40.13-26.338 40.13 4.23-0.47 15.395-3.46 23.408-11.784 1.049-1.109 10.575-11.543 18.297-32.423 1.598 17.179 9.354 36.563 19.454 48.129 -4.244-8.364-8.146-30.494-9.168-45.688 7.041 34.369 15.773 50.895 22.206 63.066 2.186 4.135 4.633 11.112 4.126 11.011 1.542 7.857-1.689 25.994-16.881 30.317 2.979 0.559 5.525 0.628 7.732 0.33 -16.469 16.26-7.259 25.821-4.188 43.015 0.856-3.048 0.825-6.172 5.466-12.909 8.701-12.646 1.984-12.887 12.664-33.732 11.454-22.361 10.121-31.09 11.148-37.028C169.358 104.3 175.752 22.291 123.977 2.768z" fill="#73625b" stroke-width="none" opacity="1" stroke="none"/>
            <path id="SvgjsPath83039" d="M67.764 188.989c0.423-2.594 0.691-4.943 0.835-7.097C68.471 184.053 68.198 186.411 67.764 188.989zM74 74c12.458-18.076 20-31 24-50 -9.526 21.91-26.401 39.19-40.852 57.299 -0.179-4.145 0.471-27.813 19.151-56.07C53.909 45.714 44.072 74.808 50 92.329c-4.381-9.265-7.631-27.423-4.534-39.992C32.93 82.071 50.324 95.5 55.201 114.308c-1.344-18.182-3.149-14.727-0.619-20.983 0.353-0.856 2.804-5.552 2.941-4.476 1.148-1.746 2.267-3.1 2.597-2.425 27.017-13.333 35.79-30.203 41.162-43.761 -8.006 33.653-26.338 40.13-26.338 40.13 12.432-1.38 32.048-22.872 29.337-54.052C99.279 46.741 86.458 62.405 74 74zM167.643 69.768C168.346 85.58 166.535 100.791 164 116c-2-14-5.646-30.432-12.166-48.964 5.535 25.6 4.855 34.796 5.16 44.698 -13.146-28.627-26.344-53.284-31.411-82.828C124.631 39.739 127.384 55.924 129 68c-4.369-9.761-9.298-21.428-11.084-39.259 0 3.435-0.399 5.222-1.558 9.477 1.731 17.014 9.773 37.078 19.745 48.497 -4.244-8.364-8.146-30.494-9.168-45.688 7.041 34.369 15.773 50.895 22.206 63.066 1.876 3.549 3.938 9.179 4.167 10.643 0.038 0.242 0.031 0.383-0.041 0.368 0.158 0.808 0.264 1.729 0.313 2.728 1.77 4.593 2.528 7.402 1.474 10.785 -1.525 4.895-9.049 15.63-18.668 16.805 8.743 2.063 14.341-2.79 18.97-8.827 -6.923 15.946-21.127 8.797-15.486 51.65 0.701-2.468 1.708-6.844 5.527-12.388 8.701-12.646 1.984-12.887 12.664-33.732 11.454-22.361 10.121-31.09 11.148-37.028C169.274 104.75 170.52 89.027 167.643 69.768zM44.483 143.565c2.989 1.909 6.538 10.618 16.535 9.841C41.105 148.271 42 120.18 42 103c-1.471 4.902-2.685 10.05-3.438 15.315 -11.3-30.764-4.969-64.11 9.831-92.716 -4.203 5.701-8.144 12.5-11.637 20.643 -16.692 48.389-0.499 78.419 0.992 83.356 6.717 22.247 2.683 30.923 18.315 46.719 2.863 2.896 10.198 8.648 11.516 13.763C71.369 164.985 48.613 158.099 44.483 143.565zM142.95 25.75c15.545 14.046 21.195 45.833 21.328 69.442C164.39 100.162 164.413 46.131 142.95 25.75zM154.875 82.765c3.342 20.038-2.521-42.627-24.576-58.441C143.508 35.305 152.316 67.792 154.875 82.765zM70.88 22.753c5.942-4.945-2.793 2-5.802 4.808C54.54 37.09 50.033 46.996 47.94 57.751 51.505 42.729 59.444 32.739 70.88 22.753zM84.705 24.485c2.822-2.594-13.942 8.265-22.912 41.27C68.529 45.157 77.302 31.847 84.705 24.485z" fill="#644e45" stroke-width="none" opacity="1" stroke="none"/>
            <path id="SvgjsPath83040" d="M151.671 107.902c17.19 26.816 3.447 35.355 1.861 40.974C155.307 142.587 164.622 133.223 151.671 107.902zM163.42 128.026c0.103-1 3.263-9.188 0.12-24.545 -1.706-8.337-4.72-16.315-6.759-24.558C160.708 97.38 165.319 109.35 163.42 128.026zM40.778 139.904c0.025-1.461-5.489-18.724 2.449-40.017C31.997 123.286 40.828 137.053 40.778 139.904zM47.054 108.148c-0.2-0.831-0.822-1.722-1.174-2.497 -13.39-29.399-4.231-52.055 7.184-80.645C37.802 57.778 30.55 77.146 47.054 108.148zM76.707 21.78c0.036-0.038 3.867-3.963 3.917-3.95 -0.095-0.025-0.761 0.712-0.836 0.781C58.372 38.149 45.057 58.889 48.989 87.389 46.38 61.056 58.712 40.895 76.707 21.78zM99.998 17.774c-3.237 8.17-26.894 43.475-42.375 62.038C83.633 50.897 99.614 20.587 99.998 17.774zM82.755 80.445c-0.234 0.139-2.196 1.563-2.301 1.506 0.045 0.024 1.552-0.942 1.671-1.005 26.81-14.112 29.966-31.518 36.614-59.983C111.34 47.604 106.258 66.473 82.755 80.445zM155.396 106.15c-4.141-9.261-29.368-64.249-29.976-80.447C125.997 52.586 154.947 105.149 155.396 106.15zM148.657 74.301c0.361 1.587 0.849 3.182 1.121 4.785 -3.42-20.115-5.357-34.698-17.969-50.635C140.228 39.304 143.225 50.447 148.657 74.301zM136.445 21.347c0 0.068-0.079 0.248-0.18 0.171 16.048 12.281 24.425 58.902 24.777 59.902 -1.188-3.375 0.299-28.648-19.299-53.957 -1.58-2.04-3.319-4.493-5.468-5.976 0.061 0.017 0.187-0.063 0.143-0.136 0.066 0.106 0.143 0.201 0.221 0.3C136.731 21.704 136.445 21.53 136.445 21.347z" fill="#827874" stroke-width="none" opacity="1" stroke="none"/>
            <path id="SvgjsPath83041" d="M152.811 150.46c-5.664 16.369-6.497 17.491-6.497 17.491C145.881 168.951 149.452 157.542 152.811 150.46zM145.609 171.244c-0.081 0.287-0.612 2.203-0.539 1.967 1.925-5.472 3.814-6.661 5.754-14.988C148.631 165.023 148.427 163.099 145.609 171.244zM146.069 171.593c-3.171 4.709-3.991 7.679-3.865 7.369 0.093-0.278 0.782-1.668 1.515-2.844 1.649-2.668 3.643-4.701 5.109-9.896C148.427 167.289 147.835 169.096 146.069 171.593zM50.233 166.038c3.835 4.714-0.635 0.469-6.922-14.783C45.74 159.453 47.645 162.625 50.233 166.038zM55.452 171.15c-1.002-0.743-7.178-6.813-9.562-11.396C49.341 167.897 56.454 171.917 55.452 171.15zM52.553 170.327c10.604 9.982-2.789-2.537-3.953-4.89C48.6 165.438 48.617 166.515 52.553 170.327z" fill="#73625b" stroke-width="none" opacity="1" stroke="none"/>
            <path id="SvgjsPath83042" d="M167.879 61.476c-12.103-57.797-52.05-61.709-49.288-60.534C82.706-11.776 39.498 11.482 30.849 62.735c-2.427 14.398-3.457 40.922 0.152 51.061 2.023 5.684 3.274 8.689 5.778 15.28 7.917 21.966-0.744 33.347 24.319 52.629 3.111 2.404 5.166 5.576 6.57 9.28 0.011-0.021 0.206-1.185 0.21-1.21 3.034-17.218 1.952-26.859-14.556-37.602 4.582 2.664 10.785 1.913 14.707-2.328 -18.17 5.154-26.956-19.264-18.035-37.71 3.31 7.742 4.615 15.037 4.415 19.26 3.667-11.231 1.363-15.783-0.26-36.23 1.382-3.195 3.084-5.784 5.23-8.52 18.811-9.406 32.957-18.133 42.583-45.857 -2.319 7.76-3.984 15.355-10.583 25.527 -8.651 13.359-12.577 13.816-17.96 16.7 4.453 0 10.501-1.322 18.886-6.369 -1.375 1.17-2.601 2.299-5.326 4.209 13.693-8.82 23.971-21.423 29.379-42.638 -3.583 16.868-5.419 32.085-22.899 41.488 17.491-8.862 20.781-21.575 23.227-41.07 1.759 30.597 16.143 46.195 21.084 49.76 -6.279-10.305-9.001-34.624-11.224-50.274 2.413 14.985 1.465 10.331 5.243 24.954 6.901 26.356 15.578 41.213 20.585 51.722 2.062 14.443-4.134 27.799-17.385 30.438 3.135 1.249 6.225 1.409 8.729 0.8 -18.508 18.508-7.2 24.044-3.8 43.63 1.291-8.023 5.813-11.861 9.25-18.229 3.456-6.434 2.206-13.346 6.01-21.3C167.924 123.713 178.348 111.793 167.879 61.476zM136.719 145.355c10.184-1.965 18.639-15.794 17.193-27.181 3.127 7.31 3.785 12.573-0.413 18.921C149.909 143.246 143.775 147.014 136.719 145.355zM155.356 136.595L155.356 136.595c-0.008-0.008-0.009-0.01-0.027-0.01C155.316 136.585 155.341 136.58 155.356 136.595zM168.709 105.035c-2.086 29.331-15.352 38.543-17.63 54 -2.551 17.787-8.397 14.561-11.22 28.42 -3.092-17.286-11.779-25.501 4.99-41.729 7.597-2.349 15.125-11.563 12.619-23.141 -3.939-18.205-19.696-28.375-30.75-85.2 0.001 0.021 0.004 0.041 0.005 0.062 -0.188-0.892-0.424-1.969-0.574-2.721 -0.041-0.039-1.392-8.322 0.028 1.145 0.448 15.911 4.518 40.049 9.187 49.243 -14.321-18.218-17.941-38.157-18.659-46.634 0.132-1.054 0.262-2.123 0.391-3.217v0.001c0.594-4.784 1.755-12.568-0.516 1.36 -7.278 20.704-16.344 31.664-18.591 34.042 -7.751 8.047-19.589 11.732-22.89 12.03 19.078-8.456 25.617-31.208 28.85-51.12 -0.116 0.562-1.372 6.57-1.26 6.01 -5.817 15.457-13.401 33.887-42.791 48.39 21.149-26.064 32.342-46.549 37.38-60.3 -10.229 24.39-39.564 59.988-42.96 68.23 -1.051-33.877 10.756-57.804 22.45-68.31 -12.185 9.517-27.02 37.211-24.03 73.01 1.093 6.624 3.499 23.741 2.033 30.36 0.267-4.023-0.573-9.699-1.343-12.41v-0.011c-3.027-10.95-10.455-19.118-11.85-31.479 -1.26-11.15-0.79-22.64 4.16-32.88 -3.67 6.9-5.469 14.376-5.76 22.17 -0.845 22.599 5.915 24.877 9.065 36.278 -9.468 16.356-1.527 45.11 17.855 39.802 -11.657 9.495-21.668-7.561-23.435-10.817 -2.728-6.707-3.268-14.404-3.604-21.543 -0.12 51.119 33.988 27.358 27.697 71.093 -0.804-3.887-10.145-12.2-11.137-13.202 -15.067-15.233-11.885-24.441-17-41.98 -2.092-9.778-4.664-13.319-6.303-18.315 -6.389-20.335-2.216-50.915 4.113-69.265 12.133-28.275 31.378-46.868 62-47.87 7.224-0.239 22.339 2.489 13.6 1.26 4.341 0.897 6.861 1.884 10.97 3.44 50.765 19.143 45.277 99.834 44.92 101.77C168.719 105.005 168.709 105.015 168.709 105.035z" fill="#452c22" stroke-width="none" opacity="1" stroke="none"/>
          </g>
          <g id="svga-group-glasses-single-move" transform="matrix(1,0,0,1,0,0)">
            <g id="svga-group-glasses-single" transform="matrix(1,0,0,1,0,0)">
              <path id="SvgjsPath83009" d="M100,18.13L100,18.13L100,18.13L100,18.13z" fill="#26120b" stroke-width="none" opacity="1"/>
            </g>
          </g>
        </g>
      </g>
    </g>
    <rect id="SvgjsRect82862" width="200" height="15" x="0" y="185" fill="#ecf0f1" opacity="0.5" style="display: none;"/>
    <text id="SvgjsText82863" font-family="Roboto, Helvetica, Arial, sans-serif" font-size="10px" text-anchor="start" font-weight="400" anchor="start" fill="#333333" x="58.03125" y="182.4296875" style="display: none;">
      <tspan id="SvgjsTspan82864" dy="13" x="58.03125">Created on face.co</tspan>
    </text>
  </g>
</svg>
