<?xml version="1.0"?>
<svg xmlns="http://www.w3.org/2000/svg" version="1.1" width="600px" height="600px" viewBox="0 0 200 200" style="overflow:hidden!important;">
  <defs id="SvgjsDefs38780">
    <radialGradient id="SvgjsRadialGradient38841" cx="100" cy="113" r="40" gradientUnits="userSpaceOnUse" class="svga-on-canvas-facehighlight-gradient-single-0">
      <stop id="SvgjsStop38842" stop-opacity="0.5" stop-color="#fff4f3" offset="0"/>
      <stop id="SvgjsStop38843" stop-opacity="0" stop-color="#f3d4cf" offset="0.9"/>
    </radialGradient>
    <radialGradient id="SvgjsRadialGradient38845" cx="100" cy="57" r="36" gradientUnits="userSpaceOnUse" class="svga-on-canvas-facehighlight-gradient-single-1">
      <stop id="SvgjsStop38846" stop-opacity="0.5" stop-color="#fff4f3" offset="0"/>
      <stop id="SvgjsStop38847" stop-opacity="0" stop-color="#f3d4cf" offset="0.9"/>
    </radialGradient>
    <radialGradient id="SvgjsRadialGradient38926" cx="-558.588" cy="-490.918" r="84.646" gradientTransform="matrix(0.096 -0.0248 0.0245 0.0961 140.5478 120.3577)" gradientUnits="userSpaceOnUse" class="svga-on-canvas-eyesiris-gradient-left-1">
      <stop id="SvgjsStop38927" stop-opacity="0.8" stop-color="#ffffff" offset="0"/>
      <stop id="SvgjsStop38928" stop-opacity="0" stop-color="#ffffff" offset="1"/>
    </radialGradient>
    <radialGradient id="SvgjsRadialGradient38930" cx="-565.337" cy="-492.691" r="84.644" gradientTransform="matrix(0.0991 8.856325e-004 -0.0011 0.0991 130.3774 136.3533)" gradientUnits="userSpaceOnUse" class="svga-on-canvas-eyesiris-gradient-left-2">
      <stop id="SvgjsStop38931" stop-opacity="0.8" stop-color="#ffffff" offset="0"/>
      <stop id="SvgjsStop38932" stop-opacity="0" stop-color="#ffffff" offset="1"/>
    </radialGradient>
    <linearGradient id="SvgjsLinearGradient38936" x1="122.283" y1="93.047" x2="123.61" y2="91.466" gradientTransform="matrix(1 0 0 1 -52 0)" gradientUnits="userSpaceOnUse" class="svga-on-canvas-eyesiris-gradient-left-5">
      <stop id="SvgjsStop38937" stop-opacity="1" stop-color="#ffffff" offset="0"/>
      <stop id="SvgjsStop38938" stop-opacity="0" stop-color="#ffffff" offset="1"/>
    </linearGradient>
    <linearGradient id="SvgjsLinearGradient38940" x1="127" y1="85" x2="125" y2="87" gradientTransform="matrix(1 0 0 1 -50 0)" gradientUnits="userSpaceOnUse" class="svga-on-canvas-eyesiris-gradient-left-6">
      <stop id="SvgjsStop38941" stop-opacity="1" stop-color="#ffffff" offset="0"/>
      <stop id="SvgjsStop38942" stop-opacity="0" stop-color="#ffffff" offset="1"/>
    </linearGradient>
    <linearGradient id="SvgjsLinearGradient38944" x1="130" y1="81" x2="126" y2="85" gradientTransform="matrix(1 0 0 1 -50 0)" gradientUnits="userSpaceOnUse" class="svga-on-canvas-eyesiris-gradient-left-7">
      <stop id="SvgjsStop38945" stop-opacity="1" stop-color="#ffffff" offset="0"/>
      <stop id="SvgjsStop38946" stop-opacity="0" stop-color="#ffffff" offset="1"/>
    </linearGradient>
    <radialGradient id="SvgjsRadialGradient38949" cx="-578.76" cy="-490.73" r="84.646" gradientTransform="matrix(0.096 -0.0248 0.0245 0.0961 192.4794 119.8404)" gradientUnits="userSpaceOnUse" class="svga-on-canvas-eyesiris-gradient-right-1">
      <stop id="SvgjsStop38950" stop-opacity="0.8" stop-color="#ffffff" offset="0"/>
      <stop id="SvgjsStop38951" stop-opacity="0" stop-color="#ffffff" offset="1"/>
    </radialGradient>
    <radialGradient id="SvgjsRadialGradient38953" cx="-584.778" cy="-487.329" r="84.644" gradientTransform="matrix(0.0991 8.856325e-004 -0.0011 0.0991 182.3104 135.839)" gradientUnits="userSpaceOnUse" class="svga-on-canvas-eyesiris-gradient-right-2">
      <stop id="SvgjsStop38954" stop-opacity="0.8" stop-color="#ffffff" offset="0"/>
      <stop id="SvgjsStop38955" stop-opacity="0" stop-color="#ffffff" offset="1"/>
    </radialGradient>
    <linearGradient id="SvgjsLinearGradient38959" x1="120.284" y1="93.047" x2="121.611" y2="91.467" gradientUnits="userSpaceOnUse" class="svga-on-canvas-eyesiris-gradient-right-5">
      <stop id="SvgjsStop38960" stop-opacity="1" stop-color="#ffffff" offset="0"/>
      <stop id="SvgjsStop38961" stop-opacity="0" stop-color="#ffffff" offset="1"/>
    </linearGradient>
    <linearGradient id="SvgjsLinearGradient38963" x1="127" y1="85" x2="125" y2="87" gradientUnits="userSpaceOnUse" class="svga-on-canvas-eyesiris-gradient-right-6">
      <stop id="SvgjsStop38964" stop-opacity="1" stop-color="#ffffff" offset="0"/>
      <stop id="SvgjsStop38965" stop-opacity="0" stop-color="#ffffff" offset="1"/>
    </linearGradient>
    <linearGradient id="SvgjsLinearGradient38967" x1="130" y1="81" x2="126" y2="85" gradientUnits="userSpaceOnUse" class="svga-on-canvas-eyesiris-gradient-right-7">
      <stop id="SvgjsStop38968" stop-opacity="1" stop-color="#ffffff" offset="0"/>
      <stop id="SvgjsStop38969" stop-opacity="0" stop-color="#ffffff" offset="1"/>
    </linearGradient>
    <radialGradient id="SvgjsRadialGradient39032" cx="126.403" cy="87.57" r="15.179" gradientTransform="matrix(-0.9148 0.0479 0.0523 0.9986 184.4314 -6.6017)" gradientUnits="userSpaceOnUse" class="svga-on-canvas-eyesback-gradient-left-0">
      <stop id="SvgjsStop39033" stop-opacity="1" stop-color="#ffffff" offset="0"/>
      <stop id="SvgjsStop39034" stop-opacity="1" stop-color="#fdfefe" offset="0.544"/>
      <stop id="SvgjsStop39035" stop-opacity="1" stop-color="#f6f8f9" offset="0.74"/>
      <stop id="SvgjsStop39036" stop-opacity="1" stop-color="#eaeff2" offset="0.879"/>
      <stop id="SvgjsStop39037" stop-opacity="1" stop-color="#d9e3e8" offset="0.992"/>
      <stop id="SvgjsStop39038" stop-opacity="1" stop-color="#d8e2e7" offset="1"/>
    </radialGradient>
    <radialGradient id="SvgjsRadialGradient39040" cx="126.401" cy="87.57" r="15.179" gradientTransform="matrix(0.9148 0.0479 -0.0523 0.9986 15.5691 -6.6017)" gradientUnits="userSpaceOnUse" class="svga-on-canvas-eyesback-gradient-right-0">
      <stop id="SvgjsStop39041" stop-opacity="1" stop-color="#ffffff" offset="0"/>
      <stop id="SvgjsStop39042" stop-opacity="1" stop-color="#fdfefe" offset="0.544"/>
      <stop id="SvgjsStop39043" stop-opacity="1" stop-color="#f6f8f9" offset="0.74"/>
      <stop id="SvgjsStop39044" stop-opacity="1" stop-color="#eaeff2" offset="0.879"/>
      <stop id="SvgjsStop39045" stop-opacity="1" stop-color="#d9e3e8" offset="0.992"/>
      <stop id="SvgjsStop39046" stop-opacity="1" stop-color="#d8e2e7" offset="1"/>
    </radialGradient>
    <radialGradient id="SvgjsRadialGradient39048" cx="126.403" cy="87.57" r="15.179" gradientTransform="matrix(-0.9148 0.0479 0.0523 0.9986 184.4314 -6.6017)" gradientUnits="userSpaceOnUse" class="svga-on-canvas-eyesfront-gradient-left-0">
      <stop id="SvgjsStop39049" stop-opacity="1" stop-color="#ffffff" offset="0"/>
      <stop id="SvgjsStop39050" stop-opacity="1" stop-color="#fdfefe" offset="0.544"/>
      <stop id="SvgjsStop39051" stop-opacity="1" stop-color="#f6f8f9" offset="0.74"/>
      <stop id="SvgjsStop39052" stop-opacity="1" stop-color="#eaeff2" offset="0.879"/>
      <stop id="SvgjsStop39053" stop-opacity="1" stop-color="#d9e3e8" offset="0.992"/>
      <stop id="SvgjsStop39054" stop-opacity="1" stop-color="#d8e2e7" offset="1"/>
    </radialGradient>
    <radialGradient id="SvgjsRadialGradient39058" cx="122.581" cy="83.48" fx="136.229" fy="83.114" r="16.914" gradientTransform="matrix(0.99 0.1411 0.1085 -0.7608 -52.9892 129.6892)" gradientUnits="userSpaceOnUse" class="svga-on-canvas-eyesfront-gradient-left-3">
      <stop id="SvgjsStop39059" stop-opacity="1" stop-color="#e4b3ab" offset="0"/>
      <stop id="SvgjsStop39060" stop-opacity="0.3" stop-color="#e4b3ab" offset="0.7"/>
      <stop id="SvgjsStop39061" stop-opacity="0" stop-color="#f3d4cf" offset="1"/>
    </radialGradient>
    <radialGradient id="SvgjsRadialGradient39063" cx="70.243" cy="108.081" r="29.51" gradientTransform="matrix(1.0336 0 0 1.0336 -1.941 1.8777)" gradientUnits="userSpaceOnUse" class="svga-on-canvas-eyesfront-gradient-left-4">
      <stop id="SvgjsStop39064" stop-opacity="0" stop-color="#000000" offset="0.95"/>
      <stop id="SvgjsStop39065" stop-opacity="0.3" stop-color="#000000" offset="1"/>
    </radialGradient>
    <radialGradient id="SvgjsRadialGradient39069" cx="126.401" cy="87.57" r="15.179" gradientTransform="matrix(0.9148 0.0479 -0.0523 0.9986 15.5691 -6.6017)" gradientUnits="userSpaceOnUse" class="svga-on-canvas-eyesfront-gradient-right-0">
      <stop id="SvgjsStop39070" stop-opacity="1" stop-color="#ffffff" offset="0"/>
      <stop id="SvgjsStop39071" stop-opacity="1" stop-color="#fdfefe" offset="0.544"/>
      <stop id="SvgjsStop39072" stop-opacity="1" stop-color="#f6f8f9" offset="0.74"/>
      <stop id="SvgjsStop39073" stop-opacity="1" stop-color="#eaeff2" offset="0.879"/>
      <stop id="SvgjsStop39074" stop-opacity="1" stop-color="#d9e3e8" offset="0.992"/>
      <stop id="SvgjsStop39075" stop-opacity="1" stop-color="#d8e2e7" offset="1"/>
    </radialGradient>
    <radialGradient id="SvgjsRadialGradient39079" cx="122.581" cy="83.48" fx="136.229" fy="83.114" r="16.914" gradientTransform="matrix(-0.99 0.1411 -0.1085 -0.7608 252.9892 129.6892)" gradientUnits="userSpaceOnUse" class="svga-on-canvas-eyesfront-gradient-right-3">
      <stop id="SvgjsStop39080" stop-opacity="1" stop-color="#e4b3ab" offset="0"/>
      <stop id="SvgjsStop39081" stop-opacity="0.3" stop-color="#e4b3ab" offset="0.7"/>
      <stop id="SvgjsStop39082" stop-opacity="0" stop-color="#f3d4cf" offset="1"/>
    </radialGradient>
    <radialGradient id="SvgjsRadialGradient39084" cx="70.243" cy="108.081" r="29.509" gradientTransform="matrix(-1.0336 0 0 1.0336 201.941 1.8777)" gradientUnits="userSpaceOnUse" class="svga-on-canvas-eyesfront-gradient-right-4">
      <stop id="SvgjsStop39085" stop-opacity="0" stop-color="#000000" offset="0.95"/>
      <stop id="SvgjsStop39086" stop-opacity="0.3" stop-color="#000000" offset="1"/>
    </radialGradient>
    <linearGradient id="SvgjsLinearGradient39104" x1="100" y1="142" x2="100" y2="139" gradientUnits="userSpaceOnUse" class="svga-on-canvas-mouth-gradient-single-0">
      <stop id="SvgjsStop39105" stop-opacity="1" stop-color="#ebc3bd" offset="0.1"/>
      <stop id="SvgjsStop39106" stop-opacity="1" stop-color="#e4b3ab" offset="1"/>
    </linearGradient>
    <linearGradient id="SvgjsLinearGradient39130" x1="99.98" y1="171.27" x2="99.98" y2="136.351" gradientUnits="userSpaceOnUse" class="svga-on-canvas-chinshadow-gradient-single-0">
      <stop id="SvgjsStop39131" stop-opacity="0.8" stop-color="#e4b3ab" offset="0"/>
      <stop id="SvgjsStop39132" stop-opacity="1" stop-color="#c5796d" offset="0.7"/>
    </linearGradient>
  </defs>
  <g id="svga-group-wrapper">
    <g id="svga-group-backs-single">
      <path id="SvgjsPath38994" d="M225 225H-25V-25h250V225z" fill="#f1d4af" stroke-width="none" opacity="1" stroke="none"/>
      <path id="SvgjsPath38995" d="M24.147 14.53c-2.146 1.82-9.173 6.469-9.173 6.469S8.02 16.344 5.893 14.53c-2.69-2.292-2.351-6.441 0-8.82 2.35-2.384 6.435-2.403 9.081 0.844 2.825-3.278 6.734-3.228 9.083-0.844C26.41 8.089 26.842 12.246 24.147 14.53zM80.057 5.71c-2.349-2.384-6.258-2.434-9.083 0.844 -2.646-3.248-6.731-3.228-9.081-0.844 -2.351 2.379-2.69 6.528 0 8.82 2.127 1.813 9.081 6.469 9.081 6.469s7.027-4.648 9.173-6.469C82.842 12.246 82.41 8.089 80.057 5.71zM137.057 5.71c-2.349-2.384-6.258-2.434-9.083 0.844 -2.646-3.248-6.731-3.228-9.081-0.844 -2.351 2.379-2.69 6.528 0 8.82 2.128 1.813 9.081 6.469 9.081 6.469s7.027-4.648 9.174-6.469C139.843 12.246 139.409 8.089 137.057 5.71zM194.057 5.71c-2.349-2.384-6.258-2.434-9.083 0.844 -2.646-3.248-6.731-3.228-9.081-0.844 -2.351 2.379-2.69 6.528 0 8.82 2.128 1.813 9.081 6.469 9.081 6.469s7.027-4.648 9.174-6.469C196.843 12.246 196.409 8.089 194.057 5.71zM52.057 28.21c-2.349-2.384-6.258-2.434-9.083 0.844 -2.646-3.248-6.731-3.228-9.081-0.844 -2.351 2.379-2.69 6.528 0 8.82 2.127 1.813 9.081 6.469 9.081 6.469s7.027-4.648 9.173-6.469C54.842 34.746 54.41 30.589 52.057 28.21zM108.559 28.21c-2.349-2.384-6.258-2.434-9.085 0.844 -2.646-3.248-6.731-3.228-9.081-0.844 -2.351 2.379-2.69 6.528 0 8.82 2.127 1.813 9.081 6.469 9.081 6.469s7.03-4.648 9.175-6.469C111.344 34.746 110.912 30.589 108.559 28.21zM165.555 28.21c-2.349-2.384-6.258-2.434-9.083 0.844 -2.646-3.248-6.731-3.228-9.081-0.844 -2.351 2.379-2.69 6.528 0 8.82 2.128 1.813 9.081 6.469 9.081 6.469s7.027-4.648 9.174-6.469C168.341 34.746 167.907 30.589 165.555 28.21zM24.147 60.03c-2.146 1.82-9.173 6.469-9.173 6.469S8.02 61.844 5.893 60.03c-2.69-2.292-2.351-6.441 0-8.82 2.35-2.384 6.435-2.403 9.081 0.844 2.825-3.278 6.734-3.228 9.083-0.844C26.41 53.589 26.842 57.746 24.147 60.03zM80.057 51.21c-2.349-2.384-6.258-2.434-9.083 0.844 -2.646-3.248-6.731-3.228-9.081-0.844 -2.351 2.379-2.69 6.528 0 8.82 2.127 1.813 9.081 6.469 9.081 6.469s7.027-4.648 9.173-6.469C82.842 57.746 82.41 53.589 80.057 51.21zM137.057 51.21c-2.349-2.384-6.258-2.434-9.083 0.844 -2.646-3.248-6.731-3.228-9.081-0.844 -2.351 2.379-2.69 6.528 0 8.82 2.128 1.813 9.081 6.469 9.081 6.469s7.027-4.648 9.174-6.469C139.843 57.746 139.409 53.589 137.057 51.21zM194.057 51.21c-2.349-2.384-6.258-2.434-9.083 0.844 -2.646-3.248-6.731-3.228-9.081-0.844 -2.351 2.379-2.69 6.528 0 8.82 2.128 1.813 9.081 6.469 9.081 6.469s7.027-4.648 9.174-6.469C196.843 57.746 196.409 53.589 194.057 51.21zM52.057 72.21c-2.349-2.384-6.258-2.434-9.083 0.844 -2.646-3.248-6.731-3.228-9.081-0.844 -2.351 2.379-2.69 6.528 0 8.82 2.127 1.813 9.081 6.469 9.081 6.469s7.027-4.648 9.173-6.469C54.842 78.746 54.41 74.589 52.057 72.21zM108.559 72.21c-2.349-2.384-6.258-2.434-9.085 0.844 -2.646-3.248-6.731-3.228-9.081-0.844 -2.351 2.379-2.69 6.528 0 8.82 2.127 1.813 9.081 6.469 9.081 6.469s7.03-4.648 9.175-6.469C111.344 78.746 110.912 74.589 108.559 72.21zM165.555 72.21c-2.349-2.384-6.258-2.434-9.083 0.844 -2.646-3.248-6.731-3.228-9.081-0.844 -2.351 2.379-2.69 6.528 0 8.82 2.128 1.813 9.081 6.469 9.081 6.469s7.027-4.648 9.174-6.469C168.341 78.746 167.907 74.589 165.555 72.21zM24.147 103.03c-2.146 1.82-9.173 6.469-9.173 6.469s-6.954-4.655-9.081-6.469c-2.69-2.292-2.351-6.441 0-8.82 2.35-2.384 6.435-2.403 9.081 0.844 2.825-3.278 6.734-3.228 9.083-0.844C26.41 96.589 26.842 100.746 24.147 103.03zM80.057 94.21c-2.349-2.384-6.258-2.434-9.083 0.844 -2.646-3.248-6.731-3.228-9.081-0.844 -2.351 2.379-2.69 6.528 0 8.82 2.127 1.813 9.081 6.469 9.081 6.469s7.027-4.648 9.173-6.469C82.842 100.746 82.41 96.589 80.057 94.21zM137.057 94.21c-2.349-2.384-6.258-2.434-9.083 0.844 -2.646-3.248-6.731-3.228-9.081-0.844 -2.351 2.379-2.69 6.528 0 8.82 2.128 1.813 9.081 6.469 9.081 6.469s7.027-4.648 9.174-6.469C139.843 100.746 139.409 96.589 137.057 94.21zM194.057 94.21c-2.349-2.384-6.258-2.434-9.083 0.844 -2.646-3.248-6.731-3.228-9.081-0.844 -2.351 2.379-2.69 6.528 0 8.82 2.128 1.813 9.081 6.469 9.081 6.469s7.027-4.648 9.174-6.469C196.843 100.746 196.409 96.589 194.057 94.21zM52.057 114.961c-2.349-2.384-6.258-2.434-9.083 0.844 -2.646-3.247-6.731-3.228-9.081-0.844 -2.351 2.379-2.69 6.528 0 8.819 2.127 1.813 9.081 6.469 9.081 6.469s7.027-4.648 9.173-6.469C54.842 121.496 54.41 117.34 52.057 114.961zM108.559 114.961c-2.349-2.384-6.258-2.434-9.085 0.844 -2.646-3.247-6.731-3.228-9.081-0.844 -2.351 2.379-2.69 6.528 0 8.819 2.127 1.813 9.081 6.469 9.081 6.469s7.03-4.648 9.175-6.469C111.344 121.496 110.912 117.34 108.559 114.961zM165.555 114.961c-2.349-2.384-6.258-2.434-9.083 0.844 -2.646-3.247-6.731-3.228-9.081-0.844 -2.351 2.379-2.69 6.528 0 8.819 2.128 1.813 9.081 6.469 9.081 6.469s7.027-4.648 9.174-6.469C168.341 121.496 167.907 117.34 165.555 114.961zM24.147 146.28c-2.146 1.82-9.173 6.469-9.173 6.469s-6.954-4.655-9.081-6.469c-2.69-2.291-2.351-6.44 0-8.819 2.35-2.384 6.435-2.403 9.081 0.844 2.825-3.277 6.734-3.228 9.083-0.844C26.41 139.84 26.842 143.996 24.147 146.28zM80.057 137.461c-2.349-2.384-6.258-2.434-9.083 0.844 -2.646-3.247-6.731-3.228-9.081-0.844 -2.351 2.379-2.69 6.528 0 8.819 2.127 1.813 9.081 6.469 9.081 6.469s7.027-4.648 9.173-6.469C82.842 143.996 82.41 139.84 80.057 137.461zM137.057 137.461c-2.349-2.384-6.258-2.434-9.083 0.844 -2.646-3.247-6.731-3.228-9.081-0.844 -2.351 2.379-2.69 6.528 0 8.819 2.128 1.813 9.081 6.469 9.081 6.469s7.027-4.648 9.174-6.469C139.843 143.996 139.409 139.84 137.057 137.461zM194.057 137.461c-2.349-2.384-6.258-2.434-9.083 0.844 -2.646-3.247-6.731-3.228-9.081-0.844 -2.351 2.379-2.69 6.528 0 8.819 2.128 1.813 9.081 6.469 9.081 6.469s7.027-4.648 9.174-6.469C196.843 143.996 196.409 139.84 194.057 137.461zM52.057 160.461c-2.349-2.384-6.258-2.434-9.083 0.844 -2.646-3.247-6.731-3.228-9.081-0.844 -2.351 2.379-2.69 6.528 0 8.819 2.127 1.813 9.081 6.469 9.081 6.469s7.027-4.648 9.173-6.469C54.842 166.996 54.41 162.84 52.057 160.461zM108.559 160.461c-2.349-2.384-6.258-2.434-9.085 0.844 -2.646-3.247-6.731-3.228-9.081-0.844 -2.351 2.379-2.69 6.528 0 8.819 2.127 1.813 9.081 6.469 9.081 6.469s7.03-4.648 9.175-6.469C111.344 166.996 110.912 162.84 108.559 160.461zM165.555 160.461c-2.349-2.384-6.258-2.434-9.083 0.844 -2.646-3.247-6.731-3.228-9.081-0.844 -2.351 2.379-2.69 6.528 0 8.819 2.128 1.813 9.081 6.469 9.081 6.469s7.027-4.648 9.174-6.469C168.341 166.996 167.907 162.84 165.555 160.461zM24.147 190.28c-2.146 1.82-9.173 6.469-9.173 6.469s-6.954-4.655-9.081-6.469c-2.69-2.291-2.351-6.44 0-8.819 2.35-2.384 6.435-2.403 9.081 0.844 2.825-3.277 6.734-3.228 9.083-0.844C26.41 183.84 26.842 187.996 24.147 190.28zM80.057 181.461c-2.349-2.384-6.258-2.434-9.083 0.844 -2.646-3.247-6.731-3.228-9.081-0.844 -2.351 2.379-2.69 6.528 0 8.819 2.127 1.813 9.081 6.469 9.081 6.469s7.027-4.648 9.173-6.469C82.842 187.996 82.41 183.84 80.057 181.461zM137.057 181.461c-2.349-2.384-6.258-2.434-9.083 0.844 -2.646-3.247-6.731-3.228-9.081-0.844 -2.351 2.379-2.69 6.528 0 8.819 2.128 1.813 9.081 6.469 9.081 6.469s7.027-4.648 9.174-6.469C139.843 187.996 139.409 183.84 137.057 181.461zM194.057 181.461c-2.349-2.384-6.258-2.434-9.083 0.844 -2.646-3.247-6.731-3.228-9.081-0.844 -2.351 2.379-2.69 6.528 0 8.819 2.128 1.813 9.081 6.469 9.081 6.469s7.027-4.648 9.174-6.469C196.843 187.996 196.409 183.84 194.057 181.461z" fill="#e2bd8d" stroke-width="none" opacity="1" stroke="none"/>
    </g>
    <g id="svga-group-humanwrap-move" transform="matrix(1,0,0,1,0,0)">
      <g id="svga-group-humanwrap" transform="matrix(1,0,0,1,0,0)">
        <g id="svga-group-hair-back-move" transform="matrix(1,0,0,1,0,0)">
          <g id="svga-group-hair-back" transform="matrix(1,0,0,1,0,0)">
            <path id="SvgjsPath39007" d="M100.5,100.5h-1v-1h1V100.5z" fill="#504543" stroke-width="none" opacity="1" stroke="none"/>
          </g>
        </g>
        <g id="svga-group-humanbody-single">
          <path id="SvgjsPath38848" d="M190.858 199.866c-6.008-10.158-13.474-11.973-19.628-13.936 -6.323-2.016-19.346-3.178-26.449-4.6 -6.86-1.373-23.153-5.789-23.339-13.488 -0.192-8.066 4.291-40.09 4.291-40.09H74.005c0 0 4.487 32.023 4.294 40.09 -0.184 7.699-16.48 12.115-23.341 13.488 -7.104 1.422-20.125 2.584-26.448 4.6 -6.156 1.963-13.624 3.777-19.632 13.936 -3.644 6.16-6.008 16.133-6.008 27.133h194C196.869 215.999 194.509 206.026 190.858 199.866z" fill="#f3d4cf" stroke-width="none" opacity="1" stroke="none"/>
          <path id="SvgjsPath38849" d="M121.442 167.843c2.495 10.929 18.165 13.698 26.293 15.325 21.909 4.379 33.772 5.134 42.297 19.539 2.903 4.916 5.459 15.864 5.962 24.153 1.835 0.291 0.531-17.432-5.136-26.994 -9.742-16.472-29.089-15.135-46.077-18.535C137.921 179.958 121.628 175.542 121.442 167.843L121.442 167.843zM78.558 167.843c-0.186 7.699-16.479 12.115-23.339 13.488 -16.988 3.4-36.335 2.063-46.077 18.535 -5.667 9.563-6.971 27.285-5.136 26.994 0.503-8.289 3.059-19.237 5.962-24.153 8.524-14.405 20.388-15.16 42.297-19.539C60.393 181.541 76.063 178.771 78.558 167.843L78.558 167.843z" fill="#fff4f3" stroke-width="none" opacity="1" stroke="none"/>
          <path id="SvgjsPath38850" d="M51.206 189.513c0 0 28.641 0.299 33.473 1.885 2.314 0.758 8.372 5.633 8.372 5.633s-6.556-3.17-8.658-3.758C79.51 191.909 51.206 189.513 51.206 189.513zM99.795 199.999c2.053-0.041 7.887-3.799 7.887-3.799s-5.574 2.059-7.342 2.16c-1.491 0.086-6.366-1.238-6.366-1.238S98.112 200.032 99.795 199.999zM117.008 192.757c6.75-1.818 29.786-3.23 29.786-3.23s-23.791-0.516-30.51 1.725c-2.252 0.752-7.562 5.16-7.562 5.16S114.786 193.354 117.008 192.757z" fill="#e4b3ab" stroke-width="none" opacity="1" stroke="none"/>
          <path id="SvgjsPath38851" d="M190.858 199.866c-9.741-16.471-29.122-15.142-46.077-18.535 -6.86-1.373-23.153-5.789-23.339-13.488 -0.192-8.066 4.291-40.09 4.291-40.09H74.005c0 0 4.487 32.023 4.294 40.09 -0.184 7.699-16.48 12.115-23.341 13.488 -7.104 1.422-20.125 2.584-26.448 4.6 -6.156 1.963-13.624 3.777-19.632 13.936 -3.644 6.16-6.008 16.133-6.008 27.133h194C196.869 215.999 194.509 206.026 190.858 199.866z" fill="none" stroke="#c5796d" stroke-width="1.5" opacity="1"/>
        </g>
        <g id="svga-group-chinshadow-single">
          <path id="SvgjsPath39129" d="M100.045 171.737c5.593-0.009 13.488-3.608 20.908-8.44 0.448-6.688 1.717-17.243 2.734-25.146 -13.955-1.813-33.739-1.771-47.623 0.105 1.008 7.831 2.258 18.226 2.713 24.89C86.31 168.063 94.37 171.746 100.045 171.737z" fill="url(#SvgjsLinearGradient39130)" opacity="1"/>
        </g>
        <g id="svga-group-clothes-single">
          <path id="SvgjsPath39116" d="M36.917 226.987c-12.142-0.106-34.504-0.481-34.504-0.481 -1.001-13.221 2.596-27.552 13.625-35.288 12.837-8.999 26.79-7.649 37.699-10.586 1 0.851 7.132 5.092 15.783 8.984 17.875 8.037 35.664 11.938 66.937 18.887 7.121-21.609 8.549-27.237 8.753-28.237 0.012 0.039 1.217-0.015 1.259-0.015 0.868 0 1.157 0.083 1.898 0.661 1.372-0.662 2.97-0.267 3.693 0.703 -3.046 12.205 4.021 43.22 4.021 45.2C138.413 226.815 120.95 227.716 36.917 226.987z" fill="#335529" stroke-width="none" opacity="1" stroke="none"/>
          <path id="SvgjsPath39117" d="M2.319 226.605c-0.842-13.045 3.389-27.448 14.244-35.063 12.837-8.999 26.263-7.477 37.172-10.413 0.146 0.124 1.683 0.998 2.04 1.256C17.586 186.399 4.214 199.521 2.319 226.605zM152.059 181.615c-0.144-0.192-0.329-0.354-0.532-0.498 -0.395-0.277-0.88-0.454-1.405-0.507 -0.572-0.058-1.183 0.025-1.756 0.302 -0.372-0.29-0.631-0.455-0.905-0.548 -0.272-0.092-0.562-0.113-0.993-0.113 -0.002 0-0.016 0-0.021 0.001 -0.123 0.004-1.227 0.051-1.238 0.014 -0.057 0.275 0.368-0.521 0.033 0.692 0.512 2.387-0.894 6.45-3.241 22.042 4.722-16.694 5.029-20.603 6.493-21.467 1.563 1.452-0.73 13.11 1.507 26.467 -0.506-8.89-0.193-24.89 1.863-25.892C151.976 181.263 151.878 182.339 152.059 181.615zM47.247 183.5c9.949 11.154 13.767 13.82 35.127 21.874C60.79 195.24 60.259 195.633 47.247 183.5zM52.952 182.397c14.55 15.296 34.438 21.115 65.001 29.648C84.391 201.231 67.467 196.433 52.952 182.397z" fill="#44643a" stroke-width="none" opacity="1" stroke="none"/>
          <path id="SvgjsPath39118" d="M148.378 180.795c-0.229-0.18-0.719-0.509-1.068-0.579 -0.62-0.14-2.07-0.019-2.2 0.031 -1.778 9.483-5.687 19.042-8.721 28.139 -27.713-6.149-62.451-12.981-82.68-27.851 -15.189 4.111-53.002-0.132-51.41 45.681 0 0.13 0.01 0.26 0.02 0.39 0 0 56.588 0.76 56.59 0.76 27.246 0.539 96.468-0.45 97.47-0.45 0-9.142-6.396-31.019-4.24-45.359C151.432 180.605 149.782 180.116 148.378 180.795zM155.811 226.476c-54.167-1.382-122.589-1.144-153.231-0.271 0.987-44.587 35.332-39.994 51.72-44.38 20.665 15.798 56.059 22.312 82 26.87 -1.166 3.355-2.854 8.168-4.6 11.87 4.504-7.593 12.158-29.512 13.76-39.7 1.52-0.324 2.495 0.128 2.74 0.49 -1.521 7.91-2.222 15.998-3.53 24.079 2.125-10.09 2.051-11.999 4.3-24.339 0.561-0.08 1.141-0.051 1.721 0.109 0.46 0.2 0.62 0.48 0.91 0.811C149.588 191.271 152.864 208.45 155.811 226.476z" fill="#0e2707" stroke-width="none" opacity="1" stroke="none"/>
        </g>
        <g id="svga-group-head" transform="matrix(1,0,0,1,0,0)">
          <g id="svga-group-ears-left-move" transform="matrix(1,0,0,1,0,0)" style="display: none;">
            <g id="svga-group-ears-left" transform="matrix(1,0,0,1,0,0)">
              <path id="SvgjsPath39111" d="M45.671 83.846c-1.485-2.408-6.327-8.995-10.031-8.071 -3.012 0.755-2.973 4.861-3.206 7.289 -0.34 3.563-0.464 9.771 0.525 12.29 0.951 2.418 3.96 7.092 5.828 8.874 2.299 2.185 5.97 9.15 6.422 9.872 0.711 1.142 2.137 2.776 4.325 2.647 3.071-0.181 5.724-3.018 5.965-4.386C56.8 104.941 49.536 90.11 45.671 83.846z" fill="#f3d4cf" stroke="#c5796d" stroke-width="1.5" opacity="1"/>
              <path id="SvgjsPath39112" d="M44.2 98.511c-0.143-0.55 0.007-1.479 0.154-2.375 0.133-0.817 0.258-1.588 0.182-2.134 -0.289-2.043-1.915-5.926-2.976-8.03 -1.223-2.421-3.199-5.471-5.679-6.257 -1.024-0.326-1.699 0.063-2.089 0.458 -0.288 0.29-0.353 0.63-0.259 0.671 0.095 0.04 0.307-0.242 0.617-0.508 0.254-0.217-0.508-0.039 0 0 -0.205 1.017-0.865 6.162-0.41 9.918 0.358 2.955 1.05 5.162 1.263 5.492 0.031 0.349 0.083 0.689 0.16 1.02 1.002 4.312 7.518 9.95 9.034 11.557 0.28 0.296 0.574 0.473 0.646 0.4 0.072-0.073-0.101-0.365-0.379-0.664 -1.498-1.595-7.971-7.214-8.939-11.375 -1.027-4.414 3.912-10.958 4.699-12.343 0.401 0.65 0.742 1.274 1.004 1.795 0.207 0.408 0.434 0.886 0.67 1.403 -0.463 0.721-5.118 5.992-3.934 10.21 0.438 1.556 3.822 3.561 5.131 4.11 0.72 0.303 0.99 0.754 1.304 1.277 0.364 0.608 0.033 2.179 1.23 2.677 0.244 0.103 0.464 0.144 0.659 0.144 0.338 0 0.594-0.127 0.783-0.278 0.02 0.266 0.019 0.605 0.009 0.921 -0.012 0.407 0.047 0.596 0.148 0.604 0.103 0.008 0.21-0.17 0.223-0.574 0.017-0.5 0.014-1.116-0.077-1.412 -0.269-0.868-1.088-1.851-1.957-2.89C44.563 101.304 44.422 99.364 44.2 98.511zM34.969 94.688c-2.348-6.77 1.283-12.936 1.81-13.865 1.012 0.39 2.562 2.145 3.221 3.163C39.52 84.802 35.067 90.135 34.969 94.688zM45.772 105.475c-1.084-0.451-0.706-1.939-1.056-2.525 -0.318-0.531-0.646-1.078-1.479-1.429 -0.18-0.076-0.379-0.191-0.583-0.325 -2.682-5.939 0.293-8.537 1.039-9.068 0.229 0.726 0.399 1.392 0.476 1.926 0.068 0.49-0.059 1.27-0.181 2.023 -0.153 0.934-0.31 1.901-0.147 2.526 0.244 0.931 0.411 2.904 1.291 3.958 0.781 0.935 1.583 1.899 1.857 2.685C46.871 105.403 46.5 105.778 45.772 105.475z" fill="#c5796d" stroke-width="none" opacity="1" stroke="none"/>
            </g>
          </g>
          <g id="svga-group-ears-right-move" transform="matrix(1,0,0,1,0,0)" style="display: none;">
            <g id="svga-group-ears-right" transform="matrix(1,0,0,1,0,0)">
              <path id="SvgjsPath39113" d="M154.066 83.846c1.486-2.408 6.328-8.995 10.031-8.071 3.012 0.755 2.973 4.861 3.207 7.289 0.34 3.563 0.463 9.771-0.525 12.29 -0.951 2.418-3.961 7.092-5.828 8.874 -2.299 2.185-5.971 9.15-6.422 9.872 -0.711 1.142-2.137 2.776-4.326 2.647 -3.07-0.181-5.723-3.018-5.965-4.386C142.938 104.941 150.203 90.11 154.066 83.846z" fill="#f3d4cf" stroke="#c5796d" stroke-width="1.5" opacity="1"/>
              <path id="SvgjsPath39114" d="M154.322 102.327c-0.869 1.039-1.688 2.022-1.957 2.89 -0.092 0.296-0.094 0.912-0.078 1.412 0.014 0.404 0.121 0.582 0.225 0.574 0.102-0.008 0.16-0.196 0.148-0.604 -0.01-0.315-0.012-0.655 0.008-0.921 0.189 0.151 0.445 0.278 0.783 0.278 0.195 0 0.416-0.041 0.66-0.144 1.195-0.498 0.865-2.068 1.229-2.677 0.314-0.523 0.584-0.975 1.305-1.277 1.309-0.549 4.693-2.554 5.131-4.11 1.184-4.218-3.471-9.489-3.934-10.21 0.234-0.517 0.463-0.995 0.668-1.403 0.264-0.521 0.604-1.145 1.006-1.795 0.787 1.384 5.725 7.929 4.699 12.343 -0.969 4.161-7.441 9.781-8.939 11.375 -0.279 0.299-0.453 0.591-0.381 0.664 0.074 0.072 0.367-0.104 0.646-0.4 1.516-1.606 8.031-7.245 9.033-11.557 0.078-0.33 0.131-0.671 0.162-1.02 0.211-0.331 0.904-2.537 1.262-5.492 0.455-3.756-0.205-8.901-0.41-9.918 0.508-0.039-0.254-0.217 0 0 0.311 0.266 0.523 0.548 0.617 0.508 0.094-0.041 0.029-0.381-0.258-0.671 -0.391-0.394-1.066-0.784-2.09-0.458 -2.48 0.786-4.457 3.836-5.68 6.257 -1.061 2.104-2.686 5.987-2.975 8.03 -0.076 0.546 0.049 1.317 0.182 2.134 0.146 0.896 0.297 1.824 0.154 2.375C155.316 99.364 155.176 101.304 154.322 102.327zM159.738 83.987c0.66-1.019 2.209-2.773 3.221-3.163 0.527 0.929 4.158 7.095 1.811 13.865C164.672 90.135 160.219 84.802 159.738 83.987zM152.75 105.246c0.273-0.785 1.076-1.75 1.857-2.685 0.879-1.053 1.047-3.026 1.291-3.958 0.162-0.625 0.006-1.592-0.146-2.526 -0.123-0.754-0.25-1.534-0.182-2.023 0.076-0.535 0.246-1.201 0.475-1.926 0.746 0.531 3.721 3.128 1.039 9.068 -0.203 0.133-0.402 0.249-0.584 0.325 -0.832 0.351-1.16 0.898-1.479 1.429 -0.35 0.586 0.029 2.074-1.055 2.525C153.238 105.778 152.867 105.403 152.75 105.246z" fill="#c5796d" stroke-width="none" opacity="1" stroke="none"/>
            </g>
          </g>
          <g id="svga-group-faceshape-wrap" transform="matrix(1,0,0,1,0,0)">
            <g id="svga-group-faceshape-single">
              <path id="SvgjsPath39126" d="M158.918 76.762l-0.005 0c-0.012 0.053-8.517 40.707-16.719 53.285 -6.452 9.894-30.366 29.938-42.04 29.956 -11.671 0.02-35.637-19.958-42.119-29.833C49.794 117.618 41.15 77 41.138 76.946h-0.001c-1.298-4.911-1.994-10.066-2.002-15.382C39.082 28.09 66.289 0.919 99.907 0.867c33.621-0.052 60.913 27.033 60.963 60.507C160.879 66.69 160.201 71.846 158.918 76.762z" fill="#f3d4cf" stroke-width="none" opacity="1" stroke="none"/>
              <path id="SvgjsPath39127" d="M125.898 6.622c19.104 10.248 32.075 30.355 32.039 53.476 -0.009 5.316-0.704 10.471-2.003 15.382h-0.001c-0.012 0.053-8.656 40.672-16.898 53.224 -5.946 9.061-26.755 29.522-39.033 29.522 -12.279 0-33.086-20.462-39.033-29.522 -8.242-12.552-16.887-53.17-16.898-53.224H44.07c-1.298-4.911-1.994-10.066-2.002-15.382C42.031 36.977 55.003 16.87 74.105 6.622 53.411 16.324 39.096 37.28 39.134 61.564c0.008 5.316 0.704 10.471 2.002 15.382h0.001C41.15 77 49.794 117.618 58.036 130.17c4.416 6.728 18.123 20.495 28.7 25.782 -0.529-0.226-1.062-0.466-1.599-0.717 5.408 2.875 10.664 4.763 14.713 4.768 0.049 0 0.103-0.005 0.152-0.005s0.103 0.005 0.152 0.005c4.048-0.005 9.304-1.893 14.713-4.768 -0.538 0.252-1.071 0.491-1.601 0.717 10.577-5.286 24.285-19.055 28.701-25.782 8.241-12.552 16.887-53.17 16.897-53.224h0.002c1.298-4.911 1.994-10.066 2.002-15.382C160.908 37.28 146.595 16.324 125.898 6.622z" fill="#ebc3bd" stroke-width="none" opacity="1" stroke="none"/>
              <path id="SvgjsPath39128" d="M158.918 76.762l-0.005 0c-0.012 0.053-8.517 40.707-16.719 53.285 -6.452 9.894-30.366 29.938-42.04 29.956 -11.671 0.02-35.637-19.958-42.119-29.833C49.794 117.618 41.15 77 41.138 76.946h-0.001c-1.298-4.911-1.994-10.066-2.002-15.382C39.082 28.09 66.289 0.919 99.907 0.867c33.621-0.052 60.913 27.033 60.963 60.507C160.879 66.69 160.201 71.846 158.918 76.762z" fill="none" stroke="#c5796d" stroke-width="1.5" opacity="1"/>
            </g>
          </g>
          <g id="svga-group-mouth-single-move" transform="matrix(1,0,0,1,0,0)">
            <g id="svga-group-mouth-single" transform="matrix(1,0,0,1,0,0)">
              <path id="SvgjsPath39103" d="M99.825 142.068c-3.24 0-4.753-2.802-4.753-2.802s4.797 0.781 9.279-0.064C104.352 139.202 102.675 142.068 99.825 142.068z" fill="url(#SvgjsLinearGradient39104)" opacity="1"/>
              <path id="SvgjsPath39107" d="M95.211 139.349c-0.132-0.039-0.23-0.149-0.208-0.285 0.021-0.137 0.151-0.224 0.286-0.209 3.612 0.857 5.963 0.661 8.766-0.043 0.145-0.035 0.27 0.062 0.297 0.195s-0.063 0.256-0.193 0.296C101.098 140.207 98.142 140.241 95.211 139.349zM85.447 132.958c0.313-0.144 0.582-0.086 1.073-0.115 1.419-0.249 3.128-0.323 4.54-0.611 1.348-0.274 2.774-0.662 4.158-0.597 1.488 0.071 2.879 0.669 4.353 0.829 1.401 0.151 2.708-0.229 4.053-0.557 1.542-0.376 3.01-0.287 4.56 0.006 1.938 0.363 3.774 0.857 5.689 1.038 0.582 0.055 0.365 0.413 0.032 0.454 -1.713 0.205-3.431-0.068-5.194-0.249 -1.425-0.146-2.868-0.329-4.274 0.021 -1.518 0.379-3.437 0.822-4.605 0.808 -1.3-0.017-2.521-0.538-3.784-0.807 -1.551-0.327-3.091-0.02-4.647 0.143 -1.938 0.201-3.672 0.34-5.579 0.047C85.312 133.29 85.306 133.023 85.447 132.958z" fill="#c5796d" stroke-width="none" opacity="1" stroke="none"/>
            </g>
          </g>
          <g id="svga-group-eyes-left-move" transform="matrix(1,0,0,1,0,0)">
            <g id="svga-group-eyes-left" transform="matrix(1,0,0,1,0,0)">
              <g id="svga-group-eyesback-left">
                <path id="SvgjsPath39031" d="M60.632 83.957c1.226-1.179 9.091-2.674 13.631-2.075 7.183 0.947 13 7.285 13 7.285s-4.836 3.083-13.61 3.56C67.873 93.042 62.061 89.309 60.632 83.957z" fill="url(#SvgjsRadialGradient39032)" opacity="1"/>
              </g>
              <g id="svga-group-eyesiriswrapper-left" transform="matrix(1,0,0,1,-1,0.25)">
                <g id="svga-group-eyesiriscontrol-left" transform="matrix(1,0,0,1,0,0)">
                  <g id="svga-group-eyesiris-left" transform="matrix(1,0,0,1,0,0)">
                    <path id="SvgjsPath39089" d="M83.199 89.25c-1.231 4.522-5.896 7.187-10.429 5.944 -4.528-1.241-7.203-5.918-5.97-10.442 1.23-4.526 5.905-7.19 10.434-5.947C81.761 80.045 84.433 84.723 83.199 89.25z" fill="#4d3623" stroke="#1f1105" stroke-width="0.5" opacity="1"/>
                    <path id="SvgjsPath39090" d="M82.994 87.526c-0.625 5.021-4.353 7.638-8.432 7.365 -3.765-0.253-7.131-3.031-7.443-7.828 1.302-0.374 3.031 0.234 4.549 0.002 -0.005 0.055-0.023 0.104-0.025 0.16 -0.12 1.842 1.357 3.446 3.299 3.577 1.946 0.13 3.62-1.263 3.74-3.104 0.013-0.24-0.002-0.476-0.038-0.702C79.997 87.2 81.648 86.999 82.994 87.526z" fill="#5c4633" stroke-width="none" opacity="1" stroke="none"/>
                    <path id="SvgjsPath39091" d="M76.229 84.164c-1.869-0.535-3.777 0.533-4.26 2.396 -0.483 1.853 0.642 3.793 2.51 4.329 1.873 0.537 3.781-0.532 4.266-2.386C79.23 86.639 78.101 84.7 76.229 84.164z" fill="#000000" stroke-width="none" opacity="0.9"/>
                    <path id="SvgjsPath39092" d="M76.229 84.164c-1.869-0.535-3.777 0.533-4.26 2.396 -0.483 1.853 0.642 3.793 2.51 4.329 1.873 0.537 3.781-0.532 4.266-2.386C79.23 86.639 78.101 84.7 76.229 84.164z" fill="none" stroke="#1f1105" stroke-width="0.75" opacity="1"/>
                    <path id="SvgjsPath39093" d="M70.977 92.181c-0.177 0.619-1.142 0.356-0.965-0.266 0.171-0.6 0.633-0.967 0.926-1.495 0.313-0.564 1.177-0.06 0.863 0.505C71.56 91.36 71.114 91.696 70.977 92.181L70.977 92.181zM72.516 91.194c-0.266 0.31-0.614 1.458-0.766 1.834 -0.241 0.598 0.727 0.856 0.965 0.266 0.082-0.205 0.362-1.223 0.508-1.393C73.64 91.415 72.936 90.704 72.516 91.194L72.516 91.194zM74.598 94.151c0.522-0.602 0.47-1.292 0.459-2.041 -0.01-0.644-1.01-0.645-1 0 0.006 0.415 0.13 0.992-0.166 1.334C73.47 93.929 74.175 94.639 74.598 94.151L74.598 94.151zM75.619 91.985c0.008 0.621 0.084 1.226 0.268 1.82 0.19 0.614 1.155 0.352 0.965-0.266 -0.159-0.513-0.226-1.019-0.232-1.555C76.611 91.341 75.611 91.34 75.619 91.985L75.619 91.985z" fill="#ffffff" stroke-width="none" opacity="0.5"/>
                    <path id="SvgjsPath39094" d="M80.946 85.543c-0.985 0.59-2.466 0.059-3.305-1.188 -0.838-1.248-0.713-2.739 0.273-3.328 0.984-0.593 2.467-0.061 3.301 1.187C82.053 83.462 81.932 84.952 80.946 85.543z" fill="#ffffff" stroke-width="none" opacity="0.8"/>
                  </g>
                </g>
              </g>
              <g id="svga-group-eyesfront-left">
                <path id="SvgjsPath39056" d="M55.332 88c0 13.808 8.06 24.999 18 24.999s18-11.191 18-24.999c0-13.809-8.06-25.001-18-25.001S55.332 74.191 55.332 88zM60.632 83.957c1.226-1.179 9.091-2.674 13.631-2.075 7.183 0.947 13 7.285 13 7.285s-4.836 3.083-13.61 3.56C67.873 93.042 62.061 89.309 60.632 83.957z" fill="#f3d4cf" stroke-width="none" opacity="1" stroke="none"/>
                <path id="SvgjsPath39057" d="M74.182 96.592c9.412 2.223 18.451-1.61 20.194-8.565 1.738-6.956-4.478-14.395-13.892-16.622 -9.414-2.224-18.453 1.609-20.195 8.565C58.55 86.927 64.765 94.365 74.182 96.592zM60.632 83.957c1.226-1.179 9.091-2.674 13.631-2.075 7.183 0.947 13 7.285 13 7.285s-4.836 3.083-13.61 3.56C67.873 93.042 62.061 89.309 60.632 83.957z" fill="url(#SvgjsRadialGradient39058)" opacity="1"/>
                <path id="SvgjsPath39062" d="M60.632 83.957c1.226-1.179 9.091-2.674 13.631-2.075 7.183 0.947 13 7.285 13 7.285s-4.836 3.083-13.61 3.56C67.873 93.042 62.061 89.309 60.632 83.957z" fill="url(#SvgjsRadialGradient39063)" opacity="1"/>
                <path id="SvgjsPath39066" d="M87.433 83.657c-6.502-4.251-4.054-3.09-16.23-6.703 3.344 0.5 9.572 2.066 11.707 3.32C84.073 80.928 86.433 82.783 87.433 83.657z" fill="#c5796d" stroke-width="none" opacity="1" stroke="none"/>
                <path id="SvgjsPath39067" d="M55.34 82.979c0 0 2.084 1.306 3.713 1.307 0.129 0.766 2.241 4.259 5.873 6.344 5.49 3.154 11.897 2.18 18.014 0.643 2.995-0.746 2.81-1.52 7.773-2.07 -3.897-1.57-3.485-2.497-8.891-5.423 2.468 0.471 5.783 2.315 5.783 2.315 -1.237-1.452-9.917-6.796-23.826-7.508 0 0 4.649 1.088 6.399 1.769 -8.05 1.097-10.242-0.113-10.669-0.435 0.357 0.302 1.188 1.24 3.004 1.852 -1.878 0.143-5.312-0.867-5.312-0.867s0.867 0.826 2.628 1.965C58.323 83.595 55.34 82.979 55.34 82.979zM60.632 84.074c1.226-1.137 9.091-2.58 13.631-2.001 7.183 0.913 13 7.026 13 7.026s-4.836 2.974-13.61 3.434C67.873 92.836 62.061 89.236 60.632 84.074z" fill="#131111" stroke-width="none" opacity="1" stroke="none"/>
              </g>
            </g>
          </g>
          <g id="svga-group-eyes-right-move" transform="matrix(1,0,0,1,0,0)">
            <g id="svga-group-eyes-right" transform="matrix(1,0,0,1,0,0)">
              <g id="svga-group-eyesback-right">
                <path id="SvgjsPath39039" d="M139.368 83.957c-1.226-1.179-9.091-2.674-13.631-2.075 -7.183 0.947-13 7.285-13 7.285s4.836 3.083 13.61 3.56C132.127 93.042 137.939 89.309 139.368 83.957z" fill="url(#SvgjsRadialGradient39040)" opacity="1"/>
              </g>
              <g id="svga-group-eyesiriswrapper-right" transform="matrix(1,0,0,1,1,0.25)">
                <g id="svga-group-eyesiriscontrol-right" transform="matrix(1,0,0,1,0,0)">
                  <g id="svga-group-eyesiris-right" transform="matrix(1,0,0,1,0,0)">
                    <path id="SvgjsPath39095" d="M133.199 89.25c-1.231 4.522-5.896 7.187-10.429 5.944 -4.528-1.241-7.203-5.918-5.97-10.442 1.23-4.526 5.905-7.19 10.434-5.947C131.761 80.045 134.433 84.723 133.199 89.25z" fill="#4d3623" stroke="#1f1105" stroke-width="0.5" opacity="1"/>
                    <path id="SvgjsPath39096" d="M132.994 87.526c-0.625 5.021-4.353 7.638-8.432 7.365 -3.765-0.253-7.131-3.031-7.443-7.828 1.302-0.374 3.031 0.234 4.549 0.002 -0.005 0.055-0.023 0.104-0.025 0.16 -0.12 1.842 1.357 3.446 3.299 3.577 1.946 0.13 3.62-1.263 3.74-3.104 0.013-0.24-0.002-0.476-0.038-0.702C129.997 87.2 131.648 86.999 132.994 87.526z" fill="#5c4633" stroke-width="none" opacity="1" stroke="none"/>
                    <path id="SvgjsPath39097" d="M126.229 84.164c-1.869-0.535-3.777 0.533-4.26 2.396 -0.483 1.853 0.642 3.793 2.51 4.329 1.873 0.537 3.781-0.532 4.266-2.386C129.23 86.639 128.101 84.7 126.229 84.164z" fill="#000000" stroke-width="none" opacity="0.9"/>
                    <path id="SvgjsPath39098" d="M126.229 84.164c-1.869-0.535-3.777 0.533-4.26 2.396 -0.483 1.853 0.642 3.793 2.51 4.329 1.873 0.537 3.781-0.532 4.266-2.386C129.23 86.639 128.101 84.7 126.229 84.164z" fill="none" stroke="#1f1105" stroke-width="0.75" opacity="1"/>
                    <path id="SvgjsPath39099" d="M120.977 92.181c-0.177 0.619-1.142 0.356-0.965-0.266 0.171-0.6 0.633-0.967 0.926-1.495 0.313-0.564 1.177-0.06 0.863 0.505C121.56 91.36 121.114 91.696 120.977 92.181L120.977 92.181zM122.516 91.194c-0.266 0.31-0.614 1.458-0.766 1.834 -0.241 0.598 0.727 0.856 0.965 0.266 0.082-0.205 0.362-1.223 0.508-1.393C123.64 91.415 122.936 90.704 122.516 91.194L122.516 91.194zM124.598 94.151c0.522-0.602 0.47-1.292 0.459-2.041 -0.01-0.644-1.01-0.645-1 0 0.006 0.415 0.13 0.992-0.166 1.334C123.47 93.929 124.175 94.639 124.598 94.151L124.598 94.151zM125.619 91.985c0.008 0.621 0.084 1.226 0.268 1.82 0.19 0.614 1.155 0.352 0.965-0.266 -0.159-0.513-0.226-1.019-0.232-1.555C126.611 91.341 125.611 91.34 125.619 91.985L125.619 91.985z" fill="#ffffff" stroke-width="none" opacity="0.5"/>
                    <path id="SvgjsPath39100" d="M130.946 85.543c-0.985 0.59-2.466 0.059-3.305-1.188 -0.839-1.248-0.714-2.739 0.272-3.328 0.984-0.593 2.467-0.061 3.301 1.187C132.054 83.462 131.932 84.952 130.946 85.543z" fill="#ffffff" stroke-width="none" opacity="0.8"/>
                  </g>
                </g>
              </g>
              <g id="svga-group-eyesfront-right">
                <path id="SvgjsPath39077" d="M126.668 62.999c-9.94 0-18 11.193-18 25.001 0 13.808 8.06 24.999 18 24.999s18-11.191 18-24.999C144.668 74.191 136.608 62.999 126.668 62.999zM126.348 92.727c-8.774-0.476-13.61-3.56-13.61-3.56s5.817-6.338 13-7.285c4.54-0.6 12.405 0.896 13.631 2.075C137.939 89.309 132.127 93.042 126.348 92.727z" fill="#f3d4cf" stroke-width="none" opacity="1" stroke="none"/>
                <path id="SvgjsPath39078" d="M139.711 79.971c-1.742-6.956-10.781-10.79-20.195-8.565 -9.414 2.227-15.63 9.666-13.892 16.622 1.743 6.955 10.782 10.788 20.194 8.565C135.235 94.365 141.45 86.927 139.711 79.971zM126.348 92.727c-8.774-0.476-13.61-3.56-13.61-3.56s5.817-6.338 13-7.285c4.54-0.6 12.405 0.896 13.631 2.075C137.939 89.309 132.127 93.042 126.348 92.727z" fill="url(#SvgjsRadialGradient39079)" opacity="1"/>
                <path id="SvgjsPath39083" d="M139.368 83.957c-1.226-1.179-9.091-2.674-13.631-2.075 -7.183 0.947-13 7.285-13 7.285s4.836 3.083 13.61 3.56C132.127 93.042 137.939 89.309 139.368 83.957z" fill="url(#SvgjsRadialGradient39084)" opacity="1"/>
                <path id="SvgjsPath39087" d="M112.567 83.657c6.502-4.251 4.054-3.09 16.23-6.703 -3.344 0.5-9.572 2.066-11.707 3.32C115.927 80.928 113.567 82.783 112.567 83.657z" fill="#c5796d" stroke-width="none" opacity="1" stroke="none"/>
                <path id="SvgjsPath39088" d="M140.17 82.871c1.761-1.139 2.628-1.965 2.628-1.965s-3.434 1.009-5.312 0.867c1.815-0.612 2.646-1.55 3.004-1.852 -0.427 0.321-2.619 1.531-10.669 0.435 1.75-0.681 6.399-1.769 6.399-1.769 -13.909 0.712-22.589 6.056-23.826 7.508 0 0 3.315-1.844 5.783-2.315 -5.405 2.926-4.993 3.854-8.891 5.423 4.964 0.551 4.778 1.325 7.773 2.07 6.116 1.537 12.523 2.511 18.014-0.643 3.632-2.085 5.744-5.579 5.873-6.344 1.629-0.001 3.713-1.307 3.713-1.307S141.677 83.595 140.17 82.871zM126.348 92.533c-8.774-0.459-13.61-3.434-13.61-3.434s5.817-6.113 13-7.026c4.54-0.579 12.405 0.864 13.631 2.001C137.939 89.236 132.127 92.836 126.348 92.533z" fill="#131111" stroke-width="none" opacity="1" stroke="none"/>
              </g>
            </g>
          </g>
          <g id="svga-group-facehighlight-single">
            <path id="SvgjsPath38840" d="M140.204 113.007c0.035 22.275-17.995 40.365-40.273 40.396 -22.274 0.036-40.361-17.993-40.396-40.272C59.501 90.857 77.53 72.77 99.808 72.735 122.083 72.701 140.171 90.73 140.204 113.007z" fill="url(#SvgjsRadialGradient38841)" opacity="1"/>
            <path id="SvgjsPath38844" d="M135,55.999c0,19.329-15.671,35-35,35c-19.329,0-35-15.671-35-35s15.671-35,35-35C119.329,20.999,135,36.67,135,55.999z" fill="url(#SvgjsRadialGradient38845)" opacity="1"/>
          </g>
          <g id="svga-group-eyebrows-left-move" transform="matrix(1,0,0,1,0,0)">
            <g id="svga-group-eyebrows-left-rotate" transform="matrix(1,0,0,1,0,0)">
              <g id="svga-group-eyebrows-left" transform="matrix(1,0,0,1,0,0)">
                <path id="SvgjsPath39101" d="M57.992 72.441c14.723-3.028 33.357 2.799 33.336-0.649 0-0.869-0.892-1.128-1.755-1.194C74.692 69.333 68.299 68.423 57.992 72.441z" fill="#504543" stroke-width="none" opacity="1" stroke="none"/>
              </g>
            </g>
          </g>
          <g id="svga-group-eyebrows-right-move" transform="matrix(1,0,0,1,0,0)">
            <g id="svga-group-eyebrows-right-rotate" transform="matrix(1,0,0,1,0,0)">
              <g id="svga-group-eyebrows-right" transform="matrix(1,0,0,1,0,0)">
                <path id="SvgjsPath39102" d="M142.008 72.441c-4.028-0.829-6.352-1.175-12.865-0.904 -7.413 0.219-20.486 2.799-20.471 0.254 0-0.869 0.892-1.128 1.755-1.194C125.38 69.328 131.708 68.426 142.008 72.441z" fill="#504543" stroke-width="none" opacity="1" stroke="none"/>
              </g>
            </g>
          </g>
          <g id="svga-group-nose-single-move" transform="matrix(1,0,0,1,0,0)">
            <g id="svga-group-nose-single" transform="matrix(1,0,0,1,0,0)">
              <path id="SvgjsPath39108" d="M94.803 91.719c0 0 0.661 2.089 0.679 2.718 0.032 1.07-0.102 1.907-0.191 2.729 -0.579 5.369-3.579 13.137-3.418 16.845 0.07 1.597 1.125 3.926 1.125 3.926s-2.537-0.654-3.094-5.178c-0.23-1.866 1.717-5.479 2.397-7.23 0.646-1.664 1.906-7.059 2.348-8.798 0.186-0.729 0.52-1.607 0.515-2.362C95.162 93.697 94.803 91.719 94.803 91.719zM94.514 118.386c0 0 0.3 2.483 3.237 3.092 2.758 0.57 4.305-2.242 4.305-2.242s-2.292 1.442-4.052 0.925C97.075 119.889 94.514 118.386 94.514 118.386zM105.082 113.04c-0.02 0.595-0.198 2.316-0.198 2.316s0.904-1.384 0.962-1.93c0.104-0.98-1.063-3.808-1.063-3.808S105.109 112.176 105.082 113.04z" fill="#e4b3ab" stroke-width="none" opacity="1" stroke="none"/>
              <path id="SvgjsPath39109" d="M92.489 108.932c-1.224 3.882-2.089 7.991 1.481 9.82 0.467 0.239 0.967 0.416 1.475 0.517 0.276 0.054 0.479 0.288 0.722 0.441 0.557 0.357 1.475 0.408 2.113 0.518 2.454 0.424 4.93-0.568 5.538-2.942 -1.527 2.045-2.878 2.609-4.955 2.446 -2.493-0.196-4.573-2.28-5.227-4.726 -0.389-1.454-0.54-2.916-0.424-4.433 0.108-1.302 0.487-2.593 0.707-3.883 0.412-2.326 1.408-7.191 1.401-9.62 -0.398 1.693-1.119 5.687-1.392 6.661 -0.204 0.726-0.635 2.199-0.811 2.933C92.978 107.253 92.667 108.364 92.489 108.932zM92.207 115.405c-0.163-1.144 0.045-2.348 0.294-3.457 0.088 2.204 0.708 4.771 2.122 6.399C93.401 117.86 92.414 116.852 92.207 115.405 92.061 114.382 92.458 117.163 92.207 115.405z" fill="#c5796d" stroke-width="none" opacity="1" stroke="none"/>
              <path id="SvgjsPath39110" d="M95.57 113.331c0.158 0.712 0.032 1.354-0.281 1.438 -0.313 0.082-0.634-0.351-0.792-1.063 -0.158-0.711-0.09-1.432 0.222-1.513C95.032 112.11 95.413 112.62 95.57 113.331z" fill="#ffffff" stroke-width="none" opacity="1" stroke="none"/>
            </g>
          </g>
          <g id="svga-group-hair-front" transform="matrix(1,0,0,1,0,0)">
            <path id="SvgjsPath39009" d="M47.869 62.985c3.513-27.218 48.858-44.766 54.189-42.089 3.002-1.44 59.328 41.036 59.561 62.839 0 0-22.007 19.356-22.043 12.485 -0.167-6.713-13.667-24.08-19.264-31.097 -5.428-6.805-11.027-15.225-14.647-23.392 -4.578 8.854-19.762 23.128-25.737 27.531C67.71 78.266 61 97.833 57.482 108.704c-0.619 1.911-4.764 11.061-5.409 13.031C47.527 110.639 44.016 90.357 47.869 62.985z" fill="#504543" stroke-width="none" opacity="0.1" stroke="none"/>
            <path id="SvgjsPath39010" d="M168.612 36.164c-11.808-25.213-46.156-48.481-67.878-36.371C56.411-23.993-12.496 66.971 47.647 132.54c0.04 0.039 0.068 0.08 0.106 0.117 6.074 6.596 13.227 12.621 20.452 17.504 -7.228-9.984-13.803-23.407-15.666-35.879 5.939-18.021 9.266-33.725 25.459-47.317 11.026-9.255 24.281-19.122 26.669-31.375 8.063 19.831 29.816 38.467 34.742 52.624 0.175 14.627-3.735 28.098-4.854 32.623 0.078-0.156 0.164-0.309 0.252-0.461 2.984-5.375 5.861-10.77 7.771-16.451 0.83 17.059-5.808 30.435-9.904 39.925 -0.024 0.074-0.057 0.152-0.096 0.229 0.096-0.055 0.184-0.117 0.277-0.174 10.322-6.818 20.082-19.361 26.105-31.27 -0.029 6.242-0.487 14.134-0.654 16.42 12.835-17.958 14.087-34.884 15.084-37.911 1.148 5.97 3.297 11.975 4.45 14.41C177.24 88.977 179.117 61.413 168.612 36.164z" fill="#504543" stroke-width="none" opacity="1" stroke="none"/>
            <path id="SvgjsPath39011" d="M51.208 109.438c0-6.093 5.659-15.235 9.328-19.373 -2.775 5.59-9.544 23.984-12.005 36.941 -10.121-26.649-12.492-60.43 1.831-85.612 -7.582 20.698-12.034 42.867-4.909 64.212 -0.282-10.386-3.378-28.761 11.511-52.691C52.404 70.117 49.348 88.952 51.208 109.438zM132.976 143.647c7.391-16.72 11.956-30.775 10.782-43.793 -2.152-25.444-27.056-37.068-38.985-64.839 0.318-1.777 0.471-3.621 0.444-5.539 9.521 17.034 19.978 32.215 32.325 47.389 8.24 11.171 9.617 24.143 9.675 37.368 8.372-21.988 6.938-47.563-1.999-68.982 10.55 22.035 11.512 45.986 7.673 69.938 9.591-21.079 15.347-44.071 9.591-67.063 7.674 15.328 6.716 32.574 4.798 49.817 4.887-15.444 4.245-31.577 4.527-47.23 4.599 17.244 5.055 34.973 5.669 53.032 -1.95-5.682-2.966-10.747-3.828-15.828 -0.933 7.967-8.212 29.021-13.68 36.627 0.328-4.131 1.277-12.111 0.624-15.301 7.063-15.559 9.48-33.147 4.829-48.237 5.855 21.703-3.052 49.26-18.405 68.239C140.26 137.597 132.976 143.647 132.976 143.647zM31.064 89.32c-6.8-45.275 9.097-58.79 13.522-70.31 -29.467 43.476-22.078 83.66 4.453 113.845 -4.957-12.771-8.754-27.238-9.195-40.821 -2.356-23.177 2.663-43.048 16.813-60.129C36.466 39.67 32.89 69.26 31.064 89.32zM61.507 71.393c0.009-0.046 0.054-0.11 0.073-0.151 6.306-13.188 36.734-34.118 34.307-50.216C95.953 36.276 64.273 57.929 61.507 71.393zM144.898 70.541c-6.164-26.016-21.354-29.824-28.256-47.629C121.069 39.346 141.615 56.636 144.898 70.541zM156.993 57.518c-0.429-1-2.813-44.361-41.932-52.052C147.991 14.834 155.178 53.282 156.993 57.518zM54.609 48.921c2.004-8.177 19.884-29.726 44.862-36.666C66.938 18.025 56.496 41.245 54.609 48.921z" fill="#413230" stroke-width="none" opacity="1" stroke="none"/>
            <path id="SvgjsPath39012" d="M139.866 89.507c1.416 4.177 2.241 8.354 2.585 12.531 -1.793 5.488-4.423 10.873-7.097 16.119C138.077 106.88 139.948 98.58 139.866 89.507zM66.029 147.937c-6.774-9.178-12.443-20.299-14.15-31.596 -1.161 3.689-2.178 7.482-3.069 11.373 -0.164 1-7.26-16.94-9.166-35.68 0.441 13.583 3.739 27.053 8.696 39.825C53.527 137.663 59.466 143.026 66.029 147.937z" fill="#31221f" stroke-width="none" opacity="1" stroke="none"/>
            <path id="SvgjsPath39013" d="M99.492 21.262c6.403 27.793-34.873 40.474-47.226 76.474C58.369 65.985 105.136 46.985 99.492 21.262zM61.565 55.39c7.799-16.374 20.656-28.475 35.459-38.564C80.005 25.778 68.787 37.707 61.565 55.39zM44.976 31.335C57.328 16.982 73.192 2.764 93.413 6.039 71.708-0.369 56.906 15.907 44.976 31.335zM144.42 40.044c-7.511-14.379-11.145-24.352-28.859-28.113C128.931 15.938 138.894 27.608 144.42 40.044zM160.831 41.313c-8.623-20.082-15.026-37.805-40.267-40.29C140.522 4.832 153.31 23.794 160.831 41.313zM148.999 87.979c-6.548-25.538-31.097-43.208-37.737-69.219C117.109 44.848 140.279 62.557 148.999 87.979z" fill="#5f5a59" stroke-width="none" opacity="1" stroke="none"/>
            <path id="SvgjsPath39014" d="M68.099 150.319c-0.357-0.24-0.713-0.482-1.071-0.742 -7.286-5.061-13.82-10.709-19.416-16.789l-0.105-0.117c-18.576-20.25-26.419-44.969-22.688-71.48C28.485 32.793 56.267-4.408 85.672-4.408c5.168 0 10.234 1.339 15.061 3.98 3.049-1.681 6.354-2.657 9.824-2.902 0.989-0.11 2.008-0.165 3.02-0.165 22.907 0 46.485 20.957 55.21 39.577 10.676 25.664 8.609 53.598 9.244 69.465 -1.773 0.431-4.38-14.611-4.7-13.611 -2.573 15.701-7.636 27.015-15.258 37.785 0.342-5.056 0.642-11.302 0.69-16.279 -5.813 11.226-16.08 24.686-26.651 31.145 0.644-1.295 5.088-11.688 6.555-15.709 2.759-8.625 3.989-16.467 3.762-23.93 -1.189 3.328-7.057 16.209-8.058 15.842 1.29-5.103 5.015-18.297 4.849-32.574 -2.741-7.384-12.181-19.162-16.715-24.847 -6.644-8.33-13.507-16.938-17.777-27.128 -2.516 11.593-15.759 20.462-25.535 29.844l-1.06 1.019C62.619 79.735 58.88 95.656 52.723 114.343c1.617 10.686 6.855 22.955 14.758 34.453l0.317 0.453c0.187 0.271 0.373 0.535 0.563 0.799L68.099 150.319zM85.601-3.042c-27.724 0-51.227 30.485-57.536 57.25 -8.282 38.193 6.515 69.453 37.047 92.8 -5.138-7.166-11.279-17.813-13.293-29.828 -1.255 4.081-2.127 7.559-2.953 11.145 -0.874-1.174-11.19-25.575-9.863-52.053 1.522-30.324 18.792-47.229 19.792-46.254C34.57 56.681 38.052 98.385 48.472 126.302c8.589-43.809 21.73-53.742 30.996-62.736 9.346-9.079 22.174-17.653 24.512-29.297 0.84-3.792 0.87-8.88-0.459-14.422 1-0.263 2.621 8.516 1.45 15.145 4.28 9.938 11.15 18.077 17.798 25.946 11.641 13.784 20.032 24.737 21.18 38.901 1.676 18.497-6.649 34.395-10.519 43.248 9.021-7.685 19.341-20.076 25.357-33.021 12.789-27.033 6.814-49.114 6.814-49.114 4.394 14.256 2.641 31.864-4.81 48.315 0.605 3.115-0.233 10.563-0.574 14.588 4.892-7.168 12.303-27.878 13.241-35.958 0.15-0.004 3.665 14.189 3.777 14.535 -0.797-25.368-1.724-48.296-12.615-70.531 -7.655-16.931-31.764-34.917-52.126-34.917 -5.002 0-10.735 1.879-15.997 6.018l-0.243-0.296c1.055-0.911 2.188-1.744 3.368-2.48C95.049-1.944 90.333-3.042 85.601-3.042zM136.789 112.726c-0.259 1.234-0.548 2.518-0.87 3.895 2.262-4.479 4.684-9.54 6.353-14.64 -0.331-3.818-1.073-7.623-2.217-11.269C139.975 98.485 138.447 105.874 136.789 112.726z" fill="#221512" stroke-width="none" opacity="1" stroke="none"/>
          </g>
          <g id="svga-group-glasses-single-move" transform="matrix(1,0,0,1,0,0)">
            <g id="svga-group-glasses-single" transform="matrix(1,0,0,1,0,0)">
              <path id="SvgjsPath38972" d="M100,18.13L100,18.13L100,18.13L100,18.13z" fill="#26120b" stroke-width="none" opacity="1"/>
            </g>
          </g>
        </g>
      </g>
    </g>
    <rect id="SvgjsRect38825" width="200" height="15" x="0" y="185" fill="#ecf0f1" opacity="0.5" style="display: none;"/>
    <text id="SvgjsText38826" font-family="Roboto, Helvetica, Arial, sans-serif" font-size="10px" text-anchor="start" font-weight="400" anchor="start" fill="#333333" x="58.03125" y="182.4296875" style="display: none;">
      <tspan id="SvgjsTspan38827" dy="13" x="58.03125">Created on face.co</tspan>
    </text>
  </g>
</svg>
