<?xml version="1.0"?>
<svg xmlns="http://www.w3.org/2000/svg" version="1.1" width="600px" height="600px" viewBox="0 0 200 200" style="overflow:hidden!important;">
  <defs id="SvgjsDefs221510">
    <radialGradient id="SvgjsRadialGradient221571" cx="100" cy="113" r="40" gradientUnits="userSpaceOnUse" class="svga-on-canvas-facehighlight-gradient-single-0">
      <stop id="SvgjsStop221572" stop-opacity="0.5" stop-color="#855844" offset="0"/>
      <stop id="SvgjsStop221573" stop-opacity="0" stop-color="#764630" offset="0.9"/>
    </radialGradient>
    <radialGradient id="SvgjsRadialGradient221575" cx="100" cy="57" r="36" gradientUnits="userSpaceOnUse" class="svga-on-canvas-facehighlight-gradient-single-1">
      <stop id="SvgjsStop221576" stop-opacity="0.5" stop-color="#855844" offset="0"/>
      <stop id="SvgjsStop221577" stop-opacity="0" stop-color="#764630" offset="0.9"/>
    </radialGradient>
    <radialGradient id="SvgjsRadialGradient221656" cx="-558.588" cy="-490.918" r="84.646" gradientTransform="matrix(0.096 -0.0248 0.0245 0.0961 140.5478 120.3577)" gradientUnits="userSpaceOnUse" class="svga-on-canvas-eyesiris-gradient-left-1">
      <stop id="SvgjsStop221657" stop-opacity="0.8" stop-color="#ffffff" offset="0"/>
      <stop id="SvgjsStop221658" stop-opacity="0" stop-color="#ffffff" offset="1"/>
    </radialGradient>
    <radialGradient id="SvgjsRadialGradient221660" cx="-565.337" cy="-492.691" r="84.644" gradientTransform="matrix(0.0991 8.856325e-004 -0.0011 0.0991 130.3774 136.3533)" gradientUnits="userSpaceOnUse" class="svga-on-canvas-eyesiris-gradient-left-2">
      <stop id="SvgjsStop221661" stop-opacity="0.8" stop-color="#ffffff" offset="0"/>
      <stop id="SvgjsStop221662" stop-opacity="0" stop-color="#ffffff" offset="1"/>
    </radialGradient>
    <linearGradient id="SvgjsLinearGradient221666" x1="122.283" y1="93.047" x2="123.61" y2="91.466" gradientTransform="matrix(1 0 0 1 -52 0)" gradientUnits="userSpaceOnUse" class="svga-on-canvas-eyesiris-gradient-left-5">
      <stop id="SvgjsStop221667" stop-opacity="1" stop-color="#ffffff" offset="0"/>
      <stop id="SvgjsStop221668" stop-opacity="0" stop-color="#ffffff" offset="1"/>
    </linearGradient>
    <linearGradient id="SvgjsLinearGradient221670" x1="127" y1="85" x2="125" y2="87" gradientTransform="matrix(1 0 0 1 -50 0)" gradientUnits="userSpaceOnUse" class="svga-on-canvas-eyesiris-gradient-left-6">
      <stop id="SvgjsStop221671" stop-opacity="1" stop-color="#ffffff" offset="0"/>
      <stop id="SvgjsStop221672" stop-opacity="0" stop-color="#ffffff" offset="1"/>
    </linearGradient>
    <linearGradient id="SvgjsLinearGradient221674" x1="130" y1="81" x2="126" y2="85" gradientTransform="matrix(1 0 0 1 -50 0)" gradientUnits="userSpaceOnUse" class="svga-on-canvas-eyesiris-gradient-left-7">
      <stop id="SvgjsStop221675" stop-opacity="1" stop-color="#ffffff" offset="0"/>
      <stop id="SvgjsStop221676" stop-opacity="0" stop-color="#ffffff" offset="1"/>
    </linearGradient>
    <radialGradient id="SvgjsRadialGradient221679" cx="-578.76" cy="-490.73" r="84.646" gradientTransform="matrix(0.096 -0.0248 0.0245 0.0961 192.4794 119.8404)" gradientUnits="userSpaceOnUse" class="svga-on-canvas-eyesiris-gradient-right-1">
      <stop id="SvgjsStop221680" stop-opacity="0.8" stop-color="#ffffff" offset="0"/>
      <stop id="SvgjsStop221681" stop-opacity="0" stop-color="#ffffff" offset="1"/>
    </radialGradient>
    <radialGradient id="SvgjsRadialGradient221683" cx="-584.778" cy="-487.329" r="84.644" gradientTransform="matrix(0.0991 8.856325e-004 -0.0011 0.0991 182.3104 135.839)" gradientUnits="userSpaceOnUse" class="svga-on-canvas-eyesiris-gradient-right-2">
      <stop id="SvgjsStop221684" stop-opacity="0.8" stop-color="#ffffff" offset="0"/>
      <stop id="SvgjsStop221685" stop-opacity="0" stop-color="#ffffff" offset="1"/>
    </radialGradient>
    <linearGradient id="SvgjsLinearGradient221689" x1="120.284" y1="93.047" x2="121.611" y2="91.467" gradientUnits="userSpaceOnUse" class="svga-on-canvas-eyesiris-gradient-right-5">
      <stop id="SvgjsStop221690" stop-opacity="1" stop-color="#ffffff" offset="0"/>
      <stop id="SvgjsStop221691" stop-opacity="0" stop-color="#ffffff" offset="1"/>
    </linearGradient>
    <linearGradient id="SvgjsLinearGradient221693" x1="127" y1="85" x2="125" y2="87" gradientUnits="userSpaceOnUse" class="svga-on-canvas-eyesiris-gradient-right-6">
      <stop id="SvgjsStop221694" stop-opacity="1" stop-color="#ffffff" offset="0"/>
      <stop id="SvgjsStop221695" stop-opacity="0" stop-color="#ffffff" offset="1"/>
    </linearGradient>
    <linearGradient id="SvgjsLinearGradient221697" x1="130" y1="81" x2="126" y2="85" gradientUnits="userSpaceOnUse" class="svga-on-canvas-eyesiris-gradient-right-7">
      <stop id="SvgjsStop221698" stop-opacity="1" stop-color="#ffffff" offset="0"/>
      <stop id="SvgjsStop221699" stop-opacity="0" stop-color="#ffffff" offset="1"/>
    </linearGradient>
    <radialGradient id="SvgjsRadialGradient221759" cx="125.675" cy="87.605" r="15.179" gradientTransform="matrix(-0.9148 0.0479 0.0523 0.9986 184.4314 -6.6017)" gradientUnits="userSpaceOnUse" class="svga-on-canvas-eyesback-gradient-left-0">
      <stop id="SvgjsStop221760" stop-opacity="1" stop-color="#ffffff" offset="0"/>
      <stop id="SvgjsStop221761" stop-opacity="1" stop-color="#fdfefe" offset="0.544"/>
      <stop id="SvgjsStop221762" stop-opacity="1" stop-color="#f6f8f9" offset="0.74"/>
      <stop id="SvgjsStop221763" stop-opacity="1" stop-color="#eaeff2" offset="0.879"/>
      <stop id="SvgjsStop221764" stop-opacity="1" stop-color="#d9e3e8" offset="0.992"/>
      <stop id="SvgjsStop221765" stop-opacity="1" stop-color="#d8e2e7" offset="1"/>
    </radialGradient>
    <radialGradient id="SvgjsRadialGradient221767" cx="125.674" cy="87.605" r="15.179" gradientTransform="matrix(0.9148 0.0479 -0.0523 0.9986 15.5691 -6.6017)" gradientUnits="userSpaceOnUse" class="svga-on-canvas-eyesback-gradient-right-0">
      <stop id="SvgjsStop221768" stop-opacity="1" stop-color="#ffffff" offset="0"/>
      <stop id="SvgjsStop221769" stop-opacity="1" stop-color="#fdfefe" offset="0.544"/>
      <stop id="SvgjsStop221770" stop-opacity="1" stop-color="#f6f8f9" offset="0.74"/>
      <stop id="SvgjsStop221771" stop-opacity="1" stop-color="#eaeff2" offset="0.879"/>
      <stop id="SvgjsStop221772" stop-opacity="1" stop-color="#d9e3e8" offset="0.992"/>
      <stop id="SvgjsStop221773" stop-opacity="1" stop-color="#d8e2e7" offset="1"/>
    </radialGradient>
    <radialGradient id="SvgjsRadialGradient221775" cx="125.675" cy="87.605" r="15.179" gradientTransform="matrix(-0.9148 0.0479 0.0523 0.9986 184.4314 -6.6017)" gradientUnits="userSpaceOnUse" class="svga-on-canvas-eyesfront-gradient-left-0">
      <stop id="SvgjsStop221776" stop-opacity="1" stop-color="#ffffff" offset="0"/>
      <stop id="SvgjsStop221777" stop-opacity="1" stop-color="#fdfefe" offset="0.544"/>
      <stop id="SvgjsStop221778" stop-opacity="1" stop-color="#f6f8f9" offset="0.74"/>
      <stop id="SvgjsStop221779" stop-opacity="1" stop-color="#eaeff2" offset="0.879"/>
      <stop id="SvgjsStop221780" stop-opacity="1" stop-color="#d9e3e8" offset="0.992"/>
      <stop id="SvgjsStop221781" stop-opacity="1" stop-color="#d8e2e7" offset="1"/>
    </radialGradient>
    <radialGradient id="SvgjsRadialGradient221785" cx="123.905" cy="84.411" fx="137.93" fy="82.292" r="18.705" gradientTransform="matrix(0.9998 0.0208 0.0166 -0.7998 -49.1889 149.3472)" gradientUnits="userSpaceOnUse" class="svga-on-canvas-eyesfront-gradient-left-3">
      <stop id="SvgjsStop221786" stop-opacity="1" stop-color="#673620" offset="0"/>
      <stop id="SvgjsStop221787" stop-opacity="0.3" stop-color="#673620" offset="0.7"/>
      <stop id="SvgjsStop221788" stop-opacity="0" stop-color="#764630" offset="1"/>
    </radialGradient>
    <radialGradient id="SvgjsRadialGradient221790" cx="69.404" cy="106.952" r="29.508" gradientTransform="matrix(1.0322 -0.0541 0.0541 1.0322 -5.8927 5.4187)" gradientUnits="userSpaceOnUse" class="svga-on-canvas-eyesfront-gradient-left-4">
      <stop id="SvgjsStop221791" stop-opacity="0" stop-color="#000000" offset="0.95"/>
      <stop id="SvgjsStop221792" stop-opacity="0.3" stop-color="#000000" offset="1"/>
    </radialGradient>
    <radialGradient id="SvgjsRadialGradient221796" cx="125.674" cy="87.605" r="15.179" gradientTransform="matrix(0.9148 0.0479 -0.0523 0.9986 15.5691 -6.6017)" gradientUnits="userSpaceOnUse" class="svga-on-canvas-eyesfront-gradient-right-0">
      <stop id="SvgjsStop221797" stop-opacity="1" stop-color="#ffffff" offset="0"/>
      <stop id="SvgjsStop221798" stop-opacity="1" stop-color="#fdfefe" offset="0.544"/>
      <stop id="SvgjsStop221799" stop-opacity="1" stop-color="#f6f8f9" offset="0.74"/>
      <stop id="SvgjsStop221800" stop-opacity="1" stop-color="#eaeff2" offset="0.879"/>
      <stop id="SvgjsStop221801" stop-opacity="1" stop-color="#d9e3e8" offset="0.992"/>
      <stop id="SvgjsStop221802" stop-opacity="1" stop-color="#d8e2e7" offset="1"/>
    </radialGradient>
    <radialGradient id="SvgjsRadialGradient221806" cx="123.905" cy="84.411" fx="137.93" fy="82.292" r="18.705" gradientTransform="matrix(-0.9998 0.0208 -0.0166 -0.7998 249.1889 149.3472)" gradientUnits="userSpaceOnUse" class="svga-on-canvas-eyesfront-gradient-right-3">
      <stop id="SvgjsStop221807" stop-opacity="1" stop-color="#673620" offset="0"/>
      <stop id="SvgjsStop221808" stop-opacity="0.3" stop-color="#673620" offset="0.7"/>
      <stop id="SvgjsStop221809" stop-opacity="0" stop-color="#764630" offset="1"/>
    </radialGradient>
    <radialGradient id="SvgjsRadialGradient221811" cx="69.404" cy="106.952" r="29.508" gradientTransform="matrix(-1.0322 -0.0541 -0.0541 1.0322 205.8927 5.4187)" gradientUnits="userSpaceOnUse" class="svga-on-canvas-eyesfront-gradient-right-4">
      <stop id="SvgjsStop221812" stop-opacity="0" stop-color="#000000" offset="0.95"/>
      <stop id="SvgjsStop221813" stop-opacity="0.3" stop-color="#000000" offset="1"/>
    </radialGradient>
    <linearGradient id="SvgjsLinearGradient221838" x1="100" y1="141" x2="100" y2="138" gradientUnits="userSpaceOnUse" class="svga-on-canvas-mouth-gradient-single-0">
      <stop id="SvgjsStop221839" stop-opacity="1" stop-color="#6e3e27" offset="0.1"/>
      <stop id="SvgjsStop221840" stop-opacity="1" stop-color="#673620" offset="1"/>
    </linearGradient>
    <linearGradient id="SvgjsLinearGradient221868" x1="99.98" y1="171.27" x2="99.98" y2="136.351" gradientUnits="userSpaceOnUse" class="svga-on-canvas-chinshadow-gradient-single-0">
      <stop id="SvgjsStop221869" stop-opacity="0.8" stop-color="#673620" offset="0"/>
      <stop id="SvgjsStop221870" stop-opacity="1" stop-color="#481c08" offset="0.7"/>
    </linearGradient>
  </defs>
  <g id="svga-group-wrapper">
    <g id="svga-group-backs-single">
      <path id="SvgjsPath221558" d="M225 225H-25V-25h250V225z" fill="#ecf0f1" stroke-width="none" opacity="1"/>
    </g>
    <g id="svga-group-humanwrap-move" transform="matrix(1,0,0,1,0,0)">
      <g id="svga-group-humanwrap" transform="matrix(1,0,0,1,0,0)">
        <g id="svga-group-hair-back-move" transform="matrix(1,0,0,1,0,0)">
          <g id="svga-group-hair-back" transform="matrix(1,0,0,1,0,0)">
            <path id="SvgjsPath221735" d="M100.5,100.5h-1v-1h1V100.5z" fill="#4e4341" stroke-width="none" opacity="1" stroke="none"/>
          </g>
        </g>
        <g id="svga-group-humanbody-single">
          <path id="SvgjsPath221578" d="M190.858 199.866c-6.008-10.158-13.474-11.973-19.628-13.936 -6.323-2.016-19.346-3.178-26.449-4.6 -6.86-1.373-23.153-5.789-23.339-13.488 -0.192-8.066 4.291-40.09 4.291-40.09H74.005c0 0 4.487 32.023 4.294 40.09 -0.184 7.699-16.48 12.115-23.341 13.488 -7.104 1.422-20.125 2.584-26.448 4.6 -6.156 1.963-13.624 3.777-19.632 13.936 -3.644 6.16-6.008 16.133-6.008 27.133h194C196.869 215.999 194.509 206.026 190.858 199.866z" fill="#764630" stroke-width="none" opacity="1" stroke="none"/>
          <path id="SvgjsPath221579" d="M121.442 167.843c2.495 10.929 18.165 13.698 26.293 15.325 21.909 4.379 33.772 5.134 42.297 19.539 2.903 4.916 5.459 15.864 5.962 24.153 1.835 0.291 0.531-17.432-5.136-26.994 -9.742-16.472-29.089-15.135-46.077-18.535C137.921 179.958 121.628 175.542 121.442 167.843L121.442 167.843zM78.558 167.843c-0.186 7.699-16.479 12.115-23.339 13.488 -16.988 3.4-36.335 2.063-46.077 18.535 -5.667 9.563-6.971 27.285-5.136 26.994 0.503-8.289 3.059-19.237 5.962-24.153 8.524-14.405 20.388-15.16 42.297-19.539C60.393 181.541 76.063 178.771 78.558 167.843L78.558 167.843z" fill="#855844" stroke-width="none" opacity="1" stroke="none"/>
          <path id="SvgjsPath221580" d="M51.206 189.513c0 0 28.641 0.299 33.473 1.885 2.314 0.758 8.372 5.633 8.372 5.633s-6.556-3.17-8.658-3.758C79.51 191.909 51.206 189.513 51.206 189.513zM99.795 199.999c2.053-0.041 7.887-3.799 7.887-3.799s-5.574 2.059-7.342 2.16c-1.491 0.086-6.366-1.238-6.366-1.238S98.112 200.032 99.795 199.999zM117.008 192.757c6.75-1.818 29.786-3.23 29.786-3.23s-23.791-0.516-30.51 1.725c-2.252 0.752-7.562 5.16-7.562 5.16S114.786 193.354 117.008 192.757z" fill="#673620" stroke-width="none" opacity="1" stroke="none"/>
          <path id="SvgjsPath221581" d="M190.858 199.866c-9.741-16.471-29.122-15.142-46.077-18.535 -6.86-1.373-23.153-5.789-23.339-13.488 -0.192-8.066 4.291-40.09 4.291-40.09H74.005c0 0 4.487 32.023 4.294 40.09 -0.184 7.699-16.48 12.115-23.341 13.488 -7.104 1.422-20.125 2.584-26.448 4.6 -6.156 1.963-13.624 3.777-19.632 13.936 -3.644 6.16-6.008 16.133-6.008 27.133h194C196.869 215.999 194.509 206.026 190.858 199.866z" fill="none" stroke="#481c08" stroke-width="1.5" opacity="1"/>
        </g>
        <g id="svga-group-chinshadow-single">
          <path id="SvgjsPath221867" d="M90.469 169.769c4.474 1.646 14.594 1.646 19.067 0 3.511-1.291 7.479-4.019 11.489-7.484 0.785-10.522 3.279-28.936 3.919-33.578 -1.113-0.109-2.256-0.21-3.428-0.303H78.609c-1.305 0.103-2.578 0.216-3.811 0.339 0.643 4.663 3.096 22.765 3.899 33.297C82.804 165.622 86.875 168.447 90.469 169.769z" fill="url(#SvgjsLinearGradient221868)" opacity="1"/>
        </g>
        <g id="svga-group-clothes-single">
          <path id="SvgjsPath221852" d="M4.299 238.659c-0.18-1-2.264-16.415-2.47-22.946 -0.294-9.499 1.371-23.079 10.881-22.987 10.824-7.524 29.089-14.021 41.718-17.795 7.903-8.587 9.483-11.971 22.612-17.874l-0.01-0.127c1.513 10.484 2.967 15.62-8.844 19.862 -1.893 2.63-3.665 5.194-6.158 8.787 3.793 20.511 4.981 34.739 5.444 53.437 0 0 3.771 0.011 65.288-0.271 2.066-21.594-0.221-33.876 4.806-53.726 0 0-4.021-4.846-6.726-8.573 -11.595-4.517-9.139-11.206-8.146-19.353 10.072 4.714 13.179 8.309 21.653 17.281 6.702 1.904 13.776 3.962 20.646 6.653 9.097 3.563 20.648 10.538 21.648 11.366 3.7-0.107 5.789 1.931 7.347 5.283 5.044 10.821 3.85 26.385 2.034 41.358C178.207 239.065 55.08 241.174 4.299 238.659z" fill="#152c5e" stroke-width="none" opacity="1" stroke="none"/>
          <path id="SvgjsPath221853" d="M77.464 159.895c0.149 1.034 0.284 2.015 0.383 2.938 -0.204 0.257-15.968 22.574-16.084 22.742C65.661 176.392 71.143 166.878 77.464 159.895zM122.424 159.895c-0.148 1.034-0.172 2.015-0.271 2.938 0.203 0.257 15.799 21.719 15.914 21.887C133.938 176.165 128.746 166.878 122.424 159.895zM158.775 189.93c-3.994 6.022-4.847 8.102-9.219 14.07 1 0 2.612 0.162 3.612 0.162C156.588 198.086 156.594 194.993 158.775 189.93zM162.868 233.644c3.54-8.603 6.471-16.152 10.022-24.768l-1.164-1.946C168.77 215.778 165.631 224.77 162.868 233.644zM46.831 204.162c1 0 2.612-0.162 3.612-0.162 -4.372-5.969-5.225-6.342-9.219-12.364C43.406 196.699 43.412 198.086 46.831 204.162zM28.273 206.93l-1.164 1.946c3.552 8.615 4.447 16.165 7.987 24.768C32.333 224.77 31.23 215.778 28.273 206.93z" fill="#0a1f4f" stroke-width="none" opacity="1" stroke="none"/>
          <path id="SvgjsPath221854" d="M77.059 169.855c-0.83 2.3-3.59 4.11-5.59 5.25 -0.97 0.55-1.99 1.02-3.02 1.46 0.47-0.68 0.95-1.36 1.44-2.03 2.32-3.24 4.58-6.5 6.75-9.85 0.31-0.48 0.61-0.97 0.91-1.46C77.709 165.396 77.889 167.875 77.059 169.855zM123.169 170.306c-1.26-2.11-1.14-4.94-1-7.351 2.3 4.101 4.72 8.11 7.45 11.971 0.28 0.399 0.56 0.79 0.85 1.18C127.549 174.795 124.829 173.096 123.169 170.306z" fill="#01153f" stroke-width="none" opacity="1" stroke="none"/>
          <path id="SvgjsPath221855" d="M122.672 157.263c0.007-0.057 0.015-0.112 0.021-0.169 16.884 9.666 24.725 22.013 36.082 32.836 -0.418 0.697-1.146 1.155-1.573 1.843C145.308 182.397 141.597 170.396 122.672 157.263zM75.469 157.905c-14.219 4.537-32.507 31.672-34.445 33.519 0.418 0.697 0.645 0.558 1.073 1.245C53.992 183.294 54.309 172.286 75.469 157.905zM193.988 197.678c-1.558-3.353-3.646-5.391-7.347-5.283 -1-0.828-12.552-7.804-21.648-11.366 -6.636-2.6-13.705-3.761-20.203-5.61 31.446 15.756 44.648 20.435 50.14 26.017C194.642 200.654 194.332 198.416 193.988 197.678zM10 198c14.511-7.683 26.714-13.407 44.203-23.001 -12.62 3.784-30.732 10.246-41.493 17.727 -7.185-0.069-9.89 7.664-10.658 15.546C5.147 202.205 6.798 200.401 10 198z" fill="#233b6d" stroke-width="none" opacity="1" stroke="none"/>
          <path id="SvgjsPath221856" d="M197.589 214.005c-0.21-5.52-1.16-11.329-3.51-16.369 -1.24-2.67-2.91-4.83-5.979-5.24 -0.36-0.05-0.721-0.08-1.08-0.09 -0.11-0.011-0.23-0.021-0.341-0.011 -0.069-0.06-0.149-0.1-0.22-0.149 -2.31-1.47-4.7-2.82-7.01-4.17 -4.66-2.721-9.39-5.07-14.42-7.04 -6.74-2.641-13.66-4.67-20.61-6.63 -0.79-0.83-1.59-1.67-2.38-2.511 -3.51-3.729-6.99-7.409-11.24-10.319 -2.3-1.58-4.75-2.92-7.27-4.101 -0.271-0.13-0.54-0.25-0.811-0.38 -0.029-0.02-0.069-0.029-0.109-0.05 -0.021 0.2-0.05 0.39-0.08 0.58 -0.2 1.33-0.42 2.67-0.58 4 -0.04 0.29-0.07 0.57-0.1 0.86 -0.011 0.149-0.03 0.29-0.04 0.439 -0.23 2.66-0.32 5.66 1.159 8 1.82 2.87 4.7 4.49 7.79 5.68 2.011 2.771 4.12 5.431 6.36 8.061 0.12 0.14 0.24 0.28 0.35 0.43 -0.939 3.71-1.59 7.51-2.17 11.28 -0.819 5.42-1.35 10.84-1.489 16.32 -0.15 5.449-0.011 10.939-0.311 16.39 -0.17 3.22-0.53 6.44-0.83 9.66 -1.069 0-2.14 0.01-3.21 0.01 -10.58 0.05-21.149 0.1-31.72 0.15 -10.06 0.05-20.11 0.08-30.17 0.109 -0.21-9.699-0.71-19.359-1.81-29.01 -0.58-5.01-1.06-10.04-1.95-15.01 -0.55-3.09-1.1-6.18-1.7-9.26 2.03-2.92 4.05-5.851 6.11-8.75 3.65-1.311 7.29-3.131 9.13-6.58 1.14-2.16 0.78-5.261 0.54-7.65 -0.01-0.1-0.02-0.189-0.03-0.29 -0.03-0.27-0.05-0.53-0.09-0.79 -0.15-1.359-0.36-2.72-0.55-4.07 -0.04-0.199-0.06-0.39-0.09-0.59 -0.05 0.021-0.09 0.04-0.13 0.051 -0.29 0.13-0.58 0.25-0.87 0.369 -2.75 1.17-5.42 2.521-7.9 4.181 -2.34 1.56-4.5 3.33-6.53 5.27 -1.99 1.91-3.76 4.09-5.6 6.141 -0.57 0.64-1.14 1.27-1.7 1.909 -1.31 0.391-2.61 0.801-3.91 1.2 -4.93 1.53-9.75 3.29-14.58 5.11 -2.61 0.99-5.18 2.07-7.75 3.16 -2.38 1.02-4.81 2.01-7.07 3.279 -2.51 1.4-5.09 2.86-7.56 4.48 -0.18 0.11-0.36 0.229-0.54 0.35 -0.11 0.07-0.21 0.141-0.31 0.21 -0.6-0.01-1.2 0.03-1.79 0.15 -3.79 0.729-6.07 4.16-7.31 7.55 -1.79 4.891-2.01 10.24-1.85 15.391 0.17 5.38 0.92 10.71 1.56 16.039 0.27 2.271 0.57 4.53 0.9 6.79 0 0.07 0.01 0.141 0.03 0.21 0.61 0.03 1.22 0.061 1.83 0.091 4.09 0.21 8.18 0.39 12.27 0.479 16.34 0.37 32.69 0.65 49.03 0.71 0.08 0 0.16 0 0.24 0 4.1 0.01 8.19 0.01 12.29-0.01 11.2-0.06 22.4-0.11 33.61-0.16 6.36-0.03 12.72-0.06 19.08-0.1 0.09 0 0.18 0 0.27-0.011 5.011-0.02 10.021-0.06 15.03-0.119 15.45-0.16 30.91-0.36 46.36-0.48 0.63-0.01 1.25-0.02 1.88-0.02 0.02-0.131 0.029-0.25 0.04-0.381 0.279-2.46 0.529-4.93 0.76-7.39C197.449 225.565 197.81 219.835 197.589 214.005zM77.059 169.855c-0.83 2.3-3.59 4.11-5.59 5.25 -0.97 0.55-1.99 1.02-3.02 1.46 0.47-0.68 0.95-1.36 1.44-2.03 2.32-3.24 4.58-6.5 6.75-9.85 0.31-0.48 0.61-0.97 0.91-1.46C77.709 165.396 77.889 167.875 77.059 169.855zM64.689 238.926c-12.94 0.029-25.88 0.06-38.82-0.011 -0.1 0-0.19 0-0.29 0 -6.52-0.04-13.03-0.16-19.55-0.319 -0.29-2.9-0.59-5.811-0.94-8.71 -0.69-5.681-1.44-11.36-1.4-17.101 0.03-5.2 0.18-11.33 3.06-15.859 1.11-1.75 2.74-2.95 4.65-3.421 0.54-0.14 1.11-0.22 1.7-0.22 0.01-0.01 0.01-0.01 0.02 0 0.31 2.05 0.66 4.09 1.01 6.141 0.36 2.159 0.64 4.34 1.22 6.449 0.62 2.19 1.25 4.38 1.95 6.551 1.3 4 2.59 8 3.85 12.02 1.26 4.06 3.14 7.86 4.73 11.79 -1.11-4.08-2.59-8.04-3.6-12.14 -0.99-3.98-2.25-7.83-3.53-11.721 -0.37-1.12-0.71-2.239-1.03-3.37 -0.94-3.229-1.72-6.47-2.45-9.77 -0.49-1.98-0.96-3.96-1.44-5.94 -0.03-0.119-0.06-0.229-0.09-0.35 0.12-0.06 0.24-0.12 0.35-0.18 0.28-0.15 0.56-0.29 0.83-0.431 2.67-1.39 5.35-2.76 8.08-4.02 4.87-2.23 9.93-4.21 14.94-6.11 5.05-1.91 10.08-3.859 15.1-5.85 -2.34 2.63-4.66 5.27-6.93 7.96 -1.78 2.11-3.35 4.35-4.84 6.64 -0.14 0.21-0.28 0.42-0.41 0.641 0.11 0.189 0.23 0.37 0.36 0.56 2.54 3.89 5.15 7.76 7.83 11.561 -2.62 0.22-5.24 0.47-7.85 0.789 -3.51 0.431-6.99 0.931-10.44 1.721 -0.73 0.17-1.46 0.33-2.2 0.479 -0.31 0.07-0.62 0.141-0.94 0.2 0.07 0.2 0.13 0.41 0.19 0.61 2.53 8.71 4.24 17.66 7.32 26.22 -0.87-5.3-1.74-10.57-2.98-15.8 -0.72-2.99-1.52-5.96-2.6-8.851 -0.21-0.58-0.45-1.149-0.7-1.72 0.7-0.1 1.4-0.22 2.1-0.35 3.52-0.63 7.04-1.2 10.59-1.63 2.64-0.32 5.26-0.71 7.88-1.141 0.39-0.06 0.78-0.12 1.17-0.189 -0.09-0.15-0.18-0.301-0.27-0.45 -1.07-1.82-2.21-3.601-3.41-5.36 -1.66-2.33-3.38-4.56-5.18-6.74 1.78-2.289 3.72-4.42 5.72-6.529 3.1-3.271 6.08-6.63 9.08-9.99 0.26-0.3 0.53-0.61 0.8-0.91 0.06-0.06 0.11-0.13 0.17-0.189 3.5-3.95 6.95-7.83 11.19-11.051 2.44-1.869 5.06-3.47 7.78-4.93 0.2-0.11 0.39-0.21 0.59-0.31 0.14 1.47 0.3 2.939 0.4 4.42 -2.85 4.09-5.75 8.149-8.67 12.21 -0.74 1.02-1.46 2.05-2.17 3.08 -0.04 0.05-0.08 0.109-0.12 0.16 -1.58 2.3-3.12 4.63-4.61 6.989 -0.13 0.21-0.26 0.41-0.39 0.62 0.05 0.42 0.09 0.83 0.14 1.24 0.97 9.04 1.84 18.09 2.86 27.13 0.95 8.49 1.65 17 2.7 25.47C66.359 238.926 65.529 238.926 64.689 238.926zM123.169 170.306c-1.26-2.11-1.14-4.94-1-7.351 2.3 4.101 4.72 8.11 7.45 11.971 0.28 0.399 0.56 0.79 0.85 1.18C127.549 174.795 124.829 173.096 123.169 170.306zM189.979 238.695c-5.431-0.03-10.87-0.06-16.301-0.08 -13.55-0.04-27.09-0.03-40.63 0.03 0.11-0.62 0.23-1.25 0.34-1.87 0.551-3.04 1.25-6.12 1.45-9.2 0.37-5.479 0.511-10.939 0.66-16.43 0.14-5.41 0.78-10.811 1.32-16.18 0.319-3.141 0.64-6.29 1.12-9.41 0.06-0.41 0.12-0.811 0.189-1.21 -0.1-0.15-0.21-0.29-0.319-0.44 -0.021-0.02-0.03-0.04-0.051-0.06 -1.71-2.23-3.46-4.42-5.149-6.66 -0.07-0.09-0.141-0.181-0.21-0.271 -0.65-0.859-1.29-1.729-1.91-2.609 -2.851-4.04-5.561-8.181-8.25-12.33 0.1-1.46 0.28-2.91 0.42-4.37 0.18 0.11 0.37 0.21 0.55 0.32 2.45 1.43 4.84 2.97 7.061 4.739 4.069 3.24 7.569 6.99 11.1 10.771 0.01 0.01 0.02 0.03 0.03 0.04 0.29 0.31 0.58 0.62 0.87 0.93 3.14 3.35 6.3 6.68 9.6 9.88 2 1.94 4.09 3.78 6.15 5.66 -0.36 0.44-0.71 0.88-1.061 1.33 -1.56 2.02-2.88 4.27-4.25 6.42 -1.189 1.96-2.32 3.94-3.39 5.96 -0.08 0.14-0.15 0.28-0.22 0.42 0.369 0.07 0.739 0.141 1.109 0.2 2.8 0.51 5.62 0.97 8.44 1.36 4.1 0.569 8.18 1.26 12.279 1.8 -0.229 0.43-0.439 0.859-0.649 1.29 -1.34 2.75-2.43 5.84-3.351 8.75 -1.699 5.359-3.06 10.72-4.06 16.26 1.01-2.63 1.94-5.28 2.87-7.93 0.99-2.84 1.8-5.761 2.83-8.59 1.16-3.211 2.29-6.431 3.41-9.65 0.069-0.19 0.13-0.37 0.199-0.561 -0.319-0.05-0.64-0.109-0.949-0.159 -4.15-0.75-8.29-1.521-12.471-2.11 -2.729-0.38-5.479-0.69-8.229-0.96 2.81-4.36 5.47-8.81 8.13-13.26 0.1-0.181 0.21-0.351 0.31-0.521 -0.159-0.2-0.33-0.39-0.51-0.58 -2.01-2.25-4.109-4.439-6.149-6.68 -2.16-2.38-4.37-4.72-6.591-7.05 6.46 2.38 12.95 4.66 19.381 7.109 4.77 1.82 9.3 4.23 13.85 6.54 2.03 1.021 4.11 2 6.16 3.04 0.24 0.11 0.479 0.23 0.71 0.351 0.149 0.08 0.29 0.149 0.43 0.229 -0.57 2.19-1.38 4.29-2.11 6.431 -1.05 3.08-1.88 6.22-2.779 9.35 -0.37 1.27-0.75 2.54-1.16 3.8 -1.37 4.17-2.66 8.32-3.73 12.59 -0.93 3.7-1.859 7.41-2.779 11.11 2.979-7.91 5.47-15.97 8.08-24.01 1.409-4.34 2.47-8.771 3.68-13.17 0.53-1.931 1.03-3.84 1.4-5.79 0.029-0.15 0.06-0.3 0.09-0.46 0.229 0.02 0.449 0.05 0.67 0.1 0.59 0.1 1.149 0.271 1.689 0.49 1.36 0.56 2.311 1.71 3.011 3.07 0.02 0.029 0.029 0.06 0.05 0.09 0.79 1.56 1.25 3.38 1.63 4.859 2.66 10.36 1.72 21.28 0.75 31.78 -0.17 1.85-0.33 3.69-0.48 5.54C192.839 238.716 191.409 238.705 189.979 238.695z" fill="#000f30" stroke-width="none" opacity="1" stroke="none"/>
        </g>
        <g id="svga-group-head" transform="matrix(1,0,0,1,0,0)">
          <g id="svga-group-ears-left-move" transform="matrix(1,0,0,1,0,0)">
            <g id="svga-group-ears-left" transform="matrix(1,0,0,1,0,0)">
              <path id="SvgjsPath221847" d="M47.34 82.049c-1.378-2.352-9.403-6.527-11.855-6.357 -4.229 0.292-5.137 5.152-5.446 7.479 -0.609 4.591 0.645 9.778 1.485 12.908 0.687 2.557 2.874 7.41 4.214 9.664 1.197 2.016 4.145 5.663 5.733 7.358 1.398 1.495 4.73 4.215 7.248 3.551 2.769-0.728 6.015-3.857 6.239-5.193C56.165 104.212 50.926 88.167 47.34 82.049z" fill="#764630" stroke="#481c08" stroke-width="1.5" opacity="1"/>
              <path id="SvgjsPath221848" d="M42.903 98.548c-0.142-0.572 0.007-1.535 0.151-2.465 0.131-0.848 0.255-1.648 0.18-2.214 -0.284-2.121-1.888-6.15-2.936-8.334 -1.206-2.511-3.157-5.674-5.602-6.492 -1.011-0.338-2.073-0.511-2.145-0.236 -0.611 1.9-0.563 7.178-0.212 11.086 0.987 10.992 10.375 18.911 11.872 20.578 0.276 0.308 0.566 0.49 0.637 0.416 0.072-0.074-0.1-0.379-0.375-0.688 -1.477-1.654-8.314-8.49-9.27-12.807 -1.012-4.581 3-12.111 3.776-13.548 0.397 0.675 0.732 1.322 0.991 1.862 0.204 0.424 0.429 0.92 0.66 1.456 -0.456 0.75-3.656 6.219-2.489 10.596 0.431 1.615 2.379 3.695 3.67 4.266 0.71 0.314 0.978 0.783 1.287 1.325 0.359 0.63 0.765 1.343 1.946 1.861 0.24 0.106 0.457 0.148 0.649 0.148 0.333 0 0.586-0.132 0.773-0.288 0.019 0.275-0.349 2.463-0.357 2.789 -0.012 0.421 0.045 0.77 0.146 0.778 0.101 0.008 0.207-0.327 0.221-0.749 0.016-0.518 0.379-2.992 0.289-3.297 -0.264-0.902-1.073-1.921-1.93-3C43.994 100.53 43.122 99.432 42.903 98.548zM34.428 94.672c-2.316-7.025 1.456-13.179 1.977-14.144 0.906 0.808 1.704 1.89 2.354 2.948C38.286 84.321 34.526 89.947 34.428 94.672zM45.187 104.856c-1.069-0.469-1.427-1.096-1.774-1.704 -0.313-0.549-0.637-1.118-1.458-1.481 -0.179-0.08-0.375-0.199-0.576-0.338 -2.646-6.164 0.289-8.857 1.025-9.411 0.226 0.754 0.394 1.445 0.468 2 0.067 0.509-0.058 1.317-0.179 2.1 -0.149 0.97-0.305 1.973-0.144 2.621 0.239 0.967 1.137 2.098 2.005 3.191 0.771 0.971 1.562 1.97 1.832 2.786C46.271 104.783 45.905 105.173 45.187 104.856z" fill="#481c08" stroke-width="none" opacity="1" stroke="none"/>
            </g>
          </g>
          <g id="svga-group-ears-right-move" transform="matrix(1,0,0,1,0,0)">
            <g id="svga-group-ears-right" transform="matrix(1,0,0,1,0,0)">
              <path id="SvgjsPath221849" d="M152.398 82.049c1.377-2.352 9.402-6.527 11.855-6.357 4.229 0.292 5.137 5.152 5.445 7.479 0.609 4.591-0.645 9.778-1.484 12.908 -0.688 2.557-2.875 7.41-4.215 9.664 -1.197 2.016-4.145 5.663-5.732 7.358 -1.398 1.495-4.73 4.215-7.248 3.551 -2.77-0.728-6.016-3.857-6.238-5.193C143.574 104.212 148.813 88.167 152.398 82.049z" fill="#764630" stroke="#481c08" stroke-width="1.5" opacity="1"/>
              <path id="SvgjsPath221850" d="M154.902 101.59c-0.855 1.08-1.666 2.098-1.93 3 -0.09 0.305 0.273 2.779 0.289 3.297 0.014 0.422 0.119 0.757 0.221 0.749 0.102-0.009 0.158-0.357 0.146-0.778 -0.01-0.326-0.377-2.514-0.357-2.789 0.188 0.156 0.439 0.288 0.771 0.288 0.193 0 0.41-0.042 0.65-0.148 1.182-0.518 1.588-1.23 1.945-1.861 0.311-0.542 0.578-1.011 1.287-1.325 1.291-0.571 3.24-2.651 3.67-4.266 1.168-4.376-2.031-9.846-2.488-10.596 0.23-0.536 0.457-1.032 0.66-1.456 0.26-0.54 0.594-1.188 0.99-1.862 0.777 1.437 4.789 8.967 3.777 13.548 -0.955 4.317-7.793 11.153-9.27 12.807 -0.275 0.31-0.447 0.614-0.375 0.688s0.361-0.108 0.637-0.416c1.498-1.667 10.885-9.585 11.873-20.578 0.35-3.908 0.396-9.187-0.213-11.086 -0.072-0.274-1.135-0.102-2.145 0.236 -2.445 0.817-4.396 3.98-5.604 6.492 -1.047 2.185-2.65 6.213-2.936 8.334 -0.076 0.566 0.049 1.366 0.18 2.214 0.145 0.93 0.293 1.893 0.15 2.465C156.617 99.432 155.744 100.53 154.902 101.59zM160.979 83.476c0.65-1.058 1.449-2.14 2.355-2.948 0.52 0.964 4.291 7.119 1.977 14.144C165.211 89.947 161.453 84.321 160.979 83.476zM153.352 104.62c0.271-0.815 1.063-1.814 1.832-2.786 0.869-1.093 1.766-2.224 2.006-3.191 0.16-0.648 0.006-1.651-0.145-2.621 -0.121-0.783-0.246-1.591-0.178-2.1 0.074-0.555 0.242-1.245 0.467-2 0.736 0.553 3.672 3.247 1.025 9.411 -0.201 0.139-0.396 0.258-0.576 0.338 -0.82 0.363-1.145 0.932-1.457 1.481 -0.348 0.608-0.705 1.235-1.775 1.704C153.834 105.173 153.467 104.783 153.352 104.62z" fill="#481c08" stroke-width="none" opacity="1" stroke="none"/>
            </g>
          </g>
          <g id="svga-group-faceshape-wrap" transform="matrix(1,0,0,1,0,0)">
            <g id="svga-group-faceshape-single">
              <path id="SvgjsPath221864" d="M144.004 125.052c-6.87 10.737-23.072 30.026-34.468 34.218 -4.474 1.646-14.594 1.646-19.067 0 -11.396-4.192-27.596-23.481-34.467-34.218 -6.753-10.551-14.852-47.803-14.863-47.856 -1.3-4.912-1.996-10.066-2.004-15.382C39.082 28.339 66.289 1.168 99.907 1.116c33.621-0.052 60.913 27.032 60.963 60.506 0.009 5.316-0.669 10.473-1.952 15.389C158.901 77.063 150.78 114.46 144.004 125.052z" fill="#764630" stroke-width="none" opacity="1" stroke="none"/>
              <path id="SvgjsPath221865" d="M110.152 1.969c26.994 6.24 47.097 30.337 47.052 59.111 -0.009 5.315-0.704 10.471-2.004 15.382 -0.012 0.053-7.377 37.307-14.13 47.856 -6.872 10.735-22.339 29.292-33.734 33.484 -1.476 0.544-5.027 1.092-7.334 1.092 -2.307 0-5.857-0.548-7.333-1.092 -11.396-4.192-26.863-22.749-33.734-33.484 -6.753-10.55-14.119-47.803-14.13-47.856 -1.3-4.911-1.996-10.066-2.004-15.382C42.756 32.307 62.857 8.209 89.853 1.969 61.03 6.788 39.087 31.751 39.134 61.813c0.008 5.315 0.704 10.47 2.004 15.382 0.012 0.053 8.11 37.306 14.863 47.856 6.871 10.736 23.072 30.025 34.467 34.218 2.239 0.824 5.889 1.235 9.537 1.232 3.646 0.001 7.292-0.408 9.53-1.232 11.396-4.192 27.596-23.481 34.468-34.218 6.753-10.551 14.852-47.803 14.862-47.856 1.3-4.912 1.996-10.066 2.004-15.382C160.918 31.751 138.975 6.788 110.152 1.969z" fill="#6e3e27" stroke-width="none" opacity="1" stroke="none"/>
              <path id="SvgjsPath221866" d="M144.004 125.052c-6.87 10.737-23.072 30.026-34.468 34.218 -4.474 1.646-14.594 1.646-19.067 0 -11.396-4.192-27.596-23.481-34.467-34.218 -6.753-10.551-14.852-47.803-14.863-47.856 -1.3-4.912-1.996-10.066-2.004-15.382C39.082 28.339 66.289 1.168 99.907 1.116c33.621-0.052 60.913 27.032 60.963 60.506 0.009 5.316-0.669 10.473-1.952 15.389C158.901 77.063 150.78 114.46 144.004 125.052z" fill="none" stroke="#481c08" stroke-width="1.5" opacity="1"/>
            </g>
          </g>
          <g id="svga-group-mouth-single-move" transform="matrix(1,0,0,1,0,0)">
            <g id="svga-group-mouth-single" transform="matrix(1,0,0,1,0,0)">
              <path id="SvgjsPath221837" d="M100.091 139.322c-4.952 0-6.142-3.033-6.142-3.033 6.246 2.316 11.836-0.124 11.836-0.124S104.446 139.322 100.091 139.322z" fill="url(#SvgjsLinearGradient221838)" opacity="1"/>
              <path id="SvgjsPath221841" d="M85.595 129.671c2.677-0.132 7.545-1.077 10.096-0.988 1.319 0.046 2.63 0.953 4.007 1.242 0.958 0.202 3.935-1.1 4.915-1.162 2.572-0.162 7.409 0.744 9.771 0.92 0.13 0.011 0 0 0 0s-5.776 7.727-14.463 7.725C90.09 137.406 85.595 129.671 85.595 129.671S85.463 129.678 85.595 129.671z" fill="#f771a9" stroke="#e85391" stroke-width="0.75" opacity="1"/>
              <path id="SvgjsPath221842" d="M114.739 129.405c-0.045-0.131-0.461-0.189-0.624-0.139 -0.3 0.094-0.663 0.521-1.313 0.686 -0.748 0.191-5.021 1.431-6.193 1.49 -2.365 0.118-4.438 0.943-6.76 0.938 -2.323-0.005-4.34-0.929-6.716-1.058 -1.18-0.065-5.194-1.216-5.947-1.4 -0.65-0.16-0.89-0.574-1.162-0.686 -0.189-0.077-0.652-0.02-0.743 0.105 -0.079 0.107 0.088 0.609 0.2 0.75 0.271 0.336 1.103 0.506 1.667 0.647 0.779 0.199 4.759 1.366 5.949 1.433 2.305 0.13 4.308 1.125 6.612 1.127 2.306 0.003 4.405-0.904 6.729-1.022 1.195-0.062 5.53-1.313 6.332-1.513 0.58-0.146 1.388-0.399 1.672-0.68C114.58 129.95 114.785 129.538 114.739 129.405z" fill="#c92066" stroke-width="none" opacity="1" stroke="none"/>
              <path id="SvgjsPath221843" d="M99.799 136.138c-3.914 0-7.707-1.246-10.289-3.693 1.36 0.19 2.83 0.207 4.269 0.403 1.773 0.242 3.429 0.921 5.248 1.034 1.968 0.125 3.916-0.495 5.886-0.841 1.644-0.289 4.21-1.067 5.742-1.302C107.729 133.982 103.577 136.138 99.799 136.138zM105.256 131.043c1.49-0.149 3.855-0.879 5.226-1.04 -1.406-0.413-3.829-0.279-5.576-0.441 -1.506-0.139-3.244 0.861-4.817 1.016 -1.774 0.175-2.94-1.233-4.607-1.369 -1.809-0.147-3.787 0.559-5.336 0.915 1.387 0.188 2.877 0.239 4.309 0.517 1.753 0.341 3.405 0.992 5.223 1.054C101.537 131.757 103.419 131.226 105.256 131.043z" fill="#ff8ebd" stroke-width="none" opacity="1" stroke="none"/>
              <path id="SvgjsPath221844" d="M105.695 133.406c-0.308 0.01-0.625 0.025-0.93 0.051 -0.351 0.028-0.668 0.069-0.961 0.123 -0.538 0.099-1.074 0.233-1.638 0.369 -0.888 0.216-1.726 0.392-2.662 0.391 -0.15 0-0.301-0.007-0.452-0.017 -0.764-0.055-1.521-0.217-2.191-0.412 -0.693-0.204-1.353-0.401-2.019-0.492 -0.128-0.017-0.259-0.029-0.387-0.042 -0.409-0.036-0.836-0.052-1.255-0.063 1.734 1.396 4.128 2.038 6.468 2.041C102.079 135.356 103.946 134.512 105.695 133.406z" fill="#ffa8cc" stroke-width="none" opacity="1" stroke="none"/>
            </g>
          </g>
          <g id="svga-group-eyes-left-move" transform="matrix(1,0,0,1,0,0)">
            <g id="svga-group-eyes-left" transform="matrix(1,0,0,1,0,0)">
              <g id="svga-group-eyesback-left">
                <path id="SvgjsPath221758" d="M60.986 83.262c0.405-0.904 2.145-2.183 5.923-3.078 1.724-0.409 4.107-0.321 6.578-0.143 5.98 0.429 11.736 4.248 13.547 7.316 0.004 0 0.008 0 0.012 0 0.351 0.611 0.565 1.192 0.585 1.702 0.041 1.082-0.444 1.94-1.316 2.623 0.001-0.001 0.002-0.002 0.003-0.004 -2.256 1.847-8.541 2.244-12.319 2.213 -7.52-0.063-9.723-2.969-9.723-2.969 -0.938-1.243-2.008-2.639-2.695-4.086 0.018 0.023 0.028 0.036 0.028 0.036 -0.715-1.591-0.636-2.143-0.719-3.156C60.904 83.566 60.938 83.414 60.986 83.262z" fill="url(#SvgjsRadialGradient221759)" opacity="1"/>
              </g>
              <g id="svga-group-eyesiriswrapper-left" transform="matrix(1,0,0,1,-0.75,0.25)">
                <g id="svga-group-eyesiriscontrol-left" transform="matrix(1,0,0,1,0,0)">
                  <g id="svga-group-eyesiris-left" transform="matrix(1,0,0,1,0,0)">
                    <path id="SvgjsPath221816" d="M83.5 87.001c0 4.693-3.806 8.498-8.5 8.498s-8.5-3.805-8.5-8.498c0-4.697 3.806-8.502 8.5-8.502S83.5 82.304 83.5 87.001z" fill="#ea02f5" stroke="#be00c7" stroke-width="0.5" opacity="1"/>
                    <path id="SvgjsPath221817" d="M70.058 90.974c1.241-0.103 0.142-0.434 0.142-0.434 -0.613-0.331-1.768-0.839-1.768-1.306 0-1.461 2.002-1.839-0.048-2.416 -2.13-1.955 1.653-1.914 1.625-1.98 -1.381-3.366 0.423-1.518 1.183-2.512 2.816-3.682 0.785 0.378 2.314 0 0.554-0.136-1.105-2.169 0.048-1.884 0.763 0.187 0.937 0.821 0.937 0.821 0.557-0.109 1.428-0.966 1.428-0.966 1.061 0.32 1.806 1.827 1.478 1.545 0.522-0.063 1.252-0.313 1.822-0.483 0 0 0.1-0.338 0.196-0.047 1.3 3.77 4.652 3.5 0.792 4.589 0 0-0.249 0 0.542 0.627 3.839 3.066-2.978 2.117 0.638 3.527 0.147-0.146-2.167 1.368-2.167 1.787 0 0.71-1.477 2.576-2.757 1.841 -0.714-0.408-0.823 0.85-1.243 0.269 -0.823-1.138-2.467-0.049-1.859-1.095 0.898-0.737-0.926 0.289-1.28 0.289 -1.172 0 1.534-3.942 5.516-1.013 1.165 0.853-1.224-2.03 0.886-2.03 0.211 0.069 0.148-0.739 0.148-0.966 -1.098-0.215 1.969-0.005 1.969-1.788 0.193 0.039 0.721-0.495-2.316 0 0 0-0.097-1.063-0.048-1.256 0.156-0.62 1.72-0.422 1.28-1.063 -0.001-0.001-1.132-2.272-1.132-2.272 -3.645-0.586-1.562-0.952-3.841-0.483 -0.108 0.535-4.881 2.811-4.729 3.866 0.142 0.995 2.997 1.328 0.295 3.091C74.157 96.989 67.118 89.06 70.058 90.974z" fill="#f51cff" stroke-width="none" opacity="1" stroke="none"/>
                    <path id="SvgjsPath221818" d="M75,79.562l0.243,6.223l2.603-5.656l-2.158,5.84l4.572-4.229l-4.229,4.57l5.842-2.157l-5.655,2.604l6.222,0.242l-6.222,0.242l5.655,2.604l-5.842-2.157l4.229,4.57l-4.572-4.229l2.158,5.84l-2.603-5.656L75,94.437l-0.243-6.223l-2.604,5.656l2.156-5.84l-4.57,4.229l4.229-4.57l-5.842,2.157l5.655-2.604l-6.219-0.242l6.219-0.242l-5.655-2.604l5.842,2.157l-4.229-4.57l4.57,4.229l-2.156-5.84l2.604,5.656L75,79.562z" fill="#ea02f5" stroke="#db00e6" stroke-width="0.5" opacity="1"/>
                    <path id="SvgjsPath221819" d="M76.128,81.428l-0.764,4.697l2.808-3.841l-2.501,4.047l4.065-2.476l-3.859,2.783l4.702-0.73l-4.632,1.092l4.626,1.125l-4.699-0.762l3.842,2.808l-4.05-2.5l2.476,4.064l-2.783-3.86l0.73,4.702l-1.092-4.632l-1.126,4.625l0.764-4.697l-2.811,3.841l2.504-4.048l-4.064,2.476l3.86-2.783l-4.702,0.73l4.631-1.093l-4.625-1.125l4.697,0.761l-3.842-2.808l4.05,2.5l-2.475-4.064l2.782,3.86l-0.73-4.701l1.095,4.632L76.128,81.428z" fill="#ea02f5" stroke="#cd00d6" stroke-width="0.5" opacity="1"/>
                    <path id="SvgjsPath221820" d="M78.188 87c0 1.761-1.428 3.187-3.188 3.187S71.813 88.76 71.813 87c0-1.76 1.428-3.188 3.188-3.188S78.188 85.239 78.188 87z" fill="#000000" stroke-width="none" opacity="0.9"/>
                    <path id="SvgjsPath221821" d="M71.653 93.108c-0.469 0.469-1.396 0.304-2.069-0.37 -0.674-0.673-0.84-1.6-0.37-2.069 0.469-0.469 1.396-0.304 2.069 0.37S72.123 92.638 71.653 93.108z" fill="#ffffff" stroke-width="none" opacity="0.7"/>
                    <path id="SvgjsPath221822" d="M81.809 85.326c-0.702 0.703-2.404 0.142-3.8-1.255 -1.396-1.396-1.958-3.097-1.255-3.8 0.703-0.703 2.404-0.142 3.8 1.255C81.95 82.922 82.511 84.624 81.809 85.326z" fill="#ffffff" stroke-width="none" opacity="0.9"/>
                  </g>
                </g>
              </g>
              <g id="svga-group-eyesfront-left">
                <path id="SvgjsPath221783" d="M56 88c0 13.808 8.06 24.999 18 24.999S92 101.808 92 88c0-13.809-8.06-25.001-18-25.001S56 74.191 56 88zM61.58 86.836c0.018 0.023 0.028 0.036 0.028 0.036 -0.715-1.591-0.636-2.143-0.719-3.156 0.015-0.149 0.048-0.301 0.097-0.454 0.405-0.904 2.145-2.183 5.923-3.078 1.724-0.409 4.107-0.321 6.578-0.143 5.98 0.429 11.736 4.248 13.547 7.316 0.004 0 0.008 0 0.012 0 0.351 0.611 0.565 1.192 0.585 1.702 0.041 1.082-0.444 1.94-1.316 2.623 0.001-0.001 0.002-0.002 0.003-0.004 -2.256 1.847-8.541 2.244-12.319 2.213 -7.52-0.063-9.723-2.969-9.723-2.969C63.337 89.679 62.268 88.283 61.58 86.836z" fill="#764630" stroke-width="none" opacity="1" stroke="none"/>
                <path id="SvgjsPath221784" d="M57.143 85.081c0.027 8.284 8.484 14.962 18.902 14.919 10.414-0.047 18.836-6.796 18.813-15.08C94.83 76.635 86.371 69.957 75.955 70 65.539 70.047 57.119 76.796 57.143 85.081zM61.608 86.872c-0.715-1.591-0.636-2.143-0.719-3.156 0.015-0.149 0.048-0.301 0.097-0.454 0.405-0.904 2.145-2.183 5.923-3.078 1.724-0.409 4.107-0.321 6.578-0.143 5.98 0.429 11.736 4.248 13.547 7.316 0.004 0 0.008 0 0.012 0 0.351 0.611 0.565 1.192 0.585 1.702 0.041 1.082-0.444 1.94-1.316 2.623 0.001-0.001 0.002-0.002 0.003-0.004 -2.256 1.847-8.541 2.244-12.319 2.213 -7.52-0.063-9.723-2.969-9.723-2.969 -0.938-1.243-2.008-2.639-2.695-4.086C61.598 86.859 61.608 86.872 61.608 86.872z" fill="url(#SvgjsRadialGradient221785)" opacity="1"/>
                <path id="SvgjsPath221789" d="M64.275 90.922c-0.938-1.243-2.008-2.639-2.695-4.086 0.018 0.023 0.028 0.036 0.028 0.036 -0.715-1.591-0.636-2.143-0.719-3.156 0.015-0.149 0.048-0.301 0.097-0.454 0.405-0.904 2.145-2.183 5.923-3.078 1.724-0.409 4.107-0.321 6.578-0.143 5.98 0.429 11.736 4.248 13.547 7.316 0.004 0 0.008 0 0.012 0 0.351 0.611 0.565 1.192 0.585 1.702 0.041 1.082-0.444 1.94-1.316 2.623 0.001-0.001 0.002-0.002 0.003-0.004 -2.256 1.847-8.541 2.244-12.319 2.213C66.479 93.828 64.275 90.922 64.275 90.922z" fill="url(#SvgjsRadialGradient221790)" opacity="1"/>
                <path id="SvgjsPath221793" d="M88.256 84.111c-6.821-5.453-10.878-7.558-19.341-7.756 5.832-0.553 11.102 1.27 14.204 3.22C84.57 80.487 87.256 83.237 88.256 84.111z" fill="#481c08" stroke-width="none" opacity="1" stroke="none"/>
                <path id="SvgjsPath221794" d="M73.998 93.782c3.778 0.031 10.063-0.36 12.319-2.179 -3.322 2.549-8.594 2.881-11.579 2.931 -1.947 0.032-5.992-0.08-7.732-0.953 -0.844-0.423-2.398-1.754-2.73-2.721C64.275 90.86 66.479 93.721 73.998 93.782zM60.151 79.638c-2.637 0.1-4.002-0.024-4.002-0.024 1.445 1.008 1.701 1.207 2.362 2.363 1.348 2.355 3.097 4.895 3.097 4.895 -0.715-1.567-0.636-2.11-0.719-3.107 -0.071-0.864 1.554-2.436 6.02-3.477 1.724-0.402 4.107-0.315 6.578-0.141 5.98 0.423 11.736 4.183 13.547 7.204 0.27-0.012 0.587-0.017 0.693-0.13 0.106-0.114 0.056-0.489-0.021-0.626 -2.488-4.434-11.123-9.373-18.236-9C64.524 77.854 61.992 79.568 60.151 79.638z" fill="#d6f7f4" stroke-width="none" opacity="1" stroke="none"/>
              </g>
            </g>
          </g>
          <g id="svga-group-eyes-right-move" transform="matrix(1,0,0,1,0,0)">
            <g id="svga-group-eyes-right" transform="matrix(1,0,0,1,0,0)">
              <g id="svga-group-eyesback-right">
                <path id="SvgjsPath221766" d="M139.014 83.262c-0.405-0.904-2.145-2.183-5.923-3.078 -1.724-0.409-4.107-0.321-6.578-0.143 -5.98 0.429-11.736 4.248-13.547 7.316 -0.004 0-0.008 0-0.012 0 -0.351 0.611-0.565 1.192-0.585 1.702 -0.041 1.082 0.444 1.94 1.316 2.623 -0.001-0.001-0.002-0.002-0.003-0.004 2.256 1.847 8.541 2.244 12.319 2.213 7.52-0.063 9.723-2.969 9.723-2.969 0.938-1.243 2.008-2.639 2.695-4.086 -0.018 0.023-0.028 0.036-0.028 0.036 0.715-1.591 0.636-2.143 0.719-3.156C139.096 83.566 139.063 83.414 139.014 83.262z" fill="url(#SvgjsRadialGradient221767)" opacity="1"/>
              </g>
              <g id="svga-group-eyesiriswrapper-right" transform="matrix(1,0,0,1,0.75,0.25)">
                <g id="svga-group-eyesiriscontrol-right" transform="matrix(1,0,0,1,0,0)">
                  <g id="svga-group-eyesiris-right" transform="matrix(1,0,0,1,0,0)">
                    <path id="SvgjsPath221823" d="M133.5 87.001c0 4.692-3.806 8.498-8.5 8.498s-8.5-3.806-8.5-8.498c0-4.697 3.806-8.502 8.5-8.502S133.5 82.304 133.5 87.001z" fill="#ea02f5" stroke="#be00c7" stroke-width="0.5" opacity="1"/>
                    <path id="SvgjsPath221824" d="M120.059 90.974c1.24-0.103 0.142-0.434 0.142-0.434 -0.613-0.33-1.768-0.838-1.768-1.305 0-1.461 2.002-1.84-0.048-2.416 -2.131-1.956 1.652-1.915 1.625-1.981 -1.382-3.366 0.423-1.518 1.182-2.512 2.816-3.682 0.785 0.378 2.314 0 0.555-0.136-1.104-2.169 0.048-1.884 0.763 0.186 0.938 0.821 0.938 0.821 0.557-0.109 1.428-0.966 1.428-0.966 1.061 0.32 1.806 1.828 1.478 1.546 0.521-0.063 1.252-0.313 1.821-0.483 0 0 0.1-0.338 0.196-0.046 1.3 3.77 4.652 3.499 0.791 4.589 0 0-0.249 0 0.542 0.627 3.84 3.065-2.978 2.117 0.638 3.527 0.148-0.147-2.167 1.367-2.167 1.786 0 0.711-1.477 2.576-2.757 1.842 -0.714-0.409-0.822 0.85-1.243 0.269 -0.823-1.138-2.468-0.049-1.859-1.095 0.898-0.737-0.926 0.288-1.28 0.288 -1.172 0 1.534-3.942 5.516-1.013 1.165 0.854-1.225-2.029 0.886-2.029 0.212 0.069 0.148-0.739 0.148-0.967 -1.097-0.214 1.97-0.004 1.97-1.787 0.193 0.038 0.721-0.496-2.316 0 0 0-0.097-1.064-0.048-1.256 0.156-0.619 1.721-0.422 1.28-1.063 -0.001-0.001-1.133-2.271-1.133-2.271 -3.645-0.587-1.562-0.953-3.84-0.483 -0.108 0.535-4.881 2.811-4.729 3.866 0.142 0.994 2.996 1.328 0.295 3.092C124.157 96.989 117.118 89.06 120.059 90.974z" fill="#f51cff" stroke-width="none" opacity="1" stroke="none"/>
                    <path id="SvgjsPath221825" d="M125,79.562l0.242,6.222l2.604-5.656l-2.158,5.84l4.571-4.228l-4.229,4.57l5.842-2.157l-5.655,2.604l6.222,0.242l-6.222,0.242l5.655,2.604l-5.842-2.157l4.229,4.57l-4.571-4.228l2.158,5.84l-2.604-5.656L125,94.437l-0.242-6.222l-2.605,5.656l2.157-5.84l-4.57,4.228l4.229-4.57l-5.842,2.157l5.654-2.604l-6.219-0.242l6.219-0.242l-5.654-2.604l5.842,2.157l-4.229-4.57l4.57,4.228l-2.157-5.84l2.605,5.656L125,79.562z" fill="#ea02f5" stroke="#db00e6" stroke-width="0.5" opacity="1"/>
                    <path id="SvgjsPath221826" d="M126.128,81.428l-0.764,4.697l2.808-3.841l-2.501,4.047l4.064-2.475l-3.859,2.782l4.702-0.73l-4.632,1.093l4.626,1.125l-4.699-0.762l3.843,2.808l-4.05-2.5l2.476,4.063l-2.783-3.86l0.73,4.702l-1.092-4.632l-1.126,4.625l0.764-4.697l-2.812,3.841l2.505-4.047l-4.065,2.475l3.86-2.782l-4.702,0.73l4.631-1.094l-4.624-1.124l4.696,0.761l-3.842-2.808l4.05,2.501l-2.476-4.063l2.782,3.86l-0.73-4.702l1.095,4.632L126.128,81.428z" fill="#ea02f5" stroke="#cd00d6" stroke-width="0.5" opacity="1"/>
                    <path id="SvgjsPath221827" d="M128.188 87c0 1.761-1.428 3.187-3.188 3.187s-3.188-1.426-3.188-3.187c0-1.76 1.428-3.188 3.188-3.188S128.188 85.239 128.188 87z" fill="#000000" stroke-width="none" opacity="0.9"/>
                    <path id="SvgjsPath221828" d="M121.653 93.108c-0.47 0.469-1.396 0.304-2.069-0.369 -0.674-0.673-0.84-1.601-0.369-2.07 0.469-0.47 1.395-0.304 2.068 0.369C121.956 91.712 122.122 92.639 121.653 93.108z" fill="#ffffff" stroke-width="none" opacity="0.7"/>
                    <path id="SvgjsPath221829" d="M131.809 85.326c-0.702 0.703-2.403 0.142-3.8-1.254 -1.396-1.396-1.957-3.098-1.256-3.8 0.703-0.703 2.405-0.142 3.8 1.254C131.949 82.922 132.512 84.624 131.809 85.326z" fill="#ffffff" stroke-width="none" opacity="0.9"/>
                  </g>
                </g>
              </g>
              <g id="svga-group-eyesfront-right">
                <path id="SvgjsPath221804" d="M126 62.999c-9.94 0-18 11.193-18 25.001 0 13.808 8.06 24.999 18 24.999S144 101.808 144 88C144 74.191 135.94 62.999 126 62.999zM135.725 90.922c0 0-2.203 2.906-9.723 2.969 -3.778 0.031-10.063-0.366-12.319-2.213 0.001 0.001 0.002 0.002 0.003 0.004 -0.872-0.682-1.357-1.541-1.316-2.623 0.02-0.509 0.234-1.09 0.585-1.702 0.004 0 0.008 0 0.012 0 1.811-3.068 7.566-6.887 13.547-7.316 2.471-0.178 4.854-0.266 6.578 0.143 3.778 0.895 5.518 2.173 5.923 3.078 0.049 0.152 0.082 0.305 0.097 0.454 -0.083 1.013-0.004 1.565-0.719 3.156 0 0 0.011-0.013 0.028-0.036C137.732 88.283 136.663 89.679 135.725 90.922z" fill="#764630" stroke-width="none" opacity="1" stroke="none"/>
                <path id="SvgjsPath221805" d="M124.045 70c-10.416-0.043-18.875 6.635-18.902 14.92 -0.023 8.284 8.398 15.033 18.813 15.08 10.418 0.043 18.875-6.635 18.902-14.919C142.881 76.796 134.461 70.047 124.045 70zM138.42 86.836c-0.688 1.447-1.757 2.843-2.695 4.086 0 0-2.203 2.906-9.723 2.969 -3.778 0.031-10.063-0.366-12.319-2.213 0.001 0.001 0.002 0.002 0.003 0.004 -0.872-0.682-1.357-1.541-1.316-2.623 0.02-0.509 0.234-1.09 0.585-1.702 0.004 0 0.008 0 0.012 0 1.811-3.068 7.566-6.887 13.547-7.316 2.471-0.178 4.854-0.266 6.578 0.143 3.778 0.895 5.518 2.173 5.923 3.078 0.049 0.152 0.082 0.305 0.097 0.454 -0.083 1.013-0.004 1.565-0.719 3.156C138.392 86.872 138.402 86.859 138.42 86.836z" fill="url(#SvgjsRadialGradient221806)" opacity="1"/>
                <path id="SvgjsPath221810" d="M135.725 90.922c0.938-1.243 2.008-2.639 2.695-4.086 -0.018 0.023-0.028 0.036-0.028 0.036 0.715-1.591 0.636-2.143 0.719-3.156 -0.015-0.149-0.048-0.301-0.097-0.454 -0.405-0.904-2.145-2.183-5.923-3.078 -1.724-0.409-4.107-0.321-6.578-0.143 -5.98 0.429-11.736 4.248-13.547 7.316 -0.004 0-0.008 0-0.012 0 -0.351 0.611-0.565 1.192-0.585 1.702 -0.041 1.082 0.444 1.94 1.316 2.623 -0.001-0.001-0.002-0.002-0.003-0.004 2.256 1.847 8.541 2.244 12.319 2.213C133.521 93.828 135.725 90.922 135.725 90.922z" fill="url(#SvgjsRadialGradient221811)" opacity="1"/>
                <path id="SvgjsPath221814" d="M111.744 84.111c6.821-5.453 10.878-7.558 19.341-7.756 -5.832-0.553-11.102 1.27-14.204 3.22C115.43 80.487 112.744 83.237 111.744 84.111z" fill="#481c08" stroke-width="none" opacity="1" stroke="none"/>
                <path id="SvgjsPath221815" d="M135.725 90.86c-0.332 0.966-1.887 2.297-2.73 2.721 -1.74 0.873-5.785 0.985-7.732 0.953 -2.985-0.049-8.257-0.381-11.579-2.931 2.256 1.819 8.541 2.21 12.319 2.179C133.521 93.721 135.725 90.86 135.725 90.86zM130.529 77.594c-7.113-0.373-15.748 4.565-18.236 9 -0.076 0.137-0.127 0.512-0.021 0.626 0.106 0.114 0.424 0.118 0.693 0.13 1.811-3.021 7.566-6.781 13.547-7.204 2.471-0.174 4.854-0.261 6.578 0.141 4.466 1.041 6.091 2.613 6.02 3.477 -0.083 0.997-0.004 1.541-0.719 3.107 0 0 1.749-2.54 3.097-4.895 0.661-1.156 0.917-1.355 2.362-2.363 0 0-1.365 0.124-4.002 0.024C138.008 79.568 135.476 77.854 130.529 77.594z" fill="#d6f7f4" stroke-width="none" opacity="1" stroke="none"/>
              </g>
            </g>
          </g>
          <g id="svga-group-facehighlight-single">
            <path id="SvgjsPath221570" d="M140.204 113.007c0.035 22.275-17.995 40.365-40.273 40.396 -22.274 0.036-40.361-17.993-40.396-40.272C59.501 90.857 77.53 72.77 99.808 72.735 122.083 72.701 140.171 90.73 140.204 113.007z" fill="url(#SvgjsRadialGradient221571)" opacity="1"/>
            <path id="SvgjsPath221574" d="M135,55.999c0,19.329-15.671,35-35,35c-19.329,0-35-15.671-35-35s15.671-35,35-35C119.329,20.999,135,36.67,135,55.999z" fill="url(#SvgjsRadialGradient221575)" opacity="1"/>
          </g>
          <g id="svga-group-eyebrows-left-move" transform="matrix(1,0,0,1,0,0)">
            <g id="svga-group-eyebrows-left-rotate" transform="matrix(1,0,0,1,0,0)">
              <g id="svga-group-eyebrows-left" transform="matrix(1,0,0,1,0,0)">
                <path id="SvgjsPath221830" d="M59.396 69.48c16.138-1.701 18.92 1.72 27.556 5.214 0.474 0.186 1.583 0.391 1.88-0.098 0.787-1.312-3.254-3.205-4.65-3.819C75.041 66.529 69.36 66.685 59.396 69.48z" fill="#4e4341" stroke-width="none" opacity="1" stroke="none"/>
              </g>
            </g>
          </g>
          <g id="svga-group-eyebrows-right-move" transform="matrix(1,0,0,1,0,0)">
            <g id="svga-group-eyebrows-right-rotate" transform="matrix(1,0,0,1,0,0)">
              <g id="svga-group-eyebrows-right" transform="matrix(1,0,0,1,0,0)">
                <path id="SvgjsPath221831" d="M140.604 69.48c-5.06-0.533-9.441-1.2-17.854 1.08 -4.62 1.032-10.657 5.557-11.581 4.036 -1.089-1.815 11.254-8.648 22.768-6.707C137.227 68.468 136.765 68.403 140.604 69.48z" fill="#4e4341" stroke-width="none" opacity="1" stroke="none"/>
              </g>
            </g>
          </g>
          <g id="svga-group-nose-single-move" transform="matrix(1,0,0,1,0,0)">
            <g id="svga-group-nose-single" transform="matrix(1,0,0,1,0,0)">
              <path id="SvgjsPath221845" d="M100.906,119.814c-0.402,0.434-0.73,0.381-1.108-0.07c0,0-4.82-3.077-4.208-4.488c0.967-2.233,9.735,0,9.735,0L100.906,119.814z" fill="#673620" stroke-width="none" opacity="1" stroke="none"/>
              <path id="SvgjsPath221846" d="M94.389,113.263c0,0,4.937-12.754,5.366-15.484c0.814,4.431-1.917,14.293-2.125,16.306c-0.251,2.444,2.645,5.497,2.645,5.497c0.238,0.544,0.062,0.682-0.395,0.313l-5.077-3.354C93.601,115.627,93.601,114.756,94.389,113.263z M102.579,115.924c0.7,0.143,0.847,0.395,0.793,0.655c-0.054,0.264-0.354,0.625-0.986,0.295c-0.695-0.36-2.005-0.525-2.005-0.525S101.879,115.78,102.579,115.924z" fill="#481c08" stroke-width="none" opacity="1" stroke="none"/>
            </g>
          </g>
          <g id="svga-group-hair-front" transform="matrix(1,0,0,1,0,0)">
            <path id="SvgjsPath221737" d="M152.307 91.487c-3.852-4.398-4.376-6.578-2.979-11.314 -3.135-2.417-4.33-5.415-2.256-11.703 -8.03-0.362-9.319-3.996-8.175-11.755 -4.594-0.54-7.891-3.289-8.357-8.541 -3.963 0.138-8.343-1.103-9.574-4.694 -4.476 0.66-6.139-0.673-7.297-3.01 -4.41 1.766-7.511 0.911-10.794-2.012 -2.949 0.936-5.324 0.157-7.744-1.107 -1.709 3.5-3.815 4.289-7.577 3.619 -1.134 4.489-5.215 7.274-11.498 5.855 -1.717 4.607-4.878 6.44-9.475 5.764 -2.797 4.744-7.751 6.055-13.437 5.505 1.914 4.99 0.686 7.206-3.663 8.643 2.276 5.206 3.236 6.714-0.048 11.011 3.455 5.17 1.254 11.14-2.436 12.382v0.423c-8.695-10.118-8.114-74.354-0.022-74.653 -1.651-7.591 101.586-6.334 101.586-1.216C156.112 15.083 158.648 87.485 152.307 91.487z" fill="#4e4341" stroke-width="none" opacity="0.1" stroke="none"/>
            <path id="SvgjsPath221738" d="M152.306 91.585c-3.854-4.643-4.377-6.941-2.981-11.94 -3.133-2.549-4.329-5.714-2.254-12.349 -8.032-0.382-9.32-4.218-8.176-12.405 -4.592-0.569-7.891-3.47-8.357-9.013 -3.963 0.146-8.342-1.163-9.574-4.953 -4.475 0.696-6.137-0.71-7.296-3.178 -4.409 1.864-7.51 0.962-10.793-2.122 -2.949 0.986-5.324 0.166-7.743-1.168 -1.709 3.693-3.815 4.525-7.577 3.818 -1.134 4.737-5.215 7.677-11.497 6.178 -1.718 4.862-4.878 6.796-9.475 6.083 -2.797 5.005-7.751 6.39-13.435 5.809 1.914 5.266 0.685 7.604-3.663 9.121 2.275 5.494 3.235 7.085-0.048 11.62 3.455 5.457 1.253 11.754-2.437 13.065v0.445c3.952 11.448-9.554 16.223-11.48 6.834 -5.114-0.087-7.45-3.416-3.724-8.759 -7.115-1.293-6.373-7.842 0.1-11.886 -5.866-2.453-9.144-6.8-2.46-12.625 -8.059-3.511-6.461-10.86 0.006-16.754 -5.489-4.566-2.71-8.938 4.064-11.443 -2.809-5.928 0.644-10.55 7.04-11.991 -4.444-5.361-1.657-11.837 6.434-12.152C45.326 3.81 50.979 0.26 59.132 1.968c1.805-5.814 5.683-6.576 11.382-4.692 1.562-4.613 6.007-5.533 10.743-4.105 3.044-3.768 7.978-1.952 12.283 0.107 3.656-4.056 8.893-2.555 13.356 0.653 5.712-4.897 12.8-2.474 17.862 3.303 6.497-2.672 11.717-1.117 15.407 5.396 6.038-0.279 8.394 2.509 8.394 7.909 7.55 0.422 16.386 6.16 13.794 14.477 5.662 1.042 8.607 5.278 6.109 12.043 3.362 1.625 4.864 5.743 4.707 7.82 -0.178 2.294-1.575 4.652-2.786 6.823 5.17 3.334 6.954 10.875 3.206 14.727 2.481 3.13 0.363 10.575-4.989 14.529 2.983 3.18 3.861 4.363-3.475 10.415 4.771 6.469 1.16 11.849-3.096 11.849l0 0c-1.118 0-1.891-0.299-2.845-0.725C154.076 110.256 144.69 103.662 152.306 91.585z" fill="#4e4341" stroke-width="none" opacity="1" stroke="none"/>
            <path id="SvgjsPath221739" d="M161 88c-3 0-7 2-7 0 -0.902-2.708 0.643-4.227 3.159-6.358C155.256 82.731 153 81.867 153 81c-1.802-4.503-0.347-9.808 4.342-12.281C155.562 69.375 153.5 69.75 152 69c-2.398-3.198-1.593-9.58 1.89-12.016 -3.294 1.13-6.876 2.276-9.89 0.016 -3-4-1-11 4-14 -4 0-9 4-13 2 -4-3-1-7 2-10 -4 0-8 6-12 1 -1-2 1-4 1-6 -2 2-7 6-9 3 -1-3 3-5 3-8 -2 2-8 6-9 3 -1-2 0-6 3-7 -5 1-8 9-13 5 -1 0-2-4-1-6 -2 4-5 7-9 9 -1-2-3-4-2-6 -2 4-1 11-7 11 -1 0-4.061-3.793-4.061-5.793C77.939 33.207 78 38 75 40c-4 3-7-2-9-6 -2 6-3 12-9 14 -3 1-6-1-7-4 0 4-1.166 8.23 2 12 -4.096-3.56-8.275-1.443-12 0 4 6 10 14 0 17 5 1 10 7 7 11 -2 1-4-1-6-2 3.798 6.646 4.882 16.889-5.287 16.197 2.491 8.342 15.125 3.522 11.286-7.6v-0.445c3.69-1.311 5.891-7.609 2.437-13.065 3.284-4.535 2.324-6.125 0.048-11.62 4.348-1.516 5.577-3.855 3.663-9.121 5.684 0.581 10.638-0.803 13.435-5.809 4.597 0.713 7.757-1.222 9.475-6.083 6.282 1.499 10.362-1.441 11.497-6.178 3.762 0.707 5.868-0.125 7.577-3.818 2.419 1.334 4.794 2.155 7.743 1.168 3.283 3.084 6.384 3.986 10.793 2.122 1.159 2.467 2.821 3.874 7.296 3.178 1.232 3.79 5.611 5.099 9.574 4.953 0.467 5.543 3.766 8.444 8.357 9.013 -1.145 8.187 0.144 12.023 8.176 12.405 -2.075 6.635-0.879 9.8 2.254 12.349 -1.396 4.999-0.872 7.297 2.981 11.94 -6.637 10.525-0.362 16.882 4.742 13.207C153.603 99.472 155.788 91.475 161 88z" fill="#3f312e" stroke-width="none" opacity="1" stroke="none"/>
            <path id="SvgjsPath221740" d="M173.59 66.428c3.748-3.852 1.964-11.393-3.206-14.727 0.185-0.331 0.806-1.293 1.411-2.6 0.699-1.394 1.267-2.82 1.375-4.224 0.022-0.3 0.007-0.647-0.041-1.02 0.014-2.504-1.075-5.065-4.666-6.8 2.498-6.765-0.447-11.001-6.109-12.043 2.592-8.317-6.244-14.055-13.794-14.477 0-5.4-2.355-8.188-8.394-7.909 -3.69-6.513-8.91-8.067-15.407-5.396 -5.063-5.777-12.15-8.2-17.862-3.303 -4.464-3.208-9.7-4.709-13.356-0.653 -4.305-2.059-9.239-3.875-12.283-0.107 -4.736-1.428-9.182-0.508-10.743 4.105 -5.699-1.884-9.577-1.122-11.382 4.692C50.979 0.26 45.326 3.81 46.978 11.822c-8.091 0.315-10.878 6.791-6.434 12.152 -6.396 1.441-9.848 6.063-7.04 11.991 -6.775 2.506-9.553 6.877-4.064 11.443 -6.467 5.894-8.065 13.243-0.006 16.754 -6.684 5.824-3.406 10.172 2.46 12.625 -6.472 4.043-7.215 10.592-0.1 11.886 -0.225 0.323-0.426 0.637-0.607 0.945 -0.062 0.104-0.109 0.204-0.166 0.306 -0.11 0.2-0.221 0.399-0.313 0.592 -0.057 0.12-0.101 0.235-0.152 0.353 -0.072 0.167-0.145 0.335-0.203 0.498 -0.044 0.123-0.076 0.241-0.112 0.361 -0.045 0.148-0.09 0.297-0.124 0.44 -0.028 0.122-0.046 0.239-0.066 0.357 -0.022 0.132-0.043 0.264-0.055 0.392 -0.011 0.118-0.014 0.233-0.017 0.347 -0.002 0.118-0.002 0.235 0.005 0.348 0.007 0.114 0.02 0.226 0.035 0.335 0.015 0.104 0.034 0.205 0.057 0.305 0.025 0.11 0.055 0.217 0.09 0.321 0.03 0.089 0.064 0.176 0.101 0.261 0.045 0.105 0.092 0.208 0.146 0.307 0.042 0.074 0.088 0.145 0.136 0.216 0.065 0.1 0.132 0.199 0.209 0.292 0.048 0.059 0.104 0.114 0.156 0.17 0.089 0.095 0.179 0.19 0.28 0.278 0.048 0.042 0.103 0.079 0.153 0.118 0.119 0.093 0.238 0.185 0.37 0.268 0.03 0.019 0.065 0.034 0.096 0.053 0.711 0.421 1.604 0.702 2.651 0.824 0.005 0 0.01 0.002 0.015 0.002l0 0c0.333 0.038 0.676 0.064 1.038 0.071 0.055 0.268 0.122 0.521 0.195 0.765 2.503 0.17 4.321-0.324 5.588-1.262C38.826 96.513 37.753 93.917 35 93c-0.066-0.022-0.114-0.053-0.175-0.078 1.14-1.365 2.434-2.966 1.869-5.297C37.117 87.366 37.558 87.147 38 87c-0.526 0-1.051-0.064-1.561-0.171 -0.008-0.021-0.014-0.041-0.022-0.062 -0.649-1.574-2.054-2.709-3.728-3.014 -0.34-0.062-0.594-0.134-0.78-0.2 0.814-1.526 7.467-5.587 5.172-9.072C37.076 74.321 37.054 74.161 37 74c-0.469-1.406-2.256-1.717-4.125-2.265 -1.273-0.643-1.9-1.217-2.112-1.498 0.835-2.016 4.208-2.979 3.613-6.836 -0.023-0.151-0.061-0.283-0.093-0.421C35.064 61.762 35.654 60.383 36 59c-2.654 0-5.738-0.886-6.935-2.648 0.671-2.583 4.604-5.38 5.379-8.358C35.933 47.333 37.533 46.733 39 46c-2.268 0-5.672-2.285-5.907-4.265 1.794-0.933 4.501-2.122 5.292-4.294C39.51 36.902 40.654 36.449 42 36c-1.533-1.533-4.232-3.065-4.512-4.147 0.002-0.164 0.015-0.319 0.049-0.459C37.62 31.25 37.765 31.117 38 31c0.601-0.501 1.139-0.953 1.643-1.384 1.969-0.763 4.708-1.311 5.634-4.029 0.562-1.646 0.227-3.465-0.883-4.804 -0.038-0.045-0.067-0.086-0.103-0.131C44.239 19.868 44.143 19 44 18c0-0.108 0.028-0.203 0.046-0.303 1.513-0.886 5.085-0.883 6.688-2.587C52.493 15.002 54.354 15 56 15c-2.998-2.248-3.187-6.181-1.41-8.432 2.518-0.036 5.943 1.124 8.015-0.858 0.85 0.217 1.684 0.465 2.475 0.783C64.712 5.458 65 4.084 65 3c0.618-0.618 1.411-1.101 2.289-1.455 0.968 0.286 2.057 0.732 3.226 0.732 1.549 0 2.476-0.408 3.107-0.984C75.083 1.771 76.327 2.654 77 4c-1-3 0.763-5.015 2-6 0.086-0.069 0.169-0.131 0.254-0.197 0.179 0.045 0.364 0.096 0.56 0.155 6.004 1.811 2.094-4.704 11.569-0.169 2.221 1.062 3.684 0.428 4.853-0.393 2.464 0.842 5.023 1.989 4.691 2.624 1.099-0.776 2.167-1.444 3.223-1.97 1.854 1.007 3.764 1.597 6.002-0.323 0.294-0.252 0.583-0.46 0.869-0.645 1.061 0.28 2.146 0.77 3.276 1.523 0.594 1.188 2.477 3.767 1.296 4.536 1.856-0.819 3.612-1.951 5.392-2.728 1.276 1.018 2.52 1.82 3.775 1.82 1.223 0 2.636-0.728 4.158-1.078C129.521 1.527 130 2.024 130 3c0 0.945-0.231 1.659-0.678 2.157 2.01-0.653 3.993-1.064 5.887-1.042 0.202 0.302 0.404 0.622 0.606 0.979 1.647 2.906 3.893 2.402 5.541 2.454 0.046 1.747-0.923 3.8-3.209 4.319 2.041-0.107 4.381 0.482 6.373 1.589 0.593 0.818 1.423 1.442 2.398 1.783 1.505 1.5 2.41 3.42 2.092 5.625 0.928-0.192 1.892-0.23 2.989 0.136 2 2 5 7 1 9 5-1 13 2 9 8 0 0-2 1-3 2 2.843 0 5.671 0.522 7.796 1.891 1.167 1.209 1.636 3.042-0.778 7.375 -0.452 0.81-0.688 1.509-0.768 2.131C164.261 51.777 163.16 52 162 52c1.239 0 2.303 0.176 3.271 0.447 0.374 2.064 2.676 3.243 4.129 5.238 -0.965 1.202-2.816 2.259-4.399 3.314 2.108 0.327 3.335 2.419 3.607 4.834 -0.124 0.531-0.136 1.1 0.03 1.726 -0.155 2.112-1.008 4.218-2.638 5.44 -0.3 0-0.528 0-0.566 0 1.001 0.317 1.839 0.995 2.321 1.773 -0.568 0.78-1.27 1.53-2.125 2.162 -2.992 2.21-2.23 4.737-1.201 6.494 -0.315-0.025-0.654-0.061-1.049-0.117 0.066 0 0.831-1.633 1.613-1.009 0.339 0.482 0.64 0.861 0.766 1.083 -0.158 0.386 0.498 1.692-2.447 4.122 -2.049 1.69-1.842 4.799-0.19 6.88 0.944 1.19 1.349 2.315 1.445 3.341 -0.477 2.259-1.398 4.345-2.536 5.492 0.165 0 0.327-0.022 0.49-0.039 0.126 0.266 1.102 0.021 2.154-0.721 1.038-0.628 1.877-1.619 2.333-2.884 0.802-1.969 0.696-4.71-1.882-8.206 7.336-6.051 6.458-7.235 3.475-10.415C173.953 77.003 176.071 69.558 173.59 66.428z" fill="#5d5857" stroke-width="none" opacity="1" stroke="none"/>
            <path id="SvgjsPath221741" d="M174.299 66.416c3.293-3.392 1.876-11.575-3.25-14.88 1.12-2.01 2.44-4.31 2.62-6.62 0.191-2.535-1.812-6.772-4.58-8.11 2.549-6.915-1.351-11.307-6.09-12.18 2.412-7.708-6.373-14.135-13.939-14.56 0-5.233-2.849-8.217-8.61-7.95 -3.271-5.763-8.628-8.322-15.55-5.48 -6.263-7.151-13.772-6.987-18.03-3.34 -4.078-2.933-9.855-4.615-13.45-0.63 -4.297-2.055-9.469-3.629-12.34-0.07 -2.803-0.845-9.092-1.229-10.88 4.05 -5.332-1.761-9.714-0.724-11.41 4.74 -7.848-1.643-13.989 2.354-12.42 9.96 -7.782 0.308-10.638 7.607-6.73 12.32 -4.588 1.033-9.819 5.691-6.82 12.02 -6.342 2.346-9.419 7.351-4.14 11.74 -4.602 4.192-8.915 13.07-0.17 16.88 -5.861 5.104-3.096 10.314 2.3 12.57 -5.79 3.619-6.346 10.97 0.13 12.15 -2.858 4.098-1.602 8.805 4.17 8.9 1.995 9.712 16.81 4.148 12.39-7.41v-0.01c3.433-1.22 5.983-7.964 2.54-13.4 2.995-4.138 1.749-5.778-0.39-10.94 4.537-1.58 5.66-5.331 4.24-9.24 6.073 0.623 10.812-1.999 12.96-5.84 4.749 0.733 8.072-1.908 9.53-6.04 5.768 1.377 10.458-1.623 11.55-6.19 3.305 0.621 5.926-0.446 7.43-3.7 2.279 1.258 4.956 1.851 7.39 1.04 3.477 3.271 7.086 3.713 10.67 2.2 1.332 2.827 4.07 3.576 7.2 3.09 1.018 3.134 5.415 5.06 9.46 4.91 0.441 5.225 4.121 8.416 8.25 8.93 -1.039 7.4 0.329 12.072 8.07 12.44 -2.208 7.042-1.61 8.265 2.319 12.19 -1.379 4.964-0.396 7.617 2.971 11.67 -7.787 12.375 2.62 19.174 7.68 11.5 6.18 2.762 11.669-4.593 6.44-11.67 4.317-3.566 7.809-5.878 3.54-10.43C174.24 77.414 176.76 69.558 174.299 66.416zM168.6 80.305c-1-0.87-2.221-1.56-3.4-1.74 0.59 0.095 2.724 1.762 3.7 3.62 2.193 3.788-2.641 8.104-3.641 8.58 -0.63-0.72-1.399-1.32-2.27-1.71 4.498 1.989 4.397 15.001-3.12 13.23 1.866-3.573 1.295-7.331 1.295-7.331s0.289-0.26-1.816 5.105c-3.267 8.313-12.995 4.456-7.328-8.034 0.451-1.005 1.216-2.309 2.31-2.44 -0.68 0.02-1.27 0.4-1.78 0.93 -4.503-7.609-3.564-11.15-1.56-15.6 -0.79 1.24-1.45 2.58-1.93 3.97 -4.906-4.514-1.425-13.327-0.33-16.7 -0.7 1.4-1.41 2.94-1.99 4.54 -9.358-0.954-9.139-14.536-6.12-15.1 -1.2-0.15-1.8 1.13-2.11 2.63 -3.972-1.242-9.11-5.575-7.75-14.05 -0.439 1.52-0.72 3.17-0.739 4.82 -3.147-0.441-8.19-1.053-9.051-4.32l0.311-3.92c-0.62 1.28-1.03 2.64-0.83 3.96 -8.767 0.467-7.61-8.084-6.51-9.93 -0.899 1.236-1.521 4.139-1 6.17 -5.244 1.009-7.273 0.052-9.391-1.11 3.052-1.383 5.58-5.213 6-7.56 -0.153 0.813-2.374 3.287-3.01 3.86 -1.835 1.646-3.758 2.042-5.18 2.48h-0.01c-1.831 0.58-3.86 0.32-5.661-0.3 0.656-1.524 0.784-4.702 0.62-5.04 0.227 1.095-1.416 8.48-8.2 8.48 0.14-1.33-0.08-2.69-0.74-3.95 2.076 5.417-4.969 11.143-10.82 10.68 0.572-1.61 1.061-5.427 1-5.67 0.173 1-3.134 11.186-10.24 11.28 0.41-1.03 0.59-2.17 0.44-3.4 0.453 3.618-5.418 9.59-14.1 9.59 -0.57-1.32-1.42-2.53-2.39-3.5 2.111 3.032 2.345 6.896 1.96 7.3 0 1.958-2.408 3.82-4.16 4.77 -0.83-1.67-1.88-3.24-3.04-4.58 2.176 3.245 6.751 10.324 3.61 16.18 -0.882-1.159-1.674-2.069-4.591-3.262 6 2.454 7.52 14.298 2.142 16.592 -0.813-1.504-2.588-3.028-2.588-3.028s1.437 1.745 1.908 3.979c0.512 1 0.633 5.174-1.87 8.39 -1.934 2.5-6.979 3.894-8.85-1.25 1.71-0.09 3.43-0.58 4.63-1.27 -1.479 0.748-9.968 1.232-9.34-4.28 0.301-3.081 2.626-6.51 5.77-6.51 -1.84-0.27-3.73 0.71-5.13 2.22 -7.167-2.636-2.441-10.856 4.77-13.85 -1 0.269-2.281 0.543-4.55 1.91 -8.558-4.525-1.959-13.669 1.67-14.3 -1.56 0.14-2.99 0.84-4.25 1.78 -8.094-4.805-1.063-18.69 4.81-17.8 -1.85-0.58-3.42 0-4.79 1.04 -5.861-5.887 4.912-12.546 8.54-11.51 -1.31-0.48-2.69-0.38-4.02-0.01 -0.86-3.383 0.16-11.205 11.24-11.75 -1.45-0.15-2.93-0.27-4.37-0.1 -3.506-6.863 2.523-13.311 11.41-11.15 -1.44-0.57-3.04-0.92-4.63-0.99 0-12.784 15.759-8.419 16.88-8.29 -1.48-0.5-3.02-1.02-4.57-1.42 3.495-6.831 14.659-4.202 15.91-0.45 -0.41-1.85-2.07-3.05-3.77-3.83 3.366-5.466 11.211-4.896 12.29-1.93 -0.19-0.78-0.62-1.38-1.18-1.83 2.964-2.01 12.098-1.161 13.67 2.6 -0.3-1.23-1.08-2.13-2.07-2.8 1.896-1.267 6.499-1.938 11.55 0.48 -1.103 1.13-1.61 2.212-2.47 3.47 1.06-1.12 2.04-2.23 3.21-3.08 1.07 0.64 1.91 1.54 2.25 2.89 -0.132-1-0.128-1.918-1.66-3.28 4.873-3.02 10.861 0.167 15.53 3.56 -1.141 0.54-2.28 1.07-3.44 1.49 6.318-1.098 10.604-4.965 18.681 3.39 -1.721 0.24-3.431 0.62-4.98 0.84 0.387 0.02 7.437-0.082 7.69 0.16 3.846 0.547 5.627 3.225 6.579 6.81 -1.229 0.17-2.289 0.73-2.84 1.96 2.756-4.704 17.408 3.675 16.391 12.35 -1.83-0.02-3.63 0.46-5.24 1.47 6.482-2.601 13.192 1.838 11.71 10.49 -0.73-0.06-1.45 0.12-2.11 0.66 2.186-1.81 8.681 2.768 4.641 14 -1.08-0.49-2.25-0.6-3.16 0.28 3.409-3.306 9.756 10.281 6.7 14.58 -1.051-0.86-2.311-1.5-3.7-1.8C175.596 65.811 173.77 75.195 168.6 80.305z" fill="#201311" stroke-width="none" opacity="1" stroke="none"/>
          </g>
          <g id="svga-group-glasses-single-move" transform="matrix(1,0,0,1,0,0)">
            <g id="svga-group-glasses-single" transform="matrix(1,0,0,1,0,0)">
              <path id="SvgjsPath221832" d="M131.02,103.52c-5.04,0-9.99-0.93-12.91-2.44c-4.28-2.2-9.46-7.32-9.81-19.2c-0.01-0.33-0.02-0.67-0.02-1.01c-0.03-4.9,5.56-7.31,8.86-7.96c4.33-0.85,8.13-1.23,12.33-1.23c3.93,0,7.94,0.35,11.7,0.72c2.38,0.19,4.69,1.4,6.32,3.33c1.41,1.67,2.11,3.87,2.14,6.7c0.01,0.63,0,1.3-0.02,1.98c-0.16,3.94-0.96,8.51-1.41,10.59C147.05,100.34,140.63,103.52,131.02,103.52C131.02,103.52,131.02,103.52,131.02,103.52z M68.98,103.52c5.04,0,9.98-0.93,12.91-2.44c4.28-2.2,9.46-7.33,9.81-19.2c0.01-0.33,0.02-0.67,0.02-1.01c0.03-4.84-5.56-7.23-8.86-7.88c-4.33-0.85-8.13-1.23-12.33-1.23c-3.93,0-7.94,0.35-11.67,0.72c-2.45,0.19-4.76,1.38-6.34,3.26c-1.41,1.67-2.11,3.86-2.14,6.69c-0.01,0.64-0.01,1.31,0.02,1.99c0.16,3.95,0.96,8.52,1.41,10.6C52.96,100.34,59.38,103.52,68.98,103.52C68.98,103.52,68.98,103.52,68.98,103.52z" fill="#2f1515" stroke-width="none" opacity="0.85"/>
              <path id="SvgjsPath221833" d="M148.61,84.38c-6.16-5.42-27.32-5.61-39.3-2.53c-0.01-0.32-0.02-0.65-0.02-0.99c-0.03-4.39,5.46-6.46,8.05-6.97c8.35-1.64,14.49-1.42,23.73-0.5c2.2,0.17,4.24,1.3,5.66,2.98c1.42,1.69,1.88,3.86,1.9,6.07C148.65,83.07,148.64,83.72,148.61,84.38z M82.66,73.97c-8.35-1.64-14.49-1.42-23.73-0.5c-2.2,0.17-4.24,1.22-5.66,2.9c-1.42,1.69-1.88,3.86-1.9,6.07c-0.01,0.62,0,1.27,0.02,1.93c6.16-5.42,27.32-5.61,39.31-2.53c0.01-0.32,0.02-0.65,0.02-0.99C90.74,76.48,85.25,74.48,82.66,73.97z" fill="#ffffff" stroke-width="none" opacity="0.05"/>
              <path id="SvgjsPath221834" d="M157.63 73.99H155c0-0.01 0-0.02 0-0.03 0-0.95-0.64-1.79-1.57-2.02 -16.12-4.04-31.91-3.38-45.93 1.37 -2.13 0.72-5.29 0.12-7.58 0.12 -2.28 0-5.29 0.6-7.42-0.12 -14.02-4.75-29.82-5.41-45.93-1.37C45.64 72.16 45 73 45 73.95c0 0.01 0 0.02 0 0.03h-2.63v5.61l3.2 2.22c0.82 5.85 2.55 11.49 5.27 16.63 3.42 6.49 11.07 6.83 23.05 5.89 5.19-0.41 10.26-1.96 13.89-5.69 6.76-6.93 6.95-19.47 12.15-19.47 5.5 0 5.45 12.43 12.31 19.47 3.63 3.73 8.7 5.28 13.89 5.69 11.97 0.94 19.63 0.59 23.05-5.89 2.71-5.14 4.44-10.78 5.27-16.63l3.2-2.22V73.99zM81.43 100.2c-6.82 3.51-26.61 4.02-28.65-5.39 -0.38-1.74-1.52-7.76-1.41-12.35 0.02-2.21 0.48-4.38 1.9-6.07 1.42-1.69 3.46-2.73 5.66-2.9 9.24-0.92 15.38-1.15 23.73 0.5 2.59 0.51 8.08 2.5 8.05 6.89C90.64 93.27 85.29 98.21 81.43 100.2zM147.22 94.81c-2.04 9.41-21.83 8.9-28.65 5.39 -3.87-1.99-9.21-6.92-9.29-19.33 -0.03-4.39 5.46-6.38 8.05-6.89 8.35-1.64 14.49-1.42 23.73-0.5 2.2 0.17 4.24 1.22 5.66 2.9 1.42 1.69 1.88 3.86 1.9 6.07C148.74 87.05 147.6 93.07 147.22 94.81z" fill="#e05f48" stroke-width="none" opacity="1" stroke="none"/>
              <path id="SvgjsPath221835" d="M147.73 92.58c0.64-3.73 1.21-9.04 0.54-12.74 -0.46-2.98-2.33-5.58-8.94-6.48 0 0-8.53-1.03-15.88-0.22 -16.17 1.53-15.04 6.63-13.48 14.89 -1.87-8-3.65-14.81 15.92-15.89 7.27-0.41 13.54 0.38 13.54 0.38C147.02 73.53 151.38 76.46 147.73 92.58zM52.27 92.58c-0.64-3.73-1.21-9.04-0.54-12.74 0.46-2.98 2.33-5.63 8.94-6.54 0 0 8.53-1.03 15.88-0.22 16.16 1.53 15.04 6.68 13.48 14.94 1.87-8 3.65-14.81-15.92-15.89 -7.27-0.41-13.54 0.38-13.54 0.38C52.98 73.53 48.62 76.46 52.27 92.58zM107.5 74.3c-0.11-0.14-0.29-0.22-0.47-0.2l-1.66 0.19c-0.32 0.04-0.59 0.23-0.73 0.52l-2.18 4.4c-1.41-0.89-3.39-0.97-4.92 0l-2.18-4.4c-0.14-0.29-0.42-0.48-0.73-0.52l-1.66-0.19c-0.18-0.02-0.36 0.05-0.47 0.2s-0.14 0.34-0.08 0.51l2.94 7.74c0 0-1.1 3.72-2.18 6.66 2-3.85 2.97-10.03 6.83-10.03 0 0 0 0 0 0 0 0 0 0 0 0 3.86 0 4.82 6.18 6.83 10.03 -1.08-2.93-2.18-6.66-2.18-6.66l2.94-7.74C107.64 74.64 107.61 74.45 107.5 74.3z" fill="#d1472e" stroke-width="none" opacity="1" stroke="none"/>
              <path id="SvgjsPath221836" d="M147.93 94.61c-0.62 1.82-1.49 3.43-2.89 4.75 -3.33 3.16-10 3.95-14.69 3.83 -6.82-0.17-9.77-1.34-12.39-2.78 -2.14-1.33-3.71-2.54-5.84-5.74 2.65 3.62 5.1 5.52 9.66 6.96 9.02 2.26 19.27 0.94 23.09-2.42C146.3 97.97 147.24 96.39 147.93 94.61zM52.07 94.61c0.61 1.82 1.49 3.43 2.89 4.75 3.33 3.16 10 3.95 14.69 3.83 6.82-0.17 9.77-1.34 12.39-2.78 2.14-1.33 3.71-2.54 5.84-5.74 -2.65 3.62-5.1 5.52-9.66 6.96 -9.02 2.26-19.27 0.94-23.09-2.42C53.7 97.97 52.76 96.39 52.07 94.61z" fill="#ef7a65" stroke-width="none" opacity="1" stroke="none"/>
            </g>
          </g>
        </g>
      </g>
    </g>
    <rect id="SvgjsRect221555" width="200" height="15" x="0" y="185" fill="#ecf0f1" opacity="0.5" style="display: none;"/>
    <text id="SvgjsText221556" font-family="Roboto, Helvetica, Arial, sans-serif" font-size="10px" text-anchor="start" font-weight="400" anchor="start" fill="#333333" x="58.03125" y="182.4296875" style="display: none;">
      <tspan id="SvgjsTspan221557" dy="13" x="58.03125">Created on face.co</tspan>
    </text>
  </g>
</svg>
