<?xml version="1.0"?>
<svg xmlns="http://www.w3.org/2000/svg" version="1.1" width="600px" height="600px" viewBox="0 0 200 200" style="overflow:hidden!important;">
  <defs id="SvgjsDefs342591">
    <radialGradient id="SvgjsRadialGradient342652" cx="100" cy="113" r="40" gradientUnits="userSpaceOnUse" class="svga-on-canvas-facehighlight-gradient-single-0">
      <stop id="SvgjsStop342653" stop-opacity="0.5" stop-color="#dcbaa4" offset="0"/>
      <stop id="SvgjsStop342654" stop-opacity="0" stop-color="#cda184" offset="0.9"/>
    </radialGradient>
    <radialGradient id="SvgjsRadialGradient342656" cx="100" cy="57" r="36" gradientUnits="userSpaceOnUse" class="svga-on-canvas-facehighlight-gradient-single-1">
      <stop id="SvgjsStop342657" stop-opacity="0.5" stop-color="#dcbaa4" offset="0"/>
      <stop id="SvgjsStop342658" stop-opacity="0" stop-color="#cda184" offset="0.9"/>
    </radialGradient>
    <radialGradient id="SvgjsRadialGradient342737" cx="-558.588" cy="-490.918" r="84.646" gradientTransform="matrix(0.096 -0.0248 0.0245 0.0961 140.5478 120.3577)" gradientUnits="userSpaceOnUse" class="svga-on-canvas-eyesiris-gradient-left-1">
      <stop id="SvgjsStop342738" stop-opacity="0.8" stop-color="#ffffff" offset="0"/>
      <stop id="SvgjsStop342739" stop-opacity="0" stop-color="#ffffff" offset="1"/>
    </radialGradient>
    <radialGradient id="SvgjsRadialGradient342741" cx="-565.337" cy="-492.691" r="84.644" gradientTransform="matrix(0.0991 8.856325e-004 -0.0011 0.0991 130.3774 136.3533)" gradientUnits="userSpaceOnUse" class="svga-on-canvas-eyesiris-gradient-left-2">
      <stop id="SvgjsStop342742" stop-opacity="0.8" stop-color="#ffffff" offset="0"/>
      <stop id="SvgjsStop342743" stop-opacity="0" stop-color="#ffffff" offset="1"/>
    </radialGradient>
    <linearGradient id="SvgjsLinearGradient342747" x1="122.283" y1="93.047" x2="123.61" y2="91.466" gradientTransform="matrix(1 0 0 1 -52 0)" gradientUnits="userSpaceOnUse" class="svga-on-canvas-eyesiris-gradient-left-5">
      <stop id="SvgjsStop342748" stop-opacity="1" stop-color="#ffffff" offset="0"/>
      <stop id="SvgjsStop342749" stop-opacity="0" stop-color="#ffffff" offset="1"/>
    </linearGradient>
    <linearGradient id="SvgjsLinearGradient342751" x1="127" y1="85" x2="125" y2="87" gradientTransform="matrix(1 0 0 1 -50 0)" gradientUnits="userSpaceOnUse" class="svga-on-canvas-eyesiris-gradient-left-6">
      <stop id="SvgjsStop342752" stop-opacity="1" stop-color="#ffffff" offset="0"/>
      <stop id="SvgjsStop342753" stop-opacity="0" stop-color="#ffffff" offset="1"/>
    </linearGradient>
    <linearGradient id="SvgjsLinearGradient342755" x1="130" y1="81" x2="126" y2="85" gradientTransform="matrix(1 0 0 1 -50 0)" gradientUnits="userSpaceOnUse" class="svga-on-canvas-eyesiris-gradient-left-7">
      <stop id="SvgjsStop342756" stop-opacity="1" stop-color="#ffffff" offset="0"/>
      <stop id="SvgjsStop342757" stop-opacity="0" stop-color="#ffffff" offset="1"/>
    </linearGradient>
    <radialGradient id="SvgjsRadialGradient342760" cx="-578.76" cy="-490.73" r="84.646" gradientTransform="matrix(0.096 -0.0248 0.0245 0.0961 192.4794 119.8404)" gradientUnits="userSpaceOnUse" class="svga-on-canvas-eyesiris-gradient-right-1">
      <stop id="SvgjsStop342761" stop-opacity="0.8" stop-color="#ffffff" offset="0"/>
      <stop id="SvgjsStop342762" stop-opacity="0" stop-color="#ffffff" offset="1"/>
    </radialGradient>
    <radialGradient id="SvgjsRadialGradient342764" cx="-584.778" cy="-487.329" r="84.644" gradientTransform="matrix(0.0991 8.856325e-004 -0.0011 0.0991 182.3104 135.839)" gradientUnits="userSpaceOnUse" class="svga-on-canvas-eyesiris-gradient-right-2">
      <stop id="SvgjsStop342765" stop-opacity="0.8" stop-color="#ffffff" offset="0"/>
      <stop id="SvgjsStop342766" stop-opacity="0" stop-color="#ffffff" offset="1"/>
    </radialGradient>
    <linearGradient id="SvgjsLinearGradient342770" x1="120.284" y1="93.047" x2="121.611" y2="91.467" gradientUnits="userSpaceOnUse" class="svga-on-canvas-eyesiris-gradient-right-5">
      <stop id="SvgjsStop342771" stop-opacity="1" stop-color="#ffffff" offset="0"/>
      <stop id="SvgjsStop342772" stop-opacity="0" stop-color="#ffffff" offset="1"/>
    </linearGradient>
    <linearGradient id="SvgjsLinearGradient342774" x1="127" y1="85" x2="125" y2="87" gradientUnits="userSpaceOnUse" class="svga-on-canvas-eyesiris-gradient-right-6">
      <stop id="SvgjsStop342775" stop-opacity="1" stop-color="#ffffff" offset="0"/>
      <stop id="SvgjsStop342776" stop-opacity="0" stop-color="#ffffff" offset="1"/>
    </linearGradient>
    <linearGradient id="SvgjsLinearGradient342778" x1="130" y1="81" x2="126" y2="85" gradientUnits="userSpaceOnUse" class="svga-on-canvas-eyesiris-gradient-right-7">
      <stop id="SvgjsStop342779" stop-opacity="1" stop-color="#ffffff" offset="0"/>
      <stop id="SvgjsStop342780" stop-opacity="0" stop-color="#ffffff" offset="1"/>
    </linearGradient>
    <radialGradient id="SvgjsRadialGradient342842" cx="126.653" cy="88.227" r="13.678" gradientTransform="matrix(-1.0357 0 0 1.0357 204.6606 -3.2718)" gradientUnits="userSpaceOnUse" class="svga-on-canvas-eyesback-gradient-left-0">
      <stop id="SvgjsStop342843" stop-opacity="1" stop-color="#ffffff" offset="0"/>
      <stop id="SvgjsStop342844" stop-opacity="1" stop-color="#fdfefe" offset="0.544"/>
      <stop id="SvgjsStop342845" stop-opacity="1" stop-color="#f6f8f9" offset="0.74"/>
      <stop id="SvgjsStop342846" stop-opacity="1" stop-color="#eaeff2" offset="0.879"/>
      <stop id="SvgjsStop342847" stop-opacity="1" stop-color="#d9e3e8" offset="0.992"/>
      <stop id="SvgjsStop342848" stop-opacity="1" stop-color="#d8e2e7" offset="1"/>
    </radialGradient>
    <radialGradient id="SvgjsRadialGradient342850" cx="126.654" cy="88.227" r="13.678" gradientTransform="matrix(1.0357 0 0 1.0357 -4.6606 -3.2718)" gradientUnits="userSpaceOnUse" class="svga-on-canvas-eyesback-gradient-right-0">
      <stop id="SvgjsStop342851" stop-opacity="1" stop-color="#ffffff" offset="0"/>
      <stop id="SvgjsStop342852" stop-opacity="1" stop-color="#fdfefe" offset="0.544"/>
      <stop id="SvgjsStop342853" stop-opacity="1" stop-color="#f6f8f9" offset="0.74"/>
      <stop id="SvgjsStop342854" stop-opacity="1" stop-color="#eaeff2" offset="0.879"/>
      <stop id="SvgjsStop342855" stop-opacity="1" stop-color="#d9e3e8" offset="0.992"/>
      <stop id="SvgjsStop342856" stop-opacity="1" stop-color="#d8e2e7" offset="1"/>
    </radialGradient>
    <radialGradient id="SvgjsRadialGradient342858" cx="126.653" cy="88.227" r="13.678" gradientTransform="matrix(-1.0357 0 0 1.0357 204.6606 -3.2718)" gradientUnits="userSpaceOnUse" class="svga-on-canvas-eyesfront-gradient-left-0">
      <stop id="SvgjsStop342859" stop-opacity="1" stop-color="#ffffff" offset="0"/>
      <stop id="SvgjsStop342860" stop-opacity="1" stop-color="#fdfefe" offset="0.544"/>
      <stop id="SvgjsStop342861" stop-opacity="1" stop-color="#f6f8f9" offset="0.74"/>
      <stop id="SvgjsStop342862" stop-opacity="1" stop-color="#eaeff2" offset="0.879"/>
      <stop id="SvgjsStop342863" stop-opacity="1" stop-color="#d9e3e8" offset="0.992"/>
      <stop id="SvgjsStop342864" stop-opacity="1" stop-color="#d8e2e7" offset="1"/>
    </radialGradient>
    <radialGradient id="SvgjsRadialGradient342868" cx="123.012" cy="86.371" fx="135.984" fy="86.407" r="18.449" gradientTransform="matrix(0.9996 0.028 0.0231 -0.8278 -47.9747 154.4321)" gradientUnits="userSpaceOnUse" class="svga-on-canvas-eyesfront-gradient-left-3">
      <stop id="SvgjsStop342869" stop-opacity="1" stop-color="#be8a67" offset="0"/>
      <stop id="SvgjsStop342870" stop-opacity="0.3" stop-color="#be8a67" offset="0.7"/>
      <stop id="SvgjsStop342871" stop-opacity="0" stop-color="#cda184" offset="1"/>
    </radialGradient>
    <radialGradient id="SvgjsRadialGradient342873" cx="73.035" cy="94.844" r="16.125" gradientTransform="matrix(0.9522 -0.0499 0.0499 0.9514 0.1249 7.7016)" gradientUnits="userSpaceOnUse" class="svga-on-canvas-eyesfront-gradient-left-4">
      <stop id="SvgjsStop342874" stop-opacity="0" stop-color="#000000" offset="0.9"/>
      <stop id="SvgjsStop342875" stop-opacity="0.3" stop-color="#000000" offset="1"/>
    </radialGradient>
    <radialGradient id="SvgjsRadialGradient342879" cx="126.654" cy="88.227" r="13.678" gradientTransform="matrix(1.0357 0 0 1.0357 -4.6606 -3.2718)" gradientUnits="userSpaceOnUse" class="svga-on-canvas-eyesfront-gradient-right-0">
      <stop id="SvgjsStop342880" stop-opacity="1" stop-color="#ffffff" offset="0"/>
      <stop id="SvgjsStop342881" stop-opacity="1" stop-color="#fdfefe" offset="0.544"/>
      <stop id="SvgjsStop342882" stop-opacity="1" stop-color="#f6f8f9" offset="0.74"/>
      <stop id="SvgjsStop342883" stop-opacity="1" stop-color="#eaeff2" offset="0.879"/>
      <stop id="SvgjsStop342884" stop-opacity="1" stop-color="#d9e3e8" offset="0.992"/>
      <stop id="SvgjsStop342885" stop-opacity="1" stop-color="#d8e2e7" offset="1"/>
    </radialGradient>
    <radialGradient id="SvgjsRadialGradient342889" cx="123.012" cy="86.371" fx="135.984" fy="86.407" r="18.449" gradientTransform="matrix(-0.9996 0.028 -0.0231 -0.8278 247.9747 154.4321)" gradientUnits="userSpaceOnUse" class="svga-on-canvas-eyesfront-gradient-right-3">
      <stop id="SvgjsStop342890" stop-opacity="1" stop-color="#be8a67" offset="0"/>
      <stop id="SvgjsStop342891" stop-opacity="0.3" stop-color="#be8a67" offset="0.7"/>
      <stop id="SvgjsStop342892" stop-opacity="0" stop-color="#cda184" offset="1"/>
    </radialGradient>
    <radialGradient id="SvgjsRadialGradient342894" cx="73.035" cy="94.844" r="16.125" gradientTransform="matrix(-0.9522 -0.0499 -0.0499 0.9514 199.8751 7.7016)" gradientUnits="userSpaceOnUse" class="svga-on-canvas-eyesfront-gradient-right-4">
      <stop id="SvgjsStop342895" stop-opacity="0" stop-color="#000000" offset="0.9"/>
      <stop id="SvgjsStop342896" stop-opacity="0.3" stop-color="#000000" offset="1"/>
    </radialGradient>
    <linearGradient id="SvgjsLinearGradient342918" x1="100" y1="141" x2="100" y2="138" gradientUnits="userSpaceOnUse" class="svga-on-canvas-mouth-gradient-single-0">
      <stop id="SvgjsStop342919" stop-opacity="1" stop-color="#c59575" offset="0.1"/>
      <stop id="SvgjsStop342920" stop-opacity="1" stop-color="#be8a67" offset="1"/>
    </linearGradient>
    <linearGradient id="SvgjsLinearGradient342946" x1="99.98" y1="171.27" x2="99.98" y2="136.351" gradientUnits="userSpaceOnUse" class="svga-on-canvas-chinshadow-gradient-single-0">
      <stop id="SvgjsStop342947" stop-opacity="0.8" stop-color="#be8a67" offset="0"/>
      <stop id="SvgjsStop342948" stop-opacity="1" stop-color="#9f6037" offset="0.7"/>
    </linearGradient>
  </defs>
  <g id="svga-group-wrapper">
    <g id="svga-group-backs-single">
      <path id="SvgjsPath342805" d="M225,225H-25V-25h250V225z" fill="#88a65e" stroke-width="none" opacity="1" stroke="none"/>
      <path id="SvgjsPath342806" d="M55.036,79.068h-29v-26h29V79.068z M84.203,33H43.536v33.068h40.667V33z M63.869,99.999H100V56.401H63.869V99.999z M76.869,95.734H40.536v31.333h36.333V95.734z M175.536,13.401H126v56.667h49.536V13.401z M119.536,39.068h-12v14h12V39.068z M155.818-4.266h-48.282v28.667h48.282V-4.266z M100,5.734H74v36h26V5.734z M40.536,8.401h-14.5v15.333h14.5V8.401z M21.171,33H-1.246v34.434h22.417V33z M47.536,99.999H8.203v43.735h39.333V99.999z M26.036,173.734h44.167v-26H26.036V173.734z M131.536,163.734H100.5v22.667h31.037V163.734z M206.792,141.067h-28.718v34h28.718V141.067z M159.536,156.491h-24.667v22.667h24.667V156.491z M183.178,111.733h-35.975v40.668h35.975V111.733z M192.202,181.734h-44.999v29.333h44.999V181.734z M43.536,163.734H-5.262v44h48.797V163.734z M202.869,53.068h-33.166v26h33.166V53.068z M183.178,90.401h-14.359v14.835h14.359V90.401z M-5.262,118h27.339V79.299H-5.262V118z M33.493-5.599l-49.291,1.333V33h49.291V-5.599z M211.536-4.266h-32v40.667h32V-4.266z M61-8.266H47.536v29.333H61V-8.266z M208.869,97.818h-32.871v26.667h32.871V97.818z" fill="#759746" stroke="#92ae6b" stroke-width="0.5" opacity="1"/>
    </g>
    <g id="svga-group-humanwrap-move" transform="matrix(1,0,0,1,0,0)">
      <g id="svga-group-humanwrap" transform="matrix(1,0,0,1,0,0)">
        <g id="svga-group-hair-back-move" transform="matrix(1,0,0,1,0,0)">
          <g id="svga-group-hair-back" transform="matrix(1,0,0,1,0,0)">
            <path id="SvgjsPath342818" d="M100.5,100.5h-1v-1h1V100.5z" fill="#d6c4c4" stroke-width="none" opacity="1" stroke="none"/>
          </g>
        </g>
        <g id="svga-group-humanbody-single">
          <path id="SvgjsPath342659" d="M190.858 199.866c-6.008-10.158-13.474-11.973-19.628-13.936 -6.323-2.016-19.346-3.178-26.449-4.6 -6.86-1.373-23.153-5.789-23.339-13.488 -0.192-8.066 4.291-40.09 4.291-40.09H74.005c0 0 4.487 32.023 4.294 40.09 -0.184 7.699-16.48 12.115-23.341 13.488 -7.104 1.422-20.125 2.584-26.448 4.6 -6.156 1.963-13.624 3.777-19.632 13.936 -3.644 6.16-6.008 16.133-6.008 27.133h194C196.869 215.999 194.509 206.026 190.858 199.866z" fill="#cda184" stroke-width="none" opacity="1" stroke="none"/>
          <path id="SvgjsPath342660" d="M121.442 167.843c2.495 10.929 18.165 13.698 26.293 15.325 21.909 4.379 33.772 5.134 42.297 19.539 2.903 4.916 5.459 15.864 5.962 24.153 1.835 0.291 0.531-17.432-5.136-26.994 -9.742-16.472-29.089-15.135-46.077-18.535C137.921 179.958 121.628 175.542 121.442 167.843L121.442 167.843zM78.558 167.843c-0.186 7.699-16.479 12.115-23.339 13.488 -16.988 3.4-36.335 2.063-46.077 18.535 -5.667 9.563-6.971 27.285-5.136 26.994 0.503-8.289 3.059-19.237 5.962-24.153 8.524-14.405 20.388-15.16 42.297-19.539C60.393 181.541 76.063 178.771 78.558 167.843L78.558 167.843z" fill="#dcbaa4" stroke-width="none" opacity="1" stroke="none"/>
          <path id="SvgjsPath342661" d="M51.206 189.513c0 0 28.641 0.299 33.473 1.885 2.314 0.758 8.372 5.633 8.372 5.633s-6.556-3.17-8.658-3.758C79.51 191.909 51.206 189.513 51.206 189.513zM99.795 199.999c2.053-0.041 7.887-3.799 7.887-3.799s-5.574 2.059-7.342 2.16c-1.491 0.086-6.366-1.238-6.366-1.238S98.112 200.032 99.795 199.999zM117.008 192.757c6.75-1.818 29.786-3.23 29.786-3.23s-23.791-0.516-30.51 1.725c-2.252 0.752-7.562 5.16-7.562 5.16S114.786 193.354 117.008 192.757z" fill="#be8a67" stroke-width="none" opacity="1" stroke="none"/>
          <path id="SvgjsPath342662" d="M190.858 199.866c-9.741-16.471-29.122-15.142-46.077-18.535 -6.86-1.373-23.153-5.789-23.339-13.488 -0.192-8.066 4.291-40.09 4.291-40.09H74.005c0 0 4.487 32.023 4.294 40.09 -0.184 7.699-16.48 12.115-23.341 13.488 -7.104 1.422-20.125 2.584-26.448 4.6 -6.156 1.963-13.624 3.777-19.632 13.936 -3.644 6.16-6.008 16.133-6.008 27.133h194C196.869 215.999 194.509 206.026 190.858 199.866z" fill="none" stroke="#9f6037" stroke-width="1.5" opacity="1"/>
        </g>
        <g id="svga-group-chinshadow-single">
          <path id="SvgjsPath342945" d="M100.045 171.737c5.593-0.009 13.488-3.608 20.908-8.44 0.448-6.688 1.717-17.243 2.734-25.146 -13.955-1.813-33.739-1.771-47.623 0.105 1.008 7.831 2.258 18.226 2.713 24.89C86.31 168.063 94.37 171.746 100.045 171.737z" fill="url(#SvgjsLinearGradient342946)" opacity="1"/>
        </g>
        <g id="svga-group-clothes-single">
          <path id="SvgjsPath342932" d="M36.917 226.987c-12.142-0.106-34.504-0.481-34.504-0.481 -1.001-13.221 2.596-27.552 13.625-35.288 12.837-8.999 26.79-7.649 37.699-10.586 1 0.851 7.132 5.092 15.783 8.984 17.875 8.037 35.664 11.938 66.937 18.887 7.121-21.609 8.549-27.237 8.753-28.237 0.012 0.039 1.217-0.015 1.259-0.015 0.868 0 1.157 0.083 1.898 0.661 1.372-0.662 2.97-0.267 3.693 0.703 -3.046 12.205 4.021 43.22 4.021 45.2C138.413 226.815 120.95 227.716 36.917 226.987z" fill="#ef5d25" stroke-width="none" opacity="1" stroke="none"/>
          <path id="SvgjsPath342933" d="M2.319 226.605c-0.842-13.045 3.389-27.448 14.244-35.063 12.837-8.999 26.263-7.477 37.172-10.413 0.146 0.124 1.683 0.998 2.04 1.256C17.586 186.399 4.214 199.521 2.319 226.605zM152.059 181.615c-0.144-0.192-0.329-0.354-0.532-0.498 -0.395-0.277-0.88-0.454-1.405-0.507 -0.572-0.058-1.183 0.025-1.756 0.302 -0.372-0.29-0.631-0.455-0.905-0.548 -0.272-0.092-0.562-0.113-0.993-0.113 -0.002 0-0.016 0-0.021 0.001 -0.123 0.004-1.227 0.051-1.238 0.014 -0.057 0.275 0.368-0.521 0.033 0.692 0.512 2.387-0.894 6.45-3.241 22.042 4.722-16.694 5.029-20.603 6.493-21.467 1.563 1.452-0.73 13.11 1.507 26.467 -0.506-8.89-0.193-24.89 1.863-25.892C151.976 181.263 151.878 182.339 152.059 181.615zM47.247 183.5c9.949 11.154 13.767 13.82 35.127 21.874C60.79 195.24 60.259 195.633 47.247 183.5zM52.952 182.397c14.55 15.296 34.438 21.115 65.001 29.648C84.391 201.231 67.467 196.433 52.952 182.397z" fill="#fe7541" stroke-width="none" opacity="1" stroke="none"/>
          <path id="SvgjsPath342934" d="M148.378 180.795c-0.229-0.18-0.719-0.509-1.068-0.579 -0.62-0.14-2.07-0.019-2.2 0.031 -1.778 9.483-5.687 19.042-8.721 28.139 -27.713-6.149-62.451-12.981-82.68-27.851 -15.189 4.111-53.002-0.132-51.41 45.681 0 0.13 0.01 0.26 0.02 0.39 0 0 56.588 0.76 56.59 0.76 27.246 0.539 96.468-0.45 97.47-0.45 0-9.142-6.396-31.019-4.24-45.359C151.432 180.605 149.782 180.116 148.378 180.795zM155.811 226.476c-54.167-1.382-122.589-1.144-153.231-0.271 0.987-44.587 35.332-39.994 51.72-44.38 20.665 15.798 56.059 22.312 82 26.87 -1.166 3.355-2.854 8.168-4.6 11.87 4.504-7.593 12.158-29.512 13.76-39.7 1.52-0.324 2.495 0.128 2.74 0.49 -1.521 7.91-2.222 15.998-3.53 24.079 2.125-10.09 2.051-11.999 4.3-24.339 0.561-0.08 1.141-0.051 1.721 0.109 0.46 0.2 0.62 0.48 0.91 0.811C149.588 191.271 152.864 208.45 155.811 226.476z" fill="#c13600" stroke-width="none" opacity="1" stroke="none"/>
        </g>
        <g id="svga-group-head" transform="matrix(1,0,0,1,0,0)">
          <g id="svga-group-ears-left-move" transform="matrix(1,0,0,1,0,0)">
            <g id="svga-group-ears-left" transform="matrix(1,0,0,1,0,0)">
              <path id="SvgjsPath342927" d="M47.218 82.634c-0.967-2.31-8.082-5.576-11.21-5.06 -3.538 0.583-4.838 4.047-4.369 6.612 1.103 6.025 3.996 8.563 5.296 13.268 1.096 3.97 3.433 6.253 4.588 7.938 1.42 2.07 2.73 6.818 3.023 7.512 0.463 1.096 2.103 3.757 5.002 3.619 3.333-0.16 7.545-6.211 7.614-7.557C57.544 101.679 49.733 88.647 47.218 82.634z" fill="#cda184" stroke="#9f6037" stroke-width="1.5" opacity="1"/>
              <path id="SvgjsPath342928" d="M47.953 107.204c0 0 0.429-0.995-0.094-1.879 -0.672-1.134-2.423-3.219-2.821-4.467 -0.325-1.021-0.16-3.2-0.213-4.266 -0.094-1.886-1.492-3.177-1.927-4.26 -2.914-7.238-6.792-11.723-9-12.656 -1.633 3.705-0.339 6.416 1.94 12.116 -1.375-7.748-0.054-10.17-0.054-10.17S39.803 84.842 41.786 92c0.359 1.292-1.111 3.988-0.83 5.299 0.352 1.646 4.184 4.83 5.257 6.163C47.049 104.5 47.953 107.204 47.953 107.204z" fill="#9f6037" stroke-width="none" opacity="1" stroke="none"/>
            </g>
          </g>
          <g id="svga-group-ears-right-move" transform="matrix(1,0,0,1,0,0)">
            <g id="svga-group-ears-right" transform="matrix(1,0,0,1,0,0)">
              <path id="SvgjsPath342929" d="M152.52 82.634c0.967-2.31 8.082-5.576 11.211-5.06 3.539 0.583 4.838 4.047 4.369 6.612 -1.104 6.025-3.996 8.563-5.297 13.268 -1.096 3.97-3.434 6.253-4.588 7.938 -1.42 2.07-2.73 6.818-3.023 7.512 -0.463 1.096-2.104 3.757-5.002 3.619 -3.332-0.16-7.545-6.211-7.613-7.557C142.193 101.679 150.006 88.647 152.52 82.634z" fill="#cda184" stroke="#9f6037" stroke-width="1.5" opacity="1"/>
              <path id="SvgjsPath342930" d="M151.785 107.204c0 0-0.43-0.995 0.094-1.879 0.672-1.134 2.424-3.219 2.82-4.467 0.324-1.021 0.16-3.2 0.215-4.266 0.094-1.886 1.49-3.177 1.926-4.26 2.914-7.238 6.793-11.723 9-12.656 1.633 3.705 0.338 6.416-1.939 12.116 1.375-7.748 0.053-10.17 0.053-10.17s-4.018 3.219-6.002 10.376c-0.357 1.292 1.111 3.988 0.83 5.299 -0.352 1.646-4.184 4.83-5.256 6.163C152.689 104.5 151.785 107.204 151.785 107.204z" fill="#9f6037" stroke-width="none" opacity="1" stroke="none"/>
            </g>
          </g>
          <g id="svga-group-faceshape-wrap" transform="matrix(1,0,0,1,0,0)">
            <g id="svga-group-faceshape-single">
              <path id="SvgjsPath342942" d="M158.918 76.762l-0.005 0c-0.012 0.053-9.983 40.707-18.186 53.285 -6.452 9.894-28.899 29.205-40.573 29.223 -11.671 0.02-34.17-19.225-40.652-29.1C51.261 117.618 41.15 77 41.138 76.946h-0.001c-1.298-4.911-1.994-10.066-2.002-15.382C39.082 28.09 66.289 0.919 99.907 0.867c33.621-0.052 60.913 27.033 60.963 60.507C160.879 66.69 160.201 71.846 158.918 76.762z" fill="#cda184" stroke-width="none" opacity="1" stroke="none"/>
              <path id="SvgjsPath342943" d="M125.898 6.622c19.104 10.248 32.075 30.355 32.039 53.476 -0.009 5.316-0.704 10.471-2.003 15.382h-0.001c-0.012 0.053-10.123 40.672-18.365 53.224 -5.946 9.061-25.288 28.788-37.566 28.788 -12.279 0-31.619-19.728-37.566-28.788 -8.241-12.552-18.353-53.17-18.364-53.224H44.07c-1.298-4.911-1.994-10.066-2.002-15.382C42.031 36.977 55.003 16.87 74.105 6.622 53.411 16.324 39.096 37.28 39.134 61.564c0.008 5.316 0.704 10.471 2.002 15.382h0.001C41.15 77 51.261 117.618 59.503 130.17c4.416 6.728 16.656 19.762 27.233 25.049 -0.529-0.226-1.062-0.466-1.599-0.717 5.408 2.875 10.664 4.763 14.713 4.768 0.049 0 0.103-0.005 0.152-0.005s0.103 0.005 0.152 0.005c4.048-0.005 9.304-1.893 14.713-4.768 -0.538 0.253-1.071 0.491-1.601 0.718 10.577-5.287 22.818-18.322 27.234-25.05 8.242-12.552 18.354-53.17 18.364-53.224h0.002c1.298-4.911 1.994-10.066 2.002-15.382C160.908 37.28 146.595 16.324 125.898 6.622z" fill="#c59575" stroke-width="none" opacity="1" stroke="none"/>
              <path id="SvgjsPath342944" d="M158.918 76.762l-0.005 0c-0.012 0.053-9.983 40.707-18.186 53.285 -6.452 9.894-28.899 29.205-40.573 29.223 -11.671 0.02-34.17-19.225-40.652-29.1C51.261 117.618 41.15 77 41.138 76.946h-0.001c-1.298-4.911-1.994-10.066-2.002-15.382C39.082 28.09 66.289 0.919 99.907 0.867c33.621-0.052 60.913 27.033 60.963 60.507C160.879 66.69 160.201 71.846 158.918 76.762z" fill="none" stroke="#9f6037" stroke-width="1.5" opacity="1"/>
            </g>
          </g>
          <g id="svga-group-mouth-single-move" transform="matrix(1,0,0,1,0,0)">
            <g id="svga-group-mouth-single" transform="matrix(1,0,0,1,0,0)">
              <path id="SvgjsPath342917" d="M100.091 139.322c-4.952 0-6.142-3.033-6.142-3.033 6.246 2.316 11.836-0.124 11.836-0.124S104.446 139.322 100.091 139.322z" fill="url(#SvgjsLinearGradient342918)" opacity="1"/>
              <path id="SvgjsPath342921" d="M85.595 129.671c2.677-0.132 7.545-1.077 10.096-0.988 1.319 0.046 2.63 0.953 4.007 1.242 0.958 0.202 3.935-1.1 4.915-1.162 2.572-0.162 7.409 0.744 9.771 0.92 0.13 0.011 0 0 0 0s-5.776 7.727-14.463 7.725C90.09 137.406 85.595 129.671 85.595 129.671S85.463 129.678 85.595 129.671z" fill="#a96a47" stroke="#9a5731" stroke-width="0.75" opacity="1"/>
              <path id="SvgjsPath342922" d="M114.739 129.405c-0.045-0.131-0.461-0.189-0.624-0.139 -0.3 0.094-0.663 0.521-1.313 0.686 -0.748 0.191-5.021 1.431-6.193 1.49 -2.365 0.118-4.438 0.943-6.76 0.938 -2.323-0.005-4.34-0.929-6.716-1.058 -1.18-0.065-5.194-1.216-5.947-1.4 -0.65-0.16-0.89-0.574-1.162-0.686 -0.189-0.077-0.652-0.02-0.743 0.105 -0.079 0.107 0.088 0.609 0.2 0.75 0.271 0.336 1.103 0.506 1.667 0.647 0.779 0.199 4.759 1.366 5.949 1.433 2.305 0.13 4.308 1.125 6.612 1.127 2.306 0.003 4.405-0.904 6.729-1.022 1.195-0.062 5.53-1.313 6.332-1.513 0.58-0.146 1.388-0.399 1.672-0.68C114.58 129.95 114.785 129.538 114.739 129.405z" fill="#7b350f" stroke-width="none" opacity="1" stroke="none"/>
              <path id="SvgjsPath342923" d="M99.799 136.138c-3.914 0-7.707-1.246-10.289-3.693 1.36 0.19 2.83 0.207 4.269 0.403 1.773 0.242 3.429 0.921 5.248 1.034 1.968 0.125 3.916-0.495 5.886-0.841 1.644-0.289 4.21-1.067 5.742-1.302C107.729 133.982 103.577 136.138 99.799 136.138zM105.256 131.043c1.49-0.149 3.855-0.879 5.226-1.04 -1.406-0.413-3.829-0.279-5.576-0.441 -1.506-0.139-3.244 0.861-4.817 1.016 -1.774 0.175-2.94-1.233-4.607-1.369 -1.809-0.147-3.787 0.559-5.336 0.915 1.387 0.188 2.877 0.239 4.309 0.517 1.753 0.341 3.405 0.992 5.223 1.054C101.537 131.757 103.419 131.226 105.256 131.043z" fill="#b87f60" stroke-width="none" opacity="1" stroke="none"/>
              <path id="SvgjsPath342924" d="M105.695 133.406c-0.308 0.01-0.625 0.025-0.93 0.051 -0.351 0.028-0.668 0.069-0.961 0.123 -0.538 0.099-1.074 0.233-1.638 0.369 -0.888 0.216-1.726 0.392-2.662 0.391 -0.15 0-0.301-0.007-0.452-0.017 -0.764-0.055-1.521-0.217-2.191-0.412 -0.693-0.204-1.353-0.401-2.019-0.492 -0.128-0.017-0.259-0.029-0.387-0.042 -0.409-0.036-0.836-0.052-1.255-0.063 1.734 1.396 4.128 2.038 6.468 2.041C102.079 135.356 103.946 134.512 105.695 133.406z" fill="#c8977c" stroke-width="none" opacity="1" stroke="none"/>
            </g>
          </g>
          <g id="svga-group-eyes-left-move" transform="matrix(1,0,0,1,0,0)">
            <g id="svga-group-eyes-left" transform="matrix(1,0,0,1,0,0)">
              <g id="svga-group-eyesback-left">
                <path id="SvgjsPath342841" d="M74.285 78.051c2.405 0.037 5.43 0.584 8.73 2.542 2.382 1.412 3.481 3.918 4.146 6.074 0.051 1.025 0.034 2.001-0.015 2.872 -0.498 3.228-1.36 5.328-3.214 7.521 -0.523 0.413-1.124 0.765-1.814 0.984 -0.186 0.059-0.518-0.332-1.056-0.316 -1.889 0.053-5.997-0.058-7.633-0.029 -3.664 0.063-5.617 0-7.388-0.682 -1.779-0.685-3.124-3.201-4.519-7.747 -0.315-1.029-0.714-3.565-0.183-4.71C63.753 79.354 70.382 77.991 74.285 78.051z" fill="url(#SvgjsRadialGradient342842)" opacity="1"/>
              </g>
              <g id="svga-group-eyesiriswrapper-left" transform="matrix(1,0,0,1,-0.5,1.5)">
                <g id="svga-group-eyesiriscontrol-left" transform="matrix(1,0,0,1,0,0)">
                  <g id="svga-group-eyesiris-left" transform="matrix(1,0,0,1,0,0)">
                    <path id="SvgjsPath342899" d="M85.129 90.705c-1.521 7.45-7.283 11.838-12.882 9.792 -5.594-2.044-8.899-9.75-7.376-17.2 1.521-7.454 7.296-11.841 12.89-9.794C83.351 75.546 86.652 83.251 85.129 90.705z" fill="#00f0f1" stroke="#00c2c3" stroke-width="0.5" opacity="1"/>
                    <path id="SvgjsPath342900" d="M83.496 90.879c-1.484 5.719-5.964 9.057-10.323 7.465 -4.024-1.474-6.565-6.625-6.235-12.067 1.495-0.156 3.126-0.205 4.822-0.093 -0.017 0.078-0.047 0.145-0.063 0.225 -0.533 2.626 0.713 5.377 2.787 6.138 2.081 0.759 4.202-0.764 4.738-3.387 0.066-0.343 0.103-0.687 0.113-1.025C80.757 88.826 82.153 89.72 83.496 90.879z" fill="#19feff" stroke-width="none" opacity="1" stroke="none"/>
                    <path id="SvgjsPath342901" d="M76.421 82.826c-2.102-0.804-4.249 0.797-4.791 3.59 -0.544 2.781 0.721 5.689 2.823 6.493 2.107 0.805 4.254-0.797 4.797-3.577C79.798 86.537 78.527 83.627 76.421 82.826zM76.882 92.7c-0.875 0.362-1.78-0.119-2.021-1.079 -0.232-0.958 0.286-2.022 1.167-2.377 0.881-0.362 1.782 0.12 2.025 1.073C78.29 91.271 77.769 92.337 76.882 92.7z" fill="#000000" stroke-width="none" opacity="0.9"/>
                    <path id="SvgjsPath342902" d="M69.42 94.372c-0.648 0.518-1.613 0.056-2.168-1.042 -0.554-1.088-0.47-2.391 0.181-2.911 0.641-0.51 1.618-0.047 2.168 1.042C70.145 92.551 70.067 93.855 69.42 94.372z" fill="#ffffff" stroke-width="none" opacity="0.6"/>
                    <path id="SvgjsPath342903" d="M83.243 86.395c-1.481 1.181-3.707 0.116-4.966-2.38 -1.26-2.5-1.07-5.489 0.41-6.667 1.478-1.188 3.704-0.123 4.958 2.378C84.904 82.226 84.723 85.209 83.243 86.395z" fill="#ffffff" stroke-width="none" opacity="0.9"/>
                  </g>
                </g>
              </g>
              <g id="svga-group-eyesfront-left">
                <path id="SvgjsPath342866" d="M55 88c0 13.808 8.507 24.999 19 24.999S93 101.808 93 88c0-13.809-8.507-25.001-19-25.001S55 74.191 55 88zM61.524 89.269c-0.315-1.029-0.714-3.565-0.183-4.71 2.411-5.206 9.04-6.568 12.943-6.508 2.405 0.037 5.43 0.584 8.73 2.542 2.382 1.412 3.481 3.918 4.146 6.074 0.051 1.025 0.034 2.001-0.015 2.872 -0.498 3.228-1.36 5.328-3.214 7.521 -0.523 0.413-1.124 0.765-1.814 0.984 -0.186 0.059-0.518-0.332-1.056-0.316 -1.889 0.053-5.997-0.058-7.633-0.029 -3.664 0.063-5.617 0-7.388-0.682C64.264 96.331 62.919 93.815 61.524 89.269z" fill="#cda184" stroke-width="none" opacity="1" stroke="none"/>
                <path id="SvgjsPath342867" d="M59.4 87.087c0.023 8.835 7.871 15.959 17.541 15.912 9.664-0.05 17.482-7.249 17.459-16.085 -0.023-8.838-7.873-15.962-17.541-15.915C67.191 71.049 59.375 78.248 59.4 87.087zM61.425 89.269c-0.315-1.029-0.714-3.565-0.183-4.71 2.411-5.206 9.04-6.568 12.943-6.508 2.405 0.037 5.43 0.584 8.73 2.542 2.382 1.412 3.481 3.918 4.146 6.074 0.051 1.025 0.034 2.001-0.015 2.872 -0.498 3.228-1.36 5.328-3.214 7.521 -0.523 0.413-1.124 0.765-1.814 0.984 -0.186 0.059-0.518-0.332-1.056-0.316 -1.889 0.053-5.997-0.058-7.633-0.029 -3.664 0.063-5.617 0-7.388-0.682C64.164 96.331 62.819 93.815 61.425 89.269z" fill="url(#SvgjsRadialGradient342868)" opacity="1"/>
                <path id="SvgjsPath342872" d="M74.285 78.051c2.405 0.037 5.43 0.584 8.73 2.542 2.382 1.412 3.481 3.918 4.146 6.074 0.051 1.025 0.034 2.001-0.015 2.872 -0.498 3.228-1.36 5.328-3.214 7.521 -0.523 0.413-1.124 0.765-1.814 0.984 -0.186 0.059-0.518-0.332-1.056-0.316 -1.889 0.053-5.997-0.058-7.633-0.029 -3.664 0.063-5.617 0-7.388-0.682 -1.779-0.685-3.124-3.201-4.519-7.747 -0.315-1.029-0.714-3.565-0.183-4.71C63.753 79.354 70.382 77.991 74.285 78.051z" fill="url(#SvgjsRadialGradient342873)" opacity="1"/>
                <path id="SvgjsPath342876" d="M62.929 75.008c3.48-1.16 13.972-1.121 18.53 1.682C75.11 74.179 69.218 74.275 62.929 75.008zM84.433 77.843c1.651 0.614 2.711 1.961 3.462 3.018C86.797 79.697 85.264 78.468 84.433 77.843z" fill="#9f6037" stroke-width="none" opacity="1" stroke="none"/>
                <path id="SvgjsPath342877" d="M89.427 83.939l-3.419-2.076c0 0 1.154 1.526 1.154 4.824 -0.665-2.123-1.765-4.592-4.146-5.983 -3.301-1.928-6.325-2.467-8.73-2.503 -3.903-0.06-10.532 1.283-12.943 6.411 -0.531 1.128-0.133 3.626 0.183 4.64 1.395 4.478 2.739 6.957 4.519 7.632 1.771 0.672 3.724 0.733 7.388 0.671 1.636-0.028 5.744 0.081 7.633 0.029 0.538-0.015 1.014 0.123 1.056 0.312 0.041 0.189-0.395 0.357-0.934 0.388 -2.036 0.114-3.359 0.311-8.537 0.311 -4.591 0-6.316-0.105-7.461-0.574 -1.544-0.632-2.398-2.7-4.601-9.561 -2.888-4.32-5.457-7.39-8.587-9.511l4.988 1.574c-0.918-1.097-1.854-2.061-3.828-3.673 4.084 0.439 5.593 0.581 8.603 0.113 4.769-0.742 7.774-0.87 12.095-0.714C80.361 77.261 85.175 79.412 89.427 83.939zM83.87 97.003c2.504-1.659 3.292-4.259 3.292-7.569C86.66 92.701 85.787 94.795 83.87 97.003z" fill="#5fa2a5" stroke-width="none" opacity="1" stroke="none"/>
              </g>
            </g>
          </g>
          <g id="svga-group-eyes-right-move" transform="matrix(1,0,0,1,0,0)">
            <g id="svga-group-eyes-right" transform="matrix(1,0,0,1,0,0)">
              <g id="svga-group-eyesback-right">
                <path id="SvgjsPath342849" d="M125.715 78.051c-2.405 0.037-5.43 0.584-8.73 2.542 -2.382 1.412-3.481 3.918-4.146 6.074 -0.051 1.025-0.034 2.001 0.015 2.872 0.498 3.228 1.36 5.328 3.214 7.521 0.523 0.413 1.124 0.765 1.814 0.984 0.186 0.059 0.518-0.332 1.056-0.316 1.889 0.053 5.997-0.058 7.633-0.029 3.664 0.063 5.617 0 7.388-0.682 1.779-0.685 3.124-3.201 4.519-7.747 0.315-1.029 0.714-3.565 0.183-4.71C136.247 79.354 129.618 77.991 125.715 78.051z" fill="url(#SvgjsRadialGradient342850)" opacity="1"/>
              </g>
              <g id="svga-group-eyesiriswrapper-right" transform="matrix(1,0,0,1,0.5,1.5)">
                <g id="svga-group-eyesiriscontrol-right" transform="matrix(1,0,0,1,0,0)">
                  <g id="svga-group-eyesiris-right" transform="matrix(1,0,0,1,0,0)">
                    <path id="SvgjsPath342904" d="M135.129 90.705c-1.521 7.45-7.283 11.838-12.882 9.792 -5.594-2.044-8.899-9.75-7.376-17.2 1.521-7.454 7.296-11.841 12.89-9.794C133.351 75.546 136.652 83.251 135.129 90.705z" fill="#00f0f1" stroke="#00c2c3" stroke-width="0.5" opacity="1"/>
                    <path id="SvgjsPath342905" d="M133.496 90.879c-1.484 5.719-5.964 9.057-10.323 7.465 -4.024-1.474-6.565-6.625-6.235-12.067 1.495-0.156 3.126-0.205 4.822-0.093 -0.017 0.078-0.047 0.145-0.063 0.225 -0.533 2.626 0.713 5.377 2.787 6.138 2.081 0.759 4.202-0.764 4.738-3.387 0.066-0.343 0.103-0.687 0.113-1.025C130.757 88.826 132.153 89.72 133.496 90.879z" fill="#19feff" stroke-width="none" opacity="1" stroke="none"/>
                    <path id="SvgjsPath342906" d="M126.421 82.826c-2.102-0.804-4.249 0.797-4.791 3.59 -0.544 2.781 0.721 5.689 2.823 6.493 2.107 0.805 4.254-0.797 4.797-3.577C129.798 86.537 128.527 83.627 126.421 82.826zM126.882 92.7c-0.875 0.362-1.78-0.119-2.021-1.079 -0.232-0.958 0.286-2.022 1.167-2.377 0.881-0.362 1.782 0.12 2.025 1.073C128.29 91.271 127.769 92.337 126.882 92.7z" fill="#000000" stroke-width="none" opacity="0.9"/>
                    <path id="SvgjsPath342907" d="M119.42 94.372c-0.648 0.518-1.613 0.056-2.168-1.042 -0.554-1.088-0.47-2.391 0.181-2.911 0.641-0.51 1.618-0.047 2.168 1.042C120.145 92.551 120.067 93.855 119.42 94.372z" fill="#ffffff" stroke-width="none" opacity="0.6"/>
                    <path id="SvgjsPath342908" d="M133.243 86.395c-1.481 1.181-3.707 0.116-4.966-2.38 -1.26-2.5-1.07-5.489 0.41-6.667 1.478-1.188 3.704-0.123 4.958 2.378C134.904 82.226 134.723 85.209 133.243 86.395z" fill="#ffffff" stroke-width="none" opacity="0.9"/>
                  </g>
                </g>
              </g>
              <g id="svga-group-eyesfront-right">
                <path id="SvgjsPath342887" d="M126 62.999c-10.493 0-19 11.193-19 25.001 0 13.808 8.507 24.999 19 24.999S145 101.808 145 88C145 74.191 136.493 62.999 126 62.999zM133.957 97.016c-1.771 0.682-3.724 0.744-7.388 0.682 -1.636-0.028-5.744 0.083-7.633 0.029 -0.538-0.015-0.87 0.375-1.056 0.316 -0.69-0.219-1.291-0.571-1.814-0.984 -1.854-2.192-2.716-4.293-3.214-7.521 -0.049-0.871-0.065-1.847-0.015-2.872 0.665-2.155 1.765-4.662 4.146-6.074 3.301-1.957 6.325-2.504 8.73-2.542 3.903-0.061 10.532 1.302 12.943 6.508 0.531 1.145 0.133 3.681-0.183 4.71C137.081 93.815 135.736 96.331 133.957 97.016z" fill="#cda184" stroke-width="none" opacity="1" stroke="none"/>
                <path id="SvgjsPath342888" d="M123.141 70.999c-9.668-0.047-17.518 7.077-17.541 15.915 -0.023 8.836 7.795 16.035 17.459 16.085 9.67 0.047 17.518-7.077 17.541-15.912C140.625 78.248 132.809 71.049 123.141 70.999zM134.057 97.016c-1.771 0.682-3.724 0.744-7.388 0.682 -1.636-0.028-5.744 0.083-7.633 0.029 -0.538-0.015-0.87 0.375-1.056 0.316 -0.69-0.219-1.291-0.571-1.814-0.984 -1.854-2.192-2.716-4.293-3.214-7.521 -0.049-0.871-0.065-1.847-0.015-2.872 0.665-2.155 1.765-4.662 4.146-6.074 3.301-1.957 6.325-2.504 8.73-2.542 3.903-0.061 10.532 1.302 12.943 6.508 0.531 1.145 0.133 3.681-0.183 4.71C137.181 93.815 135.836 96.331 134.057 97.016z" fill="url(#SvgjsRadialGradient342889)" opacity="1"/>
                <path id="SvgjsPath342893" d="M125.715 78.051c-2.405 0.037-5.43 0.584-8.73 2.542 -2.382 1.412-3.481 3.918-4.146 6.074 -0.051 1.025-0.034 2.001 0.015 2.872 0.498 3.228 1.36 5.328 3.214 7.521 0.523 0.413 1.124 0.765 1.814 0.984 0.186 0.059 0.518-0.332 1.056-0.316 1.889 0.053 5.997-0.058 7.633-0.029 3.664 0.063 5.617 0 7.388-0.682 1.779-0.685 3.124-3.201 4.519-7.747 0.315-1.029 0.714-3.565 0.183-4.71C136.247 79.354 129.618 77.991 125.715 78.051z" fill="url(#SvgjsRadialGradient342894)" opacity="1"/>
                <path id="SvgjsPath342897" d="M118.541 76.689c4.559-2.803 15.05-2.842 18.53-1.682C130.782 74.275 124.89 74.179 118.541 76.689zM112.105 80.861c0.751-1.057 1.811-2.404 3.462-3.018C114.736 78.468 113.203 79.697 112.105 80.861z" fill="#9f6037" stroke-width="none" opacity="1" stroke="none"/>
                <path id="SvgjsPath342898" d="M126.143 76.247c4.32-0.156 7.326-0.028 12.095 0.714 3.01 0.468 4.519 0.327 8.603-0.113 -1.974 1.612-2.91 2.576-3.828 3.673L148 78.947c-3.13 2.121-5.699 5.191-8.587 9.511 -2.202 6.861-3.057 8.929-4.601 9.561 -1.145 0.469-2.87 0.574-7.461 0.574 -5.178 0-6.501-0.197-8.537-0.311 -0.539-0.03-0.975-0.199-0.934-0.388 0.042-0.188 0.518-0.327 1.056-0.312 1.889 0.052 5.997-0.057 7.633-0.029 3.664 0.062 5.617 0 7.388-0.671 1.779-0.675 3.124-3.154 4.519-7.632 0.315-1.014 0.714-3.512 0.183-4.64 -2.411-5.128-9.04-6.47-12.943-6.411 -2.405 0.037-5.43 0.576-8.73 2.503 -2.382 1.391-3.481 3.86-4.146 5.983 0-3.297 1.154-4.824 1.154-4.824l-3.419 2.076C114.825 79.412 119.639 77.261 126.143 76.247zM112.838 89.434c0 3.31 0.788 5.91 3.292 7.569C114.213 94.795 113.34 92.701 112.838 89.434z" fill="#5fa2a5" stroke-width="none" opacity="1" stroke="none"/>
              </g>
            </g>
          </g>
          <g id="svga-group-facehighlight-single">
            <path id="SvgjsPath342651" d="M140.204 113.007c0.035 22.275-17.995 40.365-40.273 40.396 -22.274 0.036-40.361-17.993-40.396-40.272C59.501 90.857 77.53 72.77 99.808 72.735 122.083 72.701 140.171 90.73 140.204 113.007z" fill="url(#SvgjsRadialGradient342652)" opacity="1"/>
            <path id="SvgjsPath342655" d="M135,55.999c0,19.329-15.671,35-35,35c-19.329,0-35-15.671-35-35s15.671-35,35-35C119.329,20.999,135,36.67,135,55.999z" fill="url(#SvgjsRadialGradient342656)" opacity="1"/>
          </g>
          <g id="svga-group-eyebrows-left-move" transform="matrix(1,0,0,1,0,0)">
            <g id="svga-group-eyebrows-left-rotate" transform="matrix(1,0,0,1,0,0)">
              <g id="svga-group-eyebrows-left" transform="matrix(1,0,0,1,0,0)">
                <path id="SvgjsPath342909" d="M56.113 70.739c32.178-9.407 39.48 9.836 32.802 3.849C81.977 68.368 65.958 68.92 56.113 70.739z" fill="#d6c4c4" stroke-width="none" opacity="1" stroke="none"/>
              </g>
            </g>
          </g>
          <g id="svga-group-eyebrows-right-move" transform="matrix(1,0,0,1,0,0)">
            <g id="svga-group-eyebrows-right-rotate" transform="matrix(1,0,0,1,0,0)">
              <g id="svga-group-eyebrows-right" transform="matrix(1,0,0,1,0,0)">
                <path id="SvgjsPath342910" d="M143.889 70.731c-9.304-1.701-22.773-2.38-30.946 2.53 -1.01 0.606-5.017 4.041-3.951 1.625C110.929 70.486 123.744 64.882 143.889 70.731z" fill="#d6c4c4" stroke-width="none" opacity="1" stroke="none"/>
              </g>
            </g>
          </g>
          <g id="svga-group-nose-single-move" transform="matrix(1,0,0,1,0,0)">
            <g id="svga-group-nose-single" transform="matrix(1,0,0,1,0,0)">
              <path id="SvgjsPath342925" d="M99.774 119.881c-0.868 0-1.793 0.006-2.595-0.354 -0.858-0.387-1.429-0.54-2.317-0.86 -0.858-0.31-1.889 0.445-2.748 0.516 -0.694 0.057-1.487-0.142-1.911-0.685 -1.43-1.829 0.273-2.953 0.273-2.953s-0.557 1.283-0.202 1.853c0.304 0.485 0.752 0.882 1.306 1.015 0.923 0.225 1.802-0.454 2.708-0.525 1.013-0.079 1.748-0.097 2.482 0.495 0.732 0.591 1.532 0.704 2.463 0.752 0.865 0.045 1.771 0.082 2.583-0.251 0.709-0.289 1.303-0.797 1.967-1.17 1.414-0.792 2.525 0.202 4.001 0.604 1.182 0.323 2.456-0.82 1.993-2.122 -0.264-0.741-0.221-1.183-0.221-1.183s1.126 0.511 1.059 1.768c-0.085 1.566-1.45 2.665-2.992 2.253 -0.758-0.2-1.574-0.771-2.378-0.626 -0.818 0.146-1.446 0.147-2.126 0.594C102.092 119.673 101.004 119.881 99.774 119.881z" fill="#9f6037" stroke-width="none" opacity="1" stroke="none"/>
              <path id="SvgjsPath342926" d="M93.63 110.544c0 0 3.096-4.31 5.907-4.362 2.605-0.048 6.032 3.786 6.032 3.786s-3.158-1.323-6.284-1.104C96.495 109.06 93.63 110.544 93.63 110.544z" fill="#c59575" stroke-width="none" opacity="1" stroke="none"/>
            </g>
          </g>
          <g id="svga-group-hair-front" transform="matrix(1,0,0,1,0,0)">
            <path id="SvgjsPath342820" d="M152.307 91.487c-3.852-4.398-4.376-6.578-2.979-11.314 -3.135-2.417-4.33-5.415-2.256-11.703 -8.03-0.362-9.319-3.996-8.175-11.755 -4.594-0.54-7.891-3.289-8.357-8.541 -3.963 0.138-8.343-1.103-9.574-4.694 -4.476 0.66-6.139-0.673-7.297-3.01 -4.41 1.766-7.511 0.911-10.794-2.012 -2.949 0.936-5.324 0.157-7.744-1.107 -1.709 3.5-3.815 4.289-7.577 3.619 -1.134 4.489-5.215 7.274-11.498 5.855 -1.717 4.607-4.878 6.44-9.475 5.764 -2.797 4.744-7.751 6.055-13.437 5.505 1.914 4.99 0.686 7.206-3.663 8.643 2.276 5.206 3.236 6.714-0.048 11.011 3.455 5.17 1.254 11.14-2.436 12.382v0.423c-8.695-10.118-8.114-74.354-0.022-74.653 -1.651-7.591 101.586-6.334 101.586-1.216C156.112 15.083 158.648 87.485 152.307 91.487z" fill="#d6c4c4" stroke-width="none" opacity="0.1" stroke="none"/>
            <path id="SvgjsPath342821" d="M152.306 91.585c-3.854-4.643-4.377-6.941-2.981-11.94 -3.133-2.549-4.329-5.714-2.254-12.349 -8.032-0.382-9.32-4.218-8.176-12.405 -4.592-0.569-7.891-3.47-8.357-9.013 -3.963 0.146-8.342-1.163-9.574-4.953 -4.475 0.696-6.137-0.71-7.296-3.178 -4.409 1.864-7.51 0.962-10.793-2.122 -2.949 0.986-5.324 0.166-7.743-1.168 -1.709 3.693-3.815 4.525-7.577 3.818 -1.134 4.737-5.215 7.677-11.497 6.178 -1.718 4.862-4.878 6.796-9.475 6.083 -2.797 5.005-7.751 6.39-13.435 5.809 1.914 5.266 0.685 7.604-3.663 9.121 2.275 5.494 3.235 7.085-0.048 11.62 3.455 5.457 1.253 11.754-2.437 13.065v0.445c3.952 11.448-9.554 16.223-11.48 6.834 -5.114-0.087-7.45-3.416-3.724-8.759 -7.115-1.293-6.373-7.842 0.1-11.886 -5.866-2.453-9.144-6.8-2.46-12.625 -8.059-3.511-6.461-10.86 0.006-16.754 -5.489-4.566-2.71-8.938 4.064-11.443 -2.809-5.928 0.644-10.55 7.04-11.991 -4.444-5.361-1.657-11.837 6.434-12.152C45.326 3.81 50.979 0.26 59.132 1.968c1.805-5.814 5.683-6.576 11.382-4.692 1.562-4.613 6.007-5.533 10.743-4.105 3.044-3.768 7.978-1.952 12.283 0.107 3.656-4.056 8.893-2.555 13.356 0.653 5.712-4.897 12.8-2.474 17.862 3.303 6.497-2.672 11.717-1.117 15.407 5.396 6.038-0.279 8.394 2.509 8.394 7.909 7.55 0.422 16.386 6.16 13.794 14.477 5.662 1.042 8.607 5.278 6.109 12.043 3.362 1.625 4.864 5.743 4.707 7.82 -0.178 2.294-1.575 4.652-2.786 6.823 5.17 3.334 6.954 10.875 3.206 14.727 2.481 3.13 0.363 10.575-4.989 14.529 2.983 3.18 3.861 4.363-3.475 10.415 4.771 6.469 1.16 11.849-3.096 11.849l0 0c-1.118 0-1.891-0.299-2.845-0.725C154.076 110.256 144.69 103.662 152.306 91.585z" fill="#d6c4c4" stroke-width="none" opacity="1" stroke="none"/>
            <path id="SvgjsPath342822" d="M161 88c-3 0-7 2-7 0 -0.902-2.708 0.643-4.227 3.159-6.358C155.256 82.731 153 81.867 153 81c-1.802-4.503-0.347-9.808 4.342-12.281C155.562 69.375 153.5 69.75 152 69c-2.398-3.198-1.593-9.58 1.89-12.016 -3.294 1.13-6.876 2.276-9.89 0.016 -3-4-1-11 4-14 -4 0-9 4-13 2 -4-3-1-7 2-10 -4 0-8 6-12 1 -1-2 1-4 1-6 -2 2-7 6-9 3 -1-3 3-5 3-8 -2 2-8 6-9 3 -1-2 0-6 3-7 -5 1-8 9-13 5 -1 0-2-4-1-6 -2 4-5 7-9 9 -1-2-3-4-2-6 -2 4-1 11-7 11 -1 0-4.061-3.793-4.061-5.793C77.939 33.207 78 38 75 40c-4 3-7-2-9-6 -2 6-3 12-9 14 -3 1-6-1-7-4 0 4-1.166 8.23 2 12 -4.096-3.56-8.275-1.443-12 0 4 6 10 14 0 17 5 1 10 7 7 11 -2 1-4-1-6-2 3.798 6.646 4.882 16.889-5.287 16.197 2.491 8.342 15.125 3.522 11.286-7.6v-0.445c3.69-1.311 5.891-7.609 2.437-13.065 3.284-4.535 2.324-6.125 0.048-11.62 4.348-1.516 5.577-3.855 3.663-9.121 5.684 0.581 10.638-0.803 13.435-5.809 4.597 0.713 7.757-1.222 9.475-6.083 6.282 1.499 10.362-1.441 11.497-6.178 3.762 0.707 5.868-0.125 7.577-3.818 2.419 1.334 4.794 2.155 7.743 1.168 3.283 3.084 6.384 3.986 10.793 2.122 1.159 2.467 2.821 3.874 7.296 3.178 1.232 3.79 5.611 5.099 9.574 4.953 0.467 5.543 3.766 8.444 8.357 9.013 -1.145 8.187 0.144 12.023 8.176 12.405 -2.075 6.635-0.879 9.8 2.254 12.349 -1.396 4.999-0.872 7.297 2.981 11.94 -6.637 10.525-0.362 16.882 4.742 13.207C153.603 99.472 155.788 91.475 161 88z" fill="#c7a2a2" stroke-width="none" opacity="1" stroke="none"/>
            <path id="SvgjsPath342823" d="M173.59 66.428c3.748-3.852 1.964-11.393-3.206-14.727 0.185-0.331 0.806-1.293 1.411-2.6 0.699-1.394 1.267-2.82 1.375-4.224 0.022-0.3 0.007-0.647-0.041-1.02 0.014-2.504-1.075-5.065-4.666-6.8 2.498-6.765-0.447-11.001-6.109-12.043 2.592-8.317-6.244-14.055-13.794-14.477 0-5.4-2.355-8.188-8.394-7.909 -3.69-6.513-8.91-8.067-15.407-5.396 -5.063-5.777-12.15-8.2-17.862-3.303 -4.464-3.208-9.7-4.709-13.356-0.653 -4.305-2.059-9.239-3.875-12.283-0.107 -4.736-1.428-9.182-0.508-10.743 4.105 -5.699-1.884-9.577-1.122-11.382 4.692C50.979 0.26 45.326 3.81 46.978 11.822c-8.091 0.315-10.878 6.791-6.434 12.152 -6.396 1.441-9.848 6.063-7.04 11.991 -6.775 2.506-9.553 6.877-4.064 11.443 -6.467 5.894-8.065 13.243-0.006 16.754 -6.684 5.824-3.406 10.172 2.46 12.625 -6.472 4.043-7.215 10.592-0.1 11.886 -0.225 0.323-0.426 0.637-0.607 0.945 -0.062 0.104-0.109 0.204-0.166 0.306 -0.11 0.2-0.221 0.399-0.313 0.592 -0.057 0.12-0.101 0.235-0.152 0.353 -0.072 0.167-0.145 0.335-0.203 0.498 -0.044 0.123-0.076 0.241-0.112 0.361 -0.045 0.148-0.09 0.297-0.124 0.44 -0.028 0.122-0.046 0.239-0.066 0.357 -0.022 0.132-0.043 0.264-0.055 0.392 -0.011 0.118-0.014 0.233-0.017 0.347 -0.002 0.118-0.002 0.235 0.005 0.348 0.007 0.114 0.02 0.226 0.035 0.335 0.015 0.104 0.034 0.205 0.057 0.305 0.025 0.11 0.055 0.217 0.09 0.321 0.03 0.089 0.064 0.176 0.101 0.261 0.045 0.105 0.092 0.208 0.146 0.307 0.042 0.074 0.088 0.145 0.136 0.216 0.065 0.1 0.132 0.199 0.209 0.292 0.048 0.059 0.104 0.114 0.156 0.17 0.089 0.095 0.179 0.19 0.28 0.278 0.048 0.042 0.103 0.079 0.153 0.118 0.119 0.093 0.238 0.185 0.37 0.268 0.03 0.019 0.065 0.034 0.096 0.053 0.711 0.421 1.604 0.702 2.651 0.824 0.005 0 0.01 0.002 0.015 0.002l0 0c0.333 0.038 0.676 0.064 1.038 0.071 0.055 0.268 0.122 0.521 0.195 0.765 2.503 0.17 4.321-0.324 5.588-1.262C38.826 96.513 37.753 93.917 35 93c-0.066-0.022-0.114-0.053-0.175-0.078 1.14-1.365 2.434-2.966 1.869-5.297C37.117 87.366 37.558 87.147 38 87c-0.526 0-1.051-0.064-1.561-0.171 -0.008-0.021-0.014-0.041-0.022-0.062 -0.649-1.574-2.054-2.709-3.728-3.014 -0.34-0.062-0.594-0.134-0.78-0.2 0.814-1.526 7.467-5.587 5.172-9.072C37.076 74.321 37.054 74.161 37 74c-0.469-1.406-2.256-1.717-4.125-2.265 -1.273-0.643-1.9-1.217-2.112-1.498 0.835-2.016 4.208-2.979 3.613-6.836 -0.023-0.151-0.061-0.283-0.093-0.421C35.064 61.762 35.654 60.383 36 59c-2.654 0-5.738-0.886-6.935-2.648 0.671-2.583 4.604-5.38 5.379-8.358C35.933 47.333 37.533 46.733 39 46c-2.268 0-5.672-2.285-5.907-4.265 1.794-0.933 4.501-2.122 5.292-4.294C39.51 36.902 40.654 36.449 42 36c-1.533-1.533-4.232-3.065-4.512-4.147 0.002-0.164 0.015-0.319 0.049-0.459C37.62 31.25 37.765 31.117 38 31c0.601-0.501 1.139-0.953 1.643-1.384 1.969-0.763 4.708-1.311 5.634-4.029 0.562-1.646 0.227-3.465-0.883-4.804 -0.038-0.045-0.067-0.086-0.103-0.131C44.239 19.868 44.143 19 44 18c0-0.108 0.028-0.203 0.046-0.303 1.513-0.886 5.085-0.883 6.688-2.587C52.493 15.002 54.354 15 56 15c-2.998-2.248-3.187-6.181-1.41-8.432 2.518-0.036 5.943 1.124 8.015-0.858 0.85 0.217 1.684 0.465 2.475 0.783C64.712 5.458 65 4.084 65 3c0.618-0.618 1.411-1.101 2.289-1.455 0.968 0.286 2.057 0.732 3.226 0.732 1.549 0 2.476-0.408 3.107-0.984C75.083 1.771 76.327 2.654 77 4c-1-3 0.763-5.015 2-6 0.086-0.069 0.169-0.131 0.254-0.197 0.179 0.045 0.364 0.096 0.56 0.155 6.004 1.811 2.094-4.704 11.569-0.169 2.221 1.062 3.684 0.428 4.853-0.393 2.464 0.842 5.023 1.989 4.691 2.624 1.099-0.776 2.167-1.444 3.223-1.97 1.854 1.007 3.764 1.597 6.002-0.323 0.294-0.252 0.583-0.46 0.869-0.645 1.061 0.28 2.146 0.77 3.276 1.523 0.594 1.188 2.477 3.767 1.296 4.536 1.856-0.819 3.612-1.951 5.392-2.728 1.276 1.018 2.52 1.82 3.775 1.82 1.223 0 2.636-0.728 4.158-1.078C129.521 1.527 130 2.024 130 3c0 0.945-0.231 1.659-0.678 2.157 2.01-0.653 3.993-1.064 5.887-1.042 0.202 0.302 0.404 0.622 0.606 0.979 1.647 2.906 3.893 2.402 5.541 2.454 0.046 1.747-0.923 3.8-3.209 4.319 2.041-0.107 4.381 0.482 6.373 1.589 0.593 0.818 1.423 1.442 2.398 1.783 1.505 1.5 2.41 3.42 2.092 5.625 0.928-0.192 1.892-0.23 2.989 0.136 2 2 5 7 1 9 5-1 13 2 9 8 0 0-2 1-3 2 2.843 0 5.671 0.522 7.796 1.891 1.167 1.209 1.636 3.042-0.778 7.375 -0.452 0.81-0.688 1.509-0.768 2.131C164.261 51.777 163.16 52 162 52c1.239 0 2.303 0.176 3.271 0.447 0.374 2.064 2.676 3.243 4.129 5.238 -0.965 1.202-2.816 2.259-4.399 3.314 2.108 0.327 3.335 2.419 3.607 4.834 -0.124 0.531-0.136 1.1 0.03 1.726 -0.155 2.112-1.008 4.218-2.638 5.44 -0.3 0-0.528 0-0.566 0 1.001 0.317 1.839 0.995 2.321 1.773 -0.568 0.78-1.27 1.53-2.125 2.162 -2.992 2.21-2.23 4.737-1.201 6.494 -0.315-0.025-0.654-0.061-1.049-0.117 0.066 0 0.831-1.633 1.613-1.009 0.339 0.482 0.64 0.861 0.766 1.083 -0.158 0.386 0.498 1.692-2.447 4.122 -2.049 1.69-1.842 4.799-0.19 6.88 0.944 1.19 1.349 2.315 1.445 3.341 -0.477 2.259-1.398 4.345-2.536 5.492 0.165 0 0.327-0.022 0.49-0.039 0.126 0.266 1.102 0.021 2.154-0.721 1.038-0.628 1.877-1.619 2.333-2.884 0.802-1.969 0.696-4.71-1.882-8.206 7.336-6.051 6.458-7.235 3.475-10.415C173.953 77.003 176.071 69.558 173.59 66.428z" fill="#e5e5e5" stroke-width="none" opacity="1" stroke="none"/>
            <path id="SvgjsPath342824" d="M174.299 66.416c3.293-3.392 1.876-11.575-3.25-14.88 1.12-2.01 2.44-4.31 2.62-6.62 0.191-2.535-1.812-6.772-4.58-8.11 2.549-6.915-1.351-11.307-6.09-12.18 2.412-7.708-6.373-14.135-13.939-14.56 0-5.233-2.849-8.217-8.61-7.95 -3.271-5.763-8.628-8.322-15.55-5.48 -6.263-7.151-13.772-6.987-18.03-3.34 -4.078-2.933-9.855-4.615-13.45-0.63 -4.297-2.055-9.469-3.629-12.34-0.07 -2.803-0.845-9.092-1.229-10.88 4.05 -5.332-1.761-9.714-0.724-11.41 4.74 -7.848-1.643-13.989 2.354-12.42 9.96 -7.782 0.308-10.638 7.607-6.73 12.32 -4.588 1.033-9.819 5.691-6.82 12.02 -6.342 2.346-9.419 7.351-4.14 11.74 -4.602 4.192-8.915 13.07-0.17 16.88 -5.861 5.104-3.096 10.314 2.3 12.57 -5.79 3.619-6.346 10.97 0.13 12.15 -2.858 4.098-1.602 8.805 4.17 8.9 1.995 9.712 16.81 4.148 12.39-7.41v-0.01c3.433-1.22 5.983-7.964 2.54-13.4 2.995-4.138 1.749-5.778-0.39-10.94 4.537-1.58 5.66-5.331 4.24-9.24 6.073 0.623 10.812-1.999 12.96-5.84 4.749 0.733 8.072-1.908 9.53-6.04 5.768 1.377 10.458-1.623 11.55-6.19 3.305 0.621 5.926-0.446 7.43-3.7 2.279 1.258 4.956 1.851 7.39 1.04 3.477 3.271 7.086 3.713 10.67 2.2 1.332 2.827 4.07 3.576 7.2 3.09 1.018 3.134 5.415 5.06 9.46 4.91 0.441 5.225 4.121 8.416 8.25 8.93 -1.039 7.4 0.329 12.072 8.07 12.44 -2.208 7.042-1.61 8.265 2.319 12.19 -1.379 4.964-0.396 7.617 2.971 11.67 -7.787 12.375 2.62 19.174 7.68 11.5 6.18 2.762 11.669-4.593 6.44-11.67 4.317-3.566 7.809-5.878 3.54-10.43C174.24 77.414 176.76 69.558 174.299 66.416zM168.6 80.305c-1-0.87-2.221-1.56-3.4-1.74 0.59 0.095 2.724 1.762 3.7 3.62 2.193 3.788-2.641 8.104-3.641 8.58 -0.63-0.72-1.399-1.32-2.27-1.71 4.498 1.989 4.397 15.001-3.12 13.23 1.866-3.573 1.295-7.331 1.295-7.331s0.289-0.26-1.816 5.105c-3.267 8.313-12.995 4.456-7.328-8.034 0.451-1.005 1.216-2.309 2.31-2.44 -0.68 0.02-1.27 0.4-1.78 0.93 -4.503-7.609-3.564-11.15-1.56-15.6 -0.79 1.24-1.45 2.58-1.93 3.97 -4.906-4.514-1.425-13.327-0.33-16.7 -0.7 1.4-1.41 2.94-1.99 4.54 -9.358-0.954-9.139-14.536-6.12-15.1 -1.2-0.15-1.8 1.13-2.11 2.63 -3.972-1.242-9.11-5.575-7.75-14.05 -0.439 1.52-0.72 3.17-0.739 4.82 -3.147-0.441-8.19-1.053-9.051-4.32l0.311-3.92c-0.62 1.28-1.03 2.64-0.83 3.96 -8.767 0.467-7.61-8.084-6.51-9.93 -0.899 1.236-1.521 4.139-1 6.17 -5.244 1.009-7.273 0.052-9.391-1.11 3.052-1.383 5.58-5.213 6-7.56 -0.153 0.813-2.374 3.287-3.01 3.86 -1.835 1.646-3.758 2.042-5.18 2.48h-0.01c-1.831 0.58-3.86 0.32-5.661-0.3 0.656-1.524 0.784-4.702 0.62-5.04 0.227 1.095-1.416 8.48-8.2 8.48 0.14-1.33-0.08-2.69-0.74-3.95 2.076 5.417-4.969 11.143-10.82 10.68 0.572-1.61 1.061-5.427 1-5.67 0.173 1-3.134 11.186-10.24 11.28 0.41-1.03 0.59-2.17 0.44-3.4 0.453 3.618-5.418 9.59-14.1 9.59 -0.57-1.32-1.42-2.53-2.39-3.5 2.111 3.032 2.345 6.896 1.96 7.3 0 1.958-2.408 3.82-4.16 4.77 -0.83-1.67-1.88-3.24-3.04-4.58 2.176 3.245 6.751 10.324 3.61 16.18 -0.882-1.159-1.674-2.069-4.591-3.262 6 2.454 7.52 14.298 2.142 16.592 -0.813-1.504-2.588-3.028-2.588-3.028s1.437 1.745 1.908 3.979c0.512 1 0.633 5.174-1.87 8.39 -1.934 2.5-6.979 3.894-8.85-1.25 1.71-0.09 3.43-0.58 4.63-1.27 -1.479 0.748-9.968 1.232-9.34-4.28 0.301-3.081 2.626-6.51 5.77-6.51 -1.84-0.27-3.73 0.71-5.13 2.22 -7.167-2.636-2.441-10.856 4.77-13.85 -1 0.269-2.281 0.543-4.55 1.91 -8.558-4.525-1.959-13.669 1.67-14.3 -1.56 0.14-2.99 0.84-4.25 1.78 -8.094-4.805-1.063-18.69 4.81-17.8 -1.85-0.58-3.42 0-4.79 1.04 -5.861-5.887 4.912-12.546 8.54-11.51 -1.31-0.48-2.69-0.38-4.02-0.01 -0.86-3.383 0.16-11.205 11.24-11.75 -1.45-0.15-2.93-0.27-4.37-0.1 -3.506-6.863 2.523-13.311 11.41-11.15 -1.44-0.57-3.04-0.92-4.63-0.99 0-12.784 15.759-8.419 16.88-8.29 -1.48-0.5-3.02-1.02-4.57-1.42 3.495-6.831 14.659-4.202 15.91-0.45 -0.41-1.85-2.07-3.05-3.77-3.83 3.366-5.466 11.211-4.896 12.29-1.93 -0.19-0.78-0.62-1.38-1.18-1.83 2.964-2.01 12.098-1.161 13.67 2.6 -0.3-1.23-1.08-2.13-2.07-2.8 1.896-1.267 6.499-1.938 11.55 0.48 -1.103 1.13-1.61 2.212-2.47 3.47 1.06-1.12 2.04-2.23 3.21-3.08 1.07 0.64 1.91 1.54 2.25 2.89 -0.132-1-0.128-1.918-1.66-3.28 4.873-3.02 10.861 0.167 15.53 3.56 -1.141 0.54-2.28 1.07-3.44 1.49 6.318-1.098 10.604-4.965 18.681 3.39 -1.721 0.24-3.431 0.62-4.98 0.84 0.387 0.02 7.437-0.082 7.69 0.16 3.846 0.547 5.627 3.225 6.579 6.81 -1.229 0.17-2.289 0.73-2.84 1.96 2.756-4.704 17.408 3.675 16.391 12.35 -1.83-0.02-3.63 0.46-5.24 1.47 6.482-2.601 13.192 1.838 11.71 10.49 -0.73-0.06-1.45 0.12-2.11 0.66 2.186-1.81 8.681 2.768 4.641 14 -1.08-0.49-2.25-0.6-3.16 0.28 3.409-3.306 9.756 10.281 6.7 14.58 -1.051-0.86-2.311-1.5-3.7-1.8C175.596 65.811 173.77 75.195 168.6 80.305z" fill="#a86868" stroke-width="none" opacity="1" stroke="none"/>
          </g>
          <g id="svga-group-glasses-single-move" transform="matrix(1,0,0,1,0,0)">
            <g id="svga-group-glasses-single" transform="matrix(1,0,0,1,0,0)">
              <path id="SvgjsPath342911" d="M149.6 87.26c0 9.03-7.39 16.52-16.42 16.52h-3.7c-3.38 0-9.1-2.02-14.66-7.3 -3.04-2.88-7.19-10.12-8.29-14.36 -0.51-1.96 0.43-4.67 0.7-5.17l2.69-5.08c0.48-0.91 2.3-1.92 3.33-2.08 2.79-0.43 10.45-1.09 10.45-1.09 5.18 0.27 11.62 0.61 17.11 3.1 5.88 2.67 8.79 7.34 8.79 14.1V87.26zM50.4 85.9c0-6.77 2.91-11.43 8.79-14.1 5.48-2.49 11.93-2.83 17.11-3.1 0 0 7.67 0.66 10.45 1.09 1.02 0.16 2.84 1.16 3.33 2.08l2.69 5.08c0.27 0.5 1.21 3.21 0.7 5.17 -1.11 4.24-5.26 11.48-8.29 14.36 -5.56 5.28-11.28 7.3-14.66 7.3h-3.7c-9.03 0-16.42-7.5-16.42-16.52V85.9z" fill="#5b1d0d" stroke-width="none" opacity="0.6"/>
              <path id="SvgjsPath342912" d="M149.6 87.26c0 0.65-0.05 1.29-0.12 1.92 -12.99-3.95-27.98-6.71-43.09-8.52 0.04-1.65 0.63-3.34 0.84-3.72l2.69-5.08c0.48-0.91 2.3-1.92 3.33-2.08 2.79-0.43 10.45-1.09 10.45-1.09 5.18 0.27 11.62 0.61 17.11 3.1 5.88 2.67 8.79 7.34 8.79 14.1V87.26zM90.09 71.86c-0.48-0.91-2.3-1.92-3.33-2.08 -2.79-0.43-10.45-1.09-10.45-1.09 -5.18 0.27-11.62 0.61-17.11 3.1 -3.18 1.45-5.49 3.48-6.94 6.11 12.16-0.23 26.49 0.18 41.23 1.44 -0.2-1.14-0.55-2.12-0.7-2.4L90.09 71.86z" fill="#ffffff" stroke-width="none" opacity="0.1"/>
              <path id="SvgjsPath342913" d="M104.15 81.18l4.15 9.35L107.37 91c-2.02-0.56-2.97-6.13-4.37-8.05 -0.96-1.32-5.05-1.32-6.01 0 -1.4 1.92-2.36 7.49-4.37 8.05l-0.93-0.47 4.15-9.35C96.77 79.1 103.22 79.09 104.15 81.18zM93.75 71.62c0.14-0.63 0.7-1.07 1.35-1.07 3.54 0 6.26 0 9.8 0 0.65 0 1.2 0.45 1.35 1.07l0.12 0.54 2.52-4.34c-2.58 0-15.21 0-17.79 0l2.52 4.34L93.75 71.62zM95.55 75.4v1.36c2.17-1.11 6.73-1.11 8.89 0V75.4C102.12 74.22 97.91 74.2 95.55 75.4z" fill="#150625" stroke-width="none" opacity="1" stroke="none"/>
              <path id="SvgjsPath342914" d="M121.06 67.31l-10.59-0.21c-1.53-0.03-2.95 0.8-3.67 2.16l-2.69 5.08c-0.37 0.69-0.56 1.46-0.56 2.24 0.5 19.18 18.71 28.31 25.93 28.31 0 0 2.46 0 3.7 0 9.74 0 17.64-7.9 17.64-17.64V85.9C150.82 69.7 135.43 67.79 121.06 67.31zM149.6 87.26c0 9.03-7.39 16.52-16.42 16.52h-3.7c-3.38 0-9.1-2.02-14.66-7.3 -3.04-2.88-7.19-10.12-8.29-14.36 -0.51-1.96 0.43-4.67 0.7-5.17l2.69-5.08c0.48-0.91 2.3-1.92 3.33-2.08 2.79-0.43 9.01-1.09 13.26-0.87 2.74 0.14 8.82 0.39 14.3 2.88 5.88 2.67 8.79 7.34 8.79 14.1V87.26zM49.18 85.9v1.36c0 9.74 7.9 17.64 17.64 17.64 1.24 0 3.7 0 3.7 0 7.23 0 25.43-9.13 25.93-28.31 0-0.78-0.19-1.55-0.56-2.24l-2.69-5.08c-0.72-1.35-2.14-2.19-3.67-2.16l-10.59 0.21C64.57 67.79 49.18 69.7 49.18 85.9zM50.4 85.9c0-6.77 2.91-11.43 8.79-14.1 5.48-2.49 11.56-2.73 14.3-2.88 4.25-0.22 10.48 0.44 13.26 0.87 1.02 0.16 2.84 1.16 3.33 2.08l2.69 5.08c0.27 0.5 1.21 3.21 0.7 5.17 -1.11 4.24-5.26 11.48-8.29 14.36 -5.56 5.28-11.28 7.3-14.66 7.3h-3.7c-9.03 0-16.42-7.5-16.42-16.52V85.9z" fill="#210d34" stroke-width="none" opacity="1" stroke="none"/>
              <path id="SvgjsPath342915" d="M106.33 75.78c-0.4 0.4-1.04 0.4-1.44 0s-0.4-1.04 0-1.44 1.04-0.4 1.44 0S106.73 75.38 106.33 75.78zM109.44 69.94c0-0.56-0.46-1.02-1.02-1.02s-1.02 0.46-1.02 1.02 0.46 1.02 1.02 1.02S109.44 70.5 109.44 69.94zM94.39 74.04c0.56 0 1.02 0.46 1.02 1.02s-0.46 1.02-1.02 1.02 -1.02-0.46-1.02-1.02C93.37 74.49 93.82 74.03 94.39 74.04zM90.85 70.64c0.39 0.41 1.04 0.42 1.44 0.03s0.42-1.04 0.03-1.44c-0.39-0.41-1.04-0.42-1.44-0.03S90.46 70.23 90.85 70.64z" fill="#2e1843" stroke-width="none" opacity="1" stroke="none"/>
              <path id="SvgjsPath342916" d="M156 83.47l-6 1.58 -0.4-3.78 6.4-1V83.47zM108.68 70.81v-1.79h-0.51v1.79H108.68zM106.43 75.5l-1.27-1.27 -0.36 0.36 1.27 1.27L106.43 75.5zM44 80.28l6.4 1L50 85.06l-6-1.58V80.28zM90.79 69.49l1.26 1.26 0.36-0.36 -1.26-1.26L90.79 69.49zM93.5 75.31h1.8v-0.51h-1.8V75.31z" fill="#150625" stroke-width="none" opacity="1" stroke="none"/>
            </g>
          </g>
        </g>
      </g>
    </g>
    <rect id="SvgjsRect342636" width="200" height="15" x="0" y="185" fill="#ecf0f1" opacity="0.5" style="display: none;"/>
    <text id="SvgjsText342637" font-family="Roboto, Helvetica, Arial, sans-serif" font-size="10px" text-anchor="start" font-weight="400" anchor="start" fill="#333333" x="58.03125" y="182.4296875" style="display: none;">
      <tspan id="SvgjsTspan342638" dy="13" x="58.03125">Created on face.co</tspan>
    </text>
  </g>
</svg>
