<?xml version="1.0"?>
<svg xmlns="http://www.w3.org/2000/svg" version="1.1" width="600px" height="600px" viewBox="0 0 200 200" style="overflow:hidden!important;">
  <defs id="SvgjsDefs44487">
    <radialGradient id="SvgjsRadialGradient44548" cx="100" cy="113" r="40" gradientUnits="userSpaceOnUse" class="svga-on-canvas-facehighlight-gradient-single-0">
      <stop id="SvgjsStop44549" stop-opacity="0.5" stop-color="#e9bfa9" offset="0"/>
      <stop id="SvgjsStop44550" stop-opacity="0" stop-color="#daa488" offset="0.9"/>
    </radialGradient>
    <radialGradient id="SvgjsRadialGradient44552" cx="100" cy="57" r="36" gradientUnits="userSpaceOnUse" class="svga-on-canvas-facehighlight-gradient-single-1">
      <stop id="SvgjsStop44553" stop-opacity="0.5" stop-color="#e9bfa9" offset="0"/>
      <stop id="SvgjsStop44554" stop-opacity="0" stop-color="#daa488" offset="0.9"/>
    </radialGradient>
    <radialGradient id="SvgjsRadialGradient44633" cx="-558.588" cy="-490.918" r="84.646" gradientTransform="matrix(0.096 -0.0248 0.0245 0.0961 140.5478 120.3577)" gradientUnits="userSpaceOnUse" class="svga-on-canvas-eyesiris-gradient-left-1">
      <stop id="SvgjsStop44634" stop-opacity="0.8" stop-color="#ffffff" offset="0"/>
      <stop id="SvgjsStop44635" stop-opacity="0" stop-color="#ffffff" offset="1"/>
    </radialGradient>
    <radialGradient id="SvgjsRadialGradient44637" cx="-565.337" cy="-492.691" r="84.644" gradientTransform="matrix(0.0991 8.856325e-004 -0.0011 0.0991 130.3774 136.3533)" gradientUnits="userSpaceOnUse" class="svga-on-canvas-eyesiris-gradient-left-2">
      <stop id="SvgjsStop44638" stop-opacity="0.8" stop-color="#ffffff" offset="0"/>
      <stop id="SvgjsStop44639" stop-opacity="0" stop-color="#ffffff" offset="1"/>
    </radialGradient>
    <linearGradient id="SvgjsLinearGradient44643" x1="122.283" y1="93.047" x2="123.61" y2="91.466" gradientTransform="matrix(1 0 0 1 -52 0)" gradientUnits="userSpaceOnUse" class="svga-on-canvas-eyesiris-gradient-left-5">
      <stop id="SvgjsStop44644" stop-opacity="1" stop-color="#ffffff" offset="0"/>
      <stop id="SvgjsStop44645" stop-opacity="0" stop-color="#ffffff" offset="1"/>
    </linearGradient>
    <linearGradient id="SvgjsLinearGradient44647" x1="127" y1="85" x2="125" y2="87" gradientTransform="matrix(1 0 0 1 -50 0)" gradientUnits="userSpaceOnUse" class="svga-on-canvas-eyesiris-gradient-left-6">
      <stop id="SvgjsStop44648" stop-opacity="1" stop-color="#ffffff" offset="0"/>
      <stop id="SvgjsStop44649" stop-opacity="0" stop-color="#ffffff" offset="1"/>
    </linearGradient>
    <linearGradient id="SvgjsLinearGradient44651" x1="130" y1="81" x2="126" y2="85" gradientTransform="matrix(1 0 0 1 -50 0)" gradientUnits="userSpaceOnUse" class="svga-on-canvas-eyesiris-gradient-left-7">
      <stop id="SvgjsStop44652" stop-opacity="1" stop-color="#ffffff" offset="0"/>
      <stop id="SvgjsStop44653" stop-opacity="0" stop-color="#ffffff" offset="1"/>
    </linearGradient>
    <radialGradient id="SvgjsRadialGradient44656" cx="-578.76" cy="-490.73" r="84.646" gradientTransform="matrix(0.096 -0.0248 0.0245 0.0961 192.4794 119.8404)" gradientUnits="userSpaceOnUse" class="svga-on-canvas-eyesiris-gradient-right-1">
      <stop id="SvgjsStop44657" stop-opacity="0.8" stop-color="#ffffff" offset="0"/>
      <stop id="SvgjsStop44658" stop-opacity="0" stop-color="#ffffff" offset="1"/>
    </radialGradient>
    <radialGradient id="SvgjsRadialGradient44660" cx="-584.778" cy="-487.329" r="84.644" gradientTransform="matrix(0.0991 8.856325e-004 -0.0011 0.0991 182.3104 135.839)" gradientUnits="userSpaceOnUse" class="svga-on-canvas-eyesiris-gradient-right-2">
      <stop id="SvgjsStop44661" stop-opacity="0.8" stop-color="#ffffff" offset="0"/>
      <stop id="SvgjsStop44662" stop-opacity="0" stop-color="#ffffff" offset="1"/>
    </radialGradient>
    <linearGradient id="SvgjsLinearGradient44666" x1="120.284" y1="93.047" x2="121.611" y2="91.467" gradientUnits="userSpaceOnUse" class="svga-on-canvas-eyesiris-gradient-right-5">
      <stop id="SvgjsStop44667" stop-opacity="1" stop-color="#ffffff" offset="0"/>
      <stop id="SvgjsStop44668" stop-opacity="0" stop-color="#ffffff" offset="1"/>
    </linearGradient>
    <linearGradient id="SvgjsLinearGradient44670" x1="127" y1="85" x2="125" y2="87" gradientUnits="userSpaceOnUse" class="svga-on-canvas-eyesiris-gradient-right-6">
      <stop id="SvgjsStop44671" stop-opacity="1" stop-color="#ffffff" offset="0"/>
      <stop id="SvgjsStop44672" stop-opacity="0" stop-color="#ffffff" offset="1"/>
    </linearGradient>
    <linearGradient id="SvgjsLinearGradient44674" x1="130" y1="81" x2="126" y2="85" gradientUnits="userSpaceOnUse" class="svga-on-canvas-eyesiris-gradient-right-7">
      <stop id="SvgjsStop44675" stop-opacity="1" stop-color="#ffffff" offset="0"/>
      <stop id="SvgjsStop44676" stop-opacity="0" stop-color="#ffffff" offset="1"/>
    </linearGradient>
    <linearGradient id="SvgjsLinearGradient44682" x1="100" y1="141" x2="100" y2="138" gradientUnits="userSpaceOnUse" class="svga-on-canvas-mouth-gradient-single-0">
      <stop id="SvgjsStop44683" stop-opacity="1" stop-color="#d29779" offset="0.1"/>
      <stop id="SvgjsStop44684" stop-opacity="1" stop-color="#cb8b6a" offset="1"/>
    </linearGradient>
    <radialGradient id="SvgjsRadialGradient44739" cx="125.187" cy="86.184" r="12.84" gradientTransform="matrix(-1.0592 3.999999e-004 -4.000000e-004 1.0589 206.5114 -6.1261)" gradientUnits="userSpaceOnUse" class="svga-on-canvas-eyesback-gradient-left-0">
      <stop id="SvgjsStop44740" stop-opacity="1" stop-color="#ffffff" offset="0"/>
      <stop id="SvgjsStop44741" stop-opacity="1" stop-color="#fdfefe" offset="0.544"/>
      <stop id="SvgjsStop44742" stop-opacity="1" stop-color="#f6f8f9" offset="0.74"/>
      <stop id="SvgjsStop44743" stop-opacity="1" stop-color="#eaeff2" offset="0.879"/>
      <stop id="SvgjsStop44744" stop-opacity="1" stop-color="#d9e3e8" offset="0.992"/>
      <stop id="SvgjsStop44745" stop-opacity="1" stop-color="#d8e2e7" offset="1"/>
    </radialGradient>
    <radialGradient id="SvgjsRadialGradient44747" cx="125.187" cy="86.184" r="12.84" gradientTransform="matrix(1.0592 4.000000e-004 4.000000e-004 1.0589 -6.5114 -6.1261)" gradientUnits="userSpaceOnUse" class="svga-on-canvas-eyesback-gradient-right-0">
      <stop id="SvgjsStop44748" stop-opacity="1" stop-color="#ffffff" offset="0"/>
      <stop id="SvgjsStop44749" stop-opacity="1" stop-color="#fdfefe" offset="0.544"/>
      <stop id="SvgjsStop44750" stop-opacity="1" stop-color="#f6f8f9" offset="0.74"/>
      <stop id="SvgjsStop44751" stop-opacity="1" stop-color="#eaeff2" offset="0.879"/>
      <stop id="SvgjsStop44752" stop-opacity="1" stop-color="#d9e3e8" offset="0.992"/>
      <stop id="SvgjsStop44753" stop-opacity="1" stop-color="#d8e2e7" offset="1"/>
    </radialGradient>
    <radialGradient id="SvgjsRadialGradient44755" cx="125.187" cy="86.184" r="12.84" gradientTransform="matrix(-1.0592 3.999999e-004 -4.000000e-004 1.0589 206.5114 -6.1261)" gradientUnits="userSpaceOnUse" class="svga-on-canvas-eyesfront-gradient-left-0">
      <stop id="SvgjsStop44756" stop-opacity="1" stop-color="#ffffff" offset="0"/>
      <stop id="SvgjsStop44757" stop-opacity="1" stop-color="#fdfefe" offset="0.544"/>
      <stop id="SvgjsStop44758" stop-opacity="1" stop-color="#f6f8f9" offset="0.74"/>
      <stop id="SvgjsStop44759" stop-opacity="1" stop-color="#eaeff2" offset="0.879"/>
      <stop id="SvgjsStop44760" stop-opacity="1" stop-color="#d9e3e8" offset="0.992"/>
      <stop id="SvgjsStop44761" stop-opacity="1" stop-color="#d8e2e7" offset="1"/>
    </radialGradient>
    <radialGradient id="SvgjsRadialGradient44765" cx="123.021" cy="84.391" fx="133.604" fy="80.492" r="17.898" gradientTransform="matrix(0.9998 0.0208 0.0166 -0.7998 -47.4114 149.3288)" gradientUnits="userSpaceOnUse" class="svga-on-canvas-eyesfront-gradient-left-3">
      <stop id="SvgjsStop44766" stop-opacity="1" stop-color="#cb8b6a" offset="0"/>
      <stop id="SvgjsStop44767" stop-opacity="0.3" stop-color="#cb8b6a" offset="0.7"/>
      <stop id="SvgjsStop44768" stop-opacity="0" stop-color="#daa488" offset="1"/>
    </radialGradient>
    <radialGradient id="SvgjsRadialGradient44770" cx="79.54" cy="83.579" r="23.208" gradientTransform="matrix(1.0971 -0.0567 0.0576 1.0844 -20.1314 20.8883)" gradientUnits="userSpaceOnUse" class="svga-on-canvas-eyesfront-gradient-left-4">
      <stop id="SvgjsStop44771" stop-opacity="0" stop-color="#000000" offset="0.94"/>
      <stop id="SvgjsStop44772" stop-opacity="0.3" stop-color="#000000" offset="1"/>
    </radialGradient>
    <radialGradient id="SvgjsRadialGradient44776" cx="125.187" cy="86.184" r="12.84" gradientTransform="matrix(1.0592 4.000000e-004 4.000000e-004 1.0589 -6.5114 -6.1261)" gradientUnits="userSpaceOnUse" class="svga-on-canvas-eyesfront-gradient-right-0">
      <stop id="SvgjsStop44777" stop-opacity="1" stop-color="#ffffff" offset="0"/>
      <stop id="SvgjsStop44778" stop-opacity="1" stop-color="#fdfefe" offset="0.544"/>
      <stop id="SvgjsStop44779" stop-opacity="1" stop-color="#f6f8f9" offset="0.74"/>
      <stop id="SvgjsStop44780" stop-opacity="1" stop-color="#eaeff2" offset="0.879"/>
      <stop id="SvgjsStop44781" stop-opacity="1" stop-color="#d9e3e8" offset="0.992"/>
      <stop id="SvgjsStop44782" stop-opacity="1" stop-color="#d8e2e7" offset="1"/>
    </radialGradient>
    <radialGradient id="SvgjsRadialGradient44786" cx="123.021" cy="84.391" fx="133.604" fy="80.492" r="17.898" gradientTransform="matrix(-0.9998 0.0208 -0.0166 -0.7998 247.4192 149.3287)" gradientUnits="userSpaceOnUse" class="svga-on-canvas-eyesfront-gradient-right-3">
      <stop id="SvgjsStop44787" stop-opacity="1" stop-color="#cb8b6a" offset="0"/>
      <stop id="SvgjsStop44788" stop-opacity="0.3" stop-color="#cb8b6a" offset="0.7"/>
      <stop id="SvgjsStop44789" stop-opacity="0" stop-color="#daa488" offset="1"/>
    </radialGradient>
    <radialGradient id="SvgjsRadialGradient44791" cx="79.54" cy="83.579" r="23.208" gradientTransform="matrix(-1.0971 -0.0567 -0.0576 1.0844 220.1314 20.8883)" gradientUnits="userSpaceOnUse" class="svga-on-canvas-eyesfront-gradient-right-4">
      <stop id="SvgjsStop44792" stop-opacity="0" stop-color="#000000" offset="0.94"/>
      <stop id="SvgjsStop44793" stop-opacity="0.3" stop-color="#000000" offset="1"/>
    </radialGradient>
    <linearGradient id="SvgjsLinearGradient44830" x1="99.98" y1="171.27" x2="99.98" y2="136.351" gradientUnits="userSpaceOnUse" class="svga-on-canvas-chinshadow-gradient-single-0">
      <stop id="SvgjsStop44831" stop-opacity="0.8" stop-color="#cb8b6a" offset="0"/>
      <stop id="SvgjsStop44832" stop-opacity="1" stop-color="#ac5f38" offset="0.7"/>
    </linearGradient>
  </defs>
  <g id="svga-group-wrapper">
    <g id="svga-group-backs-single">
      <path id="SvgjsPath44701" d="M225,225H-25V-25h250V225z" fill="#774f38" stroke-width="none" opacity="1" stroke="none"/>
      <path id="SvgjsPath44702" d="M225,66.045V46.523c-8.393-7.17-16.444-14.676-24.006-22.532C206.423,16.09,215.705,4.264,225,0.533v-16.039c-3.896,1.01-7.948,3.157-10.891,4.849c-9.592,5.514-16.968,14.41-23.396,23.297C180.981,1.161,172.431-11.375,166.43-25h-16.256c7.101,18.589,18.696,35.418,31.924,50.498c-3.762,6.007-7.353,12.13-11.097,18.132c-6.771,10.854-13.008,21.979-18.061,33.713c-1.74-0.122-3.482-0.236-5.227-0.348c-0.102-11.296-1.301-22.637-2.591-33.427C142.364,20.495,137.825-2.268,133.128-25h-15.287c3.512,16.925,6.991,33.854,9.757,50.925c2.627,16.216,5.104,33.229,5.117,49.989c-17.066-1.536-33.684-4.704-47.991-15.619c-22.846-17.429-21.9-26.78-25.009-40.538C68.462,4.662,80.021-9.181,83.404-25H67.848c-2.288,7.421-6.745,14.566-10.568,20.732c-1.766,2.849-3.54,5.708-5.319,8.565C41.416-4.602,16.985-1.963,3.134-5.856c-8.089-2.274-17.358-7.185-25.183-11.213c-0.973-0.501-1.96-1.017-2.951-1.55v16.811c7.296,3.502,14.678,6.469,20.881,9.151c12.571,5.436,27.6,2.613,42.814,7.009c2.774,0.801,3.976,1.791,4.725,3.446C37.528,26.922,30.89,33.68,18.638,36.037C6.717,38.331-9.568,36.45-25,35.374V50.51c14.17,0.911,30.442,2.151,42.378,0.754c12.875-1.506,23.256-6.821,30.822-14.903c3.926,13.052,9.926,23.987,32.905,39.741c15.079,10.337,32.932,13.381,50.891,14.876c-2.058,20.178-10.428,37.32-32.693,54.405c-10.407,7.985-21.317,14.728-34.237,24.035c-2.063-0.633-4.131-1.247-6.204-1.832c-14.62-4.125-46.417-6.59-53.1-6.965c8.508-6.75,17.07-13.123,22.152-23.144c11.073-21.834,0.773-48.529-17.324-59.654C2.211,72.673-11.466,69.181-25,64.823v15.465c6.097,2.013,12.208,3.99,18.242,6.175c3.371,1.221,7.316,2.72,10.326,4.67c-1.389-0.644,14.647,9.087,13.954,28.72c-0.661,18.694-21.119,26.841-34.167,41.017c-2.763,0.267-5.568,0.658-8.354,1.198V225h8.315c-2.877-17.495-2.37-34.53,8.331-50.064c8.69-0.111,43.984,2.377,59.317,6.059C37.81,193.899,34.342,209.025,34.122,225H48.77c0.262-8.053,1.59-15.874,5.038-23.062c3.074-6.407,8.375-11.441,14.043-15.887c6.325,2.192,12.58,4.603,18.827,6.916c21.501,7.963,39.663-16.236,68.072-27.625c0.472-0.189,0.954-0.367,1.429-0.554c10.135,21.642,24.926,41.005,40.126,60.211H215.3c-16.396-20.788-33.895-42.817-44.951-65.021c25.817-7.328,33.013-2.973,40.158,3.964c5.458,5.298,10.602,12.362,14.493,20.076v-26.446c-0.996-1.161-2.006-2.287-3.028-3.367c-7.024-7.418-15.717-12.491-26.009-13.126c-10.466-0.645-21.483,2.115-31.569,5.142c-7.333-20.176-7.046-36.563-1.767-53.077c15.35,1.577,40.417,6.625,48.157,20.097c5.229,9.103,8.712,18.285,14.216,28.972v-34.389c-1.05-1.908-2.147-3.734-3.344-5.472c-10.035-14.583-35.667-21.38-53.283-23.575c5.96-12.576,12.812-22.861,24.354-41.835C202.896,47.331,213.716,56.986,225,66.045z M147.094,92c0.152,0.009,0.306,0.019,0.459,0.028c-0.258,0.887-0.503,1.777-0.737,2.671C146.924,93.802,147.006,92.901,147.094,92z M109.519,173.981c-4.553,2.729-9.252,6.184-14.766,5.801c-3.813-0.264-8.413-2.824-12.214-4.384c23.267-16.107,52.827-33.469,61.801-67.581c-1.749,15.194,0.747,28.782,6.11,43.354C135.916,157.305,124.394,165.065,109.519,173.981z" fill="#683e26" stroke-width="none" opacity="1" stroke="none"/>
    </g>
    <g id="svga-group-humanwrap-move" transform="matrix(1,0,0,1,0,0)">
      <g id="svga-group-humanwrap" transform="matrix(1,0,0,1,0,0)">
        <g id="svga-group-hair-back-move" transform="matrix(1,0,0,1,0,0)">
          <g id="svga-group-hair-back" transform="matrix(1,0,0,1,0,0)">
            <path id="SvgjsPath44714" d="M56.121,137.894c-0.284-3.904-1.705-10.141-3.683-16.807c0,0,3.453,13.279,0.099,24.668c1.421-24.748-3.5-31.88-5.756-39.022c0.653-1.621,5.689,1.326,5.69,1.333C55.797,117.583,57.066,132.609,56.121,137.894z M147.76,110.423c-4.348,10.77-7.406,23.196-2.63,31.81c-1.362-13.107,3.633-24.778,6.497-31.218L147.76,110.423z" fill="#b84131" stroke="#8a1000" stroke-width="1" stroke-miterlimit="10" opacity="1"/>
          </g>
        </g>
        <g id="svga-group-humanbody-single">
          <path id="SvgjsPath44555" d="M190.858 199.866c-6.008-10.158-13.474-11.973-19.628-13.936 -6.323-2.016-19.346-3.178-26.449-4.6 -6.86-1.373-23.153-5.789-23.339-13.488 -0.192-8.066 4.291-40.09 4.291-40.09H74.005c0 0 4.487 32.023 4.294 40.09 -0.184 7.699-16.48 12.115-23.341 13.488 -7.104 1.422-20.125 2.584-26.448 4.6 -6.156 1.963-13.624 3.777-19.632 13.936 -3.644 6.16-6.008 16.133-6.008 27.133h194C196.869 215.999 194.509 206.026 190.858 199.866z" fill="#daa488" stroke-width="none" opacity="1" stroke="none"/>
          <path id="SvgjsPath44556" d="M121.442 167.843c2.495 10.929 18.165 13.698 26.293 15.325 21.909 4.379 33.772 5.134 42.297 19.539 2.903 4.916 5.459 15.864 5.962 24.153 1.835 0.291 0.531-17.432-5.136-26.994 -9.742-16.472-29.089-15.135-46.077-18.535C137.921 179.958 121.628 175.542 121.442 167.843L121.442 167.843zM78.558 167.843c-0.186 7.699-16.479 12.115-23.339 13.488 -16.988 3.4-36.335 2.063-46.077 18.535 -5.667 9.563-6.971 27.285-5.136 26.994 0.503-8.289 3.059-19.237 5.962-24.153 8.524-14.405 20.388-15.16 42.297-19.539C60.393 181.541 76.063 178.771 78.558 167.843L78.558 167.843z" fill="#e9bfa9" stroke-width="none" opacity="1" stroke="none"/>
          <path id="SvgjsPath44557" d="M51.206 189.513c0 0 28.641 0.299 33.473 1.885 2.314 0.758 8.372 5.633 8.372 5.633s-6.556-3.17-8.658-3.758C79.51 191.909 51.206 189.513 51.206 189.513zM99.795 199.999c2.053-0.041 7.887-3.799 7.887-3.799s-5.574 2.059-7.342 2.16c-1.491 0.086-6.366-1.238-6.366-1.238S98.112 200.032 99.795 199.999zM117.008 192.757c6.75-1.818 29.786-3.23 29.786-3.23s-23.791-0.516-30.51 1.725c-2.252 0.752-7.562 5.16-7.562 5.16S114.786 193.354 117.008 192.757z" fill="#cb8b6a" stroke-width="none" opacity="1" stroke="none"/>
          <path id="SvgjsPath44558" d="M190.858 199.866c-9.741-16.471-29.122-15.142-46.077-18.535 -6.86-1.373-23.153-5.789-23.339-13.488 -0.192-8.066 4.291-40.09 4.291-40.09H74.005c0 0 4.487 32.023 4.294 40.09 -0.184 7.699-16.48 12.115-23.341 13.488 -7.104 1.422-20.125 2.584-26.448 4.6 -6.156 1.963-13.624 3.777-19.632 13.936 -3.644 6.16-6.008 16.133-6.008 27.133h194C196.869 215.999 194.509 206.026 190.858 199.866z" fill="none" stroke="#ac5f38" stroke-width="1.5" opacity="1"/>
        </g>
        <g id="svga-group-chinshadow-single">
          <path id="SvgjsPath44829" d="M83.869 167.568c7.443 3.113 24.852 3.176 32.267 0 1.555-0.665 3.14-1.648 4.733-2.873 0.526-9.943 3.455-31.496 4.102-36.179l0.017-0.113H82.682c-2.727 0.202-5.355 0.438-7.833 0.709 0.778 5.658 3.493 25.843 4.016 35.462C80.559 165.857 82.236 166.886 83.869 167.568z" fill="url(#SvgjsLinearGradient44830)" opacity="1"/>
        </g>
        <g id="svga-group-clothes-single">
          <path id="SvgjsPath44815" d="M1.21 226.811c-0.09-1.096 0.089-6.144 0.169-7.69 1.305-24.199 9.403-29.321 42.489-39.116 15.99-4.732 20.453-6.269 26.144-18.359 1.614-3.43 3.009-6.393 6.011-7.444 15.289 8.429 28.472 8.16 47.416 1.143 3.516 0.491 4.597 4.978 5.414 8.217 5.254 20.016 37.606 15.497 52.146 23.753 15.091 7.44 15.778 32.33 15.631 39.781 0.003 0.021 0.005 0.039 0.006 0.056C177.005 227.983 25.68 228.386 1.21 226.811z" fill="#152c5e" stroke-width="none" opacity="1" stroke="none"/>
          <path id="SvgjsPath44816" d="M176.786 216.725c0.847-10.266 1.101-18.312 4.157-27.83 -4.426 14.753 1.476 26.354-7.266 34.423C174.774 220.681 176.516 219.998 176.786 216.725zM24 203c-1.608-3.938-3.672-7.405-4.444-13.604 -0.28 0.134-0.394-0.626-0.666-0.492 1.111 11.097 4.736 15.713 5.84 31.829C24.556 214.957 25.534 206.758 24 203zM121.459 156.274c-0.581 0.144-1.164 0.78-1.75 0.899 8.181 7.474 2.813 10.296 14.771 23.422 0.333-0.167 1.415-0.766 2.718-1.523C129.319 174.611 127.548 163.537 121.459 156.274zM126 180c0.447 1.342 1.101 2.482 1.859 3.603 -0.457 0.174-0.908 0.362-1.37 0.522 -2.363-3.073-4.632-6.134-6.139-12.489 -1.558-6.561-0.884-5.584-5.94-12.752 0.319-0.045 0.954-0.411 1.448-0.491C120.643 165.023 122.608 172.368 126 180zM133.719 181.005c-0.481 0.25-0.969 0.488-1.457 0.725 -6.715-7.001-9.364-15.664-13.832-23.789 0.307-0.059 0.907-0.818 1.188-0.876 3.964 4.215 3.947 6.305 5.151 10.061C126.338 171.828 130.603 177.889 133.719 181.005zM111.212 160.025c3.591 9.259 5.941 16.57 6.595 26.388 -0.469 0.085-0.937 0.17-1.407 0.242 -0.65-5.13-1.491-10.462-1.739-11.689 -0.992-4.915-2.781-11.482-4.401-14.82C110.578 160.113 110.894 160.063 111.212 160.025zM125.619 184.426c-0.555 0.185-1.115 0.352-1.676 0.519 -5.889-7.32-5.781-16.893-10.411-26.211 0.182-0.025 0.465-0.041 0.646-0.068 5.14 8.711 3.5 6.198 5.83 15.03C121.229 178.313 123.751 182.464 125.619 184.426zM115.509 186.785c-0.369 0.053-0.746 0.089-1.12 0.133 -1.339-9.809-1.877-17.542-5.437-26.651 0.249-0.022 0.499-0.037 0.747-0.062C112.922 168.123 114.231 179.352 115.509 186.785zM91.081 160.364c-3.267 8.975-3.961 15.986-4.586 25.452 -0.369-0.063-0.742-0.123-1.105-0.191 0.281-8.057 1.408-18.063 4.9-25.33C90.553 160.322 90.817 160.34 91.081 160.364zM75.389 182.894c-0.419-0.152-0.842-0.297-1.26-0.458 5.056-6.227 7.374-16.511 7.99-24.521 0.332 0.081 0.663 0.15 0.995 0.226C83.353 167.592 79.914 174.831 75.389 182.894zM89.779 160.245c-4.003 7.147-5.299 17.074-5.13 25.23 -0.319-0.063-0.618-0.137-0.93-0.203 -0.337-9.561 0.856-17.051 5.107-25.256C89.146 160.056 89.455 160.212 89.779 160.245zM66.165 179.01c-0.527-0.256-1.054-0.51-1.576-0.774 2.807-1.871 5.653-4.711 7.56-7.97 1.716-2.93 5.611-11.628 6.41-14.44 0.269 0.104 0.543 0.189 0.816 0.282C77.312 165.13 72.909 173.355 66.165 179.01zM73.509 182.205c-0.559-0.215-1.106-0.456-1.661-0.682 4.743-7.656 6.889-16.213 7.854-25.317 0.614 0.203 1.23 1.398 1.847 1.56C80.13 166.507 78.633 174.861 73.509 182.205zM78.229 155.705c-0.65 1.82-1.54 3.55-2.45 5.311 -2.167 4.379-4.345 11.597-11.83 16.88 -0.542-0.276-1.08-0.564-1.618-0.854 6.891-5.698 10.479-14.131 14.154-21.908C77.048 155.346 77.63 155.466 78.229 155.705z" fill="#0a1f4f" stroke-width="none" opacity="1" stroke="none"/>
          <path id="SvgjsPath44817" d="M60.172 177.15l-1.928-1.29c-16.809 6.537-42.125 8.875-52 25.125 -3.719 6.119-4.913 15.014-4.913 26.014 2.027-5.485 0.759-14.439 6.636-23.292C19.401 186.481 39.771 188.32 60.172 177.15zM190.033 203.707c5.067 9.34 4.608 17.807 6.636 23.292 0-11-2.281-19.354-4.913-26.014 -7.483-18.933-33.191-16.791-50-23.328l-1.928 1.29C160.229 190.117 178.203 181.902 190.033 203.707z" fill="#233b6d" stroke-width="none" opacity="1" stroke="none"/>
          <path id="SvgjsPath44818" d="M181.049 187.226c-14.496-8.229-46.88-3.804-52.1-23.69 -0.653-2.542-1.702-7.762-5.53-8.29 -0.188 0.037-0.761-0.129-0.76-0.129 -15.076 5.88-30.845 7.63-46.67-1.011 -7.111 2.493-5.169 15.246-18.61 21.22 -5.86 2.654-13.6 4.395-24.6 7.98 -25.782 8.41-30.463 16.581-31.5 35.81 -0.073 1.41-0.273 6.859-0.16 7.79 27.119 1.767 181.426 0.968 195.61 0.34 0.01-0.05 0.01-0.1 0-0.149C197.017 212.672 193.824 193.524 181.049 187.226zM123.799 155.824c7.203 2.412-0.831 13.455 15.84 21.791 -2.201 1.354-4.629 2.715-5.159 2.98 -11.958-13.126-6.443-15.043-14.173-23.123C121.739 156.826 122.459 156.244 123.799 155.824zM119.917 157.563c3.964 4.215 3.648 5.807 4.853 9.563 1.568 4.703 5.833 10.764 8.949 13.88 -2.33 1.211-4.75 2.261-7.229 3.12 -2.363-3.073-4.408-6.164-6.039-12.489 -1.438-5.573-0.936-6.018-5.741-12.652C115.709 158.843 118.341 157.886 119.917 157.563zM114.278 159.063c5.14 8.711 3.4 5.8 5.73 14.632 1.22 4.618 3.742 8.769 5.61 10.73 -3.01 1-6.1 1.75-9.22 2.229 -0.65-5.13-1.414-10.458-1.64-11.689 -1-5.454-2.881-11.482-4.501-14.82C111.539 160.016 113.009 159.254 114.278 159.063zM109.699 160.205c3.223 7.918 4.532 19.146 5.81 26.58 -2.942 0.418-6.063 0.57-8.979 0.57 -0.001-0.025-1.897-15.809-2.641-26.162C105.917 160.893 108.049 160.662 109.699 160.205zM103.389 161.213c0.05 11.677 0.956 14.712 2.41 26.152 -3.489 0.01-6.97-0.149-10.459-0.45 2.365-19.61 3.55-25.632 3.55-25.632C100.732 161.283 102.403 161.246 103.389 161.213zM98.269 161.283c-2.776 15.35-3.252 19.064-3.58 25.572 -3.189-0.268-6.325-0.668-9.3-1.23 0.281-8.057 1.408-18.063 4.9-25.33C92.939 160.565 95.609 161.273 98.269 161.283zM89.779 160.245c-4.003 7.147-5.299 17.074-5.13 25.23 -3.873-0.771-7.202-1.758-10.52-3.04 5.056-6.227 7.374-16.511 7.99-24.521C84.642 158.53 87.31 159.698 89.779 160.245zM81.549 157.766c-1.419 8.741-2.916 17.096-8.04 24.439 -3.04-1.17-6.02-2.5-8.92-3.97 2.807-1.871 5.653-4.711 7.56-7.97 1.716-2.93 5.511-11.429 6.31-14.241C79.439 156.404 80.549 157.505 81.549 157.766zM75.789 154.804c0.77 0.471 1.49 0.761 2.34 1.101 -0.65 1.82-1.44 3.351-2.35 5.111 -2.167 4.379-4.345 11.597-11.83 16.88 -1.39-0.71-2.77-1.46-4.12-2.25C71.408 169.404 69.452 157.678 75.789 154.804zM1.559 226.655c0.136-3.996 0.887-16.321 3.59-22.41 2.73-6.149 8-10.39 13.88-13.52 -0.402 9.421 4.184 10.589 4.5 21.85 0.09 3.41 0.56 6.76 1.13 10.12 -0.26-3.53-0.37-7.03-0.35-10.57 0.058-10.247-4.58-12.021-4.58-21.779 7.43-3.782 15.967-6.216 24.41-8.761 4.94-1.479 9.94-3.029 14.56-5.359 13.184 8.692 25.449 13.279 47.35 13.149 15.873 0 25.119-4.104 34.9-11.109 13.149 6.077 30.126 5.28 39.46 10.91 -1.655 4.925-2.791 7.494-3.1 10.18 -0.715 6.32 0.347 10.814-0.561 16.62 -0.53 3.37-3.12 5.85-3.82 9.16 2.036-6.202 5.709-3.93 5.261-18.551 -0.257-8.245 0.476-8.458 2.779-17.069 11.486 7.199 14.441 24.116 15.091 37.58C162.822 226.877 14.665 226.935 1.559 226.655z" fill="#000f30" stroke-width="none" opacity="1" stroke="none"/>
        </g>
        <g id="svga-group-head" transform="matrix(1,0,0,1,0,0)">
          <g id="svga-group-ears-left-move" transform="matrix(1,0,0,1,0,0)">
            <g id="svga-group-ears-left" transform="matrix(1,0,0,1,0,0)">
              <path id="SvgjsPath44810" d="M45.443 81.864c-1.469-2.399-6.648-7.441-10.31-6.519 -2.979 0.752-6.032 3.199-6.032 7.37 -0.001 6.462 1.496 9.209 2.501 12.141 0.856 2.495 3.915 7.068 5.761 8.841 2.273 2.179 5.957 9.221 6.404 9.941 0.705 1.137 1.877 2.946 4.043 3.014 3.29 0.103 7.085-2.077 7.323-3.44C56.42 105.816 49.263 88.107 45.443 81.864z" fill="#daa488" stroke="#ac5f38" stroke-width="1.5" opacity="1"/>
              <path id="SvgjsPath44811" d="M43.596 98.002c-0.142-0.549 0.007-1.474 0.152-2.367 0.131-0.814 0.255-1.583 0.18-2.126 -0.285-2.036-1.892-5.906-2.942-8.003 -1.208-2.412-4.117-5.452-6.568-6.235 -1.013-0.325-1.681 0.063-2.067 0.456 -0.284 0.289-0.347 0.628-0.254 0.668 0.093 0.04 0.304-0.241 0.61-0.505 0.25-0.217 0.617-0.402 1.122-0.364 -0.203 1.014-3.138 4.164-1.381 10.249 0.822 2.849 1.992 5.143 2.202 5.473 0.032 0.347 0.083 0.687 0.159 1.016 0.991 4.297 7.286 11.382 8.785 12.981 0.277 0.296 0.567 0.471 0.639 0.4 0.072-0.071-0.1-0.363-0.376-0.661 -1.48-1.589-7.734-8.657-8.69-12.803 -1.754-7.595 1.916-7.723 4.499-12.3 0.397 0.647 0.733 1.27 0.993 1.789 0.203 0.407 0.429 0.883 0.661 1.398 -0.458 0.719-5.059 5.972-3.889 10.175 0.433 1.55 3.779 3.548 5.073 4.096 0.712 0.302 0.979 0.752 1.289 1.273 0.359 0.605 0.767 2.758 1.95 3.254 0.241 0.101 0.458 0.143 0.651 0.143 0.334 0 0.587-0.126 0.774-0.276 0.019 0.264 0.018 0.604 0.008 0.917 -0.011 0.405 0.046 0.738 0.147 0.746s0.208-0.313 0.221-0.717c0.016-0.497 0.014-1.112-0.077-1.407 -0.265-0.867-1.076-1.845-1.934-2.88C44.688 101.372 43.815 98.852 43.596 98.002zM34.616 94.192c-2.322-6.746 0.993-12.568 1.514-13.495 0.908 0.776 2.662 1.815 3.314 2.83C36.33 88.848 34.811 85.147 34.616 94.192zM45.884 105.528c-1.072-0.449-1.431-2.52-1.778-3.104 -0.314-0.528-0.639-1.074-1.461-1.423 -0.179-0.076-0.376-0.191-0.578-0.324 -3.861-5.679 0.291-8.507 1.027-9.037 0.226 0.724 0.396 1.387 0.47 1.919 0.068 0.489-0.058 1.266-0.179 2.017 -0.15 0.931-0.306 1.894-0.145 2.518 0.24 0.928 1.14 3.481 2.01 4.531 0.772 0.933 1.564 1.893 1.835 2.676C46.97 105.458 46.604 105.83 45.884 105.528z" fill="#ac5f38" stroke-width="none" opacity="1" stroke="none"/>
            </g>
          </g>
          <g id="svga-group-ears-right-move" transform="matrix(1,0,0,1,0,0)">
            <g id="svga-group-ears-right" transform="matrix(1,0,0,1,0,0)">
              <path id="SvgjsPath44812" d="M154.295 81.864c1.469-2.399 6.648-7.441 10.311-6.519 2.979 0.752 6.031 3.199 6.031 7.37 0.002 6.462-1.496 9.209-2.5 12.141 -0.857 2.495-3.916 7.068-5.762 8.841 -2.273 2.179-5.957 9.221-6.404 9.941 -0.705 1.137-1.877 2.946-4.043 3.014 -3.291 0.103-7.086-2.077-7.324-3.44C143.318 105.816 150.475 88.107 154.295 81.864z" fill="#daa488" stroke="#ac5f38" stroke-width="1.5" opacity="1"/>
              <path id="SvgjsPath44813" d="M154.205 102.391c-0.857 1.036-1.668 2.013-1.934 2.88 -0.09 0.295-0.092 0.91-0.076 1.407 0.014 0.404 0.119 0.725 0.221 0.717s0.158-0.341 0.146-0.746c-0.01-0.313-0.01-0.653 0.01-0.917 0.186 0.15 0.439 0.276 0.773 0.276 0.193 0 0.41-0.042 0.65-0.143 1.184-0.496 1.592-2.649 1.951-3.254 0.311-0.521 0.576-0.971 1.289-1.273 1.293-0.548 4.639-2.545 5.072-4.096 1.17-4.204-3.432-9.456-3.889-10.175 0.232-0.515 0.457-0.991 0.66-1.398 0.26-0.519 0.596-1.141 0.994-1.789 2.582 4.577 6.252 4.705 4.498 12.3 -0.957 4.146-7.209 11.214-8.689 12.803 -0.275 0.298-0.447 0.59-0.377 0.661 0.072 0.07 0.361-0.104 0.639-0.4 1.5-1.6 7.795-8.685 8.785-12.981 0.076-0.33 0.129-0.669 0.16-1.016 0.209-0.33 1.379-2.624 2.201-5.473 1.758-6.085-1.178-9.235-1.381-10.249 0.504-0.039 0.871 0.147 1.123 0.364 0.305 0.265 0.518 0.545 0.609 0.505 0.094-0.041 0.029-0.379-0.254-0.668 -0.387-0.393-1.055-0.781-2.068-0.456 -2.451 0.783-5.359 3.823-6.568 6.235 -1.049 2.097-2.656 5.967-2.941 8.003 -0.074 0.544 0.049 1.313 0.18 2.126 0.145 0.894 0.293 1.818 0.152 2.367C155.924 98.852 155.051 101.372 154.205 102.391zM160.295 83.528c0.652-1.015 2.406-2.054 3.313-2.83 0.521 0.926 3.836 6.749 1.516 13.495C164.928 85.147 163.408 88.848 160.295 83.528zM152.652 105.301c0.271-0.783 1.064-1.743 1.836-2.676 0.869-1.05 1.77-3.603 2.01-4.531 0.16-0.624 0.006-1.586-0.145-2.518 -0.121-0.751-0.248-1.528-0.18-2.017 0.074-0.532 0.244-1.195 0.471-1.919 0.734 0.53 4.887 3.358 1.025 9.037 -0.201 0.133-0.398 0.248-0.578 0.324 -0.822 0.349-1.146 0.895-1.461 1.423 -0.346 0.584-0.705 2.655-1.777 3.104C153.135 105.83 152.768 105.458 152.652 105.301z" fill="#ac5f38" stroke-width="none" opacity="1" stroke="none"/>
            </g>
          </g>
          <g id="svga-group-faceshape-wrap" transform="matrix(1,0,0,1,0,0)">
            <g id="svga-group-faceshape-single">
              <path id="SvgjsPath44826" d="M144.736 125.052c-4.549 9.721-18.57 27.825-28.601 32.018 -7.442 3.112-24.824 3.112-32.267 0 -10.029-4.192-24.05-22.297-28.601-32.018 -5.29-11.297-14.118-47.803-14.13-47.856 -1.3-4.912-1.996-10.066-2.004-15.382C39.082 28.339 66.289 1.168 99.907 1.116c33.621-0.052 60.913 27.032 60.963 60.506 0.009 5.316-0.669 10.473-1.952 15.389C158.901 77.063 150.045 113.711 144.736 125.052z" fill="#daa488" stroke-width="none" opacity="1" stroke="none"/>
              <path id="SvgjsPath44827" d="M110.152 1.969c26.994 6.24 47.097 30.337 47.052 59.111 -0.009 5.315-0.704 10.471-2.004 15.382 -0.012 0.053-8.158 36.591-13.396 47.856 -4.417 9.497-18.244 26.812-27.867 31.286 -3.169 1.473-10.439 1.823-13.935 1.823 -3.494 0-10.765-0.351-13.933-1.823 -9.623-4.474-23.451-21.789-27.867-31.286 -5.239-11.266-13.385-47.803-13.396-47.856 -1.3-4.911-1.996-10.066-2.004-15.382C42.756 32.307 62.857 8.209 89.853 1.969 61.03 6.788 39.087 31.751 39.134 61.813c0.008 5.315 0.704 10.47 2.004 15.382 0.012 0.053 8.781 36.586 14.13 47.856 4.602 9.696 18.738 27.446 28.601 32.018 3.671 1.703 12.088 2.334 16.134 2.334 4.043 0 12.464-0.632 16.133-2.334 9.862-4.571 24-22.321 28.601-32.018 5.35-11.271 14.119-47.803 14.13-47.856 1.3-4.912 1.996-10.066 2.004-15.382C160.918 31.751 138.975 6.788 110.152 1.969z" fill="#d29779" stroke-width="none" opacity="1" stroke="none"/>
              <path id="SvgjsPath44828" d="M144.736 125.052c-4.549 9.721-18.57 27.825-28.601 32.018 -7.442 3.112-24.824 3.112-32.267 0 -10.029-4.192-24.05-22.297-28.601-32.018 -5.29-11.297-14.118-47.803-14.13-47.856 -1.3-4.912-1.996-10.066-2.004-15.382C39.082 28.339 66.289 1.168 99.907 1.116c33.621-0.052 60.913 27.032 60.963 60.506 0.009 5.316-0.669 10.473-1.952 15.389C158.901 77.063 150.045 113.711 144.736 125.052z" fill="none" stroke="#ac5f38" stroke-width="1.5" opacity="1"/>
            </g>
          </g>
          <g id="svga-group-mouth-single-move" transform="matrix(1,0,0,1,0,0)">
            <g id="svga-group-mouth-single" transform="matrix(1,0,0,1,0,0)">
              <path id="SvgjsPath44681" d="M100.002 141.435c-4.158 0-5.133-3.232-5.133-3.232h10.267C105.136 138.202 103.659 141.435 100.002 141.435z" fill="url(#SvgjsLinearGradient44682)" opacity="1"/>
              <path id="SvgjsPath44685" d="M87.536 132.96c2.756-0.951 6.239-3.625 8.432-3.723 1.133-0.051 2.351 0.87 3.574 1.166 0.851 0.207 3.264-1.156 4.13-1.166 2.272-0.022 6.326 2.771 8.769 3.723 0.135 0.055 0 0 0 0s-5.056 6.021-12.452 6.021C91.618 138.98 87.536 132.96 87.536 132.96S87.399 133.01 87.536 132.96z" fill="#f771a9" stroke="#e85391" stroke-width="0.75" opacity="1"/>
              <path id="SvgjsPath44686" d="M112.808 132.902c-0.187-0.076-0.606-0.028-0.753-0.021 -0.304 0.016-0.546-0.117-1.214-0.129 -0.742-0.012-3.945-0.268-5.003-0.338 -2.129-0.143-3.824 0.666-5.848 0.666 -2.025 0-3.868-0.883-5.996-0.74 -1.057 0.072-4.113 0.395-4.857 0.412 -0.663 0.019-0.923 0.133-1.231 0.12 -0.143-0.007-0.595-0.05-0.771 0.05 -0.147 0.086-0.09 0.559 0.027 0.683 0.285 0.298 1.397-0.233 1.959-0.22 0.777 0.017 3.843-0.05 4.917-0.121 2.081-0.142 3.936 0.821 5.952 0.821s3.725-0.889 5.806-0.749c1.071 0.072 4.281 0.064 5.06 0.049 0.563-0.014 1.764 0.449 2.052 0.22C113.043 133.495 112.972 132.969 112.808 132.902z" fill="#c92066" stroke-width="none" opacity="1" stroke="none"/>
              <path id="SvgjsPath44687" d="M99.989 137.439c-3.37 0-6.645-1.154-9.241-3.306 1.307-0.072 2.652-0.277 3.961-0.219 1.613 0.07 3.144 0.705 4.756 0.813 1.742 0.116 3.358-0.488 5.064-0.695 1.422-0.171 2.931 0.059 4.357 0.111C106.335 136.101 103.244 137.439 99.989 137.439zM104.78 131.682c1.313-0.08 2.661 0.088 3.974 0.141 -1.43-0.712-2.953-1.553-4.549-1.807 -1.374-0.218-2.71 0.882-4.045 1.104 -1.506 0.25-2.69-1.15-4.16-1.15 -1.592 0.07-3.198 1.099-4.576 1.805 1.282-0.076 2.6-0.263 3.884-0.141 1.572 0.147 3.094 0.714 4.682 0.714C101.612 132.348 103.161 131.78 104.78 131.682z" fill="#ff8ebd" stroke-width="none" opacity="1" stroke="none"/>
              <path id="SvgjsPath44688" d="M99.941 136.486c-2.029 0-4.007-0.701-5.707-2.001 0.38-0.037 0.764-0.066 1.133-0.066 0.117 0 0.234 0.003 0.351 0.009 0.609 0.033 1.209 0.208 1.846 0.394 0.618 0.178 1.256 0.363 1.923 0.419 0.132 0.012 0.264 0.016 0.395 0.016 0.819 0 1.596-0.204 2.348-0.399 0.477-0.126 0.928-0.245 1.392-0.313 0.253-0.04 0.527-0.058 0.837-0.058 0.268 0 0.544 0.014 0.818 0.034C103.862 135.572 102.03 136.486 99.941 136.486z" fill="#ffa8cc" stroke-width="none" opacity="1" stroke="none"/>
            </g>
          </g>
          <g id="svga-group-eyes-left-move" transform="matrix(1,0,0,1,0,0)">
            <g id="svga-group-eyes-left" transform="matrix(1,0,0,1,0,0)">
              <g id="svga-group-eyesback-left">
                <path id="SvgjsPath44738" d="M83.271 92.712c-3.293-0.892-4.969 1.202-9.809 1.324 -8.057 0.203-9.938-0.703-11.199-2.996C61.74 90.088 61.24 88.849 61 88.083l-0.1-4.715c1.328-4.488 19.541-4.944 25.9 2.027 0.287 0.757 0.433 1.463 0.465 2.122 -0.19 1.09-0.512 2.136-0.947 3.124C85.611 91.562 84.556 92.262 83.271 92.712z" fill="url(#SvgjsRadialGradient44739)" opacity="1"/>
              </g>
              <g id="svga-group-eyesiriswrapper-left" transform="matrix(1,0,0,1,-0.5,0)">
                <g id="svga-group-eyesiriscontrol-left" transform="matrix(1,0,0,1,0,0)">
                  <g id="svga-group-eyesiris-left" transform="matrix(1,0,0,1,0,0)">
                    <path id="SvgjsPath44796" d="M83.199 89.25c-1.231 4.522-5.896 7.187-10.429 5.944 -4.528-1.241-7.203-5.918-5.97-10.442 1.23-4.526 5.905-7.19 10.434-5.947C81.761 80.045 84.433 84.723 83.199 89.25z" fill="#4d3623" stroke="#1f1105" stroke-width="0.5" opacity="1"/>
                    <path id="SvgjsPath44797" d="M81.878 89.354c-1.202 3.473-4.827 5.499-8.357 4.531 -3.258-0.894-5.315-4.02-5.048-7.325 1.209-0.096 2.532-0.124 3.904-0.056 -0.014 0.047-0.039 0.087-0.051 0.136 -0.434 1.594 0.576 3.265 2.256 3.726 1.685 0.461 3.401-0.462 3.835-2.056 0.055-0.208 0.085-0.417 0.093-0.623C79.66 88.108 80.792 88.651 81.878 89.354z" fill="#5c4633" stroke-width="none" opacity="1" stroke="none"/>
                    <path id="SvgjsPath44798" d="M76.151 84.464c-1.703-0.487-3.44 0.485-3.88 2.181 -0.44 1.687 0.584 3.454 2.286 3.942 1.705 0.489 3.443-0.484 3.884-2.173C78.884 86.719 77.855 84.953 76.151 84.464zM76.523 90.46c-0.708 0.22-1.441-0.072-1.636-0.655 -0.188-0.582 0.231-1.228 0.945-1.443 0.712-0.22 1.442 0.073 1.639 0.651C77.665 89.593 77.241 90.24 76.523 90.46z" fill="#000000" stroke-width="none" opacity="0.9"/>
                    <path id="SvgjsPath44799" d="M70.482 91.476c-0.523 0.314-1.307 0.034-1.754-0.633 -0.448-0.66-0.381-1.451 0.145-1.767 0.521-0.311 1.311-0.03 1.755 0.632C71.07 90.37 71.006 91.162 70.482 91.476z" fill="#ffffff" stroke-width="none" opacity="0.6"/>
                    <path id="SvgjsPath44800" d="M81.673 86.632c-1.198 0.718-2.999 0.072-4.02-1.445 -1.02-1.518-0.867-3.331 0.332-4.047 1.196-0.721 3-0.074 4.015 1.444C83.019 84.101 82.871 85.913 81.673 86.632z" fill="#ffffff" stroke-width="none" opacity="0.9"/>
                  </g>
                </g>
              </g>
              <g id="svga-group-eyesfront-left">
                <path id="SvgjsPath44763" d="M55.5 87c0 13.808 8.283 24.999 18.5 24.999S92.5 100.808 92.5 87c0-13.809-8.283-25.001-18.5-25.001S55.5 73.191 55.5 87zM61 88.083l-0.1-4.715c1.328-4.488 19.541-4.944 25.9 2.027 1.396 3.674-0.409 6.224-3.529 7.317 -3.293-0.892-4.969 1.202-9.809 1.324 -8.057 0.203-9.938-0.703-11.199-2.996C61.74 90.088 61.24 88.849 61 88.083z" fill="#daa488" stroke-width="none" opacity="1" stroke="none"/>
                <path id="SvgjsPath44764" d="M59.898 85.083c0.023 8.56 7.646 15.459 17.038 15.416 9.389-0.049 16.985-7.022 16.961-15.583 -0.023-8.562-7.647-15.463-17.04-15.417C67.465 69.549 59.874 76.522 59.898 85.083zM61 88.083l-0.1-4.715c1.328-4.488 19.541-4.944 25.9 2.027 1.396 3.674-0.409 6.224-3.529 7.317 -3.293-0.892-4.969 1.202-9.809 1.324 -8.057 0.203-9.938-0.703-11.199-2.996C61.74 90.088 61.24 88.849 61 88.083z" fill="url(#SvgjsRadialGradient44765)" opacity="1"/>
                <path id="SvgjsPath44769" d="M62.264 91.041C61.74 90.088 61.24 88.849 61 88.083l-0.1-4.715c1.328-4.488 19.541-4.944 25.9 2.027 1.396 3.674-0.409 6.224-3.529 7.317 -3.293-0.892-4.969 1.202-9.809 1.324C65.406 94.239 63.524 93.333 62.264 91.041z" fill="url(#SvgjsRadialGradient44770)" opacity="1"/>
                <path id="SvgjsPath44773" d="M89.665 83.698c-9.617-6.546-16.701-6.963-28.117-6.129C71.077 75.863 82.052 77.099 89.665 83.698z" fill="#ac5f38" stroke-width="none" opacity="1" stroke="none"/>
                <path id="SvgjsPath44774" d="M87.697 85.861c0.371 0.625 0.543 0.968 0.733 2.484C85.19 78.896 62.487 78.841 61 83.593v4.427c-1.021-1.75-1.494-3.878-1.931-5.889 -0.093-0.428-2.348-2.602-2.348-2.602s2.435 1.326 2.798 1.349c-0.182-0.216-1.127-1.248-1.127-1.248s2.251 0.931 2.576 0.843c-0.436-0.186-1.071-0.823-1.071-0.823 0.483 0.141 1.646 0.604 2.723 0.369 10.863-2.365 22.558 0.247 26.703 8C88.648 87.037 88.225 86.47 87.697 85.861zM84.943 93.048c-4.625-2.25-5.94 0.428-11.563 0.563 -8.004 0.191-9.567-0.871-11.125-2.813 0.813 2.375 1.375 3.504 10.875 3.438C78.506 94.198 81.443 91.673 84.943 93.048z" fill="#5fa2a5" stroke-width="none" opacity="1" stroke="none"/>
              </g>
            </g>
          </g>
          <g id="svga-group-eyes-right-move" transform="matrix(1,0,0,1,0,0)">
            <g id="svga-group-eyes-right" transform="matrix(1,0,0,1,0,0)">
              <g id="svga-group-eyesback-right">
                <path id="SvgjsPath44746" d="M116.729 92.712c3.293-0.892 4.969 1.202 9.809 1.324 8.057 0.203 9.938-0.703 11.199-2.996 0.523-0.952 1.023-2.191 1.264-2.958l0.1-4.715c-1.328-4.488-19.541-4.944-25.9 2.027 -0.287 0.757-0.433 1.463-0.465 2.122 0.19 1.09 0.512 2.136 0.947 3.124C114.389 91.562 115.444 92.262 116.729 92.712z" fill="url(#SvgjsRadialGradient44747)" opacity="1"/>
              </g>
              <g id="svga-group-eyesiriswrapper-right" transform="matrix(1,0,0,1,0.5,0)">
                <g id="svga-group-eyesiriscontrol-right" transform="matrix(1,0,0,1,0,0)">
                  <g id="svga-group-eyesiris-right" transform="matrix(1,0,0,1,0,0)">
                    <path id="SvgjsPath44801" d="M133.199 89.25c-1.231 4.522-5.896 7.187-10.429 5.944 -4.528-1.241-7.203-5.918-5.97-10.442 1.23-4.526 5.905-7.19 10.434-5.947C131.761 80.045 134.433 84.723 133.199 89.25z" fill="#4d3623" stroke="#1f1105" stroke-width="0.5" opacity="1"/>
                    <path id="SvgjsPath44802" d="M131.878 89.354c-1.202 3.473-4.827 5.499-8.357 4.531 -3.258-0.894-5.315-4.02-5.048-7.325 1.209-0.096 2.532-0.124 3.904-0.056 -0.014 0.047-0.039 0.087-0.051 0.136 -0.434 1.594 0.576 3.265 2.256 3.726 1.685 0.461 3.401-0.462 3.835-2.056 0.055-0.208 0.085-0.417 0.093-0.623C129.66 88.108 130.792 88.651 131.878 89.354z" fill="#5c4633" stroke-width="none" opacity="1" stroke="none"/>
                    <path id="SvgjsPath44803" d="M126.151 84.464c-1.703-0.487-3.44 0.485-3.88 2.181 -0.44 1.687 0.584 3.454 2.286 3.942 1.705 0.489 3.443-0.484 3.884-2.173C128.884 86.719 127.855 84.953 126.151 84.464zM126.523 90.46c-0.708 0.22-1.441-0.072-1.636-0.655 -0.188-0.582 0.231-1.228 0.945-1.443 0.712-0.22 1.442 0.073 1.639 0.651C127.665 89.593 127.241 90.24 126.523 90.46z" fill="#000000" stroke-width="none" opacity="0.9"/>
                    <path id="SvgjsPath44804" d="M120.482 91.476c-0.523 0.314-1.307 0.034-1.754-0.633 -0.448-0.66-0.381-1.451 0.145-1.767 0.521-0.311 1.311-0.03 1.755 0.632C121.07 90.37 121.006 91.162 120.482 91.476z" fill="#ffffff" stroke-width="none" opacity="0.6"/>
                    <path id="SvgjsPath44805" d="M131.673 86.632c-1.198 0.718-2.999 0.072-4.02-1.445 -1.02-1.518-0.867-3.331 0.332-4.047 1.196-0.721 3-0.074 4.015 1.444C133.019 84.101 132.871 85.913 131.673 86.632z" fill="#ffffff" stroke-width="none" opacity="0.9"/>
                  </g>
                </g>
              </g>
              <g id="svga-group-eyesfront-right">
                <path id="SvgjsPath44784" d="M126 61.999c-10.217 0-18.5 11.192-18.5 25.001 0 13.808 8.283 24.999 18.5 24.999S144.5 100.808 144.5 87C144.5 73.191 136.217 61.999 126 61.999zM137.736 91.041c-1.261 2.293-3.143 3.199-11.199 2.996 -4.84-0.122-6.516-2.216-9.809-1.324 -3.12-1.093-4.925-3.643-3.529-7.317 6.359-6.971 24.572-6.516 25.9-2.027l-0.1 4.715C138.76 88.849 138.26 90.088 137.736 91.041z" fill="#daa488" stroke-width="none" opacity="1" stroke="none"/>
                <path id="SvgjsPath44785" d="M123.146 69.499c-9.393-0.045-17.017 6.856-17.04 15.417 -0.024 8.56 7.572 15.533 16.961 15.583 9.392 0.043 17.015-6.856 17.038-15.416C140.129 76.522 132.537 69.549 123.146 69.499zM137.736 91.041c-1.261 2.293-3.143 3.199-11.199 2.996 -4.84-0.122-6.516-2.216-9.809-1.324 -3.12-1.093-4.925-3.643-3.529-7.317 6.359-6.971 24.572-6.516 25.9-2.027l-0.1 4.715C138.76 88.849 138.26 90.088 137.736 91.041z" fill="url(#SvgjsRadialGradient44786)" opacity="1"/>
                <path id="SvgjsPath44790" d="M137.736 91.041c0.523-0.952 1.023-2.191 1.264-2.958l0.1-4.715c-1.328-4.488-19.541-4.944-25.9 2.027 -1.396 3.674 0.409 6.224 3.529 7.317 3.293-0.892 4.969 1.202 9.809 1.324C134.594 94.239 136.476 93.333 137.736 91.041z" fill="url(#SvgjsRadialGradient44791)" opacity="1"/>
                <path id="SvgjsPath44794" d="M110.335 83.698c9.617-6.546 16.701-6.963 28.117-6.129C128.923 75.863 117.948 77.099 110.335 83.698z" fill="#ac5f38" stroke-width="none" opacity="1" stroke="none"/>
                <path id="SvgjsPath44795" d="M110.677 88.021c4.146-7.754 15.84-10.365 26.703-8 1.077 0.234 2.239-0.229 2.723-0.369 0 0-0.636 0.637-1.071 0.823 0.325 0.088 2.576-0.843 2.576-0.843s-0.945 1.032-1.127 1.248c0.363-0.022 2.798-1.349 2.798-1.349s-2.255 2.174-2.348 2.602c-0.437 2.011-0.91 4.139-1.931 5.889v-4.427c-1.487-4.752-24.19-4.698-27.431 4.751 0.19-1.516 0.362-1.859 0.733-2.484C111.775 86.47 111.352 87.037 110.677 88.021zM126.869 94.235c9.5 0.066 10.063-1.063 10.875-3.438 -1.558 1.941-3.121 3.004-11.125 2.813 -5.622-0.134-6.938-2.813-11.563-0.563C118.557 91.673 121.494 94.198 126.869 94.235z" fill="#5fa2a5" stroke-width="none" opacity="1" stroke="none"/>
              </g>
            </g>
          </g>
          <g id="svga-group-facehighlight-single">
            <path id="SvgjsPath44547" d="M140.204 113.007c0.035 22.275-17.995 40.365-40.273 40.396 -22.274 0.036-40.361-17.993-40.396-40.272C59.501 90.857 77.53 72.77 99.808 72.735 122.083 72.701 140.171 90.73 140.204 113.007z" fill="url(#SvgjsRadialGradient44548)" opacity="1"/>
            <path id="SvgjsPath44551" d="M135,55.999c0,19.329-15.671,35-35,35c-19.329,0-35-15.671-35-35s15.671-35,35-35C119.329,20.999,135,36.67,135,55.999z" fill="url(#SvgjsRadialGradient44552)" opacity="1"/>
          </g>
          <g id="svga-group-eyebrows-left-move" transform="matrix(1,0,0,1,0,0)">
            <g id="svga-group-eyebrows-left-rotate" transform="matrix(1,0,0,1,0,0)">
              <g id="svga-group-eyebrows-left" transform="matrix(1,0,0,1,0,0)">
                <path id="SvgjsPath44806" d="M90.857 72.446c-12.948-4.229-18.875-4.225-33.252-2.519 -0.434 0.051-2.459 0.548-2.637 0.221 11.896-2.694 21.942-3.566 33.164 0.925C88.531 71.233 90.911 72.118 90.857 72.446z" fill="#b84131" stroke-width="none" opacity="1" stroke="none"/>
              </g>
            </g>
          </g>
          <g id="svga-group-eyebrows-right-move" transform="matrix(1,0,0,1,0,0)">
            <g id="svga-group-eyebrows-right-rotate" transform="matrix(1,0,0,1,0,0)">
              <g id="svga-group-eyebrows-right" transform="matrix(1,0,0,1,0,0)">
                <path id="SvgjsPath44807" d="M108.978 72.414c9.882-6.264 21.947-6.458 33.14-3.238 0.444 0.128 2.899 0.624 2.915 1.026C120.586 64.812 108.978 72.414 108.978 72.414z" fill="#b84131" stroke-width="none" opacity="1" stroke="none"/>
              </g>
            </g>
          </g>
          <g id="svga-group-nose-single-move" transform="matrix(1,0,0,1,0,0)">
            <g id="svga-group-nose-single" transform="matrix(1,0,0,1,0,0)">
              <path id="SvgjsPath44808" d="M99.94,119.956c-1.906-0.058-5.298-2.021-4.893-3.788c0.375-1.641,2.509,0.598,4.961,0.618c2.452,0.02,5.381-1.442,5.725,0.204C106.288,119.647,103.011,120.053,99.94,119.956z" fill="#cb8b6a" stroke-width="none" opacity="1" stroke="none"/>
              <path id="SvgjsPath44809" d="M104.203,118.958c0.155,0.202,0.42,0.202,0.586-0.002c0.169-0.204,0.178-0.533,0.02-0.734c-1.15-1.481-3.219,0.505-3.064,0.71C101.804,119.011,103.336,117.853,104.203,118.958z M95.633,115.186c0.242,1.576,0.743,3.678,4.771,4.779c-3.972-0.117-6.554-0.855-6.533-4.551c0.011-1.867,1.964-5.712,1.964-5.712S95.378,113.521,95.633,115.186z" fill="#ac5f38" stroke-width="none" opacity="1" stroke="none"/>
            </g>
          </g>
          <g id="svga-group-hair-front" transform="matrix(1,0,0,1,0,0)">
            <path id="SvgjsPath44716" d="M151.686 97.871c0-11.927-0.214-18.574-3.512-30.116 -1.318-4.613-5.302-8.946-8.959-13.721 -3.451-4.509-6.078-10.609-9.096-16.049 -5.616 3.104-11.944 5.362-20.059 6.589 -4.189 0.633-9.402 1.421-15.795 2.708 -22.479 4.515-44.862 12.433-47.426 30.883 -2.551 14.437-13.806-33.235 53.641-45.936 49.198-9.264 63.93 13.61 60.493 39.159C159.061 85.624 151.686 97.871 151.686 97.871z" fill="#b84131" stroke-width="none" opacity="0.1" stroke="none"/>
            <path id="SvgjsPath44717" d="M151.417 100.722c2.836-14.29 3.792-26.049-0.761-36.989 -1.874-4.503-5.385-9.09-9.102-13.947 -3.507-4.582-7.132-9.319-10.193-14.848 -5.702 3.156-11.177 3.985-19.42 5.232 -4.256 0.644-9.551 1.445-16.048 2.752 -22.833 4.591-44.64 11.3-49.561 29.146 -2.594 14.676 0.425 24.889 0.562 25.339l0.031 0.095 -0.043 0.136 -0.06 0.083h-0.25l-0.059-0.193c-0.084-0.259-0.868-2.604-3.153-7.5 -7.005-15.01-12.961-31.84-2.395-57.841C47.262 16.686 55.446 6.695 67.499-0.208 77.797-6.107 87.54-8.975 97.284-8.975c8.261 0 21.392 3.475 21.588 4.475 8.281 0.491 15.644-0.313 27.202 12.248 8.979 9.761 21.073 33.709 17.583 59.679 -1.943 14.471-7.979 25.874-10.557 30.743 -0.692 1.308-1.193 2.253-1.294 2.643L151.417 100.722z" fill="#b84131" stroke-width="none" opacity="1" stroke="none"/>
            <path id="SvgjsPath44718" d="M163.657 67.426c-1.984 14.777-11.24 32.525-12.24 32.296 2.836-14.29 3.792-25.049-0.761-35.989 -4.134-9.933-16.133-20.627-18.963-28.787 -2.224 1.728-8.598 3.397-19.752 5.224 -4.248 0.696-9.551 1.445-16.048 2.752 -22.833 4.591-44.64 11.3-49.561 29.146 -3.892 22.017 4.976 35.981-2.973 18.959 -7.005-15.01-12.961-33.14-2.395-59.141C47.648 15.432 58.337 0.003 75.085-5.464c2.904-0.948 3.78-0.194 0.897 0.961C61.014 1.515 52.744 15.485 45.689 33.832c0 0 0.304-7.335 3.513-13.843 -7.833 13.622-13.98 27.905-8.879 51.601 -0.951-16.854 7.507-30.616 16.673-37.783 -8.38 11.338-12.324 20.929-12.294 31.598 5.167-13.667 16.371-22.259 31.5-24.667 18.59-2.958 48.883-7.153 56.491-13.126 0.312-0.347 0.653-0.686 1.066-1.008 0 6.396 2.777 9.232 5.24 11.396 13.915 12.229 19 28 18 45 2-17-1-34-10-48 8 8 12 19 14 30 1.22-17.085-3.16-33.417-10.611-48.104 2.134 6.681 2.111 12.406 2.39 12.865 -0.604-1-3.022-28.786-28.181-34.475C150.934-1.238 167.531 38.596 163.657 67.426zM149.595 45.788c-0.771-1.002-10.38-14.231-10.343-22.229C138.123 33.06 142.384 36.429 149.595 45.788zM64.803 31.048c8.477-6.569 14.928-9.919 25.442-12.212 6.227-1.359 15.22-1.644 27.042-4.067 0.04-0.008 0.081-0.019 0.122-0.026 0 0-10.631 3.032-26.412 5.793C80.345 22.399 75.041 24.457 64.803 31.048zM84.513 4.102c19.225-4.631 36.823-3.665 50.436 10.549C126.995 6.347 110.959-0.393 84.513 4.102z" fill="#a92d1c" stroke-width="none" opacity="1" stroke="none"/>
            <path id="SvgjsPath44719" d="M49.353 54.83c6.177-10.488 12.681-17.599 24.109-21.923 21.07-7.974 37.013-3.576 60.369-11.915 -4.557 1.627-7.094 4.249-33.97 7.959 -17.238 2.382-25.38 4.37-31.725 7.597C59.112 41.139 54.101 47.572 49.353 54.83zM102.038 5.505c-0.013 0.002-0.087 0.005-0.09 0.005 -7.204 0.476-33.15-0.68-52.604 29.249C66.716 12.814 83.166 9.125 102.038 5.505z" fill="#991b0a" stroke-width="none" opacity="1" stroke="none"/>
            <path id="SvgjsPath44720" d="M51.695 46.43c10.477-13.847 18.136-17.225 29.399-18.928C66.793 29.664 51.695 45.36 51.695 46.43 52.058 45.951 51.695 46.43 51.695 46.43zM67.385 8.454C51.056 18.625 47.031 32.039 46.892 33.039 49.467 26.4 59.661 13.267 67.385 8.454zM157.313 77.406c-0.259-9.621 0.057-23.952-14.679-35.755C154.329 52.545 155.494 65.235 157.313 77.406zM57.213 33.421c-0.637 0.263-5.713 5.016-6.229 5.533 -9.832 9.842-11.415 18.801-10.542 32.632C40.237 45.783 56.213 33.833 57.213 33.421zM141.658 19.382c7.828 10.565 12.673 21.56 15.459 29.502 -2.193-5.436-5.308-10.323-10.242-14.787 6.684 7.154 13.271 23.233 13.731 28.865C160.524 61.956 161.244 40.477 141.658 19.382zM100.645 37.108c25.392-4.578 25.475-6.359 33.177-10.399 -8.732 4.581-10.754 5.984-33.37 9.444 -25.869 3.957-47.642 6.37-54.768 27.178C53.682 42.119 75.816 41.586 100.645 37.108z" fill="#c75849" stroke-width="none" opacity="1" stroke="none"/>
            <path id="SvgjsPath44721" d="M151.28 11.084c-7.513-9.719-18.752-17.241-30.852-15.839C89.597-19.604 53.174-3.752 38.345 33.664 25.039 67.235 46.132 101.756 47.706 101c2.401-1.154-4.167-18.054 1.153-30.882 5.416-13.059 25.43-19.579 45.658-24.673 19.117-4.815 27.417-4.69 36.338-9.523 0.003-0.001 0.005-0.003 0.008-0.005 6.412 12.427 14.565 20.061 18.671 31.197 4.276 11.604-0.18 34.874 0.916 35.321 2.902 1.185 11.388-19.541 13.871-30.778C169.387 48.739 163.207 26.516 151.28 11.084zM163.459 67.399c-2.461 18.324-11.344 30.421-11.846 32.362 2.592-13.059 4.02-24.59-0.772-36.105 -3.604-8.663-12.96-17.276-19.401-28.991 -8.695 4.882-16.492 4.22-35.586 8.06C75.84 46.75 51.348 53.125 46.139 72.015c-3.956 22.372 3.399 31.39-2.599 18.928 -4.586-9.527-12.923-32.762-2.391-58.681C46.815 18.316 54.489 7.473 67.599-0.035c19.982-11.446 35.868-10.229 50.924-4.437 1.509-0.282-8.718 2.916-13.15 3.695 6.495 3.255 19.759-13.941 40.555 8.659C155.79 18.604 166.764 42.811 163.459 67.399z" fill="#8a1000" stroke-width="none" opacity="1" stroke="none"/>
          </g>
          <g id="svga-group-glasses-single-move" transform="matrix(1,0,0,1,0,0)">
            <g id="svga-group-glasses-single" transform="matrix(1,0,0,1,0,0)">
              <path id="SvgjsPath44679" d="M100,18.13L100,18.13L100,18.13L100,18.13z" fill="#26120b" stroke-width="none" opacity="1"/>
            </g>
          </g>
        </g>
      </g>
    </g>
    <rect id="SvgjsRect44532" width="200" height="15" x="0" y="185" fill="#ecf0f1" opacity="0.5" style="display: none;"/>
    <text id="SvgjsText44533" font-family="Roboto, Helvetica, Arial, sans-serif" font-size="10px" text-anchor="start" font-weight="400" anchor="start" fill="#333333" x="58.03125" y="182.4296875" style="display: none;">
      <tspan id="SvgjsTspan44534" dy="13" x="58.03125">Created on face.co</tspan>
    </text>
  </g>
</svg>
