<?xml version="1.0" encoding="UTF-8" standalone="no"?>
<!-- Created with Inkscape (http://www.inkscape.org/) -->

<svg
   xmlns:dc="http://purl.org/dc/elements/1.1/"
   xmlns:cc="http://creativecommons.org/ns#"
   xmlns:rdf="http://www.w3.org/1999/02/22-rdf-syntax-ns#"
   xmlns:svg="http://www.w3.org/2000/svg"
   xmlns="http://www.w3.org/2000/svg"
   xmlns:sodipodi="http://sodipodi.sourceforge.net/DTD/sodipodi-0.dtd"
   xmlns:inkscape="http://www.inkscape.org/namespaces/inkscape"
   width="2800"
   height="2800"
   id="svg2"
   version="1.1"
   inkscape:version="0.48.4 r9939"
   sodipodi:docname="bee 5.svg">
  <defs
     id="defs4" />
  <sodipodi:namedview
     id="base"
     pagecolor="#ffffff"
     bordercolor="#666666"
     borderopacity="1.0"
     inkscape:pageopacity="0.0"
     inkscape:pageshadow="2"
     inkscape:zoom="0.13106729"
     inkscape:cx="926.44871"
     inkscape:cy="975.20654"
     inkscape:document-units="px"
     inkscape:current-layer="layer1"
     showgrid="false"
     inkscape:window-width="1366"
     inkscape:window-height="706"
     inkscape:window-x="-8"
     inkscape:window-y="-8"
     inkscape:window-maximized="1" />
  <metadata
     id="metadata7">
    <rdf:RDF>
      <cc:Work
         rdf:about="">
        <dc:format>image/svg+xml</dc:format>
        <dc:type
           rdf:resource="http://purl.org/dc/dcmitype/StillImage" />
        <dc:title />
      </cc:Work>
    </rdf:RDF>
  </metadata>
  <g
     inkscape:label="Layer 1"
     inkscape:groupmode="layer"
     id="layer1"
     transform="translate(0,1747.6378)">
    <rect
       style="fill:#ffcc00;fill-opacity:1;stroke:none"
       id="rect2985"
       width="2799"
       height="2799"
       x="0.5"
       y="-1747.1378" />
    <g
       id="g4653"
       transform="matrix(1.3128712,0,0,1.3128712,12.214494,248.95832)">
      <path
         inkscape:connector-curvature="0"
         id="path4495"
         d="m 1030.5113,-1283.5205 c -34.53754,0.5461 -66.49146,16.2899 -94.75587,34.8828 -46.33881,30.1277 -79.96167,79.9611 -88.05987,134.9303 -8.67753,51.6151 -0.17652,104.5188 14.57122,154.18841 21.71999,73.158 57.51329,141.15858 97.14761,206.05353 5.51245,-3.25806 5.79958,-10.19969 9.16125,-15.08544 20.14457,-40.18653 53.74706,-74.7805 96.05776,-91.13639 31.6206,-12.73468 66.1428,-17.28389 100.1417,-15.80968 2.5362,-91.18632 2.0002,-183.54013 -18.2368,-272.90533 -8.818,-37.5308 -22.237,-75.3164 -48.0274,-104.589 -17.3212,-18.6636 -42.1495,-31.1697 -67.9996,-30.5292 z"
         style="fill:#00aad4;fill-opacity:1;stroke:none" />
      <path
         inkscape:connector-curvature="0"
         id="path4479"
         d="m 518.57686,-989.99953 c -55.89155,-0.47468 -110.56208,25.48605 -147.55004,66.82045 -21.60391,23.00291 -40.59593,50.18134 -46.83624,81.62634 -4.31535,23.74611 1.33245,49.12062 15.5684,68.50828 19.73698,28.552 50.16279,47.2786 80.55833,62.87524 50.86282,25.49287 106.09331,40.68198 161.18281,54.18161 93.09151,21.85592 188.14988,34.18633 283.25177,43.326 22.41016,2.00144 44.84471,3.73735 67.29926,5.16366 1.94452,-37.43499 6.86813,-74.82507 17.17265,-110.91122 -71.75911,-79.73777 -151.27608,-153.80337 -243.03194,-210.03613 -49.39036,-29.77852 -103.64063,-53.8033 -161.41848,-60.33279 -8.69871,-0.90526 -17.45132,-1.31553 -26.19652,-1.22144 z"
         style="fill:#00aad4;fill-opacity:1;stroke:none" />
      <path
         id="path4389"
         d="m 519.30606,-981.85816 c -54.83305,0.29938 -107.27426,21.63225 -152.11098,75.23514 -191.70249,229.18297 432.7661,282.23522 557.19948,290.4401 2.04473,-33.78329 6.82251,-67.31474 15.76897,-100.06438 -64.47225,-72.13233 -253.7727,-266.52314 -420.85747,-265.61086 z"
         style="fill:#e1f9ff;fill-opacity:1;stroke:none"
         inkscape:connector-curvature="0" />
      <path
         inkscape:connector-curvature="0"
         id="path4395"
         d="m 392.91371,-892.36398 c 0,0 65.25097,-107.47217 201.51033,-63.33181 -61.41265,15.35317 -120.90621,-11.51488 -201.51033,63.33181 z"
         style="fill:#ffffff;stroke:none" />
      <path
         id="path4391"
         d="m 1031.2405,-1275.3244 c -20.5121,-0.1664 -44.15446,6.5496 -71.35219,21.5478 -187.27321,103.2719 -91.60558,334.22534 -0.23696,484.99049 13.29919,-27.09987 31.33562,-51.75237 54.87225,-70.84172 37.4543,-30.65023 86.6302,-43.78924 134.4826,-44.2624 2.6164,-0.0135 5.2386,0.006 7.8571,0.0365 5.492,-180.23777 -12.3854,-390.55257 -125.6228,-391.47067 z"
         style="fill:#e1f9ff;fill-opacity:1;stroke:none"
         inkscape:connector-curvature="0" />
      <path
         sodipodi:nodetypes="ccc"
         inkscape:connector-curvature="0"
         id="path4397"
         d="m 873.41005,-1121.5271 c 0,0 42.06827,-118.0626 156.05975,-134.3471 -93.062,37.5315 -156.05975,134.3471 -156.05975,134.3471 z"
         style="fill:#ffffff;stroke:none" />
      <path
         sodipodi:nodetypes="ccccccccccccccc"
         inkscape:connector-curvature="0"
         id="path4453"
         d="m 1149.0062,-883.88276 c -47.8523,0.47316 -97.0234,13.59951 -134.4777,44.24974 -37.22808,30.19375 -60.72784,74.32338 -73.41702,120.00241 -20.11674,71.22394 -20.26684,146.25569 -15.08515,219.5712 9.42657,122.66627 37.04216,243.06676 69.5466,361.4598 32.73807,116.824557 71.98937,231.880548 117.00057,344.53187 1.8427,3.71853 12.6004,34.0848 16.2924,36.32475 0.3715,-9.9525 -0.1649,-17.11335 0.9845,-35.87735 0.149,-62.71206 18.3262,-123.408102 37.8135,-182.42927 40.5894,-119.753632 93.9708,-234.61804 140.1175,-352.33422 33.1977,-83.73845 64.1321,-168.99697 81.4174,-257.6196 8.8967,-48.04817 12.9642,-97.99856 3.1412,-146.22413 -8.0919,-37.96054 -27.3309,-74.33108 -57.9316,-98.70075 -36.7238,-30.15694 -83.9281,-43.80866 -130.4236,-49.75764 -18.1888,-2.32819 -36.6214,-3.29161 -54.9786,-3.19681 z"
         style="fill:#000000;fill-opacity:1;stroke:none" />
      <path
         sodipodi:nodetypes="csc"
         inkscape:connector-curvature="0"
         id="path4276"
         d="m 1121.7486,207.01615 c 0,0 -475.38579,-1144.19891 75.9943,-1080.20473 475.3171,55.16617 -81.4225,776.227531 -75.9943,1080.20473 z"
         style="fill:#ffff00;fill-opacity:1;stroke:none" />
      <path
         sodipodi:nodetypes="ssccs"
         inkscape:connector-curvature="0"
         id="path4401"
         d="m 1273.0844,-798.64859 c -69.8382,0.45877 -134.0246,45.50027 -167.6114,137.16416 -106.17205,289.76124 -19.4793,709.216197 16.2429,861.89537 2.0197,-245.874175 350.7174,-749.40207 249.8966,-969.72572 -35.622,-31.33331 -65.9754,-29.54764 -98.5281,-29.33381 z"
         style="fill:#faeb00;fill-opacity:1;stroke:none" />
      <path
         sodipodi:nodetypes="ccccccccccccccccccc"
         inkscape:connector-curvature="0"
         id="path4278"
         d="m 932.25165,-531.28589 c 1.53056,33.55237 4.85886,68.26254 9.58903,103.52808 120.13272,69.56963 279.69602,78.21874 382.81142,32.72282 11.1552,-30.21201 21.4248,-59.97759 30.3711,-88.99878 -182.8822,76.90806 -336.1148,10.53487 -422.77155,-47.25212 z m 21.52964,178.54447 c 6.24598,34.30699 13.5137,68.70105 21.47492,102.65303 96.89719,38.56631 215.89499,56.81869 285.95549,14.41992 11.4953,-27.68533 22.9485,-55.45845 33.999,-83.09226 -139.0647,45.38569 -258.6663,10.21935 -341.42941,-33.98069 z m 41.03567,180.4586 c 8.44204,31.56069 17.25934,62.31475 26.14184,91.769772 59.1794,19.468106 119.9451,31.142004 175.573,2.44276 9.9637,-25.277522 20.4833,-51.045912 31.2461,-77.094572 -88.5078,19.00068 -167.8036,6.52581 -232.96094,-17.11796 z M 1045.387,-2.9080363 c 40.56,123.7324163 76.3654,209.9182963 76.3654,209.9182963 -0.9964,-55.79262 16.948,-125.647469 43.9707,-202.8450626 -41.5886,18.6082926 -81.0343,25.0933246 -120.3361,-7.0732337 z"
         style="fill:#333333;stroke:none" />
      <path
         inkscape:connector-curvature="0"
         id="path4540"
         d="m 1190.5412,-860.00166 c -53.344,-0.76169 -104.7173,35.33018 -121.8742,85.40231 -16.0878,44.27932 -5.6006,97.32484 27.4088,131.2308 28.7697,30.72829 73.3737,46.58271 115.2707,39.13689 30.2904,-4.99362 58.8496,-20.5909 78.3782,-44.23388 23.9584,33.67169 71.1191,49.12045 110.4538,35.11976 36.8991,-12.24384 65.013,-47.91685 66.338,-86.91064 2.0539,-35.80533 -17.108,-72.07016 -48.7724,-89.44815 -28.7952,-16.63076 -66.5684,-17.60328 -95.6296,-1.07174 -4.4572,2.37287 -8.6847,5.15771 -12.709,8.14784 -19.7352,-45.95887 -68.3438,-78.21748 -118.8643,-77.37319 z"
         style="fill:#000000;fill-opacity:1;stroke:none" />
      <path
         transform="matrix(-5.0493287,0.44244962,0.44244962,5.0493287,23109.198,790.40486)"
         d="m 4264.7255,-668.05798 c 0,9.93647 -8.0551,17.99158 -17.9916,17.99158 -9.9365,0 -17.9916,-8.05511 -17.9916,-17.99158 0,-9.93648 8.0551,-17.99159 17.9916,-17.99159 9.9365,0 17.9916,8.05511 17.9916,17.99159 z"
         sodipodi:ry="17.991585"
         sodipodi:rx="17.991585"
         sodipodi:cy="-668.05798"
         sodipodi:cx="4246.7339"
         id="path4310"
         style="fill:#f1fcff;fill-opacity:1;stroke:none"
         sodipodi:type="arc" />
      <path
         sodipodi:type="arc"
         style="fill:#ffffff;fill-opacity:1;stroke:none"
         id="path4557"
         sodipodi:cx="4246.7339"
         sodipodi:cy="-668.05798"
         sodipodi:rx="17.991585"
         sodipodi:ry="17.991585"
         d="m 4264.7255,-668.05798 c 0,9.93647 -8.0551,17.99158 -17.9916,17.99158 -9.9365,0 -17.9916,-8.05511 -17.9916,-17.99158 0,-9.93648 8.0551,-17.99159 17.9916,-17.99159 9.9365,0 17.9916,8.05511 17.9916,17.99159 z"
         transform="matrix(-3.3758046,0.30511702,0.29580634,3.4820601,15888.387,310.76056)" />
      <path
         sodipodi:type="arc"
         style="fill:#f1fcff;fill-opacity:1;stroke:none"
         id="path4316"
         sodipodi:cx="4246.7339"
         sodipodi:cy="-668.05798"
         sodipodi:rx="17.991585"
         sodipodi:ry="17.991585"
         d="m 4264.7255,-668.05798 c 0,9.93647 -8.0551,17.99158 -17.9916,17.99158 -9.9365,0 -17.9916,-8.05511 -17.9916,-17.99158 0,-9.93648 8.0551,-17.99159 17.9916,-17.99159 9.9365,0 17.9916,8.05511 17.9916,17.99159 z"
         transform="matrix(6.8140162,-0.59708115,0.59708115,6.8140162,-27347.145,6357.8686)" />
      <path
         style="fill:#666666;stroke:none"
         d="m 1791.3484,374.70219 c -2.5255,-1.76781 -11.3645,-7.07125 -18.4357,-21.71882 -4.2933,-9.34408 -7.3238,-2.52542 -4.0407,1.76781 3.283,4.29329 10.1017,15.65772 22.4764,19.95101 z"
         id="path4344"
         inkscape:connector-curvature="0" />
      <path
         id="path4406"
         d="m 1355.005,-484.03377 c -111.3873,46.83757 -211.7649,40.53707 -292.81,15.38611 -3.2284,28.59942 -5.3572,57.56336 -6.5628,86.62888 95.3098,24.22327 196.2164,19.09215 269.0016,-13.01621 1.3936,-3.77416 2.7911,-7.54269 4.1565,-11.30259 0.8955,-2.46636 1.779,-4.92343 2.6616,-7.38314 0.4653,-1.29648 0.9237,-2.5884 1.3855,-3.88299 0.5386,-1.51086 1.0706,-3.01285 1.6042,-4.52103 0.054,-0.15273 0.11,-0.30305 0.1641,-0.45575 1.5839,-4.47911 3.1299,-8.94493 4.6668,-13.39904 0.3296,-0.95543 0.6754,-1.90789 1.0027,-2.86211 0.1295,-0.37736 0.2537,-0.75309 0.3828,-1.13026 0.8205,-2.39774 1.637,-4.79279 2.4428,-7.18261 0.1356,-0.4019 0.2659,-0.80151 0.4011,-1.20318 0.6003,-1.78379 1.1947,-3.56221 1.7865,-5.34138 0.1926,-0.57925 0.3917,-1.1531 0.5834,-1.73185 0.2738,-0.82625 0.5302,-1.65407 0.8021,-2.47928 0.6346,-1.92607 1.2717,-3.85857 1.8959,-5.77891 0.8917,-2.74309 1.7735,-5.47253 2.6434,-8.20349 0.8271,-2.59672 1.6361,-5.18067 2.4428,-7.76597 0.042,-0.13381 0.086,-0.26729 0.1276,-0.40106 0.03,-0.0974 0.061,-0.19429 0.091,-0.29168 0.3824,-1.22758 0.7527,-2.45754 1.1303,-3.68246 z m -59.8308,165.29127 c -89.9621,29.35152 -171.7798,24.97472 -240.7451,6.27111 0.1753,29.67779 1.1946,59.23871 2.862,88.39719 75.6305,17.97349 152.8019,19.34141 203.9206,-11.59427 0.9054,-2.18039 1.8117,-4.3632 2.7163,-6.54456 1.9677,-4.74563 3.927,-9.48897 5.8883,-14.23762 0.4174,-1.01013 0.8408,-2.01598 1.2579,-3.02618 2.4418,-5.91795 4.8853,-11.83816 7.3102,-17.756 4.645,-11.33616 9.2525,-22.66889 13.8001,-33.98069 0.01,-0.023 0.01,-0.0499 0.018,-0.0729 0.01,-0.0126 0.013,-0.0239 0.018,-0.0365 0.9946,-2.47421 1.9647,-4.94748 2.9532,-7.4196 z m -67.4145,163.57764 c -59.7525,12.82491 -115.3066,11.29466 -165.1454,1.67716 2.7706,29.84539 6.1138,58.981597 9.826,87.084601 42.3437,8.715099 84.5078,8.73995 124.0732,-11.667189 0,0 0.017,0 0.018,0 2.4243,-6.150593 4.8801,-12.334617 7.3649,-18.539865 0.1386,-0.346014 0.2805,-0.692932 0.4193,-1.039109 2.4872,-6.206218 5.0084,-12.431008 7.5472,-18.685738 5.2201,-12.8609 10.5134,-25.80106 15.8966,-38.82986 z M 1165.7231,4.1651974 c -27.6807,12.3853636 -54.4056,19.3945446 -80.7771,13.2167086 12.674,76.204483 26.7351,140.139514 36.7699,183.029034 0.011,-1.33268 0.042,-2.68106 0.073,-4.02879 0.041,-1.80008 0.1051,-3.60598 0.1823,-5.43254 0.057,-1.34733 0.1245,-2.7037 0.2006,-4.06526 0.066,-1.17879 0.1388,-2.36558 0.2187,-3.55487 0.025,-0.37609 0.046,-0.75312 0.073,-1.13026 0.1116,-1.57764 0.2286,-3.16222 0.3646,-4.75806 0.051,-0.60646 0.1089,-1.21385 0.164,-1.82299 0.075,-0.83153 0.1552,-1.66106 0.237,-2.49748 0.1513,-1.54841 0.3191,-3.10213 0.4922,-4.66688 0.2028,-1.8335 0.4058,-3.68625 0.6381,-5.54191 0.2003,-1.6001 0.4161,-3.21466 0.638,-4.83092 0.012,-0.0856 0.024,-0.16958 0.036,-0.25528 0.1659,-1.20324 0.3509,-2.41563 0.5286,-3.62774 0.1666,-1.13644 0.3337,-2.26483 0.5104,-3.40897 0.3003,-1.94288 0.6006,-3.90536 0.9298,-5.87012 0.01,-0.0548 0.027,-0.10932 0.036,-0.16404 0.3394,-2.02081 0.6879,-4.04525 1.0573,-6.08881 0.7384,-4.08469 1.5515,-8.22327 2.4064,-12.39639 0.4111,-2.00699 0.8205,-4.02547 1.2578,-6.05236 0.021,-0.0983 0.052,-0.19326 0.073,-0.29168 0.4527,-2.09297 0.9239,-4.19383 1.4038,-6.30757 0.1826,-0.80416 0.3604,-1.61742 0.5469,-2.42456 0.1537,-0.6655 0.3176,-1.33782 0.4739,-2.00536 0.2517,-1.07425 0.5073,-2.14728 0.7657,-3.22667 0.4172,-1.74296 0.8416,-3.49403 1.2761,-5.25024 0.2887,-1.166834 0.5789,-2.345804 0.875,-3.518356 0.1023,-0.404852 0.2068,-0.815887 0.31,-1.221438 0.2978,-1.171153 0.6062,-2.341605 0.9114,-3.518358 0.4209,-1.622323 0.8416,-3.252754 1.2762,-4.885636 0.5892,-2.214199 1.1907,-4.438899 1.8047,-6.672232 0.478,-1.738528 0.9658,-3.482073 1.4584,-5.231976 0.1276,-0.453096 0.2543,-0.913366 0.3829,-1.36722 0.024,-0.08505 0.049,-0.170166 0.073,-0.255278 1.2609,-4.447824 2.5679,-8.935317 3.9194,-13.45367 0.698,-2.333554 1.4117,-4.685076 2.133,-7.036832 0.6906,-2.252001 1.385,-4.513219 2.0964,-6.781554 0.074,-0.235385 0.1447,-0.475379 0.2187,-0.71094 0.6537,-2.079793 1.3347,-4.177962 2.0053,-6.271114 0.7491,-2.337813 1.5093,-4.682744 2.2788,-7.036774 0.2017,-0.617078 0.3985,-1.241272 0.6016,-1.859458 0.5686,-1.730595 1.1526,-3.474665 1.7318,-5.213776 0.7325,-2.199148 1.475,-4.405064 2.2241,-6.617513 0.1563,-0.461729 0.3169,-0.923166 0.4739,-1.385479 0.7105,-2.091285 1.4265,-4.186537 2.1512,-6.289315 0.4172,-1.210704 0.836,-2.431559 1.2579,-3.6459968 0.1404,-0.4043265 0.2783,-0.8167033 0.4193,-1.2214381 0.2734,-0.7850268 0.545,-1.5650951 0.8203,-2.3516387 z"
         style="fill:#1a1a1a;fill-opacity:1;stroke:none"
         inkscape:connector-curvature="0" />
      <path
         id="path4430"
         d="m 1026.7559,-775.47652 c 0,0 -70.40899,8.12941 -78.68062,240.78163 7.42838,5.89566 16.78115,11.98162 28.52995,17.71954 0.60664,-18.98963 1.90339,-38.16988 4.0106,-57.66144 13.5704,-135.70411 46.14007,-200.83973 46.14007,-200.83973 z m -66.83107,368.48266 c 2.26711,15.79615 4.98935,33.03113 8.20343,51.60909 6.83966,3.13305 13.71671,6.17343 20.1077,8.80508 -2.73759,-17.71202 -5.06041,-35.29724 -6.92739,-52.84872 -6.44227,-2.20615 -13.89685,-4.80954 -21.38374,-7.56545 z m 33.26969,174.64325 c 4.22655,18.20205 8.83578,37.1822 13.89128,56.89578 5.8411,1.72396 11.8202,3.39568 17.1726,4.73979 -4.6375,-19.72931 -9.1076,-39.0314 -13.3079,-57.98958 -5.1755,-0.99422 -11.25211,-2.22902 -17.75598,-3.64599 z m 45.72078,170.869665 c 5.8057,19.259788 11.9869,39.042558 18.5581,59.3568272 2.3644,1.13288407 4.7202,2.20859895 7.0004,3.11729801 -4.4702,-20.02626421 -8.9539,-39.50142921 -13.3991,-58.51824821 l -12.1594,-3.955877 z"
         style="fill:#ffff91;fill-opacity:1;stroke:none"
         inkscape:connector-curvature="0" />
      <path
         id="path4428"
         d="m 949.16908,-507.24056 c 1.07361,17.12632 3.18683,42.24724 7.38317,75.18045 7.62982,3.91866 15.50161,7.88259 22.73276,11.41197 -2.01463,-23.93792 -3.12062,-47.89376 -3.09904,-72.08136 -7.91992,-4.18 -17.18962,-9.12584 -27.01689,-14.51106 z"
         style="fill:#4d4d4d;stroke:none"
         inkscape:connector-curvature="0" />
      <path
         id="path4424"
         d="m 972.15712,-332.96192 c 4.46736,24.18171 9.74589,50.4344 16.02412,78.66241 6.30367,2.45495 12.88336,4.88114 18.64926,6.69043 -5.6102,-26.14815 -10.66166,-51.70595 -14.985,-76.93059 -6.00843,-2.58195 -12.35503,-5.30478 -19.68838,-8.42225 z"
         style="fill:none;stroke:#000000;stroke-width:0.76168936px;stroke-linecap:butt;stroke-linejoin:miter;stroke-opacity:1"
         inkscape:connector-curvature="0" />
      <path
         id="path4420"
         d="m 1012.4818,-154.70911 c 6.0553,22.85339 12.697,46.66592 19.9436,71.388588 4.5984,1.26624 9.2221,2.49042 13.3991,3.463755 -5.6339,-23.841763 -11.1719,-46.970563 -16.5164,-69.492723 -5.1063,-1.62126 -10.4674,-3.32077 -16.8263,-5.35962 z"
         style="fill:none;stroke:#000000;stroke-width:0.76168936px;stroke-linecap:butt;stroke-linejoin:miter;stroke-opacity:1"
         inkscape:connector-curvature="0" />
      <path
         id="path4411"
         d="m 1064.8201,20.335224 c 3.4918,10.528997 7.0885,21.179566 10.7921,31.975333 -2.1538,-10.230958 -4.3161,-20.305168 -6.4898,-30.261773 -1.3616,-0.541474 -2.7755,-1.101499 -4.3023,-1.71356 z"
         style="fill:none;stroke:#000000;stroke-width:0.76168936px;stroke-linecap:butt;stroke-linejoin:miter;stroke-opacity:1"
         inkscape:connector-curvature="0" />
      <g
         transform="matrix(0.58335948,0,0,0.58335948,2158.528,347.62556)"
         id="g4447">
        <path
           style="fill:#000000;stroke:none"
           d="m -1388.3028,166.50145 c 0,0 -110.2089,116.78851 -251.671,23.02872 13.1593,-18.09399 26.3185,-27.96344 26.3185,-27.96344 0,0 -46.9383,8.13332 -45.1936,70.84796 4.5442,-27.29922 14.4222,-36.69545 14.4222,-36.69545 0,0 34.0613,127.04852 140.9803,107.30962 55.9269,-9.86945 59.2167,-90.46997 59.2167,-90.46997 0,0 39.0666,-19.7389 55.9269,-46.05744 z"
           id="path4433"
           inkscape:connector-curvature="0"
           transform="translate(0,-1747.6378)"
           sodipodi:nodetypes="cccccccc" />
        <path
           style="fill:#800000;stroke:none"
           d="m -1641.2075,193.64244 c 0,0 88.4139,70.31984 190.8094,20.97258 -1.2337,20.15013 -7.4021,76.48825 -54.282,84.30157 -46.8799,7.81331 -106.919,-14.80418 -136.5274,-105.27415 z"
           id="path4435"
           inkscape:connector-curvature="0"
           transform="translate(0,-1747.6378)"
           sodipodi:nodetypes="ccsc" />
        <path
           style="fill:#ff0000;fill-opacity:1;stroke:none"
           d="m -1564.3125,240.53125 c -18.3022,0 -35.5321,2.69937 -50.5937,7.46875 31.6666,45.27174 74.7066,56.82493 110.2187,50.90625 16.8108,-2.80181 28.3846,-11.84362 36.375,-23.21875 -17.4211,-20.84024 -53.8662,-35.15625 -96,-35.15625 z"
           transform="translate(0,-1747.6378)"
           id="path4437"
           inkscape:connector-curvature="0" />
        <path
           style="fill:#ffffff;stroke:none"
           d="m -1641.2188,193.65625 c 5.3834,16.44901 11.8043,30.62464 18.9376,42.8125 63.8134,40.99619 116.8662,27.66887 155.8437,18.84375 4.2514,-7.55808 6.8806,-24.30107 8.3437,-37.21875 -99.0929,42.36397 -183.125,-24.4375 -183.125,-24.4375 z"
           transform="translate(0,-1747.6378)"
           id="path4442"
           inkscape:connector-curvature="0"
           sodipodi:nodetypes="ccccc" />
      </g>
      <path
         inkscape:connector-curvature="0"
         id="path4469"
         d="m 1298.7506,-894.28313 c -1.9192,-7.6766 -47.9787,-132.42107 -136.2594,-101.71473 34.5446,-69.08924 59.4935,-90.19984 59.4935,-90.19984 0,0 109.3914,42.2212 76.7659,191.91457 z"
         style="fill:#000000;stroke:none" />
      <path
         style="fill:#000000;stroke:none"
         d="m 1371.4675,-879.48347 c 5.4616,-5.72585 107.1427,-91.42072 168.722,-21.10461 4.1041,-77.135 -7.1556,-107.81602 -7.1556,-107.81602 0,0 -115.9668,-17.3436 -161.5664,128.92063 z"
         id="path4471"
         inkscape:connector-curvature="0" />
      <path
         transform="matrix(-3.3758046,0.30511702,0.29580634,3.4820601,15703.19,256.0649)"
         d="m 4264.7255,-668.05798 c 0,9.93647 -8.0551,17.99158 -17.9916,17.99158 -9.9365,0 -17.9916,-8.05511 -17.9916,-17.99158 0,-9.93648 8.0551,-17.99159 17.9916,-17.99159 9.9365,0 17.9916,8.05511 17.9916,17.99159 z"
         sodipodi:ry="17.991585"
         sodipodi:rx="17.991585"
         sodipodi:cy="-668.05798"
         sodipodi:cx="4246.7339"
         id="path4559"
         style="fill:#ffffff;fill-opacity:1;stroke:none"
         sodipodi:type="arc" />
      <g
         transform="matrix(0.58335948,0,0,0.58335948,2127.2747,328.70911)"
         id="g4521">
        <path
           transform="matrix(1.0785714,0,0,1.0785714,125.2022,-1744.4671)"
           d="m -1512.0637,-40.353626 c 0,44.96637 -36.4525,81.418815 -81.4188,81.418815 -44.9664,0 -81.4189,-36.452445 -81.4189,-81.418815 0,-44.96637 36.4525,-81.418814 81.4189,-81.418814 44.9663,0 81.4188,36.452444 81.4188,81.418814 z"
           sodipodi:ry="81.418816"
           sodipodi:rx="81.418816"
           sodipodi:cy="-40.353626"
           sodipodi:cx="-1593.4825"
           id="path4519"
           style="fill:#006078;fill-opacity:1;stroke:none"
           sodipodi:type="arc" />
        <path
           sodipodi:type="arc"
           style="fill:#00aad4;fill-opacity:1;stroke:none"
           id="path4511"
           sodipodi:cx="-1593.4825"
           sodipodi:cy="-40.353626"
           sodipodi:rx="81.418816"
           sodipodi:ry="81.418816"
           d="m -1512.0637,-40.353626 c 0,44.96637 -36.4525,81.418815 -81.4188,81.418815 -44.9664,0 -81.4189,-36.452445 -81.4189,-81.418815 0,-44.96637 36.4525,-81.418814 81.4189,-81.418814 44.9663,0 81.4188,36.452444 81.4188,81.418814 z"
           transform="translate(0,-1747.6378)" />
        <path
           transform="matrix(0.47142856,0,0,0.47142856,-842.26937,-1768.9676)"
           d="m -1512.0637,-40.353626 c 0,44.96637 -36.4525,81.418815 -81.4188,81.418815 -44.9664,0 -81.4189,-36.452445 -81.4189,-81.418815 0,-44.96637 36.4525,-81.418814 81.4189,-81.418814 44.9663,0 81.4188,36.452444 81.4188,81.418814 z"
           sodipodi:ry="81.418816"
           sodipodi:rx="81.418816"
           sodipodi:cy="-40.353626"
           sodipodi:cx="-1593.4825"
           id="path4513"
           style="fill:#006078;fill-opacity:1;stroke:none"
           sodipodi:type="arc" />
        <path
           sodipodi:type="arc"
           style="fill:#ffffff;fill-opacity:1;stroke:none"
           id="path4515"
           sodipodi:cx="-1593.4825"
           sodipodi:cy="-40.353626"
           sodipodi:rx="81.418816"
           sodipodi:ry="81.418816"
           d="m -1512.0637,-40.353626 c 0,44.96637 -36.4525,81.418815 -81.4188,81.418815 -44.9664,0 -81.4189,-36.452445 -81.4189,-81.418815 0,-44.96637 36.4525,-81.418814 81.4189,-81.418814 44.9663,0 81.4188,36.452444 81.4188,81.418814 z"
           transform="matrix(0.29999998,0,0,0.29999998,-1133.5318,-1807.1387)" />
        <path
           transform="matrix(0.16868015,0,0,0.16868015,-1299.1976,-1754.0436)"
           d="m -1512.0637,-40.353626 c 0,44.96637 -36.4525,81.418815 -81.4188,81.418815 -44.9664,0 -81.4189,-36.452445 -81.4189,-81.418815 0,-44.96637 36.4525,-81.418814 81.4189,-81.418814 44.9663,0 81.4188,36.452444 81.4188,81.418814 z"
           sodipodi:ry="81.418816"
           sodipodi:rx="81.418816"
           sodipodi:cy="-40.353626"
           sodipodi:cx="-1593.4825"
           id="path4517"
           style="fill:#ffffff;fill-opacity:1;stroke:none"
           sodipodi:type="arc" />
      </g>
      <g
         transform="matrix(0.42882716,0,0,0.42882716,2049.0542,64.934941)"
         id="g4528">
        <path
           sodipodi:type="arc"
           style="fill:#006078;fill-opacity:1;stroke:none"
           id="path4530"
           sodipodi:cx="-1593.4825"
           sodipodi:cy="-40.353626"
           sodipodi:rx="81.418816"
           sodipodi:ry="81.418816"
           d="m -1512.0637,-40.353626 c 0,44.96637 -36.4525,81.418815 -81.4188,81.418815 -44.9664,0 -81.4189,-36.452445 -81.4189,-81.418815 0,-44.96637 36.4525,-81.418814 81.4189,-81.418814 44.9663,0 81.4188,36.452444 81.4188,81.418814 z"
           transform="matrix(1.0785714,0,0,1.0785714,125.2022,-1744.4671)" />
        <path
           transform="translate(0,-1747.6378)"
           d="m -1512.0637,-40.353626 c 0,44.96637 -36.4525,81.418815 -81.4188,81.418815 -44.9664,0 -81.4189,-36.452445 -81.4189,-81.418815 0,-44.96637 36.4525,-81.418814 81.4189,-81.418814 44.9663,0 81.4188,36.452444 81.4188,81.418814 z"
           sodipodi:ry="81.418816"
           sodipodi:rx="81.418816"
           sodipodi:cy="-40.353626"
           sodipodi:cx="-1593.4825"
           id="path4532"
           style="fill:#00aad4;fill-opacity:1;stroke:none"
           sodipodi:type="arc" />
        <path
           sodipodi:type="arc"
           style="fill:#006078;fill-opacity:1;stroke:none"
           id="path4534"
           sodipodi:cx="-1593.4825"
           sodipodi:cy="-40.353626"
           sodipodi:rx="81.418816"
           sodipodi:ry="81.418816"
           d="m -1512.0637,-40.353626 c 0,44.96637 -36.4525,81.418815 -81.4188,81.418815 -44.9664,0 -81.4189,-36.452445 -81.4189,-81.418815 0,-44.96637 36.4525,-81.418814 81.4189,-81.418814 44.9663,0 81.4188,36.452444 81.4188,81.418814 z"
           transform="matrix(0.47142856,0,0,0.47142856,-842.26937,-1768.9676)" />
        <path
           transform="matrix(0.29999998,0,0,0.29999998,-1133.5318,-1807.1387)"
           d="m -1512.0637,-40.353626 c 0,44.96637 -36.4525,81.418815 -81.4188,81.418815 -44.9664,0 -81.4189,-36.452445 -81.4189,-81.418815 0,-44.96637 36.4525,-81.418814 81.4189,-81.418814 44.9663,0 81.4188,36.452444 81.4188,81.418814 z"
           sodipodi:ry="81.418816"
           sodipodi:rx="81.418816"
           sodipodi:cy="-40.353626"
           sodipodi:cx="-1593.4825"
           id="path4536"
           style="fill:#ffffff;fill-opacity:1;stroke:none"
           sodipodi:type="arc" />
        <path
           sodipodi:type="arc"
           style="fill:#ffffff;fill-opacity:1;stroke:none"
           id="path4538"
           sodipodi:cx="-1593.4825"
           sodipodi:cy="-40.353626"
           sodipodi:rx="81.418816"
           sodipodi:ry="81.418816"
           d="m -1512.0637,-40.353626 c 0,44.96637 -36.4525,81.418815 -81.4188,81.418815 -44.9664,0 -81.4189,-36.452445 -81.4189,-81.418815 0,-44.96637 36.4525,-81.418814 81.4189,-81.418814 44.9663,0 81.4188,36.452444 81.4188,81.418814 z"
           transform="matrix(0.16868015,0,0,0.16868015,-1299.1976,-1754.0436)" />
      </g>
      <path
         sodipodi:nodetypes="cccc"
         inkscape:connector-curvature="0"
         id="path4561"
         d="m 1188.3997,-1016.8686 c 3.3585,-4.318 28.7872,-51.577 40.7819,-53.4962 17.7521,7.1968 22.5499,14.8734 22.5499,14.8734 0,0 -32.6254,-5.0377 -63.3318,38.6228 z"
         style="fill:#333333;stroke:none" />
      <path
         inkscape:connector-curvature="0"
         id="path4563"
         d="m 1400.4654,-919.7118 c 0,0 43.6605,-80.12435 124.7444,-79.64456 -36.4638,16.31273 -87.3211,39.34249 -124.7444,79.64456 z"
         style="fill:#333333;fill-opacity:1;stroke:none" />
    </g>
  </g>
</svg>
