<?xml version="1.0" encoding="UTF-8" standalone="no"?>
<svg
   xmlns:dc="http://purl.org/dc/elements/1.1/"
   xmlns:cc="http://creativecommons.org/ns#"
   xmlns:rdf="http://www.w3.org/1999/02/22-rdf-syntax-ns#"
   xmlns:svg="http://www.w3.org/2000/svg"
   xmlns="http://www.w3.org/2000/svg"
   xmlns:xlink="http://www.w3.org/1999/xlink"
   xmlns:sodipodi="http://sodipodi.sourceforge.net/DTD/sodipodi-0.dtd"
   xmlns:inkscape="http://www.inkscape.org/namespaces/inkscape"
   width="725.97845"
   height="600"
   version="1.1"
   id="svg86982"
   sodipodi:docname="Living Well Laugh Often Logo 2.svg"
   inkscape:version="0.92.0 r15299">
  <metadata
     id="metadata86988">
    <rdf:RDF>
      <cc:Work
         rdf:about="">
        <dc:format>image/svg+xml</dc:format>
        <dc:type
           rdf:resource="http://purl.org/dc/dcmitype/StillImage" />
        <dc:title></dc:title>
      </cc:Work>
    </rdf:RDF>
  </metadata>
  <defs
     id="defs86986">
    <linearGradient
       inkscape:collect="always"
       id="linearGradient48026">
      <stop
         style="stop-color:#55582e;stop-opacity:1;"
         offset="0"
         id="stop48022" />
      <stop
         style="stop-color:#3a3c1e;stop-opacity:1"
         offset="1"
         id="stop48024" />
    </linearGradient>
    <linearGradient
       inkscape:collect="always"
       id="linearGradient48018">
      <stop
         style="stop-color:#435425;stop-opacity:1;"
         offset="0"
         id="stop48014" />
      <stop
         style="stop-color:#9cac4e;stop-opacity:1"
         offset="1"
         id="stop48016" />
    </linearGradient>
    <linearGradient
       inkscape:collect="always"
       id="linearGradient48010">
      <stop
         style="stop-color:#9cac4e;stop-opacity:1;"
         offset="0"
         id="stop48006" />
      <stop
         style="stop-color:#435425;stop-opacity:1"
         offset="1"
         id="stop48008" />
    </linearGradient>
    <linearGradient
       inkscape:collect="always"
       xlink:href="#linearGradient48010"
       id="linearGradient48012"
       x1="2133.5383"
       y1="1755.027"
       x2="2136.6116"
       y2="2557.8"
       gradientUnits="userSpaceOnUse"
       gradientTransform="translate(29.590519,-5.2633975)" />
    <linearGradient
       inkscape:collect="always"
       xlink:href="#linearGradient48018"
       id="linearGradient48020"
       x1="1946.2189"
       y1="2737.0969"
       x2="1909.1584"
       y2="1566.3862"
       gradientUnits="userSpaceOnUse"
       gradientTransform="translate(29.590519,-5.2633975)" />
    <radialGradient
       inkscape:collect="always"
       xlink:href="#linearGradient48026"
       id="radialGradient48028"
       cx="2965.5544"
       cy="675.41693"
       fx="2965.5544"
       fy="675.41693"
       r="769.10382"
       gradientTransform="matrix(-0.00323119,1.4872128,-2.2406944,-0.00486829,4518.1301,-3488.6456)"
       gradientUnits="userSpaceOnUse" />
  </defs>
  <sodipodi:namedview
     pagecolor="#ffffff"
     bordercolor="#666666"
     borderopacity="1"
     objecttolerance="10"
     gridtolerance="10"
     guidetolerance="10"
     inkscape:pageopacity="0"
     inkscape:pageshadow="2"
     inkscape:window-width="1600"
     inkscape:window-height="825"
     id="namedview86984"
     showgrid="false"
     inkscape:zoom="1.0033333"
     inkscape:cx="362.98921"
     inkscape:cy="300"
     inkscape:window-x="-9"
     inkscape:window-y="-9"
     inkscape:window-maximized="1"
     inkscape:current-layer="svg86982"
     inkscape:snap-global="false"
     showguides="true"
     inkscape:guide-bbox="true" />
  <g
     id="g4678">
    <g
       transform="matrix(0.19961932,0,0,0.19961932,-7.0069499,1.6881088)"
       id="g48109">
      <path
         style="opacity:1;fill:#c7d3fe;fill-opacity:1;stroke:#000000;stroke-width:0.80000001;stroke-linecap:round;stroke-linejoin:round;stroke-miterlimit:4;stroke-dasharray:none;stroke-dashoffset:0;stroke-opacity:1"
         d="M 1848.3105,-8.0566406 A 1818.886,2756.1875 0 0 0 529.42578,860.89648 H 3176.3574 A 1818.886,2756.1875 0 0 0 1861.0508,-8.0566406 Z"
         id="rect47993"
         inkscape:connector-curvature="0" />
      <path
         style="fill:#9bb7d0;fill-opacity:0.97689215;fill-rule:evenodd;stroke:#000000;stroke-width:1px;stroke-linecap:butt;stroke-linejoin:miter;stroke-opacity:1"
         d="m 1353.752,679.08594 c -183.5103,-0.0304 -452.22044,63.35828 -498.16216,24.40039 -143.47277,14.68358 -141.10197,2.21133 -148.0039,-8.53516 -24.51556,-0.0135 -46.17462,0.39075 -65.66406,1.07031 A 1818.886,2756.1875 0 0 0 338.26367,1226.3203 l 34.32617,21.416 1332.99996,-485.99997 c -164.8891,-20.73049 -278.1054,-81.32361 -279.3046,-78.27149 -21.8404,-3.07614 -46.3175,-4.37456 -72.5332,-4.3789 z"
         id="path47991"
         inkscape:connector-curvature="0" />
      <path
         style="fill:#8ba19e;fill-opacity:0.95945177;fill-rule:evenodd;stroke:#000000;stroke-width:1px;stroke-linecap:butt;stroke-linejoin:miter;stroke-opacity:1"
         d="m 2480.5898,680.73633 -208,3 c -349.2432,-7.28233 -181.6456,94.11769 -522,24 -65.9582,1.06512 -149.4381,7.10533 -313,40 -231.9202,72.03698 -442.13654,88.80538 -648.99996,114 -148.09556,26.46956 -255.69939,94.50939 -357.39843,168.61137 a 1818.886,2756.1875 0 0 0 -90.59766,191.0351 c 656.05327,473.4708 1058.35725,484.2098 1254.99605,554.3535 l 1946.2286,-47.6738 A 1818.886,2756.1875 0 0 0 3092.5723,732.95898 c -36.4318,-1.27803 -78.5115,1.43327 -129.9825,10.77735 -83.2323,48.90996 -103.5779,38.68066 -116,21 -55.0801,-13.49993 -143.7544,-32.8692 -249,-10 -52.8049,-33.89996 -84.0685,-52.46312 -117,-74 z"
         id="path47989"
         inkscape:connector-curvature="0" />
      <path
         style="fill:#617668;fill-opacity:1;fill-rule:evenodd;stroke:#000000;stroke-width:1px;stroke-linecap:butt;stroke-linejoin:miter;stroke-opacity:1"
         d="M 374.91602,1148.6582 A 1818.886,2756.1875 0 0 0 220.28125,1539.2031 L 1918.5898,1792.7363 C 1459.1258,1580.7874 1456.5314,1514.5305 374.91602,1148.6582 Z"
         id="path47985"
         inkscape:connector-curvature="0" />
      <path
         style="fill:url(#radialGradient48028);fill-opacity:1;fill-rule:evenodd;stroke:#000000;stroke-width:1px;stroke-linecap:butt;stroke-linejoin:miter;stroke-opacity:1"
         d="m 3031.9863,841.58789 c -27.1386,0.10031 -55.5637,4.70283 -86.2265,17.14844 -142.3303,137.3318 -319.8995,121.55271 -454.17,225.99997 -55.058,72.3623 -117.4482,131.5265 -193,167 -33.3177,38.1388 -135.446,150.3259 -159,274 8.3287,23.6487 0.066,43.0591 80,85 43.6539,46.856 146.6999,-39.1543 153,0 -69.6636,62.8108 -56.8523,117.7901 -57,174 l 1224.9219,-62.1015 A 1818.886,2756.1875 0 0 0 3180.123,867.02148 c -49.1205,-9.38435 -96.2825,-25.62525 -148.1367,-25.43359 z"
         id="path47987"
         inkscape:connector-curvature="0" />
      <path
         style="fill:#676c42;fill-opacity:1;fill-rule:evenodd;stroke:#000000;stroke-width:1px;stroke-linecap:butt;stroke-linejoin:miter;stroke-opacity:1"
         d="M 253.24414,1442.9629 A 1818.886,2756.1875 0 0 0 136.04883,1850.5664 L 1800.5898,1769.7363 C 1278.5841,1662.4414 884.19948,1521.7314 253.24414,1442.9629 Z"
         id="path47983"
         inkscape:connector-curvature="0" />
      <path
         style="fill:url(#linearGradient48012);fill-opacity:1;fill-rule:evenodd;stroke:none;stroke-width:1px;stroke-linecap:butt;stroke-linejoin:miter;stroke-opacity:1"
         d="m 3539.0898,1716.7363 c -1132.8412,23.9276 -2264.4769,28.0464 -3402.01753,129.1641 a 1818.886,2756.1875 0 0 0 -77.652348,455.2207 l 3591.486278,46.2715 a 1818.886,2756.1875 0 0 0 -111.8164,-630.6563 z"
         id="path47981"
         inkscape:connector-curvature="0" />
      <path
         style="fill:url(#linearGradient48020);fill-opacity:1;fill-rule:evenodd;stroke:none;stroke-width:1px;stroke-linecap:butt;stroke-linejoin:miter;stroke-opacity:1"
         d="m 1010.2734,2117.4727 c -60.37206,0.023 -122.42321,0.6084 -184.68356,1.2636 -258.23346,12.7203 -520.91967,17.4426 -752.263668,78.4649 a 1818.886,2756.1875 0 0 0 -38.22461,533.5351 H 3671.916 a 1818.886,2756.1875 0 0 0 -27.2012,-445.4121 c -259.9071,39.8775 -516.8175,-24.7841 -774.125,-75.5879 -264.0978,-59.2748 -497.1657,-82.0115 -671,-35 -293.7477,42.438 -511.5069,5.8171 -731,-29 -111.1964,-23.3415 -277.2001,-28.3327 -458.3164,-28.2636 z"
         id="path47979"
         inkscape:connector-curvature="0" />
    </g>
    <g
       transform="matrix(0.19961932,0,0,0.19961932,757.26386,351.56468)"
       id="g48544">
      <path
         style="opacity:1;fill:#000000;fill-rule:evenodd;stroke:#000000;stroke-width:1px;stroke-linecap:butt;stroke-linejoin:miter;stroke-opacity:1"
         d="m -1194.8833,-216.0134 c -28.2273,-12.8933 -54.7029,11.3989 -55.2886,0 -8.2959,-42.5989 11.0136,-51.6557 -8.2933,-82.933 -6.7982,-34.2106 -3.4103,-65.0259 30.4087,-85.6974 26.838,-25.3242 63.9938,-27.2135 104.3188,-27.4904 25.8096,9.6272 42.1877,25.5422 50.4894,46.8414 7.2484,33.882 8.0103,56.4127 7.5637,76.8285 28.3067,-19.382 65.9643,-19.7744 99.51956,-30.4088 114.28038,2.6189 139.10745,101.2092 206.60283,154.0786 71.46,56.4796 138.11713,69.4991 185.063,150.009 38.4113,59.0664 17.79938,192.9178 24.87989,274.984 30.94647,110.229 62.62254,135.9798 93.56902,205.7193 46.76119,124.0374 -15.02534,158.5537 54.55904,266.269 11.66169,38.783 -0.73066,46.1108 -13.82216,52.5243 -80.68742,5.9298 -15.25157,-6.7108 -193.51026,8.2932 -8.77243,-7.435 -13.10189,-15.5047 -8.2933,-24.8798 41.43076,-26.238 96.448,-39.9191 108.96415,-64.3116 3.40804,-94.133 -31.23707,-124.3534 -47.72495,-182.6065 l -14.24385,-46.1118 c -12.48632,8.3038 -40.56786,1.7195 -71.87524,11.0578 -29.48728,-14.6109 -58.97455,-65.9115 -88.46183,-107.8129 l -50.33542,125.1291 c -19.35103,-1.2581 -40.89084,-0.8477 -60.24187,7.5637 -7.43995,29.8571 7.55608,46.8936 12.20901,69.8404 1.26304,75.0565 -20.1111,91.7584 1.61315,174.2729 17.76895,22.8591 11.36766,55.7798 -4.95322,60.5498 -35.70791,6.28 -37.42535,11.0585 -69.29818,3.9157 -46.03871,13.2114 -109.52557,10.3094 -130.31657,-1.7269 -14.588,-0.5047 -14.0644,-14.1318 -2.6105,-28.2199 35.23244,-20.2217 89.47475,-16.2185 113.60946,-44.8468 26.88401,-77.5789 -61.79337,-243.1415 -54.55905,-267.2664 -9.65342,-6.2625 3.97805,4.7112 -9.7525,-5.02 -0.18292,-25.1102 -6.69908,-45.1538 1.76711,-77.1833 18.52934,-90.205 75.24819,-135.6541 114.64697,-204.9897 30.3094,-40.7649 13.46033,-79.2294 -35.93762,-116.1061 -31.68711,-24.5238 -152.36757,-131.2102 -212.86127,-74.6397 -4.7721,9.2148 -30.0683,18.4295 -46.9953,27.6443 l -33.1732,-8.2933 c -43.0913,28.6749 -99.0866,50.8977 -157.5727,71.8752 -60.8213,18.7482 -117.7221,-4.1149 -196.2747,11.0578 -29.9612,7.9018 -55.6683,11.4723 -70.7172,13.782 -29.906,0.1363 -142.5447,36.36 -131.0863,19.3912 41.5268,-24.4386 51.2608,-49.0313 82.625,-59.2446 -9.9643,-20.1618 -14.9444,-29.418 -30.6764,-39.9671 1.111,-4.9801 2.8336,-9.6542 15.395,-8.9091 l 59.8203,22.4234 c 32.6182,-7.7384 49.4544,0.3054 69.1108,5.5288 218.8938,-50.1618 135.6535,-25.6022 193.5102,-35.9376 41.8839,-29.377 84.7938,-52.598 128.6231,-70.3023 43.5853,-33.8219 80.1682,-78.8477 114.0713,-128.1612 l -49.1841,7.7177 c -11.0344,-10.009 -33.2057,-0.7815 -24.8799,-44.2309 z"
         id="path48493"
         inkscape:connector-curvature="0"
         sodipodi:nodetypes="cccccccccccccccccccccccccccccccccccccccccccccccccccc" />
      <circle
         style="opacity:1;fill:#000000;fill-opacity:1;stroke:none;stroke-width:0.80000001;stroke-linecap:round;stroke-linejoin:round;stroke-miterlimit:4;stroke-dasharray:none;stroke-dashoffset:0;stroke-opacity:1"
         id="path48491"
         cx="-2056.6218"
         cy="-568.62518"
         r="55.288647" />
      <path
         style="fill:#000000;fill-rule:evenodd;stroke:#000000;stroke-width:1px;stroke-linecap:butt;stroke-linejoin:miter;stroke-opacity:1"
         d="m -2472.6289,18.898758 c -1.9456,1.6501 -3.8923,2.719339 -5.8379,15.505539 -5.235,2.484933 -12.9603,-10.711381 -12.4023,-2.189453 7.9383,13.1308 2.6356,31.163747 5.8359,33.560547 2.1988,30.149018 -4.0214,18.722678 -2.1895,54.720699 -5.2612,20.5337 -6.4866,32.99541 -6.2519,42.53711 l -11.9863,-5.32812 c -1.8375,-8.2485 2.1772,-12.10706 -6.5664,-25.53516 -23.1173,-12.2002 -41.0187,-8.75264 -60.5567,-10.21484 -0.1021,21.9467 12.9055,15.67572 8.0254,19.69922 -22.349,6.884 -41.5963,16.97337 -50.3418,45.23437 -7.6821,31.902 -7.3637,42.29464 -9.4863,58.36914 11.1596,-1.8626 25.6281,-8.31938 37.5742,-10.58008 l -1.0937,-12.76757 17.1738,61.13476 c -25.2167,60.5415 -58.4105,111.7773 -54.4395,206.3711 -3.7742,17.6383 10.4708,20.86023 27.3321,21.99023 -2.5944,17.1905 -2.9524,23.4266 -2.9454,37.375 -11.6938,15.8182 -18.2808,16.25122 -29.9746,37.97852 -13.7823,14.9627 -30.4157,81.67325 -35.5605,86.81835 -4.28,35.66531 2.335,23.46622 12.9648,41.10352 26.9316,34.7047 35.3686,36.20655 42.6289,32.68555 11.5238,-17.9945 -6.3005,-3.35026 -13.2363,-65.66016 -7.5601,-5.9206 0.1276,-30.98626 40.1621,-92.25586 1.7332,-1.2052 13.2414,-8.71559 18.7442,-18.86719 12.8708,-26.9277 19.8365,-36.7131 22.9336,-59.0664 l 1.6503,-0.0234 c 2.5756,29.362 16.953,45.2368 24.6719,68.7207 -9.0574,41.8084 -6.3997,44.10764 -7.7754,65.43164 4.9587,15.8468 6.8183,34.01732 4.002,55.69532 -2.2008,26.1899 11.2599,25.67678 14.5918,31.45508 l 30.4531,24.88867 c 8.1584,-0.88 19.6307,4.86644 20.6367,-10.31836 -9.596,-19.1827 -22.4205,-14.15485 -28.5156,-59.59375 -3.775,-33.0373 6.3748,-52.27852 4.5254,-82.01172 0.8671,-6.0798 3.9213,-5.59978 1.291,-22.17188 -7.1498,-19.3532 -6.7433,-48.86272 -10.3281,-72.86132 l 47.4726,-0.67774 c 8.6853,-60.2907 6.4204,-133.71919 -12.3828,-226.99609 l -21.4258,-52.40821 c -0.283,-31.5654 20.9493,-70.26082 33.4571,-94.82812 6.9247,-15.04948 7.7291,-33.52715 13.9277,-53.659346 2.155,-6.999189 10.4162,-10.669165 12.3379,-19.301592 -3.3521,-17.834064 -7.1101,-21.869436 -10.9434,-23.345703 -10.1949,-7.8278 -10.6558,10.473359 -17.5097,10.943359 -1.6165,-3.21001 -3.0616,-9.502895 -5.1309,-4.5625 l -1.4355,4.542969 v 25.554687 l -14.2188,34.062496 c 3.5482,-31.859594 -2.9476,-27.274847 2.3178,-43.454628 l 7.6293,-32.007808 c -1.8118,-12.188779 -12.4582,-15.64614 -19.8045,-15.691536 z"
         id="path48497"
         inkscape:connector-curvature="0"
         sodipodi:nodetypes="cccccccccccccccccccccccccccccccccccccccccscccccccccc" />
      <path
         inkscape:connector-curvature="0"
         style="opacity:1;fill:#000000;fill-opacity:1;stroke:none;stroke-width:0.97919542;stroke-linecap:round;stroke-linejoin:round;stroke-miterlimit:4;stroke-dasharray:none;stroke-dashoffset:0;stroke-opacity:1"
         d="m -3050.0586,28.7268 c 2.7657,5.126 5.5311,11.2818 8.2969,18.0723 -32.6973,5.7149 -53.6843,33.5308 -53.7227,61.5156 0,23.0354 14.5069,41.1492 36.7266,49.8359 -20.4275,67.1452 -40.8539,104.3306 -61.2813,149.2696 -10.8879,16.057 -25.2351,56.3293 -39.2871,94.5351 l -22.0996,73.6641 -44.1973,34.3769 1.5293,1.791 c -24.3653,8.6533 -53.4374,27.4789 -88.1992,62.4161 -9.7851,8.6813 -1.0956,2.6292 -19.5898,11.3105 -10.1908,30.4975 1.6037,18.9745 5.6113,72.8184 6.4005,13.0182 16.6691,19.0749 31.2539,17.3613 9.5866,-4.8908 4.3466,-69.0488 22.168,-78.0254 29.9466,-28.7111 59.8932,-29.7474 89.8398,-37.7832 l 7.7227,9.041 c 32.4806,-5.7083 57.2114,-23.0418 83.4863,-38.0586 3.2107,15.1419 0.7961,30.2839 -2.4551,45.4258 4.7028,9.0476 27.2719,5.1701 53.9649,1.6152 -0.6843,73.0755 14.8468,58.2584 16.0136,92.92 5.6676,9.3649 0.609,18.0083 1.8418,28.8515 -3.1007,18.3896 10.888,17.2658 16.5742,23.9395 18.6755,0.01 35.422,22.0515 60.1602,21.4863 14.924,-1.0561 17.6189,-5.6066 21.4844,-9.8223 l -44.8125,-36.832 -13.5039,-26.3965 c -10.7811,-51.0505 -2.5796,-57.5163 -4.5879,-97.0625 0.3,0.027 0.6054,0.043 0.9043,0.072 2.0462,-13.3277 4.0924,-25.5695 6.1386,-51.5645 6.4884,-10.1156 -11.3865,-56.7775 -23.3261,-94.5351 31.0074,-28.5316 51.2009,-59.4644 52.791,-94.5332 3.8265,-53.0435 7.652,-77.6781 11.4785,-96.0528 9.9544,-0.1788 21.4006,-1.85 36.4023,-7.0761 23.835,-0.967 64.6945,-27.4707 100.6739,-46.6543 l 45.4258,4.9101 c 22.9338,4.1041 25.4025,-6.4107 25.7832,-18.416 -7.2221,-3.5746 -18.2872,-1.8654 -19.6446,-13.5039 1.5335,-4.7162 8.2145,-10.9776 2.4551,-13.5058 -12.3299,-1.4092 -25.9481,5.4669 -39.0039,8.791 -14.7325,3.7509 -29.6538,7.2324 -44.4805,13.3086 l -66.2968,12.2773 c -1.6691,-3.8181 16.007,-13.326 27.0097,-20.8711 13.0602,-7.0639 30.5991,-26.4419 46.6543,-41.7422 l 23.3262,-7.3672 c 23.8015,-24.2435 35.4499,-44.0682 23.3262,-55.248 -7.3663,-0.3698 -14.7333,7.3628 -22.0996,11.0508 -8.3352,6.2528 -10.052,1.4738 -8.5938,-8.5957 -6.7687,-6.3861 -16.322,15.0743 -24.5547,23.3281 -11.7724,17.75 -44.5251,22.6874 -72.4355,44.1973 -24.9944,8.9137 -44.0332,11.321 -58.8164,17.3085 5.9865,-9.166 8.8303,-21.0879 7.2519,-35.9394 -0.011,-3.1532 -0.3234,-6.3006 -0.9336,-9.4121 l 2.1621,1.0332 c 0.8166,-18.0066 -2.4115,-36.0129 -30.6933,-54.0195 z"
         id="path48504" />
      <path
         inkscape:connector-curvature="0"
         style="opacity:1;fill:#000000;fill-rule:evenodd;stroke:#000000;stroke-width:1px;stroke-linecap:butt;stroke-linejoin:miter;stroke-opacity:1"
         d="m -3307.3594,-481.9158 c -22.3653,0.3662 -43.5131,11.6885 -64.3633,25.6914 -16.6224,11.7196 -25.0072,37.1711 -31.9219,65.0703 10.9455,40.3693 0.039,41.5472 -3.6816,61.3848 l 22.0977,4.9121 3.6835,8.5938 c -21.3605,1.5665 -29.7173,7.4895 -47.8808,28.2382 -24.9568,20.2802 -61.4214,91.1435 -75.1563,131.5625 -15.2248,47.8469 -7.8447,52.6667 5.0508,81.8653 14.373,25.2219 32.5791,44.6947 39.4121,81.2265 9.8344,122.8228 -3.9335,151.2354 -6.1386,225.9004 l 30.6933,8.5938 -8.5937,111.7226 41.7422,11.0508 c -13.505,27.7563 -27.0107,44.3868 -40.5157,99.4453 -17.1882,44.8486 -34.3762,103.9303 -51.5644,131.3672 -20.0575,23.5245 -44.6776,40.2032 -58.9297,72.4356 0.4816,33.7741 13.7376,33.482 23.3262,42.9707 27.8284,11.7349 55.6579,36.581 83.4863,41.7422 48.315,9.5926 71.5395,11.2627 57.7031,1.2285 -4.7119,-5.0624 -10.3855,-10.4743 -16.334,-15.9864 l -0.8554,0.025 c -0.09,-0.3487 -0.1653,-0.6979 -0.25,-1.0468 -23.0217,-21.2604 -49.7248,-43.8593 -42.7207,-54.2012 -14.6355,-2.615 -6.3891,-23.5348 -6.1387,-38.0586 15.1419,-46.6138 30.2839,-64.4971 45.4258,-85.9414 8.1451,71.2989 7.7428,74.2163 9.8222,96.9902 -4.088,23.025 -13.3773,52.4323 -6.3886,81.211 0.3685,0.3403 0.7389,0.6818 1.1054,1.0214 l 40.8887,-1.2031 c 54.1627,-9.6407 47.9048,9.2926 90.8516,0 44.1561,4.1842 34.1182,-5.1792 13.5039,-17.1875 -3.2795,-8.8812 -36.1468,-23.3678 -65.0684,-40.5156 -8.5823,-15.2823 -20.2576,-29.5335 -19.6445,-47.8809 1.5837,-92.2993 28.8028,-144.7574 38.0605,-230.8125 l 160.8321,-36.832 -13.5059,-44.1973 25.7812,4.9102 -104.0703,-257.8223 c 8.9355,7.5819 21.1604,12.6001 36.4102,36.9942 13.2768,12.4631 23.9995,20.3588 29.4434,31.123 1.5444,10.053 3.8014,21.7769 3.8417,31.3281 8.8201,11.3539 5.3609,-15.4961 10.9004,-19.4316 7.9409,15.4187 11.4256,22.2415 13.5801,20.3008 7.219,-2.2427 -6.3914,-28.3586 1.6485,-23.2656 l 22.5449,22.5468 c 11.1818,7.0582 -4.6192,-17.1534 -17.9805,-35.7539 l 20.8711,15.961 c 15.0192,6.2447 -17.9138,-30.8962 -25.6465,-46.3692 42.5555,10.1759 27.2485,-1.9017 31.7852,-0.2851 -26.1071,-14.1873 -24.8237,-10.7482 -49.2461,-32.7754 -12.6424,-11.9311 -17.497,-8.6129 -29.3281,-20.0156 -9.8827,-10.7158 -40.1821,-33.4958 -56.4766,-92.0801 -3.3091,-24.9022 -9.1755,-45.33 0,-92.0801 8.2602,-23.8276 32.7137,-23.3657 23.3281,-73.6621 l -60.1601,-92.0801 -7.3653,-12.2773 c 1.2896,-23.8633 11.435,-36.6549 25.7813,-44.1973 6.1386,1.4635 12.2774,3.4473 18.416,-42.9707 9.2008,-0.9272 16.7669,-3.3254 -6.1387,-33.1484 5.6648,-16.302 -17.3609,-28.5068 -33.1484,-41.7442 -7.7597,-2.6191 -15.3496,-3.7138 -22.8047,-3.5918 z m -111.0742,292.3672 12.9023,1.5469 c 7.8327,76.2736 1.9674,128.9567 -14.9668,162.5762 l -10.8398,-4.129 c -16.1777,-18.2686 -14.4927,-50.716 -26.8379,-96.5136 10.9804,-27.4606 25.0823,-38.5177 39.7422,-63.4805 z"
         id="path48519" />
    </g>
    <g
       id="text4531"
       style="font-style:normal;font-variant:normal;font-weight:bold;font-stretch:normal;font-size:38.32690811px;line-height:3.99238634px;font-family:Tahoma;-inkscape-font-specification:'Tahoma Bold';font-variant-ligatures:normal;font-variant-caps:normal;font-variant-numeric:normal;font-feature-settings:normal;text-align:start;writing-mode:lr-tb;text-anchor:start;opacity:1;fill:#000000;fill-opacity:1;stroke:none;stroke-width:0.15969546;stroke-linecap:round;stroke-linejoin:round;stroke-miterlimit:4;stroke-dasharray:none;stroke-dashoffset:0;stroke-opacity:1"
       aria-label="Living Well Laugh Often">
      <path
         id="path4569"
         style="stroke-width:0.15969546"
         d="m 153.95035,592.08386 h -18.60202 v -27.86561 h 6.99915 V 586.769 h 11.60287 z" />
      <path
         id="path4571"
         style="stroke-width:0.15969546"
         d="m 163.45722,592.08386 h -6.55001 v -21.01617 h 6.55001 z m 0.18715,-24.01046 h -6.9243 v -5.109 h 6.9243 z" />
      <path
         id="path4573"
         style="stroke-width:0.15969546"
         d="m 188.17883,571.06769 -7.54187,21.01617 h -7.14887 l -7.48572,-21.01617 h 6.88687 l 4.30429,13.90473 4.24815,-13.90473 z" />
      <path
         id="path4575"
         style="stroke-width:0.15969546"
         d="m 197.21784,592.08386 h -6.55001 v -21.01617 h 6.55001 z m 0.18714,-24.01046 h -6.9243 v -5.109 h 6.9243 z" />
      <path
         id="path4577"
         style="stroke-width:0.15969546"
         d="m 221.95816,592.08386 h -6.58744 v -10.42387 q 0,-1.27257 -0.11229,-2.52643 -0.0936,-1.27257 -0.37428,-1.87143 -0.33686,-0.71115 -0.97315,-1.01057 -0.63628,-0.31815 -1.703,-0.31815 -0.80471,0 -1.62814,0.29943 -0.82343,0.29943 -1.75915,0.95443 v 14.89659 h -6.55001 v -21.01617 h 6.55001 v 2.32058 q 1.60943,-1.36615 3.12529,-2.13344 1.53457,-0.76728 3.38729,-0.76728 3.21886,0 4.92187,2.03986 1.703,2.02114 1.703,5.87629 z" />
      <path
         id="path4579"
         style="stroke-width:0.15969546"
         d="m 239.38118,585.459 v -9.52559 q -0.48657,-0.22457 -1.19771,-0.37428 -0.71115,-0.14972 -1.42229,-0.14972 -2.358,0 -3.55572,1.53458 -1.179,1.51585 -1.179,4.24814 0,1.36615 0.16843,2.32058 0.18714,0.93571 0.67371,1.66557 0.46786,0.71115 1.21643,1.08543 0.76729,0.35557 1.94629,0.35557 0.87957,0 1.72172,-0.29943 0.86086,-0.29942 1.62814,-0.86085 z m 6.55001,4.21072 q 0,2.91943 -0.84214,4.95929 -0.84215,2.03986 -2.30186,3.18143 -1.45972,1.16029 -3.49958,1.66557 -2.03986,0.52401 -4.52886,0.52401 -2.09601,0 -3.98615,-0.28072 -1.87143,-0.262 -3.25629,-0.61757 v -5.25872 h 0.76729 q 0.48657,0.18714 1.14157,0.41171 0.67371,0.22457 1.34743,0.41172 0.80471,0.20585 1.572,0.33685 0.76729,0.131 1.572,0.131 1.66558,0 2.76972,-0.35557 1.12286,-0.33685 1.68429,-0.97314 0.56143,-0.655 0.786,-1.55329 0.22457,-0.87957 0.22457,-2.227 v -0.393 q -1.10414,0.97314 -2.56386,1.572 -1.441,0.58014 -2.97557,0.58014 -4.07972,0 -6.30673,-2.65743 -2.20829,-2.65743 -2.20829,-8.08458 0,-2.47029 0.67372,-4.43529 0.69243,-1.96501 1.90886,-3.34986 1.16029,-1.32872 2.80715,-2.03986 1.64686,-0.72986 3.42472,-0.72986 1.60943,0 2.882,0.41171 1.27257,0.41172 2.32057,1.10415 l 0.24329,-0.93572 h 6.34415 z" />
      <path
         id="path4581"
         style="stroke-width:0.15969546"
         d="m 298.48098,564.21825 -7.0553,27.86561 h -7.67287 l -4.47272,-17.23588 -4.34172,17.23588 h -7.67286 l -7.0553,-27.86561 h 7.26115 l 3.83644,18.6956 4.67857,-18.6956 h 6.94301 l 4.43529,18.6956 4.0423,-18.6956 z" />
      <path
         id="path4583"
         style="stroke-width:0.15969546"
         d="m 312.29213,592.64529 q -5.95115,0 -9.13259,-2.84457 -3.16271,-2.84458 -3.16271,-8.1033 0,-5.14644 2.95686,-8.21558 2.95686,-3.06915 8.27172,-3.06915 4.82829,0 7.26115,2.60129 2.43287,2.60129 2.43287,7.4483 v 2.358 h -14.35388 q 0.0936,1.45971 0.61757,2.45157 0.524,0.97315 1.38486,1.55329 0.84214,0.58014 1.965,0.84215 1.12286,0.24328 2.45158,0.24328 1.14157,0 2.24571,-0.24328 1.10415,-0.26201 2.02115,-0.67372 0.80472,-0.35557 1.47843,-0.76729 0.69243,-0.41171 1.12286,-0.72986 h 0.69243 v 5.40844 q -0.80472,0.31814 -1.47843,0.59886 -0.655,0.262 -1.81529,0.54271 -1.06672,0.28072 -2.20829,0.43043 -1.12286,0.16843 -2.751,0.16843 z m 2.17086,-13.77373 q -0.0562,-2.07729 -0.97315,-3.16272 -0.89828,-1.08543 -2.76971,-1.08543 -1.90886,0 -2.99429,1.14157 -1.06672,1.14158 -1.17901,3.10658 z" />
      <path
         id="path4585"
         style="stroke-width:0.15969546"
         d="m 330.83802,592.08386 h -6.55001 V 562.9644 h 6.55001 z" />
      <path
         id="path4587"
         style="stroke-width:0.15969546"
         d="m 342.44089,592.08386 h -6.55001 V 562.9644 h 6.55001 z" />
      <path
         id="path4589"
         style="stroke-width:0.15969546"
         d="m 377.69864,592.08386 h -18.60202 v -27.86561 h 6.99915 V 586.769 h 11.60287 z" />
      <path
         id="path4591"
         style="stroke-width:0.15969546"
         d="m 392.23967,586.60057 v -4.37915 q -1.66557,0.16843 -2.69486,0.29943 -1.02929,0.11229 -2.02114,0.46786 -0.86086,0.29943 -1.34743,0.917 -0.46786,0.59886 -0.46786,1.60943 0,1.47843 0.786,2.03986 0.80471,0.54271 2.358,0.54271 0.86086,0 1.75915,-0.393 0.89828,-0.393 1.62814,-1.10414 z m 0,3.25629 q -0.67371,0.56143 -1.21643,1.01057 -0.524,0.44915 -1.42229,0.89829 -0.87957,0.43043 -1.72171,0.655 -0.82343,0.22457 -2.32058,0.22457 -2.78843,0 -4.64115,-1.87143 -1.834,-1.87143 -1.834,-4.71601 0,-2.33928 0.93572,-3.78029 0.93571,-1.441 2.69486,-2.28314 1.77786,-0.86086 4.24815,-1.19772 2.47029,-0.33686 5.31486,-0.524 v -0.11228 q 0,-1.74044 -1.29129,-2.39544 -1.27257,-0.67371 -3.83643,-0.67371 -1.16029,0 -2.71358,0.43043 -1.55328,0.41171 -3.03171,1.06671 h -0.56143 v -5.07158 q 0.97314,-0.28071 3.144,-0.655 2.17086,-0.393 4.37915,-0.393 5.42715,0 7.89744,1.81529 2.489,1.79658 2.489,5.50201 v 14.29773 h -6.51258 z" />
      <path
         id="path4593"
         style="stroke-width:0.15969546"
         d="m 423.1557,592.08386 h -6.55001 v -2.32057 q -1.70301,1.42229 -3.12529,2.17086 -1.42229,0.72986 -3.38729,0.72986 -3.12529,0 -4.88444,-1.96501 -1.74043,-1.98371 -1.74043,-5.95115 v -13.68016 h 6.58744 v 10.42387 q 0,1.62815 0.0749,2.65743 0.0936,1.02929 0.41171,1.74044 0.29943,0.655 0.917,0.99185 0.63629,0.33686 1.75915,0.33686 0.69243,0 1.62814,-0.33686 0.95443,-0.33685 1.75915,-0.917 v -14.89659 h 6.55001 z" />
      <path
         id="path4595"
         style="stroke-width:0.15969546"
         d="m 440.74716,585.459 v -9.52559 q -0.48657,-0.22457 -1.19771,-0.37428 -0.71115,-0.14972 -1.42229,-0.14972 -2.358,0 -3.55572,1.53458 -1.179,1.51585 -1.179,4.24814 0,1.36615 0.16843,2.32058 0.18714,0.93571 0.67371,1.66557 0.46786,0.71115 1.21643,1.08543 0.76729,0.35557 1.94629,0.35557 0.87958,0 1.72172,-0.29943 0.86086,-0.29942 1.62814,-0.86085 z m 6.55001,4.21072 q 0,2.91943 -0.84214,4.95929 -0.84215,2.03986 -2.30186,3.18143 -1.45972,1.16029 -3.49958,1.66557 -2.03986,0.52401 -4.52886,0.52401 -2.096,0 -3.98615,-0.28072 -1.87143,-0.262 -3.25629,-0.61757 v -5.25872 h 0.76729 q 0.48657,0.18714 1.14157,0.41171 0.67372,0.22457 1.34743,0.41172 0.80472,0.20585 1.572,0.33685 0.76729,0.131 1.57201,0.131 1.66557,0 2.76971,-0.35557 1.12286,-0.33685 1.68429,-0.97314 0.56143,-0.655 0.786,-1.55329 0.22457,-0.87957 0.22457,-2.227 v -0.393 q -1.10414,0.97314 -2.56386,1.572 -1.441,0.58014 -2.97557,0.58014 -4.07972,0 -6.30672,-2.65743 -2.20829,-2.65743 -2.20829,-8.08458 0,-2.47029 0.67371,-4.43529 0.69243,-1.96501 1.90886,-3.34986 1.16029,-1.32872 2.80715,-2.03986 1.64686,-0.72986 3.42472,-0.72986 1.60943,0 2.882,0.41171 1.27257,0.41172 2.32058,1.10415 l 0.24328,-0.93572 h 6.34415 z" />
      <path
         id="path4597"
         style="stroke-width:0.15969546"
         d="m 471.98135,592.08386 h -6.58744 v -10.42387 q 0,-1.27257 -0.11228,-2.52643 -0.0936,-1.27257 -0.37429,-1.87143 -0.33686,-0.71115 -0.97314,-1.01057 -0.63629,-0.31815 -1.703,-0.31815 -0.80472,0 -1.62815,0.29943 -0.82343,0.29943 -1.75915,0.95443 v 14.89659 h -6.55 V 562.9644 h 6.55 v 10.42387 q 1.60944,-1.36615 3.12529,-2.13344 1.53458,-0.76728 3.3873,-0.76728 3.21886,0 4.92186,2.03986 1.703,2.02114 1.703,5.87629 z" />
      <path
         id="path4599"
         style="stroke-width:0.15969546"
         d="m 513.82656,578.16042 q 0,6.75586 -3.61187,10.62972 -3.61186,3.87387 -9.89987,3.87387 -6.30672,0 -9.89987,-3.91129 -3.59314,-3.93001 -3.59314,-10.5923 0,-6.71844 3.59314,-10.61102 3.59315,-3.91129 9.89987,-3.91129 6.28801,0 9.89987,3.89258 3.61187,3.87386 3.61187,10.62973 z m -7.22373,-0.0187 q 0,-2.489 -0.524,-4.22943 -0.50528,-1.75915 -1.36614,-2.88201 -0.89829,-1.14157 -2.03986,-1.62814 -1.12286,-0.50529 -2.33929,-0.50529 -1.29129,0 -2.33929,0.46786 -1.048,0.44914 -2.02115,1.62814 -0.86085,1.08543 -1.40357,2.88201 -0.524,1.79657 -0.524,4.28558 0,2.56386 0.50529,4.26686 0.50528,1.68429 1.38486,2.82586 0.89828,1.16029 2.03986,1.66557 1.14157,0.48657 2.358,0.48657 1.23514,0 2.39543,-0.524 1.16029,-0.54271 2.00243,-1.66557 0.89829,-1.21643 1.38486,-2.82586 0.48657,-1.62815 0.48657,-4.24815 z" />
      <path
         id="path4601"
         style="stroke-width:0.15969546"
         d="M 531.00628,567.90497 H 530.501 q -0.37429,-0.11228 -1.179,-0.28071 -0.78601,-0.18714 -1.49715,-0.18714 -1.98372,0 -2.71357,0.72985 -0.71115,0.72986 -0.71115,2.73229 v 0.16843 h 5.20258 v 4.56629 h -4.97801 v 16.44988 h -6.55 v -16.44988 h -2.62001 v -4.56629 h 2.62001 v -0.58014 q 0,-3.85515 2.02114,-5.78272 2.02115,-1.92758 6.11958,-1.92758 1.42229,0 2.65743,0.11229 1.23515,0.0936 2.13343,0.262 z" />
      <path
         id="path4603"
         style="stroke-width:0.15969546"
         d="m 540.28859,592.49558 q -4.00486,0 -5.83886,-1.64686 -1.81529,-1.64686 -1.81529,-5.38972 v -9.82502 h -2.50772 v -4.56629 h 2.50772 v -6.00729 h 6.55001 v 6.00729 h 6.30672 v 4.56629 h -6.30672 v 7.4483 q 0,1.10414 0.0187,1.92757 0.0187,0.82343 0.29943,1.47843 0.262,0.655 0.917,1.048 0.67372,0.37429 1.94629,0.37429 0.524,0 1.36614,-0.22457 0.86086,-0.22457 1.19772,-0.41172 h 0.56143 v 4.62244 q -1.06672,0.28071 -2.26443,0.43043 -1.19772,0.16843 -2.93815,0.16843 z" />
      <path
         id="path4605"
         style="stroke-width:0.15969546"
         d="m 558.94675,592.64529 q -5.95116,0 -9.13259,-2.84457 -3.16272,-2.84458 -3.16272,-8.1033 0,-5.14644 2.95686,-8.21558 2.95687,-3.06915 8.27173,-3.06915 4.82829,0 7.26115,2.60129 2.43286,2.60129 2.43286,7.4483 v 2.358 h -14.35387 q 0.0936,1.45971 0.61757,2.45157 0.524,0.97315 1.38486,1.55329 0.84214,0.58014 1.965,0.84215 1.12286,0.24328 2.45157,0.24328 1.14158,0 2.24572,-0.24328 1.10415,-0.26201 2.02115,-0.67372 0.80471,-0.35557 1.47843,-0.76729 0.69243,-0.41171 1.12286,-0.72986 h 0.69243 v 5.40844 q -0.80472,0.31814 -1.47843,0.59886 -0.65501,0.262 -1.81529,0.54271 -1.06672,0.28072 -2.20829,0.43043 -1.12286,0.16843 -2.751,0.16843 z m 2.17086,-13.77373 q -0.0562,-2.07729 -0.97315,-3.16272 -0.89829,-1.08543 -2.76972,-1.08543 -1.90886,0 -2.99429,1.14157 -1.06671,1.14158 -1.179,3.10658 z" />
      <path
         id="path4607"
         style="stroke-width:0.15969546"
         d="m 590.63006,592.08386 h -6.58743 v -10.42387 q 0,-1.27257 -0.11229,-2.52643 -0.0936,-1.27257 -0.37429,-1.87143 -0.33685,-0.71115 -0.97314,-1.01057 -0.63629,-0.31815 -1.703,-0.31815 -0.80472,0 -1.62815,0.29943 -0.82343,0.29943 -1.75914,0.95443 v 14.89659 h -6.55001 v -21.01617 h 6.55001 v 2.32058 q 1.60943,-1.36615 3.12529,-2.13344 1.53457,-0.76728 3.38729,-0.76728 3.21886,0 4.92186,2.03986 1.703,2.02114 1.703,5.87629 z" />
    </g>
  </g>
</svg>
