<?xml version="1.0" encoding="UTF-8" standalone="no"?>
<!-- Created with Inkscape (http://www.inkscape.org/) -->

<svg
   xmlns:dc="http://purl.org/dc/elements/1.1/"
   xmlns:cc="http://creativecommons.org/ns#"
   xmlns:rdf="http://www.w3.org/1999/02/22-rdf-syntax-ns#"
   xmlns:svg="http://www.w3.org/2000/svg"
   xmlns="http://www.w3.org/2000/svg"
   xmlns:sodipodi="http://sodipodi.sourceforge.net/DTD/sodipodi-0.dtd"
   xmlns:inkscape="http://www.inkscape.org/namespaces/inkscape"
   width="20.145676mm"
   height="36.501476mm"
   viewBox="0 0 71.382315 129.33593"
   id="svg5223"
   version="1.1"
   inkscape:version="0.91 r13725"
   sodipodi:docname="mix-and-match-characters14.svg">
  <defs
     id="defs5225" />
  <sodipodi:namedview
     id="base"
     pagecolor="#ffffff"
     bordercolor="#666666"
     borderopacity="1.0"
     inkscape:pageopacity="0.0"
     inkscape:pageshadow="2"
     inkscape:zoom="0.98994949"
     inkscape:cx="44.332662"
     inkscape:cy="134.16631"
     inkscape:document-units="px"
     inkscape:current-layer="layer1"
     showgrid="false"
     fit-margin-top="0"
     fit-margin-left="0"
     fit-margin-right="0"
     fit-margin-bottom="0"
     inkscape:window-width="1615"
     inkscape:window-height="1026"
     inkscape:window-x="1985"
     inkscape:window-y="24"
     inkscape:window-maximized="1" />
  <metadata
     id="metadata5228">
    <rdf:RDF>
      <cc:Work
         rdf:about="">
        <dc:format>image/svg+xml</dc:format>
        <dc:type
           rdf:resource="http://purl.org/dc/dcmitype/StillImage" />
        <dc:title></dc:title>
      </cc:Work>
    </rdf:RDF>
  </metadata>
  <g
     inkscape:label="Layer 1"
     inkscape:groupmode="layer"
     id="layer1"
     transform="translate(-225.99661,-474.96963)">
    <g
       transform="translate(117.25321,21.372584)"
       id="g5859">
      <path
         id="path3954-8-5-3-0-1-4-1-0-3-3-2"
         d="m 176.05607,550.94837 c -1.30071,2.7247 -4.66812,4.35654 -7.52136,3.64482 -2.85324,-0.71172 -4.11181,-3.49748 -2.81111,-6.22218 1.30071,-2.72471 4.66812,-4.35655 7.52137,-3.64483 2.85324,0.71173 4.1118,3.49749 2.8111,6.22219 z"
         inkscape:connector-curvature="0"
         style="fill:#ab926c;fill-rule:evenodd;stroke:#000000;stroke-width:1.79010785;stroke-linecap:round;stroke-linejoin:round" />
      <path
         id="path4553-8-2-8-8-9-0-6-9-1"
         d="m 159.1717,550.5 c 0.85824,2.2748 17.268,-3.7223 16.446,-6.3368 -7.7437,-33.351 -15.305,-30.425 -18.197,-29.778 -4.3242,3.3368 -3.0496,14.849 1.7504,36.114 z"
         inkscape:connector-curvature="0"
         style="fill:#d9d5a3;stroke:#000000;stroke-width:1.42690003" />
      <rect
         id="rect3252-6-7-2-7-1-6-3-5-6-1-7"
         rx="24.969999"
         ry="8.8413095"
         transform="matrix(1,-7.6208e-5,0.0014447,0.99999896,0,0)"
         width="50.813"
         y="547.42053"
         x="118.4725"
         height="32.128033"
         style="fill:#a3b2c9;fill-rule:evenodd;stroke:#000000;stroke-width:1.7112;stroke-linecap:round;stroke-linejoin:round" />
      <path
         id="path3928-9-81-8-0-49-3-5-5-1-9"
         d="m 155.5717,577.89 -0.25903,-10.194"
         inkscape:connector-curvature="0"
         style="fill:#ffffff;stroke:#000000;stroke-width:1.13510001;stroke-linecap:round;stroke-linejoin:round" />
      <path
         id="path3932-5-3-3-6-1-5-5-0-2-7-4"
         d="m 147.0817,509.14 c -0.0888,0 -0.17802,8e-4 -0.2667,0 -0.0503,0 -0.10066,-0.009 -0.15101,-0.009 -0.0776,0 -0.15692,-0.009 -0.23475,-0.009 l 0,0.0205 c -5.9566,0.20864 -11.574,3.9179 -15.403,8.6784 -8.2054,10.135 -11.608,23.659 -12.244,36.7 0.11318,3.3513 -0.60801,7.3538 0.62033,10.287 4.6728,3.2567 13.055,3.9827 18.758,4.8536 1.517,0.10933 3.9292,0.18697 6.5483,0.26511 l 0,0.009 c 0.27499,0.009 0.53655,0.009 0.80764,0.0152 0.0269,0 0.0527,8e-4 0.0795,0 2.62,0.0465 5.0334,0.0832 6.5546,0.0465 5.7448,-0.59844 14.156,-0.92469 19.007,-3.9546 1.3926,-2.8704 0.89891,-6.9019 1.2015,-10.243 0.10293,-13.053 -2.5301,-26.721 -10.151,-37.233 -3.5546,-4.9362 -8.9548,-8.9078 -14.892,-9.3996 l 0,-0.0296 c -0.0777,0 -0.15698,-0.009 -0.23468,-0.009 z"
         inkscape:connector-curvature="0"
         style="fill:#d9d5a3;fill-rule:evenodd;stroke:#000000;stroke-width:1.71730006;stroke-linecap:round;stroke-linejoin:round" />
      <path
         id="path4010-7-3-7-4-8-5-4-5-9-5-7"
         d="m 179.0217,577 c 0,0 -1.3827,-6.5415 -9.9894,-5.7741 -11.578,1.0323 -11.909,7.6247 -11.909,7.6247 -0.67864,2.0422 22.476,0.82265 21.898,-1.8506 z"
         inkscape:connector-curvature="0"
         style="fill:#d9d5a3;stroke:#000000;stroke-width:1.79009998" />
      <path
         id="path3954-8-5-7-3-4-8-9-1-1-4"
         d="m 116.1834,557.94804 c 1.74058,2.46701 5.33459,3.509 8.02747,2.32735 2.69288,-1.18165 3.46485,-4.13945 1.72427,-6.60646 -1.74058,-2.467 -5.33459,-3.50899 -8.02747,-2.32735 -2.69288,1.18165 -3.46485,4.13945 -1.72427,6.60646 z"
         inkscape:connector-curvature="0"
         style="fill:#ab926c;fill-rule:evenodd;stroke:#000000;stroke-width:1.7901212;stroke-linecap:round;stroke-linejoin:round" />
      <path
         id="path4553-7-9-8-3-7-1-8-1"
         d="m 128.8117,554.16 c -0.71095,2.4918 -19.905,-1.8054 -19.274,-4.6493 4.9625,-35.944 13.826,-33.794 17.161,-33.466 5.3904,1.1667 5.1215,15.213 2.1125,38.116 z"
         inkscape:connector-curvature="0"
         style="fill:#d9d5a3;stroke:#000000;stroke-width:1.5618" />
      <rect
         id="rect4240-8-4-1-9-1-1"
         rx="29.983999"
         ry="25.957001"
         height="53.703999"
         width="62.653999"
         y="467.25998"
         x="111.1417"
         style="fill:#ab926c;fill-rule:evenodd;stroke:#000000;stroke-width:1.79009998;stroke-linecap:round;stroke-linejoin:bevel" />
      <path
         id="path4010-1-9-2-6-6-6-8-1-7-3-7-3"
         d="m 121.7717,579.15 c 0,0 0.97136,-8.201 13.324,-7.6465 16.617,0.74603 18.09,8.9309 18.09,8.9309 1.2752,2.5088 -31.829,2.0678 -31.414,-1.2844 z"
         inkscape:connector-curvature="0"
         style="fill:#d9d5a3;stroke:#000000;stroke-width:1.79009998" />
      <path
         id="path4494-63-0-50-9-3"
         d="m 117.73169,502.78612 c -0.85995,0.77832 -2.38078,0.44354 -3.30959,-0.50511 -1.27961,-1.30693 -1.17494,-3.19821 -0.0738,-4.17106 0.64175,-0.56689 1.55885,-0.81254 2.51068,-0.71921"
         inkscape:connector-curvature="0"
         style="fill:none;stroke:#000000;stroke-width:1.38804758;stroke-linecap:round;stroke-linejoin:round" />
      <g
         id="g7724-3-8-6-1-9-5"
         transform="matrix(0.14915,0,0,0.19197,86.2577,509.28)"
         style="stroke:#000000;stroke-linecap:round;stroke-linejoin:round">
        <path
           id="rect5543-8-7-8-9-2-2-6"
           d="m 378.83,-287.33 c -7.4169,0.36546 -13.364,8.1085 -15.268,18.642 -3.7392,0.38159 -7.4049,0.82785 -11.017,1.3576 -3.3236,-5.1257 -7.8753,-8.2342 -12.816,-7.9908 -6.1578,0.30342 -11.284,5.7065 -13.948,13.553 -2.37,0.64925 -4.7181,1.3275 -6.9844,2.0414 -3.0516,-3.4859 -6.792,-5.504 -10.795,-5.3068 -5.8139,0.28648 -10.729,5.1005 -13.502,12.241 -2.6909,-2.375 -5.7941,-3.6522 -9.0615,-3.4912 -7.3751,0.3634 -13.305,8.0285 -15.244,18.471 -4.6027,2.0926 -8.2911,7.2144 -10.243,13.879 -2.4255,-1.8042 -5.1283,-2.7685 -7.9618,-2.6289 -9.4255,0.46444 -16.511,12.847 -15.888,27.736 0.62303,14.889 8.7123,26.49 18.138,26.025 6.5129,-0.32092 11.885,-6.3083 14.392,-14.899 1.0065,0.74774 2.0779,1.3415 3.1714,1.7786 0.82843,14.574 8.7938,25.875 18.081,25.417 7.3514,-0.36223 13.259,-7.9769 15.217,-18.368 2.864,0.95239 5.8662,1.8309 8.9636,2.6474 2.1475,12.067 9.3332,20.79 17.526,20.387 6.5056,-0.32056 11.881,-6.3237 14.392,-14.899 0.87508,0.0807 1.7528,0.13821 2.6365,0.20955 1.958,12.498 9.2741,21.642 17.656,21.229 7.8981,-0.38917 14.102,-9.1433 15.556,-20.727 0.54287,-0.0273 1.081,-0.0834 1.6219,-0.11381 2.5159,11.113 9.3939,18.954 17.169,18.571 8.3145,-0.40969 14.804,-10.078 15.791,-22.571 0.45914,-0.0874 0.90862,-0.18127 1.3651,-0.27093 1.9872,12.434 9.2979,21.539 17.651,21.127 7.803,-0.38448 13.961,-8.9416 15.51,-20.317 1.118,0.38052 2.2886,0.58772 3.4666,0.60994 3.3321,7.2727 8.7894,11.923 14.814,11.626 8.1468,-0.40143 14.545,-9.6943 15.729,-21.822 3.0184,9.3576 9.289,15.667 16.282,15.322 7.6807,-0.37846 13.771,-8.6621 15.439,-19.77 3.1874,4.1148 7.2709,6.4988 11.65,6.283 9.4255,-0.46444 16.513,-12.813 15.89,-27.702 -0.62302,-14.889 -8.7123,-26.49 -18.138,-26.025 -7.6733,0.3781 -13.797,8.646 -15.472,19.738 -0.4152,-0.53421 -0.83832,-1.0245 -1.2827,-1.4983 2.3852,-4.8373 3.6987,-11.038 3.4163,-17.786 -0.62303,-14.889 -8.7123,-26.49 -18.138,-26.025 -5.1055,0.25157 -9.5074,3.9983 -12.387,9.7418 -1.1404,-1.0481 -2.3338,-1.9119 -3.6098,-2.5378 -2.2143,-11.907 -9.3281,-20.485 -17.451,-20.085 -5.4366,0.26788 -10.083,4.5032 -12.933,10.889 -1.2676,-0.36463 -2.5534,-0.72563 -3.861,-1.0658 -3.1232,-8.8485 -9.17,-14.756 -15.932,-14.423 -3.3313,0.16414 -6.3718,1.8225 -8.8816,4.5451 -3.283,-4.7423 -7.6804,-7.5649 -12.413,-7.3317 -4.8811,0.24051 -9.13,3.6904 -12.011,9.0104 -3.0063,-9.4116 -9.2688,-15.769 -16.286,-15.424 z m 105.01,83.628 c -0.25838,1.2862 -0.45242,2.634 -0.58338,4.0004 -0.28501,-0.89232 -0.61038,-1.7328 -0.95203,-2.5669 0.51808,-0.48489 1.0496,-0.94211 1.5354,-1.4335 z"
           inkscape:connector-curvature="0"
           style="fill:#af606b;fill-rule:evenodd;stroke-width:5.43270016" />
        <path
           id="path7570-4-0-7-7-0-8-8"
           transform="matrix(0.69421,-0.034206,0.030667,0.73288,-193.6,-121.01)"
           d="m 912.76,-58.549 c -6.5089,-5.5106 -6.778,-15.516 -1.3656,-21.874 6.3439,-7.4524 17.828,-7.7497 25.113,-1.5161 6.5677,5.6196 8.5004,15.129 5.1967,23.026"
           inkscape:connector-curvature="0"
           style="fill:none;stroke-width:7.6086998" />
        <path
           id="path7570-0-3-9-6-7-6-7"
           transform="matrix(0.69421,-0.034206,0.025044,0.5985,-280.3,-135.49)"
           d="m 912.76,-58.549 c -6.5089,-5.5106 -6.778,-15.516 -1.3656,-21.874 6.3439,-7.4524 17.828,-7.7497 25.113,-1.5161 6.5677,5.6196 8.5004,15.129 5.1967,23.026"
           inkscape:connector-curvature="0"
           style="fill:none;stroke-width:8.41969967" />
        <path
           id="path7570-6-8-0-4-2-7-5"
           transform="matrix(0.69421,-0.034206,0.026525,0.63391,-146.49,-119.36)"
           d="m 912.76,-58.549 c -6.5089,-5.5106 -6.778,-15.516 -1.3656,-21.874 6.3439,-7.4524 17.828,-7.7497 25.113,-1.5161 6.5677,5.6196 8.5004,15.129 5.1967,23.026"
           inkscape:connector-curvature="0"
           style="fill:none;stroke-width:8.18120003" />
        <path
           id="path7570-6-0-6-9-8-0-0-2"
           transform="matrix(0.68061,-0.033536,0.023523,0.56215,-143.37,-166.9)"
           d="m 912.76,-58.549 c -6.5089,-5.5106 -6.778,-15.516 -1.3656,-21.874 6.3439,-7.4524 17.828,-7.7497 25.113,-1.5161 6.5677,5.6196 8.5004,15.129 5.1967,23.026"
           inkscape:connector-curvature="0"
           style="fill:none;stroke-width:8.77400017" />
        <path
           id="path7570-6-08-6-9-5-0-5-3"
           transform="matrix(0.69421,-0.034206,0.034111,0.81518,-239.4,-91.115)"
           d="m 912.76,-58.549 c -6.5089,-5.5106 -6.778,-15.516 -1.3656,-21.874 6.3439,-7.4524 17.828,-7.7497 25.113,-1.5161 6.5677,5.6196 8.5004,15.129 5.1967,23.026"
           inkscape:connector-curvature="0"
           style="fill:none;stroke-width:7.21439981" />
        <path
           id="path7570-6-6-0-5-2-3-2-1"
           transform="matrix(0.65385,-0.032218,0.023594,0.56385,-264.81,-181.43)"
           d="m 912.76,-58.549 c -6.5089,-5.5106 -6.778,-15.516 -1.3656,-21.874 6.3439,-7.4524 17.828,-7.7497 25.113,-1.5161 6.5677,5.6196 8.5004,15.129 5.1967,23.026"
           inkscape:connector-curvature="0"
           style="fill:none;stroke-width:8.9382" />
        <path
           id="path7570-6-6-7-5-2-1-9-5-4"
           transform="matrix(0.65385,-0.032218,0.023594,0.56385,-321.46,-171.58)"
           d="m 912.76,-58.549 c -6.5089,-5.5106 -6.778,-15.516 -1.3656,-21.874 6.3439,-7.4524 17.828,-7.7497 25.113,-1.5161 6.5677,5.6196 8.5004,15.129 5.1967,23.026"
           inkscape:connector-curvature="0"
           style="fill:none;stroke-width:8.9382" />
        <path
           id="path7570-01-4-9-9-6-2-8"
           transform="matrix(0.69421,-0.034206,0.029941,0.71554,-348.27,-109.28)"
           d="m 912.76,-58.549 c -6.5089,-5.5106 -6.778,-15.516 -1.3656,-21.874 6.3439,-7.4524 17.828,-7.7497 25.113,-1.5161 6.5677,5.6196 8.5004,15.129 5.1967,23.026"
           inkscape:connector-curvature="0"
           style="fill:none;stroke-width:7.70039988" />
      </g>
      <g
         id="g5371-0-7-1-8-4-0"
         transform="matrix(0.015201,0.06809,0.16929,-0.037793,177.5517,605.83)"
         style="fill:#090000;fill-rule:evenodd;stroke:#a7df69">
        <path
           id="path5346-3-0-0-1-7-5-3"
           d="m -1188.5,-38.122 c -0.2445,-0.1322 0.067,-1.3205 0.9951,-3.4581 0.9278,-2.1377 2.4509,-5.2421 4.9831,-8.994 1.6528,-2.4562 3.7595,-5.2371 6.7931,-7.8488 1.8775,-1.6247 4.192,-3.1616 7.0684,-4.1093 2.2105,-0.70946 4.6792,-0.96784 7.2093,-0.60602 2.3642,0.35406 4.6703,1.1786 6.7995,2.3317 2.2205,1.194 4.3095,2.6871 6.2705,4.3393 4.0895,3.4401 7.867,7.593 11.64,11.905 3.5425,4.0299 7.0923,8.2781 11.085,12.216 1.7099,1.6848 3.4728,3.2979 5.3578,4.7047 1.6417,1.2156 3.3207,2.2886 5.0658,2.9994 1.5328,0.62009 3.1102,1.0228 4.6042,1.0097 1.5077,0.02485 3.1071,-0.37003 4.6215,-1.0552 1.9043,-0.84546 3.7203,-2.2678 5.503,-3.9495 2.3492,-2.247 4.4456,-4.9751 6.4637,-7.9515 2.7382,-3.9967 5.8079,-8.0176 9.4684,-11.775 2.5516,-2.6411 5.5294,-5.1934 9.1081,-7.2333 2.6574,-1.5262 5.7584,-2.6399 9.1885,-2.9766 l 0,-2e-6 c 3.0071,-0.24448 6.0001,0.19815 8.7612,1.2422 l 0,9e-6 c 2.8395,1.0898 5.3479,2.629 7.5232,4.3675 2.4292,1.922 4.5828,4.0537 6.5429,6.2381 4.3608,4.8496 8.12,10.079 11.857,15.141 3.7574,5.0562 7.4516,10.046 11.678,14.358 3.7122,3.6903 7.6053,7.0013 11.93,8.3636 1.9794,0.67288 4.0897,0.99378 6.1494,0.89035 l 0,-9e-7 c 2.3378,-0.086622 4.7737,-0.75839 7.1674,-1.7664 1.4845,-0.6020201 2.9252,-1.3366001 4.3296,-2.1821001 5.4699,-3.2934 10.29,-8.1944 14.937,-13.29 7.0574,-10.075 14.933,-19.937 24.854,-27.467 3.2933,-2.5127 6.9783,-4.7415 11.072,-6.3033 10e-6,-2e-6 2e-5,-5e-6 2e-5,-8e-6 3.264,-1.2464 6.8254,-1.9358 10.488,-1.8515 3.3229,0.11044 6.518,0.88723 9.421,2.1816 2.9856,1.3421 5.6073,3.0961 7.8977,5.0279 5.1288,4.3349 9.0438,9.3407 12.511,14.133 3.6756,5.0258 6.9032,9.9382 10.371,14.261 1.5627,1.9401 3.1103,3.7274 4.763,5.2201 1.4569,1.2877 2.869,2.3711 4.3029,2.9626 1.2538,0.53435 2.598,0.79382 3.7891,0.6407 1.5055,-0.10263 3.1289,-0.904 4.7406,-1.9227 2.3988,-1.5637 4.5034,-3.7772 6.5314,-6.1471 3.0707,-3.6379 5.6729,-7.5934 8.0889,-11.547 4.1036,-6.0385 8.4382,-11.603 13.153,-16.281 3.4622,-3.4607 7.3195,-6.4892 11.545,-8.4928 3.2873,-1.5667 6.8851,-2.3189 10.352,-2.0689 3.3256,0.29213 6.2279,1.4572 8.6239,2.9455 2.7844,1.7266 4.9577,3.7486 6.7881,5.6779 2.2281,2.3384 4.0014,4.5626 5.5559,6.5049 1.8913,2.355 3.4288,4.2833 4.7728,5.7296 0.65292,0.68623 1.2334,1.2774 1.7529,1.7532 0.51953,0.47586 0.97707,0.83984 1.3585,1.1221 0.76281,0.5646 1.2151,0.83535 1.1671,1.0106 -0.048,0.17529 -0.61255,0.24666 -1.6314,-0.04809 -0.50942,-0.14738 -1.1275,-0.39371 -1.8189,-0.76888 -0.69144,-0.37517 -1.4558,-0.88271 -2.2451,-1.4937 -1.6756,-1.2695 -3.583,-3.0686 -5.7125,-5.1865 -1.7697,-1.7556 -3.7139,-3.7563 -5.9746,-5.7428 -1.8699,-1.6359 -3.9348,-3.289 -6.3212,-4.5137 -2.0144,-1.0289 -4.2858,-1.7871 -6.598,-1.802 -2.4065,-0.06981 -5.008,0.7008 -7.5165,2.0154 -3.3281,1.7518 -6.4322,4.5306 -9.5032,7.8111 -4.1012,4.4183 -7.8823,9.7327 -11.61,15.63 -2.3275,4.1686 -4.9655,8.465 -8.2454,12.619 -2.1464,2.752 -4.6998,5.5267 -7.9551,7.8692 -2.2338,1.638 -5.0017,2.9617001 -8.2488,3.4713001 -2.7715,0.35735 -5.5456,-0.02879 -8.054,-1.0603 -2.6126,-1.0928001 -4.8543,-2.6270001 -6.7445,-4.3061001 -2.1755,-1.9006 -4.0894,-3.9832 -5.8394,-6.089 -3.8947,-4.6696 -7.321,-9.6463 -10.901,-14.369 -3.4851,-4.5477 -6.9891,-8.9749 -11.19,-12.33 -1.8382,-1.4713 -3.7471,-2.7405 -5.7398,-3.573 -1.8855,-0.79731 -3.9016,-1.2736 -5.8755,-1.2957 -2.195,-0.0623 -4.5258,0.45534 -6.8184,1.3222 0,2e-6 -10e-6,4e-6 -10e-6,6e-6 -2.9436,1.1146 -5.792,2.9236 -8.5942,5.0487 -4.3578,3.3249 -8.3428,7.3023 -12.113,11.7 -3.7703,4.3978 -7.326,9.2157 -10.85,14.181 -4.8719,5.6259 -10.538,11.2680001 -17.511,15.5200001 -1.7902,1.0916 -3.658,2.0852 -5.6098,2.959 -3.2787,1.4281 -6.8812,2.3609 -10.65601,2.5539 0,4e-7 -10e-5,7e-7 -10e-5,1.1e-6 -3.3763,0.14519 -6.7172,-0.36212 -9.8416,-1.4422 -6.5218,-2.363 -11.682,-6.5205 -15.794,-10.9090002 -4.7878,-4.995 -8.7237,-10.345 -12.435,-15.471 -3.7743,-5.1794 -7.2756,-10.193 -11.126,-14.544 -1.7259,-1.9455 -3.4604,-3.7298 -5.3002,-5.2049 -1.6515,-1.3067 -3.2995,-2.3978 -4.9678,-3.0256 0,-10e-7 0,-3e-6 -10e-5,-4e-6 -1.5394,-0.5946 -3.1701,-0.88451 -4.6875,-0.76315 l -10e-5,1e-6 c -1.7868,0.08511 -3.6791,0.78268 -5.5284,1.7437 -2.5583,1.3471 -4.9108,3.3432 -7.1869,5.5505 -3.2196,3.152 -6.0492,6.7262 -8.7147,10.41 -2.2746,3.2442 -4.8382,6.3725 -7.8245,9.1236 -2.2613,2.1065 -4.9098,3.9844 -7.9431,5.3081 -2.53,1.0915 -5.2991,1.6437 -8.1048,1.558 -2.7351,-0.12151 -5.2753,-0.81102 -7.5243,-1.8485 -2.5005,-1.1502 -4.6744,-2.6069 -6.5872,-4.1573 -2.2078,-1.7781 -4.1578,-3.6773 -5.942,-5.5773 -4.162,-4.4285 -7.6319,-8.9138 -10.944,-13.032 -3.5883,-4.4387 -6.9136,-8.4991 -10.442,-11.768 -1.6837,-1.5575 -3.3635,-2.9226 -5.0964,-3.9741 -1.6516,-0.99432 -3.3145,-1.7378 -4.9475,-2.0689 -1.7015,-0.36357 -3.4504,-0.30796 -5.04,0.07919 -2.128,0.4965 -4.0749,1.6051 -5.8053,2.8348 -2.8081,2.01 -4.9904,4.3875 -6.8274,6.5272 -2.8006,3.271 -4.7312,6.0452 -6.102,7.8874 -1.3707,1.8422 -2.1648,2.7735 -2.4093,2.6413 l 0,0 z"
           inkscape:connector-curvature="0"
           style="stroke-width:8;stroke-linecap:round;stroke-linejoin:round" />
        <path
           id="path5346-6-1-2-9-9-4"
           d="m -1190,-34.638 c -0.2445,-0.1322 0.067,-1.3205 0.9951,-3.4581 0.9278,-2.1377 2.4509,-5.2421 4.9831,-8.994 1.6528,-2.4562 3.7595,-5.2371 6.7931,-7.8488 1.8775,-1.6247 4.192,-3.1616 7.0684,-4.1093 2.2105,-0.70946 4.6792,-0.96784 7.2093,-0.60602 2.3642,0.35405 4.6703,1.1786 6.7995,2.3317 2.2205,1.194 4.3095,2.6871 6.2705,4.3393 4.0895,3.4401 7.867,7.593 11.64,11.905 3.5425,4.0299 7.0923,8.2781 11.085,12.216 1.7099,1.6848 3.4728,3.2979 5.3578,4.7047 1.6417,1.2156 3.3207,2.2886 5.0658,2.9994 1.5328,0.62009 3.1102,1.0228 4.6042,1.0097 1.5077,0.02485 3.1071,-0.37003 4.6215,-1.0552 1.9043,-0.84546 3.7203,-2.2678 5.503,-3.9495 2.3492,-2.247 4.4456,-4.9751 6.4637,-7.9515 2.7382,-3.9967 5.8079,-8.0176 9.4684,-11.775 2.5516,-2.6411 5.5294,-5.1934 9.1081,-7.2333 2.6573,-1.5262 5.7583,-2.6399 9.1884,-2.9766 l 0,-3e-6 c 3.0071,-0.24448 6.0001,0.19815 8.7612,1.2422 10e-5,3e-6 10e-5,6e-6 10e-5,9e-6 2.8395,1.0898 5.3478,2.629 7.5231,4.3675 2.4292,1.922 4.5828,4.0537 6.543,6.2381 4.3607,4.8496 8.1199,10.079 11.857,15.141 3.7574,5.0562 7.4516,10.046 11.678,14.358 3.7122,3.6903 7.6053,7.0013 11.93,8.3636 1.9794,0.67288 4.0898,0.99378 6.1494,0.89035 l 0,-8e-7 c 2.3378,-0.086622 4.7737,-0.75839 7.1674,-1.7664 1.4845,-0.60202 2.9253,-1.3366 4.3297,-2.1822 5.4699,-3.2934002 10.29,-8.1944002 14.937,-13.2900002 7.0574,-10.075 14.933,-19.937 24.854,-27.467 3.2933,-2.5127 6.9783,-4.7415 11.072,-6.3033 10e-6,-3e-6 2e-5,-6e-6 2e-5,-8e-6 3.264,-1.2464 6.8254,-1.9358 10.488,-1.8515 3.3229,0.11044 6.518,0.88723 9.421,2.1816 2.9856,1.3421 5.6073,3.0961 7.8977,5.0279 5.1288,4.3349 9.0438,9.3407 12.511,14.133 3.6756,5.0258 6.9032,9.9382 10.371,14.261 1.5627,1.9401 3.1103,3.7274 4.763,5.2201 1.4569,1.2877 2.869,2.3711 4.3029,2.9626 1.2538,0.53435 2.598,0.79382 3.7891,0.6407 1.5055,-0.10263 3.1289,-0.904 4.7406,-1.9227 2.3988,-1.5637 4.5034,-3.7772 6.5314,-6.1471 3.0707,-3.6379 5.6729,-7.5934 8.0889,-11.547 4.1036,-6.0385 8.4382,-11.603 13.153,-16.281 3.4622,-3.4607 7.3195,-6.4892 11.545,-8.4928 3.2873,-1.5667 6.8851,-2.3189 10.352,-2.0689 3.3256,0.29213 6.2279,1.4572 8.6239,2.9455 2.7844,1.7266 4.9577,3.7486 6.7881,5.6779 2.2281,2.3384 4.0014,4.5626 5.5559,6.5049 1.8913,2.355 3.4288,4.2833 4.7728,5.7296 0.65292,0.68623 1.2334,1.2774 1.7529,1.7532 0.51953,0.47585 0.97707,0.83984 1.3585,1.1221 0.76281,0.5646 1.2151,0.83535 1.1671,1.0106 -0.048,0.17529 -0.61255,0.24666 -1.6314,-0.04809 -0.50942,-0.14738 -1.1275,-0.39371 -1.8189,-0.76888 -0.69144,-0.37517 -1.4558,-0.88271 -2.2451,-1.4937 -1.6756,-1.2695 -3.583,-3.0686 -5.7125,-5.1865 -1.7697,-1.7556 -3.7139,-3.7563 -5.9746,-5.7428 -1.8699,-1.6359 -3.9348,-3.289 -6.3212,-4.5137 -2.0144,-1.0289 -4.2858,-1.7871 -6.598,-1.802 -2.4065,-0.06981 -5.008,0.7008 -7.5165,2.0154 -3.3281,1.7518 -6.4322,4.5306 -9.5032,7.8111 -4.1012,4.4183 -7.8823,9.7327 -11.61,15.63 -2.3275,4.1686 -4.9655,8.465 -8.2454,12.619 -2.1464,2.752 -4.6998,5.5267 -7.9551,7.8692002 -2.2338,1.638 -5.0017,2.9617 -8.2488,3.4713 -2.7715,0.35734 -5.5456,-0.02879 -8.054,-1.0603 -2.6126,-1.0928 -4.8543,-2.627 -6.7445,-4.3061002 -2.1755,-1.9006 -4.0894,-3.9832 -5.8394,-6.089 -3.8947,-4.6696 -7.321,-9.6463 -10.901,-14.369 -3.4851,-4.5477 -6.9891,-8.9749 -11.19,-12.33 -1.8382,-1.4713 -3.7471,-2.7405 -5.7398,-3.573 -1.8855,-0.79731 -3.9016,-1.2736 -5.8755,-1.2957 -2.195,-0.0623 -4.5258,0.45534 -6.8184,1.3222 0,2e-6 -10e-6,4e-6 -10e-6,6e-6 -2.9436,1.1146 -5.792,2.9236 -8.5942,5.0487 -4.3578,3.3249 -8.3428,7.3023 -12.113,11.7 -3.7703,4.3978 -7.326,9.2157 -10.85,14.181 -4.8719,5.6259002 -10.538,11.2680002 -17.511,15.5200002 -1.7902,1.0916 -3.658,2.0853 -5.6098,2.959 -3.2787,1.4281 -6.8812,2.3609 -10.65701,2.5539 l 0,1.1e-6 c -3.3764,0.14519 -6.7173,-0.36212 -9.8417,-1.4422 -6.5218,-2.363 -11.682,-6.5205 -15.794,-10.909 -4.7878,-4.9950003 -8.7237,-10.3450003 -12.435,-15.4710003 -3.7743,-5.1794 -7.2755,-10.193 -11.126,-14.544 -1.7259,-1.9455 -3.4604,-3.7298 -5.3002,-5.2049 -1.6515,-1.3067 -3.2995,-2.3978 -4.9678,-3.0256 l 0,-5e-6 c -1.5394,-0.5946 -3.1701,-0.8845 -4.6876,-0.76315 l 0,10e-7 c -1.7868,0.08511 -3.6792,0.78268 -5.5284,1.7437 -2.5583,1.3471 -4.9108,3.3432 -7.1869,5.5505 -3.2196,3.152 -6.0492,6.7262 -8.7147,10.41 -2.2746,3.2442 -4.8382,6.3725 -7.8245,9.1236 -2.2613,2.1065 -4.9098,3.9844 -7.9431,5.3081 -2.53,1.0915 -5.2991,1.6437 -8.1048,1.558 -2.7351,-0.12151 -5.2753,-0.81102 -7.5243,-1.8485 -2.5005,-1.1501 -4.6744,-2.6069 -6.5872,-4.1573 -2.2078,-1.7781 -4.1578,-3.6773 -5.942,-5.5773 -4.162,-4.4285 -7.6319,-8.9138 -10.944,-13.032 -3.5883,-4.4387 -6.9136,-8.4991 -10.442,-11.768 -1.6837,-1.5575 -3.3635,-2.9226 -5.0964,-3.9741 -1.6516,-0.99432 -3.3145,-1.7378 -4.9475,-2.0689 -1.7015,-0.36357 -3.4504,-0.30796 -5.04,0.07919 -2.128,0.4965 -4.0749,1.6051 -5.8053,2.8348 -2.8081,2.01 -4.9904,4.3875 -6.8274,6.5272 -2.8006,3.271 -4.7312,6.0452 -6.102,7.8874 -1.3707,1.8422 -2.1648,2.7735 -2.4093,2.6413 z"
           inkscape:connector-curvature="0" />
      </g>
      <g
         id="g4886-0-4-4"
         transform="matrix(0.14083,-0.019272,0.019272,0.14083,343.5917,421.28)"
         style="fill:none;stroke:#000000;stroke-linecap:round;stroke-linejoin:round">
        <path
           id="path3864-0-2-3-9-8-7-7-1-1-7"
           d="m 333.1,704.51 c 0,48.458 -48.669,87.74 -108.7,87.74 -60.036,0 -108.7,-39.283 -108.7,-87.74"
           transform="matrix(-0.25733,0.076323,0.082807,0.33342,-1465.1,46.234)"
           inkscape:connector-curvature="0"
           style="stroke-width:35.51800156" />
        <path
           id="path3864-0-0-1-4-7-4-8-7-1-8-5"
           d="m 333.1,704.51 c 0,48.458 -48.669,87.74 -108.7,87.74 -60.036,0 -108.7,-39.283 -108.7,-87.74"
           transform="matrix(-0.2034,-0.0039634,-0.017762,0.27647,-1240.6,97.346)"
           inkscape:connector-curvature="0"
           style="stroke-width:35.51800156" />
        <path
           id="path4540-0-9-0-0-8"
           d="m -1331.6,387.59 -55.105,-5"
           inkscape:connector-curvature="0"
           style="stroke-width:11.44200039" />
      </g>
    </g>
  </g>
</svg>
