<?xml version="1.0"?>
<svg xmlns:rdf="http://www.w3.org/1999/02/22-rdf-syntax-ns#" xmlns="http://www.w3.org/2000/svg" xmlns:cc="http://creativecommons.org/ns#" xmlns:xlink="http://www.w3.org/1999/xlink" xmlns:dc="http://purl.org/dc/elements/1.1/" xmlns:svg="http://www.w3.org/2000/svg" id="svg2" viewBox="0 0 768 768" version="1.1">
  <defs id="defs4">
    <clipPath id="clipPathFlag" clipPathUnits="userSpaceOnUse">
      <rect id="rect3918" fill-opacity=".67" ry="57" height="511" width="511" y=".5" x=".5"/>
    </clipPath>
    <linearGradient id="linearGradient3852-0">
      <stop id="stop3854-6" stop-color="#dbe3db" offset="0"/>
      <stop id="stop3856-1" stop-color="#dbe3db" stop-opacity="0" offset="1"/>
    </linearGradient>
    <linearGradient id="linearGradient5122" x1="342.19" xlink:href="#linearGradient3852-0" gradientUnits="userSpaceOnUse" y1="705.76" gradientTransform="matrix(1.1571 0 0 1.3167 -91.204 -253.99)" x2="358.08" y2="523.41"/>
    <linearGradient id="linearGradient5125" x1="405.26" xlink:href="#linearGradient3852-0" gradientUnits="userSpaceOnUse" y1="118.06" gradientTransform="matrix(.95303 0 0 .86647 11.575 -4.5016)" x2="405.75" y2="360.92"/>
    <filter id="filter5740">
      <feGaussianBlur id="feGaussianBlur5742" stdDeviation="5.12"/>
    </filter>
    <clipPath id="clipPath5796" clipPathUnits="userSpaceOnUse">
      <rect id="rect5798" ry="57" height="512" width="512" stroke="#00fa00" y="0" x="0" stroke-width="20" fill="none"/>
    </clipPath>
    <filter id="filter5912">
      <feGaussianBlur id="feGaussianBlur5914" stdDeviation="17.92"/>
    </filter>
  </defs>
  <g id="template-button">&gt;
  <g id="00" transform="translate(90,90)"><rect id="shadow" ry="57" height="512" filter="url(#filter5912)" width="512" stroke="#a8a8a8" y="56" x="38" stroke-width="5"/></g>
  <g id="01" transform="translate(128,128)" clip-path="url(#clipPathFlag)"><rect id="mask" ry="57" height="512" width="512" y="0" x="0" fill="#00f"/><g id="flag"><rect id="rect124" height="512" width="512" y=".000030518" x="0" stroke-width="1pt" fill="#006"/><g id="g584" transform="matrix(4.3911 0 0 5.7284 0 -.00002)"><path id="path146" d="m0 0v3.3541l53.292 26.646h6.708v-3.354l-53.292-26.646h-6.708zm60 0v3.354l-53.292 26.646h-6.708v-3.354l53.292-26.646h6.708z" stroke-width="1pt" fill="#fff"/><path id="path136" d="m25 0v30h10v-30h-10zm-25 10v10h60v-10h-60z" stroke-width="1pt" fill="#fff"/><path id="path141" d="m0 12v6h60v-6h-60zm27-12v30h6v-30h-6z" stroke-width="1pt" fill="#c00"/><path id="path150" d="m0 30 20-10h4.472l-20 10h-4.472zm0-30 20 10h-4.472l-15.528-7.7639v-2.2361zm35.528 10 20-10h4.472l-20 10h-4.472zm24.472 20-20-10h4.472l15.528 7.764v2.236z" stroke-width="1pt" fill="#c00"/></g><polygon id="polygon589" fill-rule="evenodd" transform="matrix(4.1843 0 0 4.1843 -56.416 238.54)" points="30 49 26.095 53.109 26.873 47.494 21.226 47.003 26.1 44.11 22.964 39.389 28.264 41.396 30 36 30 36 31.736 41.396 37.036 39.389 33.9 44.11 38.774 47.003 33.127 47.494 33.905 53.109" stroke-width="1pt" fill="#fff"/><g id="g596" transform="matrix(6.1865 0 0 6.1865 -176.26 145.71)"><polygon id="polygon590" stroke-width="1pt" points="90 51.905 88.14 53.861 88.511 51.188 85.822 50.954 88.143 49.576 86.649 47.328 89.174 48.284 90 45.714 90 45.714 90.826 48.284 93.351 47.328 91.857 49.576 94.178 50.954 91.489 51.188 91.86 53.861" fill="#fff" fill-rule="evenodd"/><polygon id="polygon592" stroke-width="1pt" points="90 11.905 88.14 13.861 88.511 11.188 85.822 10.954 88.143 9.5762 86.649 7.3279 89.174 8.2839 90 5.7143 90 5.7143 90.826 8.2839 93.351 7.3279 91.857 9.5762 94.178 10.954 91.489 11.188 91.86 13.861" fill="#fff" fill-rule="evenodd"/><polygon id="polygon593" stroke-width="1pt" points="75 28.155 73.14 30.111 73.511 27.438 70.822 27.204 73.143 25.826 71.649 23.578 74.174 24.534 75 21.964 75 21.964 75.826 24.534 78.351 23.578 76.857 25.826 79.178 27.204 76.489 27.438 76.86 30.111" fill="#fff" fill-rule="evenodd"/><polygon id="polygon594" stroke-width="1pt" points="103.33 24.155 101.47 26.111 101.84 23.438 99.155 23.204 101.48 21.826 99.983 19.578 102.51 20.534 103.33 17.964 103.33 17.964 104.16 20.534 106.68 19.578 105.19 21.826 107.51 23.204 104.82 23.438 105.19 26.111" fill="#fff" fill-rule="evenodd"/><polygon id="polygon595" stroke-width="1pt" points="94.943 32.843 93.622 31.728 95.347 31.601 96 30 96 30 96.653 31.601 98.378 31.728 97.057 32.843 97.47 34.522 96 33.611 94.53 34.522" fill="#fff" fill-rule="evenodd"/></g></g></g>
  <g id="02" transform="translate(0,38)"><path id="path3862-8" style="color:#000000" fill="url(#linearGradient5125)" d="m214.21 111.21c-45.245 0.18809-68.716 7.7308-64.094 83.553l2.8252 46.345c47.474 5.5124 56.664 18.445 104.36 21.914 68.073 4.9513 67.937 5.4209 130.56-14.384 62.628-19.805 5.8248-65.247 207.32-57.82 4.6033 0.16968 17.314-3.0527 27.462-12.15 5.5817-46.524-2.7842-69.143-66.934-68.876z"/><path id="path3079-9" style="color:#000000" fill="url(#linearGradient5122)" d="m531.03 495.17c-31.605 19.022-27.601 31.26-37.913 32.573-94.704 12.053-145.98-0.72701-165.8-12.061-59.588-34.078-68.468-13.014-100.22-16.574-20.115-2.2551-59.245 12.984-73.388 44.344 3.4722 27.608 18.111 32.098 44.281 31.986l356.06-1.5268c69.692-0.29885 56.335-8.4926 65.543-56.039-14.772-21.671-13.157 9.109-44.224-30.717z"/><rect id="rect5734" transform="translate(128,90)" clip-path="url(#clipPath5796)" ry="57" height="512" filter="url(#filter5740)" width="512" stroke="#000" y="0" x="0" stroke-width="20" fill="none"/></g>
 </g>
  <metadata>
    <rdf:RDF>
      <cc:Work>
        <dc:format>image/svg+xml</dc:format>
        <dc:type rdf:resource="http://purl.org/dc/dcmitype/StillImage"/>
        <cc:license rdf:resource="http://creativecommons.org/licenses/publicdomain/"/>
        <dc:publisher>
          <cc:Agent rdf:about="http://openclipart.org/">
            <dc:title>Openclipart</dc:title>
          </cc:Agent>
        </dc:publisher>
        <dc:title>hm</dc:title>
        <dc:date>2011-08-21T12:01:08</dc:date>
        <dc:description>country flag buttons (with ISO-3166-1 naming convention)</dc:description>
        <dc:source>http://openclipart.org/detail/156487/hm-by-koppi</dc:source>
        <dc:creator>
          <cc:Agent>
            <dc:title>koppi</dc:title>
          </cc:Agent>
        </dc:creator>
        <dc:subject>
          <rdf:Bag>
            <rdf:li>ISO3166-1</rdf:li>
            <rdf:li>button</rdf:li>
            <rdf:li>clip art</rdf:li>
            <rdf:li>clipart</rdf:li>
            <rdf:li>country</rdf:li>
            <rdf:li>flag</rdf:li>
            <rdf:li>flags</rdf:li>
            <rdf:li>squared</rdf:li>
          </rdf:Bag>
        </dc:subject>
      </cc:Work>
      <cc:License rdf:about="http://creativecommons.org/licenses/publicdomain/">
        <cc:permits rdf:resource="http://creativecommons.org/ns#Reproduction"/>
        <cc:permits rdf:resource="http://creativecommons.org/ns#Distribution"/>
        <cc:permits rdf:resource="http://creativecommons.org/ns#DerivativeWorks"/>
      </cc:License>
    </rdf:RDF>
  </metadata>
</svg>
