<?xml version="1.0"?>
<svg xmlns:rdf="http://www.w3.org/1999/02/22-rdf-syntax-ns#" xmlns="http://www.w3.org/2000/svg" xmlns:cc="http://creativecommons.org/ns#" xmlns:xlink="http://www.w3.org/1999/xlink" xmlns:dc="http://purl.org/dc/elements/1.1/" xmlns:svg="http://www.w3.org/2000/svg" id="svg2" height="297mm" width="210mm" version="1.0">
  <defs id="defs4">
    <linearGradient id="linearGradient6943">
      <stop id="stop6945" stop-color="#f5f5f5" offset="0"/>
      <stop id="stop6947" stop-color="#fff" stop-opacity="0" offset="1"/>
    </linearGradient>
    <linearGradient id="linearGradient6054">
      <stop id="stop6056" stop-color="#f2f2f2" offset="0"/>
      <stop id="stop6062" stop-color="#b6b6b6" offset=".5"/>
      <stop id="stop6058" stop-color="#e8e8e8" offset="1"/>
    </linearGradient>
    <linearGradient id="linearGradient6440" y2="414.86" gradientUnits="userSpaceOnUse" y1="414.86" x2="1169" x1="643">
      <stop id="stop6406" offset="0"/>
      <stop id="stop6416" offset=".12"/>
      <stop id="stop6412" stop-color="#fff" offset=".17"/>
      <stop id="stop6414" stop-color="#fff" offset=".61111"/>
      <stop id="stop6418" stop-color="#fff" offset=".85"/>
      <stop id="stop6420" offset=".91"/>
      <stop id="stop6408" offset="1"/>
    </linearGradient>
    <mask id="mask6436">
      <rect id="rect6438" height="265" width="526" y="282.36" x="643" fill="url(#linearGradient6440)"/>
    </mask>
    <filter id="filter6802" y="-.12333" width="1.1625" height="1.2467" x="-.081244">
      <feGaussianBlur id="feGaussianBlur6804" stdDeviation="4.2653061"/>
    </filter>
    <filter id="filter6915">
      <feGaussianBlur id="feGaussianBlur6917" stdDeviation="2.9834276"/>
    </filter>
    <filter id="filter6935">
      <feGaussianBlur id="feGaussianBlur6937" stdDeviation="4.2568827"/>
    </filter>
    <filter id="filter6989" y="-.08493" width="1.3817" height="1.1699" x="-.19086">
      <feGaussianBlur id="feGaussianBlur6991" stdDeviation="11.009997"/>
    </filter>
    <filter id="filter7029" y="-.10493" width="1.3958" height="1.2099" x="-.19791">
      <feGaussianBlur id="feGaussianBlur7031" stdDeviation="10.031278"/>
    </filter>
    <linearGradient id="linearGradient7071" x1="476.27" xlink:href="#linearGradient6943" gradientUnits="userSpaceOnUse" y1="202.42" gradientTransform="translate(4,-8)" x2="351.89" y2="182.62"/>
    <linearGradient id="linearGradient7073" x1="247.34" xlink:href="#linearGradient6943" gradientUnits="userSpaceOnUse" y1="98.475" gradientTransform="matrix(.99118 -.13256 .13256 .99118 -10.356 55.032)" x2="358.87" y2="98.475"/>
    <linearGradient id="linearGradient7075" x1="550.22" gradientUnits="userSpaceOnUse" y1="595.75" gradientTransform="matrix(.89914 0 0 1.0591 55.496 -26.169)" x2="728.68" y2="595.75">
      <stop id="stop6808" stop-color="#ddd" offset="0"/>
      <stop id="stop6810" stop-color="#f2f2f2" offset="1"/>
    </linearGradient>
    <linearGradient id="linearGradient7077" x1="152.36" xlink:href="#linearGradient6054" gradientUnits="userSpaceOnUse" y1="383.79" gradientTransform="matrix(.92955 0 0 1.0012 35.501 -.53078)" x2="578.06" y2="383.79"/>
    <linearGradient id="linearGradient7079" x1="152.08" xlink:href="#linearGradient6054" gradientUnits="userSpaceOnUse" y1="627.53" gradientTransform="matrix(.95330 0 0 1.0004 26.869 -.24839)" x2="578.13" y2="627.53"/>
    <linearGradient id="linearGradient7081" x1="152.85" gradientUnits="userSpaceOnUse" y1="383.79" gradientTransform="matrix(.94830 0 0 1.0006 28.654 -.31637)" x2="577.57" y2="383.79">
      <stop id="stop6094" stop-color="#d3d3d3" offset="0"/>
      <stop id="stop6096" stop-color="#e2e2e2" offset=".5"/>
      <stop id="stop6098" stop-color="#bbb" offset="1"/>
    </linearGradient>
    <linearGradient id="linearGradient7083" x1="205.5" gradientUnits="userSpaceOnUse" y1="394.09" gradientTransform="matrix(.95330 0 0 .86145 30.205 52.017)" x2="534.5" y2="394.09">
      <stop id="stop6446" stop-color="#fff" stop-opacity="0" offset="0"/>
      <stop id="stop6448" stop-color="#fff" stop-opacity=".30928" offset="1"/>
    </linearGradient>
    <linearGradient id="linearGradient7125" y2="436.05" gradientUnits="userSpaceOnUse" y1="436.05" x2="572.57" x1="177.4">
      <stop id="stop7121" stop-color="#3d2f11" offset="0"/>
      <stop id="stop7123" stop-color="#3d2f11" offset="1"/>
    </linearGradient>
    <filter id="filter8951" y="-.18968" width="1.1312" height="1.3794" x="-.065608">
      <feGaussianBlur id="feGaussianBlur8953" stdDeviation="11.331969"/>
    </filter>
    <linearGradient id="linearGradient3865" x1="182.73" gradientUnits="userSpaceOnUse" y1="612.37" gradientTransform="matrix(1 0 0 1.1669 0 -84.677)" x2="193.05" y2="612.37">
      <stop id="stop7315" stop-color="#3d2e11" offset="0"/>
      <stop id="stop7317" stop-color="#2e220b" offset="1"/>
    </linearGradient>
  </defs>
  <path id="rect7085" opacity=".95918" d="m-2.8284 0.1873h746.71v1055h-746.71l0.0016-1055z"/>
  <g id="g7057" transform="translate(-40 77.657)">
    <path id="path6072" fill="url(#linearGradient7077)" d="m374.98 311.98c109.46 0 197.59 31.99 197.59 71.72 0 39.74-88.13 71.72-197.59 71.72s-197.58-31.98-197.58-71.72c0-39.73 88.12-71.72 197.58-71.72z"/>
    <path id="path6120" d="m907.17 364.43c114.83 0 207.23 31.97 207.23 71.69 0 39.71-92.4 71.69-207.23 71.69s-207.27-31.98-207.27-71.69c0-39.72 92.44-71.69 207.27-71.69z" mask="url(#mask6436)" transform="matrix(.98090 0 0 1.0004 -520.47 -6.42)" filter="url(#filter8951)" fill="#3d2e11"/>
    <path id="path6100" fill="url(#linearGradient7125)" d="m374.98 364.33c109.46 0 197.59 31.99 197.59 71.72 0 39.74-88.13 71.72-197.59 71.72s-197.58-31.98-197.58-71.72c0-39.73 88.12-71.72 197.58-71.72z"/>
    <path id="path2167" fill="url(#linearGradient7079)" d="m172.57 383.69c0.33 0.05-0.03 417.02-0.44 416.02 0 39.71 90.43 71.69 202.78 71.69 112.36 0 202.82-31.98 202.82-71.69l-0.27-416.02h-4.89c0 39.74-88.13 71.72-197.6 71.72-109.46 0-197.57-31.98-197.57-71.72h-4.83z"/>
    <path id="path6110" stroke="url(#linearGradient7081)" stroke-width="9.741" fill="none" d="m374.98 311.98c109.46 0 197.59 31.99 197.59 71.72 0 39.74-88.13 71.72-197.59 71.72s-197.58-31.98-197.58-71.72c0-39.73 88.12-71.72 197.58-71.72z"/>
    <path id="path6442" opacity=".6898" fill-rule="evenodd" fill="url(#linearGradient7083)" d="m455.08 377.63c32.03 5.17 65.99 17.07 73.19 23.86 13.33 10.82-57.33 10.35-84.17 4.25m-21.78-4.39c-8.51-2.38-16.42-4.9-24.09-7.25-57.86-17.73-78.14-10.71-153.14-5.05 55.84-16.05 126.87-20.47 187.44-14.11"/>
  </g>
  <g id="g7051" transform="translate(-40 77.657)" fill-rule="evenodd">
    <path id="path6490" fill="url(#linearGradient7075)" d="m576.21 485.44c41.49-2.49 106.67-17.69 102.92 116.2-2.78 97.99-98.95 100.89-106.41 105.21-18.64 10.81-37.76 75.16-3.82 55.3 33.95-19.86 140.53-24.51 141.76-161.38 1.56-174-94.54-159.75-136.25-154.52-27.43 3.44-28.61 41.01 1.8 39.19z"/>
    <path id="path6666" opacity=".74286" d="m571.5 447.61c113.47-22.94 150.74 46.04 154.5 119.75l-5.5 7.5c-3.73-74.99-38.24-132.16-160.75-111.5l11.75-15.75z" transform="matrix(.89914 0 0 1.0591 55.496 -26.169)" filter="url(#filter6935)" fill="#fbfbfb"/>
    <path id="path6724" opacity=".089796" filter="url(#filter6802)" transform="matrix(.89914 0 0 1.0591 55.496 -26.169)" d="m579 693.36l-14 20.5c80.71-7.76 147.36-53.71 134.5-120.5-6.64 50.33-62.65 104.93-120.5 100z"/>
    <path id="path6814" opacity=".077551" filter="url(#filter6915)" transform="matrix(.89914 0 0 1.1916 51.899 -94.083)" d="m604 478.86l-28.5 4.22c100.66-15.01 136.53 41.77 121 112.38 33.78-87.15-40.26-121.89-92.5-116.6z"/>
  </g>
  <g id="g7065" opacity=".75102" transform="translate(-40 77.657)" fill-rule="evenodd">
    <path id="path6939" opacity=".95918" filter="url(#filter6989)" fill="url(#linearGradient7071)" d="m398.57 349.98c-41.96-45.46-78.51-80.43 21.21-188.09 42.06-45.4 17.66-100.04-24.04-123.03 115.43 25.342 114.25 94.95 73.54 149.9-34.07 45.99-65.29 102.37-70.71 161.22z"/>
    <path id="path6941" filter="url(#filter7029)" fill="url(#linearGradient7073)" d="m322.27 224.89c31.48-33.22 78.53-107.5-14.39-163.79-39.19-23.743-22.77-46.547 10.38-65.656-94.98 28.881-92.81 93.838-45.74 107.51 74.76 21.72 64.74 83.76 49.75 121.94z"/>
  </g>
  <path id="path7311" opacity=".75918" fill-rule="evenodd" fill="url(#linearGradient3865)" d="m196.75 507.5s-10.58 4.51-10.78 7.97c-1.78 29.94-3 158.72-2.97 208.91-2.5 8.89-6.55 33.15 5 26.84 12.25-6.7 8.93-16.97 8-25.1-2.59-22.65-4.95-157.24 3.62-197.43 11.84 13.88 6.13 49.66 6.38 68.78-2.5 3.44-6.55 19.32 5 16.87 12.25-2.59 8.54-13.06 8-16.22-0.47-2.75-9.61-56.37 3.08-71.23 0.88-1.03 12.44-8.72 12.44-8.72l-22.71-5.79c0-0.01 0.07-0.07 0.07-0.07l-15.13-4.81z"/>
  <path id="text7344" d="m69.276 38.009l-1.832 4.676c-1.75-1.276-4.503-1.914-8.258-1.914-3.518 0-6.339 1.513-8.463 4.539s-3.185 6.927-3.185 11.703c0 4.557 1.089 8.253 3.267 11.088 2.179 2.835 4.99 4.252 8.436 4.252 3.755 0 6.644-1.331 8.668-3.992l3.007 4.183c-3.171 3.154-7.255 4.731-12.25 4.731-5.231 0-9.351-1.887-12.359-5.66-3.008-3.774-4.512-8.75-4.512-14.93 0-5.979 1.605-10.947 4.813-14.902 3.208-3.956 7.355-5.934 12.441-5.934 4.357 0 7.766 0.72 10.227 2.16zm5.578 23.871c0-4.521 1.217-8.171 3.65-10.951 2.434-2.78 5.638-4.17 9.612-4.17 4.192 0 7.446 1.335 9.761 4.006 2.313 2.671 3.473 6.376 3.473 11.115 0 4.722-1.18 8.445-3.555 11.17-2.369 2.725-5.596 4.088-9.679 4.088-4.175 0-7.429-1.376-9.762-4.129-2.333-2.752-3.5-6.462-3.5-11.129zm5.469 0c0 7.347 2.597 11.02 7.793 11.02 2.424 0 4.325-0.985 5.701-2.953 1.376-1.969 2.064-4.658 2.064-8.067 0-7.255-2.588-10.883-7.765-10.883-2.37 0-4.261 0.967-5.674 2.899s-2.119 4.594-2.119 7.984zm42.357-21.929c-1.06-0.365-2.04-0.547-2.95-0.547-1.59 0-2.9 0.601-3.93 1.804-1.03 1.204-1.54 2.726-1.54 4.567 0 0.492 0.04 1.002 0.13 1.531h5.96v4.375h-5.96v24.91h-5.19v-24.91h-4.27v-4.375h4.27c0-3.737 0.92-6.672 2.76-8.805 1.84-2.132 4.27-3.199 7.3-3.199 1.51 0 3.14 0.274 4.87 0.82l-1.45 3.829zm20.67 0c-1.06-0.365-2.04-0.547-2.95-0.547-1.59 0-2.9 0.601-3.93 1.804-1.03 1.204-1.54 2.726-1.54 4.567 0 0.492 0.04 1.002 0.13 1.531h5.97v4.375h-5.97v24.91h-5.19v-24.91h-4.27v-4.375h4.27c0-3.737 0.92-6.672 2.76-8.805 1.84-2.132 4.28-3.199 7.3-3.199 1.52 0 3.14 0.274 4.87 0.82l-1.45 3.829zm29.5 22.503h-21.11c0 3.428 0.94 6.062 2.82 7.903 1.66 1.604 3.79 2.406 6.4 2.406 2.97 0 5.45-0.866 7.44-2.598l2.18 3.747c-0.8 0.802-2.03 1.494-3.69 2.078-2.08 0.765-4.39 1.148-6.94 1.148-3.68 0-6.81-1.249-9.38-3.746-2.86-2.753-4.29-6.453-4.29-11.102 0-4.83 1.46-8.704 4.4-11.621 2.62-2.606 5.73-3.91 9.32-3.91 4.18 0 7.45 1.176 9.82 3.528 2.3 2.26 3.44 5.259 3.44 8.996 0 1.148-0.13 2.205-0.41 3.171zm-12.6-11.32c-2.32 0-4.26 0.748-5.83 2.242-1.49 1.422-2.34 3.19-2.54 5.305h16.22c0-2.096-0.66-3.846-1.97-5.25-1.44-1.531-3.4-2.297-5.88-2.297zm43.12 11.32h-21.11c0 3.428 0.94 6.062 2.82 7.903 1.66 1.604 3.79 2.406 6.4 2.406 2.97 0 5.45-0.866 7.43-2.598l2.19 3.747c-0.8 0.802-2.03 1.494-3.69 2.078-2.08 0.765-4.39 1.148-6.95 1.148-3.68 0-6.81-1.249-9.38-3.746-2.86-2.753-4.29-6.453-4.29-11.102 0-4.83 1.47-8.704 4.4-11.621 2.63-2.606 5.74-3.91 9.33-3.91 4.17 0 7.44 1.176 9.81 3.528 2.3 2.26 3.45 5.259 3.45 8.996 0 1.148-0.14 2.205-0.41 3.171zm-12.61-11.32c-2.31 0-4.25 0.748-5.82 2.242-1.49 1.422-2.34 3.19-2.54 5.305h16.21c0-2.096-0.65-3.846-1.97-5.25-1.44-1.531-3.4-2.297-5.88-2.297zm61.28-13.125l-1.83 4.676c-1.75-1.276-4.5-1.914-8.26-1.914-3.52 0-6.34 1.513-8.46 4.539s-3.19 6.927-3.19 11.703c0 4.557 1.09 8.253 3.27 11.088s4.99 4.252 8.44 4.252c3.75 0 6.64-1.331 8.66-3.992l3.01 4.183c-3.17 3.154-7.25 4.731-12.25 4.731-5.23 0-9.35-1.887-12.36-5.66-3.01-3.774-4.51-8.75-4.51-14.93 0-5.979 1.61-10.947 4.81-14.902 3.21-3.956 7.36-5.934 12.44-5.934 4.36 0 7.77 0.72 10.23 2.16zm12.42 9.297v18.676c0 4.521 1.96 6.781 5.87 6.781 1.72 0 3.29-0.492 4.71-1.476 1.42-0.985 2.36-2.124 2.81-3.418v-20.563h5.2v29.285h-5.2v-4.047c-0.58 1.149-1.75 2.202-3.51 3.159s-3.48 1.435-5.15 1.435c-3.21 0-5.67-0.92-7.37-2.762-1.71-1.841-2.56-4.457-2.56-7.847v-19.223h5.2zm30.89 27.672v13.098h-5.19v-40.77h5.19v2.406c1.97-1.968 4.35-2.953 7.14-2.953 4.16 0 7.39 1.294 9.71 3.883 2.31 2.589 3.47 6.38 3.47 11.375 0 4.448-1.17 8.08-3.5 10.896-2.33 2.817-5.71 4.225-10.12 4.225-1.24 0-2.56-0.219-3.98-0.656-1.41-0.438-2.32-0.939-2.72-1.504zm0-21.356v17.063c0.33 0.492 1.02 0.962 2.08 1.408 1.06 0.447 2.09 0.67 3.09 0.67 6.46 0 9.68-3.646 9.68-10.937 0-3.701-0.76-6.408-2.3-8.122-1.53-1.713-3.98-2.57-7.35-2.57-0.73 0-1.62 0.255-2.68 0.766-1.06 0.51-1.9 1.084-2.52 1.722z" fill="#fff"/>
  <path id="text7350" d="m55.349 101.77c0-1.851-0.381-3.303-1.142-4.356-0.761-1.052-1.807-1.579-3.137-1.579-1.331 0-2.377 0.527-3.138 1.579-0.761 1.053-1.142 2.505-1.142 4.356 0 1.85 0.381 3.3 1.142 4.35 0.761 1.06 1.807 1.58 3.138 1.58 1.33 0 2.376-0.52 3.137-1.58 0.761-1.05 1.142-2.5 1.142-4.35zm-8.559-5.347c0.529-0.911 1.197-1.588 2.003-2.03 0.807-0.442 1.771-0.663 2.892-0.663 1.859 0 3.37 0.738 4.532 2.215 1.162 1.476 1.743 3.418 1.743 5.825 0 2.41-0.581 4.35-1.743 5.82-1.162 1.48-2.673 2.22-4.532 2.22-1.121 0-2.085-0.22-2.892-0.67-0.806-0.44-1.474-1.11-2.003-2.03v2.3h-2.529v-21.272h2.529v8.285zm21.711 14.407c-0.711 1.83-1.403 3.02-2.078 3.57-0.674 0.56-1.577 0.84-2.707 0.84h-2.01v-2.11h1.477c0.693 0 1.23-0.16 1.613-0.49s0.807-1.1 1.272-2.33l0.451-1.14-6.193-15.071h2.666l4.785 11.981 4.785-11.981h2.666l-6.727 16.731zm28.875-16.28v2.379c-0.711-0.365-1.449-0.638-2.214-0.82-0.766-0.183-1.559-0.274-2.379-0.274-1.249 0-2.186 0.192-2.81 0.575-0.624 0.382-0.936 0.957-0.936 1.722 0 0.584 0.223 1.042 0.669 1.374 0.447 0.333 1.345 0.654 2.694 0.954l0.861 0.19c1.787 0.38 3.056 0.92 3.808 1.62s1.128 1.67 1.128 2.92c0 1.42-0.563 2.54-1.689 3.37-1.125 0.83-2.673 1.25-4.641 1.25-0.821 0-1.675-0.08-2.564-0.24s-1.825-0.4-2.809-0.72v-2.6c0.929 0.49 1.845 0.85 2.748 1.09 0.902 0.24 1.795 0.36 2.679 0.36 1.185 0 2.097-0.2 2.735-0.61 0.638-0.4 0.957-0.97 0.957-1.71 0-0.69-0.23-1.21-0.691-1.57-0.46-0.37-1.469-0.72-3.028-1.06l-0.875-0.2c-1.559-0.33-2.684-0.83-3.377-1.51s-1.039-1.614-1.039-2.798c0-1.441 0.51-2.553 1.531-3.336 1.021-0.784 2.47-1.176 4.348-1.176 0.929 0 1.804 0.068 2.625 0.205 0.82 0.137 1.577 0.342 2.269 0.615zm4.844-6.412h2.51v21.272h-2.51v-21.272zm15.71 3.268l-6.98 10.894h6.98v-10.894zm-0.73-2.407h3.47v13.301h2.92v2.3h-2.92v4.81h-2.74v-4.81h-9.22v-2.67l8.49-12.931zm16.98 21.831c-0.71 1.83-1.4 3.02-2.08 3.57-0.67 0.56-1.57 0.84-2.7 0.84h-2.01v-2.11h1.47c0.7 0 1.23-0.16 1.62-0.49 0.38-0.33 0.8-1.1 1.27-2.33l0.45-1.14-6.19-15.071h2.66l4.79 11.981 4.78-11.981h2.67l-6.73 16.731zm23.3-9.7v1.23h-11.57c0.11 1.73 0.63 3.05 1.57 3.95 0.93 0.91 2.23 1.37 3.9 1.37 0.97 0 1.9-0.12 2.81-0.36s1.81-0.59 2.7-1.07v2.38c-0.9 0.38-1.83 0.68-2.78 0.88-0.94 0.2-1.9 0.3-2.88 0.3-2.44 0-4.38-0.71-5.8-2.13-1.43-1.43-2.14-3.35-2.14-5.77 0-2.511 0.67-4.5 2.03-5.972 1.35-1.472 3.18-2.208 5.47-2.208 2.06 0 3.69 0.663 4.89 1.989s1.8 3.129 1.8 5.411zm-2.52-0.74c-0.02-1.378-0.4-2.477-1.15-3.297s-1.75-1.23-2.99-1.23c-1.4 0-2.53 0.396-3.37 1.189s-1.33 1.91-1.46 3.348l8.97-0.01zm15.52-3.939c-0.28-0.165-0.59-0.285-0.92-0.363-0.34-0.077-0.7-0.116-1.1-0.116-1.43 0-2.52 0.463-3.28 1.388s-1.14 2.253-1.14 3.99v8.06h-2.53v-15.311h2.53v2.379c0.53-0.93 1.22-1.62 2.06-2.071 0.85-0.452 1.88-0.677 3.09-0.677 0.18 0 0.37 0.011 0.58 0.034s0.44 0.057 0.7 0.103l0.01 2.584z" fill="#fff"/>
  <metadata>
    <rdf:RDF>
      <cc:Work>
        <dc:format>image/svg+xml</dc:format>
        <dc:type rdf:resource="http://purl.org/dc/dcmitype/StillImage"/>
        <cc:license rdf:resource="http://creativecommons.org/licenses/publicdomain/"/>
        <dc:publisher>
          <cc:Agent rdf:about="http://openclipart.org/">
            <dc:title>Openclipart</dc:title>
          </cc:Agent>
        </dc:publisher>
        <dc:title>Coffee Cup</dc:title>
        <dc:date>2007-11-04T20:46:33</dc:date>
        <dc:description>hot coffee P:</dc:description>
        <dc:source>http://openclipart.org/detail/10766/coffee-cup-by-sl4yerpl</dc:source>
        <dc:creator>
          <cc:Agent>
            <dc:title>sl4yerPL</dc:title>
          </cc:Agent>
        </dc:creator>
        <dc:subject>
          <rdf:Bag>
            <rdf:li>clip art</rdf:li>
            <rdf:li>clipart</rdf:li>
            <rdf:li>coffee</rdf:li>
            <rdf:li>coffeecup</rdf:li>
            <rdf:li>cup</rdf:li>
            <rdf:li>drink</rdf:li>
            <rdf:li>hot</rdf:li>
            <rdf:li>how i did it</rdf:li>
            <rdf:li>image</rdf:li>
            <rdf:li>media</rdf:li>
            <rdf:li>png</rdf:li>
            <rdf:li>public domain</rdf:li>
            <rdf:li>svg</rdf:li>
          </rdf:Bag>
        </dc:subject>
      </cc:Work>
      <cc:License rdf:about="http://creativecommons.org/licenses/publicdomain/">
        <cc:permits rdf:resource="http://creativecommons.org/ns#Reproduction"/>
        <cc:permits rdf:resource="http://creativecommons.org/ns#Distribution"/>
        <cc:permits rdf:resource="http://creativecommons.org/ns#DerivativeWorks"/>
      </cc:License>
    </rdf:RDF>
  </metadata>
</svg>
