<?xml version="1.0"?>
<svg xmlns:rdf="http://www.w3.org/1999/02/22-rdf-syntax-ns#" xmlns="http://www.w3.org/2000/svg" xmlns:cc="http://creativecommons.org/ns#" xmlns:xlink="http://www.w3.org/1999/xlink" xmlns:dc="http://purl.org/dc/elements/1.1/" xmlns:svg="http://www.w3.org/2000/svg" id="svg2" viewBox="0 0 1488.2 1052.4" version="1.1">
  <g id="layer1" transform="translate(0 .000022303)">
    <g id="g4001">
      <g id="g3831" stroke-width="0" transform="translate(421.97 601.14)">
        <path id="path3047" fill="#008000" transform="translate(0 308.27)" d="m-404.18-177.58 10.826-19.487 4.3305-5.774 5.0522-6.4957 3.6087-7.9392 2.887-15.878-0.72175-12.27 3.6087-4.3305 6.4957-2.887 10.826 2.1652 4.3305 7.2175 14.435 39.696 2.887-2.887 4.3305-5.0522 4.3305-1.4435h4.3305l7.9392-2.1652h4.3305l5.0522 0.72175 5.774 5.774 4.3305 12.27 5.774-13.713 3.6087-15.878 2.1652-15.157 1.4435-7.9392 3.6087-5.774 7.2175-5.0522 8.661 0.72174 8.661 5.0522 2.887 10.826 0.72175 15.878 9.3827-3.6087 24.539-57.018 28.148-75.784 21.652-68.566 10.826-44.027 2.1652-44.027-1.4435-29.592v-9.3827h-12.27l-24.539-2.887-23.096-10.826-20.209-12.27-16.6-15.157-15.157-16.6-7.2175-18.044v-19.487l7.2175-15.157 15.157-20.209 10.104-11.548 14.435-10.104 8.661-7.2175 10.104-6.4957 12.27-6.4957 5.774-15.157 7.9392-15.157 11.548-15.157 11.548-6.4957 14.435-2.887 10.104 2.1652 14.435 10.826 8.661-5.0522 15.878-5.774 15.878-2.887 12.991 1.4435 10.104 6.4957 2.887 7.9392 1.4435 10.826 9.3827-1.4435 12.991-3.6087 13.713-1.4435 13.713 2.887 11.548 5.774 8.661 13.713 2.887 14.435 1.4435 4.3305 12.27-3.6087 8.661-2.1652 11.548 2.887 10.104 6.4957 5.774 7.9392 3.6087 16.6-2.1652 18.765-5.774 18.044-6.4957 13.713-6.4957 11.548-8.661 9.3827-10.104 9.3827-2.887 5.0522-4.3305 12.27-2.1652 12.27-3.6087 11.548-7.2175 7.2175-12.991 9.3827-11.548 7.2175-12.991 2.887-5.774 4.3305-5.774 2.887-5.774 18.044-9.3827 40.418-6.4957 39.696-2.887 12.991-2.1652 21.652-0.72175 31.757 2.1652 45.47v16.6l2.887 26.705 2.1652 18.044 2.1652 17.322 2.887 18.044 3.6087 2.887 4.3305 2.1652 4.3305 7.9392 3.6087-4.3305h8.661l5.0522 3.6087 7.2175 9.3827 6.4957-4.3305 12.991-2.887 7.9392 2.887 5.774 5.774 7.2175 9.3827 2.887 4.3305 5.774-15.157 2.887-22.374 4.3305-15.157 4.3305-9.3827 8.661-5.0522 8.661 2.1652 6.4957 5.0522 3.6087 11.548v9.3827l0.72175 15.157 4.3305-4.3305h9.3827l5.774 5.774 1.4435-6.4957 5.0522-5.774 6.4957-0.72175 7.9392 2.887 2.887 6.4957 2.887 8.661 2.887 9.3827 1.4435-13.713 3.6087-10.826 7.9392-6.4957 7.9392-1.4435 5.0522 2.887 6.4957 8.661v3.6087l6.4957-5.774 8.661-2.887 5.774 5.0522 2.887 5.774 0.72175 7.9392 4.3305 11.548 5.774 10.104 9.3827 10.826 4.3305 4.3305z"/>
        <path id="path3049" fill="#fff" transform="translate(0 308.27)" d="m23.096-714.56-1.4435 12.27-2.1652 14.435-4.3305 12.991-6.4957 13.713-10.104 9.3827-5.0522 6.4957-2.887 2.1652s-2.887 1.4435 5.0522 5.774 7.9392 3.6087 7.9392 3.6087l9.3827 4.3305 10.104-1.4435 6.4957-2.887 8.661-6.4957 7.2175-10.826 5.774-12.991 5.0522-12.991 2.1652-9.3827 1.4435-11.548-2.887-9.3827-5.774-5.774-6.4957-3.6087-5.774-1.4435-7.2175 0.72175z"/>
        <path id="path3051" fill="#fff" transform="translate(0 308.27)" d="m-54.853-646.71 0.72175-16.6 2.887-9.3827 4.3305-13.713 1.4435-13.713v-21.652l1.4435-10.826 2.887-11.548 8.661-6.4957s7.9392-2.1652 16.6-2.1652h8.661l9.3827 7.9392 5.0522 13.713v9.3827l1.4435 21.652-2.887 13.713-5.0522 10.104-10.104 12.991-10.826 9.3827-11.548 5.0522-13.713 2.887z"/>
        <path id="path3053" fill="#fff" transform="translate(0 308.27)" d="m-83.723-642.38 13.713-18.765 5.0522-11.548 4.3305-14.435 2.1652-23.096-1.4435-19.487-1.4435-18.765-3.6087-11.548-4.3305-8.661-5.0522-2.887-7.2175-1.4435-7.2175 2.1652-7.2175 2.887-5.774 4.3305-3.6087 2.887-5.0522 7.9392-1.4435 10.104v15.157l-1.4435 15.878v13.713l-0.72175 13.713-2.1652 10.826-3.6087 7.9392-2.1652 8.661-1.4435 6.4957 4.3305 8.661 7.2175 3.6087 10.104 2.1652 10.104-2.887z"/>
        <path id="path3057" fill="#fff" transform="translate(0 308.27)" d="m-146.51-661.87-2.1652-15.157-4.3305-17.322-7.2175-15.157-9.3827-14.435-5.774-8.661 1.4435-9.3827 3.6087-11.548 5.774-5.0522 8.661-7.9392 7.9392-1.4435 6.4957 1.4435 7.9392 5.774 5.0522 7.2175v15.878l1.4435 18.765v20.931l-2.1652 11.548-2.887 11.548-3.6087 5.774-4.3305 5.0522z"/>
        <path id="path3059" fill="#fff" transform="translate(0 308.27)" d="m-51.244-544.23v-7.2175l4.3305-6.4957 1.4435-3.6087 8.661-2.1652h9.3827l9.3827-2.1652 9.3827-4.3305 10.104-5.774 8.661-8.661 3.6087-7.9392v-9.3827l-1.4435-7.9392-4.3305-4.3305-6.4957-3.6087-10.104-3.6087-4.3305-5.0522-5.774-2.887-7.2175-1.4435-9.3827 1.4435-12.27 3.6087-11.548 1.4435-15.157-0.72175h-9.3827l-9.3827 1.4435-15.878 1.4435-10.104-2.1652-9.3827-4.3305-8.661-7.2175-8.661-5.0522-3.6087-2.1652-5.0522-0.72175-6.4957 2.1652-10.104 4.3305-12.27 4.3305-7.2175 5.774-7.9392 2.1652-8.661 2.1652h-7.9392l-11.548-5.774-6.4957-8.661-4.3305-9.3827-1.4435-8.661 2.1652-6.4957 2.887-6.4957 3.6087-3.6087 2.1652-0.72175 2.887 3.6087v5.774l2.1652 10.826 4.3305 5.774 7.2175 5.0522h10.104l12.27-2.887 16.6-8.661 7.2175-6.4957 2.1652-10.104v-10.104l-5.774-10.826-6.4957-10.104-4.3305-5.774-5.774-6.4957-2.887-1.4435h-5.774l-7.2175 4.3305-12.27 6.4957-10.104 7.2175-12.991 10.104-9.3827 10.104-5.774 9.3827-4.3305 10.104-2.887 9.3827-1.4435 7.2175 4.3305 8.661 4.3305 8.661 5.774 9.3827 8.661 9.3827 10.104 8.661 14.435 10.826 15.157 7.2175 14.435 5.0522 16.6 2.1652 13.713-2.1652 8.661-1.4435 2.887 10.826-0.72175 12.27-0.72174 5.774 4.3305 4.3305 4.3305 3.6087 10.104 2.887 15.157 1.4435h19.488l10.826-1.4435 7.9392-1.4435 13.713-4.3305z"/>
        <path id="path3061" fill="#008000" transform="translate(0 308.27)" d="m106.82-781.68 6.4957-5.0522 6.4957-2.1652 5.774-0.72175 7.2175 0.72175 7.9392 8.661 8.661 12.27 10.104 13.713 7.9392-2.887 10.104-8.661 7.9392-4.3305 10.104-2.1652 7.9392-1.4435 6.4957 3.6087 6.4957 2.887 4.3305 5.774 3.6087 5.0522 5.0522-6.4957-0.72175-3.6087v-5.774l-2.1652-7.2175-3.6087-5.0522-5.774-2.887-9.3827-1.4435-14.435 1.4435-10.826 2.887-14.435 1.4435-6.4957 0.72175-5.0522-5.0522-10.104-8.661-7.2175-6.4957-8.661-3.6087-7.9392-0.72175-6.4957 2.1652-5.0522 1.4435-3.6087 2.887-1.4435 2.887v9.3827z"/>
      </g>
      <g id="flowRoot3859" transform="matrix(3.6009 0 0 3.5731 -1763.3 -613.11)" fill="#015a01">
        <path id="path3868" d="m657.46 237.7v10.957h4.9609c1.8359 0.00001 3.2552-0.47525 4.2578-1.4258 1.0026-0.95051 1.5039-2.3047 1.5039-4.0625-0.00002-1.7448-0.50132-3.0924-1.5039-4.043-1.0026-0.9505-2.4219-1.4258-4.2578-1.4258h-4.9609m-3.9453-3.2422h8.9062c3.2682 0.00003 5.7357 0.74222 7.4023 2.2266 1.6797 1.4714 2.5195 3.6328 2.5195 6.4844-0.00003 2.8776-0.83987 5.0521-2.5195 6.5234-1.6667 1.4714-4.1341 2.207-7.4023 2.207h-4.9609v11.719h-3.9453v-29.16"/>
        <path id="path3870" d="m685.65 252.62c-2.9037 0.00001-4.9154 0.33204-6.0352 0.9961-1.1198 0.66407-1.6797 1.7969-1.6797 3.3984 0 1.276 0.41666 2.2917 1.25 3.0469 0.84635 0.74219 1.9922 1.1133 3.4375 1.1133 1.9922 0 3.5872-0.70312 4.7852-2.1094 1.2109-1.4193 1.8164-3.3008 1.8164-5.6445v-0.80078h-3.5742m7.168-1.4844v12.48h-3.5938v-3.3203c-0.82033 1.3281-1.8425 2.3112-3.0664 2.9492-1.224 0.625-2.7214 0.9375-4.4922 0.9375-2.2396 0-4.0234-0.625-5.3516-1.875-1.3151-1.263-1.9727-2.9492-1.9727-5.0586 0-2.4609 0.82031-4.3164 2.4609-5.5664 1.6536-1.25 4.1146-1.875 7.3828-1.875h5.0391v-0.35156c-0.00002-1.6536-0.5469-2.9297-1.6406-3.8281-1.0807-0.91144-2.6042-1.3672-4.5703-1.3672-1.25 0.00002-2.4675 0.14976-3.6524 0.44922-1.1849 0.29949-2.3242 0.74871-3.418 1.3476v-3.3203c1.3151-0.50779 2.5911-0.88539 3.8281-1.1328 1.237-0.2604 2.4414-0.3906 3.6133-0.39063 3.164 0.00003 5.5273 0.82034 7.0898 2.4609s2.3437 4.1276 2.3438 7.4609"/>
        <path id="path3872" d="m712.91 245.1c-0.40366-0.23435-0.84637-0.40363-1.3281-0.50781-0.46877-0.11717-0.9896-0.17576-1.5625-0.17578-2.0313 0.00002-3.5938 0.66408-4.6875 1.9922-1.0807 1.3151-1.6211 3.2096-1.6211 5.6836v11.523h-3.6133v-21.875h3.6133v3.3984c0.7552-1.3281 1.7383-2.3112 2.9492-2.9492 1.2109-0.65102 2.6823-0.97654 4.4141-0.97657 0.24739 0.00003 0.52082 0.0196 0.82032 0.0586 0.29946 0.0261 0.63149 0.0716 0.99609 0.13672l0.0195 3.6914"/>
        <path id="path3874" d="m716.59 233.23h3.6133v17.949l10.723-9.4336h4.5898l-11.602 10.234 12.09 11.641h-4.6875l-11.113-10.684v10.684h-3.6133v-30.391"/>
        <path id="path3876" d="m752.82 234.46h3.9453v12.324l13.086-12.324h5.0781l-14.473 13.594 15.508 15.566h-5.1953l-14.004-14.043v14.043h-3.9453v-29.16"/>
        <path id="path3878" d="m795.67 251.78v1.7578h-16.523c0.15625 2.474 0.89843 4.362 2.2266 5.6641 1.3411 1.2891 3.2031 1.9336 5.5859 1.9336 1.3802 0 2.7148-0.16927 4.0039-0.50781 1.3021-0.33854 2.5911-0.84636 3.8672-1.5234v3.3984c-1.2891 0.54687-2.6107 0.96354-3.9648 1.25-1.3542 0.28645-2.7279 0.42968-4.1211 0.42968-3.4896 0-6.2565-1.0156-8.3008-3.0469-2.0313-2.0312-3.0469-4.7786-3.0469-8.2422 0-3.5807 0.96354-6.4192 2.8906-8.5156 1.9401-2.1094 4.5508-3.164 7.832-3.1641 2.9427 0.00003 5.2669 0.95054 6.9726 2.8516 1.7187 1.888 2.5781 4.4596 2.5781 7.7148m-3.5938-1.0547c-0.0261-1.9661-0.57945-3.5351-1.6602-4.707-1.0677-1.1719-2.487-1.7578-4.2578-1.7578-2.0052 0.00002-3.6133 0.56642-4.8242 1.6992-1.1979 1.1328-1.888 2.7279-2.0703 4.7852l12.812-0.0195"/>
        <path id="path3880" d="m820.28 251.78v1.7578h-16.523c0.15624 2.474 0.89843 4.362 2.2266 5.6641 1.3411 1.2891 3.2031 1.9336 5.5859 1.9336 1.3802 0 2.7148-0.16927 4.0039-0.50781 1.3021-0.33854 2.5911-0.84636 3.8672-1.5234v3.3984c-1.2891 0.54687-2.6107 0.96354-3.9648 1.25-1.3542 0.28645-2.7279 0.42968-4.1211 0.42968-3.4896 0-6.2565-1.0156-8.3008-3.0469-2.0312-2.0312-3.0469-4.7786-3.0469-8.2422-0.00001-3.5807 0.96353-6.4192 2.8906-8.5156 1.9401-2.1094 4.5508-3.164 7.832-3.1641 2.9427 0.00003 5.2669 0.95054 6.9727 2.8516 1.7187 1.888 2.5781 4.4596 2.5781 7.7148m-3.5938-1.0547c-0.0261-1.9661-0.57944-3.5351-1.6602-4.707-1.0677-1.1719-2.487-1.7578-4.2578-1.7578-2.0052 0.00002-3.6133 0.56642-4.8242 1.6992-1.1979 1.1328-1.888 2.7279-2.0703 4.7852l12.812-0.0195"/>
        <path id="path3882" d="m829.65 260.34v11.602h-3.6133v-30.195h3.6133v3.3203c0.7552-1.3021 1.7057-2.2656 2.8516-2.8906 1.1588-0.63799 2.539-0.957 4.1406-0.95703 2.6562 0.00003 4.8112 1.0547 6.4648 3.1641 1.6666 2.1094 2.5 4.8828 2.5 8.3203-0.00002 3.4375-0.83335 6.2109-2.5 8.3203-1.6537 2.1094-3.8086 3.1641-6.4648 3.1641-1.6016 0-2.9818-0.3125-4.1406-0.9375-1.1458-0.63802-2.0964-1.6081-2.8516-2.9102m12.227-7.6367c-0.00002-2.6432-0.5469-4.7135-1.6406-6.2109-1.0807-1.5104-2.5716-2.2656-4.4727-2.2656-1.901 0.00001-3.3984 0.75522-4.4922 2.2656-1.0807 1.4974-1.6211 3.5677-1.6211 6.2109s0.54036 4.7201 1.6211 6.2305c1.0937 1.4974 2.5911 2.2461 4.4922 2.2461 1.901 0 3.3919-0.74869 4.4727-2.2461 1.0937-1.5104 1.6406-3.5872 1.6406-6.2305"/>
        <path id="path3884" d="m870.28 251.78v1.7578h-16.523c0.15624 2.474 0.89843 4.362 2.2266 5.6641 1.3411 1.2891 3.2031 1.9336 5.5859 1.9336 1.3802 0 2.7148-0.16927 4.0039-0.50781 1.3021-0.33854 2.5911-0.84636 3.8672-1.5234v3.3984c-1.2891 0.54687-2.6107 0.96354-3.9648 1.25-1.3542 0.28645-2.7279 0.42968-4.1211 0.42968-3.4896 0-6.2565-1.0156-8.3008-3.0469-2.0312-2.0312-3.0469-4.7786-3.0469-8.2422-0.00001-3.5807 0.96353-6.4192 2.8906-8.5156 1.9401-2.1094 4.5508-3.164 7.832-3.1641 2.9427 0.00003 5.2669 0.95054 6.9727 2.8516 1.7187 1.888 2.5781 4.4596 2.5781 7.7148m-3.5938-1.0547c-0.0261-1.9661-0.57944-3.5351-1.6602-4.707-1.0677-1.1719-2.487-1.7578-4.2578-1.7578-2.0052 0.00002-3.6133 0.56642-4.8242 1.6992-1.1979 1.1328-1.888 2.7279-2.0703 4.7852l12.812-0.0195"/>
        <path id="path3886" d="m888.85 245.1c-0.40366-0.23435-0.84637-0.40363-1.3281-0.50781-0.46877-0.11717-0.9896-0.17576-1.5625-0.17578-2.0313 0.00002-3.5938 0.66408-4.6875 1.9922-1.0807 1.3151-1.6211 3.2096-1.6211 5.6836v11.523h-3.6133v-21.875h3.6133v3.3984c0.7552-1.3281 1.7383-2.3112 2.9492-2.9492 1.2109-0.65102 2.6823-0.97654 4.4141-0.97657 0.24739 0.00003 0.52082 0.0196 0.82032 0.0586 0.29946 0.0261 0.63149 0.0716 0.99609 0.13672l0.0195 3.6914"/>
      </g>
      <g id="flowRoot3888" transform="matrix(1.5604 0 0 1.261 -333.97 -14.378)" fill="#013397">
        <path id="path3897" style="" d="m639.74 569.43h3.5938l4.4922 17.07 4.4727-17.07h4.2383l4.4922 17.07 4.4727-17.07h3.5938l-5.7227 21.875h-4.2383l-4.707-17.93-4.7266 17.93h-4.2383l-5.7226-21.875"/>
        <path id="path3899" style="" d="m672.48 569.43h3.5938l4.4922 17.07 4.4727-17.07h4.2383l4.4922 17.07 4.4727-17.07h3.5938l-5.7227 21.875h-4.2383l-4.707-17.93-4.7266 17.93h-4.2383l-5.7227-21.875"/>
        <path id="path3901" style="" d="m705.21 569.43h3.5938l4.4922 17.07 4.4727-17.07h4.2383l4.4922 17.07 4.4727-17.07h3.5938l-5.7227 21.875h-4.2383l-4.707-17.93-4.7266 17.93h-4.2383l-5.7226-21.875"/>
        <path id="path3903" style="" d="m736.87 586.35h4.1211v4.9609h-4.1211v-4.9609"/>
        <path id="path3905" style="" d="m752.57 588.03v11.602h-3.6133v-30.195h3.6133v3.3203c0.7552-1.3021 1.7057-2.2656 2.8516-2.8906 1.1588-0.63799 2.539-0.957 4.1406-0.95703 2.6562 0.00003 4.8112 1.0547 6.4648 3.1641 1.6666 2.1094 2.5 4.8828 2.5 8.3203-0.00002 3.4375-0.83336 6.2109-2.5 8.3203-1.6537 2.1094-3.8086 3.1641-6.4648 3.1641-1.6016 0-2.9818-0.3125-4.1406-0.9375-1.1458-0.63802-2.0964-1.6081-2.8516-2.9102m12.227-7.6367c-0.00002-2.6432-0.54689-4.7135-1.6406-6.2109-1.0808-1.5104-2.5716-2.2656-4.4727-2.2656-1.901 0.00001-3.3984 0.75522-4.4922 2.2656-1.0807 1.4974-1.6211 3.5677-1.6211 6.2109-0.00001 2.6432 0.54036 4.7201 1.6211 6.2305 1.0937 1.4974 2.5911 2.2461 4.4922 2.2461 1.901 0 3.3919-0.74869 4.4727-2.2461 1.0937-1.5104 1.6406-3.5872 1.6406-6.2305"/>
        <path id="path3907" style="" d="m784.43 580.31c-2.9037 0.00001-4.9154 0.33204-6.0352 0.9961-1.1198 0.66407-1.6797 1.7969-1.6797 3.3984 0 1.276 0.41666 2.2917 1.25 3.0469 0.84635 0.74219 1.9922 1.1133 3.4375 1.1133 1.9922 0 3.5872-0.70312 4.7852-2.1094 1.2109-1.4193 1.8164-3.3008 1.8164-5.6445v-0.80078h-3.5742m7.168-1.4844v12.48h-3.5938v-3.3203c-0.82033 1.3281-1.8425 2.3112-3.0664 2.9492-1.224 0.625-2.7214 0.9375-4.4922 0.9375-2.2396 0-4.0234-0.625-5.3516-1.875-1.3151-1.263-1.9727-2.9492-1.9727-5.0586 0-2.4609 0.82031-4.3164 2.4609-5.5664 1.6536-1.25 4.1146-1.875 7.3828-1.875h5.0391v-0.35156c-0.00002-1.6536-0.5469-2.9297-1.6406-3.8281-1.0807-0.91144-2.6042-1.3672-4.5703-1.3672-1.25 0.00002-2.4675 0.14976-3.6524 0.44922-1.1849 0.29949-2.3242 0.74871-3.418 1.3476v-3.3203c1.3151-0.50779 2.5911-0.88539 3.8281-1.1328 1.237-0.2604 2.4414-0.3906 3.6133-0.39063 3.164 0.00003 5.5273 0.82034 7.0898 2.4609s2.3437 4.1276 2.3438 7.4609"/>
        <path id="path3909" style="" d="m811.7 572.79c-0.40366-0.23435-0.84637-0.40363-1.3281-0.50781-0.46877-0.11717-0.9896-0.17576-1.5625-0.17578-2.0313 0.00002-3.5938 0.66408-4.6875 1.9922-1.0807 1.3151-1.6211 3.2096-1.6211 5.6836v11.523h-3.6133v-21.875h3.6133v3.3984c0.7552-1.3281 1.7383-2.3112 2.9492-2.9492 1.2109-0.65102 2.6823-0.97654 4.4141-0.97657 0.24739 0.00003 0.52082 0.0196 0.82032 0.0586 0.29946 0.0261 0.63149 0.0716 0.99609 0.13672l0.0195 3.6914"/>
        <path id="path3911" style="" d="m815.37 560.92h3.6133v17.949l10.723-9.4336h4.5898l-11.602 10.234 12.09 11.641h-4.6875l-11.113-10.684v10.684h-3.6133v-30.391"/>
        <path id="path3913" style="" d="m852.65 570.08v3.3984c-1.0156-0.52082-2.0703-0.91144-3.1641-1.1719-1.0938-0.2604-2.2266-0.39061-3.3984-0.39062-1.7839 0.00001-3.125 0.27345-4.0234 0.82031-0.88543 0.54689-1.3281 1.3672-1.3281 2.4609 0 0.83334 0.31901 1.4909 0.95703 1.9726 0.63802 0.46877 1.9206 0.91798 3.8477 1.3477l1.2305 0.27344c2.5521 0.54688 4.362 1.3216 5.4297 2.3242 1.0807 0.9896 1.6211 2.3763 1.6211 4.1602-0.00002 2.0312-0.80731 3.6393-2.4219 4.8242-1.6016 1.1849-3.8086 1.7773-6.6211 1.7773-1.1719 0-2.3958-0.11719-3.6719-0.35156-1.263-0.22135-2.5976-0.5599-4.0039-1.0156v-3.7109c1.3281 0.69011 2.6367 1.2109 3.9258 1.5625 1.2891 0.33854 2.5651 0.50781 3.8281 0.50781 1.6927 0 2.9948-0.28646 3.9062-0.85937 0.91145-0.58594 1.3672-1.4062 1.3672-2.4609-0.00001-0.97656-0.33204-1.7253-0.99609-2.2461-0.65106-0.52082-2.0899-1.0221-4.3164-1.5039l-1.25-0.29297c-2.2266-0.46874-3.8346-1.1849-4.8242-2.1484-0.98958-0.97655-1.4844-2.3112-1.4844-4.0039 0-2.0573 0.72916-3.6458 2.1875-4.7656s3.5286-1.6797 6.2109-1.6797c1.3281 0.00003 2.5781 0.0977 3.75 0.29297 1.1719 0.19534 2.2526 0.4883 3.2422 0.87891"/>
        <path id="path3915" style="" d="m875.31 570.27v3.3594c-1.0156-0.55988-2.0378-0.97655-3.0664-1.25-1.0156-0.28644-2.0443-0.42967-3.0859-0.42969-2.3307 0.00002-4.1406 0.7422-5.4297 2.2266-1.2891 1.4714-1.9336 3.5417-1.9336 6.2109-0.00001 2.6693 0.64452 4.7461 1.9336 6.2305 1.2891 1.4714 3.099 2.207 5.4297 2.207 1.0416 0 2.0703-0.13672 3.0859-0.41016 1.0286-0.28645 2.0508-0.70963 3.0664-1.2695v3.3203c-1.0026 0.46875-2.0443 0.82032-3.125 1.0547-1.0677 0.23437-2.207 0.35156-3.418 0.35156-3.2943 0-5.9115-1.0352-7.8516-3.1055s-2.9102-4.8633-2.9102-8.3789c-0.00001-3.5677 0.97656-6.3737 2.9297-8.418 1.9661-2.0442 4.6549-3.0664 8.0664-3.0664 1.1068 0.00003 2.1875 0.11721 3.2422 0.35157 1.0547 0.22137 2.0768 0.55991 3.0664 1.0156"/>
        <path id="path3917" style="" d="m899.78 578.1v13.203h-3.5938v-13.086c-0.00002-2.0703-0.40366-3.6198-1.2109-4.6484-0.80731-1.0286-2.0182-1.543-3.6328-1.543-1.9401 0.00002-3.4701 0.61851-4.5898 1.8555-1.1198 1.237-1.6797 2.9232-1.6797 5.0586v12.363h-3.6133v-30.391h3.6133v11.914c0.85937-1.3151 1.8685-2.2982 3.0273-2.9492 1.1719-0.65102 2.5195-0.97654 4.043-0.97657 2.513 0.00003 4.414 0.78127 5.7031 2.3438 1.289 1.5495 1.9336 3.8346 1.9336 6.8555"/>
        <path id="path3919" style="" d="m906.62 582.67v-13.242h3.5938v13.105c-0.00001 2.0703 0.40364 3.6263 1.2109 4.668 0.80729 1.0286 2.0182 1.543 3.6328 1.543 1.9401 0.00001 3.47-0.61848 4.5898-1.8555 1.1328-1.237 1.6992-2.9232 1.6992-5.0586v-12.402h3.5938v21.875h-3.5938v-3.3594c-0.87241 1.3281-1.888 2.3177-3.0469 2.9688-1.1458 0.63802-2.4805 0.95703-4.0039 0.95703-2.513 0-4.4206-0.78125-5.7227-2.3438-1.3021-1.5625-1.9531-3.8476-1.9531-6.8555m9.043-13.77"/>
        <path id="path3921" style="" d="m951.09 579.47v1.7578h-16.523c0.15624 2.474 0.89843 4.362 2.2266 5.6641 1.3411 1.2891 3.2031 1.9336 5.5859 1.9336 1.3802 0 2.7148-0.16927 4.0039-0.50781 1.3021-0.33854 2.5911-0.84636 3.8672-1.5234v3.3984c-1.2891 0.54687-2.6107 0.96354-3.9648 1.25-1.3542 0.28645-2.7279 0.42968-4.1211 0.42968-3.4896 0-6.2565-1.0156-8.3008-3.0469-2.0312-2.0312-3.0469-4.7786-3.0469-8.2422-0.00001-3.5807 0.96353-6.4192 2.8906-8.5156 1.9401-2.1094 4.5508-3.164 7.832-3.1641 2.9427 0.00003 5.2669 0.95054 6.9727 2.8516 1.7187 1.888 2.5781 4.4596 2.5781 7.7148m-3.5938-1.0547c-0.0261-1.9661-0.57944-3.5351-1.6602-4.707-1.0677-1.1719-2.487-1.7578-4.2578-1.7578-2.0052 0.00002-3.6133 0.56642-4.8242 1.6992-1.1979 1.1328-1.888 2.7279-2.0703 4.7852l12.812-0.0195"/>
        <path id="path3923" style="" d="m960.54 563.22v6.2109h7.4023v2.793h-7.4023v11.875c-0.00001 1.7838 0.24088 2.9297 0.72265 3.4375 0.49479 0.50781 1.4909 0.76172 2.9883 0.76171h3.6914v3.0078h-3.6914c-2.7734 0-4.6875-0.51433-5.7422-1.543-1.0547-1.0417-1.582-2.9297-1.582-5.6641v-11.875h-2.6367v-2.793h2.6367v-6.2109h3.6133"/>
        <path id="path3925" style="" d="m971.13 569.43h17.07v3.2812l-13.516 15.723h13.516v2.8711h-17.559v-3.2812l13.516-15.723h-13.027v-2.8711"/>
        <path id="path3927" style="" d="m1012.4 579.47v1.7578h-16.523c0.15625 2.474 0.89843 4.362 2.2266 5.6641 1.3411 1.2891 3.2031 1.9336 5.5859 1.9336 1.3802 0 2.7149-0.16927 4.0039-0.50781 1.3021-0.33854 2.5912-0.84636 3.8672-1.5234v3.3984c-1.2891 0.54687-2.6107 0.96354-3.9648 1.25-1.3542 0.28645-2.7279 0.42968-4.1211 0.42968-3.4896 0-6.2565-1.0156-8.3008-3.0469-2.0313-2.0312-3.0469-4.7786-3.0469-8.2422 0-3.5807 0.96354-6.4192 2.8906-8.5156 1.9401-2.1094 4.5508-3.164 7.832-3.1641 2.9427 0.00003 5.2669 0.95054 6.9726 2.8516 1.7188 1.888 2.5781 4.4596 2.5782 7.7148m-3.5938-1.0547c-0.026-1.9661-0.5794-3.5351-1.6601-4.707-1.0678-1.1719-2.487-1.7578-4.2579-1.7578-2.0052 0.00002-3.6132 0.56642-4.8242 1.6992-1.1979 1.1328-1.888 2.7279-2.0703 4.7852l12.812-0.0195"/>
        <path id="path3929" style="" d="m1031 572.79c-0.4037-0.23435-0.8464-0.40363-1.3281-0.50781-0.4688-0.11717-0.9896-0.17576-1.5625-0.17578-2.0313 0.00002-3.5938 0.66408-4.6875 1.9922-1.0808 1.3151-1.6211 3.2096-1.6211 5.6836v11.523h-3.6133v-21.875h3.6133v3.3984c0.7552-1.3281 1.7382-2.3112 2.9492-2.9492 1.2109-0.65102 2.6823-0.97654 4.4141-0.97657 0.2473 0.00003 0.5208 0.0196 0.8203 0.0586 0.2994 0.0261 0.6315 0.0716 0.9961 0.13672l0.019 3.6914"/>
        <path id="path3931" style="" d="m1031.6 586.35h4.1211v4.9609h-4.1211v-4.9609"/>
        <path id="path3933" style="" d="m1058.3 572.75v-11.836h3.5938v30.391h-3.5938v-3.2812c-0.7552 1.3021-1.7122 2.2721-2.8711 2.9102-1.1458 0.625-2.526 0.9375-4.1406 0.9375-2.6432 0-4.7982-1.0547-6.4648-3.1641-1.6537-2.1094-2.4805-4.8828-2.4805-8.3203s0.8268-6.2109 2.4805-8.3203c1.6666-2.1094 3.8216-3.164 6.4648-3.1641 1.6146 0.00003 2.9948 0.31904 4.1406 0.95703 1.1589 0.62502 2.1159 1.5886 2.8711 2.8906m-12.246 7.6367c0 2.6432 0.5404 4.7201 1.6211 6.2305 1.0938 1.4974 2.5911 2.2461 4.4922 2.2461 1.901 0 3.3984-0.74869 4.4922-2.2461 1.0937-1.5104 1.6406-3.5872 1.6406-6.2305 0-2.6432-0.5469-4.7135-1.6406-6.2109-1.0938-1.5104-2.5912-2.2656-4.4922-2.2656-1.9011 0.00001-3.3984 0.75522-4.4922 2.2656-1.0807 1.4974-1.6211 3.5677-1.6211 6.2109"/>
        <path id="path3935" style="" d="m1088 579.47v1.7578h-16.523c0.1563 2.474 0.8984 4.362 2.2266 5.6641 1.3411 1.2891 3.2031 1.9336 5.5859 1.9336 1.3802 0 2.7148-0.16927 4.0039-0.50781 1.3021-0.33854 2.5911-0.84636 3.8672-1.5234v3.3984c-1.2891 0.54687-2.6107 0.96354-3.9648 1.25-1.3542 0.28645-2.7279 0.42968-4.1211 0.42968-3.4896 0-6.2566-1.0156-8.3008-3.0469-2.0313-2.0312-3.0469-4.7786-3.0469-8.2422 0-3.5807 0.9635-6.4192 2.8906-8.5156 1.9401-2.1094 4.5508-3.164 7.8321-3.1641 2.9427 0.00003 5.2669 0.95054 6.9726 2.8516 1.7187 1.888 2.5781 4.4596 2.5781 7.7148m-3.5937-1.0547c-0.026-1.9661-0.5795-3.5351-1.6602-4.707-1.0677-1.1719-2.487-1.7578-4.2578-1.7578-2.0052 0.00002-3.6133 0.56642-4.8242 1.6992-1.1979 1.1328-1.888 2.7279-2.0703 4.7852l12.812-0.0195"/>
      </g>
    </g>
  </g>
  <metadata>
    <rdf:RDF>
      <cc:Work>
        <dc:format>image/svg+xml</dc:format>
        <dc:type rdf:resource="http://purl.org/dc/dcmitype/StillImage"/>
        <cc:license rdf:resource="http://creativecommons.org/licenses/publicdomain/"/>
        <dc:publisher>
          <cc:Agent rdf:about="http://openclipart.org/">
            <dc:title>Openclipart</dc:title>
          </cc:Agent>
        </dc:publisher>
        <dc:title>Park Keeper</dc:title>
        <dc:date>2012-03-02T08:29:52</dc:date>
        <dc:description>Critical Thinking Graphic, Germany, Park Keeper, Parkschuetzer, Protest, Stop S21, Stuttgart 21, against S21, clip art, clipart, save nature, </dc:description>
        <dc:source>http://openclipart.org/detail/168663/park-keeper-by-lusp</dc:source>
        <dc:creator>
          <cc:Agent>
            <dc:title>lusp</dc:title>
          </cc:Agent>
        </dc:creator>
        <dc:subject>
          <rdf:Bag>
            <rdf:li>Critical Thinking Graphic</rdf:li>
            <rdf:li>Germany</rdf:li>
            <rdf:li>Park Keeper</rdf:li>
            <rdf:li>Parkschuetzer</rdf:li>
            <rdf:li>Protest</rdf:li>
            <rdf:li>Stop S21</rdf:li>
            <rdf:li>Stuttgart 21</rdf:li>
            <rdf:li>against S21</rdf:li>
            <rdf:li>clip art</rdf:li>
            <rdf:li>clipart</rdf:li>
            <rdf:li>save nature</rdf:li>
          </rdf:Bag>
        </dc:subject>
      </cc:Work>
      <cc:License rdf:about="http://creativecommons.org/licenses/publicdomain/">
        <cc:permits rdf:resource="http://creativecommons.org/ns#Reproduction"/>
        <cc:permits rdf:resource="http://creativecommons.org/ns#Distribution"/>
        <cc:permits rdf:resource="http://creativecommons.org/ns#DerivativeWorks"/>
      </cc:License>
    </rdf:RDF>
  </metadata>
</svg>
