<?xml version="1.0" encoding="UTF-8" standalone="no"?>
<svg
   xmlns:dc="http://purl.org/dc/elements/1.1/"
   xmlns:cc="http://creativecommons.org/ns#"
   xmlns:rdf="http://www.w3.org/1999/02/22-rdf-syntax-ns#"
   xmlns:svg="http://www.w3.org/2000/svg"
   xmlns="http://www.w3.org/2000/svg"
   xmlns:sodipodi="http://sodipodi.sourceforge.net/DTD/sodipodi-0.dtd"
   xmlns:inkscape="http://www.inkscape.org/namespaces/inkscape"
   version="1.1"
   id="Calque_1"
   x="0px"
   y="0px"
   width="1146.8927"
   height="1312.9407"
   viewBox="0 0 1146.8927 1312.9408"
   enable-background="new 0 0 313.056 371.719"
   xml:space="preserve"
   inkscape:version="0.48.5 r10040"
   sodipodi:docname="under-construction_geek_woman.svg"><metadata
     id="metadata15"><rdf:RDF><cc:Work
         rdf:about=""><dc:format>image/svg+xml</dc:format><dc:type
           rdf:resource="http://purl.org/dc/dcmitype/StillImage" /><dc:title></dc:title></cc:Work></rdf:RDF></metadata><defs
     id="defs13" /><sodipodi:namedview
     pagecolor="#ffffff"
     bordercolor="#666666"
     borderopacity="1"
     objecttolerance="10"
     gridtolerance="10"
     guidetolerance="10"
     inkscape:pageopacity="0"
     inkscape:pageshadow="2"
     inkscape:window-width="1920"
     inkscape:window-height="1055"
     id="namedview11"
     showgrid="false"
     inkscape:zoom="0.22446688"
     inkscape:cx="-340.94471"
     inkscape:cy="311.34476"
     inkscape:window-x="0"
     inkscape:window-y="0"
     inkscape:window-maximized="1"
     inkscape:current-layer="layer4"
     showguides="true"
     inkscape:guide-bbox="true"
     fit-margin-top="20"
     fit-margin-left="20"
     fit-margin-right="20"
     fit-margin-bottom="20"
     borderlayer="true"><sodipodi:guide
       orientation="1,0"
       position="399.16114,-103.18542"
       id="guide3030" /><sodipodi:guide
       orientation="0,1"
       position="988.60164,321.02012"
       id="guide3441" /></sodipodi:namedview><g
     inkscape:groupmode="layer"
     id="layer4"
     inkscape:label="woman"
     transform="translate(-155.2672,-146.08799)"
     style="display:inline"><g
       style="display:inline"
       id="g4471"
       transform="matrix(1.1025333,0,0,1.1025333,-73.861117,-137.03797)"><g
         id="g4467" /></g><path
       style="font-size:12px;fill:#ff0000;fill-rule:evenodd;stroke-width:3pt;display:inline"
       sodipodi:nodetypes="cccccccc"
       id="path590"
       d="m 231.91955,1136.942 c -41.10766,-3.3655 -69.09806,-51.1406 -51.08601,-88.5087 74.50054,-129.3434 414.53339,-713.50159 496.22245,-856.7763 23.46839,-33.91754 78.83807,-34.27035 102.19383,0.0129 74.76435,129.191 413.35358,712.84671 496.58868,855.2289 17.6392,37.2829 -3.0577,88.0246 -44.4255,91.1098 -149.2648,0.1523 -834.56937,-1.9589 -999.49345,-1.0663 z"
       inkscape:connector-curvature="0" /><g
       id="g3263"
       transform="translate(169.74463,12.600643)"><path
         transform="matrix(1.1025333,0,0,1.1025333,-73.861117,-137.03797)"
         inkscape:connector-curvature="0"
         d="m 218.32612,1053.2324 710.5085,-2.0558 L 571.74379,423.89674 218.32612,1053.2324 z"
         id="path605"
         sodipodi:nodetypes="cccc"
         style="font-size:12px;fill:#ffbb00;fill-opacity:1;fill-rule:evenodd;stroke:none;display:inline" /><g
         transform="matrix(1.08031,0,0,1.1008973,-109.13828,-170.40179)"
         id="g3010"><path
           inkscape:connector-curvature="0"
           clip-rule="evenodd"
           d="m 743.17402,845.16346 c -3.55,1.983 -18.459,0.729 -28.504,10.04 6.553,14.915 20.034,30.515 14.227,48.933 14.182,-9.838 13.339,-24.47 16.605,-45.123 l 1.149,-8.045 c 1.225,-11.396 0.704,-24.52 6.856,-31.032 0.369,14.52 -0.793,36.683 -2.732,58.012 -2.661,29.278 -7.303,51.461 -44.795,44.208 -1.9,27.314 -0.197,58.203 -1.604,86.00804 6.004,5.998 11.77,12.232 11.115,24.949 11.336,7.313 32.354,4.852 46.047,9.787 0.27,6.24 0.6,12.541 -6.949,11.031 -4.513,-0.469 -1.53,-8.502 -6.042,-8.971 -19.624,-3.254 -28.3,-2.48 -45.829,-2.705 -2.157,2.176 13.207,24.863 1.492,26.986 -9.668,-2.801 3.752,3.658 -5.232,-0.254 -3.634,-4.916 -3.03,-22.406 -5.926,-26.592 -7.766,0.406 -36.533,2.303 -45.5,4.031 -1.295,2.365 -0.39,6.914 -1.958,9.008 -7.146,0.516 -8.653,-4.66 -9.051,-10.957 11.183,-8.979 27.521,-6.775 47.508,-9.627 0,0 -1.048,-10.34 2.686,-15.875 l 5.466,-11.059 1.293,-18.62704 c -1.068,-22.756 -0.357,-44.039 -1.512,-65.982 -10.812,-3.424 -33.114,-2.758 -44,0.203 l -5.164,-5.711 c 0,0 -2.783,-5.506 -9.636,4.08 -6.853,9.586 -4.065,30.631 -4.065,30.631 -2.282,21.473 -18.271,41.115 -15.69,67.07204 0.891,8.961 2.479,43.859 -4.829,37.023 0.903,-5.643 2.273,-14.09 -2.079,-16.99 -14.528,6.877 -23.017,24.268 -47.92999,15.221 4.949,-9.363 16.26199,-12.422 22.90699,-20.105 24.873,-32.758 14.664,-100.28004 28.334,-144.13004 20.72,-6.016 48.345,-5.188 69.954,-10.323 3.536,-8.313 0.349,-18.115 -5.106,-22.976 -13.343,1.129 -20.742,-6.162 -31.037,-7.857 -8.933,-1.47 -14.784,-2.567 -18.041,-8.917 -2.898,1.441 -2.227,6.42 -5.968,7.027 0.249,-4.981 0.228,-5.001 -4.019,-3.981 0.254,-4.096 4.034,-5.288 1.958,-9.009 10.45,-5.937 18.667,1.7 26.023,4.879 2.681,-2.653 2.405,-8.235 6.958,-9.032 10.477,0.813 11.314,11.354 21.061,12.903 1.49,-15.235 -12.541,-14.802 -13.129,-27.939 2.621,-3.044 4.332,-6.988 6.953,-10.03199 -0.941,-2.397 -4.031,-2.629 -3.032,-6.986 15.94,-0.636 16.918,-30.109 1.853,-32.009 -4.853,0.833 -6.701,4.643 -10.973,6.051 -6.998,-3.654 -7.432,-13.932 -13.088,-18.939 6.564,-7.518 1.382,-18.84701 -1.129,-27.99501 8.744,-20.288 43.543,-25.073 53.963,-8.25 12.822,20.705 10.984,64.15101 35.336,72.83701 -0.936,2.059 -5.148,0.872 -4.98,4.023 6.889,12.81599 14.68,26.83499 19.198,42.91199 2.29,8.18 0.58,8.18 0.58,8.18 z m -26.72,-36.97 c -6.061,2.623 -4.189,13.103 -4.902,21.023 4.563,-0.456 11.016,0.96 13.995,-1.064 -2.55,-7.14 -6.79,-12.58 -9.09,-19.96 z"
           id="path3"
           style="fill:#000000;fill-opacity:1;fill-rule:evenodd;stroke:none" /><path
           inkscape:connector-curvature="0"
           d="m 742.60402,844.99346 c -4.17,1.967 -9.93,1.682 -14.427,2.809 -5.352,1.34 -10.238,3.821 -14.39,7.449 -0.065,0.057 -0.094,0.127 -0.085,0.211 7.083,15.688 19.472,30.589 14.236,48.831 -0.171,0.596 1.519,0.041 1.705,-0.094 13.331,-9.632 14.052,-25.537 16.106,-40.564 0.659,-4.823 1.593,-9.639 2.022,-14.49 0.839,-9.47 0.004,-21.57 6.614,-29.257 -0.615,0.102 -1.231,0.204 -1.847,0.306 0.287,13.07 -0.382,26.154 -1.242,39.191 -0.789,11.964 -1.5,24.082 -3.681,35.892 -1.405,7.61 -3.828,15.406 -9.287,21.114 -8.039,8.404 -21.158,7.288 -31.564,5.364 -0.439,-0.081 -1.712,0.042 -1.753,0.658 -1.383,20.76 -0.884,41.579 -1.009,62.369 -0.029,4.89 -0.111,9.779 -0.243,14.668 -0.065,2.39804 -0.162,4.79504 -0.266,7.19104 -0.105,2.413 0.754,2.625 2.4,4.346 6.095,6.369 8.889,13.575 8.629,22.383 0.02,0.028 0.039,0.056 0.06,0.084 6.736,4.076 14.748,5.013 22.429,5.872 4.896,0.548 9.798,0.985 14.667,1.744 2.661,0.415 5.269,1.033 7.844,1.811 2.03,0.613 1.093,5.867 0.901,7.188 -0.475,3.277 -5.587,4.917 -7.253,1.7 -0.657,-1.269 -0.691,-2.984 -1.011,-4.361 -0.757,-3.265 -4.046,-3.056 -6.783,-3.478 -9.398,-1.449 -18.835,-1.974 -28.334,-2.04 -4.605,-0.032 -9.327,-0.313 -13.92,-0.068 -0.675,0.036 -1.526,0.352 -1.567,1.137 -0.228,4.407 3.462,9.845 4.816,13.953 0.91,2.76 1.664,5.785 1.119,8.691 -0.664,3.54 -3.835,2.417 -6.376,2.489 -3.349,0.096 0.086,1.719 0.159,2.445 0.527,-0.229 1.056,-0.459 1.583,-0.688 -5.037,-0.446 -5.255,-7.956 -5.771,-11.642 -0.706,-5.044 -0.396,-11.566 -3.071,-16.072 -0.111,-0.188 -0.366,-0.184 -0.559,-0.173 -10.359,0.553 -20.713,1.321 -31.043,2.271 -4.693,0.432 -9.406,0.882 -14.056,1.669 -3.931,0.665 -2.227,6.917 -3.723,9.688 0.454,-0.196 0.908,-0.393 1.363,-0.589 -5.615,0.118 -7.511,-3.464 -8.264,-8.336 -0.854,-5.535 10.296,-7.444 14.163,-8.182 10.503,-2.005 21.39,-1.789 31.983,-3.229 0.279,-0.038 1.172,-0.247 1.133,-0.664 -0.74,-7.962 1.796,-13.993 5.193,-20.866 0.819,-1.658 2.833,-4.261 2.963,-6.133 0.202,-2.922 0.405,-5.844 0.608,-8.76704 0.675,-9.723 0.278,-19.229 0.115,-28.989 -0.263,-15.6 -0.164,-31.201 -0.947,-46.788 -0.034,-0.077 -0.094,-0.124 -0.179,-0.141 -9.889,-2.933 -20.821,-2.688 -31.006,-1.922 -4.334,0.326 -8.651,0.936 -12.885,1.92 -0.707,0.165 -4.584,-4.54 -5.199,-5.541 -2.704,-4.396 -8.413,0.929 -10.273,3.101 -5.866,6.849 -6.034,17.326 -5.75,25.868 0.085,2.559 0.643,5.189 0.337,7.731 -0.739,6.15 -2.738,12.123 -4.815,17.929 -4.278,11.963 -9.326,23.548 -10.709,36.30604 -0.916,8.439 0.548,17.133 0.741,25.605 0.157,6.893 1.067,16.051 -2.129,22.412 -1.085,2.158 -1.254,-1.607 -1.156,-2.255 0.268,-1.759 0.439,-3.522 0.55,-5.298 0.218,-3.487 -0.219,-7.174 -3.049,-9.491 -0.353,-0.288 -1.137,0.01 -1.475,0.172 -7.942,3.916 -14.118,10.491 -21.941,14.598 -6.293,3.303 -13.17299,3.415 -19.96199,1.837 -0.583,-0.135 -4.745,-0.776 -3.821,-2.387 0.865,-1.508 2.067,-2.784 3.261,-4.028 2.414,-2.519 5.464,-4.447 8.35099,-6.372 4.027,-2.687 8.296,-5.386 11.222,-9.327 2.837,-3.823 5.047,-8.081 6.953,-12.43 4.392,-10.019 6.589,-20.944 8.234,-31.70404 3.684,-24.104 3.823,-48.598 7.028,-72.762 0.727,-5.476 1.669,-10.92 2.844,-16.316 0.56,-2.571 1.223,-5.118 1.934,-7.651 1.074,-3.83 6.85,-3.712 10.225,-4.348 13.784,-2.596 27.883,-3.223 41.793,-4.889 4.861,-0.583 9.696,-1.339 14.495,-2.306 2.597,-0.523 3.809,-0.26 4.731,-2.723 1.444,-3.854 1.063,-8.232 0.078,-12.122 -0.594,-2.346 -3.128,-8.783 -5.909,-9.615 -1.077,-0.322 -4.289,0.049 -5.107,0.013 -2.856,-0.125 -5.644,-0.867 -8.355,-1.715 -4.239,-1.326 -8.231,-3.361 -12.42,-4.836 -8.164,-2.875 -18.161,-1.485 -23.017,-10.094 -0.271,-0.479 -1.401,-0.021 -1.715,0.195 -2.315,1.594 -2.606,5.914 -5.313,6.742 0.354,0.03 0.706,0.06 1.06,0.09 0.224,-4.811 -0.717,-5.098 -5.078,-4.072 0.35,0.064 0.7,0.128 1.049,0.192 0.312,-1.949 1.133,-3.372 2.08,-5.069 0.25,-0.449 0.576,-1.348 0.508,-1.876 -0.547,-4.211 6.299,-3.818 9.184,-3.27 5.201,0.988 9.719,4.469 14.467,6.642 0.43,0.197 1.376,-0.099 1.668,-0.447 1.452,-1.729 2.153,-3.781 3.087,-5.813 2.388,-5.198 8.381,-1.01 11.065,1.472 3.935,3.637 6.655,7.518 12.198,8.659 0.439,0.09 1.711,-0.048 1.753,-0.658 0.483,-7.031 -2.378,-11.363 -7.123,-16.124 -2.466,-2.475 -4.486,-5.068 -5.51,-8.454 -1.257,-4.159 3.955,-10.16 6.372,-13.18199 0.065,-0.057 0.094,-0.127 0.085,-0.211 -1.404,-2.654 -3.553,-3.371 -3.042,-6.884 -0.454,0.196 -0.908,0.393 -1.363,0.588 13.676,-1.043 17.874,-19.093 10.187,-28.911 -5.029,-6.421 -11.048,-3.249 -16.312,0.686 -5.026,3.758 -8.998,-8.201 -10.543,-11.417 -0.91,-1.896 -2.015,-3.6 -3.375,-5.197 -0.756,-0.887 0.449,-2.384 0.83,-3.011 0.956,-1.577 1.26,-3.479 1.494,-5.27 0.706,-5.406 -1.417,-11.14501 -2.983,-16.22001 -1.001,-3.243 -1.02,-5.069 0.771,-7.931 1.656,-2.646 3.973,-4.868 6.403,-6.79 8.608,-6.805 20.977,-8.938 31.454,-6.002 9.491,2.659 13.788,10.481 16.966,19.144 3.43,9.346 5.381,19.19801 8.024,28.77801 2.123,7.695 4.671,15.386 8.915,22.197 1.805,2.896 4.068,5.468 6.684,7.653 1.27,1.061 2.695,1.911 4.148,2.69 0.622,0.333 1.313,0.618 1.959,0.897 1.053,0.454 -2.244,1.577 -2.325,1.607 -2.948,1.1 -1.4,3.521 -0.33,5.509 2.95,5.478 5.857,10.97499 8.567,16.57599 2.858,5.906 5.351,11.973 7.465,18.184 0.951,2.792 1.767,5.632 2.419,8.508 0.275,1.214 -0.107,4.427 0.923,4.289 -0.824,0.11 -1.689,0.991 -0.334,0.811 5.584,-0.745 -2.62,-18.525 -3.556,-20.945 -2.936,-7.593 -6.627,-14.881 -10.416,-22.07599 -0.777,-1.476 -1.568,-2.944 -2.356,-4.414 -1.135,-2.114 -4,-5.29 -0.247,-6.386 1.179,-0.345 2.063,-0.764 2.818,-1.743 0.126,-0.163 0.104,-0.277 -0.094,-0.352 -15.241,-5.807 -19.851,-24.066 -23.578,-38.241 -2.024,-7.699 -3.818,-15.46201 -6.383,-23.00601 -2.172,-6.389 -4.936,-12.926 -10.499,-17.051 -10.111,-7.495 -25.351,-5.434 -35.964,-0.322 -5.715,2.752 -10.545,7.129 -13.676,12.643 -1.993,3.51 1.045,8.538 2.048,12.198 1.651,6.02601 2.261,12.42801 -1.786,17.63301 -0.079,0.102 -0.133,0.19 -0.025,0.295 5.367,5.25 5.951,13.651 12.035,18.309 1.344,1.029 2.263,0.776 3.741,-0.03 3.865,-2.109 7.506,-6.542 12.253,-4.089 10.838,5.599 8.481,28.943 -4.508,29.935 -0.297,0.022 -1.303,0.173 -1.363,0.588 -0.206,1.417 -0.422,2.896 0.593,4.102 1.64,1.949 2.238,2.815 0.615,5.30799 -1.539,2.365 -4.098,5.092 -5.129,7.608 -0.648,1.581 0.886,4.832 1.548,6.253 1.555,3.337 4.628,5.798 7.1,8.424 3.6,3.826 4.827,8.193 4.472,13.364 0.584,-0.219 1.168,-0.439 1.753,-0.658 -6.542,-1.346 -9.367,-6.851 -14.381,-10.556 -2.645,-1.954 -7.579,-3.656 -10.399,-1.037 -1.947,1.809 -2.627,4.251 -3.766,6.588 -0.588,1.206 -8.817,-3.673 -10.052,-4.223 -5.688,-2.53 -11.357,-2.069 -16.799,0.707 -0.104,0.053 -0.475,0.247 -0.397,0.429 1.436,3.396 -1.425,5.634 -1.949,8.907 -0.072,0.45 0.845,0.24 1.049,0.192 3.938,-0.927 3.081,1.285 2.959,3.891 -0.015,0.317 0.946,0.125 1.06,0.09 4.045,-1.238 3.45,-5.128 6.623,-7.313 -0.571,0.065 -1.144,0.13 -1.715,0.195 5.22,9.257 17.054,7.948 25.843,11.277 5.153,1.953 10.007,4.285 15.464,5.323 2.19,0.417 4.403,0.463 6.623,0.447 3.866,-0.028 5.917,6.238 6.879,9.201 1.091,3.362 1.021,6.986 0.361,10.414 -0.728,3.781 -6.135,3.747 -9.215,4.26 -7.665,1.276 -15.423,1.973 -23.153,2.721 -12.656,1.225 -25.414,2.375 -37.698,5.822 -2.233,0.626 -2.767,7.334 -3.236,9.315 -1.375,5.807 -2.324,11.711 -3.139,17.618 -1.607,11.645 -2.425,23.392 -3.302,35.108 -1.736,23.188 -2.839,47.64 -11.96,69.35804 -3.238,7.709 -7.517,14.181 -14.406,19.056 -5.99699,4.243 -12.29499,7.724 -16.06099,14.288 -0.073,0.127 0.079,0.211 0.169,0.242 8.926,3.081 17.68099,3.511 26.38299,-0.385 8.403,-3.761 14.66,-11.001 22.903,-15.064 -0.492,0.057 -0.983,0.114 -1.475,0.172 4.121,3.373 3.044,9.8 2.4,14.417 -0.275,1.976 -0.681,3.393 1.777,3.539 3.75,0.225 4.328,-5.008 4.71,-7.606 2.381,-16.154 -2.102,-32.483 0.776,-48.532 3.202,-17.85404 15.791,-34.89904 14.452,-53.34604 -0.619,-8.528 -0.523,-18.224 3.831,-25.833 1.56,-2.724 5.407,-7.713 8.354,-4.455 1.721,1.903 3.442,3.807 5.164,5.711 0.195,0.216 0.778,0.063 1,0.006 7.473,-1.928 15.301,-2.366 22.989,-2.424 4.13,-0.03 8.26,0.218 12.361,0.691 1.935,0.224 3.849,0.584 5.746,1.019 2.574,0.589 2.016,3.983 2.102,6.051 0.834,20.107 0.353,40.245 1.254,60.353 0.157,3.514 -0.503,7.248 -0.746,10.75404 -0.203,2.923 0.152,6.376 -1.162,9.035 -4.198,8.495 -8.452,15.917 -7.536,25.771 0.377,-0.222 0.755,-0.442 1.133,-0.664 -13.625,1.854 -28.439,0.743 -41.42,5.879 -2.131,0.843 -4.091,2.012 -5.974,3.304 -2.111,1.45 -1.094,3.51 -0.606,5.82 0.996,4.729 4.46,6.514 8.969,6.418 0.423,-0.01 1.142,-0.179 1.363,-0.589 0.785,-1.453 0.944,-2.89 1.092,-4.504 0.21,-2.316 -0.349,-3.953 1.841,-4.297 4.016,-0.631 8.075,-0.997 12.12,-1.379 8.311,-0.784 16.64,-1.377 24.969,-1.911 2.431,-0.155 5.414,-1.307 6.36,1.32 1.325,3.677 1.449,7.935 1.915,11.782 0.565,4.68 0.414,13.857 6.778,14.421 0.342,0.03 1.638,-0.149 1.583,-0.688 -0.035,-0.347 -0.854,-0.75 -1.097,-0.935 -1.273,-0.967 0.583,0.781 1.932,0.56 2.873,-0.472 4.941,-2.109 5.487,-5.021 0.774,-4.128 -1.361,-8.882 -2.812,-12.629 -0.723,-1.867 -4.357,-7.904 -3.045,-9.898 -0.524,0.196 -1.049,0.392 -1.573,0.587 8.291,0.093 16.589,-0.055 24.874,0.335 4.001,0.188 7.988,0.58 11.964,1.056 2.362,0.282 4.714,0.64 7.064,1.002 3.577,0.552 4.032,1.599 4.599,4.627 0.75,4.01 3.758,6.196 7.981,4.525 4.742,-1.875 4.102,-7.292 3.921,-11.589 -0.034,-0.077 -0.094,-0.124 -0.179,-0.141 -11.37,-3.862 -23.651,-3.299 -35.325,-5.716 -2.58,-0.535 -5.078,-1.34 -7.507,-2.353 -3.929,-1.639 -2.919,-5.739 -3.512,-9.317 -0.826,-4.978 -3.515,-9.306 -6.715,-13.094 -2.24,-2.652 -3.93,-3.81 -3.762,-7.682 0.157,-3.621 0.244,-7.24504 0.318,-10.86804 0.164,-8.028 0.148,-16.06 0.141,-24.09 -0.016,-15.833 -0.071,-31.678 0.981,-47.484 -0.584,0.22 -1.168,0.438 -1.753,0.658 9.408,1.739 19.298,2.449 28.235,-1.561 7.47,-3.352 11.706,-10.562 14.14,-18.046 3.595,-11.048 4.052,-23.207 4.976,-34.696 1.297,-16.134 2.286,-32.383 1.93,-48.575 -0.012,-0.523 -1.67,0.1 -1.847,0.306 -5.102,5.931 -5.564,14.237 -6.158,21.704 -0.468,5.878 -1.09,11.651 -1.923,17.483 -2.267,15.866 -2.123,34.588 -16.398,44.903 0.568,-0.031 1.137,-0.063 1.705,-0.094 4.337,-15.107 -3.401,-28.375 -10.368,-41.292 -1.954,-3.624 -5.021,-7.064 -0.56,-10.15 4.121,-2.851 9.185,-4.137 14.042,-5.03 3.524,-0.647 7.483,-0.619 10.775,-2.172 1.32,-0.59 -0.48,-0.62 -0.98,-0.38 z"
           id="path5-9"
           style="fill:#000000;fill-opacity:1;stroke:none" /><path
           inkscape:connector-curvature="0"
           d="m 715.88402,808.02346 c -7.108,3.702 -4.81,14.917 -5.3,21.452 -0.015,0.19 0.477,0.179 0.559,0.173 4.863,-0.333 10.473,1.135 14.971,-1.326 0.108,-0.059 0.469,-0.24 0.397,-0.429 -2.587,-6.869 -6.768,-12.979 -9.093,-19.958 -0.172,-0.516 -2.088,0.048 -1.932,0.518 1.455,4.37 3.576,8.384 5.703,12.454 1.057,2.021 2.021,4.077 2.893,6.185 0.896,2.167 -7.472,1.647 -8.521,1.614 -1.864,-0.059 -3.027,0.431 -2.907,-1.963 0.096,-1.925 0.072,-3.859 0.096,-5.787 0.052,-4.19 -0.075,-10.328 4.271,-12.591 1.14,-0.58 -0.64,-0.58 -1.14,-0.32 z"
           id="path7"
           style="fill:#000000;fill-opacity:1;stroke:none" /><path
           inkscape:connector-curvature="0"
           clip-rule="evenodd"
           d="m 625.33402,856.02346 c -14.798,0.156 -19.236,-2.227 -36.014,-1.745 -1.797,1.869 -0.115,7.167 -2.943,8.021 -19.75599,2.247 -24.87099,-10.359 -36.11999,-16.744 0.608,-7.014 -1.438,-16.645 0.843,-22.007 2.565,4.115 2.163,11.237 5.106,14.964 5.418,1.037 5.938,-2.753 10.986,-2.078 -8.11,-38.51899 -16.42,-79.21199 -27.802,-112.81 -2.044,-1.291 -6.626,1.553 -9.986,2.071 8.787,35.70101 14.909,73.55301 13.838,117.9 -2.479,8.146 -13.044,8.322 -13.872,18.099 -20.002,-0.523 -36.94401,1.97 -56.992,1.405 0.039,5.333 0.076,10.667 0.114,15.999 15.69799,0.531 33.958,-1.54 48.006,0.659 2.733,57.322 1.185,118.99 2.264,177.99004 4.872,-0.494 11.722,0.965 14.993,-1.105 0.247,-59.00404 -2.188,-120.65004 -0.264,-178.00004 38.66699,-0.275 77.33199,-0.549 115.99999,-0.824 l -0.074,-16.081 -17.066,-0.61 0.672,-4.142 -11.69,-0.96 z"
           id="path9"
           style="fill:#000000;fill-opacity:1;fill-rule:evenodd;stroke:none" /><path
           inkscape:connector-curvature="0"
           d="m 625.42402,855.33346 c -9.659,0.041 -19.176,-1.526 -28.816,-1.779 -2.428,-0.064 -6.959,-1.226 -8.536,1.109 -0.577,0.854 -0.624,2.105 -0.727,3.083 -0.487,4.633 -4.273,4.263 -8.07,4 -8.81799,-0.609 -15.09499,-6.344 -21.45199,-11.789 -1.329,-1.138 -2.704,-2.21 -4.122,-3.233 -2.382,-1.717 -2.332,-2.79 -2.362,-5.705 -0.06,-5.715 -1.279,-11.832 0.685,-17.357 -0.602,0.105 -1.205,0.211 -1.807,0.317 2.537,4.732 2.079,10.449 5.106,14.964 1.548,2.307 10.061,-1.89 11.534,-1.808 0.511,0.029 1.447,-0.265 1.303,-0.952 -4.974,-23.637 -9.871,-47.29599 -15.699,-70.74099 -2.844,-11.441 -5.968,-22.813 -9.49,-34.06501 -0.609,-1.945 -1.258,-8.622 -4.012,-8.719 -3.414,-0.121 -6.446,1.692 -9.727,2.399 -0.385,0.083 -0.903,0.456 -0.792,0.91 5.896,24.08401 10.318,48.46701 12.483,73.18201 1.24,14.15799 1.629,28.37999 1.386,42.58799 -0.096,5.564 -5.063,8.077 -8.891,11.162 -2.887,2.327 -4.531,5.228 -5.024,8.89 0.438,-0.257 0.876,-0.513 1.315,-0.77 -19.022,-0.409 -37.97201,1.852 -56.992,1.405 -0.425,-0.01 -1.319,0.176 -1.315,0.77 0.039,5.333 0.076,10.666 0.114,15.999 0.003,0.354 0.282,0.606 0.641,0.616 8.293,0.232 16.57999,-0.102 24.87,-0.292 4.532,-0.104 9.061,-0.112 13.591,0.058 2.164,0.082 4.319,0.267 6.472,0.485 3.133,0.317 2.572,2.809 2.683,5.353 0.825,18.918 1.164,37.854 1.35,56.788 0.379,38.546 -0.023,77.09604 0.663,115.64004 0.009,0.484 0.46,0.648 0.89,0.621 5.043,-0.333 10.787,1.082 15.506,-1.243 0.224,-0.11 0.552,-0.349 0.553,-0.636 0.178,-48.093 -1.326,-96.17704 -0.942,-144.27004 0.045,-5.656 0.128,-11.313 0.236,-16.968 0.06,-3.114 0.136,-6.229 0.218,-9.342 0.084,-3.221 -0.989,-6.649 3.09,-6.678 12.452,-0.089 24.903,-0.177 37.35499,-0.266 24.903,-0.177 49.807,-0.354 74.71,-0.53 0.371,-0.002 1.068,-0.317 1.066,-0.773 -0.024,-5.36 -0.049,-10.721 -0.074,-16.081 -10e-4,-0.356 -0.282,-0.604 -0.641,-0.616 -3.812,-0.136 -7.623,-0.273 -11.435,-0.409 -1.781,-0.063 -3.563,-0.127 -5.345,-0.191 0.327,0.012 0.369,0.515 0.618,-1.024 0.136,-0.837 0.271,-1.674 0.407,-2.512 0.06,-0.365 -0.331,-0.591 -0.641,-0.616 -3.896,-0.322 -7.792,-0.645 -11.688,-0.967 -0.932,-0.077 -1.982,1.278 -0.674,1.386 2.886,0.239 5.771,0.478 8.657,0.716 0.722,0.06 1.443,0.119 2.165,0.179 1.351,0.111 0.12,0.098 0.188,-0.316 -0.212,1.304 -0.424,2.608 -0.635,3.913 -0.058,0.354 0.329,0.605 0.641,0.616 2.845,0.102 5.688,0.204 8.533,0.305 2.075,0.074 4.15,0.148 6.227,0.223 0.559,0.02 1.118,0.04 1.678,0.06 1.079,0.039 -0.012,-0.577 -0.011,-0.302 0.016,3.376 0.031,6.752 0.047,10.128 0.008,1.674 0.016,3.348 0.023,5.021 0.005,1.163 0.136,-0.127 -0.897,-0.121 -2.621,0.019 -5.242,0.038 -7.864,0.056 -35.389,0.251 -70.778,0.502 -106.16999,0.754 -0.384,0.003 -1.051,0.316 -1.066,0.773 -0.995,30.417 -0.814,60.854 -0.463,91.281 0.179,15.476 0.406,30.95104 0.565,46.42704 0.079,7.699 0.135,15.397 0.165,23.097 0.015,3.827 0.017,7.653 0.013,11.48 -0.002,1.979 0.836,5.448 -2.312,5.962 -1.817,0.298 -3.719,0.124 -5.55,0.064 -1.083,-0.036 -2.176,-0.099 -3.26,-0.085 -2.298,0.029 -1.961,-0.967 -1.997,-3.081 -0.064,-3.822 -0.113,-7.646 -0.158,-11.47 -0.091,-7.694 -0.14,-15.389 -0.176,-23.083 -0.073,-15.475 -0.064,-30.95004 -0.099,-46.42504 -0.069,-31.073 -0.311,-62.156 -1.765,-93.2 -0.018,-0.384 -0.272,-0.563 -0.641,-0.616 -9.595,-1.385 -19.316,-1.084 -28.97801,-0.825 -5.779,0.155 -11.55599,0.312 -17.33699,0.213 -1.957,-0.034 -1.151,-13.652 -1.164,-15.43 -0.438,0.257 -0.876,0.513 -1.315,0.77 19.02199,0.447 37.972,-1.813 56.992,-1.405 0.491,0.011 1.234,-0.173 1.315,-0.77 0.729,-5.427 4.437,-7.947 8.477,-11.021 1.937,-1.474 5.336,-4.376 5.395,-7.078 0.301,-13.795 -0.055,-27.575 -1.078,-41.33499 -1.927,-25.915 -6.599,-51.533 -12.772,-76.75101 -0.264,0.303 -0.527,0.607 -0.792,0.91 1.679,-0.362 3.26,-0.922 4.874,-1.502 3.709,-1.333 4.632,0.99 5.552,3.809 1.603,4.908 3.082,9.855 4.517,14.81401 2.834,9.796 5.352,19.682 7.75,29.593 5.108,21.105 9.483,42.38199 13.955,63.62899 0.434,-0.317 0.869,-0.634 1.303,-0.952 -2.262,-0.127 -9.99,3.016 -11.107,1.349 -2.685,-4.003 -2.138,-9.676 -4.437,-13.965 -0.32,-0.596 -1.617,-0.219 -1.807,0.317 -2.5,7.031 -0.451,14.9 -0.899,22.189 -0.011,0.189 0.062,0.375 0.232,0.476 5.76,3.405 10.259,8.421 15.739,12.209 6.26499,4.332 13.58699,5.387 21.03799,4.679 1.27,-0.121 2.349,-1.342 2.609,-2.529 0.295,-1.348 0.009,-5.484 2.216,-5.535 3.061,-0.07 6.123,0.012 9.18,0.167 8.35,0.425 16.568,1.656 24.951,1.62 1.06,-0.02 1.45,-1.42 0.14,-1.41 z"
           id="path11"
           style="fill:#000000;fill-opacity:1;stroke:none" /></g></g><g
       id="g3417"
       transform="translate(-228.27494,-78.000001)"><g
         id="g3385"><g
           style="display:inline"
           id="g4435"
           transform="translate(987.89368,643.24746)"><rect
             rx="15.035662"
             ry="15.035662"
             y="600.79651"
             x="-516.35327"
             height="270"
             width="970"
             id="rect4430"
             style="fill:#ffbb00;fill-opacity:1;stroke:none;display:inline" /></g><path
           style="fill:#000000;fill-opacity:1;stroke:none;display:inline"
           d="m 481.04987,1229.0288 c -13.57441,0 -24.49999,10.9568 -24.49999,24.5312 l 0,250.9688 c 0,13.5744 10.92558,24.5 24.49999,24.5 l 951.00013,0 c 13.5744,0 24.5,-10.9256 24.5,-24.5 l 0,-250.9688 c 0,-13.5744 -10.9256,-24.5312 -24.5,-24.5312 l -951.00013,0 z m 5.53125,15 939.93758,0 c 8.3298,0 15.0313,6.7327 15.0313,15.0625 l 0,239.9063 c 0,8.3297 -6.7015,15.0312 -15.0313,15.0312 l -939.93758,0 c -8.32976,0 -15.03125,-6.7015 -15.03125,-15.0312 l 0,-239.9063 c 0,-8.3298 6.70149,-15.0625 15.03125,-15.0625 z"
           id="rect4221"
           inkscape:connector-curvature="0" /><g
           id="g3366"><path
             d="m 808.872,1360.5512 c -4.51175,0 -8.64749,-0.5298 -12.40723,-1.5894 -3.75978,-1.0938 -7.00685,-2.7686 -9.74121,-5.0244 -2.70022,-2.2901 -4.81935,-5.2124 -6.35743,-8.7671 -1.50391,-3.5547 -2.25587,-7.793 -2.25586,-12.7149 l 0,-45.1684 15.12452,0 0,43.9892 c -2e-5,3.0421 0.37596,5.6739 1.12793,7.8955 0.75193,2.1876 1.82859,3.9991 3.22998,5.4346 1.40134,1.4014 3.09324,2.4439 5.07569,3.1275 1.98238,0.6494 4.18697,0.9741 6.61377,0.9741 2.46089,0 4.71675,-0.3418 6.76757,-1.0254 2.08492,-0.7178 3.86226,-1.8115 5.33203,-3.2813 1.50386,-1.4697 2.66597,-3.3325 3.48633,-5.5883 0.82026,-2.2559 1.23042,-4.939 1.23047,-8.0494 l 0,-43.4765 15.12451,0 0,44.3994 c -7e-5,4.9561 -0.80329,9.2456 -2.40966,12.8686 -1.60652,3.6231 -3.84528,6.6309 -6.71631,9.0235 -2.87115,2.3584 -6.28912,4.1186 -10.25391,5.2807 -3.93071,1.128 -8.25444,1.692 -12.97119,1.692"
             id="path4706"
             inkscape:connector-curvature="0"
             style="font-size:105px;font-style:normal;font-variant:normal;font-weight:bold;font-stretch:normal;text-align:center;line-height:104.99999523%;letter-spacing:-0.33999994px;word-spacing:0px;writing-mode:lr-tb;text-anchor:middle;fill:#000000;fill-opacity:1;stroke:#000000;stroke-width:2.00000024;stroke-miterlimit:4;stroke-opacity:1;stroke-dasharray:none;display:inline;font-family:Liberation Sans;-inkscape-font-specification:Liberation Sans Bold" /><path
             d="m 898.35623,1359.5258 -31.4795,-55.6275 c 0.17088,1.504 0.32469,3.0079 0.46143,4.5117 0.13669,1.2989 0.23923,2.7003 0.30761,4.2041 0.10252,1.504 0.15379,2.9395 0.15381,4.3067 l 0,42.605 -13.43262,0 0,-72.2388 17.27784,0 31.94092,56.0889 c -0.17095,-1.4356 -0.32476,-2.9395 -0.46142,-4.5118 -0.13678,-1.333 -0.25641,-2.8369 -0.35889,-4.5117 -0.0684,-1.6748 -0.10259,-3.3667 -0.10254,-5.0757 l 0,-41.9897 13.43262,0 0,72.2388 -17.73926,0"
             id="path4708"
             inkscape:connector-curvature="0"
             style="font-size:105px;font-style:normal;font-variant:normal;font-weight:bold;font-stretch:normal;text-align:center;line-height:104.99999523%;letter-spacing:-0.33999994px;word-spacing:0px;writing-mode:lr-tb;text-anchor:middle;fill:#000000;fill-opacity:1;stroke:#000000;stroke-width:2.00000024;stroke-miterlimit:4;stroke-opacity:1;stroke-dasharray:none;display:inline;font-family:Liberation Sans;-inkscape-font-specification:Liberation Sans Bold" /><path
             d="m 994.30041,1322.868 c -7e-5,6.0157 -0.90583,11.3135 -2.71728,15.8936 -1.81159,4.5459 -4.28962,8.3569 -7.43408,11.4331 -3.14459,3.0762 -6.87017,5.4004 -11.17676,6.9727 -4.27251,1.5722 -8.88676,2.3584 -13.84277,2.3584 l -29.22364,0 0,-72.2388 26.14746,0 c 5.60543,10e-5 10.74947,0.7007 15.43213,2.102 4.68257,1.4015 8.71577,3.5548 12.09961,6.46 3.38373,2.9053 6.01556,6.5967 7.89551,11.0742 1.87981,4.4776 2.81975,9.7925 2.81982,15.9448 m -15.22705,0 c -5e-5,-4.204 -0.58111,-7.81 -1.74316,-10.8178 -1.12798,-3.0078 -2.71734,-5.4687 -4.76807,-7.3828 -2.05083,-1.9482 -4.51176,-3.3838 -7.38281,-4.3067 -2.83695,-0.9228 -5.98148,-1.3842 -9.43359,-1.3843 l -10.71533,0 0,48.8599 12.81738,0 c 3.04195,0 5.84468,-0.5298 8.4082,-1.5894 2.59761,-1.0595 4.83638,-2.6318 6.71631,-4.7168 1.91401,-2.1191 3.40083,-4.7338 4.46045,-7.8442 1.09369,-3.1103 1.64057,-6.7163 1.64062,-10.8179"
             id="path4710"
             inkscape:connector-curvature="0"
             style="font-size:105px;font-style:normal;font-variant:normal;font-weight:bold;font-stretch:normal;text-align:center;line-height:104.99999523%;letter-spacing:-0.33999994px;word-spacing:0px;writing-mode:lr-tb;text-anchor:middle;fill:#000000;fill-opacity:1;stroke:#000000;stroke-width:2.00000024;stroke-miterlimit:4;stroke-opacity:1;stroke-dasharray:none;display:inline;font-family:Liberation Sans;-inkscape-font-specification:Liberation Sans Bold" /><path
             d="m 1005.4448,1359.5258 0,-72.2388 56.8066,0 0,11.6894 -41.6821,0 0,18.1495 38.5547,0 0,11.6894 -38.5547,0 0,19.021 43.7842,0 0,11.6895 -58.9087,0"
             id="path4712"
             inkscape:connector-curvature="0"
             style="font-size:105px;font-style:normal;font-variant:normal;font-weight:bold;font-stretch:normal;text-align:center;line-height:104.99999523%;letter-spacing:-0.33999994px;word-spacing:0px;writing-mode:lr-tb;text-anchor:middle;fill:#000000;fill-opacity:1;stroke:#000000;stroke-width:2.00000024;stroke-miterlimit:4;stroke-opacity:1;stroke-dasharray:none;display:inline;font-family:Liberation Sans;-inkscape-font-specification:Liberation Sans Bold" /><path
             d="m 1124.8704,1359.5258 -16.7651,-27.4292 -17.7393,0 0,27.4292 -15.1245,0 0,-72.2388 36.0938,0 c 4.5117,10e-5 8.4423,0.5127 11.792,1.5381 3.3837,0.9912 6.2035,2.4268 8.4595,4.3066 2.2557,1.8458 3.9306,4.1016 5.0244,6.7676 1.1278,2.6319 1.6918,5.6055 1.6919,8.9209 -10e-5,2.7002 -0.4103,5.1783 -1.2305,7.4341 -0.7862,2.2217 -1.897,4.2041 -3.3325,5.9472 -1.4015,1.7432 -3.0763,3.213 -5.0244,4.4092 -1.9483,1.1622 -4.0675,2.0166 -6.3575,2.5635 l 19.5337,30.3516 -17.0215,0 m -1.7944,-50.0904 c 0,-3.5204 -1.1621,-6.1352 -3.4863,-7.8442 -2.2901,-1.7089 -5.5714,-2.5634 -9.8438,-2.5635 l -19.3799,0 0,21.3281 19.7901,0 c 2.2558,10e-5 4.187,-0.2563 5.7934,-0.769 1.6406,-0.5468 2.9736,-1.2988 3.9991,-2.2559 1.0595,-0.9911 1.8456,-2.1532 2.3584,-3.4863 0.5126,-1.333 0.769,-2.8027 0.769,-4.4092"
             id="path4714"
             inkscape:connector-curvature="0"
             style="font-size:105px;font-style:normal;font-variant:normal;font-weight:bold;font-stretch:normal;text-align:center;line-height:104.99999523%;letter-spacing:-0.33999994px;word-spacing:0px;writing-mode:lr-tb;text-anchor:middle;fill:#000000;fill-opacity:1;stroke:#000000;stroke-width:2.00000024;stroke-miterlimit:4;stroke-opacity:1;stroke-dasharray:none;display:inline;font-family:Liberation Sans;-inkscape-font-specification:Liberation Sans Bold" /><path
             d="m 577.50339,1458.9066 c 2.83687,10e-5 5.28071,-0.393 7.33154,-1.1792 2.08491,-0.8203 3.87934,-1.8798 5.3833,-3.1787 1.53803,-1.2988 2.80268,-2.7685 3.79394,-4.4091 1.02534,-1.6406 1.86273,-3.2984 2.51221,-4.9732 l 13.17627,4.9732 c -1.05965,2.5976 -2.44392,5.144 -4.15284,7.6391 -1.70905,2.4951 -3.84528,4.6997 -6.40869,6.6138 -2.56353,1.9141 -5.62261,3.4692 -9.17724,4.6655 -3.52056,1.1621 -7.67338,1.7432 -12.45849,1.7432 -6.25492,0 -11.6724,-0.9229 -16.25245,-2.7686 -4.5801,-1.8799 -8.37405,-4.4775 -11.38184,-7.7929 -2.97365,-3.3496 -5.19532,-7.3145 -6.66504,-11.8946 -1.43555,-4.58 -2.15333,-9.5873 -2.15332,-15.0219 -10e-6,-5.6397 0.71777,-10.7324 2.15332,-15.2784 1.46972,-4.5458 3.67431,-8.4081 6.61377,-11.5869 2.93944,-3.2128 6.64793,-5.6737 11.1255,-7.3828 4.51169,-1.7431 9.80953,-2.6147 15.89355,-2.6147 4.71675,0 8.8354,0.4956 12.35596,1.4868 3.55463,0.9913 6.6137,2.3926 9.17724,4.2041 2.59759,1.7774 4.73382,3.8965 6.40869,6.3574 1.70892,2.4268 3.04192,5.1099 3.99902,8.0493 l -13.33007,3.6402 c -0.47857,-1.5381 -1.21344,-3.0078 -2.20459,-4.4092 -0.99127,-1.4355 -2.25591,-2.7002 -3.79394,-3.794 -1.50396,-1.0937 -3.2813,-1.9652 -5.33204,-2.6147 -2.05082,-0.6836 -4.37504,-1.0253 -6.97265,-1.0254 -3.65726,10e-5 -6.80179,0.5982 -9.4336,1.7944 -2.63186,1.1622 -4.80227,2.837 -6.51123,5.0244 -1.67482,2.1876 -2.92238,4.8194 -3.74267,7.8955 -0.78616,3.0421 -1.17923,6.46 -1.17921,10.254 -2e-5,3.7597 0.39305,7.2119 1.17921,10.3564 0.82029,3.1104 2.08494,5.7935 3.79394,8.0493 1.70896,2.2559 3.89646,4.0161 6.5625,5.2808 2.70017,1.2646 5.93014,1.897 9.68995,1.8969"
             id="path4716"
             inkscape:connector-curvature="0"
             style="font-size:105px;font-style:normal;font-variant:normal;font-weight:bold;font-stretch:normal;text-align:center;line-height:104.99999523%;letter-spacing:-0.33999994px;word-spacing:0px;writing-mode:lr-tb;text-anchor:middle;fill:#000000;fill-opacity:1;stroke:#000000;stroke-width:2.00000024;stroke-miterlimit:4;stroke-opacity:1;stroke-dasharray:none;display:inline;font-family:Liberation Sans;-inkscape-font-specification:Liberation Sans Bold" /><path
             d="m 689.54621,1433.3232 c -8e-5,5.6396 -0.83748,10.7666 -2.51221,15.3808 -1.67487,4.6143 -4.08454,8.562 -7.229,11.8433 -3.1446,3.2812 -6.98981,5.8105 -11.53564,7.5879 -4.51178,1.7773 -9.62164,2.666 -15.3296,2.666 -6.04984,0 -11.34769,-0.9229 -15.89356,-2.7686 -4.51174,-1.8799 -8.28859,-4.4775 -11.33057,-7.7929 -3.042,-3.3496 -5.33204,-7.3145 -6.87012,-11.8946 -1.50391,-4.58 -2.25586,-9.5873 -2.25586,-15.0219 0,-5.6397 0.78613,-10.7324 2.3584,-15.2784 1.60644,-4.5458 3.94775,-8.4081 7.02393,-11.5869 3.11033,-3.2128 6.92136,-5.6737 11.43311,-7.3828 4.54587,-1.7431 9.75826,-2.6147 15.63721,-2.6147 5.87886,0 11.07416,0.8716 15.58594,2.6147 4.54584,1.7432 8.35687,4.2213 11.43311,7.4341 3.11028,3.2129 5.46867,7.0923 7.07519,11.6382 1.60637,4.5117 2.40959,9.5703 2.40967,15.1758 m -15.43213,0 c -6e-5,-3.794 -0.46148,-7.2119 -1.38428,-10.254 -0.88873,-3.0761 -2.22173,-5.7079 -3.99902,-7.8955 -1.77741,-2.1874 -3.98199,-3.8622 -6.61378,-5.0244 -2.5977,-1.1962 -5.6226,-1.7943 -9.0747,-1.7944 -3.52055,10e-5 -6.61381,0.5982 -9.27979,1.7944 -2.63186,1.1622 -4.83645,2.837 -6.61377,5.0244 -1.77737,2.1876 -3.11038,4.8194 -3.99903,7.8955 -0.88869,3.0421 -1.33302,6.46 -1.33301,10.254 -10e-6,3.7597 0.44432,7.2119 1.33301,10.3564 0.92283,3.1104 2.27293,5.7935 4.0503,8.0493 1.77732,2.2559 3.98191,4.0161 6.61377,5.2808 2.6318,1.2646 5.67379,1.897 9.12598,1.8969 3.69136,10e-5 6.87007,-0.6323 9.53613,-1.8969 2.66596,-1.2988 4.85346,-3.0762 6.56251,-5.3321 1.7431,-2.29 3.02484,-4.9902 3.84521,-8.1005 0.82025,-3.1445 1.23041,-6.5625 1.23047,-10.2539"
             id="path4718"
             inkscape:connector-curvature="0"
             style="font-size:105px;font-style:normal;font-variant:normal;font-weight:bold;font-stretch:normal;text-align:center;line-height:104.99999523%;letter-spacing:-0.33999994px;word-spacing:0px;writing-mode:lr-tb;text-anchor:middle;fill:#000000;fill-opacity:1;stroke:#000000;stroke-width:2.00000024;stroke-miterlimit:4;stroke-opacity:1;stroke-dasharray:none;display:inline;font-family:Liberation Sans;-inkscape-font-specification:Liberation Sans Bold" /><path
             d="m 744.57731,1469.7758 -31.47949,-55.6275 c 0.17087,1.504 0.32468,3.0079 0.46142,4.5118 0.1367,1.2988 0.23924,2.7002 0.30762,4.2041 0.10252,1.5039 0.15379,2.9395 0.15381,4.3066 l 0,42.605 -13.43262,0 0,-72.2388 17.27783,0 31.94092,56.0889 c -0.17095,-1.4355 -0.32476,-2.9394 -0.46143,-4.5117 -0.13677,-1.333 -0.2564,-2.8369 -0.35888,-4.5118 -0.0684,-1.6747 -0.1026,-3.3666 -0.10254,-5.0756 l 0,-41.9898 13.43262,0 0,72.2388 -17.73926,0"
             id="path4720"
             inkscape:connector-curvature="0"
             style="font-size:105px;font-style:normal;font-variant:normal;font-weight:bold;font-stretch:normal;text-align:center;line-height:104.99999523%;letter-spacing:-0.33999994px;word-spacing:0px;writing-mode:lr-tb;text-anchor:middle;fill:#000000;fill-opacity:1;stroke:#000000;stroke-width:2.00000024;stroke-miterlimit:4;stroke-opacity:1;stroke-dasharray:none;display:inline;font-family:Liberation Sans;-inkscape-font-specification:Liberation Sans Bold" /><path
             d="m 835.03565,1448.9604 c -7e-5,3.2812 -0.59821,6.2719 -1.79444,8.9721 -1.19635,2.6661 -3.05914,4.9561 -5.58838,6.8701 -2.49517,1.9141 -5.70806,3.4009 -9.63867,4.4605 -3.89653,1.0254 -8.54496,1.5381 -13.94531,1.5381 -4.78519,0 -9.00637,-0.4273 -12.66357,-1.2818 -3.65725,-0.8545 -6.80179,-2.1191 -9.43361,-3.7939 -2.59766,-1.6748 -4.7168,-3.7427 -6.35742,-6.2036 -1.60645,-2.4951 -2.76856,-5.3491 -3.48633,-8.562 l 14.61183,-2.4097 c 0.41014,1.6065 1.00828,3.0762 1.79443,4.4092 0.78611,1.333 1.86277,2.4951 3.22998,3.4863 1.40135,0.9571 3.12742,1.709 5.17823,2.2559 2.08493,0.5127 4.59713,0.769 7.53662,0.769 5.12691,0 9.04048,-0.769 11.74072,-2.3071 2.73432,-1.5723 4.10151,-4.0161 4.10156,-7.3316 -5e-5,-1.9824 -0.54692,-3.6059 -1.64062,-4.8706 -1.0938,-1.2646 -2.54644,-2.3071 -4.35791,-3.1274 -1.81157,-0.8203 -3.89653,-1.5039 -6.25489,-2.0508 -2.35843,-0.5468 -4.81937,-1.0766 -7.38281,-1.5893 -2.05081,-0.4785 -4.10159,-0.9741 -6.15234,-1.4869 -2.05081,-0.5126 -4.01614,-1.1279 -5.896,-1.8457 -1.84572,-0.7177 -3.57179,-1.5722 -5.17823,-2.5634 -1.60646,-0.9912 -3.00783,-2.2046 -4.2041,-3.6402 -1.16212,-1.4697 -2.08497,-3.1786 -2.76856,-5.1269 -0.64942,-1.9482 -0.97413,-4.2383 -0.97412,-6.8701 -10e-6,-3.5889 0.71777,-6.665 2.15332,-9.2286 1.43554,-2.5634 3.41796,-4.6483 5.94727,-6.2548 2.56347,-1.6406 5.60546,-2.8369 9.12598,-3.5889 3.52048,-0.7519 7.3657,-1.1279 11.53565,-1.1279 4.71676,0 8.74995,0.376 12.09961,1.1279 3.38374,0.7178 6.20356,1.8287 8.45947,3.3325 2.28998,1.504 4.08441,3.401 5.3833,5.6909 1.33295,2.2559 2.30707,4.9049 2.92236,7.9468 l -14.66308,1.9995 c -0.752,-3.1103 -2.29009,-5.4516 -4.61426,-7.0239 -2.29008,-1.5722 -5.58842,-2.3583 -9.89502,-2.3584 -2.66605,10e-5 -4.88772,0.2393 -6.66504,0.7178 -1.74319,0.4444 -3.14455,1.0596 -4.2041,1.8457 -1.02541,0.7862 -1.76028,1.709 -2.20459,2.7685 -0.44436,1.0255 -0.66652,2.1192 -0.6665,3.2813 -2e-5,1.7774 0.42722,3.2471 1.28173,4.4092 0.85447,1.1279 2.05076,2.085 3.58887,2.871 1.53806,0.752 3.36667,1.4015 5.48584,1.9483 2.15329,0.5127 4.51168,1.0425 7.0752,1.5893 2.25582,0.4786 4.49458,0.9913 6.71631,1.5381 2.22163,0.5128 4.34077,1.128 6.35742,1.8457 2.01655,0.7178 3.89643,1.5894 5.63965,2.6148 1.7431,1.0254 3.24701,2.2901 4.51171,3.7939 1.29877,1.4698 2.30707,3.23 3.02491,5.2808 0.75188,2.0508 1.12786,4.4775 1.12793,7.2803"
             id="path4722"
             inkscape:connector-curvature="0"
             style="font-size:105px;font-style:normal;font-variant:normal;font-weight:bold;font-stretch:normal;text-align:center;line-height:104.99999523%;letter-spacing:-0.33999994px;word-spacing:0px;writing-mode:lr-tb;text-anchor:middle;fill:#000000;fill-opacity:1;stroke:#000000;stroke-width:2.00000024;stroke-miterlimit:4;stroke-opacity:1;stroke-dasharray:none;display:inline;font-family:Liberation Sans;-inkscape-font-specification:Liberation Sans Bold" /><path
             d="m 878.53112,1409.2265 0,60.5493 -15.12452,0 0,-60.5493 -23.32763,0 0,-11.6895 61.83106,0 0,11.6895 -23.37891,0"
             id="path4724"
             inkscape:connector-curvature="0"
             style="font-size:105px;font-style:normal;font-variant:normal;font-weight:bold;font-stretch:normal;text-align:center;line-height:104.99999523%;letter-spacing:-0.33999994px;word-spacing:0px;writing-mode:lr-tb;text-anchor:middle;fill:#000000;fill-opacity:1;stroke:#000000;stroke-width:2.00000024;stroke-miterlimit:4;stroke-opacity:1;stroke-dasharray:none;display:inline;font-family:Liberation Sans;-inkscape-font-specification:Liberation Sans Bold" /><path
             d="m 959.40204,1469.7758 -16.76514,-27.4292 -17.73926,0 0,27.4292 -15.12451,0 0,-72.2388 36.09375,0 c 4.51167,10e-5 8.44233,0.5128 11.79199,1.5381 3.38373,0.9913 6.20355,2.4268 8.45947,4.3066 2.2558,1.8458 3.9306,4.1017 5.02442,6.7676 1.12786,2.6319 1.69182,5.6055 1.69189,8.9209 -7e-5,2.7003 -0.41022,5.1783 -1.23047,7.4341 -0.7862,2.2217 -1.89704,4.2041 -3.33252,5.9473 -1.40143,1.7432 -3.07623,3.2129 -5.02441,4.4091 -1.9483,1.1622 -4.06744,2.0167 -6.35742,2.5635 l 19.53369,30.3516 -17.02148,0 m -1.79444,-50.0903 c -5e-5,-3.5205 -1.16216,-6.1352 -3.48633,-7.8443 -2.29008,-1.7089 -5.57133,-2.5634 -9.84375,-2.5635 l -19.37988,0 0,21.3282 19.79004,0 c 2.25582,0 4.18697,-0.2563 5.79346,-0.7691 1.64057,-0.5468 2.97358,-1.2988 3.99902,-2.2558 1.05952,-0.9912 1.84565,-2.1533 2.3584,-3.4864 0.51264,-1.3329 0.76899,-2.8027 0.76904,-4.4091"
             id="path4726"
             inkscape:connector-curvature="0"
             style="font-size:105px;font-style:normal;font-variant:normal;font-weight:bold;font-stretch:normal;text-align:center;line-height:104.99999523%;letter-spacing:-0.33999994px;word-spacing:0px;writing-mode:lr-tb;text-anchor:middle;fill:#000000;fill-opacity:1;stroke:#000000;stroke-width:2.00000024;stroke-miterlimit:4;stroke-opacity:1;stroke-dasharray:none;display:inline;font-family:Liberation Sans;-inkscape-font-specification:Liberation Sans Bold" /><path
             d="m 1015.356,1470.8012 c -4.5118,0 -8.6475,-0.5298 -12.4072,-1.5894 -3.75983,-1.0937 -7.0069,-2.7685 -9.74125,-5.0244 -2.70021,-2.29 -4.81935,-5.2124 -6.35742,-8.7671 -1.50392,-3.5547 -2.25587,-7.7929 -2.25586,-12.7148 l 0,-45.1685 15.12451,0 0,43.9893 c -2e-5,3.042 0.37592,5.6738 1.12792,7.8955 0.7519,2.1875 1.8286,3.999 3.23,5.4346 1.4013,1.4013 3.0932,2.4438 5.0757,3.1274 1.9824,0.6494 4.187,0.9741 6.6137,0.9741 2.4609,0 4.7168,-0.3418 6.7676,-1.0254 2.0849,-0.7177 3.8623,-1.8115 5.3321,-3.2812 1.5038,-1.4697 2.6659,-3.3325 3.4863,-5.5884 0.8203,-2.2558 1.2304,-4.9389 1.2305,-8.0493 l 0,-43.4766 15.1245,0 0,44.3994 c -10e-5,4.9561 -0.8033,9.2457 -2.4097,12.8687 -1.6065,3.623 -3.8453,6.6309 -6.7163,9.0234 -2.8712,2.3584 -6.2891,4.1187 -10.2539,5.2808 -3.9307,1.1279 -8.2544,1.6919 -12.9712,1.6919"
             id="path4728"
             inkscape:connector-curvature="0"
             style="font-size:105px;font-style:normal;font-variant:normal;font-weight:bold;font-stretch:normal;text-align:center;line-height:104.99999523%;letter-spacing:-0.33999994px;word-spacing:0px;writing-mode:lr-tb;text-anchor:middle;fill:#000000;fill-opacity:1;stroke:#000000;stroke-width:2.00000024;stroke-miterlimit:4;stroke-opacity:1;stroke-dasharray:none;display:inline;font-family:Liberation Sans;-inkscape-font-specification:Liberation Sans Bold" /><path
             d="m 1094.5863,1458.9066 c 2.8369,10e-5 5.2807,-0.393 7.3316,-1.1792 2.0849,-0.8203 3.8793,-1.8798 5.3833,-3.1787 1.538,-1.2988 2.8026,-2.7685 3.7939,-4.4091 1.0253,-1.6406 1.8627,-3.2984 2.5122,-4.9732 l 13.1763,4.9732 c -1.0597,2.5976 -2.4439,5.144 -4.1528,7.6391 -1.7091,2.4951 -3.8453,4.6997 -6.4087,6.6138 -2.5636,1.9141 -5.6227,3.4692 -9.1773,4.6655 -3.5205,1.1621 -7.6734,1.7432 -12.4585,1.7432 -6.2549,0 -11.6724,-0.9229 -16.2524,-2.7686 -4.5801,-1.8799 -8.3741,-4.4775 -11.3819,-7.7929 -2.9736,-3.3496 -5.1953,-7.3145 -6.665,-11.8946 -1.4356,-4.58 -2.1533,-9.5873 -2.1533,-15.0219 0,-5.6397 0.7177,-10.7324 2.1533,-15.2784 1.4697,-4.5458 3.6743,-8.4081 6.6138,-11.5869 2.9394,-3.2128 6.6479,-5.6737 11.1254,-7.3828 4.5117,-1.7431 9.8096,-2.6147 15.8936,-2.6147 4.7168,0 8.8354,0.4956 12.356,1.4868 3.5546,0.9913 6.6137,2.3926 9.1772,4.2041 2.5976,1.7774 4.7338,3.8965 6.4087,6.3574 1.7089,2.4268 3.0419,5.1099 3.999,8.0493 l -13.33,3.6402 c -0.4786,-1.5381 -1.2135,-3.0078 -2.2046,-4.4092 -0.9913,-1.4355 -2.256,-2.7002 -3.794,-3.794 -1.504,-1.0937 -3.2813,-1.9652 -5.332,-2.6147 -2.0508,-0.6836 -4.3751,-1.0253 -6.9727,-1.0254 -3.6572,10e-5 -6.8018,0.5982 -9.4336,1.7944 -2.6318,1.1622 -4.8022,2.837 -6.5112,5.0244 -1.6748,2.1876 -2.9224,4.8194 -3.7427,7.8955 -0.7861,3.0421 -1.1792,6.46 -1.1792,10.254 0,3.7597 0.3931,7.2119 1.1792,10.3564 0.8203,3.1104 2.085,5.7935 3.794,8.0493 1.7089,2.2559 3.8964,4.0161 6.5625,5.2808 2.7001,1.2646 5.9301,1.897 9.6899,1.8969"
             id="path4730"
             inkscape:connector-curvature="0"
             style="font-size:105px;font-style:normal;font-variant:normal;font-weight:bold;font-stretch:normal;text-align:center;line-height:104.99999523%;letter-spacing:-0.33999994px;word-spacing:0px;writing-mode:lr-tb;text-anchor:middle;fill:#000000;fill-opacity:1;stroke:#000000;stroke-width:2.00000024;stroke-miterlimit:4;stroke-opacity:1;stroke-dasharray:none;display:inline;font-family:Liberation Sans;-inkscape-font-specification:Liberation Sans Bold" /><path
             d="m 1168.9973,1409.2265 0,60.5493 -15.1245,0 0,-60.5493 -23.3276,0 0,-11.6895 61.831,0 0,11.6895 -23.3789,0"
             id="path4732"
             inkscape:connector-curvature="0"
             style="font-size:105px;font-style:normal;font-variant:normal;font-weight:bold;font-stretch:normal;text-align:center;line-height:104.99999523%;letter-spacing:-0.33999994px;word-spacing:0px;writing-mode:lr-tb;text-anchor:middle;fill:#000000;fill-opacity:1;stroke:#000000;stroke-width:2.00000024;stroke-miterlimit:4;stroke-opacity:1;stroke-dasharray:none;display:inline;font-family:Liberation Sans;-inkscape-font-specification:Liberation Sans Bold" /><path
             d="m 1200.2393,1469.7758 0,-72.2388 15.1246,0 0,72.2388 -15.1246,0"
             id="path4734"
             inkscape:connector-curvature="0"
             style="font-size:105px;font-style:normal;font-variant:normal;font-weight:bold;font-stretch:normal;text-align:center;line-height:104.99999523%;letter-spacing:-0.33999994px;word-spacing:0px;writing-mode:lr-tb;text-anchor:middle;fill:#000000;fill-opacity:1;stroke:#000000;stroke-width:2.00000024;stroke-miterlimit:4;stroke-opacity:1;stroke-dasharray:none;display:inline;font-family:Liberation Sans;-inkscape-font-specification:Liberation Sans Bold" /><path
             d="m 1299.2597,1433.3232 c -10e-5,5.6396 -0.8375,10.7666 -2.5122,15.3808 -1.6749,4.6143 -4.0846,8.562 -7.229,11.8433 -3.1446,3.2812 -6.9898,5.8105 -11.5357,7.5879 -4.5117,1.7773 -9.6216,2.666 -15.3296,2.666 -6.0498,0 -11.3477,-0.9229 -15.8935,-2.7686 -4.5118,-1.8799 -8.2886,-4.4775 -11.3306,-7.7929 -3.042,-3.3496 -5.332,-7.3145 -6.8701,-11.8946 -1.5039,-4.58 -2.2559,-9.5873 -2.2559,-15.0219 0,-5.6397 0.7862,-10.7324 2.3584,-15.2784 1.6065,-4.5458 3.9478,-8.4081 7.024,-11.5869 3.1103,-3.2128 6.9213,-5.6737 11.4331,-7.3828 4.5458,-1.7431 9.7582,-2.6147 15.6372,-2.6147 5.8788,0 11.0741,0.8716 15.5859,2.6147 4.5458,1.7432 8.3569,4.2213 11.4331,7.4341 3.1103,3.2129 5.4687,7.0923 7.0752,11.6382 1.6064,4.5117 2.4096,9.5703 2.4097,15.1758 m -15.4322,0 c 0,-3.794 -0.4614,-7.2119 -1.3842,-10.254 -0.8888,-3.0761 -2.2218,-5.7079 -3.9991,-7.8955 -1.7774,-2.1874 -3.9819,-3.8622 -6.6137,-5.0244 -2.5977,-1.1962 -5.6226,-1.7943 -9.0747,-1.7944 -3.5206,10e-5 -6.6138,0.5982 -9.2798,1.7944 -2.6319,1.1622 -4.8365,2.837 -6.6138,5.0244 -1.7774,2.1876 -3.1104,4.8194 -3.999,7.8955 -0.8887,3.0421 -1.333,6.46 -1.333,10.254 0,3.7597 0.4443,7.2119 1.333,10.3564 0.9228,3.1104 2.2729,5.7935 4.0503,8.0493 1.7773,2.2559 3.9819,4.0161 6.6138,5.2808 2.6318,1.2646 5.6737,1.897 9.1259,1.8969 3.6914,10e-5 6.8701,-0.6323 9.5362,-1.8969 2.6659,-1.2988 4.8534,-3.0762 6.5625,-5.3321 1.7431,-2.29 3.0248,-4.9902 3.8452,-8.1005 0.8202,-3.1445 1.2304,-6.5625 1.2304,-10.2539"
             id="path4736"
             inkscape:connector-curvature="0"
             style="font-size:105px;font-style:normal;font-variant:normal;font-weight:bold;font-stretch:normal;text-align:center;line-height:104.99999523%;letter-spacing:-0.33999994px;word-spacing:0px;writing-mode:lr-tb;text-anchor:middle;fill:#000000;fill-opacity:1;stroke:#000000;stroke-width:2.00000024;stroke-miterlimit:4;stroke-opacity:1;stroke-dasharray:none;display:inline;font-family:Liberation Sans;-inkscape-font-specification:Liberation Sans Bold" /><path
             d="m 1354.2908,1469.7758 -31.4795,-55.6275 c 0.1709,1.504 0.3247,3.0079 0.4614,4.5118 0.1367,1.2988 0.2393,2.7002 0.3077,4.2041 0.1025,1.5039 0.1537,2.9395 0.1538,4.3066 l 0,42.605 -13.4327,0 0,-72.2388 17.2779,0 31.9409,56.0889 c -0.1709,-1.4355 -0.3248,-2.9394 -0.4614,-4.5117 -0.1368,-1.333 -0.2564,-2.8369 -0.3589,-4.5118 -0.068,-1.6747 -0.1026,-3.3666 -0.1025,-5.0756 l 0,-41.9898 13.4326,0 0,72.2388 -17.7393,0"
             id="path4738"
             inkscape:connector-curvature="0"
             style="font-size:105px;font-style:normal;font-variant:normal;font-weight:bold;font-stretch:normal;text-align:center;line-height:104.99999523%;letter-spacing:-0.33999994px;word-spacing:0px;writing-mode:lr-tb;text-anchor:middle;fill:#000000;fill-opacity:1;stroke:#000000;stroke-width:2.00000024;stroke-miterlimit:4;stroke-opacity:1;stroke-dasharray:none;display:inline;font-family:Liberation Sans;-inkscape-font-specification:Liberation Sans Bold" /></g></g></g></g></svg>