<?xml version="1.0" encoding="utf-8"?>
<!-- Generator: Adobe Illustrator 14.0.0, SVG Export Plug-In . SVG Version: 6.00 Build 43363)  -->
<!DOCTYPE svg PUBLIC "-//W3C//DTD SVG 1.1//EN" "http://www.w3.org/Graphics/SVG/1.1/DTD/svg11.dtd">
<svg version="1.1" id="Layer_1" xmlns="http://www.w3.org/2000/svg" xmlns:xlink="http://www.w3.org/1999/xlink" x="0px" y="0px"
	 width="600px" height="600px" viewBox="0 0 600 600" enable-background="new 0 0 600 600" xml:space="preserve">
<ellipse fill="#706F6A" cx="297.656" cy="99.915" rx="32.653" ry="13.775"/>
<rect x="205.138" y="99.915" fill="#BFBFBF" width="191.836" height="91.759"/>
<circle fill="#DFC800" stroke="#000000" cx="256.839" cy="133.512" r="22.959"/>
<circle fill="#DFC800" stroke="#000000" cx="339.492" cy="133.512" r="22.959"/>
<polygon fill="#BFBFBF" points="308.477,464.866 383.777,464.866 461.387,349.561 306.166,349.561 150.942,349.561 228.554,464.866 
	"/>
<polygon fill="#BFBFBF" points="308.133,464.865 383.434,464.865 461.043,349.56 305.822,349.56 150.598,349.56 228.21,464.865 "/>
<rect x="151.409" y="228.919" fill="#BFBFBF" width="309.511" height="124.489"/>
<rect x="245.105" y="161.571" stroke="#FFFFFF" width="105.102" height="24.49"/>
<rect x="289.319" y="65.42" transform="matrix(1 -0.0047 0.0047 1 -0.3616 1.4044)" fill="#545C56" width="16.673" height="23.945"/>
<circle fill="#CF2F1F" cx="300" cy="57.495" r="19.897"/>
<rect x="277.131" y="213.612" fill="#5FB7FF" width="47.85" height="15.307"/>
<rect x="460.92" y="256.469" fill="#5FB7FF" width="8.164" height="49.653"/>
<rect x="142.432" y="256.469" fill="#5FB7FF" width="8.163" height="49.654"/>
<rect x="67.043" y="243.601" fill="#808080" width="75.389" height="75.389"/>
<rect x="469.084" y="243.601" fill="#808080" width="75.389" height="75.389"/>
<rect x="88.472" y="318.99" fill="#BFBFBF" width="27.551" height="99.724"/>
<rect x="493.003" y="318.99" fill="#BFBFBF" width="27.551" height="106.355"/>
<rect x="243.574" y="462.462" fill="#BFBFBF" width="26.531" height="76.53"/>
<rect x="330.309" y="462.462" fill="#BFBFBF" width="26.531" height="76.531"/>
<rect x="185.41" y="252.898" fill="#5FD4FF" stroke="#303030" stroke-width="5" width="110.715" height="76.531"/>
<rect x="296.125" y="252.898" fill="#FDFF1F" stroke="#404040" stroke-width="5" width="52.551" height="76.531"/>
<rect x="277.131" y="192.184" fill="#5FB7FF" width="47.85" height="21.428"/>
<circle fill="#CF2F1F" stroke="#000000" stroke-width="4" cx="404.798" cy="269.991" r="17.093"/>
<circle fill="#FDFF3F" stroke="#000000" stroke-width="5" cx="404.798" cy="312.337" r="17.093"/>
<circle fill="#3FC4FF" cx="296.637" cy="353.408" r="9.184"/>
<circle fill="#3FC4FF" cx="266.023" cy="353.408" r="9.184"/>
<circle fill="#3FC4FF" cx="234.39" cy="353.408" r="9.184"/>
<circle fill="#3FC4FF" cx="205.138" cy="353.408" r="9.184"/>
<rect x="195.955" y="126.877" fill="#808080" stroke="#4D4B45" width="9.184" height="29.595"/>
<rect x="396.975" y="126.877" fill="#808080" width="9.184" height="29.595"/>
<circle fill="#DF2800" cx="102.247" cy="445.755" r="27.041"/>
<circle fill="#DF2800" cx="506.778" cy="452.387" r="27.041"/>
<ellipse fill="#FFFFFF" cx="102.247" cy="445.755" rx="7.653" ry="8.418"/>
<ellipse fill="#FFFFFF" cx="506.778" cy="452.387" rx="7.653" ry="8.418"/>
<polygon fill="#FFFFFF" points="122.785,476.396 102.247,475.785 81.709,475.175 92.432,460.194 103.154,445.215 112.97,460.805 "/>
<polygon fill="#FFFFFF" points="506.777,453.422 515.606,468.715 524.436,484.006 506.777,484.006 489.12,484.006 497.949,468.715 
	"/>
<polygon fill="none" stroke="#4D4B45" stroke-width="2" points="-270.021,126.877 -259.172,121.358 -248.968,127.993 
	-249.612,140.148 -260.461,145.667 -270.665,139.032 "/>
<polygon fill="none" stroke="#4D4B45" stroke-width="2" points="-142.648,162.823 -149.234,154.565 -146.883,144.268 
	-137.367,139.685 -127.851,144.268 -125.5,154.565 -132.086,162.823 "/>
<polygon fill="none" stroke="#4D4B45" stroke-width="2" points="-50.839,321.632 -70.14,407.67 -149.441,446.223 -229.027,408.261 
	-248.968,322.369 -194.248,253.227 -106.072,252.898 "/>
<g>
	<rect x="318.846" y="553.545" fill="#DF2800" width="49.457" height="31.651"/>
	<polygon fill="#DF2800" points="317.974,558.773 324.403,536.868 345.538,528.237 365.464,539.379 369.175,561.905 
		353.878,578.852 331.091,577.458 	"/>
</g>
<g>
	<rect x="232.191" y="551.523" fill="#DF2800" width="49.296" height="33.673"/>
	<polygon fill="#DF2800" points="245.648,576.04 231.692,558.54 236.672,536.718 256.839,527.007 277.006,536.718 281.987,558.54 
		268.031,576.04 	"/>
</g>
<g>
	<g>
		<path fill="#BFBFBF" d="M784.644,369.621c0.818,0,2.02-1.242,0.713-1.242C784.538,368.379,783.337,369.621,784.644,369.621
			L784.644,369.621z"/>
	</g>
</g>
<line fill="none" stroke="#000000" x1="640" y1="362.592" x2="640" y2="429.172"/>
<line fill="none" stroke="#000000" x1="699" y1="395.882" x2="699" y2="462.462"/>
<line fill="none" stroke="#000000" x1="664" y1="341.274" x2="664" y2="407.854"/>
<line fill="none" stroke="#000000" x1="673" y1="362.592" x2="673" y2="429.172"/>
<line fill="none" stroke="#000000" x1="673" y1="318.99" x2="673" y2="385.57"/>
<line fill="none" stroke="#000000" x1="683" y1="318.99" x2="683" y2="385.57"/>
<line fill="none" stroke="#000000" x1="768" y1="407.854" x2="768" y2="411.854"/>
</svg>
