<?xml version="1.0"?>
<svg xmlns:rdf="http://www.w3.org/1999/02/22-rdf-syntax-ns#" xmlns="http://www.w3.org/2000/svg" xmlns:cc="http://creativecommons.org/ns#" xmlns:xlink="http://www.w3.org/1999/xlink" xmlns:dc="http://purl.org/dc/elements/1.1/" xmlns:svg="http://www.w3.org/2000/svg" id="svg2" viewBox="0 0 285 345" version="1.0">
  <defs id="defs4">
    <linearGradient id="linearGradient29613">
      <stop id="stop29615" stop-color="#816647" offset="0"/>
      <stop id="stop29619" stop-color="#fdd99b" offset=".6029"/>
      <stop id="stop29617" stop-color="#816647" offset="1"/>
    </linearGradient>
    <linearGradient id="linearGradient32971" y2="219.7" xlink:href="#linearGradient29613" gradientUnits="userSpaceOnUse" x2="205.69" gradientTransform="matrix(.76546 0 0 .76585 -615.45 8.6193)" y1="208.92" x1="205.69"/>
    <linearGradient id="linearGradient33592" y2="52.724" xlink:href="#linearGradient29613" gradientUnits="userSpaceOnUse" x2="138.13" gradientTransform="matrix(.76546 0 0 .48462 -494.93 200.6)" y1="52.724" x1="127.4"/>
    <linearGradient id="linearGradient33595" y2="52.724" xlink:href="#linearGradient29613" gradientUnits="userSpaceOnUse" x2="138.13" gradientTransform="matrix(.76546 0 0 .48462 -465.45 200.6)" y1="52.724" x1="127.4"/>
    <linearGradient id="linearGradient33598" y2="52.724" xlink:href="#linearGradient29613" gradientUnits="userSpaceOnUse" x2="138.13" gradientTransform="matrix(.76546 0 0 .48462 -494.93 166.6)" y1="52.724" x1="127.4"/>
    <linearGradient id="linearGradient33601" y2="52.724" xlink:href="#linearGradient29613" gradientUnits="userSpaceOnUse" x2="138.13" gradientTransform="matrix(.76546 0 0 .48462 -465.45 166.6)" y1="52.724" x1="127.4"/>
    <linearGradient id="linearGradient33608" y2="50.323" xlink:href="#linearGradient29613" gradientUnits="userSpaceOnUse" x2="110.84" gradientTransform="matrix(.76546 0 0 .76585 -465.45 152.62)" y1="42.147" x1="110.84"/>
    <linearGradient id="linearGradient33611" y2="82.419" xlink:href="#linearGradient29613" gradientUnits="userSpaceOnUse" x2="96.776" gradientTransform="matrix(.76546 0 0 .76585 -465.45 152.62)" y1="82.419" x1="90.518"/>
    <linearGradient id="linearGradient33617" y2="52.724" xlink:href="#linearGradient29613" gradientUnits="userSpaceOnUse" x2="138.13" gradientTransform="matrix(.76546 0 0 .48462 -644.93 200.6)" y1="52.724" x1="127.4"/>
    <linearGradient id="linearGradient33620" y2="52.724" xlink:href="#linearGradient29613" gradientUnits="userSpaceOnUse" x2="138.13" gradientTransform="matrix(.76546 0 0 .48462 -615.45 200.6)" y1="52.724" x1="127.4"/>
    <linearGradient id="linearGradient33623" y2="52.724" xlink:href="#linearGradient29613" gradientUnits="userSpaceOnUse" x2="138.13" gradientTransform="matrix(.76546 0 0 .48462 -644.93 166.6)" y1="52.724" x1="127.4"/>
    <linearGradient id="linearGradient33626" y2="52.724" xlink:href="#linearGradient29613" gradientUnits="userSpaceOnUse" x2="138.13" gradientTransform="matrix(.76546 0 0 .48462 -615.45 166.6)" y1="52.724" x1="127.4"/>
    <linearGradient id="linearGradient33633" y2="50.323" xlink:href="#linearGradient29613" gradientUnits="userSpaceOnUse" x2="110.84" gradientTransform="matrix(.76546 0 0 .76585 -615.45 152.62)" y1="42.147" x1="110.84"/>
    <linearGradient id="linearGradient33636" y2="82.419" xlink:href="#linearGradient29613" gradientUnits="userSpaceOnUse" x2="96.776" gradientTransform="matrix(.76546 0 0 .76585 -615.45 152.62)" y1="82.419" x1="90.518"/>
    <linearGradient id="linearGradient33642" y2="52.724" xlink:href="#linearGradient29613" gradientUnits="userSpaceOnUse" x2="138.13" gradientTransform="matrix(.76546 0 0 .48462 -494.93 130.6)" y1="52.724" x1="127.4"/>
    <linearGradient id="linearGradient33645" y2="52.724" xlink:href="#linearGradient29613" gradientUnits="userSpaceOnUse" x2="138.13" gradientTransform="matrix(.76546 0 0 .48462 -465.45 130.6)" y1="52.724" x1="127.4"/>
    <linearGradient id="linearGradient33648" y2="52.724" xlink:href="#linearGradient29613" gradientUnits="userSpaceOnUse" x2="138.13" gradientTransform="matrix(.76546 0 0 .48462 -494.93 96.604)" y1="52.724" x1="127.4"/>
    <linearGradient id="linearGradient33651" y2="52.724" xlink:href="#linearGradient29613" gradientUnits="userSpaceOnUse" x2="138.13" gradientTransform="matrix(.76546 0 0 .48462 -465.45 96.604)" y1="52.724" x1="127.4"/>
    <linearGradient id="linearGradient33658" y2="50.323" xlink:href="#linearGradient29613" gradientUnits="userSpaceOnUse" x2="110.84" gradientTransform="matrix(.76546 0 0 .76585 -465.45 82.619)" y1="42.147" x1="110.84"/>
    <linearGradient id="linearGradient33661" y2="82.419" xlink:href="#linearGradient29613" gradientUnits="userSpaceOnUse" x2="96.776" gradientTransform="matrix(.76546 0 0 .76585 -465.45 82.619)" y1="82.419" x1="90.518"/>
    <linearGradient id="linearGradient33667" y2="52.724" xlink:href="#linearGradient29613" gradientUnits="userSpaceOnUse" x2="138.13" gradientTransform="matrix(.76546 0 0 .48462 -544.93 130.6)" y1="52.724" x1="127.4"/>
    <linearGradient id="linearGradient33670" y2="52.724" xlink:href="#linearGradient29613" gradientUnits="userSpaceOnUse" x2="138.13" gradientTransform="matrix(.76546 0 0 .48462 -515.45 130.6)" y1="52.724" x1="127.4"/>
    <linearGradient id="linearGradient33673" y2="52.724" xlink:href="#linearGradient29613" gradientUnits="userSpaceOnUse" x2="138.13" gradientTransform="matrix(.76546 0 0 .48462 -544.93 96.604)" y1="52.724" x1="127.4"/>
    <linearGradient id="linearGradient33676" y2="52.724" xlink:href="#linearGradient29613" gradientUnits="userSpaceOnUse" x2="138.13" gradientTransform="matrix(.76546 0 0 .48462 -515.45 96.604)" y1="52.724" x1="127.4"/>
    <linearGradient id="linearGradient33683" y2="50.323" xlink:href="#linearGradient29613" gradientUnits="userSpaceOnUse" x2="110.84" gradientTransform="matrix(.76546 0 0 .76585 -515.45 82.619)" y1="42.147" x1="110.84"/>
    <linearGradient id="linearGradient33686" y2="82.419" xlink:href="#linearGradient29613" gradientUnits="userSpaceOnUse" x2="96.776" gradientTransform="matrix(.76546 0 0 .76585 -515.45 82.619)" y1="82.419" x1="90.518"/>
    <linearGradient id="linearGradient33692" y2="52.724" xlink:href="#linearGradient29613" gradientUnits="userSpaceOnUse" x2="138.13" gradientTransform="matrix(.76546 0 0 .48462 -594.93 130.6)" y1="52.724" x1="127.4"/>
    <linearGradient id="linearGradient33695" y2="52.724" xlink:href="#linearGradient29613" gradientUnits="userSpaceOnUse" x2="138.13" gradientTransform="matrix(.76546 0 0 .48462 -565.45 130.6)" y1="52.724" x1="127.4"/>
    <linearGradient id="linearGradient33698" y2="52.724" xlink:href="#linearGradient29613" gradientUnits="userSpaceOnUse" x2="138.13" gradientTransform="matrix(.76546 0 0 .48462 -594.93 96.604)" y1="52.724" x1="127.4"/>
    <linearGradient id="linearGradient33701" y2="52.724" xlink:href="#linearGradient29613" gradientUnits="userSpaceOnUse" x2="138.13" gradientTransform="matrix(.76546 0 0 .48462 -565.45 96.604)" y1="52.724" x1="127.4"/>
    <linearGradient id="linearGradient33708" y2="50.323" xlink:href="#linearGradient29613" gradientUnits="userSpaceOnUse" x2="110.84" gradientTransform="matrix(.76546 0 0 .76585 -565.45 82.619)" y1="42.147" x1="110.84"/>
    <linearGradient id="linearGradient33711" y2="82.419" xlink:href="#linearGradient29613" gradientUnits="userSpaceOnUse" x2="96.776" gradientTransform="matrix(.76546 0 0 .76585 -565.45 82.619)" y1="82.419" x1="90.518"/>
    <linearGradient id="linearGradient33729" y2="52.724" xlink:href="#linearGradient29613" gradientUnits="userSpaceOnUse" x2="138.13" gradientTransform="matrix(.76546 0 0 .48462 -644.93 130.6)" y1="52.724" x1="127.4"/>
    <linearGradient id="linearGradient33732" y2="52.724" xlink:href="#linearGradient29613" gradientUnits="userSpaceOnUse" x2="138.13" gradientTransform="matrix(.76546 0 0 .48462 -615.45 130.6)" y1="52.724" x1="127.4"/>
    <linearGradient id="linearGradient33735" y2="52.724" xlink:href="#linearGradient29613" gradientUnits="userSpaceOnUse" x2="138.13" gradientTransform="matrix(.76546 0 0 .48462 -644.93 96.604)" y1="52.724" x1="127.4"/>
    <linearGradient id="linearGradient33738" y2="52.724" xlink:href="#linearGradient29613" gradientUnits="userSpaceOnUse" x2="138.13" gradientTransform="matrix(.76546 0 0 .48462 -615.45 96.604)" y1="52.724" x1="127.4"/>
    <linearGradient id="linearGradient33745" y2="50.323" xlink:href="#linearGradient29613" gradientUnits="userSpaceOnUse" x2="110.84" gradientTransform="matrix(.76546 0 0 .76585 -615.45 82.619)" y1="42.147" x1="110.84"/>
    <linearGradient id="linearGradient33748" y2="82.419" xlink:href="#linearGradient29613" gradientUnits="userSpaceOnUse" x2="96.776" gradientTransform="matrix(.76546 0 0 .76585 -615.45 82.619)" y1="82.419" x1="90.518"/>
    <linearGradient id="linearGradient33754" y2="52.724" xlink:href="#linearGradient29613" gradientUnits="userSpaceOnUse" x2="138.13" gradientTransform="matrix(.76546 0 0 .48462 -494.93 60.604)" y1="52.724" x1="127.4"/>
    <linearGradient id="linearGradient33757" y2="52.724" xlink:href="#linearGradient29613" gradientUnits="userSpaceOnUse" x2="138.13" gradientTransform="matrix(.76546 0 0 .48462 -465.45 60.604)" y1="52.724" x1="127.4"/>
    <linearGradient id="linearGradient33760" y2="52.724" xlink:href="#linearGradient29613" gradientUnits="userSpaceOnUse" x2="138.13" gradientTransform="matrix(.76546 0 0 .48462 -494.93 26.604)" y1="52.724" x1="127.4"/>
    <linearGradient id="linearGradient33763" y2="52.724" xlink:href="#linearGradient29613" gradientUnits="userSpaceOnUse" x2="138.13" gradientTransform="matrix(.76546 0 0 .48462 -465.45 26.604)" y1="52.724" x1="127.4"/>
    <linearGradient id="linearGradient33770" y2="50.323" xlink:href="#linearGradient29613" gradientUnits="userSpaceOnUse" x2="110.84" gradientTransform="matrix(.76546 0 0 .76585 -465.45 12.619)" y1="42.147" x1="110.84"/>
    <linearGradient id="linearGradient33773" y2="82.419" xlink:href="#linearGradient29613" gradientUnits="userSpaceOnUse" x2="96.776" gradientTransform="matrix(.76546 0 0 .76585 -465.45 12.619)" y1="82.419" x1="90.518"/>
    <linearGradient id="linearGradient33779" y2="52.724" xlink:href="#linearGradient29613" gradientUnits="userSpaceOnUse" x2="138.13" gradientTransform="matrix(.76546 0 0 .48462 -544.93 60.604)" y1="52.724" x1="127.4"/>
    <linearGradient id="linearGradient33782" y2="52.724" xlink:href="#linearGradient29613" gradientUnits="userSpaceOnUse" x2="138.13" gradientTransform="matrix(.76546 0 0 .48462 -515.45 60.604)" y1="52.724" x1="127.4"/>
    <linearGradient id="linearGradient33785" y2="52.724" xlink:href="#linearGradient29613" gradientUnits="userSpaceOnUse" x2="138.13" gradientTransform="matrix(.76546 0 0 .48462 -544.93 26.604)" y1="52.724" x1="127.4"/>
    <linearGradient id="linearGradient33788" y2="52.724" xlink:href="#linearGradient29613" gradientUnits="userSpaceOnUse" x2="138.13" gradientTransform="matrix(.76546 0 0 .48462 -515.45 26.604)" y1="52.724" x1="127.4"/>
    <linearGradient id="linearGradient33795" y2="50.323" xlink:href="#linearGradient29613" gradientUnits="userSpaceOnUse" x2="110.84" gradientTransform="matrix(.76546 0 0 .76585 -515.45 12.619)" y1="42.147" x1="110.84"/>
    <linearGradient id="linearGradient33798" y2="82.419" xlink:href="#linearGradient29613" gradientUnits="userSpaceOnUse" x2="96.776" gradientTransform="matrix(.76546 0 0 .76585 -515.45 12.619)" y1="82.419" x1="90.518"/>
    <linearGradient id="linearGradient33804" y2="52.724" xlink:href="#linearGradient29613" gradientUnits="userSpaceOnUse" x2="138.13" gradientTransform="matrix(.76546 0 0 .48462 -594.93 60.604)" y1="52.724" x1="127.4"/>
    <linearGradient id="linearGradient33807" y2="52.724" xlink:href="#linearGradient29613" gradientUnits="userSpaceOnUse" x2="138.13" gradientTransform="matrix(.76546 0 0 .48462 -565.45 60.604)" y1="52.724" x1="127.4"/>
    <linearGradient id="linearGradient33810" y2="52.724" xlink:href="#linearGradient29613" gradientUnits="userSpaceOnUse" x2="138.13" gradientTransform="matrix(.76546 0 0 .48462 -594.93 26.604)" y1="52.724" x1="127.4"/>
    <linearGradient id="linearGradient33813" y2="52.724" xlink:href="#linearGradient29613" gradientUnits="userSpaceOnUse" x2="138.13" gradientTransform="matrix(.76546 0 0 .48462 -565.45 26.604)" y1="52.724" x1="127.4"/>
    <linearGradient id="linearGradient33820" y2="50.323" xlink:href="#linearGradient29613" gradientUnits="userSpaceOnUse" x2="110.84" gradientTransform="matrix(.76546 0 0 .76585 -565.45 12.619)" y1="42.147" x1="110.84"/>
    <linearGradient id="linearGradient33823" y2="82.419" xlink:href="#linearGradient29613" gradientUnits="userSpaceOnUse" x2="96.776" gradientTransform="matrix(.76546 0 0 .76585 -565.45 12.619)" y1="82.419" x1="90.518"/>
    <linearGradient id="linearGradient33841" y2="52.724" xlink:href="#linearGradient29613" gradientUnits="userSpaceOnUse" x2="138.13" gradientTransform="matrix(.76546 0 0 .48462 -644.93 60.604)" y1="52.724" x1="127.4"/>
    <linearGradient id="linearGradient33844" y2="52.724" xlink:href="#linearGradient29613" gradientUnits="userSpaceOnUse" x2="138.13" gradientTransform="matrix(.76546 0 0 .48462 -615.45 60.604)" y1="52.724" x1="127.4"/>
    <linearGradient id="linearGradient33847" y2="52.724" xlink:href="#linearGradient29613" gradientUnits="userSpaceOnUse" x2="138.13" gradientTransform="matrix(.76546 0 0 .48462 -644.93 26.604)" y1="52.724" x1="127.4"/>
    <linearGradient id="linearGradient33850" y2="52.724" xlink:href="#linearGradient29613" gradientUnits="userSpaceOnUse" x2="138.13" gradientTransform="matrix(.76546 0 0 .48462 -615.45 26.604)" y1="52.724" x1="127.4"/>
    <linearGradient id="linearGradient33857" y2="50.323" xlink:href="#linearGradient29613" gradientUnits="userSpaceOnUse" x2="110.84" gradientTransform="matrix(.76546 0 0 .76585 -615.45 12.619)" y1="42.147" x1="110.84"/>
    <linearGradient id="linearGradient33860" y2="82.419" xlink:href="#linearGradient29613" gradientUnits="userSpaceOnUse" x2="96.776" gradientTransform="matrix(.76546 0 0 .76585 -615.45 12.619)" y1="82.419" x1="90.518"/>
    <linearGradient id="linearGradient33880" y2="219.7" xlink:href="#linearGradient29613" gradientUnits="userSpaceOnUse" x2="205.69" gradientTransform="matrix(.76546 0 0 .76585 -615.45 94.748)" y1="208.92" x1="205.69"/>
    <linearGradient id="linearGradient33884" y2="219.7" xlink:href="#linearGradient29613" gradientUnits="userSpaceOnUse" x2="205.69" gradientTransform="matrix(.76546 0 0 .76585 -615.45 87.57)" y1="208.92" x1="205.69"/>
    <linearGradient id="linearGradient33888" y2="219.7" xlink:href="#linearGradient29613" gradientUnits="userSpaceOnUse" x2="205.69" gradientTransform="matrix(.76546 0 0 .76585 -615.45 80.393)" y1="208.92" x1="205.69"/>
    <linearGradient id="linearGradient33892" y2="219.7" xlink:href="#linearGradient29613" gradientUnits="userSpaceOnUse" x2="205.69" gradientTransform="matrix(.76546 0 0 .76585 -615.45 73.215)" y1="208.92" x1="205.69"/>
    <linearGradient id="linearGradient33896" y2="219.7" xlink:href="#linearGradient29613" gradientUnits="userSpaceOnUse" x2="205.69" gradientTransform="matrix(.76546 0 0 .76585 -615.45 66.038)" y1="208.92" x1="205.69"/>
    <linearGradient id="linearGradient33900" y2="219.7" xlink:href="#linearGradient29613" gradientUnits="userSpaceOnUse" x2="205.69" gradientTransform="matrix(.76546 0 0 .76585 -615.45 58.861)" y1="208.92" x1="205.69"/>
    <linearGradient id="linearGradient33904" y2="219.7" xlink:href="#linearGradient29613" gradientUnits="userSpaceOnUse" x2="205.69" gradientTransform="matrix(.76546 0 0 .76585 -615.45 51.683)" y1="208.92" x1="205.69"/>
    <linearGradient id="linearGradient33908" y2="219.7" xlink:href="#linearGradient29613" gradientUnits="userSpaceOnUse" x2="205.69" gradientTransform="matrix(.76546 0 0 .76585 -615.45 44.506)" y1="208.92" x1="205.69"/>
    <linearGradient id="linearGradient33912" y2="219.7" xlink:href="#linearGradient29613" gradientUnits="userSpaceOnUse" x2="205.69" gradientTransform="matrix(.76546 0 0 .76585 -615.45 37.329)" y1="208.92" x1="205.69"/>
    <linearGradient id="linearGradient33916" y2="219.7" xlink:href="#linearGradient29613" gradientUnits="userSpaceOnUse" x2="205.69" gradientTransform="matrix(.76546 0 0 .76585 -615.45 30.151)" y1="208.92" x1="205.69"/>
    <linearGradient id="linearGradient33920" y2="219.7" xlink:href="#linearGradient29613" gradientUnits="userSpaceOnUse" x2="205.69" gradientTransform="matrix(.76546 0 0 .76585 -615.45 22.974)" y1="208.92" x1="205.69"/>
    <linearGradient id="linearGradient33924" y2="219.7" xlink:href="#linearGradient29613" gradientUnits="userSpaceOnUse" x2="205.69" gradientTransform="matrix(.76546 0 0 .76585 -615.45 15.797)" y1="208.92" x1="205.69"/>
    <linearGradient id="linearGradient33932" y2="82.419" xlink:href="#linearGradient29613" gradientUnits="userSpaceOnUse" x2="96.776" gradientTransform="matrix(.76546 0 0 .76585 -585.6 12.619)" y1="82.419" x1="90.518"/>
    <linearGradient id="linearGradient33936" y2="82.419" xlink:href="#linearGradient29613" gradientUnits="userSpaceOnUse" x2="96.776" gradientTransform="matrix(.76546 0 0 .76585 -535.6 12.619)" y1="82.419" x1="90.518"/>
    <linearGradient id="linearGradient33940" y2="82.419" xlink:href="#linearGradient29613" gradientUnits="userSpaceOnUse" x2="96.776" gradientTransform="matrix(.76546 0 0 .76585 -485.6 12.619)" y1="82.419" x1="90.518"/>
    <linearGradient id="linearGradient33944" y2="82.419" xlink:href="#linearGradient29613" gradientUnits="userSpaceOnUse" x2="96.776" gradientTransform="matrix(.76546 0 0 .76585 -435.6 12.619)" y1="82.419" x1="90.518"/>
    <linearGradient id="linearGradient33948" y2="82.419" xlink:href="#linearGradient29613" gradientUnits="userSpaceOnUse" x2="96.776" gradientTransform="matrix(.76546 0 0 .76585 -585.6 82.619)" y1="82.419" x1="90.518"/>
    <linearGradient id="linearGradient33952" y2="82.419" xlink:href="#linearGradient29613" gradientUnits="userSpaceOnUse" x2="96.776" gradientTransform="matrix(.76546 0 0 .76585 -535.6 82.619)" y1="82.419" x1="90.518"/>
    <linearGradient id="linearGradient33956" y2="82.419" xlink:href="#linearGradient29613" gradientUnits="userSpaceOnUse" x2="96.776" gradientTransform="matrix(.76546 0 0 .76585 -485.6 82.619)" y1="82.419" x1="90.518"/>
    <linearGradient id="linearGradient33960" y2="82.419" xlink:href="#linearGradient29613" gradientUnits="userSpaceOnUse" x2="96.776" gradientTransform="matrix(.76546 0 0 .76585 -435.6 82.619)" y1="82.419" x1="90.518"/>
    <linearGradient id="linearGradient33964" y2="82.419" xlink:href="#linearGradient29613" gradientUnits="userSpaceOnUse" x2="96.776" gradientTransform="matrix(.76546 0 0 .76585 -585.6 152.62)" y1="82.419" x1="90.518"/>
    <linearGradient id="linearGradient33968" y2="82.419" xlink:href="#linearGradient29613" gradientUnits="userSpaceOnUse" x2="96.776" gradientTransform="matrix(.76546 0 0 .76585 -435.6 152.62)" y1="82.419" x1="90.518"/>
    <filter id="filter35451" y="-.080985" width="1.2161" height="1.162" x="-.10807">
      <feGaussianBlur id="feGaussianBlur35453" stdDeviation="10.220256"/>
    </filter>
    <filter id="filter3239" color-interpolation-filters="sRGB">
      <feGaussianBlur id="feGaussianBlur3241" stdDeviation="18.447267"/>
    </filter>
    <radialGradient id="radialGradient6047" gradientUnits="userSpaceOnUse" cy="571.72" cx="976.46" gradientTransform="matrix(.97158 1.5349 -.92083 .58289 567.21 -1264.3)" r="301.56">
      <stop id="stop3177" stop-color="#ffd42a" offset="0"/>
      <stop id="stop3179" stop-color="#c69e00" offset="1"/>
    </radialGradient>
  </defs>
  <g id="layer1">
    <g id="g35620">
      <rect id="rect35618" opacity="0" height="345" width="285" y=".0000076294" x="0"/>
      <g id="g35457" fill-rule="evenodd">
        <path id="path34550" d="m126.38 9.9375c-16.41 0-29.837 12.876-30.724 29.062h-0.03125v10.438h-19.469v14.844h-62.75v247.56h226v-247.56h-62.781v-14.844h-19.5v-10.438h-0.0312c-0.88-16.188-14.31-29.064-30.71-29.064z" transform="matrix(1.0288 0 0 1.0287 13.364 8.3773)" filter="url(#filter35451)" stroke="#565248" stroke-width=".97206"/>
        <g id="g34229" transform="translate(593.39 59.609)">
          <path id="path32613" d="m-454-40.656c-16.401 0-29.832 12.876-30.719 29.062h-0.0312v10.438h-19.469v25.094h19.469v1.3438h61.5v-1.3438h19.5v-25.094h-19.5v-10.438h-0.0312c-0.89-16.186-14.32-29.062-30.72-29.062z" stroke="#565248" fill="#816647"/>
          <path id="path32615" d="m-454-36.53c-14.359 0-26.118 11.265-26.894 25.425h-0.0274v13.132h-17.045v17.953h17.045v1.1756h53.843v-1.1756h17.072v-17.953h-17.072v-13.132h-0.0274c-0.7761-14.161-12.535-25.425-26.894-25.425z" stroke="#565248" fill="#fdd99b"/>
          <rect id="rect32617" height="21.448" width="226.01" stroke="#816647" y="13.66" x="-566.99" fill="#d9bb7a"/>
          <rect id="rect32619" height="231.16" width="226.01" stroke="#816647" y="30.066" x="-566.99" fill="#fdd99b"/>
          <rect id="use32623" height="7.1774" width="225.57" stroke="#565248" y="169.14" x="-566.69" fill="url(#linearGradient32971)"/>
          <rect id="use32625" height="7.1774" width="225.57" stroke="#565248" y="176.31" x="-566.69" fill="url(#linearGradient33924)"/>
          <rect id="use32627" height="7.1774" width="225.57" stroke="#565248" y="183.49" x="-566.69" fill="url(#linearGradient33920)"/>
          <rect id="use32629" height="7.1774" width="225.57" stroke="#565248" y="190.67" x="-566.69" fill="url(#linearGradient33916)"/>
          <rect id="use32631" height="7.1774" width="225.57" stroke="#565248" y="197.85" x="-566.69" fill="url(#linearGradient33912)"/>
          <rect id="use32633" height="7.1774" width="225.57" stroke="#565248" y="205.02" x="-566.69" fill="url(#linearGradient33908)"/>
          <rect id="use32635" height="7.1774" width="225.57" stroke="#565248" y="212.2" x="-566.69" fill="url(#linearGradient33904)"/>
          <rect id="use32637" height="7.1774" width="225.57" stroke="#565248" y="219.38" x="-566.69" fill="url(#linearGradient33900)"/>
          <rect id="use32639" height="7.1774" width="225.57" stroke="#565248" y="226.56" x="-566.69" fill="url(#linearGradient33896)"/>
          <rect id="use32641" height="7.1774" width="225.57" stroke="#565248" y="233.73" x="-566.69" fill="url(#linearGradient33892)"/>
          <rect id="use32643" height="7.1774" width="225.57" stroke="#565248" y="240.91" x="-566.69" fill="url(#linearGradient33888)"/>
          <rect id="use32645" height="7.1774" width="225.57" stroke="#565248" y="248.09" x="-566.69" fill="url(#linearGradient33884)"/>
          <rect id="use32647" height="7.1774" width="225.57" stroke="#565248" y="255.26" x="-566.69" fill="url(#linearGradient33880)"/>
          <rect id="rect32649" height="7.7977" width="224.23" stroke="#565248" y="91.109" x="-566.25" fill="#d9bb7a"/>
          <path id="path32653" d="m-528.33 36.05c-9.0552 0-17.074 4.4821-21.959 11.344l3.0379 3.0395c4.0679-6.1226 11.028-10.171 18.921-10.171 7.8934 0.000001 14.853 4.0488 18.921 10.171l3.014-3.0155c-4.8767-6.8709-12.873-11.368-21.935-11.368z" stroke="#816647" fill="#d9bb7a"/>
          <rect id="rect32655" height="37.507" width="24.492" stroke="#816647" y="50.86" x="-540.58" fill="#d9bb7a"/>
          <rect id="rect32657" height="30.759" width="20.039" stroke="#816647" y="54.234" x="-538.36" fill="#ace"/>
          <rect id="rect32659" height="37.786" width="4.7314" stroke="#816647" y="50.581" x="-545.87" stroke-width=".1" fill="url(#linearGradient33860)"/>
          <rect id="rect32661" height="5.4946" width="37.474" stroke="#816647" y="45.281" x="-546.71" fill="url(#linearGradient33857)"/>
          <rect id="rect32663" height="30.674" width="2.0999" stroke="#000" y="54.248" x="-529.5" stroke-width=".1" fill="#aaa"/>
          <rect id="use32665" height="37.786" width="4.7314" stroke="#816647" y="50.581" x="-516.02" stroke-width=".1" fill="url(#linearGradient33932)"/>
          <rect id="rect32667" transform="rotate(90)" height="19.347" width="2.1009" stroke="#000" y="518.77" x="68.535" stroke-width=".1" fill="#aaa"/>
          <rect id="rect32669" height="3.3724" width="40.857" stroke="#816647" y="87.609" x="-548.95" stroke-width=".1" fill="#816647"/>
          <rect id="rect32671" height="2.8899" width="8.0899" stroke="#816647" y="50.71" x="-517.87" stroke-width=".1" fill="url(#linearGradient33850)"/>
          <rect id="rect32673" height="2.8899" width="8.0899" stroke="#816647" y="50.71" x="-547.35" stroke-width=".1" fill="url(#linearGradient33847)"/>
          <rect id="rect32675" height="2.8899" width="8.0899" stroke="#816647" y="84.71" x="-517.87" stroke-width=".1" fill="url(#linearGradient33844)"/>
          <rect id="rect32677" height="2.8899" width="8.0899" stroke="#816647" y="84.71" x="-547.35" stroke-width=".1" fill="url(#linearGradient33841)"/>
          <path id="path33031" d="m-478.33 36.05c-9.0552 0-17.074 4.4821-21.959 11.344l3.0379 3.0395c4.0679-6.1226 11.028-10.171 18.921-10.171 7.8934 0.000001 14.853 4.0488 18.921 10.171l3.014-3.0155c-4.8767-6.8709-12.873-11.368-21.935-11.368z" stroke="#816647" fill="#d9bb7a"/>
          <rect id="rect33033" height="37.507" width="24.492" stroke="#816647" y="50.86" x="-490.58" fill="#d9bb7a"/>
          <rect id="rect33035" height="30.759" width="20.039" stroke="#816647" y="54.234" x="-488.36" fill="#ace"/>
          <rect id="rect33037" height="37.786" width="4.7314" stroke="#816647" y="50.581" x="-495.87" stroke-width=".1" fill="url(#linearGradient33823)"/>
          <rect id="rect33039" height="5.4946" width="37.474" stroke="#816647" y="45.281" x="-496.71" fill="url(#linearGradient33820)"/>
          <rect id="rect33041" height="30.674" width="2.0999" stroke="#000" y="54.248" x="-479.5" stroke-width=".1" fill="#aaa"/>
          <rect id="use33043" height="37.786" width="4.7314" stroke="#816647" y="50.581" x="-466.02" stroke-width=".1" fill="url(#linearGradient33936)"/>
          <rect id="rect33045" transform="rotate(90)" height="19.347" width="2.1009" stroke="#000" y="468.77" x="68.535" stroke-width=".1" fill="#aaa"/>
          <rect id="rect33047" height="3.3724" width="40.857" stroke="#816647" y="87.609" x="-498.95" stroke-width=".1" fill="#816647"/>
          <rect id="rect33049" height="2.8899" width="8.0899" stroke="#816647" y="50.71" x="-467.87" stroke-width=".1" fill="url(#linearGradient33813)"/>
          <rect id="rect33051" height="2.8899" width="8.0899" stroke="#816647" y="50.71" x="-497.35" stroke-width=".1" fill="url(#linearGradient33810)"/>
          <rect id="rect33053" height="2.8899" width="8.0899" stroke="#816647" y="84.71" x="-467.87" stroke-width=".1" fill="url(#linearGradient33807)"/>
          <rect id="rect33055" height="2.8899" width="8.0899" stroke="#816647" y="84.71" x="-497.35" stroke-width=".1" fill="url(#linearGradient33804)"/>
          <path id="path33071" d="m-428.33 36.05c-9.0552 0-17.074 4.4821-21.959 11.344l3.0379 3.0395c4.0679-6.1226 11.028-10.171 18.921-10.171 7.8934 0.000001 14.853 4.0488 18.921 10.171l3.014-3.0155c-4.8767-6.8709-12.873-11.368-21.935-11.368z" stroke="#816647" fill="#d9bb7a"/>
          <rect id="rect33073" height="37.507" width="24.492" stroke="#816647" y="50.86" x="-440.58" fill="#d9bb7a"/>
          <rect id="rect33075" height="30.759" width="20.039" stroke="#816647" y="54.234" x="-438.36" fill="#ace"/>
          <rect id="rect33077" height="37.786" width="4.7314" stroke="#816647" y="50.581" x="-445.87" stroke-width=".1" fill="url(#linearGradient33798)"/>
          <rect id="rect33079" height="5.4946" width="37.474" stroke="#816647" y="45.281" x="-446.71" fill="url(#linearGradient33795)"/>
          <rect id="rect33081" height="30.674" width="2.0999" stroke="#000" y="54.248" x="-429.5" stroke-width=".1" fill="#aaa"/>
          <rect id="use33083" height="37.786" width="4.7314" stroke="#816647" y="50.581" x="-416.02" stroke-width=".1" fill="url(#linearGradient33940)"/>
          <rect id="rect33085" transform="rotate(90)" height="19.347" width="2.1009" stroke="#000" y="418.77" x="68.535" stroke-width=".1" fill="#aaa"/>
          <rect id="rect33087" height="3.3724" width="40.857" stroke="#816647" y="87.609" x="-448.95" stroke-width=".1" fill="#816647"/>
          <rect id="rect33089" height="2.8899" width="8.0899" stroke="#816647" y="50.71" x="-417.87" stroke-width=".1" fill="url(#linearGradient33788)"/>
          <rect id="rect33091" height="2.8899" width="8.0899" stroke="#816647" y="50.71" x="-447.35" stroke-width=".1" fill="url(#linearGradient33785)"/>
          <rect id="rect33093" height="2.8899" width="8.0899" stroke="#816647" y="84.71" x="-417.87" stroke-width=".1" fill="url(#linearGradient33782)"/>
          <rect id="rect33095" height="2.8899" width="8.0899" stroke="#816647" y="84.71" x="-447.35" stroke-width=".1" fill="url(#linearGradient33779)"/>
          <path id="path33111" d="m-378.33 36.05c-9.0552 0-17.074 4.4821-21.959 11.344l3.0379 3.0395c4.0679-6.1226 11.028-10.171 18.921-10.171 7.8934 0.000001 14.853 4.0488 18.921 10.171l3.014-3.0155c-4.8767-6.8709-12.873-11.368-21.935-11.368z" stroke="#816647" fill="#d9bb7a"/>
          <rect id="rect33113" height="37.507" width="24.492" stroke="#816647" y="50.86" x="-390.58" fill="#d9bb7a"/>
          <rect id="rect33115" height="30.759" width="20.039" stroke="#816647" y="54.234" x="-388.36" fill="#ace"/>
          <rect id="rect33117" height="37.786" width="4.7314" stroke="#816647" y="50.581" x="-395.87" stroke-width=".1" fill="url(#linearGradient33773)"/>
          <rect id="rect33119" height="5.4946" width="37.474" stroke="#816647" y="45.281" x="-396.71" fill="url(#linearGradient33770)"/>
          <rect id="rect33121" height="30.674" width="2.0999" stroke="#000" y="54.248" x="-379.5" stroke-width=".1" fill="#aaa"/>
          <rect id="use33123" height="37.786" width="4.7314" stroke="#816647" y="50.581" x="-366.02" stroke-width=".1" fill="url(#linearGradient33944)"/>
          <rect id="rect33125" transform="rotate(90)" height="19.347" width="2.1009" stroke="#000" y="368.77" x="68.535" stroke-width=".1" fill="#aaa"/>
          <rect id="rect33127" height="3.3724" width="40.857" stroke="#816647" y="87.609" x="-398.95" stroke-width=".1" fill="#816647"/>
          <rect id="rect33129" height="2.8899" width="8.0899" stroke="#816647" y="50.71" x="-367.87" stroke-width=".1" fill="url(#linearGradient33763)"/>
          <rect id="rect33131" height="2.8899" width="8.0899" stroke="#816647" y="50.71" x="-397.35" stroke-width=".1" fill="url(#linearGradient33760)"/>
          <rect id="rect33133" height="2.8899" width="8.0899" stroke="#816647" y="84.71" x="-367.87" stroke-width=".1" fill="url(#linearGradient33757)"/>
          <rect id="rect33135" height="2.8899" width="8.0899" stroke="#816647" y="84.71" x="-397.35" stroke-width=".1" fill="url(#linearGradient33754)"/>
          <path id="path32687" d="m-528.33 106.05c-9.0552 0-17.074 4.4821-21.959 11.344l3.0379 3.0395c4.0679-6.1226 11.028-10.171 18.921-10.171 7.8934 0 14.853 4.0488 18.921 10.171l3.014-3.0155c-4.8767-6.871-12.873-11.368-21.935-11.368z" stroke="#816647" fill="#d9bb7a"/>
          <rect id="rect32689" height="37.507" width="24.492" stroke="#816647" y="120.86" x="-540.58" fill="#d9bb7a"/>
          <rect id="rect32691" height="30.759" width="20.039" stroke="#816647" y="124.23" x="-538.36" fill="#ace"/>
          <rect id="rect32693" height="37.786" width="4.7314" stroke="#816647" y="120.58" x="-545.87" stroke-width=".1" fill="url(#linearGradient33748)"/>
          <rect id="rect32695" height="5.4946" width="37.474" stroke="#816647" y="115.28" x="-546.71" fill="url(#linearGradient33745)"/>
          <rect id="rect32697" height="30.674" width="2.0999" stroke="#000" y="124.25" x="-529.5" stroke-width=".1" fill="#aaa"/>
          <rect id="use32699" height="37.786" width="4.7314" stroke="#816647" y="120.58" x="-516.02" stroke-width=".1" fill="url(#linearGradient33948)"/>
          <rect id="rect32701" transform="rotate(90)" height="19.347" width="2.1009" stroke="#000" y="518.77" x="138.53" stroke-width=".1" fill="#aaa"/>
          <rect id="rect32703" height="3.3724" width="40.857" stroke="#816647" y="157.61" x="-548.95" stroke-width=".1" fill="#816647"/>
          <rect id="rect32705" height="2.8899" width="8.0899" stroke="#816647" y="120.71" x="-517.87" stroke-width=".1" fill="url(#linearGradient33738)"/>
          <rect id="rect32707" height="2.8899" width="8.0899" stroke="#816647" y="120.71" x="-547.35" stroke-width=".1" fill="url(#linearGradient33735)"/>
          <rect id="rect32709" height="2.8899" width="8.0899" stroke="#816647" y="154.71" x="-517.87" stroke-width=".1" fill="url(#linearGradient33732)"/>
          <rect id="rect32711" height="2.8899" width="8.0899" stroke="#816647" y="154.71" x="-547.35" stroke-width=".1" fill="url(#linearGradient33729)"/>
          <path id="path33231" d="m-478.33 106.05c-9.0552 0-17.074 4.4821-21.959 11.344l3.0379 3.0395c4.0679-6.1226 11.028-10.171 18.921-10.171 7.8934 0 14.853 4.0488 18.921 10.171l3.014-3.0155c-4.8767-6.871-12.873-11.368-21.935-11.368z" stroke="#816647" fill="#d9bb7a"/>
          <rect id="rect33233" height="37.507" width="24.492" stroke="#816647" y="120.86" x="-490.58" fill="#d9bb7a"/>
          <rect id="rect33235" height="30.759" width="20.039" stroke="#816647" y="124.23" x="-488.36" fill="#ace"/>
          <rect id="rect33237" height="37.786" width="4.7314" stroke="#816647" y="120.58" x="-495.87" stroke-width=".1" fill="url(#linearGradient33711)"/>
          <rect id="rect33239" height="5.4946" width="37.474" stroke="#816647" y="115.28" x="-496.71" fill="url(#linearGradient33708)"/>
          <rect id="rect33241" height="30.674" width="2.0999" stroke="#000" y="124.25" x="-479.5" stroke-width=".1" fill="#aaa"/>
          <rect id="use33243" height="37.786" width="4.7314" stroke="#816647" y="120.58" x="-466.02" stroke-width=".1" fill="url(#linearGradient33952)"/>
          <rect id="rect33245" transform="rotate(90)" height="19.347" width="2.1009" stroke="#000" y="468.77" x="138.53" stroke-width=".1" fill="#aaa"/>
          <rect id="rect33247" height="3.3724" width="40.857" stroke="#816647" y="157.61" x="-498.95" stroke-width=".1" fill="#816647"/>
          <rect id="rect33249" height="2.8899" width="8.0899" stroke="#816647" y="120.71" x="-467.87" stroke-width=".1" fill="url(#linearGradient33701)"/>
          <rect id="rect33251" height="2.8899" width="8.0899" stroke="#816647" y="120.71" x="-497.35" stroke-width=".1" fill="url(#linearGradient33698)"/>
          <rect id="rect33253" height="2.8899" width="8.0899" stroke="#816647" y="154.71" x="-467.87" stroke-width=".1" fill="url(#linearGradient33695)"/>
          <rect id="rect33255" height="2.8899" width="8.0899" stroke="#816647" y="154.71" x="-497.35" stroke-width=".1" fill="url(#linearGradient33692)"/>
          <path id="path33191" d="m-428.33 106.05c-9.0552 0-17.074 4.4821-21.959 11.344l3.0379 3.0395c4.0679-6.1226 11.028-10.171 18.921-10.171 7.8934 0 14.853 4.0488 18.921 10.171l3.014-3.0155c-4.8767-6.871-12.873-11.368-21.935-11.368z" stroke="#816647" fill="#d9bb7a"/>
          <rect id="rect33193" height="37.507" width="24.492" stroke="#816647" y="120.86" x="-440.58" fill="#d9bb7a"/>
          <rect id="rect33195" height="30.759" width="20.039" stroke="#816647" y="124.23" x="-438.36" fill="#ace"/>
          <rect id="rect33197" height="37.786" width="4.7314" stroke="#816647" y="120.58" x="-445.87" stroke-width=".1" fill="url(#linearGradient33686)"/>
          <rect id="rect33199" height="5.4946" width="37.474" stroke="#816647" y="115.28" x="-446.71" fill="url(#linearGradient33683)"/>
          <rect id="rect33201" height="30.674" width="2.0999" stroke="#000" y="124.25" x="-429.5" stroke-width=".1" fill="#aaa"/>
          <rect id="use33203" height="37.786" width="4.7314" stroke="#816647" y="120.58" x="-416.02" stroke-width=".1" fill="url(#linearGradient33956)"/>
          <rect id="rect33205" transform="rotate(90)" height="19.347" width="2.1009" stroke="#000" y="418.77" x="138.53" stroke-width=".1" fill="#aaa"/>
          <rect id="rect33207" height="3.3724" width="40.857" stroke="#816647" y="157.61" x="-448.95" stroke-width=".1" fill="#816647"/>
          <rect id="rect33209" height="2.8899" width="8.0899" stroke="#816647" y="120.71" x="-417.87" stroke-width=".1" fill="url(#linearGradient33676)"/>
          <rect id="rect33211" height="2.8899" width="8.0899" stroke="#816647" y="120.71" x="-447.35" stroke-width=".1" fill="url(#linearGradient33673)"/>
          <rect id="rect33213" height="2.8899" width="8.0899" stroke="#816647" y="154.71" x="-417.87" stroke-width=".1" fill="url(#linearGradient33670)"/>
          <rect id="rect33215" height="2.8899" width="8.0899" stroke="#816647" y="154.71" x="-447.35" stroke-width=".1" fill="url(#linearGradient33667)"/>
          <path id="path33151" d="m-378.33 106.05c-9.0552 0-17.074 4.4821-21.959 11.344l3.0379 3.0395c4.0679-6.1226 11.028-10.171 18.921-10.171 7.8934 0 14.853 4.0488 18.921 10.171l3.014-3.0155c-4.8767-6.871-12.873-11.368-21.935-11.368z" stroke="#816647" fill="#d9bb7a"/>
          <rect id="rect33153" height="37.507" width="24.492" stroke="#816647" y="120.86" x="-390.58" fill="#d9bb7a"/>
          <rect id="rect33155" height="30.759" width="20.039" stroke="#816647" y="124.23" x="-388.36" fill="#ace"/>
          <rect id="rect33157" height="37.786" width="4.7314" stroke="#816647" y="120.58" x="-395.87" stroke-width=".1" fill="url(#linearGradient33661)"/>
          <rect id="rect33159" height="5.4946" width="37.474" stroke="#816647" y="115.28" x="-396.71" fill="url(#linearGradient33658)"/>
          <rect id="rect33161" height="30.674" width="2.0999" stroke="#000" y="124.25" x="-379.5" stroke-width=".1" fill="#aaa"/>
          <rect id="use33163" height="37.786" width="4.7314" stroke="#816647" y="120.58" x="-366.02" stroke-width=".1" fill="url(#linearGradient33960)"/>
          <rect id="rect33165" transform="rotate(90)" height="19.347" width="2.1009" stroke="#000" y="368.77" x="138.53" stroke-width=".1" fill="#aaa"/>
          <rect id="rect33167" height="3.3724" width="40.857" stroke="#816647" y="157.61" x="-398.95" stroke-width=".1" fill="#816647"/>
          <rect id="rect33169" height="2.8899" width="8.0899" stroke="#816647" y="120.71" x="-367.87" stroke-width=".1" fill="url(#linearGradient33651)"/>
          <rect id="rect33171" height="2.8899" width="8.0899" stroke="#816647" y="120.71" x="-397.35" stroke-width=".1" fill="url(#linearGradient33648)"/>
          <rect id="rect33173" height="2.8899" width="8.0899" stroke="#816647" y="154.71" x="-367.87" stroke-width=".1" fill="url(#linearGradient33645)"/>
          <rect id="rect33175" height="2.8899" width="8.0899" stroke="#816647" y="154.71" x="-397.35" stroke-width=".1" fill="url(#linearGradient33642)"/>
          <rect id="use32719" height="7.7977" width="224.23" stroke="#565248" y="161.11" x="-566.25" fill="#d9bb7a"/>
          <path id="path33271" d="m-528.33 176.05c-9.0552 0-17.074 4.4821-21.959 11.344l3.0379 3.0395c4.0679-6.1226 11.028-10.171 18.921-10.171 7.8934 0 14.853 4.0488 18.921 10.171l3.014-3.0155c-4.8767-6.871-12.873-11.368-21.935-11.368z" stroke="#816647" fill="#d9bb7a"/>
          <rect id="rect33273" height="37.507" width="24.492" stroke="#816647" y="190.86" x="-540.58" fill="#d9bb7a"/>
          <rect id="rect33275" height="30.759" width="20.039" stroke="#816647" y="194.23" x="-538.36" fill="#ace"/>
          <rect id="rect33277" height="37.786" width="4.7314" stroke="#816647" y="190.58" x="-545.87" stroke-width=".1" fill="url(#linearGradient33636)"/>
          <rect id="rect33279" height="5.4946" width="37.474" stroke="#816647" y="185.28" x="-546.71" fill="url(#linearGradient33633)"/>
          <rect id="rect33281" height="30.674" width="2.0999" stroke="#000" y="194.25" x="-529.5" stroke-width=".1" fill="#aaa"/>
          <rect id="use33283" height="37.786" width="4.7314" stroke="#816647" y="190.58" x="-516.02" stroke-width=".1" fill="url(#linearGradient33964)"/>
          <rect id="rect33285" transform="rotate(90)" height="19.347" width="2.1009" stroke="#000" y="518.77" x="208.53" stroke-width=".1" fill="#aaa"/>
          <rect id="rect33287" height="3.3724" width="40.857" stroke="#816647" y="227.61" x="-548.95" stroke-width=".1" fill="#816647"/>
          <rect id="rect33289" height="2.8899" width="8.0899" stroke="#816647" y="190.71" x="-517.87" stroke-width=".1" fill="url(#linearGradient33626)"/>
          <rect id="rect33291" height="2.8899" width="8.0899" stroke="#816647" y="190.71" x="-547.35" stroke-width=".1" fill="url(#linearGradient33623)"/>
          <rect id="rect33293" height="2.8899" width="8.0899" stroke="#816647" y="224.71" x="-517.87" stroke-width=".1" fill="url(#linearGradient33620)"/>
          <rect id="rect33295" height="2.8899" width="8.0899" stroke="#816647" y="224.71" x="-547.35" stroke-width=".1" fill="url(#linearGradient33617)"/>
          <path id="path33311" d="m-378.33 176.05c-9.0552 0-17.074 4.4821-21.959 11.344l3.0379 3.0395c4.0679-6.1226 11.028-10.171 18.921-10.171 7.8934 0 14.853 4.0488 18.921 10.171l3.014-3.0155c-4.8767-6.871-12.873-11.368-21.935-11.368z" stroke="#816647" fill="#d9bb7a"/>
          <rect id="rect33313" height="37.507" width="24.492" stroke="#816647" y="190.86" x="-390.58" fill="#d9bb7a"/>
          <rect id="rect33315" height="30.759" width="20.039" stroke="#816647" y="194.23" x="-388.36" fill="#ace"/>
          <rect id="rect33317" height="37.786" width="4.7314" stroke="#816647" y="190.58" x="-395.87" stroke-width=".1" fill="url(#linearGradient33611)"/>
          <rect id="rect33319" height="5.4946" width="37.474" stroke="#816647" y="185.28" x="-396.71" fill="url(#linearGradient33608)"/>
          <rect id="rect33321" height="30.674" width="2.0999" stroke="#000" y="194.25" x="-379.5" stroke-width=".1" fill="#aaa"/>
          <rect id="use33323" height="37.786" width="4.7314" stroke="#816647" y="190.58" x="-366.02" stroke-width=".1" fill="url(#linearGradient33968)"/>
          <rect id="rect33325" transform="rotate(90)" height="19.347" width="2.1009" stroke="#000" y="368.77" x="208.53" stroke-width=".1" fill="#aaa"/>
          <rect id="rect33327" height="3.3724" width="40.857" stroke="#816647" y="227.61" x="-398.95" stroke-width=".1" fill="#816647"/>
          <rect id="rect33329" height="2.8899" width="8.0899" stroke="#816647" y="190.71" x="-367.87" stroke-width=".1" fill="url(#linearGradient33601)"/>
          <rect id="rect33331" height="2.8899" width="8.0899" stroke="#816647" y="190.71" x="-397.35" stroke-width=".1" fill="url(#linearGradient33598)"/>
          <rect id="rect33333" height="2.8899" width="8.0899" stroke="#816647" y="224.71" x="-367.87" stroke-width=".1" fill="url(#linearGradient33595)"/>
          <rect id="rect33335" height="2.8899" width="8.0899" stroke="#816647" y="224.71" x="-397.35" stroke-width=".1" fill="url(#linearGradient33592)"/>
          <rect id="rect32725" height="7.1774" width="225.57" stroke="#565248" y="169.14" x="-566.69" fill="url(#linearGradient32971)"/>
          <path id="path32729" d="m-479.19 172.41c-12.267 0-22.305 9.6337-22.969 21.75h-0.0312v67.593h46v-67.593h-0.0312c-0.66366-12.116-10.701-21.75-22.969-21.75z" stroke="#565248" fill="#fdd99b"/>
          <path id="path32731" d="m-479.19 176.84c-10.204 0-18.554 8.0303-19.106 18.13h-0.026v67.344h38.264v-67.344h-0.026c-0.55205-10.1-8.9017-18.13-19.106-18.13z" stroke="#565248" fill="#816647"/>
          <path id="path33581" d="m-429.19 172.41c-12.267 0-22.305 9.6337-22.969 21.75h-0.0312v67.593h46v-67.593h-0.0312c-0.66366-12.116-10.701-21.75-22.969-21.75z" stroke="#565248" fill="#fdd99b"/>
          <path id="path33583" d="m-429.19 176.84c-10.204 0-18.554 8.0303-19.106 18.13h-0.026v67.344h38.264v-67.344h-0.026c-0.55205-10.1-8.9017-18.13-19.106-18.13z" stroke="#565248" fill="#816647"/>
          <rect id="use32735" height="7.7977" width="224.23" stroke="#565248" y="23.109" x="-566.25" fill="#d9bb7a"/>
        </g>
      </g>
    </g>
    <g id="g13423" transform="matrix(.052721 0 0 .052721 80.958 9.211)">
      <path id="path3185" filter="url(#filter3239)" d="m1206.6 429.38c-137.87 1.7484-255.26 88.927-301.66 211h-120.19l-36.094 97.125h135.56c-0.36063 6.2879-0.53125 12.622-0.53125 19 0 11.436 0.57201 22.741 1.7188 33.875h-100.66l-36.094 97.125h162.38c50.542 115.43 165.77 196.16 299.78 196.16 48.186 0 93.952-10.422 135.16-29.156l-87.562-87.562c-15.316 3.4539-31.24 5.2812-47.594 5.2812-69.814 0-131.89-33.233-171.31-84.719h123.69l36.094-97.125h-201.5c-1.7425-11.036-2.6562-22.351-2.6562-33.875 0-6.4049 0.29624-12.736 0.84375-19h167.22l36.094-97.125h-170.22c38.338-59.879 105.42-99.594 181.75-99.594 28.996 0 56.642 5.7662 81.906 16.156l56.062-97.062c-41.936-19.55-88.675-30.5-137.97-30.5-1.4109 0-2.8122-0.0178-4.2188 0z"/>
      <path id="path2390" stroke-linejoin="round" d="m1201.6 423.38c-137.87 1.7484-255.26 88.927-301.66 211h-120.19l-36.094 97.125h135.56c-0.36063 6.2879-0.53125 12.622-0.53125 19 0 11.436 0.57201 22.741 1.7188 33.875h-100.66l-36.094 97.125h162.38c50.542 115.43 165.77 196.16 299.78 196.16 48.186 0 93.952-10.422 135.16-29.156l-87.562-87.562c-15.316 3.4539-31.24 5.2812-47.594 5.2812-69.814 0-131.89-33.233-171.31-84.719h123.69l36.094-97.125h-201.5c-1.7425-11.036-2.6562-22.351-2.6562-33.875 0-6.4049 0.29624-12.736 0.84375-19h167.22l36.094-97.125h-170.22c38.338-59.879 105.42-99.594 181.75-99.594 28.996 0 56.642 5.7662 81.906 16.156l56.062-97.062c-41.936-19.55-88.675-30.5-137.97-30.5-1.4109 0-2.8122-0.0178-4.2188 0z" stroke-opacity=".50644" stroke="#2b2200" stroke-linecap="round" stroke-width="10" fill="url(#radialGradient6047)"/>
    </g>
  </g>
  <metadata>
    <rdf:RDF>
      <cc:Work>
        <dc:format>image/svg+xml</dc:format>
        <dc:type rdf:resource="http://purl.org/dc/dcmitype/StillImage"/>
        <cc:license rdf:resource="http://creativecommons.org/licenses/publicdomain/"/>
        <dc:publisher>
          <cc:Agent rdf:about="http://openclipart.org/">
            <dc:title>Openclipart</dc:title>
          </cc:Agent>
        </dc:publisher>
        <dc:title>Bank building with euro sign</dc:title>
        <dc:date>2010-03-24T10:15:15</dc:date>
        <dc:description>Bank building with euro sign</dc:description>
        <dc:source>http://openclipart.org/detail/33727/bank-building-with-euro-sign-by-ernes</dc:source>
        <dc:creator>
          <cc:Agent>
            <dc:title>ernes</dc:title>
          </cc:Agent>
        </dc:creator>
        <dc:subject>
          <rdf:Bag>
            <rdf:li>banca</rdf:li>
            <rdf:li>bank</rdf:li>
            <rdf:li>building</rdf:li>
            <rdf:li>casa</rdf:li>
            <rdf:li>clip art</rdf:li>
            <rdf:li>clipart</rdf:li>
            <rdf:li>costruzione</rdf:li>
            <rdf:li>euro</rdf:li>
            <rdf:li>house</rdf:li>
            <rdf:li>palazzo</rdf:li>
          </rdf:Bag>
        </dc:subject>
      </cc:Work>
      <cc:License rdf:about="http://creativecommons.org/licenses/publicdomain/">
        <cc:permits rdf:resource="http://creativecommons.org/ns#Reproduction"/>
        <cc:permits rdf:resource="http://creativecommons.org/ns#Distribution"/>
        <cc:permits rdf:resource="http://creativecommons.org/ns#DerivativeWorks"/>
      </cc:License>
    </rdf:RDF>
  </metadata>
</svg>
