<?xml version="1.0"?>
<svg xmlns:rdf="http://www.w3.org/1999/02/22-rdf-syntax-ns#" xmlns="http://www.w3.org/2000/svg" xmlns:sodipodi="http://inkscape.sourceforge.net/DTD/sodipodi-0.dtd" xmlns:cc="http://web.resource.org/cc/" xmlns:xlink="http://www.w3.org/1999/xlink" xmlns:dc="http://purl.org/dc/elements/1.1/" xmlns:svg="http://www.w3.org/2000/svg" id="svg2" viewBox="0 0 140 190" sodipodi:version="0.32" version="1.0" y="0" x="0" sodipodi:docname="white_h_j.svg" sodipodi:docbase="/home/nicu/Desktop/card_nicu_buculei_01.zip_FILES/cards/white">
  <sodipodi:namedview id="base" bordercolor="#666666" borderopacity="1.0" pagecolor="#ffffff"/>
  <defs id="defs3">
    <linearGradient id="linearGradient5407">
      <stop id="stop5409" stop-color="#f0eb00" offset="0"/>
      <stop id="stop5411" stop-color="#ff0" offset="1"/>
    </linearGradient>
    <linearGradient id="linearGradient3196">
      <stop id="stop3198" stop-color="#008200" offset="0"/>
      <stop id="stop3200" stop-color="#00d000" offset="1"/>
    </linearGradient>
    <linearGradient id="linearGradient21044" x1="104.75" xlink:href="#linearGradient5407" gradientUnits="userSpaceOnUse" x2="109.5" y1="57.469" y2="55.781"/>
    <linearGradient id="linearGradient1402" x1="652.3" gradientUnits="userSpaceOnUse" x2="410.91" gradientTransform="matrix(.18685 0 0 .14486 -5.3384 38.237)" y1="77.395" y2="344.42">
      <stop id="stop2582" stop-color="#fff" offset="0"/>
      <stop id="stop2584" stop-color="#fff" stop-opacity="0" offset="1"/>
    </linearGradient>
    <linearGradient id="linearGradient1406" x1="93.5" xlink:href="#linearGradient3196" gradientUnits="userSpaceOnUse" x2="117.14" gradientTransform="translate(-35.991 2.4696)" y1="62.938" y2="57.702"/>
    <linearGradient id="linearGradient1409" x1="103.56" xlink:href="#linearGradient5407" gradientUnits="userSpaceOnUse" x2="111.88" gradientTransform="translate(-39.518 2.5946)" y1="65.109" y2="62.671"/>
    <linearGradient id="linearGradient1412" x1="137.88" gradientUnits="userSpaceOnUse" x2="144.19" gradientTransform="translate(-76.637 -172.25)" y1="284.84" y2="281.23">
      <stop id="stop3867" stop-color="#0083cc" offset="0"/>
      <stop id="stop3869" stop-color="#24a4cc" offset="1"/>
    </linearGradient>
    <linearGradient id="linearGradient1415" x1="101.39" xlink:href="#linearGradient5407" gradientUnits="userSpaceOnUse" x2="105.55" gradientTransform="translate(-35.991 2.4696)" y1="124.16" y2="120.97"/>
    <linearGradient id="linearGradient1422" x1="294.25" gradientUnits="userSpaceOnUse" x2="312.09" gradientTransform="matrix(.14486 0 0 .14486 17.456 51.558)" y1="346.33" y2="322.14">
      <stop id="stop6216" stop-color="#c10000" offset="0"/>
      <stop id="stop6218" stop-color="#ff433e" offset="1"/>
    </linearGradient>
    <linearGradient id="linearGradient1434" x1="298.99" xlink:href="#linearGradient3196" gradientUnits="userSpaceOnUse" x2="449.32" gradientTransform="matrix(.14486 0 0 .14486 19.577 50.205)" y1="540.54" y2="415.54"/>
    <linearGradient id="linearGradient1437" x1="356.44" gradientUnits="userSpaceOnUse" x2="484.8" gradientTransform="matrix(.18682 0 0 .14486 -5.3365 38.225)" y1="437.5" y2="256.18">
      <stop id="stop3859" stop-color="#ffd8c1" offset="0"/>
      <stop id="stop3861" stop-color="#ffeded" offset="1"/>
    </linearGradient>
  </defs>
  <g id="layer1">
    <g id="g5630">
      <path id="rect2070" d="m21 5h103c8.86 0 16 7.136 16 16v153c0 8.86-7.14 16-16 16h-103c-8.864 0-16-7.14-16-16v-153c0-8.864 7.136-16 16-16z" fill-opacity=".49804"/>
      <path id="rect1300" d="m17 1h103c8.86 0 16 7.136 16 16v153c0 8.86-7.14 16-16 16h-103c-8.864 0-16-7.14-16-16v-153c0-8.864 7.136-16 16-16z" fill="#e7e7e7"/>
      <path id="path5624" d="m19 3h103c8.86 0 16 7.136 16 16v153c0 8.86-7.14 16-16 16h-103c-8.864 0-16-7.14-16-16v-153c0-8.864 7.136-16 16-16z" fill="#c7891f"/>
      <path id="rect1306" d="m18 2h103c8.86 0 16 7.136 16 16v153c0 8.86-7.14 16-16 16h-103c-8.864 0-16-7.14-16-16v-153c0-8.864 7.136-16 16-16z" fill="#fff"/>
    </g>
  </g>
  <path id="text1386" d="m18.924 11.994h6.396v21.358c0 2.947-0.842 5.15-2.525 6.608-1.673 1.457-4.209 2.186-7.609 2.186h-1.296v-4.611h0.997c1.329 0 2.331-0.354 3.007-1.061 0.686-0.708 1.03-1.748 1.03-3.122v-21.358" fill="#f00"/>
  <g id="g1390" transform="matrix(.28639 0 0 .38877 -29.608 -9.4724)" fill="#f00">
    <path id="path1392" fill-rule="evenodd" transform="matrix(1.1054 0 0 1.0796 -12.014 -18.867)" d="m147.21 156.42c-2.54 0.01-5.33 0.48-8.41 1.53-33.62 19.53 11.7 51.04 30.84 78.09l0.56 0.14c21.03-29.57 61.07-62.11 30.47-78.23-24.23-8.25-30.71 19.2-30.93 20.19-0.2-0.87-5.15-21.81-22.53-21.72z"/>
  </g>
  <path id="text15764" d="m119.94 177.01h-6.39v-21.36c0-2.95 0.84-5.15 2.52-6.61 1.67-1.46 4.21-2.19 7.61-2.19h1.3v4.61h-1c-1.33 0-2.33 0.36-3.01 1.07-0.68 0.7-1.03 1.74-1.03 3.12v21.36" fill="#f00"/>
  <g id="g15768" transform="matrix(-.28643 0 0 -.38877 168.48 198.31)" fill="#f00">
    <path id="path15770" fill-rule="evenodd" transform="matrix(1.1054 0 0 1.0796 -12.014 -18.867)" d="m147.21 156.42c-2.54 0.01-5.33 0.48-8.41 1.53-33.62 19.53 11.7 51.04 30.84 78.09l0.56 0.14c21.03-29.57 61.07-62.11 30.47-78.23-24.23-8.25-30.71 19.2-30.93 20.19-0.2-0.87-5.15-21.81-22.53-21.72z"/>
  </g>
  <g id="g1440">
    <path id="path1853" sodipodi:nodetypes="cccccccccccccccccc" d="m67.892 54.313c-5.972 3.774-13.47-3.165-17.453 4.88-3.495 4.782 7.53 6.173 0.57 10.424-4.757 5.124-4.477 7.38-0.37 8.007-1.182 5.664-0.32 15.171 2.275 20.356-3.212 3.9-0.805 2.56 3.552 3.38-1.354 2.15-0.576 10.05-5.207 12.48-2.331 7.03-0.583 14.65-1.125 21.91 11.275 4.75 24.625 5.29 35.403 2.76 4.738-0.99 10.145-1.37 9.191-8.13 0.283-8.43 1.282-19.52-7.91-23.83-5.374-0.76-7.165-4.39-3.041-9.554 3.063-8.358 6.44-4.861 11.144-6.975 4.901-1.311-7.002-4.539-5.43-9.977-1.522-4.254-3.383-9.258-6.43-12.711 7.679-0.69 8.502-8.698 2.26-10.332-6.186-4.122-9.837 2.914-14.544-2.375-0.78-0.013-2.103-0.504-2.885-0.313z"/>
    <path id="path1857" d="m85.235 85.573c0 11.413-7.564 20.677-16.883 20.677-9.32 0-16.884-9.264-16.884-20.677 0-11.414 7.564-20.677 16.884-20.677 9.319 0 16.883 9.263 16.883 20.677z" fill="url(#linearGradient1437)"/>
    <path id="path1859" sodipodi:nodetypes="ccccccc" fill="url(#linearGradient1434)" d="m64.845 106.73c-7.049 0-12.725 5.67-12.725 12.72v14.93c9.38 4.65 29.526 4.89 40.619 0v-14.93c0-7.05-5.676-12.72-12.725-12.72h-15.169z"/>
    <path id="path1861" sodipodi:nodetypes="cccccc" fill-rule="evenodd" fill="#8d0000" d="m49.638 75.941c2.527-4.528 5.054-13.18 19.127-13.09 21.84 0.639 16.63 23.381 24.451 25.835-4.853 1.578-7.299 2.929-14.541 0.43 0.792-5.698-0.5-9.878-3.925-12.815-4.269 2.239-20.739 1.175-25.112-0.36z"/>
    <g id="g1863" transform="matrix(.14486 0 0 .097903 17.258 62.288)">
      <path id="path1865" transform="translate(-4 -6)" fill="#fff" d="m353 245.86c0 11.87-9.41 21.5-21 21.5s-21-9.63-21-21.5 9.41-21.5 21-21.5 21 9.63 21 21.5z"/>
      <path id="path1867" transform="matrix(.57143 0 0 .83721 129.29 34.524)" fill="#04cd04" d="m353 245.86c0 11.87-9.41 21.5-21 21.5s-21-9.63-21-21.5 9.41-21.5 21-21.5 21 9.63 21 21.5z"/>
      <path id="path1869" transform="matrix(.35714 0 0 .67442 195.93 76.048)" d="m353 245.86c0 11.87-9.41 21.5-21 21.5s-21-9.63-21-21.5 9.41-21.5 21-21.5 21 9.63 21 21.5z"/>
    </g>
    <g id="g1871" transform="matrix(.14486 0 0 .097903 7.1694 61.948)">
      <path id="path1873" transform="translate(-4 -6)" fill="#fff" d="m353 245.86c0 11.87-9.41 21.5-21 21.5s-21-9.63-21-21.5 9.41-21.5 21-21.5 21 9.63 21 21.5z"/>
      <path id="path1875" transform="matrix(.57143 0 0 .83721 129.29 34.524)" fill="#0ecf0e" d="m353 245.86c0 11.87-9.41 21.5-21 21.5s-21-9.63-21-21.5 9.41-21.5 21-21.5 21 9.63 21 21.5z"/>
      <path id="path1877" transform="matrix(.35714 0 0 .67442 195.93 76.048)" d="m353 245.86c0 11.87-9.41 21.5-21 21.5s-21-9.63-21-21.5 9.41-21.5 21-21.5 21 9.63 21 21.5z"/>
    </g>
    <path id="path1879" sodipodi:nodetypes="ccc" fill-rule="evenodd" fill="url(#linearGradient1422)" d="m56.801 98.955c1.849 3.625 6.901 1.945 11.728 0-5.324 0.559-8.993 0.969-11.728 0z"/>
    <path id="path1881" sodipodi:nodetypes="ccccc" fill="#005a00" d="m78.942 122.61l1.264 0.12 1.371 14.51-3.465 0.47 0.83-15.1z"/>
    <path id="path1883" sodipodi:nodetypes="ccccccc" fill-rule="evenodd" d="m58.999 86.897c-0.792 1.287-1.945 3.402-1.781 4.375 0.164 0.972 1.652 0.762 2.442 1.323l0.331-0.478c-0.695-0.493-1.783-0.008-1.918-0.808-0.135-0.799 0.681-2.915 1.422-4.118l-0.496-0.294z"/>
    <path id="path1885" sodipodi:nodetypes="cccc" fill-rule="evenodd" fill="#8d0000" d="m60.293 94.55c-3.804 0.378-6.134 3.301-8.061 5.42 0 0 6.237-3.456 8.201-3.386-0.14-0.491 0.07-1.122-0.14-2.034z"/>
    <path id="path1887" sodipodi:nodetypes="cccc" fill-rule="evenodd" fill="#8d0000" d="m61.161 94.405c3.382 0.346 9.846 2.97 10.146 5.46 0 0-7.885-4.218-9.739-3.563-0.013-0.511-0.335-0.964-0.407-1.897z"/>
    <path id="path1889" sodipodi:nodetypes="ccccc" fill-rule="evenodd" fill="url(#linearGradient1415)" d="m58.633 108.4c3.633 11.22 8.704 20.95 14.462 29.54l3.686-0.11c-5.738-9.21-11.725-19.6-15.151-30.81 0 0-2.036 0.62-2.997 1.38z"/>
    <path id="path1891" sodipodi:nodetypes="ccccccccccccc" fill-rule="evenodd" fill="url(#linearGradient1412)" d="m56.051 104.88l-0.25 10.25 9.313-5.69v1.44l3.687 0.31-0.062-1.93 12.124 5.43-1.25-12.06-10.687 5.44-0.25-1.81-3.75-0.25v1.93l-8.875-3.06z"/>
    <path id="path1893" sodipodi:nodetypes="ccccc" fill-rule="evenodd" fill="url(#linearGradient1409)" d="m55.856 64.782l-0.537 2.6c7.667 2.229 17.908 1.877 26.762 0.919-0.018-0.359-0.35-2.519-0.35-2.519-8.52 0.875-19.416 0.813-25.875-1z"/>
    <path id="path1895" sodipodi:nodetypes="ccc" fill-rule="evenodd" fill="url(#linearGradient1406)" d="m68.106 66.345c28.521 3.833 23.48-13.396 1.563-7.625-21.146-7.459-26.229 9.833-1.563 7.625z"/>
    <path id="path1897" sodipodi:rx="3.7187500" sodipodi:ry="1.6562500" sodipodi:type="arc" d="m110.81 56.406a3.7188 1.6562 0 1 1 -7.43 0 3.7188 1.6562 0 1 1 7.43 0z" transform="translate(-38.331 1.5321)" sodipodi:cy="56.406250" sodipodi:cx="107.09375" fill="url(#linearGradient21044)"/>
    <path id="path1899" d="m68.768 56.294c-1.811 0-3.138 0.611-3.47 1.375-12.881-2.722-17.582 4.484-9.532 7.562l-0.406 2.063c-2.999 2.789-4.393 6.278-5.72 8.656 0.751 0.264 2.221 0.497 3.563 0.719-1.067 2.711-1.719 5.696-1.719 8.906 0 4.471 1.184 8.585 3.157 11.969-0.85 0.816-1.712 1.673-2.407 2.437 0 0 1.458-0.778 3.001-1.531 3.027 4.62 7.597 7.65 12.783 7.78l-3.095-0.22v0.72h-0.062c-0.916 0-1.828 0.1-2.688 0.28l-6.126-2.12-0.125 5.53c-2.329 2.3-3.782 5.48-3.782 9.03v14.94c4.958 2.45 12.894 3.61 20.941 3.5 0.013 0.02 0.018 0.04 0.031 0.06l3.688-0.09c-0.05-0.08-0.106-0.17-0.156-0.25 0.495-0.04 0.977-0.09 1.469-0.13v0.25l3.469-0.47v-0.03c4.135-0.58 8.022-1.46 11.158-2.84v-14.94c0-7.04-5.654-12.7-12.689-12.72l-0.438-4.09-8.032 4.09h-2.845l-0.062-0.47h-0.219c7.926-0.05 14.518-6.814 16.284-15.872 3.102 0.162 5.344-0.662 8.501-1.688-5.484-1.721-4.734-13.318-11.22-20.375 0.02-0.002 0.042 0.002 0.062 0-0.015-0.297-0.202-1.574-0.281-2.094 10.991-2.385 5.538-10.841-9.689-7.906 0.086-0.14 0.375-0.223 0.375-0.375 0-0.914-1.666-1.656-3.719-1.656z" fill="url(#linearGradient1402)"/>
  </g>
  <metadata>
    <rdf:RDF>
      <cc:Work>
        <dc:format>image/svg+xml</dc:format>
        <dc:type rdf:resource="http://purl.org/dc/dcmitype/StillImage"/>
        <cc:license rdf:resource="http://creativecommons.org/licenses/publicdomain/"/>
        <dc:publisher>
          <cc:Agent rdf:about="http://openclipart.org/">
            <dc:title>Openclipart</dc:title>
          </cc:Agent>
        </dc:publisher>
        <dc:title>White deck: Jack of hearts</dc:title>
        <dc:date>2009-03-24T12:28:24</dc:date>
        <dc:description>playing card from the "White" set</dc:description>
        <dc:source>http://openclipart.org/detail/23193/white-deck:-jack-of-hearts-by-nicubunu</dc:source>
        <dc:creator>
          <cc:Agent>
            <dc:title>nicubunu</dc:title>
          </cc:Agent>
        </dc:creator>
        <dc:subject>
          <rdf:Bag>
            <rdf:li>card</rdf:li>
            <rdf:li>cards</rdf:li>
            <rdf:li>clip art</rdf:li>
            <rdf:li>clipart</rdf:li>
            <rdf:li>deck</rdf:li>
            <rdf:li>gambling</rdf:li>
            <rdf:li>game</rdf:li>
            <rdf:li>image</rdf:li>
            <rdf:li>media</rdf:li>
            <rdf:li>play</rdf:li>
            <rdf:li>playing cards</rdf:li>
            <rdf:li>png</rdf:li>
            <rdf:li>public domain</rdf:li>
            <rdf:li>svg</rdf:li>
            <rdf:li>white deck</rdf:li>
          </rdf:Bag>
        </dc:subject>
      </cc:Work>
      <cc:License rdf:about="http://creativecommons.org/licenses/publicdomain/">
        <cc:permits rdf:resource="http://creativecommons.org/ns#Reproduction"/>
        <cc:permits rdf:resource="http://creativecommons.org/ns#Distribution"/>
        <cc:permits rdf:resource="http://creativecommons.org/ns#DerivativeWorks"/>
      </cc:License>
    </rdf:RDF>
  </metadata>
</svg>
