<?xml version="1.0"?>
<svg xmlns:rdf="http://www.w3.org/1999/02/22-rdf-syntax-ns#" xmlns="http://www.w3.org/2000/svg" xmlns:cc="http://creativecommons.org/ns#" xmlns:xlink="http://www.w3.org/1999/xlink" xmlns:dc="http://purl.org/dc/elements/1.1/" xmlns:svg="http://www.w3.org/2000/svg" id="svg2" viewBox="0 0 400 308" version="1.1">
  <g id="layer3">
    <g id="g3910">
      <path id="path3815" style="color:#000000" d="m181.72 11.312c-16.029 0.0749-34.896 5.1761-46.281 25.25-13.782 14.381-41.375 61.125-41.375 61.125-7.1907 7.7899-4.7578 20.275-0.59375 28.75 4.1641 8.4754-4.4162 25.493-8.25 31.781-3.8338 6.2882-38.318 46.019-15.531 52.938 0 0 11.815 2.1997 10.062 14.031 0 0-6.7319 6.2094 4.8125 11.375 2.3607 1.0563 8.6948 2.0558 16.219 5.7188 0 0-17.077 5.6734-8.3125 14.438 0 0 8.7542 0.0185 6.125 7.9062 0 0-8.764 52.585 55.094 18.594 19.276-7.9372 33.271-3.1194 33.25 26.469h141.31c-37.17-37.5-29.41-77.86-21.75-100.93 0 0 32.884-53.562 29.062-87.094-3.8151-33.474-10.186-46.746-37.75-67.719 0 0-33.544-22.17-86.875-37.75 0 0-13.19-4.9499-29.219-4.875z" stroke="#fca" stroke-width="2" fill="#ffe6d5"/>
      <g id="g3906" fill="#fca">
        <path id="path3808" style="color:#000000" d="m207.84 238.72s-41.436 37.962-93.469 55.594c8.2887 1.3443 20.725-1.1999 39.312-11.094 19.27-7.9348 33.232-3.0959 33.219 26.469h4.7188c-13.106-19.604 17.281-38.562 17.281-38.562-32.042 1.8662 15.133-16.445-1.0625-32.406z"/>
        <path id="path3823" style="color:#000000" d="m181.72 11.312c-16.029 0.0749-34.896 5.1761-46.281 25.25-13.782 14.381-41.375 61.125-41.375 61.125-7.1907 7.7899-4.7578 20.275-0.59375 28.75 4.1641 8.4754-4.4162 25.493-8.25 31.781-1.5739 2.5816-8.3016 10.824-14.125 20.094 6.6781 5.017 21.148 15.082 27.406 13.156 0 0 11.869-3.5778 15.344 2.0938 1.3476 2.1996 35.35 13.403 73.562 32.812 33.171 16.849 66.667 43.361 120.41 54.375-12.784-28.045-7.0185-54.819-1.3125-72 0 0 32.884-53.562 29.062-87.094-3.8151-33.474-10.186-46.746-37.75-67.719 0 0-33.544-22.17-86.875-37.75 0 0-13.19-4.9499-29.219-4.875z"/>
      </g>
    </g>
    <path id="path2993" style="color:#000000" d="m281.35 22.31s67.549 32.845 65.708 77.104-8.4323 79.391 4.8203 129.27c0 0 5.2585 11.393-1.7394 11.146-85.019-3.8479-229.38-49.574-313.58-86.761-5.8889-4.5778 4.1899-8.5216 4.1899-8.5216 30.571-25.04 72.37-107.26 84.58-120.95 20.58-23.06 72.36-23.6 72.36-23.6 36.563 0 83.662 22.31 83.662 22.31z" stroke="#5c3566" stroke-width="2" fill="#75507b"/>
    <path id="path3781" style="color:#000000" d="m43.643 145.72c114.4 47.032 230.29 81.618 305.92 84.319" stroke="#5c3566" stroke-dasharray="8, 2" fill="none"/>
    <g id="g3921">
      <path id="path2988" style="color:#000000" d="m349.25 120.01-0.87642 46.888s-185.36-34.18-270.37-76.248l24.98-42.947c79.268 35.513 227.79 63.901 246.27 72.304z" stroke="#5c3566" stroke-width="2" fill="#75507b"/>
      <g id="g3901">
        <path id="path3814" style="color:#000000" d="m214.27 87.009c3.9262 4.9337 2.6562 10.875 2.6562 10.875-1.7528 5.6967-9.2188 26.5-9.2188 26.5s-5.1152 5.6136-14.312 6.2812l-0.78125 2.0625c10.955 0.43821 17.094-6.3438 17.094-6.3438s7.4659-20.803 9.2188-26.5 1.6764-7.7167-4.6562-12.875z"/>
        <path id="path2990-7" style="color:#000000" d="m182.38 128.45c10.955 0.43821 17.09-6.354 17.09-6.354s7.4495-20.815 9.2024-26.512 2.191-10.079-7.8877-14.899" stroke="#5c3566" stroke-dasharray="4, 1" fill="none"/>
        <path id="path2990" style="color:#000000" d="m189.74 130.53c10.955 0.43821 17.09-6.354 17.09-6.354s7.4495-20.815 9.2024-26.512 2.191-10.079-7.8877-14.899" stroke="#5c3566" stroke-width="2" fill="none"/>
      </g>
      <g id="g3867">
        <path id="rect3766" stroke="#eee" stroke-width="2" fill="#cccccf" d="m165.38 62.375-19.5 61.562 37.906 11.469l19.46-61.566-37.87-11.469zm2.1562 8.5312 29.031 8.8125-14.938 47.156-29.031-8.7812 14.938-47.188z"/>
        <g id="g3860">
          <path id="path3772" style="block-progression:tb;color:#000000;text-transform:none;text-indent:0" d="m154.06 88.844-1.9375 5.6875 10.5 3.5938s1.8173-1.4087 2.134-2.42c0.31664-1.0113-0.19646-3.2675-0.19646-3.2675z" stroke="#eee" stroke-width="2" fill="#cccccf"/>
          <path id="path3778" d="m178.81 99.427a2.0126 2.0126 0 1 1 -4.0253 0 2.0126 2.0126 0 1 1 4.0253 0z"/>
          <path id="path3778-1" transform="translate(-34.003 -13.241)" d="m178.81 99.427a2.0126 2.0126 0 1 1 -4.0253 0 2.0126 2.0126 0 1 1 4.0253 0z"/>
        </g>
      </g>
    </g>
  </g>
  <metadata>
    <rdf:RDF>
      <cc:Work>
        <dc:format>image/svg+xml</dc:format>
        <dc:type rdf:resource="http://purl.org/dc/dcmitype/StillImage"/>
        <cc:license rdf:resource="http://creativecommons.org/licenses/publicdomain/"/>
        <dc:publisher>
          <cc:Agent rdf:about="http://openclipart.org/">
            <dc:title>Openclipart</dc:title>
          </cc:Agent>
        </dc:publisher>
        <dc:title>Sombrero Campana</dc:title>
        <dc:date>2013-08-29T01:26:55</dc:date>
        <dc:description>Just a female bell hat.</dc:description>
        <dc:source>http://openclipart.org/detail/182540/sombrero-campana-by-solvera-182540</dc:source>
        <dc:creator>
          <cc:Agent>
            <dc:title>SOlvera</dc:title>
          </cc:Agent>
        </dc:creator>
        <dc:subject>
          <rdf:Bag>
            <rdf:li>Fashion.</rdf:li>
            <rdf:li>Hat</rdf:li>
            <rdf:li>Summer</rdf:li>
            <rdf:li>Sun</rdf:li>
          </rdf:Bag>
        </dc:subject>
      </cc:Work>
      <cc:License rdf:about="http://creativecommons.org/licenses/publicdomain/">
        <cc:permits rdf:resource="http://creativecommons.org/ns#Reproduction"/>
        <cc:permits rdf:resource="http://creativecommons.org/ns#Distribution"/>
        <cc:permits rdf:resource="http://creativecommons.org/ns#DerivativeWorks"/>
      </cc:License>
    </rdf:RDF>
  </metadata>
</svg>
