<?xml version="1.0"?>
<svg xmlns:rdf="http://www.w3.org/1999/02/22-rdf-syntax-ns#" xmlns="http://www.w3.org/2000/svg" xmlns:cc="http://web.resource.org/cc/" xmlns:xlink="http://www.w3.org/1999/xlink" xmlns:dc="http://purl.org/dc/elements/1.1/" xmlns:svg="http://www.w3.org/2000/svg" id="svg2" viewBox="0 0 380.1 381.3" version="1.0">
  <defs id="defs4">
    <linearGradient id="linearGradient3442">
      <stop id="stop3444" stop-color="#fff" offset="0"/>
      <stop id="stop3446" stop-color="#fff" stop-opacity="0" offset="1"/>
    </linearGradient>
    <radialGradient id="radialGradient3622" gradientUnits="userSpaceOnUse" cy="277.22" cx="391.69" gradientTransform="matrix(.82251 -.82591 .94135 .93749 -190.71 334.76)" r="157.26">
      <stop id="stop3556" stop-color="#f8fd0c" offset="0"/>
      <stop id="stop3568" stop-color="#90ad0b" offset=".55932"/>
      <stop id="stop3570" stop-color="#5c850b" offset=".75"/>
      <stop id="stop3558" stop-color="#285d0b" offset="1"/>
    </radialGradient>
    <radialGradient id="radialGradient3351" gradientUnits="userSpaceOnUse" cy="340.94" cx="335.8" gradientTransform="matrix(1 0 0 .91971 0 27.374)" r="32.324">
      <stop id="stop3274" stop-color="#0f0" offset="0"/>
      <stop id="stop3276" stop-color="#007900" offset="1"/>
    </radialGradient>
    <radialGradient id="radialGradient3353" gradientUnits="userSpaceOnUse" cy="155.78" cx="153.02" gradientTransform="matrix(.98004 -.81383 .85922 1.0347 -133.84 117.77)" r="27.014">
      <stop id="stop3318" stop-color="#ffffc4" offset="0"/>
      <stop id="stop3321" stop-color="#fff" stop-opacity="0" offset="1"/>
    </radialGradient>
    <radialGradient id="radialGradient3355" gradientUnits="userSpaceOnUse" cy="175.6" cx="125.99" gradientTransform="matrix(-.72173 .68790 -.84486 -.88642 365.28 240.41)" r="34.234">
      <stop id="stop3331" offset="0"/>
      <stop id="stop3333" stop-opacity="0" offset="1"/>
    </radialGradient>
    <radialGradient id="radialGradient3383" gradientUnits="userSpaceOnUse" cy="215.43" cx="396.8" gradientTransform="matrix(1 -1.0913 1.0142 1.0042 -220.13 412.2)" r="101.24">
      <stop id="stop3548" stop-color="#fff" stop-opacity=".85859" offset="0"/>
      <stop id="stop3550" stop-color="#fff" stop-opacity="0" offset="1"/>
    </radialGradient>
    <radialGradient id="radialGradient3420" xlink:href="#linearGradient3442" gradientUnits="userSpaceOnUse" cy="468.35" cx="442.38" gradientTransform="matrix(3.5013 7.527e-7 -6.3706e-7 2.9634 -1106.5 -919.55)" r="58.478"/>
    <radialGradient id="radialGradient3422" xlink:href="#linearGradient3442" gradientUnits="userSpaceOnUse" cy="474.91" cx="284.03" gradientTransform="matrix(3.3667 -.075188 .069891 3.1295 -705.4 -989.97)" r="59.426"/>
    <clipPath id="clipPath3428" clipPathUnits="userSpaceOnUse">
      <path id="path3430" d="m70.687 108.06c9.137-8.525 83.663 17.97 107.54 33.58 14.82 9.69-14.56 39.24-29.31 45.99s-44.01 1.86-70.238-23.12c-16.656-15.86-17.38-47.7-7.995-56.45z" fill-rule="evenodd" stroke="#000" stroke-width="1.1947px" fill="url(#radialGradient3432)"/>
    </clipPath>
    <radialGradient id="radialGradient3432" xlink:href="#linearGradient3442" gradientUnits="userSpaceOnUse" cy="474.91" cx="284.03" gradientTransform="matrix(3.3667 -.075188 .069891 3.1295 -865.95 -1316.5)" r="59.426"/>
    <clipPath id="clipPath3434" clipPathUnits="userSpaceOnUse">
      <path id="path3436" d="m127.25 121.8c18.66-9.78 42.26-19.99 56.16-22.188 13.89-2.194 5.8 37.548-1.53 52.488-7.32 14.94-43.08 46.51-71.76 36.79-9.71-3.29-26.369-7.47-34.736-38.73-2.862-10.69 33.216-18.57 51.866-28.36z" fill-rule="evenodd" stroke="#000" stroke-width="1.1947px" fill="url(#radialGradient3438)"/>
    </clipPath>
    <radialGradient id="radialGradient3438" xlink:href="#linearGradient3442" gradientUnits="userSpaceOnUse" cy="468.35" cx="442.38" gradientTransform="matrix(3.5013 7.527e-7 -6.3706e-7 2.9634 -1415.8 -1242.8)" r="58.478"/>
    <radialGradient id="radialGradient3448" xlink:href="#linearGradient3442" gradientUnits="userSpaceOnUse" cy="488.79" cx="437.91" gradientTransform="matrix(-1.7687 .67608 -.16350 -.42772 1307.6 419.5)" r="53.476"/>
    <radialGradient id="radialGradient3452" xlink:href="#linearGradient3442" gradientUnits="userSpaceOnUse" cy="488.79" cx="437.91" gradientTransform="matrix(-1.7687 .67608 -.16350 -.42772 1164.7 421.59)" r="53.476"/>
    <linearGradient id="linearGradient3473" y2="545.75" gradientUnits="userSpaceOnUse" y1="561.35" x2="408.16" x1="410.11">
      <stop id="stop3469" stop-color="#fff" offset="0"/>
      <stop id="stop3471" stop-color="#cdc7cf" offset="1"/>
    </linearGradient>
    <linearGradient id="linearGradient3481" y2="598.79" gradientUnits="userSpaceOnUse" y1="598.79" x2="498.93" x1="383.6">
      <stop id="stop3477" stop-color="#f00" offset="0"/>
      <stop id="stop3479" stop-color="#f00" stop-opacity="0" offset="1"/>
    </linearGradient>
  </defs>
  <g id="layer1" transform="translate(-176.61 -282.57)">
    <path id="path3607" transform="matrix(1.2085 0 0 1.2383 -107.57 72.005)" d="m549.69 323.99a157.26 153.96 0 1 1 -314.53 0 157.26 153.96 0 1 1 314.53 0z"/>
    <path id="path3542" transform="matrix(1.1763 0 0 1.2135 -94.611 79.71)" fill="url(#radialGradient3622)" d="m549.69 323.99a157.26 153.96 0 1 1 -314.53 0 157.26 153.96 0 1 1 314.53 0z"/>
    <path id="path3381" transform="matrix(1.4436 0 0 1.4326 -206.86 41.066)" fill="url(#radialGradient3383)" d="m496.39 266.64a101.24 94.84 0 1 1 -202.47 0 101.24 94.84 0 1 1 202.47 0z"/>
    <path id="path3572" stroke-width="1.1947px" stroke="#000" fill-rule="evenodd" d="m218.05 428.61c57.77-9.45 85.97 32.05 143.6 29.93 53.44-1.92 92.7-42.05 149.49-45.37 56.8-3.33 9.71 6.91-0.2 8.33-9.92 1.43-8.22 50.67-24.03 67.3-15.81 16.62-64.98 46.7-91.5 12.49-26.53-34.2-43.9-25.42-63.15-0.3-14.24 18.58-45.76 27.5-88.39-0.31-28.91-18.86-16.9-61.78-24.93-61.96-22.26-0.51-38.85-5.58-0.89-10.11z"/>
    <path id="path3574" d="m231.24 434.57c9.14-8.52 83.66 17.97 107.55 33.59 14.82 9.68-14.56 39.23-29.31 45.99-14.76 6.75-44.02 1.85-70.24-23.13-16.66-15.86-17.38-47.7-8-56.45z" fill-rule="evenodd" stroke="#000" stroke-width="1.1947px" fill="url(#radialGradient3422)"/>
    <path id="path3576" d="m436.53 445.03c18.66-9.78 42.26-20 56.16-22.19 13.89-2.19 5.8 37.55-1.53 52.49-7.32 14.93-43.08 46.51-71.76 36.79-9.71-3.29-26.37-7.47-34.74-38.73-2.86-10.7 33.22-18.57 51.87-28.36z" fill-rule="evenodd" stroke="#000" stroke-width="1.1947px" fill="url(#radialGradient3420)"/>
    <path id="path3601" stroke-width="1.1947px" stroke="#000" fill-rule="evenodd" d="m316.15 577.43c41.14-25.74 161.2-61.92 186.16-45.92 24.95 16-16.19 77.23-29.68 86.98-13.49 9.74-101.17 70.97-156.48-41.06z"/>
    <path id="path3605" fill-rule="evenodd" fill="url(#linearGradient3481)" d="m383.6 635.19s3.37-52.89 52.61-69.58c49.24-16.7 62.72 6.26 62.72 6.26s-11.46 37.57-51.26 54.97c-39.79 17.39-62.72 9.74-64.07 8.35z"/>
    <path id="path3457" fill-rule="evenodd" fill="url(#linearGradient3473)" d="m497.62 537.69c-1.13-1.24-2.45-2.42-4.09-3.41-16.19-9.74-107.73 17.4-123.92 24.35-16.18 6.96-27.14 12.53-27.14 12.53l1.15 2.78 2.16-1.44s0.15 1.27 0.6 3.16c0.22 0.94 0.5 2.03 0.9 3.18 0.4 1.16 0.91 2.4 1.53 3.6s1.36 2.37 2.25 3.44c0.89 1.06 1.93 2.01 3.13 2.78 1.2 0.76 2.57 1.33 4.12 1.62 0.78 0.15 1.6 0.23 2.47 0.22s1.81-0.07 2.78-0.25c7.81-1.42 14.73-2.67 19.97-4 2.62-0.67 4.79-1.35 6.47-2.09 0.84-0.38 1.56-0.76 2.12-1.16 0.57-0.4 0.99-0.84 1.26-1.28 0.26-0.45 0.42-1.2 0.46-2.16 0.05-0.96 0-2.12-0.12-3.44-0.23-2.62-0.74-5.81-1.31-8.87-1.16-6.12-2.6-11.81-2.6-11.81s0.6 1.69 1.6 4.18c0.99 2.5 2.4 5.83 4.09 9.07 0.84 1.62 1.76 3.21 2.72 4.69 0.96 1.47 1.94 2.82 2.97 3.93 1.03 1.12 2.12 2 3.19 2.53 0.53 0.27 1.05 0.45 1.59 0.54 0.53 0.08 1.06 0.07 1.59-0.07 4.26-1.06 15.64-3.39 25.94-5.43 10.3-2.05 19.5-3.82 19.5-3.82s0.37-0.51 0.84-1.62c0.48-1.11 1.08-2.82 1.57-5.13 0.48-2.31 0.87-5.22 0.9-8.81 0.02-1.8-0.06-3.77-0.25-5.91-0.18-2.13-0.46-4.45-0.9-6.93-0.45-2.49-0.69-3.96-0.72-4.66-0.02-0.35 0.02-0.52 0.09-0.5s0.17 0.23 0.31 0.56c0.59 1.33 1.76 4.96 3.22 9.22 1.47 4.26 3.23 9.15 4.97 12.97 0.87 1.91 1.74 3.55 2.56 4.72 0.42 0.58 0.83 1.02 1.22 1.34s0.77 0.5 1.13 0.5c1.42 0 3.9 0.4 6.84 0.57 1.47 0.08 3.04 0.11 4.66 0 1.62-0.12 3.28-0.38 4.9-0.85 1.62-0.46 3.19-1.15 4.66-2.12 0.73-0.49 1.46-1.04 2.12-1.69 0.67-0.65 1.3-1.36 1.88-2.19 0.58-0.82 1.09-1.76 1.56-2.78 0.48-1.02 0.9-2.14 1.25-3.37 0.35-1.24 0.64-2.59 0.85-4.07 0.2-1.47 0.33-3.08 0.37-4.81 0.09-3.33 0.29-5.83 0.59-7.81z"/>
    <path id="path3603" d="m497.62 537.69c-0.3 1.98-0.5 4.48-0.59 7.81-0.04 1.73-0.17 3.34-0.37 4.81-0.21 1.48-0.5 2.83-0.85 4.07-0.35 1.23-0.77 2.35-1.25 3.37-0.47 1.02-0.98 1.96-1.56 2.78-0.58 0.83-1.21 1.54-1.88 2.19-0.66 0.65-1.39 1.2-2.12 1.69-1.47 0.97-3.04 1.66-4.66 2.12-1.62 0.47-3.28 0.73-4.9 0.85-1.62 0.11-3.19 0.08-4.66 0-2.94-0.17-5.42-0.57-6.84-0.57-0.36 0-0.74-0.18-1.13-0.5s-0.8-0.76-1.22-1.34c-0.82-1.17-1.69-2.81-2.56-4.72-1.74-3.82-3.5-8.71-4.97-12.97-1.46-4.26-2.63-7.89-3.22-9.22-0.14-0.33-0.24-0.54-0.31-0.56s-0.11 0.15-0.09 0.5c0.03 0.7 0.27 2.17 0.72 4.66 0.44 2.48 0.72 4.8 0.9 6.93 0.19 2.14 0.27 4.11 0.25 5.91-0.03 3.59-0.42 6.5-0.9 8.81-0.49 2.31-1.09 4.02-1.57 5.13-0.47 1.11-0.84 1.62-0.84 1.62s-9.2 1.77-19.5 3.82c-10.3 2.04-21.68 4.37-25.94 5.43-0.53 0.14-1.06 0.15-1.59 0.07-0.54-0.09-1.06-0.27-1.59-0.54-1.07-0.53-2.16-1.41-3.19-2.53-1.03-1.11-2.01-2.46-2.97-3.93-0.96-1.48-1.88-3.07-2.72-4.69-1.69-3.24-3.1-6.57-4.09-9.07-1-2.49-1.6-4.18-1.6-4.18s1.44 5.69 2.6 11.81c0.57 3.06 1.08 6.25 1.31 8.87 0.12 1.32 0.17 2.48 0.12 3.44-0.04 0.96-0.2 1.71-0.46 2.16-0.27 0.44-0.69 0.88-1.26 1.28-0.56 0.4-1.28 0.78-2.12 1.16-1.68 0.74-3.85 1.42-6.47 2.09-5.24 1.33-12.16 2.58-19.97 4-0.97 0.18-1.91 0.24-2.78 0.25s-1.69-0.07-2.47-0.22c-1.55-0.29-2.92-0.86-4.12-1.62-1.2-0.77-2.24-1.72-3.13-2.78-0.89-1.07-1.63-2.24-2.25-3.44s-1.13-2.44-1.53-3.6c-0.4-1.15-0.68-2.24-0.9-3.18-0.45-1.89-0.6-3.16-0.6-3.16l-2.16 1.44 9.63 22.97 146.34-29.22s8.12-19.06-1.97-30z" fill="#b3b3b3" fill-rule="evenodd"/>
    <g id="g3341" transform="translate(309.28 323.23)" clip-path="url(#clipPath3434)">
      <g id="g3294">
        <path id="path3582" clip-path="none" fill="url(#radialGradient3351)" transform="matrix(1.1763 0 0 1.2135 -266.97 -269.79)" d="m368.12 340.94a32.324 29.728 0 1 1 -64.65 0 32.324 29.728 0 1 1 64.65 0z"/>
        <path id="path3292" d="m118.56 169.6l3.76-20.5-12.26 16.86 9.91-18.34-16.86 12.25 15.08-14.38-19.82 6.44 18.79-9.01h-20.84l20.66-2.77-19.824-6.44 20.504 3.75-16.86-12.25 18.34 9.9-12.25-16.86 14.38 15.09-6.44-19.83 9.01 18.8 0.01-20.85 2.76 20.66 6.44-19.82-3.75 20.5 12.25-16.86-9.9 18.34 16.86-12.25-15.09 14.38 19.83-6.44-18.79 9.02h20.84l-20.66 2.76 19.82 6.45-20.5-3.76 16.86 12.26-18.34-9.91 12.25 16.87-14.38-15.09 6.44 19.82-9.02-18.79v20.84l-2.76-20.66-6.45 19.82z" fill="#004e00" transform="matrix(1.134 0 0 1.2178 -14.885 -27.897)"/>
      </g>
      <path id="path3312" transform="translate(-.46576 -.46576)" d="m135.54 144.41a6.9864 7.2193 0 1 1 -13.98 0 6.9864 7.2193 0 1 1 13.98 0z"/>
      <path id="path3314" opacity=".89759" transform="matrix(1.2155 0 0 .97619 -60.007 -31.023)" fill="url(#radialGradient3353)" d="m181.18 173.98a27.014 29.343 0 1 1 -54.03 0 27.014 29.343 0 1 1 54.03 0z"/>
      <path id="path3327" opacity=".89759" transform="translate(-.93152 .93152)" fill="url(#radialGradient3355)" d="m162.55 147.67a34.234 29.11 0 1 1 -68.466 0 34.234 29.11 0 1 1 68.466 0z"/>
      <path id="path3337" opacity=".50602" transform="matrix(.69667 0 0 .69667 45.944 52.802)" fill="#fff" d="m117.84 160.94a6.9864 6.9864 0 1 1 -13.98 0 6.9864 6.9864 0 1 1 13.98 0z"/>
      <path id="path3339" opacity=".50602" transform="matrix(.29667 0 0 .23 92.404 118.01)" fill="#fff" d="m117.84 160.94a6.9864 6.9864 0 1 1 -13.98 0 6.9864 6.9864 0 1 1 13.98 0z"/>
    </g>
    <g id="g3357" transform="translate(160.56 326.51)" clip-path="url(#clipPath3428)">
      <g id="g3359">
        <path id="path3361" clip-path="none" fill="url(#radialGradient3351)" transform="matrix(1.1763 0 0 1.2135 -266.97 -269.79)" d="m368.12 340.94a32.324 29.728 0 1 1 -64.65 0 32.324 29.728 0 1 1 64.65 0z"/>
        <path id="path3363" d="m118.56 169.6l3.76-20.5-12.26 16.86 9.91-18.34-16.86 12.25 15.08-14.38-19.82 6.44 18.79-9.01h-20.84l20.66-2.77-19.824-6.44 20.504 3.75-16.86-12.25 18.34 9.9-12.25-16.86 14.38 15.09-6.44-19.83 9.01 18.8 0.01-20.85 2.76 20.66 6.44-19.82-3.75 20.5 12.25-16.86-9.9 18.34 16.86-12.25-15.09 14.38 19.83-6.44-18.79 9.02h20.84l-20.66 2.76 19.82 6.45-20.5-3.76 16.86 12.26-18.34-9.91 12.25 16.87-14.38-15.09 6.44 19.82-9.02-18.79v20.84l-2.76-20.66-6.45 19.82z" fill="#004e00" transform="matrix(1.134 0 0 1.2178 -14.885 -27.897)"/>
      </g>
      <path id="path3365" transform="translate(-.46576 -.46576)" d="m135.54 144.41a6.9864 7.2193 0 1 1 -13.98 0 6.9864 7.2193 0 1 1 13.98 0z"/>
      <path id="path3367" opacity=".89759" transform="matrix(1.2155 0 0 .97619 -60.007 -31.023)" fill="url(#radialGradient3353)" d="m181.18 173.98a27.014 29.343 0 1 1 -54.03 0 27.014 29.343 0 1 1 54.03 0z"/>
      <path id="path3369" opacity=".89759" transform="translate(-.93152 .93152)" fill="url(#radialGradient3355)" d="m162.55 147.67a34.234 29.11 0 1 1 -68.466 0 34.234 29.11 0 1 1 68.466 0z"/>
      <path id="path3371" opacity=".50602" transform="matrix(.69667 0 0 .69667 45.944 52.802)" fill="#fff" d="m117.84 160.94a6.9864 6.9864 0 1 1 -13.98 0 6.9864 6.9864 0 1 1 13.98 0z"/>
      <path id="path3373" opacity=".50602" transform="matrix(.29667 0 0 .23 92.404 118.01)" fill="#fff" d="m117.84 160.94a6.9864 6.9864 0 1 1 -13.98 0 6.9864 6.9864 0 1 1 13.98 0z"/>
    </g>
    <path id="path3440" fill-rule="evenodd" fill="url(#radialGradient3448)" d="m398.34 498.64c13.49 11.36 62.24 32.82 90.89-36.92 16.33-39.76-34.09-17.04-34.09-17.04s-68.87 24.14-69.58 30.53 12.07 24.14 12.78 23.43z"/>
    <path id="path3450" fill-rule="evenodd" fill="url(#radialGradient3452)" d="m255.43 500.73c13.49 11.36 62.24 32.81 90.88-36.93 16.33-39.76-34.08-17.04-34.08-17.04s-68.88 24.14-69.59 30.53 12.08 24.15 12.79 23.44z"/>
  </g>
  <metadata>
    <rdf:RDF>
      <cc:Work>
        <dc:format>image/svg+xml</dc:format>
        <dc:type rdf:resource="http://purl.org/dc/dcmitype/StillImage"/>
        <cc:license rdf:resource="http://creativecommons.org/licenses/publicdomain/"/>
        <dc:publisher>
          <cc:Agent rdf:about="http://openclipart.org/">
            <dc:title>Openclipart</dc:title>
          </cc:Agent>
        </dc:publisher>
        <dc:title>green_lanthern_smiley</dc:title>
        <dc:date>2007-09-22T08:28:44</dc:date>
        <dc:description>This is my first design on Inkscape, I've downloaded yesterday and is really good, actually, even better that many expensive ones.</dc:description>
        <dc:source>http://openclipart.org/detail/5701/green_lanthern_smiley-by-raphie</dc:source>
        <dc:creator>
          <cc:Agent>
            <dc:title>raphie</dc:title>
          </cc:Agent>
        </dc:creator>
        <dc:subject>
          <rdf:Bag>
            <rdf:li>cartoon</rdf:li>
            <rdf:li>clip art</rdf:li>
            <rdf:li>clipart</rdf:li>
            <rdf:li>green</rdf:li>
            <rdf:li>icon</rdf:li>
            <rdf:li>image</rdf:li>
            <rdf:li>line art</rdf:li>
            <rdf:li>media</rdf:li>
            <rdf:li>public domain</rdf:li>
            <rdf:li>superhero</rdf:li>
            <rdf:li>svg</rdf:li>
          </rdf:Bag>
        </dc:subject>
      </cc:Work>
      <cc:License rdf:about="http://creativecommons.org/licenses/publicdomain/">
        <cc:permits rdf:resource="http://creativecommons.org/ns#Reproduction"/>
        <cc:permits rdf:resource="http://creativecommons.org/ns#Distribution"/>
        <cc:permits rdf:resource="http://creativecommons.org/ns#DerivativeWorks"/>
      </cc:License>
    </rdf:RDF>
  </metadata>
</svg>
