<?xml version="1.0"?>
<svg xmlns:rdf="http://www.w3.org/1999/02/22-rdf-syntax-ns#" xmlns="http://www.w3.org/2000/svg" xmlns:cc="http://creativecommons.org/ns#" xmlns:dc="http://purl.org/dc/elements/1.1/" xmlns:svg="http://www.w3.org/2000/svg" id="svg2" viewBox="0 0 200 300" version="1.1">
  <g id="layer1">
    <g id="g3965" transform="matrix(-.99997 0 0 .99997 201.54 .0085830)">
      <path id="path3949" stroke-linejoin="round" d="m144.96 32.714 15.203 13.435-0.35356 6.364-14.496-12.021z" stroke="#803b17" stroke-linecap="round" stroke-width="2" fill="#d43016"/>
      <path id="path3947" stroke-linejoin="round" d="m181.73 30.592 15.203 13.435-0.35356 6.364-14.496-12.021z" stroke="#803b17" stroke-linecap="round" stroke-width="2" fill="#d43016"/>
      <path id="path3880" stroke-linejoin="round" d="m181.14 29.931-39.093 2.6737 2.336 153.78-17.393-3.3492-4.0247 13.059 74.555 5.3475 1.0132-8.0212-13.706-1.0132-3.687-162.48zm-7.008 8.6967 1.3228 22.713-23.726 3.0115 0.67547-22.403 21.728-3.3211zm0.53475 30.199-0.61918 21.643-22.938 1.6042 1.6042-20.714 21.953-2.533zm-24.261 27.976 22.713 1.6605-1.9983 29.918-19.392-8.359-1.3228-23.219zm2.6737 43.455h18.041l3.687 48.465-23.079-3.9965 1.3509-44.469z" stroke="#803b17" stroke-linecap="round" stroke-width="1.3373" fill="#d43016"/>
      <path id="path3044" stroke-linejoin="round" d="m182.84 104.19 0.0937 4c1.7382-0.5742 3.3411-1.1532 4.75-1.75l-4.8438-2.25zm-10.219 1.6562c-20.569 2.9497-59.753 5.8416-70.094 9.5-35.627 12.605-68.085 28.372-97.312 47.375l14.312 9.6562c25.941-16.87 54.979-31.245 85.125-44.75 13.826-6.1939 45.73-10.992 67.625-16.438l0.34375-5.3438z" stroke="#803b17" stroke-linecap="round" stroke-width="2.3211" fill="#d43016"/>
      <path id="path3816" stroke-linejoin="round" d="m106.21 1.1605-67.892 4.6422 4.062 266.93l-30.174-5.8027-6.9632 22.631 129.4 9.2843 1.7408-13.926-23.791-1.7408zm-12.186 15.088 2.322 39.458-41.2 5.222 1.161-38.878zm-41.199 100.96l39.458 2.9014-3.4816 51.909-33.656-14.507zm4.6422 75.435h31.335l6.383 84.139-40.039-6.9632z" stroke="#803b17" stroke-linecap="round" stroke-width="2.3211" fill="#d43016"/>
      <path id="path3046" stroke-linejoin="round" d="m191.06 110.31c-2.31 0.96807-5.0079 1.9619-8 2.9688l0.0937 4.75c4.2285-1.7681 8.1766-3.497 11.688-5.1875l-3.7812-2.5312zm-19.156 6.4375c-21.821 6.464-51.561 13.858-71.344 22.875-28.476 12.979-56.784 27.917-75.219 43.938l17.125 8.7812c14.79-14.366 36.099-27.735 58.812-39.875 21.166-11.313 48.093-21.042 70.219-29.75l0.40625-5.9688z" stroke="#803b17" stroke-linecap="round" stroke-width="2.3211" fill="#d43016"/>
      <path id="path3922" stroke-linejoin="round" d="m106.22 1.1562-40.938 2.8125 5.0312 15.938 23.719-3.6562 2.3125 39.469-41.188 5.2188 0.75-25.312-17.094 3 3.1562 208.06 13.875-0.25 1.625-53.781h24.688l-2.5938-24.625-24.406-10.5-2.3438-40.312 39.469 2.9062-0.6875 10.312 17.438-4.2188-2.8125-125.06zm-16.376 204.96 5.344 70.66-29.938-5.22l0.53125 22.344 68.875 4.9375 1.7188-13.938-23.781-1.7188-1.4375-63.062-21.312-14zm-77.625 60.812-6.9688 22.625 15.969 1.1562 3.625-21.375-12.625-2.4062z" stroke="#803b17" stroke-linecap="round" stroke-width="2.3211" fill="#d43016"/>
      <path id="path3865" stroke-linejoin="round" d="m90.031 119.94c-30.758 11.778-59.036 26.021-84.812 42.781l14.312 9.6562c22.11-14.38 46.47-26.93 71.844-38.69l0.90625-13.562-2.25-0.1875z" stroke="#803b17" stroke-linecap="round" stroke-width="2.3211" fill="#d43016"/>
      <path id="path4026-6" fill="#fff" d="m93.181 97.301c-1.407 9.659-10.288 16.469-20.02 15.249s-16.66-10.01-15.641-19.715l35.661 4.4661z"/>
      <path id="path3868" stroke-linejoin="round" d="m90.656 144.19c-25.019 11.865-49.019 25.187-65.312 39.344l17.125 8.8125c12.243-11.896 28.938-23.104 47.219-33.5l0.96875-14.656z" stroke="#803b17" stroke-linecap="round" stroke-width="2.3211" fill="#d43016"/>
      <g id="g3860" transform="matrix(-1.1605 0 0 1.1605 233.31 -42.65)">
        <path id="path3924-2" stroke-linejoin="round" d="m-355.15 299.77c0 5.7089-4.628 10.337-10.337 10.337-5.7089 0-10.337-4.628-10.337-10.337 0-5.7089 4.628-10.337 10.337-10.337 5.7089 0 10.337 4.628 10.337 10.337z" transform="matrix(.89678 -.13884 .13884 .89678 407.27 -214.85)" stroke="#77311e" stroke-linecap="round" stroke-width="2.0725" fill="#fff"/>
        <path id="path4243-5" transform="matrix(.94038 0 0 .94038 -14.686 34.098)" fill="#002ba9" d="m149.52 75.358c0 1.7331-1.4049 3.138-3.138 3.138s-3.138-1.4049-3.138-3.138 1.4049-3.138 3.138-3.138 3.138 1.4049 3.138 3.138z"/>
      </g>
      <path id="path3899" stroke-linejoin="round" d="m181.16 29.938-39.094 2.6562 1.0312 68.281 7.5938 1.0312-0.28125-5.0938 22.719 1.6562-2 29.906-3-1.2812 0.0625 13.156h2.9375l2.8125 36.812 10.469-4.3438-2.16-94.074-7.87 0.344-0.3125 11.469-22.938 1.5938 1.5938-20.688 13.625-1.5938-0.15625-7.25-14.469 1.8125 0.6875-22.406 21.719-3.3125 0.375 6.1875 7 0.0625-0.34375-14.938zm-28.562 126.91-8.6562 0.34375 0.4375 29.188-17.375-3.3438-4.0312 13.062 38.562 2.75 4.4062-11.656-14.219-2.4688 0.875-27.875zm35.719 35.812-3.4375 7.875 12.656 0.90625 1-8-10.219-0.78125z" stroke="#803b17" stroke-linecap="round" stroke-width="1.3373" fill="#d43016"/>
      <path id="path3933" style="block-progression:tb;color:#000000;text-transform:none;text-indent:0" d="m56.219 24.719-0.25 8.625c6.0534 6.7199 11.83 12.159 13.5 13.125 2.2115 1.2788 9.0817 6.2236 16.375 10.594l10.125-1.2812c-8.737-4.003-18.363-10.861-21.094-12.344-2.013-1.094-11.088-9.583-18.656-18.719zm86.901 7.469c-1.0038-0.03224-2.023 0.40818-2.625 1.2188-6.187 8.3679-11.804 13.978-16.594 16.906-3.7453 2.2895-9.462 7.3938-16.406 8.125l0.15625 5.625c7.657-1.1685 15.191-5.8848 19.469-8.5 5.9038-3.609 11.858-9.7706 18.312-18.5 0.96324-1.2969 0.67191-3.3493-0.625-4.3125-0.48634-0.36121-1.0852-0.54316-1.6875-0.5625z" stroke="#803b17" stroke-width="1.539" fill="#d43016"/>
      <g id="g3856" transform="matrix(-1.1605 0 0 1.1605 134.09 -55.416)">
        <path id="path3922-8" stroke-linejoin="round" d="m-355.15 299.77c0 5.7089-4.628 10.337-10.337 10.337-5.7089 0-10.337-4.628-10.337-10.337 0-5.7089 4.628-10.337 10.337-10.337 5.7089 0 10.337 4.628 10.337 10.337z" transform="matrix(.91039 -.14095 .14095 .91039 357.49 -210.3)" stroke="#77311e" stroke-linecap="round" stroke-width="2.0415" fill="#fff"/>
        <path id="path4245-2" transform="matrix(.94038 0 0 .94038 -68.456 43.658)" fill="#002ba9" d="m149.52 75.358c0 1.7331-1.4049 3.138-3.138 3.138s-3.138-1.4049-3.138-3.138 1.4049-3.138 3.138-3.138 3.138 1.4049 3.138 3.138z"/>
      </g>
      <path id="path3927" style="block-progression:tb;color:#000000;text-transform:none;text-indent:0" d="m106.94 2.3438c-0.24 0.0259-0.47 0.0899-0.69 0.1562l0.375 16.281c2.7042 10.17 4.9313 18.469 8.8438 25.469 5.272 9.4318 11.143 15.991 18.281 18.969 7.1382 2.9775 15.172 1.7837 22.844-2.9062s15.425-12.687 23.812-24.031c1.2517-1.6853 0.84159-4.342-0.84375-5.5938-1.6853-1.2517-4.342-0.87283-5.5938 0.8125-8.04 10.874-15.338 18.164-21.562 21.969-6.2248 3.8052-10.925 4.3093-15.562 2.375-4.6371-1.9343-9.5842-6.929-14.375-15.5s-6.9218-19.823-11.25-35.031c-0.44582-1.6709-2.0833-2.946-3.8125-2.9688-0.15628-0.00177-0.31367-0.017316-0.46875 0z" stroke="#803b17" stroke-width="2" fill="#d43016"/>
      <path id="path3951" style="block-progression:tb;color:#000000;text-transform:none;text-indent:0" d="m102.31 1.5312c-13.22 13.679-26.724 26.756-42.685 35.657-13.183 7.351-28.05 11.867-45.906 11.562l4.1875 6.625c17.901 0.177 32.955-4.416 46.219-11.813 16.269-9.071 29.904-22.321 43.155-36.031 0.59-0.5967 1.8-3.8533 0.97-3.7185-0.21 0.039-5.79-2.4431-5.94-2.2813z" stroke="#803b17" stroke-width="2" fill="#d43016"/>
      <path id="path3957" style="block-progression:tb;color:#000000;text-transform:none;text-indent:0" d="m39.406 5.6562c-10.794 11.167-21.798 21.872-34.687 29.375l5.031 4.657c12.612-7.597 23.387-18.088 33.875-28.938 0.496-0.505 1.511-3.2703 0.813-3.1562-0.182 0.033-4.908-2.0745-5.032-1.9376z" stroke="#803b17" stroke-width="1.6927" fill="#d43016"/>
    </g>
  </g>
  <metadata>
    <rdf:RDF>
      <cc:Work>
        <dc:format>image/svg+xml</dc:format>
        <dc:type rdf:resource="http://purl.org/dc/dcmitype/StillImage"/>
        <cc:license rdf:resource="http://creativecommons.org/licenses/publicdomain/"/>
        <dc:publisher>
          <cc:Agent rdf:about="http://openclipart.org/">
            <dc:title>Openclipart</dc:title>
          </cc:Agent>
        </dc:publisher>
        <dc:title>Cute San Francisco Golden Gate Bridge</dc:title>
        <dc:date>2013-03-10T11:46:36</dc:date>
        <dc:description>city, clip art, clipart, culture, famous, frame, game, sightseeing, smile, smiley, smiling, sprite, tourist, touristic, urban, </dc:description>
        <dc:source>http://openclipart.org/detail/175651/cute-san-francisco-golden-gate-bridge-by-qubodup-175651</dc:source>
        <dc:creator>
          <cc:Agent>
            <dc:title>qubodup</dc:title>
          </cc:Agent>
        </dc:creator>
        <dc:subject>
          <rdf:Bag>
            <rdf:li>city</rdf:li>
            <rdf:li>clip art</rdf:li>
            <rdf:li>clipart</rdf:li>
            <rdf:li>culture</rdf:li>
            <rdf:li>famous</rdf:li>
            <rdf:li>frame</rdf:li>
            <rdf:li>game</rdf:li>
            <rdf:li>sightseeing</rdf:li>
            <rdf:li>smile</rdf:li>
            <rdf:li>smiley</rdf:li>
            <rdf:li>smiling</rdf:li>
            <rdf:li>sprite</rdf:li>
            <rdf:li>tourist</rdf:li>
            <rdf:li>touristic</rdf:li>
            <rdf:li>urban</rdf:li>
          </rdf:Bag>
        </dc:subject>
      </cc:Work>
      <cc:License rdf:about="http://creativecommons.org/licenses/publicdomain/">
        <cc:permits rdf:resource="http://creativecommons.org/ns#Reproduction"/>
        <cc:permits rdf:resource="http://creativecommons.org/ns#Distribution"/>
        <cc:permits rdf:resource="http://creativecommons.org/ns#DerivativeWorks"/>
      </cc:License>
    </rdf:RDF>
  </metadata>
</svg>
