<?xml version="1.0" encoding="UTF-8" standalone="no"?>
<!-- Created with Inkscape (http://www.inkscape.org/) -->

<svg
   xmlns:dc="http://purl.org/dc/elements/1.1/"
   xmlns:cc="http://creativecommons.org/ns#"
   xmlns:rdf="http://www.w3.org/1999/02/22-rdf-syntax-ns#"
   xmlns:svg="http://www.w3.org/2000/svg"
   xmlns="http://www.w3.org/2000/svg"
   xmlns:sodipodi="http://sodipodi.sourceforge.net/DTD/sodipodi-0.dtd"
   xmlns:inkscape="http://www.inkscape.org/namespaces/inkscape"
   width="210mm"
   height="297mm"
   viewBox="0 0 744.09448 1052.3622"
   id="svg2"
   version="1.1"
   inkscape:version="0.91 r13725"
   sodipodi:docname="Cohete 2016 02.svg">
  <defs
     id="defs4" />
  <sodipodi:namedview
     id="base"
     pagecolor="#ffffff"
     bordercolor="#666666"
     borderopacity="1.0"
     inkscape:pageopacity="0.0"
     inkscape:pageshadow="2"
     inkscape:zoom="0.34307206"
     inkscape:cx="374.64912"
     inkscape:cy="578.87407"
     inkscape:document-units="px"
     inkscape:current-layer="layer1"
     showgrid="false"
     showguides="false"
     inkscape:window-width="1366"
     inkscape:window-height="705"
     inkscape:window-x="-8"
     inkscape:window-y="-8"
     inkscape:window-maximized="1" />
  <metadata
     id="metadata7">
    <rdf:RDF>
      <cc:Work
         rdf:about="">
        <dc:format>image/svg+xml</dc:format>
        <dc:type
           rdf:resource="http://purl.org/dc/dcmitype/StillImage" />
        <dc:title></dc:title>
      </cc:Work>
    </rdf:RDF>
  </metadata>
  <g
     inkscape:label="Capa 1"
     inkscape:groupmode="layer"
     id="layer1"
     transform="translate(0,-3.464567e-6)">
    <g
       transform="matrix(0.66315589,-0.74848131,0.74848131,0.66315589,-269.22177,498.446)"
       id="g4165" />
    <g
       id="g4596"
       transform="matrix(0.97620523,0,0,0.97620523,7.5677109,28.954412)">
      <path
         inkscape:connector-curvature="0"
         id="rect4242"
         d="m 274.38217,208.11142 c 65.93109,0 131.86217,0 197.79326,0 0,149.22902 0,298.45805 0,447.68707 -65.93109,0 -131.86217,0 -197.79326,0 0,-149.22902 0,-298.45805 0,-447.68707 z"
         style="opacity:1;fill:#000033;fill-opacity:1;stroke:#000000;stroke-width:1.89999998;stroke-linecap:round;stroke-linejoin:round;stroke-miterlimit:4;stroke-dasharray:none;stroke-dashoffset:0;stroke-opacity:1" />
      <path
         sodipodi:nodetypes="cc"
         inkscape:connector-curvature="0"
         id="path4240"
         d="m 330.70635,42.561843 c 29.18299,-23.124161 57.55009,-22.20624 85.5689,0.654864"
         style="fill:none;fill-rule:evenodd;stroke:#000000;stroke-width:12.57999992;stroke-linecap:butt;stroke-linejoin:miter;stroke-miterlimit:4;stroke-dasharray:none;stroke-opacity:1" />
      <path
         sodipodi:nodetypes="ccc"
         inkscape:connector-curvature="0"
         id="path4238"
         d="m 167.5033,665.5487 c -368.98697,186.23433 14.28524,328.37615 14.28524,328.37615 l 54.24264,-102.78638"
         style="fill:#0000ff;fill-rule:evenodd;stroke:#000000;stroke-width:8.72028637;stroke-linecap:butt;stroke-linejoin:miter;stroke-miterlimit:4;stroke-dasharray:none;stroke-opacity:1" />
      <path
         style="fill:#0000ff;fill-rule:evenodd;stroke:#000000;stroke-width:8.72028637;stroke-linecap:butt;stroke-linejoin:miter;stroke-miterlimit:4;stroke-dasharray:none;stroke-opacity:1"
         d="M 579.22397,665.5487 C 948.21094,851.78303 564.93873,993.92485 564.93873,993.92485 L 510.69609,891.13847"
         id="path4226"
         inkscape:connector-curvature="0"
         sodipodi:nodetypes="ccc" />
      <ellipse
         ry="20.524446"
         rx="133.59657"
         cy="890.16602"
         cx="373.04495"
         id="path4156"
         style="opacity:1;fill:#000033;fill-opacity:1;stroke:#000000;stroke-width:12.49672127;stroke-linejoin:round;stroke-miterlimit:4;stroke-dasharray:none;stroke-opacity:1" />
      <rect
         y="713.5495"
         x="321.83978"
         height="152.41212"
         width="102.87819"
         id="rect4166"
         style="opacity:1;fill:#0000ff;fill-opacity:1;stroke:#000000;stroke-width:11.25848103;stroke-linejoin:round;stroke-miterlimit:4;stroke-dasharray:none;stroke-opacity:1" />
      <ellipse
         ry="19.15559"
         rx="20.523848"
         cy="770.49194"
         cx="373.27887"
         id="path4172"
         style="opacity:1;fill:#0080e8;fill-opacity:1;stroke:#000000;stroke-width:8.08570194;stroke-linejoin:round;stroke-miterlimit:4;stroke-dasharray:none;stroke-opacity:1" />
      <g
         transform="matrix(2.8146203,0,0,2.8146203,-906.60049,-1049.4749)"
         style="fill:#0080e8"
         id="g4173">
        <g
           style="fill:#0080e8"
           id="g4157"
           transform="matrix(0.66315589,-0.74848131,0.74848131,0.66315589,-269.22177,442.446)">
          <circle
             style="opacity:1;fill:#0080e8;fill-opacity:1;stroke:#000000;stroke-width:4;stroke-linejoin:round;stroke-miterlimit:4;stroke-dasharray:none;stroke-opacity:1"
             id="circle4159"
             cx="454.7254"
             cy="564.33386"
             r="18.726931" />
          <path
             style="fill:#0080e8;fill-rule:evenodd;stroke:#000000;stroke-width:1px;stroke-linecap:butt;stroke-linejoin:miter;stroke-opacity:1"
             d="m 445.38506,578.99956 c 20.30631,-29.78259 20.30631,-29.78259 20.30631,-29.78259"
             id="path4161"
             inkscape:connector-curvature="0" />
          <path
             style="fill:#0080e8;fill-rule:evenodd;stroke:#000000;stroke-width:1px;stroke-linecap:butt;stroke-linejoin:miter;stroke-opacity:1"
             d="m 439.97005,552.82698 c 30.68509,23.91632 30.68509,23.91632 30.68509,23.91632"
             id="path4163"
             inkscape:connector-curvature="0" />
        </g>
      </g>
      <g
         style="fill:#0080e8"
         transform="matrix(1.527934,-2.3637904,2.3637904,1.527934,-1447.465,779.02381)"
         id="g4179">
        <g
           style="fill:#0080e8"
           transform="matrix(0.66315589,-0.74848131,0.74848131,0.66315589,-269.22177,442.446)"
           id="g4181">
          <circle
             r="18.726931"
             cy="564.33386"
             cx="454.7254"
             id="circle4183"
             style="opacity:1;fill:#0080e8;fill-opacity:1;stroke:#000000;stroke-width:4;stroke-linejoin:round;stroke-miterlimit:4;stroke-dasharray:none;stroke-opacity:1" />
          <path
             inkscape:connector-curvature="0"
             id="path4185"
             d="m 445.38506,578.99956 c 20.30631,-29.78259 20.30631,-29.78259 20.30631,-29.78259"
             style="fill:#0080e8;fill-rule:evenodd;stroke:#000000;stroke-width:1px;stroke-linecap:butt;stroke-linejoin:miter;stroke-opacity:1" />
          <path
             inkscape:connector-curvature="0"
             id="path4187"
             d="m 439.97005,552.82698 c 30.68509,23.91632 30.68509,23.91632 30.68509,23.91632"
             style="fill:#0080e8;fill-rule:evenodd;stroke:#000000;stroke-width:1px;stroke-linecap:butt;stroke-linejoin:miter;stroke-opacity:1" />
        </g>
      </g>
      <g
         style="fill:#0080e8"
         id="g4189"
         transform="matrix(2.7524266,-0.58841748,0.58841748,2.7524266,-1158.6026,-470.81958)">
        <g
           style="fill:#0080e8"
           id="g4191"
           transform="matrix(0.66315589,-0.74848131,0.74848131,0.66315589,-269.22177,442.446)">
          <circle
             style="opacity:1;fill:#0080e8;fill-opacity:1;stroke:#000000;stroke-width:4;stroke-linejoin:round;stroke-miterlimit:4;stroke-dasharray:none;stroke-opacity:1"
             id="circle4193"
             cx="454.7254"
             cy="564.33386"
             r="18.726931" />
          <path
             style="fill:#0080e8;fill-rule:evenodd;stroke:#000000;stroke-width:1px;stroke-linecap:butt;stroke-linejoin:miter;stroke-opacity:1"
             d="m 445.38506,578.99956 c 20.30631,-29.78259 20.30631,-29.78259 20.30631,-29.78259"
             id="path4195"
             inkscape:connector-curvature="0" />
          <path
             style="fill:#0080e8;fill-rule:evenodd;stroke:#000000;stroke-width:1px;stroke-linecap:butt;stroke-linejoin:miter;stroke-opacity:1"
             d="m 439.97005,552.82698 c 30.68509,23.91632 30.68509,23.91632 30.68509,23.91632"
             id="path4197"
             inkscape:connector-curvature="0" />
        </g>
      </g>
      <path
         inkscape:connector-curvature="0"
         id="path4234"
         d="m 231.42386,865.73405 c -28.07963,-51.79839 -53.63267,-121.24986 -64.08574,-174.18078 -7.01218,-35.50748 -7.75443,-43.37882 -7.77964,-82.50086 -0.0225,-32.86924 0.29063,-38.60975 2.89775,-53.34426 11.86749,-67.07085 43.0474,-155.33616 86.7828,-245.66819 9.15531,-18.9096 15.00987,-29.20065 21.59982,-37.96802 24.01538,-31.9503 50.6716,-52.47282 77.30363,-59.51571 12.30335,-3.25364 33.45044,-2.97243 46.09006,0.61291 29.52596,8.3753 60.44149,30.42802 81.11054,57.85793 18.38868,24.40361 60.08849,118.22481 83.06229,186.8833 23.12453,69.10906 30.90549,111.67408 29.37037,160.66779 -1.28555,41.02894 -7.65279,78.52382 -20.6207,121.42961 -4.82167,15.95304 -46.23979,115.43456 -54.1824,130.1398 l -5.19382,9.61603 -7.66677,-3.09673 c -10.27342,-4.14962 -26.62986,-7.42178 -50.04395,-10.01151 l -19.36903,-2.1423 0,-76.9898 c 0,-58.18746 -0.37224,-77.36198 -1.52412,-78.51389 -1.1379,-1.13789 -15.28167,-1.52412 -55.81246,-1.52412 l -54.28828,0 -1.97719,2.82281 c -1.73578,2.47814 -1.97716,12.05762 -1.97716,78.45546 l 0,75.63265 -23.25568,2.82129 c -24.20602,2.93657 -40.1158,6.3399 -48.11278,10.29202 l -4.68818,2.31689 -7.63936,-14.09232 z m 158.9073,-236.97632 c 17.30218,-5.34409 31.21856,-18.2568 38.03965,-35.29609 2.40864,-6.01681 2.91527,-9.68103 2.937,-21.24217 0.0253,-13.49551 -0.13228,-14.30339 -4.63523,-23.73285 -10.44409,-21.8709 -29.26288,-34.12023 -52.58538,-34.22837 -12.05867,-0.0559 -18.86148,1.54655 -28.69889,6.76026 -21.1299,11.19865 -33.91436,36.71395 -30.26802,60.40919 3.44726,22.40176 20.74245,42.1181 41.94369,47.81539 10.07221,2.70665 23.57025,2.50972 33.26718,-0.48536 z m 1.35237,-141.0988 c 10.22127,-3.41525 18.71219,-8.88797 25.19648,-16.24004 26.27586,-29.7924 17.08885,-75.52479 -18.57416,-92.46109 -17.92169,-8.51097 -40.03023,-7.2038 -56.23301,3.32479 -25.47758,16.5554 -34.53281,47.46447 -21.88027,74.68604 4.20574,9.04853 14.51705,20.61811 22.59476,25.35196 13.94984,8.17515 33.89059,10.35222 48.8962,5.33834 z m -9.2483,-138.37865 c 35.03318,-5.46299 57.45067,-41.37993 46.98194,-75.27371 -7.23776,-23.43315 -27.54263,-39.45707 -52.2022,-41.19613 -17.5181,-1.23542 -32.4531,4.32855 -45.05613,16.78552 -18.40826,18.19491 -22.70366,44.10386 -11.2186,67.66831 9.29735,19.07578 28.53179,31.50222 51.33418,33.16447 1.04782,0.0763 5.62017,-0.44042 10.16081,-1.14846 z"
         style="opacity:1;fill:none;fill-opacity:1;stroke:none;stroke-width:1.80500531;stroke-linejoin:miter;stroke-miterlimit:4;stroke-dasharray:none;stroke-opacity:1" />
      <path
         sodipodi:nodetypes="czsc"
         inkscape:connector-curvature="0"
         id="path4140"
         d="m 332.26325,41.249363 c 0,0 -49.70986,34.316166 -87.74821,111.953207 -38.03835,77.63704 -88.50853,243.09213 -91.81973,365.11643 -5.11972,188.67181 86.51324,374.22364 86.51324,374.22364"
         style="fill:none;fill-rule:evenodd;stroke:#000000;stroke-width:12.56799984;stroke-linecap:butt;stroke-linejoin:miter;stroke-miterlimit:4;stroke-dasharray:none;stroke-opacity:1" />
      <path
         style="fill:none;fill-rule:evenodd;stroke:#000000;stroke-width:12.56819153;stroke-linecap:butt;stroke-linejoin:miter;stroke-miterlimit:4;stroke-dasharray:none;stroke-opacity:1"
         d="m 413.77368,41.249363 c 0,0 49.70986,34.316166 87.74821,111.953207 38.03835,77.63704 88.50853,243.09213 91.81973,365.11643 5.11972,188.67181 -86.51324,374.22364 -86.51324,374.22364"
         id="path3427"
         inkscape:connector-curvature="0"
         sodipodi:nodetypes="czsc" />
      <path
         inkscape:connector-curvature="0"
         id="path4580"
         d="m 223.77013,833.93021 c -39.63561,-102.63016 -57.50287,-184.89478 -60.6971,-279.46237 -2.45542,-72.69471 3.25445,-120.46737 24.88776,-208.22796 39.5413,-160.40847 90.68456,-259.45372 155.3128,-300.782379 23.61709,-15.102733 38.87814,-14.706121 63.18689,1.642132 48.33943,32.509504 91.37549,104.366427 126.25986,210.815017 51.13256,156.02938 63.21361,273.02043 40.89377,396.00842 -15.88803,87.54702 -61.1585,223.19533 -73.34287,219.76431 -3.01194,-0.8481 -19.54739,-3.50724 -36.74546,-5.9092 l -31.26922,-4.36712 0,-77.8116 0,-77.8116 -58.50369,0 -58.50369,0 0,77.8116 0,77.8116 -31.26921,4.39976 c -17.19807,2.41988 -34.007,5.55846 -37.35317,6.97469 -4.72036,1.99784 -9.84325,-7.15911 -22.85667,-40.8553 z m 250.85118,-402.52185 0,-225.94529 -100.86844,0 -100.86843,0 -1.04231,227.02332 -1.0423,227.02334 101.91073,-1.07804 101.91075,-1.07805 0,-225.94528 z"
         style="opacity:1;fill:#0000ff;fill-opacity:1;stroke:#000000;stroke-width:7.66600084;stroke-linecap:round;stroke-linejoin:round;stroke-miterlimit:4;stroke-dasharray:none;stroke-dashoffset:0;stroke-opacity:1" />
      <g
         id="g4586">
        <path
           style="fill:none;fill-rule:evenodd;stroke:#000000;stroke-width:1px;stroke-linecap:butt;stroke-linejoin:miter;stroke-opacity:1"
           d="M 201.22494,272.53303 204.52371,118.1506"
           id="path4582"
           inkscape:connector-curvature="0" />
        <ellipse
           style="opacity:1;fill:#0000ff;fill-opacity:1;stroke:#000000;stroke-width:2.08925319;stroke-linecap:round;stroke-linejoin:round;stroke-miterlimit:4;stroke-dasharray:none;stroke-dashoffset:0;stroke-opacity:1"
           id="path4584"
           cx="204.87433"
           cy="113.86221"
           rx="12.110822"
           ry="11.451068" />
      </g>
      <g
         transform="translate(342,0)"
         id="g4590">
        <path
           inkscape:connector-curvature="0"
           id="path4592"
           d="M 201.22494,272.53303 204.52371,118.1506"
           style="fill:none;fill-rule:evenodd;stroke:#000000;stroke-width:1px;stroke-linecap:butt;stroke-linejoin:miter;stroke-opacity:1" />
        <ellipse
           ry="11.451068"
           rx="12.110822"
           cy="113.86221"
           cx="204.87433"
           id="ellipse4594"
           style="opacity:1;fill:#0000ff;fill-opacity:1;stroke:#000000;stroke-width:2.08925319;stroke-linecap:round;stroke-linejoin:round;stroke-miterlimit:4;stroke-dasharray:none;stroke-dashoffset:0;stroke-opacity:1" />
      </g>
    </g>
  </g>
</svg>
