<?xml version="1.0" encoding="UTF-8" standalone="no"?>
<!-- Created with Inkscape (http://www.inkscape.org/) -->
<!-- ClipArt by GDJ (https://openclipart.org/user-detail/GDJ) -->
<!-- ClipArt by Arvin61r58 (http://openclipart.org/user-detail/Arvin61r58) -->
<svg id="svg4161" xmlns:rdf="http://www.w3.org/1999/02/22-rdf-syntax-ns#" xmlns="http://www.w3.org/2000/svg" height="692.9" width="1020" version="1.1" xmlns:cc="http://creativecommons.org/ns#" xmlns:dc="http://purl.org/dc/elements/1.1/" viewBox="0 0 1020 692.90472">
 <title id="title4882">Warning Sign</title>
 <metadata id="metadata4166">
  <rdf:RDF>
   <cc:Work rdf:about="">
    <dc:format>image/svg+xml</dc:format>
    <dc:type rdf:resource="http://purl.org/dc/dcmitype/StillImage"/>
    <dc:title>Warning Sign</dc:title>
    <dc:creator>
     <cc:Agent>
      <dc:title>Arvin61r58</dc:title>
     </cc:Agent>
    </dc:creator>
    <dc:publisher>
     <cc:Agent>
      <dc:title>Openclipart.org</dc:title>
     </cc:Agent>
    </dc:publisher>
    <dc:identifier>https://openclipart.org/</dc:identifier>
    <dc:source>https://openclipart.org/user-detail/Arvin61r58</dc:source>
    <dc:contributor>
     <cc:Agent>
      <dc:title>GDJ (https://openclipart.org/user-detail/GDJ)
clip-art (https://openclipart.org/detail/269961/warning-sign)</dc:title>
     </cc:Agent>
    </dc:contributor>
    <dc:subject>
     <rdf:Bag>
      <rdf:li>Caution</rdf:li>
      <rdf:li>Funny</rdf:li>
      <rdf:li>Humor</rdf:li>
      <rdf:li>Ironic</rdf:li>
      <rdf:li>Irony</rdf:li>
      <rdf:li>Joke</rdf:li>
      <rdf:li>Laugh</rdf:li>
      <rdf:li>Paradox</rdf:li>
      <rdf:li>Sign</rdf:li>
      <rdf:li>Text</rdf:li>
      <rdf:li>Type</rdf:li>
      <rdf:li>Typography</rdf:li>
      <rdf:li>Warning</rdf:li>
      <rdf:li>Words</rdf:li>
      <rdf:li>GDJ</rdf:li>
      <rdf:li>colorized</rdf:li>
      <rdf:li/>
     </rdf:Bag>
    </dc:subject>
    <dc:description>Warning Sign</dc:description>
    <cc:license rdf:resource="http://creativecommons.org/publicdomain/zero/1.0/"/>
   </cc:Work>
   <cc:License rdf:about="http://creativecommons.org/publicdomain/zero/1.0/">
    <cc:permits rdf:resource="http://creativecommons.org/ns#Reproduction"/>
    <cc:permits rdf:resource="http://creativecommons.org/ns#Distribution"/>
    <cc:permits rdf:resource="http://creativecommons.org/ns#DerivativeWorks"/>
   </cc:License>
  </rdf:RDF>
 </metadata>
 <g id="layer1" transform="translate(-16.181 -333.86)">
  <g id="g4730" transform="matrix(.41432 0 0 .41432 -6.2142 323.82)">
   <title id="title4903">Warning Sign colorized</title>
   <path id="path7" style="fill:#d30000" d="m2299.3 60.437h-2028.6c-99.643 0-180.42 80.776-180.42 180.42v474.49c0 99.643 80.776 180.42 180.42 180.42h2028.6c99.643 0 180.42-80.776 180.42-180.42v-474.49c0-99.642-80.777-180.42-180.42-180.42zm116.49 538.42c0 44.721-36.254 80.975-80.975 80.975l-1049.8 144.89-1049.8-144.9c-44.721 0-80.975-36.254-80.975-80.975v-241.51c0-44.721 36.254-80.975 80.975-80.975l1049.8-144.91 1049.8 144.9c44.721 0 80.975 36.254 80.975 80.975v241.51z"/>
   <g id="g4709">
    <path id="path27" d="m394.19 1114.7c214.12-34.407 189.36 129.05 140.78 170.16-34.579 28.734-96.047 28.28-140.78 22.397v-192.55zm44.502 159.98c3.781 0.872 9.89 0.872 15.416 0.872 40.14 0.291 66.317-21.815 66.317-68.644 0.371-51.889-40.585-69.993-81.733-60.501v128.27z"/>
    <path id="path29" d="m679.81 1311.4c-125.15 0-122.72-202.44 3.2-202.44 125.46 0 125.65 202.44-3.2 202.44zm2.326-35.195c63.115 0 63.299-132.05-0.291-132.05-63.196-0.001-64.38 132.05 0.291 132.05z"/>
    <path id="path31" d="m863.92 1308.2v-196.04h51.774c40.157 70.847 55.462 95.319 72.716 139.03h0.873c-4.515-40.181-3.781-74.888-3.781-139.03h40.72v196.04h-46.537c-43.095-77.81-59.677-105.98-75.916-144.85l-0.873 0.291c2.119 47.127 1.745 83.303 1.745 144.56h-40.721z"/>
    <path id="path33" d="m1147.8 1311.4c-125.15 0-122.72-202.44 3.2-202.44 125.46 0 125.66 202.44-3.2 202.44zm2.327-35.195c63.116 0 63.297-132.05-0.291-132.05-63.197-0.001-64.381 132.05 0.291 132.05z"/>
    <path id="path35" d="m1302.8 1149.3h-52.647v-37.23h150.67v37.23h-53.519v158.81h-44.502v-158.81z"/>
    <path id="path37" d="m1483.2 1114.7c25.91-4.23 94.561-10.74 122.45 11.344 28.323 22.657 23.862 74.651-16.579 89.296v0.872c30.786 12.446 28.158 63.88 42.175 91.914h-45.375c-3.2-5.526-7.853-21.524-13.671-45.665-7.176-33.494-20.433-31.414-45.084-31.414v77.08h-43.921v-193.43zm43.921 84.35c14.109 0 52.646 3.99 52.646-28.213 0-26.71-26.676-30.607-52.646-25.887v54.1z"/>
    <path id="path39" d="m1772.3 1225.3h-72.135v46.539h80.57v36.358h-125.07v-196.04h121v36.358h-76.498v40.721h72.135v36.067z"/>
    <path id="path41" d="m1856.6 1257.8-13.962 50.32h-45.956l59.918-196.04h58.172l60.79 196.04h-47.701l-15.125-50.32h-56.136zm49.738-33.159c-17.135-58.341-13.854-46.404-22.106-79.406h-0.582c-8.621 34.479 1.511 0.183-20.652 79.406h43.34z"/>
    <path id="path43" d="m2001.8 1114.7c214.11-34.405 189.39 129.02 140.78 170.16-34.581 28.734-96.046 28.28-140.78 22.397v-192.55zm44.502 159.98c3.781 0.872 9.89 0.872 15.416 0.872 40.14 0.291 66.318-21.815 66.318-68.644 0.37-51.889-40.585-69.993-81.733-60.501v128.27z"/>
   </g>
   <g id="g4720">
    <path id="path45" d="m688.25 1498.4h-52.647v-37.231h150.67v37.231h-53.519v158.81h-44.502v-158.81z"/>
    <path id="path47" d="m854.33 1461.1v75.335h73.007v-75.335h44.212v196.04h-44.212v-82.024h-73.007v82.024h-44.502v-196.04h44.502z"/>
    <path id="path49" d="m1054.7 1461.1v196.04h-44.502v-196.04h44.502z"/>
    <path id="path51" d="m1094.6 1611.5c30.099 15.414 80.279 20.055 80.279-9.018 0-12.216-9.308-19.197-32.867-27.632-87.793-30.57-60.626-116.93 20.361-116.93 22.105 0 38.394 4.655 50.028 9.89l-9.889 35.777c-27.522-13.252-69.516-14.288-69.516 9.598 0 32.081 87.26 21.25 87.26 86.096 0 67.906-95.795 70.347-134.67 48.866l9.015-36.648z"/>
    <path id="path53" d="m1310.4 1611.5c30.099 15.414 80.278 20.055 80.278-9.018 0-34.359-86.677-23.024-86.677-85.514 0-56.891 73.937-71.771 124.2-49.156l-9.889 35.777c-27.549-13.265-69.517-14.269-69.517 9.598 0 32.081 87.26 21.25 87.26 86.096 0 67.906-95.795 70.347-134.67 48.866l9.018-36.649z"/>
    <path id="path55" d="m1510.5 1461.1v196.04h-44.502v-196.04h44.502z"/>
    <path id="path57" d="m1712.6 1648.2c-208.45 70.963-230.12-189.06-60.79-189.06 25.306 0 44.793 4.944 54.392 9.598l-9.308 35.486c-40.743-17.617-110.53-13.217-110.53 54.974 0 65.661 64.454 70.888 83.479 61.372v-41.012h-30.25v-34.613h73.006v103.26z"/>
    <path id="path59" d="m1747.3 1657.2v-196.04h51.774c39.926 70.443 55.442 95.271 72.715 139.03h0.874c-4.595-40.895-3.781-77.294-3.781-139.03h40.72v196.04h-46.538c-42.823-77.32-59.615-105.83-75.915-144.85l-0.874 0.291c2.102 46.739 1.746 82.147 1.746 144.56h-40.721z"/>
   </g>
   <path id="path4251" style="fill-rule:evenodd;stroke:#000000;stroke-width:2.4136;fill:#000000" d="m1260.5 823.56c-3.7465-1.1083-692.66-96.326-1041.2-143.91-21.831-2.9804-45.203-20.45-56.531-42.255l-9.553-18.389v-140.27c0-154.61 0.008-154.68 21.599-177.2 16.015-16.708 31.839-23.575 64.334-27.921 15.898-2.1261 257.66-35.389 537.25-73.918l508.35-70.053 520.06 71.624c286.03 39.393 527.91 72.655 537.5 73.914 26.589 3.4912 50.724 18.947 63.104 40.41l10.355 17.953-0.8835 147.97-0.8835 147.97-10.412 14.81c-12.142 17.27-28.44 29.132-45.812 33.34-10 2.4226-264.12 37.694-819.64 113.76-25.453 3.4854-86.386 11.969-135.41 18.852-86.796 12.187-131.8 16.394-142.26 13.298z"/>
   <g id="g9" style="fill:#ffffff" transform="translate(-.43544 -1.0225)">
    <path id="path11" style="fill:#ffffff" d="m316.88 639.54-76.649-322.88h78.086c32.215 175.6 30.238 163.21 43.595 245.75h0.957c7.812-51.834 19.319-105.01 48.386-245.75h77.606c27.987 147.19 33.328 170.92 43.115 244.32h0.957c9.047-67.847 31.661-177.22 45.032-244.32h74.255l-83.355 322.88h-79.046c-28.68-145.78-36.68-181.02-42.66-238.57h-0.957c-10.603 67.159-10.155 60.997-49.343 238.57h-80.003z"/>
    <path id="path13" style="fill:#ffffff" d="m739.39 556.66-22.995 82.877h-75.689l98.684-322.88h95.813l100.12 322.88h-78.566l-24.912-82.877h-92.459zm81.92-54.611c-28.13-95.78-22.81-76.36-36.41-130.78h-0.96c-14.197 56.78 2.594-0.083-34.013 130.78h71.381z"/>
    <path id="path15" style="fill:#ffffff" d="m978.42 320.97c40.169-6.56 155.39-17.962 201.68 18.684 46.646 37.319 39.298 122.95-27.306 147.07v1.437c50.701 20.496 46.374 105.21 69.462 151.38h-74.732c-5.268-9.102-12.936-35.45-22.515-75.212-11.823-55.164-33.65-51.737-74.255-51.737v126.95h-72.338v-318.57zm72.338 138.93c23.237 0 86.71 6.571 86.71-46.467 0-43.992-43.923-50.409-86.71-42.638v89.105z"/>
    <path id="path17" style="fill:#ffffff" d="m1262.5 639.54v-322.88h85.274c65.76 116.02 91.311 156.91 119.76 228.99h1.437c-7.568-67.353-6.228-127.3-6.228-228.99h67.067v322.88h-76.649c-70.6-127.34-98.2-174.3-125.1-238.57l-1.439 0.477c3.446 76.656 2.876 134.11 2.876 238.09h-67.069z"/>
    <path id="path19" style="fill:#ffffff" d="m1666.3 316.66v322.88h-73.298v-322.88h73.298z"/>
    <path id="path21" style="fill:#ffffff" d="m1729.5 639.54v-322.88h85.274c65.76 116.02 91.311 156.91 119.76 228.99h1.437c-7.568-67.353-6.228-127.3-6.228-228.99h67.067v322.88h-76.649c-71-128.17-98.3-174.54-125-238.57l-1.437 0.477c3.446 76.741 2.874 134.32 2.874 238.09h-67.069z"/>
    <path id="path23" style="fill:#ffffff" d="m2329.8 624.69c-74.482 25.356-181.39 30.408-239.05-25.391-82.818-77.48-63.716-286 138.93-286 41.678 0 73.775 8.145 89.582 15.807l-15.33 58.445c-66.965-28.959-182.04-21.845-182.04 90.542 0 66.59 41.678 105.87 101.56 105.87 16.767 0 30.18-1.914 35.928-4.791v-67.547h-49.821v-57.006h120.24v170.06z"/>
   </g>
  </g>
 </g>
</svg>
