<?xml version="1.0"?>
<svg xmlns:rdf="http://www.w3.org/1999/02/22-rdf-syntax-ns#" xmlns="http://www.w3.org/2000/svg" xmlns:cc="http://creativecommons.org/ns#" xmlns:xlink="http://www.w3.org/1999/xlink" xmlns:dc="http://purl.org/dc/elements/1.1/" xmlns:svg="http://www.w3.org/2000/svg" id="svg22406" viewBox="0 0 376 321" version="1.0">
  <g id="layer1" transform="translate(-113.77 -263.62)">
    <g id="g9643" transform="translate(.59047 .85433)">
      <path id="path3676" d="m370.22 263.62c-29.587-0.06745-56.575 9.4704-69.036 30.175-12.9-21.434-41.322-30.885-72.138-30.119-45.387 1.1295-95.809 24.497-108.91 64.467-46.828 142.85 180.32 254.77 180.32 254.77h1.4665c0-0.00003 227.15-111.92 180.32-254.77-13.406-40.895-65.859-64.419-112.01-64.524zm-69.036 53.751c6.684 0 12.126 5.4424 12.126 12.126 0 6.684-5.4424 12.07-12.126 12.07-6.684 0.00004-12.126-5.386-12.126-12.07s5.4424-12.126 12.126-12.126z" fill="#9c2150"/>
      <path id="path22947" fill="#ff80b2" d="m258.71 272.48 3.0457 0.95884 0.95883-3.0457-3.0457-0.95883zm-3.4405 12.352 3.0457 0.84603 0.84602-3.1021-3.1021-0.84604zm-3.1021 11.45v0.0564l-0.22562 0.78963 3.0457 0.90243 0.282-0.78962v-0.0564l0.62043-2.2561-3.1021-0.84604zm-3.3277 10.265-0.0564 0.0564-1.0152 2.4253 2.9893 1.2408 1.0152-2.5381 0.05639-0.05639 0.16922-0.4512-3.0457-1.0717zm-6.317 14.044 2.8765 1.3536 1.41-2.8765-2.8765-1.3537zm-5.753 11.28 2.8201 1.5228 1.4664-2.8201-2.8201-1.5228zm-113.93 0.67684 2.3125 1.7484 0.0564 0.0564 0.05641 0.05641 2.1433-2.3689-0.1128-0.11281-0.0564-0.0564-0.05641-0.05639-2.3689-1.8049zm8.8551 8.5167 1.7484 2.3125 0.0564 0.05641 0.05641 0.11279 2.7073-1.7484-0.16919-0.22563v-0.05639h-0.05641l-1.7485-2.3689zm99.662 0.3948h0.0564l-0.90243 1.4664 2.7073 1.6357 0.90243-1.4665v-0.0564l0.73321-1.2408-2.7637-1.5793zm-93.007 10.209 0.16923 0.33843h0.05639l1.0716 2.4817 2.9329-1.2973-1.1844-2.5945v-0.05639l-0.22561-0.33842zm85.336 1.9741 2.6509 1.7485 1.7485-2.6509-2.6509-1.7484zm-6.9938 9.6447-0.0564 0.0564-0.39481 0.50763 2.4817 1.9741 0.45121-0.56402h0.05642l1.4664-2.0305-2.5381-1.9177zm-74.056 0 0.50761 1.692h-0.0564l0.28201 1.2973 3.1585-0.62042-0.28201-1.2972v-0.05641l-0.05641-0.05641-0.45121-1.8048zm65.426 10.265 2.3689 2.1433 2.1433-2.3689-2.3689-2.1433zm-61.873 1.9177-1.5792 0.0564v0.05641l0.05639 3.1021 3.2149-0.05641-0.05641-3.2149v-0.05641zm53.864 6.2042-0.05641 0.05641-0.84602 0.73321 2.1433 2.3689 0.90243-0.78962 0.0564-0.05641 1.41-1.3536-2.1997-2.3125zm-56.289 7.163v0.11279l-0.45121 2.0869 3.1585 0.62043 0.39482-2.1997h0.0564v-0.05642l0.11281-0.95882-3.1585-0.50763zm45.686 1.692 1.9177 2.5381 2.5381-1.9741-1.9177-2.5381zm-8.0655 5.3582-0.05642 0.05639-2.4253 1.41 1.5792 2.7637 2.4817-1.41 0.05643-0.0564h0.05639l0.22561-0.1692-1.6921-2.7073zm-41.286 6.7682v0.05641h-0.05642l-0.11279 0.3384 2.9893 1.1281 0.1692-0.39483v-0.05641l0.90242-2.6509-3.0457-0.95884zm29.047-0.45122h-0.05641l-1.4664 0.56402 1.128 2.9893 1.5792-0.62042h0.05642l1.41-0.62043-1.2972-2.9329zm-13.085 4.3994h-0.0564l-0.28199 0.05639 0.67681 3.1021 0.39481-0.0564v-0.0564h0.0564l2.7073-0.73322-0.84602-3.1021zm-12.747 2.1997 0.33843 3.1585 3.1585-0.3948-0.33843-3.1585zm-12.634 3.6097 1.5228 0.05641h1.7484l-0.05639-3.2149h-3.1585zm5.0762 0.78961v0.05642l-0.73321 1.41 2.8765 1.4101 0.73322-1.4664v-0.05641l0.62044-1.41-2.8765-1.2972zm-5.471 10.265-0.05639 0.05641-1.3537 2.1433 2.7637 1.692 1.3536-2.1996v-0.05641l0.33842-0.50762-2.8201-1.5793z"/>
      <path id="path5283" fill="#ff80b2" d="m178.23 287.14h-0.0564l-0.05641 0.05641h-0.05639l0.3384 1.41 0.0564 0.45121 0.1692 0.95883h0.1128l2.4817-0.3384h0.1128l-0.0564-0.56403-0.0564-2.3125h-0.22561zm11.224 3.2149 2.1997 0.62041 0.45121 0.16922 1.0152-2.7637-0.45119-0.11281-0.0564-0.0564h-0.0564l-2.3689-0.62042zm-22.448 1.2408 1.4664 2.4817 2.4817-1.41-1.4664-2.4817zm32.713 2.9893 2.3125 1.41 0.0564 0.0564h0.05639l0.28202-0.4512 1.3536-1.9177h-0.0564l-0.0564-0.0564-2.4253-1.5228zm-41.061 4.0609v0.05641l-0.0564 0.0564-0.62041 0.73321 2.1997 1.8613 0.50763-0.62043 0.11278-0.1128 1.2973-1.2972-2.0869-2.0305zm50.141 2.6509 0.78963 0.67681h0.0564l1.1844 1.2408 2.0305-2.0869-1.2972-1.2408v-0.05641h-0.0564l-0.78964-0.73322zm-56.458 6.0914v0.05641l-0.0564 0.11279-0.84603 1.9177 2.6509 1.128 0.78962-1.8049v-0.05641l0.0564-0.05641 0.33843-0.564-2.5381-1.41zm64.355 2.0305v0.0564l1.7485 2.1433 2.256-1.8048-1.7484-2.1997h-0.05639l-0.05641-0.05641zm6.7118 9.0807 1.5793 2.4253 2.4253-1.5228-1.5792-2.4253zm-73.774 0.39483v0.2256l0.22561 2.3125 2.8765-0.22562-0.22562-2.1997v-0.16922l0.05641-0.33841-2.8765-0.11279zm79.639 9.4191 1.2972 2.5945 2.5945-1.3536-1.3536-2.5381zm-76.65 1.9177 1.2408 2.3125h0.0564v0.05639l0.16921 0.28199 2.4253-1.6356-0.11281-0.11281-0.0564-0.1128-1.1844-2.1433zm81.501 8.4039 1.0716 2.6509 2.7073-1.0716-1.0716-2.6509zm-74.45 1.2408 2.0869 1.9741 1.9741-2.0869-2.0305-1.9741zm9.1371 7.3886 0.95884 0.67681h0.0564v0.05641l1.4664 0.84604 1.5228-2.4817-1.41-0.78963-0.05641-0.05641-0.90241-0.62041zm69.205 2.0869 0.84604 2.7637 2.7637-0.84602-0.84602-2.7637zm-58.827 3.5533 2.6509 1.128 1.128-2.6509-2.6509-1.128zm11.111 3.8353 1.7485 0.45122h0.0564l1.0716 0.22559 0.56402-2.8201-1.0152-0.22561h-0.0564l-1.6357-0.45122zm22.956-1.6356 0.50763 2.8765 1.3536-0.28201-0.50762-2.8201zm-11.337 3.4969h0.2256l0.05641 0.0564 2.6509 0.0564 0.11282-2.8765-2.5945-0.11281h-0.22561zm38.861 1.8048 0.11279 0.62043v0.05641l0.33843 2.0868 2.8201-0.3948-0.28199-2.1997-0.05641-0.0564-0.11282-0.67684zm1.3536 11.28 0.11281 2.1433v0.62041h2.8765v-0.67681l-0.11281-2.2561zm-0.33841 14.157 2.8765 0.28201 0.22561-2.8765-2.8765-0.282zm-1.9741 11.168 2.8201 0.67682 0.62043-2.8201-2.7637-0.67682zm-2.6509 8.7987v0.05641l-0.73323 1.974 2.7073 1.0152 0.73322-2.0305h0.0564v-0.05639l0.2256-0.67683-2.7637-0.90244zm-4.7378 11.168v0.05641l-0.62041 1.1844 2.5381 1.3536 0.62042-1.2408h0.05639v-0.05641l0.62044-1.3537-2.5945-1.2408zm-6.1478 10.773v0.0564l-0.1692 0.282 2.3689 1.5793 0.22562-0.33842 1.3536-2.1433-2.4817-1.5228zm-6.8246 9.6447 2.3125 1.7484 1.7485-2.3125-2.3125-1.7485zm-6.035 7.3322-1.2972 1.4101 2.1433 1.9741 1.2972-1.4665h0.05641l0.62043-0.73322-2.1997-1.8613zm-9.0807 9.5883v0.05639l-0.11279 0.05641 2.0305 2.0869 0.1128-0.11281 1.9177-1.9741-2.0305-2.0305zm-6.5426 6.2042-1.9741 1.692 1.9177 2.1997 1.974-1.7485 0.22563-0.1692-1.9741-2.1433zm-10.773 9.1371 1.8049 2.1997 2.2561-1.8049-1.8049-2.2561zm-9.0807 6.9938 1.7485 2.3125 2.3125-1.7485-1.7485-2.2561zm-9.3063 6.7118 1.6357 2.3689 2.3689-1.6921-1.6921-2.3125z"/>
      <path id="path5304" fill="#ff80b2" d="m308.06 428.99h-0.0564l-0.05641 0.05639-1.7485 0.22563 0.39482 2.8765 1.6356-0.28201h0.11281l1.0152-0.0564-0.16921-2.8765zm9.7575 2.1433-0.22561 0.95883h0.1128v0.0564h0.05641l2.5945 0.56403 0.62042-2.8201-2.7637-0.62041h-0.1692zm-20.756 0.22561-0.1128 0.05639h-0.0564l-2.1433 0.95883 1.128 2.6509 2.0305-0.90243 0.1128-0.0564 0.33841-0.05641-0.84603-2.7637zm30.683 4.625 2.0869 1.4664 0.1128 0.1128 1.9177-2.1433-0.1128-0.1128-0.0564-0.0564h-0.0564l-2.1997-1.6356zm-41.004 2.0305-0.1128 0.05639-0.05641 0.05641-1.3536 1.692 2.1997 1.8613 1.2972-1.5792 0.11281-0.1128 0.39482-0.39482-2.0305-2.0869zm48.788 5.6402 1.2972 1.974 0.0564 0.05641 0.1128 0.28201 2.5381-1.3536-0.22561-0.39483v-0.05641l-0.0564-0.05639-1.2972-2.0305zm-55.048 7.0502v0.1128l-0.0564 0.22559 2.8765 0.45122v-0.2256l0.62041-2.4817-2.8201-0.67683zm60.012 2.8765 0.90243 2.7637 2.7637-0.90243-0.90243-2.7073zm-60.519 6.4298 0.28201 2.8201v0.16922l2.8765-0.45122-0.282-2.8201zm63.226 4.5686 0.22561 1.5792v0.05641l0.1692 1.128 2.8201-0.28202-0.11281-1.1844v-0.11279l-0.28201-1.6357zm-61.083 6.9938 0.2256 0.78963v0.0564h0.05641l0.67681 1.974 2.7073-0.90243-0.67683-1.9176v-0.05641l-0.1692-0.73323zm62.042 4.2865v2.8201l2.8765 0.05639 0.0564-2.0304v-0.05641l-0.0564-0.84601zm46.588 6.4298-0.0564 0.0564-0.45121 0.95882 2.5945 1.2972 0.50762-1.0716v-0.05641l0.0564-0.0564 0.62042-1.5792-2.7073-1.0716zm-104.17 0.28201 1.1844 2.3125 0.0564 0.0564 0.1128 0.22561 2.4817-1.4665-0.1128-0.1692v-0.05641l-1.1844-2.2561zm57.135 5.2454v0.05641l-0.22561 2.1997 2.8765 0.28201 0.22561-2.1997v-0.0564l0.0564-0.6204-2.8765-0.22561zm41.286 3.3841-0.0564 0.1128-1.0152 1.0717 2.0869 1.974 1.128-1.1844v-0.05641h0.0564l0.78963-1.0152-2.2561-1.8049zm-92.273 1.3537 0.73323 1.0716 0.0564 0.0564 0.95883 1.2408 2.2561-1.8049-0.95885-1.1844v-0.05639l-0.73321-1.0152zm83.87 6.317h-0.0564l-1.128 0.78963 1.6357 2.3689 1.1844-0.78964 0.0564-0.0564h0.0564l1.0716-0.84602-1.7485-2.3125zm-34.462 0.33842v0.05639l-0.45121 2.0305 2.8201 0.62042 0.45122-2.0869v-0.05641l0.1128-0.73322-2.8201-0.50762zm-41.681 2.2561 2.1433 1.9177 1.9741-2.1433-2.1433-1.9176zm65.877 3.4405-0.0564 0.05641-0.67682 0.28202 1.1844 2.5945 0.73322-0.282 0.05641-0.05641 1.8613-0.90243-1.2972-2.5945zm-56.458 3.7225 1.0152 0.62042h0.0564l1.5228 0.78962 1.2972-2.5945-1.41-0.67681-0.0564-0.0564-0.95884-0.56403zm45.121 0.56401 0.84603 2.7073 2.7073-0.78963 0.0564-0.05641-0.45122-1.3536-0.39481-1.3536h-0.0564zm-15.905 2.4817-0.22561 0.67684 2.7637 0.84602 0.2256-0.67682v-0.0564l0.62042-2.0869-2.8201-0.73322zm-18.274 1.5229 0.95883 0.2256 0.0564 0.05642 1.9177 0.3948 0.56401-2.8765-1.8049-0.33842h-0.0564l-0.84603-0.282zm24.93-1.9741h-0.0564l-1.7485 0.22561 0.33842 2.8765 1.8613-0.28202h0.0564l1.0152-0.16921-0.50762-2.8201zm-13.198 3.6661h1.0716l0.0564 0.0564 1.8049-0.0564v-2.8765h-2.8201zm3.4405 5.6966v0.0564l-1.0152 2.4253 2.6509 1.128 1.0152-2.4817h0.0564v-0.0564l0.0564-0.22561-2.7073-0.95883zm-5.8094 12.126v0.0564l-0.28201 0.39482 2.4817 1.5229 0.28201-0.50762 0.0564-0.05641 1.0716-2.0304-2.5381-1.3537zm-6.599 9.9267 2.3125 1.7485 1.7484-2.3125-2.3125-1.7485zm-5.8094 6.8246-0.05641 0.0564-1.6356 1.6356 2.0869 2.0305 1.6357-1.692h0.0564v-0.05641l0.33841-0.39481-2.1433-1.9177zm-8.9115 8.1783-0.0564 0.0564-1.2408 0.90244 1.7484 2.3125 1.2408-0.95883 0.0564-0.05639 1.0152-0.84603-1.8613-2.1997zm-9.9831 6.881h-0.0564l-0.67683 0.39483 1.4665 2.4817 0.73322-0.39483 0.0564-0.05639 1.6921-1.0716-1.5228-2.4253zm-10.886 5.6402 1.2408 2.5945 2.6509-1.2408-1.2408-2.5945z"/>
      <path id="path5302" fill="#ff80b2" d="m412.07 279.98h-0.22561l-0.56402 0.11281 0.56402 2.8765 0.39481-0.11279h0.16921l2.1433-0.16921-0.22561-2.8765zm10.604 3.6097 2.2561 0.5076 0.11281 0.0564 0.33841 0.05641 0.84603-2.7073-0.39482-0.1692h-0.1128l-2.3689-0.56403zm-21.376 0.564-0.0564 0.05641-0.1128 0.0564-0.90243 0.73323 1.8049 2.2561 0.78962-0.62042 0.1128-0.0564 0.05641-0.05641 1.2972-0.78962-1.5792-2.4817zm31.867 3.1585 1.0716 0.50762 0.11281 0.05641 1.2408 0.78963 1.5228-2.4253-1.3536-0.84604-0.0564-0.0564h-0.0564l-1.128-0.62042zm-39.594 5.3582-0.05641 0.05641v0.05642l-0.84602 1.5792 2.5381 1.3537 0.78963-1.4101 0.0564-0.11279 0.56402-0.84603-2.4253-1.5792zm48.224 1.3537 0.90243 1.0152 0.0564 0.11281 0.67683 1.0152 2.4253-1.6357-0.78963-1.128-0.0564-0.0564-0.0564-0.0564-0.95883-1.128zm-52.905 10.096-0.0564 0.0564v0.05641l-0.28201 1.2972 2.8201 0.6204 0.28201-1.1844v-0.11281l0.39482-1.41-2.7637-0.78963zm58.094-0.56403 0.28201 0.90244 0.0564 0.11281 0.33842 1.6921 2.8201-0.67684-0.39481-1.7485v-0.11279l-0.33842-1.0152zm-59.955 13.649 2.8765 0.1692 0.16921-2.8765-2.8765-0.2256zm61.365-1.5793v0.11281l-0.1128 1.5792 2.8765 0.1692 0.1128-1.6356v-1.2973l-2.8765-0.0564zm-2.0305 12.408v0.05641l-0.11281 0.22561 2.7637 0.84604 0.11279-0.28202v-0.0564l0.62042-2.5381-2.7637-0.67682zm-59.109-1.9741 0.1128 1.5793v0.1128l0.16921 1.2408 2.8765-0.39482-0.1692-1.1844v-0.0564l-0.11281-1.5793zm55.725 11.732v0.05641l-0.50762 1.1844 2.5945 1.128 0.56402-1.1844v-0.05641l0.56402-1.4664-2.6509-1.0716zm-53.807-0.16919 0.1128 0.282v0.05639l0.73323 2.4817 2.7637-0.78963-0.73322-2.4253v-0.05639l-0.05641-0.2256zm-171.97 10.547 2.3689 1.6357 1.6356-2.3689-2.4253-1.6357zm220.98-0.50759v0.05638l-0.84602 1.4664 2.4817 1.4664 0.90243-1.5228v-0.05639l0.56401-1.0152-2.5945-1.3536zm-45.009 1.0716 0.90243 1.8049v0.05639l0.05641 0.0564 0.39481 0.73323 2.5381-1.41-0.39481-0.67681-0.0564-0.05641v-0.05642l-0.78963-1.6921zm-166.44 5.9222 2.4253 1.5792 1.5792-2.4253-2.4253-1.5792zm205.47 2.7073v0.05638l-1.0152 1.4101 2.3689 1.6356 1.0152-1.41v-0.0564l0.67683-0.95884-2.4253-1.5792zm-32.657 1.4664 1.7485 1.9176v0.05641h0.0564l0.22561 0.22561 1.9741-2.0305-0.11281-0.1692-1.7485-1.9177zm-163.11 2.1433 2.4253 1.5228 1.5792-2.4253-2.4253-1.5228zm246.93 3.0457 2.1433 1.9741 1.4664-1.6356-2.1433-1.9177zm-75.014 2.7637 1.9177 1.2972h0.0564l0.50762 0.3384 1.5228-2.4817-0.45122-0.282-0.0564-0.0564-1.8613-1.2408zm-162.1 0.28202 2.3125 1.41 0.22562 0.11283 1.41-2.4817-0.11279-0.11282h-0.05641l-2.2561-1.41zm178.91-0.39483v0.05641l-0.95883 1.0716 2.1997 1.9177 0.95883-1.128v-0.05642h0.05641l0.84603-1.0716-2.2561-1.8048zm51.664 2.6509-2.3125 1.2972 1.4101 2.5381 2.4253-1.41h0.0564v-0.0564l0.1128-0.0564-1.5793-2.3689zm-58.15 3.2149 2.5381 1.0716h0.0564l0.11281 0.05641 1.0152-2.7073h-0.0564l-0.0564-0.0564-2.4817-1.0152zm-162.44 0.39483 0.56403 0.28201 2.0305 1.128 1.3536-2.5381-1.9741-1.0716-0.50762-0.28201zm173.49 3.4405 0.56402 0.1128v0.0564h0.0564l2.2561 0.50763 0.67682-2.8201-2.2561-0.5076h-0.05641l-0.45121-0.11282zm-13.367-0.28202 2.0305 2.0869 2.0869-2.0305-2.0305-2.0305zm24.93 2.4253 1.6357 0.16921h0.0564l1.2408 0.05641 0.22561-2.8765-1.2408-0.05641h-0.0564l-1.5228-0.1692zm-174.85-0.0564 2.5945 1.3536 1.2972-2.5945-2.5381-1.2972zm10.378 5.2454 2.5945 1.2408 1.2408-2.5945-2.5945-1.2408zm131.53-0.67683-0.0564 0.05641-0.50761 0.3948 1.692 2.3125 0.56402-0.39481 0.0564-0.05641 1.6921-1.3536-1.8049-2.2561zm-120.98 5.471 2.5945 1.1844 1.1844-2.6509-2.6509-1.1844zm110.89 1.2408 1.4664 2.4817 2.4817-1.4664-1.4664-2.4817zm-100.17 3.1585 1.0716 0.39481v0.05641l1.6357 0.56403 1.0152-2.7073-1.6356-0.62042v0.05641l-1.0152-0.45122zm92.104 0.95884-0.1128 0.05641-1.9741 0.78962 1.0716 2.7073 2.0869-0.84602 0.0564-0.0564 0.56402-0.28202-1.1844-2.5945zm-81.106 2.8765 2.7637 0.84603 0.84603-2.7637-2.7637-0.84601zm11.168 3.1585 0.45121 0.11281 2.3689 0.564 0.67682-2.8201-2.3689-0.50761-0.39482-0.11283zm58.432-1.9177h-0.0564l-1.2972 0.33843 0.73322 2.7637 1.3536-0.3384h0.0564l1.41-0.45122-0.84603-2.7637zm-47.039 4.343 1.9177 0.28201v0.0564h0.0564l0.90243 0.1128 0.45122-2.8765-0.90243-0.1128h-0.05641l-1.8613-0.33842zm35.251-1.9177h-0.0564l-0.62042 0.05641 0.33841 2.8765 0.67682-0.05641h0.05641l2.1433-0.39481-0.45122-2.8201zm-23.689 3.3841 2.8765 0.22561 0.22561-2.8765-2.8765-0.2256zm11.619-2.4817 0.11281 2.8765 2.8765-0.05641-0.1128-2.9329z"/>
      <path id="path5300" d="m243.43 282.8c-36.316 0.90373-76.657 19.569-87.141 51.551-37.47 114.3 144.33 203.89 144.33 203.89h1.128s181.8-89.591 144.33-203.89c-17.603-53.697-119.37-69.822-144.9-27.411-10.322-17.151-33.098-24.754-57.756-24.14zm57.756 34.574c6.684 0 12.126 5.4424 12.126 12.126 0 6.684-5.4424 12.07-12.126 12.07-6.684 0.00004-12.126-5.386-12.126-12.07s5.4424-12.126 12.126-12.126z" fill="#810737"/>
      <path id="path5272" stroke="#ff80b2" stroke-width="1.3172" fill="#ff80b2" d="m301.18 309.48c-11.054 0.00001-20.023 8.9686-20.023 20.023s8.9686 20.023 20.023 20.023c11.054 0.00001 20.023-8.9686 20.023-20.023s-8.9686-20.023-20.023-20.023zm0 7.8963c6.684 0 12.126 5.4424 12.126 12.126 0 6.684-5.4424 12.07-12.126 12.07-6.684 0.00004-12.126-5.386-12.126-12.07 0-0.41775 0.0715-0.83399 0.11282-1.2408 0.61971-6.1027 5.7474-10.886 12.014-10.886z"/>
      <g id="g5824" stroke="#fff" transform="matrix(1.4981 .42163 -.42163 1.4981 715.1 102.8)">
        <path id="path4619" transform="matrix(.83612 0 0 .83612 18.891 99.024)" fill="#fff" d="m-243.6 161.77c0 1.0734-0.79196 1.9446-1.7678 1.9446-0.97581 0-1.7678-0.87116-1.7678-1.9446s0.79196-1.9445 1.7678-1.9445c0.97581 0 1.7678 0.87115 1.7678 1.9445z"/>
        <path id="path4625" transform="matrix(.83612 0 0 .83612 18.184 77.114)" fill="#fff" d="m-243.6 161.77c0 1.0734-0.79196 1.9446-1.7678 1.9446-0.97581 0-1.7678-0.87116-1.7678-1.9446s0.79196-1.9445 1.7678-1.9445c0.97581 0 1.7678 0.87115 1.7678 1.9445z"/>
        <path id="path4627" transform="matrix(.83612 0 0 .83612 37.477 99.024)" fill="#fff" d="m-243.6 161.77c0 1.0734-0.79196 1.9446-1.7678 1.9446-0.97581 0-1.7678-0.87116-1.7678-1.9446s0.79196-1.9445 1.7678-1.9445c0.97581 0 1.7678 0.87115 1.7678 1.9445z"/>
        <path id="path4629" transform="matrix(.83612 0 0 .83612 37.477 76.76)" fill="#fff" d="m-243.6 161.77c0 1.0734-0.79196 1.9446-1.7678 1.9446-0.97581 0-1.7678-0.87116-1.7678-1.9446s0.79196-1.9445 1.7678-1.9445c0.97581 0 1.7678 0.87115 1.7678 1.9445z"/>
        <path id="path4631" transform="matrix(.83612 0 0 .83612 28.666 88.551)" fill="#fff" d="m-243.6 161.77c0 1.0734-0.79196 1.9446-1.7678 1.9446-0.97581 0-1.7678-0.87116-1.7678-1.9446s0.79196-1.9445 1.7678-1.9445c0.97581 0 1.7678 0.87115 1.7678 1.9445z"/>
        <path id="path4633" stroke-width="1px" fill="none" d="m-185.62 234.07c-0.07548-1.7667-0.07548-3.5366 0-5.3033 0.07556-1.7686 0.22634-3.5476 0-5.3033-0.23063-1.789-0.84821-3.5121-1.0607-5.3033-0.22603-1.9057 0.01894-3.8655 0.7071-5.6569 1.4949 0.93177 2.8195 2.1359 3.8891 3.5355 1.0324 1.3509 1.8225 2.872 2.8284 4.2426 0.98992 1.3488 2.1867 2.5456 3.5355 3.5355 1.6997-2.1692 3.1284-4.5505 4.2426-7.0711 0.6672-1.5093 1.2605-3.1252 2.4749-4.2426 0.50919-0.46852 1.1147-0.83186 1.7678-1.0607-0.64173 2.6625-0.99798 5.3937-1.0607 8.1317-0.04316 1.8852 0.05236 3.7718 0 5.6568-0.05243 1.8875-0.25252 3.7856 0 5.6569 0.16523 1.2244 0.52463 2.4224 1.0607 3.5355"/>
        <path id="path4675" transform="matrix(.83612 0 0 .83612 43.64 76.76)" fill="#fff" d="m-243.6 161.77c0 1.0734-0.79196 1.9446-1.7678 1.9446-0.97581 0-1.7678-0.87116-1.7678-1.9446s0.79196-1.9445 1.7678-1.9445c0.97581 0 1.7678 0.87115 1.7678 1.9445z"/>
        <path id="path4677" transform="matrix(.83612 0 0 .83612 54.933 98.67)" fill="#fff" d="m-243.6 161.77c0 1.0734-0.79196 1.9446-1.7678 1.9446-0.97581 0-1.7678-0.87116-1.7678-1.9446s0.79196-1.9445 1.7678-1.9445c0.97581 0 1.7678 0.87115 1.7678 1.9445z"/>
        <path id="path4679" transform="matrix(.83612 0 0 .83612 62.933 76.406)" fill="#fff" d="m-243.6 161.77c0 1.0734-0.79196 1.9446-1.7678 1.9446-0.97581 0-1.7678-0.87116-1.7678-1.9446s0.79196-1.9445 1.7678-1.9445c0.97581 0 1.7678 0.87115 1.7678 1.9445z"/>
        <path id="path4685" stroke-width="1px" fill="none" d="m-150.61 223.82c-0.17661 1.7632-0.29455 3.5323-0.35356 5.3033-0.05137 1.5418-0.05519 3.1086 0.35356 4.5962 0.16851 0.61325 0.40619 1.2075 0.7071 1.7678"/>
        <path id="path4681" transform="matrix(.83612 0 0 .83612 54.122 88.198)" fill="#fff" d="m-243.6 161.77c0 1.0734-0.79196 1.9446-1.7678 1.9446-0.97581 0-1.7678-0.87116-1.7678-1.9446s0.79196-1.9445 1.7678-1.9445c0.97581 0 1.7678 0.87115 1.7678 1.9445z"/>
        <path id="path4683" stroke-width="1px" fill="none" d="m-160.51 212.15c1.4949 0.93177 2.8195 2.1359 3.8891 3.5355 1.0324 1.3509 1.8225 2.872 2.8284 4.2426 0.98992 1.3488 2.1867 2.5456 3.5355 3.5355 1.6997-2.1692 3.1284-4.5505 4.2426-7.0711 0.6672-1.5093 1.2605-3.1252 2.4749-4.2426 0.50919-0.46852 1.1147-0.83186 1.7678-1.0607"/>
      </g>
      <g id="g6366" stroke="#fff" transform="matrix(1.8049 0 0 1.8049 496.56 -40.836)">
        <g id="g6300" fill="#fff" transform="translate(0 .057409)">
          <path id="path5477" transform="matrix(.48497 0 0 .48497 -58.18 177.75)" d="m-243.6 161.77c0 1.0734-0.79196 1.9446-1.7678 1.9446-0.97581 0-1.7678-0.87116-1.7678-1.9446s0.79196-1.9445 1.7678-1.9445c0.97581 0 1.7678 0.87115 1.7678 1.9445z"/>
          <path id="path5479" transform="matrix(.48497 0 0 .48497 -52.064 191.33)" d="m-243.6 161.77c0 1.0734-0.79196 1.9446-1.7678 1.9446-0.97581 0-1.7678-0.87116-1.7678-1.9446s0.79196-1.9445 1.7678-1.9445c0.97581 0 1.7678 0.87115 1.7678 1.9445z"/>
          <path id="path5481" transform="matrix(.48497 0 0 .48497 -47.207 177.61)" d="m-243.6 161.77c0 1.0734-0.79196 1.9446-1.7678 1.9446-0.97581 0-1.7678-0.87116-1.7678-1.9446s0.79196-1.9445 1.7678-1.9445c0.97581 0 1.7678 0.87115 1.7678 1.9445z"/>
          <path id="path5506" stroke-width=".58002px" d="m-166.35 256.23c-0.45483 1.4016-1.0033 2.7728-1.6406 4.1014-0.63896 1.3322-1.3761 2.6478-1.6406 4.1014-0.18536 1.019-0.13181 2.0784-0.41014 3.076-0.2694 0.96556-0.85288 1.8408-1.6406 2.4608"/>
          <path id="path5514" stroke-width=".58002px" d="m-177.38 255.72c1.1061 1.875 2.0021 3.8738 2.6659 5.947 0.44795 1.3991 0.7906 2.832 1.2922 4.2127 0.50161 1.3808 1.1761 2.7257 2.194 3.785 0.06698 0.06971 0.13536 0.13809 0.20507 0.20508"/>
        </g>
        <g id="g6307" fill="#fff" transform="translate(3.2652 -.15256)">
          <path id="path5518" transform="matrix(-.48497 0 0 -.48497 -279.53 334.52)" d="m-243.6 161.77c0 1.0734-0.79196 1.9446-1.7678 1.9446-0.97581 0-1.7678-0.87116-1.7678-1.9446s0.79196-1.9445 1.7678-1.9445c0.97581 0 1.7678 0.87115 1.7678 1.9445z"/>
          <path id="path5520" transform="matrix(-.48497 0 0 -.48497 -285 348.29)" d="m-243.6 161.77c0 1.0734-0.79196 1.9446-1.7678 1.9446-0.97581 0-1.7678-0.87116-1.7678-1.9446s0.79196-1.9445 1.7678-1.9445c0.97581 0 1.7678 0.87115 1.7678 1.9445z"/>
          <path id="path5522" transform="matrix(-.48497 0 0 -.48497 -274.15 348.2)" d="m-243.6 161.77c0 1.0734-0.79196 1.9446-1.7678 1.9446-0.97581 0-1.7678-0.87116-1.7678-1.9446s0.79196-1.9445 1.7678-1.9445c0.97581 0 1.7678 0.87115 1.7678 1.9445z"/>
          <path id="path5524" stroke-width=".58002px" d="m-166.31 270.25c0.45483-1.4016 1.0033-2.7728 1.6406-4.1014 0.63896-1.3322 1.3761-2.6478 1.6406-4.1014 0.18536-1.019 0.13181-2.0784 0.41014-3.076 0.2694-0.96556 0.85288-1.8408 1.6406-2.4608"/>
          <path id="path5532" stroke-width=".58002px" d="m-155.17 269.97c-0.45484-1.4016-1.0033-2.7728-1.6406-4.1014-0.63896-1.3322-1.3761-2.6478-1.6406-4.1014-0.18536-1.019-0.13181-2.0784-0.41014-3.076-0.2694-0.96556-0.85288-1.8408-1.6406-2.4608"/>
          <path id="path5540" stroke-width=".54991px" d="m-163.3 263.29c0.98228-0.52513 2.0874-0.81871 3.2008-0.85029 0.65763-0.01866 1.3178 0.05309 1.956 0.21258"/>
        </g>
        <g id="g6315" transform="translate(5.4787 -.071733)">
          <path id="path5544" stroke-width=".57332px" fill="none" d="m-153.89 255.61c0.10208 1.1992 0.17052 2.4012 0.20521 3.6042 0.03848 1.3345 0.03544 2.6701 0 4.0047-0.03013 1.1348-0.08363 2.2718 0 3.404 0.0803 1.0869 0.28734 2.1644 0.61559 3.2037 1.097 0.0033 2.1939 0.07019 3.2832 0.20023 1.5023 0.17934 3.0272 0.47837 4.5144 0.20023 0.72597-0.13578 1.426-0.409 2.052-0.80092"/>
          <path id="path5548" transform="matrix(-.48497 0 0 -.48497 -272.9 334.48)" fill="#fff" d="m-243.6 161.77c0 1.0734-0.79196 1.9446-1.7678 1.9446-0.97581 0-1.7678-0.87116-1.7678-1.9446s0.79196-1.9445 1.7678-1.9445c0.97581 0 1.7678 0.87115 1.7678 1.9445z"/>
          <path id="path5601" transform="matrix(-.48497 0 0 -.48497 -262.46 348.4)" fill="#fff" d="m-243.6 161.77c0 1.0734-0.79196 1.9446-1.7678 1.9446-0.97581 0-1.7678-0.87116-1.7678-1.9446s0.79196-1.9445 1.7678-1.9445c0.97581 0 1.7678 0.87115 1.7678 1.9445z"/>
        </g>
        <g id="g6330" transform="translate(8.9192 -.0000072750)">
          <path id="path5639" stroke-width=".57075px" fill="none" d="m-128.37 270.39v-1.3328c0-0.72798 0.07256-1.2789 0.07256-1.9642 0-0.77142-0.07256-1.5511-0.07256-2.315 0-0.94735-0.07256-1.9138-0.07256-2.8762 0-1.2132 0.24333-2.682 0-3.8583-0.14381-0.69523-0.14511-3.0644-0.14511-2.1747 0 0.11784 2.2799 2.2708 2.612 2.806 0.90275 1.4547 1.9458 2.6816 2.9022 4.0687 1.0469 1.5183 1.7978 3.4997 3.4101 4.2792 1.0197 0.49295 2.7689 1.7178 3.1199 2.7359 0.0365 0.10588 0.50799 0.4384 0.50799 0.55415"/>
          <path id="path5643" stroke-width=".58002px" fill="#fff" d="m-115.75 255.81c-0.05891 0.77176-0.08312 1.5462-0.07251 2.3201 0.01558 1.1369 0.10619 2.2713 0.14501 3.4076 0.04457 1.3044 0.02086 2.6101 0 3.9152-0.01043 0.65251-0.02015 1.3053 0 1.9576 0.01499 0.48543 0.04573 0.97901-0.0725 1.4501-0.08752 0.34868-0.25384 0.67238-0.36252 1.015-0.08191 0.25825-0.13076 0.52697-0.145 0.79753"/>
          <path id="path5649" transform="matrix(-.48497 0 0 -.48497 -247.38 348.4)" fill="#fff" d="m-243.6 161.77c0 1.0734-0.79196 1.9446-1.7678 1.9446-0.97581 0-1.7678-0.87116-1.7678-1.9446s0.79196-1.9445 1.7678-1.9445c0.97581 0 1.7678 0.87115 1.7678 1.9445z"/>
          <path id="path5651" transform="matrix(-.48497 0 0 -.48497 -247.38 334.48)" fill="#fff" d="m-243.6 161.77c0 1.0734-0.79196 1.9446-1.7678 1.9446-0.97581 0-1.7678-0.87116-1.7678-1.9446s0.79196-1.9445 1.7678-1.9445c0.97581 0 1.7678 0.87115 1.7678 1.9445z"/>
          <path id="path5653" transform="matrix(-.48497 0 0 -.48497 -234.62 334.48)" fill="#fff" d="m-243.6 161.77c0 1.0734-0.79196 1.9446-1.7678 1.9446-0.97581 0-1.7678-0.87116-1.7678-1.9446s0.79196-1.9445 1.7678-1.9445c0.97581 0 1.7678 0.87115 1.7678 1.9445z"/>
          <path id="path5655" transform="matrix(-.48497 0 0 -.48497 -234.91 348.47)" fill="#fff" d="m-243.6 161.77c0 1.0734-0.79196 1.9446-1.7678 1.9446-0.97581 0-1.7678-0.87116-1.7678-1.9446s0.79196-1.9445 1.7678-1.9445c0.97581 0 1.7678 0.87115 1.7678 1.9445z"/>
        </g>
        <g id="g6320" transform="translate(7.779 -.10768)">
          <path id="path5603" stroke-width=".57332px" fill="none" d="m-142.29 255.61c0.10207 1.1992 0.17051 2.4012 0.2052 3.6042 0.03848 1.3345 0.03544 2.6701 0 4.0047-0.03013 1.1348-0.08363 2.2718 0 3.404 0.0803 1.0869 0.28734 2.1644 0.6156 3.2037 1.0944 0.06598 2.1888 0.13273 3.2832 0.20023 1.5036 0.09275 3.008 0.18696 4.5144 0.20023 0.97449 0.00858 1.9493-0.01673 2.922-0.07589"/>
          <path id="path5605" transform="matrix(-.48497 0 0 -.48497 -261.3 334.48)" fill="#fff" d="m-243.6 161.77c0 1.0734-0.79196 1.9446-1.7678 1.9446-0.97581 0-1.7678-0.87116-1.7678-1.9446s0.79196-1.9445 1.7678-1.9445c0.97581 0 1.7678 0.87115 1.7678 1.9445z"/>
          <path id="path5607" transform="matrix(-.48497 0 0 -.48497 -249.7 348.4)" fill="#fff" d="m-243.6 161.77c0 1.0734-0.79196 1.9446-1.7678 1.9446-0.97581 0-1.7678-0.87116-1.7678-1.9446s0.79196-1.9445 1.7678-1.9445c0.97581 0 1.7678 0.87115 1.7678 1.9445z"/>
          <path id="path5611" transform="matrix(-.48497 0 0 -.48497 -249.7 341.44)" fill="#fff" d="m-243.6 161.77c0 1.0734-0.79196 1.9446-1.7678 1.9446-0.97581 0-1.7678-0.87116-1.7678-1.9446s0.79196-1.9445 1.7678-1.9445c0.97581 0 1.7678 0.87115 1.7678 1.9445z"/>
          <path id="path5613" transform="matrix(-.48497 0 0 -.48497 -249.7 334.48)" fill="#fff" d="m-243.6 161.77c0 1.0734-0.79196 1.9446-1.7678 1.9446-0.97581 0-1.7678-0.87116-1.7678-1.9446s0.79196-1.9445 1.7678-1.9445c0.97581 0 1.7678 0.87115 1.7678 1.9445z"/>
          <path id="path5615" stroke-width=".60059px" fill="#fff" d="m-142.18 255.94c0.10836 0 0.10836 0 0 0-0.97972 0 1.6662-0.07518 2.6004-0.20807 0.78002-0.11096 1.641-0.06936 2.4379-0.06936h3.1692c0.72398 0 1.8671 0.18353 2.4592 0.01509 0.29563-0.0841 0.72445 0.20507 1.0351 0.20507"/>
          <path id="path5623" stroke-width=".60803px" fill="#fff" d="m-141.99 262.64c0.84169 0.05271 1.6852 0.07558 2.5286 0.06853 1.0117-0.00845 2.0226-0.05993 3.0343-0.06853 0.81689-0.00695 1.6366 0.01429 2.4443 0.13707 0.14071 0.02139 0.28093 0.04585 0.42143 0.06853 0.14051 0.02268 0.28131 0.0436 0.42143 0.06854 0.50379 0.08966 1.0061 0.23188 1.5171 0.20561 0.29052-0.01494 0.5781-0.08509 0.84286-0.20561"/>
          <path id="path5659" transform="matrix(-.48497 0 0 -.48497 -260.14 348.4)" fill="#fff" d="m-243.6 161.77c0 1.0734-0.79196 1.9446-1.7678 1.9446-0.97581 0-1.7678-0.87116-1.7678-1.9446s0.79196-1.9445 1.7678-1.9445c0.97581 0 1.7678 0.87115 1.7678 1.9445z"/>
        </g>
        <g id="g6338" fill="#fff" transform="translate(8.8994 -.14363)">
          <g id="g5673" transform="matrix(.58002 0 0 .58002 -28.751 152.66)">
            <path id="path5665" transform="matrix(-.83612 0 0 -.83612 -348.94 313.46)" d="m-243.6 161.77c0 1.0734-0.79196 1.9446-1.7678 1.9446-0.97581 0-1.7678-0.87116-1.7678-1.9446s0.79196-1.9445 1.7678-1.9445c0.97581 0 1.7678 0.87115 1.7678 1.9445z"/>
            <path id="path5667" transform="matrix(-.83612 0 0 -.83612 -328.94 313.46)" d="m-243.6 161.77c0 1.0734-0.79196 1.9446-1.7678 1.9446-0.97581 0-1.7678-0.87116-1.7678-1.9446s0.79196-1.9445 1.7678-1.9445c0.97581 0 1.7678 0.87115 1.7678 1.9445z"/>
            <path id="path5669" stroke-width="1.0355px" d="m-143.57 178.07c0.18681 0 0.18681 0 0 0-1.6891 0 2.8727-0.12962 4.4833-0.35873 1.3448-0.1913 2.8292-0.11958 4.2031-0.11958h5.464c1.2482 0 3.219 0.31642 4.2398 0.02602 0.50969-0.145 1.249 0.35355 1.7846 0.35355"/>
          </g>
          <path id="path5678" stroke-width=".57075px" d="m-106.33 270.39v-1.3328c0-0.72798 0.07256-1.2789 0.07256-1.9642 0-0.77142-0.07256-1.5511-0.07256-2.315 0-0.94735-0.07256-1.9138-0.07256-2.8762 0-1.2132 0.24333-2.682 0-3.8583-0.14381-0.69523-0.14511-3.0644-0.14511-2.1747"/>
          <path id="path5680" transform="matrix(-.48497 0 0 -.48497 -225.34 348.4)" d="m-243.6 161.77c0 1.0734-0.79196 1.9446-1.7678 1.9446-0.97581 0-1.7678-0.87116-1.7678-1.9446s0.79196-1.9445 1.7678-1.9445c0.97581 0 1.7678 0.87115 1.7678 1.9445z"/>
        </g>
        <g id="g6346" fill="#fff" transform="translate(10.04 -.21565)">
          <g id="g5684" transform="matrix(.58002 0 0 .58002 -14.83 152.66)">
            <path id="path5686" transform="matrix(-.83612 0 0 -.83612 -348.94 313.46)" d="m-243.6 161.77c0 1.0734-0.79196 1.9446-1.7678 1.9446-0.97581 0-1.7678-0.87116-1.7678-1.9446s0.79196-1.9445 1.7678-1.9445c0.97581 0 1.7678 0.87115 1.7678 1.9445z"/>
            <path id="path5688" transform="matrix(-.83612 0 0 -.83612 -328.94 313.46)" d="m-243.6 161.77c0 1.0734-0.79196 1.9446-1.7678 1.9446-0.97581 0-1.7678-0.87116-1.7678-1.9446s0.79196-1.9445 1.7678-1.9445c0.97581 0 1.7678 0.87115 1.7678 1.9445z"/>
            <path id="path5690" stroke-width="1.0355px" d="m-143.57 178.07c0.18681 0 0.18681 0 0 0-1.6891 0 2.8727-0.12962 4.4833-0.35873 1.3448-0.1913 2.8292-0.11958 4.2031-0.11958h5.464c1.2482 0 3.219 0.31642 4.2398 0.02602 0.50969-0.145 1.249 0.35355 1.7846 0.35355"/>
          </g>
          <path id="path5692" stroke-width=".57075px" d="m-92.413 269.64c0-0.72799 0.072555-1.8589 0.072555-2.5442 0-0.77142-0.072555-1.5511-0.072555-2.315 0-0.94735-0.072561-1.9138-0.072561-2.8762 0-1.2132 0.24333-2.682 0-3.8583-0.14381-0.69523-0.14511-3.0644-0.14511-2.1747"/>
          <g id="g5698" transform="matrix(.58002 0 0 .58002 -14.83 166.58)">
            <path id="path5700" transform="matrix(-.83612 0 0 -.83612 -348.94 313.46)" d="m-243.6 161.77c0 1.0734-0.79196 1.9446-1.7678 1.9446-0.97581 0-1.7678-0.87116-1.7678-1.9446s0.79196-1.9445 1.7678-1.9445c0.97581 0 1.7678 0.87115 1.7678 1.9445z"/>
            <path id="path5702" transform="matrix(-.83612 0 0 -.83612 -328.94 313.46)" d="m-243.6 161.77c0 1.0734-0.79196 1.9446-1.7678 1.9446-0.97581 0-1.7678-0.87116-1.7678-1.9446s0.79196-1.9445 1.7678-1.9445c0.97581 0 1.7678 0.87115 1.7678 1.9445z"/>
            <path id="path5704" stroke-width="1.0355px" d="m-143.57 178.07c0.18681 0 0.18681 0 0 0-1.6891 0 2.8727-0.12962 4.4833-0.35873 1.3448-0.1913 2.8292-0.11958 4.2031-0.11958h5.464c1.2482 0 3.219 0.31642 4.2398 0.02602 0.50969-0.145 1.249 0.35355 1.7846 0.35355"/>
          </g>
        </g>
        <g id="g6357" transform="translate(10.02 -.071971)">
          <path id="path5724" stroke-width=".58002px" fill="#fff" d="m-70.512 255.81c-0.05891 0.77176-0.08311 1.5462-0.072503 2.3201 0.015581 1.1369 0.10618 2.2713 0.14501 3.4076 0.044566 1.3044 0.02086 2.6101 0 3.9152-0.01043 0.65251-0.020146 1.3053 0 1.9576 0.014993 0.48543 0.045727 0.97901-0.072503 1.4501-0.087516 0.34868-0.25383 0.67238-0.36251 1.015-0.081909 0.25825-0.13077 0.52697-0.14501 0.79753"/>
          <g id="g5756" transform="matrix(.58002 0 0 .58002 -41.511 152.66)">
            <path id="path5722" stroke-width=".984px" fill="none" d="m-71.758 202.98v-2.2979c0-1.2551 0.12509-2.2049 0.12509-3.3864 0-1.33-0.12509-2.6742-0.12509-3.9912 0-1.6333-0.1251-3.2994-0.1251-4.9587 0-2.0916 0.41951-4.624 0-6.652-0.24794-1.1986-0.25018-5.2832-0.25018-3.7493 0 0.20317 3.9307 3.9151 4.5033 4.8378 1.5564 2.508 3.3547 4.6233 5.0037 7.0148 1.8049 2.6177 3.0995 6.0338 5.8793 7.3776 1.758 0.84987 4.7738 2.9617 5.3789 4.7168 0.06293 0.18254 0.87582 0.75582 0.87582 0.95539"/>
            <path id="path5726" transform="matrix(-.83612 0 0 -.83612 -276.94 337.46)" fill="#fff" d="m-243.6 161.77c0 1.0734-0.79196 1.9446-1.7678 1.9446-0.97581 0-1.7678-0.87116-1.7678-1.9446s0.79196-1.9445 1.7678-1.9445c0.97581 0 1.7678 0.87115 1.7678 1.9445z"/>
            <path id="path5728" transform="matrix(-.83612 0 0 -.83612 -276.94 313.46)" fill="#fff" d="m-243.6 161.77c0 1.0734-0.79196 1.9446-1.7678 1.9446-0.97581 0-1.7678-0.87116-1.7678-1.9446s0.79196-1.9445 1.7678-1.9445c0.97581 0 1.7678 0.87115 1.7678 1.9445z"/>
            <path id="path5730" transform="matrix(-.83612 0 0 -.83612 -254.94 313.46)" fill="#fff" d="m-243.6 161.77c0 1.0734-0.79196 1.9446-1.7678 1.9446-0.97581 0-1.7678-0.87116-1.7678-1.9446s0.79196-1.9445 1.7678-1.9445c0.97581 0 1.7678 0.87115 1.7678 1.9445z"/>
            <path id="path5732" transform="matrix(-.83612 0 0 -.83612 -255.44 337.59)" fill="#fff" d="m-243.6 161.77c0 1.0734-0.79196 1.9446-1.7678 1.9446-0.97581 0-1.7678-0.87116-1.7678-1.9446s0.79196-1.9445 1.7678-1.9445c0.97581 0 1.7678 0.87115 1.7678 1.9445z"/>
          </g>
        </g>
        <g id="g5746" transform="matrix(.58002 0 0 .58002 -1.3498 152.41)">
          <path id="path5708" stroke-width=".98845px" fill="none" d="m-95.745 177.5c0.17599 2.0674 0.29398 4.1398 0.35379 6.2139 0.066348 2.3008 0.061098 4.6034 0 6.9043-0.051951 1.9565-0.14419 3.9168 0 5.8686 0.13844 1.8739 0.49539 3.7316 1.0613 5.5234 1.8869 0.11376 3.7737 0.22884 5.6604 0.34522 2.5923 0.15991 5.1859 0.32234 7.7831 0.34521 1.6801 0.0148 3.3607-0.02886 5.0378-0.13085"/>
          <path id="path5710" transform="matrix(-.83612 0 0 -.83612 -300.94 313.46)" fill="#fff" d="m-243.6 161.77c0 1.0734-0.79196 1.9446-1.7678 1.9446-0.97581 0-1.7678-0.87116-1.7678-1.9446s0.79196-1.9445 1.7678-1.9445c0.97581 0 1.7678 0.87115 1.7678 1.9445z"/>
          <path id="path5712" transform="matrix(-.83612 0 0 -.83612 -280.94 337.46)" fill="#fff" d="m-243.6 161.77c0 1.0734-0.79196 1.9446-1.7678 1.9446-0.97581 0-1.7678-0.87116-1.7678-1.9446s0.79196-1.9445 1.7678-1.9445c0.97581 0 1.7678 0.87115 1.7678 1.9445z"/>
          <path id="path5714" transform="matrix(-.83612 0 0 -.83612 -280.94 325.46)" fill="#fff" d="m-243.6 161.77c0 1.0734-0.79196 1.9446-1.7678 1.9446-0.97581 0-1.7678-0.87116-1.7678-1.9446s0.79196-1.9445 1.7678-1.9445c0.97581 0 1.7678 0.87115 1.7678 1.9445z"/>
          <path id="path5716" transform="matrix(-.83612 0 0 -.83612 -280.94 313.46)" fill="#fff" d="m-243.6 161.77c0 1.0734-0.79196 1.9446-1.7678 1.9446-0.97581 0-1.7678-0.87116-1.7678-1.9446s0.79196-1.9445 1.7678-1.9445c0.97581 0 1.7678 0.87115 1.7678 1.9445z"/>
          <path id="path5718" stroke-width="1.0355px" fill="none" d="m-95.567 178.07c0.18681 0 0.18681 0 0 0-1.6891 0 2.8727-0.12962 4.4833-0.35873 1.3448-0.1913 2.8292-0.11958 4.2031-0.11958h5.464c1.2482 0 3.219 0.31642 4.2398 0.02602 0.50969-0.145 1.249 0.35355 1.7846 0.35355"/>
          <path id="path5720" stroke-width="1.0483px" fill="#fff" d="m-95.226 189.61c1.4511 0.09089 2.9055 0.13031 4.3594 0.11816 1.7442-0.01457 3.4871-0.10332 5.2313-0.11816 1.4084-0.01199 2.8217 0.02462 4.2141 0.23632 0.24259 0.03688 0.48433 0.07905 0.72657 0.11816s0.48499 0.07517 0.72657 0.11816c0.86856 0.15457 1.7346 0.39979 2.6156 0.35449 0.50087-0.02575 0.99668-0.1467 1.4531-0.35449"/>
          <path id="path5734" transform="matrix(-.83612 0 0 -.83612 -298.94 337.46)" fill="#fff" d="m-243.6 161.77c0 1.0734-0.79196 1.9446-1.7678 1.9446-0.97581 0-1.7678-0.87116-1.7678-1.9446s0.79196-1.9445 1.7678-1.9445c0.97581 0 1.7678 0.87115 1.7678 1.9445z"/>
        </g>
      </g>
      <g id="g6435" stroke="#fff" transform="matrix(1.6409 -.40667 .40667 1.6409 413.32 -69.036)">
        <g id="g6194" transform="matrix(.92057 0 0 .92057 -15.003 18.122)">
          <g id="g6185">
            <g id="g6178">
              <g id="g6173">
                <path id="path5842" stroke-width="1.0001" transform="matrix(.83612 0 0 .83612 18.184 77.114)" fill="#fff" d="m-243.6 161.77c0 1.0734-0.79196 1.9446-1.7678 1.9446-0.97581 0-1.7678-0.87116-1.7678-1.9446s0.79196-1.9445 1.7678-1.9445c0.97581 0 1.7678 0.87115 1.7678 1.9445z"/>
                <path id="path5886" stroke-width="1.0587px" fill="none" d="m-186.22 211c2.8226-0.08897 5.648-0.08897 8.4706 0 1.6142 0.05088 3.2783 0.14313 4.7336 0.84359 1.0063 0.48438 1.8736 1.2518 2.4823 2.1882 0.60869 0.93639 0.95778 2.0387 1.0057 3.1545 0.06181 1.4404-0.38443 2.8966-1.2376 4.0588-0.85319 1.1622-2.1068 2.0233-3.496 2.4088-2.012 0.55822-4.1444 0.12755-6.2284 0-1.5754-0.09641-3.1554-0.01663-4.7336 0-0.41521 0.00437-0.83048 0.00437-1.2457 0"/>
                <path id="path5894" stroke-width="1.0587px" fill="none" d="m-186.47 224c3.5702 0.26881 7.1669 0.18494 10.721-0.25 0.79116-0.09683 1.5821-0.21115 2.3789-0.23213 0.79679-0.02097 1.6054 0.05408 2.3547 0.32572 1.0628 0.38527 1.9672 1.1624 2.5661 2.1213 0.59887 0.95885 0.8988 2.0912 0.92183 3.2214 0.0294 1.4432-0.39501 2.8994-1.2346 4.0736-0.83964 1.1741-2.0962 2.0534-3.499 2.3939-1.3772 0.33438-2.8197 0.1545-4.2284 0-2.4861-0.27265-4.9829-0.46053-7.4836-0.5-0.66517-0.0105-1.3305-0.0105-1.9957 0"/>
              </g>
              <path id="path5850" stroke-width="1px" fill="none" d="m-185.62 234.07c-0.07548-1.7667-0.07548-3.5366 0-5.3033 0.07556-1.7686 0.22634-3.5476 0-5.3033-0.23063-1.789-0.84821-3.5121-1.0607-5.3033-0.22603-1.9057 0.01894-3.8655 0.7071-5.6569"/>
            </g>
            <path id="path5848" transform="matrix(.83612 0 0 .83612 18.666 88.551)" fill="#fff" d="m-243.6 161.77c0 1.0734-0.79196 1.9446-1.7678 1.9446-0.97581 0-1.7678-0.87116-1.7678-1.9446s0.79196-1.9445 1.7678-1.9445c0.97581 0 1.7678 0.87115 1.7678 1.9445z"/>
          </g>
          <path id="path5840" transform="matrix(.83612 0 0 .83612 18.891 99.024)" fill="#fff" d="m-243.6 161.77c0 1.0734-0.79196 1.9446-1.7678 1.9446-0.97581 0-1.7678-0.87116-1.7678-1.9446s0.79196-1.9445 1.7678-1.9445c0.97581 0 1.7678 0.87115 1.7678 1.9445z"/>
        </g>
        <g id="g6163" transform="matrix(.92057 0 0 .92057 -9.7094 43.538)">
          <path id="path5952" stroke-width="1.0594" fill="none" d="m-169.01 183.99c0.16396 1.9153 0.27389 3.8351 0.32961 5.7566 0.06181 2.1315 0.05691 4.2646 0 6.3962-0.04839 1.8125-0.1343 3.6286 0 5.4368 0.12897 1.7364 0.46156 3.4576 0.98879 5.117 1.758 0.10538 3.5158 0.21198 5.2736 0.3198 2.4152 0.14814 4.8316 0.29862 7.2512 0.31981 1.5653 0.01371 3.131-0.02673 4.6935-0.12121"/>
          <path id="path5954" stroke-width="1.0765" transform="matrix(-.77899 0 0 -.77460 -360.18 309.95)" fill="#fff" d="m-243.6 161.77c0 1.0734-0.79196 1.9446-1.7678 1.9446-0.97581 0-1.7678-0.87116-1.7678-1.9446s0.79196-1.9445 1.7678-1.9445c0.97581 0 1.7678 0.87115 1.7678 1.9445z"/>
          <path id="path5956" stroke-width="1.0765" transform="matrix(-.77899 0 0 -.77460 -341.54 332.19)" fill="#fff" d="m-243.6 161.77c0 1.0734-0.79196 1.9446-1.7678 1.9446-0.97581 0-1.7678-0.87116-1.7678-1.9446s0.79196-1.9445 1.7678-1.9445c0.97581 0 1.7678 0.87115 1.7678 1.9445z"/>
          <path id="path5958" stroke-width="1.0765" transform="matrix(-.77899 0 0 -.77460 -341.54 321.07)" fill="#fff" d="m-243.6 161.77c0 1.0734-0.79196 1.9446-1.7678 1.9446-0.97581 0-1.7678-0.87116-1.7678-1.9446s0.79196-1.9445 1.7678-1.9445c0.97581 0 1.7678 0.87115 1.7678 1.9445z"/>
          <path id="path5960" stroke-width="1.0765" transform="matrix(-.77899 0 0 -.77460 -341.54 309.95)" fill="#fff" d="m-243.6 161.77c0 1.0734-0.79196 1.9446-1.7678 1.9446-0.97581 0-1.7678-0.87116-1.7678-1.9446s0.79196-1.9445 1.7678-1.9445c0.97581 0 1.7678 0.87115 1.7678 1.9445z"/>
          <path id="path5962" stroke-width="1.0594" fill="none" d="m-168.84 184.52c0.17405 0 0.17405 0 0 0-1.5737 0 2.6764-0.12007 4.1769-0.33232 1.2529-0.17723 2.6359-0.11079 3.9159-0.11079h5.0906c1.1629 0 2.9991 0.29314 3.95 0.02411 0.47485-0.13433 1.1636 0.32753 1.6627 0.32753"/>
          <path id="path5964" stroke-width="1.0594" fill="none" d="m-168.53 195.21c1.352 0.0842 2.707 0.12071 4.0615 0.10946 1.625-0.0135 3.2488-0.09571 4.8738-0.10946 1.3121-0.0111 2.6287 0.0228 3.9261 0.21893 0.22601 0.03417 0.45124 0.07323 0.67693 0.10946s0.45184 0.06964 0.67692 0.10947c0.80924 0.14321 1.6162 0.37039 2.4369 0.3284 0.46647-0.02387 0.92828-0.13589 1.3538-0.3284"/>
          <path id="path5978" stroke-width="1.0765" transform="matrix(-.77899 0 0 -.77460 -358.31 332.19)" fill="#fff" d="m-243.6 161.77c0 1.0734-0.79196 1.9446-1.7678 1.9446-0.97581 0-1.7678-0.87116-1.7678-1.9446s0.79196-1.9445 1.7678-1.9445c0.97581 0 1.7678 0.87115 1.7678 1.9445z"/>
        </g>
      </g>
      <path id="path9077" stroke="#ff80b2" stroke-width="1.3172" fill="#ff80b2" d="m301.18 309.48c-11.054 0.00001-20.023 8.9686-20.023 20.023s8.9686 20.023 20.023 20.023c11.054 0.00001 20.023-8.9686 20.023-20.023s-8.9686-20.023-20.023-20.023zm0 7.8963c6.684 0 12.126 5.4424 12.126 12.126 0 6.684-5.4424 12.07-12.126 12.07-6.684 0.00004-12.126-5.386-12.126-12.07 0-0.41775 0.0715-0.83399 0.11282-1.2408 0.61971-6.1027 5.7474-10.886 12.014-10.886z"/>
    </g>
  </g>
  <metadata>
    <rdf:RDF>
      <cc:Work>
        <dc:format>image/svg+xml</dc:format>
        <dc:type rdf:resource="http://purl.org/dc/dcmitype/StillImage"/>
        <cc:license rdf:resource="http://creativecommons.org/licenses/publicdomain/"/>
        <dc:publisher>
          <cc:Agent rdf:about="http://openclipart.org/">
            <dc:title>Openclipart</dc:title>
          </cc:Agent>
        </dc:publisher>
        <dc:title>Be My Valentine Heart Shaped Gift Tag</dc:title>
        <dc:date>2009-02-02T15:30:40</dc:date>
        <dc:description>Be My Valentine Gift Tag</dc:description>
        <dc:source>http://openclipart.org/detail/21333/be-my-valentine-heart-shaped-gift-tag-by-pixabella-21333</dc:source>
        <dc:creator>
          <cc:Agent>
            <dc:title>pixabella</dc:title>
          </cc:Agent>
        </dc:creator>
        <dc:subject>
          <rdf:Bag>
            <rdf:li>clip art</rdf:li>
            <rdf:li>clipart</rdf:li>
            <rdf:li>gift tag</rdf:li>
            <rdf:li>heart</rdf:li>
            <rdf:li>image</rdf:li>
            <rdf:li>love</rdf:li>
            <rdf:li>love heart</rdf:li>
            <rdf:li>media</rdf:li>
            <rdf:li>png</rdf:li>
            <rdf:li>public domain</rdf:li>
            <rdf:li>romance</rdf:li>
            <rdf:li>romantic</rdf:li>
            <rdf:li>shape</rdf:li>
            <rdf:li>svg</rdf:li>
            <rdf:li>swing tag</rdf:li>
            <rdf:li>tag</rdf:li>
            <rdf:li>valentine</rdf:li>
            <rdf:li>valentine heart</rdf:li>
            <rdf:li>valentines day</rdf:li>
          </rdf:Bag>
        </dc:subject>
      </cc:Work>
      <cc:License rdf:about="http://creativecommons.org/licenses/publicdomain/">
        <cc:permits rdf:resource="http://creativecommons.org/ns#Reproduction"/>
        <cc:permits rdf:resource="http://creativecommons.org/ns#Distribution"/>
        <cc:permits rdf:resource="http://creativecommons.org/ns#DerivativeWorks"/>
      </cc:License>
    </rdf:RDF>
  </metadata>
</svg>
