<?xml version="1.0" encoding="UTF-8" standalone="no"?>
<!-- Created with Inkscape (http://www.inkscape.org/) -->

<svg
     xmlns:dc="http://purl.org/dc/elements/1.1/"
     xmlns:cc="http://creativecommons.org/ns#"
     xmlns:rdf="http://www.w3.org/1999/02/22-rdf-syntax-ns#"
     xmlns:svg="http://www.w3.org/2000/svg"
     xmlns="http://www.w3.org/2000/svg"
     xmlns:xlink="http://www.w3.org/1999/xlink"
     xmlns:sodipodi="http://sodipodi.sourceforge.net/DTD/sodipodi-0.dtd"
     xmlns:inkscape="http://www.inkscape.org/namespaces/inkscape"
     width="431.99496"
     height="631.99988"
     viewBox="0 0 4.7999441 7.0222209"
     id="svg4152"
     version="1.1"
     inkscape:version="0.91 r13725"
     sodipodi:docname="Shield_#6.svg">
    <defs
         id="defs4154">
        <linearGradient
             id="linearGradient4237">
            <stop
                 id="stop4247"
                 offset="0"
                 style="stop-color:#fdfdfd;stop-opacity:1;" />
            <stop
                 style="stop-color:#cbcbcb;stop-opacity:1;"
                 offset="0.5"
                 id="stop4253" />
            <stop
                 id="stop4255"
                 offset="0.5"
                 style="stop-color:#a8a8a8;stop-opacity:1;" />
            <stop
                 id="stop4249"
                 offset="1"
                 style="stop-color:#474747;stop-opacity:1;" />
        </linearGradient>
        <linearGradient
             id="linearGradient4180">
            <stop
                 id="stop4188"
                 offset="0"
                 style="stop-color:#e3e3e3;stop-opacity:1" />
            <stop
                 id="stop4190"
                 offset="1"
                 style="stop-color:#b1b1b1;stop-opacity:0;" />
        </linearGradient>
        <linearGradient
             id="linearGradient4162">
            <stop
                 id="stop4176"
                 offset="0"
                 style="stop-color:#e3e3e3;stop-opacity:1;" />
            <stop
                 id="stop4178"
                 offset="1"
                 style="stop-color:#626262;stop-opacity:1;" />
        </linearGradient>
        <linearGradient
             id="linearGradient4192">
            <stop
                 style="stop-color:white;stop-opacity:1;"
                 offset="0"
                 id="stop4164" />
            <stop
                 id="stop4196"
                 offset="0.5"
                 style="stop-color:white;stop-opacity:0.17391305;" />
            <stop
                 style="stop-color:#bcbcbc;stop-opacity:0;"
                 offset="1"
                 id="stop4166" />
        </linearGradient>
        <inkscape:path-effect
             effect="spiro"
             id="path-effect4147"
             is_visible="true" />
        <radialGradient
             inkscape:collect="always"
             xlink:href="#linearGradient4162"
             id="radialGradient4168"
             cx="3.3333051"
             cy="6.5555549"
             fx="3.3333051"
             fy="6.5555549"
             r="2.2888608"
             gradientTransform="matrix(1.40857,0,0,2.9473696,-1.3618602,-12.766087)"
             gradientUnits="userSpaceOnUse" />
        <radialGradient
             inkscape:collect="always"
             xlink:href="#linearGradient4180"
             id="radialGradient4182"
             gradientUnits="userSpaceOnUse"
             gradientTransform="matrix(0.50843928,0,0,1.6450526,1.6385499,-4.5819612)"
             cx="3.3333054"
             cy="5.9709024"
             fx="3.3333054"
             fy="5.9709024"
             r="2.2888608" />
        <radialGradient
             inkscape:collect="always"
             xlink:href="#linearGradient4192"
             id="radialGradient4194"
             gradientUnits="userSpaceOnUse"
             gradientTransform="matrix(1.5905114,0,0,2.5015601,-1.9683267,-7.8610358)"
             cx="3.3333054"
             cy="5.5946217"
             fx="3.3333054"
             fy="5.5946217"
             r="2.2888608" />
        <radialGradient
             inkscape:collect="always"
             xlink:href="#linearGradient4237"
             id="radialGradient4243"
             cx="1.5953352"
             cy="2.8610034"
             fx="1.5953352"
             fy="2.8610034"
             r="0.14280821"
             gradientUnits="userSpaceOnUse"
             gradientTransform="matrix(0.45625001,0,0,0.45625001,1.1544226,2.1385158)" />
        <radialGradient
             inkscape:collect="always"
             xlink:href="#linearGradient4237"
             id="radialGradient4259"
             gradientUnits="userSpaceOnUse"
             gradientTransform="matrix(0.45625001,0,0,0.45625001,4.0362084,2.1385159)"
             cx="1.5953352"
             cy="2.8610034"
             fx="1.5953352"
             fy="2.8610034"
             r="0.14280821" />
        <radialGradient
             inkscape:collect="always"
             xlink:href="#linearGradient4237"
             id="radialGradient4265"
             gradientUnits="userSpaceOnUse"
             gradientTransform="matrix(0.45625001,0,0,0.45625001,0.59289517,2.6770122)"
             cx="1.5953352"
             cy="2.8610034"
             fx="1.5953352"
             fy="2.8610034"
             r="0.14280821" />
        <radialGradient
             inkscape:collect="always"
             xlink:href="#linearGradient4237"
             id="radialGradient4267"
             gradientUnits="userSpaceOnUse"
             gradientTransform="matrix(0.45625001,0,0,0.45625001,4.5842592,2.6770124)"
             cx="1.5953352"
             cy="2.8610034"
             fx="1.5953352"
             fy="2.8610034"
             r="0.14280821" />
        <radialGradient
             inkscape:collect="always"
             xlink:href="#linearGradient4237"
             id="radialGradient4271"
             gradientUnits="userSpaceOnUse"
             gradientTransform="matrix(0.45625001,0,0,0.45625001,2.6054616,8.3530116)"
             cx="1.5953352"
             cy="2.8610034"
             fx="1.5953352"
             fy="2.8610034"
             r="0.14280821" />
        <radialGradient
             inkscape:collect="always"
             xlink:href="#linearGradient4237"
             id="radialGradient4277"
             gradientUnits="userSpaceOnUse"
             gradientTransform="matrix(0.45625001,0,0,0.45625001,0.59289528,5.4062632)"
             cx="1.5953352"
             cy="2.8610034"
             fx="1.5953352"
             fy="2.8610034"
             r="0.14280821" />
        <radialGradient
             inkscape:collect="always"
             xlink:href="#linearGradient4237"
             id="radialGradient4279"
             gradientUnits="userSpaceOnUse"
             gradientTransform="matrix(0.45625001,0,0,0.45625001,4.584259,5.4062636)"
             cx="1.5953352"
             cy="2.8610034"
             fx="1.5953352"
             fy="2.8610034"
             r="0.14280821" />
        <radialGradient
             inkscape:collect="always"
             xlink:href="#linearGradient4162"
             id="radialGradient4440"
             cx="192.88989"
             cy="200.092"
             fx="192.88989"
             fy="200.092"
             r="157.79665"
             gradientTransform="matrix(1,0,0,1.1689095,0,-33.797448)"
             gradientUnits="userSpaceOnUse" />
        <radialGradient
             inkscape:collect="always"
             xlink:href="#linearGradient4162"
             id="radialGradient4236"
             gradientUnits="userSpaceOnUse"
             gradientTransform="matrix(1,0,0,1.1689095,0,-33.797448)"
             cx="192.88989"
             cy="200.092"
             fx="192.88989"
             fy="200.092"
             r="157.79665" />
    </defs>
    <sodipodi:namedview
         inkscape:document-units="px"
         pagecolor="#ffffff"
         bordercolor="#666666"
         borderopacity="1.0"
         inkscape:pageopacity="0.0"
         inkscape:pageshadow="2"
         inkscape:zoom="1.095"
         inkscape:cx="215.99748"
         inkscape:cy="315.99994"
         inkscape:current-layer="layer1"
         id="namedview4156"
         showgrid="false"
         inkscape:window-width="1600"
         inkscape:window-height="1116"
         inkscape:window-x="-4"
         inkscape:window-y="-3"
         inkscape:window-maximized="1"
         units="px"
         borderlayer="true"
         showguides="true"
         inkscape:guide-bbox="true"
         fit-margin-top="10"
         fit-margin-left="10"
         fit-margin-right="10"
         fit-margin-bottom="10" />
    <metadata
         id="metadata4158">
        <rdf:RDF>
            <cc:Work
                 rdf:about="">
                <dc:format>image/svg+xml</dc:format>
                <dc:type
                     rdf:resource="http://purl.org/dc/dcmitype/StillImage" />
                <dc:title></dc:title>
                <cc:license
                     rdf:resource="http://creativecommons.org/publicdomain/zero/1.0/" />
                <dc:publisher>
                    <cc:Agent>
                        <dc:title>Sonshine Design</dc:title>
                    </cc:Agent>
                </dc:publisher>
                <dc:creator>
                    <cc:Agent>
                        <dc:title>Sonshine Penguin</dc:title>
                    </cc:Agent>
                </dc:creator>
            </cc:Work>
            <cc:License
                 rdf:about="http://creativecommons.org/publicdomain/zero/1.0/">
                <cc:permits
                     rdf:resource="http://creativecommons.org/ns#Reproduction" />
                <cc:permits
                     rdf:resource="http://creativecommons.org/ns#Distribution" />
                <cc:permits
                     rdf:resource="http://creativecommons.org/ns#DerivativeWorks" />
            </cc:License>
        </rdf:RDF>
    </metadata>
    <g
         inkscape:label="Layer 1"
         inkscape:groupmode="layer"
         id="layer1"
         transform="translate(-0.93336132,-3.0444453)">
        <g
             id="g4269">
            <g
                 id="g4281">
                <g
                     id="g4224">
                    <path
                         sodipodi:nodetypes="cccccccc"
                         inkscape:connector-curvature="0"
                         id="path4145"
                         d="m 3.3333611,9.8888888 c 0.5540525,1.7e-6 2.2221668,-2.2419044 2.2221664,-3.3333846 l 0,-2.7782893 c -0.556759,0.00587 -0.552399,-0.2378941 -0.552399,-0.5549921 l -3.3354003,0 c 1e-7,0.315713 -0.010476,0.5606887 -0.5565891,0.5549921 l 0,2.7782893 c 1e-7,1.0914802 1.6605596,3.3333863 2.222222,3.3333846 z"
                         style="fill:url(#radialGradient4168);fill-opacity:1;fill-rule:evenodd;stroke:black;stroke-width:0.13333334;stroke-linecap:butt;stroke-linejoin:miter;stroke-miterlimit:4;stroke-dasharray:none;stroke-opacity:1" />
                    <path
                         style="fill:url(#radialGradient4182);fill-opacity:1;fill-rule:evenodd;stroke:#4f4f4f;stroke-width:0.11111112;stroke-linecap:butt;stroke-linejoin:miter;stroke-miterlimit:4;stroke-dasharray:none;stroke-opacity:1"
                         d="m 3.3333611,9.8888888 c 0.5540525,1.7e-6 2.2221668,-2.2419044 2.2221664,-3.3333846 l 0,-2.7782893 c -0.556759,0.00587 -0.552399,-0.2378941 -0.552399,-0.5549921 l -3.3354003,0 c 1e-7,0.315713 -0.010476,0.5606887 -0.5565891,0.5549921 l 0,2.7782893 c 1e-7,1.0914802 1.6605596,3.3333863 2.222222,3.3333846 z"
                         id="path4172"
                         inkscape:connector-curvature="0"
                         sodipodi:nodetypes="cccccccc" />
                    <path
                         sodipodi:nodetypes="cccccccc"
                         inkscape:connector-curvature="0"
                         id="path4184"
                         d="m 3.3333611,9.8888887 c 0.5540525,2e-6 2.2221668,-2.241904 2.2221664,-3.3333845 l 0,-2.7782893 c -0.556759,0.00587 -0.552399,-0.2378941 -0.552399,-0.5549921 l -3.3354003,0 c 1e-7,0.315713 -0.010476,0.5606887 -0.5565891,0.5549921 l 0,2.7782893 c 1e-7,1.0914805 1.6605596,3.3333865 2.222222,3.3333845 z"
                         style="fill:url(#radialGradient4194);fill-opacity:1;fill-rule:evenodd;stroke:#777;stroke-width:0.08888889;stroke-linecap:butt;stroke-linejoin:miter;stroke-miterlimit:4;stroke-dasharray:none;stroke-opacity:1" />
                    <path
                         style="fill:none;fill-opacity:1;fill-rule:evenodd;stroke:#777;stroke-width:0.06666667;stroke-linecap:butt;stroke-linejoin:miter;stroke-miterlimit:4;stroke-dasharray:none;stroke-opacity:1"
                         d="m 3.3333611,9.8888887 c 0.5540525,2e-6 2.2221668,-2.241904 2.2221664,-3.3333845 l 0,-2.7782893 c -0.556759,0.00587 -0.552399,-0.2378941 -0.552399,-0.5549921 l -3.3354003,0 c 1e-7,0.315713 -0.010476,0.5606887 -0.5565891,0.5549921 l 0,2.7782893 c 1e-7,1.0914805 1.6605596,3.3333865 2.222222,3.3333845 z"
                         id="path4198"
                         inkscape:connector-curvature="0"
                         sodipodi:nodetypes="cccccccc" />
                    <path
                         sodipodi:nodetypes="cccccccc"
                         inkscape:connector-curvature="0"
                         id="path4202"
                         d="m 3.3333611,9.8888887 c 0.5540525,2e-6 2.2221668,-2.241904 2.2221664,-3.3333845 l 0,-2.7782893 c -0.556759,0.00587 -0.552399,-0.2378941 -0.552399,-0.5549921 l -3.3354003,0 c 1e-7,0.315713 -0.010476,0.5606887 -0.5565891,0.5549921 l 0,2.7782893 c 1e-7,1.0914805 1.6605596,3.3333865 2.222222,3.3333845 z"
                         style="fill:none;fill-opacity:1;fill-rule:evenodd;stroke:#898989;stroke-width:0.04444445;stroke-linecap:butt;stroke-linejoin:miter;stroke-miterlimit:4;stroke-dasharray:none;stroke-opacity:1" />
                    <path
                         style="fill:none;fill-opacity:1;fill-rule:evenodd;stroke:#b7b7b7;stroke-width:0.02222222;stroke-linecap:butt;stroke-linejoin:miter;stroke-miterlimit:4;stroke-dasharray:none;stroke-opacity:1"
                         d="m 3.3333611,9.8888887 c 0.5540525,2e-6 2.2221668,-2.241904 2.2221664,-3.3333845 l 0,-2.7782893 c -0.556759,0.00587 -0.552399,-0.2378941 -0.552399,-0.5549921 l -3.3354003,0 c 1e-7,0.315713 -0.010476,0.5606887 -0.5565891,0.5549921 l 0,2.7782893 c 1e-7,1.0914805 1.6605596,3.3333865 2.222222,3.3333845 z"
                         id="path4204"
                         inkscape:connector-curvature="0"
                         sodipodi:nodetypes="cccccccc" />
                    <path
                         sodipodi:nodetypes="cccccccc"
                         inkscape:connector-curvature="0"
                         id="path4206"
                         d="m 3.3333611,9.8888887 c 0.5540525,2e-6 2.2221668,-2.241904 2.2221664,-3.3333845 l 0,-2.7782893 c -0.556759,0.00587 -0.552399,-0.2378941 -0.552399,-0.5549921 l -3.3354003,0 c 1e-7,0.315713 -0.010476,0.5606887 -0.5565891,0.5549921 l 0,2.7782893 c 1e-7,1.0914805 1.6605596,3.3333865 2.222222,3.3333845 z"
                         style="fill:none;fill-opacity:1;fill-rule:evenodd;stroke:#d8d8d8;stroke-width:0.01111111;stroke-linecap:butt;stroke-linejoin:miter;stroke-miterlimit:4;stroke-dasharray:none;stroke-opacity:1" />
                </g>
                <circle
                     style="color:black;display:inline;overflow:visible;visibility:visible;opacity:1;fill:url(#radialGradient4243);fill-opacity:1;fill-rule:evenodd;stroke:black;stroke-width:0.00555556;stroke-linecap:round;stroke-linejoin:round;stroke-miterlimit:4;stroke-dasharray:none;stroke-dashoffset:0;stroke-opacity:1;marker:none;enable-background:accumulate"
                     id="path4233"
                     cx="1.8822943"
                     cy="3.4438488"
                     r="0.063888885" />
                <circle
                     r="0.063888885"
                     cy="3.4438488"
                     cx="4.76408"
                     id="circle4257"
                     style="color:black;display:inline;overflow:visible;visibility:visible;opacity:1;fill:url(#radialGradient4259);fill-opacity:1;fill-rule:evenodd;stroke:black;stroke-width:0.00555556;stroke-linecap:round;stroke-linejoin:round;stroke-miterlimit:4;stroke-dasharray:none;stroke-dashoffset:0;stroke-opacity:1;marker:none;enable-background:accumulate" />
                <circle
                     r="0.063888885"
                     cy="3.9823415"
                     cx="1.3207669"
                     id="circle4261"
                     style="color:black;display:inline;overflow:visible;visibility:visible;opacity:1;fill:url(#radialGradient4265);fill-opacity:1;fill-rule:evenodd;stroke:black;stroke-width:0.00555556;stroke-linecap:round;stroke-linejoin:round;stroke-miterlimit:4;stroke-dasharray:none;stroke-dashoffset:0;stroke-opacity:1;marker:none;enable-background:accumulate" />
                <circle
                     style="color:black;display:inline;overflow:visible;visibility:visible;opacity:1;fill:url(#radialGradient4267);fill-opacity:1;fill-rule:evenodd;stroke:black;stroke-width:0.00555556;stroke-linecap:round;stroke-linejoin:round;stroke-miterlimit:4;stroke-dasharray:none;stroke-dashoffset:0;stroke-opacity:1;marker:none;enable-background:accumulate"
                     id="circle4263"
                     cx="5.3121309"
                     cy="3.9823415"
                     r="0.063888885" />
                <circle
                     r="0.063888885"
                     cy="9.6583405"
                     cx="3.3333333"
                     id="circle4269"
                     style="color:black;display:inline;overflow:visible;visibility:visible;opacity:1;fill:url(#radialGradient4271);fill-opacity:1;fill-rule:evenodd;stroke:black;stroke-width:0.00555556;stroke-linecap:round;stroke-linejoin:round;stroke-miterlimit:4;stroke-dasharray:none;stroke-dashoffset:0;stroke-opacity:1;marker:none;enable-background:accumulate" />
                <circle
                     style="color:black;display:inline;overflow:visible;visibility:visible;opacity:1;fill:url(#radialGradient4277);fill-opacity:1;fill-rule:evenodd;stroke:black;stroke-width:0.00555556;stroke-linecap:round;stroke-linejoin:round;stroke-miterlimit:4;stroke-dasharray:none;stroke-dashoffset:0;stroke-opacity:1;marker:none;enable-background:accumulate"
                     id="circle4273"
                     cx="1.3207669"
                     cy="6.7115922"
                     r="0.063888885" />
                <circle
                     r="0.063888885"
                     cy="6.7115922"
                     cx="5.3121309"
                     id="circle4275"
                     style="color:black;display:inline;overflow:visible;visibility:visible;opacity:1;fill:url(#radialGradient4279);fill-opacity:1;fill-rule:evenodd;stroke:black;stroke-width:0.00555556;stroke-linecap:round;stroke-linejoin:round;stroke-miterlimit:4;stroke-dasharray:none;stroke-dashoffset:0;stroke-opacity:1;marker:none;enable-background:accumulate" />
            </g>
            <g
                 id="g4238">
                <g
                     transform="matrix(0.01111111,0,0,0.01111111,1.1901125,3.9434224)"
                     id="layer1-3"
                     style="fill:url(#radialGradient4440);fill-opacity:1;stroke:none">
                    <path
                         d="m 193.29,15.642 c -22.57,32.655 -53.59,83.775 -53.12,114.06 c 0.37,25.7 29.82,66.22 40.91,115.99 l -9.23,0 C 161,190.562 115.4,120.392 74.056,133.152 c -48.854,15.08 -44.539,68.4 -26.072,100.3 c 10.028,-17.02 21.574,-37.15 49.067,-36.15 c 25.949,0.96 38.749,23.77 47.749,48.39 c -7.33,0 -13.22,5.29 -13.22,11.87 c 0,6.58 5.89,11.87 13.22,11.87 l 5.51,0 c 1.79,17.4 -1,34.8 -11.26,37.84 c -13.3,3.94 -21.1,-4.1 -29.42,-18.06 c -5.33,13.9 -10.793,53.26 18.53,61.07 c 28.06,7.47 45.46,-23.85 46.16,-80.85 l 10.45,0 c 0.32,4.02 0.5,8.09 0.51,12.21 c 0.02,31.44 -16.03,52.63 -16.54,65.83 c -0.52,13.33 13.53,28.7 24.62,37.07 c 10.98,-8.37 25,-23.74 24.48,-37.07 c -0.51,-13.2 -16.56,-34.39 -16.54,-65.83 c 0.01,-4.12 0.19,-8.19 0.51,-12.21 l 9.64,0 c 0.7,57 18.14,88.32 46.19,80.85 c 29.32,-7.81 23.83,-47.17 18.5,-61.07 c -8.32,13.96 -16.12,22 -29.42,18.06 c -10.26,-3.04 -13.05,-20.44 -11.26,-37.84 l 6.46,0 c 7.32,0 13.22,-5.29 13.22,-11.87 c 0,-6.58 -5.9,-11.87 -13.22,-11.87 l -0.95,0 c 9,-24.62 21.83,-47.43 47.78,-48.39 c 27.49,-1 39.01,19.13 49.03,36.15 c 18.47,-31.9 22.82,-85.22 -26.03,-100.3 c -41.35,-12.76 -86.98,57.41 -97.83,112.54 l -8.42,0 c 11.09,-49.77 40.54,-90.29 40.91,-115.99 C 246.88,99.419 215.86,48.299 193.29,15.642 Z"
                         style="fill:url(#radialGradient4236);fill-opacity:1;stroke:none"
                         id="rect1312"
                         inkscape:connector-curvature="0" />
                </g>
                <g
                     transform="translate(-4.5105116e-8,0.03687811)"
                     id="g4213">
                    <g
                         transform="matrix(0.01111111,0,0,0.01111111,1.1901134,3.8520982)"
                         id="g4211"
                         style="fill:none;fill-opacity:1;stroke:#0c0c0c;stroke-width:24.00000381;stroke-miterlimit:4;stroke-dasharray:none;stroke-opacity:1">
                        <path
                             d="m 193.29,15.642 c -22.57,32.655 -53.59,83.775 -53.12,114.06 c 0.37,25.7 29.82,66.22 40.91,115.99 l -9.23,0 C 161,190.562 115.4,120.392 74.056,133.152 c -48.854,15.08 -44.539,68.4 -26.072,100.3 c 10.028,-17.02 21.574,-37.15 49.067,-36.15 c 25.949,0.96 38.749,23.77 47.749,48.39 c -7.33,0 -13.22,5.29 -13.22,11.87 c 0,6.58 5.89,11.87 13.22,11.87 l 5.51,0 c 1.79,17.4 -1,34.8 -11.26,37.84 c -13.3,3.94 -21.1,-4.1 -29.42,-18.06 c -5.33,13.9 -10.793,53.26 18.53,61.07 c 28.06,7.47 45.46,-23.85 46.16,-80.85 l 10.45,0 c 0.32,4.02 0.5,8.09 0.51,12.21 c 0.02,31.44 -16.03,52.63 -16.54,65.83 c -0.52,13.33 13.53,28.7 24.62,37.07 c 10.98,-8.37 25,-23.74 24.48,-37.07 c -0.51,-13.2 -16.56,-34.39 -16.54,-65.83 c 0.01,-4.12 0.19,-8.19 0.51,-12.21 l 9.64,0 c 0.7,57 18.14,88.32 46.19,80.85 c 29.32,-7.81 23.83,-47.17 18.5,-61.07 c -8.32,13.96 -16.12,22 -29.42,18.06 c -10.26,-3.04 -13.05,-20.44 -11.26,-37.84 l 6.46,0 c 7.32,0 13.22,-5.29 13.22,-11.87 c 0,-6.58 -5.9,-11.87 -13.22,-11.87 l -0.95,0 c 9,-24.62 21.83,-47.43 47.78,-48.39 c 27.49,-1 39.01,19.13 49.03,36.15 c 18.47,-31.9 22.82,-85.22 -26.03,-100.3 c -41.35,-12.76 -86.98,57.41 -97.83,112.54 l -8.42,0 c 11.09,-49.77 40.54,-90.29 40.91,-115.99 C 246.88,99.419 215.86,48.299 193.29,15.642 Z"
                             style="fill:none;fill-opacity:1;stroke:#0c0c0c;stroke-width:24.00000381;stroke-miterlimit:4;stroke-dasharray:none;stroke-opacity:1"
                             id="path4213"
                             inkscape:connector-curvature="0" />
                    </g>
                    <g
                         style="fill:none;fill-opacity:1;stroke:#3c3c3c;stroke-width:22.00000381;stroke-miterlimit:4;stroke-dasharray:none;stroke-opacity:1"
                         id="g4215"
                         transform="matrix(0.01111111,0,0,0.01111111,1.1901133,3.8520982)">
                        <path
                             inkscape:connector-curvature="0"
                             id="path4217"
                             style="fill:none;fill-opacity:1;stroke:#3c3c3c;stroke-width:22.00000381;stroke-miterlimit:4;stroke-dasharray:none;stroke-opacity:1"
                             d="m 193.29,15.642 c -22.57,32.655 -53.59,83.775 -53.12,114.06 c 0.37,25.7 29.82,66.22 40.91,115.99 l -9.23,0 C 161,190.562 115.4,120.392 74.056,133.152 c -48.854,15.08 -44.539,68.4 -26.072,100.3 c 10.028,-17.02 21.574,-37.15 49.067,-36.15 c 25.949,0.96 38.749,23.77 47.749,48.39 c -7.33,0 -13.22,5.29 -13.22,11.87 c 0,6.58 5.89,11.87 13.22,11.87 l 5.51,0 c 1.79,17.4 -1,34.8 -11.26,37.84 c -13.3,3.94 -21.1,-4.1 -29.42,-18.06 c -5.33,13.9 -10.793,53.26 18.53,61.07 c 28.06,7.47 45.46,-23.85 46.16,-80.85 l 10.45,0 c 0.32,4.02 0.5,8.09 0.51,12.21 c 0.02,31.44 -16.03,52.63 -16.54,65.83 c -0.52,13.33 13.53,28.7 24.62,37.07 c 10.98,-8.37 25,-23.74 24.48,-37.07 c -0.51,-13.2 -16.56,-34.39 -16.54,-65.83 c 0.01,-4.12 0.19,-8.19 0.51,-12.21 l 9.64,0 c 0.7,57 18.14,88.32 46.19,80.85 c 29.32,-7.81 23.83,-47.17 18.5,-61.07 c -8.32,13.96 -16.12,22 -29.42,18.06 c -10.26,-3.04 -13.05,-20.44 -11.26,-37.84 l 6.46,0 c 7.32,0 13.22,-5.29 13.22,-11.87 c 0,-6.58 -5.9,-11.87 -13.22,-11.87 l -0.95,0 c 9,-24.62 21.83,-47.43 47.78,-48.39 c 27.49,-1 39.01,19.13 49.03,36.15 c 18.47,-31.9 22.82,-85.22 -26.03,-100.3 c -41.35,-12.76 -86.98,57.41 -97.83,112.54 l -8.42,0 c 11.09,-49.77 40.54,-90.29 40.91,-115.99 C 246.88,99.419 215.86,48.299 193.29,15.642 Z" />
                    </g>
                    <g
                         transform="matrix(0.01111111,0,0,0.01111111,1.1901132,3.8520982)"
                         id="g4219"
                         style="fill:none;fill-opacity:1;stroke:#464646;stroke-width:20.00000381;stroke-miterlimit:4;stroke-dasharray:none;stroke-opacity:1">
                        <path
                             d="m 193.29,15.642 c -22.57,32.655 -53.59,83.775 -53.12,114.06 c 0.37,25.7 29.82,66.22 40.91,115.99 l -9.23,0 C 161,190.562 115.4,120.392 74.056,133.152 c -48.854,15.08 -44.539,68.4 -26.072,100.3 c 10.028,-17.02 21.574,-37.15 49.067,-36.15 c 25.949,0.96 38.749,23.77 47.749,48.39 c -7.33,0 -13.22,5.29 -13.22,11.87 c 0,6.58 5.89,11.87 13.22,11.87 l 5.51,0 c 1.79,17.4 -1,34.8 -11.26,37.84 c -13.3,3.94 -21.1,-4.1 -29.42,-18.06 c -5.33,13.9 -10.793,53.26 18.53,61.07 c 28.06,7.47 45.46,-23.85 46.16,-80.85 l 10.45,0 c 0.32,4.02 0.5,8.09 0.51,12.21 c 0.02,31.44 -16.03,52.63 -16.54,65.83 c -0.52,13.33 13.53,28.7 24.62,37.07 c 10.98,-8.37 25,-23.74 24.48,-37.07 c -0.51,-13.2 -16.56,-34.39 -16.54,-65.83 c 0.01,-4.12 0.19,-8.19 0.51,-12.21 l 9.64,0 c 0.7,57 18.14,88.32 46.19,80.85 c 29.32,-7.81 23.83,-47.17 18.5,-61.07 c -8.32,13.96 -16.12,22 -29.42,18.06 c -10.26,-3.04 -13.05,-20.44 -11.26,-37.84 l 6.46,0 c 7.32,0 13.22,-5.29 13.22,-11.87 c 0,-6.58 -5.9,-11.87 -13.22,-11.87 l -0.95,0 c 9,-24.62 21.83,-47.43 47.78,-48.39 c 27.49,-1 39.01,19.13 49.03,36.15 c 18.47,-31.9 22.82,-85.22 -26.03,-100.3 c -41.35,-12.76 -86.98,57.41 -97.83,112.54 l -8.42,0 c 11.09,-49.77 40.54,-90.29 40.91,-115.99 C 246.88,99.419 215.86,48.299 193.29,15.642 Z"
                             style="fill:none;fill-opacity:1;stroke:#464646;stroke-width:20.00000381;stroke-miterlimit:4;stroke-dasharray:none;stroke-opacity:1"
                             id="path4221"
                             inkscape:connector-curvature="0" />
                    </g>
                    <g
                         style="fill:none;fill-opacity:1;stroke:#505050;stroke-width:18.00000191;stroke-miterlimit:4;stroke-dasharray:none;stroke-opacity:1"
                         id="g4223"
                         transform="matrix(0.01111111,0,0,0.01111111,1.1901131,3.8520982)">
                        <path
                             inkscape:connector-curvature="0"
                             id="path4225"
                             style="fill:none;fill-opacity:1;stroke:#505050;stroke-width:18.00000191;stroke-miterlimit:4;stroke-dasharray:none;stroke-opacity:1"
                             d="m 193.29,15.642 c -22.57,32.655 -53.59,83.775 -53.12,114.06 c 0.37,25.7 29.82,66.22 40.91,115.99 l -9.23,0 C 161,190.562 115.4,120.392 74.056,133.152 c -48.854,15.08 -44.539,68.4 -26.072,100.3 c 10.028,-17.02 21.574,-37.15 49.067,-36.15 c 25.949,0.96 38.749,23.77 47.749,48.39 c -7.33,0 -13.22,5.29 -13.22,11.87 c 0,6.58 5.89,11.87 13.22,11.87 l 5.51,0 c 1.79,17.4 -1,34.8 -11.26,37.84 c -13.3,3.94 -21.1,-4.1 -29.42,-18.06 c -5.33,13.9 -10.793,53.26 18.53,61.07 c 28.06,7.47 45.46,-23.85 46.16,-80.85 l 10.45,0 c 0.32,4.02 0.5,8.09 0.51,12.21 c 0.02,31.44 -16.03,52.63 -16.54,65.83 c -0.52,13.33 13.53,28.7 24.62,37.07 c 10.98,-8.37 25,-23.74 24.48,-37.07 c -0.51,-13.2 -16.56,-34.39 -16.54,-65.83 c 0.01,-4.12 0.19,-8.19 0.51,-12.21 l 9.64,0 c 0.7,57 18.14,88.32 46.19,80.85 c 29.32,-7.81 23.83,-47.17 18.5,-61.07 c -8.32,13.96 -16.12,22 -29.42,18.06 c -10.26,-3.04 -13.05,-20.44 -11.26,-37.84 l 6.46,0 c 7.32,0 13.22,-5.29 13.22,-11.87 c 0,-6.58 -5.9,-11.87 -13.22,-11.87 l -0.95,0 c 9,-24.62 21.83,-47.43 47.78,-48.39 c 27.49,-1 39.01,19.13 49.03,36.15 c 18.47,-31.9 22.82,-85.22 -26.03,-100.3 c -41.35,-12.76 -86.98,57.41 -97.83,112.54 l -8.42,0 c 11.09,-49.77 40.54,-90.29 40.91,-115.99 C 246.88,99.419 215.86,48.299 193.29,15.642 Z" />
                    </g>
                    <g
                         transform="matrix(0.01111111,0,0,0.01111111,1.1901131,3.8520982)"
                         id="g4227"
                         style="fill:none;fill-opacity:1;stroke:#5a5a5a;stroke-width:16.00000191;stroke-miterlimit:4;stroke-dasharray:none;stroke-opacity:1">
                        <path
                             d="m 193.29,15.642 c -22.57,32.655 -53.59,83.775 -53.12,114.06 c 0.37,25.7 29.82,66.22 40.91,115.99 l -9.23,0 C 161,190.562 115.4,120.392 74.056,133.152 c -48.854,15.08 -44.539,68.4 -26.072,100.3 c 10.028,-17.02 21.574,-37.15 49.067,-36.15 c 25.949,0.96 38.749,23.77 47.749,48.39 c -7.33,0 -13.22,5.29 -13.22,11.87 c 0,6.58 5.89,11.87 13.22,11.87 l 5.51,0 c 1.79,17.4 -1,34.8 -11.26,37.84 c -13.3,3.94 -21.1,-4.1 -29.42,-18.06 c -5.33,13.9 -10.793,53.26 18.53,61.07 c 28.06,7.47 45.46,-23.85 46.16,-80.85 l 10.45,0 c 0.32,4.02 0.5,8.09 0.51,12.21 c 0.02,31.44 -16.03,52.63 -16.54,65.83 c -0.52,13.33 13.53,28.7 24.62,37.07 c 10.98,-8.37 25,-23.74 24.48,-37.07 c -0.51,-13.2 -16.56,-34.39 -16.54,-65.83 c 0.01,-4.12 0.19,-8.19 0.51,-12.21 l 9.64,0 c 0.7,57 18.14,88.32 46.19,80.85 c 29.32,-7.81 23.83,-47.17 18.5,-61.07 c -8.32,13.96 -16.12,22 -29.42,18.06 c -10.26,-3.04 -13.05,-20.44 -11.26,-37.84 l 6.46,0 c 7.32,0 13.22,-5.29 13.22,-11.87 c 0,-6.58 -5.9,-11.87 -13.22,-11.87 l -0.95,0 c 9,-24.62 21.83,-47.43 47.78,-48.39 c 27.49,-1 39.01,19.13 49.03,36.15 c 18.47,-31.9 22.82,-85.22 -26.03,-100.3 c -41.35,-12.76 -86.98,57.41 -97.83,112.54 l -8.42,0 c 11.09,-49.77 40.54,-90.29 40.91,-115.99 C 246.88,99.419 215.86,48.299 193.29,15.642 Z"
                             style="fill:none;fill-opacity:1;stroke:#5a5a5a;stroke-width:16.00000191;stroke-miterlimit:4;stroke-dasharray:none;stroke-opacity:1"
                             id="path4229"
                             inkscape:connector-curvature="0" />
                    </g>
                    <g
                         style="fill:none;fill-opacity:1;stroke:#646464;stroke-width:14.00000191;stroke-miterlimit:4;stroke-dasharray:none;stroke-opacity:1"
                         id="g4231"
                         transform="matrix(0.01111111,0,0,0.01111111,1.190113,3.8520982)">
                        <path
                             inkscape:connector-curvature="0"
                             id="path4234"
                             style="fill:none;fill-opacity:1;stroke:#646464;stroke-width:14.00000191;stroke-miterlimit:4;stroke-dasharray:none;stroke-opacity:1"
                             d="m 193.29,15.642 c -22.57,32.655 -53.59,83.775 -53.12,114.06 c 0.37,25.7 29.82,66.22 40.91,115.99 l -9.23,0 C 161,190.562 115.4,120.392 74.056,133.152 c -48.854,15.08 -44.539,68.4 -26.072,100.3 c 10.028,-17.02 21.574,-37.15 49.067,-36.15 c 25.949,0.96 38.749,23.77 47.749,48.39 c -7.33,0 -13.22,5.29 -13.22,11.87 c 0,6.58 5.89,11.87 13.22,11.87 l 5.51,0 c 1.79,17.4 -1,34.8 -11.26,37.84 c -13.3,3.94 -21.1,-4.1 -29.42,-18.06 c -5.33,13.9 -10.793,53.26 18.53,61.07 c 28.06,7.47 45.46,-23.85 46.16,-80.85 l 10.45,0 c 0.32,4.02 0.5,8.09 0.51,12.21 c 0.02,31.44 -16.03,52.63 -16.54,65.83 c -0.52,13.33 13.53,28.7 24.62,37.07 c 10.98,-8.37 25,-23.74 24.48,-37.07 c -0.51,-13.2 -16.56,-34.39 -16.54,-65.83 c 0.01,-4.12 0.19,-8.19 0.51,-12.21 l 9.64,0 c 0.7,57 18.14,88.32 46.19,80.85 c 29.32,-7.81 23.83,-47.17 18.5,-61.07 c -8.32,13.96 -16.12,22 -29.42,18.06 c -10.26,-3.04 -13.05,-20.44 -11.26,-37.84 l 6.46,0 c 7.32,0 13.22,-5.29 13.22,-11.87 c 0,-6.58 -5.9,-11.87 -13.22,-11.87 l -0.95,0 c 9,-24.62 21.83,-47.43 47.78,-48.39 c 27.49,-1 39.01,19.13 49.03,36.15 c 18.47,-31.9 22.82,-85.22 -26.03,-100.3 c -41.35,-12.76 -86.98,57.41 -97.83,112.54 l -8.42,0 c 11.09,-49.77 40.54,-90.29 40.91,-115.99 C 246.88,99.419 215.86,48.299 193.29,15.642 Z" />
                    </g>
                    <g
                         transform="matrix(0.01111111,0,0,0.01111111,1.1901129,3.8520982)"
                         id="g4236"
                         style="fill:none;fill-opacity:1;stroke:#787878;stroke-width:12.00000191;stroke-miterlimit:4;stroke-dasharray:none;stroke-opacity:1">
                        <path
                             d="m 193.29,15.642 c -22.57,32.655 -53.59,83.775 -53.12,114.06 c 0.37,25.7 29.82,66.22 40.91,115.99 l -9.23,0 C 161,190.562 115.4,120.392 74.056,133.152 c -48.854,15.08 -44.539,68.4 -26.072,100.3 c 10.028,-17.02 21.574,-37.15 49.067,-36.15 c 25.949,0.96 38.749,23.77 47.749,48.39 c -7.33,0 -13.22,5.29 -13.22,11.87 c 0,6.58 5.89,11.87 13.22,11.87 l 5.51,0 c 1.79,17.4 -1,34.8 -11.26,37.84 c -13.3,3.94 -21.1,-4.1 -29.42,-18.06 c -5.33,13.9 -10.793,53.26 18.53,61.07 c 28.06,7.47 45.46,-23.85 46.16,-80.85 l 10.45,0 c 0.32,4.02 0.5,8.09 0.51,12.21 c 0.02,31.44 -16.03,52.63 -16.54,65.83 c -0.52,13.33 13.53,28.7 24.62,37.07 c 10.98,-8.37 25,-23.74 24.48,-37.07 c -0.51,-13.2 -16.56,-34.39 -16.54,-65.83 c 0.01,-4.12 0.19,-8.19 0.51,-12.21 l 9.64,0 c 0.7,57 18.14,88.32 46.19,80.85 c 29.32,-7.81 23.83,-47.17 18.5,-61.07 c -8.32,13.96 -16.12,22 -29.42,18.06 c -10.26,-3.04 -13.05,-20.44 -11.26,-37.84 l 6.46,0 c 7.32,0 13.22,-5.29 13.22,-11.87 c 0,-6.58 -5.9,-11.87 -13.22,-11.87 l -0.95,0 c 9,-24.62 21.83,-47.43 47.78,-48.39 c 27.49,-1 39.01,19.13 49.03,36.15 c 18.47,-31.9 22.82,-85.22 -26.03,-100.3 c -41.35,-12.76 -86.98,57.41 -97.83,112.54 l -8.42,0 c 11.09,-49.77 40.54,-90.29 40.91,-115.99 C 246.88,99.419 215.86,48.299 193.29,15.642 Z"
                             style="fill:none;fill-opacity:1;stroke:#787878;stroke-width:12.00000191;stroke-miterlimit:4;stroke-dasharray:none;stroke-opacity:1"
                             id="path4238"
                             inkscape:connector-curvature="0" />
                    </g>
                    <g
                         style="fill:none;fill-opacity:1;stroke:#8c8c8c;stroke-width:10.00000191;stroke-miterlimit:4;stroke-dasharray:none;stroke-opacity:1"
                         id="g4240"
                         transform="matrix(0.01111111,0,0,0.01111111,1.1901129,3.8520982)">
                        <path
                             inkscape:connector-curvature="0"
                             id="path4242"
                             style="fill:none;fill-opacity:1;stroke:#8c8c8c;stroke-width:10.00000191;stroke-miterlimit:4;stroke-dasharray:none;stroke-opacity:1"
                             d="m 193.29,15.642 c -22.57,32.655 -53.59,83.775 -53.12,114.06 c 0.37,25.7 29.82,66.22 40.91,115.99 l -9.23,0 C 161,190.562 115.4,120.392 74.056,133.152 c -48.854,15.08 -44.539,68.4 -26.072,100.3 c 10.028,-17.02 21.574,-37.15 49.067,-36.15 c 25.949,0.96 38.749,23.77 47.749,48.39 c -7.33,0 -13.22,5.29 -13.22,11.87 c 0,6.58 5.89,11.87 13.22,11.87 l 5.51,0 c 1.79,17.4 -1,34.8 -11.26,37.84 c -13.3,3.94 -21.1,-4.1 -29.42,-18.06 c -5.33,13.9 -10.793,53.26 18.53,61.07 c 28.06,7.47 45.46,-23.85 46.16,-80.85 l 10.45,0 c 0.32,4.02 0.5,8.09 0.51,12.21 c 0.02,31.44 -16.03,52.63 -16.54,65.83 c -0.52,13.33 13.53,28.7 24.62,37.07 c 10.98,-8.37 25,-23.74 24.48,-37.07 c -0.51,-13.2 -16.56,-34.39 -16.54,-65.83 c 0.01,-4.12 0.19,-8.19 0.51,-12.21 l 9.64,0 c 0.7,57 18.14,88.32 46.19,80.85 c 29.32,-7.81 23.83,-47.17 18.5,-61.07 c -8.32,13.96 -16.12,22 -29.42,18.06 c -10.26,-3.04 -13.05,-20.44 -11.26,-37.84 l 6.46,0 c 7.32,0 13.22,-5.29 13.22,-11.87 c 0,-6.58 -5.9,-11.87 -13.22,-11.87 l -0.95,0 c 9,-24.62 21.83,-47.43 47.78,-48.39 c 27.49,-1 39.01,19.13 49.03,36.15 c 18.47,-31.9 22.82,-85.22 -26.03,-100.3 c -41.35,-12.76 -86.98,57.41 -97.83,112.54 l -8.42,0 c 11.09,-49.77 40.54,-90.29 40.91,-115.99 C 246.88,99.419 215.86,48.299 193.29,15.642 Z" />
                    </g>
                    <g
                         transform="matrix(0.01111111,0,0,0.01111111,1.1901128,3.8520982)"
                         id="g4244"
                         style="fill:none;fill-opacity:1;stroke:#a0a0a0;stroke-width:8.00000095;stroke-miterlimit:4;stroke-dasharray:none;stroke-opacity:1">
                        <path
                             d="m 193.29,15.642 c -22.57,32.655 -53.59,83.775 -53.12,114.06 c 0.37,25.7 29.82,66.22 40.91,115.99 l -9.23,0 C 161,190.562 115.4,120.392 74.056,133.152 c -48.854,15.08 -44.539,68.4 -26.072,100.3 c 10.028,-17.02 21.574,-37.15 49.067,-36.15 c 25.949,0.96 38.749,23.77 47.749,48.39 c -7.33,0 -13.22,5.29 -13.22,11.87 c 0,6.58 5.89,11.87 13.22,11.87 l 5.51,0 c 1.79,17.4 -1,34.8 -11.26,37.84 c -13.3,3.94 -21.1,-4.1 -29.42,-18.06 c -5.33,13.9 -10.793,53.26 18.53,61.07 c 28.06,7.47 45.46,-23.85 46.16,-80.85 l 10.45,0 c 0.32,4.02 0.5,8.09 0.51,12.21 c 0.02,31.44 -16.03,52.63 -16.54,65.83 c -0.52,13.33 13.53,28.7 24.62,37.07 c 10.98,-8.37 25,-23.74 24.48,-37.07 c -0.51,-13.2 -16.56,-34.39 -16.54,-65.83 c 0.01,-4.12 0.19,-8.19 0.51,-12.21 l 9.64,0 c 0.7,57 18.14,88.32 46.19,80.85 c 29.32,-7.81 23.83,-47.17 18.5,-61.07 c -8.32,13.96 -16.12,22 -29.42,18.06 c -10.26,-3.04 -13.05,-20.44 -11.26,-37.84 l 6.46,0 c 7.32,0 13.22,-5.29 13.22,-11.87 c 0,-6.58 -5.9,-11.87 -13.22,-11.87 l -0.95,0 c 9,-24.62 21.83,-47.43 47.78,-48.39 c 27.49,-1 39.01,19.13 49.03,36.15 c 18.47,-31.9 22.82,-85.22 -26.03,-100.3 c -41.35,-12.76 -86.98,57.41 -97.83,112.54 l -8.42,0 c 11.09,-49.77 40.54,-90.29 40.91,-115.99 C 246.88,99.419 215.86,48.299 193.29,15.642 Z"
                             style="fill:none;fill-opacity:1;stroke:#a0a0a0;stroke-width:8.00000095;stroke-miterlimit:4;stroke-dasharray:none;stroke-opacity:1"
                             id="path4246"
                             inkscape:connector-curvature="0" />
                    </g>
                    <g
                         style="fill:none;fill-opacity:1;stroke:#b4b4b4;stroke-width:6.00000095;stroke-miterlimit:4;stroke-dasharray:none;stroke-opacity:1"
                         id="g4248"
                         transform="matrix(0.01111111,0,0,0.01111111,1.1901127,3.8520982)">
                        <path
                             inkscape:connector-curvature="0"
                             id="path4250"
                             style="fill:none;fill-opacity:1;stroke:#b4b4b4;stroke-width:6.00000095;stroke-miterlimit:4;stroke-dasharray:none;stroke-opacity:1"
                             d="m 193.29,15.642 c -22.57,32.655 -53.59,83.775 -53.12,114.06 c 0.37,25.7 29.82,66.22 40.91,115.99 l -9.23,0 C 161,190.562 115.4,120.392 74.056,133.152 c -48.854,15.08 -44.539,68.4 -26.072,100.3 c 10.028,-17.02 21.574,-37.15 49.067,-36.15 c 25.949,0.96 38.749,23.77 47.749,48.39 c -7.33,0 -13.22,5.29 -13.22,11.87 c 0,6.58 5.89,11.87 13.22,11.87 l 5.51,0 c 1.79,17.4 -1,34.8 -11.26,37.84 c -13.3,3.94 -21.1,-4.1 -29.42,-18.06 c -5.33,13.9 -10.793,53.26 18.53,61.07 c 28.06,7.47 45.46,-23.85 46.16,-80.85 l 10.45,0 c 0.32,4.02 0.5,8.09 0.51,12.21 c 0.02,31.44 -16.03,52.63 -16.54,65.83 c -0.52,13.33 13.53,28.7 24.62,37.07 c 10.98,-8.37 25,-23.74 24.48,-37.07 c -0.51,-13.2 -16.56,-34.39 -16.54,-65.83 c 0.01,-4.12 0.19,-8.19 0.51,-12.21 l 9.64,0 c 0.7,57 18.14,88.32 46.19,80.85 c 29.32,-7.81 23.83,-47.17 18.5,-61.07 c -8.32,13.96 -16.12,22 -29.42,18.06 c -10.26,-3.04 -13.05,-20.44 -11.26,-37.84 l 6.46,0 c 7.32,0 13.22,-5.29 13.22,-11.87 c 0,-6.58 -5.9,-11.87 -13.22,-11.87 l -0.95,0 c 9,-24.62 21.83,-47.43 47.78,-48.39 c 27.49,-1 39.01,19.13 49.03,36.15 c 18.47,-31.9 22.82,-85.22 -26.03,-100.3 c -41.35,-12.76 -86.98,57.41 -97.83,112.54 l -8.42,0 c 11.09,-49.77 40.54,-90.29 40.91,-115.99 C 246.88,99.419 215.86,48.299 193.29,15.642 Z" />
                    </g>
                    <g
                         transform="matrix(0.01111111,0,0,0.01111111,1.1901126,3.8520982)"
                         id="g4252"
                         style="fill:none;fill-opacity:1;stroke:#c8c8c8;stroke-width:4.00000048;stroke-miterlimit:4;stroke-dasharray:none;stroke-opacity:1">
                        <path
                             d="m 193.29,15.642 c -22.57,32.655 -53.59,83.775 -53.12,114.06 c 0.37,25.7 29.82,66.22 40.91,115.99 l -9.23,0 C 161,190.562 115.4,120.392 74.056,133.152 c -48.854,15.08 -44.539,68.4 -26.072,100.3 c 10.028,-17.02 21.574,-37.15 49.067,-36.15 c 25.949,0.96 38.749,23.77 47.749,48.39 c -7.33,0 -13.22,5.29 -13.22,11.87 c 0,6.58 5.89,11.87 13.22,11.87 l 5.51,0 c 1.79,17.4 -1,34.8 -11.26,37.84 c -13.3,3.94 -21.1,-4.1 -29.42,-18.06 c -5.33,13.9 -10.793,53.26 18.53,61.07 c 28.06,7.47 45.46,-23.85 46.16,-80.85 l 10.45,0 c 0.32,4.02 0.5,8.09 0.51,12.21 c 0.02,31.44 -16.03,52.63 -16.54,65.83 c -0.52,13.33 13.53,28.7 24.62,37.07 c 10.98,-8.37 25,-23.74 24.48,-37.07 c -0.51,-13.2 -16.56,-34.39 -16.54,-65.83 c 0.01,-4.12 0.19,-8.19 0.51,-12.21 l 9.64,0 c 0.7,57 18.14,88.32 46.19,80.85 c 29.32,-7.81 23.83,-47.17 18.5,-61.07 c -8.32,13.96 -16.12,22 -29.42,18.06 c -10.26,-3.04 -13.05,-20.44 -11.26,-37.84 l 6.46,0 c 7.32,0 13.22,-5.29 13.22,-11.87 c 0,-6.58 -5.9,-11.87 -13.22,-11.87 l -0.95,0 c 9,-24.62 21.83,-47.43 47.78,-48.39 c 27.49,-1 39.01,19.13 49.03,36.15 c 18.47,-31.9 22.82,-85.22 -26.03,-100.3 c -41.35,-12.76 -86.98,57.41 -97.83,112.54 l -8.42,0 c 11.09,-49.77 40.54,-90.29 40.91,-115.99 C 246.88,99.419 215.86,48.299 193.29,15.642 Z"
                             style="fill:none;fill-opacity:1;stroke:#c8c8c8;stroke-width:4.00000048;stroke-miterlimit:4;stroke-dasharray:none;stroke-opacity:1"
                             id="path4254"
                             inkscape:connector-curvature="0" />
                    </g>
                    <g
                         style="fill:none;fill-opacity:1;stroke:#dcdcdc;stroke-width:2.00000024;stroke-miterlimit:4;stroke-dasharray:none;stroke-opacity:1"
                         id="g4256"
                         transform="matrix(0.01111111,0,0,0.01111111,1.1901126,3.8520982)">
                        <path
                             inkscape:connector-curvature="0"
                             id="path4258"
                             style="fill:none;fill-opacity:1;stroke:#dcdcdc;stroke-width:2.00000024;stroke-miterlimit:4;stroke-dasharray:none;stroke-opacity:1"
                             d="m 193.29,15.642 c -22.57,32.655 -53.59,83.775 -53.12,114.06 c 0.37,25.7 29.82,66.22 40.91,115.99 l -9.23,0 C 161,190.562 115.4,120.392 74.056,133.152 c -48.854,15.08 -44.539,68.4 -26.072,100.3 c 10.028,-17.02 21.574,-37.15 49.067,-36.15 c 25.949,0.96 38.749,23.77 47.749,48.39 c -7.33,0 -13.22,5.29 -13.22,11.87 c 0,6.58 5.89,11.87 13.22,11.87 l 5.51,0 c 1.79,17.4 -1,34.8 -11.26,37.84 c -13.3,3.94 -21.1,-4.1 -29.42,-18.06 c -5.33,13.9 -10.793,53.26 18.53,61.07 c 28.06,7.47 45.46,-23.85 46.16,-80.85 l 10.45,0 c 0.32,4.02 0.5,8.09 0.51,12.21 c 0.02,31.44 -16.03,52.63 -16.54,65.83 c -0.52,13.33 13.53,28.7 24.62,37.07 c 10.98,-8.37 25,-23.74 24.48,-37.07 c -0.51,-13.2 -16.56,-34.39 -16.54,-65.83 c 0.01,-4.12 0.19,-8.19 0.51,-12.21 l 9.64,0 c 0.7,57 18.14,88.32 46.19,80.85 c 29.32,-7.81 23.83,-47.17 18.5,-61.07 c -8.32,13.96 -16.12,22 -29.42,18.06 c -10.26,-3.04 -13.05,-20.44 -11.26,-37.84 l 6.46,0 c 7.32,0 13.22,-5.29 13.22,-11.87 c 0,-6.58 -5.9,-11.87 -13.22,-11.87 l -0.95,0 c 9,-24.62 21.83,-47.43 47.78,-48.39 c 27.49,-1 39.01,19.13 49.03,36.15 c 18.47,-31.9 22.82,-85.22 -26.03,-100.3 c -41.35,-12.76 -86.98,57.41 -97.83,112.54 l -8.42,0 c 11.09,-49.77 40.54,-90.29 40.91,-115.99 C 246.88,99.419 215.86,48.299 193.29,15.642 Z" />
                    </g>
                    <g
                         transform="matrix(0.01111111,0,0,0.01111111,1.1901125,3.8520982)"
                         id="g4260"
                         style="fill:none;fill-opacity:1;stroke:#f0f0f0;stroke-width:1.00000012;stroke-miterlimit:4;stroke-dasharray:none;stroke-opacity:1">
                        <path
                             d="m 193.29,15.642 c -22.57,32.655 -53.59,83.775 -53.12,114.06 c 0.37,25.7 29.82,66.22 40.91,115.99 l -9.23,0 C 161,190.562 115.4,120.392 74.056,133.152 c -48.854,15.08 -44.539,68.4 -26.072,100.3 c 10.028,-17.02 21.574,-37.15 49.067,-36.15 c 25.949,0.96 38.749,23.77 47.749,48.39 c -7.33,0 -13.22,5.29 -13.22,11.87 c 0,6.58 5.89,11.87 13.22,11.87 l 5.51,0 c 1.79,17.4 -1,34.8 -11.26,37.84 c -13.3,3.94 -21.1,-4.1 -29.42,-18.06 c -5.33,13.9 -10.793,53.26 18.53,61.07 c 28.06,7.47 45.46,-23.85 46.16,-80.85 l 10.45,0 c 0.32,4.02 0.5,8.09 0.51,12.21 c 0.02,31.44 -16.03,52.63 -16.54,65.83 c -0.52,13.33 13.53,28.7 24.62,37.07 c 10.98,-8.37 25,-23.74 24.48,-37.07 c -0.51,-13.2 -16.56,-34.39 -16.54,-65.83 c 0.01,-4.12 0.19,-8.19 0.51,-12.21 l 9.64,0 c 0.7,57 18.14,88.32 46.19,80.85 c 29.32,-7.81 23.83,-47.17 18.5,-61.07 c -8.32,13.96 -16.12,22 -29.42,18.06 c -10.26,-3.04 -13.05,-20.44 -11.26,-37.84 l 6.46,0 c 7.32,0 13.22,-5.29 13.22,-11.87 c 0,-6.58 -5.9,-11.87 -13.22,-11.87 l -0.95,0 c 9,-24.62 21.83,-47.43 47.78,-48.39 c 27.49,-1 39.01,19.13 49.03,36.15 c 18.47,-31.9 22.82,-85.22 -26.03,-100.3 c -41.35,-12.76 -86.98,57.41 -97.83,112.54 l -8.42,0 c 11.09,-49.77 40.54,-90.29 40.91,-115.99 C 246.88,99.419 215.86,48.299 193.29,15.642 Z"
                             style="fill:none;fill-opacity:1;stroke:#f0f0f0;stroke-width:1.00000012;stroke-miterlimit:4;stroke-dasharray:none;stroke-opacity:1"
                             id="path4262"
                             inkscape:connector-curvature="0" />
                    </g>
                </g>
            </g>
        </g>
    </g>
</svg>
