<?xml version="1.0"?>
<svg xmlns:rdf="http://www.w3.org/1999/02/22-rdf-syntax-ns#" xmlns="http://www.w3.org/2000/svg" xmlns:cc="http://web.resource.org/cc/" xmlns:xlink="http://www.w3.org/1999/xlink" xmlns:dc="http://purl.org/dc/elements/1.1/" xmlns:svg="http://www.w3.org/2000/svg" id="svg1366" viewBox="0 0 273.96 283.59" version="1.0">
  <defs id="defs1368">
    <linearGradient id="linearGradient2285">
      <stop id="stop2287" stop-color="#e2d7d5" offset="0"/>
      <stop id="stop2289" stop-color="#e2d7d5" stop-opacity="0" offset="1"/>
    </linearGradient>
    <radialGradient id="radialGradient1527" gradientUnits="userSpaceOnUse" cy="916.65" cx="-109.29" gradientTransform="matrix(1 0 0 .83544 0 150.84)" r="56.429">
      <stop id="stop2405" stop-color="#1e0c08" offset="0"/>
      <stop id="stop2407" stop-color="#1e0c08" stop-opacity="0" offset="1"/>
    </radialGradient>
    <linearGradient id="linearGradient1529" y2="929.55" gradientUnits="userSpaceOnUse" y1="926.09" x2="287.81" x1="135.36">
      <stop id="stop411" stop-color="#ff0b00" offset="0"/>
      <stop id="stop412" stop-color="#810500" offset="1"/>
    </linearGradient>
    <linearGradient id="linearGradient1531" x1="262.63" xlink:href="#linearGradient2285" gradientUnits="userSpaceOnUse" y1="844.77" gradientTransform="matrix(1.0783 0 0 1.0558 132.1 -538.08)" x2="197.98" y2="934.98"/>
    <linearGradient id="linearGradient1535" y2="920.96" gradientUnits="userSpaceOnUse" y1="924.72" x2="253.51" x1="78.034">
      <stop id="stop363" stop-color="#b6e8ff" offset="0"/>
      <stop id="stop364" stop-color="#2389db" offset="1"/>
    </linearGradient>
    <linearGradient id="linearGradient1537" x1="262.63" xlink:href="#linearGradient2285" gradientUnits="userSpaceOnUse" y1="864.47" gradientTransform="matrix(.61166 0 0 .59888 366.55 -237.08)" x2="196.66" y2="932.28"/>
  </defs>
  <g id="layer1" transform="translate(-50.627 -54.266)">
    <g id="g1516" transform="matrix(.76072 0 0 .76072 -87.691 -134.64)">
      <g id="g2590" fill-rule="evenodd">
        <path id="path2399" transform="matrix(1.4242 0 0 1.5606 501.78 -978.16)" fill="url(#radialGradient1527)" d="m-52.857 916.65a56.429 47.143 0 1 1 -112.85 0 56.429 47.143 0 1 1 112.85 0z"/>
        <path id="path1541" d="m274.76 926.09a69.701 69.701 0 1 1 -139.4 0 69.701 69.701 0 1 1 139.4 0z" transform="matrix(.61658 -.78729 .78729 .61658 -501.86 28.675)" stroke="#000" stroke-linecap="round" stroke-width="7.0986" fill="url(#linearGradient1529)"/>
        <path id="path2280" fill="url(#linearGradient1531)" d="m357.29 374.6c-23.89 0-47.44 10.68-56.33 33.11 6.3-2.15 16.05 1.73 23 1.73 36.79 0 66.66 32.45 66.66 72.41 0 2.54-0.1 5.03-0.34 7.5 15.09-11.38 25.01-30.3 25.01-51.75 0-34.78-25.98-63-58-63z"/>
      </g>
      <path id="path2439" stroke-linejoin="round" d="m40 902.36a105.71 107.14 0 1 1 -211.43 0 105.71 107.14 0 1 1 211.43 0z" transform="matrix(1.6654 0 0 1.7023 471.33 -1101.4)" stroke="#000" stroke-linecap="round" stroke-width="4.7561" fill="none"/>
      <g id="g2578" fill-rule="evenodd">
        <path id="path2411" transform="matrix(.81530 0 0 .89106 578.33 -491.59)" fill="url(#radialGradient1527)" d="m-52.857 916.65a56.429 47.143 0 1 1 -112.85 0 56.429 47.143 0 1 1 112.85 0z"/>
        <path id="path2331" d="m274.76 926.09a69.701 69.701 0 1 1 -139.4 0 69.701 69.701 0 1 1 139.4 0z" transform="matrix(.34976 -.44659 .44659 .34976 6.9316 84.409)" stroke="#000" stroke-linecap="round" stroke-width="7.0986" fill="url(#linearGradient1535)"/>
        <path id="path2333" fill="url(#linearGradient1537)" d="m494.29 280.64c-13.55 0-26.91 6.05-31.95 18.77 3.57-1.21 9.1 0.99 13.04 0.99 20.87 0 37.82 18.4 37.82 41.07 0 1.44-0.06 2.86-0.2 4.26 8.56-6.46 14.19-17.19 14.19-29.36 0-19.73-14.74-35.73-32.9-35.73z"/>
      </g>
    </g>
  </g>
  <metadata>
    <rdf:RDF>
      <cc:Work>
        <dc:format>image/svg+xml</dc:format>
        <dc:type rdf:resource="http://purl.org/dc/dcmitype/StillImage"/>
        <cc:license rdf:resource="http://creativecommons.org/licenses/publicdomain/"/>
        <dc:publisher>
          <cc:Agent rdf:about="http://openclipart.org/">
            <dc:title>Openclipart</dc:title>
          </cc:Agent>
        </dc:publisher>
        <dc:title>atom</dc:title>
        <dc:date>2007-09-15T19:36:48</dc:date>
        <dc:description>atom, atom, clip art, clipart, colour, colour, contour, contour, icon, icon, image, media, physics, physics, png, public domain, science, science, svg, </dc:description>
        <dc:source>http://openclipart.org/detail/5456/atom-by-mcol</dc:source>
        <dc:creator>
          <cc:Agent>
            <dc:title>mcol</dc:title>
          </cc:Agent>
        </dc:creator>
        <dc:subject>
          <rdf:Bag>
            <rdf:li>atom</rdf:li>
            <rdf:li>clip art</rdf:li>
            <rdf:li>clipart</rdf:li>
            <rdf:li>colour</rdf:li>
            <rdf:li>contour</rdf:li>
            <rdf:li>icon</rdf:li>
            <rdf:li>image</rdf:li>
            <rdf:li>media</rdf:li>
            <rdf:li>physics</rdf:li>
            <rdf:li>png</rdf:li>
            <rdf:li>public domain</rdf:li>
            <rdf:li>science</rdf:li>
            <rdf:li>svg</rdf:li>
          </rdf:Bag>
        </dc:subject>
      </cc:Work>
      <cc:License rdf:about="http://creativecommons.org/licenses/publicdomain/">
        <cc:permits rdf:resource="http://creativecommons.org/ns#Reproduction"/>
        <cc:permits rdf:resource="http://creativecommons.org/ns#Distribution"/>
        <cc:permits rdf:resource="http://creativecommons.org/ns#DerivativeWorks"/>
      </cc:License>
    </rdf:RDF>
  </metadata>
</svg>
