<?xml version="1.0" encoding="utf-8"?>
<!DOCTYPE svg PUBLIC "-//W3C//DTD SVG 1.1//EN" "http://www.w3.org/Graphics/SVG/1.1/DTD/svg11.dtd">
<svg version="1.1" id="Layer_1" xmlns="http://www.w3.org/2000/svg" xmlns:xlink="http://www.w3.org/1999/xlink" x="0px" y="0px"
	 viewBox="0 0 1479 967" enable-background="new 0 0 1479 967" xml:space="preserve">
<g id="_x23_07660aff">
	<path fill="#07660A" d="M0,0h46.55C34.44,1.12,21.42,3.56,12.37,12.37C3.61,20.57,0.84,32.93,0,44.45V0z"/>
	<path fill="#07660A" d="M1300.99,0H1479v35.94c-1.8199-5.55-3.3199-11.35-6.71-16.21c-5.1901-7.88-12.88-14.3-21.92-17.2
		c-4.95-1.63-10.23-1.4-15.36-1.4c-44.65,0.05-89.29-0.05-133.9301-0.14L1300.99,0z"/>
	<path fill="#07660A" d="M16.14,12.2c9.79-7.7,22.74-9.5,34.83-9.82c186.69-0.05,373.39,0.27,560.08,0.46
		c4.15,0.06,8.32-0.29,12.45,0.29c2.15,0.32,4.31,0.66,6.5,0.74c97.67,0.16,195.34,0.14,293,0.22c6.47-0.16,12.95,0.33,19.41-0.31
		c154.53-0.34,309.06,0.57,463.59,0.39c13.12-0.11,26.24,0.38,39.35-0.27c9.13,1.17,17.04,7.06,22.72,14.06
		c3.27,4.28,6.25,9.14,7.0601,14.55c-0.5699,53.16,0.01,106.33-0.09,159.49c-0.03,209.68-0.02,419.35-0.03,629.03
		c0.1,38.47-0.21,76.9399,0.14,115.4c-1.6901,7.39-6.5601,13.68-11.91,18.87c-5.02,4.6-11.12,9.01-18.21,9.02
		c-85.3301-0.02-170.67-0.07-256-0.13c-12.48-0.2-25.01,0.37-37.47-0.3c-6.76-1.37-13.6801-0.49-20.52-0.74
		c-149.7-0.14-299.4-0.37-449.09-0.08c-143.63,0.27-287.25-0.17-430.88-0.11c-45.03,0.03-90.06-0.05-135.09-0.04
		c-29.42,0.11-58.84-0.29-88.25,0.17c-8.21-0.65-16.28-5.17-20.47-12.39c-2.72-4.68-4.22-10.08-4.3-15.48
		c0.48-23.73,0.05-47.46,0.2-71.1899C3.09,589.91,2.95,315.78,2.79,41.66C3.47,30.73,7.26,19.2,16.14,12.2 M33.38,13.51
		c-5.36,0.97-9.55,4.91-13.11,8.79c-4.26,4.94-8.24,10.92-8.14,17.7c-0.01,295.68,0,591.36,0.02,887.04
		c-0.16,14.3,12.38,27.62,26.89,27.2c243.66,0.04,487.32,0.13,730.97,0.23c222.69,0.01,445.37,0.03,668.05,0.05
		c9.1299-0.06,16.98-6.22,22.46-13.04c3.62-4.3,5.03-9.98,4.66-15.53c-0.0601-296.33,0.0099-592.66-0.04-888.99
		c0.03-5.51-2.4301-10.94-6.64-14.49c-7.47-6.53-17.73-8.87-27.4301-8.99c-464.7-0.04-929.39-0.12-1394.08-0.2
		C35.78,13.26,34.58,13.34,33.38,13.51z"/>
	<path fill="#07660A" d="M33.67,40.13c1.12-2.06,2.79-3.74,4.34-5.47c461,0.16,922,0.09,1383,0.13c7.64,0.11,15.92-0.92,22.78,3.24
		c-0.0901,296.32,0,592.65-0.0601,888.98c-0.6699,3.24-4.38,6.07-7.66,6.23C1213.38,933.2,990.69,933.18,768,933.14
		c-118.01,0-236.01-0.03-354.01-0.23c-124.7,0.03-249.4-0.05-374.09-0.03c-3.8,0.47-6.68-3.43-6.44-6.94
		c0-292.3,0-584.59-0.01-876.88C33.53,46.09,33.2,43.08,33.67,40.13 M433.42,73.5c-0.01,51.82,0,103.64,0,155.47
		c0,3.16-0.17,6.34,0.28,9.48c10.51-0.14,21.03,0.13,31.55-0.14c0.19-23.32,0.02-46.65,0.08-69.98c13.03,0.6,27.51-2.23,39.11,5.27
		c10.2,7,13,19.89,15.79,31.16c3.16,11.39,5.84,23.1,11.26,33.68c10.96-0.14,21.93,0.17,32.88-0.16
		c-4.94-11.17-8.46-22.89-11.79-34.64c-2.98-10.02-5-20.58-10.81-29.47c-4.39-7.13-11.19-12.68-19.08-15.5
		c11.15-3.91,21.79-10.55,28.32-20.62c10.84-16.42,7.52-40.85-8.02-53.19C528.75,73.35,509.72,70.84,492,70.11
		C472.43,69.51,452.79,70.69,433.42,73.5 M616.55,115.85c-11.99,1.64-23.79,5.86-33.48,13.21c-11.05,8.24-18.75,20.65-21.58,34.11
		c-3.35,16.01-1.8,33.52,6.55,47.81c6.79,11.75,18.11,20.5,30.79,25.13c15.17,5.5,31.96,6.11,47.65,2.55
		c15.33-3.52,29.99-11.98,38.89-25.21c9.61-14.06,11.96-32.05,9.3-48.6c-2.46-15.36-11.22-29.71-24.26-38.31
		C654.77,115.96,634.95,113.49,616.55,115.85 M763.95,116.08c-11.99,2.11-23.14,8.72-30.46,18.48c-0.5-5.66-1.03-11.31-1.51-16.98
		c-9.26,0.06-18.52-0.11-27.78,0.1c0.1,9.42,0.79,18.83,0.89,28.25c0.0699,30.77-0.05,61.53,0.06,92.29
		c10.52,0.31,21.08,0.37,31.6-0.03c-0.02-24.07,0-48.14-0.02-72.21c-0.04-5.59,1.31-11.27,4.42-15.97
		c7.66-11.88,25.04-16.59,37.34-9.3c7.55,4.7,10.59,13.95,10.95,22.42c0.26,25.08-0.22,50.17,0.24,75.24
		c10.49,0.02,20.98,0.19,31.47-0.08c0.08-24.79-0.01-49.57,0.04-74.35c-0.05-7.24,2.97-14.49,8.38-19.36
		c9.08-8.4,24.36-10.1,34.44-2.54c8.49,6.88,10.04,18.73,9.91,28.99c0.09,22.43-0.24,44.87,0.17,67.29c10.4,0.24,20.8,0,31.2,0.13
		c0.57-4.47,0.17-8.99,0.28-13.48c-0.01-20.67,0.03-41.34-0.02-62.01c-0.25-13.88-4.67-28.67-15.7-37.8
		c-11.87-10.02-28.64-11.79-43.42-8.89c-12.65,2.39-24.05,9.85-31.72,20.13c-3.38-6.61-8.67-12.24-15.23-15.76
		C788.73,114.7,775.84,113.99,763.95,116.08 M928.26,137.31c-12.24,14.7-16.39,34.95-13.51,53.61c1.95,13.22,8.52,25.86,18.9,34.4
		c12.5699,10.5,29.18,14.86,45.3,15.44c17.47,0.43,35.29-1.24,51.79-7.33c-1.88-6.39-3.47-12.86-5.55-19.18
		c-11.6799,3.8-23.9199,5.8-36.21,5.67c-12,0.15-24.92-2.49-33.85-11.05c-6.66-6.25-9.66-15.43-10.09-24.36
		c29.32,0,58.65-0.04,87.97,0.02c1.28-0.19,2.89,0.36,4.03-0.39c1.5399-9.72,1.01-19.78-1.4-29.31
		c-3.12-12.44-10.59-24.01-21.55-30.9c-12.7-8.16-28.4301-9.84-43.16-8.41C954.67,117.1,938.68,124.52,928.26,137.31 M686.56,324.43
		c-3.24,4.51,0.43,12.47,6.42,11.15c7.44-1.62,14.68-4.09,22.1-5.87c-0.01,33.11-0.03,66.23,0.01,99.34
		c0.05,2.32-0.6801,4.56-0.72,6.87c0,14.61,0.02,29.23-0.01,43.84c-11.97-7.78-25.86-13.83-40.39-13.36
		c-29.6899,0-59.39-0.03-89.08-0.03c1.94-6.55,4.99-12.78,6.41-19.46c-0.45-5.55-7.91-6.99-12.17-4.9
		c-24.1,11.94-48.2,23.91-72.32,35.82c-0.7,0.31-3.2,1.68-0.85,2.06c23.89,11.9,47.88,23.62,71.75,35.56
		c1.75,0.9,3.64,1.4,5.53,1.96c3.47-0.55,8.32-1.93,8.26-6.31c-1.97-6.58-4.5-12.98-6.77-19.46c30.39,0.04,60.77,0,91.15,0
		c16.53,2.12,30.3,14.81,36.94,29.66c2.43,4.54,1.36,9.8,1.54,14.72c0.18,2.26-0.61,4.89,0.93,6.83
		c0.15,14.06,0.02,28.13,0.07,42.19c-0.21,9.65,0.54,19.34-0.69,28.93c0.01,61.6801,0.01,123.3701,0.01,185.05
		c0.17,25.67-0.4,51.36,0.38,77.02c-0.03,12.98,0,25.95-0.01,38.93c9.74-0.0099,19.49,0.01,29.23-0.0099
		c0-20.9901,0.0099-41.98,0.0099-62.97c0.06-6.68-0.33-13.38,0.63-20c0.09-99.99-0.15-199.98-0.04-299.96
		c-0.79-10.34-0.13-20.71-0.32-31.06c0.04-57.03,0.05-114.05,0.06-171.07c7.13,1.97,14.2,4.27,21.45,5.73
		c5.79,0.48,8.68-6.94,5.85-11.37c-14.19-22.72-28.46-45.41-42.7-68.1C715.04,278.94,700.72,301.64,686.56,324.43 M273.8,360.49
		c0.05,22.33,0.05,44.66-0.01,66.99c4.35,0.17,8.71,0.08,13.06,0.08c0.09-9.48,0.03-18.96,0.04-28.44
		c4.67,0.15,9.59-0.66,14.06,1.08c4.1,1.58,6.18,5.85,7.24,9.85c1.59,5.91,2.95,11.91,5.47,17.52c4.51,0.01,9.03,0.02,13.55-0.02
		c-2.44-5.67-4.11-11.62-5.75-17.55c-1.38-6.11-4.63-12.3-10.68-14.84c3.68-1.88,7.55-3.79,10.09-7.18
		c5.38-6.61,4.41-17.45-2.27-22.82c-5.44-4.49-12.73-5.66-19.57-6.02C290.61,358.8,282.13,359.21,273.8,360.49 M347.54,377.7
		c-8.28,1.2-16.32,6.12-19.83,13.92c-4.34,9.65-3.08,22.36,4.91,29.79c9.94,9.01,26.03,9.33,37.19,2.39
		c13.63-8.48,14.52-30.76,2.1-40.69C365.16,377.66,355.91,376.44,347.54,377.7 M395.85,385.03c-0.18-2.23-0.36-4.45-0.54-6.67
		c-3.8-0.03-7.59-0.02-11.38,0.01c0.82,16.38,0.22,32.78,0.44,49.17c4.3,0.04,8.6,0.09,12.9-0.04c0.04-10.41-0.14-20.82,0.08-31.22
		c0.54-7.53,9.75-12.3,16.33-8.85c3.79,1.93,5.04,6.54,4.99,10.5c0.02,9.88-0.04,19.75,0.03,29.62c4.27,0.03,8.55,0.03,12.83,0.01
		c0.17-10.51-0.11-21.03,0.13-31.53c0.42-7.14,8.82-11.66,15.21-8.98c4.39,1.61,5.97,6.68,6.08,10.95
		c0.23,9.86-0.06,19.72,0.15,29.57c4.25,0,8.51,0.02,12.76-0.02c0.07-10.21,0.06-20.42,0.02-30.62c0.01-6.38-2.39-13.26-8.02-16.77
		c-9.23-5.56-22.4-3.01-28.9,5.61C422.31,373.94,403.68,374.97,395.85,385.03 M477.67,383.68c-8.65,7.67-10.72,21.29-5.84,31.57
		c3.49,7.37,11.31,11.72,19.17,12.81c8.64,1.16,17.61,0.32,25.87-2.5c-0.75-2.61-1.48-5.21-2.17-7.83
		c-7.8,2.17-16.46,3.59-24.23,0.62c-5.21-1.96-8.28-7.29-8.55-12.69c12.52-0.03,25.05,0.02,37.57-0.03
		c0.72-6.58,0.02-13.65-3.8-19.25c-3.4-5.24-9.45-8.28-15.56-8.91C492.25,376.53,483.72,378.3,477.67,383.68 M1027.5,478.1
		c0.04,22.39-0.1,44.78,0.0699,67.16c4.3-0.01,8.6101-0.02,12.92,0.01c0.2-9.51,0.04-19.02,0.09-28.52
		c6.3301,0.1,14.5901-1.27,18.65,4.92c4.21,7.28,4.23,16.19,8.22,23.63c4.4801-0.09,8.9701-0.01,13.4701-0.08
		c-3.0901-6.8-4.6801-14.11-6.9-21.2c-1.55-4.94-5-9.39-9.9401-11.25c3.9601-1.56,7.8501-3.73,10.49-7.17
		c4.87-6.05,4.51-15.64-0.7699-21.33c-3.6101-3.87-8.79-5.77-13.89-6.69C1049.1801,475.89,1038.22,476.73,1027.5,478.1
		 M1099.4301,495.7c-7.91,1.58-15.29,6.76-18.4,14.35c-3.87,9.47-2.55,21.6,5.0699,28.86c9.98,9.2,26.3,9.55,37.53,2.45
		c13.5699-8.6,14.3-30.9,1.77-40.72C1118.15,494.96,1108.23,493.9,1099.4301,495.7 M1149.53,502.73c-0.17-2.24-0.36-4.47-0.53-6.69
		c-3.8-0.03-7.6-0.03-11.38-0.05c0.74,16.4,0.24,32.82,0.41,49.23c4.28,0.05,8.5599,0.05,12.84,0c0.15-10.41-0.17-20.83,0.15-31.22
		c0.5-7.42,9.41-12.21,16.01-9.07c3.7999,1.71,5.26,6.19,5.2999,10.08c0.12,10.1-0.1499,20.19,0.12,30.29
		c4.26-0.08,8.52-0.03,12.79-0.07c0.12-10.66-0.17-21.32,0.14-31.98c0.74-7.4,10.02-11.59,16.3199-7.98
		c3.7001,2.14,4.8201,6.74,4.9501,10.73c0.08,9.74-0.03,19.49,0.0399,29.24c4.26,0.03,8.52-0.01,12.78,0.05
		c0.22-10.11,0.0601-20.21,0.1-30.31c0.02-6.34-2.1499-13.23-7.6399-16.89c-9.2001-5.93-22.7001-3.4-29.29,5.32
		C1175.9399,491.63,1157.3199,492.6,1149.53,502.73 M1228.9399,503.81c-6.71,8.07-7.8999,20.25-3.2,29.59
		c3.62,7.15,11.35,11.3199,19.09,12.34c8.5901,1.16,17.4801,0.26,25.7101-2.49c-0.74-2.64-1.5-5.28-2.27-7.91
		c-7.77,2.34-16.49,3.61-24.25,0.62c-5.17-1.97-8.11-7.27-8.49-12.6c12.5399-0.07,25.09,0.01,37.65-0.04
		c1.2599-9.31-1.4401-20.3-10.14-25.21C1252.21,492.3,1237.0601,494.26,1228.9399,503.81 M926.17,542.96
		c1.7,6.52,4.35,12.79,6.5,19.19c-29.21-0.22-58.44,0.0099-87.66-0.07c-8.15-0.08-16.31,1.29-23.92,4.24
		c-15.9,6.12-30.44,16.73-39.56,31.29c-5.65,8.87-8.58,19.27-8.9901,29.74c-0.63,19.57,0.3,39.13,0.14,58.7
		c0.01,76.3,0.03,152.61,0.02,228.91c9.72,0,19.45,0.04,29.17-0.01c-0.03-94.31,0.03-188.63-0.03-282.95
		c-0.73-10.47,4.47-20.32,11.03-28.12c7.62-8.79,18.21-15.93,30.11-16.56c29.93-0.15,59.86-0.04,89.79-0.01
		c-2.07,6.01-4.29,11.97-6.33,17.99c-0.99,2.21,0.02,4.82,2.01,6.09c2.98,1.7,6.82,2,9.93,0.41c24.86-12.31,49.75-24.54,74.57-36.92
		c-24.89-12.38-49.8-24.71-74.72-37.03C933.91,535.89,926.39,537.2,926.17,542.96 M273.82,545.77c0.04,22.36-0.04,44.73,0.04,67.1
		c4.34,0.04,8.67,0.04,13.01-0.01c0.12-9.36-0.11-18.73,0.1-28.08c2.36-0.86,5.41-0.2,8.03-0.34c4.71-0.16,9.68,2.12,11.59,6.65
		c3.05,7.05,3.64,14.97,7.18,21.85c4.49-0.1,8.99,0.01,13.48-0.1c-3.21-6.96-4.72-14.5-7.11-21.73c-1.57-4.77-5.06-8.87-9.76-10.76
		c4.13-1.43,8.03-3.79,10.7-7.31c5.01-6.44,4.18-16.69-1.97-22.11c-4.93-4.42-11.72-5.82-18.13-6.34
		C291.92,543.97,282.81,544.55,273.82,545.77 M344.51,563.66c-3.6,0.9301-7.07,2.5-10.01,4.8c-12.1,9.22-12.46,30.0099-0.5,39.49
		c6.7,5.37,15.83,6.77,24.15,5.52c8.21-1.2,16.31-5.92,19.91-13.64c4.58-9.94,3.16-23.19-5.3-30.66
		C365.16,562.47,354.05,561.35,344.51,563.66 M395.87,570.3c-0.19-2.22-0.39-4.43-0.57-6.63c-3.77-0.01-7.54-0.02-11.31,0.02
		c0.69,16.38,0.19,32.78,0.39,49.17c4.28,0.05,8.56,0.04,12.84,0.01c0.13-10.25-0.07-20.51,0.09-30.76
		c0.2-7.47,8.99-12.6,15.71-9.67c3.77,1.51,5.48,5.75,5.61,9.58c0.14,10.28-0.06,20.58,0.09,30.87c4.27,0,8.55,0.02,12.83-0.02
		c0.15-10.62-0.17-21.24,0.14-31.84c0.67-7.44,10.01-11.76,16.34-8.09c3.81,2.21,4.87,6.97,4.96,11.06
		c0.13,9.61-0.03,19.23,0.07,28.85c4.27,0.06,8.55,0.06,12.82,0.01c0.01-10.3,0.07-20.6-0.01-30.9c-0.07-6.12-2.32-12.67-7.6-16.2
		c-9.22-5.93-22.66-3.39-29.31,5.29C422.24,559.29,403.76,560.32,395.87,570.3 M477.87,568.85c-8.7,7.52-10.88,20.97-6.27,31.27
		c3.22,7.22,10.6,11.74,18.19,13.07c9.01,1.5,18.37,0.55,27.05-2.2c-0.69-2.67-1.4301-5.32-2.22-7.96
		c-7.89,2.29-16.74,3.68-24.57,0.47c-5.01-2.05-7.87-7.28-8.11-12.53c12.53-0.0699,25.06,0.09,37.59-0.0699
		c0.59-6.21,0.08-12.8-3.23-18.23c-2.85-4.92-7.94-8.28-13.46-9.41C494.27,561.49,484.61,562.99,477.87,568.85 M452.04,630.03
		c-18.43,11.66-36.91,23.24-55.3,34.98c19.39,12.44,38.93,24.64,58.39,36.97c3.71,2.63,10.27,0.02,9.75-4.95
		c-1.41-6.54-3.51-12.9301-5.23-19.39c43.78-0.18,87.58,0.26,131.35-0.32c6.68-0.04,13.36-0.06,20.03,0.31
		c8.8199-0.77,17.47,2.68,24.52,7.78c9.13,6.81,16.58,16.36,19.5,27.5c1.24,4.59,1,9.39,1.01,14.1c-0.01,26.07,0,52.13,0,78.2
		c-6.66-4.09-14.13-7.45-22.07-7.53c-19.54-0.06-39.1,0.17-58.63-0.26c1.23-5.49,2.74-10.92,3.79-16.44
		c0.88-3.88-3.88-7.73-7.25-5.08c-14.79,10.97-29.59,21.95-44.28,33.0699c14.79,11.1801,29.67,22.2401,44.58,33.25
		c3.32,2.4901,8.12-1.5699,6.97-5.34c-1.11-5.68-2.75-11.24-3.86-16.91c19.25,0.1,38.52-0.22,57.77,0.26
		c9.76,1.4,17.85,8.53,22.88,16.69c0.22,26.01,0.03,52.03,0.09,78.05c9.72-0.0099,19.43,0.02,29.15-0.02
		c-0.02-65.64-0.02-131.29,0-196.93c0.09-19.93-11.42-38.47-27.27-49.93c-12.68-9.23-27.93-16.22-43.92-15.7
		c-51.43-0.03-102.86,0.01-154.29-0.04c1.65-5.96,3.26-11.94,4.96-17.88c1.18-3.58-2.08-7.3799-5.71-7.34
		C456.25,626.75,454.16,628.71,452.04,630.03 M1027.49,661.45c0.04,22.37-0.05,44.74,0.05,67.1c4.3199,0.05,8.6599,0.04,12.99,0.02
		c0.12-9.49,0.02-18.98,0.0499-28.47c4.5,0.14,9.17-0.55,13.52,0.9c3.99,1.31,6.35,5.21,7.4601,9.05
		c1.7799,6.22,3.0599,12.63,5.7999,18.53c4.52-0.01,9.04,0.05,13.5701-0.06c-3.1901-6.92-4.7401-14.41-7.0701-21.61
		c-1.59-4.8199-5.0599-9.1-9.91-10.86c4.16-1.43,8.14-3.8,10.8101-7.37c4.74-6.13,4.22-15.69-1.15-21.27
		c-4.0599-4.21-9.92-6.0099-15.5699-6.79C1047.89,659.42,1037.59,660.08,1027.49,661.45 M1101.47,678.66
		c-6.4,0.95-12.7,3.8701-16.88,8.91c-5.97,7.13-7.0499,17.52-4.0399,26.15c2.5599,7.29,9.1399,12.69,16.5299,14.64
		c9.0601,2.42,19.36,1.32,27.1801-4.09c13.0699-8.95,13.46-30.95,0.88-40.49C1118.5,678.65,1109.59,677.5,1101.47,678.66
		 M1149.53,686.04c-0.17-2.23-0.36-4.46-0.53-6.67c-3.8-0.05-7.6-0.05-11.39-0.01c0.85,16.41,0.08,32.85,0.54,49.27
		c4.23-0.09,8.46-0.03,12.71-0.07c0.13-10.2-0.09-20.4,0.1-30.59c0.0901-7.35,8.4601-12.56,15.2001-10.06
		c4.22,1.36,6.14,6.05,6.1599,10.19c0.0901,10.14-0.0399,20.29,0.05,30.45c4.3,0.03,8.61,0.11,12.91-0.07
		c-0.01-10.47-0.12-20.94,0.0499-31.41c0.36-7.53,9.67-12.1,16.11-8.6c4.0801,2.1801,5.2001,7.22,5.2301,11.51
		c0.01,9.51,0,19.02-0.01,28.53c4.2899,0.12,8.59,0.08,12.89,0.04c0.0599-8.2,0-16.41,0.0299-24.6
		c0.25-7.25,0.02-15.58-5.6499-20.92c-8.89-7.96-24.26-5.66-31.3,3.72C1175.95,674.95,1157.34,675.96,1149.53,686.04
		 M1231.52,684.52c-9.01,7.83-11.0801,22.08-5.62,32.5c3.89,7.38,12.11,11.41,20.16,12.24c8.21,0.77,16.6799,0.05,24.49-2.72
		c-0.76-2.64-1.5-5.2599-2.3-7.87c-7.59,2.32-16.0601,3.51-23.7,0.84c-5.4301-1.84-8.6901-7.29-8.99-12.84
		c12.5199-0.03,25.0499,0.01,37.58-0.01c0.85-6.98-0.11-14.59-4.51-20.3c-3.63-4.83-9.5699-7.49-15.49-7.96
		C1245.53,677.66,1237.37,679.39,1231.52,684.52 M969.39,731.83c1.63,5.86,3.18,11.75,4.91,17.6c-21.1-0.1-42.2,0.01-63.29-0.02
		c-9.44,0.16-19.1-0.39-28.24,2.4c-11.83,3.5-22.79,9.75-32.1,17.81c-12.95,11.4-21.82,27.93-21.91,45.4
		c-0.04,33.31,0.04,66.62,0.02,99.94c9.73,0.02,19.46,0,29.18,0.0099c0-31.98,0.0099-63.95,0-95.92
		c-0.32-12.12,6.35-23.27,14.73-31.55c7.8-7.35,18.1-13.32,29.12-12.68c24.16-0.51,48.38-0.15,72.57-0.22
		c-1.54,5.6-3.08,11.21-4.68,16.81c-0.55,1.86-1.03,4.02,0.02,5.83c1.75,3.16,6.4,3.94,9.28,1.89c19.41-12.33,39-24.4,58.27-36.94
		c-18.48-11.72-36.99-23.39-55.48-35.09c-2.12-1.3-4.27-3.12-6.93-2.72C971.18,724.34,968.16,728.29,969.39,731.83 M273.81,729.12
		c0.05,22.37,0,44.74,0.03,67.12c4.34,0.02,8.68,0.04,13.03-0.02c0.06-9.49,0.01-18.98,0.03-28.47c6.49,0.02,15.09-1.23,18.98,5.39
		c3.8,7.25,4.12,15.79,7.82,23.13c4.51-0.03,9.02,0.01,13.54-0.05c-3.26-7.16-4.76-14.92-7.3-22.3199
		c-1.53-4.55-5.04-8.03-9.19-10.28c4.23-1.68,8.36-4.15,10.89-8.04c4.6-6.73,3.22-16.91-3.26-21.95
		c-5.18-4.14-11.97-5.34-18.41-5.79C291.23,727.34,282.46,727.9,273.81,729.12 M345.5,746.76c-6.18,1.36-12.07,4.72-15.73,9.98
		c-4.91,7.03-5.68,16.48-2.95,24.49c2.5,7.2,8.86,12.63,16.12,14.66c9.25,2.63,19.86,1.53,27.82-4.09
		c13.11-9.12,13.21-31.42,0.25-40.71C363.73,745.84,354.09,744.95,345.5,746.76 M395.93,753.68c-0.25-2.21-0.46-4.43-0.63-6.64
		c-3.8-0.02-7.59-0.03-11.38,0.03c0.92,16.39,0.09,32.82,0.54,49.22c4.26-0.06,8.52-0.02,12.78-0.06
		c0.09-10.33-0.1-20.66,0.08-30.99c0.33-7.76,9.93-12.75,16.59-9.02c3.73,2.1,4.86,6.7401,4.77,10.73c0,9.76-0.05,19.52,0.01,29.29
		c4.25,0.04,8.49-0.04,12.74,0.08c0.45-10.75-0.18-21.53,0.3-32.28c0.91-7.5,10.57-11.5099,16.75-7.49
		c3.68,2.49,4.48,7.3,4.53,11.42c0.07,9.42-0.03,18.83,0.04,28.25c4.28,0.05,8.55,0.0601,12.83,0c0.02-10.43,0.08-20.85-0.02-31.27
		c-0.12-6.08-2.48-12.57-7.78-15.98c-9.22-5.77-22.55-3.21-29.13,5.4301C422.29,742.66,403.69,743.58,395.93,753.68 M477.52,752.48
		c-8.4,7.58-10.46,20.79-5.92,30.96c3.12,6.99,10.15,11.51,17.5,12.94c9.21,1.74,18.87,0.79,27.75-2.1
		c-0.71-2.67-1.44-5.3101-2.2599-7.9301c-7.87,2.34-16.74,3.6801-24.55,0.47c-5-2.04-7.83-7.25-8.12-12.47
		c12.51-0.04,25.03,0,37.55-0.02c0.8-6.78-0.02-14.11-4.11-19.78c-3.49-4.97-9.37-7.83-15.33-8.42
		C492.12,745.19,483.54,747.03,477.52,752.48z"/>
	<path fill="#07660A" d="M465.34,92.4c11.77-1.55,23.9-2.08,35.62,0.15c8.29,1.69,16.83,5.72,21.08,13.4
		c4.73,8.94,4.18,20.81-2.25,28.8c-5.13,6.44-13.01,10.01-20.9,11.71c-11.04,2.32-22.38,1.04-33.56,1.35
		C465.34,129.34,465.32,110.87,465.34,92.4z"/>
	<path fill="#07660A" d="M958.75,140.7c7.41-5.71,17.38-7.09,26.41-5.41c6.47,1.16,12.6,4.71,16.4,10.15
		c4.06,5.62,5.59,12.63,5.83,19.46c-20.67-0.01-41.34,0.02-62.01-0.02C946.88,155.64,951.13,146.44,958.75,140.7z"/>
	<path fill="#07660A" d="M618.54,136.71c9.67-2.46,20.69-1.26,28.79,4.89c7.61,5.71,12.06,14.72,14.05,23.86
		c2.54,12.02,1.51,25.05-4.1,36.09c-3.67,7.26-9.7401,13.5-17.38,16.53c-10.13,4.04-22.37,2.76-31.1801-3.79
		c-7.1299-5.24-11.77-13.29-14.02-21.74c-3.13-11.99-2.34-25.05,2.48-36.49C600.98,146.89,608.73,139.11,618.54,136.71z"/>
	<path fill="#07660A" d="M286.89,368.14c6.58-0.66,13.85-1.33,19.79,2.15c5.88,3.5,5.98,12.99,0.46,16.88
		c-5.76,4.44-13.41,3.36-20.2,3.53C286.83,383.18,286.93,375.66,286.89,368.14z"/>
	<path fill="#07660A" d="M485.62,389.6c4.15-5.03,12.4-5.79,17.52-1.85c3.02,2.32,3.88,6.22,4.31,9.79
		c-8.46,0.08-16.92,0.05-25.38,0.02C482.74,394.71,483.66,391.83,485.62,389.6z"/>
	<path fill="#07660A" d="M349.19,386.13c5.57-1.64,12.16,0.57,15.06,5.74c4.3,7.43,3.97,17.91-1.98,24.37
		c-4.75,5.2-13.77,5.22-18.61,0.13c-5.12-5.34-5.95-13.64-3.85-20.49C341.13,391.38,344.49,387.26,349.19,386.13z"/>
	<path fill="#07660A" d="M1040.59,485.76c6.51-0.53,13.66-1.29,19.5901,2.09c5.5499,3.13,6.2,11.69,1.74,16.03
		c-5.66,5.45-14.13,4.39-21.3301,4.47C1040.5699,500.81,1040.58,493.29,1040.59,485.76z"/>
	<path fill="#07660A" d="M1103.4301,503.63c5.62-1.38,12.0199,1.08,14.73,6.32c4.3199,7.95,3.5599,19.47-3.8301,25.38
		c-6.34,4.95-16.59,2.22-19.75-5.15C1090.03,521.19,1092.34,506.36,1103.4301,503.63z"/>
	<path fill="#07660A" d="M1239.29,507.29c4.0699-5.01,12.1799-5.78,17.3199-2.03c3.13,2.3,4.14,6.31,4.4401,9.99
		c-8.4601,0.01-16.91,0.02-25.3601,0C1236.4399,512.43,1237.29,509.5,1239.29,507.29z"/>
	<path fill="#07660A" d="M286.87,553.49c6.5-0.65,13.64-1.33,19.57,1.98c5.99,3.32,6.32,12.78,0.96,16.85
		c-5.78,4.59-13.61,3.62-20.5,3.65C286.88,568.48,286.92,560.98,286.87,553.49z"/>
	<path fill="#07660A" d="M348.47,571.66c5.39-1.75,11.99-0.21,15.21,4.6801c4.81,7.23,4.7,17.73-0.79,24.56
		c-4.36,5.46-13.22,6.16-18.43,1.54c-5.39-4.76-6.66-12.78-5.1-19.53C340.37,578.01,343.51,573.21,348.47,571.66z"/>
	<path fill="#07660A" d="M489.7,571.79c4.8-2.1,11.28-1.56,14.81,2.64c2.03,2.33,2.53,5.48,2.88,8.45c-8.43,0.03-16.87,0.02-25.3,0
		C482.93,578.36,485.34,573.77,489.7,571.79z"/>
	<path fill="#07660A" d="M1040.58,669.12c6.61-0.61,13.9701-1.35,19.91,2.27c5.65,3.5,5.79,12.64,0.5601,16.59
		c-5.76,4.63-13.5901,3.59-20.4701,3.67C1040.59,684.14,1040.58,676.63,1040.58,669.12z"/>
	<path fill="#07660A" d="M1239.45,690.43c4.0801-4.8,11.9301-5.49,17.02-1.95c3.2101,2.28,4.29,6.35,4.5701,10.09
		c-8.4501,0.03-16.89,0.02-25.3201,0.01C1236.4399,695.66,1237.35,692.67,1239.45,690.43z"/>
	<path fill="#07660A" d="M1101.35,687.61c5.7001-2.33,13.04-0.56,16.3201,4.87c4.89,7.96,4.2799,19.96-3.25,26.11
		c-6.14,4.9-16.12,2.52-19.54-4.5C1090.3199,705.54,1091.74,692.01,1101.35,687.61z"/>
	<path fill="#07660A" d="M0,709.51c0.42,12.17,0.11,24.36,0.21,36.54c0.02,61.65,0.05,123.3,0.08,184.96
		c-0.04,9.24,2.1,19.13,8.75,25.95c5.77,6.04,14.18,8.48,22.3,9.07l1.21,0.97H0V709.51z"/>
	<path fill="#07660A" d="M286.89,736.78c6.66-0.5601,14.07-1.38,20.02,2.33c5.74,3.64,5.65,13.06,0.09,16.84
		c-5.78,4.29-13.37,3.28-20.12,3.38C286.91,751.81,286.9,744.3,286.89,736.78z"/>
	<path fill="#07660A" d="M349.4,754.73c5.54-1.51,11.97,0.71,14.86,5.81c4.65,8.04,3.9,20-3.8,25.93
		c-6.4,4.83-16.52,1.9301-19.61-5.42C336.46,772.16,338.64,757.73,349.4,754.73z"/>
	<path fill="#07660A" d="M485.46,758.48c3.99-5.12,12.11-5.99,17.34-2.34c3.24,2.29,4.26,6.38,4.62,10.12
		c-8.43,0.01-16.86-0.02-25.29,0.01C482.69,763.48,483.58,760.67,485.46,758.48z"/>
	<path fill="#07660A" d="M1448.21,967c15.28-4.93,26.8-18.39,30.79-33.76V967H1448.21z"/>
</g>
<g id="_x23_020702ff">
	<path fill="#020702" stroke="#020702" stroke-width="0.0938" d="M46.55,0h775.48c1.64,0.3,3.29,0.66,4.97,0.77
		c150.68,0.29,301.36,0.19,452.04,0.3c7.34-0.03,14.6899,0.12,22.0399-0.08c44.64,0.09,89.28,0.19,133.9301,0.14
		c5.13,0,10.41-0.23,15.36,1.4c9.04,2.9,16.73,9.32,21.92,17.2c3.39,4.86,4.89,10.66,6.71,16.21v897.3
		c-3.99,15.37-15.51,28.83-30.79,33.76h-441.59c-11.18-1.06-22.44-0.25-33.66-0.52c-115.3-0.13-230.61-0.22-345.92-0.41
		c-190.68-0.14-381.36-0.03-572.05-0.2c-7.88,0.03-15.77-0.12-23.65,0.16c-8.12-0.59-16.53-3.03-22.3-9.07
		c-6.65-6.82-8.79-16.71-8.75-25.95C0.26,869.35,0.23,807.7,0.21,746.05c-0.1-12.18,0.21-24.37-0.21-36.54V44.45
		c0.84-11.52,3.61-23.88,12.37-32.08C21.42,3.56,34.44,1.12,46.55,0 M16.14,12.2c-8.88,7-12.67,18.53-13.35,29.46
		C1.67,45.01,2.02,48.57,2,52.03c0.03,188.32-0.04,376.64,0.03,564.95c0.1,104.35,0.23,208.71,0.32,313.06
		c0,1.73,0.25,3.47,0.61,5.18c0.08,5.4,1.58,10.8,4.3,15.48c4.19,7.22,12.26,11.74,20.47,12.39c4.69,1.05,9.53,0.67,14.3,0.7599
		c213.34,0.26,426.68,0.13,640.02,0.12c145.97-0.02,291.93,0.15,437.9,0.22c10.53-0.2,21.1001,0.44,31.6101-0.3
		c12.46,0.67,24.99,0.1,37.47,0.3c85.33,0.06,170.6699,0.11,256,0.13c7.09-0.01,13.1899-4.42,18.21-9.02
		c5.35-5.19,10.22-11.48,11.91-18.87c1.27-3.68,0.77-7.62,0.85-11.42c0-293.32,0-586.64-0.02-879.95c-0.12-4.18,0.5-8.5-0.85-12.55
		c-0.8101-5.41-3.79-10.27-7.0601-14.55c-5.6799-7-13.59-12.89-22.72-14.06c-4.6899-1.12-9.5399-0.5-14.2899-0.66
		C1277.03,2.81,1123,3.1,968.98,3c-8.45,0.23-16.98-0.45-25.35,0.32c-3.55-0.37-7.11-0.21-10.66-0.23
		C845.66,2.96,758.35,2.95,671.03,2.86c-15.84,0.2-31.71-0.41-47.53,0.27c-4.13-0.58-8.3-0.23-12.45-0.29
		C424.36,2.65,237.66,2.33,50.97,2.38C38.88,2.7,25.93,4.5,16.14,12.2z"/>
</g>
<g id="_x23_0a510cff">
	<path fill="#0A510C" stroke="#0A510C" stroke-width="0.0938" d="M822.03,0h478.96l0.09,0.99c-7.35,0.2-14.7,0.05-22.0399,0.08
		C1128.36,0.96,977.68,1.06,827,0.77C825.32,0.66,823.67,0.3,822.03,0z"/>
</g>
<g id="_x23_1f6315ff">
	<path fill="#1F6315" stroke="#1F6315" stroke-width="0.0938" d="M623.5,3.13c15.82-0.68,31.69-0.07,47.53-0.27
		C758.35,2.95,845.66,2.96,932.97,3.09c3.55,0.02,7.11-0.14,10.66,0.23l-1.22,0.46c-6.46,0.64-12.94,0.15-19.41,0.31
		c-97.66-0.08-195.33-0.06-293-0.22C627.81,3.79,625.65,3.45,623.5,3.13z"/>
</g>
<g id="_x23_1f490fff">
	<path fill="#1F490F" stroke="#1F490F" stroke-width="0.0938" d="M943.63,3.32C952,2.55,960.53,3.23,968.98,3
		c154.02,0.1,308.05-0.19,462.0801,0.24c4.75,0.16,9.6-0.46,14.2899,0.66c-13.11,0.65-26.23,0.16-39.35,0.27
		c-154.53,0.18-309.0601-0.73-463.59-0.39L943.63,3.32z"/>
</g>
<g id="_x23_ffffffff">
	<path fill="#FFFFFF" stroke="#FFFFFF" stroke-width="0.0938" d="M33.38,13.51c1.2-0.17,2.4-0.25,3.61-0.23
		c464.69,0.08,929.38,0.16,1394.08,0.2c9.7001,0.12,19.9601,2.46,27.4301,8.99c4.21,3.55,6.67,8.98,6.64,14.49
		c0.0499,296.33-0.02,592.66,0.04,888.99c0.37,5.55-1.04,11.23-4.66,15.53c-5.48,6.82-13.3301,12.98-22.46,13.04
		c-222.6801-0.02-445.36-0.04-668.05-0.05c-243.65-0.1-487.31-0.1899-730.97-0.23c-14.51,0.42-27.05-12.9-26.89-27.2
		C12.13,631.36,12.12,335.68,12.13,40c-0.1-6.78,3.88-12.76,8.14-17.7C23.83,18.42,28.02,14.48,33.38,13.51 M33.67,40.13
		c-0.47,2.95-0.14,5.96-0.22,8.93c0.01,292.29,0.01,584.58,0.01,876.88c-0.24,3.51,2.64,7.41,6.44,6.94
		c124.69-0.02,249.39,0.06,374.09,0.03c118,0.2,236,0.23,354.01,0.23c222.69,0.04,445.38,0.06,668.0699,0.1
		c3.28-0.16,6.9901-2.99,7.66-6.23c0.0601-296.33-0.03-592.66,0.0601-888.98c-6.86-4.16-15.14-3.13-22.78-3.24
		c-461-0.04-922,0.03-1383-0.13C36.46,36.39,34.79,38.07,33.67,40.13z"/>
	<path fill="#FFFFFF" stroke="#FFFFFF" stroke-width="0.0938" d="M433.42,73.5c19.37-2.81,39.01-3.99,58.58-3.39
		c17.72,0.73,36.75,3.24,50.99,14.75c15.54,12.34,18.86,36.77,8.02,53.19c-6.53,10.07-17.17,16.71-28.32,20.62
		c7.89,2.82,14.69,8.37,19.08,15.5c5.81,8.89,7.83,19.45,10.81,29.47c3.33,11.75,6.85,23.47,11.79,34.64
		c-10.95,0.33-21.92,0.02-32.88,0.16c-5.42-10.58-8.1-22.29-11.26-33.68c-2.79-11.27-5.59-24.16-15.79-31.16
		c-11.6-7.5-26.08-4.67-39.11-5.27c-0.06,23.33,0.11,46.66-0.08,69.98c-10.52,0.27-21.04,0-31.55,0.14
		c-0.45-3.14-0.28-6.32-0.28-9.48C433.42,177.14,433.41,125.32,433.42,73.5 M465.34,92.4c-0.02,18.47,0,36.94-0.01,55.41
		c11.18-0.31,22.52,0.97,33.56-1.35c7.89-1.7,15.77-5.27,20.9-11.71c6.43-7.99,6.98-19.86,2.25-28.8
		c-4.25-7.68-12.79-11.71-21.08-13.4C489.24,90.32,477.11,90.85,465.34,92.4z"/>
	<path fill="#FFFFFF" stroke="#FFFFFF" stroke-width="0.0938" d="M616.55,115.85c18.4-2.36,38.22,0.11,53.86,10.69
		c13.04,8.6,21.8,22.95,24.26,38.31c2.66,16.55,0.31,34.54-9.3,48.6c-8.9,13.23-23.56,21.69-38.89,25.21
		c-15.69,3.56-32.48,2.95-47.65-2.55c-12.68-4.63-24-13.38-30.79-25.13c-8.35-14.29-9.9-31.8-6.55-47.81
		c2.83-13.46,10.53-25.87,21.58-34.11C592.76,121.71,604.56,117.49,616.55,115.85 M618.54,136.71c-9.81,2.4-17.56,10.18-21.36,19.35
		c-4.82,11.44-5.61,24.5-2.48,36.49c2.25,8.45,6.89,16.5,14.02,21.74c8.8101,6.55,21.05,7.83,31.1801,3.79
		c7.64-3.03,13.71-9.27,17.38-16.53c5.61-11.04,6.64-24.07,4.1-36.09c-1.99-9.14-6.44-18.15-14.05-23.86
		C639.23,135.45,628.21,134.25,618.54,136.71z"/>
	<path fill="#FFFFFF" stroke="#FFFFFF" stroke-width="0.0938" d="M763.95,116.08c11.89-2.09,24.78-1.38,35.53,4.56
		c6.56,3.52,11.85,9.15,15.23,15.76c7.67-10.28,19.07-17.74,31.72-20.13c14.78-2.9,31.55-1.13,43.42,8.89
		c11.03,9.13,15.45,23.92,15.7,37.8c0.05,20.67,0.01,41.34,0.02,62.01c-0.11,4.49,0.29,9.01-0.28,13.48
		c-10.4-0.13-20.8,0.11-31.2-0.13c-0.41-22.42-0.08-44.86-0.17-67.29c0.13-10.26-1.42-22.11-9.91-28.99
		c-10.08-7.56-25.36-5.86-34.44,2.54c-5.41,4.87-8.43,12.12-8.38,19.36c-0.05,24.78,0.04,49.56-0.04,74.35
		c-10.4901,0.27-20.98,0.1-31.47,0.08c-0.46-25.07,0.02-50.16-0.24-75.24c-0.36-8.47-3.4-17.72-10.95-22.42
		c-12.3-7.29-29.68-2.58-37.34,9.3c-3.11,4.7-4.46,10.38-4.42,15.97c0.02,24.07,0,48.14,0.02,72.21c-10.52,0.4-21.08,0.34-31.6,0.03
		c-0.11-30.76,0.0099-61.52-0.06-92.29c-0.1-9.42-0.79-18.83-0.89-28.25c9.26-0.21,18.52-0.04,27.78-0.1
		c0.48,5.67,1.01,11.32,1.51,16.98C740.81,124.8,751.96,118.19,763.95,116.08z"/>
	<path fill="#FFFFFF" stroke="#FFFFFF" stroke-width="0.0938" d="M928.26,137.31c10.42-12.79,26.41-20.21,42.67-21.79
		c14.73-1.43,30.46,0.25,43.16,8.41c10.96,6.89,18.43,18.46,21.55,30.9c2.41,9.53,2.9399,19.59,1.4,29.31
		c-1.14,0.75-2.75,0.2-4.03,0.39c-29.32-0.06-58.65-0.02-87.97-0.02c0.43,8.93,3.43,18.11,10.09,24.36
		c8.93,8.56,21.85,11.2,33.85,11.05c12.29,0.13,24.53-1.87,36.21-5.67c2.0801,6.32,3.67,12.79,5.55,19.18
		c-16.5,6.09-34.32,7.76-51.79,7.33c-16.12-0.58-32.73-4.94-45.3-15.44c-10.38-8.54-16.95-21.18-18.9-34.4
		C911.87,172.26,916.02,152.01,928.26,137.31 M958.75,140.7c-7.62,5.74-11.87,14.94-13.37,24.18c20.67,0.04,41.34,0.01,62.01,0.02
		c-0.24-6.83-1.77-13.84-5.83-19.46c-3.8-5.44-9.93-8.99-16.4-10.15C976.13,133.61,966.16,134.99,958.75,140.7z"/>
	<path fill="#FFFFFF" stroke="#FFFFFF" stroke-width="0.0938" d="M686.56,324.43c14.16-22.79,28.48-45.49,42.66-68.27
		c14.2401,22.69,28.51,45.38,42.7,68.1c2.83,4.43-0.06,11.85-5.85,11.37c-7.25-1.46-14.32-3.76-21.45-5.73
		c-0.01,57.02-0.02,114.04-0.06,171.07c0.19,10.35-0.47,20.72,0.32,31.06c-0.11,99.98,0.13,199.97,0.04,299.96
		c-0.96,6.62-0.57,13.32-0.63,20c0,20.99-0.0099,41.98-0.0099,62.97c-9.7401,0.02-19.4901,0-29.23,0.0099
		c0.01-12.98-0.02-25.95,0.01-38.93c-0.78-25.66-0.21-51.35-0.38-77.02c0-61.68,0-123.37-0.01-185.05
		c1.23-9.59,0.48-19.28,0.69-28.93c-0.05-14.06,0.08-28.13-0.07-42.19c-1.54-1.94-0.75-4.5699-0.93-6.83
		c-0.18-4.92,0.89-10.18-1.54-14.72c-6.64-14.85-20.41-27.54-36.94-29.66c-30.38,0-60.76,0.04-91.15,0
		c2.27,6.48,4.8,12.88,6.77,19.46c0.06,4.38-4.79,5.76-8.26,6.31c-1.89-0.56-3.78-1.06-5.53-1.96
		c-23.87-11.94-47.86-23.66-71.75-35.56c-2.35-0.38,0.15-1.75,0.85-2.06c24.12-11.91,48.22-23.88,72.32-35.82
		c4.26-2.09,11.72-0.65,12.17,4.9c-1.42,6.68-4.47,12.91-6.41,19.46c29.69,0,59.39,0.03,89.08,0.03
		c14.53-0.47,28.42,5.58,40.39,13.36c0.03-14.61,0.01-29.23,0.01-43.84c0.04-2.31,0.77-4.55,0.72-6.87
		c-0.04-33.11-0.02-66.23-0.01-99.34c-7.42,1.78-14.66,4.25-22.1,5.87C686.99,336.9,683.32,328.94,686.56,324.43z"/>
	<path fill="#FFFFFF" stroke="#FFFFFF" stroke-width="0.0938" d="M273.8,360.49c8.33-1.28,16.81-1.69,25.23-1.35
		c6.84,0.36,14.13,1.53,19.57,6.02c6.68,5.37,7.65,16.21,2.27,22.82c-2.54,3.39-6.41,5.3-10.09,7.18c6.05,2.54,9.3,8.73,10.68,14.84
		c1.64,5.93,3.31,11.88,5.75,17.55c-4.52,0.04-9.04,0.03-13.55,0.02c-2.52-5.61-3.88-11.61-5.47-17.52c-1.06-4-3.14-8.27-7.24-9.85
		c-4.47-1.74-9.39-0.93-14.06-1.08c-0.01,9.48,0.05,18.96-0.04,28.44c-4.35,0-8.71,0.09-13.06-0.08
		C273.85,405.15,273.85,382.82,273.8,360.49 M286.89,368.14c0.04,7.52-0.06,15.04,0.05,22.56c6.79-0.17,14.44,0.91,20.2-3.53
		c5.52-3.89,5.42-13.38-0.46-16.88C300.74,366.81,293.47,367.48,286.89,368.14z"/>
	<path fill="#FFFFFF" stroke="#FFFFFF" stroke-width="0.0938" d="M347.54,377.7c8.37-1.26,17.62-0.04,24.37,5.41
		c12.42,9.93,11.53,32.21-2.1,40.69c-11.16,6.94-27.25,6.62-37.19-2.39c-7.99-7.43-9.25-20.14-4.91-29.79
		C331.22,383.82,339.26,378.9,347.54,377.7 M349.19,386.13c-4.7,1.13-8.06,5.25-9.38,9.75c-2.1,6.85-1.27,15.15,3.85,20.49
		c4.84,5.09,13.86,5.07,18.61-0.13c5.95-6.46,6.28-16.94,1.98-24.37C361.35,386.7,354.76,384.49,349.19,386.13z"/>
	<path fill="#FFFFFF" stroke="#FFFFFF" stroke-width="0.0938" d="M395.85,385.03c7.83-10.06,26.46-11.09,33.11,0.74
		c6.5-8.62,19.67-11.17,28.9-5.61c5.63,3.51,8.03,10.39,8.02,16.77c0.04,10.2,0.05,20.41-0.02,30.62
		c-4.25,0.04-8.51,0.02-12.76,0.02c-0.21-9.85,0.08-19.71-0.15-29.57c-0.11-4.27-1.69-9.34-6.08-10.95
		c-6.39-2.68-14.79,1.84-15.21,8.98c-0.24,10.5,0.04,21.02-0.13,31.53c-4.28,0.02-8.56,0.02-12.83-0.01
		c-0.07-9.87-0.01-19.74-0.03-29.62c0.05-3.96-1.2-8.57-4.99-10.5c-6.58-3.45-15.79,1.32-16.33,8.85
		c-0.22,10.4-0.04,20.81-0.08,31.22c-4.3,0.13-8.6,0.08-12.9,0.04c-0.22-16.39,0.38-32.79-0.44-49.17
		c3.79-0.03,7.58-0.04,11.38-0.01C395.49,380.58,395.67,382.8,395.85,385.03z"/>
	<path fill="#FFFFFF" stroke="#FFFFFF" stroke-width="0.0938" d="M477.67,383.68c6.05-5.38,14.58-7.15,22.46-6.21
		c6.11,0.63,12.16,3.67,15.56,8.91c3.82,5.6,4.52,12.67,3.8,19.25c-12.52,0.05-25.05,0-37.57,0.03c0.27,5.4,3.34,10.73,8.55,12.69
		c7.77,2.97,16.43,1.55,24.23-0.62c0.69,2.62,1.42,5.22,2.17,7.83c-8.26,2.82-17.23,3.66-25.87,2.5
		c-7.86-1.09-15.68-5.44-19.17-12.81C466.95,404.97,469.02,391.35,477.67,383.68 M485.62,389.6c-1.96,2.23-2.88,5.11-3.55,7.96
		c8.46,0.03,16.92,0.06,25.38-0.02c-0.43-3.57-1.29-7.47-4.31-9.79C498.02,383.81,489.77,384.57,485.62,389.6z"/>
	<path fill="#FFFFFF" stroke="#FFFFFF" stroke-width="0.0938" d="M1027.5,478.1c10.72-1.37,21.6801-2.21,32.41-0.52
		c5.1,0.92,10.2799,2.82,13.89,6.69c5.2799,5.69,5.6399,15.28,0.7699,21.33c-2.6399,3.44-6.5299,5.61-10.49,7.17
		c4.9401,1.86,8.39,6.31,9.9401,11.25c2.22,7.09,3.8099,14.4,6.9,21.2c-4.5,0.07-8.99-0.0099-13.4701,0.08
		c-3.99-7.44-4.01-16.35-8.22-23.63c-4.0599-6.19-12.3199-4.82-18.65-4.92c-0.0499,9.5,0.11,19.01-0.09,28.52
		c-4.3099-0.03-8.62-0.02-12.92-0.01C1027.4,522.88,1027.54,500.49,1027.5,478.1 M1040.59,485.76c-0.01,7.53-0.02,15.05,0,22.59
		c7.2001-0.08,15.67,0.98,21.3301-4.47c4.46-4.34,3.8099-12.9-1.74-16.03C1054.25,484.47,1047.1,485.23,1040.59,485.76z"/>
	<path fill="#FFFFFF" stroke="#FFFFFF" stroke-width="0.0938" d="M1099.4301,495.7c8.7999-1.8,18.72-0.74,25.97,4.94
		c12.53,9.82,11.7999,32.12-1.77,40.72c-11.23,7.1-27.55,6.75-37.53-2.45c-7.62-7.2599-8.9399-19.39-5.0699-28.86
		C1084.14,502.46,1091.52,497.28,1099.4301,495.7 M1103.4301,503.63c-11.0901,2.73-13.4,17.56-8.8501,26.55
		c3.16,7.37,13.41,10.1,19.75,5.15c7.39-5.91,8.15-17.43,3.8301-25.38C1115.45,504.71,1109.05,502.25,1103.4301,503.63z"/>
	<path fill="#FFFFFF" stroke="#FFFFFF" stroke-width="0.0938" d="M1149.53,502.73c7.7899-10.13,26.4099-11.1,33.11,0.68
		c6.59-8.72,20.09-11.25,29.29-5.32c5.49,3.66,7.6599,10.55,7.6399,16.89c-0.0399,10.1,0.12,20.2-0.1,30.31
		c-4.26-0.06-8.52-0.02-12.78-0.05c-0.0699-9.75,0.04-19.5-0.0399-29.24c-0.13-3.99-1.25-8.59-4.9501-10.73
		c-6.2999-3.61-15.58,0.58-16.3199,7.98c-0.3101,10.66-0.02,21.32-0.14,31.98c-4.27,0.04-8.53-0.01-12.79,0.07
		c-0.2699-10.1,0-20.19-0.12-30.29c-0.0399-3.89-1.5-8.37-5.2999-10.08c-6.6-3.14-15.51,1.65-16.01,9.07
		c-0.3201,10.39,0,20.81-0.15,31.22c-4.28,0.05-8.5599,0.05-12.84,0c-0.17-16.41,0.33-32.83-0.41-49.23
		c3.78,0.02,7.58,0.02,11.38,0.05C1149.17,498.26,1149.36,500.49,1149.53,502.73z"/>
	<path fill="#FFFFFF" stroke="#FFFFFF" stroke-width="0.0938" d="M1228.9399,503.81c8.1201-9.55,23.27-11.51,34.1001-5.7
		c8.7,4.91,11.3999,15.9,10.14,25.21c-12.5601,0.05-25.1101-0.03-37.65,0.04c0.38,5.33,3.3199,10.63,8.49,12.6
		c7.76,2.99,16.48,1.72,24.25-0.62c0.77,2.6299,1.53,5.27,2.27,7.91c-8.23,2.75-17.12,3.65-25.7101,2.49
		c-7.74-1.02-15.47-5.19-19.09-12.34C1221.04,524.06,1222.23,511.88,1228.9399,503.81 M1239.29,507.29
		c-2,2.21-2.8501,5.14-3.6001,7.96c8.4501,0.02,16.9,0.01,25.3601,0c-0.3-3.68-1.3101-7.69-4.4401-9.99
		C1251.47,501.51,1243.36,502.28,1239.29,507.29z"/>
	<path fill="#FFFFFF" stroke="#FFFFFF" stroke-width="0.0938" d="M926.17,542.96c0.22-5.76,7.74-7.07,12.06-5.11
		c24.92,12.32,49.83,24.65,74.72,37.03c-24.82,12.38-49.71,24.61-74.57,36.92c-3.11,1.59-6.95,1.29-9.93-0.41
		c-1.99-1.27-3-3.88-2.01-6.09c2.04-6.02,4.26-11.98,6.33-17.99c-29.93-0.03-59.86-0.14-89.79,0.01
		c-11.9,0.63-22.49,7.77-30.11,16.56c-6.56,7.8-11.76,17.65-11.03,28.12c0.06,94.32,0,188.64,0.03,282.95
		c-9.72,0.05-19.45,0.01-29.17,0.01c0.01-76.3-0.01-152.61-0.02-228.91c0.16-19.57-0.77-39.13-0.14-58.7
		c0.41-10.47,3.34-20.87,8.9901-29.74c9.12-14.56,23.66-25.17,39.56-31.29c7.61-2.95,15.77-4.32,23.92-4.24
		c29.22,0.08,58.45-0.15,87.66,0.07C930.52,555.75,927.87,549.48,926.17,542.96z"/>
	<path fill="#FFFFFF" stroke="#FFFFFF" stroke-width="0.0938" d="M273.82,545.77c8.99-1.22,18.1-1.8,27.16-1.18
		c6.41,0.52,13.2,1.92,18.13,6.34c6.15,5.42,6.98,15.67,1.97,22.11c-2.67,3.52-6.57,5.88-10.7,7.31c4.7,1.89,8.19,5.9901,9.76,10.76
		c2.39,7.23,3.9,14.77,7.11,21.73c-4.49,0.11-8.99,0-13.48,0.1c-3.54-6.88-4.13-14.8-7.18-21.85c-1.91-4.53-6.88-6.81-11.59-6.65
		c-2.62,0.14-5.67-0.52-8.03,0.34c-0.21,9.35,0.02,18.72-0.1,28.08c-4.34,0.05-8.67,0.05-13.01,0.01
		C273.78,590.5,273.86,568.13,273.82,545.77 M286.87,553.49c0.05,7.49,0.01,14.99,0.03,22.48c6.89-0.03,14.72,0.94,20.5-3.65
		c5.36-4.07,5.03-13.53-0.96-16.85C300.51,552.16,293.37,552.84,286.87,553.49z"/>
	<path fill="#FFFFFF" stroke="#FFFFFF" stroke-width="0.0938" d="M344.51,563.66c9.54-2.31,20.65-1.19,28.25,5.51
		c8.46,7.47,9.88,20.72,5.3,30.66c-3.6,7.72-11.7,12.44-19.91,13.64c-8.32,1.25-17.45-0.15-24.15-5.52
		c-11.96-9.48-11.6-30.27,0.5-39.49C337.44,566.16,340.91,564.59,344.51,563.66 M348.47,571.66c-4.96,1.55-8.1,6.35-9.11,11.25
		c-1.56,6.75-0.29,14.77,5.1,19.53c5.21,4.62,14.07,3.92,18.43-1.54c5.49-6.83,5.6-17.33,0.79-24.56
		C360.46,571.45,353.86,569.91,348.47,571.66z"/>
	<path fill="#FFFFFF" stroke="#FFFFFF" stroke-width="0.0938" d="M395.87,570.3c7.89-9.98,26.37-11.01,33.09,0.75
		c6.65-8.68,20.09-11.22,29.31-5.29c5.28,3.53,7.53,10.08,7.6,16.2c0.08,10.3,0.02,20.6,0.01,30.9c-4.27,0.05-8.55,0.05-12.82-0.01
		c-0.1-9.62,0.06-19.24-0.07-28.85c-0.09-4.09-1.15-8.85-4.96-11.06c-6.33-3.67-15.67,0.65-16.34,8.09
		c-0.31,10.6,0.01,21.22-0.14,31.84c-4.28,0.04-8.56,0.02-12.83,0.02c-0.15-10.29,0.05-20.59-0.09-30.87
		c-0.13-3.83-1.84-8.07-5.61-9.58c-6.72-2.93-15.51,2.2-15.71,9.67c-0.16,10.25,0.04,20.51-0.09,30.76
		c-4.28,0.03-8.56,0.04-12.84-0.01c-0.2-16.39,0.3-32.79-0.39-49.17c3.77-0.04,7.54-0.03,11.31-0.02
		C395.48,565.87,395.68,568.08,395.87,570.3z"/>
	<path fill="#FFFFFF" stroke="#FFFFFF" stroke-width="0.0938" d="M477.87,568.85c6.74-5.86,16.4-7.36,24.97-5.59
		c5.52,1.13,10.61,4.49,13.46,9.41c3.31,5.43,3.82,12.02,3.23,18.23c-12.53,0.16-25.06,0-37.59,0.0699
		c0.24,5.25,3.1,10.48,8.11,12.53c7.83,3.21,16.68,1.82,24.57-0.47c0.79,2.64,1.53,5.29,2.22,7.96c-8.68,2.75-18.04,3.7-27.05,2.2
		c-7.59-1.33-14.97-5.85-18.19-13.07C466.99,589.82,469.17,576.37,477.87,568.85 M489.7,571.79c-4.36,1.98-6.77,6.57-7.61,11.09
		c8.43,0.02,16.87,0.03,25.3,0c-0.35-2.97-0.85-6.12-2.88-8.45C500.98,570.23,494.5,569.69,489.7,571.79z"/>
	<path fill="#FFFFFF" stroke="#FFFFFF" stroke-width="0.0938" d="M452.04,630.03c2.12-1.32,4.21-3.28,6.93-2.9
		c3.63-0.04,6.89,3.76,5.71,7.34c-1.7,5.94-3.31,11.92-4.96,17.88c51.43,0.05,102.86,0.01,154.29,0.04
		c15.99-0.52,31.24,6.47,43.92,15.7c15.85,11.46,27.36,30,27.27,49.93c-0.02,65.64-0.02,131.29,0,196.93
		c-9.72,0.04-19.43,0.01-29.15,0.02c-0.06-26.02,0.13-52.04-0.09-78.05c-5.03-8.16-13.12-15.29-22.88-16.69
		c-19.25-0.48-38.52-0.16-57.77-0.26c1.11,5.67,2.75,11.23,3.86,16.91c1.15,3.77-3.65,7.83-6.97,5.34
		c-14.91-11.0099-29.79-22.0699-44.58-33.25c14.69-11.12,29.49-22.1,44.28-33.0699c3.37-2.65,8.13,1.2,7.25,5.08
		c-1.05,5.52-2.56,10.95-3.79,16.44c19.53,0.43,39.09,0.2,58.63,0.26c7.94,0.08,15.41,3.44,22.07,7.53c0-26.07-0.01-52.13,0-78.2
		c-0.01-4.71,0.23-9.51-1.01-14.1c-2.92-11.14-10.37-20.69-19.5-27.5c-7.05-5.1-15.7-8.55-24.52-7.78
		c-6.67-0.37-13.35-0.35-20.03-0.31c-43.77,0.58-87.57,0.14-131.35,0.32c1.72,6.46,3.82,12.85,5.23,19.39
		c0.52,4.97-6.04,7.58-9.75,4.95c-19.46-12.33-39-24.53-58.39-36.97C415.13,653.27,433.61,641.69,452.04,630.03z"/>
	<path fill="#FFFFFF" stroke="#FFFFFF" stroke-width="0.0938" d="M1027.49,661.45c10.1-1.37,20.4-2.03,30.55-0.83
		c5.6499,0.78,11.51,2.58,15.5699,6.79c5.37,5.58,5.89,15.14,1.15,21.27c-2.67,3.57-6.65,5.94-10.8101,7.37
		c4.8501,1.76,8.3201,6.04,9.91,10.86c2.33,7.2,3.88,14.69,7.0701,21.61c-4.53,0.11-9.05,0.05-13.5701,0.06
		c-2.74-5.9-4.02-12.31-5.7999-18.53c-1.1101-3.84-3.4701-7.74-7.4601-9.05c-4.35-1.45-9.02-0.76-13.52-0.9
		c-0.0299,9.4901,0.0701,18.98-0.0499,28.47c-4.3301,0.02-8.67,0.03-12.99-0.02C1027.4399,706.19,1027.53,683.82,1027.49,661.45
		 M1040.58,669.12c0,7.51,0.01,15.02,0,22.53c6.88-0.08,14.7101,0.96,20.4701-3.67c5.23-3.95,5.09-13.09-0.5601-16.59
		C1054.55,667.77,1047.1899,668.51,1040.58,669.12z"/>
	<path fill="#FFFFFF" stroke="#FFFFFF" stroke-width="0.0938" d="M1101.47,678.66c8.12-1.16,17.03-0.0099,23.67,5.1201
		c12.58,9.54,12.1899,31.54-0.88,40.49c-7.8201,5.41-18.12,6.51-27.1801,4.09c-7.39-1.95-13.97-7.35-16.5299-14.64
		c-3.01-8.6299-1.9301-19.02,4.0399-26.15C1088.77,682.53,1095.0699,679.61,1101.47,678.66 M1101.35,687.61
		c-9.61,4.4-11.03,17.93-6.47,26.48c3.42,7.02,13.4,9.4,19.54,4.5c7.5299-6.15,8.14-18.15,3.25-26.11
		C1114.39,687.05,1107.05,685.28,1101.35,687.61z"/>
	<path fill="#FFFFFF" stroke="#FFFFFF" stroke-width="0.0938" d="M1149.53,686.04c7.8099-10.08,26.4199-11.09,33.1,0.71
		c7.04-9.38,22.41-11.68,31.3-3.72c5.6699,5.34,5.8999,13.67,5.6499,20.92c-0.0299,8.19,0.03,16.4-0.0299,24.6
		c-4.3,0.04-8.6001,0.08-12.89-0.04c0.01-9.51,0.02-19.02,0.01-28.53c-0.03-4.29-1.15-9.33-5.2301-11.51
		c-6.4399-3.5-15.75,1.07-16.11,8.6c-0.1699,10.47-0.0599,20.94-0.0499,31.41c-4.3,0.18-8.61,0.1-12.91,0.07
		c-0.09-10.16,0.04-20.31-0.05-30.45c-0.0199-4.14-1.9399-8.83-6.1599-10.19c-6.74-2.5-15.11,2.71-15.2001,10.06
		c-0.1899,10.19,0.03,20.39-0.1,30.59c-4.25,0.04-8.48-0.02-12.71,0.07c-0.4601-16.42,0.3099-32.86-0.54-49.27
		c3.79-0.04,7.59-0.04,11.39,0.01C1149.17,681.58,1149.36,683.81,1149.53,686.04z"/>
	<path fill="#FFFFFF" stroke="#FFFFFF" stroke-width="0.0938" d="M1231.52,684.52c5.85-5.13,14.01-6.86,21.62-6.12
		c5.92,0.47,11.86,3.13,15.49,7.96c4.4,5.71,5.36,13.32,4.51,20.3c-12.53,0.02-25.0601-0.02-37.58,0.01
		c0.2999,5.55,3.5599,11,8.99,12.84c7.6399,2.67,16.11,1.48,23.7-0.84c0.8,2.61,1.54,5.23,2.3,7.87
		c-7.8101,2.77-16.28,3.4901-24.49,2.72c-8.05-0.83-16.27-4.86-20.16-12.24C1220.4399,706.6,1222.51,692.35,1231.52,684.52
		 M1239.45,690.43c-2.1,2.24-3.01,5.23-3.73,8.15c8.4301,0.01,16.87,0.02,25.3201-0.01c-0.28-3.74-1.36-7.81-4.5701-10.09
		C1251.38,684.94,1243.53,685.63,1239.45,690.43z"/>
	<path fill="#FFFFFF" stroke="#FFFFFF" stroke-width="0.0938" d="M969.39,731.83c-1.23-3.54,1.79-7.49,5.47-7.45
		c2.66-0.4,4.81,1.42,6.93,2.72c18.4901,11.7,37,23.37,55.48,35.09C1018,774.73,998.41,786.8,979,799.13
		c-2.88,2.05-7.53,1.27-9.28-1.89c-1.05-1.81-0.5699-3.97-0.02-5.83c1.6-5.6,3.14-11.21,4.68-16.81
		c-24.19,0.07-48.41-0.29-72.57,0.22c-11.02-0.64-21.32,5.33-29.12,12.68c-8.38,8.28-15.05,19.43-14.73,31.55
		c0.0099,31.97,0,63.94,0,95.92c-9.72-0.0099-19.45,0.01-29.18-0.0099c0.02-33.32-0.0601-66.63-0.02-99.94
		c0.09-17.47,8.96-34,21.91-45.4c9.31-8.06,20.27-14.31,32.1-17.81c9.14-2.79,18.8-2.24,28.24-2.4c21.09,0.03,42.19-0.08,63.29,0.02
		C972.57,743.58,971.02,737.69,969.39,731.83z"/>
	<path fill="#FFFFFF" stroke="#FFFFFF" stroke-width="0.0938" d="M273.81,729.12c8.65-1.22,17.42-1.78,26.16-1.28
		c6.44,0.45,13.23,1.65,18.41,5.79c6.48,5.04,7.86,15.22,3.26,21.95c-2.53,3.89-6.66,6.36-10.89,8.04
		c4.15,2.25,7.66,5.73,9.19,10.28c2.54,7.4,4.04,15.16,7.3,22.3199c-4.52,0.0601-9.03,0.02-13.54,0.05
		c-3.7-7.34-4.02-15.88-7.82-23.13c-3.89-6.62-12.49-5.37-18.98-5.39c-0.02,9.49,0.03,18.98-0.03,28.47
		c-4.35,0.0601-8.69,0.04-13.03,0.02C273.81,773.86,273.86,751.49,273.81,729.12 M286.89,736.78c0.01,7.52,0.02,15.03-0.01,22.55
		c6.75-0.1,14.34,0.91,20.12-3.38c5.56-3.78,5.65-13.2-0.09-16.84C300.96,735.4,293.55,736.22,286.89,736.78z"/>
	<path fill="#FFFFFF" stroke="#FFFFFF" stroke-width="0.0938" d="M345.5,746.76c8.59-1.81,18.23-0.92,25.51,4.33
		c12.96,9.29,12.86,31.59-0.25,40.71c-7.96,5.62-18.57,6.72-27.82,4.09c-7.26-2.03-13.62-7.46-16.12-14.66
		c-2.73-8.01-1.96-17.46,2.95-24.49C333.43,751.48,339.32,748.12,345.5,746.76 M349.4,754.73c-10.76,3-12.94,17.43-8.55,26.32
		c3.09,7.35,13.21,10.25,19.61,5.42c7.7-5.93,8.45-17.89,3.8-25.93C361.37,755.44,354.94,753.22,349.4,754.73z"/>
	<path fill="#FFFFFF" stroke="#FFFFFF" stroke-width="0.0938" d="M395.93,753.68c7.76-10.1,26.36-11.02,33.02,0.72
		c6.58-8.64,19.91-11.2,29.13-5.4301c5.3,3.41,7.66,9.9,7.78,15.98c0.1,10.42,0.04,20.84,0.02,31.27c-4.28,0.0601-8.55,0.05-12.83,0
		c-0.07-9.42,0.03-18.83-0.04-28.25c-0.05-4.12-0.85-8.93-4.53-11.42c-6.18-4.02-15.84-0.01-16.75,7.49
		c-0.48,10.75,0.15,21.53-0.3,32.28c-4.25-0.12-8.49-0.04-12.74-0.08c-0.06-9.77-0.01-19.53-0.01-29.29
		c0.09-3.99-1.04-8.63-4.77-10.73c-6.66-3.73-16.26,1.26-16.59,9.02c-0.18,10.33,0.01,20.66-0.08,30.99
		c-4.26,0.04-8.52,0-12.78,0.06c-0.45-16.4,0.38-32.83-0.54-49.22c3.79-0.06,7.58-0.05,11.38-0.03
		C395.47,749.25,395.68,751.47,395.93,753.68z"/>
	<path fill="#FFFFFF" stroke="#FFFFFF" stroke-width="0.0938" d="M477.52,752.48c6.02-5.45,14.6-7.29,22.51-6.35
		c5.96,0.59,11.84,3.45,15.33,8.42c4.09,5.67,4.91,13,4.11,19.78c-12.52,0.02-25.04-0.02-37.55,0.02
		c0.29,5.22,3.12,10.4301,8.12,12.47c7.81,3.21,16.68,1.87,24.55-0.47c0.8199,2.62,1.55,5.26,2.2599,7.9301
		c-8.88,2.89-18.54,3.84-27.75,2.1c-7.35-1.43-14.38-5.95-17.5-12.94C467.06,773.27,469.12,760.06,477.52,752.48 M485.46,758.48
		c-1.88,2.19-2.77,5-3.33,7.79c8.43-0.03,16.86,0,25.29-0.01c-0.36-3.74-1.38-7.83-4.62-10.12
		C497.57,752.49,489.45,753.36,485.46,758.48z"/>
</g>
<g id="_x23_225f11ff">
	<path fill="#225F11" stroke="#225F11" stroke-width="0.0938" d="M1475.13,32.51c1.35,4.05,0.73,8.37,0.85,12.55
		c0.02,293.31,0.02,586.63,0.02,879.95c-0.08,3.8,0.42,7.74-0.85,11.42c-0.35-38.46-0.04-76.93-0.14-115.4
		c0.01-209.6801,0-419.35,0.03-629.03C1475.14,138.84,1474.5601,85.67,1475.13,32.51z"/>
</g>
<g id="_x23_1e3711ff">
	<path fill="#1E3711" stroke="#1E3711" stroke-width="0.0938" d="M2,52.03c0.02-3.46-0.33-7.02,0.79-10.37
		C2.95,315.78,3.09,589.91,3.16,864.03c-0.15,23.73,0.28,47.46-0.2,71.1899c-0.36-1.71-0.61-3.45-0.61-5.18
		C2.26,825.69,2.13,721.33,2.03,616.98C1.96,428.67,2.03,240.35,2,52.03z"/>
</g>
<g id="_x23_225111ff">
	<path fill="#225111" stroke="#225111" stroke-width="0.0938" d="M27.73,963.09c29.41-0.46,58.83-0.06,88.25-0.17
		c45.03-0.01,90.06,0.07,135.09,0.04c143.63-0.06,287.25,0.38,430.88,0.11l0.1,0.9c-213.34,0.01-426.68,0.14-640.02-0.12
		C37.26,963.76,32.42,964.14,27.73,963.09z"/>
</g>
<g id="_x23_206411ff">
	<path fill="#206411" stroke="#206411" stroke-width="0.0938" d="M681.95,963.07c149.69-0.29,299.39-0.06,449.09,0.08
		c6.84,0.25,13.76-0.63,20.52,0.74c-10.51,0.74-21.0801,0.1-31.6101,0.3c-145.97-0.07-291.9299-0.24-437.9-0.22L681.95,963.07z"/>
</g>
<g id="_x23_0b3e0cff">
	<path fill="#0B3E0C" stroke="#0B3E0C" stroke-width="0.0938" d="M31.34,966.03c7.88-0.28,15.77-0.13,23.65-0.16
		c190.69,0.17,381.37,0.06,572.05,0.2c115.31,0.19,230.62,0.28,345.92,0.41c11.22,0.27,22.48-0.54,33.66,0.52H32.55L31.34,966.03z"
		/>
</g>
</svg>
