<?xml version="1.0"?>
<svg xmlns:rdf="http://www.w3.org/1999/02/22-rdf-syntax-ns#" xmlns="http://www.w3.org/2000/svg" xmlns:cc="http://creativecommons.org/ns#" xmlns:xlink="http://www.w3.org/1999/xlink" xmlns:dc="http://purl.org/dc/elements/1.1/" xmlns:svg="http://www.w3.org/2000/svg" id="svg3072" viewBox="0 0 165.69 256" version="1.1">
  <defs id="defs3570">
    <filter id="filter3794" height="1.72" width="1.0655" y="-0.36" x="-.032727" color-interpolation-filters="sRGB">
      <feGaussianBlur id="feGaussianBlur3796" stdDeviation="10.99209"/>
    </filter>
    <linearGradient id="linearGradient3360" y2="360.62" gradientUnits="userSpaceOnUse" y1="-9.6422" x2="1510.9" x1="1510.9">
      <stop id="stop3287" stop-color="#fff" offset="0"/>
      <stop id="stop3289" stop-color="#fff" stop-opacity="0" offset="1"/>
    </linearGradient>
    <filter id="filter3766" color-interpolation-filters="sRGB">
      <feGaussianBlur id="feGaussianBlur3768" stdDeviation="7.5100269"/>
    </filter>
    <linearGradient id="linearGradient2972" y2="600.03" gradientUnits="userSpaceOnUse" y1="457.32" x2="513.85" x1="513.85">
      <stop id="stop3616" stop-color="#fff" offset="0"/>
      <stop id="stop3618" stop-color="#bebebe" offset="1"/>
    </linearGradient>
    <filter id="filter3782" color-interpolation-filters="sRGB">
      <feGaussianBlur id="feGaussianBlur3784" stdDeviation="3.2747106"/>
    </filter>
    <filter id="filter3580" height="1.3249" width="1.1903" y="-.16246" x="-.095135" color-interpolation-filters="sRGB">
      <feGaussianBlur id="feGaussianBlur3582" stdDeviation="11.052912"/>
    </filter>
    <filter id="filter3778" color-interpolation-filters="sRGB">
      <feGaussianBlur id="feGaussianBlur3780" stdDeviation="3.2747106"/>
    </filter>
    <filter id="filter3736" height="1.3758" width="1.1763" y="-.18791" x="-.088145" color-interpolation-filters="sRGB">
      <feGaussianBlur id="feGaussianBlur3738" stdDeviation="12.536909"/>
    </filter>
    <radialGradient id="radialGradient2965" xlink:href="#linearGradient3420" gradientUnits="userSpaceOnUse" cy="902.18" cx="712.56" gradientTransform="matrix(1 0 0 .46908 0 457.16)" r="170.68"/>
    <linearGradient id="linearGradient3420">
      <stop id="stop3422" stop-color="#dfbe00" offset="0"/>
      <stop id="stop3436" stop-color="#deaf00" offset=".8"/>
      <stop id="stop3424" stop-color="#dea101" offset="1"/>
    </linearGradient>
    <radialGradient id="radialGradient2961" xlink:href="#linearGradient3420" gradientUnits="userSpaceOnUse" cy="898.07" cx="317.23" gradientTransform="matrix(1 0 0 .46908 0 457.16)" r="170.68"/>
    <filter id="filter3758" color-interpolation-filters="sRGB">
      <feGaussianBlur id="feGaussianBlur3760" stdDeviation="3.35859"/>
    </filter>
    <filter id="filter3762" color-interpolation-filters="sRGB">
      <feGaussianBlur id="feGaussianBlur3764" stdDeviation="3.486036"/>
    </filter>
    <radialGradient id="radialGradient3309" xlink:href="#linearGradient3303" gradientUnits="userSpaceOnUse" cy="269.02" cx="430.04" gradientTransform="matrix(1,0,0,1.2625,0,-70.617)" r="77.137"/>
    <linearGradient id="linearGradient3303">
      <stop id="stop3305" stop-color="#d2d2d2" offset="0"/>
      <stop id="stop3311" stop-color="#d2d2d2" offset=".88"/>
      <stop id="stop3307" stop-color="#808080" offset="1"/>
    </linearGradient>
    <radialGradient id="radialGradient3319" xlink:href="#linearGradient3303" gradientUnits="userSpaceOnUse" cy="306.62" cx="615.17" gradientTransform="matrix(1,0,0,1.025,0,-7.6655)" r="77.137"/>
    <linearGradient id="linearGradient2953" x1="1449.7" xlink:href="#linearGradient3396" gradientUnits="userSpaceOnUse" y1="177.43" gradientTransform="translate(-1012.4,30.855)" x2="1487.2" y2="237.22"/>
    <linearGradient id="linearGradient3396">
      <stop id="stop3398" stop-color="#fff" offset="0"/>
      <stop id="stop3400" stop-color="#fff" stop-opacity="0" offset="1"/>
    </linearGradient>
    <linearGradient id="linearGradient2949" x1="1632.9" xlink:href="#linearGradient3396" gradientUnits="userSpaceOnUse" y1="197.06" gradientTransform="translate(-1006.6,26.998)" x2="1664.2" y2="249.2"/>
    <radialGradient id="radialGradient2946" xlink:href="#linearGradient3396" gradientUnits="userSpaceOnUse" cy="319.54" cx="1619.9" gradientTransform="matrix(-1 -9.1744e-7 3.3119e-7 -.361 2230.4 461.02)" r="89.638"/>
    <radialGradient id="radialGradient2943" xlink:href="#linearGradient3396" gradientUnits="userSpaceOnUse" cy="319.54" cx="1619.9" gradientTransform="matrix(-.75176 -.93075 .35943 -.24791 1476.1 1923.8)" r="89.638"/>
    <radialGradient id="radialGradient2940" xlink:href="#linearGradient3420" gradientUnits="userSpaceOnUse" cy="418.72" cx="510.07" gradientTransform="matrix(1,-9.7786e-8,7.8572e-8,0.80351,8.2454e-5,82.275)" r="90.912"/>
    <linearGradient id="linearGradient2937" x1="1563.5" xlink:href="#linearGradient3396" gradientUnits="userSpaceOnUse" y1="341.23" gradientTransform="translate(-1003.4,24.993)" x2="1532.6" y2="393.51"/>
    <filter id="filter3799" color-interpolation-filters="sRGB">
      <feGaussianBlur id="feGaussianBlur3801" stdDeviation="2.2333129"/>
    </filter>
    <linearGradient id="linearGradient3608" x1="1304.6" xlink:href="#linearGradient3396" gradientUnits="userSpaceOnUse" x2="1304.6" y1="806.09" y2="888.87"/>
    <filter id="filter3795" color-interpolation-filters="sRGB">
      <feGaussianBlur id="feGaussianBlur3797" stdDeviation="2.4579912"/>
    </filter>
    <filter id="filter3786" color-interpolation-filters="sRGB">
      <feGaussianBlur id="feGaussianBlur3788" stdDeviation="2.4579912"/>
    </filter>
    <linearGradient id="linearGradient2931" x1="938.65" xlink:href="#linearGradient3396" gradientUnits="userSpaceOnUse" y1="638.37" gradientTransform="translate(-1024,44.354)" x2="1242.6" y2="401.18"/>
    <filter id="filter3774" color-interpolation-filters="sRGB">
      <feGaussianBlur id="feGaussianBlur3776" stdDeviation="4.0379508"/>
    </filter>
    <linearGradient id="linearGradient2928" x1="938.65" xlink:href="#linearGradient3396" gradientUnits="userSpaceOnUse" y1="638.37" gradientTransform="matrix(-1,0,0,1,2045.6,42.426)" x2="1242.6" y2="401.18"/>
    <filter id="filter3770" color-interpolation-filters="sRGB">
      <feGaussianBlur id="feGaussianBlur3772" stdDeviation="4.0379508"/>
    </filter>
    <linearGradient id="linearGradient2925" x1="1522.8" gradientUnits="userSpaceOnUse" y1="892.53" gradientTransform="translate(-1006.1,24.796)" x2="1523" y2="916.28">
      <stop id="stop3802" stop-color="#3c3c3c" offset="0"/>
      <stop id="stop3804" stop-color="#a0a0a0" stop-opacity="0" offset="1"/>
    </linearGradient>
    <linearGradient id="linearGradient2922" x1="1498.6" xlink:href="#linearGradient3396" gradientUnits="userSpaceOnUse" y1="234.5" gradientTransform="translate(-1019,27.082)" x2="1506.4" y2="262.63"/>
    <linearGradient id="linearGradient2919" x1="1466.7" xlink:href="#linearGradient3820" gradientUnits="userSpaceOnUse" y1="270" gradientTransform="translate(-1014.7,22.488)" x2="1484.5" y2="303.34"/>
    <linearGradient id="linearGradient3820">
      <stop id="stop3822" stop-color="#3c3c3c" offset="0"/>
      <stop id="stop3824" stop-color="#3c3c3c" stop-opacity="0" offset="1"/>
    </linearGradient>
    <linearGradient id="linearGradient2916" x1="1498.2" xlink:href="#linearGradient3396" gradientUnits="userSpaceOnUse" y1="231.99" gradientTransform="translate(-961.8,28.335)" x2="1508.4" y2="262.63"/>
    <linearGradient id="linearGradient3439" y2="303.34" xlink:href="#linearGradient3820" gradientUnits="userSpaceOnUse" y1="270" gradientTransform="translate(-955.35,24.576)" x2="1484.5" x1="1466.7"/>
  </defs>
  <g id="layer1" transform="translate(-405.73 -144.36)">
    <g id="g10" transform="matrix(.0423 0 0 .0423 319.39 59.128)" class="Graphic">
      <g id="g12">
        <g id="g14" fill="#c7c7c7">
          <path id="path16" d="m5903 2361c50 82 34 3995-31 4149-51 122-1703 1495-1789 1531-1117-7-1870-414-1995-629-48-270-7-4433 38-4520 40-76 2153-833 2227-851 67-15 1493 229 1550 320z"/>
        </g>
        <g id="g18">
          <path id="path20" d="m5881 2374 2-1-2 2c0-1-1-1-1-1v-2l7-3-2 2-5 1 5-1-2 2-2 1zm2-1 2-2 2-2 5-2-5 4 5-4h1l-6 3v1-1l-4 3zm10-6h-1 1-1l11-6-10 5v1zm11-4-11 4v-1l11-3zm20-15c-2-3-4-6-7-9-2-3-5-5-8-7-5-4-12-8-20-12-7-4-15-7-24-11s-19-7-30-11c-21-8-47-16-75-24-29-8-61-16-95-25-136-34-313-72-494-106-181-35-364-66-511-90-73-11-138-21-189-27-25-3-47-6-65-8-9-1-17-1-24-2-4 0-7 0-10-1h-9c-3 0-5 0-7 1h-4c-2 0-3 0-4 1-2 0-4 1-7 2-2 0-5 1-8 2s-7 2-11 3c-4 2-8 3-13 5-10 3-22 7-35 12-13 4-28 9-44 15-33 11-71 25-115 40-43 15-91 32-144 51-209 75-481 173-753 274-271 101-542 203-747 285-51 21-98 40-140 57-43 18-80 34-111 48-16 7-30 14-42 20-13 6-24 12-33 17-5 2-9 5-13 7-4 3-8 5-10 7-4 3-7 5-9 7-5 4-7 8-9 11-1 2-2 5-4 9 0 3-1 6-1 9-1 3-1 7-2 11s-1 8-2 13c0 9-1 20-3 32 0 13-1 27-2 42-2 31-4 69-6 111-2 43-4 91-5 144-7 213-14 504-19 835-11 662-19 1482-19 2144 0 308 2 583 5 791 1 52 2 100 3 143s3 82 4 115c1 34 3 62 4 85 1 12 2 22 3 30 1 5 1 9 1 13 1 3 2 7 2 10l1 4 2 4c9 15 20 30 33 46 14 16 30 32 48 49 35 32 80 66 135 101 107 70 249 142 423 207 173 65 377 124 608 167s489 70 769 72h6l5-2 8-4c2-2 5-3 8-6 3-2 6-4 10-6l12-9c9-6 19-13 30-22 11-8 23-17 37-28 27-20 58-45 93-73s74-59 116-93c169-136 385-315 600-497 215-181 430-366 593-512 41-37 79-71 113-103 34-31 64-59 89-84 13-13 24-24 34-35 11-11 20-20 28-29s14-17 19-23c3-4 5-8 7-10 2-4 4-8 6-11 0-2 1-5 2-8s2-5 3-9c1-6 2-13 3-22 2-8 3-17 4-28s2-22 3-35c2-25 4-55 7-89 1-34 3-72 5-113 8-166 14-391 19-648 10-516 16-1164 16-1743 0-389-3-747-8-1012-1-66-2-127-4-181-1-53-3-100-5-139-1-20-2-38-3-53-1-16-2-30-3-41-1-6-1-11-2-16s-1-10-2-13c-1-4-1-8-2-11-1-2-1-4-2-5-1-3-2-5-3-6zm-37 21 12-12-12 12zm-6 9c1 3 1 7 2 11 0 4 1 9 1 15 1 11 3 24 4 39 0 15 1 33 2 52 2 39 4 86 6 139 1 53 2 114 4 180 5 264 7 622 7 1011 0 578-5 1227-15 1742-6 257-12 481-19 646-2 42-4 79-6 113-2 33-4 63-6 88-1 12-2 24-4 34 0 10-2 18-3 26-1 7-2 14-3 18 0 3-1 4-1 6 0 1-1 2-1 2 0 1-1 2-2 4-1 1-3 4-4 6-5 6-10 13-17 21-7 7-16 17-26 27l-34 34c-25 24-54 52-88 83-33 31-71 66-112 102-163 146-377 330-592 512-215 181-431 360-598 495-42 34-81 65-116 93s-66 52-93 73c-13 10-26 20-37 28-10 8-20 15-28 21-4 3-8 6-12 8-3 2-6 4-8 6-2 1-4 2-5 3-276-2-528-29-755-71-228-42-429-100-600-164-169-64-308-134-413-202-51-33-94-66-128-97-17-15-31-30-43-44-10-12-19-23-26-34v-4c-1-3-1-7-1-11-1-8-2-18-3-28-2-23-3-51-5-84-1-33-2-71-3-115-1-42-2-90-3-142-3-208-5-482-5-790 0-662 7-1481 18-2143 6-330 12-622 19-834 2-53 4-101 6-144 2-42 3-79 5-109 1-16 2-30 3-42s2-22 3-31c0-4 1-8 1-11 1-4 1-6 2-9v-2c0-1 1-1 2-2 2-1 4-3 7-5 4-1 7-4 11-6 9-5 19-10 31-16s26-12 41-19c31-14 67-29 109-47 42-17 89-37 140-57 205-82 475-184 746-284 271-101 543-200 752-274 52-19 101-36 144-51 43-16 82-29 114-40 17-6 31-11 44-16 13-4 25-8 35-11 4-2 9-3 13-4 4-2 7-3 10-4s5-1 8-2l3-1-2-8 1 8h12c2 0 5 0 8 1 7 0 14 1 23 2 17 1 39 4 64 7 50 6 114 16 187 27 147 23 329 55 509 89 180 35 357 72 492 106 34 9 65 17 92 25 28 8 53 15 73 23 10 3 20 7 28 10 7 3 15 6 20 9s10 5 13 8 1 0 1 1 1 3 1 4zm-1806 5639c1 0 1-1 2-1h6v14l-8-13 8 13v11l-10-23s1-1 2-1zm-1965-617c1 1 1 3 2 4s1 3 1 4l-25 4 21-11 1-1-1 1 1-1h2-2zm39-4498v3c-1 0-1 1-2 1l-5-6-17-4 17 4-2-1 4 2 5 1zm-7-2 2 1-2-1zm-16-8 14 7-14-7zm14 7-10-11 10 11zm2217-841-2-17 2 17zm-4-17 4 17v1l-4-18z"/>
        </g>
        <g id="g22" stroke="#fff" fill="#fff" stroke-opacity=".54118" fill-opacity=".54118">
          <path id="path24" d="m5822 2442-52 22-52 23-52 23-53 25-53 25-53 26-53 26-54 27-54 27-54 28-55 28-54 29-55 29-55 29-111 60-112 60-112 60-113 61-114 60-114 60-114 59-57 29-57 29-58 28-57 28-27-6-28-7-56-13-58-14-59-13-60-14-61-14-61-14-63-14-62-14-63-15-127-28-127-28-64-14-63-14-62-13-62-13-61-13-60-13-60-13-58-12-57-12-28-5-28-6-27-5-27-6-27-5-26-5-26-5-25-6-25-4-24-5-24-5-24-4-23-4-22-5-22-4-21-3-21-4-20-4 52 16 52 16 53 16 54 15 55 16 55 15 57 16 56 15 57 16 58 15 116 31 117 30 118 31 118 31 117 30 116 31 58 15 57 16 57 15 56 16 55 15 55 16 54 15 53 16 52 16 52 16 1 60 2 61 1 61 1 63 1 64 2 64 1 65 1 66 1 67 1 67 1 68v69l1 69 1 70 1 70v71l1 71v72l1 72 1 73 1 146 1 147v149l1 149 2 299 1 300 1 149 1 148 1 147 1 146 1 73v72l1 72 1 71v71l1 71 1 69 1 70v68l1 68 1 67 1 67 1 66 1 65 1 65 2 63 1 63 1 62 2 61 1 60 1-61 1-61v-63l1-63 1-64 1-65 1-66 1-67 1-67 1-68 1-69 2-69 1-70 1-71 1-71 1-72 1-72 2-73 1-73 1-73 3-148 3-149 2-151 3-151 6-303 5-303 3-151 3-150 2-149 3-149 1-73 2-73 1-73 1-72 1-71 1-72 1-70 2-70 1-70 1-68 1-68 1-68 1-66 1-66 1-65 1-64 1-64v-62l1-62 1-60 110-59 109-59 109-57 109-58 108-57 107-58 107-57 107-58 105-58 105-58 104-60 103-60 51-30 50-31 51-31 50-31 50-31 50-32 49-32 50-32z"/>
        </g>
        <g id="g28" fill="none">
          <path id="path30" d="m5822 2442c-549 232-1156 606-1768 901-580-138-1417-322-1839-396 543 169 1257 327 1800 496 32 1271 16 3196 48 4467 16-1282 59-3238 75-4519 586-317 1161-601 1684-949z"/>
        </g>
        <g id="g32" stroke="#fff" stroke-opacity=".16078" fill-opacity=".16078">
          <path id="path34" d="m2420 6628 10 14 10 13 11 13 12 13 12 12 12 12 14 12 13 12 14 12 15 11 15 11 16 11 15 11 17 10 16 10 17 11 18 9 18 10 18 9 18 8 19 9 19 8 19 8 19 8 40 15 40 14 41 12 41 11 42 10 41 9 42 8 41 6 41 6 41 3 21 2 20 1 19 1h59l19-1 19-1 18-1 19-1 17-2 18-3 17-2 17-3 17-4 16-4 15-4 15-4 15-5 15-5-2-1h-1l-5-2-6-1-7-2-8-2-10-3-10-3-12-3-13-4-14-3-15-4-16-5-16-4-18-5-18-5-19-5-20-6-20-5-21-6-22-6-22-6-22-6-23-7-24-6-48-13-49-14-50-14-50-13-50-15-50-13-49-14-49-13-23-7-24-6-23-7-22-6-22-6-21-6-21-6-20-5-19-6-19-5-18-5-17-5-16-4-15-5-15-4-13-4-12-3-12-3-10-3-9-3-7-2-7-2-5-2h-2l-2-1z"/>
        </g>
        <g id="g38" fill="none">
          <path id="path40" d="m2420 6628c201 289 833 431 1133 315-53-14-1066-293-1133-315z"/>
        </g>
        <g id="g42" stroke="#fff" fill="#fff" stroke-opacity=".38824" fill-opacity=".38824">
          <path id="path44" d="m3454 6093-936-361-9 4-8 4-8 4-6 5-6 6-6 6-5 7-5 6-4 7-4 7-3 7-3 8-3 8-2 7-3 15-2 15-2 14v37l1 4v6l146 51 1 1 1 1 1 1 1 2 2 2 1 3 3 3 2 3 3 4 3 4 3 4 4 5 4 4 4 6 5 4 10 12 10 11 13 12 13 12 14 13 15 12 17 13 17 12 19 12 19 11 21 11 22 10 11 4 11 5 12 4 12 4 13 3 12 3 13 3 13 3 13 2 13 1 14 2 14 1h44l15-1 15-2 15-2 16-2 16-3 16-4 16-4 17-5 17-6h1l2 1h3l6 1 6 1 7 1 8 1 9 1 10 1 11 1 12 1 12 1h12l13 1h26l14-1 13-1 14-1 13-2 13-2 12-3 12-3 12-3 10-5 11-5 9-6 8-6 8-8 3-4 3-4 3-4 2-4 2-5 2-5z"/>
        </g>
        <g id="g48" fill="none">
          <path id="path50" d="m3454 6093-936-361c-97 34-78 177-78 177l146 51s204 319 566 194 269 48 302-61z"/>
        </g>
        <g id="g52" fill="#606060">
          <path id="path54" d="m3446 5971c-311-81-622-161-933-242-12 44-13 107 6 140 47 23 142 41 189 64 136 131 255 142 472 124 84 17 168 31 251 48 26-51 33-72 15-134z"/>
        </g>
        <g id="g56" fill="none">
          <path id="path58" d="m3446 5971c-311-81-622-161-933-242-12 44-13 107 6 140 47 23 142 41 189 64 136 131 255 142 472 124 84 17 168 31 251 48 26-51 33-72 15-134z"/>
        </g>
        <g id="g60" stroke="#fff" fill="#fff" stroke-opacity=".4" fill-opacity=".4">
          <path id="path62" d="m5856 2414-1813 1017 7 4549 1775-1494 31-4072z"/>
        </g>
        <g id="g66" fill="none">
          <path id="path68" d="m5856 2414-1813 1017 7 4549 1775-1494 31-4072z"/>
        </g>
        <g id="g70" stroke="#fff" stroke-opacity=".16078" fill-opacity=".16078">
          <path id="path72" d="m2525 6916 10 13 11 12 10 13 11 11 11 12 11 11 12 11 12 10 12 10 12 10 13 10 12 9 13 9 13 8 27 17 28 15 28 14 28 13 29 11 29 11 30 9 30 8 29 8 30 6 30 5 30 4 30 3 30 2 29 2h29l29-1 27-2 28-2 27-3 26-5 25-5 24-6 24-6 22-8-2-1h-4l-4-2-5-1-6-2-8-2-8-2-9-2-10-3-10-3-11-3-12-3-13-4-13-3-14-4-15-4-15-4-15-5-16-4-16-5-17-4-18-5-35-10-36-10-38-10-38-10-38-11-76-21-37-10-37-11-36-10-17-4-17-5-17-5-16-4-16-5-15-4-15-4-14-4-14-4-13-4-12-3-11-3-12-3-10-3-9-3-8-2-8-3-7-1-6-2-5-2-4-1-3-1z"/>
        </g>
        <g id="g76" fill="none">
          <path id="path78" d="m2525 6916c209 276 627 323 861 239-39-10-810-222-861-239z"/>
        </g>
        <g id="g80" stroke="#fff" stroke-opacity=".16078" fill-opacity=".16078">
          <path id="path82" d="m2680 7199 12 15 12 14 13 14 14 12 14 13 14 11 15 11 16 11 15 9 17 9 16 9 17 7 18 7 17 7 18 5 18 5 18 5 19 3 18 4 19 2 18 2 19 1h38l18-1 19-2 18-2 19-3 18-4 18-4 18-5 17-6h-1l-2-1h-3l-4-1-3-1-5-2-5-1-6-2-6-1-6-2-7-2-8-2-8-2-8-3-9-2-9-2-19-6-20-5-22-6-22-6-23-6-23-7-48-13-48-13-23-7-23-6-23-6-21-6-21-6-19-6-9-2-9-3-9-2-8-2-8-2-7-2-7-2-6-2-6-2-5-2-5-1-5-1-3-1-3-1-3-1h-2z"/>
        </g>
        <g id="g86" fill="none">
          <path id="path88" d="m2680 7199c121 163 355 213 540 149-25-6-507-139-540-149z"/>
        </g>
        <g id="g90" stroke="#fff" fill="#fcfcfc" stroke-opacity=".43922" fill-opacity=".43922">
          <path id="path92" d="m2356 3259-92 13-17 2173 1425 399 35-116-1369-365 18-2104z"/>
        </g>
        <g id="g96" fill="none">
          <path id="path98" d="m2356 3259-92 13-17 2173 1425 399 35-116-1369-365 18-2104z"/>
        </g>
        <g id="g100" stroke="#fff" stroke-opacity=".23137" fill-opacity=".23137">
          <path id="path102" d="m3700 4065-2 61-1340-386 1342 325z"/>
        </g>
        <g id="g106" stroke="#fff" stroke-opacity=".23137" fill-opacity=".23137">
          <path id="path108" d="m3720 4507-3 61-1339-386 1342 325z"/>
        </g>
        <g id="g112" stroke="#fff" stroke-opacity=".23137" fill-opacity=".23137">
          <path id="path114" d="m3700 4916-2 61-1340-386 1342 325z"/>
        </g>
        <g id="g118" stroke="#fff" stroke-opacity=".23137" fill-opacity=".23137">
          <path id="path120" d="m3700 5318-2 61-1340-387 1342 326z"/>
        </g>
        <g id="g124" fill="#9e9e9e">
          <path id="path126" d="m2361 3309 1332 333-11 2197h22l11-2205v-9l-8-2-1341-335-2 11-3 10zm1340 335-8-2v-8h11l-3 10z"/>
        </g>
      </g>
    </g>
  </g>
  <g id="layer1-1" transform="matrix(.10596 0 0 .11532 56.52 140.74)">
    <path id="path3764" opacity=".8" d="m914.08 941.08a403.04 36.64 0 1 1 0 -0.00064" fill-rule="evenodd" filter="url(#filter3794)" fill="#a0a0a0"/>
    <path id="path3161" d="m177.14 566.86s-3.3971 16.632-2.8572 34.286c5.3538 175.06 151.68 317.14 338.57 317.14s336.83-141.24 338.57-317.14c0.22-20.91-6.9-37.15-6.9-37.15s40 8.5714 111.43 60c62.857 11.429 40-40 40-40s-14.286-40-105.71-111.43c-91.429-71.429-88.968-95.546-98.929-139.66-10.039-44.457-23.928-103.2-23.928-103.2s-21.127-92.299-69.141-140.01c-48.014-47.713-114.01-77.131-186.81-77.131-73.337 0-139.77 29.92-187.86 78.273-48.094 48.353-74.997 121.73-74.997 121.73s-15.356 58.208-15.001 104.99c0.3477 45.802-10.713 86.435-102.14 157.86-91.429 71.429-105.71 111.43-105.71 111.43s-21.786 48.216 41.071 36.788c71.428-47.146 110.36-56.788 110.36-56.788z" fill-rule="evenodd" stroke="#000" stroke-width="2.3"/>
    <path id="path3358" d="m1700.9 175.49a189.95 185.13 0 1 1 0 -0.003" fill-rule="evenodd" transform="matrix(1.0863,0,0,1.0104,-1130.3,27.099)" filter="url(#filter3766)" fill="url(#linearGradient3360)"/>
    <rect id="rect3326" height="374.12" width="412.69" y="17.356" x="304.69" fill="none"/>
    <path id="path3170" d="m786.71 659.55c0 86.755-30.552 167.17-79.941 224.06-49.389 56.893-336.44 56.893-385.83 0-49.389-56.893-79.95-135.48-79.95-222.23 0-173.51 122.24-314.33 272.87-314.33 149.51 0 271.12 140.29 272.86 312.5z" fill-rule="evenodd" fill="url(#linearGradient2972)"/>
    <path id="path3760" d="m262.41 547.4s-9.2245 86.711 1.8449 136.52c11.07 49.812 23.984 99.625 23.984 99.625l-26.751 8.3021s-14.759-16.604-27.674-36.898c-12.914-20.294-28.596-61.804-28.596-61.804l41.51 32.286s-8.3021-35.053-4.6123-73.796c3.6899-38.743 7.3797-79.331 20.294-104.24z" fill-rule="evenodd" fill-opacity=".38571" filter="url(#filter3782)" fill="#fff"/>
    <path id="path3438" d="m368.67 405.27s12.058 18.473 20.3 18.727c13.635 1.4531 17.462 15.848 30.961 14.884 28.927 34.712 54.334 66.896 81.332 80.395 9.6204 6.3083 20.091 7.8445 28.927-7.4523 15.428-13.499 50.924-51.523 58.507-66.221 11.178-12.9 8.6507-31.792 8.6507-31.792s19.131-7.5964 28.593-8.268c10.687-0.75858 1.5703-19.335 11.044-21.094-2.3834-15.241 12.431-14.992-4.9246-16.92-17.356-1.9284-237.2-13.499-254.55-1.9284-17.356 11.571-20.407 18.456-8.8359 39.669z" fill-rule="evenodd" filter="url(#filter3580)" fill="#a0a0a0"/>
    <path id="path3762" d="m764.3 551.98s9.2245 86.711-1.8449 136.52c-11.07 49.812-23.984 99.625-23.984 99.625l26.751 8.3021s14.759-16.604 27.674-36.898c12.914-20.294 28.596-61.804 28.596-61.804l-41.51 32.286s8.3021-35.053 4.6123-73.796c-3.6899-38.743-7.3797-79.331-20.294-104.24z" fill-rule="evenodd" fill-opacity=".38571" filter="url(#filter3778)" fill="#fff"/>
    <path id="path3740" d="m862.17 897.76c0 16.9-4.779 23.005-13.42 37.655h-314.52c-8.6405-14.65-13.42-20.754-13.42-37.655 0-67.602 76.464-122.47 170.68-122.47 94.213 0 170.68 54.864 170.68 122.46" fill-rule="evenodd" filter="url(#filter3736)" fill="#a0a0a0"/>
    <path id="path3193" d="m883.23 903.47c0 16.9-4.7789 23.005-13.42 37.655h-314.52c-8.6405-14.65-13.42-20.754-13.42-37.655 0-67.602 76.464-122.47 170.68-122.47 94.213 0 170.68 54.864 170.68 122.46" fill-rule="evenodd" fill="url(#radialGradient2965)"/>
    <path id="path3622" d="m509.12 899.62c0 16.9-4.779 23.005-13.42 37.655h-314.52c-8.6405-14.65-13.42-20.754-13.42-37.655 0-67.602 76.464-122.47 170.68-122.47 94.213 0 170.68 54.864 170.68 122.46" fill-rule="evenodd" filter="url(#filter3736)" fill="#a0a0a0"/>
    <path id="path3200" d="m487.91 903.47c0 16.9-4.779 23.005-13.42 37.655h-314.52c-8.6405-14.65-13.42-20.754-13.42-37.655 0-67.602 76.464-122.47 170.68-122.47 94.213 0 170.68 54.864 170.68 122.46" fill-rule="evenodd" fill="url(#radialGradient2961)"/>
    <path id="path3227" opacity=".85" d="m700.02 299.87a82.923 83.887 0 1 1 0 -0.001" fill-rule="evenodd" transform="matrix(1.4046,0,0,1.101,-256.83,-44.909)" filter="url(#filter3758)"/>
    <path id="path3213" opacity=".85" d="m507.18 269.02a77.137 97.386 0 1 1 0 -0.002" fill-rule="evenodd" transform="matrix(1.2835,0,0,1.2542,-142.16,-58.756)" filter="url(#filter3762)" stroke="#000" stroke-width="2.3645"/>
    <path id="path3215" d="m507.18 269.02a77.137 97.386 0 1 1 0 -0.002" fill-rule="evenodd" transform="matrix(1.2217,0,0,1.2251,-116.54,-48.017)" fill="url(#radialGradient3309)"/>
    <path id="path3229" d="m692.31 306.62a77.137 79.066 0 1 1 0 -0.001" fill-rule="evenodd" transform="matrix(1.3219,0,0,1.1067,-206.15,-47.326)" fill="url(#radialGradient3319)"/>
    <path id="path3231" d="m509.11 296.02a26.998 39.533 0 1 1 0 -0.00069" fill-rule="evenodd" transform="translate(50.23,-3.0358)"/>
    <path id="path3328" opacity=".8" d="m349.05 202.49s26.998-50.139 79.066-32.783 55.561 47.512 69.06 116.94c13.499 69.424-47.847 6.484-47.847 6.484s-7.7138-59.782-42.426-77.137c-34.712-17.356-57.853-11.571-57.853-13.499z" fill-rule="evenodd" fill="url(#linearGradient2953)"/>
    <path id="path3217" d="m509.11 296.02a26.998 39.533 0 1 1 0 -0.00069" fill-rule="evenodd" transform="translate(-7.7853,-3.8569)" stroke="#000" stroke-width="2.3"/>
    <path id="path3374" opacity=".8" d="m592.03 212.13s55.925-9.6422 86.78 28.927 21.213 52.068 21.213 52.068l-42.426 1.9284s-26.998-61.71-65.567-82.923z" fill-rule="evenodd" fill="url(#linearGradient2949)"/>
    <path id="path3384" opacity=".8" d="m521.43 333.13s50.771 29.962 95.125 24.176c44.354-5.7853 65.269-22.23 83.152-39.796-4.4888 21.075-46.214 54.312-82.854 56.241-36.64 1.9284-95.423-38.692-95.423-40.621z" fill-rule="evenodd" fill="url(#radialGradient2946)"/>
    <path id="path3402" opacity=".8" d="m327.23 247.76s-0.27224 65.372 38.832 102.68c39.104 37.31 62.591 29.496 93.525 34.077-24.358 10.295-80.21 10.272-109.67-22.507-29.465-32.779-24.602-112.93-22.682-114.25z" fill-rule="evenodd" fill="url(#radialGradient2943)"/>
    <path id="path3202" d="m513.15 491.77 9.5069-0.17903s10.343-11.44 46.297-49.028c23.969-27.238 31.596-45.215 31.596-45.215s4.9028-17.977-18.522-36.499c-30.744-15.265-46.297-15.253-69.027-15.164-22.73 0.0895-39.61 2.8133-69.027 15.343-29.417 12.529-24.514 37.588-24.514 37.588s2.179 11.985 38.133 49.573 55.557 43.58 55.557 43.58z" fill-rule="evenodd" fill="url(#radialGradient2940)"/>
    <path id="path3406" d="m452.56 363.57s46.522 3.1015 77.094 21.71c30.572 18.609 41.648 44.307 41.648 44.307s19.052-20.824 21.71-28.799c2.6584-7.9752 7.9753-23.926-19.938-39.876s-43.864-11.52-70.891-11.077c-27.027 0.44306-49.624 14.178-49.624 13.735z" fill-rule="evenodd" filter="url(#filter3799)" fill="url(#linearGradient2937)"/>
    <path id="path3600" opacity=".8" d="m1382.7 852.37a78.102 46.282 0 1 1 0 -0.00081" fill-rule="evenodd" transform="matrix(1.3333,0,0,1.4792,-1450.2,-395.89)" filter="url(#filter3795)" fill="url(#linearGradient3608)"/>
    <path id="path3610" opacity=".8" d="m1382.7 852.37a78.102 46.282 0 1 1 0 -0.00081" fill-rule="evenodd" transform="matrix(1.3333,0,0,1.4792,-1000.9,-395.89)" filter="url(#filter3786)" fill="url(#linearGradient3608)"/>
    <path id="path3742" d="m34.712 597.82s161.99-104.14 187.06-123.42c25.07-19.284 1.9285-80.994 1.9285-80.994s-23.141 32.783-55.925 65.567c-28.926 23.141-52.068 42.426-96.422 79.066-44.354 44.354-36.64 61.71-36.64 59.782z" fill-rule="evenodd" filter="url(#filter3774)" fill="url(#linearGradient2931)"/>
    <path id="path3754" d="m986.94 595.89s-161.99-104.14-187.06-123.42c-25.07-19.284-1.9285-80.994-1.9285-80.994s23.141 32.783 55.925 65.567c28.926 23.141 52.068 42.426 96.422 79.066 44.354 44.354 36.64 61.71 36.64 59.782z" fill-rule="evenodd" filter="url(#filter3770)" fill="url(#linearGradient2928)"/>
    <path id="path3798" d="m486.07 917.52s20.796 1.7884 29.331 1.6273c9.6171-0.18159 22.178-1.0372 28.872-1.8159 2.0936 10.317 8.7127 19.704 10.895 22.517 2.7238 2.5422-80.442 0.36317-80.442 0.36317s10.439-14.448 11.344-22.691z" fill-rule="evenodd" fill="url(#linearGradient2925)"/>
    <path id="path3828" d="m468.9 254.15s6.6678 19.263 7.1617 35.562c14.57-4.9391 22.226-9.8782 22.226-9.8782s-3.7044-25.683-29.388-25.683z" fill-rule="evenodd" fill="url(#linearGradient2922)"/>
    <path id="path3830" d="m453.74 267.83s-2.4696 21.485 6.6678 36.056c9.1374 14.57 19.51 19.263 27.412 20.991-2.4696 2.2226-13.583 8.1496-23.955-0.24696-10.372-8.3965-15.558-16.546-15.558-27.659s1.9756-24.943 5.433-29.141z" fill-rule="evenodd" fill="url(#linearGradient2919)"/>
    <path id="path3836" d="m526.12 255.41s6.6678 19.263 7.1617 35.562c14.57-4.9391 22.226-9.8782 22.226-9.8782s-3.7044-25.683-29.388-25.683z" fill-rule="evenodd" fill="url(#linearGradient2916)"/>
    <path id="path3838" d="m513.05 269.92s-2.4696 21.485 6.6678 36.056c9.1374 14.57 19.51 19.263 27.412 20.991-2.4696 2.2226-13.583 8.1496-23.955-0.24696-10.372-8.3965-15.558-16.546-15.558-27.659s1.9756-24.943 5.433-29.141z" fill-rule="evenodd" fill="url(#linearGradient3439)"/>
  </g>
  <metadata>
    <rdf:RDF>
      <cc:Work>
        <dc:format>image/svg+xml</dc:format>
        <dc:type rdf:resource="http://purl.org/dc/dcmitype/StillImage"/>
        <cc:license rdf:resource="http://creativecommons.org/licenses/publicdomain/"/>
        <dc:publisher>
          <cc:Agent rdf:about="http://openclipart.org/">
            <dc:title>Openclipart</dc:title>
          </cc:Agent>
        </dc:publisher>
        <dc:title>Linux Server</dc:title>
        <dc:date>2013-11-19T12:28:36</dc:date>
        <dc:description/>
        <dc:source>http://openclipart.org/detail/188904/linux-server-by-soldino-188904</dc:source>
        <dc:creator>
          <cc:Agent>
            <dc:title>soldino</dc:title>
          </cc:Agent>
        </dc:creator>
        <dc:subject>
          <rdf:Bag>
            <rdf:li>Linux Server</rdf:li>
            <rdf:li>Linux</rdf:li>
            <rdf:li>Server</rdf:li>
            <rdf:li>Tux</rdf:li>
            <rdf:li>Unix</rdf:li>
            <rdf:li>Penguin</rdf:li>
          </rdf:Bag>
        </dc:subject>
      </cc:Work>
      <cc:License rdf:about="http://creativecommons.org/licenses/publicdomain/">
        <cc:permits rdf:resource="http://creativecommons.org/ns#Reproduction"/>
        <cc:permits rdf:resource="http://creativecommons.org/ns#Distribution"/>
        <cc:permits rdf:resource="http://creativecommons.org/ns#DerivativeWorks"/>
      </cc:License>
    </rdf:RDF>
  </metadata>
</svg>
