<?xml version="1.0"?>
<svg xmlns:rdf="http://www.w3.org/1999/02/22-rdf-syntax-ns#" xmlns="http://www.w3.org/2000/svg" xmlns:cc="http://web.resource.org/cc/" xmlns:xlink="http://www.w3.org/1999/xlink" xmlns:dc="http://purl.org/dc/elements/1.1/" xmlns:svg="http://www.w3.org/2000/svg" id="svg2566" viewBox="0 0 247.22 274.12" version="1.0">
  <defs id="defs2568">
    <linearGradient id="linearGradient4788" y2="404.35" gradientUnits="userSpaceOnUse" y1="407.6" x2="446.75" x1="452.36">
      <stop id="stop4725" stop-color="#331f13" offset="0"/>
      <stop id="stop4727" stop-color="#331f13" stop-opacity="0" offset="1"/>
    </linearGradient>
    <linearGradient id="linearGradient4786" y2="404.35" gradientUnits="userSpaceOnUse" y1="407.6" x2="446.75" x1="452.36">
      <stop id="stop4709" stop-color="#c0aa1f" offset="0"/>
      <stop id="stop4711" stop-color="#c0aa1f" stop-opacity="0" offset="1"/>
    </linearGradient>
    <linearGradient id="linearGradient4780" y2="454.45" gradientUnits="userSpaceOnUse" x2="481.68" y1="446.79" x1="492.8">
      <stop id="stop4655" stop-color="#fca" offset="0"/>
      <stop id="stop4657" stop-color="#fca" stop-opacity="0" offset="1"/>
    </linearGradient>
    <linearGradient id="linearGradient4778" y2="453.66" gradientUnits="userSpaceOnUse" x2="494.97" y1="455.47" x1="476.46">
      <stop id="stop4645" stop-color="#453535" offset="0"/>
      <stop id="stop4647" stop-color="#453535" stop-opacity="0" offset="1"/>
    </linearGradient>
    <linearGradient id="linearGradient4776" y2="539.76" gradientUnits="userSpaceOnUse" x2="556.79" y1="539.76" x1="336.23">
      <stop id="stop4665" stop-color="#c05656" offset="0"/>
      <stop id="stop4667" stop-color="#c05656" stop-opacity="0" offset="1"/>
    </linearGradient>
    <linearGradient id="linearGradient4774" y2="511.21" gradientUnits="userSpaceOnUse" x2="232.72" y1="544.35" x1="349.86">
      <stop id="stop4675" stop-color="#cb8888" offset="0"/>
      <stop id="stop4677" stop-color="#cb8888" stop-opacity="0" offset="1"/>
    </linearGradient>
  </defs>
  <g id="layer1" transform="translate(-167.82 -169.59)">
    <g id="g4753" transform="matrix(.65208 0 0 .66379 46.566 -17.611)">
      <g id="g4681">
        <path id="path1955" d="m186.46 339.93v69.58l150.27 61.22 227.26-79.67-1.84-62.26-167.85-46.29-207.84 57.42z" fill-rule="evenodd" stroke="#000" stroke-width="1px" fill="#ffd5d5"/>
        <path id="path1965" d="m336.73 694.48l212.61-86.81 6.95-222.64-219.24 12.66-0.32 296.79z" fill-rule="evenodd" stroke="#000" stroke-width="1px" fill="#ff8080"/>
        <path id="path1967" d="m192.31 349.3v279.27l144.42 62.4-0.65-292.92-143.77-48.75z" fill-rule="evenodd" stroke="#000" stroke-width="1px" fill="#faa"/>
        <path id="path4671" d="m192.31 349.3v279.27l144.42 62.4-0.65-292.92-143.77-48.75z" fill-rule="evenodd" stroke="#000" stroke-width="1px" fill="url(#linearGradient4774)"/>
        <path id="path1961" d="m186.46 339.93v69.58l150.27 61.22-0.65-72.68-149.62-58.12z" fill-rule="evenodd" stroke="#000" stroke-width="1px" fill="#faa"/>
        <path id="path4661" d="m336.73 694.48l212.61-86.81 6.95-222.64-219.24 12.66-0.32 296.79z" fill-rule="evenodd" stroke="#000" stroke-width="1px" fill="url(#linearGradient4776)"/>
        <path id="path1957" d="m336.73 470.73l227.84-78.61-2.42-63.32-225.1 68.89-0.32 73.04z" fill-rule="evenodd" stroke="#000" stroke-width="1px" fill="#ff8080"/>
        <path id="path1969" d="m481.47 384.62l-39.83 14.06v19.92l16.22-6.62c-3.67 1.52 6.64 14.98 6.73 19.42 0.16 7.25-3.2 14.86-3.91 22.6-1.44 15.65 10.96 24.44 11.57 25.25 1.3 1.72 11.06 1.5 11.22-6.08 0.2-9.11 4.45-29.41 0.85-42.74-4.1-15.1-15.91-22.85-11.71-24.58l8.86-3.65v-17.58z" fill-rule="evenodd" stroke="#000" stroke-width="1px" fill="#ccc"/>
        <path id="path1973" d="m473.26 439.52s-4.16 8.9-2.59 16.45c1.4 6.66 4.06 14.42 4.06 14.42l2.48-0.12s2.27-10.15 2.47-16.78c0.27-8.29-3.49-13.33-3.49-13.3l-2.93-0.67z" fill-rule="evenodd" stroke="#000" stroke-width="1px" fill="#ff8080"/>
        <path id="path1971" d="m474.55 442.68c4.17-0.5 9.38-0.54 12.49 0.45 2.52 0.86 6.68 2.25 7.93 9.45 0.14 5.69-2.06 9.18-6.58 11.07-3.69 1.53-9 0.61-12.42 1.28-3.37 0.66-2.95-4.22-1.93-4.71 3.88 0.11 8.37-0.16 11.77-0.71 0.85-0.14 4.49-1.91 3.78-6.41 0.13-2.62-3.32-5.72-6.67-5.95-3.25-0.22-5.75 1.72-8.09 0.32-2.39-1.43-0.28-4.79-0.28-4.79z" fill="#808080"/>
        <path id="path3756" d="m474.55 442.68c4.17-0.5 9.38-0.54 12.49 0.45 2.52 0.86 6.68 2.25 7.93 9.45 0.14 5.69-2.06 9.18-6.58 11.07-3.69 1.53-9 0.61-12.42 1.28-3.37 0.66-2.95-4.22-1.93-4.71 3.88 0.11 8.37-0.16 11.77-0.71 0.85-0.14 4.49-1.91 3.78-6.41 0.13-2.62-3.32-5.72-6.67-5.95-3.25-0.22-5.75 1.72-8.09 0.32-2.39-1.43-0.28-4.79-0.28-4.79z" fill="url(#linearGradient4778)"/>
        <path id="path4651" d="m474.55 442.68c4.17-0.5 9.38-0.54 12.49 0.45 2.52 0.86 6.68 2.25 7.93 9.45 0.14 5.69-2.06 9.18-6.58 11.07-3.69 1.53-9 0.61-12.42 1.28-3.37 0.66-2.95-4.22-1.93-4.71 3.88 0.11 8.37-0.16 11.77-0.71 0.85-0.14 4.49-1.91 3.78-6.41 0.13-2.62-3.32-5.72-6.67-5.95-3.25-0.22-5.75 1.72-8.09 0.32-2.39-1.43-0.28-4.79-0.28-4.79z" fill="url(#linearGradient4780)"/>
      </g>
      <g id="g4739">
        <path id="path4695" d="m452.11 405.65a3.0372 4.3389 0 1 1 -6.07 0 3.0372 4.3389 0 1 1 6.07 0z" stroke-opacity="0" fill="#fadc1e"/>
        <path id="path4697" d="m452.11 405.65a3.0372 4.3389 0 1 1 -6.07 0 3.0372 4.3389 0 1 1 6.07 0z" stroke-opacity=".94643" stroke="url(#linearGradient4788)" stroke-width=".5" fill="url(#linearGradient4786)"/>
      </g>
      <g id="g4743" transform="translate(26,-8)">
        <path id="path4745" d="m452.11 405.65a3.0372 4.3389 0 1 1 -6.07 0 3.0372 4.3389 0 1 1 6.07 0z" stroke-opacity="0" fill="#fadc1e"/>
        <path id="path4747" d="m452.11 405.65a3.0372 4.3389 0 1 1 -6.07 0 3.0372 4.3389 0 1 1 6.07 0z" stroke-opacity=".94643" stroke="url(#linearGradient4788)" stroke-width=".5" fill="url(#linearGradient4786)"/>
      </g>
    </g>
  </g>
  <metadata>
    <rdf:RDF>
      <cc:Work>
        <dc:format>image/svg+xml</dc:format>
        <dc:type rdf:resource="http://purl.org/dc/dcmitype/StillImage"/>
        <cc:license rdf:resource="http://creativecommons.org/licenses/publicdomain/"/>
        <dc:publisher>
          <cc:Agent rdf:about="http://openclipart.org/">
            <dc:title>Openclipart</dc:title>
          </cc:Agent>
        </dc:publisher>
        <dc:title>Box</dc:title>
        <dc:date>2007-09-03T08:13:12</dc:date>
        <dc:description>box, box, cartoon, cartoon, clip art, clipart, icon, icon, image, media, pink, pink, png, public domain, svg, </dc:description>
        <dc:source>http://openclipart.org/detail/5146/box-by-biswajyotim</dc:source>
        <dc:creator>
          <cc:Agent>
            <dc:title>biswajyotim</dc:title>
          </cc:Agent>
        </dc:creator>
        <dc:subject>
          <rdf:Bag>
            <rdf:li>box</rdf:li>
            <rdf:li>cartoon</rdf:li>
            <rdf:li>clip art</rdf:li>
            <rdf:li>clipart</rdf:li>
            <rdf:li>icon</rdf:li>
            <rdf:li>image</rdf:li>
            <rdf:li>media</rdf:li>
            <rdf:li>pink</rdf:li>
            <rdf:li>png</rdf:li>
            <rdf:li>public domain</rdf:li>
            <rdf:li>svg</rdf:li>
          </rdf:Bag>
        </dc:subject>
      </cc:Work>
      <cc:License rdf:about="http://creativecommons.org/licenses/publicdomain/">
        <cc:permits rdf:resource="http://creativecommons.org/ns#Reproduction"/>
        <cc:permits rdf:resource="http://creativecommons.org/ns#Distribution"/>
        <cc:permits rdf:resource="http://creativecommons.org/ns#DerivativeWorks"/>
      </cc:License>
    </rdf:RDF>
  </metadata>
</svg>
