<?xml version="1.0" encoding="UTF-8" standalone="no"?>
<!--part of the rodentia icon theme by sixsixfive released under CC0 (https://creativecommons.org/publicdomain/zero/1.0/) on openclipart-->
<svg xmlns="http://www.w3.org/2000/svg" xmlns:xlink="http://www.w3.org/1999/xlink" viewBox="0 0 48 48">
 <defs id="0">
  <linearGradient id="A">
   <stop id="L" stop-color="#fff" stop-opacity="0.8"/>
   <stop id="M" offset="1" stop-color="#fff" stop-opacity="0"/>
  </linearGradient>
  <linearGradient id="B">
   <stop id="N" stop-color="#eeeeec"/>
   <stop id="O" offset="1" stop-color="#d3d7cf"/>
  </linearGradient>
  <linearGradient id="C">
   <stop id="P" stop-color="#2e3436"/>
   <stop id="Q" offset="1" stop-color="#2e3436" stop-opacity="0"/>
  </linearGradient>
  <radialGradient cx="25.712" cy="48.735" r="21.856" id="D" xlink:href="#C" gradientUnits="userSpaceOnUse" gradientTransform="matrix(1,0,0,0.09243698,0,44.229759)"/>
  <radialGradient cx="13.559" cy="12.06" r="16.219" id="E" xlink:href="#B" gradientUnits="userSpaceOnUse" gradientTransform="matrix(0.6174379,2.5604989,-3.7886681,0.9135993,49.367351,-37.86865)"/>
  <linearGradient y1="2.438" x2="0" y2="43.34" id="F" xlink:href="#A" gradientUnits="userSpaceOnUse"/>
  <radialGradient cx="34.13" cy="8.609" r="3.03" id="G" xlink:href="#B" gradientUnits="userSpaceOnUse" gradientTransform="matrix(1.9999999,2.0717464e-7,-2.1678585e-7,2.0927836,-34.124995,-9.2675658)"/>
  <linearGradient x1="34.13" y1="8.75" x2="36.533" y2="6.363" id="H" xlink:href="#A" gradientUnits="userSpaceOnUse"/>
  <filter x="-0.16" y="-0.151" width="1.321" height="1.302" color-interpolation-filters="sRGB" id="I">
   <feGaussianBlur stdDeviation="0.5327" id="R"/>
  </filter>
 </defs>
 <path d="m 47.568058,48.734642 a 21.855595,2.0202651 0 1 1 -43.7111893,0 21.855595,2.0202651 0 1 1 43.7111893,0 z" transform="matrix(1.0944165,0,0,0.9661277,-4.1401442,-2.4030967)" id="1" opacity="0.54" fill="url(#D)"/>
 <path d="M 9.84375,1.367375 C 8.1263501,1.367375 6.75,2.7437253 6.75,4.461125 l 0,37.15625 c 0,1.7174 1.3763496,3.093751 3.09375,3.09375 l 28.3125,0 c 1.7174,0 3.09375,-1.376351 3.09375,-3.09375 l 0,-33.21875 -6.75,-7.03125 -24.65625,0 z" id="2" fill="#888a85"/>
 <path d="m 9.84375,2.25 c -1.1586131,0 -2.0625,0.903887 -2.0625,2.0625 l 0,37.15625 c 0,1.158614 0.9038868,2.062501 2.0625,2.0625 l 28.3125,0 c 1.158613,0 2.0625,-0.903888 2.0625,-2.0625 l 0,-32.78125 L 34.0625,2.25 9.84375,2.25 z" transform="translate(4.4958504e-8,0.148625)" id="3" fill="url(#E)"/>
 <g transform="translate(-2.2479252e-8,-0.4998749)" id="4">
  <g transform="translate(0,1.4996247)" id="J" fill="#fff">
   <rect width="25" height="3" x="11.5" y="6.04" id="S"/>
   <rect width="25" height="3" x="11.5" y="24.04" id="T"/>
   <rect width="17.865" height="3" x="11.5" y="30.04" id="U"/>
   <rect width="23.286" height="3" x="11.5" y="36.04" id="V"/>
   <g id="W">
    <rect width="13.157" height="3" x="11.5" y="12.04" id="c"/>
    <rect width="13.272" height="3" x="11.5" y="18.04" id="d"/>
    <path d="m 31.651945,11.794995 c -2.120526,0.05576 -2.51948,1.58097 -2.406259,2.728341 0.01758,0.178185 0.10109,0.340679 0.233516,0.484819 0.01244,-0.113106 0.02942,-0.224364 0.05331,-0.333932 -0.0089,0.09724 -0.01269,0.196751 -0.01269,0.296828 0,0.923792 0.388878,1.739909 0.979766,2.22126 -0.03936,0.225828 -0.127942,0.418597 -0.2589,0.653021 l -2.213355,0.462556 c -1.07294,0.241886 -1.154119,1.730712 -1.081294,2.485931 9.5583,-0.02643 -0.01847,0.01556 9.553969,-0.01979 -0.03276,-0.825632 -0.152462,-2.293205 -1.243739,-2.520561 l -2.096598,-0.38835 c -1.57e-4,-0.0066 4.9e-4,-0.01319 0,-0.01979 L 33.030216,17.15026 c 0.563485,-0.485823 0.931538,-1.28101 0.931538,-2.179209 0,-0.0091 7.4e-5,-0.01816 0,-0.02721 0.0091,0.04526 0.01816,0.09001 0.02538,0.128625 0.120174,-0.157909 0.09199,-0.428232 0.124377,-0.640653 0.168523,-1.10527 -0.470126,-2.604256 -2.246353,-2.636819 -0.07203,-0.0013 -0.144806,-0.0018 -0.213212,0 z" id="e" fill-rule="evenodd"/>
   </g>
  </g>
  <g transform="translate(4.4958508e-8,0.4998749)" id="K">
   <rect width="25" height="3" x="11.5" y="6.04" id="X" fill="#888a85"/>
   <rect width="25" height="3" x="11.5" y="24.04" id="Y" fill="#888a85"/>
   <rect width="17.865" height="3" x="11.5" y="30.04" id="Z" fill="#888a85"/>
   <rect width="23.286" height="3" x="11.5" y="36.04" id="a" fill="#888a85"/>
   <g id="b">
    <rect width="13.157" height="3" x="11.5" y="12.04" id="f" fill="#888a85"/>
    <rect width="13.272" height="3" x="11.5" y="18.04" id="g" fill="#888a85"/>
    <path d="m 31.651945,11.794995 c -2.120526,0.05576 -2.51948,1.58097 -2.406259,2.728341 0.01758,0.178185 0.10109,0.340679 0.233516,0.484819 0.01244,-0.113106 0.02942,-0.224364 0.05331,-0.333932 -0.0089,0.09724 -0.01269,0.196751 -0.01269,0.296828 0,0.923792 0.388878,1.739909 0.979766,2.22126 -0.03936,0.225828 -0.127942,0.418597 -0.2589,0.653021 l -2.213355,0.462556 c -1.07294,0.241886 -1.154119,1.730712 -1.081294,2.485931 9.5583,-0.02643 -0.01847,0.01556 9.553969,-0.01979 -0.03276,-0.825632 -0.152462,-2.293205 -1.243739,-2.520561 l -2.096598,-0.38835 c -1.57e-4,-0.0066 4.9e-4,-0.01319 0,-0.01979 L 33.030216,17.15026 c 0.563485,-0.485823 0.931538,-1.28101 0.931538,-2.179209 0,-0.0091 7.4e-5,-0.01816 0,-0.02721 0.0091,0.04526 0.01816,0.09001 0.02538,0.128625 0.120174,-0.157909 0.09199,-0.428232 0.124377,-0.640653 0.168523,-1.10527 -0.470126,-2.604256 -2.246353,-2.636819 -0.07203,-0.0013 -0.144806,-0.0018 -0.213212,0 z" id="h" fill="#888a85" fill-rule="evenodd"/>
   </g>
  </g>
 </g>
 <path d="m 9.84375,2.75 c -0.8977312,0 -1.5625,0.6647689 -1.5625,1.5625 l 0,37.15625 c 0,0.897732 0.6647689,1.562501 1.5625,1.5625 l 28.3125,0 c 0.897731,0 1.5625,-0.66477 1.5625,-1.5625 l 0,-32.625 -5.875,-6.09375 -24,0 z" transform="translate(4.4958504e-8,0.148625)" id="5" opacity="0.8" fill="none" stroke="url(#F)" stroke-linejoin="round" stroke-linecap="square"/>
 <path d="m 32.25,2.40625 0,6.875 c 0,0.956611 0.676661,1.593751 1.71875,1.59375 l 6.25,0 0,-1.8125 -6.9375,-6.65625 -1.03125,0 z" id="6" opacity="0.16" fill="#2e3436" filter="url(#I)"/>
 <path d="m 33.125,1.375 0,6.3125 c -2e-6,1.158614 0.903887,2.062501 2.0625,2.0625 l 6.0625,0 0,-1.34375 -6.75,-7.03125 -1.375,0 z" id="7" fill="#888a85"/>
 <path d="m 34.125,2.40625 0,5.28125 c -10e-7,0.6407004 0.421799,1.0625006 1.0625,1.0625 l 5,0 -6.0625,-6.34375 z" id="8" fill="url(#G)"/>
 <path d="m 34.625,3.6875 0,4 c -10e-7,0.3773049 0.185194,0.5625003 0.5625,0.5625 l 3.84375,0 L 34.625,3.6875 z" id="9" opacity="0.8" fill="none" stroke="url(#H)" stroke-linecap="square"/>
</svg>
