<?xml version="1.0" encoding="UTF-8" standalone="no"?>
<!-- Created with Inkscape (http://www.inkscape.org/) -->

<svg
   xmlns:dc="http://purl.org/dc/elements/1.1/"
   xmlns:cc="http://creativecommons.org/ns#"
   xmlns:rdf="http://www.w3.org/1999/02/22-rdf-syntax-ns#"
   xmlns:svg="http://www.w3.org/2000/svg"
   xmlns="http://www.w3.org/2000/svg"
   xmlns:xlink="http://www.w3.org/1999/xlink"
   xmlns:sodipodi="http://sodipodi.sourceforge.net/DTD/sodipodi-0.dtd"
   xmlns:inkscape="http://www.inkscape.org/namespaces/inkscape"
   width="609"
   height="282.99994"
   id="svg4599"
   version="1.1"
   inkscape:version="0.91 r13725"
   sodipodi:docname="theinternet.svg">
  <defs
     id="defs4601">
    <linearGradient
       id="linearGradient7124">
      <stop
         offset="0"
         style="stop-color:#69f931"
         id="stop7126" />
      <stop
         offset="1"
         style="stop-color:#f1fee4;stop-opacity:.043478"
         id="stop7128" />
    </linearGradient>
    <linearGradient
       inkscape:collect="always"
       x1="345.29"
       y1="216.6"
       x2="345.29"
       gradientUnits="userSpaceOnUse"
       y2="659.36"
       id="linearGradient4204">
      <stop
         offset="0"
         style="stop-color:#588cb5"
         id="stop4200" />
      <stop
         offset="1"
         style="stop-color:#438cc4"
         id="stop4202" />
    </linearGradient>
    <radialGradient
       inkscape:collect="always"
       r="86.902"
       gradientTransform="matrix(0.1007,1.0897,-2.0556,0.18997,721.02,-132.84)"
       cx="305.9"
       cy="218.3"
       gradientUnits="userSpaceOnUse"
       xlink:href="#linearGradient7124"
       id="radialGradient9072" />
    <radialGradient
       inkscape:collect="always"
       r="82.42"
       gradientTransform="matrix(-0.36185,1.5532,-2.5863,-0.60254,1686.8,53.041)"
       cx="415.86"
       cy="428.09"
       gradientUnits="userSpaceOnUse"
       xlink:href="#linearGradient7124"
       id="radialGradient10051" />
    <radialGradient
       inkscape:collect="always"
       r="211.31"
       gradientTransform="matrix(1.1556,-6.1141e-5,0,0.57666,-57.463,53.393)"
       cx="359.44"
       cy="404.75"
       gradientUnits="userSpaceOnUse"
       id="radialGradient10082">
      <stop
         offset="0"
         style="stop-color:#e2ebf3;stop-opacity:.86087"
         id="stop10086" />
      <stop
         offset="1"
         style="stop-color:#e2ebf3;stop-opacity:.22745"
         id="stop10088" />
    </radialGradient>
    <radialGradient
       inkscape:collect="always"
       r="224.11"
       gradientTransform="matrix(0.93426,0,0,1,22.813,-2.8011012e-7)"
       cx="303.89"
       cy="416.94"
       gradientUnits="userSpaceOnUse"
       id="radialGradient11161">
      <stop
         offset="0"
         style="stop-color:#83c1ef"
         id="stop11165" />
      <stop
         offset="1"
         style="stop-color:#729ec0;stop-opacity:0"
         id="stop11167" />
    </radialGradient>
    <filter
       inkscape:collect="always"
       x="-.051002"
       y="-.19547"
       width="1.102"
       height="1.3909"
       id="filter14172">
      <feGaussianBlur
         inkscape:collect="always"
         stdDeviation="8.8998435"
         id="feGaussianBlur14174" />
    </filter>
    <radialGradient
       inkscape:collect="always"
       r="174.5"
       gradientTransform="matrix(1.2586,0,0,0.24468,-90.988,461.03)"
       cx="351.84"
       cy="610.38"
       gradientUnits="userSpaceOnUse"
       id="radialGradient14184">
      <stop
         offset="0"
         style="stop-color:#ffffff"
         id="stop14178" />
      <stop
         offset="1"
         style="stop-color:#ffffff;stop-opacity:0"
         id="stop14180" />
    </radialGradient>
    <filter
       inkscape:collect="always"
       x="-.068749"
       y="-.15424"
       width="1.1375"
       height="1.3085"
       id="filter15171">
      <feGaussianBlur
         inkscape:collect="always"
         stdDeviation="14.5275"
         id="feGaussianBlur15173" />
    </filter>
  </defs>
  <sodipodi:namedview
     id="base"
     pagecolor="#ffffff"
     bordercolor="#666666"
     borderopacity="1.0"
     inkscape:pageopacity="0.0"
     inkscape:pageshadow="2"
     inkscape:zoom="1.3036995"
     inkscape:cx="391.85336"
     inkscape:cy="135.44667"
     inkscape:document-units="px"
     inkscape:current-layer="g19815"
     showgrid="false"
     fit-margin-top="0"
     fit-margin-left="0"
     fit-margin-right="0"
     fit-margin-bottom="0"
     inkscape:window-width="1916"
     inkscape:window-height="1035"
     inkscape:window-x="4"
     inkscape:window-y="1"
     inkscape:window-maximized="1"
     inkscape:snap-global="true"
     inkscape:snap-nodes="false"
     inkscape:snap-bbox="true"
     inkscape:snap-bbox-edge-midpoints="true" />
  <metadata
     id="metadata4604">
    <rdf:RDF>
      <cc:Work
         rdf:about="">
        <dc:format>image/svg+xml</dc:format>
        <dc:type
           rdf:resource="http://purl.org/dc/dcmitype/StillImage" />
        <dc:title></dc:title>
      </cc:Work>
    </rdf:RDF>
  </metadata>
  <g
     inkscape:label="Layer 1"
     inkscape:groupmode="layer"
     id="layer1"
     transform="translate(-70.5,-390.86221)">
    <g
       transform="matrix(0.95733731,0,0,1.0445639,2,0)"
       style="font-style:normal;font-weight:normal;font-size:44.03507233px;line-height:125%;font-family:sans-serif;letter-spacing:0px;word-spacing:0px;fill:#4d4d4d;fill-opacity:1;stroke:none;stroke-width:1px;stroke-linecap:butt;stroke-linejoin:miter;stroke-opacity:1"
       id="text19644">
      <g
         id="g19815">
        <rect
           ry="3.3139081"
           y="390.86221"
           x="70.5"
           height="282.99994"
           width="609"
           id="rect4008"
           style="fill:#698094;fill-opacity:1;stroke:none;display:inline"
           transform="matrix(1.0445639,0,0,0.95733732,-2.0891278,0)" />
        <rect
           ry="1"
           y="420.86221"
           x="73.5"
           height="34"
           width="603"
           id="rect3952"
           style="fill:#cfd5dd;fill-opacity:1;stroke:none;display:inline"
           transform="matrix(1.0445639,0,0,0.95733732,-2.0891278,0)" />
        <rect
           style="fill:#cfd5dd;fill-opacity:1;stroke:none;display:inline"
           id="rect3950"
           width="603"
           height="213"
           x="73.5"
           y="457.86221"
           ry="1"
           transform="matrix(1.0445639,0,0,0.95733732,-2.0891278,0)" />
        <path
           sodipodi:nodetypes="csccccc"
           inkscape:connector-curvature="0"
           id="path3965"
           d="m 140.5,397.86222 125,0 c 19,0 5,23 25,23 l 0,10 -175,0 0,-10 c 20,0 6,-23 25,-23 z"
           style="fill:#cfd5dd;fill-opacity:1;stroke:none;display:inline"
           transform="matrix(1.0445639,0,0,0.95733732,-2.0891278,0)" />
        <g
           id="text3967"
           style="font-size:9.76762295px;font-style:normal;font-variant:normal;font-weight:normal;font-stretch:normal;line-height:125%;letter-spacing:0px;word-spacing:0px;fill:#698094;fill-opacity:1;stroke:none;display:inline;font-family:FontAwesome;-inkscape-font-specification:FontAwesome"
           transform="matrix(1.0445639,0,0,0.95733732,-2.0891278,0)">
          <path
             id="path3030"
             style=""
             d="m 267.57499,411.69577 c 0,-0.13627 -0.0545,-0.27254 -0.15262,-0.37065 l -1.6025,-1.6025 1.6025,-1.6025 c 0.0981,-0.0981 0.15262,-0.23438 0.15262,-0.37065 0,-0.13626 -0.0545,-0.27253 -0.15262,-0.37064 l -0.7413,-0.7413 c -0.0981,-0.0981 -0.23438,-0.15262 -0.37064,-0.15262 -0.13627,0 -0.27254,0.0545 -0.37065,0.15262 l -1.6025,1.6025 -1.6025,-1.6025 c -0.0981,-0.0981 -0.23438,-0.15262 -0.37065,-0.15262 -0.13626,0 -0.27253,0.0545 -0.37064,0.15262 l -0.7413,0.7413 c -0.0981,0.0981 -0.15261,0.23438 -0.15261,0.37064 0,0.13627 0.0545,0.27254 0.15261,0.37065 l 1.6025,1.6025 -1.6025,1.6025 c -0.0981,0.0981 -0.15261,0.23438 -0.15261,0.37065 0,0.13626 0.0545,0.27253 0.15261,0.37064 l 0.7413,0.7413 c 0.0981,0.0981 0.23438,0.15262 0.37064,0.15262 0.13627,0 0.27254,-0.0545 0.37065,-0.15262 l 1.6025,-1.6025 1.6025,1.6025 c 0.0981,0.0981 0.23438,0.15262 0.37065,0.15262 0.13626,0 0.27253,-0.0545 0.37064,-0.15262 l 0.7413,-0.7413 c 0.0981,-0.0981 0.15262,-0.23438 0.15262,-0.37064" />
        </g>
        <g
           id="text3996"
           style="font-size:11.18568039px;font-style:normal;font-variant:normal;font-weight:normal;font-stretch:normal;line-height:125%;letter-spacing:0px;word-spacing:0px;fill:#cfd5dd;fill-opacity:1;stroke:none;display:inline;font-family:FontAwesome;-inkscape-font-specification:FontAwesome"
           transform="matrix(1.0445639,0,0,0.95733732,-2.0891278,0)">
          <path
             id="path3027"
             style=""
             d="m 297.53234,409.13606 c 0,-0.33082 -0.26841,-0.59923 -0.59923,-0.59923 l -2.59668,0 0,-2.59668 c 0,-0.33082 -0.26841,-0.59923 -0.59923,-0.59923 l -1.19847,0 c -0.33082,0 -0.59923,0.26841 -0.59923,0.59923 l 0,2.59668 -2.59668,0 c -0.33082,0 -0.59923,0.26841 -0.59923,0.59923 l 0,1.19847 c 0,0.33082 0.26841,0.59923 0.59923,0.59923 l 2.59668,0 0,2.59668 c 0,0.33082 0.26841,0.59923 0.59923,0.59923 l 1.19847,0 c 0.33082,0 0.59923,-0.26841 0.59923,-0.59923 l 0,-2.59668 2.59668,0 c 0.33082,0 0.59923,-0.26841 0.59923,-0.59923 l 0,-1.19847" />
        </g>
        <rect
           ry="1"
           y="426.86221"
           x="92.012543"
           height="22"
           width="297.73093"
           id="rect4212"
           style="opacity:1;fill:#ffffff;fill-opacity:1;stroke:none;display:inline"
           transform="matrix(1.0445639,0,0,0.95733732,-2.0891278,0)" />
        <path
           sodipodi:type="arc"
           style="fill:#cfd5dd;fill-opacity:1;stroke:none;display:inline"
           id="path4389"
           sodipodi:cx="-990.02704"
           sodipodi:cy="600.73035"
           sodipodi:rx="11.552512"
           sodipodi:ry="11.552512"
           d="m -978.47453,600.73035 a 11.552512,11.552512 0 0 1 -11.55251,11.55251 11.552512,11.552512 0 0 1 -11.55256,-11.55251 11.552512,11.552512 0 0 1 11.55256,-11.55252 11.552512,11.552512 0 0 1 11.55251,11.55252 z"
           transform="matrix(1.4014909,0,0,1.284459,1479.4864,-352.47816)" />
        <rect
           style="opacity:0.9;fill:#ffffff;fill-opacity:1;stroke:none;display:inline"
           id="rect4704"
           width="123"
           height="22"
           x="395.5"
           y="426.86221"
           ry="1"
           transform="matrix(1.0445639,0,0,0.95733732,-2.0891278,0)" />
        <path
           inkscape:connector-curvature="0"
           id="text4232"
           d="m 537.875,430.11594 c -0.20346,0 -0.35789,0.17568 -0.4375,0.34375 l -2,4.03125 -4.4375,0.65625 c -0.22115,0.0354 -0.5,0.14087 -0.5,0.40625 0,0.15923 0.1126,0.29125 0.21875,0.40625 l 3.21875,3.125 -0.75,4.4375 c -0.009,0.0619 -0.0312,0.12558 -0.0312,0.1875 0,0.22999 0.11847,0.4375 0.375,0.4375 0.12384,0 0.22875,-0.0631 0.34375,-0.125 l 4,-2.0625 3.96875,2.0625 c 0.10615,0.0619 0.21991,0.125 0.34375,0.125 0.25653,0 0.375,-0.19866 0.375,-0.4375 0,-0.0619 -0.0224,-0.12558 -0.0312,-0.1875 l -0.75,-4.4375 3.21875,-3.125 c 0.115,-0.115 0.21875,-0.24702 0.21875,-0.40625 0,-0.26538 -0.2877,-0.37087 -0.5,-0.40625 l -4.4375,-0.65625 -2,-4.03125 c -0.0796,-0.16807 -0.20279,-0.34375 -0.40625,-0.34375 z m 0,3.53125 1.1875,2.46875 2.71875,0.40625 -1.96875,1.90625 0.46875,2.71875 -2.40625,-1.28125 -2.4375,1.28125 0.46875,-2.71875 -1.96875,-1.90625 2.71875,-0.40625 1.21875,-2.46875 z m -5.40625,2.4375 0.0625,0 c -0.004,0.012 -0.0296,0.018 -0.0312,0.0312 l -0.0312,-0.0312 z m 10.71875,0 0.0625,0 -0.0312,0.0312 c -0.002,-0.0132 -0.0276,-0.0192 -0.0312,-0.0312 z m -8.625,6.25 c 0.0182,0.014 0.0395,0.0229 0.0625,0.0312 l -0.0937,0.0625 0.0312,-0.0937 z m 6.59375,0 0.0312,0.0937 -0.0937,-0.0625 c 0.0226,-0.008 0.0447,-0.0176 0.0625,-0.0312 z"
           style="font-size:15.85188866px;font-style:normal;font-variant:normal;font-weight:normal;font-stretch:normal;line-height:125%;letter-spacing:0px;word-spacing:0px;fill:#698094;fill-opacity:1;stroke:none;display:inline;font-family:FontAwesome;-inkscape-font-specification:FontAwesome"
           transform="matrix(1.0445639,0,0,0.95733732,-2.0891278,0)" />
        <g
           id="text4243"
           style="font-size:15.0037756px;font-style:normal;font-variant:normal;font-weight:normal;font-stretch:normal;line-height:125%;letter-spacing:0px;word-spacing:0px;fill:#698094;fill-opacity:1;stroke:none;display:inline;font-family:FontAwesome;-inkscape-font-specification:FontAwesome"
           transform="matrix(1.0445639,0,0,0.95733732,-2.0891278,0)">
          <path
             id="path3018"
             style=""
             d="m 663.36038,441.25467 c 0,-0.29305 -0.24281,-0.53585 -0.53585,-0.53585 l -11.78868,0 c -0.29304,0 -0.53585,0.2428 -0.53585,0.53585 l 0,1.07169 c 0,0.29305 0.24281,0.53585 0.53585,0.53585 l 11.78868,0 c 0.29304,0 0.53585,-0.2428 0.53585,-0.53585 l 0,-1.07169 m 0,-4.2868 c 0,-0.29304 -0.24281,-0.53585 -0.53585,-0.53585 l -11.78868,0 c -0.29304,0 -0.53585,0.24281 -0.53585,0.53585 l 0,1.0717 c 0,0.29304 0.24281,0.53585 0.53585,0.53585 l 11.78868,0 c 0.29304,0 0.53585,-0.24281 0.53585,-0.53585 l 0,-1.0717 m 0,-4.28679 c 0,-0.29304 -0.24281,-0.53585 -0.53585,-0.53585 l -11.78868,0 c -0.29304,0 -0.53585,0.24281 -0.53585,0.53585 l 0,1.0717 c 0,0.29304 0.24281,0.53585 0.53585,0.53585 l 11.78868,0 c 0.29304,0 0.53585,-0.24281 0.53585,-0.53585 l 0,-1.0717" />
        </g>
        <path
           style="fill:#698094;fill-opacity:1;stroke:#697394;stroke-width:1px;stroke-linecap:round;stroke-linejoin:miter;stroke-opacity:1;display:inline"
           d="m 556.25238,443.17612 0,-11.9839 0,0 0,0"
           id="path4252"
           inkscape:connector-curvature="0"
           transform="matrix(1.0445639,0,0,0.95733732,-2.0891278,0)" />
        <path
           inkscape:connector-curvature="0"
           id="path4250"
           d="m 635.67679,443.80156 0,-11.9839 0,0 0,0"
           style="fill:#698094;fill-opacity:1;stroke:#697394;stroke-width:1px;stroke-linecap:round;stroke-linejoin:miter;stroke-opacity:1;display:inline"
           transform="matrix(1.0445639,0,0,0.95733732,-2.0891278,0)" />
        <g
           id="text4270"
           style="font-size:12.39563942px;font-style:normal;font-variant:normal;font-weight:normal;font-stretch:normal;line-height:125%;letter-spacing:0px;word-spacing:0px;fill:#698094;fill-opacity:1;stroke:none;display:inline;font-family:FontAwesome;-inkscape-font-specification:FontAwesome"
           transform="matrix(1.0445639,0,0,0.95733732,-2.0891278,0)">
          <path
             id="path3021"
             style=""
             d="m 507.60394,436.51313 c 0,1.70855 -1.39036,3.09891 -3.09891,3.09891 -1.70855,0 -3.09891,-1.39036 -3.09891,-3.09891 0,-1.70855 1.39036,-3.09891 3.09891,-3.09891 1.70855,0 3.09891,1.39036 3.09891,3.09891 m 3.54161,5.75512 c 0,-0.23519 -0.0968,-0.46346 -0.25594,-0.62255 l -2.3726,-2.37261 c 0.5603,-0.80931 0.85774,-1.77772 0.85774,-2.75996 0,-2.69079 -2.17893,-4.86972 -4.86972,-4.86972 -2.69079,0 -4.86972,2.17893 -4.86972,4.86972 0,2.69079 2.17893,4.86971 4.86972,4.86971 0.98224,0 1.95065,-0.29744 2.75997,-0.85773 l 2.3726,2.36568 c 0.1591,0.16602 0.38736,0.26286 0.62255,0.26286 0.4842,0 0.8854,-0.4012 0.8854,-0.8854" />
        </g>
        <path
           transform="matrix(0.99460644,0,0,0.91155156,1076.6089,-128.41484)"
           d="m -978.47453,600.73035 a 11.552512,11.552512 0 0 1 -11.55251,11.55251 11.552512,11.552512 0 0 1 -11.55256,-11.55251 11.552512,11.552512 0 0 1 11.55256,-11.55252 11.552512,11.552512 0 0 1 11.55251,11.55252 z"
           sodipodi:ry="11.552512"
           sodipodi:rx="11.552512"
           sodipodi:cy="600.73035"
           sodipodi:cx="-990.02704"
           id="path4706"
           style="opacity:1;fill:#698094;fill-opacity:1;stroke:none;display:inline"
           sodipodi:type="arc" />
        <g
           id="text4274"
           style="font-size:13.84648132px;font-style:normal;font-variant:normal;font-weight:normal;font-stretch:normal;line-height:125%;letter-spacing:0px;word-spacing:0px;fill:#fafbfc;fill-opacity:1;stroke:none;display:inline;font-family:FontAwesome;-inkscape-font-specification:FontAwesome"
           transform="matrix(1.0445639,0,0,0.95733732,-2.0891278,0)">
          <path
             id="path3014"
             style=""
             d="m 96.267827,436.8911 c 0,-0.52542 -0.347708,-0.98903 -0.90404,-0.98903 l -5.439689,0 2.263962,-2.26396 c 0.185444,-0.18545 0.293619,-0.44043 0.293619,-0.70315 0,-0.26271 -0.108175,-0.51769 -0.293619,-0.70314 l -0.579513,-0.57178 c -0.185443,-0.18545 -0.432702,-0.29362 -0.695414,-0.29362 -0.262712,0 -0.517698,0.10817 -0.703142,0.29362 l -5.030167,5.02244 c -0.177717,0.18544 -0.285893,0.44043 -0.285893,0.70314 0,0.26271 0.108176,0.5177 0.285893,0.69541 l 5.030167,5.0379 c 0.185444,0.17771 0.44043,0.28589 0.703142,0.28589 0.262712,0 0.517698,-0.10818 0.695414,-0.28589 l 0.579513,-0.58724 c 0.185444,-0.17772 0.293619,-0.4327 0.293619,-0.69542 0,-0.26271 -0.108175,-0.51769 -0.293619,-0.69541 l -2.263962,-2.27169 5.439689,0 c 0.556332,0 0.90404,-0.46361 0.90404,-0.98903 l 0,-0.98904" />
        </g>
        <path
           inkscape:connector-curvature="0"
           d="m 624.64328,437.93034 -6.19605,-5.63444 c -0.36198,-0.32917 -0.94793,-0.32922 -1.30987,0 l -6.19605,5.63444 1.59467,0 5.19009,-4.50252 5.27971,4.50252 z m -6.87238,-3.544 -4.34304,3.8595 c 0,0.0187 -0.004,5.12661 -0.004,5.12661 0,0.32762 0.21885,0.59908 0.48296,0.59908 l 2.89773,0 0,-4.3015 1.93182,0 0,4.3015 2.89772,0 c 0.26412,0 0.48315,-0.27146 0.48296,-0.59908 l -0.003,-5.12661 c 4.6e-4,-0.0187 -4.34283,-3.8595 -4.34283,-3.8595 z"
           style="font-size:16.13401794px;font-style:normal;font-variant:normal;font-weight:normal;font-stretch:normal;line-height:125%;letter-spacing:0px;word-spacing:0px;fill:#698094;fill-opacity:1;stroke:none;display:inline;font-family:FontAwesome;-inkscape-font-specification:FontAwesome"
           id="path4395"
           transform="matrix(1.0445639,0,0,0.95733732,-2.0891278,0)" />
        <g
           id="text4286"
           style="font-size:25.79707146px;font-style:normal;font-variant:normal;font-weight:normal;font-stretch:normal;line-height:125%;letter-spacing:0px;word-spacing:0px;fill:#698094;fill-opacity:1;stroke:none;display:inline;font-family:FontAwesome;-inkscape-font-specification:FontAwesome"
           transform="matrix(1.0158804,0,0,0.84041175,1093.6367,-112.11767)">
          <path
             style="fill:#698094;fill-opacity:1"
             sodipodi:nodetypes="cscsssscscccccccc"
             inkscape:connector-curvature="0"
             id="path4291"
             d="m -461.27609,632.3829 c -0.072,-0.17275 -0.23033,-0.27352 -0.41747,-0.27352 l -2.77929,0 0,-5.7839 c 0,-0.25912 -0.20154,-0.46066 -0.46066,-0.46066 l -3.58044,0 c -0.25912,0 -0.46066,0.20155 -0.46066,0.46066 l 0,5.7839 -2.85352,0 c -0.18714,0 -0.34549,0.11517 -0.41747,0.27352 -0.072,0.17275 -0.0432,0.35989 0.072,0.50385 l 5.11047,5.52794 c 0.0864,0.0864 0.21593,0.14396 0.34549,0.14396 l 0,0 c 0.12956,0 0.24473,-0.0576 0.3311,-0.14396 l 5.03849,-5.52794 c 0.11517,-0.14396 0.14396,-0.3311 0.072,-0.50385" />
        </g>
        <path
           d="m 365.66635,435.53161 c 0,-0.30903 -0.25605,-0.56508 -0.56508,-0.56508 l -7.91119,0 c -0.30903,0 -0.56508,0.25605 -0.56508,0.56508 0,0.15011 0.0618,0.29138 0.16776,0.39733 l 3.95559,4.39309 c 0.10595,0.10596 0.24723,0.16776 0.39733,0.16776 0.1501,0 0.29137,-0.0618 0.39732,-0.16776 l 3.95559,-4.39309 c 0.10596,-0.10595 0.16776,-0.24722 0.16776,-0.39733"
           id="path4227"
           inkscape:connector-curvature="0"
           sodipodi:nodetypes="csssccsccc"
           style="font-size:15.82236767px;font-style:normal;font-variant:normal;font-weight:normal;font-stretch:normal;line-height:125%;letter-spacing:0px;word-spacing:0px;fill:#698094;fill-opacity:1;stroke:none;font-family:FontAwesome;-inkscape-font-specification:FontAwesome"
           transform="matrix(1.0445639,0,0,0.95733732,-2.0891278,0)" />
        <g
           id="text4254"
           style="font-size:11.05208397px;font-style:normal;font-variant:normal;font-weight:normal;font-stretch:normal;line-height:125%;letter-spacing:0px;word-spacing:0px;fill:#698094;fill-opacity:1;stroke:none;display:inline;font-family:FontAwesome;-inkscape-font-specification:FontAwesome"
           transform="matrix(1.0445639,0,0,0.95733732,-2.0891278,0)">
          <path
             id="path3024"
             style=""
             d="m 383.01258,434.45212 c 0,-0.16035 -0.0987,-0.30221 -0.24053,-0.36388 -0.14802,-0.0617 -0.32071,-0.0308 -0.43172,0.0863 l -0.80177,0.79561 c -0.86961,-0.82027 -2.0476,-1.3075 -3.26258,-1.3075 -2.60884,0 -4.73661,2.12777 -4.73661,4.7366 0,2.60884 2.12777,4.73661 4.73661,4.73661 1.41234,0 2.74451,-0.62291 3.64496,-1.70839 0.0617,-0.0802 0.0617,-0.19735 -0.0123,-0.2652 l -0.84494,-0.8511 c -0.0432,-0.037 -0.0987,-0.0555 -0.15419,-0.0555 -0.0555,0.006 -0.11101,0.0308 -0.14185,0.074 -0.60441,0.78326 -1.51103,1.22732 -2.49165,1.22732 -1.73923,0 -3.15774,-1.41852 -3.15774,-3.15774 0,-1.73922 1.41851,-3.15774 3.15774,-3.15774 0.80793,0 1.5727,0.30838 2.15244,0.84495 l -0.85111,0.85111 c -0.11718,0.11101 -0.14802,0.2837 -0.0864,0.42555 0.0617,0.14802 0.20353,0.2467 0.36388,0.2467 l 2.76303,0 c 0.21586,0 0.39471,-0.17886 0.39471,-0.39472 l 0,-2.76302" />
        </g>
        <path
           inkscape:connector-curvature="0"
           id="rect4440"
           d="m 573.19214,430.83469 -2.4375,2.4375 -1.5,0 c -1.10382,0 -1.96875,0.89619 -1.96875,2 l 0,6.375 c 0,1.10382 0.86493,2 1.96875,2 l 7.875,0 c 1.10381,0 2,-0.89618 2,-2 l 0,-6.375 c 0,-1.10381 -0.89619,-2 -2,-2 l -1.5,0 -2.4375,-2.4375 z m -3.5625,4.25 c 0.5257,0 0.9375,0.4118 0.9375,0.9375 0,0.5257 -0.4118,0.96875 -0.9375,0.96875 -0.5257,0 -0.96875,-0.44305 -0.96875,-0.96875 0,-0.5257 0.44305,-0.9375 0.96875,-0.9375 z m 1.71875,0.3125 6.03125,0 c 0.0843,0 0.15625,0.0719 0.15625,0.15625 l 0,0.96875 c 0,0.0843 -0.0719,0.15625 -0.15625,0.15625 l -6.03125,0 c -0.0843,0 -0.15625,-0.0719 -0.15625,-0.15625 l 0,-0.96875 c 0,-0.0843 0.0719,-0.15625 0.15625,-0.15625 z m -1.71875,2.21875 c 0.5257,0 0.9375,0.44305 0.9375,0.96875 0,0.5257 -0.4118,0.9375 -0.9375,0.9375 -0.5257,0 -0.96875,-0.4118 -0.96875,-0.9375 0,-0.5257 0.44305,-0.96875 0.96875,-0.96875 z m 1.71875,0.3125 6.03125,0 c 0.0843,0 0.15625,0.0719 0.15625,0.15625 l 0,0.96875 c 0,0.0843 -0.0719,0.15625 -0.15625,0.15625 l -6.03125,0 c -0.0843,0 -0.15625,-0.0719 -0.15625,-0.15625 l 0,-0.96875 c 0,-0.0843 0.0719,-0.15625 0.15625,-0.15625 z m -1.71875,2.21875 c 0.5257,0 0.9375,0.44305 0.9375,0.96875 0,0.5257 -0.4118,0.9375 -0.9375,0.9375 -0.5257,0 -0.96875,-0.4118 -0.96875,-0.9375 0,-0.5257 0.44305,-0.96875 0.96875,-0.96875 z m 1.71875,0.34375 6.03125,0 c 0.0843,0 0.15625,0.0719 0.15625,0.15625 l 0,0.9375 c 0,0.0843 -0.0719,0.15625 -0.15625,0.15625 l -6.03125,0 c -0.0843,0 -0.15625,-0.0719 -0.15625,-0.15625 l 0,-0.9375 c 0,-0.0843 0.0719,-0.15625 0.15625,-0.15625 z"
           style="fill:#698094;fill-opacity:1;stroke:none;display:inline"
           transform="matrix(1.0445639,0,0,0.95733732,-2.0891278,0)" />
        <g
           transform="scale(1.0445639,0.95733732)"
           style="font-style:normal;font-variant:normal;font-weight:normal;font-stretch:normal;font-size:10px;line-height:125%;font-family:'Noto Sans CJK TC';-inkscape-font-specification:'Noto Sans CJK TC';text-align:start;letter-spacing:0px;word-spacing:0px;writing-mode:lr-tb;text-anchor:start;display:inline;fill:#666666;fill-opacity:1;stroke:none"
           id="text4555">
          <path
             d="m 142.46191,409.18643 -2.59765,0 0,6.41113 -0.9668,0 0,-6.41113 -2.59766,0 0,-0.85937 6.16211,0 0,0.85937 z"
             style=""
             id="path20098" />
          <path
             d="m 147.93555,415.59756 -0.91797,0 0,-3.10546 q 0,-0.37598 -0.0439,-0.70313 -0.0439,-0.33203 -0.16113,-0.51758 -0.12207,-0.20508 -0.35156,-0.30273 -0.22949,-0.10254 -0.59571,-0.10254 -0.37597,0 -0.78613,0.18555 -0.41015,0.18554 -0.78613,0.47363 l 0,4.07226 -0.91797,0 0,-7.59765 0.91797,0 0,2.74902 q 0.42969,-0.35644 0.88867,-0.55664 0.45898,-0.20019 0.94238,-0.20019 0.88379,0 1.34766,0.53222 0.46387,0.53223 0.46387,1.53321 l 0,3.54003 z"
             style=""
             id="path20100" />
          <path
             d="m 154.26855,412.96573 -4.01855,0 q 0,0.50293 0.15137,0.87891 0.15136,0.37109 0.41504,0.61035 0.2539,0.23437 0.60058,0.35156 0.35156,0.11719 0.77149,0.11719 0.55664,0 1.11816,-0.21973 0.56641,-0.22461 0.80566,-0.43945 l 0.0488,0 0,1.00097 q -0.46386,0.19532 -0.94726,0.32715 -0.4834,0.13184 -1.01563,0.13184 -1.35742,0 -2.11914,-0.73242 -0.76172,-0.73731 -0.76172,-2.08985 0,-1.33789 0.72754,-2.12402 0.73242,-0.78613 1.92383,-0.78613 1.10352,0 1.69922,0.64453 0.60058,0.64453 0.60058,1.83105 l 0,0.49805 z M 153.375,412.2626 q -0.005,-0.72265 -0.36621,-1.11816 -0.35645,-0.39551 -1.08887,-0.39551 -0.7373,0 -1.17676,0.43457 -0.43457,0.43457 -0.49316,1.0791 l 3.125,0 z"
             style=""
             id="path20102" />
          <path
             d="m 161.8125,415.59756 -2.87109,0 0,-0.74218 0.95214,0 0,-5.78614 -0.95214,0 0,-0.74218 2.87109,0 0,0.74218 -0.95215,0 0,5.78614 0.95215,0 0,0.74218 z"
             style=""
             id="path20104" />
          <path
             d="m 167.93555,415.59756 -0.91797,0 0,-3.10546 q 0,-0.37598 -0.0439,-0.70313 -0.0439,-0.33203 -0.16113,-0.51758 -0.12207,-0.20508 -0.35156,-0.30273 -0.22949,-0.10254 -0.59571,-0.10254 -0.37597,0 -0.78613,0.18555 -0.41015,0.18554 -0.78613,0.47363 l 0,4.07226 -0.91797,0 0,-5.4541 0.91797,0 0,0.60547 q 0.42969,-0.35644 0.88867,-0.55664 0.45898,-0.20019 0.94238,-0.20019 0.88379,0 1.34766,0.53222 0.46387,0.53223 0.46387,1.53321 l 0,3.54003 z"
             style=""
             id="path20106" />
          <path
             d="m 172.53516,415.54874 q -0.25879,0.0684 -0.56641,0.1123 -0.30273,0.0439 -0.54199,0.0439 -0.83496,0 -1.26953,-0.44922 -0.43457,-0.44922 -0.43457,-1.44043 l 0,-2.90039 -0.62012,0 0,-0.77149 0.62012,0 0,-1.56738 0.91796,0 0,1.56738 1.89454,0 0,0.77149 -1.89454,0 0,2.48535 q 0,0.42969 0.0195,0.67383 0.0195,0.23926 0.13671,0.44922 0.10743,0.19531 0.29297,0.28808 0.19043,0.0879 0.57618,0.0879 0.2246,0 0.46875,-0.0635 0.24414,-0.0684 0.35156,-0.11231 l 0.0488,0 0,0.8252 z"
             style=""
             id="path20108" />
          <path
             d="m 178.21387,412.96573 -4.01856,0 q 0,0.50293 0.15137,0.87891 0.15137,0.37109 0.41504,0.61035 0.2539,0.23437 0.60058,0.35156 0.35157,0.11719 0.77149,0.11719 0.55664,0 1.11816,-0.21973 0.56641,-0.22461 0.80567,-0.43945 l 0.0488,0 0,1.00097 q -0.46387,0.19532 -0.94727,0.32715 -0.4834,0.13184 -1.01563,0.13184 -1.35742,0 -2.11914,-0.73242 -0.76171,-0.73731 -0.76171,-2.08985 0,-1.33789 0.72753,-2.12402 0.73243,-0.78613 1.92383,-0.78613 1.10352,0 1.69922,0.64453 0.60059,0.64453 0.60059,1.83105 l 0,0.49805 z m -0.89356,-0.70313 q -0.005,-0.72265 -0.36621,-1.11816 -0.35644,-0.39551 -1.08887,-0.39551 -0.7373,0 -1.17675,0.43457 -0.43457,0.43457 -0.49317,1.0791 l 3.125,0 z"
             style=""
             id="path20110" />
          <path
             d="m 183.00879,411.14444 -0.0488,0 q -0.20508,-0.0488 -0.40039,-0.0684 -0.19043,-0.0244 -0.4541,-0.0244 -0.42481,0 -0.82031,0.19043 -0.39551,0.18554 -0.76172,0.48339 l 0,3.87207 -0.91797,0 0,-5.4541 0.91797,0 0,0.80567 q 0.54687,-0.43946 0.96191,-0.62012 0.41992,-0.18555 0.85449,-0.18555 0.23926,0 0.34668,0.0147 0.10743,0.01 0.32227,0.0439 l 0,0.94238 z"
             style=""
             id="path20112" />
          <path
             d="m 188.44336,415.59756 -0.91797,0 0,-3.10546 q 0,-0.37598 -0.0439,-0.70313 -0.0439,-0.33203 -0.16114,-0.51758 -0.12207,-0.20508 -0.35156,-0.30273 -0.22949,-0.10254 -0.5957,-0.10254 -0.37598,0 -0.78614,0.18555 -0.41015,0.18554 -0.78613,0.47363 l 0,4.07226 -0.91797,0 0,-5.4541 0.91797,0 0,0.60547 q 0.42969,-0.35644 0.88867,-0.55664 0.45899,-0.20019 0.94239,-0.20019 0.88378,0 1.34765,0.53222 0.46387,0.53223 0.46387,1.53321 l 0,3.54003 z"
             style=""
             id="path20114" />
          <path
             d="m 194.77637,412.96573 -4.01856,0 q 0,0.50293 0.15137,0.87891 0.15137,0.37109 0.41504,0.61035 0.2539,0.23437 0.60058,0.35156 0.35157,0.11719 0.77149,0.11719 0.55664,0 1.11816,-0.21973 0.56641,-0.22461 0.80567,-0.43945 l 0.0488,0 0,1.00097 q -0.46387,0.19532 -0.94727,0.32715 -0.4834,0.13184 -1.01563,0.13184 -1.35742,0 -2.11914,-0.73242 -0.76171,-0.73731 -0.76171,-2.08985 0,-1.33789 0.72753,-2.12402 0.73243,-0.78613 1.92383,-0.78613 1.10352,0 1.69922,0.64453 0.60059,0.64453 0.60059,1.83105 l 0,0.49805 z m -0.89356,-0.70313 q -0.005,-0.72265 -0.36621,-1.11816 -0.35644,-0.39551 -1.08887,-0.39551 -0.7373,0 -1.17675,0.43457 -0.43457,0.43457 -0.49317,1.0791 l 3.125,0 z"
             style=""
             id="path20116" />
          <path
             d="m 199,415.54874 q -0.25879,0.0684 -0.56641,0.1123 -0.30273,0.0439 -0.54199,0.0439 -0.83496,0 -1.26953,-0.44922 -0.43457,-0.44922 -0.43457,-1.44043 l 0,-2.90039 -0.62012,0 0,-0.77149 0.62012,0 0,-1.56738 0.91797,0 0,1.56738 1.89453,0 0,0.77149 -1.89453,0 0,2.48535 q 0,0.42969 0.0195,0.67383 0.0195,0.23926 0.13672,0.44922 0.10742,0.19531 0.29297,0.28808 0.19043,0.0879 0.57617,0.0879 0.22461,0 0.46875,-0.0635 0.24414,-0.0684 0.35156,-0.11231 l 0.0488,0 0,0.8252 z"
             style=""
             id="path20118" />
        </g>
        <rect
           ry="0"
           rx="0"
           y="461.38986"
           x="75.869339"
           height="206.33589"
           width="596.76324"
           id="rect19642"
           style="opacity:1;fill:#ffffff;fill-opacity:1;stroke:none;stroke-width:2;stroke-linecap:round;stroke-linejoin:round;stroke-miterlimit:4;stroke-dasharray:none;stroke-opacity:1"
           transform="matrix(1.0445639,0,0,0.95733732,-2.0891278,0)" />
        <g
           transform="matrix(0.47239471,0,0,0.3843441,178.35426,397.92846)"
           inkscape:label="Layer 1"
           id="layer1-3">
          <path
             sodipodi:start="3.1415927"
             sodipodi:end="6.2831853"
             sodipodi:cx="440"
             sodipodi:cy="160"
             transform="matrix(1.2941,0,0,3.3846,-119.41,48.462)"
             sodipodi:open="true"
             d="M 100,159.99999 A 340,130 0 0 1 440.00001,30 340,130 0 0 1 780,160"
             sodipodi:type="arc"
             style="fill:none;stroke:#ff0000;stroke-width:9.55630016;stroke-linecap:square;stroke-linejoin:round"
             sodipodi:ry="130"
             sodipodi:rx="340"
             id="path3155" />
          <path
             sodipodi:start="3.1415927"
             sodipodi:end="6.2831853"
             sodipodi:cx="440"
             sodipodi:cy="160"
             transform="matrix(1.2353,0,0,3.2308,-93.529,73.077)"
             sodipodi:open="true"
             d="M 100,159.99999 A 340,130 0 0 1 440.00001,30 340,130 0 0 1 780,160"
             sodipodi:type="arc"
             style="fill:none;stroke:#ff7f00;stroke-width:10.01099968;stroke-linecap:square;stroke-linejoin:round"
             sodipodi:ry="130"
             sodipodi:rx="340"
             id="path3163" />
          <path
             sodipodi:start="3.1415927"
             sodipodi:end="6.2831853"
             sodipodi:cx="440"
             sodipodi:cy="160"
             transform="matrix(1.1765,0,0,3.0769,-67.647,97.692)"
             sodipodi:open="true"
             d="M 100,159.99999 A 340,130 0 0 1 440.00001,30 340,130 0 0 1 780,160"
             sodipodi:type="arc"
             style="fill:none;stroke:#ffff00;stroke-width:10.51200008;stroke-linecap:square;stroke-linejoin:round"
             sodipodi:ry="130"
             sodipodi:rx="340"
             id="path3165" />
          <path
             sodipodi:start="3.1415927"
             sodipodi:end="6.2831853"
             sodipodi:cx="440"
             sodipodi:cy="160"
             transform="matrix(1.1176,0,0,2.9231,-41.765,122.31)"
             sodipodi:open="true"
             d="M 100,159.99999 A 340,130 0 0 1 440.00001,30 340,130 0 0 1 780,160"
             sodipodi:type="arc"
             style="fill:none;stroke:#00ff00;stroke-width:11.06499958;stroke-linecap:square;stroke-linejoin:round"
             sodipodi:ry="130"
             sodipodi:rx="340"
             id="path3167" />
          <path
             sodipodi:start="3.1415927"
             sodipodi:end="6.2831853"
             sodipodi:cx="440"
             sodipodi:cy="160"
             transform="matrix(1.0588,0,0,2.7692,-15.882,146.92)"
             sodipodi:open="true"
             d="M 100,159.99999 A 340,130 0 0 1 440.00001,30 340,130 0 0 1 780,160"
             sodipodi:type="arc"
             style="fill:none;stroke:#0000ff;stroke-width:11.68000031;stroke-linecap:square;stroke-linejoin:round"
             sodipodi:ry="130"
             sodipodi:rx="340"
             id="path3169" />
          <path
             sodipodi:start="3.1415927"
             sodipodi:end="6.2831853"
             sodipodi:cx="440"
             sodipodi:cy="160"
             transform="matrix(1,0,0,2.6154,10,171.54)"
             sodipodi:open="true"
             d="M 100,159.99999 A 340,130 0 0 1 440.00001,30 340,130 0 0 1 780,160"
             sodipodi:type="arc"
             style="fill:none;stroke:#6600ff;stroke-width:12.36699963;stroke-linecap:square;stroke-linejoin:round"
             sodipodi:ry="130"
             sodipodi:rx="340"
             id="path3171" />
          <path
             sodipodi:start="3.1415927"
             sodipodi:end="6.2831853"
             sodipodi:cx="440"
             sodipodi:cy="160"
             transform="matrix(0.94118,0,0,2.4615,35.882,196.15)"
             sodipodi:open="true"
             d="M 100,159.99999 A 340,130 0 0 1 440.00001,30 340,130 0 0 1 780,160"
             sodipodi:type="arc"
             style="fill:none;stroke:#8b00ff;stroke-width:13.14000034;stroke-linecap:square;stroke-linejoin:round"
             sodipodi:ry="130"
             sodipodi:rx="340"
             id="path3173" />
        </g>
        <g
           id="g20061"
           transform="matrix(0.47239471,0,0,0.3843441,285.05589,452.78966)">
          <g
             transform="translate(-127.71,-219.18)"
             inkscape:label="Water"
             id="layer1-32">
            <g
               inkscape:groupmode="layer"
               inkscape:label="Shape"
               id="layer7">
              <circle
                 transform="translate(11.555,1.8245)"
                 style="color:#000000;fill:url(#linearGradient4204)"
                 id="path2241"
                 cx="340.26733"
                 cy="441.46219"
                 r="224.10817" />
              <circle
                 transform="translate(11.555,1.8245)"
                 style="color:#000000;fill:url(#radialGradient11161)"
                 id="path11159"
                 cx="340.26733"
                 cy="441.46219"
                 r="224.10817" />
            </g>
            <g
               inkscape:groupmode="layer"
               inkscape:label="Highlights-Water"
               id="layer6">
              <path
                 d="m 351.84,234.56 c -109.3,0 -199.27,82.32 -211.34,188.38 55.43,-33.94 129.7,-54.72 211.31,-54.72 81.61,0 155.89,20.78 211.31,54.72 C 551.05,316.88 461.14,234.56 351.84,234.56 Z"
                 style="color:#000000;fill:url(#radialGradient10082)"
                 id="path10070"
                 inkscape:connector-curvature="0" />
              <path
                 d="m 351.84,274.56 c -109.3,0 -211.73,84.15 -207.34,188.38 55.43,-33.94 125.7,-54.72 207.31,-54.72 81.61,0 151.89,20.78 207.31,54.72 5.01,-103.01 -97.98,-188.38 -207.28,-188.38 z"
                 style="color:#000000;fill:#ffffff;fill-opacity:0.40273001;filter:url(#filter15171)"
                 sodipodi:nodetypes="ccscc"
                 id="path10090"
                 inkscape:connector-curvature="0" />
              <path
                 d="m 177.34,564.84 c 38.43,55.06 102.23,91.07 174.5,91.07 72.29,0 136.09,-36 174.5,-91.07 -47.25,30.1 -108.07,48.19 -174.5,48.19 -66.41,0 -127.24,-18.1 -174.5,-48.19 z"
                 style="color:#000000;fill:url(#radialGradient14184);filter:url(#filter14172)"
                 id="path12141"
                 inkscape:connector-curvature="0" />
            </g>
          </g>
          <g
             transform="translate(-127.71,-219.18)"
             inkscape:label="Continents"
             id="layer3">
            <g
               inkscape:groupmode="layer"
               inkscape:label="Shapes"
               id="layer4">
              <path
                 d="m 370.98,650.97 13.38,-8.51 -6.37,-6.67 17.92,-37.12 c -1.19,-10.77 -0.18,-20.59 3.05,-30.41 l -9.74,-6.08 -16.17,-2.43 -2.36,-12.82 -9.37,-7.54 -0.68,-10.1 -11.55,-10.29 1.84,-10.94 8.86,-2.75 -10.7,-10.63 10.33,-7.91 8.52,-1.82 -7.59,-8.79 11.85,-9.46 c 2.07,-8.55 5.1,-15.84 10.02,-23.76 l -0.29,-12.12 4.21,-0.32 4.57,-9.12 10.07,-1.51 15.2,3.04 -0.31,5.45 15.45,-1.46 19.53,8.18 7.91,7.29 12.77,0.61 c 7.05,5.44 11.71,10.16 12.04,12.3 0.34,2.17 3.44,7.26 9.24,12.03 l -3.04,10.34 8.52,7.9 9.12,0.61 4.26,4.87 10.94,0 1.22,7.3 8.51,0 0,12.77 c -15.85,14.24 -20.67,45.69 -28.6,54.1 -5.91,6.26 -15.53,8.98 -26.13,11.58 l -6.13,14.62 c -9.73,8.47 -10.68,13.34 -17.52,19.1 -2.77,2.33 -6.08,3.33 -10.07,4.52 l -2.16,-7.83 2.43,-3.65 -6.69,3.65 -3.65,7.9 -0.63,6.01 -13.02,8.86 -16.49,2.16 -1.53,6.64 c -10.67,4.41 -12.5,7.88 -12.12,10.39 l -18.85,1.82 z"
                 style="fill:#226e00;fill-rule:evenodd"
                 sodipodi:nodetypes="cccccccccccccccccccccccccccccscccccccccsccsccccccccccc"
                 id="path5176"
                 inkscape:connector-curvature="0" />
              <path
                 d="m 341.68,438.79 c -3.16,-6.95 -13.59,-9.86 -18.95,-15.16 l -1.89,-11.36 c -6.95,0.94 -12.95,1.26 -19.9,-0.95 -0.73,-2.42 -1.47,-4.84 -2.21,-7.26 l -12,-6.95 -7.58,6.63 c -16.84,-1.79 -15.36,-7.68 -34.42,-19.58 l -0.94,-13.26 c -3.48,-8.32 -6,-16.63 -13.27,-24 l 0.32,-9.16 -5.05,-2.84 0,17.68 7.58,10.42 0.31,8.85 C 223.05,357.42 220,344.58 219.79,329.53 c -4.09,-9.98 -3.48,-6.95 -3.48,-6.95 l 0.32,-10.73 c 3.26,-13.06 7.47,-20.42 20.21,-33.48 2,-12.42 10.63,-17.58 16.1,-25.89 12.21,-7.58 37.06,-18 64.11,-20.84 l 42.95,-2.53 18.94,6.32 2.21,8.21 -6.63,-4.42 -12.95,-0.64 -2.84,-5.05 -11.05,0.63 0.32,5.06 -15.48,0.31 -13.58,6.32 c 0.74,6.63 18.53,7.89 28.74,12.31 l 6.63,6.32 -1.89,-8.21 4.42,-4.42 -3.79,-4.11 -0.95,-7.26 c 11.89,0.74 22.84,3.37 25.26,7.89 l 8.85,-1.58 c 8.84,9.06 17.36,12.43 28.42,15.79 1.36,6.64 4.63,9.48 9.79,11.37 l -6.64,1.9 -6.63,-3.48 -0.63,-8.21 -6.95,5.06 -12,-2.22 -6,3.16 9.79,-0.94 5.69,13.89 -13.9,2.21 -4.42,4.74 1.26,5.37 -4.42,0.63 -4.1,6.31 -4.42,-2.84 -4.42,2.53 3.47,9.15 c -6.84,8.32 -20.32,16.64 -23.37,28.74 l 7.27,9.16 -0.64,10.74 -4.73,0.63 -5.37,-7.9 -0.32,-9.47 -15.47,-8.53 c -8.63,0.32 -14.42,1.27 -20.21,5.69 l -13.9,-1.9 -15.15,12 3.79,6 -5.06,12.95 4.74,12.63 7.89,7.9 14.85,-3.16 10.42,-11.37 6,0.31 -0.63,7.9 -5.69,5.05 0,12 18.63,-0.31 c 0.74,5.05 4.63,6.31 6.95,9.47 l -2.53,16.42 5.69,6.63 -1.58,6 z"
                 style="fill:#226e00;fill-rule:evenodd"
                 sodipodi:nodetypes="cccccccccccccccccccccccccccccccccccccccccccccccccccccccccccccccccccccccccccccccccc"
                 id="path6147"
                 inkscape:connector-curvature="0" />
            </g>
            <g
               inkscape:groupmode="layer"
               inkscape:label="Highlights"
               id="layer5">
              <path
                 d="m 348.94,323.53 c -10.31,-10 -17.02,-17 -36.94,-18 -19.54,-0.96 -31.43,10.83 -48.32,18 -11.32,4.81 -27.37,8 -36.31,7.26 l -8.22,-10.73 c -2.94,-11.37 9.58,-27.48 20.53,-36.95 l 2.53,-12 c 6.52,-8.21 13.31,-15.87 22.42,-20.84 10.89,-5.95 23.68,-9.16 41.68,-13.26 l 26.21,-3.16 -19.26,10.73 0.31,6.64 24,8.21 c 5.58,5.68 10.53,10.42 16.74,11.36 l 8.84,0.32 -3.79,-11.05 6.95,-3.79 -6,-10.42 11.37,4.42 11.05,-0.32 9.16,7.58 0.32,3.47 -9.79,5.37 -1.9,8.21 11.05,0 0.95,4.74 -12.63,6.63 -0.32,7.9 c -5.79,3.58 -13.02,2.59 -16.42,6.94 -2.63,3.37 -0.84,9.9 -0.31,12.95 l -13.9,9.79 z"
                 style="fill:url(#radialGradient9072);fill-rule:evenodd"
                 sodipodi:nodetypes="cssccccsccccccccccccccccccccscc"
                 id="path7122"
                 inkscape:connector-curvature="0" />
              <path
                 d="m 377.05,543 0,-15.16 -16.42,-10.1 6.31,-6.32 0.63,-16.73 7.27,0.31 -3.48,-22.42 6.63,-3.16 19.9,-38.21 6.63,3.16 25.26,-3.16 10.11,10.42 21.47,4.74 14.53,9.16 7.26,12 3.16,15.16 19.58,12 9.79,0.63 9.79,13.89 c -14.63,13.79 -30.58,29.59 -52.42,36.63 -12.33,3.98 -26.96,3.79 -38.21,9.79 -10.65,5.68 -18.95,13.69 -27.48,25.27 l -4.42,-16.74 c -9.89,-5.79 -19.79,-11.9 -25.89,-21.16 z"
                 style="fill:url(#radialGradient10051);fill-rule:evenodd"
                 sodipodi:nodetypes="cccccccccccccccccccssccc"
                 id="path9074"
                 inkscape:connector-curvature="0" />
            </g>
          </g>
        </g>
      </g>
    </g>
  </g>
</svg>
