<svg xmlns:svg="http://www.w3.org/2000/svg" viewBox="0 0 100 100"><svg:g><svg:path d="M 69.68938211582977,23.27319210172833 L 66.95889818255735,17.51907347525747 L 62.33369334154824,12.729703216626753 L 57.32771062568929,10.236176019115064 L 52.054123293494925,10.671910106010408 L 41.38967821211896,16.552070676485165 L 41.14625542621043,35.950083125314436 L 58.737276397622175,46.408703323496816 L 61.50466340860766,46.57485679493796 L 69.68935346437192,41.61087652285487 L 69.68938211582977,23.27319210172833 L 69.68938211582977,23.27319210172833" fill="none" stroke="black" /><svg:path d="M 50.27211722094706,63.590352939612345 L 69.68935346437192,53.60092143874388 L 69.68935346437192,41.61087652285487 L 66.225105695516,37.247838307578334 L 50.00766426497534,29.183339670309685 L 30.34064461199886,42.45248693463042 L 30.321333529406775,51.95973904216022 L 50.27211722094706,63.590352939612345 L 50.27211722094706,63.590352939612345" fill="none" stroke="black" /><svg:g><svg:path d="M 46.98696971512248,60.621248549599464 L 47.12154561265218,87.28010858573603 L 50.00488507356373,90.0 L 55.8258012051002,87.06876070052422 L 56.03607425427424,59.02619787134152 L 53.0989846584328,56.90504272904783 L 46.98696971512248,60.621248549599464 L 46.98696971512248,60.621248549599464" fill="none" stroke="black" /><svg:path d="M 69.68938211582977,64.18046097704402 L 69.68935346437192,53.60092143874388 L 65.43764902791833,51.135101534794174 L 61.26992201442822,54.02477061167076 L 61.040910911819125,79.69657992997617 L 64.02261082753576,82.97737585458606 L 69.6594986452904,80.1486730646955 L 69.68938211582977,64.18046097704402 L 69.68938211582977,64.18046097704402" fill="none" stroke="black" /><svg:path d="M 30.31121956478511,74.5317675534218 L 30.35087318245194,80.25799500210704 L 33.15473349928271,81.64583045668817 L 39.24419974526371,78.78251734293403 L 39.73130318020142,50.892933337015315 L 36.58987138696125,49.516191138549175 L 30.321333529406775,51.95973904216022 L 30.31121956478511,74.5317675534218 L 30.31121956478511,74.5317675534218" fill="none" stroke="black" /><svg:path d="M 53.25023570443222,43.961058170690066 L 50.00766426497534,42.583996683158254 L 44.16296742342191,44.86782827324131 L 44.426646790031626,72.97600976184847 L 47.4278010456296,74.69127033838983 L 53.07904324376797,71.86776148025848 L 53.25023570443222,43.961058170690066 L 53.25023570443222,43.961058170690066" fill="none" stroke="black" /></svg:g></svg:g></svg>