<svg xmlns:svg="http://www.w3.org/2000/svg" viewBox="0 0 100 100"><svg:g><svg:path d="M 45.52208843505027,14.541777307146972 L 47.323468736501574,17.773335245111866 L 50.79985199542703,18.493325225941582 L 54.635761794975004,13.941849273094014 L 49.999982650007695,10.0 L 45.52208843505027,14.541777307146972 L 45.52208843505027,14.541777307146972" fill="none" stroke="black" /><svg:path d="M 43.818874390082044,22.736005408792117 L 48.40017455919979,25.721245085440653 L 54.370653912496856,24.9213410400367 L 56.18105620994872,22.736022758784426 L 55.97042730332014,16.20080134221336 L 51.599756040830975,14.015465710968783 L 45.62927668753391,14.815335056388122 L 43.818874390082044,17.00068803762501 L 43.818874390082044,22.736005408792117 L 43.818874390082044,22.736005408792117" fill="none" stroke="black" /><svg:path d="M 35.391080926107975,69.48561994778397 L 36.51341722857828,86.17918508844332 L 39.40014364889757,89.42550505878168 L 45.97402103470935,89.82274008000519 L 52.84454858901665,88.13351724336425 L 58.8697498180556,85.12207176262433 L 62.98718059280583,80.67306563554808 L 64.65000385567922,64.74093170444712 L 63.2802219629011,27.872289440358184 L 61.346704120026146,24.78523592076607 L 53.27295459910502,20.1661108447197 L 44.789051260004356,21.131841336013217 L 37.293056482965575,32.90063742368263 L 35.391080926107975,69.48561994778397 L 35.391080926107975,69.48561994778397" fill="none" stroke="black" /></svg:g></svg>