<?xml version="1.0"?>
<svg xmlns:rdf="http://www.w3.org/1999/02/22-rdf-syntax-ns#" xmlns="http://www.w3.org/2000/svg" xmlns:cc="http://creativecommons.org/ns#" xmlns:xlink="http://www.w3.org/1999/xlink" xmlns:dc="http://purl.org/dc/elements/1.1/" xmlns:svg="http://www.w3.org/2000/svg" id="svg2" viewBox="0 0 768 768" version="1.1">
  <defs id="defs4">
    <clipPath id="clipPathFlag" clipPathUnits="userSpaceOnUse">
      <rect id="rect3918" fill-opacity=".67" ry="57" height="511" width="511" y=".5" x=".5"/>
    </clipPath>
    <linearGradient id="linearGradient3852-0">
      <stop id="stop3854-6" stop-color="#dbe3db" offset="0"/>
      <stop id="stop3856-1" stop-color="#dbe3db" stop-opacity="0" offset="1"/>
    </linearGradient>
    <linearGradient id="linearGradient5122" x1="342.19" xlink:href="#linearGradient3852-0" gradientUnits="userSpaceOnUse" y1="705.76" gradientTransform="matrix(1.1571 0 0 1.3167 -91.204 -253.99)" x2="358.08" y2="523.41"/>
    <linearGradient id="linearGradient5125" x1="405.26" xlink:href="#linearGradient3852-0" gradientUnits="userSpaceOnUse" y1="118.06" gradientTransform="matrix(.95303 0 0 .86647 11.575 -4.5016)" x2="405.75" y2="360.92"/>
    <filter id="filter5740">
      <feGaussianBlur id="feGaussianBlur5742" stdDeviation="5.12"/>
    </filter>
    <clipPath id="clipPath5796" clipPathUnits="userSpaceOnUse">
      <rect id="rect5798" ry="57" height="512" width="512" stroke="#00fa00" y="0" x="0" stroke-width="20" fill="none"/>
    </clipPath>
    <filter id="filter5912">
      <feGaussianBlur id="feGaussianBlur5914" stdDeviation="17.92"/>
    </filter>
  </defs>
  <g id="template-button">&gt;
  <g id="00" transform="translate(90,90)"><rect id="shadow" ry="57" height="512" filter="url(#filter5912)" width="512" stroke="#a8a8a8" y="56" x="38" stroke-width="5"/></g>
  <g id="01" transform="translate(128,128)" clip-path="url(#clipPathFlag)"><rect id="mask" ry="57" height="512" width="512" y="0" x="0" fill="#00f"/><g id="flag" transform="matrix(1.0321 0 0 1.0321 -128 .000045636)" clip-path="url(#clipPath5627)"><rect id="rect815" fill-rule="evenodd" height="496.06" width="744.09" y="-.000048" x="0" stroke-width="1pt" fill="#1b0073"/><rect id="rect837" fill-rule="evenodd" height="248.03" width="744.09" y="124.02" x="0" stroke-width="1pt" fill="#e60006"/><g id="g1595" transform="translate(0 .00017548)"><rect id="rect1035" fill-rule="evenodd" transform="translate(0 354.33)" height="50.992" width="315.35" stroke="#e60000" y="-113.98" x="214.37" stroke-width="1.1702" fill="#fff"/><path id="path632" d="m220 280-5 15h320l-5-15h-310z" fill-rule="evenodd" transform="matrix(1.0187 0 0 .79988 -9.9654 67.378)" stroke="#e60000" stroke-width="1.25" fill="#fff"/><path id="path982" d="m245 280-5 15h60l-5-15h-50z" fill-rule="evenodd" transform="matrix(1.2359 0 0 .79988 160.47 67.379)" stroke="#e60000" stroke-width="1.1225" fill="#fff"/><path id="path983" d="m245 280-5 15h60l-5-15h-50z" fill-rule="evenodd" transform="matrix(.62245 0 0 .79988 328.64 67.379)" stroke="#e60000" stroke-width="1.5196" fill="#fff"/><path id="path984" d="m245 280-5 15h60l-5-15h-50z" fill-rule="evenodd" transform="matrix(.40229 0 0 .79988 388.1 67.379)" stroke="#e60000" stroke-width="2.0241" fill="#fff"/><path id="path636" d="m245 280-5 15h60l-5-15h-50z" fill-rule="evenodd" transform="matrix(1.2992 0 0 .79988 21.26 67.378)" stroke="#e60000" stroke-width="1.0977" fill="#fff"/><rect id="rect976" fill-rule="evenodd" height="11.998" width="318.9" stroke="#e60000" y="239.58" x="212.6" stroke-width=".94885pt" fill="#fff"/><g id="g1527"><rect id="rect1001" fill-rule="evenodd" transform="translate(0 354.33)" height="50.792" width="62.5" stroke="#e60000" y="-113.87" x="462.79" stroke-width=".8934pt" fill="#fff"/><rect id="rect637" fill-rule="evenodd" transform="translate(0 354.33)" height="26.986" width="6.25" stroke="#e60000" y="-90.068" x="507.5" stroke-width=".80466" fill="#fff"/><rect id="rect639" fill-rule="evenodd" transform="translate(0 354.33)" height="26.986" width="6.2501" stroke="#e60000" y="-90.068" x="480" stroke-width=".80467" fill="#fff"/></g><g id="g1517"><path id="path637" d="m245 280-5 15h60l-5-15h-50z" fill-rule="evenodd" transform="matrix(.65261 0 0 .79988 195.63 67.378)" stroke="#e60000" stroke-width="1.5543" fill="#fff"/><path id="path638" d="m245 280-5 15h60l-5-15h-50z" fill-rule="evenodd" transform="matrix(.40931 0 0 .79988 261.53 67.378)" stroke="#e60000" stroke-width="1.9557" fill="#fff"/><rect id="rect1003" fill-rule="evenodd" transform="translate(0 354.33)" height="50.992" width="65.854" stroke="#e60000" y="-113.98" x="338.8" stroke-width=".91886pt" fill="#fff"/><rect id="rect683" fill-rule="evenodd" transform="translate(0 354.33)" height="26.986" width="6.2498" stroke="#e60000" y="-90.072" x="391.27" stroke-width="1.0398" fill="#fff"/><rect id="rect686" fill-rule="evenodd" transform="translate(0 354.33)" height="26.986" width="6.2543" stroke="#e60000" y="-90.075" x="347.78" stroke-width="1.0402" fill="#fff"/><rect id="rect687" fill-rule="evenodd" transform="translate(0 354.33)" height="63.32" width="31.89" stroke="#e60000" y="-126.32" x="356.1" stroke-width=".71252pt" fill="#fff"/><rect id="rect684" fill-rule="evenodd" transform="translate(0 354.33)" height="26.986" width="6.2498" stroke="#e60000" y="-90.074" x="380.02" stroke-width="1.0398" fill="#fff"/><rect id="rect685" fill-rule="evenodd" transform="translate(0 354.33)" height="26.986" width="6.2543" stroke="#e60000" y="-90.073" x="359.03" stroke-width="1.0402" fill="#fff"/><path id="path759" d="m358.18 217.13 13.471 22.98 14.264-22.98h-27.735z" fill-rule="evenodd" transform="matrix(1 0 0 .84654 0 54.377)" stroke="#e60000" stroke-width="1pt" fill="#fff"/></g><rect id="rect1033" fill-rule="evenodd" transform="translate(0 354.33)" height="62.99" width="17.717" stroke="#e60000" y="-113.98" x="487.59" stroke-width="1.1785" fill="#fff"/><rect id="rect1034" fill-rule="evenodd" transform="translate(0 354.33)" height="62.99" width="11.799" stroke="#e60000" y="-113.98" x="490.54" stroke-width="1.1779" fill="#fff"/><g id="g1508"><path id="path635" d="m245 280-5 15h60l-5-15h-50z" fill-rule="evenodd" transform="matrix(1.236 0 0 .79988 -84.448 67.379)" stroke="#e60000" stroke-width="1.1225" fill="#fff"/><path id="path634" d="m245 280-5 15h60l-5-15h-50z" fill-rule="evenodd" transform="matrix(.58110 0 0 .79988 90.856 67.379)" stroke="#e60000" stroke-width="1.6368" fill="#fff"/><path id="path633" d="m245 280-5 15h60l-5-15h-50z" fill-rule="evenodd" transform="matrix(.37077 0 0 .79988 147.56 67.379)" stroke="#e60000" stroke-width="2.0493" fill="#fff"/><rect id="rect1000" fill-rule="evenodd" transform="translate(0 354.33)" height="50.992" width="62.008" stroke="#e60000" y="-113.98" x="217.91" stroke-width=".89162pt" fill="#fff"/><rect id="rect635" fill-rule="evenodd" transform="translate(0 354.33)" height="26.986" width="6.2499" stroke="#e60000" y="-90.066" x="230" stroke-width=".80467" fill="#fff"/><rect id="rect638" fill-rule="evenodd" transform="translate(0 354.33)" height="26.986" width="6.25" stroke="#e60000" y="-90.065" x="258.75" stroke-width=".80467" fill="#fff"/><rect id="rect986" fill-rule="evenodd" transform="translate(0 354.33)" height="62.99" width="17.717" stroke="#e60000" y="-113.98" x="239.17" stroke-width="1.1785" fill="#fff"/><rect id="rect987" fill-rule="evenodd" transform="translate(0 354.33)" height="62.99" width="11.799" stroke="#e60000" y="-113.98" x="242.11" stroke-width="1.1779" fill="#fff"/></g><rect id="rect726" fill-rule="evenodd" height="11.998" width="325.98" stroke="#e60000" y="228.35" x="209.06" stroke-width=".95933pt" fill="#fff"/><g id="g598" transform="matrix(1 0 0 .84654 0 54.377)"><g id="g557" transform="matrix(1.0466 0 0 1.0413 -36.796 -6.024)"><rect id="rect551" fill-rule="evenodd" height="17.5" width="406.25" stroke="#e60000" y="328.56" x="187.5" stroke-width="1pt" fill="#fff"/><rect id="rect556" fill-rule="evenodd" height="17.5" width="327.5" stroke="#e60000" y="284.81" x="226.25" stroke-width=".89786pt" fill="#fff"/><rect id="rect555" fill-rule="evenodd" height="17.5" width="337.5" stroke="#e60000" y="288.56" x="221.25" stroke-width=".91146pt" fill="#fff"/><rect id="rect552" fill-rule="evenodd" height="17.5" width="406.25" stroke="#e60000" y="328.56" x="187.5" stroke-width="1pt" fill="#fff"/><rect id="rect554" fill-rule="evenodd" height="17.5" width="356.25" stroke="#e60000" y="298.56" x="212.5" stroke-width=".93644pt" fill="#fff"/><rect id="rect553" fill-rule="evenodd" height="17.5" width="381.25" stroke="#e60000" y="311.06" x="200" stroke-width=".96874pt" fill="#fff"/></g><g id="g615" transform="matrix(.94488 0 0 1.0205 -32.48 1.1828)"><rect id="rect613" fill-rule="evenodd" height="62.5" width="18.75" stroke="#e60000" y="283.56" x="287.5" stroke-width="1.0297pt" fill="#fff"/><rect id="rect614" fill-rule="evenodd" height="62.5" width="12.5" stroke="#e60000" y="283.56" x="290.62" stroke-width=".84077pt" fill="#fff"/></g><g id="g621" transform="matrix(.94488 0 0 1.0205 215.55 1.1831)"><rect id="rect622" fill-rule="evenodd" height="62.5" width="18.75" stroke="#e60000" y="283.56" x="287.5" stroke-width="1.0297pt" fill="#fff"/><rect id="rect623" fill-rule="evenodd" height="62.5" width="12.5" stroke="#e60000" y="283.56" x="290.62" stroke-width=".84077pt" fill="#fff"/></g><rect id="rect993" fill-rule="evenodd" height="0" width="60.029" stroke="#e60000" y="344.61" x="290.25" stroke-width="1.1959" fill="#fff"/><rect id="rect995" fill-rule="evenodd" height="0" width="60.029" stroke="#e60000" y="344.61" x="290.25" stroke-width="1.1959" fill="#fff"/><rect id="rect996" fill-rule="evenodd" height="0" width="60.029" stroke="#e60000" y="266.91" x="112.96" stroke-width="1.1959" fill="#fff"/><rect id="rect997" fill-rule="evenodd" height="0" width="60.029" stroke="#e60000" y="233.97" x="32.825" stroke-width="1.1959" fill="#fff"/></g><rect id="rect626" fill-rule="evenodd" height="113.98" width="14.239" stroke="#e60000" y="240.35" x="365.5" stroke-width="1.2011" fill="#fff"/><g id="g1531"><path id="path801" d="m217.92 220.3 0.184-36.915s3.362 7.236 29.512 8.821c24.749-0.937 28.848-5.362 29.969-9.284l-1.025 37.515-58.64-0.137z" fill-rule="evenodd" transform="matrix(.94365 0 0 .84654 261.19 54.377)" stroke="#e60000" stroke-width="1pt" fill="#fff"/><g id="g892" transform="translate(246.55 2.2413)"><path id="path893" d="m330.92 208.56-18.42-20.45c6.141-5.303 17.543 3.789 17.543 3.789s6.14-23.485 32.457-33.334c26.316 9.849 32.456 33.334 32.456 33.334s11.403-9.092 17.544-3.789l-18.422 20.455h-63.157z" fill-rule="evenodd" transform="matrix(.41468 0 0 .29996 99.014 139.48)" stroke="#e60000" stroke-width="3.5278" fill="#fff"/><path id="path894" d="m330.92 208.56-18.42-20.45c6.141-5.303 17.543 3.789 17.543 3.789s6.14-23.485 32.457-33.334c26.316 9.849 32.456 33.334 32.456 33.334s11.403-9.092 17.544-3.789l-18.422 20.455h-63.157z" fill-rule="evenodd" transform="matrix(.53908 0 0 .41994 53.919 130.35)" stroke="#e60000" stroke-width="2.615" fill="#fff"/></g><g id="g727" transform="matrix(1.0205 0 0 1.1198 221.61 77.956)"><path id="path728" d="m0 280.52c0.79243 0 30.112 52.301 0 53.093-30.112 0.793 0-51.508 0-53.093z" fill-rule="evenodd" transform="matrix(.38660 0 0 .35309 268.92 -29.035)" stroke="#e60000" stroke-width="3.3833" fill="#fff"/><path id="path729" d="m330.92 208.56-18.42-20.45c6.141-5.303 17.543 3.789 17.543 3.789s6.14-23.485 32.457-33.334c26.316 9.849 32.456 33.334 32.456 33.334s11.403-9.092 17.544-3.789l-18.422 20.455h-63.157z" fill-rule="evenodd" transform="matrix(.3125 0 0 .14062 155.67 64.124)" stroke="#e60000" stroke-width="5.9629" fill="#fff"/><path id="path730" d="m330.92 208.56l-0.878-16.666s6.14-23.485 32.457-33.334c26.316 9.849 32.456 33.334 32.456 33.334l-0.878 16.666h-63.157z" fill-rule="evenodd" transform="matrix(.16047 0 0 .14062 210.78 66.467)" stroke="#e60000" stroke-width="8.3211" fill="#fff"/><path id="path731" d="m330.92 208.56l-0.878-16.666s6.14-23.485 32.457-33.334c26.316 9.849 32.456 33.334 32.456 33.334l-0.878 16.666h-63.157z" fill-rule="evenodd" transform="matrix(.32094 0 0 .1875 152.61 63.722)" stroke="#e60000" stroke-width="5.0956" fill="#fff"/><path id="path732" d="m330.92 208.56l-0.878-16.666s6.14-23.485 32.457-33.334c26.316 9.849 32.456 33.334 32.456 33.334l-0.878 16.666h-63.157z" fill-rule="evenodd" transform="matrix(.32094 0 0 .1875 152.61 68.41)" stroke="#e60000" stroke-width="5.0956" fill="#fff"/><path id="path733" d="m330.92 208.56-18.42-20.45c6.141-5.303 17.543 3.789 17.543 3.789s6.14-23.485 32.457-33.334c26.316 9.849 32.456 33.334 32.456 33.334s11.403-9.092 17.544-3.789l-18.422 20.455h-63.157z" fill-rule="evenodd" transform="matrix(.3125 0 0 .375 155.67 43.367)" stroke="#e60000" stroke-width="3.6515" fill="#fff"/><path id="path734" d="m330.92 208.56-18.42-20.45c6.141-5.303 17.543 3.789 17.543 3.789s6.14-23.485 32.457-33.334c26.316 9.849 32.456 33.334 32.456 33.334s11.403-9.092 17.544-3.789l-18.422 20.455h-63.157z" fill-rule="evenodd" transform="matrix(.3125 0 0 .375 155.67 52.742)" stroke="#e60000" stroke-width="3.6515" fill="#fff"/><path id="path735" d="m330.92 208.56l-0.878-16.666s6.14-23.485 32.457-33.334c26.316 9.849 32.456 33.334 32.456 33.334l-0.878 16.666h-63.157z" fill-rule="evenodd" transform="matrix(.32094 0 0 .46875 152.61 47.251)" stroke="#e60000" stroke-width="3.2227" fill="#fff"/><path id="path736" d="m330.92 208.56-18.42-20.45c6.141-5.303 17.543 3.789 17.543 3.789s6.14-23.485 32.457-33.334c26.316 9.849 32.456 33.334 32.456 33.334s11.403-9.092 17.544-3.789l-18.422 20.455h-63.157z" fill-rule="evenodd" transform="matrix(.3125 0 0 .28125 155.67 86.357)" stroke="#e60000" stroke-width="4.2164" fill="#fff"/></g></g><g id="g1546"><g id="g889" transform="translate(-1.1207 -.000015259)"><path id="path874" d="m330.92 208.56-18.42-20.45c6.141-5.303 17.543 3.789 17.543 3.789s6.14-23.485 32.457-33.334c26.316 9.849 32.456 33.334 32.456 33.334s11.403-9.092 17.544-3.789l-18.422 20.455h-63.157z" fill-rule="evenodd" transform="matrix(.41468 0 0 .29996 99.014 139.48)" stroke="#e60000" stroke-width="3.5278" fill="#fff"/><path id="path879" d="m330.92 208.56-18.42-20.45c6.141-5.303 17.543 3.789 17.543 3.789s6.14-23.485 32.457-33.334c26.316 9.849 32.456 33.334 32.456 33.334s11.403-9.092 17.544-3.789l-18.422 20.455h-63.157z" fill-rule="evenodd" transform="matrix(.53908 0 0 .41994 53.919 130.35)" stroke="#e60000" stroke-width="2.615" fill="#fff"/></g><path id="path800" d="m217.92 220.3 0.184-36.915s3.362 7.236 29.512 8.821c24.749-0.937 28.848-5.362 29.969-9.284l-1.025 37.515-58.64-0.137z" fill-rule="evenodd" transform="matrix(.94365 0 0 .84654 15.641 54.377)" stroke="#e60000" stroke-width="1pt" fill="#fff"/><g id="g603" transform="matrix(1.0205 0 0 1.1198 -26.424 77.956)"><path id="path583" d="m0 280.52c0.79243 0 30.112 52.301 0 53.093-30.112 0.793 0-51.508 0-53.093z" fill-rule="evenodd" transform="matrix(.38660 0 0 .35309 268.92 -29.035)" stroke="#e60000" stroke-width="3.3833" fill="#fff"/><path id="path582" d="m330.92 208.56-18.42-20.45c6.141-5.303 17.543 3.789 17.543 3.789s6.14-23.485 32.457-33.334c26.316 9.849 32.456 33.334 32.456 33.334s11.403-9.092 17.544-3.789l-18.422 20.455h-63.157z" fill-rule="evenodd" transform="matrix(.3125 0 0 .14062 155.67 64.124)" stroke="#e60000" stroke-width="5.9629" fill="#fff"/><path id="path581" d="m330.92 208.56l-0.878-16.666s6.14-23.485 32.457-33.334c26.316 9.849 32.456 33.334 32.456 33.334l-0.878 16.666h-63.157z" fill-rule="evenodd" transform="matrix(.16047 0 0 .14062 210.78 66.467)" stroke="#e60000" stroke-width="8.3211" fill="#fff"/><path id="path580" d="m330.92 208.56l-0.878-16.666s6.14-23.485 32.457-33.334c26.316 9.849 32.456 33.334 32.456 33.334l-0.878 16.666h-63.157z" fill-rule="evenodd" transform="matrix(.32094 0 0 .1875 152.61 63.722)" stroke="#e60000" stroke-width="5.0956" fill="#fff"/><path id="path579" d="m330.92 208.56l-0.878-16.666s6.14-23.485 32.457-33.334c26.316 9.849 32.456 33.334 32.456 33.334l-0.878 16.666h-63.157z" fill-rule="evenodd" transform="matrix(.32094 0 0 .1875 152.61 68.41)" stroke="#e60000" stroke-width="5.0956" fill="#fff"/><path id="path576" d="m330.92 208.56-18.42-20.45c6.141-5.303 17.543 3.789 17.543 3.789s6.14-23.485 32.457-33.334c26.316 9.849 32.456 33.334 32.456 33.334s11.403-9.092 17.544-3.789l-18.422 20.455h-63.157z" fill-rule="evenodd" transform="matrix(.3125 0 0 .375 155.67 43.367)" stroke="#e60000" stroke-width="3.6515" fill="#fff"/><path id="path575" d="m330.92 208.56-18.42-20.45c6.141-5.303 17.543 3.789 17.543 3.789s6.14-23.485 32.457-33.334c26.316 9.849 32.456 33.334 32.456 33.334s11.403-9.092 17.544-3.789l-18.422 20.455h-63.157z" fill-rule="evenodd" transform="matrix(.3125 0 0 .375 155.67 52.742)" stroke="#e60000" stroke-width="3.6515" fill="#fff"/><path id="path578" d="m330.92 208.56l-0.878-16.666s6.14-23.485 32.457-33.334c26.316 9.849 32.456 33.334 32.456 33.334l-0.878 16.666h-63.157z" fill-rule="evenodd" transform="matrix(.32094 0 0 .46875 152.61 47.251)" stroke="#e60000" stroke-width="3.2227" fill="#fff"/><path id="path574" d="m330.92 208.56-18.42-20.45c6.141-5.303 17.543 3.789 17.543 3.789s6.14-23.485 32.457-33.334c26.316 9.849 32.456 33.334 32.456 33.334s11.403-9.092 17.544-3.789l-18.422 20.455h-63.157z" fill-rule="evenodd" transform="matrix(.3125 0 0 .28125 155.67 86.357)" stroke="#e60000" stroke-width="4.2164" fill="#fff"/></g></g><g id="g1561"><rect id="rect901" fill-rule="evenodd" ry="6.4488" height="12.898" width="85.039" stroke="#e60000" y="226.28" x="329.53" stroke-width="1.2256" fill="#fff"/><path id="path900" d="m353.24-212.6 1.093-56.693s-3.28 13.906-13.123 13.906h-150.92c-9.843 0-13.124-13.906-13.124-13.906l1.093 56.693h174.98z" fill-rule="evenodd" transform="matrix(.5 0 0 .75 239.17 393.31)" stroke="#e60000" stroke-width="1.5789" fill="#fff"/><g id="g860" transform="translate(-.000043591 -7.7902)"><path id="path807" d="m510.49 70.219 0.41-25.609s23.557-2.9984 20.288-9.3319c-3.27-6.3334-31.604 7.9858-31.604 7.9858h-113.34s-28.335-14.319-31.604-7.9858c-3.269 6.3335 20.288 9.3319 20.288 9.3319l0.408 25.609h135.15z" fill-rule="evenodd" transform="matrix(.4 0 0 .57434 194.88 182.02)" stroke="#e60000" stroke-width="2.3995" fill="#fff"/><path id="path806" d="m510.49 70.219 0.41-25.609s23.557-2.9984 20.288-9.3319c-3.27-6.3334-31.604 7.9858-31.604 7.9858h-113.34s-28.335-14.319-31.604-7.9858c-3.269 6.3335 20.288 9.3319 20.288 9.3319l0.408 25.609h135.15z" fill-rule="evenodd" transform="matrix(.48 0 0 .57434 159.45 194.02)" stroke="#e60000" stroke-width="2.1904" fill="#fff"/><path id="path814" d="m510.49 70.219 0.41-25.609s23.557-2.9985 20.288-9.3319c-3.27-6.333-27.29-18.36-61.81-31.08-24.29-5.9047 31.26-26.346-21.07-27.709-48.02 0.757-5.42 23.318-21.07 28.618-38.84 11.81-69.33 23.838-72.6 30.171-3.27 6.334 20.29 9.332 20.29 9.332l0.408 25.609h135.15z" fill-rule="evenodd" transform="matrix(.12985 0 0 .26106 314.17 141.87)" stroke="#e60000" stroke-width="6.2465" fill="#fff"/><path id="path808" d="m510.49 70.219 0.41-25.609s23.557-2.9984 20.288-9.3319c-3.27-6.3334-31.604 7.9858-31.604 7.9858h-113.34s-28.335-14.319-31.604-7.9858c-3.269 6.3335 20.288 9.3319 20.288 9.3319l0.408 25.609h135.15z" fill-rule="evenodd" transform="matrix(.28332 0 0 .46992 246.55 164.54)" stroke="#e60000" stroke-width="3.152" fill="#fff"/><path id="path809" d="m510.49 70.219 0.41-25.609s23.557-2.9984 20.288-9.3319c-3.27-6.3334-31.604 7.9858-31.604 7.9858h-113.34s-28.335-14.319-31.604-7.9858c-3.269 6.3335 20.288 9.3319 20.288 9.3319l0.408 25.609h135.15z" fill-rule="evenodd" transform="matrix(.34 0 0 .46992 221.46 174.36)" stroke="#e60000" stroke-width="2.8773" fill="#fff"/><path id="path810" d="m510.49 70.219 0.41-25.609s23.557-2.9984 20.288-9.3319c-3.27-6.3334-31.604 7.9858-31.604 7.9858h-113.34s-28.335-14.319-31.604-7.9858c-3.269 6.3335 20.288 9.3319 20.288 9.3319l0.408 25.609h135.15z" fill-rule="evenodd" transform="matrix(.18333 0 0 .31908 290.85 157.28)" stroke="#e60000" stroke-width="4.7552" fill="#fff"/><path id="path811" d="m510.49 70.219 0.41-25.609s23.557-2.9984 20.288-9.3319c-3.27-6.3334-31.604 7.9858-31.604 7.9858h-113.34s-28.335-14.319-31.604-7.9858c-3.269 6.3335 20.288 9.3319 20.288 9.3319l0.408 25.609h135.15z" fill-rule="evenodd" transform="matrix(.22 0 0 .31908 274.61 163.95)" stroke="#e60000" stroke-width="4.3408" fill="#fff"/><path id="path812" d="m510.49 70.219 0.41-25.609s23.557-2.9984 20.288-9.3319c-3.27-6.3334-31.604 7.9858-31.604 7.9858h-113.34s-28.335-14.319-31.604-7.9858c-3.269 6.3335 20.288 9.3319 20.288 9.3319l0.408 25.609h135.15z" fill-rule="evenodd" transform="matrix(.12985 0 0 .26106 314.53 147.57)" stroke="#e60000" stroke-width="6.2465" fill="#fff"/><path id="path813" d="m510.49 70.219 0.41-25.609s23.557-2.9984 20.288-9.3319c-3.27-6.3334-31.604 7.9858-31.604 7.9858h-113.34s-28.335-14.319-31.604-7.9858c-3.269 6.3335 20.288 9.3319 20.288 9.3319l0.408 25.609h135.15z" fill-rule="evenodd" transform="matrix(.15583 0 0 .26106 303.03 153.03)" stroke="#e60000" stroke-width="5.7021" fill="#fff"/></g><g id="g789" transform="matrix(1 0 0 .84654 -.000038490 54.377)"><path id="path767" d="m330.92 208.56-18.42-20.45c6.141-5.303 17.543 3.789 17.543 3.789s6.14-23.485 32.457-33.334c26.316 9.849 32.456 33.334 32.456 33.334s11.403-9.092 17.544-3.789l-18.422 20.455h-63.157z" fill-rule="evenodd" transform="matrix(.17717 0 0 .21260 307.82 85.004)" stroke="#e60000" stroke-width="5.4435" fill="#fff"/><path id="path766" d="m330.92 208.56-18.42-20.45c6.141-5.303 17.543 3.789 17.543 3.789s6.14-23.485 32.457-33.334c26.316 9.849 32.456 33.334 32.456 33.334s11.403-9.092 17.544-3.789l-18.422 20.455h-63.157z" fill-rule="evenodd" transform="matrix(.24803 0 0 .21260 282.14 92.09)" stroke="#e60000" stroke-width="5.4435" fill="#fff"/><path id="path765" d="m330.92 208.56-18.42-20.45c6.141-5.303 17.543 3.789 17.543 3.789s6.14-23.485 32.457-33.334c26.316 9.849 32.456 33.334 32.456 33.334s11.403-9.092 17.544-3.789l-18.422 20.455h-63.157z" fill-rule="evenodd" transform="matrix(.28346 0 0 .28346 269.29 89.705)" stroke="#e60000" stroke-width="4.4097" fill="#fff"/><path id="path764" d="m330.92 208.56-18.42-20.45c6.141-5.303 17.543 3.789 17.543 3.789s6.14-23.485 32.457-33.334c26.316 9.849 32.456 33.334 32.456 33.334s11.403-9.092 17.544-3.789l-18.422 20.455h-63.157z" fill-rule="evenodd" transform="matrix(.35433 0 0 .35433 243.6 90.155)" stroke="#e60000" stroke-width="3.5278" fill="#fff"/><path id="path762" d="m358.18 217.13 13.471 22.98 14.264-22.98h-27.735z" fill-rule="evenodd" transform="matrix(.92308 0 0 .79602 28.619 3.7524)" stroke="#e60000" stroke-width="1.4582" fill="#fff"/><path id="path763" d="m330.92 208.56-18.42-20.45c6.141-5.303 17.543 3.789 17.543 3.789s6.14-23.485 32.457-33.334c26.316 9.849 32.456 33.334 32.456 33.334s11.403-9.092 17.544-3.789l-18.422 20.455h-63.157z" fill-rule="evenodd" transform="matrix(.42520 0 0 .39487 217.91 96.262)" stroke="#e60000" stroke-width="3.0506" fill="#fff"/><path id="path760" d="m358.18 217.13 13.471 22.98 14.264-22.98h-27.735z" fill-rule="evenodd" transform="translate(-.00012022 -20.422)" stroke="#e60000" stroke-width="1.25" fill="#fff"/><path id="path761" d="m330.92 208.56-18.42-20.45c6.141-5.303 17.543 3.789 17.543 3.789s6.14-23.485 32.457-33.334c26.316 9.849 32.456 33.334 32.456 33.334s11.403-9.092 17.544-3.789l-18.422 20.455h-63.157z" fill-rule="evenodd" transform="matrix(.46063 0 0 .49606 205.07 95.815)" stroke="#e60000" stroke-width="2.615" fill="#fff"/><path id="path746" d="m330.92 208.56-18.42-20.45c6.141-5.303 17.543 3.789 17.543 3.789s6.14-23.485 32.457-33.334c26.316 9.849 32.456 33.334 32.456 33.334s11.403-9.092 17.544-3.789l-18.422 20.455h-63.157z" fill-rule="evenodd" transform="matrix(.46063 0 0 .49606 205.07 116.22)" stroke="#e60000" stroke-width="2.615" fill="#fff"/></g></g><g id="g1584"><rect id="rect644" fill-rule="evenodd" transform="translate(0 354.33)" height="26.986" width="6.2498" stroke="#e60000" y="-90.07" x="285.34" stroke-width="1.0398" fill="#fff"/><rect id="rect649" fill-rule="evenodd" transform="translate(0 354.33)" height="26.986" width="6.2498" stroke="#e60000" y="-90.072" x="306.59" stroke-width="1.0398" fill="#fff"/><rect id="rect650" fill-rule="evenodd" transform="translate(0 354.33)" height="26.986" width="6.2498" stroke="#e60000" y="-90.073" x="296.59" stroke-width="1.0398" fill="#fff"/><rect id="rect652" fill-rule="evenodd" transform="translate(0 354.33)" height="26.986" width="6.2498" stroke="#e60000" y="-90.071" x="410.14" stroke-width="1.0398" fill="#fff"/><rect id="rect653" fill-rule="evenodd" transform="translate(0 354.33)" height="26.986" width="6.2498" stroke="#e60000" y="-90.073" x="452.64" stroke-width="1.0398" fill="#fff"/><rect id="rect654" fill-rule="evenodd" transform="translate(0 354.33)" height="26.986" width="6.2498" stroke="#e60000" y="-90.074" x="431.39" stroke-width="1.0398" fill="#fff"/><rect id="rect655" fill-rule="evenodd" transform="translate(0 354.33)" height="26.986" width="6.2498" stroke="#e60000" y="-90.075" x="421.39" stroke-width="1.0398" fill="#fff"/><rect id="rect656" fill-rule="evenodd" transform="translate(0 354.33)" height="26.986" width="6.2498" stroke="#e60000" y="-90.075" x="441.39" stroke-width="1.0398" fill="#fff"/><rect id="rect648" fill-rule="evenodd" transform="translate(0 354.33)" height="26.986" width="6.2498" stroke="#e60000" y="-90.071" x="327.84" stroke-width="1.0398" fill="#fff"/><rect id="rect651" fill-rule="evenodd" transform="translate(0 354.33)" height="26.986" width="6.2498" stroke="#e60000" y="-90.073" x="316.59" stroke-width="1.0398" fill="#fff"/></g></g></g></g>
  <g id="02" transform="translate(0,38)"><path id="path3862-8" style="color:#000000" fill="url(#linearGradient5125)" d="m214.21 111.21c-45.245 0.18809-68.716 7.7308-64.094 83.553l2.8252 46.345c47.474 5.5124 56.664 18.445 104.36 21.914 68.073 4.9513 67.937 5.4209 130.56-14.384 62.628-19.805 5.8248-65.247 207.32-57.82 4.6033 0.16968 17.314-3.0527 27.462-12.15 5.5817-46.524-2.7842-69.143-66.934-68.876z"/><path id="path3079-9" style="color:#000000" fill="url(#linearGradient5122)" d="m531.03 495.17c-31.605 19.022-27.601 31.26-37.913 32.573-94.704 12.053-145.98-0.72701-165.8-12.061-59.588-34.078-68.468-13.014-100.22-16.574-20.115-2.2551-59.245 12.984-73.388 44.344 3.4722 27.608 18.111 32.098 44.281 31.986l356.06-1.5268c69.692-0.29885 56.335-8.4926 65.543-56.039-14.772-21.671-13.157 9.109-44.224-30.717z"/><rect id="rect5734" transform="translate(128,90)" clip-path="url(#clipPath5796)" ry="57" height="512" filter="url(#filter5740)" width="512" stroke="#000" y="0" x="0" stroke-width="20" fill="none"/></g>
 </g>
  <metadata>
    <rdf:RDF>
      <cc:Work>
        <dc:format>image/svg+xml</dc:format>
        <dc:type rdf:resource="http://purl.org/dc/dcmitype/StillImage"/>
        <cc:license rdf:resource="http://creativecommons.org/licenses/publicdomain/"/>
        <dc:publisher>
          <cc:Agent rdf:about="http://openclipart.org/">
            <dc:title>Openclipart</dc:title>
          </cc:Agent>
        </dc:publisher>
        <dc:title>kh</dc:title>
        <dc:date>2011-08-21T12:01:17</dc:date>
        <dc:description>country flag buttons (with ISO-3166-1 naming convention)</dc:description>
        <dc:source>http://openclipart.org/detail/156613/kh-by-koppi</dc:source>
        <dc:creator>
          <cc:Agent>
            <dc:title>koppi</dc:title>
          </cc:Agent>
        </dc:creator>
        <dc:subject>
          <rdf:Bag>
            <rdf:li>ISO3166-1</rdf:li>
            <rdf:li>button</rdf:li>
            <rdf:li>clip art</rdf:li>
            <rdf:li>clipart</rdf:li>
            <rdf:li>country</rdf:li>
            <rdf:li>flag</rdf:li>
            <rdf:li>flags</rdf:li>
            <rdf:li>squared</rdf:li>
          </rdf:Bag>
        </dc:subject>
      </cc:Work>
      <cc:License rdf:about="http://creativecommons.org/licenses/publicdomain/">
        <cc:permits rdf:resource="http://creativecommons.org/ns#Reproduction"/>
        <cc:permits rdf:resource="http://creativecommons.org/ns#Distribution"/>
        <cc:permits rdf:resource="http://creativecommons.org/ns#DerivativeWorks"/>
      </cc:License>
    </rdf:RDF>
  </metadata>
</svg>
