<?xml version="1.0" encoding="UTF-8"?>
<!DOCTYPE svg PUBLIC "-//W3C//DTD SVG 1.1//EN" "http://www.w3.org/Graphics/SVG/1.1/DTD/svg11.dtd">
<svg version="1.1" xmlns="http://www.w3.org/2000/svg" xmlns:xlink="http://www.w3.org/1999/xlink" x="0" y="0" width="466" height="403" viewBox="0, 0, 466, 403">
  <g id="Layer_1">
    <path d="M261.271,116.08 C261.271,116.08 247.605,134.747 244.605,140.08 C241.605,145.414 233.938,146.414 230.938,146.414 C227.938,146.414 217.271,148.746 210.271,166.413 C203.271,184.08 206.271,222.08 225.605,247.08 C244.938,272.08 273.271,293.08 323.271,289.08 C373.271,285.08 391.271,269.414 399.271,264.414 C399.271,264.414 401.271,268.746 412.938,269.08 C424.605,269.414 441.604,261.414 444.271,245.747 C446.938,230.08 440.271,220.08 428.271,220.08 M316.184,93.912 C316.184,93.912 271.938,102.747 253.938,122.414 C252.605,111.08 254.444,102.072 261.605,91.08 C275.938,69.08 304.938,67.747 304.938,67.747 C304.938,67.747 305.486,52.734 322.271,38.08 C343.271,19.747 371.271,21.08 371.271,21.08 C371.271,21.08 352.272,47.08 354.605,67.414 C354.605,67.414 367.272,56.08 386.605,54.08 C405.938,52.08 415.605,57.747 415.605,57.747 C415.605,57.747 406.271,70.414 408.271,83.414 C410.271,96.414 419.271,111.414 427.271,119.414 C435.271,127.414 447.068,147.423 448.271,171.08 C449.271,190.747 442.271,197.08 442.271,197.08 C442.271,197.08 449.938,202.747 449.938,218.747 C449.938,232.08 444.605,241.08 444.605,241.08 M341.938,74.747 C341.938,74.747 318.938,75.747 316.271,99.414 C313.605,123.08 334.271,128.414 334.271,128.414 C334.271,128.414 340.938,106.08 364.271,97.747 C364.271,97.747 351.605,120.414 371.605,142.414 C371.605,142.414 375.938,122.747 390.271,112.747 C390.271,112.747 394.939,141.08 405.605,161.08 C416.271,181.08 422.605,190.413 422.605,190.413 C422.605,190.413 417.272,208.747 412.605,219.08 C407.938,229.413 402.271,232.413 402.271,232.413 C402.271,232.413 420.939,230.414 428.605,218.747 M407.604,252.747 C407.604,252.747 410.271,243.081 419.938,246.747 C429.605,250.413 421.271,261.413 421.271,261.413 C428.938,257.746 433.604,252.506 433.604,242.747 C433.604,234.747 423.604,230.747 423.604,230.747 M348.938,142.08 C348.938,142.08 360.938,137.414 374.938,139.414 M290.271,108.747 C290.271,108.747 293.605,115.414 294.938,122.747 M306.938,172.747 C306.605,170.747 304.272,162.08 295.605,166.08 C286.938,170.08 294.605,181.08 296.938,182.747 M249.271,193.414 C249.271,193.414 258.938,182.414 299.938,188.414 C340.938,194.414 364.271,229.414 364.271,229.414 C364.271,229.414 352.604,263.746 332.271,273.08 C311.938,282.414 264.939,277.748 254.605,253.414 C244.271,229.08 249.271,193.414 249.271,193.414 z M458.271,175.08 C458.271,175.08 455.604,191.413 442.271,197.08 C442.271,197.08 448.272,198.414 456.605,190.414 C464.938,182.414 458.271,175.08 458.271,175.08 z M414.605,269.414 C414.605,269.414 403.271,277.08 384.271,283.08 M379.605,276.08 C379.605,276.08 382.605,277.08 394.938,299.08 C407.271,321.08 416.938,328.747 416.938,328.747 C416.938,328.747 413.604,336.413 391.271,342.413 M406.271,338.413 C406.271,339.413 411.271,356.081 406.938,364.747 C402.605,373.413 385.604,376.08 375.271,365.413 M360.604,303.747 C360.604,303.747 341.938,303.081 334.271,309.747 C326.604,316.413 333.605,321.08 333.938,323.08 C334.271,325.08 331.272,328.079 331.938,331.413 C332.604,334.747 334.271,339.746 335.271,341.413 C336.271,343.08 331.938,350.413 336.604,356.413 C341.271,362.413 358.008,374.151 377.604,364.08 C401.604,351.747 388.604,308.08 377.604,300.08 C377.604,300.08 370.938,293.746 356.604,294.413 C342.271,295.08 339.271,296.413 333.271,296.413 C327.271,296.413 329.271,307.079 334.271,308.413 M402.271,370.08 L411.938,396.08 M284.271,286.413 C284.271,286.413 288.604,303.079 302.271,307.413 C315.938,311.747 329.604,301.413 329.604,301.413 M335.604,296.413 L340.938,287.413 M255.605,288.414 C255.605,288.414 272.604,355.082 272.604,398.748 M261.938,315.747 C261.938,315.747 237.605,299.747 214.271,282.747 C190.938,265.747 180.605,265.414 180.605,265.414 C180.605,265.414 187.938,240.08 214.938,227.747 M194.751,242.806 C194.751,242.806 96.16,155.974 85.703,144.613 M146.524,99.746 L207.575,206.458 M158.529,56.348 C158.529,56.348 158.871,89.116 139.701,109.067 M117.039,21.23 C120.911,14.118 127.27,8.984 134.743,8.462 C150.638,7.352 166.336,18.901 167.271,35.34 C168.02,48.486 157.423,59.073 147.415,62.397 M24.085,132.654 C12.951,126.576 -0.685,105.329 6.037,69.579 C12.759,33.83 35.898,15.517 61.252,7.381 C86.605,-0.757 102.24,8.465 116.351,20.725 C130.462,32.985 153.446,63.146 148.995,73.199 C144.543,83.252 142.143,86.875 138.985,88.217 C135.826,89.56 122.201,90.777 122.201,90.777 C122.201,90.777 123.799,105.543 118.824,111.385 C113.848,117.229 95.286,115.022 95.286,115.022 C95.286,115.022 95.482,126.161 89.135,130.512 C82.788,134.863 73.728,130.763 73.728,130.763 C73.728,130.763 74.394,138.044 63.926,141.719 C53.456,145.394 40.391,141.554 24.085,132.654 z M113.177,125.827 C113.177,125.827 89.659,151.872 64.407,141.91 M122.201,90.777 C120.128,87.302 77.17,52.908 77.17,52.908 M95.783,114.374 C95.783,114.374 71.377,96.756 58.035,84.037 M73.728,130.763 C73.728,130.763 51.703,117.235 41.706,106.192" fill-opacity="0" stroke="#090020" stroke-width="8.504" stroke-linecap="round" stroke-linejoin="round"/>
    <path d="M428.271,220.08 C441.719,220.837 446.938,230.08 444.271,245.747 C441.604,261.414 424.605,269.414 412.938,269.08 C401.271,268.746 399.271,264.414 399.271,264.414 C391.271,269.414 373.271,285.08 323.271,289.08 C273.271,293.08 244.938,272.08 225.605,247.08 C206.271,222.08 203.271,184.08 210.271,166.413 C217.271,148.746 227.938,146.414 230.938,146.414 C233.938,146.414 241.605,145.414 244.605,140.08 C247.605,134.747 261.271,116.08 261.271,116.08 C261.271,116.08 284.712,97.58 316.993,94.645 C316.993,94.645 313.324,105.283 318.094,114.454 C322.863,123.625 334.602,128.394 334.602,128.394 C334.602,128.394 339.004,116.656 345.974,109.686 C352.943,102.716 364.315,97.947 364.315,97.947 C364.315,97.947 356.979,107.485 360.647,120.324 C364.315,133.163 372.02,142.701 372.02,142.701 C372.02,142.701 374.22,132.063 380.823,123.258 C387.427,114.454 390.361,112.62 390.361,112.62 C390.361,112.62 395.496,141.967 403.934,157.741 C412.371,173.516 422.643,190.39 422.643,190.39 C422.643,190.39 420.441,202.496 413.839,216.436 C407.236,230.375 403.2,232.576 403.2,232.576 C403.2,232.576 417.393,231.795 428.271,220.08" fill="#F6C8A2"/>
    <path d="M375.32,298.608 C375.32,298.608 366.884,293.839 354.411,294.572 C341.938,295.306 336.068,296.039 334.602,296.039 C333.135,296.039 329.465,297.872 330.199,300.808 C330.934,303.743 334.602,308.879 334.602,308.879 C334.602,308.879 329.466,313.649 331.667,318.05 C333.868,322.451 334.234,323.919 333.501,326.854 C332.768,329.788 330.934,331.989 332.768,336.025 C334.602,340.06 335.336,341.528 334.969,345.563 C334.602,349.598 332.769,355.1 343.406,361.703 C354.044,368.307 362.115,368.673 367.984,367.572 C373.854,366.472 375.688,365.738 375.688,365.738 C375.688,365.738 382.657,371.975 394.029,371.975 C405.401,371.975 408.157,364.246 408.703,360.97 C409.804,354.366 405.769,337.492 405.769,337.492 L390.728,342.628 C390.728,342.628 390.072,329.698 388.16,320.617 C385.226,306.678 375.32,298.608 375.32,298.608" fill="#F6C8A2"/>
    <path d="M341.205,287.236 L334.602,297.14 C334.602,297.14 331.667,296.039 330.566,298.974 C329.466,301.908 327.999,302.643 327.999,302.643 C327.999,302.643 311.857,309.979 305.255,308.145 C298.652,306.311 291.314,298.973 288.747,295.672 C286.18,292.371 283.979,286.135 283.979,286.135 C283.979,286.135 288.746,288.337 310.023,289.437 C331.301,290.536 341.205,287.236 341.205,287.236" fill="#F6C8A2"/>
    <g>
      <path d="M205.58,202.595 L147.392,100.336 C147.392,100.336 155.458,84.765 156.292,76.797 C157.127,68.829 158.348,56.695 158.348,56.695 C158.348,56.695 141.4,70.472 129.804,61.709 C118.208,52.944 112.451,49.859 111.124,35.939 C111.124,35.939 103.804,47.281 100.294,52.739 C100.294,52.739 115.776,64.545 113.052,70.238 C110.328,75.931 100.67,88.802 100.67,88.802 C100.67,88.802 108.229,97.902 107.139,104.425 C106.05,110.948 97.462,115.065 97.462,115.065 C97.462,115.065 102.813,120.083 100.044,127.647 C97.276,135.21 85.836,144.296 85.836,144.296 L198.3,245.958 C198.3,245.958 202.113,233.743 217.483,225.828 L205.58,202.595" fill="#F6C8A2"/>
      <path d="M115.75,48.858 C115.75,48.858 104.656,29.791 122.935,13.708 C139.46,-0.831 164.431,19.219 166.457,28.186 C168.483,37.153 166.532,55.483 150.845,60.979 C135.159,66.474 124.353,64.743 115.75,48.858" fill="#F6C8A2"/>
      <path d="M24.085,132.654 C12.951,126.576 -0.685,105.329 6.037,69.579 C12.759,33.83 35.898,15.517 61.252,7.381 C86.605,-0.757 102.24,8.465 116.351,20.725 C130.462,32.985 153.446,63.146 148.995,73.199 C144.543,83.252 142.143,86.875 138.985,88.217 C135.826,89.56 122.201,90.777 122.201,90.777 C122.201,90.777 123.799,105.543 118.824,111.385 C113.848,117.229 95.286,115.022 95.286,115.022 C95.286,115.022 95.482,126.161 89.135,130.512 C82.788,134.863 73.728,130.763 73.728,130.763 C73.728,130.763 74.394,138.044 63.926,141.719 C53.456,145.394 40.391,141.554 24.085,132.654" fill="#F6C8A2"/>
    </g>
    <path d="M256.098,123.99 C256.098,123.99 271.139,114.819 292.415,108.95 C313.691,103.081 315.158,101.98 315.158,101.98 L316.626,93.91 C316.626,93.91 302.319,97.578 289.847,101.98 C277.374,106.382 261.271,116.08 261.271,116.08 L256.098,123.99" fill="#F3B78B"/>
    <path d="M316.626,111.151 C316.626,111.151 324.329,128.392 331.666,133.161 C339.003,137.93 340.837,136.096 340.837,136.096 C340.837,136.096 339.737,125.458 347.44,116.654 C355.144,107.849 362.114,101.613 362.114,101.613 L362.48,99.412 C362.48,99.412 349.642,102.716 344.139,111.518 C338.636,120.32 334.602,128.394 334.602,128.394 C334.602,128.394 319.928,124.357 316.626,111.151" fill="#F3B78B"/>
    <path d="M361.38,125.824 C361.38,125.824 363.581,141.965 374.953,149.302 C374.953,149.302 376.054,141.232 379.355,131.694 C382.657,122.156 389.627,114.453 389.627,114.453 C389.627,114.453 382.29,119.221 378.255,126.558 C374.22,133.895 370.551,142.332 370.551,142.332 L361.38,125.824" fill="#F3B78B"/>
    <path d="M393.295,127.659 C393.295,127.659 396.229,153.704 405.4,169.845 C414.571,185.986 417.14,192.956 417.14,192.956 C417.14,192.956 413.471,215.333 408.702,220.469 C403.934,225.605 399.898,232.574 399.898,232.574 C399.898,232.574 409.436,229.274 412.737,218.635 C416.039,207.996 422.643,191.488 422.643,191.488 C422.643,191.488 395.129,148.202 393.295,127.659" fill="#F3B78B"/>
    <path d="M423.742,231.841 C423.742,231.841 429.979,235.509 427.778,243.579 C425.577,251.65 423.742,252.017 423.742,252.017 L422.275,260.454 C422.275,260.454 431.445,256.052 432.913,250.183 C434.381,244.314 434.014,235.51 423.742,231.841" fill="#F3B78B"/>
    <path d="M405.768,232.574 C405.768,232.574 417.873,234.042 425.21,228.906 C432.547,223.771 432.547,220.835 432.547,220.835 L428.271,220.08 C428.271,220.08 423.742,227.806 405.768,232.574" fill="#F3B78B"/>
    <path d="M306.354,171.313 C306.354,171.313 310.023,177.182 313.691,180.484 C317.359,183.785 329.466,187.452 330.199,177.915 C330.933,168.378 297.184,159.207 306.354,171.313" fill="#F3B78B"/>
    <path d="M283.977,287.967 C283.977,287.967 288.012,296.405 307.454,296.772 C326.896,297.138 336.067,293.103 336.067,293.103 L339.735,288.701 C339.735,288.701 305.62,291.635 283.977,287.967" fill="#F3B78B"/>
    <path d="M331.299,303.739 C332.399,304.473 357.345,303.372 357.345,303.372 L336.435,308.508 L331.299,303.739" fill="#F3B78B"/>
    <path d="M390.359,331.252 C390.359,331.252 387.791,342.99 377.887,348.126 C367.982,353.262 335.334,352.896 335.334,352.896 C335.334,352.896 344.506,368.303 361.38,368.303 C378.254,368.303 385.957,359.498 388.525,354.363 C391.094,349.227 390.359,331.252 390.359,331.252" fill="#F3B78B"/>
    <path d="M407.601,348.126 C407.601,348.126 404.667,345.926 399.164,347.76 C393.661,349.594 387.425,355.096 387.425,355.096 L392.193,342.624 L405.767,338.955 L407.601,348.126" fill="#F3B78B"/>
    <path d="M187.863,237.707 L212.808,223.401 L215.013,228.539 C215.013,228.539 206.577,229.303 194.1,243.24 L187.863,237.707" fill="#F3B78B"/>
    <path d="M131.129,104.147 C118.913,118.01 98.56,136.018 93.83,139.825 C84.331,147.47 62.429,142.029 63.926,141.719 C65.422,141.408 70.476,130.179 73.728,130.763 C76.98,131.347 83.798,135.727 89.979,130.778 C96.161,125.828 92.988,113.802 95.286,115.022 C97.583,116.242 107.975,117.825 116.279,113.134 C124.583,108.445 122.305,100.624 122.305,100.624 L123.213,91.101 L140.428,88.701 C140.428,88.701 136.886,97.614 131.129,104.147" fill="#F3B78B"/>
    <path d="M144.408,104.579 L126.118,123.435 C126.118,123.435 149.647,117.44 167.8,138.088 L146.727,100.82 L144.408,104.579" fill="#F3B78B"/>
    <path d="M94.653,120.004 C94.653,120.004 91.588,131.101 75.379,122.659 C59.17,114.217 42.22,106.128 42.22,106.128 C42.22,106.128 60.637,130.24 49.667,128.205 C38.698,126.17 6.286,100.921 5.489,92.393 C5.489,92.393 5.856,116.395 15.083,125.444 C24.31,134.492 46.004,145.266 54.964,143.492 C63.926,141.719 69.928,139.804 72.182,136.91 C74.437,134.016 74.47,132.182 74.47,132.182 C74.47,132.182 85.053,135.31 89.979,130.778 C94.906,126.245 94.653,120.004 94.653,120.004" fill="#F3B78B"/>
    <path d="M58.389,84.777 C58.389,84.777 102.123,112.802 110.943,108.048 C119.762,103.293 121.178,102.071 121.178,102.071 C121.178,102.071 122.747,112.593 116.697,114.39 C110.646,116.188 95.286,115.022 95.286,115.022 L58.389,84.777" fill="#F3B78B"/>
    <path d="M141.492,86.741 L123.213,91.101 L83.762,57.578 C83.762,57.578 121.706,85.277 141.492,86.741" fill="#F3B78B"/>
    <path d="M390.361,112.62 C390.361,112.62 379.72,122.521 376.418,131.325 C373.116,140.129 372.02,142.701 372.02,142.701 C372.02,142.701 361.385,130.233 360.647,120.324 C359.91,110.415 365.046,97.209 365.046,97.209 C365.046,97.209 352.946,101.253 345.974,109.686 C339.001,118.119 334.602,128.394 334.602,128.394 C334.602,128.394 321.023,125.454 318.091,113.717 C315.158,101.98 316.626,93.91 316.626,93.91 C316.626,93.91 287.643,101.611 277.738,106.38 C267.834,111.149 254.261,122.154 254.261,122.154 C254.261,122.154 249.492,109.315 261.598,90.239 C273.703,71.164 305.251,67.495 305.251,67.495 C305.251,67.495 307.088,47.686 329.831,32.646 C352.574,17.605 372.018,21.274 372.018,21.274 C372.018,21.274 362.847,31.546 358.444,45.485 C354.042,59.424 354.409,67.495 354.409,67.495 C354.409,67.495 364.313,57.957 383.022,55.389 C401.731,52.821 416.404,57.957 416.404,57.957 C416.404,57.957 402.099,70.798 411.636,92.808 C421.173,114.819 434.379,123.623 440.982,140.131 C447.586,156.638 450.153,170.577 449.053,179.015 C447.952,187.452 443.551,196.99 443.551,196.99 C443.551,196.99 451.988,192.222 455.656,185.618 C459.324,179.015 459.691,176.08 459.691,176.08 C459.691,176.08 464.46,183.051 458.224,188.92 C451.987,194.789 443.917,198.457 443.917,198.457 C443.917,198.457 451.253,207.629 450.887,218.634 C450.521,229.639 445.751,238.81 445.751,238.81 C445.751,238.81 442.591,227.212 439.882,224.503 C434.379,219 428.271,220.08 428.271,220.08 C428.271,220.08 422.271,227.436 412.735,230.006 C403.2,232.576 402.831,231.84 402.831,231.84 C402.831,231.84 415.303,222.669 421.906,190.754 C421.906,190.754 389.264,137.57 390.361,112.62" fill="#8B6B46"/>
    <path d="M442.449,198.823 C442.449,198.823 446.852,207.993 444.65,215.33 C442.449,222.667 439.882,223.034 439.882,223.034 L445.385,237.341 C445.385,237.341 456.756,212.03 442.449,198.823" fill="#6D4E28"/>
    <path d="M324.327,81.066 C324.327,81.066 291.312,90.237 278.105,104.911 L316.626,93.91 L324.327,81.066" fill="#6D4E28"/>
    <path d="M363.212,97.941 C363.212,97.941 345.97,101.61 336.065,111.147 C326.161,120.685 334.602,128.394 334.602,128.394 C334.602,128.394 341.202,106.011 363.212,97.941" fill="#6D4E28"/>
    <path d="M388.156,113.348 C388.156,113.348 378.619,115.549 374.217,123.253 C369.814,130.956 367.98,137.926 367.98,137.926 L372.016,143.796 C372.016,143.796 377.518,119.584 388.156,113.348" fill="#6D4E28"/>
    <path d="M354.409,67.495 C354.409,67.495 344.502,70.794 348.538,55.754 C352.574,40.713 367.247,28.24 367.247,28.24 C367.247,28.24 358.443,43.281 356.242,53.186 C354.041,63.09 354.409,67.495 354.409,67.495" fill="#6D4E28"/>
    <path d="M412.001,62.723 C412.001,62.723 397.693,73.729 398.428,83.266 C399.162,92.804 423.373,116.281 423.373,116.281 C423.373,116.281 397.694,85.834 412.001,62.723" fill="#6D4E28"/>
    <path d="M440.247,139.393 C440.247,139.393 445.063,170.256 443.549,180.845 C441.714,193.685 439.513,196.987 439.513,196.987 C439.513,196.987 448.317,194.785 448.317,180.112 C448.317,165.438 440.247,139.393 440.247,139.393" fill="#6D4E28"/>
    <path d="M413.467,271.086 L385.587,283.192 L380.818,277.322 L399.894,265.583 C399.894,265.583 406.863,270.353 413.467,271.086" fill="#6D4E28"/>
    <path d="M373.851,226.331 C373.851,226.331 353.308,224.863 356.976,211.657 C360.644,198.451 389.99,205.789 387.423,217.16 C384.855,228.531 373.851,226.331 373.851,226.331" fill="#E77D6E"/>
    <path d="M239.163,186.851 C239.163,186.851 219.363,181.183 225.672,169.016 C231.982,156.848 259.188,170.074 254.334,180.672 C249.479,191.271 239.163,186.851 239.163,186.851" fill="#E77D6E"/>
    <path d="M355.875,220.461 C355.875,220.461 323.592,221.562 299.748,214.592 C275.904,207.622 249.125,193.682 249.125,193.682 C249.125,193.682 257.194,183.411 296.813,188.913 C336.433,194.415 355.875,220.461 355.875,220.461" fill="#FFFFFE"/>
    <path d="M338.267,270.351 C338.267,270.351 324.327,260.447 298.648,259.713 C272.97,258.979 261.598,262.648 261.598,262.648 C261.598,262.648 272.603,274.753 297.181,277.688 C321.759,280.622 338.267,270.351 338.267,270.351" fill="#FFFFFE"/>
    <path d="M259.396,260.078 C259.396,260.078 264.899,245.406 282.874,232.199 C300.849,218.992 308.553,215.324 308.553,215.324 C308.553,215.324 342.301,220.827 355.141,220.46 L364.679,229.998 C364.679,229.998 357.343,250.541 351.473,256.41 C345.603,262.279 338.267,269.249 338.267,269.249 C338.267,269.249 321.759,260.445 297.914,258.978 C274.069,257.511 261.598,262.648 261.598,262.648 L259.396,260.078" fill="#E15D29"/>
    <path d="M308.553,215.324 C308.553,215.324 288.011,212.024 274.804,206.521 C261.597,201.018 250.226,193.681 250.226,193.681 C250.226,193.681 247.291,215.692 248.391,231.099 C249.491,246.506 257.929,259.345 257.929,259.345 C257.929,259.345 270.402,240.637 282.874,232.199 C295.346,223.762 308.553,215.324 308.553,215.324" fill="#E26151"/>
    <path d="M279.571,234.034 C279.571,234.034 293.144,226.696 317.722,225.23 C342.3,223.763 359.908,238.07 359.908,238.07 L364.679,229.998 L355.875,220.461 C355.875,220.461 330.195,220.094 321.391,218.993 C312.586,217.893 311.485,216.792 311.485,216.792 C311.485,216.792 300.113,218.993 292.41,224.496 C284.707,229.999 279.571,234.034 279.571,234.034" fill="#C8412A"/>
    <path d="M279.204,208.722 L256.827,199.551 C256.827,199.551 274.435,208.356 274.802,216.426 C275.169,224.496 270.767,243.205 270.767,243.205 C270.767,243.205 277.737,233.301 288.742,226.697 C299.747,220.094 307.45,216.426 307.45,216.426 L279.204,208.722" fill="#CC584B"/>
    <path d="M343.4,219.728 C343.4,219.728 342.116,211.869 335.33,206.154 C328.36,200.285 315.154,192.214 315.154,192.214 C315.154,192.214 334.597,201.386 342.667,207.255 C350.737,213.124 355.875,220.461 355.875,220.461 L343.4,219.728" fill="#D7D8D6"/>
    <path d="M323.592,263.748 C323.592,263.748 326.894,268.516 325.426,271.084 C323.958,273.653 310.385,277.688 310.385,277.688 C310.385,277.688 325.058,276.954 329.827,274.753 C334.597,272.552 337.164,269.25 337.164,269.25 C337.164,269.25 328.361,263.748 323.592,263.748" fill="#D7D8D6"/>
    <path d="M215.375,227.799 C215.375,227.799 201.435,232.2 191.163,246.507 C180.892,260.814 180.892,265.216 180.892,265.216 C180.892,265.216 200.701,271.82 220.877,286.86 C241.053,301.9 263.063,315.84 263.063,315.84 C263.063,315.84 267.832,348.855 270.033,362.061 C272.234,375.267 272.602,399.112 272.602,399.112 L413.101,399.112 L402.462,370.864 C402.462,370.864 395.124,374.166 388.889,373.066 C382.653,371.965 375.688,365.738 375.688,365.738 C375.688,365.738 365.044,371.231 352.205,365.729 C339.366,360.227 336.805,358.771 335.334,352.896 C333.863,347.021 336.064,341.885 336.064,341.885 C336.064,341.885 329.827,333.814 331.662,329.045 C333.497,324.277 333.863,322.075 333.863,322.075 C333.863,322.075 328.728,317.674 330.929,314.372 C333.13,311.071 334.602,308.879 334.602,308.879 C334.602,308.879 328.727,307.401 329.461,301.165 C329.461,301.165 316.255,310.337 307.451,308.136 C298.647,305.935 295.345,304.101 291.677,299.698 C288.009,295.296 284.707,287.226 284.707,287.226 C284.707,287.226 272.235,286.859 252.426,272.919 C232.616,258.98 215.007,236.971 215.375,227.799" fill="#0B4A8E"/>
    <path d="M341.205,287.236 L336.064,296.397 C336.064,296.397 350.37,293.829 359.175,293.829 C367.979,293.829 378.984,297.864 383.387,307.769 C387.789,317.673 392.199,329.432 390.728,342.628 C390.728,342.628 398.437,340.804 405.769,337.492 C413.101,334.181 417.136,328.679 417.136,328.679 C417.136,328.679 401.362,312.172 395.859,300.066 C390.356,287.959 380.452,276.221 380.452,276.221 L341.205,287.236" fill="#0B4A8E"/>
    <path d="M389.255,313.272 C397.325,325.01 399.894,339.317 399.894,339.317 L392.193,342.624 C392.193,342.624 390.723,325.377 387.788,316.206 C384.854,307.035 378.617,298.965 378.617,298.965 C378.617,298.965 381.185,301.533 389.255,313.272" fill="#0D3567"/>
    <path d="M386.32,285.025 C386.32,285.025 378.25,280.989 372.014,282.457 C365.777,283.925 346.702,289.427 346.702,289.427 L338.265,292.729 L341.205,287.236 C341.205,287.236 356.973,283.924 365.777,281.357 C374.582,278.789 380.452,276.221 380.452,276.221 L387.055,285.392" fill="#0D3567"/>
    <path d="M254.625,288.325 C254.625,288.325 255.725,297.129 250.956,298.23 C246.188,299.33 222.343,289.059 222.343,289.059 L261.595,316.205 L254.625,288.325" fill="#0D3567"/>
    <path d="M212.438,229.265 C212.438,229.265 221.609,258.612 245.821,272.918 C270.032,287.225 288.747,295.672 288.747,295.672 L284.707,287.226 C284.707,287.226 268.564,285.024 249.489,271.084 C230.414,257.145 217.22,237.352 215.013,228.539 L212.438,229.265" fill="#0D3567"/>
    <path d="M332.395,331.98 C332.395,331.98 333.495,344.451 331.294,347.753 C329.093,351.055 332.395,363.528 345.601,368.296 C358.807,373.065 370.18,370.863 375.682,372.331 C381.184,373.799 402.094,381.502 402.094,381.502 L409.797,398.743 L413.101,398.743 L402.462,370.864 C402.462,370.864 396.591,374.166 387.787,372.698 C378.983,371.231 375.688,365.738 375.688,365.738 C375.688,365.738 367.979,370.863 351.104,366.095 C334.229,361.326 334.223,356.547 334.596,351.055 C334.969,345.563 336.064,341.885 336.064,341.885 L332.395,331.98" fill="#0D3567"/>
    <path d="M261.271,116.08 C261.271,116.08 247.605,134.747 244.605,140.08 C241.605,145.414 233.938,146.414 230.938,146.414 C227.938,146.414 217.271,148.746 210.271,166.413 C203.271,184.08 206.271,222.08 225.605,247.08 C244.938,272.08 273.271,293.08 323.271,289.08 C373.271,285.08 391.271,269.414 399.271,264.414 C399.271,264.414 401.271,268.746 412.938,269.08 C424.605,269.414 441.604,261.414 444.271,245.747 C446.938,230.08 440.271,220.08 428.271,220.08 M316.184,93.912 C316.184,93.912 271.938,102.747 253.938,122.414 C252.605,111.08 254.444,102.072 261.605,91.08 C275.938,69.08 304.938,67.747 304.938,67.747 C304.938,67.747 305.486,52.734 322.271,38.08 C343.271,19.747 371.271,21.08 371.271,21.08 C371.271,21.08 352.272,47.08 354.605,67.414 C354.605,67.414 367.272,56.08 386.605,54.08 C405.938,52.08 415.605,57.747 415.605,57.747 C415.605,57.747 406.271,70.414 408.271,83.414 C410.271,96.414 419.271,111.414 427.271,119.414 C435.271,127.414 447.068,147.423 448.271,171.08 C449.271,190.747 442.271,197.08 442.271,197.08 C442.271,197.08 449.938,202.747 449.938,218.747 C449.938,232.08 444.605,241.08 444.605,241.08 M341.938,74.747 C341.938,74.747 318.938,75.747 316.271,99.414 C313.605,123.08 334.271,128.414 334.271,128.414 C334.271,128.414 340.938,106.08 364.271,97.747 C364.271,97.747 351.605,120.414 371.605,142.414 C371.605,142.414 375.938,122.747 390.271,112.747 C390.271,112.747 394.939,141.08 405.605,161.08 C416.271,181.08 422.605,190.413 422.605,190.413 C422.605,190.413 417.272,208.747 412.605,219.08 C407.938,229.413 402.271,232.413 402.271,232.413 C402.271,232.413 420.939,230.414 428.605,218.747 M407.604,252.747 C407.604,252.747 410.271,243.081 419.938,246.747 C429.605,250.413 421.271,261.413 421.271,261.413 C428.938,257.746 433.604,252.506 433.604,242.747 C433.604,234.747 423.604,230.747 423.604,230.747 M348.938,142.08 C348.938,142.08 360.938,137.414 374.938,139.414 M290.271,108.747 C290.271,108.747 293.605,115.414 294.938,122.747" fill-opacity="0" stroke="#090020" stroke-width="2.835" stroke-linecap="round" stroke-linejoin="round"/>
    <path d="M263.271,142.747 C263.271,142.747 274.938,148.081 278.938,152.414 C282.938,156.747 283.605,161.414 283.605,161.414 C283.605,161.414 274.939,165.414 268.605,167.414 C262.271,169.414 253.605,173.08 253.605,173.08 M377.271,177.414 C377.271,177.414 363.604,174.08 353.271,172.747 C342.938,171.414 338.271,173.414 338.271,173.414 C338.271,173.414 349.604,186.746 363.271,198.08" fill-opacity="0" stroke="#090020" stroke-width="5.669" stroke-linecap="round" stroke-linejoin="round"/>
    <path d="M306.938,172.747 C306.605,170.747 304.272,162.08 295.605,166.08 C286.938,170.08 294.605,181.08 296.938,182.747 M249.271,193.414 C249.271,193.414 258.938,182.414 299.938,188.414 C340.938,194.414 364.271,229.414 364.271,229.414 C364.271,229.414 352.604,263.746 332.271,273.08 C311.938,282.414 264.939,277.748 254.605,253.414 C244.271,229.08 249.271,193.414 249.271,193.414 z" fill-opacity="0" stroke="#090020" stroke-width="2.835" stroke-linecap="round" stroke-linejoin="round"/>
    <g>
      <path d="M249.271,193.414 C249.271,193.414 256.604,202.414 290.271,211.414 C323.938,220.414 356.605,220.414 356.605,220.414 M260.938,262.08 C260.938,262.08 273.272,257.08 301.605,259.747 C329.938,262.414 337.938,269.414 337.938,269.414 M258.271,260.08 C258.271,260.08 260.094,252.204 278.938,235.414 C297.271,219.08 309.938,215.747 309.938,215.747 M363.938,209.747 L363.938,219.08 M371.938,212.414 L370.605,219.747 M377.938,213.747 L375.938,220.747 M236.271,168.747 L233.605,178.747 M241.938,173.414 L240.605,180.414 M249.271,178.414 L247.271,183.747" fill-opacity="0" stroke="#090020" stroke-width="2.268" stroke-linecap="round" stroke-linejoin="round"/>
      <path d="M458.271,175.08 C458.271,175.08 455.604,191.413 442.271,197.08 C442.271,197.08 448.272,198.414 456.605,190.414 C464.938,182.414 458.271,175.08 458.271,175.08 z M414.605,269.414 C414.605,269.414 403.271,277.08 384.271,283.08 M379.605,276.08 C379.605,276.08 382.605,277.08 394.938,299.08 C407.271,321.08 416.938,328.747 416.938,328.747 C416.938,328.747 413.604,336.413 391.271,342.413 M406.271,338.413 C406.271,339.413 411.271,356.081 406.938,364.747 C402.605,373.413 385.604,376.08 375.271,365.413 M360.604,303.747 C360.604,303.747 341.938,303.081 334.271,309.747 C326.604,316.413 333.605,321.08 333.938,323.08 C334.271,325.08 331.272,328.079 331.938,331.413 C332.604,334.747 334.271,339.746 335.271,341.413 C336.271,343.08 331.938,350.413 336.604,356.413 C341.271,362.413 358.008,374.151 377.604,364.08 C401.604,351.747 388.604,308.08 377.604,300.08 C377.604,300.08 370.938,293.746 356.604,294.413 C342.271,295.08 339.271,296.413 333.271,296.413 C327.271,296.413 329.271,307.079 334.271,308.413 M402.271,370.08 L411.938,396.08 M284.271,286.413 C284.271,286.413 288.604,303.079 302.271,307.413 C315.938,311.747 329.604,301.413 329.604,301.413" fill-opacity="0" stroke="#090020" stroke-width="2.835" stroke-linecap="round" stroke-linejoin="round"/>
    </g>
    <path d="M279.271,286.413 C279.271,286.413 282.604,304.414 294.271,311.747 C305.938,319.08 325.604,314.747 332.604,308.08" fill-opacity="0" stroke="#090020" stroke-width="2.268" stroke-linecap="round" stroke-linejoin="round"/>
    <path d="M335.604,296.413 L340.938,287.413" fill-opacity="0" stroke="#090020" stroke-width="2.835" stroke-linecap="round" stroke-linejoin="round"/>
    <g>
      <path d="M347.271,286.413 L342.271,295.747" fill-opacity="0" stroke="#090020" stroke-width="2.268" stroke-linecap="round" stroke-linejoin="round"/>
      <path d="M255.605,288.414 C255.605,288.414 272.604,355.082 272.604,398.748 M261.938,315.747 C261.938,315.747 237.605,299.747 214.271,282.747 C190.938,265.747 180.605,265.414 180.605,265.414 C180.605,265.414 187.938,240.08 214.938,227.747 M194.751,242.806 C194.751,242.806 96.16,155.974 85.703,144.613 M146.524,99.746 L207.575,206.458 M158.529,56.348 C158.529,56.348 158.871,89.116 139.701,109.067 M117.039,21.23 C120.911,14.118 127.27,8.984 134.743,8.462 C150.638,7.352 166.336,18.901 167.271,35.34 C168.02,48.486 157.423,59.073 147.415,62.397 M24.085,132.654 C12.951,126.576 -0.685,105.329 6.037,69.579 C12.759,33.83 35.898,15.517 61.252,7.381 C86.605,-0.757 102.24,8.465 116.351,20.725 C130.462,32.985 153.446,63.146 148.995,73.199 C144.543,83.252 142.143,86.875 138.985,88.217 C135.826,89.56 122.201,90.777 122.201,90.777 C122.201,90.777 123.799,105.543 118.824,111.385 C113.848,117.229 95.286,115.022 95.286,115.022 C95.286,115.022 95.482,126.161 89.135,130.512 C82.788,134.863 73.728,130.763 73.728,130.763 C73.728,130.763 74.394,138.044 63.926,141.719 C53.456,145.394 40.391,141.554 24.085,132.654 z M113.177,125.827 C113.177,125.827 89.659,151.872 64.407,141.91 M122.201,90.777 C120.128,87.302 77.17,52.908 77.17,52.908 M95.783,114.374 C95.783,114.374 71.377,96.756 58.035,84.037 M73.728,130.763 C73.728,130.763 51.703,117.235 41.706,106.192" fill-opacity="0" stroke="#090020" stroke-width="2.835" stroke-linecap="round" stroke-linejoin="round"/>
    </g>
  </g>
</svg>
