<?xml version="1.0"?>
<svg xmlns:rdf="http://www.w3.org/1999/02/22-rdf-syntax-ns#" xmlns="http://www.w3.org/2000/svg" xmlns:sodipodi="http://inkscape.sourceforge.net/DTD/sodipodi-0.dtd" xmlns:cc="http://web.resource.org/cc/" xmlns:xlink="http://www.w3.org/1999/xlink" xmlns:dc="http://purl.org/dc/elements/1.1/" xmlns:svg="http://www.w3.org/2000/svg" id="svg2" viewBox="0 0 140 190" sodipodi:version="0.32" version="1.0" y="0" x="0" sodipodi:docname="ornamental_c_10.svg" sodipodi:docbase="/home/nicu/Desktop/svg/card_nicu_buculei_01/cards/ornamental">
  <sodipodi:namedview id="base" bordercolor="#666666" borderopacity="1.0" pagecolor="#ffffff"/>
  <defs id="defs3">
    <linearGradient id="linearGradient1734" x1="2" gradientUnits="userSpaceOnUse" y1="63.1" gradientTransform="translate(0 -1)" x2="109" y2="128.7">
      <stop id="stop2062" stop-color="#ebf0d0" offset="0"/>
      <stop id="stop2064" stop-color="#ffffeb" offset="1"/>
    </linearGradient>
  </defs>
  <g id="layer1">
    <g id="g1344">
      <g id="g5630">
        <path id="rect2070" d="m21 5h103c8.86 0 16 7.136 16 16v153c0 8.86-7.14 16-16 16h-103c-8.864 0-16-7.14-16-16v-153c0-8.864 7.136-16 16-16z" fill-opacity=".49804"/>
        <path id="rect1300" d="m17 1h103c8.86 0 16 7.136 16 16v153c0 8.86-7.14 16-16 16h-103c-8.864 0-16-7.14-16-16v-153c0-8.864 7.136-16 16-16z" fill="#fff"/>
        <path id="path5624" d="m19 3h103c8.86 0 16 7.136 16 16v153c0 8.86-7.14 16-16 16h-103c-8.864 0-16-7.14-16-16v-153c0-8.864 7.136-16 16-16z" fill="#c7891f"/>
        <path id="rect1306" d="m18 2h103c8.86 0 16 7.136 16 16v153c0 8.86-7.14 16-16 16h-103c-8.864 0-16-7.14-16-16v-153c0-8.864 7.136-16 16-16z" fill="url(#linearGradient1734)"/>
      </g>
      <path id="path2869" fill-rule="evenodd" fill="#9f0000" d="m103.53 21c-0.5 0.002-0.97 0.099-1.44 0.281-0.93 0.364-1.73 1.112-2.03 2.188-0.173 0.645-0.12 1.381 0.19 2s0.93 1.119 1.75 1.125c0.48 0.003 0.85-0.196 1.16-0.532 0.15-0.167 0.31-0.415 0.31-0.718s-0.21-0.583-0.47-0.75l-0.53 0.812c0.07 0.046 0-0.005 0-0.062 0-0.058 0.02-0.022-0.03 0.031-0.1 0.106-0.46 0.219-0.44 0.219-0.42-0.003-0.65-0.217-0.84-0.594s-0.23-0.905-0.13-1.281c0.21-0.751 0.72-1.231 1.41-1.5 0.69-0.27 1.55-0.298 2.25-0.031 2.11 0.807 2.82 3.429 1.93 5.437-0.77 1.764-2.58 2.83-4.5 2.906l-62.776 0.375v1l62.566-0.375v0.063c0.07 0 0.14-0.06 0.21-0.063h0.35v-0.093c2.16-0.195 4.19-1.362 5.09-3.407 1.1-2.492 0.15-5.748-2.56-6.781-0.47-0.18-0.97-0.252-1.47-0.25zm11.41 3.031c-0.67 0.023-1.35 0.163-1.97 0.438-2.05 0.903-3.21 2.93-3.41 5.093h-0.09v0.344c0 0.078-0.06 0.141-0.06 0.219h0.06l0.25 69.094h1l-0.25-69.313c0.08-1.919 1.14-3.72 2.91-4.5 2-0.887 4.62-0.178 5.43 1.938 0.27 0.698 0.24 1.561-0.03 2.25-0.27 0.688-0.75 1.202-1.5 1.406-0.37 0.102-0.9 0.064-1.28-0.125s-0.59-0.421-0.59-0.844c0 0.018 0.11-0.34 0.21-0.437 0.06-0.049 0.09-0.031 0.04-0.032-0.06 0-0.11-0.07-0.07 0l0.82-0.531c-0.17-0.259-0.45-0.468-0.75-0.469-0.31 0-0.55 0.16-0.72 0.313-0.34 0.306-0.54 0.681-0.53 1.156 0 0.819 0.5 1.44 1.12 1.75 0.62 0.311 1.36 0.363 2 0.188 1.08-0.293 1.82-1.102 2.19-2.031 0.18-0.465 0.28-0.941 0.28-1.438s-0.07-0.996-0.25-1.469c-0.77-2.029-2.8-3.068-4.81-3zm-85.659 65.969l0.25 69.31c-0.076 1.92-1.142 3.72-2.906 4.5-2.008 0.89-4.63 0.18-5.437-1.93-0.267-0.7-0.239-1.57 0.031-2.26 0.269-0.68 0.749-1.2 1.5-1.4 0.376-0.1 0.904-0.07 1.281 0.12s0.591 0.42 0.594 0.85c0-0.02-0.113 0.34-0.219 0.43-0.053 0.05-0.089 0.04-0.031 0.04 0.057 0 0.108 0.07 0.062 0l-0.812 0.53c0.167 0.26 0.447 0.47 0.75 0.47s0.551-0.16 0.718-0.32c0.336-0.3 0.535-0.68 0.532-1.15-0.006-0.82-0.506-1.44-1.125-1.75s-1.355-0.37-2-0.19c-1.076 0.29-1.824 1.1-2.188 2.03-0.182 0.47-0.279 0.94-0.281 1.44s0.07 0.99 0.25 1.47c1.033 2.7 4.289 3.66 6.781 2.56 2.045-0.9 3.212-2.93 3.407-5.09h0.093v-0.35c0.003-0.08 0.063-0.14 0.063-0.22h-0.063l-0.25-69.09h-1zm71.379 67.31l-62.566 0.38v-0.07c-0.078 0-0.141 0.06-0.219 0.07h-0.344v0.09c-2.163 0.2-4.19 1.36-5.093 3.41-1.101 2.49-0.144 5.75 2.562 6.78 0.472 0.18 0.971 0.25 1.469 0.25 0.497 0 0.972-0.1 1.437-0.28 0.93-0.37 1.739-1.11 2.032-2.19 0.175-0.65 0.122-1.38-0.188-2s-0.932-1.12-1.75-1.13c-0.476 0-0.85 0.2-1.156 0.54-0.153 0.16-0.314 0.41-0.313 0.72 0.001 0.3 0.21 0.58 0.469 0.74l0.531-0.81c-0.07-0.04 0 0.01 0 0.07 0 0.05-0.017 0.02 0.031-0.04 0.097-0.1 0.455-0.21 0.438-0.22 0.423 0.01 0.655 0.22 0.844 0.6s0.227 0.9 0.125 1.28c-0.205 0.75-0.718 1.23-1.407 1.5-0.688 0.27-1.552 0.3-2.25 0.03-2.115-0.81-2.824-3.43-1.937-5.44 0.779-1.76 2.581-2.83 4.5-2.9l62.785-0.38v-1z"/>
    </g>
  </g>
  <path id="path908" sodipodi:nodetypes="cscsssccccccssscsc" fill-rule="evenodd" d="m20.527 48.67c-2.666 0-4.83 3.264-4.83 7.286 0 3.426 4.392 9.191 4.222 11.929-1.41 0.783-5.767-6.437-8.019-6.437-2.6665 0-4.83 3.263-4.83 7.285 0 4.023 2.1635 7.286 4.83 7.286 2.312 0 6.276-7.214 8.019-6.563l-2.929 12.874 7.024-0.042s-3.077-12.481-3.081-12.776h0.055v0.014c1.707-0.64 5.806 6.632 8.102 6.632 2.667 0 4.83-3.263 4.83-7.286 0-4.022-2.163-7.285-4.83-7.285-2.242 0-6.308 7.1-8.093 6.368 0.025-2.806 4.36-8.577 4.36-11.999 0-4.022-2.163-7.286-4.83-7.286z"/>
  <path id="path2229" d="m11.677 42.368v-23.59l-5.237-0.069 0.2526-3.622 4.9544-3.089h5.492v30.37m13.434-15.222c0-3.75-0.265-6.389-0.796-7.916-0.52-1.541-1.4-2.311-2.641-2.311-1.24 0-2.125 0.77-2.656 2.311-0.53 1.527-0.795 4.166-0.795 7.916 0 3.791 0.265 6.464 0.795 8.018 0.531 1.554 1.416 2.331 2.656 2.331 1.231 0 2.111-0.777 2.641-2.331 0.531-1.554 0.796-4.227 0.796-8.018m5.777 0.061c0 4.97-0.8 8.807-2.401 11.513-1.601 2.693-3.872 4.039-6.813 4.039-2.951 0-5.227-1.346-6.827-4.039-1.601-2.706-2.401-6.543-2.401-11.513 0-4.983 0.8-8.821 2.401-11.514 1.6-2.706 3.876-4.059 6.827-4.059 2.941 0 5.212 1.353 6.813 4.059 1.601 2.693 2.401 6.531 2.401 11.514"/>
  <path id="path4295" sodipodi:nodetypes="cscsssccccccssscsc" fill-rule="evenodd" d="m117.42 139.96c2.66 0 4.83-3.26 4.83-7.29 0-3.42-4.39-9.19-4.22-11.93 1.41-0.78 5.76 6.44 8.02 6.44 2.66 0 4.83-3.26 4.83-7.28 0-4.03-2.17-7.29-4.83-7.29-2.32 0-6.28 7.21-8.02 6.56l2.93-12.87-7.03 0.04s3.08 12.48 3.08 12.78h-0.05v-0.02c-1.71 0.64-5.81-6.63-8.1-6.63-2.67 0-4.83 3.27-4.83 7.29s2.16 7.28 4.83 7.28c2.24 0 6.3-7.1 8.09-6.36-0.03 2.8-4.36 8.57-4.36 11.99 0 4.03 2.16 7.29 4.83 7.29z"/>
  <path id="path4297" d="m126.27 146.27v23.59l5.24 0.06-0.26 3.63-4.95 3.09h-5.49v-30.37m-13.44 15.22c0 3.75 0.27 6.39 0.8 7.91 0.52 1.55 1.4 2.32 2.64 2.32s2.12-0.77 2.66-2.32c0.53-1.52 0.79-4.16 0.79-7.91 0-3.79-0.26-6.47-0.79-8.02-0.54-1.55-1.42-2.33-2.66-2.33-1.23 0-2.11 0.78-2.64 2.33s-0.8 4.23-0.8 8.02m-5.77-0.06c0-4.97 0.8-8.81 2.4-11.52 1.6-2.69 3.87-4.03 6.81-4.03 2.95 0 5.23 1.34 6.83 4.03 1.6 2.71 2.4 6.55 2.4 11.52 0 4.98-0.8 8.82-2.4 11.51-1.6 2.71-3.88 4.06-6.83 4.06-2.94 0-5.21-1.35-6.81-4.06-1.6-2.69-2.4-6.53-2.4-11.51"/>
  <path id="path2242" sodipodi:nodetypes="cscsssccccccssscsc" fill-rule="evenodd" d="m49.199 36c-1.553 0-2.814 1.918-2.814 4.281 0 2.014 2.559 5.402 2.459 7.011-0.821 0.459-3.359-3.783-4.671-3.783-1.553 0-2.813 1.917-2.813 4.281s1.26 4.281 2.813 4.281c1.347 0 3.656-4.239 4.671-3.856l-1.706 7.565 4.092-0.025s-1.793-7.334-1.795-7.507h0.032v0.008c0.995-0.376 3.382 3.897 4.72 3.897 1.553 0 2.813-1.918 2.813-4.281 0-2.364-1.26-4.282-2.813-4.282-1.307 0-3.675 4.173-4.714 3.743 0.014-1.649 2.539-5.04 2.539-7.052 0-2.363-1.26-4.281-2.813-4.281z"/>
  <path id="path2250" sodipodi:nodetypes="cscsssccccccssscsc" fill-rule="evenodd" d="m68.839 50.22c-1.553 0-2.814 1.918-2.814 4.281 0 2.014 2.559 5.402 2.459 7.011-0.821 0.459-3.359-3.783-4.671-3.783-1.553 0-2.813 1.917-2.813 4.281s1.26 4.281 2.813 4.281c1.347 0 3.656-4.239 4.671-3.856l-1.706 7.565 4.092-0.025s-1.793-7.334-1.795-7.507h0.032v0.008c0.995-0.376 3.382 3.897 4.72 3.897 1.553 0 2.813-1.918 2.813-4.281 0-2.364-1.26-4.282-2.813-4.282-1.307 0-3.675 4.173-4.714 3.743 0.014-1.649 2.539-5.04 2.539-7.052 0-2.363-1.26-4.281-2.813-4.281z"/>
  <path id="path2248" sodipodi:nodetypes="cscsssccccccssscsc" fill-rule="evenodd" d="m90.199 36.22c-1.553 0-2.814 1.918-2.814 4.281 0 2.014 2.559 5.402 2.459 7.011-0.821 0.459-3.359-3.783-4.671-3.783-1.553 0-2.813 1.917-2.813 4.281s1.26 4.281 2.813 4.281c1.347 0 3.656-4.239 4.671-3.856l-1.706 7.565 4.092-0.025s-1.793-7.334-1.795-7.507h0.032v0.008c0.995-0.376 3.382 3.897 4.72 3.897 1.553 0 2.813-1.918 2.813-4.281 0-2.364-1.26-4.282-2.813-4.282-1.307 0-3.675 4.173-4.714 3.743 0.014-1.649 2.539-5.04 2.539-7.052 0-2.363-1.26-4.281-2.813-4.281z"/>
  <path id="path2254" sodipodi:nodetypes="cscsssccccccssscsc" fill-rule="evenodd" d="m48.839 71.22c-1.553 0-2.814 1.918-2.814 4.281 0 2.014 2.559 5.402 2.459 7.011-0.821 0.459-3.359-3.783-4.671-3.783-1.553 0-2.813 1.917-2.813 4.281s1.26 4.281 2.813 4.281c1.347 0 3.656-4.239 4.671-3.856l-1.706 7.565 4.092-0.025s-1.793-7.334-1.795-7.507h0.032v0.008c0.995-0.376 3.382 3.897 4.72 3.897 1.553 0 2.813-1.918 2.813-4.281 0-2.364-1.26-4.282-2.813-4.282-1.307 0-3.675 4.173-4.714 3.743 0.014-1.649 2.539-5.04 2.539-7.052 0-2.363-1.26-4.281-2.813-4.281z"/>
  <path id="path2252" sodipodi:nodetypes="cscsssccccccssscsc" fill-rule="evenodd" d="m88.199 70c-1.553 0-2.814 1.918-2.814 4.281 0 2.014 2.559 5.402 2.459 7.011-0.821 0.459-3.359-3.783-4.671-3.783-1.553 0-2.813 1.917-2.813 4.281s1.26 4.281 2.813 4.281c1.347 0 3.656-4.239 4.671-3.856l-1.706 7.565 4.092-0.025s-1.793-7.334-1.795-7.507h0.032v0.008c0.995-0.376 3.382 3.897 4.72 3.897 1.553 0 2.813-1.918 2.813-4.281 0-2.364-1.26-4.282-2.813-4.282-1.307 0-3.675 4.173-4.714 3.743 0.014-1.649 2.539-5.04 2.539-7.052 0-2.363-1.26-4.281-2.813-4.281z"/>
  <path id="path2258" sodipodi:nodetypes="cscsssccccccssscsc" fill-rule="evenodd" d="m48.161 119c1.553 0 2.814-1.92 2.814-4.28 0-2.01-2.559-5.4-2.459-7.01 0.821-0.46 3.359 3.78 4.671 3.78 1.553 0 2.813-1.92 2.813-4.28s-1.26-4.28-2.813-4.28c-1.347 0-3.656 4.24-4.671 3.86l1.706-7.57-4.092 0.025s1.793 7.335 1.795 7.505h-0.032v-0.01c-0.995 0.38-3.382-3.89-4.72-3.89-1.553 0-2.813 1.91-2.813 4.28 0 2.36 1.26 4.28 2.813 4.28 1.307 0 3.675-4.17 4.714-3.74-0.014 1.65-2.539 5.04-2.539 7.05 0 2.36 1.26 4.28 2.813 4.28z"/>
  <path id="path2256" sodipodi:nodetypes="cscsssccccccssscsc" fill-rule="evenodd" d="m89.801 119.78c1.553 0 2.814-1.92 2.814-4.28 0-2.01-2.559-5.4-2.459-7.01 0.821-0.46 3.359 3.78 4.671 3.78 1.553 0 2.813-1.92 2.813-4.28s-1.26-4.28-2.813-4.28c-1.347 0-3.656 4.24-4.671 3.86l1.706-7.57-4.092 0.02s1.793 7.34 1.795 7.51h-0.032v-0.01c-0.995 0.38-3.382-3.89-4.72-3.89-1.553 0-2.813 1.91-2.813 4.28 0 2.36 1.26 4.28 2.813 4.28 1.307 0 3.675-4.17 4.714-3.74-0.014 1.65-2.539 5.04-2.539 7.05 0 2.36 1.26 4.28 2.813 4.28z"/>
  <path id="path2262" sodipodi:nodetypes="cscsssccccccssscsc" fill-rule="evenodd" d="m68.801 137c1.553 0 2.814-1.92 2.814-4.28 0-2.01-2.559-5.4-2.459-7.01 0.821-0.46 3.359 3.78 4.671 3.78 1.553 0 2.813-1.92 2.813-4.28s-1.26-4.28-2.813-4.28c-1.347 0-3.656 4.24-4.671 3.86l1.706-7.57-4.092 0.02s1.793 7.34 1.795 7.51h-0.032v-0.01c-0.995 0.38-3.382-3.89-4.72-3.89-1.553 0-2.813 1.91-2.813 4.28 0 2.36 1.26 4.28 2.813 4.28 1.307 0 3.675-4.17 4.714-3.74-0.014 1.65-2.539 5.04-2.539 7.05 0 2.36 1.26 4.28 2.813 4.28z"/>
  <path id="path2264" sodipodi:nodetypes="cscsssccccccssscsc" fill-rule="evenodd" d="m90.161 149.78c1.553 0 2.814-1.92 2.814-4.28 0-2.01-2.559-5.4-2.459-7.01 0.821-0.46 3.359 3.78 4.671 3.78 1.553 0 2.813-1.92 2.813-4.28s-1.26-4.28-2.813-4.28c-1.347 0-3.656 4.24-4.671 3.86l1.706-7.57-4.092 0.02s1.793 7.34 1.795 7.51h-0.032v-0.01c-0.995 0.38-3.382-3.89-4.72-3.89-1.553 0-2.813 1.91-2.813 4.28 0 2.36 1.26 4.28 2.813 4.28 1.307 0 3.675-4.17 4.714-3.74-0.014 1.65-2.539 5.04-2.539 7.05 0 2.36 1.26 4.28 2.813 4.28z"/>
  <path id="path2260" sodipodi:nodetypes="cscsssccccccssscsc" fill-rule="evenodd" d="m49.161 149.78c1.553 0 2.814-1.92 2.814-4.28 0-2.01-2.559-5.4-2.459-7.01 0.821-0.46 3.359 3.78 4.671 3.78 1.553 0 2.813-1.92 2.813-4.28s-1.26-4.28-2.813-4.28c-1.347 0-3.656 4.24-4.671 3.86l1.706-7.57-4.092 0.02s1.793 7.34 1.795 7.51h-0.032v-0.01c-0.995 0.38-3.382-3.89-4.72-3.89-1.553 0-2.813 1.91-2.813 4.28 0 2.36 1.26 4.28 2.813 4.28 1.307 0 3.675-4.17 4.714-3.74-0.014 1.65-2.539 5.04-2.539 7.05 0 2.36 1.26 4.28 2.813 4.28z"/>
  <metadata>
    <rdf:RDF>
      <cc:Work>
        <dc:format>image/svg+xml</dc:format>
        <dc:type rdf:resource="http://purl.org/dc/dcmitype/StillImage"/>
        <cc:license rdf:resource="http://creativecommons.org/licenses/publicdomain/"/>
        <dc:publisher>
          <cc:Agent rdf:about="http://openclipart.org/">
            <dc:title>Openclipart</dc:title>
          </cc:Agent>
        </dc:publisher>
        <dc:title>Ornamental deck: 10 of clubs</dc:title>
        <dc:date>2009-03-23T12:24:56</dc:date>
        <dc:description>playing card from the "Ornamental" set</dc:description>
        <dc:source>http://openclipart.org/detail/22926/ornamental-deck:-10-of-clubs-by-nicubunu</dc:source>
        <dc:creator>
          <cc:Agent>
            <dc:title>nicubunu</dc:title>
          </cc:Agent>
        </dc:creator>
        <dc:subject>
          <rdf:Bag>
            <rdf:li>card</rdf:li>
            <rdf:li>cards</rdf:li>
            <rdf:li>clip art</rdf:li>
            <rdf:li>clipart</rdf:li>
            <rdf:li>deck</rdf:li>
            <rdf:li>gambling</rdf:li>
            <rdf:li>game</rdf:li>
            <rdf:li>image</rdf:li>
            <rdf:li>media</rdf:li>
            <rdf:li>ornamental deck</rdf:li>
            <rdf:li>play</rdf:li>
            <rdf:li>playing cards</rdf:li>
            <rdf:li>png</rdf:li>
            <rdf:li>public domain</rdf:li>
            <rdf:li>svg</rdf:li>
          </rdf:Bag>
        </dc:subject>
      </cc:Work>
      <cc:License rdf:about="http://creativecommons.org/licenses/publicdomain/">
        <cc:permits rdf:resource="http://creativecommons.org/ns#Reproduction"/>
        <cc:permits rdf:resource="http://creativecommons.org/ns#Distribution"/>
        <cc:permits rdf:resource="http://creativecommons.org/ns#DerivativeWorks"/>
      </cc:License>
    </rdf:RDF>
  </metadata>
</svg>
