<?xml version="1.0" encoding="utf-8"?>
<svg version="1.1" id="Layer_1" xmlns="http://www.w3.org/2000/svg" xmlns:xlink="http://www.w3.org/1999/xlink" x="0px" y="0px"
	 viewBox="0 0 1252.747 1701.812" enable-background="new 0 0 1252.747 1701.812" xml:space="preserve">
<g>
	<path d="M485.713,797.3c-3.05-13.383,8.143-5.661,9.076-10.589c1.757-9.286,11.645-2.44,18.117,5.776
		c0.426,0.541,0.427,1.413,1.454,1.66c0.653-1,3.483-7.88,10.849-3.999c4.709,2.481,2.492,7.246-0.243,18.125
		c13.032-11.328-4.688-31.699-8.63-51.696c-0.509-2.583,0.285-6.206-2.42-7.481c-2.168-1.022-5.141-0.287-7.753-0.424
		c-13.349-0.698-26.78-0.777-39.818-4.233c-39.356-10.432-54.401-49.674,51.864-98.198c18.583-8.486,21.161-6.82,21.844-13.284
		c0.415-3.927-0.754,11.422,16.5-210.912c0.428-5.509,7.886-10.362,12.744-4.18c10.553,13.428,125.865,165.073,130.195,171.564
		c7.309,10.953,13.412-2.167,77.814,3.053c53.826,4.364,68.273,42.236,7.898,79.409c-53.974,33.232-12.684-13.137-17.946,105.531
		c-0.036,0.824-0.356,1.722,0.363,2.495c5.38-2.791,11.558-7.191,12.891,0.986c0.346,2.121,1.223,1.62,2.666,1.365
		c5.177-0.915,7.492,1.097,7.021,6.357c-0.181,2.025,0.316,2.406,2.116,3.223c5.196,2.36,5.899,6.59,2.315,11.173
		c-0.702,0.898-1.653,1.593-0.515,2.953c4.362,5.214,2.221,11.004-4.58,12.459c-13.782,2.948-15.403,0.303-6.041,12.297
		c-5.998,3.814-8.409-3.246-12.97-0.29c-3.617,2.344-6.009,5.865-8.959,8.771c-3.466,3.415-0.372,7.779,1.393,10.739
		c4.849,8.137,6.839,16.028,19.531,24.666c6.617,4.504,21.27,11.236,20.157,13.398c-0.194,0.377-0.973,0.752-1.396,0.668
		c-21.583-4.24-39.154,7.698-59.667-21.282c-3.491-4.932-3.319-5.127-7.678-0.799c-48.726,48.367-46.198,44.482-45.614,47.409
		c0.11,0.553,21.986,160.462,22.877,166.118c2.178,13.824-6.115,13.966-28.832,12.763c-3.731-0.198-4.49,1.368-4.156,4.573
		c3.587,34.375,23.659,25.108,25.133,27.834c0.377,0.697-0.025,1.501-0.641,1.923c-3.6,2.471-4.81,6.759-7.654,9.906
		c-9.414,10.418-25.469,5.378-25.703-7.962c-0.033-1.876,1.375-4.761-2.038-5.319c-2.687-0.44-5.788,2.649-5.945,5.791
		c-0.255,5.134,1.972,10.744-3.785,11.212c-3.614,0.294-7.233,0.915-9.155-3.67c-2.881-6.869-3.019-13.924-1.709-20.99
		c1.255-6.771,0.707-13.651,1.825-20.404c0.337-2.037-0.638-2.723-2.703-2.854c-7.036-0.451-6.703-0.467-6.377,6.571
		c0.589,12.756,7.324,42.444-6.377,42.416c-13.651-0.028-1.214-11.882-10.168-16.242c-3.129-1.523-4.906-0.421-4.525,2.528
		c1.099,8.497-3.546,11.903-10.557,15.028c-12.745,5.681-19.748-12.843-23.877-17.163c6.291,1.52,10.722-1.431,15.073-3.563
		c4.749-2.326,6.813-7.347,8.227-12.332c1.618-5.703,6.266-17.346-0.3-17.238c-18.982,0.312-32.694,2.463-30.687-10.794
		c0,0,7.268-54.437,23.533-172.149c0.643-4.652,2.372,2.224-56.385-46.818c-8.944-7.465-1.142,4.969-44.438,14.921
		c-1.016,0.234-29.072,8.327-18.382-0.331c5.15-4.171,31.809-27.791,34.996-34.053c1.472-2.892-0.983-3.114-2.829-3.187
		c-15.331-0.606-21.553,4.989-22.667,1.468c-0.88-2.78,7.793-4.191,10.706-7.231c0.891-0.93,3.529-0.966,2.467-2.81
		c-1.092-1.896-1.045-4.852-4.484-5.185c-15.724-1.523-17.734-3.553-19.984-9.097c-0.31-0.765-0.547-2.226-0.176-2.5
		c4.513-3.343,1.487-6.283,0.084-9.783C477.325,802.014,481.035,798.238,485.713,797.3z M613.116,759.119
		c-0.294-0.133-0.589-0.265-0.883-0.398c0.673-3.762,4.491-16.727,5.445-19.981c1.854-6.316-6.078-1.562-8.704-1.172
		c-1.005,0.149-26.075,3.958-26.721,5.271c-1.775,3.609-5.687,5.279-7.711,8.755c-1.373,2.358-3.588,4.225-6.222,7.214
		c0-14.65,0.731-13.572-0.806-13.826c-1.599-0.265-4.07-0.535-4.658,1.339c-4.965,15.818-3.854,2.304-1.314,25.309
		c1.66,15.028,3.811,30.047,0.672,45.145c-0.742,3.571,0.837,6.273,3.443,8.358c6.224,4.98,17.345,16.438,38.124,24.028
		c37.794,13.806,82.724,7.584,116.648-25.904c3.776-3.728-1.138-3.578-1.15-15.255c-0.013-12.648,0.067-25.267,2.717-37.737
		c2.425-11.411,0.986-23.543,6.587-34.398c6.131-11.88-3.393-8.527-5.603-9.22c-3.84-1.205-7.979-0.677-10.644,2.11
		c-2.904,3.037-6.846,4.77-9.291,8.392c-0.759,1.124-6.391,5.878-8.341,4.408c-1.367-1.031,0.317-1.888,3.023-11.851
		c1.437-5.289,1.758-10.926,4.596-15.816c0.438-0.755,0.663-1.763,0.058-2.474c-1.776-2.087-2.29,1.763-9.581,2.793
		c-11.695,1.652-28.748,32.755-32.122,31.68c-3.32-1.058,3.669-20.119,2.081-21.609c-1.406-1.32-4.016,1.083-6.201,1.51
		C631.878,730.616,637.087,728.478,613.116,759.119z M569.203,457.911c-3.269,21.441-5.285,10.63,27.2,119.764
		c25.577,85.922,21.139,75.49,26.758,74.791c5.716-0.711,6.981,10.707-45.988-169.638
		C574.728,474.498,572.4,466.141,569.203,457.911z M710.599,622.015c-2.055,0.264-3.349,1.193-4.479,2.201
		c-33.861,30.246-109.235,51.425-157.579,45.289C590.619,698.705,698.892,658.225,710.599,622.015z M577.558,454.443
		c0.518,1.148,53.744,181.558,55.613,190.99c0.664,3.35,2.558,3.156,5.169,2.193c6.795-2.508,6.175,13.568-45.839-170.814
		C589.94,467.734,583.713,461.131,577.558,454.443z M565.321,502.992c-1.604,25.682-5.38,8.117,8.612,55.012
		c32.287,108.21,25.482,98.999,34.959,97.18c4.128-0.792,1.291-3.73,0.823-5.087c-7.302-21.186-16.934-59.7-38.992-131.099
		C569.07,513.651,568.792,507.846,565.321,502.992z M606.379,491.417c-1.276,1.886,41.865,146.096,42.161,147.099
		c1.356,4.594,2.237,5.076,6.56,2.893c3.14-1.585,1.259-3.899,0.765-5.628C614.744,491.851,620.102,509.287,606.379,491.417z
		 M562.737,549.082c-2.905,27.166-5.183,9.406,11.799,68.409c13.822,48.02,11.2,41.541,17.785,40.848
		C596.468,657.903,595.882,661.759,562.737,549.082z M632.619,528.375c1.657,4.091,30.162,100.345,30.984,104.938
		c0.357,1.992,1.318,3.964,3.793,2.405c1.876-1.182,6.171-1.069,4.259-5.022c-3.576-7.394-4.508-15.543-7.092-23.234
		C654.452,577.371,645.367,528.801,632.619,528.375z M774.931,782.116c-5.503,1.355-7.363,5.962-10.008,9.818
		c-2.766,4.031-5.88,3.84-8.24-0.427c-0.923-1.67-1.06-3.587-2.91-3.256c-0.809,0.145-1.336,0.795-1.203,1.559
		c0.744,4.289,1.109,9.312,4.47,11.95c13.217,10.379,14.339,16.893,22.47,13.556c6.769-2.778,12.221-0.595,11.988-4.105
		c-0.21-3.167-5.783,0.331-7.3-2.842c-0.721-1.507,1.806-4.604,3.925-5.648c6.676-3.287,3.465-8.723-2.405-4.525
		c-2.226,1.592-5.836-0.99-3.739-4.138c1.319-1.979,2.844-3.885,3.397-6.552c-4.806-0.085-6.378,5.077-10.107,3.234
		C773.502,789.868,774.024,788.621,774.931,782.116z M500.37,788.295c1.025,6.075,1.613,7.324-0.015,8.427
		c-2.509,1.699-4.734-0.982-7.294-2.584c-2.502-1.566-3.763,0.101-1.857,2.232c2.722,3.042,4.133,5.848,1.572,8.288
		c-2.246,2.139-6.636-4.649-8.825-0.971c-2.544,4.274,8.704,5.607,7.188,10.714c-0.967,3.257-7.211-0.034-7.39,2.756
		c-0.215,3.352,5.204,1.995,13.25,4.489c10.158,3.149,11.141-11.023,18.423-14.092c4.513-1.903,5.836-5.091,7.389-8.707
		c0.652-1.518,1.823-3.474-0.653-4.4c-4.352-1.627-3.194,12.368-11.271,3.543C507.77,794.587,506.541,789.148,500.37,788.295z
		 M616.225,858.348c-23.354-6.534-36.82-14.187-52.805-28.496c-1.246-1.115-1.832-3.396-3.809-3.115
		c-2.292,0.326-2.026,2.924-2.729,4.525c-1.095,2.495,1.39,3.792,2.769,4.761c37.345,26.22,45.378,40.273,45.933,32.329
		C606.042,861.796,610.65,859.836,616.225,858.348z M559.146,594.532c-0.397,0.073-0.794,0.145-1.192,0.218
		c-0.581,10.198-2.685,20.434,1.428,30.477c0.976,2.383,2.246,4.653,2.68,7.308c1.408,8.616,5.224,16.558,7.228,25.031
		c0.921,3.896,4.385,1.898,6.646,1.836C579.428,659.306,575.722,651.004,559.146,594.532z M661.375,563.786
		c1.776,10.378,14.512,52.688,17.287,60.862c1.375,4.05,2.448,4.467,6.043,2.071c2.271-1.513,1.725-3.423,1.133-5.411
		C671.28,572.419,676.482,583.331,661.375,563.786z M668.062,858.515c32.277,2.58-11.353,38.865,54.949-25.797
		c1.541-1.503,1.428-2.922,0.048-4.562C706.206,843.518,693.631,851.094,668.062,858.515z M656.402,864.373
		c-0.035-1.644,0.462-4.283-2.568-3.734c-16.644,3.017-22.375-2.581-22.805,3.177c-1.001,13.384-1.045,13.381,12.037,13.381
		C656.68,877.196,656.678,877.468,656.402,864.373z M680.601,873.453c-24.452,8.996-48.09,9.058-72.258-0.014
		C622.821,892.978,671.281,889.337,680.601,873.453z M555.493,640.224c-2.36,4.936-1.938,9.882-2.335,14.689
		c-0.103,1.248-0.734,3.094,0.627,3.545c1.109,0.367,8.619,1.862,7.081-1.055C558.087,652.133,557.937,646.023,555.493,640.224z
		 M689.025,599.905c-0.353,0.186-0.707,0.373-1.06,0.559c6.536,17.336,4.522,20.043,7.479,18.164
		C701.348,614.875,702.734,618.482,689.025,599.905z"/>
	<path d="M604.492,787.111c-4.959,0.131-10.149-5.39-10.044-10.483c0.108-5.247,5.282-10.332,10.4-10.221
		C617.086,766.673,618.457,786.741,604.492,787.111z"/>
	<path d="M682.484,785.528c-14.667,0.34-12.735-20.088-0.271-19.994C694.719,765.627,696.103,785.213,682.484,785.528z"/>
	<path d="M623.802,817.37c-0.925-2.072-2.243-5.917-0.163-6.81c2.662-1.143,3.851,9.552,10.437,15.014
		c7.67,6.36,19.122,2.276,22.218-7.529c0.743-2.352,1.349-4.758,2.263-7.041c0.954-2.381,4.066-2.242,3.905,1.188
		C661.624,830.074,636.26,845.256,623.802,817.37z"/>
</g>
<g>
	<path d="M286.006,1597.405c-2.888,1.276-4.222,4.128-7.367,4.713c-1.162,0.216-1.128,4.2-0.316,6.093
		c3.694,8.608-0.186,21.024,1.014,28.975c0.428,2.833-1.161,4.511-4.054,4.359c-3.582-0.188-7.687,1.588-10.347-2.577
		c-0.612-0.958-1.6-0.179-2.363,0.067c-9.959,3.212-19.865,2.084-29.57-0.847c-15.753-4.757-6.8-25.567,1.076-29.029
		c2.04-0.897,1.048-0.806,0.37-34.91c-0.091-4.563-4.003-5.469-6.82-6.967c-16.671-8.863-50.835-28.089-93.987-17.284
		c-16.632,4.164-11.156,4.613-21.583,10.865c-4.123-4.197,9.142-10.705-13.329-3.638c0.966-4.181,1.551-8.023,2.752-11.66
		c5.14-15.565-1.839-49.706-17.348-59.78c-1.147-0.745-11.235-12.462-27.68-12.598c-0.806-0.007-1.791-0.047-2.257-1.085
		c0.074-2.497,93.795-54.192,142.256-77.314c3.829-1.827,2.369-1.384-14.022-25.175c-12.342-17.915-23.306-24.011-5.352-25.119
		c-3.244-8.84-8.102-16.851-9.952-25.999c-0.462-2.286-1.34-2.351-3.234-1.341c-11.619,6.199-15.709-1.217-19.043-6.988
		c-11.762-20.359-9.111-45.103,6.626-36.459c8.758,4.81-0.889-6.857,6.282-33.501c35.153-130.61,195.182-147.707,242.533-7.273
		c1.477,4.382,1.226,6.659,2.12,23.274c25.168-15.344,22.412,17.237,10.851,36.153c-8.246,13.492-17.915-0.185-18.11,7.319
		c-0.547,21.154-11.656,40.882-12.214,42.654c-1.553,4.933,6.476-0.058,8.06,4.643c1.819,5.398-2.367,6.21-14.262,22.906
		c-18.078,25.374-16.838,23.518-14.264,24.609c23.315,9.882,142.643,76.674,143.644,77.245c-2.051,1.833-4.229,1.786-6.106,1.836
		c-16.394,0.441-50.698,22.231-41.658,74.371c0.412,2.376,0.366,4.981,1.907,7.098c0.484,0.665,0.57,1.334-0.115,1.914
		c-0.78,0.661-1.264-0.152-1.895-0.382c-1.629-0.593-3.292-1.092-4.951-1.597c-1.919-0.584-4.072-2.379-5.73-1.291
		c-1.813,1.19,0.612,3.333,0.333,5.129c-0.155,1-0.101,2.995-2.167,1.229c-21.336-18.231-63.905-14.428-90.065-4.571
		c-7.5,2.826-14.435,7.151-21.632,10.787c-1.546,0.781-1.77,2.118-1.802,3.658c-0.98,47.318-2.282,35.931,4.559,45.816
		c5.855,8.461,4.789,20.551-8.036,23.254c-9.22,1.943-18.606,3.666-27.77-0.57c-0.823-0.38-1.281-0.162-1.778,0.547
		c-3.245,4.633-7.864,2.464-11.985,2.189c-1.828-0.122-2.358-2.014-2.191-3.747c1.03-10.716-2.661-19.08,0.762-28.574
		C287.078,1605.291,286.583,1601.487,286.006,1597.405z M170.784,1315.272c9.174,34.802,29.789,60.027,63.554,76.679
		c13.703,6.758,20.427-5.856,33.494,5.895c4.823,4.337,6.437,3.765,20.777,3.365c10.6-0.295,8.352-11.123,28.193-7.847
		c8.793,1.452,29.535-13.764,35.857-19.242c35.278-30.568,43.054-77.692,35.588-75.648c-0.915,0.25-3.022-1.443-2.186-3.463
		c0.55-1.329,6.771-43.757,0.635-48.83c-32.56-26.923-90.265,7.009-103.316,39.567c-0.96,2.395-2.964,3.019-4.307,1.316
		c-1.734-2.198-4.213-3.606-5.701-5.895c-13.541-20.835-52.02-41.359-94.402-24.237c-10.189,4.116-12.17,7.001-11.251,18
		C169.676,1298.382,181.408,1318.613,170.784,1315.272z M265.934,1511.32c0-17.934,0-35.867,0-53.801
		c4.092,58.698,2.128,50.326,2.776,64.053c0.333,7.058,3.595,5.523,18.511,5.517c14.155-0.005,4.487-4.079,9.209-86.69
		c0.179-3.137-5.015-13.214-12.615-7.669c-0.301,0.22-0.873,0.025-1.281,0.148c-3.337,0.999-6.371-3.338-8.941-1.497
		c-2.094,1.501-5.609,7.017-8.593,7.563c-4.405,0.806-3.517-0.744-3.248,56.261C261.779,1500.835,263.172,1506.224,265.934,1511.32z
		 M305.094,1397.874c-14.672,3.885-16.85,16.073-11.178,30.151c3.041,7.547,10.647,9.507,18.562,9.283
		c2.915-0.083,4.633-1.195,5.044-4.221C321.517,1403.623,323.441,1393.017,305.094,1397.874z M246.783,1433.23
		c1.149,8.765,20.309,2.674,24.09-4.958c2.075-4.189-3.574-6.959,1.545-16.818c2.978-5.736-10.745-13.483-17.342-14.921
		C239.149,1393.062,244.746,1417.695,246.783,1433.23z M160.064,1469.696c6.767-0.38,12.1-1.615,16.957-4.452
		c6.42-3.749,3.102-4.979,1.55-19.205c-0.355-3.258-1.068-4.957-18.63-2.75c-10.012,1.258-8.223,9.579-5.908,20.616
		C154.87,1467.888,156.818,1470.256,160.064,1469.696z M149.829,1310.787c4.376,7.187,17.346,3.157,15.29-1.119
		c-3.479-7.233-5.585-36.859-20.793-32.625C139.943,1278.263,140.622,1295.664,149.829,1310.787z M400.716,1447.968
		c-4.488-1.511-9.186-2.619-14.036-2.726c-2.036-0.045-2.892,0.889-3.289,2.65c-3.751,16.644-7.002,18.088-3.892,20.198
		c6.452,4.375,19.946,8.434,22.249,0.959C403.509,1463.332,406.404,1449.883,400.716,1447.968z M417.13,1263.985
		c-0.467-2.565,1.468-6.583-3.416-7.367c-4.769-0.765-11.21,3.378-11.824,8.144c-1.791,13.904-10.623,26.336-3.644,28.948
		c3.358,1.257,6.905,2.281,9.851-1.455C414.594,1284.017,416.85,1274.491,417.13,1263.985z M378.454,1523.618
		c-3.517-9.957-31.928-51.288-37.123-48.806c-6.193,2.959,27.606,46.435,33.649,50.063
		C376.57,1525.829,378.021,1526.012,378.454,1523.618z M187.004,1525.572c0.939-0.556,2.448-1.035,3.349-2.052
		c43.043-48.632,31.82-52.173,28.105-47.845C214.342,1480.47,176.002,1523.977,187.004,1525.572z M298.618,1507.782
		c4.66-4.318,3.759-4.589,3.762-64.411c0-1.763,0-4.069-2.186-4.101C297.138,1439.224,298.571,1506.781,298.618,1507.782z
		 M257.082,1473.89c2.465-1.633,1.188-19.663,1.382-30.561c0.042-2.373-3.95-2.687-3.948,0.45
		C254.526,1460.349,253.92,1463.74,257.082,1473.89z M306.03,1480.553c4.898-2.31,3.314-27.72,3.522-35.401
		c0.035-1.28,0.696-3.309-1.495-3.457C305.353,1441.512,306.03,1439.749,306.03,1480.553z"/>
	<path d="M305.261,1348.736c-2.609,12.337-5.507,9.207-2.259,24.586c0.752,3.561,1.155,5.199-0.505,6.005
		c-1.535,0.745-2.581-0.896-3.764-1.644c-4.48-2.831-7.852-7.808-14.245-6.908c-1.84,0.259-3.329,0.539-4.457,2.118
		c-1.945,2.723-5.226,4.105-7.066,6.992c-1.253,1.966-4.674,1.13-4.289-2.247c0.438-3.833,3.982-13.481-0.34-17.787
		c-1.243-1.238-1.75-3.32-2.311-5.108c-0.471-1.502-2.115-3.614,0.256-4.525c4.11-1.58,4.28,9.697,12.003,14.777
		c14.099,9.273,23.259-9.823,23.452-17.174c0.032-1.21,0.325-2.522,1.896-2.345C305.435,1345.68,305.18,1347.257,305.261,1348.736z"
		/>
	<path d="M236.234,1310.156c0.05-12.68,20.101-13.889,20.114,0.045C256.361,1324.221,236.185,1322.607,236.234,1310.156z"/>
	<path d="M323.903,1313.12c-12.783-0.076-13.725-20.032,0.095-19.971C337.435,1293.209,337.143,1313.198,323.903,1313.12z"/>
	<path d="M281.366,1457.291c-5.61-0.298-5.273-8.661,0.413-8.565C287.325,1448.82,287.588,1457.621,281.366,1457.291z"/>
	<path d="M281.553,1507.091c-5.753-0.082-5.546-8.463,0.039-8.569C287.274,1498.413,287.645,1507.179,281.553,1507.091z"/>
	<path d="M277.435,1478.737c0.076-6.389,8.449-6.381,8.463-0.014C285.911,1484.177,277.375,1483.821,277.435,1478.737z"/>
</g>
<g>
	<path d="M1122.769,1596.999c5.163,1.487,9.536,4.806,14.756,6.234c14.655,4.01,10.696,18.076,16.855,21.619
		c3.831,2.204,2.791,10.446-1.189,12.325c-2.311,1.091-1.516-2.113-3.302-2.05c-2.189,3.482-6.752,5.079-8.294,9.566
		c-0.321,0.933-1.687,2.442-3.853,0.894c-2.187-1.563-12.044,1.623-13.978,3.974c-1.429,1.738-2.713,2.004-3.204-0.481
		c-0.424-2.144-1.693-2.299-3.421-2.41c-10.83-0.696-21.286-3.23-31.073-7.802c-14.042-6.561-3.064-19.498-13.444-50.79
		c-1.028-3.099-4.926-32.173-19.648-64.209c-1,0.175-12.932,33.024-15.805,45.284c-2.208,9.421-9.486,45.093-11.733,46.104
		c-9.303,4.189,7.757,16.815-14.532,24.596c-8.059,2.813-16.305,5.653-24.962,5.569c-3.755-0.036-3.153,4.572-5.502,4.279
		c-2.158-0.269-2.461-4.45-6.045-3.83c-3.671,0.635-7.31-2.942-11.188-0.357c-0.271,0.181-1.65-0.525-1.757-0.993
		c-1.036-4.498-5.988-5.269-8.125-8.711c-3.195-5.146-1.889,5.584-5.765,0.558c-3.705-4.805-3.37-8.756,1.361-12.488
		c3.532-2.786,0.478-17.53,16.172-21.999c5.393-1.536,10.34-4.572,15.614-6.606c5.097-1.966,5.712-6.624,6.745-10.815
		c2.115-8.581,6.918-49.13,7.029-53.066c0.053-1.864,0.879-4.106-2.763-3.515c-2.394,0.388-2.617-1.896-2.406-3.701
		c2.025-17.34,1.294-34.894,4.056-52.178c0.19-1.19,0.63-2.547-0.971-4.21c-9.715,42.124-11.138,41.162-5.773,47.022
		c6.087,6.651-3.954,13.057-8.51,9.64c-5.81-4.357-2.877,6.959-10.552,13.036c-4.89,3.872-6.029,3.833-8.644-1.992
		c-12.52,5.623-8.422-5.227-13.006-5.537c-13.42-0.91-3.343-11.308-8.887-12.294c-2.809-0.499-2.998-2.92-2.965-5.126
		c0.039-2.567-0.06-5.157,2.738-6.838c11.77-7.071,11.947-7.301,12.952-21.455c0.226-3.184,1.625-6.56-0.867-9.679
		c-0.898-1.124,0.621-2.43,1.057-3.572c6.08-15.963,5.731-32.803,6.886-49.431c1.995-28.717,2.995-40.413,60.125-39.981
		c1.466,0.011,3.942,1.768,4.545-1.424c1.949-10.319-5.936-9.6-12.182-11.83c-48.314-17.252-73.055-62.865-75.784-83.352
		c-0.285-2.14-1.711-2.521-3.443-2.409c-9.003,0.584-16.592-3.655-24.271-7.32c-17.029-8.13,3.344-37.81,5.955-37.475
		c1.57,0.201,1.473,1.62,1.757,2.676c1.365,5.072,0.244,12.666,15.466,20.291c0-17.799,1.973-34.328,8.625-50.818
		c0.36-0.892,1.318-1.891,0.557-2.815c-0.728-0.884-1.896-0.364-2.876-0.123c-28.359,6.99-41.528-17.41-35.167-36.176
		c3.337-9.847,8.617-22.999,15.83-35.099c1.592-2.671,5.666-3.715,6.088,1.31c0.333,3.965,2.804,6.719,5.612,8.994
		c23.597,19.126,24.017,11.192,24.017,36.83c9.651-14.069,25.72-28.631,42.35-36.919c29.657-14.78,36.229-9.317,34.692-14.475
		c-2.033-6.817-0.897-13.679,4.265-18.447c7.68-7.094,16.267-12.646,26.796-16.469c-2.1,10.478-12.295,11.853-7.287,33.757
		c1.137,4.975,9.978,0.669,25.947,5.475c47.881,14.41,59.698,39.191,65.099,41.509c2.052-18.114-1.125-12.233,22.981-30.127
		c3.293-2.445,6.011-5.417,7.03-9.558c0.409-1.663,0.312-3.865,2.555-3.965c1.969-0.088,3.523,1.247,4.414,3.092
		c7.426,15.392,25.318,45.32,9.901,62.311c-17.174,18.927-32.093,1.483-28.304,12.813c4.926,14.733,7.677,29.775,7.049,45.35
		c-0.094,2.321,0.706,3.041,2.72,1.812c9.703-5.924,9.527-8.576,13.022-19.525c2.257-7.072,11.21,13.249,13.409,22.113
		c1.447,5.831-1.395,11.276-6.939,13.834c-7.468,3.446-14.737,7.608-23.419,7.178c-5.544-0.275,0.328,3.913-12.739,28.344
		c-16.872,31.545-46.209,53.308-75.568,60.17c-5.138,1.201-2.835,5.734-2.9,8.831c-0.073,3.508,2.913,1.909,4.61,1.772
		c12.869-1.032,25.662,0.197,38.223,2.493c22.152,4.049,24.96,11.143,25.995,60.901c0.068,3.277,1.024,6.071,2.486,9.039
		c3.176,6.45,3.588,13.693,4.514,20.715c3.237,24.56,0.208,24.835,8.107,28.981c9.512,4.993,5.882,12.146,4.88,12.462
		c-4.168,1.315-3.285,4.482-3.208,7.6c0.094,3.828-2.488,6.473-6.306,6.118c-2.563-0.238-3.427,0.062-3.928,2.8
		c-0.799,4.366-4.561,5.929-8.156,3.471c-4.511-3.085-4.53,8.897-10.938,1.566c-3.666-4.194-6.973-8.584-7.158-15.574
		c-5.23,4.885-9.503,2.473-13.766,0.036c0.133-13.41,8.784-10.031,7.417-18.243c-1.431-8.595-6.307-16.054-7.631-24.679
		c-0.531-3.457-2.154-6.745-3.281-10.11C1109.053,1530.285,1117.563,1595.499,1122.769,1596.999z M1139.025,1253.745
		c-1.41,12.293-0.414,14.923-8.145,18.793c-10.038,5.025-27.463,5.506-28.134,3.885c-0.771-1.865,7.8-6.469,10.159-10.731
		c2.681-4.845,3.112-10.242,4.024-15.515c0.418-2.417-0.761-3.346-3.313-3.139c-3.388,0.275-28.536,4.655-34.932,7.14
		c-29.403,11.423-67.656-2.836-71.167-3.342c-9.387-1.353-24.108-5.996-24.303-2.292c-0.987,18.764,6.979,20.251,11.694,25.903
		c0.525,0.629,1.473,1.204,1.098,2.188c-0.637,1.673-30.575,1.531-34.242-11.883c-0.929-3.397-1.055-7.013-1.606-10.982
		c-3.389,3.412-6.335,6.341-7.214,10.905c-2.572,13.353-3.714,26.762-2.584,40.35c0.342,4.113,1.808,2.365,11.022-2.488
		c0,4.116-8.106,31.542,30.155,51.958c50.216,26.794,142.742,10.498,144.413-43.696c0.104-3.355-2.527-6.165-1.848-9.615
		c4.508-1.224,15.628,11.877,15.772,3.401C1150.105,1290.882,1151.578,1261.531,1139.025,1253.745z M1113.728,1591.588
		c1.291-3.772-0.994-5.353-3.594-23.529c-5.448-38.079-1.083-46.333-9.763-53.579c-2.072,5.648,0.245,10.593-3.829,11.236
		c-2.401,0.379-2.012-0.172-7.92-13.658c-1.329,1.709-1.172,4.666-4.097,4.475c-2.897-0.189-2.314-2.859-3.085-4.584
		c-1.231-2.753-2.998-5.156-4.909-7.538c-2.285,1.955,1.076,15.759-4.115,16.55c-4.758,0.725-4.571-12.932-7.166-9.199
		c-4.517,6.499-6.554-6.021-9.035-7.763c-1.348,2.72-4.123,6.625-2.373,7.857c4.805,3.381,3.705,8.49,5.497,12.672
		c12.856,29.985,17.858,61.6,22.894,79.171c1.414-3.938,1.463-7.133,1.515-10.333c0.062-3.787,4.182-5.199,6.208-1.081
		c0.577,1.172,0.273,2.822,1.689,3.813c2.221-4.065-3.131-7.717,1.597-10.086c3.526-1.767,5.943,4.095,8.956,9.265
		c0.294-2.389-0.068-4.516-0.229-6.657c-0.409-5.462,4.081-5.781,6.506-2.966
		C1110.074,1587.506,1111.718,1589.321,1113.728,1591.588z M1022.996,1603.778c3.915-1.318-0.083-3.964,11.35-44.098
		c3.874-13.601,8.961-26.855,13.431-40.289c0.27-0.81,1.736-1.731,0.498-2.625c-3.906-2.818-0.852-9.821-3.547-12.577
		c-6.361,9.953-5.153,14.067-10.62,8.328c-0.742,2.376-1.511,4.719-2.2,7.085c-0.93,3.196-5.235,3.495-5.773-0.557
		c-1.081-8.139,0.495-12.526-1.586-12.743c-4.622-0.481-3.604,10.621-7.832,11.05c-2.676,0.272-2.779-2.4-3.838-4.128
		c-4.538,5.264-4.258,14.703-8.195,14.135c-3.384-0.488-1.647-5.876-3.435-9.725c-4.12,24.282-3.724,49.392-10.43,73.834
		c5.407-0.6,4.681-9.021,10.652-7.329c2.709,0.768,2.019,2.862,1.078,12.491c6.567-9.958,6.625-11.521,9.708-10.879
		c3.017,0.628,2.299,3.455,1.657,9.942c1.693-3.464,2.08-6.523,5.52-5.8C1022.948,1590.635,1020.215,1592.62,1022.996,1603.778z
		 M1058.537,1408.578c-4.29,11.613-4.67,13.61-6.686,13.372c-3.375-0.398-5.066-14.854-6.399-18.17
		c-3.565,3.084-5.263,6.972-7.305,10.612c-1.408,2.51-4.367,2.537-4.782-0.629c-1.238-9.416,1.546-21.502-5.591-20.04
		c-2.078,0.426-0.933,2.699-0.673,4.042c0.279,1.441,10.069,44.94,10.069,44.94c10.682,41.74,8.13,48.65,12.883,48.556
		c4.73-0.093,20.015-83.288,25.018-99.422c0.263-0.849,0.879-2.11-0.636-2.543c-5.28-1.509-5.111,9.646-6.334,25.566
		c-0.25,3.251-4.382,4.103-5.25,0.901C1062.132,1413.113,1059.886,1411.504,1058.537,1408.578z M1008.367,1599.243
		c-0.286-0.04-0.572-0.079-0.857-0.118c-5.823,11.437-4.957,12.032-7.522,11.702c-3.655-0.47-2.873-3.217-2.873-16.292
		c-8.293,9.404-10.564,15.898-14.241,13.932c-3.488-1.866,0.49-6.392-0.31-8.507c-6.923,2.972-13.792,5.886-20.628,8.877
		c-2.281,0.998-7.73,10.754-6.614,12.559c1.789,2.891,1.657,5.504,0.92,8.583c-0.577,2.411,2.315,4.288,4.774,3.39
		c7.852-2.866,9.95-5.259,9.875,1.497c-0.049,4.391-2.456,4.479,1.494,5.578c6.068,1.689,1.511-3.494,13.221-5.658
		c1.696-0.313,2.914,0.324,2.744,2.32c-0.534,6.29,18.414-1.149,24.44-3.44c9.504-3.613,2.782-9.115,6.702-22.599
		c0.365-1.254-0.371-2.824-0.581-4.252c-0.11-0.749-0.278-1.558-1.179-1.53c-2.748,0.086-2.028,15.122-7.566,14.079
		C1006.104,1618.598,1008.367,1613.298,1008.367,1599.243z M1088.305,1605.085c-2.926,7.42-9.009,23.976-1.731,28.143
		c7.567,4.332,15.799,6.366,24.335,7.473c1.944,0.252,3.528,0.109,3.313-2.541c-0.435-5.369,8.862-1.306,11.962,2.375
		c1.546,1.836,3.175,0.586,4.792,0.289c2.421-0.443,0.853-1.908,0.726-2.96c-1.008-8.376,3.33-5.648,9.132-3.878
		c3.318,1.012,5.402-0.911,4.462-4.305c-0.684-2.47-0.62-4.763,0.074-7.219c0.911-3.217-1.865-10.448-4.704-11.909
		c-4.976-2.561-10.027-5.02-15.449-6.678c-1.05,1.697,0.198,4.277-2.479,4.864c-4.863,1.065-9.511-11.354-14.663-13.99
		c0,14.518,0.601,15.67-2.164,16.035c-5.216,0.689-2.889-7.416-8.788-13.183c-0.98,6.636,4.618,20.065-1.694,21.82
		C1092.257,1620.302,1088.791,1606.526,1088.305,1605.085z M980.688,1478.096c-5.117,3.455-4.608,10.472-8.958,10.222
		c-3.141-0.181-0.823-6.652-3.44-7.058c-2.406-0.373-1.706,3.608-4.68,6.313c-1.867,1.698-2.169,6.245-5.439,4.951
		c-3.049-1.207-1.958-1.334,1.432-21.881c-1.99,1.558-4.203,2.336-4.445,4.945c-2.771,29.89,2.007,22.437-14.739,33.796
		c-0.865,0.587-1.803,1.384-1.172,2.474c1.062,1.837,5.567-2.57,7.636,0.231c2.507,3.393-5.917,9.579-3.181,12.207
		c2.096,2.013,2.973-1.181,4.495-1.844c9.461-4.122,3.237,6.011,5.1,9.897c1.772-1.914,3.695-3.135,4.701-5.281
		c1.824-3.893,5.008-1.924,5.555,0.926c0.362,1.881,0.511,3.804,0.874,6.674c2.747-4.721,5.666-8.094,6.097-12.833
		c0.167-1.84-0.114-4.375,2.487-5.1c5.996-1.673,6.111,5.85,9.151,3.854c2.554-1.677,0.035-4.715-2.221-6.787
		c-2.663-2.447-2.779-4.898-1.656-8.416C981.046,1496.733,983.916,1487.926,980.688,1478.096z M1120.484,1478.071
		c-0.482,5.269,0.67,16.72,3.884,27.251c0.549,1.8,1.787,4.115-0.894,5.352c-2.662,1.228-3.306,3.953-4.92,5.949
		c-1.021,1.262-1.492,2.714,0.05,3.794c1.576,1.103,1.795-0.832,2.534-1.503c11.659-10.599,9.028,15.233,14.656,14.56
		c2.195-0.263,0.65-2.886,1.298-4.348c0.672-1.516,0.255-3.745,2.455-4.23c4.487-0.989,4.409,8.458,7.8,6.957
		c2.777-1.23-3.555-7.548,0.333-10.093c3.912-2.561,6.554,5.127,9.28,2.524c1.961-1.872-1.932-7.318-2.891-8.405
		c-2.866-3.251-0.286-5.308,2.925-4.447c1.566,0.42,4.112,1.782,4.857,0.451c0.509-0.91-0.171-1.78-0.965-2.145
		c-3.053-1.401-5.029-4.328-8.279-5.533c-1.951-0.724-4.496-2.118-3.955-4.543c1.468-6.579-0.151-12.998-0.19-19.48
		c-0.03-4.985-2.798-7.797-5.859-10.921c-1.986,3.202,5.583,21.341,1.024,22.695c-4.762,1.414-3.549-5.725-10.619-11.303
		c-1.971,1.824,0.101,6.534-3.256,7.079C1125.256,1488.462,1128.315,1482.98,1120.484,1478.071z M941.175,1186.471
		c0.044-0.003,0.087-0.005,0.131-0.008c-0.662-11.177,0.456-18.48-9.803-23.386c-3.534-1.689-7.236-4.089-9.703-7.63
		c-0.82-1.177-0.63-3.649-2.697-3.26c-2.861,0.539-2.725,9.811-6.411,20.374c-6.438,18.45,11.531,34.851,26.77,25.07
		C941.66,1196.219,941.175,1194.066,941.175,1186.471z M1175.754,1152.045c-4.723,11.144-19.583,10.298-20.963,20.726
		c-0.822,6.206-6.958,24.713,6.891,27.789C1170.882,1202.604,1193.963,1195.776,1175.754,1152.045z M1063.407,1403.912
		c1.235-8.878,0.583-13.599,5.688-17.931c3.442-2.922,2.245-7.243,2.162-11.1c-0.033-1.537-1.259-1.272-2.275-1.123
		c-13.343,1.955-26.678,1.922-40.013-0.094c-0.934-0.141-2.498-0.524-2.439,0.905c0.782,19.09,2.452,11.962,5.399,14.397
		c4.389,3.626,5.729,4.297,6.493,14.065c6.752-8.407,6.445-8.805,8.206-8.486c4.505,0.817,3.304,8.874,6.042,13.283
		c3.552-8.567,3.716-9.491,5.974-9.553C1061.568,1398.194,1061.581,1401.806,1063.407,1403.912z"/>
	<path d="M1044.523,1351.013c-2.172-0.283-4.318-0.337-6.365-1.35c-5.108-2.527-15.739,5.46-19.499,0.898
		c-2.254-2.735,0.274-5.723,1.257-8.537c2.693-7.712,6.856-7.045,5.525-10.35c-0.537-1.332-0.103-2.907,1.269-3.223
		c1.415-0.326,1.515,1.414,2.02,2.387c2.65,5.113,4.996,10.375,9.935,13.932c5.014,3.611,15.884,0.993,18.597-4.581
		c1.545-3.175,4.148-13.144,6.484-12.667c1.385,0.283,1.823,1.667,1.382,2.761c-1.283,3.188,0.434,4.959,2.406,7.142
		c4.044,4.474,7.962,16.325-0.915,14.37C1059.319,1350.188,1052.055,1347.955,1044.523,1351.013z M1031.181,1344.895
		c0.244-0.352,0.487-0.705,0.731-1.057c-3.021-0.218-2.867-4.402-4.867-4.014c-1.462,0.284-2.336,3.55-3.493,5.474
		c-0.296,0.491-0.697,0.931,0.049,1.63C1026.048,1346.272,1028.615,1345.584,1031.181,1344.895z M1058.655,1345.305
		c2.994-0.3,11.593,5.19,4.245-6.002C1061.531,1341.239,1060.397,1342.842,1058.655,1345.305z"/>
	<path d="M1086.449,1302.636c-13.648-0.228-12.375-20.457,0.813-19.928C1099.738,1283.208,1100.581,1302.872,1086.449,1302.636z"/>
	<path d="M996.284,1292.975c-0.327-12.6,19.884-14.376,20.099-0.403C1016.6,1306.597,996.607,1305.382,996.284,1292.975z"/>
</g>
<g>
	<path d="M1155.696,438.301c-3.22,1.673-5.368,5.723-9.705,2.382c-3.703-2.852-4.846-4.73-2.481-8.763
		c4.921-8.393-0.54-7.712-7.146-24.821c-0.236-0.611-0.487-1.424-2.018-1.215c3.199,9.297,3.414,20.118,3.335,22.497
		c-0.449,13.493-13.244,4.834-10.363,14.115c3.084,9.932,11.142,58.226,11.325,59.312c0.737,4.385,4.396,6.295,6.7,9.196
		c3.781,4.762,6.067,10.2,8.77,15.438c4.002,7.753-2.817,19.642-11.735,24.317c-7.506,3.935-15.464,4.614-23.512,5.282
		c-33.037,2.741-35.476-1.845-37.027-9.121c-3.439-16.135-4.724-15.561-1.446-22.868c2.885-6.432-2.378,0.638-1.976-14.679
		c0.763-29.081-1.98-31.574-14.929-69.08c-1.033-2.993-4.385-1.555-4.917,0.117c-1.816,5.71-10.755,66.855-15.072,78.544
		c-0.219,0.593,0.016,1.443,0.249,2.1c3.411,9.638,0.337,18.603-3.046,27.433c-1.636,4.269-5.654,5.799-9.871,6.045
		c-68.402,3.995-71.074-25.642-49.206-48.656c8.812-9.274,10.385-44.563,9.391-63.695c-0.253-4.861-14.06-2.416-10.557-17.88
		c1.562-6.897,2.47-13.942,3.034-21.078c-0.083,0.193-8.256,19.355-8.435,19.465c-8.144,4.985,7.341,9.753,0.273,16.237
		c-10.011,9.183-10.094-6.426-13.767,2.629c-3.293,8.121-11.96,17.318-14.838,9.792c-0.876-2.292-1.609-1.905-3.379-1.244
		c-4.219,1.575-7.463-0.354-8.134-4.985c-0.292-2.014-0.576-2.429-2.747-2.386c-4.157,0.082-7.067-4.775-5.633-9.295
		c0.666-2.099,0.702-3.034-1.463-4.335c-3.317-1.993-3.23-7.602-0.097-10.131c4.575-3.695-0.302-3.976,4.493-13.425
		c0.177-0.348,28.537-48.846,36.29-63.157c13.932-25.716,16.718-24.546,26.946-27.771c3.053-0.963,7.797-0.117,6.306-6.144
		c-0.828-3.345,6.056-1.77,8.924-5.047c-6.619-2.124-24.109-12.645-37.823-28.346c-11.012-12.607-9.494-13.026-11.428-11.955
		c-11.928,6.604-21.075-1.563-23.695-12.834c-0.524-2.255-0.579-4.617-0.871-6.928c-0.645-5.101-0.06-9.716,5.302-12.113
		c1.747-0.781,2.156-1.404,0.939-3.077c-11.793-16.205-13.747-34.614-10.454-53.539c3.975-22.848-5.29-29.642,48.274-80.273
		c4.068-3.845,9.206-2.956,7.248-9.022c-2.03-6.292-5.551-10.699-11.637-13.176c-1.376-0.56-2.709-1.721-2.404-3.246
		c0.284-1.42,1.981-0.687,3.036-0.839c8.784-1.265,11.022,0.182,16.067,10.573c1.577-32.598,23.062-27.596,32.013-26.761
		c1.117,0.104,2.56-0.239,2.76,1.388c0.174,1.412-1.131,1.847-2.108,2.461c-23.471,14.735-15.536,7.995-25.626,26.128
		c17.504-6.726,32.358-15.102,61.75-14.376c33.864,0.837,97.555,24.262,96.64,29.236c-0.296,1.607,0.89,1.214-24.424,1.214
		c8.67,9.084,35.922,18.741,46.606,67.52c6.021,27.493-7.647,62.274-7.647,62.274c0.36,2.88,5.322,1.925,6.679,5.098
		c0.384,0.899,1.614,1.621,1.997,2.736c2.904,8.45-2.928,23.429-10.798,27.743c-9.596,5.26-13.042-4.504-16.57,0.654
		c-13.637,19.932-30.719,32.409-49.386,40.969c1.875,2.189,4.915,0.905,5.774,2.27c2.47,3.923,6.051,3.318,9.716,3.64
		c2.676,0.235,5.2,1.959,7.888,2.344c8.688,1.245,13.638,7.022,17.747,13.959c6.598,11.14,43.812,71.231,44.682,87.06
		c0.108,1.967,1.673,2.429,3.129,3.18c4.88,2.516,5.385,9.395,0.701,12.366c-1.67,1.059-0.547,1.504-0.296,2.221
		c2.115,6.045-0.536,10.118-6.985,10.358c-1.98,0.074-1.471,1.254-1.649,2.32c-1.902,11.399-8.134,1.758-10.658,6.3
		C1167.775,459.861,1159.923,447.654,1155.696,438.301z M1028.612,513.75c2.879,5.755,5.793,6.415,10.024,1.984
		c-3.291-1.538-6.593-2.211-10.108-1.897c-29.279-5.979-47.382-12.282-38.938-0.552c9.671-5.04,9.449-5.686,13.202,2.977
		c3.729,8.609,7.731-7.448,12.996,2.111C1019.478,525.072,1020.634,512.413,1028.612,513.75z M953.562,241.158
		c15.538,38.179,56.119,70.557,106.985,69.127c59.606-1.675,102.387-52.505,100.977-85.26c-0.096-2.227,3.895-24.562-5.847-43.378
		c-1.961-3.787-3.787-8.293-8.659-9.692c-10.581-3.038-20.085-7.895-27.744-16.144c5.12,13.77,13.117,25.602,23.453,36.074
		c-18.572-3.344-37.395-27.061-48.407-41.565c2.404,12.227,7.693,23.439,12.346,35.655c-5.821-1.125-10.123-3.705-14.75-5.489
		c-43.601-16.808-42.097-19.718-53.548-30.077c8.924,23.207,15.909,32.117,13.531,34.143c-1.138,0.97-2.298-0.233-3.03-0.903
		c-3.593-3.292-7.548-6.141-11.183-9.405c-8.082-7.258-27.356-29.559-27.379-29.578c1.29,25.224-19.198,50.717-22.664,48.115
		c-1-0.751-0.834-0.653,5.208-23.993c2.308-8.916,1.683-17.911,0.794-27.158c-4.333,11.472-12.971,19.785-20.173,29.023
		c-7.104,9.114-13.357,19.092-23.287,27.405c2.343-20.866,3.718-28.565,1.141-35.46c-6.828-18.264-10.494,50.124-3.592,59.105
		c3.679,4.786,5.074,10.734,8.886,15.364c0.685,0.832,1.66,2.289,0.716,3.6C956.489,241.842,955.166,240.554,953.562,241.158z
		 M1064.121,431.186c10.703,6.682,20.357-2.398,19.65-7.488c-1.871-13.492-5.092-69.332-2.094-82.565
		c0.65-2.87-2.212-3.455-3.601-4.926c-1.464-1.551-2.68-0.364-4.1,0.619c-11.742,8.128-10.154-11.537-17.005-3.007
		c-5.684,7.077-7.464-8.657-14.458,0.367c-2.495,3.219-4.839,6.594-8.736,2.635c-1.009-1.025-3.818-4.994-5.336-3.439
		c-1.302,1.334,0.594,2.414,1.437,2.969c6.909,4.551,8.427,11.331,8.304,18.946c-1.051,65.162-7.484,69.704-1.742,70.747
		c3.417,0.621,5.945,11.953,16.864,4.917C1058.213,427.799,1060.584,428.978,1064.121,431.186z M1140.906,513.34
		c-0.385,0.104-0.77,0.209-1.155,0.313c-0.627,4.889-1.288,7.587-3.811,8.642c-4.585,1.916-7.45-10.267-11.058-1.588
		c-5.254,12.638-11.062-0.838-14.71,4.606c-2.947,4.399-4.295,6.03-10.781-2.36c-3.741-4.839-4.562,4.275-10.814,2.22
		c-3.992-1.312-4.374,1.133-4.799,3.93c-0.755,4.983,1.484,9.378,2.627,13.991c1.806,7.287,2.628,8.056,10.308,8.274
		c19.179,0.546,55.688-0.235,53.225-19.832C1149.039,524.394,1144.417,519.142,1140.906,513.34z M983.569,511.539
		c-8.327,10.538-13.45,17.391-5.042,28.297c8.499,11.024,37.357,10.195,51.622,9.541c2.644-0.121,5.562-0.911,6.521-3.657
		c2.256-6.462,3.745-13.132,3.136-20.071c-0.525-5.973-7.062,1.112-9.705-3.113c-5.688-9.093-12.057,12.247-16.467,1.556
		c-3.124-7.574-7.792,7.084-13.143-2.995c-3.128-5.893-3.128-5.893-8.87-2.734c-3.806,2.094-6.269,1.074-7.419-3.119
		C983.947,514.316,983.869,513.34,983.569,511.539z M1084.597,322.496c-0.022,0-0.045,0-0.067,0c0-9.43,0.736-10.952-2.75-10.248
		c-15.557,3.143-38.598,3.856-54.152-1.641c-3.666-1.296-2.267,1.853-1.717,12.108c0.145,2.715-0.938,6.121,4.068,5.24
		c1.454-0.256,2.28,1.459,3.159,2.66c7.728,10.56,8.089-13.103,18.904-1.063c4.487,4.995,5.553-10.649,13.257,1.546
		c4.801,7.599,5.838-1.42,13.699,1.027C1085.194,334.052,1084.597,334.227,1084.597,322.496z M1167.788,448.343
		c1.301-2.815-1.079-8.87,2.625-9.517c2.96-0.517,3.61,2.289,5.982,5.517c1.489,2.025,3.238,0.79,2.531-1.161
		c-1.332-3.671-3.534-7.303-0.812-9.185c3.81-2.635,6.269,5.679,9.119,2.823c3.602-3.611-6.658-7.911-4.81-11.825
		c1.635-3.462,6.689,1.186,7.665-1.262c0.504-1.263-0.181-2.17-1.247-2.917c-5.056-3.542-11.563,0.013-24.628,1.853
		c-6.865,0.967-13.118,2.558-15.892,9.962c-0.478,1.276-2.925,2.274-0.434,3.789c3.889,2.366,2.228-4.93,8.59-4.595
		c2.739,0.144,4.178,3.548,5.658,9.077C1163,444.135,1165.121,446.298,1167.788,448.343z M951.698,448.062
		c3.542-3.847,6.366-7.594,7.199-12.536c0.285-1.69,0.828-3.477,3.019-3.798c3.709-0.544,5.277,3.276,6.427,4.389
		c1.445,1.398,3.558,0.646,3.313-1.772c-0.26-2.574-5.435-8.181-8.093-8.952c-6.557-1.902-37.015-9.933-35.283-1.958
		c0.792,3.648,5.699-1.69,7.991,1.379c2.33,3.121-7.624,8.712-4.188,12.037c1.783,1.726,3.024-1.075,4.452-2.036
		c4.008-2.7,5.597-0.458,5.034,2.981c-0.38,2.326-1.731,4.549-1.045,7.196c6.253-1.92,3.81-7.101,8.412-6.152
		c2.082,0.429,1.983,2.192,2.276,3.75C951.526,444.266,950.604,446.021,951.698,448.062z M1161.344,405.626
		c0,17.309-8.328-2.185-14.078-0.132c-3.394,1.212-1.049,5.134-1.635,7.792c-0.464,2.102,1.597,8.532,7.64,6.526
		c7.736-2.568,15.941-2.51,23.761-4.805c6.937-2.036,7.099-1.466,3.947-8.371c-1.527-3.345-2-6.37-3.983-3.437
		c-6.786,10.035-8.344-4.467-14.532-2.655C1160.14,401.225,1161.848,404.134,1161.344,405.626z M938.776,400.582
		c-3.256,3.324-4.387,7.201-5.641,11.05c-0.682,2.094,0.285,2.376,2.027,2.697c34.253,6.302,32.809,8.552,35.75,0.793
		c0.999-2.636,2.274-6.015-0.11-7.613c-4.125-2.765-7.338,8.172-12.47,6.488c-3.47-1.139,0.649-10.516-2.58-11.882
		c-3.301-1.397-12.81,15.549-16.491-0.779C939.229,401.203,939.107,401.091,938.776,400.582z M939.875,250.856
		c1.668,8.127,7.047,11.212,15.199,9.544c3.828-0.783,3.317-2.605,1.617-4.483c-6.35-7.015-7.236-22.756-14.871-21.344
		C936.814,235.499,938.823,245.73,939.875,250.856z M1175.238,237.13c-0.285-2.927-5.404-5.081-7.233-2.073
		c-4.113,6.762-6.289,14.521-10.885,21.045C1152.979,261.978,1178.049,265.953,1175.238,237.13z M1085.468,517.433
		c6.325,9.028,8.828-7.785,16.902,1.726c2.389,2.814,3.413,5.083,4.897,1.699c4.898-11.171,10.543,6.991,13.38-2.889
		c3.639-12.673,11.556-2.539,13.244-1.852c0.735-1,4.708-10.258-0.78-7.667c-2.799,1.322-5.885,1.478-8.879,1.853
		C1111.287,511.922,1098.6,514.878,1085.468,517.433z M1099.987,325.084c5.601-1.105,4.349,4.022,6.582-12.936
		c0.495-3.759-8.905-3.754-11.549,0.291c-2.47,3.778-6.233-0.006-6.161,3.967c0.022,1.209,0.016,2.428,1.666,2.513
		C1097.534,319.278,1088.715,324.289,1099.987,325.084z M1009.89,324.097c2.54-0.414,6.064,0.653,5.986-4.031
		c-0.046-2.741,4.768-0.425,4.812-4.578c0.042-3.846-4.701-0.412-5.795-3.757c-1.308-3.999-2.53-3.828-10.676-2.323
		c-1.101,0.203-1.118,1.263-1.008,2.11C1004.215,319.236,1004.23,325.796,1009.89,324.097z"/>
	<path d="M1009.911,195.563c0.141,1.439,4.114,1.87,2.335,4.45c-1.843,2.673-4.43-0.659-5.71-1.631
		c-2.126-1.615-3.845-0.272-5.505,0.901c-2.026,1.431-0.387,2.378,0.534,3.425c1.778,2.021-1.271,3.768-3.276,2.185
		c-3.932-3.103-10.828,0.663-6.706,3.474c0.722,0.492,2.195,0.959,1.313,2.218c-2.501,3.571-5.258-3.316-9.035-0.07
		c-1.309,1.124-3.005,2.247-0.863,4.153c2.098,1.867-0.567,3.941-2.323,2.749c-6.113-4.149-7.85,5.387-10.837,2.075
		c-3.225-3.577,6.662-4.299,0.935-8.618c-0.875-0.66-2.06-1.488-0.847-2.824c2.168-2.387,5.692,4.369,10.202,0.491
		c4.644-3.993-4.065-3.027-1.468-6.542c2.285-3.093,5.299,3.416,9.069,1.021c1.949-1.238,4.206-2.228,1.09-4.634
		c-2.092-1.615-0.729-3.967,2.171-2.539c2.202,1.084,4.237,2.36,6.905,0.782c1.787-1.056,3.296-1.594,0.825-3.438
		c-3.036-2.266,0.437-4.414,2.535-2.639c3.247,2.747,6.145,1.552,9.171-0.601c-1.465-2.681-2.208-3.575-1.216-4.614
		c0.687-0.719,1.713-1.001,2.37-0.448c3.71,3.123,7.571,1.654,11.484,0.655c3.361-0.857,4.583,2.399,3.034,3.568
		c-0.543,0.41-1.282,0.528-4.373,1.311c-0.06,1.955,4.021,2.435,1.495,4.672c-1.883,1.668-3.335,0.08-4.815-1.265
		C1014.785,190.538,1012.548,194.119,1009.911,195.563z"/>
	<path d="M1007.638,226.134c-0.084-12.926,20.182-13.72,20.036,0.079C1027.531,239.825,1007.721,238.774,1007.638,226.134z"/>
	<path d="M1091.275,235.963c-13.251-0.596-11.703-20.363,1.005-19.947C1104.813,216.425,1105.841,236.618,1091.275,235.963z"/>
	<path d="M1036.246,269.431c-1.572-3.017,2.95-5.371,3.731-1.734c0.916,4.271,3.869,7.346,6.068,10.89
		c5.151,8.301,19.571,7.712,23.775-3.742c2.457-6.695,2.16-9.943,5.205-9.655c5.151,0.488-3.051,20.31-14.478,22.776
		C1046.422,291.015,1042.088,280.643,1036.246,269.431z"/>
</g>
<g>
	<path d="M278.289,361.735c3.978,29.011,7.277,34.253-0.8,56.418c-3.916,10.745-11.828,8.737-11.097,15.007
		c0.524,4.492,10.433,48.645,6.524,74.331c-1.338,8.794,6.393,8.359,3.909,25.747c-1.392,9.74-20.243,12.867-28.417,11.999
		c-20.357-2.161-8.873-10.549-16.812-50.627c-4.157-20.989-0.638-31.316,2.686-55.39c0.338-2.448-1.189-2.182-2.189-2.307
		c-13.572-1.698-7.355,1.932-5.114,26.457c0.983,10.756,1.688,21.766-0.81,32.187c-5.906,24.638,2.813,43.918-9.655,48.485
		c-10.747,3.936-46.386-0.423-32.739-27.44c2.961-5.861,0.179-11.659-0.113-17.474c-0.074-1.48-1.813-1.233-2.888-1.318
		c-6.669-0.53-13.159-2.389-19.761-3.033c-15.657-1.527-25.504-21.276-16.342-35.723c11.442-18.041,9.989-30.303,17.093-29.008
		c7.905,1.441-0.935,14.474,11.017,31.499c4.059,5.782,12.45,11.055,12.814,5.551c1.835-27.8,11.016-37.734,2.707-44.158
		c-5.572-4.308-18.443-29.211-16.371-60.253c0.203-3.041,0.984-7.498-2.904-4.373c-10.709,8.607-34.066,14.929-48.882,7.068
		c-6.579-3.49-11.924-21.942-0.262-33.849c16.259-16.6,43.114-17.971,56.781-19.578c8.636-1.015,12.312-10.89,9.273-12.107
		c-16.165-6.475-25.242-10.618-38.62-20.974c-45.901-35.529-12.548-39.896-48.112-15.772c-5.224,3.544-17.953,2.21-23.36-1.027
		c-6.723-4.024-8.683-10.696-11.076-17.06c-5.034-13.387-14.197-25.977-8.981-28.936c2.623-1.488,4.756,0.255,6.914,2.063
		c24.136,20.223,38.921,6.561,42.223,5.145c2.512-1.077-0.806-4.202-3.543-20.247c-6.953-40.761,8.689-85.376,46.603-114.696
		c62.93-48.666,150.397-21.784,176.49,20.777c1.691,2.758,3.239,0.836,4.682-0.78c12.484-13.981,22.567-26.557,43.098-15.301
		c5.507,3.019,7.295,8.947,9.597,14.072c5.567,12.395,15.787,24.278,12.5,27.969c-1.742,1.956-4.3,1.791-6.405,0.329
		c-10.954-7.61-27.119-15.019-37.897-7.288c-8.079,5.794-12.203,1.531-5.587,15.116c2.609,5.357,2.673,11.568,4.534,17.187
		c5.916,17.855,4.341,61.407-21.887,95.373c-22.501,29.139-55.517,43.74-65.759,45.133c-3.47,0.472-1.506,10.1,5.92,11.048
		c13.536,1.729,41.971,2.452,58.933,22.376c3.661,4.301,3.641,11.2,3.215,18.928c-1.161,21.076-30.929,17.305-47.143,9.945
		C281.128,362.701,279.906,362.333,278.289,361.735z M117.012,228.384c0.59,1.639,3.083,10.501,6.741,9.103
		c22.411-8.566,107.48-23.949,184.795-1.652c1.954,0.563,3.215,0.452,2.684-2.073c-1.807-8.6-2.611-17.276-6.081-25.675
		c-6.686-16.184-23.741-41.51-27.126-42.109c-5.735-1.014-10.891-3.895-16.604-5.119c-29.278-6.274-31.526-12.63-59.585-2.514
		c-48.374,17.439-50.544,21.588-87.966,52.924C109.063,215.294,115.058,222.953,117.012,228.384z M341.83,182.884
		c1.807,1.438,2.738,0.666,2.573-1.38c-1.07-13.262-4.481-11.811-11.502-17.148c-12.67-9.631-57.256-32.884-77.187-39.269
		c-19.753-6.327-58.93-14.947-104.695-19.077c-13.038-1.177-16.144,0.883-31.213,26.888c-1.45,2.501-0.961,3.656,2.167,3.375
		C200.589,129.205,325.866,170.175,341.83,182.884z M312.452,260.799c-5.02-1.726-35.943-7.391-65.833-7.51
		c-6.568-0.026-1.804,12.023-15.694,15.765c-20.154,5.429-18.038-13.576-26.88-12.025c-19.78,3.469-13.122,0.569-53.813,10.448
		c-15.551,3.775,79.859,64.424,152.485,3.318C306.156,267.902,310.296,265.371,312.452,260.799z M164.626,99.471
		c0.005,0.001,44.778,6.03,82.33,15.772c42.849,11.117,92.024,44.637,94.126,45.442c-1.562-17.227-20.781-55.106-40.491-60.646
		C255.29,87.307,201.731,88.957,164.626,99.471z M236.472,380.215c10.642-0.142,19.349-3.123,27.521-7.106
		c9.192-4.479,8.899-4.977,6.684-13.764c-0.642-2.547-1.96-3.579-4.471-3.825c-22.528-2.2-40.461-3.516-68.771-49.649
		c-0.567-0.924-0.462-2.552-1.994-2.543c-3.885,0.023-8.804,22.065-11.419,29.33c-2.583,7.175-2.114,12.7,2.451,18.346
		c3.794,4.692,6.718,9.979,11.475,14.021C209.496,374.837,223.094,378.73,236.472,380.215z M126.075,245.44
		c5.872,7.669,12.517,18.552,16.271,16.993c7.492-3.111,87.972-27.386,166.678-10.043c3.168,0.698,3.967-0.265,4.058-3.414
		c0.142-4.922-3.905-5.09-6.661-5.898c-53.064-15.553-106.869-15.264-165.262-2.266C136.103,241.94,130.858,242.327,126.075,245.44z
		 M110.115,205.131c5.812-6.067,37.746-33.002,61.434-42.835c35.219-14.62,18.007-5.91,32.967-13.13
		c-46.388-6.748-45.181-10.035-70.896,3.344c-7.789,4.052-26.508,19.681-26.479,28.002
		C107.17,188.624,107.548,196.654,110.115,205.131z M274.754,397.356c-35.511,17.942-66.906,13.686-94.865-14.018
		c0.408,10.492,8.711,40.562,29.377,43.299c6.689,0.886,24.665,9.045,53.965-2.975C272.195,419.983,274.063,405.777,274.754,397.356
		z M320.16,252.992c8.212-12.819,20.126-27.97,22.918-57.358c0.917-9.653-42.085-23.65-51.392-24.624
		C311.286,194.793,319.214,222.057,320.16,252.992z M291.369,89.227c-42.917-28.399-99.179-25.208-136.444,4.238
		C200.145,81.756,245.592,81.426,291.369,89.227z M179.917,355.12c-2.007,9.68-3.672,13.947,11.044,28.662
		c15.001,15,43.442,24.654,75.448,9.653c7.901-3.703,8.032-3.424,7.379-11.852c-0.388-5.008-1.336-5.635-5.584-2.913
		c-27.253,17.458-62.788,5.219-78.733-12.01C186.06,362.973,184.002,358.223,179.917,355.12z M277.2,325.664
		c0.491-10.4-9.196-2.796-14.282-9.275c-3.933-5.01-3.29,9.452-13.184,12.281c-9.843,2.814-19.395-1.619-26.171-11.528
		c-3.278-4.794-5.558-10.929-12.388-12.411c-1.853-0.402-4.102-1.368-5.238,0.111c-1.192,1.551,1.167,2.569,2.097,3.751
		c2.583,3.282,5.288,11.134,21.184,26.092c15.184,14.288,41.009,15.882,44.669,9.384C279.295,334.464,276.848,333.121,277.2,325.664
		z M242.061,509.518c2.929,11.653,21.535,12.876,23.872-1.88c1.275-8.052,1.227-15.339-4.068-22.637
		c-10.894-15.015-15.524-17.663-23.043-14.225C232.903,473.481,240.735,504.241,242.061,509.518z M66.04,228.679
		c1.891,7.902,6.084,13.459,7.462,19.893c1.925,8.988,16.751,13.182,23.731,7.695c18.189-14.3,16.658-15.055,13.215-24.32
		c-3.048-8.201-5.971,6.921-26.913,3.489C77.627,234.467,71.995,232.865,66.04,228.679z M382.365,122.306
		c-4.671-5.593-7.373-11.803-9.636-17.915c-3.328-8.989-19.287-10.19-25.305-4.733c-1.608,1.458-17.289,16.352-16.027,18.32
		c5.57,8.684,4.985,10.21,7.641,8.297C362.941,109.063,375.599,123.001,382.365,122.306z M158.798,446.263
		c-1.065,0.373-1.069,1.169-1.347,1.804c-2.308,5.27-4.333,10.584-7.429,15.584c-5.865,9.47,0.788,21.518,8.65,23.534
		c7.123,1.826,14.529,2.556,21.823,3.694c3.903,0.609,3.395-0.193,4.118-12.099c0.211-3.479-6.517-2.585-10.341-5.917
		c-6.539-5.699-11.396-12.494-13.399-21.152C160.454,449.9,160.393,447.715,158.798,446.263z M216.093,508.168
		c6.581-27.261,3.151-24.024-7.65-21.938c-6.591,1.273-7.839,1.081-14.657,13.256C183.541,517.784,211.633,526.643,216.093,508.168z
		 M191.112,488.254c6.995-9.085,16.433-8.968,26.667-10.505c5.344-0.803,1.614-12.002,0.914-20.512
		c-0.39-4.748-24.895-2.565-26.895,18.447C191.401,479.857,191.331,484.063,191.112,488.254z M147.054,331.201
		c0.169-7.024,0.242-6.784-5.724-4.975c-4.873,1.477-8.677,4.496-12.807,7.189c-13.209,8.613-7.345,27.996-2.811,25.562
		C142.112,350.167,145.011,350.776,147.054,331.201z M310.791,361.555c-2.26-3.187-11.849-5.47-14.947-14.576
		c-7.275-21.382,0.783-24.943-9.386-25.36c-4.424-0.182-1.62,1.757-2.267,13.823c-0.788,14.688-12.781,13.057-0.67,20.142
		C291.591,360.305,300.6,362.143,310.791,361.555z M320.474,338.836c-5.58-6.717-22.287-18.114-21.095-10.249
		c2.07,13.661,1.877,19.746,12.243,24.426c5.306,2.395,10.439,10.559,11.067-3.327C322.9,345.05,322.651,341.456,320.474,338.836z
		 M136.765,360.829c2.868,1.177,4.579,0.962,6.233,0.482c34.564-10.041,20.553-10.83,18.82-20.345
		c-2.635-14.46,3.045-20.479-1.666-19.737c-2.152,0.339-6.178-1.334-6.088,3.445c0.117,6.173-0.442,16.11-2.658,21.838
		C148.78,353.298,144.072,357.688,136.765,360.829z M224.834,306.154c1.739,2.246,3.161,4.338,4.368,6.614
		c1.224,2.308,3.628,3.584,5.244,5.664c7.164,9.22,22.412,2.598,18.785-12.314C251.487,298.95,245.313,307.171,224.834,306.154z
		 M267.991,520.16c-5.174,5.101-11.558,5.397-18.181,4.757c-2.501-0.242-5.469-2.975-7.123-1.165c-1.499,1.64-0.16,6.13-0.494,8.859
		c-1.05,8.596,14.363,5.498,22.712,3.117C272.391,533.592,270.825,524.08,267.991,520.16z M265.729,476.444
		c-0.035-9.307-1.615-17.337-3.585-25.296c-0.47-1.9-6.304-4.737-8.047-3.914c-6.502,3.069-10.839,8.023-13.186,15.319
		C252.541,461.219,258.353,469.538,265.729,476.444z M190.239,521.025c-0.574,1.413-1.12,2.594-1.539,3.82
		c-1.473,4.317,0.374,9.312,4.214,10.558c5.098,1.654,10.264,3.084,15.755,2.862c6.855-0.277,7.637-0.98,7.687-7.885
		c0.058-7.938,0.767-8.054-5.637-6.264C203.551,526.117,196.674,525.675,190.239,521.025z M194.814,453.996
		c4.531-3.657,9.835-4.338,15.109-4.837c9.543-0.903,7.363,0.323,6.803-8.466c-0.2-3.137-0.799-5.544-3.204-6.048
		C191.77,430.093,201.07,431.104,194.814,453.996z M239.028,255.517c0.809-2.335,2.01-3.464-25.284-0.249
		C204.958,256.303,231.175,278.171,239.028,255.517z M170.934,319.734c-1.142,0.135-1.921,0.498-1.991,1.803
		c-0.343,6.357-1.748,12.71,0.032,19.069c1.15,4.109,4.895,6.733,5.042,3.612c0.361-7.659,4.121-14.428,5.59-21.808
		C180.651,317.172,177.772,318.924,170.934,319.734z M110.278,161.348c4.742-3.282,8.03-7.147,11.901-10.313
		c3.834-3.136,9.036-4.121,12.613-8.487c-19.072,0.857-19.62,0.264-20.722,3.109C112.191,150.507,111.195,155.548,110.278,161.348z
		 M240.69,447.213c5.702-2.774,9.553-9.096,17.026-7.097c3.305,0.884,2.134-1.272,2.177-2.917c0.15-5.674-3.773-4.345-11.077-1.48
		c-2.41,0.945-6.072-0.78-7.21,2.53c-0.918,2.672-0.743,5.72-1.041,8.603C240.552,446.982,240.657,447.124,240.69,447.213z"/>
	<path d="M175.113,208.152c-0.168-5.074,4.893-10.294,10.14-10.455c5.032-0.155,10.572,5.016,10.664,9.953
		C196.158,220.621,175.541,221.044,175.113,208.152z"/>
	<path d="M263.345,221.113c-12.844-0.344-12.694-20.072,0.52-19.996C277.457,201.195,276.978,221.478,263.345,221.113z"/>
</g>
</svg>
