<?xml version="1.0"?>
<svg xmlns:rdf="http://www.w3.org/1999/02/22-rdf-syntax-ns#" xmlns="http://www.w3.org/2000/svg" xmlns:cc="http://web.resource.org/cc/" xmlns:xlink="http://www.w3.org/1999/xlink" xmlns:dc="http://purl.org/dc/elements/1.1/" id="svg2233" viewBox="0 0 401.83 730.38" version="1.0">
 <defs id="defs2235">
  <linearGradient id="linearGradient7366">
   <stop id="stop7368" stop-color="#505050" offset="0"/>
   <stop id="stop7370" stop-color="#505050" stop-opacity="0" offset="1"/>
  </linearGradient>
  <linearGradient id="linearGradient2158">
   <stop id="stop2159" stop-color="#827135" offset="0"/>
   <stop id="stop2160" stop-color="#fcf2d9" offset="1"/>
  </linearGradient>
  <filter id="filter7362" y="-.28222" width="1.0431" x="-.021525" height="1.5644">
   <feGaussianBlur id="feGaussianBlur7364" stdDeviation="0.90760933"/>
  </filter>
  <linearGradient id="linearGradient3036" x1="627.65" xlink:href="#linearGradient7366" gradientUnits="userSpaceOnUse" y1="719.22" gradientTransform="translate(21.529 -12.331)" x2="627.65" y2="734.2"/>
  <radialGradient id="radialGradient3048" gradientUnits="userSpaceOnUse" cy="598.56" cx="403.01" gradientTransform="matrix(1 0 0 .17512 0 493.74)" r="54.829">
   <stop id="stop2743" stop-opacity=".1134" offset="0"/>
   <stop id="stop2745" stop-opacity="0" offset="1"/>
  </radialGradient>
  <linearGradient id="linearGradient3082" x1="51.516" xlink:href="#linearGradient2158" spreadMethod="reflect" gradientUnits="userSpaceOnUse" y1="2738.8" gradientTransform="matrix(1.7592 0 0 .25667 1453.5 24.871)" x2="67.992" y2="2664.5"/>
  <linearGradient id="linearGradient3084" x1="210.92" xlink:href="#linearGradient2158" spreadMethod="reflect" gradientUnits="userSpaceOnUse" y1="2738.8" gradientTransform="matrix(1.7592 0 0 .25667 1453.5 24.871)" x2="226.09" y2="2660.5"/>
  <linearGradient id="linearGradient3140" x1="203.06" xlink:href="#linearGradient2158" spreadMethod="reflect" gradientUnits="userSpaceOnUse" y1="1083.6" gradientTransform="matrix(1.0864 0 0 .41562 1010.7 24.871)" x2="246.66" y2="1021"/>
  <linearGradient id="linearGradient3142" x1="105.7" xlink:href="#linearGradient2158" gradientUnits="userSpaceOnUse" y1="2378.7" gradientTransform="matrix(1.8476 0 0 .24438 1010.7 24.871)" x2="161.25" y2="2245.2"/>
  <linearGradient id="linearGradient3144" x1="59.295" xlink:href="#linearGradient2158" spreadMethod="reflect" gradientUnits="userSpaceOnUse" y1="2729.1" gradientTransform="matrix(1.7592 0 0 .25667 1010.7 24.871)" x2="72.332" y2="2667.7"/>
  <linearGradient id="linearGradient3146" x1="213.93" xlink:href="#linearGradient2158" spreadMethod="reflect" gradientUnits="userSpaceOnUse" y1="2729.1" gradientTransform="matrix(1.7592 0 0 .25667 1010.7 24.871)" x2="226.74" y2="2679"/>
  <linearGradient id="linearGradient3148" x1="365.7" xlink:href="#linearGradient2158" spreadMethod="reflect" gradientUnits="userSpaceOnUse" y1="90.509" gradientTransform="matrix(.63172 0 0 .71476 1010.7 24.871)" x2="394.54" y2="74.446"/>
  <linearGradient id="linearGradient3150" x1="328.91" xlink:href="#linearGradient2158" spreadMethod="reflect" gradientUnits="userSpaceOnUse" y1="144.86" gradientTransform="matrix(.68744 0 0 .65683 1010.7 24.871)" x2="373.2" y2="126.42"/>
  <linearGradient id="linearGradient3152" x1="85.519" xlink:href="#linearGradient2158" spreadMethod="reflect" gradientUnits="userSpaceOnUse" y1="2556.7" gradientTransform="matrix(2.0881 0 0 .21624 1010.7 24.871)" x2="125.38" y2="2483.9"/>
  <linearGradient id="linearGradient3154" x1="170.52" xlink:href="#linearGradient2158" spreadMethod="reflect" gradientUnits="userSpaceOnUse" y1="935.77" gradientTransform="matrix(1.5061 0 0 .29980 1010.7 24.871)" x2="150.39" y2="918.01"/>
  <linearGradient id="linearGradient3565" x1="627.65" xlink:href="#linearGradient7366" gradientUnits="userSpaceOnUse" y1="719.22" gradientTransform="translate(-547.13 -.44449)" x2="627.65" y2="734.2"/>
  <linearGradient id="linearGradient3568" x1="627.65" xlink:href="#linearGradient7366" gradientUnits="userSpaceOnUse" y1="719.22" gradientTransform="translate(-264.48 -.44449)" x2="627.65" y2="734.2"/>
 </defs>
 <path id="path1648" d="m66.876 110.17c105.61-29.816 164.48-18.699 304.84-6.95 82.53 6.91 180.3-11.421 237.14-8.543 95.12 4.817 189.99 28.253 321.13 20.543" stroke="#fff" stroke-width="1px" display="none" fill="none"/>
 <path id="path8234" d="m-808.81-146.67c105.61-29.81 164.48-18.7 304.84-6.95 82.53 6.91 180.31-11.42 237.14-8.54 95.12 4.82 189.99 28.25 321.13 20.54" stroke="#fff" stroke-width="1px" display="none" fill="none"/>
 <path id="path4106" d="m203.85-661.93c105.61-29.82 164.49-18.7 304.84-6.95 82.53 6.91 180.31-11.42 237.15-8.55 95.11 4.82 189.98 28.25 321.16 20.55" stroke="#fff" stroke-width="1px" display="none" fill="none"/>
 <g id="g2676" transform="translate(-23.251 -7.3091)">
  <rect id="rect7382" transform="matrix(.88288 0 0 1 -225.86 -.44449)" height="7.7278" filter="url(#filter7362)" width="79.327" y="714.15" x="619.6" fill="url(#linearGradient3036)"/>
  <rect id="rect7378" transform="matrix(.88288 0 0 1 -474.56 -.44449)" height="7.7278" filter="url(#filter7362)" width="79.327" y="714.15" x="619.6" fill="url(#linearGradient3036)"/>
  <rect id="rect7374" height="7.7278" filter="url(#filter7362)" width="79.327" y="726.03" x="333.59" fill="url(#linearGradient3568)"/>
  <rect id="rect7340" height="7.7278" filter="url(#filter7362)" width="79.327" y="726.03" x="50.949" fill="url(#linearGradient3565)"/>
  <path id="path2733" style="color:#000000" d="m457.83 598.56a54.829 9.6014 0 1 1 -109.65 0 54.829 9.6014 0 1 1 109.65 0z" fill-rule="evenodd" transform="matrix(3.6643 -.076786 .18696 2.1043 -1364.5 -511.56)" fill="url(#radialGradient3048)"/>
  <g id="g7215" stroke="#827135" stroke-opacity=".81714" transform="matrix(.88149 0 0 .91286 -1265.8 51.254)">
   <path id="path6790" stroke-width="3.3598" fill="none" d="m1683.3 95.393c-2.2 59.327-1.2 152.64-7.3 205.2-6.8 54.49-10.7 110.92-20.3 163.48-13.3 40.3-26.5 80.61-39.7 120.91-29 45.79-58 91.58-87.1 137.37 21.6-0.65 43.2-1.29 64.8-1.94 1.6-57.37 49.9-89.34 107.4-89.34 56.5 0 100.3 38.07 103.5 90.31 20.3-0.32 41.2 0.55 61.5 0.23-29.7-45.79-59.9-92.77-89.5-138.56-13.3-40.31-26.5-80.61-39.7-120.92-9.7-55.78-14.1-137.23-20.9-192.04-4.5-53.85-5.2-115.44-7.8-173.15"/>
   <path id="path6792" stroke-width="1.6799" fill="none" d="m1696.3 139.59l-14 13.96 14 13.96 13.9-13.96-13.9-13.96z"/>
   <path id="path6794" stroke-width="1.6799" fill="none" d="m1696.3 167.66l-14.5 14.43 14.5 14.43 14.4-14.43-14.4-14.43z"/>
   <path id="path6796" stroke-width="1.6799" fill="none" d="m1696.3 196.69l-15.4 15.39 15.4 15.38 15.4-15.38-15.4-15.39z"/>
   <path id="path6798" stroke-width="1.6799" fill="none" d="m1696.3 227.67l-16.3 16.81 16.3 16.81 16.8-16.81-16.8-16.81z"/>
   <path id="path6800" stroke-width="1.6799" fill="none" d="m1696.3 261.55l-18.3 18.24 18.3 18.24 18.7-18.24-18.7-18.24z"/>
   <path id="path6802" stroke-width="1.6799" fill="none" d="m1683.5 340.83l-12.8 10.24 10.3 12.79 12.8-10.25-10.3-12.78z"/>
   <path id="path6804" stroke-width="1.6799" fill="none" d="m1685.9 319.05l-12.3 9.83 9.9 12.25 12.2-9.82-9.8-12.26z"/>
   <path id="path6806" stroke-width="1.6799" fill="none" d="m1681.1 364.04l-12.8 10.25 10.3 12.78 12.8-10.25-10.3-12.78z"/>
   <path id="path6808" stroke-width="1.6799" fill="none" d="m1678.7 386.77l-12.8 10.25 10.3 12.78 12.7-10.24-10.2-12.79z"/>
   <path id="path6810" stroke-width="1.6799" fill="none" d="m1676.3 410l-13.3 10.67 10.7 13.31 13.3-10.67-10.7-13.31z"/>
   <path id="path6812" stroke-width="1.6799" fill="none" d="m1673.5 433.71l-14.3 11.52 11.5 14.37 14.3-11.52-11.5-14.37z"/>
   <path id="path6814" stroke-width="1.6799" fill="none" d="m1710 340.83l12.8 10.24-10.3 12.79-12.7-10.25 10.2-12.78z"/>
   <path id="path6816" stroke-width="1.6799" fill="none" d="m1707.6 319.05l12.3 9.83-9.8 12.25-12.3-9.82 9.8-12.26z"/>
   <path id="path6818" stroke-width="1.6799" fill="none" d="m1712.4 364.04l12.8 10.25-10.2 12.78-12.8-10.25 10.2-12.78z"/>
   <path id="path6820" stroke-width="1.6799" fill="none" d="m1714.8 386.77l12.8 10.25-10.2 12.78-12.8-10.24 10.2-12.79z"/>
   <path id="path6822" stroke-width="1.6799" fill="none" d="m1717.2 410l13.3 10.67-10.7 13.31-13.3-10.67 10.7-13.31z"/>
   <path id="path6824" stroke-width="1.6799" fill="none" d="m1720 433.71l14.4 11.52-11.5 14.37-14.4-11.52 11.5-14.37z"/>
   <path id="path6826" stroke-width="1.6799" fill="none" d="m1652.3 529.44l-21.8 14.14 13 21 21.8-14.13-13-21.01z"/>
   <path id="path6828" stroke-width="1.6799" fill="none" d="m1660 497.97l-19.4 12.61 11.6 18.73 19.4-12.61-11.6-18.73z"/>
   <path id="path6830" stroke-width="1.6799" fill="none" d="m1666.7 471.33l-16.5 10.69 9.9 15.9 16.4-10.7-9.8-15.89z"/>
   <path id="path6832" stroke-width="1.6799" fill="none" d="m1741.3 529.44l21.7 14.14-13 21-21.7-14.13 13-21.01z"/>
   <path id="path6834" stroke-width="1.6799" fill="none" d="m1733.5 497.97l19.4 12.61-11.6 18.73-19.4-12.61 11.6-18.73z"/>
   <path id="path6836" stroke-width="1.6799" fill="none" d="m1726.9 471.33l16.4 10.69-9.8 15.9-16.5-10.7 9.9-15.89z"/>
   <path id="path6838" stroke-width="1.6799" fill="none" d="m1618.6 618.64l-12.9-0.14-15.2 7.12 8.9 17.12 27.2-11.64-8-12.46z"/>
   <path id="path6840" stroke-width="1.6799" fill="none" d="m1599.4 642.93l-27.7 11.77 10.6 18.89 28.2-12.91-11.1-17.75z"/>
   <path id="path6842" stroke-width="1.6799" fill="none" d="m1582.1 673.53l-30.5 13.4 11.2 19.9 30.6-13.4-11.3-19.9z"/>
   <path id="path6844" stroke-width="1.6799" fill="none" d="m1578.3 720.45l-15.7-13.26-33.7 15.16"/>
   <path id="path6846" stroke-width="1.6799" fill="none" d="m1775.8 618.64l13.4 0.1 15 6.88-9.5 17.12-25.3-12.12 6.4-11.98z"/>
   <path id="path6848" stroke-width="1.6799" fill="none" d="m1794.7 642.93l27.9 11.77-10.7 17.92-26.3-12.43 9.1-17.26z"/>
   <path id="path6850" stroke-width="1.6799" fill="none" d="m1812 673.53l31.6 13.23-12.3 20.07-28.4-13.88 9.1-19.42z"/>
   <path id="path6852" stroke-width="1.6799" fill="none" d="m1818.7 720.69l12.6-13.26 34.3 14.06"/>
   <path id="path6854" stroke-width="1.6799" fill="none" d="m1682.1 182.13h28.4m-0.7-28.43h-27.9"/>
   <path id="path6856" stroke-width="1.6799" fill="none" d="m1679.9 244.49l33.2 0.17m-0.6-32.41h-31.7"/>
   <path id="path6858" stroke-width="1.6799" fill="none" d="m1714.8 279.59h-36.7"/>
   <path id="path6860" stroke-width="1.6799" fill="none" d="m1695.8 331.46l-22.1-2.66"/>
   <path id="path6862" stroke-width="1.6799" fill="none" d="m1693.5 353.59l-22.6-2.56"/>
   <path id="path6864" stroke-width="3.3598" fill="none" d="m1691 376.76l-22.4-2.39"/>
   <path id="path6866" stroke-width="3.3598" fill="none" d="m1688.6 399.42l-22.7-2.39"/>
   <path id="path6868" stroke-width="1.6799" fill="none" d="m1686.7 423.36l-23.7-2.74"/>
   <path id="path6870" stroke-width="1.6799" fill="none" d="m1684.6 448.16l-25.4-2.91"/>
   <path id="path6872" stroke-width="1.6799" fill="none" d="m1697.6 331.46l22.1-2.66"/>
   <path id="path6874" stroke-width="1.6799" fill="none" d="m1699.9 353.59l22.6-2.56"/>
   <path id="path6876" stroke-width="3.3598" fill="none" d="m1702.4 376.76l22.4-2.39"/>
   <path id="path6878" stroke-width="3.3598" fill="none" d="m1704.9 399.42l22.6-2.39"/>
   <path id="path6880" stroke-width="1.6799" fill="none" d="m1706.7 423.36l23.7-2.74"/>
   <path id="path6882" stroke-width="1.6799" fill="none" d="m1708.8 448.16l25.4-2.91"/>
   <path id="path6884" stroke-width="1.6799" fill="none" d="m1676.2 487.06l-25.6-5.13"/>
   <path id="path6886" stroke-width="1.6799" fill="none" d="m1671.5 516.64l-31.1-6.15"/>
   <path id="path6888" stroke-width="1.6799" fill="none" d="m1665 550.67l-34.6-6.84"/>
   <path id="path6890" stroke-width="1.6799" fill="none" d="m1717.5 487.06l25.5-5.13"/>
   <path id="path6892" stroke-width="1.6799" fill="none" d="m1722.1 516.64l31.2-6.15"/>
   <path id="path6894" stroke-width="1.6799" fill="none" d="m1728.6 550.67l34.6-6.84"/>
   <path id="path6896" stroke-width="1.6799" fill="none" d="m1626.2 631.13l-36-5.47"/>
   <path id="path6898" stroke-width="1.6799" fill="none" d="m1610.3 660.78l-38-5.88"/>
   <path id="path6900" stroke-width="1.6799" fill="none" d="m1593 693.2l-41.2-6.15"/>
   <path id="path6902" stroke-width="1.6799" fill="none" d="m1768.9 630.96l35.3-5.3"/>
   <path id="path6904" stroke-width="1.6799" fill="none" d="m1785.2 660.54l37-5.64"/>
   <path id="path6906" stroke-width="1.6799" fill="none" d="m1803.2 693.03l40.2-6.16"/>
   <path id="path6908" stroke-width="3.3598" fill="none" d="m1696.7 321.46l-11.7 126.09"/>
   <path id="path6910" stroke-width="3.3598" fill="none" d="m1696.8 321.46l11.8 126.09"/>
   <path id="path6912" stroke-width="1.6799" fill="none" d="m1696.1 137.42l0.6 184.13"/>
   <path id="path6916" stroke-width="1.6799" fill="none" d="m1689.8 399.81l19 48.22"/>
   <path id="path6918" stroke-width="1.6799" fill="none" d="m1703.7 399.57l-19 48.46"/>
   <path id="path6920" stroke-width="3.3598" fill="none" d="m1689.4 399.29l15.4 0.58"/>
   <path id="path6922" stroke-width="3.3598" fill="none" d="m1691.6 376.68l9.9 0.17"/>
   <path id="path6924" stroke-width="1.6799" fill="none" d="m1702.3 375.99l-12.7 23.07"/>
   <path id="path6926" stroke-width="1.6799" fill="none" d="m1691.5 376.48l12.9 23.31"/>
   <path id="path6928" stroke-width="1.6799" fill="none" d="m1666.8 471.27l-23.3 93.21"/>
   <path id="path6930" stroke-width="1.6799" fill="none" d="m1726.7 471.27l23.3 93.21"/>
   <path id="path6932" stroke-width="3.3598" fill="none" d="m1680.7 471.1l-18.1 93.74"/>
   <path id="path6934" stroke-width="3.3598" fill="none" d="m1713.2 469.44l17.2 94.91"/>
   <path id="path6936" stroke-width="1.6799" fill="none" d="m1643.6 603.25l-6.4 7.61 6.4 7.62 7.6-7.62-7.6-7.61z"/>
   <path id="path6938" stroke-width="1.6799" fill="none" d="m1659.2 603.25l-7.6 7.61 7.6 7.62 7.6-7.62-7.6-7.61z"/>
   <path id="path6940" stroke-width="1.6799" fill="none" d="m1674.9 603.25l-7.7 7.61 7.7 7.62 7.6-7.62-7.6-7.61z"/>
   <path id="path6942" stroke-width="1.6799" fill="none" d="m1690.5 603.25l-7.6 7.61 7.6 7.62 7.6-7.62-7.6-7.61z"/>
   <path id="path6944" stroke-width="1.6799" fill="none" d="m1706.2 603.25l-7.7 7.61 7.7 7.62 7.6-7.62-7.6-7.61z"/>
   <path id="path6946" stroke-width="1.6799" fill="none" d="m1721.8 603.25l-7.6 7.61 7.6 7.62 7.6-7.62-7.6-7.61z"/>
   <path id="path6948" stroke-width="1.6799" fill="none" d="m1737.5 603.25l-7.7 7.61 7.7 7.62 7.6-7.62-7.6-7.61z"/>
   <path id="path6950" stroke-width="1.6799" fill="none" d="m1753.1 603.25l-7.6 7.61 7.6 7.62 5.9-7.62-5.9-7.61z"/>
   <path id="path6952" stroke-width="3.3598" fill="none" d="m1641.4 603.56l-62.6 117.17"/>
   <path id="path6954" stroke-width="3.3598" fill="none" d="m1755 603.56l63 117.62"/>
   <path id="path6956" stroke-width="1.6799" fill="none" d="m1605.8 603.02v14.95m13.3 0v-17.36"/>
   <path id="path6958" stroke-width="1.6799" fill="none" d="m1632.4 617.97v-14.95"/>
   <path id="path6960" stroke-width="1.6799" fill="none" d="m1762.5 603.02v14.95m13.4 0v-15.91"/>
   <path id="path6962" stroke-width="1.6799" fill="none" d="m1789.2 617.97v-14.95"/>
   <path id="path6964" stroke-width="1.6799" fill="none" d="m1616.6 664.91l-6.6-4.62"/>
   <path id="path6966" stroke-width="1.6799" fill="none" d="m1626.8 655.25l-8.8-7.52"/>
   <path id="path6968" stroke-width="1.6799" fill="none" d="m1636.5 648.91l-7.9-9.23"/>
   <path id="path6970" stroke-width="1.6799" fill="none" d="m1645.3 643.44l-6.8-9.23"/>
   <path id="path6972" stroke-width="1.6799" fill="none" d="m1653.6 640.02l-5.9-10.6"/>
   <path id="path6974" stroke-width="1.6799" fill="none" d="m1662.8 636.26l-4.5-9.92"/>
   <path id="path6976" stroke-width="1.6799" fill="none" d="m1670.7 634.21l-4.2-10.95"/>
   <path id="path6978" stroke-width="1.6799" fill="none" d="m1679.9 632.15l-3.1-10.6"/>
   <path id="path6980" stroke-width="1.6799" fill="none" d="m1687.4 631.13l-1.7-10.95"/>
   <path id="path6982" stroke-width="1.6799" fill="none" d="m1781.1 664.3l4.9-4.28"/>
   <path id="path6984" stroke-width="1.6799" fill="none" d="m1772.2 655.75l7.4-7"/>
   <path id="path6986" stroke-width="1.6799" fill="none" d="m1764 649.6l7.9-8.21"/>
   <path id="path6988" stroke-width="1.6799" fill="none" d="m1755.1 644.81l6.9-9.24"/>
   <path id="path6990" stroke-width="1.6799" fill="none" d="m1746.9 640.7l5.5-9.91"/>
   <path id="path6992" stroke-width="1.6799" fill="none" d="m1738.4 636.94l4.8-10.26"/>
   <path id="path6994" stroke-width="1.6799" fill="none" d="m1730.5 634.89l3.4-10.6"/>
   <path id="path6996" stroke-width="1.6799" fill="none" d="m1721.3 632.84l3.4-10.6"/>
   <path id="path6998" stroke-width="1.6799" fill="none" d="m1713.4 631.47l2.1-10.94"/>
   <path id="path7000" stroke-width="1.6799" fill="none" d="m1704.5 630.44l0.7-10.6"/>
   <path id="path7002" stroke-width="1.6799" fill="none" d="m1696.6 630.44l-0.6-10.26"/>
   <path id="path7004" stroke-width="1.6799" fill="none" d="m1696 620.18"/>
   <path id="path7006" stroke-width="1.6799" fill="none" d="m1596.8 702.61l-7.8-1.67"/>
   <path id="path7008" stroke-width="1.6799" fill="none" d="m1594.7 713.21l-11.6-0.69"/>
   <path id="path7010" stroke-width="1.6799" fill="none" d="m1803 711.16l9.3-0.35"/>
   <path id="path7012" stroke-width="1.6799" fill="none" d="m1801 701.24l5.8-1.39"/>
   <path id="path7014" stroke-width="3.3598" fill="none" d="m1617.9 647.64c18.8-17.53 49-27.95 81.3-27.95 32.4 0 62.1 10.9 80.2 29.16"/>
   <path id="path7016" stroke-width="1.6799" fill="none" d="m1612.6 618.43l-57.6 103.07"/>
   <path id="path7018" stroke-width="1.6799" fill="none" d="m1780.8 618.43l58.5 103.07"/>
   <path id="path7024" stroke-width="3.3598" fill-rule="evenodd" fill="url(#linearGradient3082)" d="m1519.8 718v8.2h76v-8.2h-76z"/>
   <path id="path7026" stroke-width="3.3598" fill-rule="evenodd" fill="url(#linearGradient3084)" d="m1802.3 718v8.2h75.9v-8.2h-75.9z"/>
   <path id="path7028" stroke-width="3.3598" fill="none" d="m1594.4 618.82h205.5"/>
   <path id="path7036" stroke-width="1.6799" fill="none" d="m1687 301.34l-11.5 6.16 10.3 11.44 11.4-10.27-10.2-7.33z"/>
   <path id="path7038" stroke-width="1.6799" fill="none" d="m1706.6 302.71l11.4 4.79-10.2 11.44-11.5-10.27 10.3-5.96z"/>
  </g>
  <g id="g11190" stroke="#827135" transform="translate(-1024.3 -.44449)">
   <path id="path931" stroke-width="3.3598" fill="none" d="m1239.9 122.6c-2.2 59.33-0.6 125.43-6.8 177.99-6.7 54.49-10.6 110.92-20.3 163.48-13.2 40.3-26.4 80.61-39.6 120.91-29.1 45.79-58.1 91.58-87.1 137.37 21.6-0.65 43.2-1.29 64.8-1.94 1.6-57.37 49.9-89.34 107.4-89.34 56.5 0 100.3 38.07 103.5 90.31 20.3-0.32 41.1 0.55 61.4 0.23-29.6-45.79-59.8-92.77-89.5-138.56-13.2-40.31-26.4-80.61-39.6-120.92-9.7-55.78-13.6-109.63-20.3-164.44-4.5-53.85-5.2-115.44-7.8-173.16"/>
   <path id="rect932" stroke-width="1.6799" fill="none" d="m1253.5 139.59l-14 13.96 14 13.96 13.9-13.96-13.9-13.96z"/>
   <path id="rect1555" stroke-width="1.6799" fill="none" d="m1253.5 167.66l-14.5 14.43 14.5 14.43 14.4-14.43-14.4-14.43z"/>
   <path id="rect1556" stroke-width="1.6799" fill="none" d="m1253.5 196.69l-15.4 15.39 15.4 15.38 15.3-15.38-15.3-15.39z"/>
   <path id="rect1557" stroke-width="1.6799" fill="none" d="m1253.5 227.67l-16.3 16.81 16.3 16.81 16.8-16.81-16.8-16.81z"/>
   <path id="rect1558" stroke-width="1.6799" fill="none" d="m1253.5 261.55l-18.3 18.24 18.3 18.24 18.7-18.24-18.7-18.24z"/>
   <path id="rect1563" stroke-width="1.6799" fill="none" d="m1240.7 340.83l-12.8 10.24 10.3 12.79 12.7-10.25-10.2-12.78z"/>
   <path id="rect1564" stroke-width="1.6799" fill="none" d="m1243.1 319.05l-12.3 9.83 9.8 12.25 12.3-9.82-9.8-12.26z"/>
   <path id="rect1565" stroke-width="1.6799" fill="none" d="m1238.3 364.04l-12.8 10.25 10.2 12.78 12.8-10.25-10.2-12.78z"/>
   <path id="rect1566" stroke-width="1.6799" fill="none" d="m1235.9 386.77l-12.8 10.25 10.2 12.78 12.8-10.24-10.2-12.79z"/>
   <path id="rect1567" stroke-width="1.6799" fill="none" d="m1233.5 410l-13.3 10.67 10.7 13.31 13.3-10.67-10.7-13.31z"/>
   <path id="rect1568" stroke-width="1.6799" fill="none" d="m1230.7 433.71l-14.4 11.52 11.5 14.37 14.4-11.52-11.5-14.37z"/>
   <path id="rect1569" stroke-width="1.6799" fill="none" d="m1267.2 340.83l12.8 10.24-10.3 12.79-12.8-10.25 10.3-12.78z"/>
   <path id="rect1570" stroke-width="1.6799" fill="none" d="m1264.8 319.05l12.3 9.83-9.9 12.25-12.2-9.82 9.8-12.26z"/>
   <path id="rect1571" stroke-width="1.6799" fill="none" d="m1269.6 364.04l12.8 10.25-10.3 12.78-12.7-10.25 10.2-12.78z"/>
   <path id="rect1572" stroke-width="1.6799" fill="none" d="m1272 386.77l12.8 10.25-10.2 12.78-12.8-10.24 10.2-12.79z"/>
   <path id="rect1573" stroke-width="1.6799" fill="none" d="m1274.4 410l13.3 10.67-10.7 13.31-13.3-10.67 10.7-13.31z"/>
   <path id="rect1574" stroke-width="1.6799" fill="none" d="m1277.2 433.71l14.3 11.52-11.5 14.37-14.3-11.52 11.5-14.37z"/>
   <path id="rect1583" stroke-width="1.6799" fill="none" d="m1209.5 529.44l-21.8 14.14 13 21 21.8-14.13-13-21.01z"/>
   <path id="rect1584" stroke-width="1.6799" fill="none" d="m1217.2 497.97l-19.4 12.61 11.6 18.73 19.4-12.61-11.6-18.73z"/>
   <path id="rect1585" stroke-width="1.6799" fill="none" d="m1223.9 471.33l-16.5 10.69 9.8 15.9 16.5-10.7-9.8-15.89z"/>
   <path id="rect1586" stroke-width="1.6799" fill="none" d="m1298.4 529.44l21.8 14.14-13 21-21.8-14.13 13-21.01z"/>
   <path id="rect1587" stroke-width="1.6799" fill="none" d="m1290.7 497.97l19.4 12.61-11.6 18.73-19.4-12.61 11.6-18.73z"/>
   <path id="rect1588" stroke-width="1.6799" fill="none" d="m1284 471.33l16.5 10.69-9.8 15.9-16.5-10.7 9.8-15.89z"/>
   <path id="rect1589" stroke-width="1.6799" fill="none" d="m1175.7 618.64l-12.8-0.14-15.3 7.12 9 17.12 27.2-11.64-8.1-12.46z"/>
   <path id="rect1590" stroke-width="1.6799" fill="none" d="m1156.6 642.93l-27.7 11.77 10.5 18.89 28.2-12.91-11-17.75z"/>
   <path id="rect1591" stroke-width="1.6799" fill="none" d="m1139.3 673.53l-30.6 13.4 11.3 19.9 30.5-13.4-11.2-19.9z"/>
   <path id="rect1592" stroke-width="1.6799" fill="none" d="m1135.5 720.45l-15.7-13.26-33.8 15.16"/>
   <path id="rect1594" stroke-width="1.6799" fill="none" d="m1333 618.64l13.3 0.1 15.1 6.88-9.5 17.12-25.3-12.12 6.4-11.98z"/>
   <path id="rect1595" stroke-width="1.6799" fill="none" d="m1351.9 642.93l27.9 11.77-10.7 17.92-26.3-12.43 9.1-17.26z"/>
   <path id="rect1596" stroke-width="1.6799" fill="none" d="m1369.2 673.53l31.6 13.23-12.3 20.07-28.4-13.88 9.1-19.42z"/>
   <path id="path1597" stroke-width="1.6799" fill="none" d="m1375.9 720.69l12.5-13.26 34.4 14.06"/>
   <path id="rect1598" stroke-width="1.6799" fill="none" d="m1239.3 182.13h28.3m-0.7-28.43h-27.8"/>
   <path id="path1600" stroke-width="1.6799" fill="none" d="m1237.1 244.49l33.2 0.17m-0.7-32.41h-31.6"/>
   <path id="path1601" stroke-width="1.6799" fill="none" d="m1272 279.59h-36.7"/>
   <path id="path1604" stroke-width="1.6799" fill="none" d="m1253 331.46l-22.1-2.66"/>
   <path id="path1605" stroke-width="1.6799" fill="none" d="m1250.7 353.59l-22.7-2.56"/>
   <path id="path1606" stroke-width="3.3598" fill="none" d="m1248.2 376.76l-22.5-2.39"/>
   <path id="path1607" stroke-width="3.3598" fill="none" d="m1245.7 399.42l-22.6-2.39"/>
   <path id="path1608" stroke-width="1.6799" fill="none" d="m1243.8 423.36l-23.6-2.74"/>
   <path id="path1609" stroke-width="1.6799" fill="none" d="m1241.8 448.16l-25.4-2.91"/>
   <path id="path1610" stroke-width="1.6799" fill="none" d="m1254.8 331.46l22.1-2.66"/>
   <path id="path1611" stroke-width="1.6799" fill="none" d="m1257.1 353.59l22.6-2.56"/>
   <path id="path1612" stroke-width="3.3598" fill="none" d="m1259.6 376.76l22.4-2.39"/>
   <path id="path1613" stroke-width="3.3598" fill="none" d="m1262 399.42l22.7-2.39"/>
   <path id="path1614" stroke-width="1.6799" fill="none" d="m1263.9 423.36l23.7-2.74"/>
   <path id="path1615" stroke-width="1.6799" fill="none" d="m1266 448.16l25.3-2.91"/>
   <path id="path1616" stroke-width="1.6799" fill="none" d="m1233.3 487.06l-25.5-5.13"/>
   <path id="path1617" stroke-width="1.6799" fill="none" d="m1228.7 516.64l-31.2-6.15"/>
   <path id="path1618" stroke-width="1.6799" fill="none" d="m1222.2 550.67l-34.6-6.84"/>
   <path id="path1619" stroke-width="1.6799" fill="none" d="m1274.6 487.06l25.6-5.13"/>
   <path id="path1620" stroke-width="1.6799" fill="none" d="m1279.3 516.64l31.2-6.15"/>
   <path id="path1621" stroke-width="1.6799" fill="none" d="m1285.8 550.67l34.6-6.84"/>
   <path id="path1622" stroke-width="1.6799" fill="none" d="m1183.4 631.13l-36-5.47"/>
   <path id="path1623" stroke-width="1.6799" fill="none" d="m1167.4 660.78l-37.9-5.88"/>
   <path id="path1624" stroke-width="1.6799" fill="none" d="m1150.2 693.2l-41.3-6.15"/>
   <path id="path1625" stroke-width="1.6799" fill="none" d="m1326.1 630.96l35.3-5.3"/>
   <path id="path1626" stroke-width="1.6799" fill="none" d="m1342.4 660.54l37-5.64"/>
   <path id="path1627" stroke-width="1.6799" fill="none" d="m1360.3 693.03l40.3-6.16"/>
   <path id="path1628" stroke-width="3.3598" fill="none" d="m1253.9 321.46l-11.8 126.09"/>
   <path id="path1630" stroke-width="3.3598" fill="none" d="m1254 321.46l11.7 126.09"/>
   <path id="path1631" stroke-width="1.6799" fill="none" d="m1253.3 137.42l0.6 184.13"/>
   <path id="path1632" stroke-linejoin="round" d="m1253.3 9.8535l-0.2 64.28" stroke-linecap="round" stroke-width="4.1998" fill="none"/>
   <path id="path1633" stroke-width="1.6799" fill="none" d="m1247 399.81l19 48.22"/>
   <path id="path1634" stroke-width="1.6799" fill="none" d="m1260.9 399.57l-19 48.46"/>
   <path id="path1635" stroke-width="3.3598" fill="none" d="m1246.6 399.29l15.3 0.58"/>
   <path id="path1638" stroke-width="3.3598" fill="none" d="m1248.8 376.68l9.8 0.17"/>
   <path id="path1639" stroke-width="1.6799" fill="none" d="m1259.4 375.99l-12.6 23.07"/>
   <path id="path1640" stroke-width="1.6799" fill="none" d="m1248.7 376.48l12.9 23.31"/>
   <path id="path1641" stroke-width="1.6799" fill="none" d="m1224 471.27l-23.3 93.21"/>
   <path id="path1642" stroke-width="1.6799" fill="none" d="m1283.9 471.27l23.3 93.21"/>
   <path id="path1643" stroke-width="3.3598" fill="none" d="m1235.8 480.1l-16 84.74"/>
   <path id="path1644" stroke-width="3.3598" fill="none" d="m1272 479.62l15.6 84.73"/>
   <path id="rect1646" stroke-width="1.6799" fill="none" d="m1200.7 603.25l-6.4 7.61 6.4 7.62 7.6-7.62-7.6-7.61z"/>
   <path id="rect1647" stroke-width="1.6799" fill="none" d="m1216.4 603.25l-7.6 7.61 7.6 7.62 7.6-7.62-7.6-7.61z"/>
   <path id="rect1649" stroke-width="1.6799" fill="none" d="m1232 603.25l-7.6 7.61 7.6 7.62 7.6-7.62-7.6-7.61z"/>
   <path id="rect1650" stroke-width="1.6799" fill="none" d="m1247.7 603.25l-7.6 7.61 7.6 7.62 7.6-7.62-7.6-7.61z"/>
   <path id="rect1651" stroke-width="1.6799" fill="none" d="m1263.3 603.25l-7.6 7.61 7.6 7.62 7.6-7.62-7.6-7.61z"/>
   <path id="rect1652" stroke-width="1.6799" fill="none" d="m1279 603.25l-7.6 7.61 7.6 7.62 7.6-7.62-7.6-7.61z"/>
   <path id="rect1653" stroke-width="1.6799" fill="none" d="m1294.6 603.25l-7.6 7.61 7.6 7.62 7.6-7.62-7.6-7.61z"/>
   <path id="rect1654" stroke-width="1.6799" fill="none" d="m1310.3 603.25l-7.6 7.61 7.6 7.62 5.9-7.62-5.9-7.61z"/>
   <path id="path1655" stroke-width="3.3598" fill="none" d="m1198.6 603.56l-62.7 117.17"/>
   <path id="path1660" stroke-width="3.3598" fill="none" d="m1312.2 603.56l62.9 117.62"/>
   <path id="path1668" stroke-width="1.6799" fill="none" d="m1163 603.02v14.95m13.3 0v-17.36"/>
   <path id="path1669" stroke-width="1.6799" fill="none" d="m1189.6 617.97v-14.95"/>
   <path id="path1670" stroke-width="1.6799" fill="none" d="m1319.7 603.02v14.95m13.3 0v-15.91"/>
   <path id="path1671" stroke-width="1.6799" fill="none" d="m1346.3 617.97v-14.95"/>
   <path id="path1714" stroke-width="1.6799" fill="none" d="m1173.7 664.91l-6.6-4.62"/>
   <path id="path1715" stroke-width="1.6799" fill="none" d="m1184 655.25l-8.8-7.52"/>
   <path id="path1716" stroke-width="1.6799" fill="none" d="m1193.6 648.91l-7.8-9.23"/>
   <path id="path1717" stroke-width="1.6799" fill="none" d="m1202.5 643.44l-6.8-9.23"/>
   <path id="path1718" stroke-width="1.6799" fill="none" d="m1210.7 640.02l-5.8-10.6"/>
   <path id="path1719" stroke-width="1.6799" fill="none" d="m1220 636.26l-4.5-9.92"/>
   <path id="path1720" stroke-width="1.6799" fill="none" d="m1227.8 634.21l-4.1-10.95"/>
   <path id="path1721" stroke-width="1.6799" fill="none" d="m1237.1 632.15l-3.1-10.6"/>
   <path id="path1722" stroke-width="1.6799" fill="none" d="m1244.6 631.13l-1.7-10.95"/>
   <path id="path1728" stroke-width="1.6799" fill="none" d="m1338.3 664.3l4.9-4.28"/>
   <path id="path1729" stroke-width="1.6799" fill="none" d="m1329.4 655.75l7.3-7"/>
   <path id="path1730" stroke-width="1.6799" fill="none" d="m1321.2 649.6l7.9-8.21"/>
   <path id="path1731" stroke-width="1.6799" fill="none" d="m1312.3 644.81l6.8-9.24"/>
   <path id="path1732" stroke-width="1.6799" fill="none" d="m1304.1 640.7l5.5-9.91"/>
   <path id="path1733" stroke-width="1.6799" fill="none" d="m1295.5 636.94l4.8-10.26"/>
   <path id="path1734" stroke-width="1.6799" fill="none" d="m1287.7 634.89l3.4-10.6"/>
   <path id="path1735" stroke-width="1.6799" fill="none" d="m1278.4 632.84l3.5-10.6"/>
   <path id="path1736" stroke-width="1.6799" fill="none" d="m1270.6 631.47l2-10.94"/>
   <path id="path1737" stroke-width="1.6799" fill="none" d="m1261.7 630.44l0.7-10.6"/>
   <path id="path1738" stroke-width="1.6799" fill="none" d="m1253.8 630.44l-0.7-10.26"/>
   <path id="path1739" stroke-width="1.6799" fill="none" d="m1253.1 620.18"/>
   <path id="path1740" stroke-width="1.6799" fill="none" d="m1154 702.61l-7.9-1.67"/>
   <path id="path1741" stroke-width="1.6799" fill="none" d="m1151.9 713.21l-11.6-0.69"/>
   <path id="path1742" stroke-width="1.6799" fill="none" d="m1360.2 711.16l9.2-0.35"/>
   <path id="path1743" stroke-width="1.6799" fill="none" d="m1358.1 701.24l5.9-1.39"/>
   <path id="path1683" stroke-width="3.3598" fill="none" d="m1175.1 647.64c18.8-17.53 49-27.95 81.3-27.95s62.1 10.9 80.1 29.16"/>
   <path id="path1746" stroke-width="1.6799" fill="none" d="m1169.7 618.43l-57.5 103.07"/>
   <path id="path1747" stroke-width="1.6799" fill="none" d="m1337.9 618.43l58.6 103.07"/>
   <path id="rect1748" stroke-width="3.3598" fill-rule="evenodd" fill="url(#linearGradient3140)" d="m1202.2 444.39l6.5 21.72-6.5 14.19c34.5 2.74 69.4 2.74 104.6 0l-8.2-14.19 8.2-21.72h-104.6z"/>
   <path id="path1752" stroke-width="3.3598" fill-rule="evenodd" fill="url(#linearGradient3142)" d="m1154.3 581.41l3.1 20.92c34.5 2.91 159 2.91 194.2 0l2.1-21.28-199.4 0.36z"/>
   <path id="rect1753" stroke-width="3.3598" fill-rule="evenodd" fill="url(#linearGradient3144)" d="m1077 718v8.2h75.9v-8.2h-75.9z"/>
   <path id="rect1754" stroke-width="3.3598" fill-rule="evenodd" fill="url(#linearGradient3146)" d="m1359.5 718v8.2h75.9v-8.2h-75.9z"/>
   <path id="path1755" stroke-width="3.3598" fill="none" d="m1151.6 618.82h205.5"/>
   <path id="rect1759" stroke-width="3.3598" fill-rule="evenodd" fill="url(#linearGradient3148)" d="m1252.8 69.165l-17.8 22.964 17.8 17.831 17.8-17.831-17.8-22.964z"/>
   <path id="path1758" stroke-width="3.3598" fill-rule="evenodd" fill="url(#linearGradient3150)" d="m1233.7 139.6l-1.1-25.1 1.1-10.83c12.6-4.134 24-4.476 38.2 0l1.8 10.83-1.8 25.1h-38.2z"/>
   <path id="path1762" stroke-width="3.3598" fill-rule="evenodd" fill="url(#linearGradient3152)" d="m1155.3 563.67h197.8l-11.1 17.48h-176.1l-10.6-17.48z"/>
   <path id="rect1763" stroke-width="1.6799" fill="none" d="m1244.1 301.34l-11.4 6.16 10.3 11.44 11.4-10.27-10.3-7.33z"/>
   <path id="rect1764" stroke-width="1.6799" fill="none" d="m1263.7 302.71l11.5 4.79-10.3 11.44-11.4-10.27 10.2-5.96z"/>
   <path id="path1756" stroke-width="1.6799" fill-rule="evenodd" fill="url(#linearGradient3154)" d="m1225.7 298.05v9.32c19 0.71 36.9 0.71 56.3 0v-9.32h-56.3z"/>
  </g>
 </g>
 <path id="path8705" d="m1129.4-232.16c105.6-29.82 164.5-18.7 304.8-6.95 82.6 6.91 180.3-11.42 237.2-8.55 95.1 4.82 190 28.26 321.1 20.55" stroke="#fff" stroke-width="1px" display="none" fill="none"/>
 <metadata>
  <rdf:RDF>
   <cc:Work>
    <dc:format>image/svg+xml</dc:format>
    <dc:type rdf:resource="http://purl.org/dc/dcmitype/StillImage"/>
    <cc:license rdf:resource="http://creativecommons.org/licenses/publicdomain/"/>
    <dc:publisher>
     <cc:Agent rdf:about="http://openclipart.org/">
      <dc:title>Openclipart</dc:title>
     </cc:Agent>
    </dc:publisher>
   </cc:Work>
   <cc:License rdf:about="http://creativecommons.org/licenses/publicdomain/">
    <cc:permits rdf:resource="http://creativecommons.org/ns#Reproduction"/>
    <cc:permits rdf:resource="http://creativecommons.org/ns#Distribution"/>
    <cc:permits rdf:resource="http://creativecommons.org/ns#DerivativeWorks"/>
   </cc:License>
  </rdf:RDF>
 </metadata>
</svg>
