<svg width="640" height="480" xmlns="http://www.w3.org/2000/svg">

 <g>
  <title>Layer 1</title>
  <path fill-rule="evenodd" stroke="#000000" stroke-width="0.57182px" fill="#000000" d="M 112.5145654189929 138.37073981576896 C 117.29113893546207 139.43997279958106 121.75460372769962 134.04271120148093 127.08411392738626 133.90554293271651 C 134.30560024796168 133.71960964562493 143.12593962844304 137.91040337227102 156.5030102296565 131.61012288971148 C 159.46755027823218 130.21199250770115 164.9369601206606 128.63485720185892 168.314537209712 132.04494430312837 C 170.8060832280655 134.55920735870805 173.40421945041274 135.9139022325909 175.97570812176156 134.80090064626384 C 182.3378109226375 132.04441135210843 188.59998540726926 140.60513696698757 192.43723275104367 141.74392005890564 C 194.42913718817653 142.33549569107083 196.50098427830474 144.56856046473953 198.58615514393213 146.01885342782927 C 201.50406197826055 148.04806443635997 204.44861636358743 152.47155790209985 207.24660921842292 155.1189920937942 C 210.36437268523957 158.064878856671 212.76265227509856 159.81095963584332 214.7878661509795 161.14333718576498 C 218.45856630101366 165.28636517724635 214.34151967175572 166.32961679883505 211.62346946991556 171.3846572232378 C 208.6122962070926 174.3458663279387 205.6477561585169 177.99258368207427 202.29682662046395 184.75906306935144 L 206.67368687195656 213.74293810157224 L 213.1756893155743 235.54063481829058 L 208.5323535540973 243.08855363859684 L 231.7490323614822 275.7917606014239 C 232.381911697695 280.3884631486536 231.60247083099082 284.0458395231886 228.03169899720078 285.85121110333245 L 213.1756893155743 290.0348766100865 C 211.69675023516123 301.3001287946741 214.55470007974318 304.41123037374115 216.8930226798557 308.4883056765015 L 211.31702263343357 312.6719711832555 L 216.8930226798557 320.2198900035617 L 210.391020236238 324.4102173980653 L 215.034355997715 340.3454528951283 C 215.94703461941134 346.06135258429225 212.6094288568576 349.6188006425831 210.57755309322707 352.53004558916194 C 205.714375036013 358.5124207883102 203.67583738463284 358.27259282932425 196.44102728855822 358.71893930854804 C 181.54504628043406 359.52502772625064 172.20507965548325 356.86693451415687 156.2498584951714 351.1443729372434 C 151.1068811524738 358.8455151757906 144.27178432137566 363.16241843753676 144.385036413119 381.389343320465 C 131.6275213726191 394.7464282584297 134.12572927872222 401.6281583037751 132.480243004569 418.58266262652813 C 125.47859897973066 419.61525522771745 126.16477341794032 425.4777164473728 79.92794149178393 378.6646312308753 C 56.88247319956395 355.34136221949666 30.325523874525423 340.9916560068403 17.913760808230208 353.1229535988771 C 25.993298270955144 329.85297968949527 39.375698382368284 320.9260501050201 40.229752391868075 295.8507046154946 L 34.28335138656771 286.1709817153137 S 28.712680850345258 277.43058498782756 28.494170932158106 275.49863754044117 L 23.701742122844884 260.68926107306197 L 17.499990960102025 211.98419973567565 C 18.840895726343184 181.32286136810347 39.063855416809126 164.3830131983995 53.490173338585905 153.43553305946818 C 64.61752444675663 144.27676978130668 78.4655905118674 140.546778830301 93.17503866300252 137.90800509268115 C 99.51049391288002 136.77148704259798 106.00583446874812 138.33170115355625 112.5144988001154 138.37100629127892 L 112.5145654189929 138.37073981576896 z" id="imagebot_2"/>
  <g id="imagebot_13" transform="translate(11.25 -5) matrix(0.122671 0 0 0.122671 371.572 119.066)">
   <g id="imagebot_16">
    <path id="imagebot_17" d="M1767.0676,1607.2255C1768.4726,1597.7687 1771.0228,1588.4606 1770.7979,1578.7946C1770.7754,1577.8273 1770.425,1576.8676 1770.2269,1575.9043C1768.9361,1576.6122 1768.9217,1577.8814 1768.8084,1579.1123C1767.8003,1590.078 1763.8101,1600.2401 1759.741,1610.2686C1758.1686,1614.1437 1757.2489,1618.4935 1754.1604,1621.823C1752.4049,1623.7155 1754.0271,1624.4994 1756.0012,1624.7206C1757.9072,1624.934 1758.9736,1625.7177 1758.2024,1628.015C1754.6824,1638.4996 1751.2858,1649.0255 1747.822,1659.5292C1747.0935,1661.7382 1745.7734,1663.8721 1745.5755,1666.1156C1744.6234,1676.9156 1739.6295,1686.3519 1735.817,1696.1868C1733.662,1701.7462 1731.8039,1707.2887 1730.5878,1713.229C1729.1177,1720.4083 1727.6524,1727.8839 1719.2974,1732.0099C1715.5017,1733.884 1713.2654,1739.7294 1711.253,1744.1932C1708.8166,1749.5984 1707.1784,1755.3946 1705.5484,1761.1222C1704.265,1765.6325 1702.7849,1769.9876 1700.2347,1773.9507C1699.5238,1775.0557 1699.0378,1776.3054 1698.4486,1777.4888C1696.5886,1776.3886 1697.5719,1774.5042 1697.2049,1772.9916C1697.0057,1772.1709 1696.4981,1770.3136 1695.8233,1771.4556C1692.0782,1777.7947 1684.868,1781.9472 1682.6163,1788.5373C1680.8663,1793.6584 1677.2346,1796.5589 1674.7525,1800.6336C1674.2512,1801.4566 1673.235,1801.9553 1672.6779,1802.7574C1671.1352,1804.9782 1669.3808,1805.9516 1666.8201,1804.3177C1665.7204,1803.6159 1664.6255,1803.0878 1663.1397,1803.6138C1659.7242,1804.8223 1659.7422,1810.9566 1655.3576,1809.8609C1650.1836,1808.5679 1649.3848,1813.0452 1646.7325,1815.0566C1644.6925,1816.6032 1643.0112,1819.234 1640.3912,1815.6169C1639.6673,1814.6175 1637.5577,1814.5555 1636.7959,1815.6958C1634.0659,1819.7816 1630.2426,1819.0765 1626.1975,1819.0133C1622.8052,1818.9602 1620.2584,1821.7402 1617.4176,1823.4438C1612.699,1826.2738 1608.7551,1831.0504 1602.2604,1829.6313C1601.761,1829.5222 1601.0625,1830.0488 1600.5327,1830.3961C1588.5959,1838.2164 1577.8723,1833.6319 1567.3437,1827.152C1566.2149,1826.4573 1565.2653,1825.4237 1564.0804,1824.8778C1561.6989,1823.7809 1558.7435,1822.2393 1556.8587,1824.7456C1555.6077,1826.4089 1558.2293,1828.1744 1559.2884,1829.7739C1565.1437,1838.6164 1571.7043,1846.9646 1576.5797,1856.4937C1578.8013,1860.8357 1582.4895,1864.4467 1585.6244,1868.298C1591.2561,1875.2163 1596.2518,1882.677 1601.966,1889.4529C1612.0106,1901.3642 1622.475,1913.0853 1636.3139,1920.9662C1638.0428,1921.9505 1639.9068,1922.7214 1641.7621,1923.455C1650.9508,1927.0884 1663.2062,1938.3544 1663.1519,1949.1525C1663.0912,1960.9358 1643.9585,1974.099 1634.3329,1978.1287C1622.6308,1983.0276 1609.5206,1983.8883 1597.3239,1987.031C1578.1801,1991.9637 1559.0363,1996.8965 1539.8924,2001.8292C1525.6201,2005.5068 1511.2432,2009.2218 1497.9489,2015.5849C1480.3516,2024.0074 1467.8254,2037.1988 1453.0835,2049.9995C1436.8339,2064.1099 1420.0333,2077.6416 1402.0946,2089.5603C1373.9098,2108.2866 1343.2661,2122.8472 1314.3573,2140.3635C1285.0624,2158.1137 1257.3713,2179.8445 1233.4669,2204.3967C1203.0759,2235.6113 1179.2135,2272.2612 1154.2868,2307.7815C1141.6898,2325.7319 1129.1462,2344.9539 1114.0001,2360.8923C1107.7058,2367.5161 1099.2813,2372.239 1092.4024,2378.5344C1083.292,2386.872 1074.3509,2395.3926 1065.2143,2403.7016C1057.7539,2410.4865 1050.4963,2417.6623 1042.663,2424.009C1037.1769,2428.4538 1032.4633,2435.9936 1026.4267,2439.4206C1013.3527,2446.8415 1003.7683,2461.8784 993.9345,2473.0258C987.2675,2480.5837 980.2457,2488.3976 970.8891,2492.142C955.048,2498.4816 944.2221,2487.8996 936.5605,2475.3556C924.1928,2455.6796 912.3227,2435.6715 900.2089,2415.8378C888.4303,2396.5529 875.7941,2378.0773 863.4089,2359.5131C861.7367,2357.0068 859.6579,2354.7494 859.1896,2351.7043C858.1463,2344.9206 854.4499,2339.3413 851.3656,2333.444C836.4088,2304.8449 819.2944,2277.4235 805.0822,2248.4164C800.2555,2238.5656 793.3944,2230.0089 786.8523,2221.2836C784.0132,2217.4975 781.7918,2213.6137 780.7372,2208.8957C778.3922,2198.4042 773.3352,2189.0095 768.5116,2179.4807C763.2669,2169.1203 757.734,2158.894 754.1864,2147.6819C751.8971,2140.4463 748.3668,2133.5413 744.8502,2126.7698C738.743,2115.01 732.7059,2103.2097 726.4846,2091.5066C719.1579,2077.7239 713.2654,2063.1777 706.7727,2048.9529C699.5911,2033.2183 693.0909,2017.2387 687.3426,2000.8926C682.2103,1986.2984 673.1206,1975.3649 656.7858,1971.1618C638.8814,1966.5547 621.2931,1960.7711 603.1857,1956.7754C592.2184,1954.3554 581.605,1950.3654 570.7718,1947.2959C558.4022,1943.7913 545.9512,1940.5747 533.5598,1937.1453C513.1667,1931.5014 493.6401,1923.4676 474.2455,1915.1529C453.8684,1906.4168 433.4589,1897.9007 412.3443,1890.9663C389.7548,1883.5475 369.925,1870.8971 353.203,1854.0157C347.2082,1847.9636 343.0184,1840.0905 339.4674,1832.1406C332.4162,1816.3541 326.0872,1800.3973 327.3803,1782.5791C329.618,1751.7446 336.3788,1722.2683 351.9067,1695.059C357.4955,1685.2657 363.0176,1675.4696 369.2143,1666.0503C372.1269,1661.6231 374.1165,1657.0421 374.5784,1651.4472C375.8591,1635.9338 376.693,1620.462 374.8495,1604.9643C374.1821,1599.3526 373.0339,1593.8105 370.2104,1588.7807C359.7843,1570.2077 361.3481,1551.9376 371.6391,1533.9085C375.8149,1526.5926 376.119,1526.3113 370.0961,1520.5761C357.0653,1508.168 351.1005,1491.9522 345.1806,1475.6943C341.3465,1465.1645 344.2621,1454.6046 345.8016,1444.1362C348.6051,1425.0731 351.8453,1406.0731 354.5361,1386.995C355.3665,1381.1075 355.2442,1375.0468 355.1183,1369.0746C354.9997,1363.4452 353.5358,1361.8698 348.3186,1361.0005C328.0781,1357.6288 310.0995,1349.0139 292.6537,1338.488C277.9147,1329.5951 265.6332,1318.5267 255.6426,1304.617C239.7348,1282.4689 241.9659,1255.4258 254.8361,1237.342C260.727,1229.0647 267.083,1221.0974 275.456,1214.9959C290.9293,1203.7208 307.0767,1193.1969 321.4793,1180.676C335.0826,1168.8498 348.7579,1157.0114 360.4962,1142.921C373.448,1127.3738 385.1865,1110.9127 398.2081,1095.4402C407.8963,1083.9285 414.6352,1070.5111 419.9455,1056.4433C422.5089,1049.6525 421.1039,1048.3929 414.4932,1043.1633C409.3178,1039.0693 403.7201,1036.8134 397.6585,1035.3977C391.3039,1033.9136 385.9657,1030.6473 381.547,1026.2856C379.0443,1023.8154 373.3843,1021.7142 374.6213,1018.6821C376.217,1014.771 380.7738,1018.9602 384.0984,1018.8706C389.4183,1018.7274 394.746,1018.8831 400.0669,1018.7609C403.2245,1018.6884 404.9793,1016.7167 405.2394,1013.7187C406.2164,1002.4583 408.2114,991.3703 410.3689,980.2892C411.3973,975.0073 410.1951,969.7759 408.8657,964.586C405.2856,950.6095 400.1477,937.4767 390.5623,926.3227C387.5761,922.848 385.5766,918.5192 383.1689,914.5549C379.7642,908.9489 376.8846,903.3565 370.9816,899.2533C365.317,895.3159 363.6727,887.6539 361.1766,881.2341C360.0062,878.2241 362.2248,875.1956 364.7213,873.5224C371.3277,869.0945 372.9418,862.7152 372.9808,855.3716C373.0251,847.0531 373.3822,838.7366 373.4842,830.4177C373.5085,828.4366 373.4105,826.3266 372.7668,824.4865C369.9406,816.4073 371.7641,815.4228 361.095,814.0646C354.6416,813.2431 348.0153,811.8703 342.6252,807.3408C337.2862,802.8544 330.2248,802.6662 323.8929,801.1481C313.8634,798.7435 305.4659,793.9618 297.6716,787.5117C280.6398,773.4174 265.8449,757.3495 253.9887,738.6575C252.3045,736.0022 250.3742,733.8578 247.2754,733.0905C240.1672,731.3305 235.3434,726.1535 229.8332,721.8794C221.0923,715.0992 213.8348,707.0078 207.4793,698.079C202.9751,691.7509 201.0016,684.2837 199.4762,676.8192C198.1513,670.3358 197.5417,663.7047 196.6539,657.1338C196.1274,653.2373 194.5504,650.8489 190.3379,649.3821C182.2368,646.5613 177.2435,639.3885 171.7226,633.377C162.948,623.8226 155.255,613.3353 149.4502,601.613C148.1338,598.9545 146.8191,596.533 144.1996,594.5912C140.1201,591.5669 138.332,586.6608 136.1826,582.1464C130.8893,571.029 125.8818,559.8702 124.7206,547.3512C123.7077,536.4311 120.5633,525.8946 118.088,515.2553C116.5704,508.7326 116.5644,502.7537 121.0947,497.3858C122.4257,495.8087 123.3178,494.0983 122.7572,491.9382C119.5694,479.6568 124.713,468.9717 130.4573,459.0721C134.3966,452.2831 137.3265,444.7252 143.0672,438.8854C144.9647,436.9551 144.9015,433.2391 146.3708,430.7089C148.0357,427.842 146.4538,425.1065 145.6679,423.1545C144.251,419.6351 141.4982,424.9749 139.1624,423.3342L138.9205,423.0491C136.9737,421.4389 135.5135,419.0699 132.587,418.9876L132.3265,419.2499C143.0486,409.4079 155.8047,403.3201 169.5711,399.1176C174.9551,397.474 180.2971,395.5957 185.7863,394.4242C190.2172,393.4786 191.9221,389.6521 194.9024,387.1954C195.2189,386.9345 195.3068,385.7934 195.034,385.5106C190.4167,380.7218 194.9819,381.3503 197.6661,381.114C209.467,380.0753 221.2645,378.9323 233.0879,378.2578C236.2709,378.0762 239.7928,378.6168 242.7893,379.2377C247.4574,380.2049 250.3767,377.9247 253.8096,376.2525C257.419,374.4942 259.0168,371.3749 259.3378,367.4435C259.5708,364.5898 261.3671,362.813 263.5498,361.0451C268.0469,357.4027 273.1053,354.9777 278.6088,353.5962C281.6089,352.8431 284.3417,351.9435 286.4621,349.6472C286.8435,349.2341 287.0635,348.6719 287.358,348.1785C286.7334,348.0092 286.05,347.5847 285.4939,347.7127C282.2877,348.4513 279.1177,349.3463 275.9196,350.1228C275.3196,350.2685 274.6476,350.1179 274.0089,350.1041C274.4425,349.6243 274.8108,349.0555 275.3217,348.6813C276.9227,347.5088 278.4771,346.2126 280.231,345.3212C284.4565,343.1734 288.785,341.2285 293.0719,339.2017L292.9222,338.9256C297.4389,341.8492 301.6748,340.0795 304.3046,336.6744C306.7177,333.5499 308.8879,332.1934 312.5618,333.1296C317.2654,334.3282 320.0479,331.9682 322.0734,328.089C322.6798,326.9277 323.3191,325.7301 324.1888,324.772C325.5755,323.2444 326.8206,323.4709 328.1449,325.1872C331.9437,330.1104 332.019,330.0929 337.223,327.7687C338.711,327.1041 340.2471,326.3949 341.496,325.3799C343.8637,323.4556 343.4966,321.5268 340.504,319.5231C339.7404,319.0119 338.3151,319.0797 338.4088,317.868C338.4985,316.708 339.7992,316.7998 340.6892,316.6385C343.6254,316.1064 345.5582,313.3496 348.93,313.4413C352.6,313.5412 350.9002,308.9377 353.2025,307.549C354.2366,306.9252 354.736,305.03 356.2979,305.8335C356.9816,306.1852 357.4265,307.4286 357.5701,308.3322C358.4069,313.5956 358.8147,314.3879 362.7043,313.5959C372.7103,311.5585 383.1038,312.3945 392.949,308.6155C397.5606,306.8454 402.6117,305.4181 406.099,302.3626C414.9744,294.5864 425.5568,294.5849 436.0573,294.4347C451.5657,294.2129 467.0842,294.7348 482.599,294.8689C485.2507,294.8918 487.997,294.9217 490.5305,294.2801C492.6518,293.7429 496.2151,293.9241 496.4748,291.5417C496.854,288.0637 493.035,289.8305 491.2152,288.9328C483.8129,285.2811 475.7145,286.0928 467.8276,285.5432C466.8823,285.4773 465.1578,284.9819 465.164,284.7173C465.212,282.6407 467.0272,283.8934 468.0134,283.4571C469.2039,282.9304 470.5304,282.6924 471.678,282.0978C472.0996,281.8794 472.4213,280.9618 472.3387,280.4333C472.2701,279.9942 471.5566,279.3443 471.1045,279.3238C465.5009,279.0701 459.9134,278.8487 455.6389,274.4221L455.4271,274.7206C466.0025,274.403 476.5352,276.301 487.1593,275.0933C490.2728,274.7394 492.9904,274.2486 495.3327,272.1984C496.3742,271.2867 496.9647,270.3006 496.3751,268.7728C495.0825,265.4236 495.1469,265.4018 497.2529,264.8799C506.8695,262.4967 516.62,260.6941 526.261,258.3995C533.7819,256.6096 542.0177,257.9931 549.914,257.5657C558.4955,257.1012 567.1697,258.3267 575.6627,256.1729C579.4981,255.2003 583.33,254.1493 587.224,253.4932C590.4637,252.9474 589.1697,250.8764 589.2413,249.0762C589.343,246.5173 588.0193,246.5776 586.1158,246.9201C583.499,247.3909 580.8347,247.7009 578.2584,246.5964L578.0675,246.9322C580.4961,245.8632 582.9421,244.8315 585.3471,243.7116C586.8556,243.0092 588.9359,242.2377 589.0269,240.6112C589.3874,234.1677 594.3663,234.2235 598.6753,233.3424C604.871,232.0755 611.1729,231.2076 616.9592,228.4611C618.6888,227.6402 620.9828,227.3767 621.5207,225.0204C622.1495,222.2658 620.5155,222.2207 618.3182,221.6015C616.8759,221.195 618.5501,219.808 619.7753,219.6021C628.6032,218.1183 637.4295,216.6233 646.2688,215.2098C669.9791,211.4182 693.866,210.4652 717.8345,210.7853C724.1706,210.8699 730.4343,210.0526 736.4872,208.1787C746.2933,205.1429 756.0377,201.9078 765.8154,198.7799C766.7575,198.4785 767.9229,198.5877 768.6798,198.065C769.7191,197.3473 770.7438,196.3674 770.4272,194.7798C770.1695,193.4877 769.0893,193.4796 768.1884,193.3924C766.2059,193.2004 764.1916,193.2835 762.2234,193.0136C760.5202,192.78 758.5021,194.4851 757.1141,192.2417C758.8639,191.4402 760.5434,190.2108 762.3753,189.9103C770.8694,188.517 779.3928,187.276 787.9365,186.2313C789.9483,185.9853 792.6625,186.3199 793.1543,184.3524C794.5996,178.57 799.5436,179.3744 803.3071,178.731C811.2884,177.3666 819.377,176.2296 827.4531,175.9666C832.5703,175.7999 837.21,174.2932 841.9292,173.0139C855.0164,169.466 868.2136,166.7278 881.7713,165.9039C882.1025,165.8838 882.4399,165.8412 882.7584,165.7522C897.1155,161.7397 911.8116,158.5183 925.0694,151.5226C931.3002,148.2348 938.0244,146.4746 944.2712,143.4276C945.1173,143.0149 946.2832,142.8671 947.2045,143.0591C957.9251,145.294 967.2188,140.2837 976.8058,137.1118C983.7278,134.8217 990.4806,132.1317 997.8124,131.2963C1000.0744,131.0385 1002.3192,130.1997 1004.4557,129.3387C1021.8416,122.3319 1040.8133,122.7954 1058.6177,117.7798C1062.7714,116.6097 1066.9164,115.3648 1071.1319,114.4666C1078.1979,112.9611 1085.0884,111.5062 1092.6323,112.1021C1102.0556,112.8466 1111.7099,111.7877 1121.1666,110.6754C1130.6423,109.5609 1140.2538,109.0548 1149.3694,105.4248C1154.58,103.3499 1160.3084,102.7904 1165.9672,102.3246C1179.0699,101.246 1192.0274,99.1529 1204.979,96.8918C1209.0311,96.1844 1213.9645,95.1953 1217.5939,97.6667C1221.1964,100.1199 1223.1363,99.6689 1225.4109,96.4427C1226.7893,94.4876 1229.0421,95.2704 1230.9735,95.3167C1253.4921,95.8566 1276.0516,95.766 1298.514,97.1982C1314.3253,98.2063 1330.1268,100.4247 1345.0833,106.6901C1352.0645,109.6145 1359.612,111.2058 1366.9329,113.2961C1379.7256,116.9487 1393.006,117.6207 1406.0843,119.5077C1411.3524,120.2678 1416.4841,121.3543 1421.6264,122.7681C1430.5796,125.2297 1439.6811,127.1784 1448.767,129.1252C1465.3418,132.6766 1481.6895,136.8703 1496.9093,144.6222C1500.2026,146.2995 1503.7478,147.4457 1507.447,147.3809C1512.9282,147.2848 1517.7439,149.5582 1522.8603,150.8945C1537.2163,154.6439 1549.8957,161.7731 1562.4406,169.2738C1575.819,177.2731 1590.7737,182.3326 1603.6807,191.1468C1614.1941,198.3265 1626.0129,202.7843 1637.3503,208.2535C1654.7992,216.6708 1670.2209,228.3922 1686.7122,238.3664C1708.0903,251.2962 1727.1596,267.148 1745.4601,284.0129C1746.6776,285.1349 1748.4519,286.044 1749.0033,287.4343C1752.7312,296.8348 1760.8706,302.4155 1767.5592,309.221C1772.6426,314.3933 1775.9839,321.0148 1781.62,325.7058C1782.6433,326.5575 1783.5789,328.3935 1782.196,329.0425C1777.5736,331.2119 1780.2691,333.7849 1781.458,336.2853C1784.3392,342.3459 1788.645,347.4789 1792.625,352.7838C1802.7931,366.3368 1810.4866,381.4193 1819.6448,395.5761C1823.7097,401.8598 1827.7531,407.9794 1830.1146,415.0811C1831.8365,420.2601 1833.1582,425.5816 1835.0686,430.6859C1837.0375,435.9458 1838.9194,441.3826 1841.8569,446.1097C1852.2968,462.9107 1858.6683,481.3384 1864.4674,500.0441C1866.9125,507.9309 1869.7605,515.6092 1870.0244,524.1343C1870.1571,528.4209 1867.4823,531.6842 1868.3038,536.3443C1870.6616,549.7161 1871.5277,563.3297 1875.3025,576.4961C1877.7815,585.1437 1876.5205,594.2138 1877.4467,603.0574C1877.5607,604.1468 1876.4285,605.3667 1875.8737,606.5261C1875.7033,605.5608 1875.4335,604.6011 1875.3796,603.6293C1875.1414,599.3435 1871.2644,596.3485 1871.2863,591.9242C1871.2903,591.1157 1870.1235,590.3018 1869.0016,590.7938C1868.033,591.2186 1867.1788,592.3233 1867.7256,593.1397C1871.0028,598.0335 1865.6541,603.227 1868.7014,608.4231C1871.3495,612.938 1872.8987,618.1879 1874.3939,623.2716C1878.8657,638.4765 1883.0426,653.7678 1887.4011,669.0064C1888.7608,673.761 1890.0211,678.5807 1891.8674,683.1522C1896.5132,694.6549 1897.9438,707.1119 1902.6335,718.5853C1902.8739,719.1734 1903.2111,720.1303 1902.9438,720.4559C1898.7862,725.5163 1902.2803,730.6732 1902.7631,735.7265C1904.0868,749.5832 1906.0547,763.3189 1904.98,777.3978C1904.5152,783.4884 1905.1696,789.9633 1905.7666,796.1768C1906.4153,802.9256 1905.5697,809.4637 1904.3973,815.8779C1903.1513,822.6946 1903.7697,829.1267 1905.6062,835.5353C1909.3645,848.6499 1912.4174,861.8949 1914.2999,875.4177C1915.3882,883.2359 1918.072,890.6159 1920.4916,898.1181C1923.176,906.4413 1927.231,915.0168 1923.0142,924.1632C1926.6847,930.2554 1921.3138,933.7172 1918.8603,937.9305C1917.5639,940.1565 1915.9562,940.3991 1915.1018,937.2878C1914.7307,935.9364 1913.7012,936.3451 1913.1011,937.1647C1912.7472,937.648 1912.6793,938.4204 1912.6708,939.0652C1912.5239,950.1403 1914.2385,960.7763 1918.3996,971.1989C1926.1286,990.5584 1933.215,1010.19 1937.696,1030.6035C1938.8087,1035.6723 1938.7243,1041.0398 1938.8601,1046.2787C1939.0751,1054.5756 1940.6488,1062.6351 1942.5361,1070.6633C1942.7617,1071.6225 1942.9293,1072.5957 1943.117,1073.5636C1943.9042,1077.6217 1943.5962,1082.1091 1941.6625,1085.224C1938.2335,1090.7473 1939.5231,1098.2306 1933.8911,1102.6541C1933.2432,1103.163 1933.2867,1104.8331 1932.1208,1104.506C1931.6137,1104.3638 1931.2927,1102.8402 1931.2419,1101.9243C1931.0974,1099.3078 1930.5892,1096.7351 1931.8267,1094.1012C1934.487,1088.4399 1932.1142,1083.0325 1930.4451,1077.6567C1930.1673,1076.7616 1929.5452,1075.8213 1928.2875,1076.0682C1927.1354,1076.2944 1926.8812,1077.2784 1926.7376,1078.2166C1925.3187,1087.4784 1926.0242,1096.7457 1927.9063,1105.7847C1928.4382,1108.3384 1928.4593,1110.8622 1928.8874,1113.3701C1929.5224,1117.0907 1927.2258,1121.7252 1933.0018,1123.6999C1934.1073,1124.0778 1934.4279,1127.2343 1934.8072,1129.1685C1936.3964,1137.2751 1938.0438,1145.3768 1939.3457,1153.5319C1941.2805,1165.652 1944.6704,1177.4692 1946.8462,1189.4969C1948.3905,1198.0338 1951.1602,1206.8444 1948.0751,1215.7573C1947.7715,1216.6349 1948.3223,1217.7871 1948.0894,1218.7146C1947.6492,1220.4678 1950.3191,1222.8348 1947.4556,1223.7488C1946.8565,1223.9401 1945.0359,1221.0314 1944.1304,1219.3604C1942.8759,1217.0456 1941.971,1214.5429 1940.8874,1212.1337C1938.9433,1207.8107 1938.6822,1202.7528 1933.0893,1200.323C1930.324,1199.1218 1929.9414,1194.7123 1929.1551,1191.4808C1928.4505,1188.5847 1927.8159,1185.6712 1927.1717,1182.7608C1926.6302,1180.3132 1925.3707,1178.3256 1922.8819,1177.7365C1921.055,1177.3041 1919.5811,1174.6076 1917.6605,1176.1546C1915.8678,1177.5983 1916.9687,1179.9456 1917.6063,1181.7648C1923.076,1197.3698 1928.23,1213.0653 1935.7412,1227.9163C1939.9131,1236.1646 1942.6221,1245.1506 1946.0345,1253.7865C1947.0388,1256.328 1947.2,1258.9646 1947.2469,1261.6364C1947.3341,1266.6099 1947.4237,1271.5834 1947.5122,1276.5569L1947.3511,1276.3277C1943.4385,1275.449 1941.1662,1272.6761 1939.3209,1269.3973C1938.8006,1268.473 1937.9905,1267.8765 1936.9114,1268.0933C1935.0305,1268.4712 1935.3323,1270.2276 1935.5545,1271.2698C1936.5296,1275.8449 1936.1976,1280.5958 1937.074,1285.0814C1939.7587,1298.8226 1937.3137,1311.9106 1933.6225,1325.0558C1931.9448,1331.0302 1931.9969,1337.4601 1927.944,1342.7577C1927.0736,1343.8955 1926.6304,1345.0443 1925.2193,1344.4699C1921.1716,1342.8221 1920.1755,1344.9035 1919.1603,1348.3896C1916.3898,1357.9051 1913.4291,1367.3862 1909.9748,1376.6691C1908.9459,1379.4342 1908.9041,1384.5103 1903.3365,1383.2019C1900.7048,1387.8341 1898.629,1392.7323 1897.573,1397.9292C1896.9612,1400.9399 1896.0466,1403.7114 1894.3424,1406.1958C1893.8746,1406.8777 1892.8286,1407.163 1892.048,1407.6301C1891.8721,1406.6655 1891.3544,1405.613 1891.5764,1404.7508C1892.8935,1399.6337 1895.0014,1394.7183 1895.1721,1389.3145C1895.2204,1387.7883 1896.4997,1385.9964 1893.9486,1385.409C1891.3392,1384.8083 1890.3755,1386.5626 1889.8559,1388.6218C1889.0456,1391.8352 1888.2574,1395.0605 1887.6485,1398.3161C1886.9924,1401.8245 1885.7523,1401.8854 1883.0671,1399.8017C1879.4011,1396.9565 1879.2453,1397.1597 1877.3287,1401.0009C1876.4465,1402.7687 1874.9543,1404.4712 1874.7672,1406.3082C1873.4286,1419.4564 1863.9398,1428.7149 1859.1083,1440.1037C1855.3839,1448.8829 1846.9396,1454.0656 1843.9633,1463.0932C1842.7542,1466.761 1837.0018,1463.748 1835.9107,1467.655C1834.9946,1470.9356 1834.2618,1474.0805 1830.9328,1475.758C1830.0428,1476.2065 1829.0742,1476.5023 1828.1954,1476.9693C1825.8341,1478.2242 1825.1131,1479.9693 1825.8042,1482.7337C1826.5186,1485.5916 1826.7397,1488.623 1826.7889,1491.5848C1826.8531,1495.4499 1825.5109,1494.1501 1823.8807,1492.2808C1823.2397,1491.5461 1821.8906,1491.7986 1821.4676,1492.7939C1820.6951,1494.6121 1819.7249,1496.5394 1819.678,1498.442C1819.3411,1512.1208 1810.5709,1523.2272 1808.3123,1536.2936C1803.4687,1540.9325 1804.5863,1550.0872 1796.2685,1552.1809C1795.6112,1552.3463 1794.8659,1553.7456 1794.841,1554.5915C1794.6193,1562.0865 1787.6216,1566.6348 1786.6905,1574.0447C1786.236,1577.6615 1784.8505,1582.2263 1778.906,1582.4787C1776.5436,1582.5789 1775.9412,1586.5618 1775.1366,1589.0734C1773.5194,1594.1227 1772.0404,1599.2163 1770.4227,1604.2654C1769.915,1605.85 1769.1605,1607.3675 1767.0442,1607.2061L1767.0676,1607.2255z"/>
    <path id="imagebot_18" d="M578.2585,246.5961C578.3148,246.8528 578.371,247.1095 578.4273,247.3661C579.0231,246.8302 578.9032,246.6855 578.0676,246.9319L578.2585,246.5961z"/>
    <polygon id="imagebot_19" points="293.0721,339.2013 293.4047,339.151 292.9224,338.9252  "/>
   </g>
  </g>
  <g id="imagebot_23">
   <path transform="translate(0 0.218812) matrix(0.711111 0 0 0.711111 246.25 186.25)" d="M 0.744058961853929 84.91583102882713 L 0.744058961853929 72.48406639499298 L 210.54276382175328 72.48406639499298 L 210.54276382175328 84.91583102882713 L 0.744058961853929 84.91583102882713 z" id="imagebot_20" stroke-opacity="null" stroke-linecap="null" stroke-linejoin="null" stroke-dasharray="null" stroke-width="3" stroke="#000000" fill="#000000"/>
   <path transform="rotate(270 239.708 242.433) matrix(0.613615 0 0 0.613615 62.4322 221.475)" d="M 269.3976677675256 51.224024170220005 L 288.90447166176284 17.087117355304898 L 308.411275556 51.224024170220005 L 269.3976677675256 51.224024170220005 z" id="imagebot_21" stroke-opacity="null" stroke-linecap="null" stroke-linejoin="null" stroke-dasharray="null" stroke-width="3" stroke="#000000" fill="#000000"/>
   <path id="imagebot_22" transform="rotate(90 399.708 242.433) matrix(0.613615 0 0 0.613615 222.432 221.475)" d="M269.39767,51.22402L288.90447,17.08712L308.41128,51.22402L269.39767,51.22402z" stroke-opacity="null" stroke-linecap="null" stroke-linejoin="null" stroke-dasharray="null" stroke-width="3" stroke="#000000" fill="#000000"/>
  </g>
 </g>
 <metadata>image/svg+xmlOpenclipartMale Profile Silhouette2011-08-24T09:57:36This profile was loosely inspired by Dr. Who's  Auton mannekins, or at least thats what i thought when i finished it. It has an 80's glam rock vibe to it that i cant expain as well.https://openclipart.org/detail/157891/male-profile-silhouette-by-studio_hadesstudio_hadesFaceGuyHeadMaleManProfileSilhouette</metadata>
</svg>