<?xml version="1.0"?>
<svg xmlns:rdf="http://www.w3.org/1999/02/22-rdf-syntax-ns#" xmlns="http://www.w3.org/2000/svg" xmlns:cc="http://creativecommons.org/ns#" xmlns:xlink="http://www.w3.org/1999/xlink" xmlns:dc="http://purl.org/dc/elements/1.1/" xmlns:svg="http://www.w3.org/2000/svg" id="svg2" viewBox="0 0 768 768" version="1.1">
  <defs id="defs4">
    <clipPath id="clipPathFlag" clipPathUnits="userSpaceOnUse">
      <rect id="rect3918" fill-opacity=".67" ry="57" height="511" width="511" y=".5" x=".5"/>
    </clipPath>
    <linearGradient id="linearGradient3852-0">
      <stop id="stop3854-6" stop-color="#dbe3db" offset="0"/>
      <stop id="stop3856-1" stop-color="#dbe3db" stop-opacity="0" offset="1"/>
    </linearGradient>
    <linearGradient id="linearGradient5122" x1="342.19" xlink:href="#linearGradient3852-0" gradientUnits="userSpaceOnUse" y1="705.76" gradientTransform="matrix(1.1571 0 0 1.3167 -91.204 -253.99)" x2="358.08" y2="523.41"/>
    <linearGradient id="linearGradient5125" x1="405.26" xlink:href="#linearGradient3852-0" gradientUnits="userSpaceOnUse" y1="118.06" gradientTransform="matrix(.95303 0 0 .86647 11.575 -4.5016)" x2="405.75" y2="360.92"/>
    <filter id="filter5740">
      <feGaussianBlur id="feGaussianBlur5742" stdDeviation="5.12"/>
    </filter>
    <clipPath id="clipPath5796" clipPathUnits="userSpaceOnUse">
      <rect id="rect5798" ry="57" height="512" width="512" stroke="#00fa00" y="0" x="0" stroke-width="20" fill="none"/>
    </clipPath>
    <filter id="filter5912">
      <feGaussianBlur id="feGaussianBlur5914" stdDeviation="17.92"/>
    </filter>
  </defs>
  <g id="template-button">&gt;
  <g id="00" transform="translate(90,90)"><rect id="shadow" ry="57" height="512" filter="url(#filter5912)" width="512" stroke="#a8a8a8" y="56" x="38" stroke-width="5"/></g>
  <g id="01" transform="translate(128,128)" clip-path="url(#clipPathFlag)"><rect id="mask" ry="57" height="512" width="512" y="0" x="0" fill="#00f"/><g id="flag" transform="matrix(1.0321 0 0 1.0321 -128 .000056731)" clip-path="url(#clipPath5515)"><g id="g973"><rect id="rect1801" fill-rule="evenodd" height="166.54" width="744.09" y="162.99" x="0" stroke-width="1pt" fill="#fff"/><rect id="rect1800" fill-rule="evenodd" height="166.54" width="744.09" y="329.53" x="0" stroke-width="1pt"/><rect id="rect1802" fill-rule="evenodd" height="162.99" width="744.09" y="-.000057" x="0" stroke-width="1pt" fill="#f00"/><g id="g827" transform="translate(23.212 409.22)"><path id="path725" d="m322.44-322.44h7.087l3.75 60.236-7.294 7.087-7.086-7.087 3.543-60.236z" fill-rule="evenodd" transform="matrix(.60585 -.032038 .057196 .75873 164.05 95.207)" stroke="#fff" stroke-width="1pt" fill="#d7b900"/><path id="path726" d="m322.44-322.44h7.087l3.75 60.236-7.294 7.087-7.086-7.087 3.543-60.236z" fill-rule="evenodd" transform="matrix(.60642 .023124 -.041283 .75945 123.88 77.449)" stroke="#fff" stroke-width="1pt" fill="#d7b900"/><g id="g720" transform="matrix(1.2667 0 0 1.0307 -115.19 8.206)"><path id="path1700" d="m177.16 255.12-17.716 442.91 35.433-35.434 17.716-407.48h-35.433z" fill-rule="evenodd" transform="matrix(-.21053 0 0 .18418 442.73 -252.58)" stroke="#fff" stroke-width="4.8244" fill="#d7b900"/><path id="path1701" d="m177.16 290.55-17.717 407.48 35.433-35.434 17.717-372.05h-35.433z" fill-rule="evenodd" transform="matrix(-.21053 0 0 .18418 435.27 -259.11)" stroke="#fff" stroke-width="4.8244" fill="#d7b900"/><path id="path1702" d="m177.17 325.98-17.718 372.05 35.433-35.434 17.718-336.61h-35.433z" fill-rule="evenodd" transform="matrix(-.21053 0 0 .18418 427.81 -265.63)" stroke="#fff" stroke-width="4.8244" fill="#d7b900"/><path id="path1703" d="m177.16 361.42-17.717 336.62 35.433-35.434 17.717-301.18h-35.433z" fill-rule="evenodd" transform="matrix(-.21053 0 0 .18418 420.35 -272.16)" stroke="#fff" stroke-width="4.8244" fill="#d7b900"/></g><g id="g715" transform="matrix(1.1273 0 0 1.0307 -62.209 8.1481)"><path id="path1696" d="m177.16 255.12-17.716 442.91 35.433-35.434 17.716-407.48h-35.433z" fill-rule="evenodd" transform="matrix(.21053 0 0 .18418 269.17 -252.58)" stroke="#fff" stroke-width="4.8244" fill="#d7b900"/><path id="path1697" d="m177.16 290.55-17.717 407.48 35.433-35.434 17.717-372.05h-35.433z" fill-rule="evenodd" transform="matrix(.21053 0 0 .18418 276.63 -259.11)" stroke="#fff" stroke-width="4.8244" fill="#d7b900"/><path id="path1698" d="m177.17 325.98-17.717 372.05 35.433-35.434 17.717-336.61h-35.433z" fill-rule="evenodd" transform="matrix(.21053 0 0 .18418 284.08 -265.63)" stroke="#fff" stroke-width="4.8244" fill="#d7b900"/><path id="path1699" d="m177.16 361.42-17.716 336.62 35.433-35.434 17.716-301.18h-35.433z" fill-rule="evenodd" transform="matrix(.21053 0 0 .18418 291.86 -271.3)" stroke="#fff" stroke-width="4.8244" fill="#d7b900"/></g><path id="path1704" d="m181.73 256.05c-1.004-1.312 19.847-18.646 55.28-18.646 53.15 0 61.307 18.646 96.741 18.646h152.02c35.433 0 45.723-18.646 98.872-18.646 35.433 0 52.168 18.293 53.149 18.646 0 0-17.716-0.93-53.149-0.93s-49.3 39.04-85.052 38.222c-26.788 0.818-144.23 0-179.66 0-35.433 0-47.486-37.292-82.92-37.292-35.433 0-56.284-1.312-55.28 0z" fill-rule="evenodd" transform="matrix(.25639 0 0 .19003 236.01 -252.36)" stroke="#d7b900" stroke-width="4.8244" fill="#fff"/><path id="path709" d="m400.39-109.84v3.543l3.543 3.543-3.543 3.5434v3.5433c-14.174 7.0867-28.849 7.0867-42.52 7.0867-13.67 0-28.346 0-46.063-7.0867v-3.5433l-3.543-3.5434 3.543-3.543v-3.543c14.173 3.543 28.347 7.086 46.063 7.086 17.717 0 28.347-3.543 42.52-7.086z" fill-rule="evenodd" transform="matrix(1.3231 0 0 1.2037 -129.91 19.854)" stroke="#d7b900" stroke-width="1pt" fill="#fff"/><g id="g695" transform="matrix(-1.0627 .28456 .30493 .99174 760.82 -100.29)"><rect id="rect696" transform="matrix(-.56396 -.82580 -.88840 .45907 0 0)" fill-rule="evenodd" rx="2.3947" ry="4.5048" height="40.13" width="4.7893" stroke="#d7b900" y="-406.53" x="-73.159" stroke-width=".62344" fill="#fff"/><g id="g697" transform="matrix(-.10045 .037692 .094135 .22662 362.02 -256.85)"><path id="path698" d="m318.9 574.02 17.716 17.716 17.717-17.716 17.716 17.716 17.717-17.716 17.716 17.716c5.257-9.426 7.092-22.888-0.112-36.519-36.185-13.818-68.824-12.643-107.18 1.188-3.087 11.031-2.975 23.928 0 35.433l18.709-17.818z" fill-rule="evenodd" transform="matrix(1.3763 .17548 -.14151 1.7066 -97.886 -514.14)" stroke="#d7b900" stroke-width="4.7128" fill="#fff"/><path id="path699" d="m318.9 574.02 17.716 17.716 17.717-17.716 17.716 17.716 17.717-17.716 17.716 17.716c5.257-9.426 7.092-22.888-0.112-36.519-36.185-13.818-68.824-12.643-107.18 1.188-3.087 11.031-2.975 23.928 0 35.433l18.709-17.818z" fill-rule="evenodd" transform="matrix(1.3763 .17548 -.14151 1.7066 -95.127 -545.97)" stroke="#d7b900" stroke-width="4.7128" fill="#fff"/><path id="path700" d="m318.9 574.02 17.716 17.716 17.717-17.716 17.716 17.716 17.717-17.716 17.716 17.716c5.257-9.426 7.092-22.888-0.112-36.519-36.185-13.818-68.824-12.643-107.18 1.188-3.087 11.031-2.975 23.928 0 35.433l18.709-17.818z" fill-rule="evenodd" transform="matrix(1.3763 .17548 -.14151 1.7066 -92.368 -577.8)" stroke="#d7b900" stroke-width="4.7128" fill="#fff"/><path id="path701" d="m318.9 574.02 17.716 17.716 17.717-17.716 17.716 17.716 17.717-17.716 17.716 17.716c5.257-9.426 7.092-22.888-0.112-36.519-36.185-13.818-68.824-12.643-107.18 1.188-3.087 11.031-2.975 23.928 0 35.433l18.709-17.818z" fill-rule="evenodd" transform="matrix(1.3763 .17548 -.14151 1.7066 -88.229 -617.12)" stroke="#d7b900" stroke-width="4.7128" fill="#fff"/><path id="path702" d="m318.9 574.02 17.716 17.716 17.717-17.716 17.716 17.716 17.717-17.716 17.716 17.716c5.257-9.426 7.092-22.888-0.112-36.519-36.185-13.818-68.824-12.643-107.18 1.188-3.087 11.031-2.975 23.928 0 35.433l18.709-17.818z" fill-rule="evenodd" transform="matrix(1.3763 .17548 -.14151 1.7066 -85.47 -648.94)" stroke="#d7b900" stroke-width="4.7128" fill="#fff"/><path id="path703" d="m318.9 574.02 17.716 17.716 17.717-17.716 17.716 17.716 17.717-17.716 17.716 17.716c5.257-9.426 7.092-22.888-0.112-36.519-36.185-13.818-68.824-12.643-107.18 1.188-3.087 11.031-2.975 23.928 0 35.433l18.709-17.818z" fill-rule="evenodd" transform="matrix(1.3763 .17548 -.14151 1.7066 -82.711 -680.77)" stroke="#d7b900" stroke-width="4.7128" fill="#fff"/></g><path id="path704" d="m345.63-96.125c0 3.2792-1.1193 5.9375-2.5 5.9375s-2.5-2.6583-2.5-5.9375 1.1193-5.9375 2.5-5.9375 2.5 2.6583 2.5 5.9375z" fill-rule="evenodd" transform="matrix(.498 -.38506 .29096 .65904 228.03 87.159)" stroke="#d7b900" stroke-width="1pt" fill="#fff"/><path id="path705" d="m345.63-96.125c0 3.2792-1.1193 5.9375-2.5 5.9375s-2.5-2.6583-2.5-5.9375 1.1193-5.9375 2.5-5.9375 2.5 2.6583 2.5 5.9375z" fill-rule="evenodd" transform="matrix(.498 -.42984 .29096 .73568 242.09 102.86)" stroke="#d7b900" stroke-width="1pt" fill="#fff"/><path id="path706" d="m345.63-96.125c0 3.2792-1.1193 5.9375-2.5 5.9375s-2.5-2.6583-2.5-5.9375 1.1193-5.9375 2.5-5.9375 2.5 2.6583 2.5 5.9375z" fill-rule="evenodd" transform="matrix(.53454 -.41491 .31232 .71013 245.2 88.253)" stroke="#d7b900" stroke-width="1pt" fill="#fff"/></g><path id="path1751" d="m268.29 261.84s32.89-42.159 32.89-95.309c0 0.001 70.866 0.001 70.866 0 0 53.15 34.308 95.309 35.434 88.584-17.717 0-53.15-17.717-70.866-53.15-17.716 35.434-50.608 59.875-68.324 59.875z" fill-rule="evenodd" transform="matrix(.30797 0 0 .19003 235.41 -246.38)" stroke="#d7b900" stroke-width="4.8244" fill="#fff"/><path id="path1750" d="m253.46 240.41s47.939-58.726 47.939-111.88v-74.584c0-17.717 23.97-18.646 35.955-18.646 17.717 0 35.954 0.929 35.954 18.646v74.584c0 53.149 47.94 111.88 47.94 111.88-35.433 0-54.193-39.151-71.909-74.584 0 17.717 4.993 53.862-12.724 71.579-17.716-17.717-11.246-53.862-11.246-71.579-17.717 35.433-36.475 74.584-71.909 74.584z" fill-rule="evenodd" transform="matrix(.29565 0 0 .19003 239.56 -245.85)" stroke="#d7b900" stroke-width="4.8244" fill="#fff"/><path id="path1756" d="m283.12 77.953h53.149c0 17.716 0 35.433-17.716 35.433-17.717 0-35.433-17.717-35.433-35.433z" fill-rule="evenodd" transform="matrix(.24229 .077462 -.053943 .11836 258.11 -271.54)" stroke="#d7b900" stroke-width="5.9087" fill="#fff"/><path id="path1754" d="m183.96 42.52c11.811 0 11.811 17.716 11.811 35.433-17.716 0-29.528-17.717-47.244 0 0-19.559 0-35.433 17.716-35.433h17.717z" fill-rule="evenodd" transform="matrix(.36344 .11619 -.053943 .11836 267.48 -266.15)" stroke="#d7b900" stroke-width="4.8244" fill="#fff"/><path id="path1757" d="m336.61 69.094c0 4.8923-3.966 8.8583-8.8583 8.8583s-8.8583-3.966-8.8583-8.8583 3.966-8.8583 8.8583-8.8583 8.8583 3.966 8.8583 8.8583z" fill-rule="evenodd" transform="matrix(.24229 .077462 -.080914 .17754 263.94 -273.76)" stroke="#d7b900" stroke-width="4.8244" fill="#fff"/><path id="path710" d="m322.44-322.44h7.087l3.75 60.236-7.294 7.087-7.086-7.087 3.543-60.236z" fill-rule="evenodd" transform="matrix(.60705 0 0 .76024 141.13 85.239)" stroke="#fff" stroke-width="1pt" fill="#d7b900"/><g id="g683" transform="matrix(1.159 .30317 -.35586 .98736 -126.74 -108.64)"><rect id="rect1764" transform="matrix(-.56396 -.82580 -.88840 .45907 0 0)" fill-rule="evenodd" rx="2.3947" ry="4.5048" height="40.13" width="4.7893" stroke="#d7b900" y="-406.53" x="-73.159" stroke-width=".62344" fill="#fff"/><g id="g673" transform="matrix(-.10045 .037692 .094135 .22662 362.02 -256.85)"><path id="path674" d="m318.9 574.02 17.716 17.716 17.717-17.716 17.716 17.716 17.717-17.716 17.716 17.716c5.257-9.426 7.092-22.888-0.112-36.519-36.185-13.818-68.824-12.643-107.18 1.188-3.087 11.031-2.975 23.928 0 35.433l18.709-17.818z" fill-rule="evenodd" transform="matrix(1.3763 .17548 -.14151 1.7066 -97.886 -514.14)" stroke="#d7b900" stroke-width="4.7128" fill="#fff"/><path id="path675" d="m318.9 574.02 17.716 17.716 17.717-17.716 17.716 17.716 17.717-17.716 17.716 17.716c5.257-9.426 7.092-22.888-0.112-36.519-36.185-13.818-68.824-12.643-107.18 1.188-3.087 11.031-2.975 23.928 0 35.433l18.709-17.818z" fill-rule="evenodd" transform="matrix(1.3763 .17548 -.14151 1.7066 -95.127 -545.97)" stroke="#d7b900" stroke-width="4.7128" fill="#fff"/><path id="path676" d="m318.9 574.02 17.716 17.716 17.717-17.716 17.716 17.716 17.717-17.716 17.716 17.716c5.257-9.426 7.092-22.888-0.112-36.519-36.185-13.818-68.824-12.643-107.18 1.188-3.087 11.031-2.975 23.928 0 35.433l18.709-17.818z" fill-rule="evenodd" transform="matrix(1.3763 .17548 -.14151 1.7066 -92.368 -577.8)" stroke="#d7b900" stroke-width="4.7128" fill="#fff"/><path id="path677" d="m318.9 574.02 17.716 17.716 17.717-17.716 17.716 17.716 17.717-17.716 17.716 17.716c5.257-9.426 7.092-22.888-0.112-36.519-36.185-13.818-68.824-12.643-107.18 1.188-3.087 11.031-2.975 23.928 0 35.433l18.709-17.818z" fill-rule="evenodd" transform="matrix(1.3763 .17548 -.14151 1.7066 -88.229 -617.12)" stroke="#d7b900" stroke-width="4.7128" fill="#fff"/><path id="path678" d="m318.9 574.02 17.716 17.716 17.717-17.716 17.716 17.716 17.717-17.716 17.716 17.716c5.257-9.426 7.092-22.888-0.112-36.519-36.185-13.818-68.824-12.643-107.18 1.188-3.087 11.031-2.975 23.928 0 35.433l18.709-17.818z" fill-rule="evenodd" transform="matrix(1.3763 .17548 -.14151 1.7066 -85.47 -648.94)" stroke="#d7b900" stroke-width="4.7128" fill="#fff"/><path id="path679" d="m318.9 574.02 17.716 17.716 17.717-17.716 17.716 17.716 17.717-17.716 17.716 17.716c5.257-9.426 7.092-22.888-0.112-36.519-36.185-13.818-68.824-12.643-107.18 1.188-3.087 11.031-2.975 23.928 0 35.433l18.709-17.818z" fill-rule="evenodd" transform="matrix(1.3763 .17548 -.14151 1.7066 -82.711 -680.77)" stroke="#d7b900" stroke-width="4.7128" fill="#fff"/></g><path id="path680" d="m345.63-96.125c0 3.2792-1.1193 5.9375-2.5 5.9375s-2.5-2.6583-2.5-5.9375 1.1193-5.9375 2.5-5.9375 2.5 2.6583 2.5 5.9375z" fill-rule="evenodd" transform="matrix(.498 -.38506 .29096 .65904 228.03 87.159)" stroke="#d7b900" stroke-width="1pt" fill="#fff"/><path id="path681" d="m345.63-96.125c0 3.2792-1.1193 5.9375-2.5 5.9375s-2.5-2.6583-2.5-5.9375 1.1193-5.9375 2.5-5.9375 2.5 2.6583 2.5 5.9375z" fill-rule="evenodd" transform="matrix(.498 -.42984 .29096 .73568 242.09 102.86)" stroke="#d7b900" stroke-width="1pt" fill="#fff"/><path id="path682" d="m345.63-96.125c0 3.2792-1.1193 5.9375-2.5 5.9375s-2.5-2.6583-2.5-5.9375 1.1193-5.9375 2.5-5.9375 2.5 2.6583 2.5 5.9375z" fill-rule="evenodd" transform="matrix(.53454 -.41491 .31232 .71013 245.2 88.253)" stroke="#d7b900" stroke-width="1pt" fill="#fff"/></g><g id="g711" transform="matrix(1.1703 0 0 1.0318 -76.898 9.4313)"><path id="path1706" d="m301.18 290.55c0 194.88 35.433 177.17 106.3 248.03 70.866-70.866 106.3-53.15 106.3-248.03-35.434 0-70.867 0-106.3-17.716-35.432 17.716-70.866 17.716-106.3 17.716z" fill-rule="evenodd" transform="matrix(.21053 0 0 .18418 269.66 -253.34)" stroke="#d7b900" stroke-width="4.8244" fill="#fff"/><path id="path707" fill-rule="evenodd" fill="#d7b900" transform="matrix(.19583 0 0 .16890 275.65 -247.61)" d="m301.18 290.55c0 194.88 35.433 177.17 106.3 248.03 70.866-70.866 106.3-53.15 106.3-248.03-35.434 0-70.867 0-106.3-17.716-35.432 17.716-70.866 17.716-106.3 17.716z"/><path id="path1709" fill-rule="evenodd" fill="#fff" transform="matrix(.21053 0 0 .15478 269.77 -242.19)" d="m372.05 284.81v221.58l35.433 32.195 35.433-32.195v-221.58c-12.64-2.444-24.837-6.876-35.378-11.971-11.719 5.427-23.659 9.693-35.488 11.971z"/></g></g></g></g></g>
  <g id="02" transform="translate(0,38)"><path id="path3862-8" style="color:#000000" fill="url(#linearGradient5125)" d="m214.21 111.21c-45.245 0.18809-68.716 7.7308-64.094 83.553l2.8252 46.345c47.474 5.5124 56.664 18.445 104.36 21.914 68.073 4.9513 67.937 5.4209 130.56-14.384 62.628-19.805 5.8248-65.247 207.32-57.82 4.6033 0.16968 17.314-3.0527 27.462-12.15 5.5817-46.524-2.7842-69.143-66.934-68.876z"/><path id="path3079-9" style="color:#000000" fill="url(#linearGradient5122)" d="m531.03 495.17c-31.605 19.022-27.601 31.26-37.913 32.573-94.704 12.053-145.98-0.72701-165.8-12.061-59.588-34.078-68.468-13.014-100.22-16.574-20.115-2.2551-59.245 12.984-73.388 44.344 3.4722 27.608 18.111 32.098 44.281 31.986l356.06-1.5268c69.692-0.29885 56.335-8.4926 65.543-56.039-14.772-21.671-13.157 9.109-44.224-30.717z"/><rect id="rect5734" transform="translate(128,90)" clip-path="url(#clipPath5796)" ry="57" height="512" filter="url(#filter5740)" width="512" stroke="#000" y="0" x="0" stroke-width="20" fill="none"/></g>
 </g>
  <metadata>
    <rdf:RDF>
      <cc:Work>
        <dc:format>image/svg+xml</dc:format>
        <dc:type rdf:resource="http://purl.org/dc/dcmitype/StillImage"/>
        <cc:license rdf:resource="http://creativecommons.org/licenses/publicdomain/"/>
        <dc:publisher>
          <cc:Agent rdf:about="http://openclipart.org/">
            <dc:title>Openclipart</dc:title>
          </cc:Agent>
        </dc:publisher>
        <dc:title>eg</dc:title>
        <dc:date>2011-08-21T12:01:00</dc:date>
        <dc:description>country flag buttons (with ISO-3166-1 naming convention)</dc:description>
        <dc:source>http://openclipart.org/detail/156319/eg-by-koppi</dc:source>
        <dc:creator>
          <cc:Agent>
            <dc:title>koppi</dc:title>
          </cc:Agent>
        </dc:creator>
        <dc:subject>
          <rdf:Bag>
            <rdf:li>ISO3166-1</rdf:li>
            <rdf:li>button</rdf:li>
            <rdf:li>clip art</rdf:li>
            <rdf:li>clipart</rdf:li>
            <rdf:li>country</rdf:li>
            <rdf:li>flag</rdf:li>
            <rdf:li>flags</rdf:li>
            <rdf:li>squared</rdf:li>
          </rdf:Bag>
        </dc:subject>
      </cc:Work>
      <cc:License rdf:about="http://creativecommons.org/licenses/publicdomain/">
        <cc:permits rdf:resource="http://creativecommons.org/ns#Reproduction"/>
        <cc:permits rdf:resource="http://creativecommons.org/ns#Distribution"/>
        <cc:permits rdf:resource="http://creativecommons.org/ns#DerivativeWorks"/>
      </cc:License>
    </rdf:RDF>
  </metadata>
</svg>
