<?xml version="1.0" encoding="UTF-8" standalone="no"?>
<!-- Created with Inkscape (http://www.inkscape.org/) -->

<svg
   xmlns:dc="http://purl.org/dc/elements/1.1/"
   xmlns:cc="http://creativecommons.org/ns#"
   xmlns:rdf="http://www.w3.org/1999/02/22-rdf-syntax-ns#"
   xmlns:svg="http://www.w3.org/2000/svg"
   xmlns="http://www.w3.org/2000/svg"
   xmlns:xlink="http://www.w3.org/1999/xlink"
   xmlns:sodipodi="http://sodipodi.sourceforge.net/DTD/sodipodi-0.dtd"
   xmlns:inkscape="http://www.inkscape.org/namespaces/inkscape"
   id="svg2"
   viewBox="0 0 474 446.68"
   version="1.0"
   inkscape:version="0.48.4 r9939"
   width="100%"
   height="100%"
   sodipodi:docname="owl-sitting-on-a-book_modified.svg">
  <sodipodi:namedview
     pagecolor="#ffffff"
     bordercolor="#666666"
     borderopacity="1"
     objecttolerance="10"
     gridtolerance="10"
     guidetolerance="10"
     inkscape:pageopacity="0"
     inkscape:pageshadow="2"
     inkscape:window-width="1366"
     inkscape:window-height="667"
     id="namedview54"
     showgrid="false"
     inkscape:zoom="0.83835325"
     inkscape:cx="271.60533"
     inkscape:cy="232.17301"
     inkscape:window-x="0"
     inkscape:window-y="28"
     inkscape:window-maximized="1"
     inkscape:current-layer="svg2" />
  <defs
     id="defs4">
    <pattern
       inkscape:collect="always"
       xlink:href="#pattern3081"
       id="pattern4289"
       patternTransform="matrix(0,3.9893297,-2.6595531,0,-11.613599,-309.5027)" />
    <pattern
       inkscape:collect="always"
       xlink:href="#Strips1_1"
       id="pattern3081"
       patternTransform="matrix(0,2.1108953,-1.4072635,0,105.24307,-64.837524)" />
    <pattern
       id="Strips1_1"
       height="1"
       width="2"
       patternUnits="userSpaceOnUse"
       patternTransform="matrix(0 4.4721 -4.4721 0 -50.004 -.0000030322)"
       inkscape:stockid="Stripes 1:1">
      <rect
         id="rect3917"
         style="fill:black"
         height="2"
         width="1"
         y="-.5"
         x="0" />
    </pattern>
    <linearGradient
       id="linearGradient4098">
      <stop
         id="stop4100"
         style="stop-color:#ffb142"
         offset="0" />
      <stop
         id="stop4104"
         style="stop-color:#c87600"
         offset="1" />
    </linearGradient>
    <linearGradient
       id="linearGradient3211"
       y2="537.41"
       xlink:href="#linearGradient4098"
       gradientUnits="userSpaceOnUse"
       x2="359.47"
       gradientTransform="matrix(0.64148,0,0,0.77805,125.37,117.53)"
       y1="537.41"
       x1="346.24" />
    <linearGradient
       id="linearGradient3327"
       y2="362.28"
       xlink:href="#linearGradient4098"
       gradientUnits="userSpaceOnUse"
       x2="186.21"
       y1="354.02"
       x1="186.21" />
    <linearGradient
       id="linearGradient3329"
       y2="362.28"
       xlink:href="#linearGradient4098"
       gradientUnits="userSpaceOnUse"
       x2="195.75"
       y1="354.02"
       x1="195.75" />
    <linearGradient
       id="linearGradient3331"
       y2="362.28"
       xlink:href="#linearGradient4098"
       gradientUnits="userSpaceOnUse"
       x2="176.39"
       y1="354.02"
       x1="176.39" />
    <linearGradient
       id="linearGradient3333"
       y2="362.28"
       xlink:href="#linearGradient4098"
       gradientUnits="userSpaceOnUse"
       x2="229.44"
       y1="354.02"
       x1="229.44" />
    <linearGradient
       id="linearGradient3335"
       y2="362.28"
       xlink:href="#linearGradient4098"
       gradientUnits="userSpaceOnUse"
       x2="238.98"
       y1="354.02"
       x1="238.98" />
    <linearGradient
       id="linearGradient3337"
       y2="362.28"
       xlink:href="#linearGradient4098"
       gradientUnits="userSpaceOnUse"
       x2="219.61"
       y1="354.02"
       x1="219.61" />
    <linearGradient
       inkscape:collect="always"
       xlink:href="#linearGradient4098"
       id="linearGradient3177"
       gradientUnits="userSpaceOnUse"
       x1="186.21"
       y1="354.02"
       x2="186.21"
       y2="362.28"
       gradientTransform="matrix(0.56050128,0,0,0.80502044,291.4581,-13.808054)" />
    <linearGradient
       inkscape:collect="always"
       xlink:href="#linearGradient4098"
       id="linearGradient3180"
       gradientUnits="userSpaceOnUse"
       x1="195.75"
       y1="354.02"
       x2="195.75"
       y2="362.28"
       gradientTransform="matrix(0.56050128,0,0,0.80502044,286.10869,-13.808054)" />
    <linearGradient
       inkscape:collect="always"
       xlink:href="#linearGradient4098"
       id="linearGradient3183"
       gradientUnits="userSpaceOnUse"
       x1="176.39"
       y1="354.02"
       x2="176.39"
       y2="362.28"
       gradientTransform="matrix(0.56050128,0,0,0.80502044,296.96493,-13.808054)" />
    <linearGradient
       inkscape:collect="always"
       xlink:href="#linearGradient4098"
       id="linearGradient3186"
       gradientUnits="userSpaceOnUse"
       x1="229.44"
       y1="354.02"
       x2="229.44"
       y2="362.28"
       gradientTransform="matrix(0.56050128,0,0,0.80502044,267.22803,-13.808054)" />
    <linearGradient
       inkscape:collect="always"
       xlink:href="#linearGradient4098"
       id="linearGradient3189"
       gradientUnits="userSpaceOnUse"
       x1="238.98"
       y1="354.02"
       x2="238.98"
       y2="362.28"
       gradientTransform="matrix(0.56050128,0,0,0.80502044,261.87853,-13.808054)" />
    <linearGradient
       inkscape:collect="always"
       xlink:href="#linearGradient4098"
       id="linearGradient3192"
       gradientUnits="userSpaceOnUse"
       x1="219.61"
       y1="354.02"
       x2="219.61"
       y2="362.28"
       gradientTransform="matrix(0.56050128,0,0,0.80502044,272.73486,-13.808054)" />
    <linearGradient
       inkscape:collect="always"
       xlink:href="#linearGradient4098"
       id="linearGradient4104"
       gradientUnits="userSpaceOnUse"
       gradientTransform="matrix(0.28745226,0,0,0.52297553,447.16258,-86.854422)"
       x1="346.24"
       y1="537.41"
       x2="359.47"
       y2="537.41" />
    <linearGradient
       inkscape:collect="always"
       xlink:href="#linearGradient4098"
       id="linearGradient4295"
       gradientUnits="userSpaceOnUse"
       gradientTransform="matrix(0.56050128,0,0,0.80502044,272.73486,-13.808054)"
       x1="219.61"
       y1="354.02"
       x2="219.61"
       y2="362.28" />
    <linearGradient
       inkscape:collect="always"
       xlink:href="#linearGradient4098"
       id="linearGradient4297"
       gradientUnits="userSpaceOnUse"
       gradientTransform="matrix(0.56050128,0,0,0.80502044,261.87853,-13.808054)"
       x1="238.98"
       y1="354.02"
       x2="238.98"
       y2="362.28" />
    <linearGradient
       inkscape:collect="always"
       xlink:href="#linearGradient4098"
       id="linearGradient4299"
       gradientUnits="userSpaceOnUse"
       gradientTransform="matrix(0.56050128,0,0,0.80502044,267.22803,-13.808054)"
       x1="229.44"
       y1="354.02"
       x2="229.44"
       y2="362.28" />
    <linearGradient
       inkscape:collect="always"
       xlink:href="#linearGradient4098"
       id="linearGradient4301"
       gradientUnits="userSpaceOnUse"
       gradientTransform="matrix(0.56050128,0,0,0.80502044,296.96493,-13.808054)"
       x1="176.39"
       y1="354.02"
       x2="176.39"
       y2="362.28" />
    <linearGradient
       inkscape:collect="always"
       xlink:href="#linearGradient4098"
       id="linearGradient4303"
       gradientUnits="userSpaceOnUse"
       gradientTransform="matrix(0.56050128,0,0,0.80502044,286.10869,-13.808054)"
       x1="195.75"
       y1="354.02"
       x2="195.75"
       y2="362.28" />
    <linearGradient
       inkscape:collect="always"
       xlink:href="#linearGradient4098"
       id="linearGradient4305"
       gradientUnits="userSpaceOnUse"
       gradientTransform="matrix(0.56050128,0,0,0.80502044,291.4581,-13.808054)"
       x1="186.21"
       y1="354.02"
       x2="186.21"
       y2="362.28" />
    <linearGradient
       inkscape:collect="always"
       xlink:href="#linearGradient4098"
       id="linearGradient4307"
       gradientUnits="userSpaceOnUse"
       gradientTransform="matrix(0.28745226,0,0,0.52297553,447.16258,-86.854422)"
       x1="346.24"
       y1="537.41"
       x2="359.47"
       y2="537.41" />
  </defs>
  <metadata
     id="metadata52">
    <rdf:RDF>
      <cc:Work>
        <dc:format>image/svg+xml</dc:format>
        <dc:type
           rdf:resource="http://purl.org/dc/dcmitype/StillImage" />
        <cc:license
           rdf:resource="http://creativecommons.org/licenses/publicdomain/" />
        <dc:publisher>
          <cc:Agent
             rdf:about="http://openclipart.org/">
            <dc:title>Openclipart</dc:title>
          </cc:Agent>
        </dc:publisher>
        <dc:title></dc:title>
        <dc:date>2008-07-07T17:47:04</dc:date>
        <dc:description>My previously published owl sitting on a book</dc:description>
        <dc:source>https://openclipart.org/detail/17631/cartoon-owl-sitting-on-a-book-by-lemmling</dc:source>
        <dc:creator>
          <cc:Agent>
            <dc:title>lemmling</dc:title>
          </cc:Agent>
        </dc:creator>
        <dc:subject>
          <rdf:Bag>
            <rdf:li>animal</rdf:li>
            <rdf:li>bird</rdf:li>
            <rdf:li>book</rdf:li>
            <rdf:li>cartoon</rdf:li>
            <rdf:li>colour</rdf:li>
            <rdf:li>how i did it</rdf:li>
            <rdf:li>owl</rdf:li>
          </rdf:Bag>
        </dc:subject>
      </cc:Work>
      <cc:License
         rdf:about="http://creativecommons.org/licenses/publicdomain/">
        <cc:permits
           rdf:resource="http://creativecommons.org/ns#Reproduction" />
        <cc:permits
           rdf:resource="http://creativecommons.org/ns#Distribution" />
        <cc:permits
           rdf:resource="http://creativecommons.org/ns#DerivativeWorks" />
      </cc:License>
    </rdf:RDF>
  </metadata>
  <g
     id="g4309">
    <path
       id="path3189"
       style="fill:#400000;fill-rule:evenodd;stroke:#000000;stroke-width:2.91341805;stroke-linecap:round;stroke-linejoin:round"
       d="m 91.253847,413.79692 5.88753,-16.39586 c -11.775041,-51.72989 0,-85.15495 0,-85.15495 l -5.88753,16.39587 c 0,0 -11.769088,33.43398 0,85.15494 z"
       inkscape:connector-curvature="0" />
    <path
       id="path3187"
       style="fill:#800000;fill-rule:evenodd;stroke:#000000;stroke-width:2.91341805;stroke-linejoin:round"
       d="M 91.378749,413.84152 H 365.53495 L 287.12984,210.13333 H 169.87901 L 91.378749,413.84152 z"
       inkscape:connector-curvature="0" />
    <path
       id="path4702"
       style="fill:#000000;fill-opacity:0.31373004;fill-rule:evenodd"
       d="M 169.87305,210.12441 93.436389,408.49815 H 356.01383 L 279.66637,210.12441 H 169.87305 z"
       inkscape:connector-curvature="0" />
    <path
       id="path3191"
       style="fill:#ffffff;fill-rule:evenodd;stroke:#000000;stroke-width:2.91341805;stroke-linecap:round"
       d="m 97.141377,398.02549 c -11.775041,-51.72096 0,-85.15494 0,-85.15494 l 250.838063,0.32114 v 84.8338 H 97.141377 z"
       inkscape:connector-curvature="0" />
    <path
       id="path4652"
       style="opacity:0.19298;fill:url(#pattern4289);fill-rule:evenodd;stroke:#000000;stroke-width:2.91341805;stroke-linecap:round"
       d="m 97.141377,398.02549 c -11.775041,-51.72096 0,-85.15494 0,-85.15494 l 250.838063,0.32114 v 84.8338 H 97.141377 z"
       inkscape:connector-curvature="0" />
    <path
       id="path2415"
       style="fill:#800000;fill-rule:evenodd;stroke:#000000;stroke-width:2.91341805;stroke-linejoin:round"
       d="M 91.378749,328.16027 H 365.53495 L 287.12984,124.4521 H 169.87901 L 91.378749,328.16027 z"
       inkscape:connector-curvature="0" />
    <path
       id="path3216"
       style="fill:#000000;fill-opacity:0.31373004;fill-rule:evenodd"
       d="m 156.75399,365.22489 h -33.60048 c 0,0 -7.62404,4.93303 6.29191,30.84702 -0.0595,-17.27898 8.83127,-18.51001 8.83127,-18.51001 0,0 11.66205,17.27898 24.30536,24.68299 -15.18861,-29.61602 -4.59703,-35.17346 -5.82806,-37.02 z"
       inkscape:connector-curvature="0" />
    <path
       id="path2424"
       style="fill:#000080;fill-rule:evenodd;stroke:#000000;stroke-width:2.91341805;stroke-linejoin:round"
       d="m 155.95115,365.6709 h -33.60049 c 0,0 -10.10988,3.5682 -9.21784,22.30121 8.62315,-12.48868 18.13833,-13.38072 18.13833,-13.38072 0,0 2.97349,12.48868 11.89397,17.84096 -0.29735,-21.40915 13.08339,-25.42338 12.78603,-26.76145 z"
       inkscape:connector-curvature="0" />
    <g
       transform="matrix(1.8898757,0,0,1.8898757,-509.83782,-186.96784)"
       id="g4106">
      <path
         inkscape:connector-curvature="0"
         d="m 454.25553,246.82101 a 52.09937,21.979422 0 0 1 -104.19874,0 52.09937,21.979422 0 1 1 104.19874,0 z"
         style="fill:#000000;fill-opacity:0.31373004"
         id="path3089" />
      <path
         inkscape:connector-curvature="0"
         d="m 392.68213,270.46881 a 4.4840102,10.867776 0 0 1 -8.96802,0 4.4840102,10.867776 0 1 1 8.96802,0 z"
         style="fill:url(#linearGradient4295);stroke:#000000;stroke-width:1.92697859;stroke-linecap:round;stroke-linejoin:round"
         id="path3091" />
      <path
         inkscape:connector-curvature="0"
         d="m 381.8258,270.46881 a 4.4840102,10.867776 0 0 1 -8.96802,0 4.4840102,10.867776 0 1 1 8.96802,0 z"
         style="fill:url(#linearGradient4297);stroke:#000000;stroke-width:1.92697859;stroke-linecap:round;stroke-linejoin:round"
         id="path3093" />
      <path
         inkscape:connector-curvature="0"
         d="m 387.1753,270.46881 a 4.4840102,10.867776 0 0 1 -8.96802,0 4.4840102,10.867776 0 1 1 8.96802,0 z"
         style="fill:url(#linearGradient4299);stroke:#000000;stroke-width:1.92697859;stroke-linecap:round;stroke-linejoin:round"
         id="path3095" />
      <path
         inkscape:connector-curvature="0"
         d="m 416.9122,270.46881 a 4.4840102,10.867776 0 0 1 -8.96802,0 4.4840102,10.867776 0 1 1 8.96802,0 z"
         style="fill:url(#linearGradient4301);stroke:#000000;stroke-width:1.92697859;stroke-linecap:round;stroke-linejoin:round"
         id="path3097" />
      <path
         inkscape:connector-curvature="0"
         d="m 406.05596,270.46881 a 4.4840102,10.867776 0 0 1 -8.96802,0 4.4840102,10.867776 0 1 1 8.96802,0 z"
         style="fill:url(#linearGradient4303);stroke:#000000;stroke-width:1.92697859;stroke-linecap:round;stroke-linejoin:round"
         id="path3099" />
      <path
         inkscape:connector-curvature="0"
         d="m 411.40537,270.46881 a 4.4840102,10.867776 0 0 1 -8.96802,0 4.4840102,10.867776 0 1 1 8.96802,0 z"
         style="fill:url(#linearGradient4305);stroke:#000000;stroke-width:1.92697859;stroke-linecap:round;stroke-linejoin:round"
         id="path3101" />
      <path
         inkscape:connector-curvature="0"
         d="m 377.34551,259.58736 c -1.82827,0 -3.39221,2.66216 -4.09079,6.46188 5.96941,2.39783 12.52726,3.79499 19.42181,3.9838 -0.0944,-5.79634 -2.05798,-10.44096 -4.47469,-10.44568 -1.03843,0 -1.9919,0.86379 -2.75342,2.30343 -0.76152,-1.43964 -1.71498,-2.29871 -2.75342,-2.30343 -1.00381,0 -1.92896,0.80715 -2.67474,2.15711 -0.74579,-1.34996 -1.67093,-2.15239 -2.67475,-2.15711 z m 24.23007,0 c -2.41042,0 -4.37086,4.62574 -4.4747,10.4032 6.88512,-0.33513 13.4115,-1.88334 19.33371,-4.41334 -0.73949,-3.54482 -2.25308,-5.98514 -4.00268,-5.98986 -1.03843,0 -1.9919,0.86379 -2.75342,2.30343 -0.76152,-1.43964 -1.71499,-2.29871 -2.75342,-2.30343 -1.00381,0 -1.92896,0.80715 -2.67474,2.15711 -0.74579,-1.34996 -1.67094,-2.15239 -2.67475,-2.15711 z"
         style="fill:#000000;fill-opacity:0.31373004"
         id="path3103" />
      <path
         inkscape:connector-curvature="0"
         d="m 446.38862,187.34557 a 52.09937,78.149056 0 0 1 -104.19874,0 52.09937,78.149056 0 1 1 104.19874,0 z"
         style="fill:#217831;fill-opacity:1;stroke:#000000;stroke-width:1.92699039;stroke-linecap:round"
         id="path3105" />
      <path
         inkscape:connector-curvature="0"
         d="m 420.03586,226.40691 c -8.33783,-2.32161 -0.70611,10.21189 -1.98639,14.74278 -5.05334,-3.72849 -3.12758,8.61778 -5.41353,12.04136 -4.32939,-0.34771 -5.00698,6.20523 -8.02757,8.12565 -3.65181,-3.03843 -6.34431,2.97958 -9.82852,2.97958 -3.4842,0 -5.54904,-5.78264 -9.82852,-2.97958 -3.02059,-1.92042 -3.69817,-8.23264 -8.02757,-8.12565 -2.28595,-3.42358 -1.93289,-16.47596 -5.41353,-12.04136 -1.28027,-4.53089 4.62183,-18.01122 -1.98639,-14.74278 0,-5.2263 7.0005,-14.93 1.98639,-14.73742 1.27671,-4.53624 7.68878,-7.90633 5.41353,-12.04671 4.5719,-6.85786 10.88412,-11.09988 17.85609,-11.09988 6.97197,0 13.28419,4.24202 17.85609,11.09988 -3.37721,2.48744 4.13683,7.51047 5.41353,12.04671 -5.64176,-0.42795 1.98639,9.51112 1.98639,14.73742 z"
         style="fill:#ffffff;stroke:#000000;stroke-width:1.92694914;stroke-linecap:round;stroke-linejoin:round"
         id="path3107" />
      <path
         inkscape:connector-curvature="0"
         d="m 440.32166,150.73142 c 0.62306,4.8287 0.95347,9.81317 0.95347,14.91093 0,1.76061 -0.0441,3.50707 -0.11958,5.23936 -1.15486,-0.0897 -2.38524,0.009 -3.69744,0.29265 -11.07975,3.5401 -6.34702,24.38898 -9.2326,46.20076 -9.54728,16.20425 -23.50946,26.41864 -39.05132,26.41864 -9.55672,0 -18.5124,-3.87524 -26.21536,-10.62032 -7.45122,-26.17319 2.54132,-54.5979 -10.59075,-59.50685 -14.50972,-3.92716 -20.12983,16.26562 -10.74808,46.52646 5.17989,16.70458 13.75859,24.91291 20.07037,28.09901 8.92421,10.76193 20.262,17.19548 32.59731,17.19548 14.45937,0 27.55305,-8.84083 36.99648,-23.1287 5.4911,-4.11125 11.59897,-11.60683 15.8408,-24.14353 7.93299,-23.44496 6.4131,-41.10301 -1.72128,-45.99308 -0.99752,-7.61359 -2.72509,-14.84013 -5.08202,-21.49081 z"
         style="fill:#000000;fill-opacity:0.31373004;fill-rule:evenodd"
         id="path3109" />
      <path
         inkscape:connector-curvature="0"
         d="m 352.3256,169.8716 c 15.13907,8.16585 -4.45896,44.43543 11.89791,76.08399 3.02404,5.84826 -18.20717,0.98651 -25.71534,-31.43143 -7.30049,-31.52112 -0.35559,-50.76042 13.81743,-44.65256 z"
         style="fill:#48a559;fill-opacity:1;fill-rule:evenodd;stroke:#000000;stroke-width:1.92699039"
         id="path3111" />
      <path
         inkscape:connector-curvature="0"
         d="m 436.16793,169.8716 c -15.13907,8.16585 4.45582,44.43543 -11.90105,76.08399 -3.02404,5.84826 18.21031,0.98651 25.71534,-31.43143 7.30049,-31.52112 0.35558,-50.76042 -13.81429,-44.65256 z"
         style="fill:#48a559;fill-opacity:1;fill-rule:evenodd;stroke:#000000;stroke-width:1.92699039"
         id="path3113" />
      <path
         inkscape:connector-curvature="0"
         d="m 430.60446,165.59987 c 4.21351,-2.17598 8.56549,3.57787 9.39938,6.69317 -4.25128,-1.62845 -6.20542,-2.09103 -7.30678,-0.65138 0.47516,1.59068 5.47851,3.18137 7.02986,13.62705 -3.91142,-4.06876 -7.02042,-8.77003 -8.26969,-6.83477 0.90942,2.37423 1.95099,6.83949 1.24927,11.2717 -2.24679,-4.45109 -4.54393,-9.14763 -6.65226,-9.27508"
         style="fill:#48a559;fill-opacity:1;fill-rule:evenodd;stroke:#000000;stroke-width:1.92699039;stroke-linecap:round;stroke-linejoin:round"
         id="path3115" />
      <path
         inkscape:connector-curvature="0"
         d="m 379.8283,127.02214 c -9.82733,0 -17.81067,13.84418 -17.81067,30.90278 0,17.0586 7.98334,30.90278 17.81067,30.90278 5.77746,0 10.90353,-4.78623 14.15729,-12.19213 3.25375,7.41062 8.38926,12.19213 14.16672,12.19213 9.83049,0 17.81382,-13.84418 17.81382,-30.90278 0,-17.0586 -7.98333,-30.90278 -17.81382,-30.90278 -5.77746,0 -10.91297,4.78151 -14.16672,12.19213 -3.25376,-7.4059 -8.37983,-12.19213 -14.15729,-12.19213 z"
         style="fill:#ffffff;stroke:#000000;stroke-width:1.92699039;stroke-linecap:round"
         id="path3117" />
      <path
         inkscape:connector-curvature="0"
         d="m 357.80097,165.59987 c -4.21352,-2.17598 -8.56549,3.57787 -9.39623,6.69317 4.25127,-1.62845 6.20541,-2.09103 7.30678,-0.65138 -0.47516,1.59068 -5.47852,3.18137 -7.02987,13.62705 3.91143,-4.06876 7.01728,-8.77003 8.26655,-6.83477 -0.90627,2.37423 -1.951,6.83949 -1.24612,11.2717 2.24679,-4.45109 4.54392,-9.14763 6.65225,-9.27508"
         style="fill:#48a559;fill-opacity:1;fill-rule:evenodd;stroke:#000000;stroke-width:1.92699039;stroke-linecap:round;stroke-linejoin:round"
         id="path3125" />
      <path
         inkscape:connector-curvature="0"
         d="m 398.34071,132.21902 c 4.1789,-15.17998 11.22135,-17.23324 11.22135,-17.23324 0,0 -3.91772,7.9204 -0.36817,5.71609 5.49739,-3.41266 22.97136,7.27846 22.97136,7.27846 0,0 -23.15387,-8.0856 -33.82454,4.23869 z"
         style="fill:#ffffff;fill-rule:evenodd;stroke:#000000;stroke-width:1.92699039;stroke-linejoin:round"
         id="path3127" />
      <path
         inkscape:connector-curvature="0"
         d="m 388.76196,130.80298 c -4.1789,-15.17998 -11.2245,-17.23325 -11.2245,-17.23325 0,0 3.92087,7.9204 0.37132,5.7161 -5.4974,-3.41267 -22.97137,7.27846 -22.97137,7.27846 0,0 23.15073,-8.08561 33.82455,4.23869 z"
         style="fill:#ffffff;fill-rule:evenodd;stroke:#000000;stroke-width:1.92699039;stroke-linejoin:round"
         id="path3129" />
      <path
         inkscape:connector-curvature="0"
         d="m 441.12723,168.74348 c -0.13216,0 -0.26118,0.009 -0.39334,0.0142 5.1009,6.16451 7.25958,20.4335 4.65091,40.28171 -3.46773,26.3856 -16.86035,37.76586 -21.30987,38.36532 1.44436,3.08226 19.18581,-3.83275 25.91044,-32.8758 6.38792,-27.58451 1.86288,-45.76179 -8.85814,-45.78539 z"
         style="fill:#000000;fill-opacity:0.31373004;fill-rule:evenodd"
         id="path3137" />
      <path
         inkscape:connector-curvature="0"
         d="m 336.06392,183.9329 c -1.0862,7.79296 -0.4086,18.25752 2.44866,30.59597 7.5066,32.41323 28.73812,37.2797 25.71471,31.43144 -1.29269,-2.50168 -2.36637,-5.03639 -3.24494,-7.58055 -5.96375,-2.14295 -17.00763,-11.50771 -21.99776,-33.05517 -1.85023,-7.9912 -2.78618,-15.18942 -2.92067,-21.39169 z m 22.43075,2.9973 c -0.27786,4.02628 -0.58404,8.31217 -0.71809,12.80102 0.31279,-4.62102 0.65453,-8.93995 0.71809,-12.80102 z"
         style="fill:#000000;fill-opacity:0.31373004;fill-rule:evenodd"
         id="path3139" />
      <g
         id="g4023"
         transform="matrix(0.58996262,0,0,0.58996262,130.34824,-44.813274)">
        <path
           sodipodi:type="arc"
           style="fill:#f36830;fill-opacity:1;fill-rule:nonzero;stroke:none"
           id="path3973"
           sodipodi:cx="412.84778"
           sodipodi:cy="161.59027"
           sodipodi:rx="10.646504"
           sodipodi:ry="10.646504"
           d="m 423.49428,161.59027 c 0,5.8799 -4.7666,10.64651 -10.6465,10.64651 -5.8799,0 -10.64651,-4.76661 -10.64651,-10.64651 0,-5.8799 4.76661,-10.6465 10.64651,-10.6465 5.8799,0 10.6465,4.7666 10.6465,10.6465 z"
           transform="matrix(2.1037207,0,0,2.1037207,-447.6246,4.7693558)" />
        <path
           inkscape:connector-curvature="0"
           id="path3997"
           d="m 421.23634,322.46946 0,44.62569"
           style="fill:#f36830;fill-opacity:1;stroke:#a73000;stroke-width:2.44487882;stroke-linecap:butt;stroke-linejoin:miter;stroke-miterlimit:4;stroke-opacity:1;stroke-dasharray:none" />
        <path
           inkscape:connector-curvature="0"
           id="path3977"
           d="m 398.36673,345.00326 45.06024,0"
           style="fill:#f36830;fill-opacity:1;stroke:#a73000;stroke-width:2.83017874;stroke-linecap:butt;stroke-linejoin:miter;stroke-miterlimit:4;stroke-opacity:1;stroke-dasharray:none" />
        <path
           style="fill:#f36830;fill-opacity:1;stroke:#a73000;stroke-width:2.83017874;stroke-linecap:butt;stroke-linejoin:miter;stroke-miterlimit:4;stroke-opacity:1;stroke-dasharray:none"
           d="m 399.13443,350.83448 43.52484,-11.66244"
           id="path3999"
           inkscape:connector-curvature="0" />
        <path
           inkscape:connector-curvature="0"
           id="path4001"
           d="m 401.3852,356.26831 39.0233,-22.5301"
           style="fill:#f36830;fill-opacity:1;stroke:#a73000;stroke-width:2.83017874;stroke-linecap:butt;stroke-linejoin:miter;stroke-miterlimit:4;stroke-opacity:1;stroke-dasharray:none" />
        <path
           style="fill:#f36830;fill-opacity:1;stroke:#a73000;stroke-width:2.83017874;stroke-linecap:butt;stroke-linejoin:miter;stroke-miterlimit:4;stroke-opacity:1;stroke-dasharray:none"
           d="m 404.96565,360.93445 31.8624,-31.86238"
           id="path4003"
           inkscape:connector-curvature="0" />
        <path
           inkscape:connector-curvature="0"
           id="path4005"
           d="m 409.63179,364.51491 22.53012,-39.0233"
           style="fill:#f36830;fill-opacity:1;stroke:#a73000;stroke-width:2.83017874;stroke-linecap:butt;stroke-linejoin:miter;stroke-miterlimit:4;stroke-opacity:1;stroke-dasharray:none" />
        <path
           style="fill:#f36830;fill-opacity:1;stroke:#a73000;stroke-width:2.83017874;stroke-linecap:butt;stroke-linejoin:miter;stroke-miterlimit:4;stroke-opacity:1;stroke-dasharray:none"
           d="m 415.06562,366.76568 11.66246,-43.52484"
           id="path4007"
           inkscape:connector-curvature="0" />
        <path
           style="fill:#f36830;fill-opacity:1;stroke:#a73000;stroke-width:2.44487882;stroke-linecap:butt;stroke-linejoin:miter;stroke-miterlimit:4;stroke-opacity:1;stroke-dasharray:none"
           d="m 415.46135,323.22975 11.54998,43.10511"
           id="path4009"
           inkscape:connector-curvature="0" />
        <path
           inkscape:connector-curvature="0"
           id="path4011"
           d="m 410.07992,325.45881 22.31284,38.64699"
           style="fill:#f36830;fill-opacity:1;stroke:#a73000;stroke-width:2.44487882;stroke-linecap:butt;stroke-linejoin:miter;stroke-miterlimit:4;stroke-opacity:1;stroke-dasharray:none" />
        <path
           style="fill:#f36830;fill-opacity:1;stroke:#a73000;stroke-width:2.44487882;stroke-linecap:butt;stroke-linejoin:miter;stroke-miterlimit:4;stroke-opacity:1;stroke-dasharray:none"
           d="m 405.45878,329.00474 31.55512,31.55513"
           id="path4013"
           inkscape:connector-curvature="0" />
        <path
           inkscape:connector-curvature="0"
           id="path4015"
           d="m 401.91285,333.62588 38.64698,22.31285"
           style="fill:#f36830;fill-opacity:1;stroke:#a73000;stroke-width:2.44487882;stroke-linecap:butt;stroke-linejoin:miter;stroke-miterlimit:4;stroke-opacity:1;stroke-dasharray:none" />
        <path
           style="fill:#f36830;fill-opacity:1;stroke:#a73000;stroke-width:2.83017874;stroke-linecap:butt;stroke-linejoin:miter;stroke-miterlimit:4;stroke-opacity:1;stroke-dasharray:none"
           d="m 399.13443,339.17204 43.52484,11.66244"
           id="path4017"
           inkscape:connector-curvature="0" />
        <path
           transform="matrix(1.3195877,0,0,1.3195877,-70.160477,-111.03501)"
           d="m 382.50335,345.78262 c 0,5.64811 -4.5787,10.2268 -10.2268,10.2268 -5.6481,0 -10.2268,-4.57869 -10.2268,-10.2268 0,-5.6481 4.5787,-10.22679 10.2268,-10.22679 5.6481,0 10.2268,4.57869 10.2268,10.22679 z"
           sodipodi:ry="10.226798"
           sodipodi:rx="10.226798"
           sodipodi:cy="345.78262"
           sodipodi:cx="372.27655"
           id="path4019"
           style="fill:#000000;fill-opacity:1;fill-rule:nonzero;stroke:none"
           sodipodi:type="arc" />
        <path
           inkscape:transform-center-y="5.0606838"
           transform="matrix(1.0207634,0.81737462,-0.55151575,0.68875038,178.46966,-237.58974)"
           d="m 418.34985,343.88486 c 0,2.96962 -0.61364,5.37697 -1.3706,5.37697 -0.75696,0 -1.3706,-2.40735 -1.3706,-5.37697 0,-2.96962 0.61364,-5.37698 1.3706,-5.37698 0.75696,0 1.3706,2.40736 1.3706,5.37698 z"
           sodipodi:ry="5.3769765"
           sodipodi:rx="1.3706019"
           sodipodi:cy="343.88486"
           sodipodi:cx="416.97925"
           id="path4021"
           style="fill:#ffffff;fill-opacity:1;fill-rule:nonzero;stroke:none"
           sodipodi:type="arc" />
      </g>
      <g
         id="g4040"
         transform="matrix(0.58996262,0,0,0.58996262,161.52762,-44.813274)">
        <path
           transform="matrix(2.1037207,0,0,2.1037207,-447.6246,4.7693558)"
           d="m 423.49428,161.59027 c 0,5.8799 -4.7666,10.64651 -10.6465,10.64651 -5.8799,0 -10.64651,-4.76661 -10.64651,-10.64651 0,-5.8799 4.76661,-10.6465 10.64651,-10.6465 5.8799,0 10.6465,4.7666 10.6465,10.6465 z"
           sodipodi:ry="10.646504"
           sodipodi:rx="10.646504"
           sodipodi:cy="161.59027"
           sodipodi:cx="412.84778"
           id="path4042"
           style="fill:#f36830;fill-opacity:1;fill-rule:nonzero;stroke:none"
           sodipodi:type="arc" />
        <path
           style="fill:#f36830;fill-opacity:1;stroke:#a73000;stroke-width:2.44487882;stroke-linecap:butt;stroke-linejoin:miter;stroke-miterlimit:4;stroke-opacity:1;stroke-dasharray:none"
           d="m 421.23634,322.46946 0,44.62569"
           id="path4044"
           inkscape:connector-curvature="0" />
        <path
           style="fill:#f36830;fill-opacity:1;stroke:#a73000;stroke-width:2.83017874;stroke-linecap:butt;stroke-linejoin:miter;stroke-miterlimit:4;stroke-opacity:1;stroke-dasharray:none"
           d="m 398.36673,345.00326 45.06024,0"
           id="path4046"
           inkscape:connector-curvature="0" />
        <path
           inkscape:connector-curvature="0"
           id="path4048"
           d="m 399.13443,350.83448 43.52484,-11.66244"
           style="fill:#f36830;fill-opacity:1;stroke:#a73000;stroke-width:2.83017874;stroke-linecap:butt;stroke-linejoin:miter;stroke-miterlimit:4;stroke-opacity:1;stroke-dasharray:none" />
        <path
           style="fill:#f36830;fill-opacity:1;stroke:#a73000;stroke-width:2.83017874;stroke-linecap:butt;stroke-linejoin:miter;stroke-miterlimit:4;stroke-opacity:1;stroke-dasharray:none"
           d="m 401.3852,356.26831 39.0233,-22.5301"
           id="path4050"
           inkscape:connector-curvature="0" />
        <path
           inkscape:connector-curvature="0"
           id="path4052"
           d="m 404.96565,360.93445 31.8624,-31.86238"
           style="fill:#f36830;fill-opacity:1;stroke:#a73000;stroke-width:2.83017874;stroke-linecap:butt;stroke-linejoin:miter;stroke-miterlimit:4;stroke-opacity:1;stroke-dasharray:none" />
        <path
           style="fill:#f36830;fill-opacity:1;stroke:#a73000;stroke-width:2.83017874;stroke-linecap:butt;stroke-linejoin:miter;stroke-miterlimit:4;stroke-opacity:1;stroke-dasharray:none"
           d="m 409.63179,364.51491 22.53012,-39.0233"
           id="path4054"
           inkscape:connector-curvature="0" />
        <path
           inkscape:connector-curvature="0"
           id="path4056"
           d="m 415.06562,366.76568 11.66246,-43.52484"
           style="fill:#f36830;fill-opacity:1;stroke:#a73000;stroke-width:2.83017874;stroke-linecap:butt;stroke-linejoin:miter;stroke-miterlimit:4;stroke-opacity:1;stroke-dasharray:none" />
        <path
           inkscape:connector-curvature="0"
           id="path4058"
           d="m 415.46135,323.22975 11.54998,43.10511"
           style="fill:#f36830;fill-opacity:1;stroke:#a73000;stroke-width:2.44487882;stroke-linecap:butt;stroke-linejoin:miter;stroke-miterlimit:4;stroke-opacity:1;stroke-dasharray:none" />
        <path
           style="fill:#f36830;fill-opacity:1;stroke:#a73000;stroke-width:2.44487882;stroke-linecap:butt;stroke-linejoin:miter;stroke-miterlimit:4;stroke-opacity:1;stroke-dasharray:none"
           d="m 410.07992,325.45881 22.31284,38.64699"
           id="path4060"
           inkscape:connector-curvature="0" />
        <path
           inkscape:connector-curvature="0"
           id="path4062"
           d="m 405.45878,329.00474 31.55512,31.55513"
           style="fill:#f36830;fill-opacity:1;stroke:#a73000;stroke-width:2.44487882;stroke-linecap:butt;stroke-linejoin:miter;stroke-miterlimit:4;stroke-opacity:1;stroke-dasharray:none" />
        <path
           style="fill:#f36830;fill-opacity:1;stroke:#a73000;stroke-width:2.44487882;stroke-linecap:butt;stroke-linejoin:miter;stroke-miterlimit:4;stroke-opacity:1;stroke-dasharray:none"
           d="m 401.91285,333.62588 38.64698,22.31285"
           id="path4064"
           inkscape:connector-curvature="0" />
        <path
           inkscape:connector-curvature="0"
           id="path4066"
           d="m 399.13443,339.17204 43.52484,11.66244"
           style="fill:#f36830;fill-opacity:1;stroke:#a73000;stroke-width:2.83017874;stroke-linecap:butt;stroke-linejoin:miter;stroke-miterlimit:4;stroke-opacity:1;stroke-dasharray:none" />
        <path
           sodipodi:type="arc"
           style="fill:#000000;fill-opacity:1;fill-rule:nonzero;stroke:none"
           id="path4068"
           sodipodi:cx="372.27655"
           sodipodi:cy="345.78262"
           sodipodi:rx="10.226798"
           sodipodi:ry="10.226798"
           d="m 382.50335,345.78262 c 0,5.64811 -4.5787,10.2268 -10.2268,10.2268 -5.6481,0 -10.2268,-4.57869 -10.2268,-10.2268 0,-5.6481 4.5787,-10.22679 10.2268,-10.22679 5.6481,0 10.2268,4.57869 10.2268,10.22679 z"
           transform="matrix(1.3195877,0,0,1.3195877,-70.160477,-111.03501)" />
        <path
           sodipodi:type="arc"
           style="fill:#ffffff;fill-opacity:1;fill-rule:nonzero;stroke:none"
           id="path4070"
           sodipodi:cx="416.97925"
           sodipodi:cy="343.88486"
           sodipodi:rx="1.3706019"
           sodipodi:ry="5.3769765"
           d="m 418.34985,343.88486 c 0,2.96962 -0.61364,5.37697 -1.3706,5.37697 -0.75696,0 -1.3706,-2.40735 -1.3706,-5.37697 0,-2.96962 0.61364,-5.37698 1.3706,-5.37698 0.75696,0 1.3706,2.40736 1.3706,5.37698 z"
           transform="matrix(1.0207634,0.81737462,-0.55151575,0.68875038,178.46966,-237.58974)"
           inkscape:transform-center-y="5.0606838" />
      </g>
      <g
         id="g4100"
         transform="translate(-153.50741,-2.5303419)">
        <path
           id="path4090"
           style="fill:#000000;fill-opacity:0.31373004;fill-rule:evenodd"
           d="m 548.72625,181.90278 c -4.16292,0 -8.68433,6.94343 -8.50509,11.32592 0.18373,4.38923 7.42067,22.65187 9.0473,22.65187 1.63111,0 7.96288,-17.89968 7.78364,-23.01484 -0.18373,-5.11514 -5.61032,-11.32592 -8.32585,-10.96295 z"
           inkscape:connector-curvature="0" />
        <path
           id="path4092"
           style="fill:url(#linearGradient4307);fill-rule:evenodd;stroke:#b54e2e;stroke-width:2.74408937;stroke-opacity:1"
           d="m 547.77626,174.77787 c -4.16292,0 -8.68434,6.2511 -8.50509,10.20342 0.17925,3.9523 7.42067,20.41355 9.04731,20.41355 1.63111,0 7.96286,-16.13188 7.78362,-20.74292 -0.18371,-4.61103 -5.6103,-10.20342 -8.32584,-9.87405 z"
           inkscape:connector-curvature="0" />
      </g>
    </g>
  </g>
</svg>
