<?xml version="1.0" encoding="UTF-8"?>
<!DOCTYPE svg PUBLIC "-//W3C//DTD SVG 1.1//EN" "http://www.w3.org/Graphics/SVG/1.1/DTD/svg11.dtd">
<svg version="1.1" xmlns="http://www.w3.org/2000/svg" xmlns:xlink="http://www.w3.org/1999/xlink" x="0" y="0" width="617" height="716" viewBox="0, 0, 617, 716">
  <g id="Layer_1">
    <path d="M431.158,216.749 C422.32,192.435 433.179,168.827 452.572,156.611 C463.619,149.665 474.998,137.229 488.091,139.502 C504.672,142.381 537.899,176.691 530.744,190.312 C525.665,199.967 503.876,220.407 487.549,227.721 C473.303,234.106 438.036,235.639 431.158,216.749" fill="#F6CCBA"/>
    <path d="M431.158,216.749 C422.32,192.435 433.179,168.827 452.572,156.611 C463.619,149.665 474.998,137.229 488.091,139.502 C504.672,142.381 537.899,176.691 530.744,190.312 C525.665,199.967 503.876,220.407 487.549,227.721 C473.303,234.106 438.036,235.639 431.158,216.749 z" fill-opacity="0" stroke="#1A1919" stroke-width="2.833" stroke-linecap="round" stroke-linejoin="round"/>
    <path d="M452.504,179.138 C450.377,187.326 450.176,198.584 451.461,202.516 C454.335,211.205 468.497,222.45 484.172,220.942 C499.881,219.421 520.088,205.135 528.48,197.507 C519.154,218.691 489.814,245.79 446.896,236.021 C429.553,232.078 435.466,230.521 428.086,215.717 C417.512,194.55 449.174,139.668 483.053,136.29 C466.106,156.611 455.31,168.258 452.504,179.138" fill="#FFFFFE"/>
    <path d="M452.504,179.138 C450.377,187.326 450.176,198.584 451.461,202.516 C454.335,211.205 468.497,222.45 484.172,220.942 C499.881,219.421 520.088,205.135 528.48,197.507 C519.154,218.691 489.814,245.79 446.896,236.021 C429.553,232.078 435.466,230.521 428.086,215.717 C417.512,194.55 449.174,139.668 483.053,136.29 C466.106,156.611 455.31,168.258 452.504,179.138 z" fill-opacity="0" stroke="#1A1919" stroke-width="2.833" stroke-linecap="round" stroke-linejoin="round"/>
    <path d="M227.454,710.009 C241.167,706.977 238.104,682.587 233.541,664.294 C226.891,637.665 206.495,614.928 204.113,616.005 C181.772,626.071 189.375,649.024 193.408,663.237 C198.043,679.546 212.525,713.309 227.454,710.009" fill="#B27D7C"/>
    <path d="M227.454,710.009 C241.167,706.977 238.104,682.587 233.541,664.294 C226.891,637.665 206.495,614.928 204.113,616.005 C181.772,626.071 189.375,649.024 193.408,663.237 C198.043,679.546 212.525,713.309 227.454,710.009 z" fill-opacity="0" stroke="#1A1919" stroke-width="2.833" stroke-linecap="round" stroke-linejoin="round"/>
    <path d="M219.823,649.024 C224.522,639.483 211.027,630.132 210.144,617.462 C209.405,606.921 231.07,574.96 218.302,569.804 C203.443,563.802 184.89,565.493 184.269,577.876 C183.575,591.331 193.415,616.569 193.408,623.634 C193.402,631.175 198.719,652.806 206.106,655.155 C213.172,657.393 217.081,654.608 219.823,649.024" fill="#F7CFBE"/>
    <path d="M219.823,649.024 C224.522,639.483 211.027,630.132 210.144,617.462 C209.405,606.921 231.07,574.96 218.302,569.804 C203.443,563.802 184.89,565.493 184.269,577.876 C183.575,591.331 193.415,616.569 193.408,623.634 C193.402,631.175 198.719,652.806 206.106,655.155 C213.172,657.393 217.081,654.608 219.823,649.024 z" fill-opacity="0" stroke="#1A1919" stroke-width="2.833" stroke-linecap="round" stroke-linejoin="round"/>
    <path d="M143.65,714.583 C155.82,714.583 167.533,686.095 173.612,663.237 C180.68,636.708 180.533,615.813 166.064,615.923 C148.923,616.056 137.968,650.772 135.534,663.237 C132.277,679.89 125.366,714.583 143.65,714.583" fill="#B27D7C"/>
    <path d="M143.65,714.583 C155.82,714.583 167.533,686.095 173.612,663.237 C180.68,636.708 180.533,615.813 166.064,615.923 C148.923,616.056 137.968,650.772 135.534,663.237 C132.277,679.89 125.366,714.583 143.65,714.583 z" fill-opacity="0" stroke="#1A1919" stroke-width="2.833" stroke-linecap="round" stroke-linejoin="round"/>
    <path d="M158.389,548.938 C137.456,541.561 118.852,548.192 125.366,565.237 C135.466,591.624 155.859,612.46 154.307,624.659 C152.53,638.598 142.249,651.928 150.749,655.641 C174.11,665.8 173.854,632.807 172.042,620.005 C169.135,599.442 181.663,557.134 158.389,548.938" fill="#F7CFBE"/>
    <path d="M158.389,548.938 C137.456,541.561 118.852,548.192 125.366,565.237 C135.466,591.624 155.859,612.46 154.307,624.659 C152.53,638.598 142.249,651.928 150.749,655.641 C174.11,665.8 173.854,632.807 172.042,620.005 C169.135,599.442 181.663,557.134 158.389,548.938 z" fill-opacity="0" stroke="#1A1919" stroke-width="2.833" stroke-linecap="round" stroke-linejoin="round"/>
    <path d="M89.087,471.561 C89.087,471.561 92.475,502.04 89.087,515.585 C86.293,526.772 77.802,555.093 102.635,568.645 C120.834,578.567 232.466,600.723 247.254,594.165 C260.965,588.089 261.01,569.804 253.374,551.518 C264.024,537.806 273.064,524.616 277.747,507.304 C280.406,497.442 279.842,461.384 279.842,461.384 L89.087,471.561" fill="#DDB5AA"/>
    <path d="M89.087,471.561 C89.087,471.561 92.475,502.04 89.087,515.585 C86.293,526.772 77.802,555.093 102.635,568.645 C120.834,578.567 232.466,600.723 247.254,594.165 C260.965,588.089 261.01,569.804 253.374,551.518 C264.024,537.806 273.064,524.616 277.747,507.304 C280.406,497.442 279.842,461.384 279.842,461.384 L89.087,471.561 z" fill-opacity="0" stroke="#1A1919" stroke-width="2.833" stroke-linecap="round" stroke-linejoin="round"/>
    <path d="M361.688,201.752 C346.753,182.403 286.62,191.038 278.717,193.29 C255.078,200.026 213.961,198.129 163.45,201.867 C137.799,203.763 135.952,232.63 132.182,253.348 C128.025,276.248 129.164,294.807 136.145,316.907 C148.085,354.689 154.355,389.93 154.836,429.542 C155.005,443.766 154.822,458.02 154.822,472.272 C154.822,484.034 152.864,495.03 152.781,506.278 C152.649,525.04 178.961,489.524 184.802,501.229 C196.969,525.595 280.434,511.636 293.008,489.016 C294.528,470.735 275.013,439.761 273.692,417.897 C271.674,384.346 283.223,356.418 314.846,318.031 C333.696,295.151 372.153,275.597 373.461,246.25 C374.031,233.622 365.548,206.778 361.688,201.752" fill="#DDBDB6"/>
    <path d="M361.688,201.752 C346.753,182.403 286.62,191.038 278.717,193.29 C255.078,200.026 213.961,198.129 163.45,201.867 C137.799,203.763 135.952,232.63 132.182,253.348 C128.025,276.248 129.164,294.807 136.145,316.907 C148.085,354.689 154.355,389.93 154.836,429.542 C155.005,443.766 154.822,458.02 154.822,472.272 C154.822,484.034 152.864,495.03 152.781,506.278 C152.649,525.04 178.961,489.524 184.802,501.229 C196.969,525.595 280.434,511.636 293.008,489.016 C294.528,470.735 275.013,439.761 273.692,417.897 C271.674,384.346 283.223,356.418 314.846,318.031 C333.696,295.151 372.153,275.597 373.461,246.25 C374.031,233.622 365.548,206.778 361.688,201.752 z" fill-opacity="0" stroke="#1A1919" stroke-width="2.833" stroke-linecap="round" stroke-linejoin="round"/>
    <path d="M82.669,410.788 C79.889,402.936 40.024,359.504 36.954,351.877 C32.357,340.447 8.08,240.497 12.59,229.94 C18.394,216.364 60.122,210.558 72.13,206.83 C86.623,202.317 99.201,198.602 111.063,210.228 C121.249,220.198 120.984,248.941 124.108,261.998 C126.847,273.414 128.956,285.065 132.172,296.363 C137.638,315.577 148.96,332.182 152.895,352.351 C154.75,361.892 155.905,369.436 159.897,377.991 C162.411,383.405 180.865,401.934 184.282,406.731 C194.427,420.966 199.529,451.376 199.512,467.665 C199.484,489.487 192.469,528.454 192.387,530.167 C162.917,531.708 136.892,521.016 110.096,510.37 C102.511,507.348 74.9,490.868 68.769,481.72 C66.994,479.054 87.337,423.983 82.669,410.788" fill="#DDBDB6"/>
    <path d="M82.669,410.788 C79.889,402.936 40.024,359.504 36.954,351.877 C32.357,340.447 8.08,240.497 12.59,229.94 C18.394,216.364 60.122,210.558 72.13,206.83 C86.623,202.317 99.201,198.602 111.063,210.228 C121.249,220.198 120.984,248.941 124.108,261.998 C126.847,273.414 128.956,285.065 132.172,296.363 C137.638,315.577 148.96,332.182 152.895,352.351 C154.75,361.892 155.905,369.436 159.897,377.991 C162.411,383.405 180.865,401.934 184.282,406.731 C194.427,420.966 199.529,451.376 199.512,467.665 C199.484,489.487 192.469,528.454 192.387,530.167 C162.917,531.708 136.892,521.016 110.096,510.37 C102.511,507.348 74.9,490.868 68.769,481.72 C66.994,479.054 87.337,423.983 82.669,410.788 z" fill-opacity="0" stroke="#1A1919" stroke-width="2.833" stroke-linecap="round" stroke-linejoin="round"/>
    <path d="M153.793,377.278 C120.893,380.848 120.902,349.034 115.134,327.834 C110.424,310.555 110.434,292.793 111.107,274.866 C111.781,256.68 114.169,243.35 133.051,237.465 C147.424,232.987 172.288,229.915 186.614,236.32 C244.756,262.349 198.654,324.135 181.435,361.576 C175.595,374.282 168.556,375.669 153.793,377.278" fill="#FFFFFE"/>
    <path d="M153.793,377.278 C120.893,380.848 120.902,349.034 115.134,327.834 C110.424,310.555 110.434,292.793 111.107,274.866 C111.781,256.68 114.169,243.35 133.051,237.465 C147.424,232.987 172.288,229.915 186.614,236.32 C244.756,262.349 198.654,324.135 181.435,361.576 C175.595,374.282 168.556,375.669 153.793,377.278 z" fill-opacity="0" stroke="#1A1919" stroke-width="2.833" stroke-linecap="round" stroke-linejoin="round"/>
    <path d="M123.681,196.996 C111.563,225.922 102.052,284.006 110.096,313.742 C131.407,314.223 189.461,265.203 194.034,261.01 C176.37,249.316 142.303,207.019 123.681,196.996" fill="#FFFFFE"/>
    <path d="M123.681,196.996 C111.563,225.922 102.052,284.006 110.096,313.742 C131.407,314.223 189.461,265.203 194.034,261.01 C176.37,249.316 142.303,207.019 123.681,196.996 z" fill-opacity="0" stroke="#1A1919" stroke-width="2.833" stroke-linecap="round" stroke-linejoin="round"/>
    <path d="M147.47,238.151 L194.884,330.438 L239.14,248.228 L147.47,238.151" fill="#FFFFFE"/>
    <path d="M147.47,238.151 L194.884,330.438 L239.14,248.228 L147.47,238.151 z" fill-opacity="0" stroke="#1A1919" stroke-width="2.833" stroke-linecap="round" stroke-linejoin="round"/>
    <path d="M209.688,321.397 C210.727,305.139 212.632,211.237 217.058,203.638 C253.319,239.009 248.236,272.05 249.076,288.967 C240.233,298.001 224.912,311.218 209.688,321.397" fill="#DDBDB6"/>
    <path d="M209.688,321.397 C210.727,305.139 212.632,211.237 217.058,203.638 C253.319,239.009 248.236,272.05 249.076,288.967 C240.233,298.001 224.912,311.218 209.688,321.397 z" fill-opacity="0" stroke="#1A1919" stroke-width="2.833" stroke-linecap="round" stroke-linejoin="round"/>
    <path d="M151.771,384.388 C178.164,354.933 206.243,288.372 210.682,280.77 C228.688,322.362 237.111,324.458 248.29,335.624 C239.444,344.66 186.309,382.364 151.771,384.388" fill="#DDBDB6"/>
    <path d="M151.771,384.388 C178.164,354.933 206.243,288.372 210.682,280.77 C228.688,322.362 237.111,324.458 248.29,335.624 C239.444,344.66 186.309,382.364 151.771,384.388 z" fill-opacity="0" stroke="#1A1919" stroke-width="2.833" stroke-linecap="round" stroke-linejoin="round"/>
    <path d="M121.266,321.377 C120.232,305.127 118.322,211.216 113.887,203.62 C95.882,245.211 87.773,268.296 80.649,283.774 C89.498,292.805 106.052,311.204 121.266,321.377" fill="#DDBDB6"/>
    <path d="M121.266,321.377 C120.232,305.127 118.322,211.216 113.887,203.62 C95.882,245.211 87.773,268.296 80.649,283.774 C89.498,292.805 106.052,311.204 121.266,321.377 z" fill-opacity="0" stroke="#1A1919" stroke-width="2.833" stroke-linecap="round" stroke-linejoin="round"/>
    <path d="M176.131,396.544 C149.737,367.091 124.72,288.352 120.273,280.751 C102.271,322.352 93.842,324.447 82.669,335.606 C91.518,344.649 141.584,394.52 176.131,396.544" fill="#DDBDB6"/>
    <path d="M176.131,396.544 C149.737,367.091 124.72,288.352 120.273,280.751 C102.271,322.352 93.842,324.447 82.669,335.606 C91.518,344.649 141.584,394.52 176.131,396.544 z" fill-opacity="0" stroke="#1A1919" stroke-width="2.833" stroke-linecap="round" stroke-linejoin="round"/>
    <g>
      <path d="M73.753,108.379 C89.543,58.781 113.604,29.974 135.753,17.574 C177.445,-5.754 239.452,-1.009 275.013,19.596 C315.512,43.062 333.688,94.646 330.151,137.844 C328.312,160.411 319.202,197.306 310.351,218.691 C304.652,232.484 279.87,264.976 266.321,286.423 C259.553,288.677 254.322,286.286 246.711,285.37 C244.459,283.887 256.678,258.429 255.038,252.556 C254.386,252.141 234.619,288.161 233.986,287.743 C228.046,289.368 210.81,281.859 206.944,282.428 C198.222,273.016 172.852,274.65 163.519,272.72 C147.771,269.492 121.112,259.682 96.019,249.071 C94.361,248.362 88.685,222.195 87.05,221.545 C85.017,220.721 85.879,247.262 83.911,246.535 C72.577,242.291 67.046,237.638 59.021,233.884 C64.711,196.957 64.267,138.138 73.753,108.379" fill="#8A6259"/>
      <path d="M73.753,108.379 C89.543,58.781 113.604,29.974 135.753,17.574 C177.445,-5.754 239.452,-1.009 275.013,19.596 C315.512,43.062 333.688,94.646 330.151,137.844 C328.312,160.411 319.202,197.306 310.351,218.691 C304.652,232.484 279.87,264.976 266.321,286.423 C259.553,288.677 254.322,286.286 246.711,285.37 C244.459,283.887 256.678,258.429 255.038,252.556 C254.386,252.141 234.619,288.161 233.986,287.743 C228.046,289.368 210.81,281.859 206.944,282.428 C198.222,273.016 172.852,274.65 163.519,272.72 C147.771,269.492 121.112,259.682 96.019,249.071 C94.361,248.362 88.685,222.195 87.05,221.545 C85.017,220.721 85.879,247.262 83.911,246.535 C72.577,242.291 67.046,237.638 59.021,233.884 C64.711,196.957 64.267,138.138 73.753,108.379 z" fill-opacity="0" stroke="#1A1919" stroke-width="2.833" stroke-linecap="round" stroke-linejoin="round"/>
    </g>
    <path d="M280.398,218.896 C299.915,191.577 294.266,121.401 286.321,109.456 C282.261,123.268 281.24,139.94 278.38,149.415 C269.646,149.565 264.064,150.829 257.098,147.499 C257.856,147.355 266.914,105.413 263.407,96.242 C258.383,111.154 248.227,144.174 239.759,147.556 C228.519,149.076 224.891,146.563 217.54,145.78 C222.156,134.591 231.116,104.856 230.815,92.981 C225.851,109.502 214.299,132.109 201.656,141.629 C196.751,138.377 187.376,137.618 177.949,133.163 C185.329,121.328 201.543,96.673 200.795,82.729 C187.93,90.567 176.853,119.508 166.096,129.776 C159.214,124.537 142.732,118.13 144.08,111.154 C150.939,100.917 164.146,88.153 169.736,74.557 C151.405,77.579 101.965,114.597 97.67,165.712 C86.83,157.734 85.705,150.957 83.192,138.806 C76.15,144.404 64.736,175.701 90.198,184.226 C91.346,233.363 130.605,284.489 161.337,294.325 C189.563,303.356 238.104,281.908 272.043,243.284 C284.298,255.648 302.408,224.058 300.884,208.118 C293.344,214.544 288.953,217.204 280.398,218.896" fill="#F7CFBE"/>
    <path d="M280.398,218.896 C299.915,191.577 294.266,121.401 286.321,109.456 C282.261,123.268 281.24,139.94 278.38,149.415 C269.646,149.565 264.064,150.829 257.098,147.499 C257.856,147.355 266.914,105.413 263.407,96.242 C258.383,111.154 248.227,144.174 239.759,147.556 C228.519,149.076 224.891,146.563 217.54,145.78 C222.156,134.591 231.116,104.856 230.815,92.981 C225.851,109.502 214.299,132.109 201.656,141.629 C196.751,138.377 187.376,137.618 177.949,133.163 C185.329,121.328 201.543,96.673 200.795,82.729 C187.93,90.567 176.853,119.508 166.096,129.776 C159.214,124.537 142.732,118.13 144.08,111.154 C150.939,100.917 164.146,88.153 169.736,74.557 C151.405,77.579 101.965,114.597 97.67,165.712 C86.83,157.734 85.705,150.957 83.192,138.806 C76.15,144.404 64.736,175.701 90.198,184.226 C91.346,233.363 130.605,284.489 161.337,294.325 C189.563,303.356 238.104,281.908 272.043,243.284 C284.298,255.648 302.408,224.058 300.884,208.118 C293.344,214.544 288.953,217.204 280.398,218.896 z M138.157,136.55 C148.317,123.849 175.408,128.084 182.183,148.404 M221.975,163.644 C230.444,141.629 259.229,145.017 260.641,169.005 M191.816,201.757 C188.432,207.402 188.957,216.986 188.957,216.986 C188.957,216.986 201.98,214.717 203.111,223.204 C204.677,234.99 187.266,240.123 187.266,240.123" fill-opacity="0" stroke="#1A1919" stroke-width="2.833" stroke-linecap="round" stroke-linejoin="round"/>
    <path d="M151.546,234.363 C150.011,252.544 155.934,270.322 166.096,275.404 C177.635,281.168 195.212,265.524 201.656,250.006 C190.814,259.363 157.328,253.073 151.546,234.363" fill="#C65F54"/>
    <path d="M151.546,234.363 C150.011,252.544 155.934,270.322 166.096,275.404 C177.635,281.168 195.212,265.524 201.656,250.006 C190.814,259.363 157.328,253.073 151.546,234.363 z" fill-opacity="0" stroke="#1A1919" stroke-width="2.638" stroke-linecap="round" stroke-linejoin="round"/>
    <path d="M157.629,167.878 C166.945,172.111 159.515,183.563 152.549,180.578 C144.645,177.19 151.378,165.035 157.629,167.878" fill="#1A1919"/>
    <path d="M231.29,186.506 C242.38,187.357 236.939,202.397 228.183,198.357 C224.516,196.664 223.951,185.937 231.29,186.506" fill="#1A1919"/>
    <path d="M169.928,412.122 C190.022,414.999 182.219,433.876 166.238,426.848 C155.705,422.218 156.289,410.169 169.928,412.122" fill="#FFFFFE"/>
    <path d="M169.928,412.122 C190.022,414.999 182.219,433.876 166.238,426.848 C155.705,422.218 156.289,410.169 169.928,412.122 z" fill-opacity="0" stroke="#1A1919" stroke-width="2.833" stroke-linecap="round" stroke-linejoin="round"/>
    <path d="M131.807,404.514 C147.788,407.216 144.09,426.262 128.117,419.233 C117.573,414.602 118.214,402.222 131.807,404.514" fill="#FFFFFE"/>
    <path d="M131.807,404.514 C147.788,407.216 144.09,426.262 128.117,419.233 C117.573,414.602 118.214,402.222 131.807,404.514 z" fill-opacity="0" stroke="#1A1919" stroke-width="2.833" stroke-linecap="round" stroke-linejoin="round"/>
    <path d="M180.191,452.559 C197.138,455.112 190.551,471.893 177.084,465.641 C168.191,461.526 168.686,450.811 180.191,452.559" fill="#FFFFFE"/>
    <path d="M180.191,452.559 C197.138,455.112 190.551,471.893 177.084,465.641 C168.191,461.526 168.686,450.811 180.191,452.559 z" fill-opacity="0" stroke="#1A1919" stroke-width="2.833" stroke-linecap="round" stroke-linejoin="round"/>
    <path d="M140.54,445.456 C157.482,448.02 150.895,464.8 137.421,458.556 C128.538,454.43 129.038,443.72 140.54,445.456" fill="#FFFFFE"/>
    <path d="M140.54,445.456 C157.482,448.02 150.895,464.8 137.421,458.556 C128.538,454.43 129.038,443.72 140.54,445.456 z" fill-opacity="0" stroke="#1A1919" stroke-width="2.833" stroke-linecap="round" stroke-linejoin="round"/>
    <g>
      <path d="M44.069,319.347 C46.846,338.337 46.215,356.791 56.276,373.184 C65.699,388.516 93.715,403.352 109.654,411.706 C99.974,421.944 97.606,436.794 102.635,451.239 C68.769,458.014 16.144,405.649 10.067,378.993 C7.162,366.245 8.65,309.505 5.466,292.917 C-1.65,279.722 -0.629,224.639 18.668,225.372 C18.668,263.5 41.308,300.533 44.069,319.347" fill="#DDBDB6"/>
      <path d="M44.069,319.347 C46.846,338.337 46.215,356.791 56.276,373.184 C65.699,388.516 93.715,403.352 109.654,411.706 C99.974,421.944 97.606,436.794 102.635,451.239 C68.769,458.014 16.144,405.649 10.067,378.993 C7.162,366.245 8.65,309.505 5.466,292.917 C-1.65,279.722 -0.629,224.639 18.668,225.372 C18.668,263.5 41.308,300.533 44.069,319.347 z" fill-opacity="0" stroke="#1A1919" stroke-width="2.833" stroke-linecap="round" stroke-linejoin="round"/>
    </g>
    <path d="M481.95,130.871 C453.031,150.669 403.719,169.959 393.849,174.652 C372.406,184.833 376.956,181.262 358.287,189.888 C343.632,196.668 300.697,237.861 299.034,253.671 C296.784,275.144 313.434,316.565 322.727,311.249 C338.553,302.214 371.307,284.152 415.322,264.981 C431.831,258.054 468.292,244.963 489.814,233.356 C513.874,220.36 521.414,215.312 529.316,193.842 C518.03,226.596 484.971,234.666 462.734,232.229 C452.904,231.157 444.448,223.619 441.26,216.439 C437.015,206.906 438.92,190.863 441.26,181.433 C445.839,163.109 460.457,145.302 481.95,130.871" fill="#DDBDB6"/>
    <path d="M481.95,130.871 C453.031,150.669 403.719,169.959 393.849,174.652 C372.406,184.833 376.956,181.262 358.287,189.888 C343.632,196.668 300.697,237.861 299.034,253.671 C296.784,275.144 313.434,316.565 322.727,311.249 C338.553,302.214 371.307,284.152 415.322,264.981 C431.831,258.054 468.292,244.963 489.814,233.356 C513.874,220.36 521.414,215.312 529.316,193.842 C518.03,226.596 484.971,234.666 462.734,232.229 C452.904,231.157 444.448,223.619 441.26,216.439 C437.015,206.906 438.92,190.863 441.26,181.433 C445.839,163.109 460.457,145.302 481.95,130.871 z M3.452,286.83 C7.772,304.492 12.299,313.505 22.458,324.81" fill-opacity="0" stroke="#1A1919" stroke-width="2.833" stroke-linecap="round" stroke-linejoin="round"/>
    <path d="M73.417,399.319 C80.329,381.104 93.905,393.743 107.705,397.6 C115.555,399.79 135.078,411.872 141.1,417.425 C154.472,414.145 148.919,440.489 144.457,448.151 C138.464,458.436 116.88,463.282 103.837,458.587 C92.868,454.645 84.321,448.118 78.799,440.489 C70.463,428.956 68.915,411.188 73.417,399.319" fill="#F7CFBE"/>
    <path d="M73.417,399.319 C80.329,381.104 93.905,393.743 107.705,397.6 C115.555,399.79 135.078,411.872 141.1,417.425 C154.472,414.145 148.919,440.489 144.457,448.151 C138.464,458.436 116.88,463.282 103.837,458.587 C92.868,454.645 84.321,448.118 78.799,440.489 C70.463,428.956 68.915,411.188 73.417,399.319 z" fill-opacity="0" stroke="#1A1919" stroke-width="2.774" stroke-linecap="round" stroke-linejoin="round"/>
    <path d="M124.692,421.536 C125.941,413.534 125.106,399.136 139.999,406.456 C148.9,410.837 143.963,432.702 136.737,440.063" fill="#F7CFBE"/>
    <path d="M124.692,421.536 C125.941,413.534 125.106,399.136 139.999,406.456 C148.9,410.837 143.963,432.702 136.737,440.063" fill-opacity="0" stroke="#1A1919" stroke-width="2.774" stroke-linecap="round" stroke-linejoin="round"/>
    <path d="M71.94,404.514 C74.955,393.612 83.661,383.007 93.696,380.028 C100.466,378.014 120.721,382.753 115.691,394.62 C124.893,407.929 103.829,396.841 92.657,396.604" fill="#F7CFBE"/>
    <path d="M71.94,404.514 C74.955,393.612 83.661,383.007 93.696,380.028 C100.466,378.014 120.721,382.753 115.691,394.62 C124.893,407.929 103.829,396.841 92.657,396.604" fill-opacity="0" stroke="#1A1919" stroke-width="2.774" stroke-linecap="round" stroke-linejoin="round"/>
    <path d="M115.691,412.401 C118.802,406.366 122.409,397.61 128.874,398.768 C139.698,400.704 134.736,427.204 121.734,431.182" fill="#F7CFBE"/>
    <path d="M115.691,412.401 C118.802,406.366 122.409,397.61 128.874,398.768 C139.698,400.704 134.736,427.204 121.734,431.182" fill-opacity="0" stroke="#1A1919" stroke-width="2.774" stroke-linecap="round" stroke-linejoin="round"/>
    <path d="M91.672,405.487 C97.15,410.837 105.887,406.145 108.848,403.171 C112.101,399.868 111.289,389.464 118.852,392.175 C129.867,396.124 123.854,419.888 106.328,424.005" fill="#F7CFBE"/>
    <path d="M91.672,405.487 C97.15,410.837 105.887,406.145 108.848,403.171 C112.101,399.868 111.289,389.464 118.852,392.175 C129.867,396.124 123.854,419.888 106.328,424.005" fill-opacity="0" stroke="#1A1919" stroke-width="2.774" stroke-linecap="round" stroke-linejoin="round"/>
    <g>
      <path d="M567.734,180.31 C567.524,182.166 586.891,182.537 597.049,179.164 C614.018,173.534 616.724,148.433 614.018,129.509 C611.764,113.701 602.688,96.753 590.274,91.111 C584.052,88.285 563.184,78.695 549.635,76.438 C536.589,74.261 523.706,71.935 513.548,73.066 C504.505,74.069 491.661,78.265 485.285,86.599 C470.616,105.791 467.044,128.189 468.267,146.908 C459.956,174.654 467.72,191.897 478.087,199.14 C489.377,206.987 501.894,210.886 517.264,209.281 C524.316,208.534 569.598,164.157 567.734,180.31" fill="#F7CFBE"/>
      <path d="M567.734,180.31 C567.524,182.166 586.891,182.537 597.049,179.164 C614.018,173.534 616.724,148.433 614.018,129.509 C611.764,113.701 602.688,96.753 590.274,91.111 C584.052,88.285 563.184,78.695 549.635,76.438 C536.589,74.261 523.706,71.935 513.548,73.066 C504.505,74.069 491.661,78.265 485.285,86.599 C470.616,105.791 467.044,128.189 468.267,146.908 C459.956,174.654 467.72,191.897 478.087,199.14 C489.377,206.987 501.894,210.886 517.264,209.281 C524.316,208.534 569.598,164.157 567.734,180.31 z" fill-opacity="0" stroke="#1A1919" stroke-width="2.833" stroke-linecap="round" stroke-linejoin="round"/>
    </g>
    <path d="M591.404,113.691 C599.3,138.528 591.769,167.241 585.724,176.544 C577.814,188.662 558.984,179.067 545.891,176.103 C498.65,165.234 561.263,156.118 554.092,145.803" fill="#F7CFBE"/>
    <path d="M591.404,113.691 C599.3,138.528 591.769,167.241 585.724,176.544 C577.814,188.662 558.984,179.067 545.891,176.103 C498.65,165.234 561.263,156.118 554.092,145.803" fill-opacity="0" stroke="#1A1919" stroke-width="2.833" stroke-linecap="round" stroke-linejoin="round"/>
    <path d="M557.534,100.142 C566.504,131.69 570.817,158.15 557.293,170.118 C547.212,179.026 553.643,181.572 541.025,186.182 C533.267,188.968 515.715,183.879 511.484,176.009 C505.237,164.42 518.586,159.237 524.749,151.868 C531.531,143.732 527.527,125.692 521.865,119.244" fill="#F7CFBE"/>
    <path d="M557.534,100.142 C566.504,131.69 570.817,158.15 557.293,170.118 C547.212,179.026 553.643,181.572 541.025,186.182 C533.267,188.968 515.715,183.879 511.484,176.009 C505.237,164.42 518.586,159.237 524.749,151.868 C531.531,143.732 527.527,125.692 521.865,119.244" fill-opacity="0" stroke="#1A1919" stroke-width="2.833" stroke-linecap="round" stroke-linejoin="round"/>
    <path d="M520.699,96.067 C526.124,107.463 535.797,128.398 535.769,141.748 C539.472,171.265 525.046,177.121 511.798,173.313 C496.137,168.805 502.368,167.45 499.497,143.472 C497.789,133.894 493.621,129.66 488.87,119.435" fill="#F7CFBE"/>
    <path d="M520.699,96.067 C526.124,107.463 535.797,128.398 535.769,141.748 C539.472,171.265 525.046,177.121 511.798,173.313 C496.137,168.805 502.368,167.45 499.497,143.472 C497.789,133.894 493.621,129.66 488.87,119.435" fill-opacity="0" stroke="#1A1919" stroke-width="2.833" stroke-linecap="round" stroke-linejoin="round"/>
    <path d="M486.359,135.411 C494.004,158.785 505.264,171.716 515.742,174.304 C545.426,160.008 570.628,177.285 573.615,183.875 C577.65,192.796 573.328,202.602 551.13,203.687 C534.064,204.513 529.701,206.946 514.394,209.87" fill="#F7CFBE"/>
    <path d="M486.359,135.411 C494.004,158.785 505.264,171.716 515.742,174.304 C545.426,160.008 570.628,177.285 573.615,183.875 C577.65,192.796 573.328,202.602 551.13,203.687 C534.064,204.513 529.701,206.946 514.394,209.87" fill-opacity="0" stroke="#1A1919" stroke-width="2.833" stroke-linecap="round" stroke-linejoin="round"/>
    <path d="M502.223,178.055 C514.375,175.037 517.077,173.591 533.852,169.017" fill="#F9DCE3"/>
    <path d="M502.223,178.055 C514.375,175.037 517.077,173.591 533.852,169.017 M324.432,201.752 C308.068,225.468 300.159,244.662 300.159,250.293 M254.153,553.968 C251.616,545.487 248.236,528.571 256.418,517.977 M276.462,384.638 C267.435,406.083 260.65,420.77 261.774,435.434" fill-opacity="0" stroke="#1A1919" stroke-width="2.833" stroke-linecap="round" stroke-linejoin="round"/>
  </g>
</svg>
