<?xml version="1.0"?>
<svg xmlns:rdf="http://www.w3.org/1999/02/22-rdf-syntax-ns#" xmlns="http://www.w3.org/2000/svg" xmlns:cc="http://creativecommons.org/ns#" xmlns:xlink="http://www.w3.org/1999/xlink" xmlns:dc="http://purl.org/dc/elements/1.1/" xmlns:svg="http://www.w3.org/2000/svg" id="svg2" viewBox="0 0 619.03 615.4" version="1.1">
  <defs id="defs4">
    <linearGradient id="linearGradient4140">
      <stop id="stop4142" stop-color="#fff" offset="0"/>
      <stop id="stop4144" stop-color="#fff" stop-opacity="0" offset="1"/>
    </linearGradient>
    <filter id="filter3727" height="1.4354" width="1.4354" y="-.21772" x="-.21772" color-interpolation-filters="sRGB">
      <feGaussianBlur id="feGaussianBlur3729" stdDeviation="4.1903115"/>
    </filter>
    <radialGradient id="radialGradient3460" gradientUnits="userSpaceOnUse" cy="230.54" cx="240.58" gradientTransform="matrix(1 0 0 1.285 0 -68.767)" r="43.227">
      <stop id="stop3216" stop-color="#fff" offset="0"/>
      <stop id="stop3222" stop-color="#d5ddec" offset=".84596"/>
      <stop id="stop3218" stop-color="#c8d3e6" offset="1"/>
    </radialGradient>
    <radialGradient id="radialGradient2391" gradientUnits="userSpaceOnUse" cy="120.74" cx="302.07" gradientTransform="matrix(.81629 .98259 -.84587 .70272 139.57 -177.99)" r="210.97">
      <stop id="stop2387" stop-color="#666" offset="0"/>
      <stop id="stop2389" offset="1"/>
    </radialGradient>
    <linearGradient id="linearGradient3187" y2="62.162" gradientUnits="userSpaceOnUse" x2="318.1" y1="292.93" x1="318.1">
      <stop id="stop3191" stop-opacity="0" offset="0"/>
      <stop id="stop3193" stop-color="#fff" offset="1"/>
    </linearGradient>
    <filter id="filter3424" height="1.2729" width="1.2191" y="-.13645" x="-.10954" color-interpolation-filters="sRGB">
      <feGaussianBlur id="feGaussianBlur3426" stdDeviation="2.1361316"/>
    </filter>
    <filter id="filter3543" height="1.2835" width="1.2835" y="-.14177" x="-.14177" color-interpolation-filters="sRGB">
      <feGaussianBlur id="feGaussianBlur3545" stdDeviation="1.0459538"/>
    </filter>
    <linearGradient id="linearGradient3553" y2="248.68" gradientUnits="userSpaceOnUse" x2="247.3" y1="214.77" x1="245.58">
      <stop id="stop3549" stop-color="#fff" offset="0"/>
      <stop id="stop3551" stop-color="#fff" stop-opacity="0" offset="1"/>
    </linearGradient>
    <linearGradient id="linearGradient3808" y2="249.64" gradientUnits="userSpaceOnUse" x2="245.58" y1="214.77" x1="245.58">
      <stop id="stop3802" stop-color="#fff" offset="0"/>
      <stop id="stop3804" stop-color="#fff" stop-opacity="0" offset="1"/>
    </linearGradient>
    <filter id="filter3326" height="1.4352" width="1.5701" y="-.21758" x="-.28505" color-interpolation-filters="sRGB">
      <feGaussianBlur id="feGaussianBlur3328" stdDeviation="10.215508"/>
    </filter>
    <linearGradient id="linearGradient3665" y2="612.85" gradientUnits="userSpaceOnUse" y1="304.91" x2="293.94" x1="293.94">
      <stop id="stop3692" stop-color="#fff" offset="0"/>
      <stop id="stop3696" stop-color="#808080" stop-opacity="0" offset="1"/>
    </linearGradient>
    <linearGradient id="linearGradient3688" y2="458.88" gradientUnits="userSpaceOnUse" x2="293.94" y1="612.85" x1="293.94">
      <stop id="stop2868-3" stop-color="#fff" offset="0"/>
      <stop id="stop2870-1" stop-color="#e6e6e6" stop-opacity="0" offset="1"/>
    </linearGradient>
    <linearGradient id="linearGradient3708" y2="407.9" xlink:href="#linearGradient4140" gradientUnits="userSpaceOnUse" x2="109.98" y1="393.61" x1="93.031"/>
    <filter id="filter3728" color-interpolation-filters="sRGB">
      <feGaussianBlur id="feGaussianBlur3730" stdDeviation="1.3360048"/>
    </filter>
    <radialGradient id="radialGradient3761" gradientUnits="userSpaceOnUse" cy="315.81" cx="339.21" gradientTransform="matrix(1 0 0 .63989 8 116.19)" r="86.499">
      <stop id="stop3757" stop-color="#fca" offset="0"/>
      <stop id="stop3759" stop-color="#f60" offset="1"/>
    </radialGradient>
    <linearGradient id="linearGradient3773" y2="357.74" gradientUnits="userSpaceOnUse" x2="341.4" y1="298.59" x1="341.4">
      <stop id="stop3767" stop-color="#fff" offset="0"/>
      <stop id="stop3769" stop-color="#fff" stop-opacity="0" offset="1"/>
    </linearGradient>
    <filter id="filter3826" height="1.754" width="1.16" y="-.37701" x="-.080006" color-interpolation-filters="sRGB">
      <feGaussianBlur id="feGaussianBlur3828" stdDeviation="1.8958896"/>
    </filter>
    <radialGradient id="radialGradient4160" gradientUnits="userSpaceOnUse" cy="571.93" cx="225.18" gradientTransform="matrix(-5.0493e-7 .77072 -1.5466 -.0000010505 1109.7 422.16)" r="94.872">
      <stop id="stop4132" stop-color="#f95" offset="0"/>
      <stop id="stop4134" stop-color="#a40" offset="1"/>
    </radialGradient>
    <linearGradient id="linearGradient4162" y2="625.7" xlink:href="#linearGradient4140" gradientUnits="userSpaceOnUse" x2="223.83" y1="581.09" x1="223.83"/>
    <linearGradient id="linearGradient4180" y2="559.7" gradientUnits="userSpaceOnUse" x2="339.23" y1="647.26" x1="339.23">
      <stop id="stop4176" stop-color="#333" offset="0"/>
      <stop id="stop4178" stop-color="#999" stop-opacity="0" offset="1"/>
    </linearGradient>
    <filter id="filter4208" height="1.0936" width="1.3122" y="-.046793" x="-.15608" color-interpolation-filters="sRGB">
      <feGaussianBlur id="feGaussianBlur4210" stdDeviation="1.0952639"/>
    </filter>
    <radialGradient id="radialGradient4220" gradientUnits="userSpaceOnUse" cy="323.81" cx="331.98" gradientTransform="matrix(1.2134e-7 1.7713 -.76175 5.2183e-8 593.87 -283.26)" r="92.835">
      <stop id="stop4216" offset="0"/>
      <stop id="stop4218" stop-color="#666" stop-opacity="0" offset="1"/>
    </radialGradient>
  </defs>
  <g id="layer1" transform="translate(-36.826 -35.435)">
    <g id="g3737" transform="matrix(-1 0 0 1 687.68 -8)">
      <path id="path3739" d="m130.76 318.72c-2.4726 48.216-65.51 100.28-82.833 123.63-17.903 24.139-14.69 37.284 13.599 19.781 29.887-18.492 44.507-24.726 81.597-32.144 41.379-8.2757 14.836-137.23-12.363-111.27z"/>
      <path id="path3741" d="m137.8 330.61c-6.2503 23.215-47.858 75.801-71.729 97.921-12.759 11.823-29.763 33.037-20.834 30.061 8.9289-2.9763 35.121-27.382 45.538-36.906 10.417-9.5242 36.013-41.966 45.538-47.919 9.5242-5.9526 8.6313-56.55 1.4882-43.157z" fill="url(#linearGradient3708)"/>
      <path id="path3743" opacity=".41418" filter="url(#filter3728)" d="m138.31 421.7c-35.198 7.3979-50.934 14.242-77.436 32.92-8.6294 6.082-9.5913 10.663 1.2423 3.7268 25.256-16.169 45.157-25.157 74.744-30.436 11.431-2.0394 15.943-7.6607 1.4493-6.2114z" fill="#fff"/>
    </g>
    <g id="g3732" transform="translate(8,-8)">
      <path id="path3698" d="m130.76 318.72c-2.4726 48.216-65.51 100.28-82.833 123.63-17.903 24.139-14.69 37.284 13.599 19.781 29.887-18.492 44.507-24.726 81.597-32.144 41.379-8.2757 14.836-137.23-12.363-111.27z"/>
      <path id="path3700" d="m137.8 330.61c-6.2503 23.215-47.858 75.801-71.729 97.921-12.759 11.823-29.763 33.037-20.834 30.061 8.9289-2.9763 35.121-27.382 45.538-36.906 10.417-9.5242 36.013-41.966 45.538-47.919 9.5242-5.9526 8.6313-56.55 1.4882-43.157z" fill="url(#linearGradient3708)"/>
      <path id="path3710" opacity=".41418" filter="url(#filter3728)" d="m138.31 421.7c-35.198 7.3979-50.934 14.242-77.436 32.92-8.6294 6.082-9.5913 10.663 1.2423 3.7268 25.256-16.169 45.157-25.157 74.744-30.436 11.431-2.0394 15.943-7.6607 1.4493-6.2114z" fill="#fff"/>
    </g>
    <path id="path2383" d="m553.52 262.41a210.47 210.47 0 1 1 -420.94 0 210.47 210.47 0 1 1 420.94 0z" fill-rule="evenodd" transform="matrix(.99956 0 0 1.4054 4.151 -28.962)" stroke="#000" stroke-width="1px" fill="url(#radialGradient2391)"/>
    <path id="path3686" d="m407.32 458.88a113.38 153.97 0 1 1 -226.76 0 113.38 153.97 0 1 1 226.76 0z" style="color:#000000" fill="url(#linearGradient3688)" transform="matrix(1.8114 0 0 1.6845 -184.78 -395.69)"/>
    <path id="path2864" d="m407.32 458.88a113.38 153.97 0 1 1 -226.76 0 113.38 153.97 0 1 1 226.76 0z" style="color:#000000" fill="url(#linearGradient3665)" transform="matrix(1.4839 0 0 1.1361 -88.516 -61.583)"/>
  </g>
  <g id="layer4" transform="translate(-36.826 -35.435)">
    <path id="path3830" d="m348.63 468.45c-32.65 0-73.444-82.97-82.513-98.102-9.0694-15.131-15.673-35.519-9.0694-50.438 7.2555-16.392 35.37-31.305 90.158-31.305 54.787 0 82.902 14.913 90.158 31.305 6.6034 14.919 0 35.306-9.0694 50.438-9.0694 15.131-47.015 98.102-79.664 98.102z" fill="url(#radialGradient4220)"/>
    <path id="path3752" d="m347.21 392.22c-30.421 0-67.104-37.182-75.555-47.322-8.4504-10.14-14.603-23.803-8.4504-33.802 6.7603-10.986 32.957-29.576 84.005-29.576s77.245 18.591 84.005 29.576c6.1527 9.9982 0 23.661-8.4504 33.802-8.4504 10.14-45.133 47.322-75.555 47.322z" fill="url(#radialGradient3761)"/>
    <path id="path3763" d="m387.87 328.16a46.477 29.576 0 1 1 -92.954 0 46.477 29.576 0 1 1 92.954 0z" style="color:#000000" fill="url(#linearGradient3773)" transform="matrix(1.3091 0 0 1 -99.523 -12)"/>
    <path id="path3780" opacity=".61" style="color:#000000" d="m320 375.46c7.3497 7.4508 17.368 12.069 28.436 12.069 11.069 0 21.087-4.6181 28.436-12.069-2.4869 1.2703-5.0651 2.4602-7.8117 3.3892-3.1703 1.0723-6.5109 1.874-9.961 2.4386-3.4501 0.56455-7.0048 0.86797-10.664 0.86797-3.6588 0-7.2135-0.30342-10.664-0.86797-3.4501-0.56455-6.7906-1.3663-9.961-2.4386-2.7466-0.92899-5.3248-2.1189-7.8117-3.3892z" filter="url(#filter3826)" fill="#fff"/>
    <path id="path4164" d="m479.2 588.8a139.97 58.459 0 1 1 -279.95 0 139.97 58.459 0 1 1 279.95 0z" style="color:#000000" fill="url(#linearGradient4180)" transform="matrix(.76515 0 0 1.0011 87.669 -8.622)"/>
    <g id="g4150" transform="translate(8,-26)">
      <path id="path4128" fill="url(#radialGradient4160)" d="m152.81 668.82h154.53c20.802 0 29.717-98.086-84.694-96.724-114.41 1.3623-102.52 98.086-69.836 96.724z"/>
      <path id="path4138" d="m287.94 615.4c0 18.946-28.703 34.305-64.111 34.305-35.407 0-64.111-15.359-64.111-34.305s28.703-34.305 64.111-34.305c35.407 0 64.111 15.359 64.111 34.305z" style="color:#000000" fill="url(#linearGradient4162)" transform="matrix(1.0479 0 0 1 -18.728 -2)"/>
    </g>
    <g id="g4154" transform="matrix(-1 0 0 1 676.37 -26)">
      <path id="path4156" fill="url(#radialGradient4160)" d="m152.81 668.82h154.53c20.802 0 29.717-98.086-84.694-96.724-114.41 1.3623-102.52 98.086-69.836 96.724z"/>
      <path id="path4158" d="m287.94 615.4c0 18.946-28.703 34.305-64.111 34.305-35.407 0-64.111-15.359-64.111-34.305s28.703-34.305 64.111-34.305c35.407 0 64.111 15.359 64.111 34.305z" style="color:#000000" fill="url(#linearGradient4162)" transform="matrix(1.0479 0 0 1 -18.728 -2)"/>
    </g>
    <path id="path4186" opacity=".23" style="color:#000000" d="m273.7 613.29c7.3497 7.4508 17.368 12.069 28.436 12.069 11.069 0 21.087-4.6181 28.436-12.069-2.4869 1.2703-5.0651 2.4602-7.8117 3.3892-3.1703 1.0723-6.5109 1.874-9.961 2.4386-3.4501 0.56455-7.0048 0.86797-10.664 0.86797-3.6588 0-7.2135-0.30342-10.664-0.86797-3.4501-0.56455-6.7906-1.3663-9.961-2.4386-2.7466-0.92899-5.3248-2.1189-7.8117-3.3892z" transform="matrix(-.15605 -.98775 .98775 -.15605 -248.45 1002.4)" filter="url(#filter4208)" fill="#fff"/>
    <path id="path4212" opacity=".23" style="color:#000000" d="m273.7 613.29c7.3497 7.4508 17.368 12.069 28.436 12.069 11.069 0 21.087-4.6181 28.436-12.069-2.4869 1.2703-5.0651 2.4602-7.8117 3.3892-3.1703 1.0723-6.5109 1.874-9.961 2.4386-3.4501 0.56455-7.0048 0.86797-10.664 0.86797-3.6588 0-7.2135-0.30342-10.664-0.86797-3.4501-0.56455-6.7906-1.3663-9.961-2.4386-2.7466-0.92899-5.3248-2.1189-7.8117-3.3892z" transform="matrix(.15605 -.98775 -.98775 -.15605 934.76 1002.4)" filter="url(#filter4208)" fill="#fff"/>
  </g>
  <g id="layer2" transform="translate(-36.826 -35.435)">
    <path id="path3179" d="m498.66 199.7a180.56 137.54 0 1 1 -361.12 0 180.56 137.54 0 1 1 361.12 0z" fill="url(#linearGradient3187)" transform="matrix(.66080 0 0 .63608 136.75 11.142)"/>
  </g>
  <g id="layer3" transform="translate(-36.826 -35.435)">
    <g id="g3336" transform="translate(8,-8)">
      <path id="path3334" opacity=".37" d="m305.93 250.24c0 31.117-19.254 56.342-43.005 56.342s-43.005-25.225-43.005-56.342 19.254-56.342 43.005-56.342 43.005 25.225 43.005 56.342z" fill-rule="evenodd" transform="translate(148,-22)" filter="url(#filter3326)"/>
      <path id="path3332" opacity=".37" d="m305.93 250.24c0 31.117-19.254 56.342-43.005 56.342s-43.005-25.225-43.005-56.342 19.254-56.342 43.005-56.342 43.005 25.225 43.005 56.342z" fill-rule="evenodd" transform="translate(-26,-22)" filter="url(#filter3326)"/>
      <path id="path3330" opacity=".29185" d="m305.93 250.24c0 31.117-19.254 56.342-43.005 56.342s-43.005-25.225-43.005-56.342 19.254-56.342 43.005-56.342 43.005 25.225 43.005 56.342z" fill-rule="evenodd" transform="translate(178,2)" filter="url(#filter3326)" fill="#fff"/>
      <path id="path2434" opacity=".20172" d="m305.93 250.24c0 31.117-19.254 56.342-43.005 56.342s-43.005-25.225-43.005-56.342 19.254-56.342 43.005-56.342 43.005 25.225 43.005 56.342z" fill-rule="evenodd" transform="translate(0,2)" filter="url(#filter3326)" fill="#fff"/>
      <path id="path3196" d="m292.54 241.33c0 30.4-19.129 55.044-42.727 55.044-23.597 0-42.727-24.644-42.727-55.044s19.129-55.044 42.727-55.044c23.597 0 42.727 24.644 42.727 55.044z" fill="url(#radialGradient3460)"/>
      <path id="path3262" filter="url(#filter3424)" d="m285.73 250.77c-0.55054 15.14-11.645 30.868-22.848 35.235-16.241 6.3313-23.949-2.2022-23.949-2.2022 15.248-0.77543 21.302-1.8766 30.555-10.736 9.4294-9.028 16.516-22.297 16.241-22.297z" fill="#fff" fill-rule="evenodd"/>
      <path id="path3428" d="m268.68 237.86c0 12.755-10.34 23.095-23.095 23.095s-23.095-10.34-23.095-23.095 10.34-23.095 23.095-23.095 23.095 10.34 23.095 23.095z" transform="translate(8,4)"/>
      <path id="path3430" d="m268.68 237.86c0 12.755-10.34 23.095-23.095 23.095s-23.095-10.34-23.095-23.095 10.34-23.095 23.095-23.095 23.095 10.34 23.095 23.095z" fill="url(#linearGradient3553)" transform="matrix(.73333 0 0 .85 77.33 38.683)"/>
      <path id="path3185" d="m247.12 224.39c0 4.8895-3.9637 8.8532-8.8532 8.8532s-8.8532-3.9637-8.8532-8.8532 3.9637-8.8532 8.8532-8.8532 8.8532 3.9637 8.8532 8.8532z" fill-rule="evenodd" transform="matrix(1.6087 0 0 1.6087 -148.11 -140.43)" filter="url(#filter3543)" fill="#fff"/>
      <g id="g3454" transform="translate(10)">
        <path id="path3440" d="m292.54 241.33c0 30.4-19.129 55.044-42.727 55.044-23.597 0-42.727-24.644-42.727-55.044s19.129-55.044 42.727-55.044c23.597 0 42.727 24.644 42.727 55.044z" fill="url(#radialGradient3460)" transform="translate(166.29)"/>
        <path id="path3442" filter="url(#filter3424)" d="m452.02 250.77c-0.55054 15.14-11.645 30.868-22.848 35.235-16.241 6.3313-23.949-2.2022-23.949-2.2022 15.248-0.77543 21.302-1.8766 30.555-10.736 9.4294-9.028 16.516-22.297 16.241-22.297z" fill="#fff" fill-rule="evenodd"/>
        <path id="path3444" d="m268.68 237.86c0 12.755-10.34 23.095-23.095 23.095s-23.095-10.34-23.095-23.095 10.34-23.095 23.095-23.095 23.095 10.34 23.095 23.095z" transform="translate(164.29 4)"/>
        <path id="path3446" filter="url(#filter3727)" d="m268.68 237.86c0 12.755-10.34 23.095-23.095 23.095s-23.095-10.34-23.095-23.095 10.34-23.095 23.095-23.095 23.095 10.34 23.095 23.095z" fill="#fff" transform="matrix(.56667 0 0 .56667 258.39 85.518)"/>
      </g>
      <path id="path3731" d="m268.68 237.86c0 12.755-10.34 23.095-23.095 23.095s-23.095-10.34-23.095-23.095 10.34-23.095 23.095-23.095 23.095 10.34 23.095 23.095z" fill="url(#linearGradient3808)" transform="matrix(.73333 0 0 .85 243.47 38.683)"/>
    </g>
  </g>
  <metadata>
    <rdf:RDF>
      <cc:Work>
        <dc:format>image/svg+xml</dc:format>
        <dc:type rdf:resource="http://purl.org/dc/dcmitype/StillImage"/>
        <cc:license rdf:resource="http://creativecommons.org/licenses/publicdomain/"/>
        <dc:publisher>
          <cc:Agent rdf:about="http://openclipart.org/">
            <dc:title>Openclipart</dc:title>
          </cc:Agent>
        </dc:publisher>
        <dc:title>Little penguin</dc:title>
        <dc:date>2010-06-28T10:08:47</dc:date>
        <dc:description>A young penguin</dc:description>
        <dc:source>http://openclipart.org/detail/69139/little-penguin-by-jantonalcor</dc:source>
        <dc:creator>
          <cc:Agent>
            <dc:title>jantonalcor</dc:title>
          </cc:Agent>
        </dc:creator>
        <dc:subject>
          <rdf:Bag>
            <rdf:li>animal</rdf:li>
            <rdf:li>clip art</rdf:li>
            <rdf:li>clipart</rdf:li>
            <rdf:li>comic</rdf:li>
            <rdf:li>mascota</rdf:li>
            <rdf:li>pet</rdf:li>
            <rdf:li>pinguino</rdf:li>
            <rdf:li>ping&#xFC;ino</rdf:li>
            <rdf:li>tux</rdf:li>
          </rdf:Bag>
        </dc:subject>
      </cc:Work>
      <cc:License rdf:about="http://creativecommons.org/licenses/publicdomain/">
        <cc:permits rdf:resource="http://creativecommons.org/ns#Reproduction"/>
        <cc:permits rdf:resource="http://creativecommons.org/ns#Distribution"/>
        <cc:permits rdf:resource="http://creativecommons.org/ns#DerivativeWorks"/>
      </cc:License>
    </rdf:RDF>
  </metadata>
</svg>
