<?xml version="1.0" encoding="UTF-8" standalone="no"?>
<!-- Created with Inkscape (http://www.inkscape.org/) -->

<svg
   xmlns:dc="http://purl.org/dc/elements/1.1/"
   xmlns:cc="http://creativecommons.org/ns#"
   xmlns:rdf="http://www.w3.org/1999/02/22-rdf-syntax-ns#"
   xmlns:svg="http://www.w3.org/2000/svg"
   xmlns="http://www.w3.org/2000/svg"
   xmlns:sodipodi="http://sodipodi.sourceforge.net/DTD/sodipodi-0.dtd"
   xmlns:inkscape="http://www.inkscape.org/namespaces/inkscape"
   width="600"
   height="400"
   id="svg2"
   version="1.1"
   inkscape:version="0.48.2 r9819"
   sodipodi:docname="gold-fish.png">
  <defs
     id="defs4" />
  <sodipodi:namedview
     id="base"
     pagecolor="#ffffff"
     bordercolor="#666666"
     borderopacity="1.0"
     inkscape:pageopacity="0.0"
     inkscape:pageshadow="2"
     inkscape:zoom="0.27509398"
     inkscape:cx="184.07484"
     inkscape:cy="425.20436"
     inkscape:document-units="px"
     inkscape:current-layer="layer1"
     showgrid="false"
     borderlayer="true"
     inkscape:window-width="1432"
     inkscape:window-height="1001"
     inkscape:window-x="130"
     inkscape:window-y="-17"
     inkscape:window-maximized="0" />
  <metadata
     id="metadata7">
    <rdf:RDF>
      <cc:Work
         rdf:about="">
        <dc:format>image/svg+xml</dc:format>
        <dc:type
           rdf:resource="http://purl.org/dc/dcmitype/StillImage" />
        <dc:title></dc:title>
      </cc:Work>
    </rdf:RDF>
  </metadata>
  <g
     inkscape:label="Layer 1"
     inkscape:groupmode="layer"
     id="layer1"
     transform="translate(0,-652.36218)">
    <g
       id="g4482">
      <g
         transform="matrix(0.1361571,0,0,0.12874309,-126.32217,867.19879)"
         id="g4267">
        <g
           id="g4134"
           transform="matrix(3.2822718,0,0,3.9313193,3479.2383,-813.11885)">
          <g
             transform="matrix(0.87412378,0,0,0.85166715,-399.95285,-408.90607)"
             id="g4118" />
          <g
             id="g4165"
             transform="matrix(0.58197496,0,0,0.48161861,-63.00449,186.72351)">
            <g
               id="g4230"
               transform="translate(2.1962227,-2.0700389)">
              <g
                 id="g4292">
                <path
                   inkscape:connector-curvature="0"
                   id="path4092"
                   d="m 332.58986,123.87754 c 7.98827,7.42402 2.47518,22.03311 13.03583,25.44323 71.63992,23.1331 125.27629,49.46666 107.44599,88.6399 -13.75757,106.64552 -226.52991,326.85708 -426.863471,384.73841 -18.6158425,5.37858 -124.998135,74.71428 -143.529879,77.47925 -21.04038,3.13926 -1.94358,-43.8203 -17.44159,-34.40259 -108.98862,66.22938 -210.2718,73.91461 -191.81541,29.55163 -2.82607,-86.09579 55.43259,-113.69057 133.83753,-209.86117 74.25302,-91.07791 -201.18008,-31.86922 -186.11781,48.89974 19.78204,106.078 2.60044,133.58536 -66.91876,169.11146 -42.82203,-50.66568 -22.70425,-111.93112 -29.27696,-175.22396 -141.80974,13.55778 -333.22968,12.79743 -467.2957,-69.92415 -10.456,-8.14994 -84.78403,-29.82397 -70.14563,-37.97392 287.71778,-62.68886 650.87104,23.58102 580.51871,-210.77687 -21.97765,-117.153251 -100.32941,-19.64452 233.91803,-432.06469 6.82081,-8.41604 126.377855,91.64653 157.561434,252.413624 155.612236,16.135037 144.205656,49.06851 349.908066,105.139896 8.79987,2.39871 13.58854,-13.7527 23.17962,-11.18979 z"
                   style="fill:#ff001f;fill-opacity:1;stroke:#000000;stroke-width:0;stroke-linecap:butt;stroke-linejoin:miter;stroke-miterlimit:4;stroke-opacity:1;stroke-dasharray:none"
                   sodipodi:nodetypes="cscssscsscccccscsc" />
                <g
                   id="g4185"
                   transform="matrix(0.51643477,0,0,0.52801224,118.00905,-205.33354)">
                  <g
                     id="g4193"
                     transform="matrix(1.9179089,0,0,1.6246195,-314.61807,472.22855)">
                    <g
                       id="g4181"
                       transform="matrix(4.670412,0,0,6.7083143,-358.17612,-1116.8659)"
                       inkscape:transform-center-x="-389.56878"
                       inkscape:transform-center-y="-484.61527" />
                  </g>
                  <g
                     id="g4212"
                     transform="matrix(0.40100148,0,0,0.32595545,118.51992,449.47159)">
                    <g
                       id="g4220"
                       transform="matrix(0.79809638,0,0,1.276661,157.37363,-602.70544)">
                      <path
                         sodipodi:type="arc"
                         style="fill:#ffffff;fill-opacity:1;fill-rule:nonzero;stroke:#ffffff;stroke-width:0;stroke-linecap:round;stroke-linejoin:round;stroke-miterlimit:4;stroke-opacity:1;stroke-dasharray:none;stroke-dashoffset:0"
                         id="path4096"
                         sodipodi:cx="543.06378"
                         sodipodi:cy="-191.86833"
                         sodipodi:rx="64.593491"
                         sodipodi:ry="57.416435"
                         d="m 607.65727,-191.86833 c 0,31.71022 -28.91949,57.41643 -64.59349,57.41643 -35.674,0 -64.59349,-25.70621 -64.59349,-57.41643 0,-31.71022 28.91949,-57.41644 64.59349,-57.41644 35.11382,0 63.796,24.93402 64.57749,56.13857"
                         transform="matrix(5.3649301,0,0,5.9945337,-3035.0528,2496.6095)"
                         sodipodi:start="0"
                         sodipodi:end="6.2609274"
                         sodipodi:open="true" />
                      <path
                         sodipodi:type="arc"
                         style="fill:#000000;fill-opacity:1;fill-rule:nonzero;stroke:#ffffff;stroke-width:0;stroke-linecap:round;stroke-linejoin:round;stroke-miterlimit:4;stroke-opacity:1;stroke-dasharray:none;stroke-dashoffset:0"
                         id="path4098"
                         sodipodi:cx="-789.47601"
                         sodipodi:cy="-94.978104"
                         sodipodi:rx="14.354109"
                         sodipodi:ry="13.157933"
                         d="m -775.1219,-94.978104 c 0,7.266926 -6.42656,13.157934 -14.35411,13.157934 -7.92756,0 -14.35411,-5.891008 -14.35411,-13.157934 0,-7.266926 6.42655,-13.157936 14.35411,-13.157936 7.80307,0 14.17688,5.71405 14.35055,12.865092"
                         transform="matrix(11.617337,0,0,12.886768,9156.4246,2419.2472)"
                         sodipodi:start="0"
                         sodipodi:end="6.2609274"
                         sodipodi:open="true" />
                    </g>
                  </g>
                </g>
                <path
                   inkscape:connector-curvature="0"
                   id="path4108"
                   d="m 498.24988,847.01446 c -18.68892,44.39873 -11.64821,60.7147 -0.77212,109.00808 C 94.39544,1150.728 179.51235,572.25201 498.24988,847.01446 z"
                   style="fill:#ff4b4b;fill-opacity:1;stroke:#000000;stroke-width:0;stroke-linecap:butt;stroke-linejoin:miter;stroke-miterlimit:4;stroke-opacity:1;stroke-dasharray:none"
                   sodipodi:nodetypes="ccc"
                   transform="matrix(0.87412377,0,0,0.85166715,-399.95286,-408.90607)" />
                <path
                   inkscape:connector-curvature="0"
                   id="path4110"
                   d="m -382.19917,273.05282 c -9.14041,-177.923832 253.84973,-302.818458 212.24015,-422.16649 -219.52982,83.325804 -208.38499,310.5648 -212.24015,422.16649 z"
                   style="fill:#e4ff6f;fill-opacity:1;stroke:#000000;stroke-width:0;stroke-linecap:butt;stroke-linejoin:miter;stroke-miterlimit:4;stroke-opacity:1;stroke-dasharray:none"
                   sodipodi:nodetypes="ccc" />
                <path
                   inkscape:connector-curvature="0"
                   id="path4112"
                   d="m -263.31988,629.69892 -47.22595,69.80879 c 293.807555,-74.1349 179.63173,-327.8172 47.22595,-69.80879 z"
                   style="fill:#e4ff6f;fill-opacity:1;stroke:#000000;stroke-width:0;stroke-linecap:butt;stroke-linejoin:miter;stroke-miterlimit:4;stroke-opacity:1;stroke-dasharray:none"
                   sodipodi:nodetypes="ccc" />
                <path
                   inkscape:connector-curvature="0"
                   id="path4114"
                   d="m -936.33881,421.19334 c 250.1105,196.97334 620.63917,-125.3345 373.63078,-19.80965 -152.38251,30.04257 -219.78826,9.54821 -373.63078,19.80965 z"
                   style="fill:#e4ff6f;fill-opacity:1;stroke:#000000;stroke-width:0;stroke-linecap:butt;stroke-linejoin:miter;stroke-miterlimit:4;stroke-opacity:1;stroke-dasharray:none"
                   sodipodi:nodetypes="ccc" />
                <path
                   transform="matrix(0.87412377,0,0,0.85166715,-399.95286,-23.64405)"
                   inkscape:connector-curvature="0"
                   id="path4116"
                   d="m -50.523886,628.87079 c 0,0 46.915037,-32.47964 68.568131,-50.52388 75.189002,-153.311 -29.385707,-114.91302 -68.568131,50.52388 z"
                   style="fill:#e4ff6f;fill-opacity:1;stroke:#000000;stroke-width:0;stroke-linecap:butt;stroke-linejoin:miter;stroke-miterlimit:4;stroke-opacity:1;stroke-dasharray:none"
                   sodipodi:nodetypes="ccc" />
                <path
                   sodipodi:nodetypes="ccc"
                   inkscape:connector-curvature="0"
                   id="path4150"
                   d="M -142.90265,493.9263 C 26.445761,805.5964 369.29441,360.56735 431.98112,252.35074 311.05635,368.91939 105.79759,475.39148 -142.90265,493.9263 z"
                   style="fill:#e4ff6f;fill-opacity:1;stroke:#000000;stroke-width:0;stroke-linecap:butt;stroke-linejoin:miter;stroke-miterlimit:4;stroke-opacity:1;stroke-dasharray:none" />
                <path
                   style="fill:#e4ff6f;fill-opacity:1;stroke:#000000;stroke-width:0;stroke-linecap:butt;stroke-linejoin:miter;stroke-miterlimit:4;stroke-opacity:1;stroke-dasharray:none"
                   d="m -460.4015,538.05161 c 21.42099,52.45583 -31.7063,149.25167 28.87079,137.13625 33.38453,-32.8225 68.74664,-145.37027 -28.87079,-137.13625 z"
                   id="path4132"
                   inkscape:connector-curvature="0"
                   sodipodi:nodetypes="ccc" />
                <g
                   transform="matrix(0.33180181,0,0,0.36915251,700.30023,259.26131)"
                   id="g4262">
                  <g
                     id="g4258"
                     transform="matrix(1.6850057,0,0,0.9380531,450.27786,115.00626)">
                    <path
                       inkscape:connector-curvature="0"
                       id="path4252"
                       d="m -783.34257,-348.94898 c 33.38185,10.98542 76.12777,79.18502 68.0829,142.83269 -5.86097,79.88728 -173.3285,121.485417 -144.95071,60.03113 22.68658,-71.31163 48.40929,-137.48166 76.86781,-202.86382 z"
                       style="fill:#ffffff;fill-opacity:1;stroke:#000000;stroke-width:0;stroke-linecap:butt;stroke-linejoin:miter;stroke-miterlimit:4;stroke-opacity:1;stroke-dasharray:none"
                       sodipodi:nodetypes="cccc" />
                    <path
                       inkscape:connector-curvature="0"
                       id="path4254"
                       d="m -809.48209,-196.8597 c 2.19619,-8.28016 29.22858,-85.145 29.22858,-85.145 18.01104,-72.89227 100.76945,119.06655 -29.22858,85.145 z"
                       style="fill:#fd4c4c;fill-opacity:1;stroke:#000000;stroke-width:0;stroke-linecap:butt;stroke-linejoin:miter;stroke-miterlimit:4;stroke-opacity:1;stroke-dasharray:none"
                       sodipodi:nodetypes="ccc" />
                  </g>
                </g>
              </g>
            </g>
          </g>
        </g>
        <rect
           y="-1878.8025"
           x="738.1416"
           height="3622.5344"
           width="4770.3403"
           id="rect4478"
           style="opacity:0.18220341;fill:#ff0000;fill-opacity:1;fill-rule:nonzero;stroke:#ffffff;stroke-width:0;stroke-linecap:round;stroke-linejoin:round;stroke-miterlimit:4;stroke-opacity:1;stroke-dasharray:none;stroke-dashoffset:0" />
      </g>
      <path
         sodipodi:open="true"
         sodipodi:end="6.2609274"
         sodipodi:start="0"
         transform="matrix(0.61904761,0,0,1.0909091,150.51432,652.36344)"
         d="m 537.34504,190.25305 a 14.731391,7.7164431 0 1 1 -0.004,-0.17174"
         sodipodi:ry="7.7164431"
         sodipodi:rx="14.731391"
         sodipodi:cy="190.25305"
         sodipodi:cx="522.61365"
         id="path4315"
         style="fill:#ffffff;fill-opacity:1;fill-rule:nonzero;stroke:#ffffff;stroke-width:0;stroke-linecap:round;stroke-linejoin:round;stroke-miterlimit:4;stroke-opacity:1;stroke-dasharray:none;stroke-dashoffset:0"
         sodipodi:type="arc" />
      <path
         sodipodi:open="true"
         sodipodi:end="6.2609274"
         sodipodi:start="0"
         transform="matrix(1.2242758,0,0,0.75524449,-78.046498,702.01665)"
         d="m 499.46431,123.61104 a 12.626906,15.432886 0 1 1 -0.003,-0.34348"
         sodipodi:ry="15.432886"
         sodipodi:rx="12.626906"
         sodipodi:cy="123.61104"
         sodipodi:cx="486.8374"
         id="path4317"
         style="fill:#ffffff;fill-opacity:1;fill-rule:nonzero;stroke:#ffffff;stroke-width:0;stroke-linecap:round;stroke-linejoin:round;stroke-miterlimit:4;stroke-opacity:1;stroke-dasharray:none;stroke-dashoffset:0"
         sodipodi:type="arc" />
      <path
         sodipodi:open="true"
         sodipodi:end="6.2609274"
         sodipodi:start="0"
         transform="matrix(0.71003394,0,0,0.71793716,760.08793,650.76924)"
         d="m -270.777,80.819855 a 32.970257,25.955309 0 1 1 -0.008,-0.577663"
         sodipodi:ry="25.955309"
         sodipodi:rx="32.970257"
         sodipodi:cy="80.819855"
         sodipodi:cx="-303.74725"
         id="path4319"
         style="fill:#ffffff;fill-opacity:1;fill-rule:nonzero;stroke:#ffffff;stroke-width:0;stroke-linecap:round;stroke-linejoin:round;stroke-miterlimit:4;stroke-opacity:1;stroke-dasharray:none;stroke-dashoffset:0"
         sodipodi:type="arc" />
    </g>
  </g>
</svg>
