<?xml version="1.0" encoding="utf-8"?>

<!DOCTYPE svg PUBLIC "-//W3C//DTD SVG 1.1//EN" "http://www.w3.org/Graphics/SVG/1.1/DTD/svg11.dtd">
<svg version="1.1" id="Layer_1" xmlns="http://www.w3.org/2000/svg" xmlns:xlink="http://www.w3.org/1999/xlink" x="0px" y="0px"
	 viewBox="0 0 2500 2444" enable-background="new 0 0 2500 2444" xml:space="preserve">
<g>
	<path fill="#6599FF" d="M1802.8101,105.96c32.0299-27.58,64.12-55.08,96.1599-82.65c-13,52.32-26.7899,104.46-39.83,156.77
		c29.49,4.6,59.01,9.12,88.45,14.02C1921.91,206,1896.03,217.47,1870.3,229.25c2.4299,35.03-5.89,70.78-24.28,100.75
		c-20.16,33.3-52.1,59.24-88.84,72.1c16.5599,38.11,30.3199,77.72,37.1699,118.82c6.55,39.26,6.36,80.56-7.01,118.43
		c-10.5599,30.21-29.86,57.09-54.45,77.4901c-26.79,22.5099-58.78,37.99-91.75,49.18c-45.9,15.38-94.03,22.96-142.15,26.95
		c-21.85,1.89-43.77,2.6-65.6799,3.22c-12.1801,57.92-24.3201,115.85-36.51,173.77c-1.25,5.74-4.28,11.15-8.8201,14.93
		c-7.62,6.39-19.14,7.74-27.9399,3.04c-4.9601-2.61-8.74-7.4-9.9601-12.88c-1.24-5.47-0.33-11.19,1.5601-16.39
		c8.99-25.31,18.01-50.61,27.02-75.91c2.99-9.12,6.84-17.98,9.2799-27.27c-15.6299,36.44-31.5399,72.76-47.21,109.19
		c-3.24,7.75-8.83,14.64-16.1699,18.84c-10.9401,6.48-25.5701,6.27-36.14-0.89c-6.5-4.27-11.0601-11.71-11.0801-19.58
		c-0.2-7.44,3-14.54,7.23-20.5c26.78-34.92,54.1101-69.44,80.67-104.52c-20.42,22.31-40.72,44.73-61.12,67.07
		c-4.77,4.9-8.6899,10.84-14.7,14.36c-8.2001,5.2-17.5601,9.33-27.4301,9.23c-6.75,0.07-13.59-2.45-18.37-7.27
		c-5.4-5.53-7.84-13.7599-6.4-21.34c1.29-7.57,6.04-14.26,12.17-18.74c55.89-37.79,111.65-75.79,167.54-113.6
		c-0.54-21.91-1.3201-43.83-1.2201-65.75c-0.0699-18.16,0.55-36.31,1.0801-54.46c36.49-3.64,70.64-18.7,102.39-36.32
		c4.59-2.73,9.47-5.05,13.7699-8.25c2.54-2.08,5.15-5.07,4.67-8.59c-0.38-2.59-3.3-3.59-5.5699-3.47
		c-6.8601,0.39-12.67,4.4-18.4801,7.63c-20.0599,11.2-40.8999,21.27-62.9099,28.02c-19.85,6.09-40.92,9.38-61.63,6.66
		c-18.12-2.27-35.4501-9.44-50.3201-19.96c-23.7999-16.75-41.83-40.29-56.98-64.83c-14.33-23.35-26.1-48.15-36.8199-73.32
		c-1.24-3.56-5.39-5.52-8.91-4.12c-15.9399,4.71-32.39,8.25-49.0699,8.45c-12.13,0.05-24.78-1.61-35.3301-8
		c-7.91-4.68-14.0499-13.02-14.48-22.4c-0.8199-9.68,3.3199-19.12,9.39-26.45c10.52-12.7,26.4-19.82,42.4299-22.4
		c10.9401-1.97,22.1001-1.51,33.1101-0.34c3.9399,0.7,7.9399-2.84,7.6599-6.85c0.16-3.71-3.23-6.61-6.73-6.93
		c-25.14-4.41-47.5699-20.63-60.9-42.21c-6.33-10.44-11-22.54-9.8999-34.94c0.49-7.74,4.59-15.28,11.1599-19.5
		c9.29-6.11,20.8401-7.15,31.6801-6.76c14.64,0.7,29.01,4.11,42.98,8.42c2.02,0.61,4.27,1.05,6.3199,0.23
		c3.37-1.52,5.2001-5.83,3.5701-9.23c-0.97-2.33-3.4401-3.36-5.46-4.54c-12.0701-6.45-21.2301-17.21-28.12-28.84
		c-10.66-18.27-16.63-38.93-19.9301-59.72c-3.05-20.37-3.8-41.31,0.03-61.63c1.9299-8.67,4.27-17.79,10.23-24.65
		c3.0499-3.67,8.34-5.1,12.75-3.08c10.25,4.36,17.59,13.4,23.4,22.61c10.0299,16.13,17.95,33.44,26.9299,50.14
		c15.4,29.05,33.26,57.91,59.42,78.51c57.78,45.97,115.96,92.56,163.37,149.58c22.8,27.58,43.22,57.49,57.74,90.3
		c1.83,3.23,4.6,6.86,8.65,7.03c2.3199,0.22,4.3199-1.67,4.85-3.83c1.04-3.46,0.02-7.12-1.36-10.33
		c-17.34-37.46-41.14-71.66-68.34-102.6c-0.5901-0.91-1.8501-1.6-1.79-2.76c15.79-21.33,36.59-38.12,55.58-56.44
		c1.15-1.46,4-3.04,2.4501-5.15c-17.24-34.78-21.73-75.55-12.9401-113.31c7.4301-32.35,24.7101-62.33,48.91-85.03
		c24.3-23.09,55.64-38.66,88.73-44.04c35.41-5.84,72.67-0.34,104.65,16.06C1786.48,94.77,1794.8199,100.13,1802.8101,105.96
		 M1663.4301,172.62c-6.78,1.67-11.91,8.4-11.3601,15.42c-0.0599,8.22,7.8301,15.26,15.9601,14.62
		c8.35-0.15,15.4299-8.28,14.4399-16.59C1681.95,176.99,1672.1801,170.12,1663.4301,172.62z"/>
	<path fill="#6599FF" d="M1477.92,40.76c4.73-1.64,10.46-1.52,14.4199,1.89c5.12,4.41,6.9601,11.34,8.0701,17.75
		c1.34,10.86-0.23,21.81-1.8201,32.56c-3.26,21.58-7.4299,43.17-7.38,65.08c-0.11,12.16,1.1801,24.38,4.52,36.09
		c11.85,43.26,24.8101,86.47,30.4301,131.1c-0.53,2.28-3.03,3.63-4.4701,5.43c-12.9199,13.3-25.95,26.5-38.9099,39.76
		c-38.78-42.16-82.76-79.06-127.4301-114.75c-12.21-10.1-25.46-19.1-36.1-30.95c-3.41-3.7-6.6801-7.51-9.74-11.5
		c17.87,0.37,34.26,9.49,47.39,21.06c-10.9-12.53-17.49-28.64-18.67-45.19c-0.9199-12.03,0.75-24.58,6.61-35.26
		c3.7201-6.7,9.65-12.63,17.24-14.58c8.52-2.34,17.5,0.38,24.9401,4.67c13.49,7.85,23.89,19.89,33.16,32.24
		c-8.6101-18.53-5.9801-39.96,0.0599-58.83c7.4-22.63,19.5-43.88,35.87-61.22C1462.42,49.84,1469.35,43.67,1477.92,40.76z"/>
	<path fill="#FFFFFF" d="M1663.4301,172.62c8.75-2.5,18.5199,4.37,19.0399,13.45c0.99,8.31-6.09,16.44-14.4399,16.59
		c-8.13,0.64-16.02-6.4-15.9601-14.62C1651.52,181.02,1656.65,174.29,1663.4301,172.62z"/>
</g>
<g>
	<path fill="#6599FF" d="M762.71,807.79c25.11-11.86,52.79-17.53,80.4-19.22c37.34-1.93,75.7,2.79,109.95,18.4
		c18.04,8.55,35.9,20.48,45.31,38.67c1.54,2.4,1.59,6.43,4.94,7.07c9.45,3.0099,19.22,7.57,24.93,16.07
		c2.53,3.52,2.85,7.97,2.49,12.17c22.4301-2.12,45.26-1.38,67.21,3.95c15.1201,3.66,29.9701,9.34,42.7001,18.43
		c7.7,5.58,14.73,12.63,18.5,21.51c4.34,9.62,3.36,21.25-2.11,30.23c-8.8401,14.8-24.5901,23.6-40.0901,29.98
		c6.29,7.37,10.6201,17.09,9.14,26.95c-1.5599,11.7-9.8199,21.25-19.12,27.9c-16.0399,11.3099-35.5699,16.45-54.87,18.49
		c4.3,6.84,6.02,15.4399,3.5901,23.27c-2.9701,9.84-10.7001,17.36-18.9301,23.09c-13.72,9.3-29.69,14.7-45.76,18.28
		c-30.89,6.45-63.2,6.2999-94.01-0.55c-14.37,8.0701-30.14,13.38-46.12,17.23c-23.5,5.54-47.7,7.7201-71.81,7.49
		c-26.76-0.49-53.63-3.8999-79.2-11.99c-15.19-4.9199-30.15-11.4299-42.77-21.36c-9.06-7.13-16.93-16.73-18.81-28.41
		c-16.83-3.1899-33.41-9.12-47.28-19.35c-8.57-6.4-16.17-14.52-20.42-24.45c-4.86-10.92-4.75-23.91,0.25-34.76
		c5.54-12.26,15.86-21.67,27.18-28.58c-9.89-6.72-18.97-15.13-24.34-25.97c-5.54-10.83-6.72-23.88-2.68-35.41
		c4.51-13.34,14.64-24.1,26.23-31.74c16.02-10.61,34.97-15.92,53.94-17.87c-1.38-9.56,6.61-16.77,14.18-20.95
		c18.76-10.3,40.69-12.32,61.71-12.52C736.71,822.53,749.4,814.23,762.71,807.79z"/>
	<path fill="#6599FF" d="M515.44,993.57c8.92-1.27,18.39,1.76,24.68,8.27c7.06,6.9,10.03,17.54,7.72,27.1199
		C544.91,1042.67,531,1052.77,517.05,1051.29c-14.31-0.9601-26.5-13.87-26.53-28.23C489.85,1008.77,501.26,995.32,515.44,993.57z"/>
	<path fill="#6599FF" d="M323.28,1042.9c13.89-11.6,27.41-23.65,41.28-35.27c-5.48,22.37-11.33,44.66-17.03,66.98
		c12.65,2.1801,25.37,3.91,38.01,6.16c-11,5.09-22.07,10.03-33.1,15.0499c1.33,20.7101-6.23,41.91-21.02,56.5801
		c-7.68,7.7999-17.17,13.6899-27.43,17.47c8.13,18.86,14.77,38.6,16.99,59.12c1.73,17.26,0.15,35.38-7.86,51.03
		c-7.13,14.4399-19.3,25.9399-33.12,33.98c-18.05,10.6-38.56,16.2-59.06,19.74c-18.35,3.0601-36.97,4.39-55.57,4.73
		c-4.98,23.13-9.72,46.3101-14.62,69.4601c-0.81,3.48-1.13,7.3999-3.69,10.1499c-3.78,4.5-11.71,5.05-15.65,0.4801
		c-2.6-2.8201-2.39-7.05-1.24-10.4401c4.56-13.26,9.62-26.35,13.88-39.71c-5.43,12.1699-10.65,24.4299-15.97,36.65
		c-1.86,4.25-3.32,8.99-7.09,12c-5.88,5.2699-16.48,4.7899-20.96-2.04c-3-4.4401-1.38-10.3,1.67-14.24
		c10.28-13.55,21.02-26.75,31.04-40.49c-8.28,8.8999-16.46,17.89-24.6,26.9199c-5.43,6.4501-16.31,11.2101-23.68,5.26
		c-3.63-3.2-4.31-8.9399-2-13.09c1.98-3.92,6.08-5.91,9.52-8.3101c21.5-14.5499,42.94-29.1799,64.46-43.6899
		c1.17-0.66,1.99-1.86,1.72-3.23c-0.68-16.48-0.86-33.01,0.06-49.48c17.14-1.67,32.99-9.25,47.71-17.76
		c2.23-1.16,4.07-3.0901,4.02-5.74c-4.69-1.5901-8.69,2.0599-12.63,4.01c-15.88,8.6-33.84,16.0499-52.27,13.3999
		c-15.25-2.25-27.81-12.71-36.86-24.6599c-9.91-12.9301-17.11-27.6801-23.52-42.5901c-0.52-2.3099-3.17-2.3099-4.96-1.6799
		c-9.26,2.62-19.14,4.4399-28.7,2.4199c-5.32-1.1799-10.8-4.5499-12.28-10.11c-1.4-6.0299,1.71-12.1499,6.21-16.0399
		c6.8-6.01,16.28-8.03,25.14-7.5c2.27-0.05,4.65,0.58,6.84-0.15c1.6-1.01,0.71-3.14,0.59-4.62
		c-11.79-1.9601-22.69-8.9501-28.74-19.34c-3-5.2301-5.29-11.7001-3.19-17.66c1.43-4.0701,5.42-6.5801,9.49-7.41
		c9.42-2.14,18.9,0.87,27.98,3.1801c2.45,0.49,3.8-2.9401,2.3-4.6001c-2.53-1.8999-5.44-3.2899-7.66-5.59
		c-8.26-8.33-12.22-19.9-14.35-31.2c-1.73-9.87-2.23-20.12-0.15-29.97c0.94-3.8,2.13-7.9601,5.32-10.4901
		c2.47-1.3099,5.47-0.2699,7.47,1.4401c6.21,4.79,9.4,12.2,13.05,18.91c8.22,15.95,16.49,32.8199,30.94,44.12
		c26,20.75,52.29,41.76,73.07,67.97c8.41,10.67,15.89,22.15,21.49,34.5599c0.77,2.0801,2.77,3.0901,4.89,3.2001
		c1.79-3.02,0.18-6.25-1.25-9.02c-7.53-15.3-17.48-29.3199-28.81-42.03c7.23-9.72,16.79-17.25,25.35-25.71
		c-8.45-16.77-10.06-36.8101-4.41-54.71c3.73-11.91,10.65-22.76,19.75-31.28c13.36-12.53,31.61-19.8201,49.97-19.55
		C295.5,1028.39,310.89,1033.64,323.28,1042.9 M262.25,1072.28c-4.13,2.0699-4.43,8.52-0.5,10.97c3.89,3.0601,10.25-0.37,10.02-5.24
		C272.14,1073.26,266.28,1069.73,262.25,1072.28z"/>
	<path fill="#6599FF" d="M444.31,1013.43c5.33-0.86,11.01-0.24,15.76,2.45c7.74,3.96,12.93,12.42,12.89,21.12
		c0.29,8.49-4.38,16.9-11.66,21.26c-10.97,7.02-26.95,3.15-33.48-8.12c-4.87-7.76-4.72-18.33,0.33-25.97
		C431.76,1018.58,437.72,1014.53,444.31,1013.43z"/>
	<path fill="#6599FF" d="M181.67,1016.75c2.93-1.84,7.58-2.58,9.84,0.66c3.7,5.3,2.83,12.19,2,18.23
		c-2.12,14.4-5.35,29.23-2.02,43.72c5.14,19.29,11.25,38.48,13.45,58.41c-6.19,6.29-12.33,12.62-18.58,18.85
		c-19.15-20.97-41.41-38.74-63.58-56.37c-3.91-3.1899-7.5-6.8101-10.39-10.95c7.14,0.3099,13.68,3.72,19.19,8.08
		c-5.96-7.92-8.63-18.4-6.28-28.11c1.06-4.01,3.05-8.0801,6.67-10.35c3.61-2.3401,8.37-1.86,12.06,0.0199
		c6.16,3.05,10.71,8.4,14.97,13.64c-4.01-11.83-0.3-24.58,5.27-35.24C168.61,1029.46,173.85,1021.54,181.67,1016.75z"/>
	<path fill="#6599FF" d="M392.38,1038.45c7.67-1.25,15.12,5.87,14.31,13.5801c-0.17,7.61-8.27,13.5699-15.62,11.6699
		c-7.33-1.4399-11.96-9.9099-9.26-16.87C383.41,1042.36,387.63,1038.92,392.38,1038.45z"/>
	<path fill="#FFFFFF" d="M262.25,1072.28c4.03-2.55,9.89,0.98,9.52,5.73c0.23,4.87-6.13,8.3-10.02,5.24
		C257.82,1080.8,258.12,1074.35,262.25,1072.28z"/>
</g>
<g>
	<path fill="#6599FF" d="M1791.64,917.67c43.24-16.01,90.0499-21.12,135.91-17.98c40.58,3.09,81.25,12.81,117.0299,32.68
		c23.59,13.28,45.6801,31.67,57.34,56.64c1.73,3.15,2.27,7,4.3,9.91c11.79,4.07,23.6101,9.41,32.4299,18.52
		c5.6401,5.65,9.6101,13.2,9.9102,21.3c-2.6301-1.5599-5.29-3.59-8.49-3.48c-4.73-0.23-8.3501,3.74-10.1101,7.74
		c-4.1399,9.4-4.0701,19.98-3.3999,30.04c1.53,15.1699,5.8499,30.99,16.5898,42.34c-7.9099-1.61-16.47-2.5699-24.1099,0.61
		c-5.3101,2.1901-9.3201,7.3201-9.76,13.11c-0.8701,8.3101,2.99,16.29,8.01,22.6801c3.9199,5.1,9.2,8.9299,14.74,12.12
		c-8.7,0.7999-17.49,4.15-23.4299,10.72c-4.6802,5.25-7.51,12.92-4.9502,19.79c2.1001,6.24,8.0601,10.3199,14.24,11.89
		c10.5701,2.7799,21.6101,0.61,31.9802-2.05c6.1799,14.42,13.24,28.6,22.6499,41.22c7.1799,9.4601,15.8699,18.2001,26.75,23.3101
		c7.1899,3.53,15.23,5.1,23.22,5.02c-0.7,16.7999-0.3301,33.61-0.3101,50.4199c-23.27,15.7001-46.6899,31.2001-69.8,47.14
		c-5.6099,4.0601-8.49,11.74-6.1299,18.38c0.97,3.23,3.4399,5.66,6,7.75c-3.0601,3.4-7.47,5.12-11.28,7.5
		c-28.8401,15.61-61.55,22.76-94.03,25.17c-30.1399,1.9299-60.6699-0.11-89.99-7.55c-25.2699,15.4401-53.7799,24.83-82.63,30.88
		c-35.2599,7.21-71.5099,9.3101-107.3999,6.99c-32.66-2.2-65.24-8.08-96.05-19.3099c-17.86-6.5901-35.1899-15.04-50.4399-26.53
		c-16.29-12.23-30.8-29.23-33.5701-50.08c-30.42-6.0801-60.46-19.65-81.27-43.2301c-12.9299-14.59-21.2999-33.7-20.86-53.38
		c0.26-16.49,6.5801-32.51,16.55-45.51c7.63-10.1499,17.3099-18.61,27.83-25.6399c-12.4399-9.4501-23.95-20.5701-31.52-34.39
		c-9.9-17.13-13.11-38.0601-8.34-57.3c4.1899-17.52,14.58-33.08,27.74-45.17c23.97-22.08,56.11-33.8199,88.24-36.84
		c-1.24-8.46,2.0701-16.91,7.86-23.02c9.64-10.3,22.8301-16.39,36.02-20.79c20.76-6.74,42.74-8.98,64.49-8.66
		C1733.33,945.38,1762.0699,928.86,1791.64,917.67z"/>
	<path fill="#6599FF" d="M2392.28,1042.99c13.8799-11.59,27.3899-23.61,41.23-35.25c-5.6399,22.3101-11.3101,44.62-17.1301,66.89
		c12.4702,2.25,25.04,3.9,37.53,6.1c-10.6699,5.54-21.9199,9.92-32.72,15.1901c1.8201,22.5499-7.76,45.6499-25.01,60.2799
		c-6.78,5.9301-14.72,10.4701-23.1799,13.52c7.78,19.01,14.77,38.64,16.8601,59.2001c2.0498,18.48-0.2002,38.01-9.5701,54.34
		c-7.8,13.77-20.1001,24.58-33.8801,32.14c-17.47,9.58-36.9199,14.91-56.46,18.26c-18.3999,3.0699-37.04,4.4-55.6699,4.72
		c-5.3501,24.99-10.47,50.04-15.8401,75.03c-1.4099,6.73-9.9299,10.48-15.8,6.9c-3.98-2.13-5.1399-7.3-3.6599-11.3201
		c2.52-7.7,5.47-15.26,8.0901-22.92c1.45-4.46,3.5-8.75,4.0999-13.4399c-5.8599,12.77-11.2,25.77-16.8899,38.62
		c-2.21,5.01-7.1401,8.78-12.6301,9.26c-5.1899,0.54-10.9399-1.86-13.24-6.72c-2.0898-4.3401-0.3599-9.39,2.3701-13
		c10.3101-13.6001,21.1299-26.8401,31.1799-40.64c-8.6399,8.64-16.5701,17.98-24.8599,26.95
		c-4.98,5.78-13.6201,10.02-21.1201,6.9501c-5.23-2.2101-7.2-9.03-4.78-13.9601c1.5901-3.88,5.3901-5.97,8.7-8.1899
		c22.4702-15.25,44.9502-30.48,67.4001-45.76c-0.6501-17.12-1.04-34.29,0.04-51.4c14.3899-1.39,27.9299-7.1,40.5898-13.8099
		c3.1501-1.8301,6.53-3.3301,9.3901-5.62c1.3098-1.0701,2.21-3.29,0.72-4.5901c-4.48-0.71-8.1301,2.5901-11.8801,4.4401
		c-14.75,7.9299-31.0898,14.88-48.1799,13.76c-13.5601-0.77-25.8301-8.28-34.8401-18.0801
		c-13.1499-14.2799-21.7698-31.95-29.45-49.58c-0.51-1.96-2.6899-2.51-4.3699-1.83c-9.22,2.5499-18.9202,4.45-28.46,2.74
		c-5.3-1.0601-10.8301-3.9801-12.8-9.3101c-1.9302-5.6799,0.78-11.91,4.8999-15.9c6.74-6.7,16.71-9,25.96-8.49
		c2.3901-0.02,4.9001,0.66,7.24-0.1799c1.1301-1.3201,0.4602-3.13,0.4502-4.66c-13.02-2.21-25.1501-10.55-30.53-22.79
		c-2.1101-4.83-3.4001-10.6699-0.8101-15.5599c2.29-4.23,7.22-6,11.75-6.4601c7.79-0.8099,15.55,1.0901,23,3.2401
		c1.6001,0.5199,4.1699,0.95,4.79-1.2001c1.3999-2.3099-1.3501-3.8199-2.95-4.8099c-7.5901-4.4701-12.24-12.42-15.4001-20.39
		c-4.8499-12.98-6.6299-27.1901-4.8699-40.9501c0.77-4.63,1.72-9.61,4.9399-13.22c2.02-2.36,5.6199-1.55,7.8,0.1801
		c6.3899,4.5599,9.6399,11.99,13.2998,18.6799c7.79,15.15,15.54,31.01,28.52,42.49c18.3501,14.91,37.1501,29.4,53.9202,46.13
		c17.4299,17.04,33.2,36.3101,43.3499,58.63c0.78,2.16,2.8801,3.2001,5.1001,3.23c2.01-3.58-0.3701-7.21-1.9299-10.4099
		c-7.4202-14.8101-17.1902-28.3101-28.1001-40.7301c7.1699-9.74,16.8201-17.1599,25.28-25.6899
		c-7.9399-15.8199-9.8701-34.54-5.27-51.64c4.04-15.34,13.3701-29.2,25.97-38.84c12.8801-9.98,29.24-15.3101,45.52-14.99
		C2365.1499,1028.75,2380.1399,1033.92,2392.28,1042.99 M2331.1799,1072.1801c-4.4199,2.22-4.46,9.38,0.0901,11.49
		c4.01,2.49,9.79-1,9.5601-5.6801C2341.21,1073.15,2335.27,1069.72,2331.1799,1072.1801 M2211.96,1369.37
		C2210.8401,1372.51,2215.27,1368.99,2211.96,1369.37 M2211.21,1372.26C2211.7,1372.6801,2211.7,1372.6801,2211.21,1372.26z"/>
	<path fill="#6599FF" d="M2252.2,1015.99c2.6702-1.25,6.4202-1.26,8.28,1.41c2.6001,3.59,2.8801,8.2999,2.6301,12.59
		c-1.05,12.02-4.25,23.83-4.0601,35.96c-0.3701,11.75,4.3699,22.7201,7.05,33.9601c3.2898,12.4399,6.4399,25,7.8398,37.8199
		c-6.3799,6.1-12.02,13.02-18.8499,18.6c-16.0901-17.49-34.25-32.89-52.8-47.6599c-7.3701-6.04-15.4102-11.51-21.02-19.3501
		c7.2,0.1901,13.77,3.7101,19.3301,8.0701c-6.1902-8.14-8.8801-19.11-6.0701-29.05c1.2-3.87,3.3301-7.7999,7.03-9.7799
		c3.55-1.9701,7.99-1.3701,11.5,0.4099c6.1499,3.0901,10.8298,8.38,14.96,13.76c-2.0701-6.3099-2.27-13.15-0.6899-19.58
		c2.1199-9.3201,6.48-18.0601,12.1599-25.72C2242.95,1022.89,2246.9199,1018.42,2252.2,1015.99z"/>
	<path fill="#6599FF" d="M2153.3799,1043.85c23.6301-2.38,47.5601-1.64,71.01,2.2001c-1.26,4.23-2.1599,8.5599-2.7698,12.9399
		c-4.9402-3.91-11.1301-7.33-17.6301-6.1899c-6.5801,1-11.4399,6.62-13.46,12.6799c-2.46,6.54-2.1001,13.7001-0.72,20.4401
		c-4.1201-0.87-8.5-2.17-12.47-0.14C2168.0601,1072.55,2162.48,1057.17,2153.3799,1043.85z"/>
	<path fill="#6599FF" d="M2264.29,1056.8c5.6199,2.0699,11.1099,4.47,16.5,7.11c-6.02,10.84-8.9001,23.0699-9.74,35.36
		c-2.1001-6.21-3.6401-12.59-5.4202-18.89C2263.46,1072.73,2263.3301,1064.64,2264.29,1056.8z"/>
	<path fill="#FFFFFF" d="M2331.1799,1072.1801c4.0901-2.4601,10.03,0.97,9.6501,5.8099c0.23,4.6801-5.55,8.17-9.5601,5.6801
		C2326.72,1081.5601,2326.76,1074.4,2331.1799,1072.1801z"/>
</g>
<path fill="#FFFFFF" d="M2211.96,1369.37C2215.27,1368.99,2210.8401,1372.51,2211.96,1369.37z"/>
<path fill="#FFFFFF" d="M2211.21,1372.26C2211.7,1372.6801,2211.7,1372.6801,2211.21,1372.26z"/>
<g>
	<path fill="#6599FF" d="M509.9,1456.2c8.62-1.51,17.41-1.0399,26.12-1.11c134.99,0.02,269.98-0.02,404.97,0.02
		c34.01,0.14,66.43,21.89,80.21,52.85c5.47,11.88,8.09,24.9701,8.05,38.03c-0.03,48.34,0.05,96.6801-0.04,145.01
		c-0.3099,21.8101-9.0599,43.29-23.8699,59.27c-16.8,18.38-41.44,29.1899-66.35,29.0599c-138.66-0.01-277.32,0.03-415.99-0.0199
		c-21.66-0.26-43.06-8.7201-59.06-23.3301c-18.47-16.61-29.69-41.1-29.63-65.99c-0.02-30.15-0.07-60.3099,0.03-90.46
		c-24.47-5.89-49.09-11.13-73.57-16.9601c24.91-18.4199,50.17-36.36,75.14-54.7c3.42-17.66,12.36-34.13,25.14-46.77
		C474.22,1468,491.54,1459.13,509.9,1456.2z"/>
	<path fill="#6599FF" d="M323.14,1566.2c14.15-11.36,27.58-23.62,41.49-35.2799c-5.54,22.4299-11.42,44.7899-17.1,67.1899
		c12.61,1.99,25.26,3.78,37.81,6.1c-10.9,5.1801-21.96,10.01-32.93,15.03c1.01,16.5601-3.41,33.52-13.07,47.09
		c-8.63,12.3401-21.15,21.87-35.35,26.92c8.06,18.74,14.68,38.33,16.93,58.6899c1.78,16.5901,0.41,33.9301-6.7,49.2201
		c-6.88,15.12-19.1,27.34-33.31,35.72c-17.68,10.58-37.8,16.28-57.95,19.91c-19.03,3.45-38.36,4.5599-57.65,5.1899
		c-5.17,24.64-10.36,49.27-15.5,73.91c-0.76,4.0699-3.8,7.78-7.88,8.85c-3.95,1.15-8.8-0.05-11.16-3.5699
		c-1.8-2.65-1.7-6.11-0.79-9.03c4.5-13.54,9.89-26.8,14.05-40.4401c-6.27,14.4701-12.54,28.9501-18.86,43.4
		c-3.06,6.8201-11.34,10.6901-18.5,8.24c-4.91-1.35-8.91-6.23-8.16-11.45c0.62-6.22,5.64-10.53,9.06-15.3201
		c8.88-11.5099,17.88-22.9199,26.61-34.5399c-9.1,9.95-18.23,19.89-27.24,29.9299c-4.15,4.11-10.02,6.87-15.94,6.5801
		c-5.03-0.11-9.63-4.4501-9.83-9.51c-0.47-4.2101,1.88-8.24,5.19-10.67c23.88-16.46,48.11-32.4299,71.89-49.03
		c-0.73-17.0599-1-34.1499-0.04-51.1899c17.47-1.87,33.67-9.54,48.61-18.39c2.12-1.03,3.19-3.12,2.96-5.42
		c-5.39-1.0299-9.63,3.05-14.17,5.1801c-15.45,8.15-32.9,15.1-50.68,12.46c-14.36-2.12-26.32-11.6599-35.2-22.6599
		c-10.59-13.3-18.22-28.66-24.9-44.2101c-0.51-1.53-2.12-3.15-3.84-2.38c-9.8,2.7001-20.24,5.12-30.35,2.66
		c-4.98-1.23-10.15-4.28-11.73-9.46c-1.83-6,1.29-12.3301,5.73-16.3301c8.16-7.4399,19.97-8.73,30.52-7.49
		c3.54,0.4501,3.73-5.63,0.28-5.61c-13.85-2.5599-26.27-13.09-30.03-26.8c-1.61-5.4199-0.39-12.3999,4.97-15.25
		c7.17-3.84,15.72-2.5199,23.35-1c3.94,0.63,7.71,2.89,11.79,2.04c0.12-1.6899,1.01-4.13-1.06-4.9299
		c-4.6-2.5801-8.63-6.13-11.47-10.5801c-6.06-9.11-9.01-19.9299-10.45-30.6599c-1.07-9.8601-1.32-20.1901,2.09-29.64
		c1.15-3.2101,3.74-7.39,7.76-6.17c5.31,1.95,8.78,6.83,11.57,11.51c10.72,18.95,18.95,40.5699,36.87,54.15
		c27.85,22.1799,56.05,44.84,77.19,73.83c6.33,8.67,11.89,17.92,16.34,27.7c0.79,1.8701,3.03,4.4301,5.17,2.8501
		c1.49-1.74,0.57-4.12-0.21-5.92c-7.59-16.3199-18.13-31.08-29.95-44.58c7.24-9.7201,16.9-17.13,25.31-25.73
		c-9.44-18.67-10.26-41.4601-2.13-60.7301c6.52-15.83,18.92-29.1,34.18-36.84C270.72,1547.24,301.58,1549.86,323.14,1566.2
		 M263.22,1595.26c-4.42,1.36-5.78,7.6899-2.29,10.74c3.23,3.35,9.83,1.59,10.66-3.1C273.07,1598.15,267.79,1593.33,263.22,1595.26z
		"/>
	<path fill="#6599FF" d="M171.72,1548.75c3.63-4.3199,7.77-8.84,13.35-10.47c3.53-1.14,6.97,1.4299,8,4.74
		c2.56,7.1,0.54,14.7-0.42,21.91c-2.01,12.5599-4.04,25.62-0.89,38.1699c5.12,19.05,11.11,38.01,13.26,57.6901
		c-6.22,6.3099-12.41,12.6499-18.65,18.95c-18.73-20.4399-40.35-37.92-62.02-55.1c-4.53-3.59-8.76-7.62-12.09-12.36
		c7.03,0.13,13.47,3.49,18.92,7.6899c-4.22-5.8199-6.83-12.89-6.75-20.12c-0.13-5.96,1.37-12.38,5.75-16.66
		c3.26-3.25,8.43-3.6399,12.52-1.8899c6.36,2.5499,11.03,7.8199,15.37,12.9299C154.79,1577.89,161.8,1561.4399,171.72,1548.75z"/>
	<path fill="#FFFFFF" d="M263.22,1595.26c4.57-1.9301,9.85,2.89,8.37,7.64c-0.83,4.6899-7.43,6.45-10.66,3.1
		C257.44,1602.95,258.8,1596.62,263.22,1595.26z"/>
</g>
<g>
	<path fill="#6599FF" d="M2393.97,1564.9399c13.22-11.33,26.4001-22.73,39.6599-34.0199
		C2428.05,1553.35,2422.2,1575.71,2416.53,1598.11c12.6299,1.99,25.29,3.85,37.8899,6.05c-10.9199,5.1899-22,10.0399-33.01,15.0499
		c1.01,16.86-3.5999,34.0701-13.5498,47.8c-8.6301,11.98-20.9202,21.29-34.8601,26.22c7.8501,18.4301,14.4399,37.62,16.78,57.62
		c2.1599,18.39,0.3999,37.85-8.5901,54.34c-8.1199,15.3601-21.8699,27.02-37.1099,34.9701
		c-26.8501,13.7999-57.26,18.61-87.0701,20.75c-7.52,0.87-15.2,0.23-22.6399,1.2999c-5.02,22.53-9.55,45.1901-14.3501,67.78
		c-1.01,4.23-1.2,9.17-4.7,12.25c-4.52,4.5-13.53,3.8-16.25-2.3199c-2.1301-5.1901,0.96-10.4,2.52-15.27
		c3.71-11.02,8.1299-21.8201,11.3999-32.98c-6.23,14.47-12.49,28.9299-18.8101,43.36c-3.6299,8.64-15.8699,12-23.0898,5.83
		c-4.8201-3.83-4.52-11.27-0.9602-15.84c10.8101-14.4301,22.2102-28.4301,32.9502-42.92c-9.23,10.09-18.4102,20.22-27.6301,30.3201
		c-4.99,4.59-12.51,7.7799-19.2,5.25c-5.48-2.1801-7.71-9.3-5.05-14.4c1.6201-3.65,5.2-5.71,8.3701-7.84
		c21.8198-14.78,43.6199-29.6101,65.45-44.39c0.8699-0.8201,2.46-1.52,2.1199-2.98c-0.5498-16.6801-0.97-33.4,0.1001-50.0701
		c17.48-1.5699,33.6301-9.48,48.5801-18.24c2.1399-0.98,3.0798-3.09,2.97-5.36c-2.47-0.4301-4.98-0.13-7.1101,1.22
		c-10.78,6.12-21.99,11.8-34.0698,14.85c-11.01,2.87-23.02,3.1001-33.6702-1.25c-11.8999-4.8099-21.21-14.24-28.6799-24.4299
		c-8.6799-12.01-15.3101-25.36-21.1001-38.9601c-0.53-1.5199-1.71-2.61-2.8899-3.5599c-10.8801,3.28-22.8801,6.09-34.01,2.38
		c-4.4199-1.51-8.53-4.83-9.5901-9.54c-1.3098-6.01,1.9001-12.11,6.4102-15.9199c7.3499-6.2401,17.48-8.2101,26.8899-7.27
		c1.8701,0.21,3.79,0.0599,5.6799-0.3201c0.1602-1.86,0.6501-4.85-1.97-5.02c-12.5-2.2599-23.6799-10.88-28.8-22.5199
		c-1.97-4.6801-3.21-10.2301-0.8899-15c2.01-4.1801,6.6599-6.2201,11.05-6.77c6.3301-0.7001,12.76,0.11,18.9199,1.71
		c3.1201,0.77,6.24,2.1801,9.54,1.51c0.1201-1.6899,1.02-4.16-1.05-4.96c-8.3101-4.36-13.6299-12.62-16.9399-21.13
		c-4.97-13.01-6.71-27.27-5.05-41.0901c0.71-4.6,1.78-9.3999,4.6699-13.1499c1.54-2.1001,4.6001-2.37,6.75-1.0601
		c6.29,3.4301,9.6501,10.1,13,16.12c7.2202,13.71,13.79,28.05,24.1501,39.78c5.8799,6.85,13.49,11.86,20.3799,17.62
		c27.02,21.77,53.8301,44.92,72.74,74.38c4.03,6.15,7.4102,12.7,10.5801,19.34c0.76,2.1,2.9399,2.7101,5,2.59
		c0.46-1.8799,0.8101-3.87-0.1499-5.6299c-7.53-16.6101-18.26-31.5901-30.24-45.26c7.27-9.6901,16.8699-17.15,25.3298-25.7101
		c-9.1899-18.23-10.29-40.4-2.6799-59.36c5.9199-15.26,17.24-28.3099,31.4199-36.46c23.0601-13.55,53.72-12.79,75.9502,2.13
		C2390.0601,1564.5699,2392.1499,1567.13,2393.97,1564.9399 M2332.2,1595.25c-4.4399,1.38-5.8298,7.78-2.23,10.78
		c3.48,3.62,10.55,1.11,10.72-3.99C2341.55,1597.49,2336.3701,1593.52,2332.2,1595.25z"/>
	<path fill="#6599FF" d="M2246.04,1543.0601c3.02-2.6001,6.6599-5.4601,10.9199-4.9c2.8,0.36,4.5,3.0699,5.3301,5.5499
		c1.9299,5.9601,0.6299,12.28-0.1899,18.3301c-2.1301,13.27-4.6602,27.01-1.53,40.35c5.0999,19.3099,11.3098,38.5,13.4099,58.4399
		c-6.22,6.29-12.3699,12.64-18.6299,18.9c-18.7202-20.4399-40.3601-37.89-62-55.09c-4.6101-3.58-8.75-7.74-12.26-12.39
		c7.0698,0.13,13.5598,3.48,19.0598,7.7c-4.1499-5.7999-6.8198-12.7799-6.72-19.96c-0.1699-6.02,1.3201-12.5,5.74-16.83
		c3.27-3.1801,8.3801-3.61,12.48-1.88c6.3801,2.5499,11.0601,7.87,15.4102,12.99c-1.72-8.92-0.6501-18.14,2.75-26.54
		C2233.48,1558.55,2238.73,1549.8,2246.04,1543.0601z"/>
	<path fill="#6599FF" d="M1564.92,1591.11c8.2899-1.33,16.7-0.8099,25.0599-0.91c134.03,0,268.0601,0,402.09,0
		c14.7401-0.25,29.5,3.3401,42.53,10.2201c22.67,11.7699,39.83,33.61,45.7601,58.47c2.51,9.51,2.5999,19.39,2.49,29.16
		c0.1399,27.38-0.3101,54.7699,0.22,82.1399c24.48,5.3201,48.8799,11.05,73.3098,16.64c-24.96,18.1901-49.95,36.3201-74.98,54.42
		c-3.3999,16.25-10.9399,31.6801-22.2898,43.85c-14.1001,15.4401-33.7201,25.73-54.4801,28.37c-7.83,1.0801-15.74,0.72-23.6,0.78
		c-124.3401,0-248.6901,0-373.03,0c-12.34-0.17-24.7,0.34-37.03-0.29c-29.4399-2.0599-56.99-19.9099-71.3199-45.64
		c-8.9601-15.48-12.38-33.6-11.49-51.35c0.01-46.3199-0.03-92.64,0.02-138.95c0.2799-31.64,19.13-61.98,46.8999-76.92
		C1544.33,1596.04,1554.49,1592.63,1564.92,1591.11z"/>
	<path fill="#FFFFFF" d="M2332.2,1595.25c4.1702-1.73,9.3501,2.24,8.49,6.79c-0.1699,5.1-7.24,7.61-10.72,3.99
		C2326.3701,1603.03,2327.76,1596.63,2332.2,1595.25z"/>
</g>
<g>
	<path fill="#6599FF" d="M324.32,2028.37c13.49-11.45,26.8-23.13,40.32-34.54c-5.64,22.3401-11.28,44.7001-17.15,66.9901
		c12.66,2.29,25.41,4.03,38.1,6.1699c-10.98,5.26-22.18,10.02-33.2,15.1899c1.03,16.3101-3.28,32.98-12.65,46.4302
		c-8.62,12.6499-21.35,22.3499-35.74,27.5398c7.92,18.4402,14.48,37.6902,16.82,57.7102c1.78,15.9199,0.85,32.5198-5.41,47.45
		c-5.56,13.6099-15.39,25.25-27.32,33.75c-15.97,11.3799-34.78,18.0601-53.78,22.3398c-22.56,4.9602-45.7,7.0701-68.77,7.2102
		c-5.12,22.3999-9.52,44.97-14.34,67.4399c-1.1,4.51-1.18,9.8599-4.99,13.1399c-4.64,4.6401-14.18,3.5-16.43-3.0798
		c-1.52-5.3101,1.53-10.3401,3.06-15.25c3.63-10.77,7.93-21.3201,11.14-32.2202c-6.03,14.0601-12.19,28.0601-18.24,42.1201
		c-1.9,4.6101-5.83,8.5-10.74,9.73c-5.47,1.3201-12.1-0.3501-15.12-5.3899c-2.82-4.52-1.13-10.3401,1.97-14.24
		c10.77-13.9502,21.62-27.8501,32.33-41.8501c-9.56,10.1699-18.8,20.6399-28.3,30.8601c-5.55,4.6499-14.53,8.1499-20.97,3.25
		c-5.85-4.4502-4.46-14.02,1.37-17.8501c23.91-16.4099,48.08-32.46,71.93-48.96c-0.62-17.1201-1.01-34.27,0.01-51.3701
		c16.94-1.6299,32.63-9.0798,47.2-17.45c2.08-1.27,5.22-3.01,4.17-5.9299c-2.56-1.3501-5.4,0.1599-7.69,1.3699
		c-12.74,7.1802-26.2,13.76-40.82,15.9001c-10.46,1.6499-21.52,0.1499-30.86-4.97c-11-5.9202-19.49-15.52-26.43-25.74
		c-6.57-9.8201-12.03-20.3401-16.77-31.1401c-1.26-2.51-1.83-5.53-4-7.4299c-3.76-0.02-7.27,1.72-10.97,2.29
		c-9.13,1.75-19.39,2.71-27.73-2.2102c-5.25-3.0098-7.27-9.8999-5.06-15.4099c3.31-8.51,12.14-13.5,20.78-14.97
		c5.8-1.3701,11.73-0.0601,17.58-0.6899c0.19-1.6301,0.14-3.24-0.26-4.78c-11.61-1.72-22.34-8.6799-28.34-18.79
		c-3.12-5.23-5.42-11.6799-3.57-17.73c1.28-4.3,5.51-6.8999,9.69-7.75c6.44-1.3101,13.1-0.47,19.44,1.01
		c3.59,0.77,7.08,2.45,10.84,1.99c0.23-1.6599,1.23-4.1399-0.82-4.98c-4.4-2.5-8.36-5.79-11.18-10.01
		c-6.45-9.3999-9.5-20.6799-10.95-31.8601c-0.99-9.9099-1.25-20.34,2.44-29.7499c1.19-3.0901,3.9-6.9501,7.73-5.4601
		c6.36,2.66,9.98,8.9701,13.2,14.7201c7.47,13.9,13.96,28.59,24.32,40.6901c5.73,7,13.31,12.0598,20.21,17.7998
		c25.91,20.8201,51.58,42.8201,70.6,70.3801c5.3,7.6499,9.89,15.79,13.78,24.24c0.8,2.01,2.87,2.6599,4.87,2.6299
		c1.74-3.6499-0.66-7.1599-2.2-10.3599c-7.38-14.77-17.14-28.23-28.07-40.5601c7.22-9.74,16.85-17.2,25.33-25.75
		c-9.15-18.21-10.28-40.28-2.75-59.25c6.2-15.99,18.27-29.58,33.4-37.64c23.24-12.78,53.52-11.22,75.26,3.99
		C321.7,2027.84,323.08,2029.6,324.32,2028.37 M263.22,2058.1499c-4.75,1.3801-5.69,8.55-1.64,11.27
		c3.64,2.8601,9.85,0.3501,10.14-4.3699C272.66,2060.49,267.44,2056.3701,263.22,2058.1499z"/>
	<path fill="#6599FF" d="M182.24,2002.23c2.91-1.63,7.35-1.97,9.43,1.14c3.82,5.67,2.62,12.9301,1.79,19.3101
		c-2.17,14.0299-5.16,28.4999-1.87,42.61c2.91,10.8599,6.1,21.6399,8.71,32.5801c1.79,8.5498,4.24,17.1199,4.5,25.8799
		c-5.98,6.4399-12.27,12.6101-18.44,18.8799c-18.67-20.45-40.32-37.8699-61.94-55.0798c-4.61-3.5901-8.8-7.71-12.29-12.4001
		c7,0.1001,13.4,3.4102,18.87,7.53c-5.76-8.0898-8.18-18.6699-5.55-28.3398c1.24-4.3701,3.88-8.8201,8.31-10.5101
		c4.62-1.72,9.68,0.0801,13.51,2.8201c4.35,2.84,7.65,6.89,11.16,10.67c-3.82-14.8501,2.41-30.0901,10.69-42.2301
		C172.68,2010.09,176.82,2005.24,182.24,2002.23z"/>
	<path fill="#6599FF" d="M353.33,2057.3101c0.56-2.99,1.3-5.9302,2.19-8.8201c171.48,0.1599,342.97,0,514.45,0.0801
		c9.5601,0.1799,18.58,6.04,22.94,14.49c2.3,4.23,3.06,9.1199,2.98,13.9099c-0.03,67.3301,0,134.6699-0.01,202
		c-0.07,6.02,0.57,12.3301-1.84,18.04c-3.89,9.97-14.17,17.1899-24.95,16.9199c-197.03-0.01-394.06,0-591.08-0.01
		c-3.6,0.0701-7.16-0.6299-10.43-2.1199c12.31-5.71,24.36-12.48,34-22.1799c13.54-12.9902,21.91-30.9302,23.89-49.54
		c3.16-27.98-4.93-55.74-15.43-81.3801c15.56-6.8201,28.94-18.6299,37.19-33.52c6.92-12.1899,10.07-26.26,9.91-40.22
		c14.31-6.3999,28.54-12.99,42.87-19.3499C384.48,2062.6599,368.9,2060.01,353.33,2057.3101z"/>
	<path fill="#FFFFFF" d="M263.22,2058.1499c4.22-1.7798,9.44,2.3401,8.5,6.9001c-0.29,4.72-6.5,7.23-10.14,4.3699
		C257.53,2066.7,258.47,2059.53,263.22,2058.1499z"/>
</g>
<g>
	<path fill="#6599FF" d="M2393.3201,2028.33c13.5-11.4299,26.78-23.13,40.3298-34.5c-5.7,22.3-11.24,44.65-17.1599,66.89
		c12.53,2.5901,25.3,3.9001,37.8701,6.3201c-10.8801,5.25-21.9802,10.02-32.9602,15.0601
		c1.02,16.8499-3.5698,34.0898-13.5598,47.7798c-8.5801,12.02-20.9202,21.25-34.8101,26.2302
		c7.6799,18.22,14.26,37.1199,16.6599,56.8499c2.0601,17.02,0.9001,34.8601-6.27,50.6401
		c-6.48,14.4199-17.78,26.3098-31.0999,34.6599c-15.1201,9.6101-32.3301,15.3999-49.72,19.28c-22.4001,4.97-45.3701,6.77-68.27,7.2
		c-4.8801,23.0601-9.6802,46.1301-14.54,69.2c-0.8601,3.71-1.1699,7.95-4.0701,10.78c-3.9399,4.23-11.6699,4.55-15.48,0
		c-2.29-2.6499-2.29-6.5-1.29-9.6599c4.5701-13.52,9.78-26.8401,14.1101-40.4399c-6.4302,14.4299-12.54,29.0098-18.96,43.4399
		c-2.9001,6.1899-10.04,10.04-16.8101,8.5999c-4.6501-0.8799-9.22-4.4399-9.76-9.3699c-0.53-3.79,1.0601-7.46,3.3-10.4102
		c10.4099-13.6799,21.2-27.0698,31.45-40.8699c-7.3601,7.74-14.4399,15.75-21.6899,23.6101c-2.9001,3.0798-5.3901,6.74-9.24,8.75
		c-4.8301,2.7898-11.2102,4.6099-16.3401,1.5398c-4.8801-2.7998-6.28-9.6499-3.5-14.3699c2.24-4.1101,6.6599-6.1401,10.3101-8.76
		c21.78-14.8401,43.6899-29.51,65.3899-44.48c-0.6699-17.1101-1-34.25,0.01-51.3501c16-1.52,30.8701-8.3799,44.79-16.05
		c2.95-1.7798,7.3-3.45,6.79-7.6499c-5.76-1.0801-10.1799,3.4099-15.04,5.6101c-15.51,7.97-33,14.9299-50.73,11.8298
		c-15.1899-2.5601-27.46-13.27-36.4199-25.24c-8.5801-11.4099-15.1902-24.1699-20.9202-37.2c-1.1099-2.29-1.71-4.96-3.6399-6.6899
		c-5.0701,0.25-9.8401,2.51-14.9102,2.96c-8.73,1.25-18.97,1.54-26.0198-4.6101c-5.1902-4.72-4.5701-13.0898-0.4001-18.24
		c5.1899-6.97,13.9099-10.26,22.3301-10.96c4.5-0.54,9.02,0.49,13.53-0.1499c0.21-1.6201,0.1499-3.22-0.22-4.76
		c-11.6301-1.76-22.3701-8.7-28.3801-18.8401c-3.1001-5.24-5.4199-11.6499-3.53-17.7c1.24-4.1001,5.1899-6.77,9.23-7.6499
		c6.6001-1.52,13.47-0.54,20,0.9199c3.47,0.7,6.8501,2.5,10.5,1.9399c0.25-0.6199,0.76-1.8499,1.01-2.47
		c-0.23-0.53-0.6799-1.5901-0.8999-2.1201c-8.1799-3.99-13.7-11.75-17.1201-19.95c-4.2998-10.3899-6.27-21.6599-6.3599-32.8699
		c0.1699-7.39,0.6099-15.2201,4.4299-21.75c1.24-2.54,4.4299-4.0701,7.0701-2.6101c6.6099,3.27,10.1099,10.1901,13.54,16.37
		c8.6099,16.37,16.49,33.92,30.72,46.3002c32.1399,25.8398,65.5798,51.8699,87.71,87.3198c3.25,5.21,6.24,10.5901,8.74,16.22
		c0.8501,1.9402,2.3,4.26,4.79,3.99c2.0698-1.0698,1.6499-3.9099,0.8198-5.6499c-7.5698-16.6001-18.23-31.6101-30.25-45.27
		c7.1501-9.77,16.8301-17.1799,25.29-25.73c-8.8198-17.55-10.1699-38.6499-3.5498-57.1499
		c5.7998-16.42,17.71-30.5601,32.9199-39.0601c23.22-13.3501,53.8799-12.27,75.98,2.9299
		C2390.3201,2027.51,2391.8301,2029.62,2393.3201,2028.33 M2331.3899,2058.47c-4.46,2.04-4.5398,9.1799-0.1699,11.3701
		c3.73,2.22,9.25-0.4202,9.45-4.8701C2341.6001,2060.0801,2335.6599,2055.9399,2331.3899,2058.47z"/>
	<path fill="#6599FF" d="M2252.5801,2001.62c2.6899-1.02,6.46-0.97,8.1199,1.8101c3.55,5.38,2.6501,12.23,1.8701,18.2999
		c-2,13.61-5.0601,27.51-2.49,41.28c4.8398,19.24,11.0498,38.23,13.6899,57.97c0.1699,1.3101,0.3401,2.9399-0.8999,3.8701
		c-5.8301,5.9199-11.6301,11.8699-17.5,17.76c-18.55-20.2102-39.9001-37.54-61.3401-54.54c-4.8401-3.75-9.3201-8.01-12.9099-12.97
		c7.0398,0.23,13.5798,3.45,19.0098,7.7798c-6.47-8.8999-8.8999-21.1499-4.6299-31.48c1.8799-5.0199,7.01-9.08,12.5701-8.1499
		c8.49,1.4399,14.5,8.46,19.6799,14.78c-2.6399-8.21-1.6399-17.12,1.22-25.11c2.8201-8.14,7.0901-15.79,12.6201-22.4
		C2244.6899,2006.96,2248.1699,2003.49,2252.5801,2001.62z"/>
	<path fill="#6599FF" d="M1532.23,2049.1299c4.87-0.7698,9.8201-0.45,14.75-0.49c193.0701-0.0298,386.14,0.03,579.22-0.0298
		c-0.0798,18.7,3.8701,38.8198,16.8901,53.01c-7.3601-1.4602-15.2002-2.3101-22.4602,0.0598c-4.9299,1.5701-9.22,5.4001-10.71,10.45
		c-1.6199,5.6401-0.53,11.77,1.8901,17.04c4.0601,9.05,11.49,16.3501,20.22,20.9502c-9.74,0.96-19.74,5.1299-25.45,13.3999
		c-4.0701,5.5901-5.3601,13.53-1.8,19.7c3.55,6.27,10.74,9.4299,17.6499,10.29c9.23,1.0601,18.5-0.54,27.3801-3
		c7.49,17.1101,15.98,34.1399,28.4399,48.24c8.5701,9.77,19.8401,17.6899,32.75,20.27c3.78,0.79,7.6599,0.95,11.52,1.23
		c-0.6899,16.5801-0.53,33.1799-0.0901,49.77c-2.5898,1.7-5.04,4.3401-8.4299,3.8699c-220.35-0.0698-440.7,0.02-661.05-0.0398
		c-9.1699-1.49-18.76,0.0999-27.63-3.0801c-16.7799-5.3801-29.13-22.1301-28.97-39.8c-0.03-60.3401-0.0599-120.6899,0.01-181.03
		C1496.4399,2070.03,1512.55,2051.8501,1532.23,2049.1299z"/>
	<path fill="#6599FF" d="M2164,2048.6201c9.1699,0.0098,18.3501,0.0198,27.54,0.0098c-3.26,7.3-3.49,15.54-1.7,23.26
		c-4.1401-1.0298-8.7002-2.3499-12.6602-0.0398C2172.28,2064.3999,2167.9399,2056.6001,2164,2048.6201z"/>
	<path fill="#FFFFFF" d="M2331.3899,2058.47c4.27-2.53,10.2102,1.6101,9.28,6.5c-0.2,4.45-5.72,7.0901-9.45,4.8701
		C2326.8501,2067.6499,2326.9299,2060.51,2331.3899,2058.47z"/>
</g>
</svg>
