<?xml version="1.0"?>
<svg xmlns:rdf="http://www.w3.org/1999/02/22-rdf-syntax-ns#" xmlns="http://www.w3.org/2000/svg" xmlns:cc="http://web.resource.org/cc/" xmlns:xlink="http://www.w3.org/1999/xlink" xmlns:dc="http://purl.org/dc/elements/1.1/" xmlns:svg="http://www.w3.org/2000/svg" id="svg1350" height="6.1cm" width="10.15cm">
  <rect id="rect1071" fill-rule="evenodd" height="216.03" width="359.73" y=".15486" x="0" fill="#ffd700"/>
  <g id="g993" stroke="#000" stroke-width="1pt">
    <path id="path958" d="m233.43 164.14c1.14 4.94 2.28 3.8 4.56 4.94 2.27 1.13 1.51 4.17 2.27 7.21 0.14 5.38 1.83 14.64 2.35 17.61 0.51 1.72-2.31 2.66-2.88 0.47-0.76-1.52-0.98-1.38-1.36 0.9-0.38 2.27-2.86 3.66-5.56 3.7-1.45 0.2 1.49-2.99-2.26-1.11l-0.31-0.25c-1.56-0.78 1.67-2.34 3.57-5s2.66-8.35 1.14-10.25-2.66-4.17-2.66-6.07-2.27-2.28-4.55-4.18-3.8-2.28-4.56 0.38 0.76 4.56 0.38 7.59c-0.38 3.04-3.41 2.28-5.31 4.94-1.9 2.65-11.39 10.63-11.39 10.63s-2.28-1.14-2.65 0.75c-0.38 1.9-4.37 3.64-6.08 3.26l-0.38-1.74h-3.03c-0.19-1.33 1.14-2.27 2.65-4.17 1.52-1.9 3.42-1.14 5.7-2.66 2.27-1.52 4.55-4.55 6.83-7.97s2.28-6.45 1.14-7.59-1.9-3.8-1.9-3.8-2.66 0.38-3.04-1.9c-0.38-2.27-13.28 4.18-15.18 5.32s-6.83 1.52-6.83 1.52 1.14 11.38 1.52 13.66 1.14 4.37-1.52 3.99c-0.38-2.09-2.28-1.52-1.9 0.57 0 3.03-2.28 4.93-2.28 4.93l-4.93 0.09v-2.75l-2.12 0.92c-0.38-0.57 0.03-1.87 1.74-3.57 2.66-2.28 4.17-8.73 4.17-11.39s-1.51-5.69-1.51-5.69-9.87-0.38-11.01-1.9-1.14 0.76-3.42 2.28c-2.27 1.51-5.31 1.89-7.59 2.27s-6.07 4.18-8.73 4.18-2.66 1.14-2.66 3.41c0 2.28 1.52 9.93-1.89 7.46-1.52-1.14 1.7 4.88-3.04 4.69-2.66 0-4.68-0.38-3.73-1.9l-1.96 0.19c-0.38-1.9 0-2.84 0.76-4.36 1.13-3.42 5.69-7.21 5.69-9.11s1.52-3.8 4.55-6.45c3.04-2.66 6.46-6.46 9.11-7.98 2.66-1.51 1.52-3.03 0.38-4.55s-10.24-10.25-11.38-12.15c-1.14-1.89-3.8 0.76-5.7 0.38-1.89-0.38-3.03 3.42-5.31 4.18s-5.31 0.38-6.83-0.38-1.14-2.28-3.04-3.8c-1.9-1.51-1.52-2.27 0.76-3.79s4.55-6.83 3.8-7.97c-0.76-1.14-1.14-2.66 0-3.8 1.13-1.14 2.27-4.55 2.27-6.07s1.14-3.8 2.66-3.8 9.49-1.14 11.39 0.38c1.89 1.52 15.18 6.83 19.73 6.83 4.56 0 16.7-1.13 18.6-0.38 1.9 0.76 23.16 0.76 26.19 0.38 3.04-0.38 8.73-2.65 13.29-1.89 4.55 0.76 6.83 1.51 8.73 4.17 1.89 2.66 4.93 4.56 7.97 6.45 8.35 5.32 6.45 16.33-3.42 19.74z" fill="#f00" fill-rule="evenodd"/>
    <path id="path956" d="m129.05 128.46c-2.66-2.65-0.76-4.17-4.17-3.41 0 3.03 0.76 5.31 2.65 6.83 1.9 1.52 1.52-3.04 1.52-3.42z" fill="#f00" fill-rule="evenodd"/>
    <path id="path957" d="m231.91 159.97c6.84-3.04 7.22-11.39-2.65-15.95-9.87-4.55 3.03 16.33 2.65 15.95z" fill="#ffd700" fill-rule="evenodd"/>
    <path id="path959" d="m177.64 135.29c-2.35 2.21-4.55 5.15-0.24 6.84 0.5 0.19 0.73 0.26 0.67 0.79" fill="#f00" fill-rule="evenodd"/>
    <path id="path960" d="m220.53 133.78c0 1.46 3.31 4.45 4.55 5.4" fill="#f00" fill-rule="evenodd"/>
    <path id="path961" d="m220.15 140.99c0 2.73-0.44 4.58-0.01 7.04 0.45 2.51 0.4 5.09-0.58 7.3-0.38 0.21-0.6 0.94-1.01 1.32" fill="#f00" fill-rule="evenodd"/>
    <path id="path963" d="m162.83 160.73c0 3.04 2.83 6.33 5.14 8.21 1.17 0.95 1.82 2.37 3.53 2.82 0.29 0.07 4.07 2.43 4.32 2.66 0.68 0.62 0.59 1.89 1.37 2.65" fill="#f00" fill-rule="evenodd"/>
    <path id="path964" d="m154.86 167.94c1.97 1.97 4.89 3 7.15 4.6 1.23 0.87 2.08 1.51 3.64 2.43" fill="#f00" fill-rule="evenodd"/>
    <path id="path965" d="m211.23 160.92c1.85 1.85 3.67 4.2 5.81 5.81 1.68 1.26 4.92 4.17 7.04 4.02" fill="#f00" fill-rule="evenodd"/>
    <path id="path966" d="m205.34 169.48c2.71 0 5.28-0.71 7.91-1.19 0.46-0.09 3.34-1.51 3.19-1.93" fill="#f00" fill-rule="evenodd"/>
    <path id="path967" d="m208.38 168.7c1.68 1.68 3.64 3.61 5.61 4.18 1.72 0.5 4.42-0.55 4.59-0.02 0.2 0.6 2.2 0.8 2.89 0.79 0.08-0.01 1.53-0.01 1.35-0.02" fill="#f00" fill-rule="evenodd"/>
    <path id="path968" d="m212.94 172.49c0 0.89 0.94 1.94 0.76 2.69" fill="#f00" fill-rule="evenodd"/>
    <path id="path969" d="m217.11 172.87c0.38 0.75 0.78 1.89 0.76 2.67" fill="#f00" fill-rule="evenodd"/>
    <path id="path970" d="m220.59 173.94c0 0.26 0.15 1.29 0.32 1.55" fill="#f00" fill-rule="evenodd"/>
    <path id="path971" d="m158.64 141.97c0 1.79 1.22 4.02 0.78 5.81-0.45 1.78-1.13 3.02-1.14 4.87-0.01 1.7-2.04 6.88-2.7 8.54-0.27 0.7 0.21 1.5 0.43 2.22" fill="#f00" fill-rule="evenodd"/>
    <path id="path972" d="m145.37 148.2c0 2.39-3.34 3.96-5.24 4.72" fill="#f00" fill-rule="evenodd"/>
    <path id="path973" d="m141.58 139.09c-2.42 4.83-8.5-0.33-8.35 4.19 0.03 0.75 4.69 1.11 4.57-1.58" fill="#f00" fill-rule="evenodd"/>
    <path id="path974" d="m136.64 143.27c0 1.72-2.11 1.56-3.09 3.06" fill="#f00" fill-rule="evenodd"/>
    <path id="path975" d="m130.95 131.88c1.1 0.55 3.14-0.2 3.98 0.38 0.44 0.3 1.23 1.26 1.39 0.76" fill="#f00" fill-rule="evenodd"/>
    <path id="path976" d="m126.02 142.13h2.4" fill="#f00" fill-rule="evenodd"/>
    <path id="path977" d="m131.33 157.69c3.23 0 1.65-5.6 1.89-6.1" fill="#f00" fill-rule="evenodd"/>
    <path id="path978" d="m127.15 152c-0.81 1.63-4.28 2.61 0.08 3.43 0.24 0.04 1.24-1.26 1.07-1.55" fill="#f00" fill-rule="evenodd"/>
    <path id="path979" d="m184.09 176.29l-0.38-14.81" fill="#f00" fill-rule="evenodd"/>
    <path id="path980" d="m231.53 159.97c-6.07 1.13-16.32 0.38-20.87-3.42-4.56-3.8-11.39-11.39-16.7-10.25-5.32 1.14-11.77 0.76-9.11 2.66 2.65 1.9 6.45 3.79 8.73 3.04 2.28-0.76-12.53-1.14-7.59 0.75 4.93 1.9 8.73 2.66 10.62 1.52 1.9-1.14 3.42-1.89 7.22 1.14 3.79 3.04 10.24 7.97 14.04 8.35s15.18 0 15.18 0h0.94" fill="#f00" fill-rule="evenodd"/>
    <path id="path981" d="m184.47 148.2c3.96 1.98 7.21 0.83 11.07 0.33" fill="#f00" fill-rule="evenodd"/>
    <path id="path982" d="m153.34 137.19c1.9 9.87-4.55 18.98-6.45 19.74s-3.41-1.9-3.41-1.9 0 3.04 0.75 4.56c0.76 1.51-2.27 6.07-2.27 7.97s8.73 1.9 7.97 0c-0.76-1.14-1.9-5.32-1.9-5.7 0.76-1.89 13.28-7.21 10.25-25.05-1.14 0.38-3.04 0.38-4.94 0.38z" fill="#00f" fill-rule="evenodd"/>
    <path id="path983" d="m232.29 194.8c1.65 0.31 4.06 0.47 5.71 0.47" fill="#f00" fill-rule="evenodd"/>
    <path id="path984" d="m197.37 197.16c0.39 0.32 1.66-1.95 2.23-1.73" fill="#f00" fill-rule="evenodd"/>
    <path id="path985" d="m197.37 194.13c0.61 0 7.67 1.28 7.46 1.6" fill="#f00" fill-rule="evenodd"/>
    <path id="path986" d="m174.6 195.27c3.04 1.51 5.07 1.07 7.23-1.16" fill="#f00" fill-rule="evenodd"/>
    <path id="path987" d="m134.37 194.13c2.14 1.07 4.51 1.14 6.85 1.14" fill="#f00" fill-rule="evenodd"/>
    <path id="path988" d="m135.5 194.51c0.75 1.5-0.21 1.9 0.01 3.08" fill="#f00" fill-rule="evenodd"/>
    <path id="path990" d="m144.42 160.73l3.42 0.94" fill="#f00" fill-rule="evenodd"/>
    <path id="path991" d="m147.27 169.08a1.0438 1.8978 0 1 0 -2.09 0 1.0438 1.8978 0 1 0 2.09 0z" fill="#f00" fill-rule="evenodd"/>
    <path id="path955" d="m149.93 133.02c2.65 2.27 7.97 0.95 12.14-0.19 4.18-1.14-5.69 7.78-16.32 1.71-10.63-6.08 3.8-1.52 4.18-1.52z" fill="#f00" fill-rule="evenodd"/>
    <path id="path953" d="m157.52 113.66c-4.75 0-6.83 0.38-7.97 3.42-0.38 3.41-0.38 9.48-3.04 9.86-2.09 0.76-3.41 1.14-3.41 2.28 0 1.33 3.22 1.71 4.17 2.47 1.52-0.38 3.42-1.33 4.18-2.28 1.51-1.9 1.51-3.79 1.51-6.26 0-1.9-0.38-4.37 1.14-5.69 2.28-1.9 3.04-3.42 3.42-3.8z" fill="#00f" fill-rule="evenodd"/>
    <path id="path954" d="m122.22 114.04c4.55-0.38 7.4 0.57 8.73 4.93 0.38 3.42 4.17 6.08 5.31 8.35 1.14 2.28-5.31-0.38-6.07 1.52s-3.04-6.45-3.04-7.97c-0.95-4.93-5.31-6.45-4.93-6.83z" fill="#00f" fill-rule="evenodd"/>
    <path id="path992" d="m134.75 141.56c0.56 1.33 1.15 1.91 1.15 1.91" fill="none"/>
  </g>
  <g id="g1032" stroke="#000" stroke-width="1pt" transform="translate(1.25 -96.25)">
    <path id="path1033" d="m233.43 164.14c1.14 4.94 2.28 3.8 4.56 4.94 2.27 1.13 1.51 4.17 2.27 7.21 0.14 5.38 1.83 14.64 2.35 17.61 0.51 1.72-2.31 2.66-2.88 0.47-0.76-1.52-0.98-1.38-1.36 0.9-0.38 2.27-2.86 3.66-5.56 3.7-1.45 0.2 1.49-2.99-2.26-1.11l-0.31-0.25c-1.56-0.78 1.67-2.34 3.57-5s2.66-8.35 1.14-10.25-2.66-4.17-2.66-6.07-2.27-2.28-4.55-4.18-3.8-2.28-4.56 0.38 0.76 4.56 0.38 7.59c-0.38 3.04-3.41 2.28-5.31 4.94-1.9 2.65-11.39 10.63-11.39 10.63s-2.28-1.14-2.65 0.75c-0.38 1.9-4.37 3.64-6.08 3.26l-0.38-1.74h-3.03c-0.19-1.33 1.14-2.27 2.65-4.17 1.52-1.9 3.42-1.14 5.7-2.66 2.27-1.52 4.55-4.55 6.83-7.97s2.28-6.45 1.14-7.59-1.9-3.8-1.9-3.8-2.66 0.38-3.04-1.9c-0.38-2.27-13.28 4.18-15.18 5.32s-6.83 1.52-6.83 1.52 1.14 11.38 1.52 13.66 1.14 4.37-1.52 3.99c-0.38-2.09-2.28-1.52-1.9 0.57 0 3.03-2.28 4.93-2.28 4.93l-4.93 0.09v-2.75l-2.12 0.92c-0.38-0.57 0.03-1.87 1.74-3.57 2.66-2.28 4.17-8.73 4.17-11.39s-1.51-5.69-1.51-5.69-9.87-0.38-11.01-1.9-1.14 0.76-3.42 2.28c-2.27 1.51-5.31 1.89-7.59 2.27s-6.07 4.18-8.73 4.18-2.66 1.14-2.66 3.41c0 2.28 1.52 9.93-1.89 7.46-1.52-1.14 1.7 4.88-3.04 4.69-2.66 0-4.68-0.38-3.73-1.9l-1.96 0.19c-0.38-1.9 0-2.84 0.76-4.36 1.13-3.42 5.69-7.21 5.69-9.11s1.52-3.8 4.55-6.45c3.04-2.66 6.46-6.46 9.11-7.98 2.66-1.51 1.52-3.03 0.38-4.55s-10.24-10.25-11.38-12.15c-1.14-1.89-3.8 0.76-5.7 0.38-1.89-0.38-3.03 3.42-5.31 4.18s-5.31 0.38-6.83-0.38-1.14-2.28-3.04-3.8c-1.9-1.51-1.52-2.27 0.76-3.79s4.55-6.83 3.8-7.97c-0.76-1.14-1.14-2.66 0-3.8 1.13-1.14 2.27-4.55 2.27-6.07s1.14-3.8 2.66-3.8 9.49-1.14 11.39 0.38c1.89 1.52 15.18 6.83 19.73 6.83 4.56 0 16.7-1.13 18.6-0.38 1.9 0.76 23.16 0.76 26.19 0.38 3.04-0.38 8.73-2.65 13.29-1.89 4.55 0.76 6.83 1.51 8.73 4.17 1.89 2.66 4.93 4.56 7.97 6.45 8.35 5.32 6.45 16.33-3.42 19.74z" fill="#f00" fill-rule="evenodd"/>
    <path id="path1034" d="m129.05 128.46c-2.66-2.65-0.76-4.17-4.17-3.41 0 3.03 0.76 5.31 2.65 6.83 1.9 1.52 1.52-3.04 1.52-3.42z" fill="#f00" fill-rule="evenodd"/>
    <path id="path1035" d="m231.91 159.97c6.84-3.04 7.22-11.39-2.65-15.95-9.87-4.55 3.03 16.33 2.65 15.95z" fill="#ffd700" fill-rule="evenodd"/>
    <path id="path1036" d="m177.64 135.29c-2.35 2.21-4.55 5.15-0.24 6.84 0.5 0.19 0.73 0.26 0.67 0.79" fill="#f00" fill-rule="evenodd"/>
    <path id="path1037" d="m220.53 133.78c0 1.46 3.31 4.45 4.55 5.4" fill="#f00" fill-rule="evenodd"/>
    <path id="path1038" d="m220.15 140.99c0 2.73-0.44 4.58-0.01 7.04 0.45 2.51 0.4 5.09-0.58 7.3-0.38 0.21-0.6 0.94-1.01 1.32" fill="#f00" fill-rule="evenodd"/>
    <path id="path1039" d="m162.83 160.73c0 3.04 2.83 6.33 5.14 8.21 1.17 0.95 1.82 2.37 3.53 2.82 0.29 0.07 4.07 2.43 4.32 2.66 0.68 0.62 0.59 1.89 1.37 2.65" fill="#f00" fill-rule="evenodd"/>
    <path id="path1040" d="m154.86 167.94c1.97 1.97 4.89 3 7.15 4.6 1.23 0.87 2.08 1.51 3.64 2.43" fill="#f00" fill-rule="evenodd"/>
    <path id="path1041" d="m211.23 160.92c1.85 1.85 3.67 4.2 5.81 5.81 1.68 1.26 4.92 4.17 7.04 4.02" fill="#f00" fill-rule="evenodd"/>
    <path id="path1042" d="m205.34 169.48c2.71 0 5.28-0.71 7.91-1.19 0.46-0.09 3.34-1.51 3.19-1.93" fill="#f00" fill-rule="evenodd"/>
    <path id="path1043" d="m208.38 168.7c1.68 1.68 3.64 3.61 5.61 4.18 1.72 0.5 4.42-0.55 4.59-0.02 0.2 0.6 2.2 0.8 2.89 0.79 0.08-0.01 1.53-0.01 1.35-0.02" fill="#f00" fill-rule="evenodd"/>
    <path id="path1044" d="m212.94 172.49c0 0.89 0.94 1.94 0.76 2.69" fill="#f00" fill-rule="evenodd"/>
    <path id="path1045" d="m217.11 172.87c0.38 0.75 0.78 1.89 0.76 2.67" fill="#f00" fill-rule="evenodd"/>
    <path id="path1046" d="m220.59 173.94c0 0.26 0.15 1.29 0.32 1.55" fill="#f00" fill-rule="evenodd"/>
    <path id="path1047" d="m158.64 141.97c0 1.79 1.22 4.02 0.78 5.81-0.45 1.78-1.13 3.02-1.14 4.87-0.01 1.7-2.04 6.88-2.7 8.54-0.27 0.7 0.21 1.5 0.43 2.22" fill="#f00" fill-rule="evenodd"/>
    <path id="path1048" d="m145.37 148.2c0 2.39-3.34 3.96-5.24 4.72" fill="#f00" fill-rule="evenodd"/>
    <path id="path1049" d="m141.58 139.09c-2.42 4.83-8.5-0.33-8.35 4.19 0.03 0.75 4.69 1.11 4.57-1.58" fill="#f00" fill-rule="evenodd"/>
    <path id="path1050" d="m136.64 143.27c0 1.72-2.11 1.56-3.09 3.06" fill="#f00" fill-rule="evenodd"/>
    <path id="path1051" d="m130.95 131.88c1.1 0.55 3.14-0.2 3.98 0.38 0.44 0.3 1.23 1.26 1.39 0.76" fill="#f00" fill-rule="evenodd"/>
    <path id="path1052" d="m126.02 142.13h2.4" fill="#f00" fill-rule="evenodd"/>
    <path id="path1053" d="m131.33 157.69c3.23 0 1.65-5.6 1.89-6.1" fill="#f00" fill-rule="evenodd"/>
    <path id="path1054" d="m127.15 152c-0.81 1.63-4.28 2.61 0.08 3.43 0.24 0.04 1.24-1.26 1.07-1.55" fill="#f00" fill-rule="evenodd"/>
    <path id="path1055" d="m184.09 176.29l-0.38-14.81" fill="#f00" fill-rule="evenodd"/>
    <path id="path1056" d="m231.53 159.97c-6.07 1.13-16.32 0.38-20.87-3.42-4.56-3.8-11.39-11.39-16.7-10.25-5.32 1.14-11.77 0.76-9.11 2.66 2.65 1.9 6.45 3.79 8.73 3.04 2.28-0.76-12.53-1.14-7.59 0.75 4.93 1.9 8.73 2.66 10.62 1.52 1.9-1.14 3.42-1.89 7.22 1.14 3.79 3.04 10.24 7.97 14.04 8.35s15.18 0 15.18 0h0.94" fill="#f00" fill-rule="evenodd"/>
    <path id="path1057" d="m184.47 148.2c3.96 1.98 7.21 0.83 11.07 0.33" fill="#f00" fill-rule="evenodd"/>
    <path id="path1058" d="m153.34 137.19c1.9 9.87-4.55 18.98-6.45 19.74s-3.41-1.9-3.41-1.9 0 3.04 0.75 4.56c0.76 1.51-2.27 6.07-2.27 7.97s8.73 1.9 7.97 0c-0.76-1.14-1.9-5.32-1.9-5.7 0.76-1.89 13.28-7.21 10.25-25.05-1.14 0.38-3.04 0.38-4.94 0.38z" fill="#00f" fill-rule="evenodd"/>
    <path id="path1059" d="m232.29 194.8c1.65 0.31 4.06 0.47 5.71 0.47" fill="#f00" fill-rule="evenodd"/>
    <path id="path1060" d="m197.37 197.16c0.39 0.32 1.66-1.95 2.23-1.73" fill="#f00" fill-rule="evenodd"/>
    <path id="path1061" d="m197.37 194.13c0.61 0 7.67 1.28 7.46 1.6" fill="#f00" fill-rule="evenodd"/>
    <path id="path1062" d="m174.6 195.27c3.04 1.51 5.07 1.07 7.23-1.16" fill="#f00" fill-rule="evenodd"/>
    <path id="path1063" d="m134.37 194.13c2.14 1.07 4.51 1.14 6.85 1.14" fill="#f00" fill-rule="evenodd"/>
    <path id="path1064" d="m135.5 194.51c0.75 1.5-0.21 1.9 0.01 3.08" fill="#f00" fill-rule="evenodd"/>
    <path id="path1065" d="m144.42 160.73l3.42 0.94" fill="#f00" fill-rule="evenodd"/>
    <path id="path1066" d="m147.27 169.08a1.0438 1.8978 0 1 0 -2.09 0 1.0438 1.8978 0 1 0 2.09 0z" fill="#f00" fill-rule="evenodd"/>
    <path id="path1067" d="m149.93 133.02c2.65 2.27 7.97 0.95 12.14-0.19 4.18-1.14-5.69 7.78-16.32 1.71-10.63-6.08 3.8-1.52 4.18-1.52z" fill="#f00" fill-rule="evenodd"/>
    <path id="path1068" d="m157.52 113.66c-4.75 0-6.83 0.38-7.97 3.42-0.38 3.41-0.38 9.48-3.04 9.86-2.09 0.76-3.41 1.14-3.41 2.28 0 1.33 3.22 1.71 4.17 2.47 1.52-0.38 3.42-1.33 4.18-2.28 1.51-1.9 1.51-3.79 1.51-6.26 0-1.9-0.38-4.37 1.14-5.69 2.28-1.9 3.04-3.42 3.42-3.8z" fill="#00f" fill-rule="evenodd"/>
    <path id="path1069" d="m122.22 114.04c4.55-0.38 7.4 0.57 8.73 4.93 0.38 3.42 4.17 6.08 5.31 8.35 1.14 2.28-5.31-0.38-6.07 1.52s-3.04-6.45-3.04-7.97c-0.95-4.93-5.31-6.45-4.93-6.83z" fill="#00f" fill-rule="evenodd"/>
    <path id="path1070" d="m134.75 141.56c0.56 1.33 1.15 1.91 1.15 1.91" fill="none"/>
  </g>
  <metadata>
    <rdf:RDF>
      <cc:Work>
        <dc:format>image/svg+xml</dc:format>
        <dc:type rdf:resource="http://purl.org/dc/dcmitype/StillImage"/>
        <cc:license rdf:resource="http://creativecommons.org/licenses/publicdomain/"/>
        <dc:publisher>
          <cc:Agent rdf:about="http://openclipart.org/">
            <dc:title>Openclipart</dc:title>
          </cc:Agent>
        </dc:publisher>
        <dc:title>france bearn</dc:title>
        <dc:date>2010-05-19T03:01:29</dc:date>
        <dc:description>originally uploaded by Patricia Fidi from OCAL 0.18</dc:description>
        <dc:source>http://openclipart.org/detail/60889/france-bearn-by-anonymous</dc:source>
        <dc:creator>
          <cc:Agent>
            <dc:title>Anonymous</dc:title>
          </cc:Agent>
        </dc:creator>
        <dc:subject>
          <rdf:Bag>
            <rdf:li>bearn</rdf:li>
            <rdf:li>clip art</rdf:li>
            <rdf:li>clipart</rdf:li>
            <rdf:li>europe</rdf:li>
            <rdf:li>flag</rdf:li>
            <rdf:li>france</rdf:li>
          </rdf:Bag>
        </dc:subject>
      </cc:Work>
      <cc:License rdf:about="http://creativecommons.org/licenses/publicdomain/">
        <cc:permits rdf:resource="http://creativecommons.org/ns#Reproduction"/>
        <cc:permits rdf:resource="http://creativecommons.org/ns#Distribution"/>
        <cc:permits rdf:resource="http://creativecommons.org/ns#DerivativeWorks"/>
      </cc:License>
    </rdf:RDF>
  </metadata>
</svg>
