<?xml version="1.0" encoding="utf-8"?>
<!-- Generator: Adobe Illustrator 14.0.0, SVG Export Plug-In . SVG Version: 6.00 Build 43363)  -->
<!DOCTYPE svg PUBLIC "-//W3C//DTD SVG 1.1//EN" "http://www.w3.org/Graphics/SVG/1.1/DTD/svg11.dtd">
<svg version="1.1" id="Layer_1" xmlns="http://www.w3.org/2000/svg" xmlns:xlink="http://www.w3.org/1999/xlink" x="0px" y="0px"
	 width="600px" height="600px" viewBox="0 0 600 600" enable-background="new 0 0 600 600" xml:space="preserve">
<rect x="246.593" y="323.386" fill="#49EA15" stroke="#454545" stroke-width="5" width="26.259" height="155.861"/>
<rect x="319.444" y="323.386" fill="#49EA15" stroke="#454545" stroke-width="5" width="26.26" height="155.861"/>
<polygon fill="#2F07EF" stroke="#444444" stroke-width="5" points="143.311,362.919 167.29,329.246 176.984,226.783 
	143.311,226.783 "/>
<polygon fill="#2F07EF" stroke="#444444" stroke-width="5" points="456.564,362.919 432.585,329.246 422.892,226.783 
	456.564,226.783 "/>
<path fill="#194893" stroke="#454545" stroke-width="5" d="M196.361,232.751c0,3.519-2.853,6.372-6.372,6.372l0,0
	c-3.519,0-6.372-2.853-6.372-6.372v-42.358c0-3.519,2.853-6.372,6.372-6.372l0,0c3.519,0,6.372,2.853,6.372,6.372V232.751z"/>
<path fill="#194893" stroke="#454545" stroke-width="5" d="M396.262,238.103c0,3.381,3.791,6.123,8.467,6.123l0,0
	c4.678,0,8.469-2.741,8.469-6.123v-42.857c0-3.381-3.791-6.123-8.469-6.123l0,0c-4.676,0-8.467,2.741-8.467,6.123V238.103z"/>
<g>
	<path fill="#00E8FF" stroke="#454545" stroke-width="2" d="M319.279,151.479c0,0.875-2.018,1.586-4.508,1.586h-39.659
		c-2.49,0-4.508-0.711-4.508-1.586v-4.334c0-0.876,2.018-1.586,4.508-1.586h39.659c2.49,0,4.508,0.71,4.508,1.586V151.479z"/>
	<path fill="#00E8FF" stroke="#454545" stroke-width="2" d="M319.279,158.986c0,0.875-2.018,1.586-4.508,1.586h-39.659
		c-2.49,0-4.508-0.711-4.508-1.586v-4.335c0-0.876,2.018-1.585,4.508-1.585h39.659c2.49,0,4.508,0.709,4.508,1.585V158.986z"/>
</g>
<path fill="#00E8FF" stroke="#454545" stroke-width="4" d="M318.113,151.235v-5.001c0-1.011-1.92-1.83-4.29-1.83h-37.762
	c-2.37,0-4.292,0.819-4.292,1.83v5.001c0,1.011,1.922,1.83,4.292,1.83c-2.37,0-4.292,0.82-4.292,1.83v5
	c0,1.012,1.922,1.831,4.292,1.831h37.762c2.37,0,4.29-0.819,4.29-1.831v-5c0-1.01-1.92-1.83-4.29-1.83
	C316.193,153.065,318.113,152.247,318.113,151.235z"/>
<path stroke="#454545" stroke-width="5" d="M333.318,55.975c0,15.583-18.657,28.217-41.674,28.217
	c-23.015,0-41.673-12.634-41.673-28.217s74.081-26.93,97.097-26.93C370.085,29.045,333.318,40.392,333.318,55.975z"/>
<rect x="223.329" y="76.896" fill="#C8CCCC" stroke="#454545" stroke-width="5" width="11.363" height="46.339"/>
<rect x="354.931" y="77.342" fill="#C8CCCC" stroke="#454545" stroke-width="5" width="11.364" height="46.339"/>
<rect x="234.952" y="56.619" fill="#C8CCCC" stroke="#454545" stroke-width="5" width="119.979" height="87.786"/>
<ellipse fill="#000ADF" stroke="#454545" stroke-width="3" cx="319.013" cy="80.424" rx="16.706" ry="15.054"/>
<ellipse fill="#38F703" cx="319.328" cy="80.142" rx="11.766" ry="10.674"/>
<ellipse fill="#000ADF" stroke="#454545" stroke-width="3" cx="271.174" cy="80.424" rx="16.706" ry="15.054"/>
<ellipse fill="#47F90D" cx="271.488" cy="80.142" rx="11.766" ry="10.674"/>
<rect x="259.255" y="115.331" stroke="#009245" stroke-width="2" width="71.372" height="15.807"/>
<ellipse fill="#F21621" stroke="#454545" stroke-width="6" cx="365.305" cy="29.521" rx="10.66" ry="9.785"/>
<path fill="#0016BF" stroke="#454545" stroke-width="5" d="M223.329,110.817c0,2.493-2.039,4.514-4.553,4.514l0,0
	c-2.515,0-4.554-2.021-4.554-4.514V88.706c0-2.493,2.039-4.514,4.554-4.514l0,0c2.515,0,4.553,2.021,4.553,4.514V110.817z"/>
<path fill="#0016BF" stroke="#454545" stroke-width="5" d="M366.295,111.359c0,2.493,2.038,4.513,4.552,4.513l0,0
	c2.516,0,4.554-2.021,4.554-4.513V88.771c0-2.493-2.038-4.514-4.554-4.514l0,0c-2.514,0-4.552,2.021-4.552,4.514V111.359z"/>
<polygon fill="#C8CCCC" stroke="#454545" stroke-width="5" points="399.841,281.206 399.841,160.572 398.116,160.572 
	193.494,160.572 191.768,160.572 191.768,279.503 189.135,283.708 242.298,367.265 348.106,366.729 400.747,282.632 "/>
<polygon fill="#B8C7D4" stroke="#454545" stroke-width="5" points="183.617,246.477 122.393,246.477 122.393,211.572 
	183.617,176.668 "/>
<polygon fill="#B8C7D4" stroke="#454545" stroke-width="5" points="470.341,251.578 409.116,251.578 409.116,181.771 
	470.341,205.345 "/>
<rect x="206.661" y="171.567" fill="#F7F708" stroke="#000000" stroke-width="5" width="106.122" height="67.557"/>
<path fill="#11F426" stroke="#454545" stroke-width="5" d="M388.518,184.021c0,7.846-43.909,14.206-52.926,14.206
	c-9.018,0,5.987-8.611,5.987-16.457c0-7.846-15.005-11.956-5.987-11.956C344.608,169.815,388.518,176.176,388.518,184.021z"/>
<path fill="#22EFE9" stroke="#454545" stroke-width="5" d="M365.228,227.788c0,2.901,62.311,14.207-16.326,14.207
	c-9.018,0-16.327-6.36-16.327-14.207c0-7.846,7.417-12.82,16.327-14.206C394.666,206.464,365.228,219.942,365.228,227.788z"/>
<polygon fill="#F411EE" stroke="#454545" stroke-width="5" points="265.723,218.723 269.246,207.384 262.515,197.603 
	273.681,197.97 280.073,188.259 283.451,199.825 294.133,203.604 285.055,210.385 285.264,222.432 276.275,215.057 "/>
<polygon fill="#AF28AF" stroke="#454545" stroke-width="5" points="222.091,218.723 225.614,207.384 218.883,197.603 
	230.048,197.97 236.441,188.259 239.818,199.825 250.501,203.604 241.422,210.385 241.631,222.432 232.643,215.057 "/>
<path fill="#26FFFF" stroke="#444444" stroke-width="5" d="M158.875,348.944c6.658-3.845,17.012,1.624,23.126,12.214l13.017-7.516
	c-11.416-19.773-31.896-29.323-45.744-21.328c-13.848,7.994-15.817,30.506-4.401,50.279l13.017-7.516
	C151.776,364.489,152.217,352.788,158.875,348.944z"/>
<path fill="#26FFFF" stroke="#444444" stroke-width="5" d="M440.872,348.944c-6.658-3.845-17.012,1.624-23.126,12.214l-13.017-7.516
	c11.416-19.773,31.896-29.323,45.743-21.328c13.848,7.994,15.817,30.506,4.401,50.279l-13.018-7.516
	C447.971,364.489,447.53,352.788,440.872,348.944z"/>
<line stroke="#3D3D3D" stroke-width="5" x1="140.858" y1="263.918" x2="171.019" y2="263.918"/>
<line stroke="#3D3D3D" stroke-width="5" x1="424.647" y1="263.918" x2="454.809" y2="263.918"/>
<line fill="none" stroke="#444444" stroke-width="5" x1="144.477" y1="287.409" x2="167.4" y2="287.409"/>
<line fill="none" stroke="#444444" stroke-width="5" x1="433.513" y1="294.851" x2="456.436" y2="294.851"/>
<line fill="none" stroke="#444444" stroke-width="5" x1="143.311" y1="318.532" x2="168.566" y2="317.512"/>
<line fill="none" stroke="#444444" stroke-width="5" x1="433.513" y1="318.021" x2="458.769" y2="317.001"/>
<ellipse fill="#F3F7F2" cx="324.917" cy="76.895" rx="5.472" ry="5.091"/>
<ellipse fill="#F3F7F2" cx="278.324" cy="76.895" rx="5.472" ry="5.091"/>
<g>
	<line fill="none" stroke="#3D3D3D" stroke-width="2" x1="214.616" y1="263.918" x2="238.452" y2="348.184"/>
	<line fill="none" stroke="#3D3D3D" stroke-width="2" x1="229.221" y1="263.918" x2="248.723" y2="348.184"/>
	<line fill="none" stroke="#3D3D3D" stroke-width="2" x1="243.825" y1="263.918" x2="258.994" y2="348.184"/>
	<line fill="none" stroke="#3D3D3D" stroke-width="2" x1="258.43" y1="263.918" x2="269.265" y2="348.184"/>
	<line fill="none" stroke="#3D3D3D" stroke-width="2" x1="273.035" y1="263.918" x2="279.536" y2="348.184"/>
	<line fill="none" stroke="#3D3D3D" stroke-width="2" x1="287.64" y1="263.918" x2="289.807" y2="348.184"/>
	<line fill="none" stroke="#3D3D3D" stroke-width="2" x1="302.244" y1="263.918" x2="300.078" y2="348.184"/>
	<line fill="none" stroke="#3D3D3D" stroke-width="2" x1="316.85" y1="263.918" x2="310.349" y2="348.184"/>
	<line fill="none" stroke="#3D3D3D" stroke-width="2" x1="331.454" y1="263.918" x2="320.62" y2="348.184"/>
	<line fill="none" stroke="#3D3D3D" stroke-width="2" x1="346.059" y1="263.918" x2="330.891" y2="348.184"/>
	<line fill="none" stroke="#3D3D3D" stroke-width="2" x1="360.664" y1="263.918" x2="341.161" y2="348.184"/>
	<line fill="none" stroke="#3D3D3D" stroke-width="2" x1="375.269" y1="263.918" x2="351.433" y2="348.184"/>
</g>
<polygon fill="#F40C0C" stroke="#000000" stroke-width="5" points="255.214,496.021 202.62,496.021 210.181,479.247 
	274.283,479.247 "/>
<polygon fill="#F40C0C" stroke="#000000" stroke-width="5" points="334.67,496.021 387.264,496.021 379.703,479.247 
	315.602,479.247 "/>
</svg>
