<?xml version="1.0"?>
<svg xmlns:rdf="http://www.w3.org/1999/02/22-rdf-syntax-ns#" xmlns="http://www.w3.org/2000/svg" xmlns:cc="http://creativecommons.org/ns#" xmlns:xlink="http://www.w3.org/1999/xlink" xmlns:dc="http://purl.org/dc/elements/1.1/" xmlns:svg="http://www.w3.org/2000/svg" id="svg2" viewBox="0 0 372.07 356.52" version="1.1">
  <defs id="defs4">
    <filter id="filter5995" color-interpolation-filters="sRGB">
      <feGaussianBlur id="feGaussianBlur5997" stdDeviation="1.7784736"/>
    </filter>
    <filter id="filter3970-9" color-interpolation-filters="sRGB">
      <feGaussianBlur id="feGaussianBlur3972-8" stdDeviation="1.8248731"/>
    </filter>
    <radialGradient id="radialGradient5906" gradientUnits="userSpaceOnUse" cy="419.52" cx="343.47" gradientTransform="matrix(1 0 0 1.1441 611.18 -117.83)" r="81.707">
      <stop id="stop4890-6" stop-color="#f1f1f1" stop-opacity=".62389" offset="0"/>
      <stop id="stop4892-3" stop-color="#f1f1f1" stop-opacity="0" offset="1"/>
    </radialGradient>
    <linearGradient id="linearGradient5880" y2="25.337" gradientUnits="userSpaceOnUse" y1="232.75" gradientTransform="matrix(.97932 .20233 -.20233 .97932 784.66 138.83)" x2="213.72" x1="192.06">
      <stop id="stop3952-7" stop-color="#fff" offset="0"/>
      <stop id="stop3954-2" stop-color="#fff" stop-opacity="0" offset="1"/>
    </linearGradient>
    <radialGradient id="radialGradient5874" gradientUnits="userSpaceOnUse" cy="304.14" cx="343.22" gradientTransform="matrix(1 0 0 .41008 0 181.96)" r="70.791">
      <stop id="stop4968-3" stop-color="#fff" offset="0"/>
      <stop id="stop4970-2" stop-color="#fff" stop-opacity="0" offset="1"/>
    </radialGradient>
    <radialGradient id="radialGradient5868" gradientUnits="userSpaceOnUse" cy="331.97" cx="427.08" gradientTransform="matrix(.25074 .031096 -.0099750 .080433 284.7 350.08)" r="109.97">
      <stop id="stop4648-5-7" stop-color="#808080" stop-opacity=".99444" offset="0"/>
      <stop id="stop4650-5-3" offset="1"/>
    </radialGradient>
    <radialGradient id="radialGradient5864" gradientUnits="userSpaceOnUse" cy="403.24" cx="328.5" gradientTransform="matrix(1.0344 .24930 -.27595 1.2475 105.16 -185.08)" r="68.047">
      <stop id="stop4086-8-0" stop-color="#fff" stop-opacity=".90708" offset="0"/>
      <stop id="stop4654-9-8" stop-color="#ec2c2c" stop-opacity=".6" offset=".46516"/>
      <stop id="stop4088-0-1" stop-color="#fff" stop-opacity="0" offset="1"/>
    </radialGradient>
    <filter id="filter4656-0-0" color-interpolation-filters="sRGB">
      <feGaussianBlur id="feGaussianBlur4658-0-9" stdDeviation="2.9015532"/>
    </filter>
    <filter id="filter4630-1-3" color-interpolation-filters="sRGB">
      <feGaussianBlur id="feGaussianBlur4632-5-4" stdDeviation="0.59376593"/>
    </filter>
    <filter id="filter4986-0" height="1.6821" width="1.1896" y="-.34103" x="-.094782" color-interpolation-filters="sRGB">
      <feGaussianBlur id="feGaussianBlur4988-1" stdDeviation="4.8112062"/>
    </filter>
    <filter id="filter3970-8" color-interpolation-filters="sRGB">
      <feGaussianBlur id="feGaussianBlur3972-2" stdDeviation="1.8248731"/>
    </filter>
    <radialGradient id="radialGradient4639" gradientUnits="userSpaceOnUse" cy="290.23" cx="346.12" gradientTransform="matrix(1.0729 .018716 -.0084853 .48641 -31.297 141.67)" r="41.664">
      <stop id="stop4635" stop-color="#fff" offset="0"/>
      <stop id="stop4637" stop-color="#fff" stop-opacity="0" offset="1"/>
    </radialGradient>
    <filter id="filter4986-8" height="1.6821" width="1.1896" y="-.34103" x="-.094782" color-interpolation-filters="sRGB">
      <feGaussianBlur id="feGaussianBlur4988-8" stdDeviation="4.8112062"/>
    </filter>
    <filter id="filter4986" height="1.6821" width="1.1896" y="-.34103" x="-.094782" color-interpolation-filters="sRGB">
      <feGaussianBlur id="feGaussianBlur4988" stdDeviation="4.8112062"/>
    </filter>
    <filter id="filter4630-1" color-interpolation-filters="sRGB">
      <feGaussianBlur id="feGaussianBlur4632-5" stdDeviation="0.59376593"/>
    </filter>
    <radialGradient id="radialGradient4894" gradientUnits="userSpaceOnUse" cy="419.52" cx="343.47" gradientTransform="matrix(1 0 0 1.1441 0 -62.009)" r="81.707">
      <stop id="stop4890" stop-color="#f1f1f1" stop-opacity=".62389" offset="0"/>
      <stop id="stop4892" stop-color="#f1f1f1" stop-opacity="0" offset="1"/>
    </radialGradient>
    <filter id="filter4656-0" color-interpolation-filters="sRGB">
      <feGaussianBlur id="feGaussianBlur4658-0" stdDeviation="2.9015532"/>
    </filter>
    <radialGradient id="radialGradient4098" gradientUnits="userSpaceOnUse" cy="422.15" cx="334.95" gradientTransform="matrix(1.3188 .69204 -.81780 1.5584 242.18 -465.22)" r="91.72">
      <stop id="stop4094" stop-color="#fc2000" offset="0"/>
      <stop id="stop4096" offset="1"/>
    </radialGradient>
    <radialGradient id="radialGradient3349" gradientUnits="userSpaceOnUse" cy="279.63" cx="531.31" gradientTransform="matrix(-.98752 -.43460 .32386 -.73590 802.73 722.33)" r="5.2285">
      <stop id="stop4591" stop-color="#4f4f4f" offset="0"/>
      <stop id="stop4597" stop-color="#070000" stop-opacity=".99216" offset=".77857"/>
      <stop id="stop4593" stop-opacity=".98333" offset="1"/>
    </radialGradient>
  </defs>
  <g id="layer1" transform="translate(-222.54 -331.25)">
    <g id="layer5" display="none" transform="translate(216.58 332.14)">
      <rect id="rect5988" opacity=".54425" style="color:#000000" display="inline" transform="matrix(1.4261 0 0 1.8333 17.088 55.971)" height="258.08" filter="url(#filter3970-9)" width="328.63" y="-62.788" x="-35.72" fill="#00f"/>
    </g>
    <g id="layer6" opacity=".4" transform="translate(68.833 77.829)">
      <path id="path4012-1" filter="url(#filter5995)" style="block-progression:tb;color:#000000;text-transform:none;text-indent:0" d="m404.47 257.82c-1.6191 0.28303-4.2194 3.8202-4.375 10.594-4.6292 7.951-10.13 15.47-21.625 21.531-0.32342-0.44641-0.66381-0.87729-1.0312-1.3125 0.0637-0.33278 0.0913-0.69994 0.0625-1.125-0.17469-2.5781-4.3504-5.2592-7.3438-5.4375 3.9756-1.9644 7.3896-4.9467 9.1875-10.281 4.2968-12.749-3.5609-12.76-3.7812-12.688-0.22034 0.0726-2.4262-1.7599-5.2188 11.562-1.05 5.0092-2.5421 7.193-5.5938 8.9688-6.326-5.3913-15.874-7.7485-24.031-7.9688v-0.0312c-0.16366-0.001-0.33229-0.00036-0.5 0-0.0921-0.00072-0.18726 0.0002-0.28125 0-0.16591-0.002-0.3328-0.00048-0.5 0-0.26961-0.003-0.54655-0.002-0.8125 0v0.0312c-8.0921 0.21848-17.576 2.5435-23.906 7.8438-1.9834-1.7662-3.0084-4.0195-3.625-8.1875-1.9922-13.465-4.3156-11.789-4.5312-11.875-0.2156-0.0857-8.028-0.54506-4.5 12.438 1.3789 5.0741 4.2676 8.1924 7.7812 10.375-0.0682 0.0355-0.11971 0.089-0.1875 0.125-2.7754 0.43433-6.21 2.7026-6.6875 5-0.16901 0.17459-0.33797 0.35382-0.5 0.53125-11.197-4.2066-17.467-10.462-23-17.25-2.5816-14.222-13.821-12.03-1 1 5.1774 7.1089 11.126 13.87 22 18.781-2.5101 3.6841-3.449 7.6219-2.0625 10.656-12.732 8.0669-18.203 19.697-19.719 29.719-0.47663 3.1522-0.0929 5.3815 1.0312 6.9062-1.3637 1.047-2.8018 2.2107-4.3438 3.5625-3.9698 3.4804-7.3985 7.5482-10.375 12.062-10.483-6.7809-20.731-15.923-28.656-26.312-13.063 13.358-33.449 20.987-53.906 26 0 0-7.9514-2.7837-10.469-7.125l-1.4062-0.75c1.0994 4.1391 5.0576 7.0551 12.094 9.25 16.672-2.2456 40.909-7.265 53.438-24.156 4.7274 8.4964 14.269 19.226 26.219 27.469-10.138 18.081-13.781 42.19-13.781 66.094 0 3.0423 0.0703 6.0476 0.25 9.0312-12.696-1.8182-26.295-6.0405-38.156-12.5-6.4731 17.527-21.965 32.824-38.594 45.75 0 0-8.3987 0.6857-12.469-2.25l-1.5938-0.125c2.6931 3.3299 7.4932 4.3682 14.812 3.5 14.303-8.8549 34.394-23.31 38.938-43.844 8.2112 6.147 22.318 12.38 37.5 14.781 2.9448 30.588 15.193 57.511 33.031 76.062-10.012 9.398-23.108 17.934-36.875 23.188 9.112 16.312 10.673 38.055 9.6875 59.094 0 0-4.9048 6.8152-9.7812 8l-1.1562 1.1562c4.281 0.11778 8.2148-2.8735 12.312-9 2.5678-16.625 4.6203-41.294-8.0312-58.094 10.586-2.3741 25.552-9.7027 37.625-20.656 15.19 14.193 33.928 22.594 54.219 22.594 21.27 0 40.848-9.1973 56.406-24.656 15.738 5.006 32.705 5.381 43.438 3.0312-4.3702 20.572 7.8993 42.047 17.25 56.031 6.3022 3.8219 11.107 4.8528 14.938 2.9375l-1.5-0.53125c-4.9205 0.98613-12.25-3.125-12.25-3.125-9.7814-18.653-17.556-38.991-16.188-57.625-14.114 1.0123-28.949-1.0115-41.656-4.9688 18.042-20.126 29.827-49.118 31.156-81.625 14.567-2.5751 27.985-8.6013 35.906-14.531 4.5433 20.534 24.634 35.02 38.938 43.875 7.3193 0.86817 12.119-0.17013 14.812-3.5l-1.5938 0.125c-4.0701 2.9357-12.438 2.25-12.438 2.25-16.629-12.926-32.152-28.254-38.625-45.781-11.465 6.2436-24.548 10.43-36.875 12.344 0.002-0.31409 0-0.62283 0-0.9375 0-26.883-5.0499-53.597-18.125-72.344 13.145-13.359 21.475-31.75 23.594-44.031 17.408 11.8 41.929 8.5163 58.406 5.125 5.9152-4.3973 8.7055-8.4489 8.375-12.719l-1.0625 1.1875c-0.9409 4.9294-7.5312 10.188-7.5312 10.188-20.964 2.0308-42.724 1.5396-59.469-6.75-5.2776 16.208-14.979 31.759-25.562 42.688-1.7142-2.0784-3.5445-4.0542-5.5-5.875-1.8634-1.735-3.5172-3.1908-5.0938-4.5 0.80348-1.4708 1.2188-3.4137 1.2188-5.9688 0-11.32-6.6996-22.646-20.062-30.281 0.81418-2.3235 0.3735-5.1105-1-7.875 11.556-6.8591 16.793-14.999 21.094-23.406 5.316-7.435 5.1021-11.279 3.5312-11.438-0.0982-0.01-0.20456-0.0189-0.3125 0z"/>
      <path id="path4082-1" opacity=".342" d="m388.07 423.99c0 55.566-30.466 100.61-68.047 100.61s-68.047-45.045-68.047-100.61c0-55.566 30.466-100.61 68.047-100.61s68.047 45.045 68.047 100.61z" transform="matrix(1.2062 0 0 1.0536 563.1 -80.29)" filter="url(#filter4656-0-0)" display="none" fill="url(#radialGradient5864)"/>
      <path id="path4038-7-0" d="m387.41 375.85c0 7.0902-5.8205 12.838-13 12.838-7.18 0-13-5.7478-13-12.838s5.8205-12.838 13-12.838c7.18 0 13 5.7478 13 12.838z" display="none" transform="matrix(1.4872 0 0 1.4872 442.94 -177.46)"/>
      <path id="path4042-2-7" d="m387.41 375.85c0 7.0902-5.8205 12.838-13 12.838-7.18 0-13-5.7478-13-12.838s5.8205-12.838 13-12.838c7.18 0 13 5.7478 13 12.838z" display="none" transform="matrix(1.4872 0 0 1.4872 332.62 -186.7)"/>
      <path id="path4044-5-9" d="m927.18 436.05c2.4162 10.264 1.3408 19.299-9.0534 21.746-10.394 2.4468-20.895-5.1145-25.654-14.525-5.3238-10.528 1.1174-18.93 11.512-21.376 10.394-2.4468 20.779 3.8906 23.195 14.155z" display="none"/>
      <path id="path4580-5-0" d="m958.64 436.96c-2.4221 10.263-1.3518 19.299 9.041 21.751 10.393 2.4527 20.898-5.1026 25.662-14.51 5.3298-10.525-1.1066-18.93-11.499-21.383-10.393-2.4527-20.781 3.8787-23.203 14.142z" display="none"/>
      <path id="path4582-2-8" d="m902.42 327.63c-10.336-2.0867-18.099-6.8337-15.986-17.301 2.1131-10.467 13.366-16.856 23.903-17.254 11.789-0.44557 16.737 8.9134 14.624 19.381-2.1131 10.467-12.205 17.261-22.542 15.174z" display="none"/>
      <path id="path4584-1-1" d="m991.11 328.17c10.205-2.3493 15.818-7.928 15.571-19.278-0.2479-11.35-13.652-16.767-25.479-14.828-11.642 1.9083-15.783 10.511-12.654 20.721 3.1288 10.21 12.357 15.735 22.563 13.386z" display="none"/>
      <path id="path4885-0" opacity=".75221" d="m1034.5 374.6c-3.3947 64.393-42.583 105.94-87.708 105.94-45.126 0-86.609-52.011-87.246-103.63-1.3849-112.1 44.033-89.163 88.17-98.556 53.215-11.326 91.182 12.847 86.785 96.248z" fill="url(#radialGradient5906)" display="none"/>
      <path id="path3900-9" style="block-progression:tb;color:#000000;text-transform:none;text-indent:0" d="m248.44 400.66c63.1-13.04 180.29-12.47 216.09 5.48-47-24.13-150.05-30.44-216.09-5.48z" transform="matrix(0 -1 1 0 547.28 731.68)" filter="url(#filter4630-1-3)" stroke="#000" stroke-width="2" display="none" fill="url(#radialGradient5868)"/>
      <path id="path3850-0" opacity=".43363" style="block-progression:tb;color:#000000;text-transform:none;text-indent:0" d="m339.53 291.51c-38.641 0.0612-73.839 15.489-62.702 30.342 6.419 8.5614 42.188-1.251 60.861-0.89158 18.673 0.35939 59.951 8.7539 58.854-1.2973 0.21401-16.732-18.372-28.215-57.014-28.154z" transform="matrix(.85487 0 0 1.0473 660.42 -63.202)" filter="url(#filter4986-0)" display="none" fill="url(#radialGradient5874)"/>
      <path id="path3936-7" opacity=".29197" d="m924.21 216.27c-6.8467 0.0529-6.5384 5.2623-6.4688 5.4375 0.0857 0.21561-1.6216 2.5391 11.844 4.5312 6.7934 1.0051 8.5976 3.1686 11.312 8.7188-10.55 0.53437-19.196 2.4756-26.281 5.3125-17.313-16.806-30.457-18.612-43.281-18.688-2.258-0.34984-4.177-0.50443-5.75-0.5-11.011 0.031-5.9208 7.3395 5.5 1.9062 12.154 0.7328 24.324 3.1593 39.719 18.969-16.397 7.9835-23.078 21.268-24.781 32.531-0.47084 3.1139-0.0951 5.364 1 6.9375-1.3592 1.0442-2.7762 2.2156-4.3125 3.5625-3.9743 3.4844-7.3962 7.542-10.375 12.062-10.477-6.7881-20.729-15.953-28.656-26.344-13.063 13.358-33.481 21.018-53.938 26.031 0 0-7.9202-2.7837-10.438-7.125l-1.4062-0.78125c1.0994 4.1391 5.0576 7.0551 12.094 9.25 16.672-2.2456 40.909-7.265 53.438-24.156 4.7268 8.4954 14.269 19.226 26.219 27.469-5.0381 8.9828-8.4999 19.432-10.688 30.625 34.454 6.9198 69.579 14.047 89.875 33.188 25.356 23.912 54.51 39.497 83.312 47.438 3.9912-12.088 6.4374-25.209 7-38.969 14.579-2.5683 28.01-8.5968 35.938-14.531 4.5433 20.534 24.603 34.989 38.906 43.844 7.3193 0.86817 12.151-0.17013 14.844-3.5l-1.5937 0.125c-4.0701 2.9357-12.469 2.25-12.469 2.25-16.629-12.926-32.121-28.223-38.594-45.75-11.472 6.2472-24.567 10.407-36.906 12.312v-0.9375c0-26.893-5.0078-53.596-18.094-72.344 13.146-13.359 21.475-31.751 23.594-44.031 17.408 11.8 41.929 8.5163 58.406 5.125 5.9151-4.3973 8.7055-8.4489 8.375-12.719l-1.0938 1.1875c-0.9408 4.9294-7.5 10.188-7.5 10.188-20.964 2.0308-42.755 1.5708-59.5-6.7188-5.2776 16.208-14.979 31.761-25.562 42.688-1.715-2.0797-3.5121-4.0532-5.4687-5.875-1.853-1.7253-3.5248-3.1647-5.0938-4.4688 0.8068-1.5037 1.2188-3.4762 1.2188-6.0312 0-10.6-5.9081-21.174-17.625-28.75 12.512-17.319 23.983-21.547 35.688-24.125 11.262 3.3294 15.395-3.3211 7.2187-2.9375-1.8869 0.0885-4.4237 0.54715-7.6875 1.5938-12.262 2.0098-24.603 5.6858-38.531 23.469-5.3468-2.9301-11.73-5.2627-19.125-6.8125 2.279-5.389 4.0135-7.596 10.562-8.9688 13.322-2.7926 11.49-4.9984 11.562-5.2188 0.059-0.17903 0.0877-5.3872-6.75-5.0312-1.5779 0.0821-3.5471 0.47559-5.9375 1.2812-8.7588 2.952-11.238 10.188-13.125 17.25-5.9887-0.99412-12.564-1.5218-19.781-1.4062-0.10568 0.002-0.20717-0.002-0.3125 0-2.3769-7.3066-5.1004-15.093-14.531-17.656-2.4342-0.6615-4.3887-0.91846-5.9688-0.90625z" filter="url(#filter3970-8)" display="none" fill="url(#linearGradient5880)"/>
    </g>
    <g id="layer1-9" transform="translate(68.833 77.829)">
      <path id="path4012" style="block-progression:tb;color:#000000;text-transform:none;text-indent:0" d="m432.21 304.04c-6.0373 18.541-17.876 36.215-30.186 47.102l3.6106 3.8919c15.607-13.459 25.529-34.476 27.869-48.037 17.408 11.8 41.936 8.521 58.413 5.1297 5.9152-4.3973 8.699-8.4541 8.3684-12.724l-1.073 1.1879c-0.94087 4.9294-7.5116 10.182-7.5116 10.182-20.964 2.0308-42.746 1.5567-59.49-6.7328z"/>
      <path id="path4019" style="block-progression:tb;color:#000000;text-transform:none;text-indent:0" d="m232.41 326.59c11.827 15.503 28.842 28.271 44.059 34.477l-2.1213 4.8666c-19.178-7.5441-35.49-24.099-42.181-36.125-12.529 16.891-36.762 21.903-53.434 24.149-7.0362-2.1949-11.004-5.1035-12.104-9.2426l1.4053 0.76651c2.5173 4.3413 10.455 7.1269 10.455 7.1269 20.457-5.0129 40.858-12.66 53.921-26.018z"/>
      <path id="path4021" style="block-progression:tb;color:#000000;text-transform:none;text-indent:0" d="m464.92 411.97c-17.124 9.3257-37.869 14.036-54.294 13.491l-0.0499 5.3086c20.587 0.94102 42.235-7.5145 53.253-15.762 4.5433 20.534 24.62 35.001 38.923 43.856 7.3193 0.86817 12.129-0.16738 14.822-3.4972l-1.5958 0.12614c-4.0701 2.9357-12.453 2.2388-12.453 2.2388-16.629-12.926-32.132-28.234-38.605-45.761z"/>
      <path id="path4023" style="block-progression:tb;color:#000000;text-transform:none;text-indent:0" d="m206.69 419.89c17.124 9.3257 37.869 14.036 54.294 13.491l0.0499 5.3086c-20.587 0.94102-42.235-7.5145-53.253-15.762-4.5433 20.534-24.62 35.001-38.923 43.856-7.3193 0.86817-12.129-0.16738-14.822-3.4972l1.5958 0.12614c4.0701 2.9357 12.453 2.2388 12.453 2.2388 16.629-12.926 32.132-28.234 38.605-45.761z"/>
      <path id="path4025" style="block-progression:tb;color:#000000;text-transform:none;text-indent:0" d="m438.41 516.11c-19.449 1.3949-40.282-2.9106-55.005-10.21l-2.2443 4.8111c18.348 9.3841 41.554 10.655 54.998 7.7117-4.3703 20.572 7.9107 42.055 17.261 56.039 6.3022 3.8219 11.109 4.8717 14.94 2.9564l-1.5047-0.54616c-4.9205 0.98613-12.262-3.1207-12.262-3.1207-9.7813-18.653-17.551-39.008-16.182-57.642z"/>
      <path id="path4027" style="block-progression:tb;color:#000000;text-transform:none;text-indent:0" d="m241.45 536.99c18.218-6.9519 35.281-19.655 45.543-32.491l4.0666 3.4126c-12.667 16.257-33.163 27.212-46.592 30.224 12.652 16.8 10.596 41.46 8.0281 58.085-4.0977 6.1265-8.011 9.1086-12.292 8.9908l1.1331-1.1307c4.8765-1.1848 9.796-8.0087 9.796-8.0087 0.98571-21.039-0.57088-42.77-9.6829-59.082z"/>
    </g>
    <g id="layer2" transform="translate(68.833 77.829)">
      <path id="path3049" d="m428.03 423.37c0 64.452-41.064 116.7-91.72 116.7s-91.72-52.249-91.72-116.7c0-32.226 6.6666-64.812 26.864-82.52 19.569-17.157 22.462-8.3106 67.551-10.376 42.354-1.9397 43.912-6.6161 62.161 10.376 19.658 18.304 26.864 50.294 26.864 82.52z" fill="url(#radialGradient4098)"/>
      <g id="layer8" opacity=".72917" display="none">
        <path id="path4082" opacity=".46903" d="m388.07 423.99c0 55.566-30.466 100.61-68.047 100.61s-68.047-45.045-68.047-100.61c0-55.566 30.466-100.61 68.047-100.61s68.047 45.045 68.047 100.61z" transform="matrix(1.2062 0 0 1.0536 -48.083 -24.473)" filter="url(#filter4656-0)" display="inline" fill="url(#radialGradient5864)"/>
      </g>
    </g>
    <g id="layer3" transform="translate(68.833 77.829)">
      <g id="layer9">
        <path id="path4038-7" d="m387.41 375.85c0 7.8503-5.8205 13.696-13 12.838-7.1292-0.85208-12.697-4.8368-12.697-11.927s6.4355-11.899 13.608-12.231c6.5727-0.30364 12.09 4.2295 12.09 11.32z" transform="matrix(1.4872 0 0 1.4872 -168.24 -121.65)"/>
        <path id="path4042-2" d="m387.41 375.85c0 7.0902-5.2132 14.356-13 12.838-7.0473-1.374-12.393-6.0514-13-12.838-0.63194-7.062 5.844-12.257 13-12.838 7.4836-0.60729 13 8.4806 13 12.838z" transform="matrix(1.4872 0 0 1.4872 -278.57 -130.88)"/>
        <path id="path4044-5" d="m316 491.87c2.4162 10.264 1.3408 19.299-9.0534 21.746-10.394 2.4468-20.895-5.1145-25.654-14.525-5.3238-10.528 1.1174-18.93 11.512-21.376 10.394-2.4468 20.779 3.8906 23.195 14.155z"/>
        <path id="path4580-5" d="m347.45 492.78c-2.4221 10.263-1.3518 19.299 9.041 21.751 10.393 2.4527 20.898-5.1026 25.662-14.51 5.3298-10.525-1.1066-18.93-11.499-21.383-10.393-2.4527-20.781 3.8787-23.203 14.142z"/>
        <path id="path4582-2" d="m291.24 383.45c-10.336-2.0867-18.099-6.8337-15.986-17.301 2.1131-10.467 13.366-16.856 23.903-17.254 11.789-0.44557 16.737 8.9134 14.624 19.381-2.1131 10.467-12.205 17.261-22.542 15.174z"/>
        <path id="path4584-1" d="m379.93 383.99c10.205-2.3493 15.818-7.928 15.57-19.278-0.24784-11.35-13.651-16.767-25.479-14.828-11.642 1.9083-15.783 10.511-12.654 20.721 3.1288 10.21 12.357 15.735 22.563 13.386z"/>
      </g>
      <g id="g4769">
        <path id="path4885" opacity=".75221" d="m423.34 430.42c-3.3947 64.393-42.583 105.94-87.708 105.94-45.126 0-86.609-52.011-87.246-103.63-1.3849-112.1 44.033-89.163 88.17-98.556 53.215-11.326 91.182 12.847 86.785 96.248z" fill="url(#radialGradient4894)"/>
      </g>
      <g id="g4896">
        <path id="path3900" style="block-progression:tb;color:#000000;text-transform:none;text-indent:0" d="m248.44 400.66c63.1-13.04 180.29-12.47 216.09 5.48-47-24.13-150.05-30.44-216.09-5.48z" transform="matrix(0 -1 1 0 -63.904 787.49)" filter="url(#filter4630-1)" stroke="#000" stroke-width="2" fill="url(#radialGradient5868)"/>
      </g>
    </g>
    <g id="layer4" transform="translate(68.833 77.829)">
      <g id="g5053">
        <path id="path4012-3" style="block-progression:tb;color:#000000;text-transform:none;text-indent:0" d="m352.45 297.3c0.60663 1.2969 1.2132 2.5938 1.8199 3.8907 28.229-7.987 36.646-19.89 43.037-32.383 10.632-14.87-0.80147-15.296-1.1334-0.84567-6.9206 11.887-15.793 22.817-43.724 29.338z"/>
        <use id="use5178" xlink:href="#path4012-3" transform="matrix(-.98776 .15596 .15596 .98776 625.07 -56.255)" height="359.60327" width="380.7489" y="0" x="0"/>
      </g>
      <g id="layer10">
        <path id="path4066" style="block-progression:tb;color:#000000;text-transform:none;text-indent:0" d="m347.44 284.95c0.52627 0.7524 1.0525 1.5048 1.5788 2.2572 8.6677-3.6523 22.085-3.1251 26.382-15.874 4.2968-12.749-3.5496-12.755-3.77-12.683-0.22034 0.0726-2.4307-1.7598-5.2233 11.563-2.021 9.6417-5.6535 8.8436-18.968 14.737z"/>
        <path id="use4144" style="block-progression:tb;color:#000000;text-transform:none;text-indent:0" d="m325.21 286.71c-0.57026 0.71964-1.1405 1.4393-1.7108 2.1589-8.4342-4.1633-21.859-4.4382-25.387-17.421s4.3049-12.521 4.5205-12.435c0.21561 0.0857 2.5314-1.6116 4.5236 11.854 1.4418 9.7452 5.1154 9.1654 18.054 15.843z"/>
      </g>
      <g id="g4493">
        <path id="path3820" d="m397.28 330.37c0 10.078-6.5254 10.767-17.369 9.705-25.858-2.5314-38.03 12.149-46.68 11.683-8.6494-0.46672-7.6326-14.406-41.09-11.768-11.799 0.93057-18.895 0.34436-17.388-9.6201 2.5906-17.133 16.683-38.979 59-39.656 42.317-0.6775 63.527 19.501 63.527 39.656z"/>
        <g id="layer11">
          <path id="path5156" opacity=".43363" style="block-progression:tb;color:#000000;text-transform:none;text-indent:0" d="m339.53 291.51c-38.641 0.0612-73.839 15.489-62.702 30.342 6.419 8.5614 42.188-1.251 60.861-0.89158 18.673 0.35939 59.951 8.7539 58.854-1.2973 0.21401-16.732-18.372-28.215-57.014-28.154z" transform="matrix(.85487 0 0 1.0473 49.236 -7.385)" filter="url(#filter4986-8)" fill="url(#radialGradient5874)"/>
        </g>
      </g>
      <g id="g4499">
        <path id="path3820-1" d="m187.44 16.875v0.03125c-8.7011 0.23492-19.013 2.9081-25.281 9.0938-11.918 4.1286-19.822 16.907-13.188 22.688 6.0168 6.2696 28.459-3.3171 38.844-3.375 0.29057-0.0016 0.57267-0.01387 0.84375 0 10.385 0.05792 32.796 9.6446 38.812 3.375 6.6345-5.7802-1.2696-18.559-13.188-22.688-6.2679-6.1856-16.549-8.8588-25.25-9.0938v-0.03125c-0.25572-0.0018-0.52214-0.0025-0.78125 0-0.26961-0.0028-0.54655-0.0019-0.8125 0z" transform="translate(147.75 254.31)"/>
      </g>
      <g id="g5154">
        <g id="layer12">
          <path id="path3820-1-2" opacity=".30531" d="m334.69 271.18v0.0312c-8.7011 0.23492-19.013 2.9081-25.281 9.0938-11.918 4.1286-19.822 16.907-13.188 22.688 6.0168 6.2696 28.459-3.3171 38.844-3.375 0.29057-0.002 0.57267-0.0139 0.84375 0 10.385 0.0579 32.796 9.6446 38.812 3.375 6.6345-5.7802-1.2696-18.559-13.188-22.688-6.2679-6.1856-16.549-8.8588-25.25-9.0938v-0.0312c-0.25572-0.002-0.52214-0.002-0.78125 0-0.26961-0.003-0.54655-0.002-0.8125 0z" fill="url(#radialGradient4639)"/>
        </g>
      </g>
      <g id="layer7" display="none">
        <path id="path3850" opacity=".43363" style="block-progression:tb;color:#000000;text-transform:none;text-indent:0" d="m339.53 291.51c-38.641 0.0612-73.839 15.489-62.702 30.342 6.419 8.5614 42.188-1.251 60.861-0.89158 18.673 0.35939 59.951 8.7539 58.854-1.2973 0.21401-16.732-18.372-28.215-57.014-28.154z" transform="matrix(.85487 0 0 1.0473 49.236 -7.385)" filter="url(#filter4986)" display="inline" fill="url(#radialGradient5874)"/>
      </g>
      <g id="g3160">
        <path id="path3162" d="m351.6 292.87c-4.6734-0.88039-8.2308-4.5467-6.5168-8.1188 0.98791-2.0589 6.0529-2.8985 8.3208-2.5732 2.2679 0.32536 5.3683 2.6309 4.9876 5.1922-0.38714 4.3095-2.1182 6.3802-6.7916 5.4998z" style="block-progression:tb;color:#000000;text-transform:none;text-indent:0" fill="#e3e2db"/>
        <use id="use3942" xlink:href="#path3162" transform="matrix(-.98407 .17776 .17776 .98407 615.56 -57.773)" height="359.60327" width="380.7489" y="0" x="0"/>
        <path id="path4579" d="m368.24 306.03c4.741 0.0876 6.1748-0.78156 9.6563-4.0291 5.8848 1.8386 13.907 10.801 15.142 16.521-3.8465 3.9348-10.263 0.9677-18.479 1.2835-6.2476-8.1756-1.6968-5.5681-6.319-13.775z" style="block-progression:tb;color:#000000;text-transform:none;text-indent:0" fill="#e3e2db"/>
        <use id="use4585" xlink:href="#path4579" transform="matrix(-.99894 .046128 .046128 .99894 657.91 -16.945)" height="359.60327" width="380.7489" y="0" x="0"/>
        <path id="path4587" d="m367.53 289.48c-3.3518-1.3496-5.9289-4.9482-3.6505-7.1836 2.2783-2.2354 9.4368 1.3674 9.6672 4.7679 0.23042 3.4004-2.6648 3.7654-6.0166 2.4157z" style="block-progression:tb;color:#000000;text-transform:none;text-indent:0" fill="url(#radialGradient3349)"/>
        <use id="use4641" xlink:href="#path4587" transform="matrix(-1 0 0 1 672.53 .23377)" height="359.60327" width="380.7489" y="0" x="0"/>
      </g>
    </g>
  </g>
  <metadata>
    <rdf:RDF>
      <cc:Work>
        <dc:format>image/svg+xml</dc:format>
        <dc:type rdf:resource="http://purl.org/dc/dcmitype/StillImage"/>
        <cc:license rdf:resource="http://creativecommons.org/licenses/publicdomain/"/>
        <dc:publisher>
          <cc:Agent rdf:about="http://openclipart.org/">
            <dc:title>Openclipart</dc:title>
          </cc:Agent>
        </dc:publisher>
        <dc:title>Ladybug</dc:title>
        <dc:date>2011-09-10T15:45:15</dc:date>
        <dc:description>Animal, Beetle, Bug, Coccinelle, Gl&#xC3;&#xBC;ck, Insect, K&#xC3;&#xA4;fer, Ladybug, Luck, Marienk&#xC3;&#xA4;fer, Sommer, Summer, Tier, clip art, clipart, </dc:description>
        <dc:source>http://openclipart.org/detail/159829/ladybug-by-mogwai-159829</dc:source>
        <dc:creator>
          <cc:Agent>
            <dc:title>Mogwai</dc:title>
          </cc:Agent>
        </dc:creator>
        <dc:subject>
          <rdf:Bag>
            <rdf:li>Animal</rdf:li>
            <rdf:li>Beetle</rdf:li>
            <rdf:li>Bug</rdf:li>
            <rdf:li>Coccinelle</rdf:li>
            <rdf:li>Gl&#xC3;&#xBC;ck</rdf:li>
            <rdf:li>Insect</rdf:li>
            <rdf:li>K&#xC3;&#xA4;fer</rdf:li>
            <rdf:li>Ladybug</rdf:li>
            <rdf:li>Luck</rdf:li>
            <rdf:li>Marienk&#xC3;&#xA4;fer</rdf:li>
            <rdf:li>Sommer</rdf:li>
            <rdf:li>Summer</rdf:li>
            <rdf:li>Tier</rdf:li>
            <rdf:li>clip art</rdf:li>
            <rdf:li>clipart</rdf:li>
          </rdf:Bag>
        </dc:subject>
      </cc:Work>
      <cc:License rdf:about="http://creativecommons.org/licenses/publicdomain/">
        <cc:permits rdf:resource="http://creativecommons.org/ns#Reproduction"/>
        <cc:permits rdf:resource="http://creativecommons.org/ns#Distribution"/>
        <cc:permits rdf:resource="http://creativecommons.org/ns#DerivativeWorks"/>
      </cc:License>
    </rdf:RDF>
  </metadata>
</svg>
