<?xml version="1.0" encoding="UTF-8" standalone="no"?>
<svg
   xmlns:dc="http://purl.org/dc/elements/1.1/"
   xmlns:cc="http://creativecommons.org/ns#"
   xmlns:rdf="http://www.w3.org/1999/02/22-rdf-syntax-ns#"
   xmlns:svg="http://www.w3.org/2000/svg"
   xmlns="http://www.w3.org/2000/svg"
   xmlns:sodipodi="http://sodipodi.sourceforge.net/DTD/sodipodi-0.dtd"
   xmlns:inkscape="http://www.inkscape.org/namespaces/inkscape"
   id="svg5356"
   sodipodi:docname="Ribbon Stencil.svg"
   viewBox="0 0 744.0945 1052.3622"
   sodipodi:version="0.32"
   version="1.1"
   inkscape:output_extension="org.inkscape.output.svg.inkscape"
   inkscape:version="0.91 r13725"
   width="210mm"
   height="297mm">
  <defs
     id="defs6959">
    <linearGradient
       id="linearGradient3788">
      <stop
         id="stop3790"
         style="stop-color:#6b0000"
         offset="0" />
      <stop
         id="stop3792"
         style="stop-color:#ff7f7f"
         offset=".27548" />
      <stop
         id="stop3794"
         style="stop-color:#b30000"
         offset="1" />
    </linearGradient>
    <linearGradient
       id="linearGradient3780">
      <stop
         id="stop3782"
         style="stop-color:#6b0000"
         offset="0" />
      <stop
         id="stop3786"
         style="stop-color:#b30000"
         offset="1" />
    </linearGradient>
    <linearGradient
       id="linearGradient7546">
      <stop
         id="stop7548"
         style="stop-color:#6b0000"
         offset="0" />
      <stop
         id="stop7550"
         style="stop-color:#ff7f7f"
         offset=".5" />
      <stop
         id="stop7552"
         style="stop-color:#b30000"
         offset="1" />
    </linearGradient>
    <linearGradient
       id="linearGradient7530">
      <stop
         id="stop7532"
         style="stop-color:#cc0000"
         offset="0" />
      <stop
         id="stop7536"
         style="stop-color:#ffb3b3"
         offset=".5" />
      <stop
         id="stop7534"
         style="stop-color:#cc0000"
         offset="1" />
    </linearGradient>
  </defs>
  <sodipodi:namedview
     id="base"
     bordercolor="#666666"
     inkscape:pageshadow="2"
     guidetolerance="10.0"
     pagecolor="#ffffff"
     gridtolerance="10.0"
     inkscape:window-maximized="1"
     inkscape:zoom="0.58059858"
     objecttolerance="10.0"
     borderopacity="1.0"
     inkscape:current-layer="svg5356"
     inkscape:cx="397.88265"
     inkscape:cy="526.1811"
     inkscape:window-y="24"
     inkscape:window-x="0"
     inkscape:window-height="744"
     showgrid="false"
     inkscape:pageopacity="0.0"
     inkscape:window-width="1366"
     inkscape:document-units="mm"
     units="mm"
     showguides="true"
     inkscape:guide-bbox="true"
     inkscape:snap-to-guides="false" />
  <metadata
     id="metadata68">
    <rdf:RDF>
      <cc:Work>
        <dc:format>image/svg+xml</dc:format>
        <dc:type
           rdf:resource="http://purl.org/dc/dcmitype/StillImage" />
        <cc:license
           rdf:resource="http://creativecommons.org/publicdomain/zero/1.0/" />
        <dc:publisher>
          <cc:Agent
             rdf:about="http://openclipart.org/">
            <dc:title>Openclipart</dc:title>
          </cc:Agent>
        </dc:publisher>
        <dc:title></dc:title>
        <dc:date>2010-11-08T17:26:36</dc:date>
        <dc:description>A few variants (cutting version, plain color, gradient color, outlined, shadowed) of a geometrical red ribbon. Made with inkscape.</dc:description>
        <dc:source>https://openclipart.org/detail/94681/red-ribbon-collection-by-rferran</dc:source>
        <dc:creator>
          <cc:Agent>
            <dc:title>rferran</dc:title>
          </cc:Agent>
        </dc:creator>
        <dc:subject>
          <rdf:Bag>
            <rdf:li>aids</rdf:li>
            <rdf:li>aids ribbon</rdf:li>
            <rdf:li>breast</rdf:li>
            <rdf:li>cancer</rdf:li>
            <rdf:li>lacito</rdf:li>
            <rdf:li>lazo</rdf:li>
            <rdf:li>llacet</rdf:li>
            <rdf:li>llaç</rdf:li>
            <rdf:li>pin</rdf:li>
            <rdf:li>red ribbon</rdf:li>
            <rdf:li>ribbon</rdf:li>
            <rdf:li>sida</rdf:li>
          </rdf:Bag>
        </dc:subject>
      </cc:Work>
      <cc:License
         rdf:about="http://creativecommons.org/publicdomain/zero/1.0/">
        <cc:permits
           rdf:resource="http://creativecommons.org/ns#Reproduction" />
        <cc:permits
           rdf:resource="http://creativecommons.org/ns#Distribution" />
        <cc:permits
           rdf:resource="http://creativecommons.org/ns#DerivativeWorks" />
      </cc:License>
    </rdf:RDF>
  </metadata>
  <path
     id="path4440"
     style="fill:#ffe600;fill-opacity:1;stroke:#000000;stroke-width:1.0629921;stroke-miterlimit:4;stroke-dasharray:3.18897629, 3.18897629;stroke-dashoffset:0;stroke-opacity:1"
     d="m 454.36803,227.62273 -72.16051,125.10834 71.47841,123.92304 76.27274,-132.23004 c 5.16927,-9.05078 11.85508,-24.30515 11.85508,-34.27772 0,-35.2516 -35.47637,-65.63205 -87.44572,-82.52362 z m -164.64086,0.46109 c -51.96935,16.89158 -87.44694,47.27336 -87.44694,82.52496 0,9.97257 6.68612,25.22695 11.85538,34.27774 l 349.83873,606.49143 0,-247.82251 z m 82.36641,-30.02954 c 80.26993,0 148.12219,28.76259 170.49181,68.30742 L 468.44997,139.19102 c -12.9323,-22.18434 -51.19854,-38.20677 -96.35639,-38.20677 -45.15783,0 -83.41951,16.02243 -96.34952,38.20677 L 201.5972,266.36399 c 22.36962,-39.54485 90.21503,-68.30743 170.48494,-68.30743 z m -81.87903,314.23781 -110.09441,190.66808 0,247.95615 L 361.82662,636.3665 290.21455,512.29209 Z"
     inkscape:connector-curvature="0" />
  <path
     inkscape:connector-curvature="0"
     id="path4971"
     d="m 567.37231,290.98517 a 1.3878228,1.3878228 0 0 0 -0.65612,1.84962 1.3878228,1.3878228 0 0 0 1.84973,0.6564 1.3878228,1.3878228 0 0 0 0.65629,-1.85 1.3878228,1.3878228 0 0 0 -1.8499,-0.65602 z m 6.62561,-0.24336 a 1.6191267,1.6191267 0 0 0 -0.76569,2.15782 1.6191267,1.6191267 0 0 0 2.15808,0.76557 1.6191267,1.6191267 0 0 0 0.7653,-2.15797 1.6191267,1.6191267 0 0 0 -2.15769,-0.76542 z m 6.93326,-0.6725 a 1.8504304,1.8504304 0 0 0 -0.87472,2.46643 1.8504304,1.8504304 0 0 0 2.46614,0.87485 1.8504304,1.8504304 0 0 0 0.87487,-2.46616 1.8504304,1.8504304 0 0 0 -2.46629,-0.87512 z m -10.83918,6.62591 a 1.3878228,1.3878228 0 0 0 -0.65616,1.84961 1.3878228,1.3878228 0 0 0 1.84975,0.65641 1.3878228,1.3878228 0 0 0 0.65628,-1.85002 1.3878228,1.3878228 0 0 0 -1.84987,-0.656 z m 18.58181,-6.67067 a 2.0817342,2.0817342 0 0 0 -0.98428,2.77463 2.0817342,2.0817342 0 0 0 2.77463,0.98427 2.0817342,2.0817342 0 0 0 0.98428,-2.77462 2.0817342,2.0817342 0 0 0 -2.77463,-0.98428 z m -11.86995,6.60843 a 1.6191267,1.6191267 0 0 0 -0.76557,2.15809 1.6191267,1.6191267 0 0 0 2.15796,0.76529 1.6191267,1.6191267 0 0 0 0.76542,-2.15769 1.6191267,1.6191267 0 0 0 -2.15781,-0.76569 z m 23.79092,-10.17057 4.45409,9.35151 6.65472,-3.16962 -4.02286,-8.44615 -7.08595,2.26426 z m -3.69755,3.44626 a 2.313038,2.313038 0 0 0 -1.09369,3.08309 2.313038,2.313038 0 0 0 3.08295,1.09344 2.313038,2.313038 0 0 0 1.09357,-3.0827 2.313038,2.313038 0 0 0 -3.08283,-1.09383 z M 584.02,296.55442 a 1.8504304,1.8504304 0 0 0 -0.87471,2.46642 1.8504304,1.8504304 0 0 0 2.46614,0.87485 1.8504304,1.8504304 0 0 0 0.87485,-2.46616 1.8504304,1.8504304 0 0 0 -2.46628,-0.87511 z m -11.20834,5.85085 a 1.3878228,1.3878228 0 0 0 -0.65601,1.84988 1.3878228,1.3878228 0 0 0 1.84961,0.65614 1.3878228,1.3878228 0 0 0 0.65641,-1.84974 1.3878228,1.3878228 0 0 0 -1.85001,-0.65628 z m 19.01151,-5.76853 a 2.0817342,2.0817342 0 0 0 -0.98428,2.77462 2.0817342,2.0817342 0 0 0 2.77462,0.98427 2.0817342,2.0817342 0 0 0 0.98428,-2.77462 2.0817342,2.0817342 0 0 0 -2.77462,-0.98427 z m -12.21338,5.88741 a 1.6191267,1.6191267 0 0 0 -0.76556,2.15809 1.6191267,1.6191267 0 0 0 2.15808,0.76556 1.6191267,1.6191267 0 0 0 0.76531,-2.15797 1.6191267,1.6191267 0 0 0 -2.15783,-0.76568 z m -4.07833,5.59143 a 1.3878228,1.3878228 0 0 0 -0.65615,1.84961 1.3878228,1.3878228 0 0 0 1.84962,0.65614 1.3878228,1.3878228 0 0 0 0.65641,-1.84975 1.3878228,1.3878228 0 0 0 -1.84988,-0.656 z m 11.57736,-5.07608 a 1.8504304,1.8504304 0 0 0 -0.87484,2.46617 1.8504304,1.8504304 0 0 0 2.46628,0.87511 1.8504304,1.8504304 0 0 0 0.87472,-2.46642 1.8504304,1.8504304 0 0 0 -2.46616,-0.87486 z m 21.86864,-7.57771 c -6.94849,3.3073 -11.14565,10.54782 -10.56253,18.22112 l 31.34983,-14.91572 c -5.58152,-5.28776 -13.84113,-6.60146 -20.7873,-3.30543 z m -26.56096,12.95513 a 1.6191267,1.6191267 0 0 0 -0.76557,2.15808 1.6191267,1.6191267 0 0 0 2.15808,0.76556 1.6191267,1.6191267 0 0 0 0.76531,-2.15795 1.6191267,1.6191267 0 0 0 -2.15782,-0.76569 z m -4.16615,5.4071 a 1.3878228,1.3878228 0 0 0 -0.65613,1.84961 1.3878228,1.3878228 0 0 0 1.84961,0.65614 1.3878228,1.3878228 0 0 0 0.65641,-1.84975 1.3878228,1.3878228 0 0 0 -1.84989,-0.656 z m 19.18102,1.53033 1.62954,3.42127 34.24476,-16.31063 -1.62953,-3.42126 -34.24477,16.31062 z m 2.91294,3.99883 26.10441,54.80715 32.60103,-15.52773 -26.10442,-54.80714 -32.60102,15.52772 z m 25.74408,56.16762 1.62878,3.41968 34.24475,-16.31065 -1.62877,-3.41966 -34.24476,16.31063 z"
     style="color:#000000;clip-rule:nonzero;display:inline;overflow:visible;visibility:visible;opacity:1;isolation:auto;mix-blend-mode:normal;color-interpolation:sRGB;color-interpolation-filters:linearRGB;solid-color:#000000;solid-opacity:1;fill:#666666;fill-opacity:1;fill-rule:nonzero;stroke:none;stroke-width:1.41732287;stroke-linecap:butt;stroke-linejoin:miter;stroke-miterlimit:4;stroke-dasharray:5.6692915, 2.83464574999999996;stroke-dashoffset:0;stroke-opacity:1;color-rendering:auto;image-rendering:auto;shape-rendering:auto;text-rendering:auto;enable-background:accumulate" />
  <path
     style="fill:#666666;stroke:none"
     d="m 191.96866,643.98772 c 0.93714,-0.009 1.86405,0.10891 2.75845,0.36491 -0.002,-10e-4 -18.8898,31.13622 -18.8898,31.13622 l 10.76406,0.23346 -4.76437,8.2572 -11.0542,-0.24027 c -1.75169,2.77123 -4.18616,6.49776 -5.84555,8.56096 -2.8615,3.56084 -4.19719,5.16046 -4.24307,5.65742 -0.047,0.49892 0.24771,0.74685 1.36675,1.42568 4.23765,2.57056 5.44383,8.32602 2.69726,12.85385 -2.74778,4.52982 -8.40544,6.11549 -12.64307,3.54496 -4.23564,-2.56935 -5.44502,-8.32177 -2.69724,-12.8516 2.51508,-4.14619 7.00162,-6.16045 10.56686,-12.03787 1.25511,-2.06912 2.11267,-5.41359 2.92846,-8.30934 -2.88117,-0.86674 -6.16125,-1.93959 -8.57909,-1.99235 -6.87353,-0.14807 -10.98495,2.55457 -15.83215,2.4502 -5.2949,-0.11483 -9.50192,-4.22299 -9.39504,-9.17743 0.10679,-4.95446 4.48772,-8.87534 9.78261,-8.7604 5.29611,0.11305 9.49967,4.223 9.39277,9.17744 -0.0287,1.30679 0.0248,1.69013 0.47145,1.91754 0.44345,0.22819 2.50796,-0.039 7.04911,-0.54172 2.63159,-0.29068 7.08408,-0.34041 10.36288,-0.33094 l 14.92328,-24.60161 c 2.57249,-4.24086 6.81875,-6.69655 10.87964,-6.73631 z m -53.16073,24.82601 c -3.24463,-0.0704 -5.92606,2.22513 -5.98834,5.12932 -0.0643,2.90296 2.51708,5.3151 5.76169,5.3854 3.24662,0.0715 5.92633,-2.22633 5.99061,-5.12929 0.0622,-2.90418 -2.51934,-5.3151 -5.76396,-5.38543 z m 19.33859,33.07869 c -2.07637,-0.21593 -4.29305,0.88366 -5.55541,2.9647 -1.68436,2.77674 -1.03648,6.24809 1.44609,7.75404 2.48453,1.50711 5.86111,0.47613 7.54549,-2.30061 1.68313,-2.77473 1.03844,-6.24462 -1.44609,-7.75175 -0.62064,-0.37647 -1.29794,-0.5944 -1.99008,-0.66638 z"
     id="path15"
     inkscape:connector-curvature="0" />
  <g
     id="g5896"
     transform="matrix(1.0590341,0,0,1.0590341,-304.18715,771.39086)"
     style="fill:#666666;stroke:none">
    <g
       transform="matrix(0.86934498,0,0,0.86934498,454.43876,199.54786)"
       id="text4767-9"
       style="font-style:normal;font-weight:normal;font-size:40px;line-height:125%;font-family:sans-serif;letter-spacing:0px;word-spacing:0px;fill:#666666;fill-opacity:1;stroke:none;stroke-width:4.46305609;stroke-linecap:butt;stroke-linejoin:miter;stroke-miterlimit:4;stroke-dasharray:none;stroke-opacity:1">
      <path
         inkscape:connector-curvature="0"
         id="path4776-6"
         style="font-style:normal;font-variant:normal;font-weight:normal;font-stretch:normal;font-family:'Futura Std';-inkscape-font-specification:'Futura Std';fill:#666666;fill-opacity:1;stroke:none;stroke-width:4.46305609;stroke-miterlimit:4;stroke-dasharray:none;stroke-opacity:1"
         d="m 134.47245,-187.33982 -3.36,0 0,30.16 11.68,0 0,-3.12 -8.32,0 0,-27.04 z" />
      <path
         inkscape:connector-curvature="0"
         id="path4778-0"
         style="font-style:normal;font-variant:normal;font-weight:normal;font-stretch:normal;font-family:'Futura Std';-inkscape-font-specification:'Futura Std';fill:#666666;fill-opacity:1;stroke:none;stroke-width:4.46305609;stroke-miterlimit:4;stroke-dasharray:none;stroke-opacity:1"
         d="m 149.47245,-187.33982 -3.36,0 0,30.16 11.68,0 0,-3.12 -8.32,0 0,-27.04 z" />
      <path
         inkscape:connector-curvature="0"
         id="path4780-6"
         style="font-style:normal;font-variant:normal;font-weight:normal;font-stretch:normal;font-family:'Futura Std';-inkscape-font-specification:'Futura Std';fill:#666666;fill-opacity:1;stroke:none;stroke-width:4.46305609;stroke-miterlimit:4;stroke-dasharray:none;stroke-opacity:1"
         d="m 164.55245,-187.33982 -3.36,0 0,30.16 3.36,0 0,-30.16 z" />
      <path
         inkscape:connector-curvature="0"
         id="path4782-4"
         style="font-style:normal;font-variant:normal;font-weight:normal;font-stretch:normal;font-family:'Futura Std';-inkscape-font-specification:'Futura Std';fill:#666666;fill-opacity:1;stroke:none;stroke-width:4.46305609;stroke-miterlimit:4;stroke-dasharray:none;stroke-opacity:1"
         d="m 174.0037,-171.17982 2.92,0 c 3.68,0 8.16,0.68 8.16,5.36 0,4.6 -3.96,5.52 -7.72,5.52 l -3.36,0 0,-10.88 z m -3.36,14 7,0 c 5.96,0 10.8,-2.4 10.8,-8.4 0,-3.6 -2.12,-6.84 -5.72,-7.72 2.04,-1.36 2.96,-3.44 2.96,-5.88 0,-6.16 -4.6,-8.16 -10.08,-8.16 l -4.96,0 0,30.16 z m 3.36,-27.04 1.32,0 c 4.12,0 7,0.48 7,5.04 0,4.68 -3.24,5.12 -7.04,5.12 l -1.28,0 0,-10.16 z" />
      <path
         inkscape:connector-curvature="0"
         id="path4784-0"
         style="font-style:normal;font-variant:normal;font-weight:normal;font-stretch:normal;font-family:'Futura Std';-inkscape-font-specification:'Futura Std';fill:#666666;fill-opacity:1;stroke:none;stroke-width:4.46305609;stroke-miterlimit:4;stroke-dasharray:none;stroke-opacity:1"
         d="m 193.37807,-157.17982 15.64,0 0,-3.12 -12.28,0 0,-11.84 11.92,0 0,-3.12 -11.92,0 0,-8.96 12.28,0 0,-3.12 -15.64,0 0,30.16 z" />
      <path
         inkscape:connector-curvature="0"
         id="path4786-9"
         style="font-style:normal;font-variant:normal;font-weight:normal;font-stretch:normal;font-family:'Futura Std';-inkscape-font-specification:'Futura Std';fill:#666666;fill-opacity:1;stroke:none;stroke-width:4.46305609;stroke-miterlimit:4;stroke-dasharray:none;stroke-opacity:1"
         d="m 218.0662,-184.21982 1,0 c 4.04,0 7.68,0.48 7.68,5.44 0,4.68 -3.84,5.4 -7.64,5.4 l -1.04,0 0,-10.84 z m 0,13.8 0.84,0 9.12,13.24 4.12,0 -9.6,-13.52 c 4.64,-0.4 7.56,-3.68 7.56,-8.32 0,-6.8 -5.32,-8.32 -11.04,-8.32 l -4.36,0 0,30.16 3.36,0 0,-13.24 z" />
      <path
         inkscape:connector-curvature="0"
         id="path4788-4"
         style="font-style:normal;font-variant:normal;font-weight:normal;font-stretch:normal;font-family:'Futura Std';-inkscape-font-specification:'Futura Std';fill:#666666;fill-opacity:1;stroke:none;stroke-width:4.46305609;stroke-miterlimit:4;stroke-dasharray:none;stroke-opacity:1"
         d="m 243.6437,-184.21982 7.36,0 0,-3.12 -18,0 0,3.12 7.28,0 0,27.04 3.36,0 0,-27.04 z" />
      <path
         inkscape:connector-curvature="0"
         id="path4790-5"
         style="font-style:normal;font-variant:normal;font-weight:normal;font-stretch:normal;font-family:'Futura Std';-inkscape-font-specification:'Futura Std';fill:#666666;fill-opacity:1;stroke:none;stroke-width:4.46305609;stroke-miterlimit:4;stroke-dasharray:none;stroke-opacity:1"
         d="m 268.6687,-165.73982 3.56,8.56 3.72,0 -13.56,-31.6 -13.92,31.6 3.68,0 3.64,-8.56 12.88,0 z m -1.32,-3.12 -10.2,0 5.16,-12.08 5.04,12.08 z" />
      <path
         inkscape:connector-curvature="0"
         id="path4792-4"
         style="font-style:normal;font-variant:normal;font-weight:normal;font-stretch:normal;font-family:'Futura Std';-inkscape-font-specification:'Futura Std';fill:#666666;fill-opacity:1;stroke:none;stroke-width:4.46305609;stroke-miterlimit:4;stroke-dasharray:none;stroke-opacity:1"
         d="m 284.03432,-184.21982 7.36,0 0,-3.12 -18,0 0,3.12 7.28,0 0,27.04 3.36,0 0,-27.04 z" />
    </g>
    <g
       transform="matrix(0.82418587,0,0,0.82418587,461.88743,176.33158)"
       id="text4771-6"
       style="font-style:normal;font-weight:normal;font-size:40px;line-height:125%;font-family:sans-serif;letter-spacing:0px;word-spacing:0px;fill:#666666;fill-opacity:1;stroke:none;stroke-width:4.70759726;stroke-linecap:butt;stroke-linejoin:miter;stroke-miterlimit:4;stroke-dasharray:none;stroke-opacity:1">
      <path
         inkscape:connector-curvature="0"
         id="path4795-6"
         style="font-style:normal;font-variant:normal;font-weight:800;font-stretch:normal;font-family:'Futura Std';-inkscape-font-specification:'Futura Std Ultra-Bold';fill:#666666;fill-opacity:1;stroke:none;stroke-width:4.70759726;stroke-miterlimit:4;stroke-dasharray:none;stroke-opacity:1"
         d="m 129.25879,-101.5524 10.56,0 0,-9.08 5.6,0 c 6.12,0 9.96,-3.84 9.96,-10 0,-7.48 -5.2,-11.08 -12.24,-11.08 l -13.88,0 0,30.16 z m 10.56,-21.92 1.04,0 c 1.8,0 4.04,0.12 4.04,2.48 0,2.44 -2.08,2.76 -4,2.76 l -1.08,0 0,-5.24 z" />
      <path
         inkscape:connector-curvature="0"
         id="path4797-3"
         style="font-style:normal;font-variant:normal;font-weight:800;font-stretch:normal;font-family:'Futura Std';-inkscape-font-specification:'Futura Std Ultra-Bold';fill:#666666;fill-opacity:1;stroke:none;stroke-width:4.70759726;stroke-miterlimit:4;stroke-dasharray:none;stroke-opacity:1"
         d="m 158.39942,-101.5524 10.72,0 0,-9.68 0.2,0 4.8,9.68 12.64,0 -6.56,-9.8 c -0.6,-0.88 -1.28,-1.36 -1.84,-1.8 l 0,-0.24 c 4.08,-1.36 5.84,-3.28 5.84,-7.84 0,-7.6 -5.76,-10.48 -12.56,-10.48 l -13.24,0 0,30.16 z m 10.72,-21.92 0.84,0 c 1.88,0 3.52,0.28 3.52,2.6 0,2.24 -1.8,2.52 -3.6,2.52 l -0.76,0 0,-5.12 z" />
      <path
         inkscape:connector-curvature="0"
         id="path4799-9"
         style="font-style:normal;font-variant:normal;font-weight:800;font-stretch:normal;font-family:'Futura Std';-inkscape-font-specification:'Futura Std Ultra-Bold';fill:#666666;fill-opacity:1;stroke:none;stroke-width:4.70759726;stroke-miterlimit:4;stroke-dasharray:none;stroke-opacity:1"
         d="m 188.55192,-101.5524 20.6,0 0,-8.24 -9.56,0 0,-2.96 8.44,0 0,-7.84 -8.44,0 0,-2.88 9.24,0 0,-8.24 -20.28,0 0,30.16 z" />
      <path
         inkscape:connector-curvature="0"
         id="path4801-9"
         style="font-style:normal;font-variant:normal;font-weight:800;font-stretch:normal;font-family:'Futura Std';-inkscape-font-specification:'Futura Std Ultra-Bold';fill:#666666;fill-opacity:1;stroke:none;stroke-width:4.70759726;stroke-miterlimit:4;stroke-dasharray:none;stroke-opacity:1"
         d="m 212.07379,-103.8324 c 3.4,1.72 7.8,2.76 11.6,2.76 6.52,0 13.08,-3.56 13.08,-10.76 0,-5.12 -3.36,-7.6 -8,-8.64 l -2.48,-0.56 c -0.84,-0.2 -2.2,-0.36 -2.2,-1.48 0,-1.24 1.4,-1.6 2.36,-1.6 2.36,0 4.48,1 6.36,2.28 l 2.96,-7.72 c -2.96,-1.8 -6.12,-2.64 -9.56,-2.64 -6.56,0 -13.08,4 -13.08,11.16 0,4.72 3.6,7.24 7.88,8 l 2.2,0.4 c 1,0.2 2.44,0.32 2.44,1.68 0,1.36 -1.72,1.8 -2.8,1.8 -2.52,0 -4.88,-1.24 -6.84,-2.76 l -0.56,-0.44 -3.36,8.52 z" />
      <path
         inkscape:connector-curvature="0"
         id="path4803-5"
         style="font-style:normal;font-variant:normal;font-weight:800;font-stretch:normal;font-family:'Futura Std';-inkscape-font-specification:'Futura Std Ultra-Bold';fill:#666666;fill-opacity:1;stroke:none;stroke-width:4.70759726;stroke-miterlimit:4;stroke-dasharray:none;stroke-opacity:1"
         d="m 255.71817,-132.1924 c -9.16,0 -16.68,6.16 -16.68,15.64 0,9.68 7.48,15.48 16.68,15.48 9.2,0 16.68,-5.8 16.68,-15.48 0,-9.48 -7.52,-15.64 -16.68,-15.64 z m 0,9.92 c 3.48,0 5.64,2.68 5.64,5.88 0,3.44 -2.32,5.8 -5.64,5.8 -3.32,0 -5.64,-2.36 -5.64,-5.8 0,-3.2 2.16,-5.88 5.64,-5.88 z" />
      <path
         inkscape:connector-curvature="0"
         id="path4805-2"
         style="font-style:normal;font-variant:normal;font-weight:800;font-stretch:normal;font-family:'Futura Std';-inkscape-font-specification:'Futura Std Ultra-Bold';fill:#666666;fill-opacity:1;stroke:none;stroke-width:4.70759726;stroke-miterlimit:4;stroke-dasharray:none;stroke-opacity:1"
         d="m 274.73004,-103.8324 c 3.4,1.72 7.8,2.76 11.6,2.76 6.52,0 13.08,-3.56 13.08,-10.76 0,-5.12 -3.36,-7.6 -8,-8.64 l -2.48,-0.56 c -0.84,-0.2 -2.2,-0.36 -2.2,-1.48 0,-1.24 1.4,-1.6 2.36,-1.6 2.36,0 4.48,1 6.36,2.28 l 2.96,-7.72 c -2.96,-1.8 -6.12,-2.64 -9.56,-2.64 -6.56,0 -13.08,4 -13.08,11.16 0,4.72 3.6,7.24 7.88,8 l 2.2,0.4 c 1,0.2 2.44,0.32 2.44,1.68 0,1.36 -1.72,1.8 -2.8,1.8 -2.52,0 -4.88,-1.24 -6.84,-2.76 l -0.56,-0.44 -3.36,8.52 z" />
    </g>
    <path
       d="m 568.4207,119.93824 6.20469,0 0,-7.91414 3.51388,0 c 5.41327,0 8.4523,-2.46921 8.4523,-8.10408 0,-5.476586 -3.54554,-7.850828 -8.6739,-7.850828 l -9.49697,0 0,23.869048 z m 6.20469,-18.86731 1.04467,0 c 2.40589,0 4.46357,0.0317 4.46357,3.03903 0,2.9124 -2.21596,2.9124 -4.46357,2.9124 l -1.04467,0 0,-5.95143 z"
       style="font-style:normal;font-variant:normal;font-weight:bold;font-stretch:normal;font-size:medium;line-height:125%;font-family:'Futura Std';-inkscape-font-specification:'Futura Std';letter-spacing:0px;word-spacing:0px;fill:#666666;fill-opacity:1;stroke:none;stroke-width:4.90253544;stroke-linecap:butt;stroke-linejoin:miter;stroke-miterlimit:4;stroke-dasharray:none;stroke-opacity:1"
       id="path4808-3"
       inkscape:connector-curvature="0" />
    <path
       d="m 601.31682,95.277778 c -6.86948,0 -13.20079,5.065052 -13.20079,12.282742 0,7.7242 5.5399,13.16913 13.20079,13.16913 7.66088,0 13.20078,-5.44493 13.20078,-13.16913 0,-7.21769 -6.33131,-12.282742 -13.20078,-12.282742 z m 0,6.014742 c 3.70381,0 6.74284,3.00738 6.74284,6.29966 0,4.11535 -3.03903,7.12273 -6.74284,7.12273 -3.70382,0 -6.74285,-3.00738 -6.74285,-7.12273 0,-3.29228 3.03903,-6.29966 6.74285,-6.29966 z"
       style="font-style:normal;font-variant:normal;font-weight:bold;font-stretch:normal;font-size:medium;line-height:125%;font-family:'Futura Std';-inkscape-font-specification:'Futura Std';letter-spacing:0px;word-spacing:0px;fill:#666666;fill-opacity:1;stroke:none;stroke-width:4.90253544;stroke-linecap:butt;stroke-linejoin:miter;stroke-miterlimit:4;stroke-dasharray:none;stroke-opacity:1"
       id="path4810-0"
       inkscape:connector-curvature="0" />
    <path
       d="m 623.59413,96.069192 -6.20468,0 0,23.869048 13.64397,0 0,-5.25499 -7.43929,0 0,-18.614058 z"
       style="font-style:normal;font-variant:normal;font-weight:bold;font-stretch:normal;font-size:medium;line-height:125%;font-family:'Futura Std';-inkscape-font-specification:'Futura Std';letter-spacing:0px;word-spacing:0px;fill:#666666;fill-opacity:1;stroke:none;stroke-width:4.90253544;stroke-linecap:butt;stroke-linejoin:miter;stroke-miterlimit:4;stroke-dasharray:none;stroke-opacity:1"
       id="path4812-9"
       inkscape:connector-curvature="0" />
    <path
       inkscape:connector-curvature="0"
       id="path5893"
       d="m 639.23692,99.778119 -6.20468,0 0,20.160121 6.20468,0 0,-20.160121 z"
       style="font-style:normal;font-variant:normal;font-weight:bold;font-stretch:normal;font-size:medium;line-height:125%;font-family:'Futura Std';-inkscape-font-specification:'Futura Std';letter-spacing:0px;word-spacing:0px;fill:#666666;fill-opacity:1;stroke:none;stroke-width:4.90253544;stroke-linecap:butt;stroke-linejoin:miter;stroke-miterlimit:4;stroke-dasharray:none;stroke-opacity:1" />
    <path
       inkscape:connector-curvature="0"
       id="path4814-9"
       d="m 640.59815,94.431919 -3.51387,-2.532524 -4.46358,5.444928 2.56418,1.867737 5.41327,-4.780141 z"
       style="font-style:normal;font-variant:normal;font-weight:bold;font-stretch:normal;font-size:medium;line-height:125%;font-family:'Futura Std';-inkscape-font-specification:'Futura Std';letter-spacing:0px;word-spacing:0px;fill:#666666;fill-opacity:1;stroke:none;stroke-width:4.90253544;stroke-linecap:butt;stroke-linejoin:miter;stroke-miterlimit:4;stroke-dasharray:none;stroke-opacity:1" />
    <path
       d="m 652.79285,101.32418 5.12837,0 0,-5.254988 -16.46141,0 0,5.254988 5.12836,0 0,18.61406 6.20468,0 0,-18.61406 z"
       style="font-style:normal;font-variant:normal;font-weight:bold;font-stretch:normal;font-size:medium;line-height:125%;font-family:'Futura Std';-inkscape-font-specification:'Futura Std';letter-spacing:0px;word-spacing:0px;fill:#666666;fill-opacity:1;stroke:none;stroke-width:4.90253544;stroke-linecap:butt;stroke-linejoin:miter;stroke-miterlimit:4;stroke-dasharray:none;stroke-opacity:1"
       id="path4816-1"
       inkscape:connector-curvature="0" />
    <path
       d="m 666.37995,96.069192 -6.20468,0 0,23.869048 6.20468,0 0,-23.869048 z"
       style="font-style:normal;font-variant:normal;font-weight:bold;font-stretch:normal;font-size:medium;line-height:125%;font-family:'Futura Std';-inkscape-font-specification:'Futura Std';letter-spacing:0px;word-spacing:0px;fill:#666666;fill-opacity:1;stroke:none;stroke-width:4.90253544;stroke-linecap:butt;stroke-linejoin:miter;stroke-miterlimit:4;stroke-dasharray:none;stroke-opacity:1"
       id="path4818-3"
       inkscape:connector-curvature="0" />
    <path
       d="m 687.50181,96.63901 c -1.83609,-0.759757 -3.67217,-1.202949 -5.66653,-1.202949 -3.35559,0 -6.74285,1.456202 -9.08543,3.8621 -2.27927,2.342589 -3.51388,5.476589 -3.51388,8.737209 0,3.54554 1.20295,6.64788 3.83044,9.02212 2.46922,2.24762 5.63487,3.51388 8.95881,3.51388 1.93105,0 3.41891,-0.47485 5.47659,-1.10798 l 0,-7.43929 c -1.29792,1.55117 -3.32394,2.53252 -5.34996,2.53252 -3.8621,0 -6.45794,-2.72246 -6.45794,-6.48959 0,-3.70382 2.56418,-6.61622 6.36297,-6.61622 2.12099,0 4.17866,0.91804 5.44493,2.62749 l 0,-7.43929 z"
       style="font-style:normal;font-variant:normal;font-weight:bold;font-stretch:normal;font-size:medium;line-height:125%;font-family:'Futura Std';-inkscape-font-specification:'Futura Std';letter-spacing:0px;word-spacing:0px;fill:#666666;fill-opacity:1;stroke:none;stroke-width:4.90253544;stroke-linecap:butt;stroke-linejoin:miter;stroke-miterlimit:4;stroke-dasharray:none;stroke-opacity:1"
       id="path4820-4"
       inkscape:connector-curvature="0" />
    <path
       d="m 706.91222,97.398768 c -2.12099,-1.20295 -5.06505,-1.962707 -7.47094,-1.962707 -4.78015,0 -8.23071,3.165656 -8.23071,8.009109 0,4.62186 2.56418,5.63487 6.45794,6.74285 1.32957,0.37988 3.76713,0.98135 3.76713,2.72246 0,1.6778 -1.55117,2.4059 -3.00737,2.4059 -2.12099,0 -3.95707,-1.10798 -5.50825,-2.46921 l -2.65915,5.00174 c 2.43756,1.70945 5.38162,2.72246 8.38899,2.72246 2.4059,0 4.90677,-0.66479 6.77451,-2.24762 1.89939,-1.61448 2.46921,-4.05203 2.46921,-6.42628 0,-3.8621 -2.56418,-5.5399 -5.88812,-6.52125 l -1.58283,-0.47485 c -1.07632,-0.34822 -2.75412,-0.88638 -2.75412,-2.27927 0,-1.32958 1.51951,-1.99436 2.65915,-1.99436 1.51951,0 2.97572,0.63313 4.11535,1.58283 l 2.46921,-4.811802 z"
       style="font-style:normal;font-variant:normal;font-weight:bold;font-stretch:normal;font-size:medium;line-height:125%;font-family:'Futura Std';-inkscape-font-specification:'Futura Std';letter-spacing:0px;word-spacing:0px;fill:#666666;fill-opacity:1;stroke:none;stroke-width:4.90253544;stroke-linecap:butt;stroke-linejoin:miter;stroke-miterlimit:4;stroke-dasharray:none;stroke-opacity:1"
       id="path4822-5"
       inkscape:connector-curvature="0" />
  </g>
</svg>
