<?xml version="1.0" encoding="UTF-8" standalone="no"?>
<!-- Created with Inkscape (http://www.inkscape.org/) -->

<svg
   xmlns:dc="http://purl.org/dc/elements/1.1/"
   xmlns:cc="http://creativecommons.org/ns#"
   xmlns:rdf="http://www.w3.org/1999/02/22-rdf-syntax-ns#"
   xmlns:svg="http://www.w3.org/2000/svg"
   xmlns="http://www.w3.org/2000/svg"
   version="1.2"
   width="297mm"
   height="210mm"
   viewBox="0 0 29700 21000"
   clip-path="url(#presentation_clip_path)"
   id="svg2"
   xml:space="preserve"
   style="fill-rule:evenodd;stroke-width:28.22200012;stroke-linejoin:round"><metadata
     id="metadata1170"><rdf:RDF><cc:Work
         rdf:about=""><dc:format>image/svg+xml</dc:format><dc:type
           rdf:resource="http://purl.org/dc/dcmitype/StillImage" /><dc:title></dc:title></cc:Work></rdf:RDF></metadata><defs
     id="defs4"><clipPath
       id="presentation_clip_path"><rect
         width="29700"
         height="21000"
         x="0"
         y="0"
         id="rect7" /></clipPath></defs><defs
     id="defs9" /><defs
     id="defs42" /><defs
     id="defs71" /><defs
     id="defs75" /><defs
     id="defs104" /><g
     id="g106"><g
       id="id2"><g
         id="bg-id2" /><g
         id="bo-id2" /></g></g><g
     id="g118"><g
       id="id3"><path
         d="m 14850,20000 -13850,0 0,-19000 27700,0 0,19000 -13850,0 z"
         id="path121"
         style="fill:#34495e;stroke:none" /></g></g><g
     id="g123"><g
       id="id4"><path
         d="m 5500,17000 3000,3000 20200,0 0,-13500 -2700,-3000 0,13500 -20500,0 z"
         id="path126"
         style="fill:#2c3e50;stroke:none" /></g></g><g
     id="g128"><g
       id="id5"><path
         d="m 15750,17000 -10250,0 0,-13500 20500,0 0,13500 -10250,0 z"
         id="path131"
         style="fill:#27ae60;stroke:none" /></g></g><g
     id="g133"><g
       id="id6"><path
         d="m 16500,12000 -1500,0 0,-3000 3000,0 0,3000 -1500,0 z"
         id="path136"
         style="fill:#2c3e50;stroke:none" /></g></g><g
     id="g138"><g
       id="g140"><g
         id="g142"><g
           id="id7"><path
             d="m 19146,15500 208,0 147,146 0,208 -147,147 -208,0 -146,-147 0,-208 146,-146 z m -146,0 0,0 z m 501,501 0,0 z"
             id="path145"
             style="fill:#2c3e50;stroke:none" /></g></g><g
         id="g147"><g
           id="id8"><path
             d="m 19000,15500 250,250"
             id="path150"
             style="fill:none;stroke:#f1c40f;stroke-width:200;stroke-linecap:round;stroke-linejoin:round" /></g></g></g><g
       id="g152"><g
         id="g154"><g
           id="id9"><path
             d="m 19146,16000 208,0 147,146 0,208 -147,147 -208,0 -146,-147 0,-208 146,-146 z m -146,0 0,0 z m 501,501 0,0 z"
             id="path157"
             style="fill:#2c3e50;stroke:none" /></g></g><g
         id="g159"><g
           id="id10"><path
             d="m 19000,16000 250,250"
             id="path162"
             style="fill:none;stroke:#f1c40f;stroke-width:200;stroke-linecap:round;stroke-linejoin:round" /></g></g></g><g
       id="g164"><g
         id="g166"><g
           id="id11"><path
             d="m 19646,15500 208,0 147,146 0,208 -147,147 -208,0 -146,-147 0,-208 146,-146 z m -146,0 0,0 z m 501,501 0,0 z"
             id="path169"
             style="fill:#2c3e50;stroke:none" /></g></g><g
         id="g171"><g
           id="id12"><path
             d="m 19500,15500 250,250"
             id="path174"
             style="fill:none;stroke:#f1c40f;stroke-width:200;stroke-linecap:round;stroke-linejoin:round" /></g></g></g><g
       id="g176"><g
         id="g178"><g
           id="id13"><path
             d="m 19646,16000 208,0 147,146 0,208 -147,147 -208,0 -146,-147 0,-208 146,-146 z m -146,0 0,0 z m 501,501 0,0 z"
             id="path181"
             style="fill:#2c3e50;stroke:none" /></g></g><g
         id="g183"><g
           id="id14"><path
             d="m 19500,16000 250,250"
             id="path186"
             style="fill:none;stroke:#f1c40f;stroke-width:200;stroke-linecap:round;stroke-linejoin:round" /></g></g></g><g
       id="g188"><g
         id="g190"><g
           id="id15"><path
             d="m 20146,15500 208,0 147,146 0,208 -147,147 -208,0 -146,-147 0,-208 146,-146 z m -146,0 0,0 z m 501,501 0,0 z"
             id="path193"
             style="fill:#2c3e50;stroke:none" /></g></g><g
         id="g195"><g
           id="id16"><path
             d="m 20000,15500 250,250"
             id="path198"
             style="fill:none;stroke:#f1c40f;stroke-width:200;stroke-linecap:round;stroke-linejoin:round" /></g></g></g><g
       id="g200"><g
         id="g202"><g
           id="id17"><path
             d="m 20146,16000 208,0 147,146 0,208 -147,147 -208,0 -146,-147 0,-208 146,-146 z m -146,0 0,0 z m 501,501 0,0 z"
             id="path205"
             style="fill:#2c3e50;stroke:none" /></g></g><g
         id="g207"><g
           id="id18"><path
             d="m 20000,16000 250,250"
             id="path210"
             style="fill:none;stroke:#f1c40f;stroke-width:200;stroke-linecap:round;stroke-linejoin:round" /></g></g></g><g
       id="g212"><g
         id="g214"><g
           id="id19"><path
             d="m 20646,15500 208,0 147,146 0,208 -147,147 -208,0 -146,-147 0,-208 146,-146 z m -146,0 0,0 z m 501,501 0,0 z"
             id="path217"
             style="fill:#2c3e50;stroke:none" /></g></g><g
         id="g219"><g
           id="id20"><path
             d="m 20500,15500 250,250"
             id="path222"
             style="fill:none;stroke:#f1c40f;stroke-width:200;stroke-linecap:round;stroke-linejoin:round" /></g></g></g><g
       id="g224"><g
         id="g226"><g
           id="id21"><path
             d="m 20646,16000 208,0 147,146 0,208 -147,147 -208,0 -146,-147 0,-208 146,-146 z m -146,0 0,0 z m 501,501 0,0 z"
             id="path229"
             style="fill:#2c3e50;stroke:none" /></g></g><g
         id="g231"><g
           id="id22"><path
             d="m 20500,16000 250,250"
             id="path234"
             style="fill:none;stroke:#f1c40f;stroke-width:200;stroke-linecap:round;stroke-linejoin:round" /></g></g></g><g
       id="g236"><g
         id="g238"><g
           id="id23"><path
             d="m 21146,15500 208,0 147,146 0,208 -147,147 -208,0 -146,-147 0,-208 146,-146 z m -146,0 0,0 z m 501,501 0,0 z"
             id="path241"
             style="fill:#2c3e50;stroke:none" /></g></g><g
         id="g243"><g
           id="id24"><path
             d="m 21000,15500 250,250"
             id="path246"
             style="fill:none;stroke:#f1c40f;stroke-width:200;stroke-linecap:round;stroke-linejoin:round" /></g></g></g><g
       id="g248"><g
         id="g250"><g
           id="id25"><path
             d="m 21146,16000 208,0 147,146 0,208 -147,147 -208,0 -146,-147 0,-208 146,-146 z m -146,0 0,0 z m 501,501 0,0 z"
             id="path253"
             style="fill:#2c3e50;stroke:none" /></g></g><g
         id="g255"><g
           id="id26"><path
             d="m 21000,16000 250,250"
             id="path258"
             style="fill:none;stroke:#f1c40f;stroke-width:200;stroke-linecap:round;stroke-linejoin:round" /></g></g></g><g
       id="g260"><g
         id="g262"><g
           id="id27"><path
             d="m 21646,15500 208,0 147,146 0,208 -147,147 -208,0 -146,-147 0,-208 146,-146 z m -146,0 0,0 z m 501,501 0,0 z"
             id="path265"
             style="fill:#2c3e50;stroke:none" /></g></g><g
         id="g267"><g
           id="id28"><path
             d="m 21500,15500 250,250"
             id="path270"
             style="fill:none;stroke:#f1c40f;stroke-width:200;stroke-linecap:round;stroke-linejoin:round" /></g></g></g><g
       id="g272"><g
         id="g274"><g
           id="id29"><path
             d="m 21646,16000 208,0 147,146 0,208 -147,147 -208,0 -146,-147 0,-208 146,-146 z m -146,0 0,0 z m 501,501 0,0 z"
             id="path277"
             style="fill:#2c3e50;stroke:none" /></g></g><g
         id="g279"><g
           id="id30"><path
             d="m 21500,16000 250,250"
             id="path282"
             style="fill:none;stroke:#f1c40f;stroke-width:200;stroke-linecap:round;stroke-linejoin:round" /></g></g></g><g
       id="g284"><g
         id="g286"><g
           id="id31"><path
             d="m 22146,15500 208,0 147,146 0,208 -147,147 -208,0 -146,-147 0,-208 146,-146 z m -146,0 0,0 z m 501,501 0,0 z"
             id="path289"
             style="fill:#2c3e50;stroke:none" /></g></g><g
         id="g291"><g
           id="id32"><path
             d="m 22000,15500 250,250"
             id="path294"
             style="fill:none;stroke:#f1c40f;stroke-width:200;stroke-linecap:round;stroke-linejoin:round" /></g></g></g><g
       id="g296"><g
         id="g298"><g
           id="id33"><path
             d="m 22146,16000 208,0 147,146 0,208 -147,147 -208,0 -146,-147 0,-208 146,-146 z m -146,0 0,0 z m 501,501 0,0 z"
             id="path301"
             style="fill:#2c3e50;stroke:none" /></g></g><g
         id="g303"><g
           id="id34"><path
             d="m 22000,16000 250,250"
             id="path306"
             style="fill:none;stroke:#f1c40f;stroke-width:200;stroke-linecap:round;stroke-linejoin:round" /></g></g></g><g
       id="g308"><g
         id="g310"><g
           id="id35"><path
             d="m 22646,15500 208,0 147,146 0,208 -147,147 -208,0 -146,-147 0,-208 146,-146 z m -146,0 0,0 z m 501,501 0,0 z"
             id="path313"
             style="fill:#2c3e50;stroke:none" /></g></g><g
         id="g315"><g
           id="id36"><path
             d="m 22500,15500 250,250"
             id="path318"
             style="fill:none;stroke:#f1c40f;stroke-width:200;stroke-linecap:round;stroke-linejoin:round" /></g></g></g><g
       id="g320"><g
         id="g322"><g
           id="id37"><path
             d="m 22646,16000 208,0 147,146 0,208 -147,147 -208,0 -146,-147 0,-208 146,-146 z m -146,0 0,0 z m 501,501 0,0 z"
             id="path325"
             style="fill:#2c3e50;stroke:none" /></g></g><g
         id="g327"><g
           id="id38"><path
             d="m 22500,16000 250,250"
             id="path330"
             style="fill:none;stroke:#f1c40f;stroke-width:200;stroke-linecap:round;stroke-linejoin:round" /></g></g></g><g
       id="g332"><g
         id="g334"><g
           id="id39"><path
             d="m 23146,15500 208,0 147,146 0,208 -147,147 -208,0 -146,-147 0,-208 146,-146 z m -146,0 0,0 z m 501,501 0,0 z"
             id="path337"
             style="fill:#2c3e50;stroke:none" /></g></g><g
         id="g339"><g
           id="id40"><path
             d="m 23000,15500 250,250"
             id="path342"
             style="fill:none;stroke:#f1c40f;stroke-width:200;stroke-linecap:round;stroke-linejoin:round" /></g></g></g><g
       id="g344"><g
         id="g346"><g
           id="id41"><path
             d="m 23146,16000 208,0 147,146 0,208 -147,147 -208,0 -146,-147 0,-208 146,-146 z m -146,0 0,0 z m 501,501 0,0 z"
             id="path349"
             style="fill:#2c3e50;stroke:none" /></g></g><g
         id="g351"><g
           id="id42"><path
             d="m 23000,16000 250,250"
             id="path354"
             style="fill:none;stroke:#f1c40f;stroke-width:200;stroke-linecap:round;stroke-linejoin:round" /></g></g></g><g
       id="g356"><g
         id="g358"><g
           id="id43"><path
             d="m 23646,15500 208,0 147,146 0,208 -147,147 -208,0 -146,-147 0,-208 146,-146 z m -146,0 0,0 z m 501,501 0,0 z"
             id="path361"
             style="fill:#2c3e50;stroke:none" /></g></g><g
         id="g363"><g
           id="id44"><path
             d="m 23500,15500 250,250"
             id="path366"
             style="fill:none;stroke:#f1c40f;stroke-width:200;stroke-linecap:round;stroke-linejoin:round" /></g></g></g><g
       id="g368"><g
         id="g370"><g
           id="id45"><path
             d="m 23646,16000 208,0 147,146 0,208 -147,147 -208,0 -146,-147 0,-208 146,-146 z m -146,0 0,0 z m 501,501 0,0 z"
             id="path373"
             style="fill:#2c3e50;stroke:none" /></g></g><g
         id="g375"><g
           id="id46"><path
             d="m 23500,16000 250,250"
             id="path378"
             style="fill:none;stroke:#f1c40f;stroke-width:200;stroke-linecap:round;stroke-linejoin:round" /></g></g></g><g
       id="g380"><g
         id="g382"><g
           id="id47"><path
             d="m 24146,15500 208,0 147,146 0,208 -147,147 -208,0 -146,-147 0,-208 146,-146 z m -146,0 0,0 z m 501,501 0,0 z"
             id="path385"
             style="fill:#2c3e50;stroke:none" /></g></g><g
         id="g387"><g
           id="id48"><path
             d="m 24000,15500 250,250"
             id="path390"
             style="fill:none;stroke:#f1c40f;stroke-width:200;stroke-linecap:round;stroke-linejoin:round" /></g></g></g><g
       id="g392"><g
         id="g394"><g
           id="id49"><path
             d="m 24146,16000 208,0 147,146 0,208 -147,147 -208,0 -146,-147 0,-208 146,-146 z m -146,0 0,0 z m 501,501 0,0 z"
             id="path397"
             style="fill:#2c3e50;stroke:none" /></g></g><g
         id="g399"><g
           id="id50"><path
             d="m 24000,16000 250,250"
             id="path402"
             style="fill:none;stroke:#f1c40f;stroke-width:200;stroke-linecap:round;stroke-linejoin:round" /></g></g></g><g
       id="g404"><g
         id="g406"><g
           id="id51"><path
             d="m 24646,15500 208,0 147,146 0,208 -147,147 -208,0 -146,-147 0,-208 146,-146 z m -146,0 0,0 z m 501,501 0,0 z"
             id="path409"
             style="fill:#2c3e50;stroke:none" /></g></g><g
         id="g411"><g
           id="id52"><path
             d="m 24500,15500 250,250"
             id="path414"
             style="fill:none;stroke:#f1c40f;stroke-width:200;stroke-linecap:round;stroke-linejoin:round" /></g></g></g><g
       id="g416"><g
         id="g418"><g
           id="id53"><path
             d="m 24646,16000 208,0 147,146 0,208 -147,147 -208,0 -146,-147 0,-208 146,-146 z m -146,0 0,0 z m 501,501 0,0 z"
             id="path421"
             style="fill:#2c3e50;stroke:none" /></g></g><g
         id="g423"><g
           id="id54"><path
             d="m 24500,16000 250,250"
             id="path426"
             style="fill:none;stroke:#f1c40f;stroke-width:200;stroke-linecap:round;stroke-linejoin:round" /></g></g></g><g
       id="g428"><g
         id="g430"><g
           id="id55"><path
             d="m 25146,15500 208,0 147,146 0,208 -147,147 -208,0 -146,-147 0,-208 146,-146 z m -146,0 0,0 z m 501,501 0,0 z"
             id="path433"
             style="fill:#2c3e50;stroke:none" /></g></g><g
         id="g435"><g
           id="id56"><path
             d="m 25000,15500 250,250"
             id="path438"
             style="fill:none;stroke:#f1c40f;stroke-width:200;stroke-linecap:round;stroke-linejoin:round" /></g></g></g><g
       id="g440"><g
         id="g442"><g
           id="id57"><path
             d="m 25146,16000 208,0 147,146 0,208 -147,147 -208,0 -146,-147 0,-208 146,-146 z m -146,0 0,0 z m 501,501 0,0 z"
             id="path445"
             style="fill:#2c3e50;stroke:none" /></g></g><g
         id="g447"><g
           id="id58"><path
             d="m 25000,16000 250,250"
             id="path450"
             style="fill:none;stroke:#f1c40f;stroke-width:200;stroke-linecap:round;stroke-linejoin:round" /></g></g></g></g><g
     id="g452"><g
       id="g454"><g
         id="id59"><path
           d="m 23250,13000 -500,0 0,-5500 1000,0 0,5500 -500,0 z"
           id="path457"
           style="fill:#2c3e50;stroke:none" /></g></g><g
       id="g459"><g
         id="id60"><path
           d="m 23000,12500 -250,0 0,-4500 500,0 0,4500 -250,0 z"
           id="path462"
           style="fill:#bdc3c7;stroke:none" /></g></g><g
       id="g464"><g
         id="id61"><path
           d="m 22500,8500 250,0"
           id="path467"
           style="fill:none;stroke:#f1c40f;stroke-width:200;stroke-linejoin:round" /></g></g><g
       id="g469"><g
         id="id62"><path
           d="m 22500,9000 250,0"
           id="path472"
           style="fill:none;stroke:#f1c40f;stroke-width:200;stroke-linejoin:round" /></g></g><g
       id="g474"><g
         id="id63"><path
           d="m 22500,9500 250,0"
           id="path477"
           style="fill:none;stroke:#f1c40f;stroke-width:200;stroke-linejoin:round" /></g></g><g
       id="g479"><g
         id="id64"><path
           d="m 22500,10000 250,0"
           id="path482"
           style="fill:none;stroke:#f1c40f;stroke-width:200;stroke-linejoin:round" /></g></g><g
       id="g484"><g
         id="id65"><path
           d="m 22500,10500 250,0"
           id="path487"
           style="fill:none;stroke:#f1c40f;stroke-width:200;stroke-linejoin:round" /></g></g><g
       id="g489"><g
         id="id66"><path
           d="m 22500,11000 250,0"
           id="path492"
           style="fill:none;stroke:#f1c40f;stroke-width:200;stroke-linejoin:round" /></g></g><g
       id="g494"><g
         id="id67"><path
           d="m 22500,11500 250,0"
           id="path497"
           style="fill:none;stroke:#f1c40f;stroke-width:200;stroke-linejoin:round" /></g></g><g
       id="g499"><g
         id="id68"><path
           d="m 22500,12000 250,0"
           id="path502"
           style="fill:none;stroke:#f1c40f;stroke-width:200;stroke-linejoin:round" /></g></g></g><g
     id="g504"><g
       id="g506"><g
         id="id69"><path
           d="m 11750,8500 -500,0 0,-5000 1000,0 0,5000 -500,0 z"
           id="path509"
           style="fill:#2c3e50;stroke:none" /></g></g><g
       id="g511"><g
         id="id70"><path
           d="m 12000,8000 -250,0 0,-4000 500,0 0,4000 -250,0 z"
           id="path514"
           style="fill:#bdc3c7;stroke:none" /></g></g><g
       id="g516"><g
         id="id71"><path
           d="m 12250,4500 250,0"
           id="path519"
           style="fill:none;stroke:#f1c40f;stroke-width:200;stroke-linejoin:round" /></g></g><g
       id="g521"><g
         id="id72"><path
           d="m 12250,5000 250,0"
           id="path524"
           style="fill:none;stroke:#f1c40f;stroke-width:200;stroke-linejoin:round" /></g></g><g
       id="g526"><g
         id="id73"><path
           d="m 12250,5500 250,0"
           id="path529"
           style="fill:none;stroke:#f1c40f;stroke-width:200;stroke-linejoin:round" /></g></g><g
       id="g531"><g
         id="id74"><path
           d="m 12250,6000 250,0"
           id="path534"
           style="fill:none;stroke:#f1c40f;stroke-width:200;stroke-linejoin:round" /></g></g><g
       id="g536"><g
         id="id75"><path
           d="m 12250,6500 250,0"
           id="path539"
           style="fill:none;stroke:#f1c40f;stroke-width:200;stroke-linejoin:round" /></g></g><g
       id="g541"><g
         id="id76"><path
           d="m 12250,7000 250,0"
           id="path544"
           style="fill:none;stroke:#f1c40f;stroke-width:200;stroke-linejoin:round" /></g></g><g
       id="g546"><g
         id="id77"><path
           d="m 12250,7500 250,0"
           id="path549"
           style="fill:none;stroke:#f1c40f;stroke-width:200;stroke-linejoin:round" /></g></g></g><g
     id="g551"><g
       id="g553"><g
         id="id78"><path
           d="m 12300,10759 c 71,0 125,54 125,125 0,71 -54,125 -125,125 -71,0 -125,-54 -125,-125 0,-71 54,-125 125,-125 z m -125,0 0,0 z m 251,251 0,0 z"
           id="path556"
           style="fill:#2c3e50;stroke:none" /><path
           d="m 12300,10759 c 71,0 125,54 125,125 0,71 -54,125 -125,125 -71,0 -125,-54 -125,-125 0,-71 54,-125 125,-125 z"
           id="path558"
           style="fill:none;stroke:#f1c40f;stroke-width:100;stroke-linejoin:round" /></g></g><g
       id="g560"><g
         id="id79"><path
           d="m 12300,11267 c 71,0 125,54 125,125 0,71 -54,125 -125,125 -71,0 -125,-54 -125,-125 0,-71 54,-125 125,-125 z m -125,0 0,0 z m 251,251 0,0 z"
           id="path563"
           style="fill:#2c3e50;stroke:none" /><path
           d="m 12300,11267 c 71,0 125,54 125,125 0,71 -54,125 -125,125 -71,0 -125,-54 -125,-125 0,-71 54,-125 125,-125 z"
           id="path565"
           style="fill:none;stroke:#f1c40f;stroke-width:100;stroke-linejoin:round" /></g></g><g
       id="g567"><g
         id="id80"><path
           d="m 12300,11776 c 71,0 125,54 125,125 0,71 -54,125 -125,125 -71,0 -125,-54 -125,-125 0,-71 54,-125 125,-125 z m -125,0 0,0 z m 251,251 0,0 z"
           id="path570"
           style="fill:#2c3e50;stroke:none" /><path
           d="m 12300,11776 c 71,0 125,54 125,125 0,71 -54,125 -125,125 -71,0 -125,-54 -125,-125 0,-71 54,-125 125,-125 z"
           id="path572"
           style="fill:none;stroke:#f1c40f;stroke-width:100;stroke-linejoin:round" /></g></g><g
       id="g574"><g
         id="id81"><path
           d="m 12300,12284 c 71,0 125,54 125,125 0,71 -54,125 -125,125 -71,0 -125,-54 -125,-125 0,-71 54,-125 125,-125 z m -125,0 0,0 z m 251,251 0,0 z"
           id="path577"
           style="fill:#2c3e50;stroke:none" /><path
           d="m 12300,12284 c 71,0 125,54 125,125 0,71 -54,125 -125,125 -71,0 -125,-54 -125,-125 0,-71 54,-125 125,-125 z"
           id="path579"
           style="fill:none;stroke:#f1c40f;stroke-width:100;stroke-linejoin:round" /></g></g><g
       id="g581"><g
         id="id82"><path
           d="m 12300,12793 c 71,0 125,54 125,125 0,71 -54,125 -125,125 -71,0 -125,-54 -125,-125 0,-71 54,-125 125,-125 z m -125,0 0,0 z m 251,251 0,0 z"
           id="path584"
           style="fill:#2c3e50;stroke:none" /><path
           d="m 12300,12793 c 71,0 125,54 125,125 0,71 -54,125 -125,125 -71,0 -125,-54 -125,-125 0,-71 54,-125 125,-125 z"
           id="path586"
           style="fill:none;stroke:#f1c40f;stroke-width:100;stroke-linejoin:round" /></g></g><g
       id="g588"><g
         id="id83"><path
           d="m 12300,13250 c 71,0 125,54 125,125 0,71 -54,125 -125,125 -71,0 -125,-54 -125,-125 0,-71 54,-125 125,-125 z m -125,0 0,0 z m 251,251 0,0 z"
           id="path591"
           style="fill:#2c3e50;stroke:none" /><path
           d="m 12300,13250 c 71,0 125,54 125,125 0,71 -54,125 -125,125 -71,0 -125,-54 -125,-125 0,-71 54,-125 125,-125 z"
           id="path593"
           style="fill:none;stroke:#f1c40f;stroke-width:100;stroke-linejoin:round" /></g></g><g
       id="g595"><g
         id="g597"><g
           id="id84"><path
             d="m 12300,10500 -200,0 0,-400 400,0 0,400 -200,0 z"
             id="path600"
             style="fill:#f1c40f;stroke:none" /></g></g><g
         id="g602"><g
           id="id85"><path
             d="m 12300,10175 c 71,0 125,54 125,125 0,71 -54,125 -125,125 -71,0 -125,-54 -125,-125 0,-71 54,-125 125,-125 z m -125,0 0,0 z m 251,251 0,0 z"
             id="path605"
             style="fill:#2c3e50;stroke:none" /><path
             d="m 12300,10175 c 71,0 125,54 125,125 0,71 -54,125 -125,125 -71,0 -125,-54 -125,-125 0,-71 54,-125 125,-125 z"
             id="path607"
             style="fill:none;stroke:#f1c40f;stroke-width:100;stroke-linejoin:round" /></g></g></g></g><g
     id="g609"><g
       id="g611"><g
         id="id86"><path
           d="m 6250,6500 -2750,0 0,-4000 5500,0 0,4000 -2750,0 z"
           id="path614"
           style="fill:#bdc3c7;stroke:none" /></g></g><g
       id="g616"><g
         id="id87"><path
           d="m 3500,6500 1000,1000 5500,0 0,-4000 -1000,-1000 0,4000 -5500,0 z"
           id="path619"
           style="fill:#95a5a6;stroke:none" /></g></g></g><g
     id="g621"><g
       id="g623"><g
         id="id88"><path
           d="m 10000,12500 -1000,0 0,-2000 2000,0 0,2000 -1000,0 z"
           id="path626"
           style="fill:#2c3e50;stroke:none" /></g></g><g
       id="g628"><g
         id="id89"><path
           d="m 9250,10250 0,250"
           id="path631"
           style="fill:none;stroke:#ecf0f1;stroke-width:100;stroke-linejoin:round" /></g></g><g
       id="g633"><g
         id="id90"><path
           d="m 9500,10250 0,250"
           id="path636"
           style="fill:none;stroke:#ecf0f1;stroke-width:100;stroke-linejoin:round" /></g></g><g
       id="g638"><g
         id="id91"><path
           d="m 9750,10250 0,250"
           id="path641"
           style="fill:none;stroke:#ecf0f1;stroke-width:100;stroke-linejoin:round" /></g></g><g
       id="g643"><g
         id="id92"><path
           d="m 10000,10250 0,250"
           id="path646"
           style="fill:none;stroke:#ecf0f1;stroke-width:100;stroke-linejoin:round" /></g></g><g
       id="g648"><g
         id="id93"><path
           d="m 10250,10250 0,250"
           id="path651"
           style="fill:none;stroke:#ecf0f1;stroke-width:100;stroke-linejoin:round" /></g></g><g
       id="g653"><g
         id="id94"><path
           d="m 10500,10250 0,250"
           id="path656"
           style="fill:none;stroke:#ecf0f1;stroke-width:100;stroke-linejoin:round" /></g></g><g
       id="g658"><g
         id="id95"><path
           d="m 10750,10250 0,250"
           id="path661"
           style="fill:none;stroke:#ecf0f1;stroke-width:100;stroke-linejoin:round" /></g></g><g
       id="g663"><g
         id="id96"><path
           d="m 9250,12500 0,250"
           id="path666"
           style="fill:none;stroke:#ecf0f1;stroke-width:100;stroke-linejoin:round" /></g></g><g
       id="g668"><g
         id="id97"><path
           d="m 9500,12500 0,250"
           id="path671"
           style="fill:none;stroke:#ecf0f1;stroke-width:100;stroke-linejoin:round" /></g></g><g
       id="g673"><g
         id="id98"><path
           d="m 9750,12500 0,250"
           id="path676"
           style="fill:none;stroke:#ecf0f1;stroke-width:100;stroke-linejoin:round" /></g></g><g
       id="g678"><g
         id="id99"><path
           d="m 10000,12500 0,250"
           id="path681"
           style="fill:none;stroke:#ecf0f1;stroke-width:100;stroke-linejoin:round" /></g></g><g
       id="g683"><g
         id="id100"><path
           d="m 10250,12500 0,250"
           id="path686"
           style="fill:none;stroke:#ecf0f1;stroke-width:100;stroke-linejoin:round" /></g></g><g
       id="g688"><g
         id="id101"><path
           d="m 10500,12500 0,250"
           id="path691"
           style="fill:none;stroke:#ecf0f1;stroke-width:100;stroke-linejoin:round" /></g></g><g
       id="g693"><g
         id="id102"><path
           d="m 10750,12500 0,250"
           id="path696"
           style="fill:none;stroke:#ecf0f1;stroke-width:100;stroke-linejoin:round" /></g></g><g
       id="g698"><g
         id="id103"><path
           d="m 8750,12250 250,0"
           id="path701"
           style="fill:none;stroke:#ecf0f1;stroke-width:100;stroke-linejoin:round" /></g></g><g
       id="g703"><g
         id="id104"><path
           d="m 8750,12000 250,0"
           id="path706"
           style="fill:none;stroke:#ecf0f1;stroke-width:100;stroke-linejoin:round" /></g></g><g
       id="g708"><g
         id="id105"><path
           d="m 8750,11750 250,0"
           id="path711"
           style="fill:none;stroke:#ecf0f1;stroke-width:100;stroke-linejoin:round" /></g></g><g
       id="g713"><g
         id="id106"><path
           d="m 8750,11500 250,0"
           id="path716"
           style="fill:none;stroke:#ecf0f1;stroke-width:100;stroke-linejoin:round" /></g></g><g
       id="g718"><g
         id="id107"><path
           d="m 8750,11250 250,0"
           id="path721"
           style="fill:none;stroke:#ecf0f1;stroke-width:100;stroke-linejoin:round" /></g></g><g
       id="g723"><g
         id="id108"><path
           d="m 8750,11000 250,0"
           id="path726"
           style="fill:none;stroke:#ecf0f1;stroke-width:100;stroke-linejoin:round" /></g></g><g
       id="g728"><g
         id="id109"><path
           d="m 8750,10750 250,0"
           id="path731"
           style="fill:none;stroke:#ecf0f1;stroke-width:100;stroke-linejoin:round" /></g></g><g
       id="g733"><g
         id="id110"><path
           d="m 11000,12250 250,0"
           id="path736"
           style="fill:none;stroke:#ecf0f1;stroke-width:100;stroke-linejoin:round" /></g></g><g
       id="g738"><g
         id="id111"><path
           d="m 11000,12000 250,0"
           id="path741"
           style="fill:none;stroke:#ecf0f1;stroke-width:100;stroke-linejoin:round" /></g></g><g
       id="g743"><g
         id="id112"><path
           d="m 11000,11750 250,0"
           id="path746"
           style="fill:none;stroke:#ecf0f1;stroke-width:100;stroke-linejoin:round" /></g></g><g
       id="g748"><g
         id="id113"><path
           d="m 11000,11500 250,0"
           id="path751"
           style="fill:none;stroke:#ecf0f1;stroke-width:100;stroke-linejoin:round" /></g></g><g
       id="g753"><g
         id="id114"><path
           d="m 11000,11250 250,0"
           id="path756"
           style="fill:none;stroke:#ecf0f1;stroke-width:100;stroke-linejoin:round" /></g></g><g
       id="g758"><g
         id="id115"><path
           d="m 11000,11000 250,0"
           id="path761"
           style="fill:none;stroke:#ecf0f1;stroke-width:100;stroke-linejoin:round" /></g></g><g
       id="g763"><g
         id="id116"><path
           d="m 11000,10750 250,0"
           id="path766"
           style="fill:none;stroke:#ecf0f1;stroke-width:100;stroke-linejoin:round" /></g></g></g><g
     id="g768"><g
       id="g770"><g
         id="id117"><path
           d="m 25250,5500 -750,0 0,-1500 1500,0 0,1500 -750,0 z"
           id="path773"
           style="fill:#bdc3c7;stroke:none" /></g></g><g
       id="g775"><g
         id="id118"><path
           d="m 24500,5500 500,500 1500,0 0,-1500 -500,-500 0,1500 -1500,0 z"
           id="path778"
           style="fill:#95a5a6;stroke:none" /></g></g></g><g
     id="g780"><g
       id="id119"><path
         d="m 23420,4670 c 425,0 750,325 750,750 0,425 -325,750 -750,750 -425,0 -750,-325 -750,-750 0,-425 325,-750 750,-750 z m -750,0 0,0 z m 1501,1501 0,0 z"
         id="path783"
         style="fill:#95a5a6;stroke:none" /><path
         d="m 23250,4500 c 425,0 750,325 750,750 0,425 -325,750 -750,750 -425,0 -750,-325 -750,-750 0,-425 325,-750 750,-750 z m -750,0 0,0 z m 1501,1501 0,0 z"
         id="path785"
         style="fill:#bdc3c7;stroke:none" /></g></g><g
     id="g787"><g
       id="g789"><g
         id="id120"><path
           d="m 10000,16500 -1500,0 0,-3000 3000,0 0,3000 -1500,0 z"
           id="path792"
           style="fill:#3498db;stroke:none" /><path
           d="m 10000,16500 -1500,0 0,-3000 3000,0 0,3000 -1500,0 z"
           id="path794"
           style="fill:none;stroke:#3498db" /></g></g><g
       id="g796"><g
         id="id121"><path
           d="m 8500,16500 500,500 3000,0 0,-3000 -500,-500 0,3000 -3000,0 z"
           id="path799"
           style="fill:#2980b9;stroke:none" /></g></g><g
       id="g801"><g
         id="g803"><g
           id="id122"><path
             d="m 10250,16900 c 425,0 750,108 750,250 0,142 -325,250 -750,250 -425,0 -750,-108 -750,-250 0,-142 325,-250 750,-250 z m -750,0 0,0 z m 1501,501 0,0 z"
             id="path806"
             style="fill:#3498db;stroke:none" /></g></g><g
         id="g808"><g
           id="id123"><path
             d="m 10250,17200 -750,0 0,-500 1500,0 0,500 -750,0 z"
             id="path811"
             style="fill:#3498db;stroke:none" /><path
             d="m 10250,17200 -750,0 0,-500 1500,0 0,500 -750,0 z"
             id="path813"
             style="fill:none;stroke:#3498db" /></g></g><g
         id="g815"><g
           id="id124"><path
             d="m 10150,17200 -250,0 0,-500 500,0 0,500 -250,0 z"
             id="path818"
             style="fill:#ecf0f1;stroke:none" /></g></g><g
         id="g820"><g
           id="id125"><path
             d="m 9800,16700 0,500"
             id="path823"
             style="fill:none;stroke:#2980b9;stroke-width:100;stroke-linejoin:round" /></g></g></g></g><g
     id="g825"><g
       id="g827"><g
         id="id126"><path
           d="m 14550,16500 -1250,0 0,-3000 2500,0 0,3000 -1250,0 z"
           id="path830"
           style="fill:#f1c40f;stroke:none" /></g></g><g
       id="g832"><g
         id="id127"><path
           d="m 13300,16501 500,500 2500,0 0,-3000 -500,-500 0,3000 -2500,0 z"
           id="path835"
           style="fill:#f39c12;stroke:none" /></g></g><g
       id="g837"><g
         id="g839"><g
           id="id128"><path
             d="m 14750,17900 c 425,0 750,108 750,250 0,142 -325,250 -750,250 -425,0 -750,-108 -750,-250 0,-142 325,-250 750,-250 z m -750,0 0,0 z m 1501,501 0,0 z"
             id="path842"
             style="fill:#bdc3c7;stroke:none" /></g></g><g
         id="g844"><g
           id="id129"><path
             d="m 14750,18200 -750,0 0,-1500 1500,0 0,1500 -750,0 z"
             id="path847"
             style="fill:#bdc3c7;stroke:none" /></g></g><g
         id="g849"><g
           id="id130"><path
             d="m 14550,18200 -250,0 0,-1500 500,0 0,1500 -250,0 z"
             id="path852"
             style="fill:#ecf0f1;stroke:none" /></g></g><g
         id="g854"><g
           id="id131"><path
             d="m 14300,16700 0,1500"
             id="path857"
             style="fill:none;stroke:#34495e;stroke-width:100;stroke-linejoin:round" /></g></g><g
         id="g859"><g
           id="id132"><path
             d="m 15200,16700 0,1500"
             id="path862"
             style="fill:none;stroke:#7f8c8d;stroke-width:100;stroke-linejoin:round" /></g></g></g></g><g
     id="g864"><g
       id="g866"><g
         id="id133"><path
           d="m 4750,12000 -2250,0 0,-3500 4500,0 0,3500 -2250,0 z"
           id="path869"
           style="fill:#bdc3c7;stroke:none" /></g></g><g
       id="g871"><g
         id="id134"><path
           d="m 2500,12000 1000,1000 4500,0 0,-3500 -1000,-1000 0,3500 -4500,0 z"
           id="path874"
           style="fill:#95a5a6;stroke:none" /></g></g><g
       id="g876"><g
         id="id135"><path
           d="m 3000,9500 0,-500 1500,0 0,1000 -1500,0 0,-500 z"
           id="path879"
           style="fill:#ffffff;stroke:none" /></g></g><g
       id="g881"><g
         id="id136"><path
           d="m 4500,10000 0,-1001 -1001,251 0,500 1001,250 z m 0,0 0,0 z m -1001,-1001 0,0 z"
           id="path884"
           style="fill:#bdc3c7;stroke:none" /><path
           d="m 4500,10000 0,-1001 -1001,251 0,500 1001,250 z"
           id="path886"
           style="fill:none;stroke:#bdc3c7" /><path
           d="m 4500,10000 0,0 z"
           id="path888"
           style="fill:none;stroke:#bdc3c7" /><path
           d="m 3499,8999 0,0 z"
           id="path890"
           style="fill:none;stroke:#bdc3c7" /></g></g><g
       id="g892"><g
         id="id137"><path
           d="m 3000,11000 0,-500 1500,0 0,1000 -1500,0 0,-500 z"
           id="path895"
           style="fill:#ffffff;stroke:none" /></g></g><g
       id="g897"><g
         id="id138"><path
           d="m 4500,11500 0,-1001 -1001,251 0,500 1001,250 z m 0,0 0,0 z m -1001,-1001 0,0 z"
           id="path900"
           style="fill:#bdc3c7;stroke:none" /><path
           d="m 4500,11500 0,-1001 -1001,251 0,500 1001,250 z"
           id="path902"
           style="fill:none;stroke:#bdc3c7" /><path
           d="m 4500,11500 0,0 z"
           id="path904"
           style="fill:none;stroke:#bdc3c7" /><path
           d="m 3499,10499 0,0 z"
           id="path906"
           style="fill:none;stroke:#bdc3c7" /></g></g></g><g
     transform="matrix(0,1,-1,0,23018.445,8231.7778)"
     id="g908"><g
       id="id139"><text
         id="text911"><tspan
           id="tspan913"
           style="font-size:494px;font-weight:400;font-family:'Bitstream Vera Sans Mono, monospace'"><tspan
             x="7406"
             y="15596"
             transform="matrix(0.00174533,0.99999848,-0.99999848,0.00174533,22989.05,8162.7911)"
             id="tspan915"><tspan
               id="tspan917"
               style="fill:#ffffff;stroke:none">PWR</tspan></tspan></tspan></text>
</g></g><g
     id="g919"><g
       id="g921"><g
         id="id140"><path
           d="m 6000,15000 0,500"
           id="path924"
           style="fill:none;stroke:#ecf0f1;stroke-width:200;stroke-linejoin:round" /></g></g><g
       id="g926"><g
         id="id141"><path
           d="m 6476,15000 0,500"
           id="path929"
           style="fill:none;stroke:#ecf0f1;stroke-width:200;stroke-linejoin:round" /></g></g><g
       id="g931"><g
         id="id142"><path
           d="m 6951,15000 0,500"
           id="path934"
           style="fill:none;stroke:#ecf0f1;stroke-width:200;stroke-linejoin:round" /></g></g><g
       id="g936"><g
         id="id143"><path
           d="m 7598,15000 0,500"
           id="path939"
           style="fill:none;stroke:#ecf0f1;stroke-width:200;stroke-linejoin:round" /></g></g><g
       id="g941"><g
         id="id144"><path
           d="m 8081,15000 0,500"
           id="path944"
           style="fill:none;stroke:#ecf0f1;stroke-width:200;stroke-linejoin:round" /></g></g></g><g
     transform="matrix(0,1,-1,0,23653.222,7863.8889)"
     id="g946"><g
       id="id145"><text
         id="text949"><tspan
           id="tspan951"
           style="font-size:494px;font-weight:400;font-family:'Bitstream Vera Sans Mono, monospace'"><tspan
             x="7915"
             y="15751"
             transform="matrix(0.00174533,0.99999848,-0.99999848,0.00174533,23652.162,7808.5214)"
             id="tspan953"><tspan
               id="tspan955"
               style="fill:#ffffff;stroke:none">OK</tspan></tspan></tspan></text>
</g></g><g
     transform="matrix(0,1,-1,0,21868.333,9367.7778)"
     id="g957"><g
       id="id146"><text
         id="text960"><tspan
           id="tspan962"
           style="font-size:494px;font-weight:400;font-family:'Bitstream Vera Sans Mono, monospace'"><tspan
             x="6270"
             y="15603"
             transform="matrix(0.00174533,0.99999848,-0.99999848,0.00174533,21862.033,9305.7772)"
             id="tspan964"><tspan
               id="tspan966"
               style="fill:#ffffff;stroke:none">LKN</tspan></tspan></tspan></text>
</g></g><g
     transform="matrix(0,1,-1,0,22376.333,8910.7778)"
     id="g968"><g
       id="id147"><text
         id="text971"><tspan
           id="tspan973"
           style="font-size:494px;font-weight:400;font-family:'Bitstream Vera Sans Mono, monospace'"><tspan
             x="6727"
             y="15603"
             transform="matrix(0.00174533,0.99999848,-0.99999848,0.00174533,22318.235,8848.7779)"
             id="tspan975"><tspan
               id="tspan977"
               style="fill:#ffffff;stroke:none">FDX</tspan></tspan></tspan></text>
</g></g><g
     transform="matrix(0,1,-1,0,21388.556,9857.7778)"
     id="g979"><g
       id="id148"><text
         id="text982"><tspan
           id="tspan984"
           style="font-size:494px;font-weight:400;font-family:'Bitstream Vera Sans Mono, monospace'"><tspan
             x="5780"
             y="15603"
             transform="matrix(0.00174533,0.99999848,-0.99999848,0.00174533,21372.888,9795.7764)"
             id="tspan986"><tspan
               id="tspan988"
               style="fill:#ffffff;stroke:none">10M</tspan></tspan></tspan></text>
</g></g><g
     id="g990"><g
       id="g992"><g
         id="id149"><path
           d="m 12800,10759 c 71,0 125,54 125,125 0,71 -54,125 -125,125 -71,0 -125,-54 -125,-125 0,-71 54,-125 125,-125 z m -125,0 0,0 z m 251,251 0,0 z"
           id="path995"
           style="fill:#2c3e50;stroke:none" /><path
           d="m 12800,10759 c 71,0 125,54 125,125 0,71 -54,125 -125,125 -71,0 -125,-54 -125,-125 0,-71 54,-125 125,-125 z"
           id="path997"
           style="fill:none;stroke:#f1c40f;stroke-width:100;stroke-linejoin:round" /></g></g><g
       id="g999"><g
         id="id150"><path
           d="m 12800,11267 c 71,0 125,54 125,125 0,71 -54,125 -125,125 -71,0 -125,-54 -125,-125 0,-71 54,-125 125,-125 z m -125,0 0,0 z m 251,251 0,0 z"
           id="path1002"
           style="fill:#2c3e50;stroke:none" /><path
           d="m 12800,11267 c 71,0 125,54 125,125 0,71 -54,125 -125,125 -71,0 -125,-54 -125,-125 0,-71 54,-125 125,-125 z"
           id="path1004"
           style="fill:none;stroke:#f1c40f;stroke-width:100;stroke-linejoin:round" /></g></g><g
       id="g1006"><g
         id="id151"><path
           d="m 12800,11776 c 71,0 125,54 125,125 0,71 -54,125 -125,125 -71,0 -125,-54 -125,-125 0,-71 54,-125 125,-125 z m -125,0 0,0 z m 251,251 0,0 z"
           id="path1009"
           style="fill:#2c3e50;stroke:none" /><path
           d="m 12800,11776 c 71,0 125,54 125,125 0,71 -54,125 -125,125 -71,0 -125,-54 -125,-125 0,-71 54,-125 125,-125 z"
           id="path1011"
           style="fill:none;stroke:#f1c40f;stroke-width:100;stroke-linejoin:round" /></g></g><g
       id="g1013"><g
         id="id152"><path
           d="m 12800,12284 c 71,0 125,54 125,125 0,71 -54,125 -125,125 -71,0 -125,-54 -125,-125 0,-71 54,-125 125,-125 z m -125,0 0,0 z m 251,251 0,0 z"
           id="path1016"
           style="fill:#2c3e50;stroke:none" /><path
           d="m 12800,12284 c 71,0 125,54 125,125 0,71 -54,125 -125,125 -71,0 -125,-54 -125,-125 0,-71 54,-125 125,-125 z"
           id="path1018"
           style="fill:none;stroke:#f1c40f;stroke-width:100;stroke-linejoin:round" /></g></g><g
       id="g1020"><g
         id="id153"><path
           d="m 12800,12793 c 71,0 125,54 125,125 0,71 -54,125 -125,125 -71,0 -125,-54 -125,-125 0,-71 54,-125 125,-125 z m -125,0 0,0 z m 251,251 0,0 z"
           id="path1023"
           style="fill:#2c3e50;stroke:none" /><path
           d="m 12800,12793 c 71,0 125,54 125,125 0,71 -54,125 -125,125 -71,0 -125,-54 -125,-125 0,-71 54,-125 125,-125 z"
           id="path1025"
           style="fill:none;stroke:#f1c40f;stroke-width:100;stroke-linejoin:round" /></g></g><g
       id="g1027"><g
         id="id154"><path
           d="m 12800,13250 c 71,0 125,54 125,125 0,71 -54,125 -125,125 -71,0 -125,-54 -125,-125 0,-71 54,-125 125,-125 z m -125,0 0,0 z m 251,251 0,0 z"
           id="path1030"
           style="fill:#2c3e50;stroke:none" /><path
           d="m 12800,13250 c 71,0 125,54 125,125 0,71 -54,125 -125,125 -71,0 -125,-54 -125,-125 0,-71 54,-125 125,-125 z"
           id="path1032"
           style="fill:none;stroke:#f1c40f;stroke-width:100;stroke-linejoin:round" /></g></g><g
       id="g1034"><g
         id="g1036"><g
           id="id155"><path
             d="m 12800,10500 -200,0 0,-400 400,0 0,400 -200,0 z"
             id="path1039"
             style="fill:#f1c40f;stroke:none" /></g></g><g
         id="g1041"><g
           id="id156"><path
             d="m 12800,10175 c 71,0 125,54 125,125 0,71 -54,125 -125,125 -71,0 -125,-54 -125,-125 0,-71 54,-125 125,-125 z m -125,0 0,0 z m 251,251 0,0 z"
             id="path1044"
             style="fill:#2c3e50;stroke:none" /><path
             d="m 12800,10175 c 71,0 125,54 125,125 0,71 -54,125 -125,125 -71,0 -125,-54 -125,-125 0,-71 54,-125 125,-125 z"
             id="path1046"
             style="fill:none;stroke:#f1c40f;stroke-width:100;stroke-linejoin:round" /></g></g></g><g
       id="g1048"><g
         id="id157"><path
           d="m 12801,13751 c 71,0 125,54 125,125 0,71 -54,125 -125,125 -71,0 -125,-54 -125,-125 0,-71 54,-125 125,-125 z m -125,0 0,0 z m 251,251 0,0 z"
           id="path1051"
           style="fill:#2c3e50;stroke:none" /><path
           d="m 12801,13751 c 71,0 125,54 125,125 0,71 -54,125 -125,125 -71,0 -125,-54 -125,-125 0,-71 54,-125 125,-125 z"
           id="path1053"
           style="fill:none;stroke:#f1c40f;stroke-width:100;stroke-linejoin:round" /></g></g></g><g
     id="g1055"><g
       id="g1057"><g
         id="id158"><path
           d="m 14750,6000 -1750,0 0,-3000 3500,0 0,3000 -1750,0 z"
           id="path1060"
           style="fill:#bdc3c7;stroke:none" /></g></g><g
       id="g1062"><g
         id="id159"><path
           d="m 13000,6000 500,500 3500,0 0,-3000 -500,-500 0,3000 -3500,0 z"
           id="path1065"
           style="fill:#95a5a6;stroke:none" /></g></g><g
       id="g1067"><g
         id="id160"><path
           d="m 14000,4500 501,0 -126,-1001 -250,0 -125,1001 z m 0,0 0,0 z m 501,-1001 0,0 z"
           id="path1070"
           style="fill:#bdc3c7;stroke:none" /><path
           d="m 14000,4500 501,0 -126,-1001 -250,0 -125,1001 z"
           id="path1072"
           style="fill:none;stroke:#95a5a6;stroke-width:100;stroke-linejoin:round" /></g></g><g
       id="g1074"><g
         id="id161"><path
           d="m 15000,4500 501,0 -126,-1001 -250,0 -125,1001 z m 0,0 0,0 z m 501,-1001 0,0 z"
           id="path1077"
           style="fill:#bdc3c7;stroke:none" /><path
           d="m 15000,4500 501,0 -126,-1001 -250,0 -125,1001 z"
           id="path1079"
           style="fill:none;stroke:#95a5a6;stroke-width:100;stroke-linejoin:round" /></g></g></g><g
     id="g1081"><g
       id="g1083"><g
         id="id162"><path
           d="m 20300,13500 0,500"
           id="path1086"
           style="fill:none;stroke:#ecf0f1;stroke-width:200;stroke-linejoin:round" /></g></g><g
       id="g1088"><g
         id="id163"><path
           d="m 20750,13500 0,500"
           id="path1091"
           style="fill:none;stroke:#ecf0f1;stroke-width:200;stroke-linejoin:round" /></g></g><g
       id="g1093"><g
         id="id164"><path
           d="m 20750,14500 -750,0 0,-500 1500,0 0,500 -750,0 z"
           id="path1096"
           style="fill:#2c3e50;stroke:none" /></g></g><g
       id="g1098"><g
         id="id165"><path
           d="m 21200,13500 0,500"
           id="path1101"
           style="fill:none;stroke:#ecf0f1;stroke-width:200;stroke-linejoin:round" /></g></g><g
       id="g1103"><g
         id="id166"><path
           d="m 20250,14700 1000,0"
           id="path1106"
           style="fill:none;stroke:#ecf0f1;stroke-width:400;stroke-linejoin:round" /></g></g></g><g
     id="g1108"><g
       id="g1110"><g
         id="id167"><path
           d="m 20750,5800 -750,0 0,-1000 1500,0 0,1000 -750,0 z"
           id="path1113"
           style="fill:#2c3e50;stroke:none" /></g></g><g
       id="g1115"><g
         id="id168"><path
           d="m 20250,6000 1000,0"
           id="path1118"
           style="fill:none;stroke:#ecf0f1;stroke-width:400;stroke-linejoin:round" /></g></g><g
       id="g1120"><g
         id="id169"><path
           d="m 20250,4300 0,500"
           id="path1123"
           style="fill:none;stroke:#ecf0f1;stroke-width:200;stroke-linejoin:round" /></g></g><g
       id="g1125"><g
         id="id170"><path
           d="m 20750,4550 0,250"
           id="path1128"
           style="fill:none;stroke:#ecf0f1;stroke-width:200;stroke-linejoin:round" /></g></g><g
       id="g1130"><g
         id="id171"><path
           d="m 21250,4300 0,500"
           id="path1133"
           style="fill:none;stroke:#ecf0f1;stroke-width:200;stroke-linejoin:round" /></g></g></g><g
     transform="matrix(-1,0,0,-1,43331.112,17563.222)"
     id="g1135"><g
       id="id172"><text
         id="text1138"><tspan
           id="tspan1140"
           style="font-size:423px;font-weight:400;font-family:'DejaVu Sans Mono, monospace'"><tspan
             x="21600"
             y="8981"
             transform="matrix(-1,0,0,-1,43200,17962)"
             id="tspan1142"><tspan
               id="tspan1144"
               style="fill:#ffffff;stroke:none">Raspberry Pi</tspan></tspan></tspan></text>
</g></g><g
     id="g1146"><g
       id="g1148"><g
         id="id173"><path
           d="m 18500,14500 -500,0 0,-500 1000,0 0,500 -500,0 z"
           id="path1151"
           style="fill:#2c3e50;stroke:none" /></g></g><g
       id="g1153"><g
         id="id174"><path
           d="m 18150,13750 0,250"
           id="path1156"
           style="fill:none;stroke:#ecf0f1;stroke-width:200;stroke-linejoin:round" /></g></g><g
       id="g1158"><g
         id="id175"><path
           d="m 18500,13750 0,250"
           id="path1161"
           style="fill:none;stroke:#ecf0f1;stroke-width:200;stroke-linejoin:round" /></g></g><g
       id="g1163"><g
         id="id176"><path
           d="m 18850,13750 0,250"
           id="path1166"
           style="fill:none;stroke:#ecf0f1;stroke-width:200;stroke-linejoin:round" /></g></g></g></svg>