<?xml version="1.0" encoding="UTF-8" standalone="no"?>
<!-- Created with Inkscape (http://www.inkscape.org/) -->

<svg
   xmlns:dc="http://purl.org/dc/elements/1.1/"
   xmlns:cc="http://creativecommons.org/ns#"
   xmlns:rdf="http://www.w3.org/1999/02/22-rdf-syntax-ns#"
   xmlns:svg="http://www.w3.org/2000/svg"
   xmlns="http://www.w3.org/2000/svg"
   xmlns:sodipodi="http://sodipodi.sourceforge.net/DTD/sodipodi-0.dtd"
   xmlns:inkscape="http://www.inkscape.org/namespaces/inkscape"
   id="svg2"
   version="1.1"
   inkscape:version="0.48.0 r9654"
   width="1364.782"
   height="1769.7074"
   sodipodi:docname="logo22.svg">
  <metadata
     id="metadata8">
    <rdf:RDF>
      <cc:Work
         rdf:about="">
        <dc:format>image/svg+xml</dc:format>
        <dc:type
           rdf:resource="http://purl.org/dc/dcmitype/StillImage" />
        <dc:title />
      </cc:Work>
    </rdf:RDF>
  </metadata>
  <defs
     id="defs6" />
  <sodipodi:namedview
     pagecolor="#ffffff"
     bordercolor="#666666"
     borderopacity="1"
     objecttolerance="10"
     gridtolerance="10"
     guidetolerance="10"
     inkscape:pageopacity="0"
     inkscape:pageshadow="2"
     inkscape:window-width="1366"
     inkscape:window-height="706"
     id="namedview4"
     showgrid="false"
     fit-margin-top="0"
     fit-margin-left="0"
     fit-margin-right="0"
     fit-margin-bottom="0"
     inkscape:zoom="0.21169555"
     inkscape:cx="685.05036"
     inkscape:cy="665.84989"
     inkscape:window-x="-8"
     inkscape:window-y="-8"
     inkscape:window-maximized="1"
     inkscape:current-layer="svg2" />
  <g
     id="g3102"
     transform="translate(-1.8243327e-5,4.3523869e-8)">
    <g
       transform="matrix(-1,0,0,1,1703.7316,-1.7507052)"
       id="g4959">
      <path
         style="fill:#b3026e;fill-opacity:1;stroke:none"
         d="m 984.25155,693.43961 c -7.80774,-0.63595 -26.22062,-1.90492 -40.91753,-2.81994 -38.83596,-2.41788 -55.10362,-6.78365 -64.64772,-17.34956 -11.87799,-13.14969 -5.20896,-43.34619 13.46228,-60.95544 7.93947,-7.48788 23.79153,-16.08097 36.12463,-19.58246 19.88818,-5.64645 48.29313,-2.85852 63.8262,6.2645 7.04529,4.1379 7.46088,7.55966 6.84412,56.35174 l -0.49611,39.24743 -14.19587,-1.15627 z"
         id="path2987"
         inkscape:connector-curvature="0" />
      <path
         style="fill:#b3026e;fill-opacity:1;fill-rule:evenodd;stroke:none"
         d="m 1027.6679,705.14363 c -4.4922,-39.6912 -2.4304,-67.06632 6.0453,-80.26427 8.3079,-12.9366 26.1501,-19.31845 45.3607,-16.22467 33.9944,5.47463 70.8988,43.15057 71.2364,72.72574 0.1405,12.30359 -2.3532,17.48826 -11.2399,23.36923 -10.3638,6.85841 -14.8718,7.70681 -47.9323,9.02085 -27.7368,1.10245 -32.178,1.69543 -43.4226,5.79767 -6.8892,2.51329 -13.6944,4.92381 -15.1228,5.35672 -2.1695,0.65756 -2.98,-2.59786 -4.9248,-19.78127 z"
         id="path2989"
         inkscape:connector-curvature="0" />
      <path
         style="fill:#b3026e;fill-opacity:1;fill-rule:evenodd;stroke:none"
         d="m 923.00147,822.39508 c -42.20095,-9.01406 -64.87863,-52.2272 -46.47119,-88.55254 7.88424,-15.5588 24.35381,-26.07964 43.64583,-27.88116 18.83109,-1.75847 46.87243,7.2603 70.35465,22.62776 l 8.78437,5.74874 -0.94678,16.03622 c -2.28552,38.71173 -4.32624,66.09101 -4.97441,66.73917 -4.6294,4.6294 -55.55685,8.45068 -70.39247,5.28181 l 0,0 z"
         id="path2991"
         inkscape:connector-curvature="0" />
      <path
         style="fill:#b3026e;fill-opacity:1;fill-rule:evenodd;stroke:none"
         d="m 1060.5968,848.04222 c -34.8412,-8.42925 -49.3702,-44.38989 -31.9691,-79.12676 8.652,-17.27166 27.6522,-29.59872 53.1033,-34.45275 12.7991,-2.44105 16.3128,-2.53323 25.8866,-0.67911 22.4407,4.34604 37.1748,14.9664 45.4589,32.76671 5.7431,12.34058 5.5375,34.71481 -0.4381,47.65837 -8.0254,17.3836 -22.098,29.34748 -40.1831,34.16186 -11.089,2.95198 -39.031,2.77507 -51.8585,-0.32832 l 0,0 z"
         id="path2993"
         inkscape:connector-curvature="0" />
      <path
         style="fill:#b3026e;fill-opacity:1;fill-rule:evenodd;stroke:none"
         d="m 1231.7372,732.60599 c 0.8077,-23.92239 4.0928,-31.9611 20.291,-49.65371 l 10.6602,-11.64359 -5.858,-10.65719 -5.8579,-10.6572 2.1213,-15.27653 c 4.342,-31.26951 4.2322,-41.3561 -0.9075,-83.37548 -0.6048,-4.94422 -0.1347,-6.54506 2.1779,-7.4167 1.6221,-0.61135 5.9554,-3.23191 9.6296,-5.82344 3.6742,-2.59155 8.5593,-6.01795 10.8557,-7.61424 13.4373,-9.34067 27.4916,-26.57307 36.382,-44.60925 8.7123,-17.67469 16.5261,-22.27189 39.0137,-22.95351 l 15.6249,-0.4736 2.7486,18.37113 c 8.2471,55.1225 -2.4438,104.35301 -32.8898,151.45337 -7.3332,11.34471 -19.7767,28.28194 -24.5799,33.45674 -1.1343,1.22204 -6.1959,7.06178 -11.248,12.97718 -5.052,5.91539 -12.1917,13.85782 -15.8659,17.64982 -15.675,16.17744 -39.3951,42.12326 -43.7377,47.84166 -8.5637,11.27678 -9.2989,10.28088 -8.5602,-11.59546 l 0,0 z"
         id="path2995"
         inkscape:connector-curvature="0" />
      <path
         style="fill:#b3026e;fill-opacity:1;fill-rule:evenodd;stroke:none"
         d="m 779.42184,740.86298 c -6.69251,-5.76383 -18.14811,-15.33392 -25.64452,-21.42364 -3.21495,-2.61167 -6.22113,-5.17768 -6.68041,-5.70228 -0.45928,-0.52458 -10.98093,-8.76235 -23.38145,-18.30613 -12.40051,-9.54379 -22.92216,-17.80452 -23.38144,-18.35717 -0.45928,-0.55266 -5.59615,-4.63274 -11.41525,-9.06684 -14.19633,-10.81746 -42.12181,-38.41615 -48.2958,-47.73063 -14.6733,-22.13713 -17.48764,-34.55068 -18.17457,-80.16495 -0.31126,-20.66753 -1.18359,-40.20773 -1.93853,-43.42268 l -1.3726,-5.84536 -2.21697,4.17526 c -11.00056,20.71763 -30.92792,51.77961 -33.23971,51.81274 -1.51742,0.0217 -11.61333,0.72523 -22.43536,1.56327 -23.28007,1.80277 -44.93698,-0.0638 -57.75113,-4.97729 -17.3052,-6.63564 -37.09515,-23.36847 -56.251,-47.56143 -3.63556,-4.59155 -7.54954,-9.34239 -8.69774,-10.55744 -1.1482,-1.21504 -2.10205,-2.71913 -2.11967,-3.34245 -0.0176,-0.6233 -2.66296,-4.13947 -5.87853,-7.81369 -5.75957,-6.58109 -24.98813,-34.60574 -29.10362,-42.41705 -2.07046,-3.92978 -2.00484,-3.98226 3.50884,-2.80592 6.0928,1.29991 41.89806,5.45664 60.73216,7.05059 8.16471,0.69097 11.187,0.45856 10.02061,-0.77059 -2.4382,-2.5694 -21.09336,-11.57606 -26.81982,-12.94854 -2.70167,-0.64753 -5.66368,-1.75798 -6.58224,-2.46768 -0.91855,-0.70971 -4.67629,-1.83138 -8.35051,-2.49262 -3.67423,-0.66127 -7.43196,-1.76904 -8.35052,-2.46177 -0.91856,-0.69271 -4.16325,-1.79287 -7.21044,-2.4448 -3.04718,-0.65191 -7.55646,-2.23717 -10.02061,-3.52276 -2.46416,-1.2856 -5.05198,-2.34209 -5.75071,-2.34775 -3.9109,-0.0317 -33.60119,-20.58182 -42.1542,-29.17704 -19.64089,-19.73781 -23.48825,-34.79272 -20.71536,-81.06005 0.90834,-15.15619 2.31064,-29.81134 3.11622,-32.56701 0.80558,-2.75567 1.93472,-8.76804 2.50919,-13.36083 0.57448,-4.59278 1.69305,-10.22938 2.48572,-12.52577 0.79267,-2.29639 2.70008,-8.30876 4.23871,-13.36083 10.70513,-35.15022 32.03735,-55.68786 70.99633,-68.35183 9.55606,-3.10628 29.55388,-12.16626 34.23711,-15.51107 6.37638,-4.55407 33.85246,-30.17708 65.87915,-61.436064 46.83178,-45.709187 66.35078,-59.661511 95.2858,-68.111018 13.0842,-3.8208068 58.91791,-3.6563446 79.3299,0.284655 32.75949,6.324967 53.51989,16.787072 65.61162,33.064661 15.9106,21.418488 16.05042,46.463643 0.38983,69.833866 -13.20223,19.70164 -36.56814,27.6817 -63.05481,21.53484 -11.45979,-2.65951 -52.67226,-15.90291 -61.00153,-19.6025 -21.44681,-9.52597 -45.74855,-16.539028 -48.2407,-13.92142 -0.5935,0.62337 -0.36418,6.01846 0.5096,11.98908 2.10971,14.41586 0.93399,20.73922 -5.14298,27.66052 -9.57034,10.9 -28.2113,56.71523 -26.56892,65.30026 0.36504,1.90804 2.47666,3.38623 5.5787,3.9052 7.71116,1.29007 10.82285,3.84568 13.36278,10.97478 6.09487,17.10717 1.44821,29.96872 -20.17433,55.84068 -21.13309,25.28633 -29.74142,42.53803 -32.49523,65.12268 -1.06402,8.72629 -1.67809,18.12062 -1.36461,20.87629 l 0.56996,5.01031 4.39459,-7.51546 c 2.41701,-4.13351 8.60544,-15.80888 13.75205,-25.94527 5.74615,-11.3172 12.10692,-21.16378 16.48171,-25.51396 7.10707,-7.0671 30.78265,-22.26948 38.25503,-24.56405 2.16774,-0.66565 4.69291,-1.76333 5.61146,-2.43928 4.10789,-3.02294 18.9025,-6.7127 26.91553,-6.7127 9.4432,0 39.88467,6.17534 45.28557,9.1866 0.35531,0.19811 4.64556,16.58174 16.39983,62.62783 2.46204,9.64485 4.95312,18.06055 5.5357,18.70157 0.58258,0.64102 4.8033,-0.86208 9.37935,-3.34021 l 8.3201,-4.50569 0.0312,-10.02061 c 0.0271,-8.67996 0.84846,-11.27749 6.13894,-19.41485 3.3592,-5.16683 7.86808,-11.07365 10.01972,-13.12626 6.16731,-5.88337 17.4954,-10.04652 27.33705,-10.04652 9.49813,0 32.29012,6.79895 50.05965,14.93302 16.93555,7.75232 27.85549,10.73917 39.24743,10.73509 21.57091,-0.008 31.41757,-10.70893 35.2838,-38.34592 2.14361,-15.32318 0.15849,-49.77772 -4.70632,-81.68302 -3.97161,-26.04763 -3.41401,-69.22761 1.17542,-91.02062 9.62702,-45.714321 30.18466,-78.77373 61.77287,-99.338995 21.49835,-13.9963335 40.80944,-19.7268145 66.80417,-19.8238355 21.0887,-0.07871 31.7774,2.2368869 49.3121,10.6828615 13.5319,6.517969 36.0275,28.650567 24.59,24.193164 -16.1296,-6.285952 -49.5714,-9.81241 -71.8422,-7.575781 -39.92778,4.009899 -56.44654,9.648132 -72.64649,24.7959 -23.13485,21.632241 -34.68251,50.636396 -39.66799,99.633696 -5.2996,52.08462 12.55592,126.21706 40.3748,167.62777 2.69641,4.01382 4.62797,7.57244 4.29236,7.90805 -0.3356,0.33561 -3.94074,-1.21039 -8.0114,-3.43555 -13.55121,-7.40754 -20.72249,-10.64243 -24.84884,-11.20911 -3.90883,-0.53683 -4.24147,0.166 -7.63852,16.13977 -1.95344,9.18557 -4.11904,19.1405 -4.81245,22.12207 -1.2557,5.39938 -1.21515,5.44151 10.14367,10.54413 14.44026,6.48685 14.91659,6.68365 33.95079,14.0276 36.10334,13.92971 47.00617,27.02804 53.57884,64.36806 4.51513,25.65059 1.55225,65.7554 -6.16914,83.50515 -5.04952,11.60774 -6.61134,13.98905 -14.13253,21.54804 -8.70708,8.75086 -10.27441,9.93735 -18.29192,13.84744 -22.84898,11.14331 -75.19409,10.87991 -106.68103,-0.53684 -31.27271,-11.33906 -57.99899,-30.64848 -79.48979,-57.4304 -3.67423,-4.57882 -7.15527,-8.70092 -7.73567,-9.1602 -1.57484,-1.24621 -23.16124,-33.33348 -23.16124,-34.42822 0,-0.51888 -5.07293,-8.80857 -11.27319,-18.42154 l -11.2732,-17.47809 -6.68041,0.73576 c -3.67423,0.40467 -13.8201,1.97962 -22.54639,3.49992 -26.65886,4.64447 -43.63676,7.43812 -57.61856,9.48089 -8.34908,1.21981 -14.54965,3.07309 -16.53014,4.94066 -3.08647,2.91051 -2.97731,3.07513 4.17525,6.29658 18.26438,8.22611 24.71526,9.15572 57.33147,8.26188 l 30.73274,-0.84223 4.56609,12.51944 c 7.90143,21.66438 15.40881,34.49915 31.41185,53.70242 25.15269,30.1826 28.61884,37.29423 28.55036,58.57789 -0.028,8.72629 -0.9675,18.42066 -2.08763,21.54303 -2.87847,8.02383 -2.58074,41.04051 0.486,53.89424 4.615,19.34302 8.2701,28.79333 15.04241,38.89236 2.94142,4.38633 3.26511,7.36135 2.89783,26.63409 -0.22741,11.93292 -0.98132,22.26406 -1.67535,22.95809 -0.69403,0.69403 -3.62074,-0.76967 -6.50378,-3.25264 z"
         id="path2997"
         inkscape:connector-curvature="0" />
      <path
         style="fill:#b3026e;fill-opacity:1;fill-rule:evenodd;stroke:none"
         d="m 1083.6227,563.59581 c -2.7557,-0.67385 -8.2791,-2.90494 -12.2743,-4.958 -26.8313,-13.78814 -40.577,-46.0509 -40.9807,-96.18626 -0.2091,-25.95797 1.2645,-33.52283 9.9296,-50.97689 11.9738,-24.1187 35.1327,-39.74069 88.1321,-59.4501 11.18,-4.1576 31.9763,-13.22128 46.2139,-20.14149 14.2376,-6.92021 31.1474,-14.7801 37.5773,-17.46642 6.4299,-2.68633 12.9984,-5.61387 14.5966,-6.50564 4.9159,-2.74293 26.6522,-5.1346 36.3416,-3.99868 12.8894,1.51108 23.1074,6.38404 30.8969,14.73474 6.6552,7.1347 9.1403,11.30252 15.8625,26.60299 2.9316,6.67271 3.9528,7.71313 5.9467,6.0584 1.8423,-1.52895 2.9606,-1.53862 4.7649,-0.0413 4.5025,3.73678 15.9365,-15.51428 19.2701,-32.44454 3.0194,-15.33452 5.1222,-20.9576 11.3441,-30.335 6.0744,-9.1552 8.4875,-10.55958 25.1991,-14.66532 22.1614,-5.44467 49.4343,-2.06238 69.0793,8.56694 29.423,15.91991 46.4685,48.6584 41.3999,79.51503 -2.4135,14.6932 -6.5415,24.54801 -14.1955,33.88869 -6.1117,7.45854 -11.0456,9.78754 -31.0435,14.65386 -14.4111,3.50683 -20.6586,6.68063 -17.8034,9.04424 3.5364,2.92754 23.3119,5.75995 32.1076,4.59871 28.5435,-3.76833 50.1087,-29.77 54.0628,-65.18467 l 1.1188,-10.02062 10.8556,-1.16431 c 5.9707,-0.64039 18.2892,-1.6579 27.3746,-2.26114 10.541,-0.69991 15.6782,-1.62915 14.1958,-2.56785 -1.2776,-0.80906 -4.6076,-1.48253 -7.3999,-1.4966 -6.7698,-0.0341 -22.5121,-4.21956 -32.188,-8.55801 -26.7061,-11.97428 -48.037,-40.08805 -54.8602,-72.30465 -3.2349,-15.27385 -5.3241,-42.50501 -3.6323,-47.34332 1.5355,-4.39122 9.7472,-5.44647 9.7472,-1.25258 0,3.14265 3.3945,3.21981 7.5627,0.17193 3.1319,-2.29007 3.1332,-2.56044 0.07,-14.61341 -1.7165,-6.75409 -4.225,-14.5348 -5.5744,-17.29047 -2.4333,-4.96912 -14.9686,-20.24961 -24.6103,-29.99986 -2.7587,-2.78977 -7.8536,-8.55852 -11.322,-12.81943 -5.6501,-6.94093 -6.1056,-8.18766 -4.3775,-11.98044 2.3095,-5.06861 0.6474,-15.9743 -2.6259,-17.23039 -1.2544,-0.48134 -10.4194,1.7422 -20.3666,4.94122 -33.5079,10.77608 -47.3939,13.90962 -75.3985,17.01453 -18.7363,2.07733 -25.7811,2.1742 -39.7794,0.54703 l -17.0108,-1.97736 -0.8242,-5.14456 c -0.4533,-2.82949 -2.1105,-11.15691 -3.6826,-18.50537 -4.4242,-20.679726 -5.1029,-45.749474 -1.5024,-55.497098 6.9294,-18.759725 22.0811,-29.51864 49.0802,-34.850832 30.0124,-5.9273133 102.3128,0.912228 120.6039,11.409001 12.1988,7.000521 27.3862,19.965622 53.9743,46.076468 54.9085,53.922951 55.2245,54.150421 111.8969,80.539981 29.48,13.72743 52.2946,33.59957 63.5404,55.3456 11.4534,22.1473 25.8529,77.59361 28.471,109.62887 2.9634,36.26223 -13.196,61.58345 -47.4919,74.41798 -18.9988,7.10989 -33.7983,9.95296 -74.2399,14.26194 -7.1606,0.76295 -13.4939,1.86177 -14.074,2.44181 -1.4315,1.43158 3.8267,5.43134 12.8975,9.81067 6.629,3.20045 10.5687,3.65874 33.402,3.88548 14.2376,0.14146 27.6389,0.35329 29.7806,0.47092 l 3.8939,0.21385 -3.7266,6.26289 c -11.1968,18.81697 -48.7321,58.70467 -75.0407,79.74365 -6.8891,5.50927 -12.9015,10.45488 -13.3608,10.99023 -2.4157,2.81584 -27.1292,18.25496 -35.0722,21.91038 -5.052,2.32502 -15.9494,5.96913 -24.2165,8.09805 -19.6665,5.0645 -50.7078,5.49198 -63.4639,0.874 -7.8887,-2.8559 -19.1108,-10.36104 -23.8591,-15.95647 -4.2674,-5.02885 -10.0079,-19.46657 -12.1645,-30.5946 -1.9446,-10.03452 -1.8524,-13.06021 0.7892,-25.8866 3.0722,-14.91736 8.7393,-25.37967 13.7472,-25.37967 1.4077,0 2.251,-0.93943 1.874,-2.08763 -1.0423,-3.17485 -17.9774,-6.2876 -43.0156,-7.90655 -28.7686,-1.86013 -35.7491,-4.88333 -46.3361,-20.06768 -2.882,-4.1335 -7.0753,-9.74916 -9.3184,-12.47922 l -4.0784,-4.96377 -2.0209,9.97407 c -3.147,15.53171 -6.6951,25.5427 -14.2695,40.2616 -8.1945,15.92365 -7.7869,15.38455 -25.018,33.09117 -15.7996,16.23569 -21.5007,20.72292 -42.5876,33.52027 -32.5341,19.74446 -70.2757,35.15275 -100.2062,40.90993 -9.0386,1.73859 -35.5972,1.78701 -42.5876,0.0777 l 0,-2e-5 z"
         id="path2999"
         inkscape:connector-curvature="0" />
      <path
         style="fill:#b3026e;fill-opacity:1;fill-rule:evenodd;stroke:none"
         d="m 851.23796,1498.8022 c -4.725,-2.71 -10.86742,-7.689 -13.64981,-11.0645 -9.83084,-11.9266 -22.54385,-42.19 -26.94455,-64.1418 -2.98101,-14.87 -3.12847,-14.9095 -17.0004,-4.553 -21.5272,16.0718 -36.00497,21.3019 -50.39961,18.2068 -4.76985,-1.0256 -11.60583,-2.4615 -15.19106,-3.1909 -5.82933,-1.1859 -7.04582,-2.3655 -11.50468,-11.1557 -7.60564,-14.9937 -14.1915,-34.9414 -18.24295,-55.2557 -5.27148,-26.4315 -5.19854,-77.7162 0.15311,-107.6593 6.80872,-38.0956 13.92757,-60.5641 29.56364,-93.3088 l 10.63286,-22.267 -12.27712,1.1504 c -6.75242,0.6328 -14.66744,0.6255 -17.58893,-0.017 -6.09541,-1.3382 -6.07284,-2.0889 0.70374,-23.4037 7.96369,-25.0488 16.88561,-41.6273 29.96864,-55.6871 14.34649,-15.4176 24.04784,-35.5014 27.55514,-57.0449 4.47963,-27.51593 10.22066,-43.25935 19.37529,-53.13222 2.27058,-2.44871 4.12832,-5.02354 4.12832,-5.72184 0,-2.44824 6.77276,-1.23299 14.85322,2.66515 4.48604,2.16414 17.44653,10.3298 28.80109,18.14592 11.35456,7.81611 24.40239,16.08741 28.99517,18.38066 10.36491,5.17535 25.77622,10.30883 27.06858,9.01644 1.03779,-1.03779 -11.35097,-15.51838 -27.62674,-32.29144 -5.53458,-5.70369 -13.89271,-15.09802 -18.57363,-20.87629 -4.68091,-5.77828 -9.35326,-11.53173 -10.383,-12.78544 -3.798,-4.62411 -15.82491,-29.73527 -18.50557,-38.63804 -2.67934,-8.89839 -6.21966,-27.99677 -6.24537,-33.6909 -0.0115,-2.56173 0.99394,-2.51662 12.09563,0.54272 6.65953,1.8352 15.86598,5.68653 20.45876,8.55852 12.39532,7.75112 25.99602,14.57 29.04463,14.56187 1.65417,-0.004 5.141,-4.78674 9.06948,-12.43917 13.48269,-26.26344 25.89764,-31.11173 64.19769,-25.07051 34.07854,5.37535 41.34596,9.68914 46.77512,27.7648 3.08489,10.27079 5.1154,13.74978 11.95945,20.49095 l 8.2437,8.11976 6.3756,-3.00008 c 3.5066,-1.65004 11.7679,-8.39128 18.3586,-14.98055 9.2529,-9.25094 13.9578,-12.61824 20.6505,-14.77977 14.4899,-4.67971 47.0728,-3.50901 84.4515,3.03433 4.9772,0.87129 5.2658,1.3784 7.098,12.47241 1.0504,6.3603 1.9847,15.17715 2.0762,19.593 0.3694,17.81223 -1.3576,18.08028 33.9485,-5.26926 17.3854,-11.49776 31.901,-20.61383 32.2569,-20.25795 0.6758,0.67583 -8.0092,18.71038 -14.5472,30.20746 -7.5463,13.27007 -14.337,21.88 -28.3596,35.95697 -17.0306,17.09664 -22.1253,21.25008 -45.5173,37.10769 l -17.877,12.11894 5.3512,1.43605 c 8.5816,2.30295 31.3666,0.2371 40.1275,-3.63824 4.2795,-1.89305 11.2311,-7.05703 15.4479,-11.47553 9.8006,-10.2695 28.6232,-35.76518 42.2558,-57.2368 5.8547,-9.22124 11.1155,-16.76075 11.6907,-16.75448 1.8719,0.0204 15.1739,21.21278 22.2121,35.38742 4.9763,10.02213 13.631,34.88067 15.5856,44.76612 1.5931,8.05663 5.7554,21.94483 7.6264,25.44643 0.8523,1.595 1.5557,3.8496 1.5633,5.0103 0.024,3.6766 16.2808,35.9707 24.4195,48.5091 30.1806,46.4954 38.7546,65.3925 43.3577,95.5599 1.2614,8.2671 2.307,20.69 2.3234,27.6066 0.029,12.0652 -4.1037,51.6505 -5.9111,56.6237 -0.6072,1.6707 -4.3872,-1.0944 -12.4956,-9.1407 -12.3103,-12.2159 -13.3361,-12.0354 -9.8583,1.7352 8.4881,33.6103 12.2448,82.7863 8.3558,109.3827 -2.8684,19.6176 -10.7029,43.6272 -17.1693,52.6173 -7.1797,9.9818 -18.3832,23.2076 -25.0917,29.6208 -7.8972,7.5496 -23.9985,16.7255 -33.0642,18.843 -4.1272,0.9639 -4.3102,0.6329 -6.6595,-12.0456 -3.5122,-18.9549 -3.223,-52.25 0.563,-64.81 1.6614,-5.5113 3.6084,-11.1479 4.3267,-12.5257 0.7184,-1.3779 3.4276,-9.1894 6.0205,-17.3589 4.6066,-14.5147 4.6413,-14.9072 1.5186,-17.1929 -1.7576,-1.2865 -5.826,-2.1178 -9.041,-1.8473 -4.6065,0.3876 -5.9585,1.2882 -6.379,4.2496 -0.8901,6.267 -3.3841,4.3468 -11.9308,-9.1856 -8.0339,-12.7203 -29.5294,-46.0949 -38.7777,-60.2074 -2.5884,-3.9499 -4.7063,-7.5891 -4.7063,-8.0871 0,-0.498 -1.5031,-2.8163 -3.3402,-5.1518 -4.1375,-5.2601 -4.148,-4.5412 -0.1086,7.4706 4.9579,14.7431 12.7984,41.7036 15.9083,54.7025 1.5383,6.4299 3.458,14.3211 4.2659,17.5361 9.381,37.3285 11.8512,94.899 5.1589,120.2358 -7.6098,28.8108 -20.4962,43.9799 -44.0233,51.8218 -10.0315,3.3436 -13.4595,3.6556 -30.8969,2.8116 -12.683,-0.6139 -24.6072,-2.3177 -33.7458,-4.8216 -16.4316,-4.5024 -14.7608,-1.4043 -20.1023,-37.2744 -5.4237,-36.4223 -4.2201,-59.4462 5.6752,-108.5567 5.2921,-26.2645 8.0775,-40.3473 8.9189,-45.0928 l 0.8884,-5.0103 -3.8938,3.3402 c -9.3338,8.007 -16.5548,17.1273 -21.6858,27.3901 -7.586,15.173 -16.6132,30.2285 -18.1249,30.2285 -1.4814,0 -8.9757,-16.0048 -12.5125,-26.7217 -8.2787,-25.0853 -13.2001,-64.0671 -13.3889,-106.0515 -0.1336,-29.7313 0.099,-32.2524 3.686,-39.9864 2.1402,-4.614 9.5863,-14.2516 16.8833,-21.8523 9.2059,-9.5892 14.9221,-17.3768 19.3897,-26.4165 3.4845,-7.0503 5.8851,-13.269 5.3347,-13.8194 -0.5504,-0.5504 -9.1232,0.3964 -19.0507,2.1039 -10.6006,1.8234 -25.9766,3.0919 -37.2562,3.0736 -17.44636,-0.028 -20.04786,-0.444 -28.39176,-4.538 -5.12566,-2.5149 -15.09088,-10.1571 -22.54639,-17.2905 -12.19623,-11.6693 -28.84026,-24.4131 -34.94355,-26.7551 -2.06079,-0.7908 -2.16947,0.065 -0.69463,5.4675 0.96158,3.5227 2.29233,7.1565 2.95722,8.075 0.66488,0.9186 2.57391,5.4279 4.24229,10.0206 7.80144,21.4762 25.62391,43.9534 48.42848,61.0767 12.47414,9.3664 20.1048,19.2581 23.39004,30.3208 2.9484,9.9281 3.4302,48.3815 0.8428,67.2623 -4.13794,30.1957 -8.50523,56.2563 -13.99395,83.5052 -1.29518,6.4299 -3.54528,17.7031 -5.00022,25.0515 -3.75964,18.9887 -7.68037,36.4519 -8.32974,37.1013 -2.91223,2.9122 -10.11353,-9.5711 -19.47578,-33.7611 -3.29842,-8.5223 -10.79404,-22.4442 -15.28628,-28.3917 -5.83595,-7.7265 -21.94185,-25.8856 -22.48083,-25.3466 -0.64995,0.65 4.65034,21.7483 10.35334,41.2126 10.52302,35.9148 14.57815,62.7753 13.6153,90.1855 -0.4356,12.4005 -1.55965,24.4863 -2.49788,26.8573 -1.94981,4.9273 -16.78243,12.6662 -36.8014,19.2011 -9.45644,3.0869 -15.99869,4.041 -27.62601,4.0291 -13.80113,-0.013 -16.04398,-0.4795 -23.82619,-4.943 l 0,0 z"
         id="path3001"
         inkscape:connector-curvature="0" />
    </g>
    <g
       style="fill:#b3026e;fill-opacity:1"
       transform="matrix(0.82142019,0,0,0.82142019,-429.02872,1624.0112)"
       id="g3054">
      <g
         style="fill:#b3026e;fill-opacity:1"
         id="g3044"
         transform="translate(0,138.92118)">
        <path
           inkscape:connector-curvature="0"
           id="path3009-9"
           d="m 1274.3863,-287.99149 c -10.9508,0.33478 -21.7413,3.28617 -31.25,8.46875 -12.9044,2.96829 -23.9563,-8.49956 -37,-6.875 -18.5096,-0.38586 -36.4762,6.50373 -51.75,16.5 -24.0775,16.4437 -42.2669,39.80864 -57.3354,64.49233 -7.1157,9.85541 -11.2829,21.25821 -17.7201,31.48844 -10.5972,23.05366 -23.5532,45.58363 -28.9132,70.61298 -1.1241,12.182352 -4.6635,27.647622 5.5,37.062502 8.8654,7.33999 21.7904,2.92488 30.0312,-3.15625 5.7017,-4.96944 13.7211,-9.81257 14.5625,-17.9375 0.6824,-4.06109 -4.6161,-4.8305 -6.7812,-2.09375 -7.0396,4.97957 -12.8884,15.88495 -23.0313,13.3125 -6.9217,-1.47002 -9.9217,-9.5905 -7.0312,-15.75 2.508,-8.890462 -0.1815,-21.140602 8.5,-27.000002 18.8373,-4.84103 38.1212,-9.81661 56.875,-15.53125 1.2391,-0.82775 5.4787,-3.85759 4.0312,-0.15625 -5.2063,15.10845 -11.4494,30.34557 -11.4633,46.623372 -0.8991,11.08215 6.8024,24.70845 19.2133,23.72038 15.2141,-1.0774 27.6614,-12.33036 34.4375,-25.40625 -5.4087,-4.90016 -11.9668,0.3353 -15.7071,4.58211 -4.4285,4.81656 -11.3447,11.25708 -18.2929,6.73039 -7.3507,-4.75736 -4.3891,-15.24229 -3.25,-22.437502 2.6113,-6.38646 -0.3174,-15.81224 6.875,-19.5625 7.7926,-3.52031 16.5942,-3.61286 24.4688,-6.75 17.5504,-3.38085 33.8615,-10.72352 50.996,-15.65468 21.8504,-7.78205 43.4813,-16.83098 63.9319,-27.65886 15.4426,-8.91211 30.7282,-18.85974 43.1346,-31.68646 6.9335,-9.44231 13.9849,-20.22655 14.2812,-32.25 -1.3916,-25.3498 -23.2227,-45.90121 -47.0312,-51.65625 -6.576,-1.64782 -13.4643,-2.31638 -20.2813,-2.03125 z m 0.8438,11.09375 c 19.2907,-0.80819 39.7193,7.69077 49.5625,24.65625 6.8611,13.10082 3.7364,29.63489 -6.4688,40.0625 -10.7063,13.84056 -26.3331,22.66817 -40.8612,32.102 -19.6153,11.49891 -41.0125,19.0185 -61.8263,28.023 -20.437,8.04419 -42.1144,12.20969 -62.7187,19.6875 -2.8226,2.433 -7.4443,1.01208 -6.0625,-3.125 0.7124,-6.69708 7.5259,-8.99059 13.2955,-10.37502 16.4276,-5.76989 31.9193,-13.99718 47.892,-20.78123 7.8499,-4.51405 15.6713,-9.4698 23.375,-14.125 14.0622,-10.71652 28.7979,-22.82516 34.5312,-40.125 5.2419,-15.50471 -0.1157,-33.26333 -12.25,-43.90625 -1.8907,-1.87751 -6.8019,-6.79943 -1.5625,-7.96875 7.5253,-2.31944 15.1986,-3.93585 23.0938,-4.125 z m -71.5938,1.59375 c 7.4936,0.45515 15.9225,0.29606 22.3438,4.46875 -10.2009,8.20545 -20.899,16.94949 -28.9375,27.53125 -20.0211,21.08471 -33.7378,47.32873 -47.0237,72.77786 -3.3879,7.25662 -6.3493,14.81397 -10.8513,21.47214 -21.6765,6.9456 -43.3542,13.54581 -65.375,19.15625 2.1605,-10.58346 8.7658,-19.67419 12.4671,-29.77498 7.4524,-14.66643 15.5843,-28.899 23.9938,-43.05707 7.4083,-9.9322 14.2827,-20.08636 21.8828,-29.79295 12.5551,-14.63943 26.8582,-28.03741 44.1563,-36.96875 8.5435,-3.93124 17.9448,-5.8443 27.3437,-5.8125 z m 37.25,13.3125 c 9.0387,6.97898 16.5372,17.71036 14.2188,29.6875 -2.9228,19.02316 -19.4105,31.83112 -33.6717,42.82314 -18.9185,14.4282 -41.511,22.36685 -62.3283,33.39561 -3.5715,1.42805 0.7014,-4.96411 0.9687,-6.4375 11.9149,-21.43541 23.3695,-43.69669 38.9083,-62.85781 9.2575,-13.35634 20.9563,-24.9603 33.6542,-35.04844 2.6223,-1.37083 5.9622,-5.41327 8.25,-1.5625 z"
           style="fill:#b3026e;fill-opacity:1;fill-rule:evenodd;stroke:none" />
        <path
           inkscape:connector-curvature="0"
           id="path3011-3"
           d="m 992.16755,-193.74149 c -5.8379,0.2474 -8.471,7.39896 -14.6875,6.28125 -7.4848,0.17744 -14.9202,1.13141 -22.0625,2.96875 -27.1488,3.15742 -54.7559,15.74671 -70.1875,38.9375 -6.8777,9.69572 -5.1599,22.30914 -4.875,33.59375 1.0708,12.132702 6.3716,23.981452 14.4687,32.968752 13.5854,1.89429 3.4874,-14.22429 0.4063,-19.75 -6.9562,-14.582672 -5.0786,-33.386512 6.4062,-45.187502 11.133,-14.1516 29.0225,-19.93739 45.6875,-24.75 7.6536,-1.78385 15.3935,-3.54069 23.2813,-3.46875 -4.9321,7.68165 -11.264,14.39439 -15.8438,22.28125 -4.5741,6.29276 -8.3325,13.16179 -12.625,19.46875 -5.0291,3.76735 -14.9577,2.16866 -16.5937,9.6875 -0.56,5.03377 5.998,7.19881 6.375,11.625 -4.6513,7.7289 -6.8733,17.203812 -8.5313,26.187502 -1.8312,10.67037 -0.023,23.68667 10.125,29.625 13.8298,9.35241 31.714,5.47942 46.7188,1.5 12.4659,-4.48568 24.45535,-10.76228 34.81255,-18.9375 3.8717,-3.83026 -0.871,-10.07023 -5.6563,-8.03125 -10.63595,5.57072 -21.30925,10.35431 -32.90625,13.46875 -10.9718,3.12865 -22.9513,7.64882 -34.375,4 -8.3024,-2.89377 -6.5658,-13.14759 -5.6875,-20 2.4141,-11.25695 7.3744,-21.737042 12.1875,-32.093752 22.2541,-4.81659 45.377,-4.7756 67.87505,-7.9375 5.1169,-0.65287 7.0624,-6.71699 4,-10.65625 -20.50435,0.33956 -41.66595,0.55665 -61.75005,1.65625 1.7661,-5.82624 7.9785,-8.92578 9.9687,-14.6875 6.0972,-9.18101 13.3869,-17.3927 20.4688,-25.8125 5.4884,-4.54163 13.42285,-1.5171 19.93665,-2.17797 12.5466,0.0787 25.1628,2.29261 37.5946,2.33422 6.7195,-1.77735 4.2033,-11.31478 -1.0312,-13.5 -10.4377,-3.52655 -22.0739,-2.97716 -33.0613,-3.89453 -4.6514,-0.46722 -10.0106,-0.0749 -14.25125,-1.23047 -0.9044,-2.57732 -3.3035,-4.79233 -6.1875,-4.46875 z"
           style="fill:#b3026e;fill-opacity:1;fill-rule:evenodd;stroke:none" />
        <path
           inkscape:connector-curvature="0"
           id="path3017-0"
           d="m 1268.4488,-137.36649 c -3.7621,1.02832 -7.0658,4.50545 -11.1875,1.96875 -7.9999,-2.77255 -15.8997,0.4308 -22.5194,4.94238 -16.4905,9.63464 -29.5796,24.32991 -40.1056,40.182622 -3.4219,6.61759 -8.2378,15.32195 -4.25,22.625 4.7682,6.015 13.6577,3.60742 18.5,-1 10.659,-7.09371 20.2837,-16.67084 29.75,-24.59375 -7.1348,16.12311 -11.8906,33.2142 -14.625,50.6875 -1.7012,7.04251 1.2718,15.25532 6.6875,19.9375 5.468,3.61671 11.534,5.93311 18.2188,4.96875 13.4867,0.10809 24.59,-8.88615 34.1875,-17.28125 3.2861,-3.94134 8.0239,-8.02819 8.375,-13.40625 -2.9854,-4.30472 -8.3786,0.86548 -11.5625,2.59375 -11.0008,7.9071 -22.289,17.70901 -36.5625,17.3125 -6.1862,1.0287 -10.7137,-5.63597 -8.75,-11.28125 2.9174,-16.89579 8.5402,-33.3401 15.4062,-49.03125 6.3785,-13.204982 14.5126,-25.676142 22.25,-38.187502 2.1044,-3.61022 1.781,-10.8122 -3.8125,-10.4375 z m -22.7187,14.6875 c 2.6005,-0.3214 4.2702,0.44543 1.5625,2.375 -9.8448,14.66893 -22.4971,27.263152 -36.5938,37.781252 -0.2238,1.5568 -4.7408,3.7849 -3.4062,0.75 6.6846,-13.46509 15.1494,-26.709662 27.0625,-35.875002 3.4084,-2.58374 6.4661,-5.47234 11.375,-5.03125 z"
           style="fill:#b3026e;fill-opacity:1;fill-rule:evenodd;stroke:none" />
      </g>
      <g
         style="fill:#b3026e;fill-opacity:1"
         id="g3049"
         transform="translate(2,-83.04287)">
        <path
           inkscape:connector-curvature="0"
           id="path3021-7"
           d="m 1386.4801,21.414762 c -8.6804,-0.36018 -16.9193,2.25643 -24.5313,6 -5.2031,2.28687 -9.7194,6.61333 -13.3437,10.96875 -4.6562,6.47255 -6.8223,14.32116 -9.1332,21.76764 -2.4553,17.067341 1.4775,34.729431 9.5082,49.732358 1.7503,3.11348 3.063,6.31214 6.1875,8.4375 4.84,6.46281 11.2923,11.67088 18.375,15.53125 14.469,4.84271 31.0725,-0.5089 41.25,-11.3125 4.0534,-5.03581 9.1841,-12.75987 5.3437,-19.21875 -4.1607,-4.309867 -9.5073,1.33743 -9.75,5.90625 -4.4748,7.57151 -11.9632,15.02963 -21.5312,14.875 -14.0486,2.07908 -25.9785,-8.68339 -31.125,-20.96875 -3.8076,-8.026097 -7.1061,-16.392467 -6.5734,-25.499937 -0.169,-10.34945 -1.024,-21.656071 5.8859,-30.250061 9.6174,-14.35572 29.0178,-13.51363 44.3437,-12.3125 12.9555,0.81963 25.5174,5.21783 38.1563,7.90625 6.0367,2.57863 12.6652,3.88473 18.4687,6.8125 5.1294,0.0147 0.428,2.84634 -1.4687,4.78125 -3.077,3.49195 -9.5829,4.24396 -9.5938,9.96875 -0.5026,3.048501 4.7917,3.348241 2.2813,6.312501 -4.8869,6.18671 -5.8947,14.61586 -11.4688,20.15625 -2.9438,1.00718 -5.0474,2.90695 -7.8437,4.34375 -3.8768,2.02671 -5.6094,9.124437 -0.125,10.218747 2.518,0.20507 4.7572,-0.46389 2.8828,3.03991 -2.6031,11.57874 -6.2218,22.95556 -6.9508,34.9397 -0.4398,6.84636 -3.0976,16.71873 3.5367,21.36414 5.516,1.53014 10.5436,-6.05654 9.0938,-11.03125 -3.33,-4.62852 -0.7,-11.26159 -0.6417,-16.58395 1.3545,-10.06236 4.7873,-19.81898 8.2667,-29.10355 1.1985,-2.78853 1.2362,-6.0228 5.4653,-4.69517 12.9593,-1.2054 26.6352,0.42929 39.0034,-3.804827 4.3107,-1.7155 2.7956,-8.65745 -2.0312,-7.9375 -11.8194,-0.91365 -23.6984,-0.12386 -35.5313,-0.8125 3.7574,-8.60207 8.0101,-17.02575 14.071,-24.21958 2.8065,-3.715641 5.7792,-8.763291 8.6478,-11.686671 15.503,2.23587 33.2712,7.53795 47.6562,-1.21875 3.9859,-4.7139 7.9543,-11.09033 5.2188,-17.40625 -1.1758,-7.31817 -7.7911,-13.58007 -15.1563,-14.03125 -5.0055,0.34985 -3.6385,6.86044 -0.4687,8.90625 3.3199,2.78655 8.837,9.07975 4.3125,13.03125 -9.6934,2.64468 -20.5951,0.99146 -30.5938,-0.4375 -11.1949,-3.20722 -22.5041,-6.04001 -33.4558,-10.04409 -8.5978,-3.78889 -17.8522,-5.33442 -26.8254,-8.17466 -12.6079,-3.87923 -26.5662,-4.27155 -39.8125,-4.25 z"
           style="fill:#b3026e;fill-opacity:1;fill-rule:evenodd;stroke:none" />
        <path
           inkscape:connector-curvature="0"
           id="path3023-7"
           d="m 1517.6676,72.414763 c -7.5187,1.56132 -15.5874,9.47671 -13.625,17.625 2.4519,6.16048 10.755,5.05756 14.5937,0.90625 4.4844,-3.55492 10.517,-10.7874 5.5625,-16.34375 -1.7536,-1.56454 -4.1609,-2.47099 -6.5312,-2.1875 z"
           style="fill:#b3026e;fill-opacity:1;fill-rule:evenodd;stroke:none" />
        <path
           inkscape:connector-curvature="0"
           id="path3025-8"
           d="m 1637.4801,-8.0227375 c -6.9437,3.93397 -15.8627,5.30486 -21.5625,11.5625 -3.6039,4.282 -7.2669,8.3419495 -10.9375,12.2187495 -5.6921,8.73935 -12.812,16.18557 -18.8438,24.625 -4.367,4.63719 -6.8348,10.70277 -10.5625,15.625 -3.2193,3.46487 -9.2143,1.71232 -13.375,3.625 -4.0337,0.30588 -9.3314,4.00421 -6.2812,8.375001 1.1407,3.49133 6.2049,3.79271 7,7.125 -0.1777,5.69764 -5.789,9.17587 -7.625,14.375 -6.7736,12.388747 -13.4575,24.779837 -19.3438,37.374997 -7.4011,4.24529 -12.9666,11.33859 -20.4375,15.65625 -6.4967,4.0392 -13.2469,8.6909 -20.9687,9.5 0.055,-3.47482 3.1232,-6.13722 3.6379,-9.74672 5.1601,-13.77671 13.9656,-26.11522 17.4558,-40.44078 1.2513,-7.350747 -9.8229,-10.691527 -13.5,-4.531247 -3.4839,4.393327 -3.9303,10.358047 -7.4375,14.593747 -2.6797,10.21069 -8.681,19.43295 -11.3437,29.59375 -0.9614,6.25071 -2.6824,14.34961 3.625,18.4375 4.1286,3.85218 10.5202,7.3678 15.8125,3.5625 9.0349,-4.43929 16.9977,-11.00802 25.125,-16.9375 -5.1514,11.55127 -9.1029,23.6643 -12.9063,35.71875 -4.9296,16.36138 -7.434,33.65511 -5.125,50.65625 1.747,13.45009 13.2274,24.85671 26.3125,27.4375 9.132,-0.20416 19.2417,1.16294 27.375,-3.71875 21.742,-9.56859 39.5634,-26.82998 54.5625,-44.6875 6.918,-8.2809 10.4528,-18.72387 16.75,-27.4375 5.2258,-5.61778 11.6523,-10.694 15.0625,-17.53125 3.3371,-3.23585 5.3061,-8.02852 7.0312,-12.34375 1.0317,-5.58622 9.0429,-5.22048 11.2188,-10.34375 2.571,-3.49519 -1.4548,-7.80534 -5.25,-6.09375 -4.1055,1.41892 -8.26,2.9515 -12.5938,1.84375 -3.5609,-0.21447 -6.6943,2.3822 -7.625,5.46875 -3.7657,3.51886 -10.7402,2.12176 -11.8124,-3.21875 -0.6511,-6.84365 1.4146,-13.83826 4.9687,-19.5625 1.8069,-3.92866 3.9591,-9.79696 9.1824,-8.94436 14.2747,-1.323 28.6461,-1.50805 42.9113,-2.83689 -6.4114,8.36141 -1.6262,19.57415 4.3125,26.71875 1.256,2.99524 -5.1124,4.71548 -6.6708,7.10358 -5.0281,4.83533 -12.8446,8.49653 -14.7354,15.67767 0.7086,5.7889 8.6341,4.70846 12.9062,4.65625 8.935,-1.42517 18.2155,-3.28029 25.5625,-8.6875 6.3456,-2.46007 11.6051,-9.95805 7.6563,-16.53125 -1.8131,-1.54987 -0.6143,-1.73819 1.0625,-2.5 3.9004,-3.91655 9.7272,-5.38556 14.3125,-8.40625 3.7948,-1.34317 8.494,-4.58119 12.125,-4.21875 1.5968,4.81118 5.0059,8.3604 7.8437,12.4375 -7.156,6.4593 -16.7005,11.00997 -21.8125,19.375 -1.7316,4.99922 4.6041,7.257 8.5306,6.27681 12.9423,0.0473 26.2899,-3.77697 35.5632,-13.02681 3.8189,-3.80493 2.0138,-9.69692 0.25,-13.625 6.8285,-3.74867 13.5208,-7.91378 20.9375,-10.34375 1.0099,-1.94397 4.1391,-1.30917 5.4687,-3.1875 6.7897,-1.62285 13.1896,-4.80247 20.0938,-6.375 4.8262,-1.41563 2.8176,-11.12164 -2.3125,-7.59375 -10.5762,2.93223 -21.5563,5.00927 -31.7325,9.3085 -5.7812,2.18423 -11.2915,5.54355 -17.08,7.5665 -0.8424,2.27237 -4.1403,3.64295 -5.0625,0.40625 -1.3408,-2.34361 -3.6896,-4.97859 -4.1875,-7.375 3.8672,0.38937 5.8272,-7.08214 1.6562,-8.03125 5.8654,-8.37735 15.0854,-13.910537 23.6566,-19.078277 8.5554,-5.45236 18.9653,-2.39707 28.4684,-2.23422 2.8324,-3.40144 10.9177,-7.99692 7,-13.28125 -6.2789,-5.65399 -15.5792,-1.28554 -22.875,-0.59375 -12.3336,4.24693 -24.0639,10.54765 -35.1562,17.46875 -7.4452,5.69582 -15.5415,11.928497 -19,20.781247 -5.3706,3.5233 -12.4919,3.58877 -17.625,7.1875 -6.7861,1.9551 -13.0108,6.80087 -19.5,8.375 -4.3634,-4.34095 -8.7769,-11.81968 -3.8125,-17.34375 7.1083,-9.08998 17.4895,-15.332337 27.4062,-20.624997 6.6419,-3.24185 13.6012,-1.4518 20.4375,-0.28125 5.417,-0.0528 11.3942,-4.86014 11.5313,-10.4375 -0.2694,-6.6421 -8.5895,-5.76378 -13.2475,-5.46 -6.0158,0.25623 -11.2233,3.47383 -17.0361,4.89549 -4.8147,2.52825 -10.8239,3.37755 -14.9664,6.97076 -4.7415,2.51536 -9.9041,6.85544 -15.8125,6.59375 -3.1492,0.27048 -4.8634,3.05571 -7.8125,3.6875 -3.0225,4.021477 -9.639,2.51692 -14.0938,3.656247 -3.1247,0.4369 -6.3326,0.61806 -2.3437,-1.156247 7.527,-7.3659 6.881,-23.31099 -4.25,-26.75 -5.7208,-1.4273 -11.7844,0.58919 -16.125,4.1875 -8.6772,6.50082 -16.4223,14.71379 -23.5312,22.999997 -7.0528,10.49882 -13.3469,21.7388 -15.0938,34.46875 -3.1359,13.90027 11.3647,26.78114 24.875,23.4375 1.5486,-0.24543 -1.16,3.867 -2.1562,4.84375 -2.4223,2.22185 -5.2505,6.57776 -8.0313,7.21875 -2.0104,-7.34236 -7.7142,-13.45583 -13.875,-17.625 -4.3729,-1.3961 -9.8643,-1.06958 -13.1562,1.9375 -3.2918,2.14418 -9.2351,6.13927 -6.75,10.65625 5.0915,4.78499 11.6198,-1.74857 17.2187,-0.75 4.7144,3.14308 3.5723,10.45227 2.8438,15.3125 -3.0121,7.04559 -13.2261,10.03863 -19.8438,6.9375 -6.3431,-3.9903 -3.3775,-13.02618 -2.9375,-19.09375 3.0437,-16.66841 11.3342,-31.56811 19.3438,-46.28125 3.3763,-6.02234 7.5148,-11.46501 10.75,-17.625 3.7355,-5.380897 -5.3347,-10.141987 -9.625,-7.437497 -14.956,6.559107 -26.9908,19.463487 -38.8438,29.406247 3.7227,-8.12058 9.9022,-14.75556 14.0938,-22.625 2.3315,-3.336157 -0.518,-8.046587 -4.6563,-6.749997 -8.6407,1.79396 -10.4391,12.357477 -16.6875,17.374997 -6.1679,12.8764 -16.3884,23.95266 -19.75,38.15625 0.1206,5.31866 6.6625,5.9608 10.4688,4.0625 9.077,-3.06393 13.1262,-12.97348 20.25,-18.78125 7.2919,-7.34968 15.246,-15.46952 22.7187,-21.59375 -6.8918,12.67637 -13.9005,25.29161 -19.2187,38.65625 -4.5666,9.77754 -5.9908,21.00992 -4.5625,31.75 1.1339,9.44153 10.0138,15.79512 19.3437,14.59375 3.4205,-0.26294 6.8415,-0.91241 10.1875,-1.71875 -12.366,17.56622 -27.2465,34.60164 -46.1562,45.09375 -2.9601,1.26391 -5.9865,1.98608 -8.4375,3.78125 -8.3558,2.26818 -18.8763,5.56279 -25.75,-1.59375 -4.7063,-3.67059 -5.4136,-9.73699 -6.1875,-15.21875 -2.6169,-5.45452 -0.9712,-12.46605 -1.2188,-18.46875 1.2653,-5.59001 2.5333,-11.21995 3.0313,-17.03125 2.2083,-10.3086 5.8252,-20.37042 9.0937,-30.40625 6.1083,-15.9752 12.641,-31.26184 20.1434,-46.54629 3.669,-7.81515 8.6019,-14.55426 12.2941,-22.266207 3.8146,-7.37449 9.0512,-14.07222 13,-21.21875 1.2778,-2.68446 6.5052,-1.45169 9.0938,-2.375 16.1969,-2.3359 32.9555,-1.70073 48.875,-5.28125 3.9209,-1.274061 5.5607,-8.903151 0.2812,-9.218751 -15.9188,-1.31412 -32.1697,0.0314 -48,-0.84375 11.0774,-15.85512 22.9047,-31.68819 36.8438,-45.1875 4.7217,-5.5329895 12.158,-7.1484395 17.0937,-12.1562495 2.4481,-4.376 -3.3752,-8.42956 -7.4062,-7.78125 z m 33.5624,93.5625005 c -0.9517,6.85248 -8.3294,10.32759 -13.75,13.375 -2.4943,0.84379 -7.8919,2.957797 -2.9062,-0.75 5.0766,-4.3832 10.0398,-10.06137 16.3125,-12.59375 0.106,0.0373 0.3658,-0.18843 0.3437,-0.0312 z m 89.0938,60.562497 c 1.8063,2.68375 -3.5146,3.27012 -5.25,4.09375 -0.6453,0.15006 3.703,-3.31968 5.25,-4.09375 z m -58.5,2.15625 c 1.1406,1.9934 -4.029,2.41446 -5.102,3.57761 -4.1403,2.18297 0.4193,-1.15841 2.102,-1.82761 1.2598,0.0405 2.2952,-1.67121 3,-1.75 z"
           style="fill:#b3026e;fill-opacity:1;fill-rule:evenodd;stroke:none" />
      </g>
    </g>
  </g>
</svg>
