<?xml version="1.0"?>
<svg xmlns:rdf="http://www.w3.org/1999/02/22-rdf-syntax-ns#" xmlns="http://www.w3.org/2000/svg" xmlns:cc="http://creativecommons.org/ns#" xmlns:xlink="http://www.w3.org/1999/xlink" xmlns:dc="http://purl.org/dc/elements/1.1/" xmlns:svg="http://www.w3.org/2000/svg" id="svg645" space="preserve" viewBox="0 0 527.67 323.91" version="1.0">
  <defs id="defs647">
    <linearGradient id="linearGradient715">
      <stop id="stop716" stop-color="#0052ff" offset="0"/>
      <stop id="stop717" stop-color="#dddfdf" offset="1"/>
    </linearGradient>
    <linearGradient id="linearGradient699">
      <stop id="stop700" offset="0"/>
      <stop id="stop701" stop-color="#dddfdf" offset="1"/>
    </linearGradient>
    <linearGradient id="linearGradient702" y2="964.77" xlink:href="#linearGradient699" gradientUnits="userSpaceOnUse" y1="1014.2" gradientTransform="scale(1.7768 .56279)" x2="142.78" x1="143.55"/>
    <radialGradient id="radialGradient703" xlink:href="#linearGradient699" gradientUnits="userSpaceOnUse" cy="718.33" cx="221.24" gradientTransform="scale(1.3235 .75560)" r="91.94"/>
    <linearGradient id="linearGradient706" y2="683.86" xlink:href="#linearGradient699" gradientUnits="userSpaceOnUse" y1="708.74" gradientTransform="scale(1.103 .90666)" x2="442.98" x1="420.81"/>
    <linearGradient id="linearGradient708" y2="651.17" xlink:href="#linearGradient699" gradientUnits="userSpaceOnUse" x2="338.85" gradientTransform="scale(.85635 1.1678)" y1="651.17" x1="321.78"/>
    <linearGradient id="linearGradient710" y2="995.45" xlink:href="#linearGradient699" gradientUnits="userSpaceOnUse" x2="215.86" gradientTransform="scale(1.5156 .65981)" y1="995.45" x1="195.61"/>
    <linearGradient id="linearGradient714" y2="432.2" xlink:href="#linearGradient715" gradientUnits="userSpaceOnUse" y1="445.25" gradientTransform="scale(.72708 1.3754)" x2="673.07" x1="642.17"/>
    <linearGradient id="linearGradient718" y2="393.65" xlink:href="#linearGradient715" gradientUnits="userSpaceOnUse" y1="393.08" gradientTransform="scale(.47733 2.095)" x2="649.57" x1="582.6"/>
    <linearGradient id="linearGradient719" y2="80.273" xlink:href="#linearGradient715" gradientUnits="userSpaceOnUse" y1="81.159" gradientTransform="scale(.41169 2.429)" x2="1738.1" x1="1861.5"/>
    <linearGradient id="linearGradient720" y2="856.08" xlink:href="#linearGradient715" gradientUnits="userSpaceOnUse" y1="887.78" gradientTransform="scale(1.3677 .73114)" x2="262.31" x1="237.76"/>
    <linearGradient id="linearGradient721" y2="328.92" xlink:href="#linearGradient715" gradientUnits="userSpaceOnUse" y1="329.52" gradientTransform="scale(.48680 2.0542)" x2="208.94" x1="157.66"/>
    <linearGradient id="linearGradient726" y2="297.51" xlink:href="#linearGradient699" gradientUnits="userSpaceOnUse" y1="297.51" gradientTransform="scale(.50452 1.9821)" x2="203.89" x1="180.71"/>
    <linearGradient id="linearGradient727" y2="1243.3" xlink:href="#linearGradient699" gradientUnits="userSpaceOnUse" y1="1270.4" gradientTransform="scale(2.0446 .48910)" x2="174.53" x1="186.98"/>
    <linearGradient id="linearGradient735" y2="880.96" xlink:href="#linearGradient699" gradientUnits="userSpaceOnUse" y1="880.96" gradientTransform="scale(1.4005 .71401)" x2="78.472" x1="63.265"/>
    <linearGradient id="linearGradient757" y2="356.6" xlink:href="#linearGradient699" gradientUnits="userSpaceOnUse" y1="367.26" gradientTransform="scale(.769 1.3004)" x2="119.99" x1="136.08"/>
    <linearGradient id="linearGradient764" y2="986.05" xlink:href="#linearGradient699" gradientUnits="userSpaceOnUse" y1="996.65" gradientTransform="scale(1.3351 .74898)" x2="-165.38" x1="-166.42"/>
    <linearGradient id="linearGradient774" y2="829.95" xlink:href="#linearGradient699" spreadMethod="reflect" gradientUnits="userSpaceOnUse" y1="816.22" gradientTransform="matrix(1.2624 0 0 .79212 -197.15 -496.4)" x2="382.35" x1="388.66"/>
    <radialGradient id="radialGradient775" xlink:href="#linearGradient699" gradientUnits="userSpaceOnUse" cy="750.57" cx="187.37" r="30.735"/>
    <radialGradient id="radialGradient776" xlink:href="#linearGradient699" gradientUnits="userSpaceOnUse" cy="750.57" cx="188.4" r="38.998"/>
    <radialGradient id="radialGradient778" xlink:href="#linearGradient699" gradientUnits="userSpaceOnUse" cy="750.91" cx="186.72" r="50.318"/>
    <radialGradient id="radialGradient781" xlink:href="#linearGradient699" gradientUnits="userSpaceOnUse" cy="375.56" cx="129.01" r="250.81"/>
    <radialGradient id="radialGradient804" xlink:href="#linearGradient699" gradientUnits="userSpaceOnUse" cy="760.24" cx="319.66" gradientTransform="scale(1.0127 .98742)" r="38.659"/>
    <radialGradient id="radialGradient835" xlink:href="#linearGradient699" spreadMethod="reflect" gradientUnits="userSpaceOnUse" cy="895.09" cx="436.68" r="17.401"/>
    <radialGradient id="radialGradient837" xlink:href="#linearGradient699" spreadMethod="reflect" gradientUnits="userSpaceOnUse" cy="784.64" cx="471.81" gradientTransform="scale(.98369 1.0166)" r="56.131"/>
    <radialGradient id="radialGradient846" xlink:href="#linearGradient699" gradientUnits="userSpaceOnUse" cy="812.36" cx="328.06" gradientTransform="scale(1.0142 .98601)" r="7.214"/>
    <linearGradient id="linearGradient856" y2="369.67" xlink:href="#linearGradient699" spreadMethod="reflect" gradientUnits="userSpaceOnUse" y1="361.59" gradientTransform="scale(.48657 2.0552)" x2="675.69" x1="696.61"/>
    <radialGradient id="radialGradient868" xlink:href="#linearGradient699" spreadMethod="reflect" gradientUnits="userSpaceOnUse" cy="745.49" cx="190.82" gradientTransform="translate(-87.339 -526.93)" r="16.153"/>
    <linearGradient id="linearGradient870" y2="1499.6" xlink:href="#linearGradient699" gradientUnits="userSpaceOnUse" y1="1503" gradientTransform="scale(2.0248 .49387)" x2="-30.014" x1="-46.762"/>
    <linearGradient id="linearGradient871" y2="612.31" xlink:href="#linearGradient699" gradientUnits="userSpaceOnUse" y1="565.48" gradientTransform="scale(2.0248 .49387)" x2="-383.98" x1="-385.69"/>
    <linearGradient id="linearGradient880" y2="1893.2" xlink:href="#linearGradient715" gradientUnits="userSpaceOnUse" y1="2047.2" gradientTransform="scale(2.7651 .36165)" x2="43.948" x1="44.49"/>
    <linearGradient id="linearGradient955" y2="1621.9" xlink:href="#linearGradient699" gradientUnits="userSpaceOnUse" y1="1669" gradientTransform="scale(2.4138 .41428)" x2="137.3" x1="120.41"/>
    <linearGradient id="linearGradient956" y2="551.32" xlink:href="#linearGradient699" gradientUnits="userSpaceOnUse" y1="568.81" gradientTransform="scale(.80943 1.2354)" x2="374.22" x1="344.75"/>
    <linearGradient id="linearGradient957" y2="542.34" xlink:href="#linearGradient699" gradientUnits="userSpaceOnUse" y1="570.02" gradientTransform="scale(.80943 1.2354)" x2="428.19" x1="393.49"/>
    <radialGradient id="radialGradient983" xlink:href="#linearGradient699" gradientUnits="userSpaceOnUse" cy="688.12" cx="357.36" gradientTransform="scale(1.0146 .98561)" r="4.4594"/>
    <linearGradient id="linearGradient998" y2="838.88" xlink:href="#linearGradient699" gradientUnits="userSpaceOnUse" y1="854.66" gradientTransform="scale(1.547 .64639)" x2="303.07" x1="295.46"/>
    <radialGradient id="radialGradient2509" xlink:href="#linearGradient699" spreadMethod="reflect" gradientUnits="userSpaceOnUse" cy="745.49" cx="519.63" gradientTransform="scale(1)" r="16.153"/>
    <linearGradient id="linearGradient2513" y2="347.55" xlink:href="#linearGradient699" spreadMethod="reflect" gradientUnits="userSpaceOnUse" x2="675.66" gradientTransform="matrix(.48675 0 0 2.0544 -87.339 -526.93)" y1="339.46" x1="696.59"/>
  </defs>
  <g id="g740" fill-rule="evenodd" transform="translate(-87.339 -526.93)">
    <path id="path867" d="m517.93 832.65c-47.4 1.28-86.86-36.1-88.14-83.5-1.29-47.39 36.09-86.86 83.49-88.14s86.86 36.1 88.14 83.5c1.29 47.39-36.1 86.85-83.49 88.14zm-0.35-12.83c-40.31 1.09-73.87-30.7-74.96-71.01-1.1-40.31 30.7-73.88 71.01-74.97s73.87 30.7 74.96 71.01-30.7 73.88-71.01 74.97zm-1.74-64.16c-4.87 0.13-8.94-3.71-9.07-8.59s3.72-8.94 8.59-9.07c4.88-0.13 8.94 3.71 9.08 8.59 0.13 4.88-3.72 8.94-8.6 9.07z" fill="url(#radialGradient2509)" transform="translate(-.59059 3.5434)"/>
    <path id="path662" d="m615.6 746.83c0 55.23-44.77 100-100 100s-100-44.77-100-100 44.77-100 100-100 100 44.77 100 100zm-14.95 0c0 46.97-38.07 85.05-85.05 85.05-46.97 0-85.05-38.08-85.05-85.05s38.08-85.05 85.05-85.05c46.98 0 85.05 38.08 85.05 85.05zm-74.76 0c0 5.68-4.6 10.29-10.29 10.29-5.68 0-10.29-4.61-10.29-10.29s4.61-10.29 10.29-10.29c5.69 0 10.29 4.61 10.29 10.29z" fill="#504f4f" transform="translate(-.59059 3.5434)"/>
  </g>
  <path id="path869" d="m101.78 305.72c-47.392 1.28-86.855-36.1-88.138-83.5-1.284-47.39 36.098-86.86 83.494-88.14 47.394-1.28 86.864 36.1 88.144 83.5 1.28 47.39-36.1 86.85-83.5 88.14zm-0.34-12.83c-40.314 1.09-73.877-30.7-74.968-71.01-1.092-40.31 30.701-73.88 71.012-74.97 40.306-1.09 73.876 30.7 74.966 71.01s-30.7 73.88-71.01 74.97zm-1.74-64.16c-4.878 0.13-8.939-3.71-9.071-8.59s3.715-8.94 8.592-9.07c4.879-0.13 8.939 3.71 9.069 8.59s-3.71 8.94-8.59 9.07z" fill="url(#radialGradient868)" fill-rule="evenodd"/>
  <g id="g861" fill-rule="evenodd" transform="translate(-88.406 -625.82)">
    <rect id="rect862" ry="4.4194" height="13.258" width="29.168" y="793.16" x="316.87" fill="#191a19"/>
    <path id="path863" d="m336.76 801.01a3.9775 3.867 0 1 1 -7.96 0 3.9775 3.867 0 1 1 7.96 0z" fill="url(#radialGradient846)" transform="translate(-1.3258 -1.7678)"/>
  </g>
  <path id="path860" d="m244.69 231.54c3.67-0.12 7.65-2.85 7.5-7.44l-2.9-48.54c-0.37-4.58-2.29-6.67-5.97-6.55-3.22 0.11-5.45 2.11-5.53 6.71l-0.41 48.42c0.14 4.59 3.64 7.51 7.31 7.4z" fill="url(#linearGradient2513)" fill-rule="evenodd"/>
  <g id="g782" fill-rule="evenodd" transform="translate(-30.544 -157.76)">
    <path id="path773" d="m210.25 750.57a21.852 21.852 0 1 1 -43.71 0 21.852 21.852 0 1 1 43.71 0z" fill="url(#radialGradient775)" transform="matrix(1.1012 0 0 1.1012 -76.939 -449.61)"/>
    <path id="path772" d="m210.25 750.57a21.852 21.852 0 1 1 -43.71 0 21.852 21.852 0 1 1 43.71 0z" fill="url(#radialGradient776)" transform="matrix(1.0011 0 0 1.0011 -58.079 -374.47)"/>
    <path id="path661" d="m230.54 377.12c0 55.23-44.77 100-100 100-55.225 0-99.996-44.77-99.996-100s44.771-100 99.996-100c55.23 0 100 44.77 100 100zm-14.95 0c0 46.97-38.07 85.05-85.05 85.05-46.968 0-85.046-38.08-85.046-85.05s38.078-85.05 85.046-85.05c46.98 0 85.05 38.08 85.05 85.05zm-74.75 0c0 5.69-4.61 10.29-10.3 10.29-5.68 0-10.29-4.6-10.29-10.29 0-5.68 4.61-10.29 10.29-10.29 5.69 0 10.3 4.61 10.3 10.29z" fill="url(#radialGradient781)"/>
    <path id="path777" d="m210.25 750.57a21.852 21.852 0 1 1 -43.71 0 21.852 21.852 0 1 1 43.71 0z" fill="url(#radialGradient778)" transform="matrix(.90096 0 0 .90096 -39.219 -299.33)"/>
    <path id="path779" d="m210.25 750.57a21.852 21.852 0 1 1 -43.71 0 21.852 21.852 0 1 1 43.71 0z" fill="url(#radialGradient778)" transform="matrix(.81087 0 0 .81087 -22.245 -231.71)"/>
    <path id="path780" d="m210.25 750.57a21.852 21.852 0 1 1 -43.71 0 21.852 21.852 0 1 1 43.71 0z" fill="url(#radialGradient778)" transform="matrix(.72978 0 0 .72978 -6.9687 -170.85)"/>
  </g>
  <path id="path692" d="m464.59 109.86c-12.53-1.61-45.62 4.17-58.46 8.35-48.81 12.69-64.95 40.5-89.37 83.52 16.07-61.03 45.62-87.7 86.03-99.39 46.25-8.352 75.16 10.8 61.8 7.52z" fill="#00236b" fill-rule="evenodd"/>
  <g id="g739" fill-rule="evenodd" transform="translate(-78.992 -524.85)">
    <rect id="rect725" transform="rotate(-14.995)" height="45.937" width="11.693" y="589.68" x="91.173" fill="url(#linearGradient726)"/>
    <path id="path696" d="m292.32 538.29c-6.68 6.23-21.03 5.01-30.48 5.01-11.96-0.62-15.45-9.64-15.45-15.87 0-6.22 3.07-12.27 12.94-10.44 2.73 0.52 40.09 14.66 32.99 21.3z" fill="url(#radialGradient703)" transform="translate(-36.749 12.528)"/>
    <path id="path698" d="m287.73 557.81c0 3.41-10.71 10.76-24.95 10.76s-43.12-17.17-43.12-20.57 28.25 3.03 42.49 3.03 25.58 3.38 25.58 6.78z" fill="url(#linearGradient702)" transform="translate(-1.044 -15.034)"/>
    <rect id="rect734" ry="2.5056" transform="rotate(-14.765)" width="21.298" y="629.01" x="88.606" height="10.858" fill="url(#linearGradient735)"/>
    <path id="path733" d="m251.72 586.2c-2.33 1.15-4.2 3.4-3.32 6.25 1.21 2.54 3.6 4.14 6.26 3.33l15.32-4.3c3.49-1.02 4.13-3.69 3.32-6.76l-0.42-1.78c-0.94-2.43-3.88-3.55-6.05-2.53l-15.11 5.79zm1.45 2.16c-1.23 0.58-2.25 1.63-1.86 2.9 0.57 1.11 1.77 1.78 3.16 1.35l6.71-1.67c1.4-0.42 3.1-1.88 2.74-3.06l-0.36-1.53c-0.41-1.36-2.45-1.77-4.16-0.86l-6.23 2.87z" fill="#808080"/>
    <path id="path736" d="m312.58 590.28a2.8188 2.9232 0 1 1 -5.64 0 2.8188 2.9232 0 1 1 5.64 0z" fill="#3f3f3f" transform="matrix(.99775 0 0 .96211 -40.021 17.354)"/>
  </g>
  <g id="g795" fill-rule="evenodd" transform="translate(-87.339 -526.93)">
    <rect id="rect763" ry="4.8025" transform="rotate(-30.385)" width="17.122" y="741.42" x="-230.36" height="9.605" fill="url(#linearGradient764)"/>
    <g id="g758" transform="matrix(1.2 0 0 1.2 74.46 202.98)">
      <path id="path746" d="m106.07 469.8a6.6817 6.2641 0 1 1 -13.362 0 6.6817 6.2641 0 1 1 13.362 0z" fill="#343333" transform="matrix(.93539 0 0 .99775 6.4215 1.0555)"/>
      <path id="path747" d="m106.07 469.8a6.6817 6.2641 0 1 1 -13.362 0 6.6817 6.2641 0 1 1 13.362 0z" fill="#323432" transform="matrix(.93539 0 0 .99775 7.2567 16.925)"/>
      <path id="path756" d="m100.33 491.53c-2.407 0.07-5.32-1.41-5.91-1.92 4.577 0.23 8.15-0.59 11.22-3.1 0.71 0.29-0.99 4.8-5.31 5.02zm4.72-9.71c0.66 3-8.54 3.58-9.449 3.73 2.782-3.91 1.255-4.12-1.477-15.17 2.658 2.09 9.056 1.22 10.856-0.7-1.24 5.31-0.45 9.21 0.07 12.14zm1.62-11.92c0.38-3.32-2.36-7.25-7.303-7.37-4.556 0.06-7.742 4.2-7.142 6.67 0.168 1.41 2.781 10.34 3.014 11.94 0.576 3.27-2.786 4.76-5.588 6.01 1.641 2.35 6.557 5.94 10.186 5.96 5.333-0.05 8.653-3.96 7.753-8.31-1.45-4.82-1.47-10.5-0.92-14.9z" fill="url(#linearGradient757)"/>
    </g>
    <rect id="rect762" ry="5.4796" transform="rotate(9.639)" width="23.222" y="713.49" x="300.99" height="10.959" fill="#323232"/>
  </g>
  <path id="path802" d="m339.93 750.43a16.704 16.287 0 1 1 -33.41 0 16.704 16.287 0 1 1 33.41 0z" fill="url(#radialGradient804)" transform="translate(-78.151 -528.6)" fill-rule="evenodd"/>
  <path id="path828" d="m377.2 850.62a0.55243 0.22098 0 1 1 -1.11 0 0.55243 0.22098 0 1 1 1.11 0z" fill="#808080" transform="translate(-87.339 -526.93)" fill-rule="evenodd"/>
  <path id="path827" d="m415.65 863.76a39.664 40.99 0 1 1 -79.33 0 39.664 40.99 0 1 1 79.33 0z" fill="url(#radialGradient837)" transform="matrix(.31514 0 0 .30495 126.18 -40.372)" fill-rule="evenodd"/>
  <g id="g965" fill-rule="evenodd" transform="matrix(.96643 -.25692 .25692 .96643 -252.23 -411.34)">
    <rect id="rect677" ry="6.7451" transform="matrix(.99999 -.0053178 .0079578 .99997 0 0)" width="78.6" y="674.34" x="282.02" height="13.49" fill="url(#linearGradient955)"/>
    <rect id="rect892" ry="1.7187" transform="matrix(.99999 -.0048114 .0048114 .99999 7.5921 -14.912)" width="11.875" y="686.89" x="332.19" height="18.125" fill="url(#linearGradient957)"/>
    <rect id="rect893" ry="1.7187" transform="matrix(.99999 -.0048114 .0048114 .99999 7.5921 -14.912)" width="11.875" y="687.21" x="287.03" height="18.125" fill="url(#linearGradient956)"/>
    <path id="path964" d="m309.86 687.7c0.17 0.78 0.93 1.27 1.72 1.1l0.38-0.09c0.78-0.17 1.27-0.93 1.1-1.71l-1.61-3.95c-0.17-0.78-0.94-1.27-1.72-1.1l0.13 5.75zm3.86-17.42c-0.78 0.17-1.27 0.94-1.1 1.72l3.39 15.49c0.17 0.79 0.94 1.28 1.72 1.11l0.38-0.09c0.78-0.17 1.28-0.94 1.11-1.72l-3.4-15.5c-0.17-0.78-0.93-1.27-1.71-1.1l-0.39 0.09zm7.58-0.03c-0.78 0.17-1.28 0.94-1.1 1.72l3.39 15.49c0.17 0.79 0.93 1.28 1.71 1.11l0.39-0.09c0.78-0.17 1.27-0.94 1.1-1.72l-3.39-15.5c-0.17-0.78-0.94-1.27-1.72-1.1l-0.38 0.09zm7.13-0.03c-0.78 0.17-1.27 0.94-1.1 1.72l3.39 15.49c0.17 0.79 0.94 1.28 1.72 1.11l0.38-0.09c0.78-0.17 1.28-0.94 1.1-1.72l-3.39-15.5c-0.17-0.78-0.93-1.27-1.71-1.1l-0.39 0.09zm7.13-0.47c-0.78 0.17-1.27 0.93-1.1 1.71l3.39 15.5c0.17 0.78 0.94 1.27 1.72 1.1l0.39-0.08c0.78-0.17 1.27-0.94 1.1-1.72l-3.39-15.5c-0.17-0.78-0.94-1.27-1.72-1.1l-0.39 0.09zm7.52 1.43c-0.17-0.78-0.94-1.27-1.72-1.1l-0.39 0.08c-0.78 0.18-1.27 0.94-1.1 1.72l1.62 3.95c0.17 0.78 0.93 1.27 1.71 1.1l-0.12-5.75z" fill="#ff6000"/>
  </g>
  <path id="path982" d="m365.31 678.3a2.7344 2.6562 0 1 1 -5.47 0 2.7344 2.6562 0 1 1 5.47 0z" fill="url(#radialGradient983)" transform="translate(-157.19 -508.27)" fill-rule="evenodd"/>
  <g id="g736" fill-rule="evenodd" transform="translate(-83.795 -526.93)">
    <rect id="rect872" ry="1.875" transform="matrix(-.98548 .16979 -.16979 -.98548 -.59059 3.5434)" width="19.919" y="-746.9" x="-395.6" height="7.071" fill="#303030"/>
    <rect id="rect865" ry="4.4194" transform="matrix(-.28406 -.95881 .95881 -.28406 -.59059 3.5434)" width="36.239" y="290.16" x="-792.74" height="8.8388" fill="url(#linearGradient871)"/>
  </g>
  <g id="g733" fill-rule="evenodd" transform="translate(-87.339 -526.93)">
    <path id="path712" d="m447.29 536.83l4.99 20.06 15.2-3.78-1.4-5.22c-0.3-1.63 0.57-3.48 2.04-3.56 2.71-0.16 16.12-1.45 19.77-1.8 8.57-0.8 7.59-15.54-2.78-14.24-11.77 1.48-38.7 5.43-37.82 8.54z" fill="#808080"/>
    <rect id="rect713" ry="6.3685" transform="rotate(-10.784)" width="53.245" y="610.64" x="330.13" height="12.737" fill="url(#linearGradient727)"/>
    <g id="g875" transform="matrix(.75392 -.15301 .11673 .98822 88.287 107.2)">
      <path id="path874" d="m430 501.74a10 11.875 0 1 1 -20 0 10 11.875 0 1 1 20 0z" fill="#323334"/>
      <rect id="rect873" ry="8.75" height="17.5" width="36.25" y="493.61" x="387.5" fill="#333433"/>
    </g>
    <g id="g730">
      <path id="path995" d="m468.25 530.86c-4.08 0.9-0.11 4.28 0.72 8.66 0.84 4.38-1.79 8.06 2.29 7.16l6.06-1.33c4.08-0.9 6.69-5.15 5.85-9.53-0.83-4.38-4.79-7.19-8.86-6.29l-6.06 1.33z" fill="#333"/>
      <path id="path997" d="m458.81 545.81c-0.79 0.19-3.78-0.51-3.72 1.67l0.49 1.75c1.39 3.12 3.29 0.49 4.07 0.3l16.09-3.14c1.43-0.35 2.27-1.4 2.12-2.42l-0.1-0.7c-0.14-1.02-1.43-2.45-3.2-1.94l-15.75 4.48z" fill="url(#linearGradient998)"/>
    </g>
  </g>
  <g id="g791" fill-rule="evenodd" transform="translate(-87.339 -526.93)">
    <rect id="rect866" ry="1.875" transform="rotate(242.05)" width="19.919" y="-107.12" x="-750.78" height="7.071" fill="#303030"/>
    <rect id="rect864" ry="4.4194" transform="rotate(-26.28)" width="36.239" y="739.37" x="-90.161" height="8.8389" fill="url(#linearGradient870)"/>
  </g>
  <g id="g787" fill-rule="evenodd" transform="translate(-87.339 -526.93)">
    <path id="path687" d="m187.8 738.17c-8.56 2.12-8.85 9.85-8.26 15.8 8.76 0.74 16.93-1.18 16.53-6.64l114.58 3.84v-13h-122.85z" stroke="#0000a5" fill="#004fff"/>
    <path id="path685" d="m279.77 697.46l14.09 40.97c1.32 3.25 12.09 2.66 10.75-0.29l-12.32-34.48c-5.95-1.47-3.62-11.52-12.52-6.2z" stroke="#0000a6" fill="#0050ff"/>
    <path id="path686" d="m281.44 696.75l-92.77 42.31c4.82 3.08 17.02 1.43 17.12-0.5l78.3-34.05c5.91-3.18 3.55-10.49-2.65-7.76z" stroke="#0000a6" fill="#0050ff"/>
  </g>
  <g id="g742" fill-rule="evenodd" transform="translate(-87.339 -526.93)">
    <path id="path670" d="m449.05 557.89l18.44 68.96 20.73-6.19-16.41-67.91-22.76 5.14z" fill="url(#linearGradient714)"/>
    <rect id="rect668" transform="matrix(.98028 -.19761 .29329 .95602 0 0)" height="70.888" width="16.799" y="639.72" x="73.906" fill="url(#linearGradient721)"/>
    <path id="path688" d="m740.61 98.735l8.32 193.42c8.28-7.48 15.35-9.05 24.75-4.7l-10.19-175.11c-1.75-10.34-16.86-19.111-22.88-13.615z" fill="url(#linearGradient719)" transform="matrix(.71211 .70207 -.70299 .71120 0 0)"/>
    <rect id="rect709" ry="3.9673" transform="matrix(.96990 -.24348 .24260 .97013 0 0)" width="30.696" y="650.12" x="296.46" height="13.363" fill="url(#linearGradient710)"/>
    <path id="path674" d="m381.68 674.24c10.72-2.54 13.23-5.84 13.38-14.97l-113.4-48.16c-9.72 2.66-2.7 16.48 6.48 22.12l93.54 41.01z" fill="url(#linearGradient720)"/>
    <path id="path879" d="m47.286 708.72c-0.652 9.04 9.98 17.07 16.811 17.26l119.39-2.91c7.51-0.85 9.48-16.28 2.69-15.79l-138.89 1.44z" fill="url(#linearGradient880)" transform="rotate(-23.609)"/>
    <path id="path980" d="m356.18 664.69c-1.42-0.47-2.26 0.52-1.79 2.73l0.91 3.07c0.47 1.57 0.53 3.04 2.11 3.19l10.29-1.87c1.22-0.22 1.15-2.62-0.27-3.12l-11.25-4zm-8.57-8.43c8.27 18.23 10.39 27.5 11.43 46.53l16.61-18.12c-3.2-4.63-5.46-12.69-3.98-18.57l-24.06-9.84zm15.95 36.65c-1.07 1.05-2.26 0.53-2.81-1.65l-0.74-2.56c-0.28-1.62-0.88-2.96 0.47-3.8l10.06-2.88c1.19-0.34 2.04 1.54 0.96 2.62l-7.94 8.27z" fill="#0052d9"/>
    <g id="g727">
      <path id="path705" d="m468 626.27c-2.47 1.29-2.65 5.37-1.17 8.34l1.54 3.76c1.07 3.8 3.26 5.38 6.15 4.51l16.3-4.65c2.89-0.87 2.95-4.12 1.88-7.91l-0.26-4.34c-1.07-3.79-2.42-5.82-4.9-5.37l-19.54 5.66z" fill="url(#linearGradient706)"/>
      <path id="path721" d="m503.03 746.88c0.48 2.22 3.14 9.9 10.63 11.82h5.61c1.58 0 3.25-0.64 3.25-2.81l-0.03-2.24c-5.9 1.78-11.73 3.09-11.91-1.23-0.23-8.92 10.82 0.12 11.22-5.22l0.42-5.63c-1.08 3.69-17.37 7.09-19.19 5.31z" fill="#0056ff"/>
      <rect id="rect673" ry="5.7356" transform="matrix(.96098 -.27661 .27661 .96098 0 0)" width="21.261" y="767.11" x="275.99" height="93.312" fill="url(#linearGradient718)"/>
      <rect id="rect707" transform="matrix(.95960 -.28136 .28136 .95960 0 0)" height="19.932" width="14.617" y="750.44" x="275.56" fill="url(#linearGradient708)"/>
    </g>
  </g>
  <rect id="rect803" fill-rule="evenodd" ry="13.363" transform="rotate(12.25)" width="42.596" y="152.09" x="258.25" height="26.727" fill="url(#linearGradient774)"/>
  <g id="g778" transform="translate(-87.339 -526.93)">
    <path id="path829" d="m409 908.35c4.22 0-4.23 0 0 0zm4.51 6.53c0.52 3.49 22.15-1.09 22.16 0.16-0.08 8.83-2.77 16.05-10.54 21.76-0.95 0.67-10.72-18.36-13.77-17.07-3.06 1.3 8.6 20.61 7.34 21.04-9.56 3.28-15.47 2.75-24.51-2.67-1-0.64 13.52-16.62 11.28-18.96-2.25-2.37-16.05 15.45-16.82 14.53-5.69-7.02-7.92-15.49-5.33-25.66 0.31-1.15 19.75 9.24 21.04 6.19s-18.7-11.54-17.85-12.76c5.42-7.87 10.99-11.85 21.74-12.46 1.21-0.05-1.97 21.81 1.33 22.05 3.15 0.26 4.91-21.27 6.35-21 9.39 1.68 17.16 9 18.9 17.63 0.22 1.12-21.87 3.76-21.32 7.22zm26.99 1.13c0 17.39-14.11 31.5-31.5 31.5-17.4 0-31.5-14.11-31.5-31.5 0-17.4 14.1-31.5 31.5-31.5 17.39 0 31.5 14.1 31.5 31.5z" fill="url(#radialGradient835)" transform="translate(-76.898 -165.29)" fill-rule="evenodd"/>
    <path id="path818" d="m409 906.44c5.28 0-5.29 0 0 0zm5.64 8.16c0.65 4.36 27.68-1.37 27.7 0.2-0.1 11.04-3.46 20.06-13.18 27.2-1.19 0.83-13.4-22.95-17.21-21.33-3.82 1.61 10.75 25.75 9.18 26.3-11.95 4.1-19.34 3.43-30.64-3.35-1.25-0.8 16.9-20.77 14.09-23.69-2.8-2.97-20.06 19.31-21.02 18.15-7.11-8.77-9.9-19.36-6.66-32.07 0.39-1.43 24.69 11.55 26.31 7.74 1.61-3.82-23.39-14.43-22.32-15.95 6.78-9.84 13.73-14.82 27.17-15.58 1.52-0.06-2.46 27.26 1.67 27.56 3.93 0.33 6.13-26.59 7.93-26.24 11.74 2.1 21.45 11.24 23.63 22.03 0.27 1.4-27.33 4.7-26.65 9.03zm33.73 1.41c0 21.74-17.63 39.37-39.37 39.37-21.75 0-39.38-17.63-39.38-39.37 0-21.75 17.63-39.38 39.38-39.38 21.74 0 39.37 17.63 39.37 39.38z" fill="url(#radialGradient835)" transform="translate(-76.898 -165.29)" fill-rule="evenodd"/>
    <path id="path844" d="m332.34 741.68c-3.67 0-7.73 2.59-7.73 7.18l1.32 48.61c0.22 4.59 2.07 6.74 5.75 6.74 3.23 0 5.52-1.93 5.74-6.52l1.99-48.39c0-4.59-3.4-7.62-7.07-7.62z" fill="url(#linearGradient856)" transform="translate(.22094 1.1048)" fill-rule="evenodd"/>
    <path id="path847" d="m336.76 801.01a3.9775 3.867 0 1 1 -7.96 0 3.9775 3.867 0 1 1 7.96 0z" fill="url(#radialGradient846)" transform="matrix(1.2222 0 0 1.2286 -74.393 -234.35)" fill-rule="evenodd"/>
    <g id="g851" fill-rule="evenodd" transform="translate(1.3258 .88391)">
      <rect id="rect842" ry="4.4194" height="13.258" width="29.168" y="793.16" x="316.87" fill="#191a19"/>
      <path id="path845" d="m336.76 801.01a3.9775 3.867 0 1 1 -7.96 0 3.9775 3.867 0 1 1 7.96 0z" fill="url(#radialGradient846)" transform="translate(-1.3258 -1.7678)"/>
    </g>
    <path id="path993" stroke-linejoin="bevel" d="m199.55 771.29l-7.59 8.16m4 14.51l129.05-3.8m-82.83-66.81l91.17-11.71c43.52 0.16 56.41 66.57 5.55 78.29m-122.02-64.13l-30.79 4.06c-22.44 4.9-10.83 26.67-8.28 26.88" stroke="#000" stroke-linecap="round" stroke-width="2.5" fill="none"/>
  </g>
  <path id="path984" d="m365.31 678.3a2.7344 2.6562 0 1 1 -5.47 0 2.7344 2.6562 0 1 1 5.47 0z" fill="url(#radialGradient983)" transform="translate(-87.807 -527.27)" fill-rule="evenodd"/>
  <g id="g794" fill-rule="evenodd" transform="translate(-87.339 -526.93)">
    <g id="g749" transform="matrix(.98516 .17165 -.17165 .98516 111.97 -33.287)">
      <path id="path690" d="m284.58 676.67c0 13.61-16.08-33.82-78.92-40.5-51.98-4.18-61.39-3.52-68.07-17.96 10.02-0.24 18.76 1.27 71.41 5.43 52.81 5.01 75.58 39.43 75.58 53.03z" fill="#00246c"/>
      <path id="path748" d="m238.66 630.48c3.11 1.18 10.44 4.31 12.63 5.84 1.09-2.43 1.93-7.81-2.81-10.54-4.67-2.63-8.93 2.42-9.82 4.7z" fill="#00236b"/>
    </g>
    <path id="path745" d="m262.06 600.88c-5.51 1.25-8.67 6.81-10.76 11.06l-7.51 14.79c-3.34 5.92 2.95 8.24 5.43 5.01l14.3-15.92c1.32-1.47 2.23-2.68 3.76-3.19l13.81-3.94c1.14-0.3 1.33-1.03 1.12-2.32l-2.4-8.42c-0.31-1.22-1.17-1.56-2.5-1.14l-15.25 4.07z" fill="#353535"/>
  </g>
  <path id="path743" d="m522.07 755a5.0199 5.0199 0 1 1 -10.04 0 5.0199 5.0199 0 1 1 10.04 0z" fill="#343434" transform="translate(-88.52 -529.29)" fill-rule="evenodd"/>
  <metadata>
    <rdf:RDF>
      <cc:Work>
        <dc:format>image/svg+xml</dc:format>
        <dc:type rdf:resource="http://purl.org/dc/dcmitype/StillImage"/>
        <cc:license rdf:resource="http://creativecommons.org/licenses/publicdomain/"/>
        <dc:publisher>
          <cc:Agent rdf:about="http://openclipart.org/">
            <dc:title>Openclipart</dc:title>
          </cc:Agent>
        </dc:publisher>
        <dc:title>Blue bike</dc:title>
        <dc:date>2009-04-03T09:10:44</dc:date>
        <dc:description>Blue bicycle (originally named "vtt_02") by Franck Doucet. From old OCAL website.</dc:description>
        <dc:source>http://openclipart.org/detail/23878/blue-bike-by-anonymous-23878</dc:source>
        <dc:creator>
          <cc:Agent>
            <dc:title>Anonymous</dc:title>
          </cc:Agent>
        </dc:creator>
        <dc:subject>
          <rdf:Bag>
            <rdf:li>bicycle</rdf:li>
            <rdf:li>bike</rdf:li>
            <rdf:li>clip art</rdf:li>
            <rdf:li>clipart</rdf:li>
            <rdf:li>image</rdf:li>
            <rdf:li>media</rdf:li>
            <rdf:li>png</rdf:li>
            <rdf:li>public domain</rdf:li>
            <rdf:li>recreation</rdf:li>
            <rdf:li>sport</rdf:li>
            <rdf:li>svg</rdf:li>
            <rdf:li>transportation</rdf:li>
            <rdf:li>vehicle</rdf:li>
          </rdf:Bag>
        </dc:subject>
      </cc:Work>
      <cc:License rdf:about="http://creativecommons.org/licenses/publicdomain/">
        <cc:permits rdf:resource="http://creativecommons.org/ns#Reproduction"/>
        <cc:permits rdf:resource="http://creativecommons.org/ns#Distribution"/>
        <cc:permits rdf:resource="http://creativecommons.org/ns#DerivativeWorks"/>
      </cc:License>
    </rdf:RDF>
  </metadata>
</svg>
