<?xml version="1.0" encoding="UTF-8" standalone="no"?>
<svg xmlns:rdf="http://www.w3.org/1999/02/22-rdf-syntax-ns#" xmlns="http://www.w3.org/2000/svg" height="263pt" width="283pt" version="1.1" xmlns:cc="http://creativecommons.org/ns#" xmlns:dc="http://purl.org/dc/elements/1.1/" viewBox="0 0 283 263">
<path fill="#020202" d="m68.22 4.03c19.8-9.47 33.27 16.52 52.22 16.84 16.87 0.09 33.89 0.81 50.69-0.28 17.79-14.39 42.24-16.41 63.88-11.8 11.2 6.32 21.98 13.42 32.78 20.39 20.47 18.63 17.06 51.17 3.1 72.64-15.2 21.98-5.79 49.64-4.71 74.08 2.76 22.67-0.23 47.54-14.06 66.29-17.13 5.54-35.74 4.06-53.12 8.81-5.02 1.84-9.34-2.15-14.03-3.17-21.58-2.86-43.46-0.69-65.08-2.72-4.52 10.08-13.72 17.66-25.25 16.73-8.34-4.09-16.17-10.43-18.78-19.72-13.5 1.5-28.97 0.98-39.64-8.56-18.03-33.64-9.15-72.85-6.34-108.95-10.7-10.61-18.62-23.59-25.75-36.85-8.24-22.07 3-46.17 19.54-61.09 11.64-12.8 29.02-16.7 44.55-22.64m-29.31 16.93c-24.12 13.91-37.61 49.96-19.19 73.41 7.95 13.82 18.43 26.39 32.15 34.76 28.46 19.07 65.88 19.79 91.92 43.07 6.24 6.34 16.44 10.08 18.41 19.64 0.51 4.12 4.06-0.03 6.1-0.86 11.21 0.48 16.33-11.11 21.46-19.16-8.46-21.19-30.87-35.11-34.64-58.64-12.36-20.57-9.88-47.02-25.34-66-9.79-18.19-30.26-25.93-46.57-36.97-15.25-1.41-32.57-0.45-44.3 10.75m163.08-5.27c-7.09 1.77-14.37 3.9-20.68 7.6-13.31 14.75-27.59 30.7-30.9 51.02 6.95 27.83 16.07 56.4 34.14 79.58 37.31-6.25 70.83-31.7 86.16-66.45 0.33-16.7 8.51-38.03-7.29-49.96-13.79-19.21-38.83-26.13-61.43-21.79m-75.29 19.78c6.47 7.22 13.27 14.29 17.87 22.92 9.86-5.42 13.05-16.89 15.34-27.16-11.07 1.43-22.15 2.8-33.21 4.24m65.31 121.94c4.31 15.38 19.85 24.91 29.16 37.38 7.31-1.39 15.22-0.83 20.13 5.76 3.62 14.35-5.5 31.02-21.88 27.64-0.13 2.94-0.24 5.81-0.25 8.78 7.28 0.1 14.57 0.3 21.85-0.12 5.5-5.02 9.28-11.69 12.88-18.11 1.33-29.68-1.93-59.27-2.84-88.9-17.9 12.7-36.61 25.19-59.05 27.57m-154.87-21.47c1.28 27.67-6.72 55.93 1.75 83.07 1.27 6.59 5.25 14.06 12.85 14.03 5.49-6.97 0.53-19.09 9.13-24.34 10.5-4.75 20.05-11.61 28.43-19.44 5.41-9.79 10.2-20.04 18.93-27.46-17.27-6.34-36.14-7.61-53.19-14.69-5.59-4.3-11.28-8.53-17.9-11.17m62.81 46.66c0.96 3.81 1.96 7.62 2.92 11.43 3.4-0.77 6.8-1.52 10.2-2.28 3.09 4.98 4.12 14.96 12.29 12.94 7.36-7.4 13.28-16.2 19.82-24.34-7.82-5.7-15.67-11.35-23.33-17.24-10.17 2.55-14.5 13.1-21.9 19.49m97.24-3.52c-9.31 4.89-15.17 13.54-22.18 21.05 4.87 6.15 10 12.07 15.12 18.01-0.9 6.93-1.91 13.83-2.95 20.74 7.17 1.23 14.61 5.92 21.68 1.89-0.08-7.89-0.38-16.25 4.52-22.89 4.36 0.79 8.71 2 13.17 1.99 2.8-4.53 7.82-11.18 3.69-16.26-4.37-1.3-8.96-1.6-13.43-2.34-4.53-8.96-12.37-15.49-19.62-22.19m-74.19 43.86c-1.18 3.69-7.98 7.4-6.23 11.49 21.6 6.56 44.24 2.34 66.24 0.82-3.03-7.94-1.42-18.77-10.11-23.25-9.04-5.9-16.74-13.77-20.35-24.15-13.75 7.74-19.16 23.84-29.55 35.09m-44.62-13.32c-5.4 1.69-10.96 3-14.76 7.64 0.31 11.78 12.91 12.71 22.17 12.88 3.87 5.47 2.9 12.61 1 18.62 4.22 4.77 10.63 4.9 16.58 4.29 4.89-7.26 2.36-16.01 3.67-23.92 8.1-6.86 8.91-16.87 6.52-26.56-7.67-1.75-16.16-1.98-22.1-7.85-4.32 5.01-7.93 10.67-13.08 14.9z"/>
<path fill="#ffcc97" d="m38.91 20.96c11.73-11.2 29.05-12.16 44.3-10.75 16.31 11.04 36.78 18.78 46.57 36.97 15.46 18.98 12.98 45.43 25.34 66 3.77 23.53 26.18 37.45 34.64 58.64-5.13 8.05-10.25 19.64-21.46 19.16-2.04 0.83-5.59 4.98-6.1 0.86-1.97-9.56-12.17-13.3-18.41-19.64-26.04-23.28-63.46-24-91.92-43.07-13.72-8.37-24.2-20.94-32.15-34.76-18.42-23.45-4.93-59.5 19.19-73.41m1.82 37.93c-4.02 5.12 2.39 10.35 6.91 12.35 0.46-2.97 0.85-5.95 1.24-8.92-2.74-1.1-5.44-2.28-8.15-3.43m63.35 10.07c-0.09 6.23 2.17 12.01 5.02 17.44 1.12-0.32 2.25-0.65 3.38-0.97 0.8-3.5 1.66-7 2.54-10.49-3.58-2.11-7.12-4.32-10.94-5.98m-33.96 13.05c0.55 4.61 0.78 9.58 3.92 13.29 3.18-1.69 8.04-2.16 8.99-6.27-1.56-5.4-8.32-6.1-12.91-7.02m22.54 30.26c-0.23 5.31 1.35 10.1 6.53 12.1 3.38-6.01 1.09-11.66-6.53-12.1z"/>
<path fill="#fecc97" d="m201.99 15.69c22.6-4.34 47.64 2.58 61.43 21.79 15.8 11.93 7.62 33.26 7.29 49.96-15.33 34.75-48.85 60.2-86.16 66.45-18.07-23.18-27.19-51.75-34.14-79.58 3.31-20.32 17.59-36.27 30.9-51.02 6.31-3.7 13.59-5.83 20.68-7.6m19.86 32.87c2.79 1.7 5.77 3.05 8.97 3.78-0.16-4.1-0.33-8.19-0.33-12.29-8.53-6.71-10.83-0.22-8.64 8.51m-39.32 8.9c-0.79 3.85-1.61 7.7-2.57 11.51 1.98 1.46 3.97 2.9 5.98 4.31 1.77-5.22 3.66-10.47 4.29-15.98-2.57 0.04-5.14 0.09-7.7 0.16m55.53 21.49c-0.97 6.15-5.14 15.07 2.8 17.91 4.47-4.31 4.18-9.99 3.14-15.56-1.99-0.78-3.96-1.57-5.94-2.35m-54 21.71l-0.08 11.36 8.28-0.3c1.01-6.48-1.85-10.6-8.2-11.06z"/>
<path fill="#99fcfb" d="m126.7 35.47c11.06-1.44 22.14-2.81 33.21-4.24-2.29 10.27-5.48 21.74-15.34 27.16-4.6-8.63-11.4-15.7-17.87-22.92z"/>
<path fill="#976532" d="m221.85 48.56c-2.19-8.73 0.11-15.22 8.64-8.51 0 4.1 0.17 8.19 0.33 12.29-3.2-0.73-6.18-2.08-8.97-3.78z"/>
<path fill="#976633" d="m182.53 57.46c2.56-0.07 5.13-0.12 7.7-0.16-0.63 5.51-2.52 10.76-4.29 15.98-2.01-1.41-4-2.85-5.98-4.31 0.96-3.81 1.78-7.66 2.57-11.51z"/>
<path fill="#976632" d="m40.73 58.89c2.71 1.15 5.41 2.33 8.15 3.43-0.39 2.97-0.78 5.95-1.24 8.92-4.52-2-10.93-7.23-6.91-12.35z"/>
<g fill="#976532">
<path d="m104.08 68.96c3.82 1.66 7.36 3.87 10.94 5.98-0.88 3.49-1.74 6.99-2.54 10.49-1.13 0.32-2.26 0.65-3.38 0.97-2.85-5.43-5.11-11.21-5.02-17.44z"/>
<path d="m238.06 78.95c1.98 0.78 3.95 1.57 5.94 2.35 1.04 5.57 1.33 11.25-3.14 15.56-7.94-2.84-3.77-11.76-2.8-17.91z"/>
<path d="m70.12 82.01c4.59 0.92 11.35 1.62 12.91 7.02-0.95 4.11-5.81 4.58-8.99 6.27-3.14-3.71-3.37-8.68-3.92-13.29z"/>
</g>
<path fill="#966531" d="m184.06 100.66c6.35 0.46 9.21 4.58 8.2 11.06l-8.28 0.3 0.08-11.36z"/>
<path fill="#966632" d="m92.66 112.27c7.62 0.44 9.91 6.09 6.53 12.1-5.18-2-6.76-6.79-6.53-12.1z"/>
<path fill="#98fdfb" d="m192.01 157.41c22.44-2.38 41.15-14.87 59.05-27.57 0.91 29.63 4.17 59.22 2.84 88.9-3.6 6.42-7.38 13.09-12.88 18.11-7.28 0.42-14.57 0.22-21.85 0.12 0.01-2.97 0.12-5.84 0.25-8.78 16.38 3.38 25.5-13.29 21.88-27.64-4.91-6.59-12.82-7.15-20.13-5.76-9.31-12.47-24.85-22-29.16-37.38m23.49 16.03c11.64 2.17 18.99-9.81 25.35-17.6-9.35 4.36-18.67 9.54-25.35 17.6m16.43 4.54c4.41-0.95 8.41-3.1 12.41-5.12-4.09-9.2-9.6-0.74-12.41 5.12z"/>
<path fill="#98fdfc" d="m37.14 135.94c6.62 2.64 12.31 6.87 17.9 11.17 17.05 7.08 35.92 8.35 53.19 14.69-8.73 7.42-13.52 17.67-18.93 27.46-8.38 7.83-17.93 14.69-28.43 19.44-8.6 5.25-3.64 17.37-9.13 24.34-7.6 0.03-11.58-7.44-12.85-14.03-8.47-27.14-0.47-55.4-1.75-83.07m11.93 21.94c0.1 1.64 0.29 4.93 0.39 6.57 11.5 1.74 22.67 10.3 34.52 5.77 2.97-0.3 3.3-3.32 3.07-5.99-12.9-0.36-25.74-2.16-37.98-6.35m7.26 17.61c4.6 4.39 11 3.95 16.93 3.53-1.42-8.85-11.04-5.12-16.93-3.53z"/>
<path fill="#010808" d="m215.5 173.44c6.68-8.06 16-13.24 25.35-17.6-6.36 7.79-13.71 19.77-25.35 17.6z"/>
<path fill="#010605" d="m49.07 157.88c12.24 4.19 25.08 5.99 37.98 6.35 0.23 2.67-0.1 5.69-3.07 5.99-11.85 4.53-23.02-4.03-34.52-5.77-0.1-1.64-0.29-4.93-0.39-6.57z"/>
<path fill="#fccb97" d="m99.95 182.6c7.4-6.39 11.73-16.94 21.9-19.49 7.66 5.89 15.51 11.54 23.33 17.24-6.54 8.14-12.46 16.94-19.82 24.34-8.17 2.02-9.2-7.96-12.29-12.94-3.4 0.76-6.8 1.51-10.2 2.28-0.96-3.81-1.96-7.62-2.92-11.43z"/>
<path fill="#01090b" d="m231.93 177.98c2.81-5.86 8.32-14.32 12.41-5.12-4 2.02-8 4.17-12.41 5.12z"/>
<path fill="#010908" d="m56.33 175.49c5.89-1.59 15.51-5.32 16.93 3.53-5.93 0.42-12.33 0.86-16.93-3.53z"/>
<path fill="#fcfdcb" d="m197.19 179.08c7.25 6.7 15.09 13.23 19.62 22.19 4.47 0.74 9.06 1.04 13.43 2.34 4.13 5.08-0.89 11.73-3.69 16.26-4.46 0.01-8.81-1.2-13.17-1.99-4.9 6.64-4.6 15-4.52 22.89-7.07 4.03-14.51-0.66-21.68-1.89 1.04-6.91 2.05-13.81 2.95-20.74-5.12-5.94-10.25-11.86-15.12-18.01 7.01-7.51 12.87-16.16 22.18-21.05m-2.23 18.99c0.33 2.91 0.69 5.85 1.05 8.76 1.08 0.39 2.16 0.78 3.24 1.18-0.34-2.48-1.02-7.46-1.36-9.94h-2.93m0.99 15.75c0.1 1.66 0.31 4.99 0.41 6.66 4.38 1.01 5.47-1.93 5.76-5.06-2.06-0.54-4.11-1.08-6.17-1.6z"/>
<path fill="#98fdfc" d="m123 222.94c10.39-11.25 15.8-27.35 29.55-35.09 3.61 10.38 11.31 18.25 20.35 24.15 8.69 4.48 7.08 15.31 10.11 23.25-22 1.52-44.64 5.74-66.24-0.82-1.75-4.09 5.05-7.8 6.23-11.49m23.73-7.18c-2.15 2-4.31 4-6.48 5.99 2.16 0.84 4.32 1.68 6.5 2.49 0.02-2.82-0.02-5.67-0.02-8.48m12.68 13c2.23 0.41 4.45 0.82 6.69 1.17-0.68-1.86-1.43-3.68-2.21-5.48-1.36 1.57-2.86 3-4.48 4.31z"/>
<path fill="#fcfdcc" d="m78.38 209.62c5.15-4.23 8.76-9.89 13.08-14.9 5.94 5.87 14.43 6.1 22.1 7.85 2.39 9.69 1.58 19.7-6.52 26.56-1.31 7.91 1.22 16.66-3.67 23.92-5.95 0.61-12.36 0.48-16.58-4.29 1.9-6.01 2.87-13.15-1-18.62-9.26-0.17-21.86-1.1-22.17-12.88 3.8-4.64 9.36-5.95 14.76-7.64m9.75 2.19c-0.27 2.46-0.55 4.93-0.73 7.4 3.24-0.19 5.45-2.53 7.02-5.15-2.08-0.8-4.18-1.55-6.29-2.25m8.76 25.6c-0.97 3.22-1.59 6.52-1.9 9.87 6.62 1.08 7.95-8.56 1.9-9.87z"/>
<path fill="#4f330c" d="m194.96 198.07h2.93c0.34 2.48 1.02 7.46 1.36 9.94-1.08-0.4-2.16-0.79-3.24-1.18-0.36-2.91-0.72-5.85-1.05-8.76z"/>
<path fill="#5b3511" d="m88.13 211.81c2.11 0.7 4.21 1.45 6.29 2.25-1.57 2.62-3.78 4.96-7.02 5.15 0.18-2.47 0.46-4.94 0.73-7.4z"/>
<path fill="#593711" d="m195.95 213.82c2.06 0.52 4.11 1.06 6.17 1.6-0.29 3.13-1.38 6.07-5.76 5.06-0.1-1.67-0.31-5-0.41-6.66z"/>
<path fill="#000d0f" d="m146.73 215.76c0 2.81 0.04 5.66 0.02 8.48-2.18-0.81-4.34-1.65-6.5-2.49 2.17-1.99 4.33-3.99 6.48-5.99z"/>
<path fill="#001318" d="m159.41 228.76c1.62-1.31 3.12-2.74 4.48-4.31 0.78 1.8 1.53 3.62 2.21 5.48-2.24-0.35-4.46-0.76-6.69-1.17z"/>
<path fill="#5e330b" d="m96.89 237.41c6.05 1.31 4.72 10.95-1.9 9.87 0.31-3.35 0.93-6.65 1.9-9.87z"/>
<path d="m68.22 4.03c19.8-9.47 33.27 16.52 52.22 16.84 16.87 0.09 33.89 0.81 50.69-0.28 17.79-14.39 42.24-16.41 63.88-11.8 11.2 6.32 21.98 13.42 32.78 20.39 20.47 18.63 17.06 51.17 3.1 72.64-15.2 21.98-5.79 49.64-4.71 74.08 2.76 22.67-0.23 47.54-14.06 66.29-17.13 5.54-35.74 4.06-53.12 8.81-5.02 1.84-9.34-2.15-14.03-3.17-21.58-2.86-43.46-0.69-65.08-2.72-4.52 10.08-13.72 17.66-25.25 16.73-8.34-4.09-16.17-10.43-18.78-19.72-13.5 1.5-28.97 0.98-39.64-8.56-18.03-33.64-9.15-72.85-6.34-108.95-10.7-10.61-18.62-23.59-25.75-36.85-8.24-22.07 3-46.17 19.54-61.09 11.64-12.8 29.02-16.7 44.55-22.64m-29.31 16.93c-24.12 13.91-37.61 49.96-19.19 73.41 7.95 13.82 18.43 26.39 32.15 34.76 28.46 19.07 65.88 19.79 91.92 43.07 6.24 6.34 16.44 10.08 18.41 19.64 0.51 4.12 4.06-0.03 6.1-0.86 11.21 0.48 16.33-11.11 21.46-19.16-8.46-21.19-30.87-35.11-34.64-58.64-12.36-20.57-9.88-47.02-25.34-66-9.79-18.19-30.26-25.93-46.57-36.97-15.25-1.41-32.57-0.45-44.3 10.75m163.08-5.27c-7.09 1.77-14.37 3.9-20.68 7.6-13.31 14.75-27.59 30.7-30.9 51.02 6.95 27.83 16.07 56.4 34.14 79.58 37.31-6.25 70.83-31.7 86.16-66.45 0.33-16.7 8.51-38.03-7.29-49.96-13.79-19.21-38.83-26.13-61.43-21.79m-75.29 19.78c6.47 7.22 13.27 14.29 17.87 22.92 9.86-5.42 13.05-16.89 15.34-27.16-11.07 1.43-22.15 2.8-33.21 4.24m65.31 121.94c4.31 15.38 19.85 24.91 29.16 37.38 7.31-1.39 15.22-0.83 20.13 5.76 3.62 14.35-5.5 31.02-21.88 27.64-0.13 2.94-0.24 5.81-0.25 8.78 7.28 0.1 14.57 0.3 21.85-0.12 5.5-5.02 9.28-11.69 12.88-18.11 1.33-29.68-1.93-59.27-2.84-88.9-17.9 12.7-36.61 25.19-59.05 27.57m-154.87-21.47c1.28 27.67-6.72 55.93 1.75 83.07 1.27 6.59 5.25 14.06 12.85 14.03 5.49-6.97 0.53-19.09 9.13-24.34 10.5-4.75 20.05-11.61 28.43-19.44 5.41-9.79 10.2-20.04 18.93-27.46-17.27-6.34-36.14-7.61-53.19-14.69-5.59-4.3-11.28-8.53-17.9-11.17m62.81 46.66c0.96 3.81 1.96 7.62 2.92 11.43 3.4-0.77 6.8-1.52 10.2-2.28 3.09 4.98 4.12 14.96 12.29 12.94 7.36-7.4 13.28-16.2 19.82-24.34-7.82-5.7-15.67-11.35-23.33-17.24-10.17 2.55-14.5 13.1-21.9 19.49m97.24-3.52c-9.31 4.89-15.17 13.54-22.18 21.05 4.87 6.15 10 12.07 15.12 18.01-0.9 6.93-1.91 13.83-2.95 20.74 7.17 1.23 14.61 5.92 21.68 1.89-0.08-7.89-0.38-16.25 4.52-22.89 4.36 0.79 8.71 2 13.17 1.99 2.8-4.53 7.82-11.18 3.69-16.26-4.37-1.3-8.96-1.6-13.43-2.34-4.53-8.96-12.37-15.49-19.62-22.19m-74.19 43.86c-1.18 3.69-7.98 7.4-6.23 11.49 21.6 6.56 44.24 2.34 66.24 0.82-3.03-7.94-1.42-18.77-10.11-23.25-9.04-5.9-16.74-13.77-20.35-24.15-13.75 7.74-19.16 23.84-29.55 35.09m-44.62-13.32c-5.4 1.69-10.96 3-14.76 7.64 0.31 11.78 12.91 12.71 22.17 12.88 3.87 5.47 2.9 12.61 1 18.62 4.22 4.77 10.63 4.9 16.58 4.29 4.89-7.26 2.36-16.01 3.67-23.92 8.1-6.86 8.91-16.87 6.52-26.56-7.67-1.75-16.16-1.98-22.1-7.85-4.32 5.01-7.93 10.67-13.08 14.9z" fill="#020202"/>
<path d="m38.91 20.96c11.73-11.2 29.05-12.16 44.3-10.75 16.31 11.04 36.78 18.78 46.57 36.97 15.46 18.98 12.98 45.43 25.34 66 3.77 23.53 26.18 37.45 34.64 58.64-5.13 8.05-10.25 19.64-21.46 19.16-2.04 0.83-5.59 4.98-6.1 0.86-1.97-9.56-12.17-13.3-18.41-19.64-26.04-23.28-63.46-24-91.92-43.07-13.72-8.37-24.2-20.94-32.15-34.76-18.42-23.45-4.93-59.5 19.19-73.41m1.82 37.93c-4.02 5.12 2.39 10.35 6.91 12.35 0.46-2.97 0.85-5.95 1.24-8.92-2.74-1.1-5.44-2.28-8.15-3.43m63.35 10.07c-0.09 6.23 2.17 12.01 5.02 17.44 1.12-0.32 2.25-0.65 3.38-0.97 0.8-3.5 1.66-7 2.54-10.49-3.58-2.11-7.12-4.32-10.94-5.98m-33.96 13.05c0.55 4.61 0.78 9.58 3.92 13.29 3.18-1.69 8.04-2.16 8.99-6.27-1.56-5.4-8.32-6.1-12.91-7.02m22.54 30.26c-0.23 5.31 1.35 10.1 6.53 12.1 3.38-6.01 1.09-11.66-6.53-12.1z" fill="#ffcc97"/>
<path d="m201.99 15.69c22.6-4.34 47.64 2.58 61.43 21.79 15.8 11.93 7.62 33.26 7.29 49.96-15.33 34.75-48.85 60.2-86.16 66.45-18.07-23.18-27.19-51.75-34.14-79.58 3.31-20.32 17.59-36.27 30.9-51.02 6.31-3.7 13.59-5.83 20.68-7.6m19.86 32.87c2.79 1.7 5.77 3.05 8.97 3.78-0.16-4.1-0.33-8.19-0.33-12.29-8.53-6.71-10.83-0.22-8.64 8.51m-39.32 8.9c-0.79 3.85-1.61 7.7-2.57 11.51 1.98 1.46 3.97 2.9 5.98 4.31 1.77-5.22 3.66-10.47 4.29-15.98-2.57 0.04-5.14 0.09-7.7 0.16m55.53 21.49c-0.97 6.15-5.14 15.07 2.8 17.91 4.47-4.31 4.18-9.99 3.14-15.56-1.99-0.78-3.96-1.57-5.94-2.35m-54 21.71l-0.08 11.36 8.28-0.3c1.01-6.48-1.85-10.6-8.2-11.06z" fill="#fecc97"/>
<path d="m126.7 35.47c11.06-1.44 22.14-2.81 33.21-4.24-2.29 10.27-5.48 21.74-15.34 27.16-4.6-8.63-11.4-15.7-17.87-22.92z" fill="#99fcfb"/>
<path d="m221.85 48.56c-2.19-8.73 0.11-15.22 8.64-8.51 0 4.1 0.17 8.19 0.33 12.29-3.2-0.73-6.18-2.08-8.97-3.78z" fill="#976532"/>
<path d="m182.53 57.46c2.56-0.07 5.13-0.12 7.7-0.16-0.63 5.51-2.52 10.76-4.29 15.98-2.01-1.41-4-2.85-5.98-4.31 0.96-3.81 1.78-7.66 2.57-11.51z" fill="#976633"/>
<path d="m40.73 58.89c2.71 1.15 5.41 2.33 8.15 3.43-0.39 2.97-0.78 5.95-1.24 8.92-4.52-2-10.93-7.23-6.91-12.35z" fill="#976632"/>
<g fill="#976532">
<path d="m104.08 68.96c3.82 1.66 7.36 3.87 10.94 5.98-0.88 3.49-1.74 6.99-2.54 10.49-1.13 0.32-2.26 0.65-3.38 0.97-2.85-5.43-5.11-11.21-5.02-17.44z"/>
<path d="m238.06 78.95c1.98 0.78 3.95 1.57 5.94 2.35 1.04 5.57 1.33 11.25-3.14 15.56-7.94-2.84-3.77-11.76-2.8-17.91z"/>
<path d="m70.12 82.01c4.59 0.92 11.35 1.62 12.91 7.02-0.95 4.11-5.81 4.58-8.99 6.27-3.14-3.71-3.37-8.68-3.92-13.29z"/>
</g>
<path d="m184.06 100.66c6.35 0.46 9.21 4.58 8.2 11.06l-8.28 0.3 0.08-11.36z" fill="#966531"/>
<path d="m92.66 112.27c7.62 0.44 9.91 6.09 6.53 12.1-5.18-2-6.76-6.79-6.53-12.1z" fill="#966632"/>
<path d="m192.01 157.41c22.44-2.38 41.15-14.87 59.05-27.57 0.91 29.63 4.17 59.22 2.84 88.9-3.6 6.42-7.38 13.09-12.88 18.11-7.28 0.42-14.57 0.22-21.85 0.12 0.01-2.97 0.12-5.84 0.25-8.78 16.38 3.38 25.5-13.29 21.88-27.64-4.91-6.59-12.82-7.15-20.13-5.76-9.31-12.47-24.85-22-29.16-37.38m23.49 16.03c11.64 2.17 18.99-9.81 25.35-17.6-9.35 4.36-18.67 9.54-25.35 17.6m16.43 4.54c4.41-0.95 8.41-3.1 12.41-5.12-4.09-9.2-9.6-0.74-12.41 5.12z" fill="#98fdfb"/>
<path d="m37.14 135.94c6.62 2.64 12.31 6.87 17.9 11.17 17.05 7.08 35.92 8.35 53.19 14.69-8.73 7.42-13.52 17.67-18.93 27.46-8.38 7.83-17.93 14.69-28.43 19.44-8.6 5.25-3.64 17.37-9.13 24.34-7.6 0.03-11.58-7.44-12.85-14.03-8.47-27.14-0.47-55.4-1.75-83.07m11.93 21.94c0.1 1.64 0.29 4.93 0.39 6.57 11.5 1.74 22.67 10.3 34.52 5.77 2.97-0.3 3.3-3.32 3.07-5.99-12.9-0.36-25.74-2.16-37.98-6.35m7.26 17.61c4.6 4.39 11 3.95 16.93 3.53-1.42-8.85-11.04-5.12-16.93-3.53z" fill="#98fdfc"/>
<path d="m215.5 173.44c6.68-8.06 16-13.24 25.35-17.6-6.36 7.79-13.71 19.77-25.35 17.6z" fill="#010808"/>
<path d="m49.07 157.88c12.24 4.19 25.08 5.99 37.98 6.35 0.23 2.67-0.1 5.69-3.07 5.99-11.85 4.53-23.02-4.03-34.52-5.77-0.1-1.64-0.29-4.93-0.39-6.57z" fill="#010605"/>
<path d="m99.95 182.6c7.4-6.39 11.73-16.94 21.9-19.49 7.66 5.89 15.51 11.54 23.33 17.24-6.54 8.14-12.46 16.94-19.82 24.34-8.17 2.02-9.2-7.96-12.29-12.94-3.4 0.76-6.8 1.51-10.2 2.28-0.96-3.81-1.96-7.62-2.92-11.43z" fill="#fccb97"/>
<path d="m231.93 177.98c2.81-5.86 8.32-14.32 12.41-5.12-4 2.02-8 4.17-12.41 5.12z" fill="#01090b"/>
<path d="m56.33 175.49c5.89-1.59 15.51-5.32 16.93 3.53-5.93 0.42-12.33 0.86-16.93-3.53z" fill="#010908"/>
<path d="m197.19 179.08c7.25 6.7 15.09 13.23 19.62 22.19 4.47 0.74 9.06 1.04 13.43 2.34 4.13 5.08-0.89 11.73-3.69 16.26-4.46 0.01-8.81-1.2-13.17-1.99-4.9 6.64-4.6 15-4.52 22.89-7.07 4.03-14.51-0.66-21.68-1.89 1.04-6.91 2.05-13.81 2.95-20.74-5.12-5.94-10.25-11.86-15.12-18.01 7.01-7.51 12.87-16.16 22.18-21.05m-2.23 18.99c0.33 2.91 0.69 5.85 1.05 8.76 1.08 0.39 2.16 0.78 3.24 1.18-0.34-2.48-1.02-7.46-1.36-9.94h-2.93m0.99 15.75c0.1 1.66 0.31 4.99 0.41 6.66 4.38 1.01 5.47-1.93 5.76-5.06-2.06-0.54-4.11-1.08-6.17-1.6z" fill="#fcfdcb"/>
<path d="m123 222.94c10.39-11.25 15.8-27.35 29.55-35.09 3.61 10.38 11.31 18.25 20.35 24.15 8.69 4.48 7.08 15.31 10.11 23.25-22 1.52-44.64 5.74-66.24-0.82-1.75-4.09 5.05-7.8 6.23-11.49m23.73-7.18c-2.15 2-4.31 4-6.48 5.99 2.16 0.84 4.32 1.68 6.5 2.49 0.02-2.82-0.02-5.67-0.02-8.48m12.68 13c2.23 0.41 4.45 0.82 6.69 1.17-0.68-1.86-1.43-3.68-2.21-5.48-1.36 1.57-2.86 3-4.48 4.31z" fill="#98fdfc"/>
<path d="m78.38 209.62c5.15-4.23 8.76-9.89 13.08-14.9 5.94 5.87 14.43 6.1 22.1 7.85 2.39 9.69 1.58 19.7-6.52 26.56-1.31 7.91 1.22 16.66-3.67 23.92-5.95 0.61-12.36 0.48-16.58-4.29 1.9-6.01 2.87-13.15-1-18.62-9.26-0.17-21.86-1.1-22.17-12.88 3.8-4.64 9.36-5.95 14.76-7.64m9.75 2.19c-0.27 2.46-0.55 4.93-0.73 7.4 3.24-0.19 5.45-2.53 7.02-5.15-2.08-0.8-4.18-1.55-6.29-2.25m8.76 25.6c-0.97 3.22-1.59 6.52-1.9 9.87 6.62 1.08 7.95-8.56 1.9-9.87z" fill="#fcfdcc"/>
<path d="m194.96 198.07h2.93c0.34 2.48 1.02 7.46 1.36 9.94-1.08-0.4-2.16-0.79-3.24-1.18-0.36-2.91-0.72-5.85-1.05-8.76z" fill="#4f330c"/>
<path d="m88.13 211.81c2.11 0.7 4.21 1.45 6.29 2.25-1.57 2.62-3.78 4.96-7.02 5.15 0.18-2.47 0.46-4.94 0.73-7.4z" fill="#5b3511"/>
<path d="m195.95 213.82c2.06 0.52 4.11 1.06 6.17 1.6-0.29 3.13-1.38 6.07-5.76 5.06-0.1-1.67-0.31-5-0.41-6.66z" fill="#593711"/>
<path d="m146.73 215.76c0 2.81 0.04 5.66 0.02 8.48-2.18-0.81-4.34-1.65-6.5-2.49 2.17-1.99 4.33-3.99 6.48-5.99z" fill="#000d0f"/>
<path d="m159.41 228.76c1.62-1.31 3.12-2.74 4.48-4.31 0.78 1.8 1.53 3.62 2.21 5.48-2.24-0.35-4.46-0.76-6.69-1.17z" fill="#001318"/>
<path d="m96.89 237.41c6.05 1.31 4.72 10.95-1.9 9.87 0.31-3.35 0.93-6.65 1.9-9.87z" fill="#5e330b"/>
</svg>
