<?xml version="1.0"?>
<svg xmlns:rdf="http://www.w3.org/1999/02/22-rdf-syntax-ns#" xmlns="http://www.w3.org/2000/svg" xmlns:cc="http://creativecommons.org/ns#" xmlns:xlink="http://www.w3.org/1999/xlink" xmlns:dc="http://purl.org/dc/elements/1.1/" xmlns:svg="http://www.w3.org/2000/svg" id="svg2" height="297mm" width="210mm" version="1.0">
  <defs id="defs4">
    <linearGradient id="linearGradient6943">
      <stop id="stop6945" stop-color="#f5f5f5" offset="0"/>
      <stop id="stop6947" stop-color="#fff" stop-opacity="0" offset="1"/>
    </linearGradient>
    <linearGradient id="linearGradient6054">
      <stop id="stop6056" stop-color="#f2f2f2" offset="0"/>
      <stop id="stop6062" stop-color="#b6b6b6" offset=".5"/>
      <stop id="stop6058" stop-color="#e8e8e8" offset="1"/>
    </linearGradient>
    <linearGradient id="linearGradient6440" y2="414.86" gradientUnits="userSpaceOnUse" y1="414.86" x2="1169" x1="643">
      <stop id="stop6406" offset="0"/>
      <stop id="stop6416" offset=".12"/>
      <stop id="stop6412" stop-color="#fff" offset=".17"/>
      <stop id="stop6414" stop-color="#fff" offset=".61111"/>
      <stop id="stop6418" stop-color="#fff" offset=".85"/>
      <stop id="stop6420" offset=".91"/>
      <stop id="stop6408" offset="1"/>
    </linearGradient>
    <mask id="mask6436">
      <rect id="rect6438" height="265" width="526" y="282.36" x="643" fill="url(#linearGradient6440)"/>
    </mask>
    <filter id="filter6802" y="-.12333" width="1.1625" height="1.2467" x="-.081244">
      <feGaussianBlur id="feGaussianBlur6804" stdDeviation="4.2653061"/>
    </filter>
    <filter id="filter6915">
      <feGaussianBlur id="feGaussianBlur6917" stdDeviation="2.9834276"/>
    </filter>
    <filter id="filter6935">
      <feGaussianBlur id="feGaussianBlur6937" stdDeviation="4.2568827"/>
    </filter>
    <filter id="filter6989" y="-.08493" width="1.3817" height="1.1699" x="-.19086">
      <feGaussianBlur id="feGaussianBlur6991" stdDeviation="11.009997"/>
    </filter>
    <filter id="filter7029" y="-.10493" width="1.3958" height="1.2099" x="-.19791">
      <feGaussianBlur id="feGaussianBlur7031" stdDeviation="10.031278"/>
    </filter>
    <linearGradient id="linearGradient7071" x1="476.27" xlink:href="#linearGradient6943" gradientUnits="userSpaceOnUse" y1="202.42" gradientTransform="translate(4,-8)" x2="351.89" y2="182.62"/>
    <linearGradient id="linearGradient7073" x1="247.34" xlink:href="#linearGradient6943" gradientUnits="userSpaceOnUse" y1="98.475" gradientTransform="matrix(.99118 -.13256 .13256 .99118 -10.356 55.032)" x2="358.87" y2="98.475"/>
    <linearGradient id="linearGradient7075" x1="550.22" gradientUnits="userSpaceOnUse" y1="595.75" gradientTransform="matrix(.89914 0 0 1.0591 55.496 -26.169)" x2="728.68" y2="595.75">
      <stop id="stop6808" stop-color="#ddd" offset="0"/>
      <stop id="stop6810" stop-color="#f2f2f2" offset="1"/>
    </linearGradient>
    <linearGradient id="linearGradient7077" x1="152.36" xlink:href="#linearGradient6054" gradientUnits="userSpaceOnUse" y1="383.79" gradientTransform="matrix(.92955 0 0 1.0012 35.501 -.53078)" x2="578.06" y2="383.79"/>
    <linearGradient id="linearGradient7079" x1="152.08" xlink:href="#linearGradient6054" gradientUnits="userSpaceOnUse" y1="627.53" gradientTransform="matrix(.95330 0 0 1.0004 26.869 -.24839)" x2="578.13" y2="627.53"/>
    <linearGradient id="linearGradient7081" x1="152.85" gradientUnits="userSpaceOnUse" y1="383.79" gradientTransform="matrix(.94830 0 0 1.0006 28.654 -.31637)" x2="577.57" y2="383.79">
      <stop id="stop6094" stop-color="#d3d3d3" offset="0"/>
      <stop id="stop6096" stop-color="#e2e2e2" offset=".5"/>
      <stop id="stop6098" stop-color="#bbb" offset="1"/>
    </linearGradient>
    <linearGradient id="linearGradient7083" x1="205.5" gradientUnits="userSpaceOnUse" y1="394.09" gradientTransform="matrix(.95330 0 0 .86145 30.205 52.017)" x2="534.5" y2="394.09">
      <stop id="stop6446" stop-color="#fff" stop-opacity="0" offset="0"/>
      <stop id="stop6448" stop-color="#fff" stop-opacity=".30928" offset="1"/>
    </linearGradient>
    <linearGradient id="linearGradient7125" y2="436.05" gradientUnits="userSpaceOnUse" y1="436.05" x2="572.57" x1="177.4">
      <stop id="stop7121" stop-color="#3d2f11" offset="0"/>
      <stop id="stop7123" stop-color="#3d2f11" offset="1"/>
    </linearGradient>
    <filter id="filter8951" y="-.18968" width="1.1312" height="1.3794" x="-.065608">
      <feGaussianBlur id="feGaussianBlur8953" stdDeviation="11.331969"/>
    </filter>
    <linearGradient id="linearGradient2398" x1="182.73" gradientUnits="userSpaceOnUse" y1="612.37" gradientTransform="matrix(1 0 0 1.1669 0 -84.677)" x2="193.05" y2="612.37">
      <stop id="stop7315" stop-color="#3d2e11" offset="0"/>
      <stop id="stop7317" stop-color="#2e220b" offset="1"/>
    </linearGradient>
  </defs>
  <rect id="rect7085" opacity=".95918" height="1055" width="746.7" y=".1873" x="-2.8284"/>
  <g id="g7057" transform="translate(-40 77.657)">
    <path id="path6072" fill="url(#linearGradient7077)" d="m374.98 311.98c109.46 0 197.59 31.99 197.59 71.72 0 39.74-88.13 71.72-197.59 71.72s-197.58-31.98-197.58-71.72c0-39.73 88.12-71.72 197.58-71.72z"/>
    <path id="path6120" d="m907.17 364.43c114.83 0 207.23 31.97 207.23 71.69 0 39.71-92.4 71.69-207.23 71.69s-207.27-31.98-207.27-71.69c0-39.72 92.44-71.69 207.27-71.69z" mask="url(#mask6436)" transform="matrix(.98090 0 0 1.0004 -520.47 -6.42)" filter="url(#filter8951)" fill="#3d2e11"/>
    <path id="path6100" fill="url(#linearGradient7125)" d="m374.98 364.33c109.46 0 197.59 31.99 197.59 71.72 0 39.74-88.13 71.72-197.59 71.72s-197.58-31.98-197.58-71.72c0-39.73 88.12-71.72 197.58-71.72z"/>
    <path id="path2167" fill="url(#linearGradient7079)" d="m172.57 383.69c0.33 0.05-0.03 417.02-0.44 416.02 0 39.71 90.43 71.69 202.78 71.69 112.36 0 202.82-31.98 202.82-71.69l-0.27-416.02h-4.89c0 39.74-88.13 71.72-197.6 71.72-109.46 0-197.57-31.98-197.57-71.72h-4.83z"/>
    <path id="path6110" stroke="url(#linearGradient7081)" stroke-width="9.741" fill="none" d="m374.98 311.98c109.46 0 197.59 31.99 197.59 71.72 0 39.74-88.13 71.72-197.59 71.72s-197.58-31.98-197.58-71.72c0-39.73 88.12-71.72 197.58-71.72z"/>
    <path id="path6442" opacity=".6898" fill-rule="evenodd" fill="url(#linearGradient7083)" d="m455.08 377.63c32.03 5.17 65.99 17.07 73.19 23.86 13.33 10.82-57.33 10.35-84.17 4.25m-21.78-4.39c-8.51-2.38-16.42-4.9-24.09-7.25-57.86-17.73-78.14-10.71-153.14-5.05 55.84-16.05 126.87-20.47 187.44-14.11"/>
  </g>
  <g id="g7051" transform="translate(-40 77.657)" fill-rule="evenodd">
    <path id="path6490" fill="url(#linearGradient7075)" d="m576.21 485.44c41.49-2.49 106.67-17.69 102.92 116.2-2.78 97.99-98.95 100.89-106.41 105.21-18.64 10.81-37.76 75.16-3.82 55.3 33.95-19.86 140.53-24.51 141.76-161.38 1.56-174-94.54-159.75-136.25-154.52-27.43 3.44-28.61 41.01 1.8 39.19z"/>
    <path id="path6666" opacity=".74286" d="m571.5 447.61c113.47-22.94 150.74 46.04 154.5 119.75l-5.5 7.5c-3.73-74.99-38.24-132.16-160.75-111.5l11.75-15.75z" transform="matrix(.89914 0 0 1.0591 55.496 -26.169)" filter="url(#filter6935)" fill="#fbfbfb"/>
    <path id="path6724" opacity=".089796" filter="url(#filter6802)" transform="matrix(.89914 0 0 1.0591 55.496 -26.169)" d="m579 693.36l-14 20.5c80.71-7.76 147.36-53.71 134.5-120.5-6.64 50.33-62.65 104.93-120.5 100z"/>
    <path id="path6814" opacity=".077551" filter="url(#filter6915)" transform="matrix(.89914 0 0 1.1916 51.899 -94.083)" d="m604 478.86l-28.5 4.22c100.66-15.01 136.53 41.77 121 112.38 33.78-87.15-40.26-121.89-92.5-116.6z"/>
  </g>
  <g id="g7065" opacity=".75102" transform="translate(-40 77.657)" fill-rule="evenodd">
    <path id="path6939" opacity=".95918" filter="url(#filter6989)" fill="url(#linearGradient7071)" d="m398.57 349.98c-41.96-45.46-78.51-80.43 21.21-188.09 42.06-45.4 17.66-100.04-24.04-123.03 115.43 25.342 114.25 94.95 73.54 149.9-34.07 45.99-65.29 102.37-70.71 161.22z"/>
    <path id="path6941" filter="url(#filter7029)" fill="url(#linearGradient7073)" d="m322.27 224.89c31.48-33.22 78.53-107.5-14.39-163.79-39.19-23.743-22.77-46.547 10.38-65.656-94.98 28.881-92.81 93.838-45.74 107.51 74.76 21.72 64.74 83.76 49.75 121.94z"/>
  </g>
  <path id="path7311" opacity=".75918" fill-rule="evenodd" fill="url(#linearGradient2398)" d="m196.75 507.5s-10.58 4.51-10.78 7.97c-1.78 29.94-3 158.72-2.97 208.91-2.5 8.89-6.55 33.15 5 26.84 12.25-6.7 8.93-16.97 8-25.1-2.59-22.65-4.95-157.24 3.62-197.43 11.84 13.88 6.13 49.66 6.38 68.78-2.5 3.44-6.55 19.32 5 16.87 12.25-2.59 8.54-13.06 8-16.22-0.47-2.75-9.61-56.37 3.08-71.23 0.88-1.03 12.44-8.72 12.44-8.72l-22.71-5.79c0-0.01 0.07-0.07 0.07-0.07l-15.13-4.81z"/>
  <metadata>
    <rdf:RDF>
      <cc:Work>
        <dc:format>image/svg+xml</dc:format>
        <dc:type rdf:resource="http://purl.org/dc/dcmitype/StillImage"/>
        <cc:license rdf:resource="http://creativecommons.org/licenses/publicdomain/"/>
        <dc:publisher>
          <cc:Agent rdf:about="http://openclipart.org/">
            <dc:title>Openclipart</dc:title>
          </cc:Agent>
        </dc:publisher>
        <dc:title>Coffee Cup</dc:title>
        <dc:date>2007-11-04T20:46:33</dc:date>
        <dc:description>hot coffee P:</dc:description>
        <dc:source>http://openclipart.org/detail/10763/coffee-cup-by-sl4yerpl-10763</dc:source>
        <dc:creator>
          <cc:Agent>
            <dc:title>sl4yerPL</dc:title>
          </cc:Agent>
        </dc:creator>
        <dc:subject>
          <rdf:Bag>
            <rdf:li>clip art</rdf:li>
            <rdf:li>clipart</rdf:li>
            <rdf:li>coffee</rdf:li>
            <rdf:li>coffeecup</rdf:li>
            <rdf:li>cup</rdf:li>
            <rdf:li>drink</rdf:li>
            <rdf:li>hot</rdf:li>
            <rdf:li>how i did it</rdf:li>
            <rdf:li>image</rdf:li>
            <rdf:li>media</rdf:li>
            <rdf:li>png</rdf:li>
            <rdf:li>public domain</rdf:li>
            <rdf:li>svg</rdf:li>
          </rdf:Bag>
        </dc:subject>
      </cc:Work>
      <cc:License rdf:about="http://creativecommons.org/licenses/publicdomain/">
        <cc:permits rdf:resource="http://creativecommons.org/ns#Reproduction"/>
        <cc:permits rdf:resource="http://creativecommons.org/ns#Distribution"/>
        <cc:permits rdf:resource="http://creativecommons.org/ns#DerivativeWorks"/>
      </cc:License>
    </rdf:RDF>
  </metadata>
</svg>
