<?xml version="1.0"?>
<svg xmlns:rdf="http://www.w3.org/1999/02/22-rdf-syntax-ns#" xmlns="http://www.w3.org/2000/svg" xmlns:cc="http://creativecommons.org/ns#" xmlns:dc="http://purl.org/dc/elements/1.1/" xmlns:svg="http://www.w3.org/2000/svg" id="svg2" viewBox="0 0 850 850" version="1.1">
  <g id="layer1" display="none" transform="translate(104.94 -205.15)">
    <path id="path3823" fill-opacity=".12698" fill="#0f0" transform="matrix(5.069 0 0 3.4771 4431.8 -1662.7)" d="m-727.31 659.41c0 67.505-37.538 122.23-83.843 122.23s-83.843-54.724-83.843-122.23c0-67.505 37.538-122.23 83.843-122.23s83.843 54.724 83.843 122.23z"/>
    <path id="path3924" fill-opacity=".12169" fill="#008000" transform="matrix(3.8925 -2.3375 1.51 2.6152 2481.7 -2990.4)" d="m-727.31 659.41c0 67.505-37.538 122.23-83.843 122.23s-83.843-54.724-83.843-122.23c0-67.505 37.538-122.23 83.843-122.23s83.843 54.724 83.843 122.23z"/>
    <rect id="rect2985" y="-147.64" width="50" x="-591.43" height="600"/>
    <rect id="rect2985-1" transform="rotate(-20)" height="600" width="50" y="420.06" x="162.92"/>
    <rect id="rect2985-1-7" transform="matrix(-.93969 -.34202 -.34202 .93969 0 0)" height="600" width="50" y="200.99" x="-438.96"/>
    <path id="path3797" d="m296.76 321.9c10.284-28.254 36.821-28.166 46.984 0l-23.492 81.646z"/>
    <path id="path3799" stroke="#000" stroke-width="1px" fill="none" d="m292.69 293.74h59.346"/>
    <path id="path3807" d="m548.96 885.72c-130.65-212.75-181.72-264.81-307.82-264.81 171.11 35.41 245.72 256.54 260.83 281.91z"/>
    <path id="path3799-4" stroke="#000" stroke-width="1px" fill="none" d="m-1740.8 1011.7h59.346"/>
    <path id="path3926" fill-opacity=".63636" fill="#500" d="m-392.81 1108.9c-11.687 34.644 15.388 90.81 182.17 102.09l-0.65943 50.245c-64.183 2.2531-261.41-27.878-228.5-169.44z"/>
    <path id="path3105" d="m-245.01 979.06 0.65625-50.25-0.0937-0.094c-10 0.3566-19.995 0.4081-29.969-0.031-23.826-1.0497-47.666-4.4129-70.844-10.031-23.04-5.5848-45.677-13.409-67.188-23.375-21.574-9.9954-42.285-22.16-61.438-36.25-19.436-14.299-37.543-30.601-53.656-48.562-16.618-18.524-31.396-38.888-43.844-60.438-8.7272-15.108-16.306-30.944-22.781-47.187h-0.0625l-42.375 16.625c10.641 25.228 23.873 49.49 39.188 72.187 15.203 22.532 32.686 43.686 51.906 62.906s40.374 36.703 62.906 51.906c22.697 15.314 46.959 28.547 72.188 39.187 25.655 10.821 52.496 19.198 79.781 24.75 28.119 5.7215 56.93 8.6563 85.625 8.6563z" fill="#f00"/>
    <path id="path3823-88" transform="translate(0 -1947.6)" d="m320.03 2152.8c-28.696 0-57.506 2.9036-85.625 8.625-27.285 5.5516-54.126 13.929-79.781 24.75-25.228 10.641-49.49 23.873-72.188 39.188-22.532 15.203-43.686 32.686-62.906 51.906s-36.703 40.374-51.906 62.906c-15.314 22.697-28.547 46.959-39.188 72.188-10.821 25.655-19.198 52.496-24.75 79.781-5.7214 28.119-8.6562 56.961-8.6562 85.656 0 28.696 2.9348 57.506 8.6562 85.625 5.5516 27.285 13.929 54.126 24.75 79.781-156.5-467.02 485.13-755.69 717.94-361.41 12.698 21.505 22.789 44.652 30.594 68.375 7.6165 23.15 12.794 47.231 15.625 71.438 2.8031 23.964 3.1384 48.322 1.25 72.375-1.8873 24.038-6.1452 47.999-12.531 71.25-6.4229 23.386-15.079 46.253-25.75 68.031-10.793 22.028-23.706 43.136-38.438 62.75-15.009 19.984-31.958 38.68-50.5 55.438-19.095 17.258-39.964 32.753-62.031 46-21.994 13.203-45.36 24.322-69.5 33-23.297 8.3752-47.552 14.461-72.031 18.156-14.043 2.1197-28.252 3.4154-42.477 3.9227l-0.42716 0.2676-0.1275 49.998c28.696 0 57.537-2.9348 85.656-8.6563 27.285-5.5515 54.126-13.929 79.781-24.75 25.228-10.64 49.49-23.873 72.188-39.187 22.532-15.203 43.686-32.686 62.906-51.906s36.703-40.374 51.906-62.906c15.314-22.697 28.547-46.959 39.188-72.187 10.821-25.655 19.198-52.496 24.75-79.781 5.7214-28.119 8.625-56.93 8.625-85.625 0-28.696-2.9036-57.537-8.625-85.656-5.5516-27.285-13.929-54.126-24.75-79.781-10.641-25.228-23.873-49.49-39.188-72.188-15.203-22.532-32.686-43.686-51.906-62.906s-40.374-36.703-62.906-51.906c-22.697-15.314-46.959-28.547-72.188-39.188-25.655-10.821-52.496-19.198-79.781-24.75-28.119-5.7214-56.961-8.625-85.656-8.625z"/>
    <path id="path3825" d="m118.82 883.48c-33.745 93.041 116.42 146.7 201.28 146.7" stroke="#008000" stroke-linecap="round" stroke-width="50" fill="none"/>
  </g>
  <g id="layer2" transform="translate(-1636.3 -352.79)">
    <rect id="rect3025" transform="translate(1636.3 352.79)" height="850" width="850" y="0" x="0" fill="#ffd5d5"/>
    <path id="rect2985-1-71" d="m2061.3 352.79c-28.696 0-57.506 2.9036-85.625 8.625-27.285 5.5516-54.126 13.929-79.781 24.75-25.228 10.641-49.49 23.873-72.188 39.188-22.532 15.203-43.686 32.686-62.906 51.906s-36.703 40.374-51.906 62.906c-15.314 22.697-28.547 46.959-39.188 72.188-10.821 25.655-19.198 52.496-24.75 79.781-5.7214 28.119-8.6562 56.961-8.6562 85.656 0 28.696 2.9348 57.506 8.6562 85.625 5.5516 27.285 13.929 54.126 24.75 79.781-156.5-467.01 485.13-755.69 717.94-361.41 12.698 21.505 22.789 44.652 30.594 68.375 7.6164 23.15 12.793 47.231 15.625 71.438 2.8031 23.964 3.1384 48.322 1.25 72.375-1.8874 24.038-6.1453 47.999-12.531 71.25-6.4229 23.386-15.079 46.254-25.75 68.031-10.793 22.028-23.706 43.136-38.438 62.75-15.009 19.984-31.958 38.679-50.5 55.437-19.095 17.258-39.964 32.753-62.031 46-21.994 13.203-45.36 24.322-69.5 33-23.297 8.3753-47.439 15.306-72.031 18.156-75.556 8.7582-243-47.386-222.13-104.75l100.19-275.31 79.125-217.34 113.88 312.87c-60.906-73.568-111.15-95.531-193-95.531 171.11 35.408 245.73 256.54 260.84 281.91l46.969-17.094-205.22-563.81c-10.163-28.166-36.685-28.254-46.969 0-34.848 96.732-188.88 520.89-204.75 564-9.2338 25.079-1.6026 51.784 10.531 72.406 13.84 23.522 35.6 41.148 60.062 55.094 50.525 23.056 107.06 41.756 157.53 41.75 28.664 0 57.474-2.941 85.562-8.6562 27.285-5.5516 54.126-13.929 79.781-24.75 25.228-10.641 49.49-23.873 72.187-39.188 22.532-15.203 43.686-32.686 62.906-51.906s36.703-40.374 51.906-62.906c15.314-22.697 28.547-46.959 39.187-72.188 10.821-25.655 19.198-52.496 24.75-79.781 5.7214-28.119 8.625-56.93 8.625-85.625 0-28.696-2.9036-57.537-8.625-85.656-5.5516-27.285-13.929-54.126-24.75-79.781-10.64-25.228-23.873-49.49-39.187-72.188-15.203-22.532-32.686-43.686-51.906-62.906s-40.374-36.703-62.906-51.906c-22.697-15.314-46.959-28.547-72.187-39.188-25.656-10.821-52.496-19.198-79.781-24.75-28.119-5.7214-56.961-8.625-85.656-8.625z"/>
    <text id="text3021" style="word-spacing:0px;letter-spacing:0px" font-family="Arial" xml:space="preserve" font-size="40px" line-height="125%" font-style="oblique" y="1050.4479" x="1903.7749" font-weight="bold" fill="#000000">
      <tspan id="tspan3023" y="1050.4479" x="1903.7749">Atheism Symbol</tspan>
    </text>
  </g>
  <metadata>
    <rdf:RDF>
      <cc:Work>
        <dc:format>image/svg+xml</dc:format>
        <dc:type rdf:resource="http://purl.org/dc/dcmitype/StillImage"/>
        <cc:license rdf:resource="http://creativecommons.org/licenses/publicdomain/"/>
        <dc:publisher>
          <cc:Agent rdf:about="http://openclipart.org/">
            <dc:title>Openclipart</dc:title>
          </cc:Agent>
        </dc:publisher>
        <dc:title>Atheism Symbol (A in Circle)</dc:title>
        <dc:date>2011-12-01T06:23:32</dc:date>
        <dc:description>An intake of an atheism symbol&#xD;\nhttp://www.religioustolerance.org/atheist6.htm</dc:description>
        <dc:source>http://openclipart.org/detail/165878/atheism-symbol-a-in-circle-by-kg</dc:source>
        <dc:creator>
          <cc:Agent>
            <dc:title>kg</dc:title>
          </cc:Agent>
        </dc:creator>
        <dc:subject>
          <rdf:Bag>
            <rdf:li>Atheism</rdf:li>
            <rdf:li>Atheist</rdf:li>
            <rdf:li>Atom</rdf:li>
            <rdf:li>Science</rdf:li>
            <rdf:li>clip art</rdf:li>
            <rdf:li>clipart</rdf:li>
            <rdf:li>disbelief in god</rdf:li>
            <rdf:li>no god</rdf:li>
            <rdf:li>no prejudice</rdf:li>
            <rdf:li>no religion</rdf:li>
            <rdf:li>peace</rdf:li>
          </rdf:Bag>
        </dc:subject>
      </cc:Work>
      <cc:License rdf:about="http://creativecommons.org/licenses/publicdomain/">
        <cc:permits rdf:resource="http://creativecommons.org/ns#Reproduction"/>
        <cc:permits rdf:resource="http://creativecommons.org/ns#Distribution"/>
        <cc:permits rdf:resource="http://creativecommons.org/ns#DerivativeWorks"/>
      </cc:License>
    </rdf:RDF>
  </metadata>
</svg>
