<?xml version="1.0"?>
<svg xmlns:rdf="http://www.w3.org/1999/02/22-rdf-syntax-ns#" xmlns="http://www.w3.org/2000/svg" xmlns:cc="http://web.resource.org/cc/" xmlns:xlink="http://www.w3.org/1999/xlink" xmlns:dc="http://purl.org/dc/elements/1.1/" xmlns:svg="http://www.w3.org/2000/svg" id="svg2" viewBox="0 0 535.39 504.75" version="1.0">
  <defs id="defs4">
    <linearGradient id="linearGradient7449">
      <stop id="stop7451" stop-color="#916a00" offset="0"/>
      <stop id="stop7453" stop-color="#ffc821" offset="1"/>
    </linearGradient>
    <linearGradient id="linearGradient7427">
      <stop id="stop7429" stop-color="#f5cf6a" offset="0"/>
      <stop id="stop7431" stop-color="#fff" offset="1"/>
    </linearGradient>
    <linearGradient id="linearGradient7525" y2="722.19" xlink:href="#linearGradient7449" gradientUnits="userSpaceOnUse" x2="235.66" y1="722.19" x1="103.07"/>
    <linearGradient id="linearGradient3347" y2="782.22" xlink:href="#linearGradient7449" gradientUnits="userSpaceOnUse" x2="184.34" gradientTransform="matrix(.99538 -.017811 .26819 .99984 186.52 -300.68)" y1="782.22" x1="154.25"/>
    <linearGradient id="linearGradient3355" y2="576.72" xlink:href="#linearGradient7427" gradientUnits="userSpaceOnUse" x2="228.15" gradientTransform="matrix(.99919 -.0032160 .25363 1 185.24 -301.64)" y1="576.72" x1="131.79"/>
    <linearGradient id="linearGradient3363" y2="782.22" xlink:href="#linearGradient7449" gradientUnits="userSpaceOnUse" x2="184.34" gradientTransform="matrix(1.0048 .017811 -.26285 -.99984 501.5 872.89)" y1="782.22" x1="154.25"/>
    <linearGradient id="linearGradient3442" y2="782.22" xlink:href="#linearGradient7449" gradientUnits="userSpaceOnUse" x2="184.34" gradientTransform="matrix(.99538 -.017811 .26819 .99984 -118.74 -294.63)" y1="782.22" x1="154.25"/>
    <linearGradient id="linearGradient3450" y2="576.72" xlink:href="#linearGradient7427" gradientUnits="userSpaceOnUse" x2="228.15" gradientTransform="matrix(.99919 -.0032160 .25363 1 -114.26 -291.42)" y1="576.72" x1="131.79"/>
    <linearGradient id="linearGradient3458" y2="782.22" xlink:href="#linearGradient7449" gradientUnits="userSpaceOnUse" x2="184.34" gradientTransform="matrix(1.0048 .017811 -.26285 -.99984 203.29 878.94)" y1="782.22" x1="154.25"/>
    <linearGradient id="linearGradient3561" y2="722.19" xlink:href="#linearGradient7449" gradientUnits="userSpaceOnUse" x2="235.66" gradientTransform="translate(-71.396 -290.23)" y1="722.19" x1="103.07"/>
    <linearGradient id="linearGradient3568" y2="722.19" xlink:href="#linearGradient7449" gradientUnits="userSpaceOnUse" x2="235.66" gradientTransform="translate(.0000065048 -.000031905)" y1="722.19" x1="103.07"/>
  </defs>
  <g id="layer1" transform="translate(-99.982 -38.031)">
    <path id="path7493" d="m164.19 141.46s-0.1-25.57-4.91-43.84c-4.8-18.266-11.24-19.802-13.65-29.96-2.33-9.811 2.6-13.287 9.94-13.157s15.65 3.914 18.21 13.656-3.12 11.14 1.05 29.527c4.27 18.794 18.66 44.554 18.66 44.554s-6.65 3.17-13.97 2.97c-7.33-0.19-15.33-3.75-15.33-3.75z" stroke="#000" fill="url(#linearGradient3458)" fill-rule="evenodd"/>
    <path id="path7485" stroke-linejoin="round" style="color:#000000" d="m170.95 110.46c-3.29 0.04-6.63 0.19-9.94 0.44-35.1 2.66-55.08 17.53-48.47 31.44 0.59 3.19 1.5 5.41 2.25 8.12l6-0.09c14.64 9.91 43.13 15.7 71.41 13.56 22.03-1.67 38.76-7.78 46.12-15.69l6.73-1.6-3.16-11.13 0.09 0.36c-0.31-1.1-0.76-2.21-1.41-3.32-7.79-13.26-37.79-22.47-69.62-22.09z" fill-rule="evenodd" stroke="#000" stroke-linecap="round" fill="url(#linearGradient3561)"/>
    <path id="path7489" stroke-linejoin="round" style="color:#000000" d="m243.42 142.07c8.61 14.64-13.06 28.69-48.36 31.37-35.31 2.67-70.94-7.03-79.54-21.67-8.61-14.64 13.06-28.7 48.36-31.37 35.31-2.68 70.94 7.03 79.54 21.67z" fill-rule="evenodd" stroke="#000" stroke-linecap="round" fill="#a80"/>
    <path id="rect2774" stroke-linejoin="round" style="color:#000000" d="m131.05 152.78c-0.58-5.81 21.26-13.85 44.85-13.85 23.58 0 48.91 8.04 50.08 13.55 18.44 74.42 70.42 277.87 70.42 277.87l-94.92 0.31s-50.1-194.69-70.43-277.88z" fill-rule="evenodd" stroke="#000" stroke-linecap="round" fill="url(#linearGradient3450)"/>
    <path id="path2790" stroke-linejoin="round" style="color:#000000" d="m242.34 400.69c-3.29 0.04-6.62 0.18-9.93 0.43-35.11 2.67-55.09 17.54-48.47 31.45 0.59 3.19 1.5 5.41 2.25 8.12l6-0.1c14.64 9.92 43.13 15.71 71.4 13.57 22.04-1.67 38.76-7.78 46.13-15.69l6.72-1.6-3.15-11.13 0.09 0.35c-0.32-1.09-0.76-2.2-1.41-3.31-7.8-13.27-37.79-22.47-69.63-22.09z" fill-rule="evenodd" stroke="#000" stroke-linecap="round" fill="url(#linearGradient3568)"/>
    <path id="path2794" d="m182.47 428.56l2.91 10.28" stroke="#000" fill="none"/>
    <path id="path2782" stroke-linejoin="round" style="color:#000000" d="m314.82 432.3c8.6 14.64-13.06 28.69-48.37 31.37-35.3 2.67-70.93-7.04-79.54-21.68-8.6-14.64 13.07-28.69 48.37-31.37 35.3-2.67 70.94 7.04 79.54 21.68z" fill-rule="evenodd" stroke="#000" stroke-linecap="round" fill="#a80"/>
    <path id="path2780" d="m233.84 442.85s13.48 25.58 18.38 43.85c4.9 18.26-0.72 19.8 2.26 29.96 2.88 9.81 9.66 13.28 16.93 13.15s13.57-3.91 10.96-13.65c-2.62-9.74-9.03-11.14-14.63-29.53-5.72-18.8-5-44.55-5-44.55s-8.34-3.17-15.56-2.98c-7.22 0.2-13.34 3.75-13.34 3.75z" stroke="#000" fill="url(#linearGradient3442)" fill-rule="evenodd"/>
    <path id="path2937" d="m227.81 159.88c76.26 6.99 131.55 4.11 208.42-1.22l63.19 250.53c-4.6 2.4-6.48 3.96-9.88 6.82-59.91 10-119.21 7.67-183.44 0.41-5.06-3.49-8.71-5.59-16.18-8.53l-62.11-248.01z" stroke="#000" fill="#ffffec" fill-rule="evenodd"/>
    <path id="path7497" d="m462.4 135.41s-0.1-25.58-4.91-43.843c-4.8-18.267-11.24-19.802-13.65-29.961-2.33-9.81 2.6-13.286 9.94-13.156s15.65 3.913 18.21 13.655-3.12 11.141 1.05 29.528c4.27 18.797 18.66 44.547 18.66 44.547s-6.65 3.17-13.97 2.98c-7.33-0.19-15.33-3.75-15.33-3.75z" stroke="#000" fill="url(#linearGradient3363)" fill-rule="evenodd"/>
    <g id="g7499" transform="matrix(.99538 -.017811 .26819 .99984 112.56 -590.27)">
      <g id="g7501" stroke="#000">
        <path id="path7503" stroke-linejoin="round" style="color:#000000" d="m242.34 400.69c-3.29 0.04-6.62 0.18-9.93 0.43-35.11 2.67-55.09 17.54-48.47 31.45 0.59 3.19 1.5 5.41 2.25 8.12l6-0.1c14.64 9.92 43.13 15.71 71.4 13.57 22.04-1.67 38.76-7.78 46.13-15.69l6.72-1.6-3.15-11.13 0.09 0.35c-0.32-1.09-0.76-2.2-1.41-3.31-7.8-13.27-37.79-22.47-69.63-22.09z" fill-rule="evenodd" transform="matrix(.99984 .017811 -.26819 .99538 36.083 292.11)" stroke-linecap="round" fill="url(#linearGradient7525)"/>
        <path id="path7505" d="m103.59 721.94l0.16 10.29" fill="none"/>
        <path id="path7507" stroke-linejoin="round" style="color:#000000" d="m279.9 456.83c0 15.45-28.36 27.99-63.3 27.99s-63.3-12.54-63.3-27.99 28.36-27.99 63.3-27.99 63.3 12.54 63.3 27.99z" fill-rule="evenodd" transform="matrix(1.0307 -.058246 .30269 .95309 -191.86 308.92)" stroke-linecap="round" fill="#a80"/>
      </g>
    </g>
    <path id="path7509" stroke-linejoin="round" style="color:#000000" d="m430.54 142.56c-0.58-5.81 21.27-13.85 44.85-13.85s48.91 8.04 50.08 13.55c18.44 74.42 70.42 277.87 70.42 277.87l-94.92 0.31s-50.1-194.69-70.43-277.88z" fill-rule="evenodd" stroke="#000" stroke-linecap="round" fill="url(#linearGradient3355)"/>
    <g id="g7511" transform="matrix(.99538 -.017811 .26819 .99984 190.36 -294.27)">
      <g id="g7513" stroke="#000">
        <path id="path7515" stroke-linejoin="round" style="color:#000000" d="m242.34 400.69c-3.29 0.04-6.62 0.18-9.93 0.43-35.11 2.67-55.09 17.54-48.47 31.45 0.59 3.19 1.5 5.41 2.25 8.12l6-0.1c14.64 9.92 43.13 15.71 71.4 13.57 22.04-1.67 38.76-7.78 46.13-15.69l6.72-1.6-3.15-11.13 0.09 0.35c-0.32-1.09-0.76-2.2-1.41-3.31-7.8-13.27-37.79-22.47-69.63-22.09z" fill-rule="evenodd" transform="matrix(.99984 .017811 -.26819 .99538 36.083 292.11)" stroke-linecap="round" fill="url(#linearGradient7525)"/>
        <path id="path7517" d="m103.59 721.94l0.16 10.29" fill="none"/>
        <path id="path7519" stroke-linejoin="round" style="color:#000000" d="m279.9 456.83c0 15.45-28.36 27.99-63.3 27.99s-63.3-12.54-63.3-27.99 28.36-27.99 63.3-27.99 63.3 12.54 63.3 27.99z" fill-rule="evenodd" transform="matrix(1.0307 -.058246 .30269 .95309 -191.86 308.92)" stroke-linecap="round" fill="#a80"/>
      </g>
    </g>
    <path id="path7521" d="m539.11 436.8s13.48 25.58 18.38 43.84c4.89 18.27-0.73 19.8 2.25 29.96 2.88 9.81 9.66 13.29 16.93 13.16 7.28-0.13 13.57-3.91 10.96-13.66-2.62-9.74-9.03-11.14-14.63-29.52-5.72-18.8-5-44.55-5-44.55s-8.34-3.17-15.56-2.98-13.33 3.75-13.33 3.75z" stroke="#000" fill="url(#linearGradient3347)" fill-rule="evenodd"/>
    <path id="text4748" d="m334.35 210.95l-0.39-0.12v-12.36c0-0.86-0.14-1.49-0.41-1.9s-0.99-0.72-2.19-0.91c-1.81-0.3-2.71-1.2-2.71-2.72 0-1.09 0.34-1.97 1.03-2.62h0.49c0.09 0.73 0.59 1.18 1.48 1.34l1.5 0.23c0.84 0.13 1.44 0.45 1.83 0.96 0.39 0.52 0.59 1.54 0.59 3.06v12.83c0 1.06-0.41 1.8-1.22 2.21m-11.27-8.88l-0.5-0.58c1.27-0.94 1.9-2.25 1.9-3.93 0-1.21-0.89-1.84-2.67-1.92-1.98-0.07-2.97-0.91-2.97-2.52 0-0.83 0.28-1.77 0.84-2.8h0.49c0.12 0.81 0.66 1.25 1.63 1.34l1.62 0.1c1.6 0.12 2.4 1.23 2.4 3.31v1.34c0 2.83-0.91 4.71-2.74 5.66m-7.97 8.87h-0.49c-0.07-0.92-0.38-1.69-0.93-2.31l-7.76-8.91c-1.32 0.67-1.98 1.53-1.98 2.58 0 0.81 0.42 1.85 1.27 3.13 0.97 1.45 1.46 2.61 1.46 3.47 0 1.14-0.43 1.71-1.3 1.71h-3.38v-0.48c0.71-0.19 1.07-0.6 1.07-1.23 0-0.4-0.23-1.18-0.68-2.35-0.45-1.15-0.68-2.05-0.68-2.68 0-1.92 1.18-3.55 3.54-4.9l-2.2-2.48c-0.92-1.05-1.37-2.14-1.37-3.28 0-1.02 0.41-1.99 1.25-2.89h0.46c0.06 1.03 0.37 1.87 0.93 2.5l6.73 7.64c0.34-1.72 1-3.32 1.98-4.82-1.89-0.31-2.84-1.26-2.84-2.86 0-0.94 0.24-1.76 0.73-2.46h0.47c0.19 0.73 0.65 1.19 1.37 1.37l1.54 0.36c1.35 0.32 2.02 1.08 2.02 2.27 0 0.53-0.05 0.95-0.16 1.27-0.39 0.12-1.04 0.18-1.95 0.18-1.24 1.96-1.86 3.55-1.86 4.79 0 0.92 0.32 1.74 0.95 2.47l1.66 1.91c0.93 1.07 1.4 2.16 1.4 3.3 0 1.02-0.42 1.92-1.25 2.7m-17.53-3.38l-0.61 3.05h-8.92l0.86-3.64h7.56c0.35-1.3 0.52-2.88 0.52-4.73 0.01-1.83-0.36-3.32-1.13-4.45-0.75-1.13-1.83-1.69-3.23-1.68-1.89 0-3.64 1.2-5.24 3.59s-2.41 6.03-2.44 10.91h-1.2c-0.04-0.6-0.07-1.12-0.07-1.55 0-4.96 1.39-8.96 4.15-12 0-0.46-0.12-0.78-0.36-0.97-0.23-0.2-0.79-0.4-1.66-0.59-1.5-0.32-2.25-1.12-2.25-2.39 0-0.98 0.25-1.91 0.75-2.79h0.48c0.22 0.72 0.68 1.14 1.38 1.25l1.11 0.16c1 0.14 1.5 0.65 1.5 1.52 0 0.17-0.02 0.42-0.07 0.75-0.06 0.35-0.09 0.6-0.09 0.77 0 0.49 0.18 0.85 0.55 1.09 1.98-1.11 3.06-2.56 3.24-4.36 1.92 0.32 3.37 1.4 4.35 3.23 0.99 1.84 1.48 4.21 1.48 7.12 0 1.62-0.22 3.52-0.66 5.71m-18.67 3.39l-0.38-0.12v-8.69c0-2.36-0.13-3.87-0.39-4.53-0.25-0.65-0.67-1.14-1.27-1.46-0.59-0.33-1.34-0.49-2.25-0.49h-5.85c-1.72 0-2.58-0.75-2.58-2.25 0-1.11 0.37-2.09 1.09-2.93h0.47c0.19 0.83 0.78 1.25 1.79 1.25h4.06c2.74 0 4.52 0.4 5.33 1.2 0.82 0.8 1.23 2.53 1.23 5.2v11.05c0 0.74-0.42 1.33-1.25 1.77m-27.67 0.11l-0.29-0.37c0.31-0.53 0.47-1.15 0.47-1.88 0-0.71-0.05-1.76-0.14-3.17-0.1-1.42-0.15-2.48-0.15-3.18 0-2.87 0.7-5.14 2.1-6.8h-10.54c-1.8 0-2.7-0.75-2.7-2.25 0-1.17 0.36-2.15 1.09-2.93h0.48c0.2 0.83 0.76 1.25 1.69 1.25h8.72c0.75 0 1.33 0.12 1.72 0.37s0.59 0.84 0.59 1.76v0.87c0 0.44-0.22 1.02-0.66 1.74-0.43 0.7-0.64 1.8-0.64 3.29 0 0.86 0.13 2.14 0.41 3.86 0.27 1.72 0.41 3.01 0.41 3.86 0 2.13-0.85 3.32-2.56 3.58m-10.82 0.02l-0.25-0.39c0.31-0.33 0.46-0.76 0.46-1.31 0-0.37-0.01-0.93-0.05-1.68-0.03-0.75-0.05-1.31-0.05-1.68 0-2.49 0.89-3.74 2.68-3.74 0.24 0 0.44 0.05 0.61 0.14v0.49c-0.57 0.37-0.86 1.15-0.86 2.34 0 0.39 0.02 0.98 0.07 1.75 0.05 0.78 0.07 1.35 0.07 1.74 0 1.45-0.89 2.23-2.68 2.34m-5.58-14.83l-0.97-5.29c-0.27-1.47-0.41-2.46-0.41-2.97 0-0.76 0.16-1.32 0.47-1.66 0.31-0.35 0.73-0.52 1.27-0.52 0.53 0 0.98 0.18 1.32 0.53 0.36 0.35 0.54 0.81 0.54 1.38 0 0.44-0.16 1.53-0.47 3.26l-0.96 5.27h-0.79m95.15 197.84l-0.4-0.12v-12.36c0-0.86-0.13-1.49-0.41-1.9-0.26-0.41-0.99-0.72-2.18-0.91-1.81-0.3-2.72-1.2-2.72-2.72 0-1.09 0.35-1.97 1.04-2.63h0.48c0.1 0.74 0.59 1.19 1.49 1.34l1.5 0.24c0.83 0.13 1.44 0.45 1.82 0.96 0.4 0.52 0.59 1.54 0.59 3.06v12.82c0 1.07-0.4 1.8-1.21 2.22m-11.27-8.89l-0.5-0.57c1.26-0.94 1.89-2.25 1.89-3.93 0-1.21-0.88-1.85-2.66-1.92-1.98-0.07-2.97-0.91-2.97-2.52 0-0.83 0.28-1.77 0.84-2.81h0.48c0.12 0.81 0.67 1.26 1.63 1.34l1.63 0.11c1.6 0.12 2.4 1.22 2.4 3.31v1.34c0 2.83-0.92 4.71-2.74 5.65m-10.03 9l-0.29-0.38c0.31-0.52 0.46-1.15 0.46-1.87 0-0.71-0.04-1.76-0.14-3.17-0.09-1.42-0.14-2.48-0.14-3.18 0-2.88 0.7-5.14 2.09-6.8h-10.53c-1.8 0-2.7-0.75-2.7-2.25 0-1.17 0.36-2.15 1.09-2.94h0.48c0.19 0.84 0.75 1.26 1.68 1.26h8.73c0.75 0 1.32 0.12 1.72 0.37 0.39 0.25 0.59 0.84 0.59 1.75v0.88c0 0.44-0.22 1.02-0.67 1.74-0.42 0.7-0.64 1.8-0.64 3.29 0 0.85 0.14 2.14 0.41 3.86 0.28 1.72 0.41 3 0.41 3.86 0 2.12-0.85 3.32-2.55 3.58m-10.82 0.02l-0.25-0.4c0.31-0.32 0.46-0.75 0.46-1.3 0-0.37-0.02-0.93-0.05-1.68-0.04-0.75-0.06-1.31-0.06-1.68 0-2.5 0.9-3.74 2.69-3.74 0.23 0 0.44 0.05 0.6 0.14v0.48c-0.57 0.37-0.85 1.15-0.85 2.35 0 0.39 0.02 0.97 0.07 1.75 0.04 0.77 0.07 1.35 0.07 1.73 0 1.46-0.9 2.24-2.68 2.35m-6.19-9.02l-0.5-0.57c1.26-0.94 1.89-2.25 1.89-3.93 0-1.21-0.89-1.85-2.66-1.92-1.98-0.07-2.97-0.91-2.97-2.52 0-0.83 0.28-1.77 0.84-2.81h0.48c0.12 0.81 0.66 1.26 1.63 1.34l1.63 0.11c1.6 0.12 2.39 1.22 2.39 3.31v1.34c0 2.83-0.91 4.71-2.73 5.65m-17.14 8.87h-0.48c-0.07-0.91-0.38-1.68-0.93-2.3l-7.76-8.91c-1.32 0.67-1.99 1.53-1.99 2.58 0 0.81 0.43 1.85 1.27 3.13 0.98 1.45 1.47 2.61 1.47 3.47 0 1.14-0.43 1.71-1.31 1.71h-3.38v-0.48c0.72-0.19 1.08-0.6 1.08-1.23 0-0.4-0.23-1.18-0.68-2.35-0.45-1.15-0.68-2.05-0.68-2.68 0-1.92 1.18-3.55 3.54-4.9l-2.2-2.49c-0.92-1.05-1.38-2.14-1.38-3.27 0-1.02 0.42-1.99 1.25-2.9h0.47c0.06 1.04 0.37 1.88 0.93 2.51l6.72 7.63c0.35-1.71 1.01-3.32 1.99-4.81-1.9-0.31-2.84-1.26-2.84-2.86 0-0.94 0.24-1.76 0.73-2.47h0.46c0.19 0.74 0.65 1.2 1.38 1.38l1.54 0.36c1.35 0.32 2.02 1.08 2.02 2.27 0 0.52-0.05 0.95-0.16 1.27-0.39 0.12-1.04 0.18-1.95 0.18-1.24 1.95-1.86 3.55-1.86 4.79 0 0.92 0.32 1.74 0.95 2.47l1.66 1.91c0.93 1.06 1.4 2.16 1.4 3.29 0 1.03-0.42 1.93-1.26 2.7m-18.45 0.02l-0.4-0.12v-12.36c0-0.86-0.13-1.49-0.41-1.9-0.26-0.41-0.99-0.72-2.18-0.91-1.81-0.3-2.72-1.2-2.72-2.72 0-1.09 0.35-1.97 1.04-2.63h0.48c0.1 0.74 0.59 1.19 1.49 1.34l1.5 0.24c0.83 0.13 1.44 0.45 1.82 0.96 0.4 0.52 0.59 1.54 0.59 3.06v12.82c0 1.07-0.4 1.8-1.21 2.22m-10.16 0l-0.38-0.12v-8.69c0-2.37-0.13-3.87-0.39-4.53-0.25-0.66-0.67-1.14-1.27-1.47-0.58-0.32-1.34-0.48-2.25-0.48h-5.85c-1.72 0-2.58-0.75-2.58-2.25 0-1.11 0.37-2.09 1.09-2.94h0.47c0.19 0.84 0.79 1.26 1.79 1.26h4.06c2.74 0 4.52 0.4 5.33 1.19 0.82 0.8 1.23 2.54 1.23 5.21v11.05c0 0.74-0.42 1.33-1.25 1.77" transform="matrix(1 0 .25042 1 0 0)"/>
    <path id="text4758" d="m220.84 302.53v-2.3h4.13v-27.8h-4.13v-2.33h26.11v7.21h-2.67v-4.54h-14.9v10.86h10.62v-4.06h2.67v10.78h-2.67v-4.07h-10.62v13.58h15.25v-4.54h2.67v7.21h-26.46m34.76-20.11h27.84v3.47h-27.84v-3.47m0 8.86h27.84v3.47h-27.84v-3.47m55.6-7.34c0.77-1.7 1.74-2.97 2.93-3.82 1.2-0.87 2.6-1.31 4.19-1.31 2.42 0 4.22 0.76 5.41 2.26 1.19 1.49 1.78 3.75 1.78 6.78v12.38h3.61v2.3h-11.08v-2.3h3.48v-11.93c0-2.36-0.35-4.04-1.05-5.04-0.69-0.99-1.84-1.49-3.45-1.49-1.78 0-3.14 0.67-4.08 2.02-0.93 1.34-1.39 3.3-1.39 5.88v10.56h3.47v2.3h-10.95v-2.3h3.48v-12.08c0-2.3-0.35-3.94-1.04-4.91-0.7-0.98-1.85-1.47-3.46-1.47-1.78 0-3.14 0.67-4.08 2.02-0.93 1.34-1.39 3.3-1.39 5.88v10.56h3.48v2.3h-11.08v-2.3h3.6v-18.51h-3.82v-2.28h7.82v4.11c0.74-1.54 1.68-2.71 2.82-3.52 1.15-0.81 2.44-1.22 3.89-1.22 1.8 0 3.3 0.45 4.5 1.35 1.2 0.88 2 2.14 2.41 3.78m41.96 11.66c-0.56 2.46-1.65 4.34-3.26 5.63-1.6 1.29-3.68 1.93-6.23 1.93-3.36 0-6.06-1.11-8.1-3.32-2.04-2.23-3.06-5.19-3.06-8.86 0-3.7 1.02-6.64 3.06-8.84 2.04-2.22 4.74-3.33 8.1-3.33 1.46 0 2.92 0.18 4.37 0.52 1.44 0.34 2.9 0.85 4.36 1.55v5.9h-2.32c-0.31-2.02-0.97-3.5-2-4.43-1.01-0.92-2.47-1.39-4.37-1.39-2.15 0-3.78 0.84-4.88 2.52-1.1 1.67-1.65 4.17-1.65 7.5s0.54 5.83 1.62 7.51c1.1 1.68 2.74 2.52 4.91 2.52 1.73 0 3.1-0.45 4.13-1.35 1.03-0.89 1.73-2.25 2.11-4.06h3.21" transform="matrix(1 0 .25042 1 0 0)"/>
    <path id="text4762" d="m361.83 263.25h-1.78v-4.23c1.13-0.6 2.27-1.06 3.41-1.38 1.15-0.31 2.28-0.47 3.38-0.47 2.47 0 4.41 0.6 5.84 1.79 1.43 1.2 2.14 2.82 2.14 4.87 0 2.32-1.62 5.09-4.85 8.32-0.26 0.24-0.45 0.43-0.57 0.55l-5.99 5.99h9.89v-2.92h1.86v5.52h-15.29v-1.73l7.19-7.17c1.59-1.59 2.72-3.05 3.4-4.37 0.68-1.33 1.01-2.73 1.01-4.19 0-1.59-0.41-2.84-1.25-3.74-0.82-0.9-1.97-1.35-3.43-1.35-1.51 0-2.68 0.37-3.5 1.13-0.83 0.75-1.32 1.87-1.46 3.38" transform="matrix(1 0 .25042 1 0 0)"/>
  </g>
  <metadata>
    <rdf:RDF>
      <cc:Work>
        <dc:format>image/svg+xml</dc:format>
        <dc:type rdf:resource="http://purl.org/dc/dcmitype/StillImage"/>
        <cc:license rdf:resource="http://creativecommons.org/licenses/publicdomain/"/>
        <dc:publisher>
          <cc:Agent rdf:about="http://openclipart.org/">
            <dc:title>Openclipart</dc:title>
          </cc:Agent>
        </dc:publisher>
        <dc:title>Tora Scroll with Einstein equation</dc:title>
        <dc:date>2007-05-04T01:54:46</dc:date>
        <dc:description>The illustration contains an ashkenazi type open tora scroll with the text "And God said: E=mc2, and there was light".</dc:description>
        <dc:source>http://openclipart.org/detail/4351/tora-scroll-with-einstein-equation-by-dov</dc:source>
        <dc:creator>
          <cc:Agent>
            <dc:title>dov</dc:title>
          </cc:Agent>
        </dc:creator>
        <dc:subject>
          <rdf:Bag>
            <rdf:li>bible</rdf:li>
            <rdf:li>clip art</rdf:li>
            <rdf:li>clipart</rdf:li>
            <rdf:li>equation</rdf:li>
            <rdf:li>formula</rdf:li>
            <rdf:li>humor</rdf:li>
            <rdf:li>jewish</rdf:li>
            <rdf:li>joke</rdf:li>
            <rdf:li>physics</rdf:li>
            <rdf:li>religion</rdf:li>
            <rdf:li>science</rdf:li>
          </rdf:Bag>
        </dc:subject>
      </cc:Work>
      <cc:License rdf:about="http://creativecommons.org/licenses/publicdomain/">
        <cc:permits rdf:resource="http://creativecommons.org/ns#Reproduction"/>
        <cc:permits rdf:resource="http://creativecommons.org/ns#Distribution"/>
        <cc:permits rdf:resource="http://creativecommons.org/ns#DerivativeWorks"/>
      </cc:License>
    </rdf:RDF>
  </metadata>
</svg>
