<?xml version="1.0"?>
<svg xmlns:rdf="http://www.w3.org/1999/02/22-rdf-syntax-ns#" xmlns="http://www.w3.org/2000/svg" xmlns:cc="http://creativecommons.org/ns#" xmlns:xlink="http://www.w3.org/1999/xlink" xmlns:dc="http://purl.org/dc/elements/1.1/" xmlns:svg="http://www.w3.org/2000/svg" id="svg2" viewBox="0 0 999.54 432.19" version="1.1">
  <defs id="defs4">
    <linearGradient id="linearGradient4018">
      <stop id="stop4020" stop-color="#fff" offset="0"/>
      <stop id="stop4022" stop-color="#fff" stop-opacity="0" offset="1"/>
    </linearGradient>
    <filter id="filter3820" color-interpolation-filters="sRGB">
      <feGaussianBlur id="feGaussianBlur3822" stdDeviation="3.1717235"/>
    </filter>
    <filter id="filter3870" color-interpolation-filters="sRGB">
      <feGaussianBlur id="feGaussianBlur3872" stdDeviation="3.1115323"/>
    </filter>
    <filter id="filter3994" color-interpolation-filters="sRGB">
      <feGaussianBlur id="feGaussianBlur3996" stdDeviation="2.3809261"/>
    </filter>
    <filter id="filter4049" color-interpolation-filters="sRGB">
      <feGaussianBlur id="feGaussianBlur4051" stdDeviation="3.3198965"/>
    </filter>
    <linearGradient id="linearGradient4412" y2="486.68" gradientUnits="userSpaceOnUse" y1="180.6" x2="-418.2" x1="-593.97">
      <stop id="stop3880" stop-color="#f00" offset="0"/>
      <stop id="stop3882" stop-color="#f00" stop-opacity="0" offset="1"/>
    </linearGradient>
    <radialGradient id="radialGradient4414" gradientUnits="userSpaceOnUse" cy="352.74" cx="-5.8499" gradientTransform="matrix(1.5484 .33219 -.538 2.7816 194.23 -635.11)" r="15.657">
      <stop id="stop3927" stop-color="#ff2a2a" offset="0"/>
      <stop id="stop3929" stop-color="#ff2a2a" stop-opacity="0" offset="1"/>
    </radialGradient>
    <radialGradient id="radialGradient4418" xlink:href="#linearGradient4018" gradientUnits="userSpaceOnUse" cy="347.42" cx="-5.5956" gradientTransform="matrix(.36496 3.3035 -3.0192 .23649 1090.3 216.05)" r="15.657"/>
    <linearGradient id="linearGradient4420" y2="363.76" xlink:href="#linearGradient4018" gradientUnits="userSpaceOnUse" x2="13.79" gradientTransform="matrix(1.125 0 0 1.1389 -728.37 148.62)" y1="305.59" x1="-10.337"/>
  </defs>
  <g id="layer1" transform="translate(998.59 -212.09)">
    <g id="g4342">
      <g id="g4053" transform="translate(-65.714 -48.571)">
        <path id="path2998" filter="url(#filter4049)" d="m-755.22 265.27c-59.176 0.93913-116.34 34.134-146.16 85.115-29.298 48.518-31.445 112.1-5.499 162.48 26.868 54.017 83.506 91.131 143.75 94.789 9.8438 0.69319 19.744 0.54798 29.565-0.414-0.0761-2.3796 4.3298-1.6052 5.5625-3.9062 9.66-10.551 10.852-26.332 12.125-40.062 0.42819-17.626-0.23023-36.916-9.6562-52.188-2.9602-5.3248-9.377-6.0157-14.938-5.5938-24.712-1.4234-52.28-8.2007-66.812-29.938-12.447-19.741-13.771-45.798-5.1562-67.219 12.013-29.638 45.149-45.688 76.125-44.004 41.629-0.56809 84.601-0.0867 126.75-0.24614 216.26 0.0209 432.68-0.0418 648.84 0.0312 7.9927 2.1727 12.789-6.8878 15.125-13 7.4925-22.252 7.4803-47.168 0.85082-69.671-2.45-6.6625-6.3221-16.446-14.976-15.642-259.13-0.05-518.59 0.10019-777.84-0.0753-5.8732-0.43857-11.771-0.64728-17.659-0.45599z" transform="matrix(.99853 0 0 .99592 -1.3291 4.4786)"/>
        <path id="rect2985" opacity=".89823" d="m-752.14 268.08c-95.466 0-172.84 76.112-172.84 170s77.377 170 172.84 170c5.2958 0 10.544-0.26029 15.719-0.71875v-98.75c-60.187-1.9624-84.281-29.196-84.281-71.594s35.206-74.729 84.281-72.656v-0.28125h772.47c4.2547 0 7.6562-3.4328 7.6562-7.6875v-80.031c0-4.2548-3.4015-7.6875-7.6562-7.6875h-774.03c-4.6701-0.37638-9.3901-0.59375-14.156-0.59375z" fill="#2b0000" fill-opacity=".98942"/>
        <path id="path3824" opacity=".77434" d="m-764.99 279.47c-73.259 4.8038-139.43 64.368-148.62 137.66-9.5082 67.214 28.009 138.06 90.25 165.69 23.779 11.381 50.405 17.359 76.938 16.125v-79.719c-29.267-1.468-60.978-13.668-75.312-40.656-21.474-39.382-4.2195-96.183 37.375-113.94 32.383-15.142 68.904-7.7704 103.31-9.4438 238.22-0.52729 476.44 0.62468 714.66-0.61874 0.3999-11.764-0.84409-23.537 0.06029-35.312 0.2661-13.154 0.77251-26.388-0.96654-39.469-265.67-0.25125-531.36 0.20174-797.03-0.34974l-0.65785 0.0372z" fill-opacity=".98942" filter="url(#filter3820)" fill="#f00"/>
        <path id="path3774" opacity=".77434" d="m-764.99 279.47c-73.259 4.8038-139.43 64.368-148.62 137.66-9.5082 67.214 28.009 138.06 90.25 165.69 23.779 11.381 50.405 17.359 76.938 16.125v-79.719c-29.267-1.468-60.978-13.668-75.312-40.656-21.474-39.382-4.2195-96.183 37.375-113.94 32.383-15.142 68.904-7.7704 103.31-9.4438 238.22-0.52729 476.44 0.62468 714.66-0.61874 0.3999-11.764-0.84409-23.537 0.06029-35.312 0.2661-13.154 0.77251-26.388-0.96654-39.469-265.67-0.25125-531.36 0.20174-797.03-0.34974l-0.65785 0.0372z" fill-opacity=".98942" filter="url(#filter3820)" fill="#d40000"/>
        <path id="path3004" opacity=".64159" filter="url(#filter3870)" d="m-742.34 284.62c-18.2-0.0388-36.753-0.32487-54.094 5.5312-60.057 17.708-108.23 73.16-112.3 136.47-5.1331 67.44 39.245 135.75 103.77 156.3 16.884 5.935 34.62 9.2327 52.619 9.1368-0.17842-22.749 0.40476-45.505-0.25-68.25-32.055-2.3679-65.44-19.733-77.906-50.594-18.721-43.757 3.9034-101.85 49.531-117.59 37.18-13.571 77.413-5.0353 116-7.444 230.83-0.66594 461.67 0.86502 692.5-0.83729-0.8239-20.88 1.84-41.829-0.5-62.656-256.46 0.13108-512.92-0.15373-769.38-0.0625z" fill="#f00"/>
        <path id="path3876" opacity=".48673" d="m-752.14 268.08c-95.466 0-172.84 76.112-172.84 170s77.377 170 172.84 170c5.2958 0 10.544-0.26029 15.719-0.71875v-98.75c-60.187-1.9624-84.281-29.196-84.281-71.594s35.206-74.729 84.281-72.656v-0.28125h772.47c4.2547 0 7.6562-3.4328 7.6562-7.6875v-80.031c0-4.2548-3.4015-7.6875-7.6562-7.6875h-774.03c-4.6701-0.37638-9.3901-0.59375-14.156-0.59375z" fill="url(#linearGradient4412)"/>
        <path id="path3944" opacity=".48673" d="m2.25 268.43h32.75c-44.081 12.545-56.119 72.922-24.75 95.357h-31.321c-25.57-16.34-19.085-87.931 23.321-95.357z" fill="#fff" fill-opacity=".98942"/>
        <path id="path3946" opacity=".48673" d="m-56.679 268.43h32.75c-44.081 12.545-56.119 72.922-24.75 95.357h-31.321c-25.57-16.34-19.085-87.931 23.321-95.357z" fill="#fff" fill-opacity=".98942"/>
        <path id="path3948" opacity=".48673" d="m-115.96 268.43h32.75c-44.081 12.545-56.119 72.922-24.75 95.357h-31.321c-25.57-16.34-19.085-87.931 23.321-95.357z" fill="#fff" fill-opacity=".98942"/>
        <path id="path3950" opacity=".48673" d="m-175.25 268.43h32.75c-44.081 12.545-56.119 72.922-24.75 95.357h-31.321c-25.57-16.34-19.085-87.931 23.321-95.357z" fill="#fff" fill-opacity=".98942"/>
        <path id="path3952" opacity=".48673" d="m-235.61 268.43h32.75c-44.081 12.545-56.119 72.922-24.75 95.357h-31.321c-25.57-16.34-19.085-87.931 23.321-95.357z" fill="#fff" fill-opacity=".98942"/>
        <path id="path3954" opacity=".48673" d="m-295.61 268.43h32.75c-44.081 12.545-56.119 72.922-24.75 95.357h-31.321c-25.57-16.34-19.085-87.931 23.321-95.357z" fill="#fff" fill-opacity=".98942"/>
        <path id="path3956" opacity=".48673" d="m-354.54 268.43h32.75c-44.081 12.545-56.119 72.922-24.75 95.357h-31.321c-25.57-16.34-19.085-87.931 23.321-95.357z" fill="#fff" fill-opacity=".98942"/>
        <path id="path3958" opacity=".48673" d="m-413.82 268.43h32.75c-44.081 12.545-56.119 72.922-24.75 95.357h-31.321c-25.57-16.34-19.085-87.931 23.321-95.357z" fill="#fff" fill-opacity=".98942"/>
        <path id="path3960" opacity=".48673" d="m-473.11 268.43h32.75c-44.081 12.545-56.119 72.922-24.75 95.357h-31.321c-25.57-16.34-19.085-87.931 23.321-95.357z" fill="#fff" fill-opacity=".98942"/>
        <path id="path3962" opacity=".48673" d="m-533.46 268.43h32.75c-44.081 12.545-56.119 72.922-24.75 95.357h-31.321c-25.57-16.34-19.085-87.931 23.321-95.357z" fill="#fff" fill-opacity=".98942"/>
        <path id="path3964" opacity=".48673" d="m-597.39 268.43h32.75c-44.081 12.545-56.119 72.922-24.75 95.357h-31.321c-25.57-16.34-19.085-87.931 23.321-95.357z" fill="#fff" fill-opacity=".98942"/>
        <path id="path3966" opacity=".48673" d="m-656.68 268.43h32.75c-44.081 12.545-56.119 72.922-24.75 95.357h-31.321c-25.57-16.34-19.085-87.931 23.321-95.357z" fill="#fff" fill-opacity=".98942"/>
        <path id="path3968" opacity=".48673" d="m-717.04 268.43h32.75c-44.081 12.545-56.119 72.922-24.75 95.357h-31.321c-25.57-16.34-19.085-87.931 23.321-95.357z" fill="#fff" fill-opacity=".98942"/>
        <path id="path3970" opacity=".48673" d="m-793.04 275.76 31.634-8.4763c-39.332 23.526-35.334 84.962 0.77358 98.514l-30.254 8.1066c-28.927-9.165-41.193-79.996-2.1535-98.144z" fill="#fff" fill-opacity=".98942"/>
        <path id="path3972" opacity=".48673" d="m-861.58 310.43 26.891-18.694c-29.034 35.461-4.4556 91.908 34.108 92.424l-25.718 17.878c-30.322 1.1787-65.862-61.306-35.281-91.609z" fill="#fff" fill-opacity=".98942"/>
        <path id="path3974" opacity=".48673" d="m-909.85 383.19 11.927-30.501c-4.3704 45.622 47.476 78.822 79.795 57.778l-11.407 29.17c-24.53 17.863-88.843-14.249-80.315-56.448z" fill="#fff" fill-opacity=".98942"/>
        <path id="path3976" opacity=".48673" d="m-916.73 471.93-6.4032-32.118c20.921 40.777 82.487 40.779 98.356 5.6284l6.1239 30.717c-11.025 28.271-82.503 35.909-98.077-4.2274z" fill="#fff" fill-opacity=".98942"/>
        <path id="path3978" opacity=".48673" d="m-882.91 540.48-18.508-27.019c35.261 29.277 91.875 5.0878 92.657-33.471l17.701 25.84c0.97007 30.329-61.758 65.438-91.849 34.649z" fill="#fff" fill-opacity=".98942"/>
        <path id="path3980" opacity=".48673" d="m-815.79 590.17-30.277-12.485c45.534 5.2076 79.681-46.02 59.234-78.72l28.956 11.941c17.409 24.854-15.879 88.567-57.913 79.265z" fill="#fff" fill-opacity=".98942"/>
        <path id="path3907" opacity=".48673" d="m-754.91 272.12c-73.632 0.0621-143.47 53.364-160.95 124.9-15.35 58.461 4.5708 124.94 50.318 164.08 33.805 29.864 79.771 46.238 125.1 42.521v-20.375c-54.874-6.342-109.34-35.928-136.19-85.375-22.971-42.168-16.825-98.122 14.644-134.32 36.389-44.885 95.829-66.741 152.86-64.835 172.54 0.46193 345.08 0.0478 517.62 0.1875h231c-0.69033-8.3394 2.5002-17.747-1.5625-25.312-7.8308-2.9077-16.315 0.56612-24.406-0.90823-253.52-0.30777-507.05 0.62556-760.56-0.49802-2.6228-0.12217-5.2505-0.11866-7.875-0.0625z" fill="#fff"/>
        <path id="path3002" d="m11.112 357.38a15.657 44.447 0 1 1 -31.315 0 15.657 44.447 0 1 1 31.315 0z" fill="#a00" transform="matrix(1.125 0 0 1.1193 -728.47 157.62)"/>
        <path id="path3935" d="m11.112 357.38a15.657 44.447 0 1 1 -31.315 0 15.657 44.447 0 1 1 31.315 0z" fill="url(#radialGradient4414)" transform="matrix(1.125 0 0 1.0682 -728.37 176.66)"/>
        <path id="path3921" d="m11.112 357.38a15.657 44.447 0 1 1 -31.315 0 15.657 44.447 0 1 1 31.315 0z" fill="#a00" transform="matrix(1.125 0 0 1.0682 43.058 -64.773)"/>
        <path id="path3923" d="m11.112 357.38a15.657 44.447 0 1 1 -31.315 0 15.657 44.447 0 1 1 31.315 0z" fill="url(#radialGradient4414)" transform="matrix(1.125 0 0 1.0682 43.058 -64.773)"/>
        <path id="path3982" opacity=".48673" filter="url(#filter3994)" d="m-729.55 330.95c-58.767 2.3548-120.32 38.477-126.95 84.485-6.8389 39.358 24.573 97.012 73.925 100.65 19.908 8.3303 11.965 13.014 34.692 11.988-0.12899-1.4058 1.7654-5.2238-1.7942-4.6629-45.74-5.3631-59.25-26.91-78.83-60.267-17.817-31.382-5.3731-71.004 28.093-92.944 33.157-24.4 80.597-34.069 125.48-31.786 193.26 0.26066 500.57 0.0393 693.83 0.11487 0.25968-2.4309 0.93071-4.852 0.19936-7.2663-211.36-0.33242-536.77 0.1968-748.13-0.33402l8.7611-6.4054z" fill="#fff"/>
        <path id="path3998" fill="url(#radialGradient4418)" d="m36.656 271.06c-8.1864 2.6629-10.553 12.389-12.688 19.875-3.8147 17.165-3.0899 36.441 6 51.906 2.6775 4.9234 9.5872 7.0896 13.656 2.625 7.8609-8.5219 9.3138-20.853 10.322-31.932 0.57056-13.21-1.2637-27.231-8.7591-38.349-1.8968-2.5274-5.0594-4.9306-8.5312-4.125z"/>
        <path id="path4016" fill="url(#linearGradient4420)" d="m-733.84 508.26c-8.7315 3.795-9.8916 15.182-12.094 23.689-3.9011 22.491-3.471 47.426 7.0938 67.735 2.1568 3.4352 7.6043 4.6742 9.75 0.59972 8.038-10.152 8.5272-24.481 9.9893-37.176 1.0477-17.814-0.57821-36.883-9.8018-52.182-1.1951-1.4483-2.8832-3.0087-4.9375-2.6654z"/>
      </g>
      <g id="g4254" transform="matrix(.51128 .17830 -.17830 .51128 -34.277 444.7)">
        <path id="path4256" filter="url(#filter4049)" d="m-755.22 265.27c-59.176 0.93913-116.34 34.134-146.16 85.115-29.298 48.518-31.445 112.1-5.499 162.48 26.868 54.017 83.506 91.131 143.75 94.789 9.8438 0.69319 19.744 0.54798 29.565-0.414-0.0761-2.3796 4.3298-1.6052 5.5625-3.9062 9.66-10.551 10.852-26.332 12.125-40.062 0.42819-17.626-0.23023-36.916-9.6562-52.188-2.9602-5.3248-9.377-6.0157-14.938-5.5938-24.712-1.4234-52.28-8.2007-66.812-29.938-12.447-19.741-13.771-45.798-5.1562-67.219 12.013-29.638 45.149-45.688 76.125-44.004 41.629-0.56809 84.601-0.0867 126.75-0.24614 216.26 0.0209 432.68-0.0418 648.84 0.0312 7.9927 2.1727 12.789-6.8878 15.125-13 7.4925-22.252 7.4803-47.168 0.85082-69.671-2.45-6.6625-6.3221-16.446-14.976-15.642-259.13-0.05-518.59 0.10019-777.84-0.0753-5.8732-0.43857-11.771-0.64728-17.659-0.45599z" transform="matrix(.99853 0 0 .99592 -1.3291 4.4786)"/>
        <path id="path4258" opacity=".89823" d="m-752.14 268.08c-95.466 0-172.84 76.112-172.84 170s77.377 170 172.84 170c5.2958 0 10.544-0.26029 15.719-0.71875v-98.75c-60.187-1.9624-84.281-29.196-84.281-71.594s35.206-74.729 84.281-72.656v-0.28125h772.47c4.2547 0 7.6562-3.4328 7.6562-7.6875v-80.031c0-4.2548-3.4015-7.6875-7.6562-7.6875h-774.03c-4.6701-0.37638-9.3901-0.59375-14.156-0.59375z" fill="#2b0000" fill-opacity=".98942"/>
        <path id="path4260" opacity=".77434" d="m-764.99 279.47c-73.259 4.8038-139.43 64.368-148.62 137.66-9.5082 67.214 28.009 138.06 90.25 165.69 23.779 11.381 50.405 17.359 76.938 16.125v-79.719c-29.267-1.468-60.978-13.668-75.312-40.656-21.474-39.382-4.2195-96.183 37.375-113.94 32.383-15.142 68.904-7.7704 103.31-9.4438 238.22-0.52729 476.44 0.62468 714.66-0.61874 0.3999-11.764-0.84409-23.537 0.06029-35.312 0.2661-13.154 0.77251-26.388-0.96654-39.469-265.67-0.25125-531.36 0.20174-797.03-0.34974l-0.65785 0.0372z" fill-opacity=".98942" filter="url(#filter3820)" fill="#f00"/>
        <path id="path4262" opacity=".77434" d="m-764.99 279.47c-73.259 4.8038-139.43 64.368-148.62 137.66-9.5082 67.214 28.009 138.06 90.25 165.69 23.779 11.381 50.405 17.359 76.938 16.125v-79.719c-29.267-1.468-60.978-13.668-75.312-40.656-21.474-39.382-4.2195-96.183 37.375-113.94 32.383-15.142 68.904-7.7704 103.31-9.4438 238.22-0.52729 476.44 0.62468 714.66-0.61874 0.3999-11.764-0.84409-23.537 0.06029-35.312 0.2661-13.154 0.77251-26.388-0.96654-39.469-265.67-0.25125-531.36 0.20174-797.03-0.34974l-0.65785 0.0372z" fill-opacity=".98942" filter="url(#filter3820)" fill="#d40000"/>
        <path id="path4264" opacity=".64159" filter="url(#filter3870)" d="m-742.34 284.62c-18.2-0.0388-36.753-0.32487-54.094 5.5312-60.057 17.708-108.23 73.16-112.3 136.47-5.1331 67.44 39.245 135.75 103.77 156.3 16.884 5.935 34.62 9.2327 52.619 9.1368-0.17842-22.749 0.40476-45.505-0.25-68.25-32.055-2.3679-65.44-19.733-77.906-50.594-18.721-43.757 3.9034-101.85 49.531-117.59 37.18-13.571 77.413-5.0353 116-7.444 230.83-0.66594 461.67 0.86502 692.5-0.83729-0.8239-20.88 1.84-41.829-0.5-62.656-256.46 0.13108-512.92-0.15373-769.38-0.0625z" fill="#f00"/>
        <path id="path4266" opacity=".48673" d="m-752.14 268.08c-95.466 0-172.84 76.112-172.84 170s77.377 170 172.84 170c5.2958 0 10.544-0.26029 15.719-0.71875v-98.75c-60.187-1.9624-84.281-29.196-84.281-71.594s35.206-74.729 84.281-72.656v-0.28125h772.47c4.2547 0 7.6562-3.4328 7.6562-7.6875v-80.031c0-4.2548-3.4015-7.6875-7.6562-7.6875h-774.03c-4.6701-0.37638-9.3901-0.59375-14.156-0.59375z" fill="url(#linearGradient4412)"/>
        <path id="path4268" opacity=".48673" d="m2.25 268.43h32.75c-44.081 12.545-56.119 72.922-24.75 95.357h-31.321c-25.57-16.34-19.085-87.931 23.321-95.357z" fill="#fff" fill-opacity=".98942"/>
        <path id="path4270" opacity=".48673" d="m-56.679 268.43h32.75c-44.081 12.545-56.119 72.922-24.75 95.357h-31.321c-25.57-16.34-19.085-87.931 23.321-95.357z" fill="#fff" fill-opacity=".98942"/>
        <path id="path4272" opacity=".48673" d="m-115.96 268.43h32.75c-44.081 12.545-56.119 72.922-24.75 95.357h-31.321c-25.57-16.34-19.085-87.931 23.321-95.357z" fill="#fff" fill-opacity=".98942"/>
        <path id="path4274" opacity=".48673" d="m-175.25 268.43h32.75c-44.081 12.545-56.119 72.922-24.75 95.357h-31.321c-25.57-16.34-19.085-87.931 23.321-95.357z" fill="#fff" fill-opacity=".98942"/>
        <path id="path4276" opacity=".48673" d="m-235.61 268.43h32.75c-44.081 12.545-56.119 72.922-24.75 95.357h-31.321c-25.57-16.34-19.085-87.931 23.321-95.357z" fill="#fff" fill-opacity=".98942"/>
        <path id="path4278" opacity=".48673" d="m-295.61 268.43h32.75c-44.081 12.545-56.119 72.922-24.75 95.357h-31.321c-25.57-16.34-19.085-87.931 23.321-95.357z" fill="#fff" fill-opacity=".98942"/>
        <path id="path4280" opacity=".48673" d="m-354.54 268.43h32.75c-44.081 12.545-56.119 72.922-24.75 95.357h-31.321c-25.57-16.34-19.085-87.931 23.321-95.357z" fill="#fff" fill-opacity=".98942"/>
        <path id="path4282" opacity=".48673" d="m-413.82 268.43h32.75c-44.081 12.545-56.119 72.922-24.75 95.357h-31.321c-25.57-16.34-19.085-87.931 23.321-95.357z" fill="#fff" fill-opacity=".98942"/>
        <path id="path4284" opacity=".48673" d="m-473.11 268.43h32.75c-44.081 12.545-56.119 72.922-24.75 95.357h-31.321c-25.57-16.34-19.085-87.931 23.321-95.357z" fill="#fff" fill-opacity=".98942"/>
        <path id="path4286" opacity=".48673" d="m-533.46 268.43h32.75c-44.081 12.545-56.119 72.922-24.75 95.357h-31.321c-25.57-16.34-19.085-87.931 23.321-95.357z" fill="#fff" fill-opacity=".98942"/>
        <path id="path4288" opacity=".48673" d="m-597.39 268.43h32.75c-44.081 12.545-56.119 72.922-24.75 95.357h-31.321c-25.57-16.34-19.085-87.931 23.321-95.357z" fill="#fff" fill-opacity=".98942"/>
        <path id="path4290" opacity=".48673" d="m-656.68 268.43h32.75c-44.081 12.545-56.119 72.922-24.75 95.357h-31.321c-25.57-16.34-19.085-87.931 23.321-95.357z" fill="#fff" fill-opacity=".98942"/>
        <path id="path4292" opacity=".48673" d="m-717.04 268.43h32.75c-44.081 12.545-56.119 72.922-24.75 95.357h-31.321c-25.57-16.34-19.085-87.931 23.321-95.357z" fill="#fff" fill-opacity=".98942"/>
        <path id="path4294" opacity=".48673" d="m-793.04 275.76 31.634-8.4763c-39.332 23.526-35.334 84.962 0.77358 98.514l-30.254 8.1066c-28.927-9.165-41.193-79.996-2.1535-98.144z" fill="#fff" fill-opacity=".98942"/>
        <path id="path4296" opacity=".48673" d="m-861.58 310.43 26.891-18.694c-29.034 35.461-4.4556 91.908 34.108 92.424l-25.718 17.878c-30.322 1.1787-65.862-61.306-35.281-91.609z" fill="#fff" fill-opacity=".98942"/>
        <path id="path4298" opacity=".48673" d="m-909.85 383.19 11.927-30.501c-4.3704 45.622 47.476 78.822 79.795 57.778l-11.407 29.17c-24.53 17.863-88.843-14.249-80.315-56.448z" fill="#fff" fill-opacity=".98942"/>
        <path id="path4300" opacity=".48673" d="m-916.73 471.93-6.4032-32.118c20.921 40.777 82.487 40.779 98.356 5.6284l6.1239 30.717c-11.025 28.271-82.503 35.909-98.077-4.2274z" fill="#fff" fill-opacity=".98942"/>
        <path id="path4302" opacity=".48673" d="m-882.91 540.48-18.508-27.019c35.261 29.277 91.875 5.0878 92.657-33.471l17.701 25.84c0.97007 30.329-61.758 65.438-91.849 34.649z" fill="#fff" fill-opacity=".98942"/>
        <path id="path4304" opacity=".48673" d="m-815.79 590.17-30.277-12.485c45.534 5.2076 79.681-46.02 59.234-78.72l28.956 11.941c17.409 24.854-15.879 88.567-57.913 79.265z" fill="#fff" fill-opacity=".98942"/>
        <path id="path4306" opacity=".48673" d="m-754.91 272.12c-73.632 0.0621-143.47 53.364-160.95 124.9-15.35 58.461 4.5708 124.94 50.318 164.08 33.805 29.864 79.771 46.238 125.1 42.521v-20.375c-54.874-6.342-109.34-35.928-136.19-85.375-22.971-42.168-16.825-98.122 14.644-134.32 36.389-44.885 95.829-66.741 152.86-64.835 172.54 0.46193 345.08 0.0478 517.62 0.1875h231c-0.69033-8.3394 2.5002-17.747-1.5625-25.312-7.8308-2.9077-16.315 0.56612-24.406-0.90823-253.52-0.30777-507.05 0.62556-760.56-0.49802-2.6228-0.12217-5.2505-0.11866-7.875-0.0625z" fill="#fff"/>
        <path id="path4308" d="m11.112 357.38a15.657 44.447 0 1 1 -31.315 0 15.657 44.447 0 1 1 31.315 0z" fill="#a00" transform="matrix(1.125 0 0 1.1193 -728.47 157.62)"/>
        <path id="path4310" d="m11.112 357.38a15.657 44.447 0 1 1 -31.315 0 15.657 44.447 0 1 1 31.315 0z" fill="url(#radialGradient4414)" transform="matrix(1.125 0 0 1.0682 -728.37 176.66)"/>
        <path id="path4312" d="m11.112 357.38a15.657 44.447 0 1 1 -31.315 0 15.657 44.447 0 1 1 31.315 0z" fill="#a00" transform="matrix(1.125 0 0 1.0682 43.058 -64.773)"/>
        <path id="path4314" d="m11.112 357.38a15.657 44.447 0 1 1 -31.315 0 15.657 44.447 0 1 1 31.315 0z" fill="url(#radialGradient4414)" transform="matrix(1.125 0 0 1.0682 43.058 -64.773)"/>
        <path id="path4316" opacity=".48673" filter="url(#filter3994)" d="m-729.55 330.95c-58.767 2.3548-120.32 38.477-126.95 84.485-6.8389 39.358 24.573 97.012 73.925 100.65 19.908 8.3303 11.965 13.014 34.692 11.988-0.12899-1.4058 1.7654-5.2238-1.7942-4.6629-45.74-5.3631-59.25-26.91-78.83-60.267-17.817-31.382-5.3731-71.004 28.093-92.944 33.157-24.4 80.597-34.069 125.48-31.786 193.26 0.26066 500.57 0.0393 693.83 0.11487 0.25968-2.4309 0.93071-4.852 0.19936-7.2663-211.36-0.33242-536.77 0.1968-748.13-0.33402l8.7611-6.4054z" fill="#fff"/>
        <path id="path4318" fill="url(#radialGradient4418)" d="m36.656 271.06c-8.1864 2.6629-10.553 12.389-12.688 19.875-3.8147 17.165-3.0899 36.441 6 51.906 2.6775 4.9234 9.5872 7.0896 13.656 2.625 7.8609-8.5219 9.3138-20.853 10.322-31.932 0.57056-13.21-1.2637-27.231-8.7591-38.349-1.8968-2.5274-5.0594-4.9306-8.5312-4.125z"/>
        <path id="path4320" fill="url(#linearGradient4420)" d="m-733.84 508.26c-8.7315 3.795-9.8916 15.182-12.094 23.689-3.9011 22.491-3.471 47.426 7.0938 67.735 2.1568 3.4352 7.6043 4.6742 9.75 0.59972 8.038-10.152 8.5272-24.481 9.9893-37.176 1.0477-17.814-0.57821-36.883-9.8018-52.182-1.1951-1.4483-2.8832-3.0087-4.9375-2.6654z"/>
      </g>
    </g>
  </g>
  <metadata>
    <rdf:RDF>
      <cc:Work>
        <dc:format>image/svg+xml</dc:format>
        <dc:type rdf:resource="http://purl.org/dc/dcmitype/StillImage"/>
        <cc:license rdf:resource="http://creativecommons.org/licenses/publicdomain/"/>
        <dc:publisher>
          <cc:Agent rdf:about="http://openclipart.org/">
            <dc:title>Openclipart</dc:title>
          </cc:Agent>
        </dc:publisher>
        <dc:title>Christmas Candy</dc:title>
        <dc:date>2010-12-05T22:43:19</dc:date>
        <dc:description>Christmas Candy Stick</dc:description>
        <dc:source>http://openclipart.org/detail/99475/christmas-candy-by-inky2010</dc:source>
        <dc:creator>
          <cc:Agent>
            <dc:title>inky2010</dc:title>
          </cc:Agent>
        </dc:creator>
        <dc:subject>
          <rdf:Bag>
            <rdf:li>2010</rdf:li>
            <rdf:li>3D</rdf:li>
            <rdf:li>Candy</rdf:li>
            <rdf:li>Candy Stick</rdf:li>
            <rdf:li>Christmas</rdf:li>
            <rdf:li>Gloss</rdf:li>
            <rdf:li>Glossy</rdf:li>
            <rdf:li>Inkscape</rdf:li>
            <rdf:li>Inky2010</rdf:li>
            <rdf:li>Red</rdf:li>
            <rdf:li>Winter</rdf:li>
            <rdf:li>clip art</rdf:li>
            <rdf:li>clipart</rdf:li>
            <rdf:li>free</rdf:li>
            <rdf:li>holidays2010</rdf:li>
            <rdf:li>vector</rdf:li>
          </rdf:Bag>
        </dc:subject>
      </cc:Work>
      <cc:License rdf:about="http://creativecommons.org/licenses/publicdomain/">
        <cc:permits rdf:resource="http://creativecommons.org/ns#Reproduction"/>
        <cc:permits rdf:resource="http://creativecommons.org/ns#Distribution"/>
        <cc:permits rdf:resource="http://creativecommons.org/ns#DerivativeWorks"/>
      </cc:License>
    </rdf:RDF>
  </metadata>
</svg>
