<?xml version="1.0" encoding="utf-8"?>
<!-- Generator: Adobe Illustrator 21.1.0, SVG Export Plug-In . SVG Version: 6.00 Build 0)  -->
<svg version="1.1" id="Layer_1" xmlns="http://www.w3.org/2000/svg" xmlns:xlink="http://www.w3.org/1999/xlink" x="0px" y="0px"
	 viewBox="0 0 1366 768" style="enable-background:new 0 0 1366 768;" xml:space="preserve">
<style type="text/css">
	.st0{fill:#D4A87F;}
	.st1{fill:#805126;}
	.st2{fill:#0A0A0A;}
	.st3{fill:#E3BB94;}
	.st4{fill:#BB9C87;}
	.st5{fill:#FFFFFF;}
	.st6{fill:none;stroke:#8C6239;stroke-width:3;stroke-miterlimit:10;}
	.st7{fill:#42210B;}
	.st8{fill:#683914;}
	.st9{fill:#D4145A;}
	.st10{fill:#925F2D;}
	.st11{fill:#5B453B;}
	.st12{fill:#542700;}
	.st13{fill:#461A00;}
	.st14{fill:#FF7BAC;}
	.st15{fill:#A8272D;}
	.st16{fill:#BF8352;}
	.st17{fill:#2E3192;}
	.st18{fill:#9B6C45;}
	.st19{fill:#7A5D35;}
	.st20{fill:#29ABE2;}
	.st21{fill:#662D91;}
	.st22{fill:#FCEE21;}
	.st23{fill:#0071BC;}
	.st24{fill:#666666;}
</style>
<path class="st0" d="M239.1,332.7l80.7,42c5.9,3,8.2,10.3,5.1,16.2l-2.8,5.3c-3,5.9-10.3,8.2-16.2,5.1l-80.7-42
	c-5.9-3-8.2-10.3-5.1-16.2l2.8-5.3C225.9,331.9,233.2,329.7,239.1,332.7z"/>
<path class="st0" d="M367.8,310.6l-42,80.7c-3,5.9-10.3,8.2-16.2,5.1l-5.3-2.8c-5.9-3-8.2-10.3-5.1-16.2l42-80.7
	c3-5.9,10.3-8.2,16.2-5.1l5.3,2.8C368.6,297.4,370.8,304.7,367.8,310.6z"/>
<path class="st0" d="M135.4,357.1l-20.6,88.6c-1.5,6.4-8,10.5-14.4,9l-5.8-1.4c-6.4-1.5-10.5-8-9-14.4l20.6-88.6
	c1.5-6.4,8-10.5,14.4-9l5.8,1.4C132.9,344.2,136.9,350.7,135.4,357.1z"/>
<path class="st1" d="M241,496H126V349.9c0-11.5,9.4-20.9,20.9-20.9h73.3c11.5,0,20.9,9.4,20.9,20.9V496z"/>
<path class="st1" d="M229.1,373h-99.3c-11.5,0-20.9-9.4-20.9-20.9v-2.3c0-11.5,9.4-20.9,20.9-20.9h99.3c11.5,0,20.9,9.4,20.9,20.9
	v2.3C250,363.6,240.6,373,229.1,373z"/>
<circle class="st2" cx="89.5" cy="250.5" r="41.5"/>
<circle class="st2" cx="255.5" cy="213.5" r="41.5"/>
<circle class="st2" cx="117.5" cy="200.5" r="41.5"/>
<circle class="st2" cx="275.5" cy="250.5" r="41.5"/>
<g>
	<circle class="st3" cx="92" cy="209" r="22"/>
</g>
<g>
	<circle class="st3" cx="272" cy="204" r="22"/>
</g>
<circle class="st4" cx="92" cy="209" r="14.3"/>
<circle class="st4" cx="272" cy="204" r="14.3"/>
<path class="st0" d="M187.8,346.1h-10c-6.6,0-12-5.4-12-12V308c0-6.6,5.4-12,12-12h10c6.6,0,12,5.4,12,12v26.1
	C199.8,340.7,194.4,346.1,187.8,346.1z"/>
<g>
	<path class="st3" d="M272,224v-79H92v79c0,49.5,40.5,90,90,90c24.8,0,47.3-10.1,63.6-26.4C261.9,271.3,272,248.8,272,224z"/>
</g>
<g>
	<ellipse class="st5" cx="142" cy="199" rx="24" ry="19"/>
</g>
<g>
	<ellipse cx="142.4" cy="199.2" rx="13.7" ry="14.8"/>
</g>
<g>
	<ellipse class="st5" cx="225" cy="199" rx="24" ry="19"/>
</g>
<g>
	<ellipse cx="225.4" cy="199.2" rx="13.7" ry="14.8"/>
</g>
<path class="st6" d="M173.5,223c1.6,4.6,5.4,7.2,9,6.4c3.1-0.7,5.6-3.7,6.5-7.6"/>
<path class="st7" d="M230.7,264l-4.7,0.9c0,0,0,0.1,0,0.1l0.8-0.2c1.1,4.1,0.7,8.2-0.9,11.9c-3,6.9-10.3,12.4-20.3,14.4
	c-4.4,0.9-8.9,0.9-13.1,0.3c-10.6-1.5-20-7.1-24.3-15.2l0.3,0c0,0-0.1-0.1-0.1-0.1l-2.6,0.5c4.9,9.3,15.5,16,27.3,17.8
	c4.8,0.7,9.7,0.7,14.6-0.2c11-2.2,19.1-8.5,22.3-16.4C231.7,273.5,232,268.7,230.7,264z"/>
<circle class="st5" cx="133.5" cy="195.5" r="5.5"/>
<circle class="st5" cx="216.5" cy="194.5" r="5.5"/>
<path d="M281,180h-25.1l-14.1-31.8L227.9,180H82c1-8.7,2.9-17.1,5.8-25c9.4-26.1,28.3-47.2,52.4-58.7c12.6-6,26.6-9.4,41.4-9.4
	c39.2,0,73.1,23.6,89.5,58c0.3,0.7,0.6,1.4,1,2.1C276.6,157.3,279.7,168.3,281,180z"/>
<path class="st0" d="M97.7,424.7l90.9,3.7c6.6,0.3,11.8,5.9,11.5,12.5l-0.3,8.4c-0.3,6.6-5.9,11.8-12.5,11.5l-90.9-3.7
	c-6.6-0.3-11.8-5.9-11.5-12.5l0.3-8.4C85.5,429.6,91.1,424.4,97.7,424.7z"/>
<g>
	<ellipse transform="matrix(0.5342 -0.8454 0.8454 0.5342 -48.2015 435.3254)" class="st0" cx="370.9" cy="261.4" rx="27" ry="9"/>
	
		<ellipse transform="matrix(0.9998 -2.215558e-02 2.215558e-02 0.9998 -5.791 7.8501)" class="st0" cx="351.4" cy="265.3" rx="8.4" ry="24.4"/>
	<path class="st0" d="M333.5,297.6c12.6,12.9,26,17.6,32.6,13.8c30.3-17.3-0.4-20-13-32.9s-23.2-25.7-28.6-20.4
		S321,284.7,333.5,297.6z"/>
	
		<ellipse transform="matrix(0.8008 -0.5989 0.5989 0.8008 -88.7175 282.6931)" class="st0" cx="380.6" cy="274.7" rx="29" ry="8.2"/>
	
		<ellipse transform="matrix(0.9606 -0.2778 0.2778 0.9606 -67.5175 115.13)" class="st0" cx="372.4" cy="295.8" rx="28.6" ry="8.8"/>
</g>
<g>
	<path class="st0" d="M230.9,447.7c-11-4.8-21.8-6.6-24.2-4.2c-2.4,2.5,4.7,8.3,15.7,13.1s21.8,6.6,24.2,4.2
		C248.9,458.3,241.9,452.5,230.9,447.7z"/>
	<path class="st0" d="M223.3,435.6c-11.8,0.1-21.4,2.4-21.3,5.2c0.1,2.8,9.7,4.9,21.5,4.8s21.4-2.4,21.3-5.2
		C244.7,437.6,235.1,435.5,223.3,435.6z"/>
	<path class="st0" d="M195.1,429.9c-11.4,7.4-15.6,15.3-12.3,19.2c15,18,17.5-0.2,28.9-7.6c11.4-7.4,22.7-13.6,18.1-16.8
		C225.2,421.5,206.5,422.5,195.1,429.9z"/>
	<path class="st0" d="M220.7,455c-8.3-7.6-17.7-12.5-20.9-10.9c-3.2,1.6,1,9.1,9.3,16.7s17.7,12.5,20.9,10.9S229,462.6,220.7,455z"
		/>
	<path class="st0" d="M203.9,451.5c-3.7-9-10.1-15.6-14.3-14.9c-4.1,0.8-4.4,8.7-0.7,17.7c3.7,9,10.1,15.6,14.3,14.9
		C207.4,468.4,207.7,460.5,203.9,451.5z"/>
</g>
<path class="st0" d="M241,496v229h-45V551c0-6.1-4.9-11-11-11h0c-6.1,0-11,4.9-11,11v174h-45V496H241z"/>
<path class="st1" d="M172,744h-46c-6.6,0-12-5.4-12-12v-14c0-6.6,5.4-12,12-12h46c6.6,0,12,5.4,12,12v14
	C184,738.6,178.6,744,172,744z"/>
<path class="st1" d="M246,743h-46c-6.6,0-12-5.4-12-12v-14c0-6.6,5.4-12,12-12h46c6.6,0,12,5.4,12,12v14
	C258,737.6,252.6,743,246,743z"/>
<path class="st8" d="M608.1,329.7l80.7,42c5.9,3,8.2,10.3,5.1,16.2l-2.8,5.3c-3,5.9-10.3,8.2-16.2,5.1l-80.7-42
	c-5.9-3-8.2-10.3-5.1-16.2l2.8-5.3C594.9,328.9,602.2,326.7,608.1,329.7z"/>
<path class="st8" d="M736.8,307.6l-42,80.7c-3,5.9-10.3,8.2-16.2,5.1l-5.3-2.8c-5.9-3-8.2-10.3-5.1-16.2l42-80.7
	c3-5.9,10.3-8.2,16.2-5.1l5.3,2.8C737.6,294.4,739.8,301.7,736.8,307.6z"/>
<path class="st8" d="M504.4,354.1l-20.6,88.6c-1.5,6.4-8,10.5-14.4,9l-5.8-1.4c-6.4-1.5-10.5-8-9-14.4l20.6-88.6
	c1.5-6.4,8-10.5,14.4-9l5.8,1.4C501.9,341.2,505.9,347.7,504.4,354.1z"/>
<path class="st9" d="M610,493H495V346.9c0-11.5,9.4-20.9,20.9-20.9h73.3c11.5,0,20.9,9.4,20.9,20.9V493z"/>
<path class="st9" d="M598.1,370h-99.3c-11.5,0-20.9-9.4-20.9-20.9v-2.3c0-11.5,9.4-20.9,20.9-20.9h99.3c11.5,0,20.9,9.4,20.9,20.9
	v2.3C619,360.6,609.6,370,598.1,370z"/>
<circle class="st10" cx="458.5" cy="247.5" r="41.5"/>
<circle class="st10" cx="624.5" cy="210.5" r="41.5"/>
<circle class="st10" cx="486.5" cy="197.5" r="41.5"/>
<circle class="st10" cx="644.5" cy="247.5" r="41.5"/>
<g>
	<circle class="st8" cx="461" cy="206" r="22"/>
</g>
<g>
	<circle class="st8" cx="641" cy="201" r="22"/>
</g>
<circle class="st11" cx="461" cy="206" r="14.3"/>
<circle class="st11" cx="641" cy="201" r="14.3"/>
<path class="st12" d="M556.8,343.1h-10c-6.6,0-12-5.4-12-12V305c0-6.6,5.4-12,12-12h10c6.6,0,12,5.4,12,12v26.1
	C568.8,337.7,563.4,343.1,556.8,343.1z"/>
<g>
	<path class="st8" d="M641,221v-79H461v79c0,49.5,40.5,90,90,90c24.8,0,47.3-10.1,63.6-26.4C630.9,268.3,641,245.8,641,221z"/>
</g>
<g>
	<ellipse class="st5" cx="511" cy="196" rx="24" ry="19"/>
</g>
<g>
	<ellipse class="st13" cx="511.4" cy="196.2" rx="13.7" ry="14.8"/>
</g>
<g>
	<ellipse class="st5" cx="594" cy="196" rx="24" ry="19"/>
</g>
<g>
	<ellipse class="st13" cx="594.4" cy="196.2" rx="13.7" ry="14.8"/>
</g>
<path class="st6" d="M542.5,220c1.6,4.6,5.4,7.2,9,6.4c3.1-0.7,5.6-3.7,6.5-7.6"/>
<path class="st7" d="M599.7,261l-4.7,0.9c0,0,0,0.1,0,0.1l0.8-0.2c1.1,4.1,0.7,8.2-0.9,11.9c-3,6.9-10.3,12.4-20.3,14.4
	c-4.4,0.9-8.9,0.9-13.1,0.3c-10.6-1.5-20-7.1-24.3-15.2l0.3,0c0,0-0.1-0.1-0.1-0.1l-2.6,0.5c4.9,9.3,15.5,16,27.3,17.8
	c4.8,0.7,9.7,0.7,14.6-0.2c11-2.2,19.1-8.5,22.3-16.4C600.7,270.5,601,265.7,599.7,261z"/>
<circle class="st5" cx="502.5" cy="192.5" r="5.5"/>
<circle class="st5" cx="585.5" cy="191.5" r="5.5"/>
<path class="st10" d="M650,177h-25.1l-14.1-31.8L596.9,177H451c1-8.7,2.9-17.1,5.8-25c9.4-26.1,28.3-47.2,52.4-58.7
	c12.6-6,26.6-9.4,41.4-9.4c39.2,0,73.1,23.6,89.5,58c0.3,0.7,0.6,1.4,1,2.1C645.6,154.3,648.7,165.3,650,177z"/>
<path class="st8" d="M466.7,421.7l90.9,3.7c6.6,0.3,11.8,5.9,11.5,12.5l-0.3,8.4c-0.3,6.6-5.9,11.8-12.5,11.5l-90.9-3.7
	c-6.6-0.3-11.8-5.9-11.5-12.5l0.3-8.4C454.5,426.6,460.1,421.4,466.7,421.7z"/>
<g>
	<ellipse transform="matrix(0.5342 -0.8454 0.8454 0.5342 126.2187 745.8676)" class="st8" cx="739.9" cy="258.4" rx="27" ry="9"/>
	
		<ellipse transform="matrix(0.9998 -2.215558e-02 2.215558e-02 0.9998 -5.6339 16.0247)" class="st8" cx="720.4" cy="262.3" rx="8.4" ry="24.4"/>
	<path class="st8" d="M702.5,294.6c12.6,12.9,26,17.6,32.6,13.8c30.3-17.3-0.4-20-13-32.9s-23.2-25.7-28.6-20.4
		C688.1,260.4,690,281.7,702.5,294.6z"/>
	
		<ellipse transform="matrix(0.8008 -0.5989 0.5989 0.8008 -13.4151 503.1024)" class="st8" cx="749.6" cy="271.7" rx="29" ry="8.2"/>
	
		<ellipse transform="matrix(0.9606 -0.2778 0.2778 0.9606 -52.1544 217.5383)" class="st8" cx="741.4" cy="292.8" rx="28.6" ry="8.8"/>
</g>
<g>
	<path class="st8" d="M599.9,444.7c-11-4.8-21.8-6.6-24.2-4.2s4.7,8.3,15.7,13.1s21.8,6.6,24.2,4.2
		C617.9,455.3,610.9,449.5,599.9,444.7z"/>
	<path class="st8" d="M592.3,432.6c-11.8,0.1-21.4,2.4-21.3,5.2c0.1,2.8,9.7,4.9,21.5,4.8c11.8-0.1,21.4-2.4,21.3-5.2
		C613.7,434.6,604.1,432.5,592.3,432.6z"/>
	<path class="st8" d="M564.1,426.9c-11.4,7.4-15.6,15.3-12.3,19.2c15,18,17.5-0.2,28.9-7.6s22.7-13.6,18.1-16.8
		C594.2,418.5,575.5,419.5,564.1,426.9z"/>
	<path class="st8" d="M589.7,452c-8.3-7.6-17.7-12.5-20.9-10.9c-3.2,1.6,1,9.1,9.3,16.7s17.7,12.5,20.9,10.9
		C602.2,467.1,598,459.6,589.7,452z"/>
	<path class="st8" d="M572.9,448.5c-3.7-9-10.1-15.6-14.3-14.9c-4.1,0.8-4.4,8.7-0.7,17.7c3.7,9,10.1,15.6,14.3,14.9
		C576.4,465.4,576.7,457.5,572.9,448.5z"/>
</g>
<path class="st14" d="M610,493v229h-45V548c0-6.1-4.9-11-11-11l0,0c-6.1,0-11,4.9-11,11v174h-45V493H610z"/>
<path class="st15" d="M541,741h-46c-6.6,0-12-5.4-12-12v-14c0-6.6,5.4-12,12-12h46c6.6,0,12,5.4,12,12v14
	C553,735.6,547.6,741,541,741z"/>
<path class="st15" d="M615,740h-46c-6.6,0-12-5.4-12-12v-14c0-6.6,5.4-12,12-12h46c6.6,0,12,5.4,12,12v14
	C627,734.6,621.6,740,615,740z"/>
<path class="st16" d="M978.1,329.7l80.7,42c5.9,3,8.2,10.3,5.1,16.2l-2.8,5.3c-3,5.9-10.3,8.2-16.2,5.1l-80.7-42
	c-5.9-3-8.2-10.3-5.1-16.2l2.8-5.3C964.9,328.9,972.2,326.7,978.1,329.7z"/>
<path class="st16" d="M1106.8,307.6l-42,80.7c-3,5.9-10.3,8.2-16.2,5.1l-5.3-2.8c-5.9-3-8.2-10.3-5.1-16.2l42-80.7
	c3-5.9,10.3-8.2,16.2-5.1l5.3,2.8C1107.6,294.4,1109.8,301.7,1106.8,307.6z"/>
<path class="st16" d="M874.4,354.1l-20.6,88.6c-1.5,6.4-8,10.5-14.4,9l-5.8-1.4c-6.4-1.5-10.5-8-9-14.4l20.6-88.6
	c1.5-6.4,8-10.5,14.4-9l5.8,1.4C871.9,341.2,875.9,347.7,874.4,354.1z"/>
<path class="st17" d="M979,493H864V346.9c0-11.5,9.4-20.9,20.9-20.9h73.3c11.5,0,20.9,9.4,20.9,20.9V493z"/>
<path class="st17" d="M967.1,370h-99.3c-11.5,0-20.9-9.4-20.9-20.9v-2.3c0-11.5,9.4-20.9,20.9-20.9h99.3c11.5,0,20.9,9.4,20.9,20.9
	v2.3C988,360.6,978.6,370,967.1,370z"/>
<circle class="st13" cx="827.5" cy="247.5" r="41.5"/>
<circle class="st13" cx="993.5" cy="210.5" r="41.5"/>
<circle class="st13" cx="855.5" cy="197.5" r="41.5"/>
<circle class="st13" cx="1013.5" cy="247.5" r="41.5"/>
<g>
	<circle class="st16" cx="831" cy="206" r="22"/>
</g>
<g>
	<circle class="st16" cx="1011" cy="201" r="22"/>
</g>
<circle class="st4" cx="830" cy="206" r="14.3"/>
<circle class="st4" cx="1010" cy="201" r="14.3"/>
<path class="st18" d="M925.8,343.1h-10c-6.6,0-12-5.4-12-12V305c0-6.6,5.4-12,12-12h10c6.6,0,12,5.4,12,12v26.1
	C937.8,337.7,932.4,343.1,925.8,343.1z"/>
<g>
	<path class="st16" d="M1011,221v-79H831v79c0,49.5,40.5,90,90,90c24.8,0,47.3-10.1,63.6-26.4C1000.9,268.3,1011,245.8,1011,221z"/>
</g>
<g>
	<ellipse class="st5" cx="880" cy="196" rx="24" ry="19"/>
</g>
<g>
	<ellipse class="st19" cx="880.4" cy="196.2" rx="13.7" ry="14.8"/>
</g>
<g>
	<ellipse class="st5" cx="963" cy="196" rx="24" ry="19"/>
</g>
<g>
	<ellipse class="st19" cx="963.4" cy="196.2" rx="13.7" ry="14.8"/>
</g>
<path class="st6" d="M911.5,220c1.6,4.6,5.4,7.2,9,6.4c3.1-0.7,5.6-3.7,6.5-7.6"/>
<path class="st7" d="M968.7,261l-4.7,0.9c0,0,0,0.1,0,0.1l0.8-0.2c1.1,4.1,0.7,8.2-0.9,11.9c-3,6.9-10.3,12.4-20.3,14.4
	c-4.4,0.9-8.9,0.9-13.1,0.3c-10.6-1.5-20-7.1-24.3-15.2l0.3,0c0,0-0.1-0.1-0.1-0.1l-2.6,0.5c4.9,9.3,15.5,16,27.3,17.8
	c4.8,0.7,9.7,0.7,14.6-0.2c11-2.2,19.1-8.5,22.3-16.4C969.7,270.5,970,265.7,968.7,261z"/>
<circle class="st5" cx="871.5" cy="192.5" r="5.5"/>
<circle class="st5" cx="954.5" cy="191.5" r="5.5"/>
<path class="st13" d="M1019,177h-25.1l-14.1-31.8L965.9,177H820c1-8.7,2.9-17.1,5.8-25c9.4-26.1,28.3-47.2,52.4-58.7
	c12.6-6,26.6-9.4,41.4-9.4c39.2,0,73.1,23.6,89.5,58c0.3,0.7,0.6,1.4,1,2.1C1014.6,154.3,1017.7,165.3,1019,177z"/>
<path class="st16" d="M836.7,421.7l90.9,3.7c6.6,0.3,11.8,5.9,11.5,12.5l-0.3,8.4c-0.3,6.6-5.9,11.8-12.5,11.5l-90.9-3.7
	c-6.6-0.3-11.8-5.9-11.5-12.5l0.3-8.4C824.5,426.6,830.1,421.4,836.7,421.7z"/>
<g>
	
		<ellipse transform="matrix(0.5342 -0.8454 0.8454 0.5342 298.5686 1058.6526)" class="st16" cx="1109.9" cy="258.4" rx="27" ry="9"/>
	
		<ellipse transform="matrix(0.9998 -2.215558e-02 2.215558e-02 0.9998 -5.5431 24.2223)" class="st16" cx="1090.4" cy="262.3" rx="8.4" ry="24.4"/>
	<path class="st16" d="M1072.5,294.6c12.6,12.9,26,17.6,32.6,13.8c30.3-17.3-0.4-20-13-32.9c-12.6-12.9-23.2-25.7-28.6-20.4
		C1058.1,260.4,1060,281.7,1072.5,294.6z"/>
	
		<ellipse transform="matrix(0.8008 -0.5989 0.5989 0.8008 60.2896 724.7082)" class="st16" cx="1119.6" cy="271.7" rx="29" ry="8.2"/>
	
		<ellipse transform="matrix(0.9606 -0.2778 0.2778 0.9606 -37.5856 320.3427)" class="st16" cx="1111.4" cy="292.8" rx="28.6" ry="8.8"/>
</g>
<g>
	<path class="st16" d="M969.9,444.7c-11-4.8-21.8-6.6-24.2-4.2s4.7,8.3,15.7,13.1s21.8,6.6,24.2,4.2
		C987.9,455.3,980.9,449.5,969.9,444.7z"/>
	<path class="st16" d="M962.3,432.6c-11.8,0.1-21.4,2.4-21.3,5.2c0.1,2.8,9.7,4.9,21.5,4.8c11.8-0.1,21.4-2.4,21.3-5.2
		C983.7,434.6,974.1,432.5,962.3,432.6z"/>
	<path class="st16" d="M934.1,426.9c-11.4,7.4-15.6,15.3-12.3,19.2c15,18,17.5-0.2,28.9-7.6s22.7-13.6,18.1-16.8
		C964.2,418.5,945.5,419.5,934.1,426.9z"/>
	<path class="st16" d="M959.7,452c-8.3-7.6-17.7-12.5-20.9-10.9c-3.2,1.6,1,9.1,9.3,16.7s17.7,12.5,20.9,10.9
		C972.2,467.1,968,459.6,959.7,452z"/>
	<path class="st16" d="M942.9,448.5c-3.7-9-10.1-15.6-14.3-14.9c-4.1,0.8-4.4,8.7-0.7,17.7c3.7,9,10.1,15.6,14.3,14.9
		C946.4,465.4,946.7,457.5,942.9,448.5z"/>
</g>
<path class="st20" d="M979,493v229h-45V548c0-6.1-4.9-11-11-11l0,0c-6.1,0-11,4.9-11,11v174h-45V493H979z"/>
<path class="st21" d="M910,741h-46c-6.6,0-12-5.4-12-12v-14c0-6.6,5.4-12,12-12h46c6.6,0,12,5.4,12,12v14
	C922,735.6,916.6,741,910,741z"/>
<path class="st21" d="M984,740h-46c-6.6,0-12-5.4-12-12v-14c0-6.6,5.4-12,12-12h46c6.6,0,12,5.4,12,12v14
	C996,734.6,990.6,740,984,740z"/>
<path class="st0" d="M1338.1,329.7l80.7,42c5.9,3,8.2,10.3,5.1,16.2l-2.8,5.3c-3,5.9-10.3,8.2-16.2,5.1l-80.7-42
	c-5.9-3-8.2-10.3-5.1-16.2l2.8-5.3C1324.9,328.9,1332.2,326.7,1338.1,329.7z"/>
<path class="st0" d="M1466.8,307.6l-42,80.7c-3,5.9-10.3,8.2-16.2,5.1l-5.3-2.8c-5.9-3-8.2-10.3-5.1-16.2l42-80.7
	c3-5.9,10.3-8.2,16.2-5.1l5.3,2.8C1467.6,294.4,1469.8,301.7,1466.8,307.6z"/>
<path class="st0" d="M1234.4,354.1l-20.6,88.6c-1.5,6.4-8,10.5-14.4,9l-5.8-1.4c-6.4-1.5-10.5-8-9-14.4l20.6-88.6
	c1.5-6.4,8-10.5,14.4-9l5.8,1.4C1231.9,341.2,1235.9,347.7,1234.4,354.1z"/>
<path d="M1340,493h-115V346.9c0-11.5,9.4-20.9,20.9-20.9h73.3c11.5,0,20.9,9.4,20.9,20.9V493z"/>
<path d="M1328.1,370h-99.3c-11.5,0-20.9-9.4-20.9-20.9v-2.3c0-11.5,9.4-20.9,20.9-20.9h99.3c11.5,0,20.9,9.4,20.9,20.9v2.3
	C1349,360.6,1339.6,370,1328.1,370z"/>
<circle class="st22" cx="1188.5" cy="247.5" r="41.5"/>
<circle class="st22" cx="1354.5" cy="210.5" r="41.5"/>
<circle class="st22" cx="1216.5" cy="197.5" r="41.5"/>
<circle class="st22" cx="1374.5" cy="247.5" r="41.5"/>
<g>
	<circle class="st3" cx="1191" cy="206" r="22"/>
</g>
<g>
	<circle class="st3" cx="1371" cy="201" r="22"/>
</g>
<circle class="st4" cx="1191" cy="206" r="14.3"/>
<circle class="st4" cx="1371" cy="201" r="14.3"/>
<path class="st0" d="M1286.8,343.1h-10c-6.6,0-12-5.4-12-12V305c0-6.6,5.4-12,12-12h10c6.6,0,12,5.4,12,12v26.1
	C1298.8,337.7,1293.4,343.1,1286.8,343.1z"/>
<g>
	<path class="st3" d="M1371,221v-79h-180v79c0,49.5,40.5,90,90,90c24.8,0,47.3-10.1,63.6-26.4C1360.9,268.3,1371,245.8,1371,221z"/>
</g>
<g>
	<ellipse class="st5" cx="1241" cy="196" rx="24" ry="19"/>
</g>
<g>
	<ellipse class="st23" cx="1241.4" cy="196.2" rx="13.7" ry="14.8"/>
</g>
<g>
	<ellipse class="st5" cx="1324" cy="196" rx="24" ry="19"/>
</g>
<g>
	<ellipse class="st23" cx="1324.4" cy="196.2" rx="13.7" ry="14.8"/>
</g>
<path class="st6" d="M1272.5,220c1.6,4.6,5.4,7.2,9,6.4c3.1-0.7,5.6-3.7,6.5-7.6"/>
<path class="st7" d="M1329.7,261l-4.7,0.9c0,0,0,0.1,0,0.1l0.8-0.2c1.1,4.1,0.7,8.2-0.9,11.9c-3,6.9-10.3,12.4-20.3,14.4
	c-4.4,0.9-8.9,0.9-13.1,0.3c-10.6-1.5-20-7.1-24.3-15.2l0.3,0c0,0-0.1-0.1-0.1-0.1l-2.6,0.5c4.9,9.3,15.5,16,27.3,17.8
	c4.8,0.7,9.7,0.7,14.6-0.2c11-2.2,19.1-8.5,22.3-16.4C1330.7,270.5,1331,265.7,1329.7,261z"/>
<circle class="st5" cx="1232.5" cy="192.5" r="5.5"/>
<circle class="st5" cx="1315.5" cy="191.5" r="5.5"/>
<path class="st22" d="M1380,177h-25.1l-14.1-31.8l-13.9,31.8H1181c1-8.7,2.9-17.1,5.8-25c9.4-26.1,28.3-47.2,52.4-58.7
	c12.6-6,26.6-9.4,41.4-9.4c39.2,0,73.1,23.6,89.5,58c0.3,0.7,0.6,1.4,1,2.1C1375.6,154.3,1378.7,165.3,1380,177z"/>
<path class="st0" d="M1196.7,421.7l90.9,3.7c6.6,0.3,11.8,5.9,11.5,12.5l-0.3,8.4c-0.3,6.6-5.9,11.8-12.5,11.5l-90.9-3.7
	c-6.6-0.3-11.8-5.9-11.5-12.5l0.3-8.4C1184.5,426.6,1190.1,421.4,1196.7,421.7z"/>
<g>
	
		<ellipse transform="matrix(0.5342 -0.8454 0.8454 0.5342 466.2604 1362.9839)" class="st0" cx="1469.9" cy="258.4" rx="27" ry="9"/>
	
		<ellipse transform="matrix(0.9998 -2.215558e-02 2.215558e-02 0.9998 -5.4547 32.1983)" class="st0" cx="1450.4" cy="262.3" rx="8.4" ry="24.4"/>
	<path class="st0" d="M1432.5,294.6c12.6,12.9,26,17.6,32.6,13.8c30.3-17.3-0.4-20-13-32.9c-12.6-12.9-23.2-25.7-28.6-20.4
		C1418.1,260.4,1420,281.7,1432.5,294.6z"/>
	
		<ellipse transform="matrix(0.8008 -0.5989 0.5989 0.8008 132.0024 940.3246)" class="st0" cx="1479.6" cy="271.7" rx="29" ry="8.2"/>
	
		<ellipse transform="matrix(0.9606 -0.2778 0.2778 0.9606 -23.4104 420.3685)" class="st0" cx="1471.4" cy="292.8" rx="28.6" ry="8.8"/>
</g>
<g>
	<path class="st0" d="M1329.9,444.7c-11-4.8-21.8-6.6-24.2-4.2s4.7,8.3,15.7,13.1c11,4.8,21.8,6.6,24.2,4.2
		C1347.9,455.3,1340.9,449.5,1329.9,444.7z"/>
	<path class="st0" d="M1322.3,432.6c-11.8,0.1-21.4,2.4-21.3,5.2s9.7,4.9,21.5,4.8c11.8-0.1,21.4-2.4,21.3-5.2
		S1334.1,432.5,1322.3,432.6z"/>
	<path class="st0" d="M1294.1,426.9c-11.4,7.4-15.6,15.3-12.3,19.2c15,18,17.5-0.2,28.9-7.6s22.7-13.6,18.1-16.8
		C1324.2,418.5,1305.5,419.5,1294.1,426.9z"/>
	<path class="st0" d="M1319.7,452c-8.3-7.6-17.7-12.5-20.9-10.9c-3.2,1.6,1,9.1,9.3,16.7s17.7,12.5,20.9,10.9
		C1332.2,467.1,1328,459.6,1319.7,452z"/>
	<path class="st0" d="M1302.9,448.5c-3.7-9-10.1-15.6-14.3-14.9s-4.4,8.7-0.7,17.7s10.1,15.6,14.3,14.9
		C1306.4,465.4,1306.7,457.5,1302.9,448.5z"/>
</g>
<path class="st24" d="M1340,493v229h-45V548c0-6.1-4.9-11-11-11l0,0c-6.1,0-11,4.9-11,11v174h-45V493H1340z"/>
<path d="M1271,741h-46c-6.6,0-12-5.4-12-12v-14c0-6.6,5.4-12,12-12h46c6.6,0,12,5.4,12,12v14C1283,735.6,1277.6,741,1271,741z"/>
<path d="M1345,740h-46c-6.6,0-12-5.4-12-12v-14c0-6.6,5.4-12,12-12h46c6.6,0,12,5.4,12,12v14C1357,734.6,1351.6,740,1345,740z"/>
</svg>
