<?xml version="1.0"?>
<svg xmlns:rdf="http://www.w3.org/1999/02/22-rdf-syntax-ns#" xmlns="http://www.w3.org/2000/svg" xmlns:cc="http://web.resource.org/cc/" xmlns:xlink="http://www.w3.org/1999/xlink" xmlns:dc="http://purl.org/dc/elements/1.1/" xmlns:svg="http://www.w3.org/2000/svg" id="svg2570" viewBox="0 0 497.98 521.37" version="1.0">
  <defs id="defs2572">
    <radialGradient id="radialGradient2658" gradientUnits="userSpaceOnUse" cy="578.89" cx="224.97" gradientTransform="matrix(.31412 1.4036 -1.2933 .28943 920.46 -73.418)" r="202.03">
      <stop id="stop2633" stop-color="#e6e6e6" offset="0"/>
      <stop id="stop2635" stop-color="#808080" offset="1"/>
    </radialGradient>
    <radialGradient id="radialGradient2660" gradientUnits="userSpaceOnUse" cy="578.89" cx="224.97" gradientTransform="matrix(.31412 1.4036 -1.2933 .28943 920.46 -73.418)" r="202.03">
      <stop id="stop2599" stop-color="#fff" offset="0"/>
      <stop id="stop2601" stop-color="#333" offset="1"/>
    </radialGradient>
    <radialGradient id="radialGradient2662" gradientUnits="userSpaceOnUse" cy="547.77" cx="337.16" gradientTransform="matrix(-3.0889e-7 1.1979 -1 -3.2871e-7 886.08 89.768)" r="56.569">
      <stop id="stop2607" stop-color="#ccc" offset="0"/>
      <stop id="stop2609" stop-color="#333" offset="1"/>
    </radialGradient>
    <radialGradient id="radialGradient2664" gradientUnits="userSpaceOnUse" cy="497.9" cx="337.93" gradientTransform="matrix(1.0315 .080536 -.090134 1.1544 33.931 -103.7)" r="56.569">
      <stop id="stop2639" stop-color="#acf" offset="0"/>
      <stop id="stop2641" stop-color="#003380" offset="1"/>
    </radialGradient>
    <radialGradient id="radialGradient2666" gradientUnits="userSpaceOnUse" cy="559.84" cx="328.35" gradientTransform="matrix(-3.0889e-7 1.1979 -1 -3.2871e-7 886.08 89.768)" r="56.569">
      <stop id="stop2619" stop-color="#acf" offset="0"/>
      <stop id="stop2621" stop-color="#003380" offset="1"/>
    </radialGradient>
  </defs>
  <g id="layer1" transform="translate(-118.72 -200.5)">
    <g id="g2650" transform="translate(949.54 -208.09)">
      <g id="g2643">
        <path id="path2593" transform="matrix(1.304 0 0 1.304 -111.29 -150.6)" fill="url(#radialGradient2658)" d="m551.54 498.8a202.03 202.03 0 1 1 -404.06 0 202.03 202.03 0 1 1 404.06 0z"/>
        <path id="path2623" transform="matrix(1.2 0 0 1.2 -74.953 -98.75)" fill="url(#radialGradient2660)" d="m551.54 498.8a202.03 202.03 0 1 1 -404.06 0 202.03 202.03 0 1 1 404.06 0z"/>
        <path id="path2627" transform="matrix(3.5188 0 0 3.5188 -878.29 -1269.6)" fill="url(#radialGradient2662)" d="m404.06 502.84a56.569 56.569 0 1 1 -113.14 0 56.569 56.569 0 1 1 113.14 0z"/>
        <path id="path2595" transform="matrix(2.6607 0 0 2.6607 -580.12 -838.1)" fill="url(#radialGradient2664)" d="m404.06 502.84a56.569 56.569 0 1 1 -113.14 0 56.569 56.569 0 1 1 113.14 0z"/>
        <path id="path2613" transform="matrix(1.3304 0 0 1.3304 -117.83 -169.15)" fill="url(#radialGradient2666)" d="m404.06 502.84a56.569 56.569 0 1 1 -113.14 0 56.569 56.569 0 1 1 113.14 0z"/>
      </g>
    </g>
    <path id="path2672" transform="matrix(.76429 0 0 .76429 263.42 283.94)" fill="#acf" d="m299.01 290.71a86.873 86.873 0 1 1 -173.75 0 86.873 86.873 0 1 1 173.75 0z"/>
    <path id="path2674" transform="matrix(.76429 0 0 .76429 156.87 282.4)" fill="#acf" d="m299.01 290.71a86.873 86.873 0 1 1 -173.75 0 86.873 86.873 0 1 1 173.75 0z"/>
    <path id="rect2682" d="m249.97 373.5c-0.93 0-1.81 0.09-2.69 0.28h-0.03c-4.67 0.53-9.39 3.66-12.31 8.72l-113.66 196.84c-4.43 7.68-2.98 16.75 3.25 20.35l30.72 17.75c6.23 3.59 14.82 0.3 19.25-7.38l62.03-107.47v204.63c0 8.13 6 14.66 13.44 14.66h235.09c7.45 0 13.44-6.53 13.44-14.66v-205.28l62.44 108.12c4.43 7.68 13.02 10.97 19.25 7.38l30.69-17.75c6.22-3.6 7.68-12.67 3.24-20.35l-113.62-196.81c-3.08-5.33-8.19-8.55-13.09-8.81-0.77-0.15-1.55-0.22-2.35-0.22h-235.09z"/>
    <path id="path2691" stroke="#fff" stroke-width="7.5" d="m367.69 280.34c-84.16 0-152.44 68.28-152.44 152.43 0 14.25 1.97 28.02 5.63 41.1 9.3-13.07 24.56-21.6 41.81-21.6 9.58 0 18.54 2.64 26.22 7.22-11.8-16.13-18.82-35.97-18.82-57.47 0-53.86 43.74-97.56 97.6-97.56s97.56 43.7 97.56 97.56c0 21.89-7.28 42.06-19.47 58.35 7.98-5.12 17.48-8.1 27.66-8.1 16.92 0 31.93 8.2 41.28 20.85 3.53-12.85 5.44-26.37 5.44-40.35 0-84.15-68.32-152.43-152.47-152.43z"/>
    <path id="path2668" transform="matrix(.95 0 0 .95 166.18 6.8602)" d="m299.01 290.71a86.873 86.873 0 1 1 -173.75 0 86.873 86.873 0 1 1 173.75 0z"/>
    <g id="g2709" transform="translate(-4 19.239)" fill="#fff">
      <path id="path2703" transform="translate(1332.1 -58.825)" d="m-907.86 506.27a18.628 18.628 0 1 1 -37.26 0 18.628 18.628 0 1 1 37.26 0z"/>
      <path id="path2705" transform="translate(1332.1 22.175)" d="m-907.86 506.27a18.628 18.628 0 1 1 -37.26 0 18.628 18.628 0 1 1 37.26 0z"/>
      <path id="path2707" transform="translate(1332.1 103.18)" d="m-907.86 506.27a18.628 18.628 0 1 1 -37.26 0 18.628 18.628 0 1 1 37.26 0z"/>
    </g>
    <path id="rect2720" d="m196.59 268.94c-2.98 0-5.4 3.1-5.51 6.99l-1.54-1.54c-1.07-1.07-2.68-1.18-3.62-0.24-0.93 0.93-0.83 2.55 0.24 3.61l4.92 4.93v12.18l-7.23-7.23v-8.83c0-1.51-1.06-2.72-2.39-2.72-1.32 0-2.39 1.21-2.39 2.72v4.05l-1.22-1.21c-2.84-2.85-6.87-3.4-9.03-1.25-2.16 2.16-1.6 6.19 1.24 9.04l0.95 0.94h-4.19c-1.51 0-2.73 1.06-2.73 2.39 0 1.32 1.22 2.39 2.73 2.39h8.97l8.23 8.23h-11.5l-6.42-6.42c-1.06-1.07-2.68-1.17-3.62-0.24-0.93 0.94-0.83 2.55 0.24 3.62l3.04 3.04h-1.34c-4.02 0-7.26 2.45-7.26 5.5 0 2.98 3.09 5.4 6.98 5.51l-1.54 1.55c-1.07 1.06-1.18 2.67-0.24 3.61s2.55 0.83 3.62-0.24l4.92-4.91h12.25l-7.81 7.81h-8.52c-1.51 0-2.73 1.07-2.73 2.39 0 1.33 1.22 2.39 2.73 2.39h3.74l-0.5 0.5c-2.84 2.84-3.4 6.87-1.24 9.03s6.19 1.6 9.03-1.24l1.22-1.22v4.48c0 1.51 1.07 2.73 2.39 2.73 1.33 0 2.39-1.22 2.39-2.73v-9.26l7.23-7.23v11.53l-6.03 6.03c-1.07 1.07-1.17 2.68-0.23 3.62 0.93 0.94 2.54 0.83 3.61-0.24l2.65-2.64v0.69c0 4.03 2.46 7.27 5.51 7.27s5.5-3.24 5.5-7.27v-1.72l3.17 3.17c1.07 1.07 2.69 1.18 3.62 0.24 0.94-0.94 0.83-2.55-0.23-3.62l-6.56-6.55v-11.1l9.25 9.24v7.39c0 1.51 1.06 2.72 2.39 2.72 1.32 0 2.39-1.21 2.39-2.72v-2.62c2.83 2.68 6.72 3.16 8.83 1.05 2.16-2.16 1.6-6.19-1.25-9.03l-0.49-0.5h3.85c1.51 0 2.72-1.06 2.72-2.39 0-1.32-1.21-2.39-2.72-2.39h-8.63l-7.82-7.81h11.19l6.03 6.02c1.07 1.07 2.68 1.18 3.62 0.24s0.83-2.55-0.23-3.62l-2.65-2.64h0.7c4.02 0 7.27-2.46 7.27-5.51s-3.25-5.51-7.27-5.51h-1.72l3.17-3.17c1.06-1.07 1.17-2.68 0.23-3.62-0.93-0.94-2.54-0.83-3.61 0.24l-6.55 6.55h-11.04l8.23-8.23h9.08c1.51 0 2.72-1.07 2.72-2.39 0-1.33-1.21-2.39-2.72-2.39h-4.3l0.94-0.94c2.85-2.85 3.41-6.88 1.25-9.04-2.11-2.1-6-1.62-8.83 1.05v-2.19c0-1.51-1.07-2.72-2.39-2.72-1.33 0-2.39 1.21-2.39 2.72v6.96l-9.25 9.25v-11.16l6.42-6.42c1.07-1.07 1.18-2.69 0.24-3.62-0.94-0.94-2.55-0.83-3.62 0.24l-3.04 3.04v-1.34c0-4.02-2.45-7.27-5.5-7.27z"/>
    <path id="path2753" fill="#fff" d="m267.35 645.42c-1.95 0-3.53 2.03-3.6 4.57l-1.01-1.01c-0.7-0.7-1.76-0.77-2.37-0.15-0.61 0.61-0.55 1.66 0.15 2.36l3.22 3.22v7.97l-4.73-4.72v-5.78c0-0.99-0.69-1.79-1.56-1.79s-1.56 0.8-1.56 1.79v2.65l-0.8-0.8c-1.86-1.86-4.5-2.22-5.91-0.81s-1.05 4.04 0.81 5.91l0.62 0.62h-2.74c-0.99 0-1.78 0.69-1.78 1.56 0 0.86 0.79 1.56 1.78 1.56h5.87l5.38 5.39h-7.52l-4.2-4.2c-0.69-0.7-1.75-0.77-2.36-0.16-0.62 0.61-0.55 1.67 0.15 2.37l1.99 1.99h-0.87c-2.64 0-4.76 1.6-4.76 3.6 0 1.95 2.02 3.52 4.57 3.6l-1.01 1.01c-0.7 0.7-0.77 1.75-0.16 2.37 0.62 0.61 1.67 0.54 2.37-0.16l3.22-3.22h8.02l-5.11 5.11h-5.58c-0.99 0-1.78 0.7-1.78 1.57s0.79 1.56 1.78 1.56h2.45l-0.33 0.33c-1.86 1.86-2.22 4.5-0.81 5.91s4.05 1.04 5.91-0.82l0.8-0.79v2.93c0 0.99 0.69 1.78 1.56 1.78s1.56-0.79 1.56-1.78v-6.06l4.73-4.73v7.54l-3.94 3.95c-0.7 0.69-0.77 1.75-0.15 2.36 0.61 0.62 1.66 0.55 2.36-0.15l1.73-1.73v0.45c0 2.64 1.61 4.76 3.61 4.76 1.99 0 3.6-2.12 3.6-4.76v-1.12l2.07 2.07c0.7 0.7 1.76 0.77 2.37 0.16 0.61-0.62 0.54-1.67-0.16-2.37l-4.28-4.28v-7.27l6.04 6.05v4.83c0 0.99 0.7 1.78 1.57 1.78s1.56-0.79 1.56-1.78v-1.71c1.85 1.75 4.4 2.07 5.78 0.69 1.41-1.41 1.05-4.05-0.82-5.91l-0.32-0.33h2.52c0.99 0 1.78-0.69 1.78-1.56s-0.79-1.57-1.78-1.57h-5.65l-5.11-5.11h7.32l3.95 3.94c0.7 0.7 1.75 0.77 2.36 0.16 0.62-0.61 0.55-1.67-0.15-2.37l-1.73-1.73h0.45c2.64 0 4.76-1.6 4.76-3.6s-2.12-3.6-4.76-3.6h-1.12l2.07-2.08c0.7-0.7 0.77-1.75 0.16-2.37-0.61-0.61-1.67-0.54-2.37 0.16l-4.28 4.29h-7.22l5.38-5.39h5.94c0.99 0 1.78-0.7 1.78-1.56 0-0.87-0.79-1.56-1.78-1.56h-2.81l0.61-0.62c1.87-1.87 2.23-4.5 0.82-5.91-1.38-1.38-3.93-1.07-5.78 0.68v-1.43c0-0.98-0.69-1.78-1.56-1.78s-1.57 0.8-1.57 1.78v4.56l-6.04 6.04v-7.3l4.2-4.2c0.7-0.7 0.76-1.75 0.15-2.36-0.61-0.62-1.67-0.55-2.36 0.15l-1.99 1.99v-0.87c0-2.64-1.61-4.76-3.6-4.76z"/>
    <path id="path2755" d="m555.47 355.22c-2.39 0-4.33 2.48-4.42 5.61l-1.24-1.24c-0.85-0.86-2.15-0.95-2.9-0.19-0.75 0.75-0.67 2.04 0.19 2.9l3.95 3.95v9.78l-5.8-5.81v-7.08c0-1.21-0.85-2.19-1.92-2.19-1.06 0-1.92 0.98-1.92 2.19v3.25l-0.97-0.98c-2.29-2.28-5.52-2.73-7.25-0.99-1.73 1.73-1.29 4.96 1 7.24l0.75 0.76h-3.36c-1.21 0-2.19 0.85-2.19 1.92 0 1.06 0.98 1.92 2.19 1.92h7.2l6.6 6.6h-9.22l-5.15-5.15c-0.86-0.86-2.15-0.94-2.91-0.19-0.75 0.75-0.66 2.04 0.2 2.9l2.44 2.44h-1.08c-3.23 0-5.83 1.97-5.83 4.42 0 2.39 2.48 4.32 5.61 4.41l-1.24 1.24c-0.86 0.86-0.95 2.15-0.19 2.91 0.75 0.75 2.04 0.66 2.9-0.2l3.95-3.94h9.83l-6.27 6.27h-6.84c-1.21 0-2.19 0.85-2.19 1.92 0 1.06 0.98 1.92 2.19 1.92h3l-0.39 0.39c-2.29 2.29-2.73 5.52-1 7.25s4.96 1.29 7.25-1l0.97-0.97v3.59c0 1.21 0.86 2.19 1.92 2.19 1.07 0 1.92-0.98 1.92-2.19v-7.43l5.8-5.8v9.25l-4.84 4.84c-0.85 0.86-0.94 2.15-0.19 2.9 0.76 0.76 2.05 0.67 2.91-0.19l2.12-2.12v0.56c0 3.23 1.97 5.83 4.42 5.83s4.42-2.6 4.42-5.83v-1.38l2.54 2.54c0.86 0.86 2.15 0.94 2.91 0.19 0.75-0.75 0.66-2.04-0.19-2.9l-5.26-5.26v-8.91l7.41 7.42v5.93c0 1.21 0.86 2.18 1.92 2.18 1.07 0 1.92-0.97 1.92-2.18v-2.1c2.27 2.15 5.4 2.53 7.09 0.84 1.73-1.73 1.28-4.96-1-7.25l-0.4-0.39h3.09c1.21 0 2.19-0.86 2.19-1.92 0-1.07-0.98-1.92-2.19-1.92h-6.93l-6.27-6.27h8.98l4.84 4.83c0.86 0.86 2.15 0.95 2.9 0.19 0.76-0.75 0.67-2.04-0.18-2.9l-2.13-2.12h0.56c3.23 0 5.84-1.97 5.84-4.42s-2.61-4.42-5.84-4.42h-1.38l2.54-2.55c0.86-0.85 0.95-2.15 0.19-2.9-0.75-0.75-2.04-0.66-2.9 0.19l-5.25 5.26h-8.86l6.6-6.6h7.29c1.21 0 2.19-0.86 2.19-1.92 0-1.07-0.98-1.92-2.19-1.92h-3.45l0.76-0.76c2.28-2.28 2.73-5.51 1-7.24-1.69-1.7-4.82-1.31-7.09 0.84v-1.76c0-1.21-0.85-2.19-1.92-2.19-1.06 0-1.92 0.98-1.92 2.19v5.59l-7.41 7.41v-8.95l5.15-5.15c0.86-0.86 0.94-2.16 0.19-2.91s-2.05-0.66-2.9 0.2l-2.44 2.43v-1.07c0-3.23-1.97-5.83-4.42-5.83z"/>
  </g>
  <metadata>
    <rdf:RDF>
      <cc:Work>
        <dc:format>image/svg+xml</dc:format>
        <dc:type rdf:resource="http://purl.org/dc/dcmitype/StillImage"/>
        <cc:license rdf:resource="http://creativecommons.org/licenses/publicdomain/"/>
        <dc:publisher>
          <cc:Agent rdf:about="http://openclipart.org/">
            <dc:title>Openclipart</dc:title>
          </cc:Agent>
        </dc:publisher>
        <dc:title>Winter</dc:title>
        <dc:date>2008-11-04T19:22:17</dc:date>
        <dc:description>clip art, clipart, image, man, man, media, people, people, png, public domain, season, season, silhouette, silhouette, svg, symbol, symbol, winter, winter, </dc:description>
        <dc:source>http://openclipart.org/detail/19961/winter-by-sheikh_tuhin-19961</dc:source>
        <dc:creator>
          <cc:Agent>
            <dc:title>sheikh_tuhin</dc:title>
          </cc:Agent>
        </dc:creator>
        <dc:subject>
          <rdf:Bag>
            <rdf:li>clip art</rdf:li>
            <rdf:li>clipart</rdf:li>
            <rdf:li>image</rdf:li>
            <rdf:li>man</rdf:li>
            <rdf:li>media</rdf:li>
            <rdf:li>people</rdf:li>
            <rdf:li>png</rdf:li>
            <rdf:li>public domain</rdf:li>
            <rdf:li>season</rdf:li>
            <rdf:li>silhouette</rdf:li>
            <rdf:li>svg</rdf:li>
            <rdf:li>symbol</rdf:li>
            <rdf:li>winter</rdf:li>
          </rdf:Bag>
        </dc:subject>
      </cc:Work>
      <cc:License rdf:about="http://creativecommons.org/licenses/publicdomain/">
        <cc:permits rdf:resource="http://creativecommons.org/ns#Reproduction"/>
        <cc:permits rdf:resource="http://creativecommons.org/ns#Distribution"/>
        <cc:permits rdf:resource="http://creativecommons.org/ns#DerivativeWorks"/>
      </cc:License>
    </rdf:RDF>
  </metadata>
</svg>
