<?xml version="1.0"?>
<svg xmlns:rdf="http://www.w3.org/1999/02/22-rdf-syntax-ns#" xmlns="http://www.w3.org/2000/svg" xmlns:cc="http://web.resource.org/cc/" xmlns:xlink="http://www.w3.org/1999/xlink" xmlns:dc="http://purl.org/dc/elements/1.1/" xmlns:svg="http://www.w3.org/2000/svg" id="svg2233" viewBox="0 0 363.86 30.67" version="1.0">
  <defs id="defs2235">
    <linearGradient id="linearGradient4394">
      <stop id="stop4396" stop-color="#fff" stop-opacity="0" offset="0"/>
      <stop id="stop4403" stop-color="#fff" stop-opacity="0" offset=".097261"/>
      <stop id="stop4405" stop-color="#fff" stop-opacity=".30769" offset=".1945"/>
      <stop id="stop4407" stop-color="#fff" stop-opacity="0" offset=".29172"/>
      <stop id="stop4409" stop-color="#fff" stop-opacity=".22172" offset=".39589"/>
      <stop id="stop4411" stop-color="#fff" stop-opacity="0" offset=".48269"/>
      <stop id="stop4417" stop-color="#fff" stop-opacity="0" offset=".74568"/>
      <stop id="stop4419" stop-color="#fff" stop-opacity=".14027" offset=".81729"/>
      <stop id="stop4422" stop-color="#fff" stop-opacity="0" offset=".90865"/>
      <stop id="stop4399" stop-color="#fff" stop-opacity="0" offset="1"/>
    </linearGradient>
    <filter id="filter4258">
      <feGaussianBlur id="feGaussianBlur4260" stdDeviation="0.77045859"/>
    </filter>
    <filter id="filter4284" y="-1.0146" width="1.0182" x="-.0090805" height="3.0292">
      <feGaussianBlur id="feGaussianBlur4286" stdDeviation="1.1293934"/>
    </filter>
    <filter id="filter4304">
      <feGaussianBlur id="feGaussianBlur4306" stdDeviation="0.029540777"/>
    </filter>
    <filter id="filter4316" y="-1.9292" width="1.0121" x="-.0060709" height="4.8584">
      <feGaussianBlur id="feGaussianBlur4318" stdDeviation="0.75506289"/>
    </filter>
    <filter id="filter4320" y="-1.9292" width="1.0121" x="-.0060709" height="4.8584">
      <feGaussianBlur id="feGaussianBlur4322" stdDeviation="0.75506289"/>
    </filter>
    <filter id="filter4324" y="-1.44" width="1.006" x="-.0030063" height="3.88">
      <feGaussianBlur id="feGaussianBlur4326" stdDeviation="0.42426409"/>
    </filter>
    <filter id="filter4344" y="-.33548" width="1.0223" x="-.011159" height="1.671">
      <feGaussianBlur id="feGaussianBlur4346" stdDeviation="0.2795625"/>
    </filter>
    <filter id="filter4356">
      <feGaussianBlur id="feGaussianBlur4358" stdDeviation="0.228"/>
    </filter>
    <filter id="filter4372" y="-.28354" width="1.0036" x="-.0018115" height="1.5671">
      <feGaussianBlur id="feGaussianBlur4374" stdDeviation="0.30548897"/>
    </filter>
    <filter id="filter4459">
      <feGaussianBlur id="feGaussianBlur4461" stdDeviation="0.38890873"/>
    </filter>
    <filter id="filter4499" y="-.095691" width="1.2479" x="-.12394" height="1.1914">
      <feGaussianBlur id="feGaussianBlur4501" stdDeviation="0.47928577"/>
    </filter>
    <filter id="filter4520">
      <feGaussianBlur id="feGaussianBlur4522" stdDeviation="0.2896875"/>
    </filter>
    <filter id="filter4598">
      <feGaussianBlur id="feGaussianBlur4600" stdDeviation="0.2896875"/>
    </filter>
    <filter id="filter4674" y="-.48921" width="1.0097" x="-.0048476" height="1.9784">
      <feGaussianBlur id="feGaussianBlur4676" stdDeviation="0.81534436"/>
    </filter>
    <filter id="filter4692" y="-.021728" width="2.254" x="-.627" height="1.0435">
      <feGaussianBlur id="feGaussianBlur4694" stdDeviation="0.16164019"/>
    </filter>
    <filter id="filter4812" y="-.032048" width="1.9389" x="-.46946" height="1.0641">
      <feGaussianBlur id="feGaussianBlur4814" stdDeviation="0.4938123"/>
    </filter>
    <filter id="filter4832" y="-.24918" width="1.0531" x="-.026558" height="1.4984">
      <feGaussianBlur id="feGaussianBlur4834" stdDeviation="0.40903161"/>
    </filter>
    <filter id="filter4848" y="-.17583" width="1.0556" x="-.027794" height="1.3517">
      <feGaussianBlur id="feGaussianBlur4850" stdDeviation="0.37659053"/>
    </filter>
    <filter id="filter4872" y="-.21524" width="1.0697" x="-.034859" height="1.4305">
      <feGaussianBlur id="feGaussianBlur4874" stdDeviation="0.33458515"/>
    </filter>
    <linearGradient id="linearGradient7044" y2="327.26" gradientUnits="userSpaceOnUse" x2="701.42" gradientTransform="matrix(1 0 0 .91557 -.53033 27.721)" y1="327.26" x1="703.04">
      <stop id="stop4200" stop-color="#393938" offset="0"/>
      <stop id="stop4202" stop-color="#c6c6c6" offset="1"/>
    </linearGradient>
    <linearGradient id="linearGradient7046" y2="429.31" gradientUnits="userSpaceOnUse" x2="359.12" gradientTransform="translate(-20.062 -100)" y1="423.56" x1="356.98">
      <stop id="stop4433" stop-color="#8d7955" offset="0"/>
      <stop id="stop4435" stop-color="#97825c" offset="1"/>
    </linearGradient>
    <linearGradient id="linearGradient7048" y2="433.28" xlink:href="#linearGradient4394" gradientUnits="userSpaceOnUse" x2="337.67" gradientTransform="matrix(1 0 0 .94444 -20 -76.636)" y1="420.55" x1="337.67"/>
    <linearGradient id="linearGradient7050" y2="432.01" xlink:href="#linearGradient4394" gradientUnits="userSpaceOnUse" x2="358.57" gradientTransform="translate(-20.062 -100)" y1="420.99" x1="358.57"/>
    <linearGradient id="linearGradient7052" y2="449" gradientUnits="userSpaceOnUse" x2="304.38" gradientTransform="translate(0,-120)" y1="443.04" x1="305.02">
      <stop id="stop4528" stop-color="#e4cca8" offset="0"/>
      <stop id="stop4530" stop-color="#e4cca8" stop-opacity="0" offset="1"/>
    </linearGradient>
    <linearGradient id="linearGradient7054" y2="324.43" gradientUnits="userSpaceOnUse" x2="288.25" y1="331.42" x1="288.25">
      <stop id="stop4638" stop-color="#c4c09d" offset="0"/>
      <stop id="stop4640" stop-color="#dad5b8" offset=".15993"/>
      <stop id="stop4642" stop-color="#cdc6a0" offset=".49216"/>
      <stop id="stop4644" stop-color="#e7e3cf" offset=".70971"/>
      <stop id="stop4646" stop-color="#ddd6bb" offset=".85465"/>
      <stop id="stop4648" stop-color="#dcd9bd" offset="1"/>
    </linearGradient>
    <linearGradient id="linearGradient7056" y2="323.54" gradientUnits="userSpaceOnUse" x2="294.08" y1="332.39" x1="294.08">
      <stop id="stop4618" stop-color="#c9bb98" offset="0"/>
      <stop id="stop4626" stop-color="#dfd2b1" offset=".15993"/>
      <stop id="stop4628" stop-color="#dcc691" offset=".49216"/>
      <stop id="stop4630" stop-color="#f0e3c4" offset=".70971"/>
      <stop id="stop4632" stop-color="#edd9aa" offset=".85465"/>
      <stop id="stop4620" stop-color="#f0dba9" offset="1"/>
    </linearGradient>
    <radialGradient id="radialGradient7058" gradientUnits="userSpaceOnUse" cy="327.97" cx="283.92" gradientTransform="matrix(.72829 0 0 .60375 77.146 129.96)" r="6.1799">
      <stop id="stop4654" offset="0"/>
      <stop id="stop4656" stop-color="#dcd6bb" stop-opacity="0" offset="1"/>
    </radialGradient>
    <radialGradient id="radialGradient7060" gradientUnits="userSpaceOnUse" cy="389.82" cx="154.15" gradientTransform="matrix(1 0 0 .132 0 328.56)" r="91.244">
      <stop id="stop4878" stop-color="#4c5653" offset="0"/>
      <stop id="stop4888" stop-color="#1e2221" offset=".60462"/>
      <stop id="stop4880" stop-color="#1e2221" offset="1"/>
    </radialGradient>
  </defs>
  <g id="layer9" transform="translate(-455.12 89.991)">
    <g id="g4924" transform="matrix(.79407 0 0 .79407 244.72 -331.02)">
      <rect id="rect4926" height="5.5" filter="url(#filter4356)" width="298.5" y="326.5" x="341.5" fill="#495a56"/>
      <rect id="rect4928" height=".93934" filter="url(#filter4320)" width="298.5" y="321.91" x="341.5" fill="#858585"/>
      <rect id="rect4930" height=".93934" filter="url(#filter4316)" width="298.5" y="324.5" x="341.5" fill="#858585"/>
      <path id="path4932" filter="url(#filter4674)" d="m313.75 319.39c10.21-1.33 24.76-4 30.63-4h373.04v2.18h-373.04l-30.63 1.82z" fill="#c6c6c6"/>
      <rect id="rect4934" transform="matrix(1.0104 0 0 1 -6.6515 0)" height="2" filter="url(#filter4344)" width="60.125" y="327.5" x="639.88" fill="#dededc"/>
      <rect id="rect4936" transform="matrix(1.138 0 0 1 -43.48 0)" height=".70711" filter="url(#filter4324)" width="338.7" y="333.98" x="315.02" fill="#dadad8"/>
      <path id="path4938" filter="url(#filter4372)" d="m345.44 339.04h373.04l-1.06 0.8h-373.04c-7.35 0-20.43-1.23-30.63-2.58l31.69 1.78z" fill="#cdcdcb"/>
      <path id="path4940" d="m717.34 315.11v3.98h-15v18.46h15v3.25c3.59-3.19 5.85-7.75 5.85-12.84v-0.31c-0.09-4.98-2.33-9.41-5.85-12.54z" fill="#4a5b57"/>
      <rect id="rect4942" height="12.021" width="18.592" y="320.55" x="313.75" fill="#7f6a4b"/>
      <rect id="rect4944" height="21.688" filter="url(#filter4304)" width="1.9445" y="317.48" x="700.57" fill="url(#linearGradient7044)"/>
      <path id="path4946" filter="url(#filter4258)" d="m718.56 316.16v3.63h-15.68v16.84h15.68v2.96c2.9-3.16 4.41-7.07 4.41-11.71v-0.28c-0.09-4.55-1.58-7.85-4.41-11.44z" fill="#111514" transform="matrix(1 0 0 .89102 -.53033 35.735)"/>
      <rect id="rect4948" height="2.6716" filter="url(#filter4284)" width="298.5" y="327.91" x="341.5" fill="#101211"/>
      <path id="path4950" d="m341.56 320.9l-9.28-0.35v12.02l9.28-0.45v-11.22z" fill="url(#linearGradient7046)"/>
      <rect id="rect4952" transform="matrix(-.20268 0 0 1 769.72 0)" height=".93934" filter="url(#filter4320)" width="298.5" y="321.91" x="341.5" fill="#ccc"/>
      <rect id="rect4954" transform="matrix(-.20268 0 0 1 769.72 0)" height=".93934" filter="url(#filter4316)" width="298.5" y="324.5" x="341.5" fill="#ccc"/>
      <rect id="rect4956" transform="matrix(.97381 0 0 1 8.7037 0)" height="12.021" filter="url(#filter4459)" width="19.092" y="320.55" x="313.25" fill="url(#linearGradient7048)"/>
      <path id="path4958" opacity=".67337" filter="url(#filter4499)" d="m341.56 320.9l-9.28-0.35v12.02l9.28-0.45v-11.22z" fill="url(#linearGradient7050)"/>
      <rect id="rect4960" height="17.854" filter="url(#filter4692)" width=".61872" y="319.13" x="716.83" fill="#474b4a"/>
      <path id="path4962" d="m313.75 319.02c10.21-1.33 24.76-4 30.63-4h373.04v25.87h-373.04c-7.35 0-20.43-2.65-30.63-4v-17.87z" fill="#999" fill-opacity=".13514"/>
      <path id="path4964" d="m296.25 322.84l17.53-3.84v17.94l-17.53-3.85v-10.25z" fill="#b3a185"/>
      <path id="path4966" filter="url(#filter4520)" d="m297.38 324.06l15.28-2.94v13.69l-15.28-2.93v-7.82z" fill="#c5ad8b"/>
      <path id="path4968" filter="url(#filter4598)" d="m297.38 324.06l15.28-2.94v13.69l-15.28-2.93v-7.82z" fill="url(#linearGradient7052)"/>
      <path id="path4970" d="m286.51 325.04l9.77-2.19v10.24l-9.77-2.19c-3.57-0.8-3.33-5.11 0-5.86z" fill="url(#linearGradient7054)"/>
      <path id="path4972" d="m291.98 323.81l4.3-0.96v10.24l-4.3-1.06c-1.26-2.83-1.37-5.57 0-8.22z" fill="url(#linearGradient7056)"/>
      <path id="path4974" d="m286.51 325.04l9.77-2.19v10.24l-9.77-2.19c-3.57-0.8-3.33-5.11 0-5.86z" fill="url(#radialGradient7058)"/>
    </g>
    <g id="g4976" transform="matrix(.79407 0 0 .79407 332.72 -375.02)">
      <path id="path4978" d="m154.15 374.77c0-0.29 0.34-0.51 0.68-0.58 13.28-2.75 26.48-4.62 41.75-6.25 23.66-6.94 46.63-6.94 69.65-7.43 0 0 0.87-1.47 1.85-1.55 0.97-0.09 2.03 1.2 2.03 1.2 22.78-0.28 48.62-0.74 63.96 1.64 4.38 0.68 2.22 5.46 0.35 5.66-21.39 2.35-42.8 4.44-63.37 4.95l-1.73 2.4 0.05 20.97c0 0.96-0.63 1.8-1.26 1.8-1.09 0-1.98-0.97-2.53-1.71-18.31-0.14-44.78-0.34-58.75-1.06-17.37-0.9-34.62-5.03-52-8.7-0.37-0.08-0.68-0.26-0.68-0.55v-10.79z" fill="url(#radialGradient7060)"/>
      <path id="path4980" filter="url(#filter4812)" d="m267.2 359.58l-0.59 0.74c0.28 3.93 0.39 6.75-0.44 12.1 0.59 3.16-0.14 6.13-0.27 9.32-0.17 4.41-0.66 10.03-0.73 13.98h0.55l0.7 0.84c0.07-3.89-0.16-10.28 0.02-14.72 0.09-3.14 0.82-6.34 0.06-9.42 0.04-0.15 1.99-7.28 0.7-12.84z" fill="#fff" fill-opacity=".39459"/>
      <path id="path4982" filter="url(#filter4832)" d="m176.4 370.68c7.74-1.24 30.69-2.74 28.72-2.37-2.74 0.53-5.31 1.95-7.35 1.98-6.3 0.12-18.25 0.39-21.37 0.39z" fill="#fff" fill-opacity=".18378"/>
      <path id="path4984" filter="url(#filter4848)" d="m155.21 375.43c12.09-2.27 31.06-2.56 31.67-3.03 0.62-0.49-31.52 3.77-31.5 5.49 0.01 0.98-1.66-2.52-0.17-2.46z" fill="#fff" fill-opacity=".32973"/>
      <path id="path4986" filter="url(#filter4872)" d="m154.75 384c6.98 1.63 18.91 3.25 22.5 3.62 3.51 0.37-18.05-1.33-22.28-2.26-0.86-0.19-0.59-1.24-0.22-1.36z" fill="#fff" fill-opacity=".33514"/>
    </g>
  </g>
  <metadata>
    <rdf:RDF>
      <cc:Work>
        <dc:format>image/svg+xml</dc:format>
        <dc:type rdf:resource="http://purl.org/dc/dcmitype/StillImage"/>
        <cc:license rdf:resource="http://creativecommons.org/licenses/publicdomain/"/>
        <dc:publisher>
          <cc:Agent rdf:about="http://openclipart.org/">
            <dc:title>Openclipart</dc:title>
          </cc:Agent>
        </dc:publisher>
        <dc:title>black BIC pen</dc:title>
        <dc:date>2009-04-27T20:03:03</dc:date>
        <dc:description>the black BIC pen</dc:description>
        <dc:source>http://openclipart.org/detail/25369/black-bic-pen-by-benbois</dc:source>
        <dc:creator>
          <cc:Agent>
            <dc:title>BenBois</dc:title>
          </cc:Agent>
        </dc:creator>
        <dc:subject>
          <rdf:Bag>
            <rdf:li>bic</rdf:li>
            <rdf:li>black</rdf:li>
            <rdf:li>clip art</rdf:li>
            <rdf:li>clipart</rdf:li>
            <rdf:li>image</rdf:li>
            <rdf:li>media</rdf:li>
            <rdf:li>office</rdf:li>
            <rdf:li>pen</rdf:li>
            <rdf:li>photorealistic</rdf:li>
            <rdf:li>png</rdf:li>
            <rdf:li>public domain</rdf:li>
            <rdf:li>svg</rdf:li>
            <rdf:li>writing</rdf:li>
          </rdf:Bag>
        </dc:subject>
      </cc:Work>
      <cc:License rdf:about="http://creativecommons.org/licenses/publicdomain/">
        <cc:permits rdf:resource="http://creativecommons.org/ns#Reproduction"/>
        <cc:permits rdf:resource="http://creativecommons.org/ns#Distribution"/>
        <cc:permits rdf:resource="http://creativecommons.org/ns#DerivativeWorks"/>
      </cc:License>
    </rdf:RDF>
  </metadata>
</svg>
