<?xml version="1.0"?>
<svg xmlns:rdf="http://www.w3.org/1999/02/22-rdf-syntax-ns#" xmlns="http://www.w3.org/2000/svg" xmlns:cc="http://creativecommons.org/ns#" xmlns:xlink="http://www.w3.org/1999/xlink" xmlns:dc="http://purl.org/dc/elements/1.1/" xmlns:svg="http://www.w3.org/2000/svg" id="svg2" viewBox="0 0 205.47 272.2" version="1.0">
  <g id="g14435" transform="translate(-58.362 -178.7)">
    <g id="g14431" fill-rule="evenodd">
      <path id="path12703" fill="#fff" d="m59.161 179.01c-0.268 0-0.485 0.24-0.485 0.54v78.85c0 30.4 48.494 54.8 49.684 54.88s49.69-24.48 49.69-54.88v-78.85c0-0.3-0.22-0.54-0.49-0.54h-98.399z"/>
      <path id="path10990" stroke="#000" stroke-width=".62865" fill="#ffe117" d="m59.161 179.01c-0.268 0-0.485 0.24-0.485 0.54v78.85c0 30.4 48.494 54.8 49.684 54.88s49.69-24.48 49.69-54.88v-78.85c0-0.3-0.22-0.54-0.49-0.54h-98.399zm6.571 7.15h38.538v45.53h-38.066c-0.16 0-0.317 0-0.472 0.02v-45.55zm46.968 0h38.3v45.53h-38.3v-45.53zm-46.968 54.69c0.155 0.02 0.312 0.03 0.472 0.03h38.066v62.25c-0.22-0.12-0.41-0.24-0.64-0.37-4.471-2.63-10.387-6.47-16.168-11.14-11.563-9.34-21.73-21.88-21.73-33.22v-17.55zm46.968 0.03h38.3v17.52c0 11.34-10.18 23.93-21.74 33.28-5.79 4.68-11.7 8.52-16.16 11.14-0.14 0.08-0.26 0.15-0.4 0.23v-62.17z"/>
    </g>
    <g id="g14422" transform="translate(.79486 -3.0133)" fill="#d40000">
      <path id="path14405" d="m83.22 215.37c-2.493-3.69-4.386-7.99-0.184-12.19s10.597-4.41 15.284 3.28c4.69 7.68 0.876 17.68 3.46 27.47-9.788-2.58-19.785 1.23-27.473-3.46s-7.48-11.08-3.277-15.28c4.202-4.21 8.496-2.31 12.19 0.18z"/>
      <path id="path14416" d="m131.91 215.37c2.5-3.69 4.39-7.99 0.19-12.19s-10.6-4.41-15.29 3.28c-4.68 7.68-0.87 17.68-3.46 27.47 9.79-2.58 19.79 1.23 27.48-3.46 7.68-4.69 7.48-11.08 3.27-15.28-4.2-4.21-8.49-2.31-12.19 0.18z"/>
      <path id="path14418" d="m131.91 263.44c3.7 2.5 7.99 4.39 12.19 0.19 4.21-4.21 4.41-10.6-3.27-15.29-7.69-4.68-17.69-0.87-27.48-3.46 2.59 9.79-1.22 19.79 3.46 27.48 4.69 7.68 11.09 7.48 15.29 3.27 4.2-4.2 2.31-8.49-0.19-12.19z"/>
      <path id="path14420" d="m83.22 263.44c-3.694 2.5-7.988 4.39-12.19 0.19-4.203-4.21-4.411-10.6 3.277-15.29 7.688-4.68 17.685-0.87 27.473-3.46-2.584 9.79 1.23 19.79-3.46 27.48-4.687 7.68-11.082 7.48-15.284 3.27-4.202-4.2-2.309-8.49 0.184-12.19z"/>
    </g>
    <path id="path10998" d="m123.74 235.89c0 8.49-6.88 15.37-15.37 15.38-8.486 0-15.375-6.87-15.388-15.36-0.014-8.49 6.854-15.38 15.348-15.4 8.49-0.02 15.39 6.84 15.41 15.33" fill-rule="evenodd" stroke="#000" stroke-width=".62865" fill="#f8db16"/>
  </g>
  <g id="g14490" transform="translate(-19.307 -162.42)">
    <path id="path14381" fill-rule="evenodd" fill="#fff" d="m125.57 163.23c-0.27 0-0.48 0.24-0.48 0.54v78.85c0 30.4 48.49 54.8 49.68 54.88s49.69-24.48 49.69-54.88v-78.85c0-0.3-0.22-0.54-0.49-0.54h-98.4z"/>
    <path id="path14383" d="m125.57 163.23c-0.27 0-0.48 0.24-0.48 0.54v78.85c0 30.4 48.49 54.8 49.68 54.88s49.69-24.48 49.69-54.88v-78.85c0-0.3-0.22-0.54-0.49-0.54h-98.4zm6.57 7.15h38.54v45.53h-38.06c-0.16 0-0.32 0.01-0.48 0.02v-45.55zm46.98 0h38.29v45.53h-38.29v-45.53zm-46.98 54.69c0.16 0.02 0.32 0.03 0.48 0.03h38.06v62.25c-0.21-0.12-0.41-0.24-0.63-0.37-4.48-2.63-10.39-6.47-16.18-11.14-11.56-9.34-21.73-21.87-21.73-33.22v-17.55zm46.98 0.03h38.29v17.52c0 11.34-10.18 23.93-21.74 33.28-5.78 4.68-11.7 8.52-16.16 11.14-0.14 0.08-0.26 0.15-0.39 0.23v-62.17z" fill-rule="evenodd" stroke="#000" stroke-width=".62865" fill="#ffe117"/>
    <g id="g14481" transform="translate(-174.17 -84.976)" fill="#d40000">
      <path id="path14446" d="m354.69 272.87c10.61 4.95 17.68 4.95 28.29 0-4.95 10.61-4.95 17.68 0 28.29-10.61-4.95-17.68-4.95-28.29 0 4.95-10.61 4.95-17.68 0-28.29z"/>
      <path id="path14448" d="m314.94 311.61c10.6 4.95 17.67 4.95 28.28 0-4.95 10.6-4.95 17.67 0 28.28-10.61-4.95-17.68-4.95-28.28 0 4.95-10.61 4.95-17.68 0-28.28z"/>
      <path id="path14450" d="m314.94 272.27c10.6 4.95 17.67 4.95 28.28 0-4.95 10.61-4.95 17.68 0 28.29-10.61-4.95-17.68-4.95-28.28 0 4.95-10.61 4.95-17.68 0-28.29z"/>
      <path id="rect3462" d="m354.69 311.61c10.61 4.95 17.68 4.95 28.29 0-4.95 10.6-4.95 17.67 0 28.28-10.61-4.95-17.68-4.95-28.29 0 4.95-10.61 4.95-17.68 0-28.28z"/>
    </g>
    <path id="path14385" d="m190.15 220.11c0 8.49-6.87 15.37-15.36 15.38s-15.38-6.87-15.4-15.36c-0.01-8.49 6.86-15.38 15.35-15.4s15.39 6.84 15.41 15.33" fill-rule="evenodd" stroke="#000" stroke-width=".62865" fill="#f8db16"/>
  </g>
  <g id="g14517" transform="translate(-198.9 -231.13)">
    <path id="path14373" fill-rule="evenodd" fill="#fff" d="m199.7 368.74c-0.27 0-0.48 0.24-0.48 0.54v78.85c0 30.4 48.49 54.8 49.68 54.88s49.69-24.48 49.69-54.88v-78.85c0-0.3-0.22-0.54-0.49-0.54h-98.4z"/>
    <path id="path14375" d="m199.7 368.74c-0.27 0-0.48 0.24-0.48 0.54v78.85c0 30.4 48.49 54.8 49.68 54.88s49.69-24.48 49.69-54.88v-78.85c0-0.3-0.22-0.54-0.49-0.54h-98.4zm6.57 7.15h38.54v45.53h-38.07c-0.16 0-0.31 0.01-0.47 0.02v-45.55zm46.97 0h38.3v45.53h-38.3v-45.53zm-46.97 54.69c0.16 0.02 0.31 0.03 0.47 0.03h38.07v62.25c-0.22-0.12-0.41-0.24-0.64-0.37-4.47-2.63-10.39-6.47-16.17-11.14-11.56-9.34-21.73-21.87-21.73-33.22v-17.55zm46.97 0.03h38.3v17.52c0 11.34-10.18 23.93-21.74 33.28-5.79 4.68-11.7 8.52-16.16 11.14-0.14 0.08-0.26 0.15-0.4 0.23v-62.17z" fill-rule="evenodd" stroke="#000" stroke-width=".62865" fill="#ffe117"/>
    <g id="g14508" transform="translate(-60.267 169.95)">
      <path id="path14500" d="m295.65 256.3c3.96-6.23 1.53-9.77-3.58-15.65 0.58 2.36 0.05 5.05-2.59 7.67-4.33 4.31-9.74 4.69-14.14-1.77-4.43-6.51 1.23-16.4-0.91-25.61 9.21 2.13 19.11-3.52 25.62 0.91 6.45 4.4 6.19 9.69 1.76 14.14-2.62 2.64-5.31 3.17-7.66 2.59 5.87 5.11 9.41 7.54 15.64 3.58-3.54 3.53-10.61 10.6-14.14 14.14z"/>
      <path id="path14502" d="m322.69 256.3c-3.97-6.23-1.53-9.77 3.58-15.65-0.58 2.36-0.05 5.05 2.59 7.67 4.33 4.31 9.74 4.69 14.14-1.77 4.43-6.51-1.23-16.4 0.9-25.61-9.2 2.13-19.1-3.52-25.61 0.91-6.45 4.4-6.19 9.69-1.76 14.14 2.62 2.64 5.31 3.17 7.66 2.59-5.87 5.11-9.41 7.54-15.64 3.58l14.14 14.14z"/>
      <path id="path14504" d="m322.69 253.85c-3.97 6.23-1.53 9.77 3.58 15.65-0.58-2.36-0.05-5.05 2.59-7.67 4.33-4.31 9.74-4.69 14.14 1.77 4.43 6.51-1.23 16.41 0.9 25.61-9.2-2.13-19.1 3.52-25.61-0.91-6.45-4.4-6.19-9.68-1.76-14.14 2.62-2.64 5.31-3.17 7.66-2.59-5.87-5.1-9.41-7.54-15.64-3.58l14.14-14.14z"/>
      <path id="path14506" d="m295.65 253.85c3.96 6.23 1.53 9.77-3.58 15.65 0.58-2.36 0.05-5.05-2.59-7.67-4.33-4.31-9.74-4.69-14.14 1.77-4.43 6.51 1.23 16.41-0.91 25.61 9.21-2.13 19.11 3.52 25.62-0.91 6.45-4.4 6.19-9.68 1.76-14.14-2.62-2.64-5.31-3.17-7.66-2.59 5.87-5.1 9.41-7.54 15.64-3.58-3.54-3.53-10.61-10.6-14.14-14.14z"/>
    </g>
    <path id="path14377" d="m264.28 425.62c0 8.49-6.88 15.37-15.37 15.38s-15.37-6.87-15.39-15.36c-0.01-8.49 6.86-15.38 15.35-15.4s15.39 6.84 15.41 15.33" fill-rule="evenodd" stroke="#000" stroke-width=".62865" fill="#f8db16"/>
  </g>
  <g id="g14542" transform="translate(-22.32 -164.23)">
    <path id="path14365" fill-rule="evenodd" fill="#fff" d="m128.59 301.85c-0.27 0-0.49 0.24-0.49 0.53v78.85c0 30.41 48.49 54.81 49.68 54.88 1.19 0.08 49.69-24.47 49.69-54.88v-78.85c0-0.29-0.22-0.53-0.49-0.53h-98.39z"/>
    <path id="path14367" d="m128.59 301.85c-0.27 0-0.49 0.24-0.49 0.53v78.85c0 30.41 48.49 54.81 49.68 54.88 1.19 0.08 49.69-24.47 49.69-54.88v-78.85c0-0.29-0.22-0.53-0.49-0.53h-98.39zm6.57 7.15h38.53v45.52h-38.06c-0.16 0-0.32 0.01-0.47 0.03v-45.55zm46.97 0h38.29v45.52h-38.29v-45.52zm-46.97 54.69c0.15 0.02 0.31 0.02 0.47 0.02h38.06v62.25c-0.21-0.12-0.41-0.23-0.63-0.36-4.48-2.64-10.39-6.48-16.17-11.15-11.57-9.34-21.73-21.87-21.73-33.22v-17.54zm46.97 0.02h38.29v17.52c0 11.35-10.17 23.93-21.74 33.29-5.78 4.68-11.69 8.52-16.16 11.14-0.13 0.08-0.26 0.15-0.39 0.23v-62.18z" fill-rule="evenodd" stroke="#000" stroke-width=".62865" fill="#ffe117"/>
    <g id="g14533" transform="translate(-172.36 53.035)">
      <path id="path14398" d="m315.17 271.67c-3.35 3.35-3.21 8.91 0.3 12.42 2.24 2.19 5.25 2.91 8.22 3.5-2.33 0.32-4.4 1.19-5.99 2.77-3.35 3.34-3.21 8.91 0.3 12.42s9.08 3.65 12.42 0.31c2.67-2.76 2.94-6.82 3.48-10.55 4.38 5.14 6.27 8.59 2.82 14.15l13.47-13.47c-5.56 3.45-9.01 1.55-14.15-2.82 3.91-0.31 7.65-0.98 10.55-3.48 3.34-3.34 3.21-8.91-0.31-12.42-3.51-3.52-9.08-3.65-12.42-0.31-1.63 1.63-2.28 3.78-2.77 6-0.41-3.11-1.42-5.89-3.5-8.22-3.51-3.51-9.07-3.65-12.42-0.3z"/>
      <path id="path14527" d="m383.93 271.67c3.34 3.35 3.21 8.91-0.31 12.42-2.24 2.19-5.25 2.91-8.21 3.5 2.32 0.32 4.4 1.19 5.99 2.77 3.35 3.34 3.21 8.91-0.3 12.42-3.52 3.51-9.08 3.65-12.43 0.31-2.66-2.76-2.93-6.82-3.47-10.55-4.38 5.14-6.28 8.59-2.82 14.15-3.37-3.37-10.11-10.1-13.47-13.47 5.55 3.45 9 1.55 14.14-2.82-3.91-0.31-7.65-0.98-10.54-3.48-3.35-3.34-3.21-8.91 0.3-12.42 3.52-3.52 9.08-3.65 12.43-0.31 1.62 1.63 2.28 3.78 2.76 6 0.42-3.11 1.43-5.89 3.5-8.22 3.51-3.51 9.08-3.65 12.43-0.3z"/>
      <path id="path14529" d="m383.93 340.68c3.34-3.35 3.21-8.91-0.31-12.42-2.24-2.19-5.25-2.91-8.21-3.5 2.32-0.33 4.4-1.19 5.99-2.77 3.35-3.34 3.21-8.91-0.3-12.42-3.52-3.52-9.08-3.65-12.43-0.31-2.66 2.76-2.93 6.82-3.47 10.55-4.38-5.14-6.28-8.59-2.82-14.15-3.37 3.37-10.11 10.1-13.47 13.47 5.55-3.45 9-1.56 14.14 2.82-3.91 0.31-7.65 0.98-10.54 3.48-3.35 3.34-3.21 8.91 0.3 12.42 3.52 3.51 9.08 3.65 12.43 0.3 1.62-1.62 2.28-3.77 2.76-5.99 0.42 3.11 1.43 5.89 3.5 8.22 3.51 3.51 9.08 3.65 12.43 0.3z"/>
      <path id="path14531" d="m315.17 340.68c-3.35-3.35-3.21-8.91 0.3-12.42 2.24-2.19 5.25-2.91 8.22-3.5-2.33-0.33-4.4-1.19-5.99-2.77-3.35-3.34-3.21-8.91 0.3-12.42 3.51-3.52 9.08-3.65 12.42-0.31 2.67 2.76 2.94 6.82 3.48 10.55 4.38-5.14 6.27-8.59 2.82-14.15l13.47 13.47c-5.56-3.45-9.01-1.56-14.15 2.82 3.91 0.31 7.65 0.98 10.55 3.48 3.34 3.34 3.21 8.91-0.31 12.42-3.51 3.51-9.08 3.65-12.42 0.3-1.63-1.62-2.28-3.77-2.77-5.99-0.41 3.11-1.42 5.89-3.5 8.22-3.51 3.51-9.07 3.65-12.42 0.3z"/>
    </g>
    <path id="path14369" d="m193.17 358.72c0 8.49-6.88 15.38-15.37 15.38-8.49 0.01-15.38-6.86-15.39-15.35-0.02-8.49 6.85-15.39 15.34-15.41s15.39 6.84 15.42 15.33" fill-rule="evenodd" stroke="#000" stroke-width=".62865" fill="#f8db16"/>
  </g>
  <metadata>
    <rdf:RDF>
      <cc:Work>
        <dc:format>image/svg+xml</dc:format>
        <dc:type rdf:resource="http://purl.org/dc/dcmitype/StillImage"/>
        <cc:license rdf:resource="http://creativecommons.org/licenses/publicdomain/"/>
        <dc:publisher>
          <cc:Agent rdf:about="http://openclipart.org/">
            <dc:title>Openclipart</dc:title>
          </cc:Agent>
        </dc:publisher>
        <dc:title>Stylized Shield for Card Faces</dc:title>
        <dc:date>2009-02-09T23:40:40</dc:date>
        <dc:description>A Jack's Shield stylized for suited playing cards</dc:description>
        <dc:source>http://openclipart.org/detail/21550/stylized-shield-for-card-faces-by-momoko</dc:source>
        <dc:creator>
          <cc:Agent>
            <dc:title>momoko</dc:title>
          </cc:Agent>
        </dc:creator>
        <dc:subject>
          <rdf:Bag>
            <rdf:li>cards</rdf:li>
            <rdf:li>clip art</rdf:li>
            <rdf:li>clipart</rdf:li>
            <rdf:li>clubs</rdf:li>
            <rdf:li>diamonds</rdf:li>
            <rdf:li>hearts</rdf:li>
            <rdf:li>image</rdf:li>
            <rdf:li>jack</rdf:li>
            <rdf:li>media</rdf:li>
            <rdf:li>png</rdf:li>
            <rdf:li>public domain</rdf:li>
            <rdf:li>remix</rdf:li>
            <rdf:li>shield</rdf:li>
            <rdf:li>spades</rdf:li>
            <rdf:li>svg</rdf:li>
          </rdf:Bag>
        </dc:subject>
      </cc:Work>
      <cc:License rdf:about="http://creativecommons.org/licenses/publicdomain/">
        <cc:permits rdf:resource="http://creativecommons.org/ns#Reproduction"/>
        <cc:permits rdf:resource="http://creativecommons.org/ns#Distribution"/>
        <cc:permits rdf:resource="http://creativecommons.org/ns#DerivativeWorks"/>
      </cc:License>
    </rdf:RDF>
  </metadata>
</svg>
