<?xml version="1.0"?>
<svg xmlns:rdf="http://www.w3.org/1999/02/22-rdf-syntax-ns#" xmlns="http://www.w3.org/2000/svg" xmlns:cc="http://creativecommons.org/ns#" xmlns:xlink="http://www.w3.org/1999/xlink" xmlns:dc="http://purl.org/dc/elements/1.1/" xmlns:svg="http://www.w3.org/2000/svg" id="svg2" viewBox="0 0 325 325" version="1.1">
  <title id="title5641">Nube computo</title>
  <defs id="defs4">
    <filter id="filter5244" color-interpolation-filters="sRGB">
      <feGaussianBlur id="feGaussianBlur5246" stdDeviation="1.543125"/>
    </filter>
    <filter id="filter3867">
      <feGaussianBlur id="feGaussianBlur3869" stdDeviation="1.4445464"/>
    </filter>
    <filter id="filter3871">
      <feGaussianBlur id="feGaussianBlur3873" stdDeviation="0.91333317"/>
    </filter>
    <linearGradient id="linearGradient3423" y2="337.39" gradientUnits="userSpaceOnUse" x2="255" gradientTransform="matrix(1 0 0 1.2867 .36664 -79.412)" y1="220" x1="256">
      <stop id="stop4359" stop-color="#fff" offset="0"/>
      <stop id="stop4361" stop-color="#fff" stop-opacity="0" offset="1"/>
    </linearGradient>
    <linearGradient id="linearGradient3426" y2="393.37" gradientUnits="userSpaceOnUse" x2="237" gradientTransform="translate(5.3666 -1.8673)" y1="180.35" x1="241">
      <stop id="stop5234" stop-color="#fff" offset="0"/>
      <stop id="stop5236" stop-color="#fff" stop-opacity="0" offset="1"/>
    </linearGradient>
    <linearGradient id="linearGradient3429" y2="537.36" gradientUnits="userSpaceOnUse" x2="252" gradientTransform="matrix(1 0 0 1.0054 4.3666 -1.703)" y1="456.26" x1="252">
      <stop id="stop5208" stop-color="#0055d4" stop-opacity="0" offset="0"/>
      <stop id="stop5210" stop-color="#333" offset="1"/>
    </linearGradient>
    <filter id="filter4266" height="1.5" width="1.5" y="-.25" x="-.25" color-interpolation-filters="sRGB">
      <feGaussianBlur id="feGaussianBlur4268" stdDeviation="7" result="result8"/>
      <feComposite id="feComposite4270" operator="xor" result="result6" in2="SourceGraphic" in="result8"/>
      <feDisplacementMap id="feDisplacementMap4272" scale="75" yChannelSelector="A" in2="result6" result="result4" xChannelSelector="A" in="result6"/>
      <feComposite id="feComposite4274" in2="SourceGraphic" k1="1" result="result2" in="result4" operator="arithmetic"/>
    </filter>
  </defs>
  <g id="layer1" transform="translate(-85.41 -226.18)">
    <g id="g4306">
      <path id="path5219" d="m124.59 230.97c-19.58 0-35.594 16.013-35.594 35.594v245.44c0 19.58 16.013 35.594 35.594 35.594h245.44c19.58 0 35.594-16.013 35.594-35.594v-245.44c0-19.58-16.013-35.594-35.594-35.594h-245.44z" fill="#0055d4"/>
      <path id="path5226" d="m126.59 230.97c-19.58 0-35.594 16.013-35.594 35.594v245.44c0 19.58 16.013 35.594 35.594 35.594h245.44c19.58 0 35.594-16.013 35.594-35.594v-245.44c0-19.58-16.013-35.594-35.594-35.594h-245.44zm0 13.156h245.44c12.441 0 22.438 9.9964 22.438 22.438v245.44c0 12.441-9.9964 22.438-22.438 22.438h-245.44c-12.441 0-22.438-9.9964-22.438-22.438v-245.44c0-12.441 9.9964-22.438 22.438-22.438z" fill="#0055d4"/>
      <path id="path5240" filter="url(#filter5244)" d="m126.59 234.48c-17.399 0-31.594 14.194-31.594 31.594v245.44c0 17.399 14.194 31.594 31.594 31.594h245.44c17.399 0 31.594-14.194 31.594-31.594v-245.44c0-17.399-14.194-31.594-31.594-31.594h-245.44zm0 5.1562h245.44c14.584 0 26.438 11.854 26.438 26.438v245.44c0 14.584-11.854 26.438-26.438 26.438h-245.44c-14.584 0-26.438-11.854-26.438-26.438v-245.44c0-14.584 11.854-26.438 26.438-26.438z" fill="url(#linearGradient3426)"/>
      <path id="path5202" filter="url(#filter3867)" d="m125.59 246.23c-11.894 0-21.344 9.5011-21.344 21.46v246.77c0 11.959 9.4497 21.46 21.344 21.46h245.44c11.894 0 21.344-9.5011 21.344-21.46v-246.77c0-11.959-9.4497-21.46-21.344-21.46h-245.44z" fill="url(#linearGradient3429)" transform="matrix(1.0275 0 0 .99088 -6.1723 2.2466)"/>
      <g id="g4286" transform="translate(301 16.5)">
        <g id="g4323" fill="#fff" transform="translate(-302.06 -8.3805)">
          <path id="path4297" d="m323 425.86c0 21.815-40.518 39.5-90.5 39.5s-90.5-17.685-90.5-39.5 40.518-39.5 90.5-39.5 90.5 17.685 90.5 39.5z" transform="matrix(1.2652 0 0 1 -32.798 -9.701)"/>
          <path id="path4299" d="m323 425.86c0 21.815-40.518 39.5-90.5 39.5s-90.5-17.685-90.5-39.5 40.518-39.5 90.5-39.5 90.5 17.685 90.5 39.5z" transform="matrix(.92265 0 0 1 -10.157 -8.701)"/>
          <path id="path4301" d="m323 425.86c0 21.815-40.518 39.5-90.5 39.5s-90.5-17.685-90.5-39.5 40.518-39.5 90.5-39.5 90.5 17.685 90.5 39.5z" transform="matrix(.69613 0 0 1 48.009 -54.701)"/>
          <path id="path4303" d="m323 425.86c0 21.815-40.518 39.5-90.5 39.5s-90.5-17.685-90.5-39.5 40.518-39.5 90.5-39.5 90.5 17.685 90.5 39.5z" transform="matrix(.55249 0 0 .87342 154.41 -31.794)"/>
          <path id="path4305" d="m323 425.86c0 21.815-40.518 39.5-90.5 39.5s-90.5-17.685-90.5-39.5 40.518-39.5 90.5-39.5 90.5 17.685 90.5 39.5z" transform="matrix(.55249 0 0 .87342 190.41 4.2056)"/>
        </g>
        <g id="g4244" filter="url(#filter4266)" transform="translate(-302.06 -8.3805)" fill="#808080">
          <path id="path4246" d="m323 425.86c0 21.815-40.518 39.5-90.5 39.5s-90.5-17.685-90.5-39.5 40.518-39.5 90.5-39.5 90.5 17.685 90.5 39.5z" transform="matrix(1.2652 0 0 1 -32.798 -9.701)"/>
          <path id="path4248" d="m323 425.86c0 21.815-40.518 39.5-90.5 39.5s-90.5-17.685-90.5-39.5 40.518-39.5 90.5-39.5 90.5 17.685 90.5 39.5z" transform="matrix(.92265 0 0 1 -10.157 -8.701)"/>
          <path id="path4250" d="m323 425.86c0 21.815-40.518 39.5-90.5 39.5s-90.5-17.685-90.5-39.5 40.518-39.5 90.5-39.5 90.5 17.685 90.5 39.5z" transform="matrix(.69613 0 0 1 48.009 -54.701)"/>
          <path id="path4252" d="m323 425.86c0 21.815-40.518 39.5-90.5 39.5s-90.5-17.685-90.5-39.5 40.518-39.5 90.5-39.5 90.5 17.685 90.5 39.5z" transform="matrix(.55249 0 0 .87342 154.41 -31.794)"/>
          <path id="path4254" d="m323 425.86c0 21.815-40.518 39.5-90.5 39.5s-90.5-17.685-90.5-39.5 40.518-39.5 90.5-39.5 90.5 17.685 90.5 39.5z" transform="matrix(.55249 0 0 .87342 190.41 4.2056)"/>
        </g>
      </g>
      <path id="path4302" filter="url(#filter5244)" d="m126.59 234.48c-17.399 0-31.594 14.194-31.594 31.594v245.44c0 17.399 14.194 31.594 31.594 31.594h245.44c17.399 0 31.594-14.194 31.594-31.594v-245.44c0-17.399-14.194-31.594-31.594-31.594h-245.44zm0 5.1562h245.44c14.584 0 26.438 11.854 26.438 26.438v245.44c0 14.584-11.854 26.438-26.438 26.438h-245.44c-14.584 0-26.438-11.854-26.438-26.438v-245.44c0-14.584 11.854-26.438 26.438-26.438z" fill="url(#linearGradient3426)" transform="matrix(1 0 0 -1 0 778.47)"/>
      <path id="path4347" filter="url(#filter3871)" d="m126.59 247.9c-11.477 0-20.562 11.69-20.562 26.458v28.911c37.105 14.401 87.586 23.402 143.28 23.402 55.695 0 106.18-9.001 143.28-23.402v-28.911c0-14.768-9.0855-26.458-20.562-26.458h-245.44z" fill="url(#linearGradient3423)"/>
    </g>
  </g>
  <metadata>
    <rdf:RDF>
      <cc:Work>
        <dc:format>image/svg+xml</dc:format>
        <dc:type rdf:resource="http://purl.org/dc/dcmitype/StillImage"/>
        <cc:license rdf:resource="http://creativecommons.org/licenses/publicdomain/"/>
        <dc:publisher>
          <cc:Agent rdf:about="http://openclipart.org/">
            <dc:title>Openclipart</dc:title>
          </cc:Agent>
        </dc:publisher>
        <dc:title>Cloud computing button glossy. Nube computo brilloso.</dc:title>
        <dc:date>2011-04-01T19:50:44</dc:date>
        <dc:description>A cloud computing button w/bezel. I added a 3D filter, so now the cloud looks more shiny.\nBoton con bisel de computacion en la nube. Agregue un filtro 3D (Sombreadores 3D no realistas=&gt;Aluminio), as&#xC3;&#xAD; que ahora la nube se ve m&#xC3;&#xA1;s brillante.</dc:description>
        <dc:source>http://openclipart.org/detail/130375/cloud-computing-button-glossy.-nube-computo-brilloso.-by-ehecatl1138</dc:source>
        <dc:creator>
          <cc:Agent>
            <dc:title>Ehecatl1138</dc:title>
          </cc:Agent>
        </dc:creator>
        <dc:subject>
          <rdf:Bag>
            <rdf:li>3D</rdf:li>
            <rdf:li>boton nube</rdf:li>
            <rdf:li>brillante</rdf:li>
            <rdf:li>brilloso</rdf:li>
            <rdf:li>button</rdf:li>
            <rdf:li>clip art</rdf:li>
            <rdf:li>clipart</rdf:li>
            <rdf:li>cloud</rdf:li>
            <rdf:li>computacion</rdf:li>
            <rdf:li>computing</rdf:li>
            <rdf:li>computo</rdf:li>
            <rdf:li>glossy</rdf:li>
            <rdf:li>informatica</rdf:li>
            <rdf:li>internet</rdf:li>
            <rdf:li>shiny</rdf:li>
            <rdf:li>web</rdf:li>
          </rdf:Bag>
        </dc:subject>
      </cc:Work>
      <cc:License rdf:about="http://creativecommons.org/licenses/publicdomain/">
        <cc:permits rdf:resource="http://creativecommons.org/ns#Reproduction"/>
        <cc:permits rdf:resource="http://creativecommons.org/ns#Distribution"/>
        <cc:permits rdf:resource="http://creativecommons.org/ns#DerivativeWorks"/>
      </cc:License>
    </rdf:RDF>
  </metadata>
</svg>
