<?xml version="1.0" encoding="UTF-8" standalone="no"?>
<!-- Created with Inkscape (http://www.inkscape.org/) -->
<svg xmlns:inkscape="http://www.inkscape.org/namespaces/inkscape" xmlns:rdf="http://www.w3.org/1999/02/22-rdf-syntax-ns#" xmlns="http://www.w3.org/2000/svg" xmlns:xlink="http://www.w3.org/1999/xlink" xmlns:ns1="http://sozi.baierouge.fr" xmlns:cc="http://creativecommons.org/ns#" xmlns:dc="http://purl.org/dc/elements/1.1/" xmlns:sodipodi="http://sodipodi.sourceforge.net/DTD/sodipodi-0.dtd" id="svg56271" sodipodi:docname="Новый документ 6" viewBox="0 0 447.75 165.41" version="1.1" inkscape:version="0.48.0 r9654">
  <sodipodi:namedview id="base" bordercolor="#666666" inkscape:pageshadow="2" inkscape:window-y="225" fit-margin-left="0" pagecolor="#ffffff" fit-margin-top="0" inkscape:window-maximized="0" inkscape:zoom="0.35" inkscape:window-x="225" inkscape:window-height="455" showgrid="false" borderopacity="1.0" inkscape:current-layer="layer1" inkscape:cx="223.87745" inkscape:cy="82.706058" fit-margin-right="0" fit-margin-bottom="0" inkscape:window-width="535" inkscape:pageopacity="0.0" inkscape:document-units="px"/>
  <g id="layer1" inkscape:label="Layer 1" inkscape:groupmode="layer" transform="translate(-151.12 -449.66)">
    <g id="g56130" transform="translate(937.08 1165.1)">
      <rect id="rect54990" style="fill:#ff2a2a" rx="5.2562" ry="5.2562" height="71.763" width="71.763" y="-621.75" x="-503.79"/>
      <path id="path3967" d="m-475.89-619.7c-0.38699 0.039-0.68563 0.36716-0.68563 0.7649 0 0.32538 0.1953 0.5977 0.4804 0.70894-0.0223-0.072-0.0374-0.14894-0.0374-0.22853 0-0.4242 0.34068-0.76492 0.76492-0.76492h0.0186v11.506h-0.22387-1.194v2.2434h-6.4971l-2.6865 24.277v17.411l-0.74159 0.1959v3.2415h5.5922v6.6463c0 0.12415 0.10442 0.22389 0.22855 0.22389h1.3386c0.12415 0 0.22854-0.0997 0.22854-0.22389v-6.6463h1.3386 20.116 1.3479v6.6463c0 0.12415 0.095 0.22389 0.21923 0.22389h1.3479c0.12415 0 0.23168-0.1 0.22387-0.22389v-6.6463h5.5876v-3.2415l-0.73225-0.1959v-17.411l-2.6912-24.277h-6.4971v-2.2434h-1.1987-0.22389v-11.506h0.0233c0.42421 0 0.76491 0.34072 0.76491 0.76492 0 0.0796-0.0197 0.15652-0.0419 0.22853 0.28513-0.11118 0.48507-0.38356 0.48507-0.70894 0-0.42425-0.34069-0.7649-0.76492-0.7649h-15.816c-0.0265 0-0.0488-0.003-0.0746 0zm1.0634 0.48039h13.838v5.4523h-3.1342-7.5651-3.1389v-5.4523zm0 6.1286h3.1389 7.5651 3.1342v5.3777h-13.838v-5.3777zm-4.8133 9.039h5.2704 12.924 5.2658c0.95196 0 1.721 0.76908 1.721 1.721v2.2807c0 0.95196-0.76908 1.7117-1.721 1.7117h-5.2658-12.924-5.2704c-0.95199 0-1.7117-0.75975-1.7117-1.7117v-2.2807c0-0.95197 0.75974-1.721 1.7117-1.721zm7.5884 0.25187v5.2144h8.2927v-5.2144h-8.2927zm-8.2927 6.2452h9.6033 5.6762 9.6034c0.74502 0 1.2754 0.60559 1.3386 1.3479l1.1567 13.596c0.0632 0.74233-0.59358 1.3479-1.3386 1.3479h-11.926-3.3535-11.921c-0.74501 0-1.4065-0.60559-1.3433-1.3479l1.166-13.596c0.0632-0.74232 0.59356-1.3479 1.3386-1.3479zm0.19588 21.763c0.50544 0 0.91416 0.40868 0.91416 0.91416 0 0.50543-0.40872 0.91882-0.91416 0.91882s-0.91882-0.41339-0.91882-0.91882v-0.0186c0.0124-0.49659 0.42208-0.8955 0.91882-0.8955zm24.486 0c0.49673 0 0.90202 0.39891 0.91416 0.8955v0.0186c0 0.50543-0.40869 0.91882-0.91416 0.91882-0.50544 0-0.91417-0.41339-0.91417-0.91882 0-0.50548 0.40873-0.91416 0.91417-0.91416zm-24.486 3.9831c1.0831 0 1.9589 0.87579 1.9589 1.9589s-0.87581 1.9636-1.9589 1.9636-1.9636-0.88046-1.9636-1.9636l0.004-0.0513c0.0261-1.0641 0.89448-1.9076 1.9589-1.9076zm24.486 0c1.0644 0 1.9282 0.84351 1.9542 1.9076l0.004 0.0513c0 1.0831-0.87577 1.9636-1.9589 1.9636s-1.9636-0.88047-1.9636-1.9636 0.88048-1.9589 1.9636-1.9589z" style="fill:#ffffff" inkscape:connector-curvature="0"/>
    </g>
    <g id="g56126" transform="translate(936.96 1150.9)">
      <rect id="rect3148" style="fill:#ff2a2a" rx="5.2562" ry="5.2562" height="71.763" width="71.763" y="-701.02" x="-503.79"/>
      <path id="path3884" style="fill:#ffffff" inkscape:connector-curvature="0" d="m-452.58-679.62v1.6225s1.6317 0.8651 3.1569 1.6525c0.7627 0.3938 1.5238 0.7886 2.09 1.0948 0.2832 0.153 0.5162 0.2847 0.6805 0.3819 0.082 0.048 0.1459 0.089 0.1944 0.1226 0.025 0.017 0.045 0.031 0.067 0.053 0.012 0.011 0.024 0.022 0.042 0.054 0.01 0.015 0.021 0.037 0.025 0.074 0 0.037-0.01 0.094-0.037 0.1342-0.016 0.022-0.027 0.035-0.055 0.069s-0.07 0.082-0.1181 0.1389c-0.097 0.1145-0.2307 0.2722-0.3888 0.4582-0.3164 0.3721-0.7294 0.8574-1.1411 1.3401-0.7816 0.9166-1.4766 1.732-1.553 1.8215v0.8703h4.7886v-2.3631h5.1058v2.3631h1.9557v-1.3054h1.5739v2.9047l2.1363 3.9924v5.5871h1.826v0.7847h-1.9209l-0.7499 0.7013h-3.3167v0.8887h-9.892c-0.2208 0.9532-1.0743 1.6641-2.0947 1.6641s-1.8739-0.7107-2.0946-1.6641h-0.3634c-0.2205 0.9533-1.074 1.6641-2.0945 1.6641-1.0204 0-1.8739-0.7108-2.0946-1.6641h-20.902c-0.2207 0.9533-1.0742 1.6641-2.0947 1.6641-1.0203 0-1.8739-0.7108-2.0945-1.6641h-0.3657c-0.2207 0.9533-1.0741 1.6641-2.0947 1.6641-1.0203 0-1.8738-0.7108-2.0945-1.6641h-10.665v-0.8887h-4.3744v-0.4028h-2.0459v-0.7846h2.0459v-5.0455l1.347-4.9275v-2.3191h2.1155v0.8147h41.212v-0.8703c-0.076-0.089-0.7714-0.905-1.553-1.8215-0.4117-0.4827-0.8247-0.968-1.1411-1.3401-0.1581-0.186-0.292-0.3437-0.3888-0.4582-0.048-0.057-0.087-0.1048-0.1157-0.1389-0.028-0.034-0.042-0.048-0.058-0.069-0.03-0.04-0.041-0.097-0.037-0.1342 0-0.037 0.016-0.058 0.025-0.074 0.017-0.031 0.03-0.042 0.042-0.054 0.023-0.022 0.043-0.036 0.067-0.053 0.048-0.034 0.1123-0.074 0.1945-0.1226 0.1643-0.097 0.3996-0.2289 0.6827-0.3819 0.5663-0.3062 1.3251-0.701 2.0877-1.0948 1.5253-0.7874 3.157-1.6386 3.157-1.6386v-1.6364h1.3215zm-0.2523 1.9142h-0.8309s-1.7008 0.9008-3.2241 1.6872c-0.7615 0.3932-1.5208 0.7885-2.0829 1.0924-0.2811 0.1519-0.5128 0.2803-0.669 0.3727-0.03 0.017-0.041 0.027-0.065 0.042 0.014 0.016 0.023 0.027 0.039 0.046 0.096 0.114 0.2308 0.2723 0.3888 0.4582 0.3161 0.3719 0.7295 0.8574 1.1411 1.3401 0.7428 0.8711 1.3402 1.5714 1.4766 1.7312 0.035-0.013 0.071-0.023 0.1111-0.023h6.6124c0.04 0 0.076 0.01 0.1111 0.023 0.1364-0.1598 0.7339-0.86 1.4767-1.7312 0.4116-0.4827 0.8273-0.9682 1.1434-1.3401 0.1579-0.1859 0.2901-0.3442 0.3865-0.4582 0.016-0.019 0.025-0.03 0.039-0.046-0.024-0.014-0.034-0.025-0.063-0.042-0.156-0.092-0.3901-0.2208-0.6712-0.3727-0.5621-0.3039-1.3207-0.6961-2.0807-1.0924l-3.2403-1.6896zm16.215 9.3759h-1.7452v4.3627h3.9671l-2.2219-4.3627zm-2.1873 0h-6.9758v11.757h6.9758v-11.757zm-7.6169 0h-6.4528v5.0293h6.4528v-5.0293zm-7.0938 0h-6.4528v5.0293h6.4528v-5.0293zm-7.0939 0h-6.4528v5.0293h6.4528v-5.0293zm-7.0938 0h-6.9758v11.757h6.9758v-11.757zm-7.617 0h-6.4527v5.0293h6.4527v-5.0293zm-7.0939 0h-6.4527v5.0293h6.4527v-5.0293zm-7.0938 0h-6.9758v11.757h6.9758v-11.757zm-7.617 0h-2.4742l-1.4302 5.0293h3.9044v-5.0293zm57.413 0.7661v7.6423h-2.0946v-7.6423h2.0946zm-3.0667 0v7.6423h-2.0946v-7.6423h2.0946zm-25.832 0v7.6423h-2.0947v-7.6423h2.0947zm-3.0667 0v7.6423h-2.0946v-7.6423h2.0946zm-18.738 0v7.6423h-2.0946v-7.6423h2.0946zm-3.0667 0v7.6423h-2.0946v-7.6423h2.0946zm43.352 9.4221h-0.076c-0.8161 0-1.4767 0.6607-1.4767 1.4767s0.6606 1.4767 1.4767 1.4767c0.816 0 1.4789-0.6607 1.4789-1.4767 0-0.7906-0.6219-1.4371-1.4026-1.4767zm-4.5525 0h-0.076c-0.8161 0-1.4789 0.6607-1.4789 1.4767s0.6628 1.4767 1.4789 1.4767 1.4766-0.6607 1.4766-1.4767c0-0.7906-0.6195-1.4371-1.4002-1.4767zm-25.091 0h-0.076c-0.8161 0-1.479 0.6607-1.479 1.4767s0.6629 1.4767 1.479 1.4767c0.816 0 1.4766-0.6607 1.4766-1.4767 0-0.7906-0.6195-1.4371-1.4002-1.4767zm-4.5549 0h-0.076c-0.8161 0-1.4766 0.6607-1.4766 1.4767s0.6605 1.4767 1.4766 1.4767 1.4766-0.6607 1.4766-1.4767c0-0.7906-0.6195-1.4371-1.4002-1.4767z"/>
    </g>
    <g id="g56108" transform="translate(938.64 1150.9)">
      <rect id="rect3282" style="fill:#0000ff" rx="5.2562" ry="5.2562" height="71.763" width="71.763" y="-701.02" x="-693.34"/>
      <path id="path3284" d="m-637.75-675.53v1.0855h12.119v15.486l-1.2706 1.2729h-9.5403c0 1.7561-1.4241 3.1801-3.1801 3.1801s-3.1777-1.424-3.1777-3.1801h-25.438c0 1.7561-1.424 3.1801-3.18 3.1801-1.7561 0-3.1778-1.424-3.1778-3.1801h-11.035l-3.6661-1.4975v-15.262h14.364v-1.0855h5.3487v1.0855h10.438v-1.0855h5.3488v1.0855h10.698v-1.0855h5.351zm11.783 2.6015h-2.7403v8.2835h2.7403v-8.2835zm-3.4139 1.104h-6.9758v12.605h6.9758v-12.605zm-7.7257 0h-6.4527v5.0293h6.4527v-5.0293zm-8.1354 0h-6.4527v5.0293h6.4527v-5.0293zm-7.7442 0h-6.9758v12.605h6.9758v-12.605zm-8.0035 0h-6.4527v5.0293h6.4527v-5.0293zm-8.1352 0h-6.4529v5.0293h6.4529v-5.0293zm-7.2028 0h-6.9758v12.605h6.9758v-12.605zm-8.3043 0h-3.5064v5.0293h3.5064v-5.0293zm54.344 0.8216v8.1932h-2.0946v-8.1932h2.0946zm-3.0667 0v8.1932h-2.0946v-8.1932h2.0946zm-20.539 0v8.1932h-2.0946v-8.1932h2.0946zm-3.0667 0v8.1932h-2.0946v-8.1932h2.0946zm-20.275 0v8.1932h-2.0946v-8.1932h2.0946zm-3.0666 0v8.1932h-2.0947v-8.1932h2.0947zm40.679 10.943c-1.3118 0-2.3746 1.0627-2.3746 2.3746s1.0628 2.3747 2.3746 2.3747c1.3119 0 2.377-1.0628 2.377-2.3747s-1.0651-2.3746-2.377-2.3746zm-31.796 0c-1.3119 0-2.3747 1.0627-2.3747 2.3746s1.0628 2.3747 2.3747 2.3747c1.3118 0 2.3769-1.0628 2.3769-2.3747s-1.0651-2.3746-2.3769-2.3746z" style="fill:#ffffff" inkscape:connector-curvature="0"/>
    </g>
    <g id="g56117" transform="translate(937.37 1150.9)">
      <rect id="rect3422" style="fill:#008000" rx="5.2562" ry="5.2562" height="71.763" width="71.763" y="-701.02" x="-598.14"/>
      <path id="path3424" style="fill:#ffffff" inkscape:connector-curvature="0" d="m-594.17-684.2c0.4907 0 0.8888 0.3981 0.8888 0.8888 0 0 0.0001 0.01 0 0.01l26.42 5.888c0.086-0.1648 0.2455-0.3124 0.4166-0.3124h0.1481 0.449 0.1505c0.2139 0 0.412 0.2309 0.4675 0.4374l0.1412 0.5254h14.584v1.2336h6.8693v1.0855h14.176v15.486l-1.2706 1.2707h-9.5403c0 1.7561-1.4241 3.1801-3.1801 3.1801s-3.1777-1.424-3.1777-3.1801h-25.438c0 1.7561-1.424 3.1801-3.18 3.1801-1.7561 0-3.1778-1.424-3.1778-3.1801h-11.035l-3.6661-1.4951v-15.262h15.262v-1.0855h10.288v-1.2336h0.5231l0.081-0.2962-26.39-5.8811c-0.1403 0.3061-0.449 0.5184-0.8078 0.5184-0.4906 0-0.8887-0.3981-0.8887-0.8887 0-0.4907 0.3981-0.8888 0.8887-0.8888zm64.375 11.272h-2.7403v8.2835h2.7403v-8.2835zm-3.4139 1.1017h-6.9758v12.605h6.9758v-12.605zm-7.7257 0h-6.4527v5.0293h6.4527v-5.0293zm-8.1354 0h-6.4527v5.0293h6.4527v-5.0293zm-7.7442 0h-6.9758v12.605h6.9758v-12.605zm-8.0035 0h-6.4527v5.0293h6.4527v-5.0293zm-8.1352 0h-6.4529v5.0293h6.4529v-5.0293zm-7.2028 0h-6.9758v12.605h6.9758v-12.605zm-8.3043 0h-3.5064v5.0293h3.5064v-5.0293zm54.344 0.8216v8.1932h-2.0946v-8.1932h2.0946zm-3.0667 0v8.1932h-2.0946v-8.1932h2.0946zm-20.539 0v8.1932h-2.0946v-8.1932h2.0946zm-3.0667 0v8.1932h-2.0946v-8.1932h2.0946zm-20.275 0v8.1932h-2.0946v-8.1932h2.0946zm-3.0666 0v8.1932h-2.0947v-8.1932h2.0947zm40.679 10.943c-1.3118 0-2.3746 1.0628-2.3746 2.3747s1.0628 2.3769 2.3746 2.3769c1.3119 0 2.377-1.065 2.377-2.3769s-1.0651-2.3747-2.377-2.3747zm-31.796 0c-1.3119 0-2.3747 1.0628-2.3747 2.3747s1.0628 2.3769 2.3747 2.3769c1.3118 0 2.3769-1.065 2.3769-2.3769s-1.0651-2.3747-2.3769-2.3747z"/>
    </g>
    <g id="g56100" transform="translate(927.12 1165.1)">
      <rect id="rect30400-1" style="fill:#d4aa00" rx="4.4362" inkscape:export-ydpi="90" inkscape:export-filename="D:\05 Компьютер\!Иконки\Гео\Маршруты Стэлс.png" ry="4.4362" height="72" width="72" inkscape:export-xdpi="90" y="-621.99" x="-776"/>
      <path id="path30402-7" style="fill-rule:evenodd;fill:#ffffff" inkscape:connector-curvature="0" d="m-739.96-605.04c-3.4035 0-6.8092 0.27948-11.973 0.84337-1.7967 0.19616-2.6872 1.5845-3.2868 3.2912-1.6443 4.679-2.7848 9.5009-3.4042 14.473h-0.66519c0.04-0.69315 0-1.385-0.13475-2.0781-0.062-0.31505-0.26204-0.58259-0.58258-0.58259h-0.98691c-0.32094 0-0.52989 0.26597-0.58259 0.58259-0.17935 1.0764-0.17935 2.1535 0 3.2303 0.0526 0.31591 0.26165 0.58251 0.58259 0.58251h0.98691c0.32062 0 0.52777-0.26668 0.58258-0.58251 0.0228-0.12886 0.0432-0.25819 0.0612-0.38697h0.29996l0.31301 0.31308c-0.0526 0.48497-0.10067 0.97285-0.14347 1.4607-0.29439 2.4808-0.44775 4.9692-0.44783 7.3692 0 0.66919 0.0157 1.329 0.0393 1.9825-0.0667 0.25426-0.0952 0.55494-0.0956 0.87383 0 0.65592 0.1119 1.3906 0.23479 1.9435 0.008 0.0385 0.0149 0.0746 0.022 0.113v12.151c0 0.3225 0.15697 0.5869 0.35211 0.5869h2.9782 1.1347 2.752c0.19506 0 0.35219-0.2644 0.35219-0.5869v-4.5433h2.739l1.0999 1.1564h5.491v0.40433h2.426l1.039-0.98251h3.2955l0.66519 0.66511h1.2999v-1.1868h3.1216l1.5956 0.64784v3.8389c0 0.3225 0.16145 0.5869 0.3565 0.5869h2.9738 2.7564 1.1304c0.19553 0 0.35651-0.2644 0.35651-0.5869v-12.16c0-0.14614-0.033-0.27971-0.0869-0.38266 0.12085-0.75965 0.26055-1.7474 0.26086-2.4521 0-0.11112-0.008-0.21328-0.0133-0.30853 0.0699-1.1691 0.10868-2.378 0.10868-3.6129 0-2.2421-0.12179-4.5717-0.37826-6.9039l0.38698-0.38697h0.30428c0.0173 0.12878 0.0346 0.25811 0.0565 0.38697 0.055 0.31583 0.26157 0.58251 0.58258 0.58251h0.98691c0.3207 0 0.52981-0.2666 0.58258-0.58251 0.17928-1.0768 0.17928-2.1539 0-3.2303-0.0526-0.31662-0.26188-0.58259-0.58258-0.58259h-0.98691c-0.32085 0-0.5207 0.26754-0.58258 0.58259-0.1364 0.69306-0.17472 1.385-0.13475 2.0781h-0.7522c-0.14935-1.1528-0.33224-2.3006-0.55211-3.439-0.00023 0 0.00032 0 0-0.0102-0.54874-3.677-1.4238-7.3528-2.6781-11.03-0.58392-1.7122-1.4901-3.0948-3.2868-3.2911-5.1639-0.56397-8.5653-0.84344-11.969-0.84344zm-0.20864 8.2342c4.1218 0 8.2469 0.21539 12.369 0.62184 0.5313 0.0534 0.78038 0.4487 0.96947 0.92606 0.99751 2.5208 1.4825 5.0442 1.6173 7.5648 0.0275 0.51018-0.43747 0.96578-0.96948 0.92589-9.4458-0.70751-18.892-0.70751-28.338 0-0.53233 0.04-1.0424-0.42011-0.96956-0.92589 0.36412-2.5205 1.0062-5.0439 1.9869-7.5648 0.18618-0.4787 0.43833-0.87195 0.96955-0.92606 4.1216-0.41909 8.2427-0.62498 12.364-0.62184zm-15.36 19.055c2.6996 0.2132 4.5771 1.5382 5.6344 3.9738 0.24783 0.84101 0.0306 1.1102-0.40001 1.1173l-5.3562-0.41736c-0.22293-0.0754-0.422-0.21579-0.57386-0.49134-0.3803-1.0219-0.41038-2.2167-0.14787-3.5563 0.14708-0.3942 0.41093-0.62884 0.84345-0.62609zm30.329 0c0.43252 0 0.69637 0.23189 0.84344 0.62609 0.26252 1.3396 0.23244 2.5343-0.14778 3.5563-0.15195 0.27555-0.35541 0.41493-0.57826 0.49134l-5.3518 0.41736c-0.43047-0.0102-0.64775-0.27625-0.40001-1.1173 1.0574-2.4356 2.9349-3.7606 5.6344-3.9738zm-15.182 1.7347c2.8505 0 5.7012 0.0605 8.5517 0.19129 0.16278 0.0102 0.35022 0.14692 0.29565 0.30004-0.40276 1.1288-0.74647 1.8492-1.2956 2.9781-0.20267 0.44555-0.46463 0.71505-1.0782 0.77826-2.2477 0.24595-3.9754 0.30256-6.2996 0.30421h-0.0259-0.0612-0.0612-0.0259c-2.3317 0-4.2259-0.0581-6.4736-0.30421-0.61352-0.0636-0.87525-0.33271-1.0782-0.77826-0.54882-1.1289-0.89308-1.8493-1.2955-2.9781-0.055-0.15312 0.1331-0.29266 0.29565-0.30004 2.8506-0.12902 5.7012-0.1909 8.5517-0.19129z"/>
    </g>
    <g id="g56138" transform="translate(954.03 1150.9)">
      <g id="g56134">
        <rect id="rect54859" style="fill:#ff6600" rx="5.2562" ry="5.2562" height="71.763" width="71.763" y="-701.02" x="-426.92"/>
        <path id="path4007-3" style="fill:#ffffff" inkscape:connector-curvature="0" d="m-385.97-678.02c1.9922 0 4.1688 0.16777 5.8431 1.2474l14.738 9.5021h-4.8699c-1.771 0-3.5894-0.51909-5.1259-1.3998l-10.585-6.0665c-1.0364-0.59408-2.2877-0.8533-3.4823-0.8533h-37.466v-2.4299h40.948zm6.7573 3.3197h-4.039c-0.38277 0-0.42928 0.16332-0.10563 0.36774l6.3164 3.9922c0.32362 0.20442 0.8931 0.36773 1.2759 0.36773h4.0369c0.38279 0 0.43133-0.16331 0.10769-0.36773l-6.3185-3.9922c-0.32364-0.20442-0.89107-0.36774-1.2738-0.36774zm-10.272 1.1784c0.92149 0 1.8309 0.39662 2.629 0.85736l15.859 9.1567c0.52481 0.303 1.1332 0.52619 1.7391 0.52619h10.483c2.2985 1.8692 0.14223 5.9751-1.9118 5.9751h-8.9068c-0.65935 1.4709-2.1358 2.4969-3.852 2.4969-1.7161 0-3.1906-1.0262-3.85-2.4969h-1.3937c-0.65934 1.4709-2.1359 2.4969-3.852 2.4969-1.716 0-3.1906-1.0262-3.85-2.4969h-19.782c-0.65941 1.4708-2.136 2.4969-3.852 2.4969-1.7161 0-3.1906-1.0262-3.85-2.4969h-1.3937c-0.65942 1.4708-2.136 2.4969-3.852 2.4969-1.7161 0-3.1906-1.0262-3.85-2.4969h-3.9475v-4.5692h40.036a0.6502 0.6502 0 1 0 0 -1.3003h-40.036v-8.7808h30.603a0.6502 0.6502 0 1 0 0 -1.3003h-30.603v-0.5648h37.433zm-8.3725 2.5944h-3.2181c-0.56393 0-1.0179 0.45393-1.0179 1.0179v4.9898c0 0.56393 0.45394 1.0179 1.0179 1.0179h3.2181c0.56396 0 1.0179-0.45393 1.0179-1.0179v-4.9898c0-0.56393-0.45392-1.0179-1.0179-1.0179zm-7.7833 0h-3.2181c-0.56393 0-1.0179 0.45393-1.0179 1.0179v4.9898c0 0.56393 0.45394 1.0179 1.0179 1.0179h3.2181c0.56393 0 1.0179-0.45393 1.0179-1.0179v-4.9898c0-0.56393-0.45395-1.0179-1.0179-1.0179zm41.503 4.4656 3.4619 2.2328h-0.94473l-0.11172-0.0935-0.27224-0.17877-2.9967-1.9606h0.86347zm-2.052 0 0.14424 0.0934 0.2702 0.17878 2.9987 1.9606h-1.1702l-0.13205-0.0935-0.27226-0.17877-2.9987-1.9606h1.1601zm-2.3324 0 0.128 0.0934 0.27223 0.17878 2.9987 1.9606h-1.1763l-0.128-0.0935-0.27223-0.17877-2.9987-1.9606h1.1763zm-2.371 0 0.15035 0.0934 0.27224 0.17878 2.9987 1.9606h-1.5237l-3.4152-2.2328h1.5176z"/>
      </g>
    </g>
    <g id="g56121" transform="translate(935.01 1165.1)">
      <g id="g54979" style="fill:#008000" inkscape:export-ydpi="90" inkscape:export-filename="D:\05 Компьютер\!Иконки\Гео\Маршруты группа.png" transform="matrix(1.0033 0 0 1.0033 -531.82 -1166)" inkscape:export-xdpi="90">
        <rect id="rect54981" style="fill:#008000" rx="4.9852" ry="4.9852" height="71.763" width="71.763" y="542.23" x="-63.745"/>
      </g>
      <path id="path3851" d="m-565.59-620.29v0.86588h0.23242v5.013h-0.47852v3.9056h-2.9759v5.7969c-3.4571 0.42078-8.4797 1.1576-11.585 3.2448l-0.98437 22.107v13.813h-0.82487v5.5827h1.7226v5.5644c0 0.51235 0.41279 0.92513 0.92513 0.92513h3.2448c0.51234 0 0.92512-0.41278 0.92512-0.92513v-5.5644h8.4674 14.296 8.4674v5.5644c0 0.51235 0.41278 0.92513 0.92513 0.92513h3.2448c0.51234 0 0.92513-0.41278 0.92513-0.92513v-5.5644h1.7226v-5.5827h-0.82031v-13.813l-0.98893-22.107c-3.1049-2.0872-8.1229-2.824-11.58-3.2448v-5.7969h-2.9804v-3.9056h-0.47852v-5.013h0.23242v-0.86588h-0.86588v0.86588h0.22787v5.013h-0.4694v3.9056h-4.7077-4.7122v-3.9056h-0.4694v-5.013h0.22331v-0.86588h-0.86132zm-4.0058 16.894h5.0768 9.5065 5.0859c0.33024 0 0.58789 0.27133 0.58789 0.60156v2.9987c0 0.33022-0.25765 0.58788-0.58789 0.58788h-5.0859-9.5065-5.0768c-0.33024 0-0.60156-0.25766-0.60156-0.58788v-2.9987c0-0.33023 0.27132-0.60156 0.60156-0.60156zm-5.9974 3.2493h2.1374v1.1894h-2.1374v-1.1894zm29.504 0h2.1374v1.1894h-2.1374v-1.1894zm-33.077 2.4655h17.833c0.54634 0 0.98437 0.43802 0.98437 0.98437v15.121c0 0.54635-0.43803 0.98437-0.98437 0.98437h-17.833c-0.54634 0-0.98892-0.43802-0.98892-0.98437v-15.121c0-0.54635 0.44258-0.98437 0.98892-0.98437zm20.954 0h17.833c0.54634 0 0.98892 0.43802 0.98892 0.98437v15.121c0 0.54635-0.44258 0.98437-0.98892 0.98437h-17.833c-0.54634 0-0.98437-0.43802-0.98437-0.98437v-15.121c0-0.54635 0.43803-0.98437 0.98437-0.98437zm-18.202 24.655h33.282v4.7624h-33.282v-4.7624zm0.72461 0.28711c-0.19316 0-0.34635 0.15775-0.34635 0.35091v3.4863c0 0.19316 0.15319 0.35091 0.34635 0.35091h5.1588c0.19317 0 0.34636-0.15775 0.34636-0.35091v-3.4863c0-0.19316-0.15319-0.35091-0.34636-0.35091h-5.1588zm26.674 0c-0.19317 0-0.34636 0.15775-0.34636 0.35091v3.4863c0 0.19316 0.15319 0.35091 0.34636 0.35091h5.1588c0.19316 0 0.34635-0.15775 0.34635-0.35091v-3.4863c0-0.19316-0.15319-0.35091-0.34635-0.35091h-5.1588zm-24.094 0.30989c0.98433 0 1.7819 0.79757 1.7819 1.7819s-0.79756 1.7864-1.7819 1.7864c-0.98433 0-1.7819-0.80212-1.7819-1.7864v-0.041c0.0237-0.96706 0.81455-1.7409 1.7819-1.7409zm26.674 0c0.96735 0 1.7582 0.77382 1.7819 1.7409v0.041c0 0.98433-0.79757 1.7864-1.7819 1.7864s-1.7819-0.80212-1.7819-1.7864c0-0.98433 0.79756-1.7819 1.7819-1.7819zm-32.06 0.20964h1.9186v1.9596h-1.9186v-1.9596zm35.528 0h1.9186v1.9596h-1.9186v-1.9596zm-35.528 2.0918h1.9186v1.2214h-1.9186v-1.2214zm35.528 0h1.9186v1.2214h-1.9186v-1.2214z" style="fill:#ffffff" inkscape:connector-curvature="0"/>
    </g>
    <g id="g56112" transform="translate(936.67 1165.1)">
      <g id="g4417" style="fill:#0000ff" inkscape:export-ydpi="90" inkscape:export-filename="D:\05 Компьютер\!Иконки\Гео\Маршруты группа.png" transform="matrix(1.0033 0 0 1.0033 -627.53 -1166)" inkscape:export-xdpi="90">
        <rect id="rect4419" style="fill:#0000ff" rx="4.9852" ry="4.9852" height="71.763" width="71.763" y="542.23" x="-63.745"/>
      </g>
      <path id="path4421" style="fill:#ffffff" d="m-655.47-607.92c-3.9784 0.0176-7.9933 0.20531-12.039 0.48591-5.061 0.48332-8.2383 2.9976-9.313 6.4786v16.79 17.155h-0.37795v4.5486h2.6185v3.9412c0 0.59931 0.5266 1.0798 1.1608 1.0798h3.3202c0.63418 0 1.1338-0.48046 1.1338-1.0798v-3.9412h10.042 6.8835 10.042v3.9412c0 0.59931 0.47271 1.0798 1.1068 1.0798h3.3203c0.63409 0 1.1607-0.48046 1.1607-1.0798v-3.9412h2.6454v-4.5486h-0.51284v-17.155-16.79c0-3.6448-4.2942-6.0186-9.2051-6.4786-4.043-0.35137-8.0071-0.50362-11.986-0.48591zm-13.767 2.7534h9.61c0.36319 0 0.6209 0.28457 0.6209 0.64784v2.2135c0 0.3631-0.25771 0.64785-0.6209 0.64785h-9.61c-0.36319 0-0.62091-0.28475-0.62091-0.64785v-2.2135c0-0.36327 0.25772-0.64784 0.62091-0.64784zm11.662 0h4.1571c0.36318 0 0.64784 0.28457 0.64784 0.64784v2.2135c0 0.3631-0.28466 0.64785-0.64784 0.64785h-4.1571c-0.36319 0-0.64785-0.28475-0.64785-0.64785v-2.2135c0-0.36327 0.28466-0.64784 0.64785-0.64784zm6.2358 0h9.5829c0.36319 0 0.64785 0.28457 0.64785 0.64784v2.2135c0 0.3631-0.28466 0.64785-0.64785 0.64785h-9.5829c-0.36318 0-0.64793-0.28475-0.64793-0.64785v-2.2135c0-0.36327 0.28475-0.64784 0.64793-0.64784zm-21.649 1.0258h1.9166v1.1607h-1.9166zm33.095 0h1.9166v1.1607h-1.9166zm-36.415 3.7252h18.248c1.1905 0 2.1326 0.9421 2.1326 2.1325v11.662c0 1.1904-0.9421 2.1595-2.1326 2.1595h-18.248zm23.404 0h18.113v15.954h-18.113c-1.1905-0.00018-2.1326-0.96904-2.1326-2.1595v-11.662c0-1.1904 0.9421-2.1325 2.1326-2.1325zm-9.1511 19.382h5.1559 2.8344 5.1829v3.3203h-5.1829-2.8344-5.1559zm-9.664 3.3743h2.1866v1.8357h-2.1866zm30.288 0h2.1865v1.8357h-2.1865zm-34.931 4.1032h10.258l2.9154 2.9964h5.5878 4.2111 5.5878l2.9424-2.9964h10.258v6.5461h-18.788-4.2111-18.761zm3.5362 1.5117c-1.0656 0-1.9446 0.85647-1.9707 1.9435v0.0535c0 1.1064 0.88636 1.9976 1.9707 1.9976s1.9435-0.89116 1.9435-1.9976c0-1.106-0.85925-1.9976-1.9435-1.9976zm34.688 0c-1.0843 0-1.9436 0.89163-1.9436 1.9976 0 1.1064 0.85934 1.9975 1.9436 1.9975s1.9706-0.89107 1.9706-1.9975v-0.0535c-0.0258-1.0872-0.905-1.9436-1.9706-1.9436z" inkscape:export-ydpi="90" sodipodi:nodetypes="ccccccccssssccccsssscccccsccssssssssssssssssssssssssssscccccccccccssssccscccsssccccccccccccccccccccccccccccccccscssssscsscscc" inkscape:export-filename="D:\05 Компьютер\!Иконки\Гео\Маршруты группа.png" inkscape:connector-curvature="0" inkscape:export-xdpi="90"/>
    </g>
    <g id="g56104" transform="translate(930.66 1150.9)">
      <rect id="rect54977" style="fill:#d4aa00" inkscape:export-ydpi="90" rx="4.4362" ry="4.4362" height="72" width="72" inkscape:export-xdpi="90" y="-701.26" x="-779.54" inkscape:export-filename="D:\05 Компьютер\!Иконки\Гео\Маршруты Стэлс.png"/>
      <path id="path3295" d="m-763.03-673.7c-0.63108-0.007-1.514 0.42227-1.574 1.0505-0.0215 0.16226-0.0411 0.32502-0.0614 0.48736-0.009 0.0769-0.0192 0.15396-0.0289 0.23103-0.24012 1.9936-0.37795 3.9912-0.47291 5.9926-0.007 0.11775-0.009 0.23608-0.0149 0.35378-0.0171 0.38351-0.0358 0.76787-0.0505 1.1516-0.007 0.15524-0.0127 0.31037-0.0171 0.4657-0.033 0.9155-0.062 1.8309-0.0903 2.7472-0.009 0.28417-0.0171 0.56775-0.0254 0.85198h-0.43681v1.1408l1.9314 0.15162 7.2597 0.57758c0.21832-0.32126 0.38187-0.70739 0.55955-1.0758l0.7112 0.5054c-0.34312 0.4738-0.54512 1.0562-0.54512 1.6859 0 1.5893 1.2879 2.8772 2.8772 2.8772s2.8772-1.2879 2.8772-2.8772c0-0.0413-0.002-0.082-0.003-0.12266l2.4657-0.69673 9.859 0.0541 5.6749 0.029c0.0977-0.15375 0.18292-0.31686 0.26714-0.48374l0.40072 0.16247c-0.12969 0.32757-0.19847 0.68404-0.19847 1.0577 0 1.5893 1.2879 2.8772 2.8772 2.8772s2.8772-1.2879 2.8772-2.8772c0-0.3073-0.048-0.60321-0.13714-0.88084l0.88084-0.28883c0.0224 0.0716 0.0445 0.14289 0.0686 0.21301 0.0215 0.0624 0.0415 0.12308 0.0649 0.18421 0.0239 0.062 0.0492 0.12052 0.0758 0.18057 0.86308-0.048 1.5611-0.14778 2.1082-0.32851 0.0533-0.0171 0.10498-0.0351 0.15524-0.0541 0.002-0.00058 0.002-0.002 0.003-0.003 0.0502-0.0192 0.10052-0.0371 0.148-0.0577 0.002-0.00067 0.002-0.002 0.003-0.003 0.0473-0.0213 0.0926-0.039 0.13713-0.0614 0.002-0.00071 0.002-0.002 0.003-0.003 0.0443-0.0224 0.0884-0.0445 0.1299-0.0686 0.002-0.00081 0.002-0.002 0.003-0.003 0.0413-0.024 0.0804-0.0501 0.11924-0.0758 0.0813-0.0543 0.15779-0.11095 0.22742-0.17334 0.0323-0.0289 0.0641-0.0596 0.094-0.0903 0.002-0.002 0.002-0.007 0.003-0.007 0.0296-0.0306 0.0594-0.0614 0.0866-0.0939 0.002-0.002 0.002-0.003 0.003-0.007 0.027-0.0326 0.0549-0.063 0.0794-0.0975 0.002-0.002 0.002-0.003 0.003-0.007 0.0243-0.0347 0.0466-0.0718 0.0686-0.10818 0.00087-0.002 0.002-0.003 0.003-0.007 0.0219-0.0367 0.0455-0.0732 0.0649-0.11179 0.00087-0.002 0.002-0.003 0.003-0.007 0.0192-0.0388 0.0372-0.0783 0.0541-0.11904 0.00087-0.002 0.002-0.003 0.003-0.007 0.0171-0.0411 0.029-0.0832 0.0433-0.12628 0.00081-0.002 0.002-0.003 0.003-0.007 0.0149-0.0434 0.0277-0.0882 0.0397-0.13351 0.0007-0.002 0.002-0.003 0.003-0.007 0.0106-0.0447 0.0192-0.0939 0.029-0.14075 0.00067-0.003 0.002-0.007 0.003-0.0106 0.0192-0.098 0.0337-0.19932 0.0433-0.30685 0.00036-0.003-0.00034-0.007 0-0.0106 0.009-0.1071 0.0149-0.21894 0.0149-0.33572v-0.015c-0.00012-0.0564-0.00087-0.11456-0.003-0.17333-0.00024-0.003 0.00023-0.0106 0-0.015-0.002-0.0636-0.007-0.1284-0.0106-0.19484h-0.32129c0.21038-2.742-1.843-3.6422-3.7725-4.8519-0.0326-0.0213-0.0648-0.0409-0.0975-0.0614-0.13054-0.0829-0.26167-0.16609-0.38988-0.25271-0.0928-0.0636-0.18612-0.12392-0.28158-0.18419-0.37818-0.23849-0.77243-0.45344-1.1516-0.68952-0.0956-0.0596-0.18846-0.11753-0.28158-0.18057-0.0924-0.0624-0.18185-0.12798-0.27076-0.19505-0.0888-0.0669-0.17547-0.1365-0.25992-0.20934-0.088-0.076-0.17376-0.15288-0.25992-0.23104-0.0835-0.0756-0.16716-0.15012-0.2491-0.22742l-0.007-0.007c-0.15439-0.14585-0.30465-0.29707-0.45485-0.44762-0.0106-0.0106-0.0224-0.0192-0.0326-0.0289-0.024-0.024-0.0483-0.048-0.0722-0.0721-0.14267-0.14438-0.2819-0.29372-0.42238-0.44045-0.31028-0.32415-0.62077-0.65089-0.93138-0.9747-0.0106-0.0106-0.0213-0.0245-0.0326-0.0359-0.14799-0.15395-0.29693-0.30731-0.44762-0.45847-0.0128-0.0127-0.0265-0.0265-0.0396-0.0397-0.32849-0.32807-0.66437-0.64523-1.018-0.94581-0.73593-0.62555-1.5537-1.1882-2.4512-1.5451-0.79776-0.31723-1.6794-0.42909-2.5378-0.43681l-25.963-0.23465zm0.0866 2.509h3.675c0.1022 0 0.22385 0.0726 0.31407 0.18418 0.0903 0.11159 0.14565 0.25832 0.14075 0.36823l-0.14437 3.3248c-0.003 0.10371-0.0813 0.21743-0.19485 0.30324-0.11372 0.0857-0.2606 0.14075-0.37544 0.14075h-3.7941c-0.0882 0-0.19187-0.0658-0.27075-0.1661-0.0789-0.1003-0.12626-0.2311-0.12265-0.32852l0.11563-3.3284c0.003-0.12009 0.0926-0.24673 0.2238-0.34294 0.13118-0.0963 0.30026-0.15522 0.43322-0.15522zm6.1154 0 7.2706 0.0217c0.22549 0.00071 0.40603 0.12096 0.53429 0.27798 0.12819 0.15715 0.19697 0.35116 0.19484 0.45847l-0.0614 3.1118c-0.002 0.10157-0.0873 0.26654-0.23466 0.39709-0.14736 0.13054-0.35227 0.22796-0.58481 0.22743l-7.4042-0.0106c-0.2123 0-0.42506-0.0702-0.57399-0.18781-0.14884-0.11734-0.23624-0.27617-0.22381-0.46929l0.21297-3.3248a0.086649 0.086649 0 0 0 0 -0.003c0.009-0.12521 0.0858-0.24491 0.23105-0.33933 0.14651-0.0952 0.36366-0.15971 0.63898-0.15885zm10.256 0.12265 7.2994 0.0939c0.22602 0.002 0.42078 0.12394 0.55955 0.28158 0.13885 0.15758 0.21648 0.35393 0.21661 0.45847l0.003 3.0685c0.00012 0.10413-0.0748 0.26742-0.21298 0.39712-0.13821 0.12968-0.33433 0.22508-0.56678 0.22381l-7.3175-0.0359c-0.21251-0.00087-0.42812-0.073-0.58481-0.19143-0.15672-0.11818-0.25465-0.27996-0.25269-0.4729l0.0326-3.3212v-0.003c0.00087-0.12755 0.0662-0.24851 0.20209-0.34294 0.13606-0.0946 0.34601-0.15866 0.62091-0.15524zm10.837 0.18057c0.0739-0.002 0.15673-0.002 0.24909 0.003 1.6301 0.11413 2.463 0.27732 2.9133 0.44405 0.45023 0.16674 0.51482 0.3202 0.66786 0.49095 0 0 1.8508 2.065 2.7761 3.0974 0.0649 0.0724 0.0909 0.17376 0.083 0.29603-0.009 0.12223-0.0528 0.26337-0.12265 0.38988-0.13991 0.253-0.37845 0.44174-0.58122 0.42598-1.8029-0.13991-5.4078-0.41875-5.4078-0.41875-0.20656-0.0171-0.42497-0.12352-0.59202-0.27799-0.16717-0.15459-0.2815-0.35453-0.29605-0.54872l-0.25629-3.4476c-0.0127-0.17717 0.015-0.28008 0.12266-0.35378 0.0808-0.0554 0.22233-0.0939 0.44403-0.10115zm12.48 7.0792c0.0748 0.00011 0.15141 0.0213 0.20571 0.0577 0.40387 0.27464 0.81575 0.58716 1.065 1.0072 0.20485 0.34527 0.28506 0.78221 0.23466 1.1805-0.024 0.11669-0.87587-0.125-1.0361-0.27435-0.26304-0.30811-0.61817-0.89623-0.65703-1.8989 0.0402-0.052 0.11286-0.0724 0.18782-0.0722zm-29.754 4.9277c0.10965 0 0.21483 0.0106 0.31768 0.0326l-0.0541 0.24548c-0.0848-0.0171-0.17334-0.029-0.26354-0.029-0.1201 0-0.23667 0.0149-0.34657 0.0469l-0.0686-0.23466c0.13225-0.0381 0.27079-0.0614 0.41516-0.0614zm24.22 0c0.10967 0 0.21484 0.0106 0.31768 0.0326l-0.0541 0.24548c-0.0848-0.0192-0.17333-0.029-0.26354-0.029-0.12009 0-0.23666 0.0149-0.34656 0.0469l-0.0686-0.23466c0.13224-0.0381 0.27078-0.0614 0.41516-0.0614zm-23.18 0.41876c0.17503 0.1693 0.30673 0.38312 0.38266 0.62091l-0.23466 0.0758c-0.063-0.19867-0.17526-0.37489-0.32129-0.51625l0.17333-0.18057zm24.22 0c0.17505 0.1693 0.30673 0.38312 0.38266 0.62091l-0.23466 0.0758c-0.063-0.19867-0.17525-0.37489-0.32128-0.51625l0.17333-0.18057zm-26.368 0.0722 0.18421 0.1661c-0.13713 0.15034-0.23477 0.33384-0.28519 0.5379l-0.24187-0.0614c0.0607-0.24262 0.17973-0.46327 0.34294-0.64259zm24.22 0 0.18419 0.1661c-0.13713 0.15034-0.23477 0.33384-0.2852 0.5379l-0.24186-0.0614c0.0607-0.24262 0.17973-0.46327 0.34295-0.64259zm-23.111 0.35739c0.35887 0 0.64979 0.29095 0.64979 0.64982 0 0.35888-0.29092 0.6498-0.64979 0.6498-0.35888 0-0.64981-0.29092-0.64981-0.6498 0-0.35887 0.29093-0.64982 0.64981-0.64982zm24.22 0c0.35887 0 0.6498 0.29095 0.6498 0.64982 0 0.35888-0.29093 0.6498-0.6498 0.6498-0.35888 0-0.64981-0.29092-0.64981-0.6498 0-0.35887 0.29093-0.64982 0.64981-0.64982zm-23.01 0.94583 0.24188 0.0614c-0.0605 0.24531-0.18185 0.46507-0.34655 0.64621l-0.18421-0.16611c0.13713-0.15118 0.2386-0.33645 0.2888-0.54149zm24.22 0 0.24187 0.0614c-0.0605 0.24531-0.18184 0.46507-0.34656 0.64621l-0.1842-0.16611c0.13715-0.15118 0.23861-0.33645 0.2888-0.54149zm-26.617 0.083c0.0639 0.19846 0.17461 0.37477 0.32128 0.51624l-0.16971 0.17695c-0.17611-0.1695-0.3131-0.37944-0.38988-0.61732l0.23826-0.0758zm24.22 0c0.0639 0.19846 0.17461 0.37477 0.32129 0.51624l-0.16972 0.17695c-0.17588-0.1695-0.31309-0.37944-0.38988-0.61732l0.23827-0.0758zm-22.689 0.81587 0.0686 0.23826c-0.13117 0.0377-0.26811 0.0614-0.41153 0.0614-0.10966 0-0.2182-0.0106-0.32129-0.0327l0.0541-0.24548c0.0858 0.0192 0.17568 0.029 0.26714 0.029 0.11882 0 0.23417-0.0192 0.34295-0.0505zm24.22 0 0.0686 0.23826c-0.13118 0.0377-0.26814 0.0614-0.41156 0.0614-0.10966 0-0.2182-0.0106-0.32129-0.0327l0.0541-0.24548c0.0858 0.0192 0.17567 0.029 0.26714 0.029 0.11882 0 0.23417-0.0192 0.34294-0.0505z" style="fill:#ffffff" inkscape:connector-curvature="0"/>
    </g>
    <g id="g56143" transform="translate(954.03 1165.1)">
      <rect id="rect56098" style="fill:#ff6600" rx="5.2562" ry="5.2562" height="71.763" width="71.763" y="-621.75" x="-426.92"/>
      <path id="path56055" d="m-394-613.32c-0.20635 0-0.3466 0.16725-0.37203 0.37203l-0.0265 0.20816h-0.7352-5.7619c-1.0478 0-2.122 0.71595-2.7193 1.5767-3.5862 5.1675-6.8094 9.9296-6.8094 18.251v14.281l-0.67098 0.17937v10.917c0 0.55676 0.62353 1.1803 1.1803 1.1803h0.93227l4.1498 9.305h13.065 1.466 13.065l4.152-9.305h0.93006c0.55678 0 1.1803-0.62353 1.1803-1.1803v-10.917l-0.67097-0.17937v-14.281c0-8.3218-3.2232-13.084-6.8094-18.251-0.59733-0.86073-1.6716-1.5767-2.7193-1.5767h-5.762-0.73519l-0.0265-0.20816c-0.0255-0.20478-0.16569-0.37203-0.37203-0.37203h-5.9302zm0.63333 0.4451h4.6636c0.16235 0.00005 0.27501 0.13116 0.29452 0.2923l0.61783 5.1021c0.0195 0.16117-0.12997 0.29229-0.29231 0.29229h-5.9037c-0.16234 0.00006-0.31183-0.13112-0.29229-0.29229l0.61781-5.1021c0.0195-0.16113 0.13219-0.2923 0.29453-0.2923zm2.3318 0.45839c-1.3639 0-2.4691 1.1052-2.4691 2.4691s1.1052 2.4691 2.4691 2.4691 2.4691-1.1052 2.4691-2.4691-1.1052-2.4691-2.4691-2.4691zm-14.009 8.84h13.526v11.597h-14.66c-0.20635 0-0.39347-0.169-0.37203-0.37422l1.1338-10.851c0.0214-0.20523 0.16567-0.37202 0.37203-0.37202zm14.491 0h13.526c0.20635 0 0.35279 0.16679 0.37424 0.37202l1.1338 10.851c0.0214 0.20522-0.1679 0.37422-0.37425 0.37422h-14.66v-11.597zm-13.278 15.747h25.59l-4.1831 3.0426h-17.224l-4.1831-3.0426zm-1.6475 0.78833c0.73137 0 1.3242 0.59287 1.3242 1.3242-0.00002 0.73138-0.59287 1.3242-1.3242 1.3242-0.73136 0-1.3242-0.59286-1.3242-1.3242 0-0.73136 0.59288-1.3242 1.3242-1.3242zm28.883 0c0.73136 0 1.3242 0.59287 1.3242 1.3242 0 0.73138-0.59287 1.3242-1.3242 1.3242-0.73137 0-1.3242-0.59286-1.3242-1.3242 0-0.73136 0.59286-1.3242 1.3242-1.3242zm-22.264 2.8278h15.647l-3.9838 2.8987h-7.6796l-3.9838-2.8987zm-6.0808 1.0009c0.67207 0 1.2157 0.54587 1.2157 1.2179 0 0.67206-0.54365 1.2157-1.2157 1.2157s-1.2179-0.54366-1.2179-1.2157c0-0.67207 0.54587-1.2179 1.2179-1.2179zm27.807 0c0.67206 0 1.2179 0.54587 1.2179 1.2179 0 0.67206-0.54588 1.2157-1.2179 1.2157-0.67207 0-1.2157-0.54366-1.2157-1.2157 0-0.67207 0.54365-1.2179 1.2157-1.2179zm-16.951 2.4713h6.0986l-3.0493 2.2189-3.0493-2.2189zm-1.3198 8.5167h8.7382c0.20635 0 0.37424 0.16567 0.37424 0.37202v7.5246c0 0.20635-0.16789 0.37203-0.37424 0.37203h-8.7382c-0.20635 0-0.37424-0.16568-0.37424-0.37203v-7.5246c0-0.20635 0.16789-0.37202 0.37424-0.37202z" style="fill:#ffffff" inkscape:connector-curvature="0"/>
    </g>
  </g>
  <metadata>
    <rdf:RDF>
      <cc:Work>
        <dc:format>image/svg+xml</dc:format>
        <dc:type rdf:resource="http://purl.org/dc/dcmitype/StillImage"/>
        <cc:license rdf:resource="http://creativecommons.org/licenses/publicdomain/"/>
        <dc:publisher>
          <cc:Agent rdf:about="http://openclipart.org/">
            <dc:title>Openclipart</dc:title>
          </cc:Agent>
        </dc:publisher>
      </cc:Work>
      <cc:License rdf:about="http://creativecommons.org/licenses/publicdomain/">
        <cc:permits rdf:resource="http://creativecommons.org/ns#Reproduction"/>
        <cc:permits rdf:resource="http://creativecommons.org/ns#Distribution"/>
        <cc:permits rdf:resource="http://creativecommons.org/ns#DerivativeWorks"/>
      </cc:License>
    </rdf:RDF>
  </metadata>
</svg>
