<?xml version="1.0"?>
<svg xmlns:rdf="http://www.w3.org/1999/02/22-rdf-syntax-ns#" xmlns="http://www.w3.org/2000/svg" xmlns:sodipodi="http://inkscape.sourceforge.net/DTD/sodipodi-0.dtd" xmlns:cc="http://web.resource.org/cc/" xmlns:xlink="http://www.w3.org/1999/xlink" xmlns:dc="http://purl.org/dc/elements/1.1/" xmlns:svg="http://www.w3.org/2000/svg" id="svg2" viewBox="0 0 80 80" sodipodi:version="0.32" sodipodi:docname="rejon.svg" sodipodi:docbase="/home/rejon">
  <defs id="defs3">
    <linearGradient id="linearGradient2845" y2="-8.75" gradientUnits="userSpaceOnUse" x2="85.5" y1="44.5" x1="36.75">
      <stop id="stop2841" stop-color="#250000" offset="0"/>
      <stop id="stop2843" stop-color="#250000" stop-opacity="0" offset="1"/>
    </linearGradient>
    <linearGradient id="linearGradient2863" y2="56" gradientUnits="userSpaceOnUse" x2="42.875" y1="75.75" x1="60">
      <stop id="stop2859" offset="0"/>
      <stop id="stop2861" stop-opacity="0" offset="1"/>
    </linearGradient>
  </defs>
  <sodipodi:namedview id="base" bordercolor="#666666" borderopacity="1.0" showguides="true" pagecolor="#ffffff"/>
  <g id="layer4" sodipodi:insensitive="true" fill-rule="evenodd">
    <path id="path2781" d="m38.488 3.5801c-7.725 0.6524-13.995 6.4849-17.968 12.863-3.021 5.449-3.023 11.883-2.609 17.933 0.241 4.779 1.691 9.504 0.921 14.311-0.163 6.089 2.405 11.85 6.006 16.591 1.999 2.868 3.81 5.878 5.507 8.927 2.855 3.47 6.859 3.65 11.862 3.012 5.002-0.637 9.503-2.986 13.726-7.956 4.224-4.969 6.761-11.302 8.877-17.133 1.811-0.557 2.545-0.512 3.697-2.23 1.094-1.631 2.06-3.691 3.116-7.1 0.746-3.497 0.401-8.4-3.593-9.557-2.938 1.221-0.516-8.144-2.485-11.755-1.384-6.379-5.656-12.105-11.635-14.691-4.758-2.4037-10.14-3.3159-15.422-3.2149z" sodipodi:nodetypes="ccccccccccccccc" fill="#dbdbdb"/>
    <path id="path2783" d="m37.484 3.5953c-7.743 0.6479-14.027 6.4407-18.009 12.776-3.028 5.412-3.03 11.803-2.616 17.812 0.242 4.746 1.695 9.44 0.924 14.214-0.163 6.048 2.411 11.77 6.02 16.479 2.003 2.849 3.819 5.838 5.519 8.866 2.862 3.447 6.875 3.626 11.889 2.993s9.65-2.966 13.884-7.903c4.233-4.936 6.651-11.226 8.771-17.017 1.816-0.553 2.551-0.509 3.706-2.215 1.097-1.621 2.19-3.542 3.248-6.928 0.748-3.474 0.277-8.467-3.726-9.616-2.945 1.212-0.518-8.089-2.491-11.676-1.387-6.336-5.668-12.023-11.662-14.592-4.768-2.387-10.163-3.2932-15.457-3.1927z" sodipodi:nodetypes="ccccccccccccccc" fill="#c8c8c8"/>
    <path id="path2779" d="m36.182 3.1622c-7.814 0.6502-14.157 6.4627-18.175 12.819-3.056 5.431-3.058 11.844-2.639 17.873 0.244 4.762 1.71 9.472 0.931 14.263-0.164 6.068 2.433 11.81 6.075 16.535 2.023 2.858 3.855 5.858 5.571 8.896 2.887 3.459 6.938 3.638 11.998 3.003 5.06-0.636 9.364-2.977 13.636-7.93s7.087-11.264 9.227-17.075c1.832-0.555 2.574-0.511 3.74-2.223 1.107-1.625 2.21-3.553 3.278-6.951 0.754-3.485 0.279-8.496-3.761-9.649-2.972 1.216-0.897-9.242-2.889-12.84-1.399-6.358-5.345-10.939-11.394-13.517-4.812-2.3953-10.256-3.3045-15.598-3.2038z" sodipodi:nodetypes="ccccccccccccccc" fill="#b2b2b2"/>
    <path id="path2481" d="m35.255 2.2809c-7.814 0.6502-14.156 6.4627-18.175 12.819-3.056 5.43-3.058 11.844-2.639 17.873 0.244 4.762 1.71 9.472 0.931 14.263-0.164 6.067 2.434 11.81 6.076 16.534 2.022 2.859 3.854 5.858 5.57 8.897 2.888 3.458 6.938 3.637 11.998 3.002s9.739-2.976 14.011-7.929 6.712-11.264 8.852-17.075c1.833-0.555 2.575-0.511 3.74-2.223 1.107-1.626 2.21-3.553 3.278-6.952 0.754-3.485 0.28-8.495-3.761-9.648-2.972 1.216-0.897-8.117-2.888-11.716-1.4-6.358-5.346-12.063-11.394-14.641-4.813-2.3956-10.257-3.3048-15.599-3.2041z" sodipodi:nodetypes="ccccccccccccccc" fill="#989898"/>
  </g>
  <g id="layer1">
    <path id="path1311" d="m34.144 2.8207c11.872-0.0469 23.514 3.3992 27.143 17.933 1.416 6.701 0.951 13.042-0.143 19.605-1.506 8.426-0.739 13.459-6.869 23.459-4.395 5.546-7.64 9.517-16.665 10.954-9.012 1.435-10.593 0.137-12.659-5.423-0.655-1.993-10.248-11.802-10.143-21.168 0.978-9.124-2.571-19.574-0.326-28.552 3.022-8.917 12.137-16.848 19.662-16.808z" sodipodi:nodetypes="cccczcccc" fill="#d3998e" fill-rule="evenodd"/>
    <path id="path2080" d="m59.168 35.377c0.57-2.5 2.945-3.674 5.256-3.389 2.59 0.585 3.422 4.861 3.16 7.296-0.242 3.657-1.365 5.827-3.352 8.83-0.922 1.274-3.507 2.82-4.578 1.278" sodipodi:nodetypes="ccccc" fill="#d3998e" fill-rule="evenodd"/>
    <path id="path2082" d="m32.079 29.06c3.115-0.992 4.801-2.445 9.437-2.304 2.932 0.286 7.952 0.149 8.817 3.624-3.043-1.696-6.377-3.659-9.926-1.936-2.539 0.825-6.172 3.41-8.328 0.616z" sodipodi:nodetypes="ccccc" fill="#735e5b" fill-rule="evenodd"/>
    <path id="path2084" d="m13.493 34.769c1.412-1.531 2.26-3.777 5.024-4.086 1.695-0.055 5.457-0.227 6.669 0.681-1.488 1.554-4.762 0.285-6.63 1.274-2.076 0.294-3.312 2.588-5.063 2.131z" sodipodi:nodetypes="ccccc" fill="#735e5b" fill-rule="evenodd"/>
    <path id="path2098" d="m27.627 34.335c-0.821 1.28-0.78 2.327-1.139 3.613-0.14 1.131-0.674 1.761-1.001 2.613-0.822 1.707-1.984 3.772-1.722 5.769 0.144 1.053 1.548 1.88 2.503 1.687 0.432-0.063 0.898-0.139 1.253-0.452-0.548-0.25-0.687 0.245-1.237 0.051-0.806-0.104-1.796-0.705-1.807-1.647-0.236-1.813 0.35-3.199 1.085-4.751 0.357-0.774 0.826-1.899 1.178-2.676 0.183-1.149 0.518-2.226 0.668-3.253 0.162-0.254 0.314-0.616 0.219-0.954z" sodipodi:nodetypes="cccccccccccc" fill-rule="evenodd" fill-opacity=".46023"/>
    <path id="path2100" d="m33.162 40.505c0.21 0.319 0.639 0.215 0.861 0.516 1.266 0.998 2.276 2.513 2.535 4.262 0.098 0.629-0.258 1.305-0.802 1.487-0.831 0.444-1.763 0.598-2.676 0.561-0.145-0.075-0.626-0.273-0.507 0.089 1.179 0.321 2.675-0.06 3.751-0.633 0.466-0.298 0.768-0.928 0.662-1.534-0.094-1.19-0.066-1.459-0.722-2.36-0.528-0.692-2.02-2.061-2.783-2.388-0.105-0.024-0.214-0.029-0.319 0z" sodipodi:nodetypes="ccccccccccc" fill-rule="evenodd" fill-opacity=".47159"/>
    <path id="path2102" d="m30.185 46.28s0.884-3.403 3.977-0.884c-2.165 0.088-1.723-1.149-2.873-0.486-0.751 1.149-0.176 0.398-1.104 1.37z" sodipodi:nodetypes="cccc" fill="#72534d" fill-rule="evenodd"/>
    <path id="path2104" d="m26.124 45.433c-0.361 0.044-0.296 0.366 0.008 0.341 0.185-0.004 0.482 0.282 0.603 0.412 0.38 0.337 0.629 0.645 1.123 0.795 0.148 0.057 0.263-0.207 0.074-0.212-0.168-0.033-0.178-0.057-0.314-0.163-0.363-0.224-0.537-0.557-0.883-0.804-0.12-0.071-0.472-0.38-0.611-0.369z" sodipodi:nodetypes="cccccccc" fill="#72534d" fill-rule="evenodd"/>
    <path id="path2106" d="m40.788 46.126l-0.17 0.124c0.757 1.021 2.288 3.007 3.376 5.149 0.544 1.071 0.972 2.18 1.145 3.219 0.173 1.04 0.091 2.01-0.393 2.814l0.177 0.105c0.516-0.859 1.214-1.88 1.036-2.951-0.177-1.072-0.743-2.318-1.293-3.401-1.1-2.166-3.124-4.042-3.878-5.059z" sodipodi:nodetypes="ccccccccc" fill-rule="evenodd" fill-opacity=".26705"/>
    <path id="path2108" d="m21.8 50.85c-0.31 0.31-0.471 0.908-0.556 1.662-0.086 0.753-0.33 1.785-0.251 2.719 0.157 1.869 0.85 3.691 1.527 4.622l0.17-0.118c-0.619-0.851-1.088-2.799-1.243-4.645-0.078-0.924-0.083-1.825 0-2.559 0.083-0.733 0.267-1.294 0.503-1.531l-0.15-0.15z" sodipodi:nodetypes="ccccccccc" fill-rule="evenodd" fill-opacity=".26705"/>
    <path id="path2110" d="m63.996 33.278c-1.278-0.022-2.468 1.298-2.517 2.579 0.175 0.215 0.349-0.171 0.265-0.322 0.181-0.895 0.953-1.629 1.845-1.8 0.513-0.095 1.063 0.036 1.469 0.366 0.459 0.344 0.784 0.838 1.007 1.361 0.272 0.025 0.197-0.372 0.027-0.463-0.164-0.216-0.283-0.464-0.477-0.657-0.411-0.465-0.982-1.048-1.619-1.064z" sodipodi:nodetypes="ccccccccc" fill-rule="evenodd" fill-opacity=".49804"/>
    <path id="path2112" d="m63.8 36.003c0.1 0.414 0.618 0.407 0.848 0.709 0.896 0.949 1.518 2.242 1.427 3.569-0.132 0.889-0.594 1.683-1.064 2.433-0.362 0.543-0.813 1.048-1.393 1.361 0.124 0.419 0.555-0.109 0.722-0.264 0.993-0.918 1.811-2.327 2.108-3.638 0.102-0.933-0.457-2.059-0.876-2.875-0.392-0.696-0.898-0.981-1.661-1.273-0.036-0.009-0.074-0.016-0.111-0.022z" sodipodi:nodetypes="cccccccccc" fill-rule="evenodd" fill-opacity=".49804"/>
    <path id="path2114" d="m62.36 37.92c-0.255 0.025-0.677-0.162-0.809 0.118 0.195 0.238 0.558-0.053 0.816 0.084 0.759 0.136 1.51 0.551 1.878 1.252 0.255 0.451 0.26 1.01 0.06 1.483-0.326 0.799-1.002 1.385-1.672 1.896-0.544 0.401-1.137 0.733-1.752 1.012-0.326-0.055-0.23 0.511 0.044 0.225 1.241-0.602 2.683-1.248 3.494-2.393 0.402-0.587 0.561-1.488 0.248-2.162-0.367-0.85-1.407-1.4-2.307-1.515z" sodipodi:nodetypes="ccccccccccc" fill-rule="evenodd" fill-opacity=".49804"/>
    <path id="path2122" d="m42.322 30.236c-2.017-0.101-4.336 0.161-6.078 1.236-0.234 0.211-0.853 0.765-0.676 1.064 0.433-0.226 0.703-0.697 1.185-0.842 1.808-0.966 3.93-1.189 5.945-0.986 1.224 0.151 2.435 0.543 3.456 1.246 0.031 0.301 0.748 0.275 0.349-0.019-1.266-0.941-2.618-1.613-4.181-1.699z" sodipodi:nodetypes="cccccccc" fill-rule="evenodd" fill-opacity=".49804"/>
    <path id="path2124" d="m22.924 33.692c-1.891 0.044-4.349 0.681-5.612 2.12-0.242 0.301-0.223 0.866-0.282 1.251 0.417-0.048 0.311-0.591 0.575-0.811 0.44-0.535 0.976-0.987 1.587-1.314 1.693-0.957 3.814-1.245 5.65-0.538 0.15 0.075 0.476 0.319 0.53 0.028-0.219-0.165-0.505-0.237-0.762-0.334-0.646-0.209-1.008-0.41-1.686-0.402z" sodipodi:nodetypes="ccccccccc" fill-rule="evenodd" fill-opacity=".49804"/>
    <path id="path2273" d="m34.192 2.529c-0.47-0.0024-0.945 0.027-1.426 0.0851-0.418 0.0505-0.846 0.135-1.269 0.229-0.136 0.0322-0.272 0.0618-0.406 0.0981-0.137 0.0347-0.275 0.0788-0.412 0.1178-3.678 1.1287-6.75 3.7916-9.959 6.3795-1.726 1.7925-3.748 4.2075-4.949 6.3885-0.334 1.082-1.605 7.206-1.72 8.033 1.972-8.03 8.273-16.557 15.749-18.382 7.595-1.854 19.329-0.5453 21.299 9.981 1.967 10.503 5.807 14.607 6.013 24.836 0.168-0.258 0.42-1.744 0.702-2.449 0.282-0.704 0.417-1.865 0.706-2.531 0.579-1.333 1.326-1.784 2.797-2.564 0.047-1.216 0.9-4.089 0.854-5.313-0.551-3.79-1.376-8.726-2.971-12.706-1.09-2.134-2.42-3.918-3.939-5.4047-0.025-0.0139-0.046-0.039-0.072-0.0524-3.856-2.8898-8.178-5.2314-12.877-6.1047-0.121-0.0212-0.244-0.0388-0.366-0.0588-1.51-0.2549-3.057-0.3644-4.639-0.2814-0.466-0.1026-0.922-0.1812-1.368-0.2355-0.584-0.0157-1.16-0.0678-1.747-0.0655z" fill-rule="evenodd" sodipodi:nodetypes="cccccccczzcsscccccccccc" fill-opacity=".11364" fill="url(#linearGradient2845)"/>
    <path id="path2303" d="m62.037 47.348c0 0.296-0.202 0.63-0.451 0.63-0.376 0.836-1.262-0.381-1.262-0.677 0-0.576 1.014-0.63 1.375-0.49 0.249 0 0.338 0.241 0.338 0.537z" sodipodi:nodetypes="ccccc" fill="#8b8b8b"/>
    <path id="path2996" d="m61.8 47.365c0 0.227-0.146 0.483-0.326 0.483-0.272 0.641-0.914-0.292-0.914-0.519 0-0.442 0.734-0.483 0.996-0.375 0.18 0 0.244 0.184 0.244 0.411z" sodipodi:nodetypes="ccccc" fill="#cbcbcb"/>
    <path id="path3005" d="m34.13 2.1559c-7.814 0.6502-14.156 6.4627-18.175 12.819-3.056 5.43-3.058 11.844-2.639 17.873 0.244 4.762 1.71 9.472 0.931 14.263-0.164 6.067 2.434 11.81 6.076 16.534 2.022 2.859 3.854 5.858 5.57 8.897 2.888 3.458 6.938 3.637 11.998 3.002s9.739-2.976 14.011-7.929 6.712-11.264 8.852-17.075c1.833-0.555 2.575-0.511 3.74-2.223 1.107-1.626 2.21-3.553 3.278-6.952 0.754-3.485 0.28-8.495-3.761-9.648-2.972 1.216-0.522-8.117-2.513-11.716-1.4-6.358-5.721-12.063-11.769-14.641-4.813-2.3956-10.257-3.3048-15.599-3.2041zm0 0.961c8.554-0.0792 18.072 2.409 23.256 9.7311 3.653 5.581 5.161 16.195 4.103 20.694 1.445-2.138 5.533-0.417 5.575 3.143 0.67 3.723-1.565 8.61-3.686 11.614-1.215 1.077-2.098 1.611-3.781 0.729 0.384 2.186-0.283 3.247-1.16 5.215-0.893 2.002-1.844 4.271-3.6 7.435-1.777 3.201-4.087 6.128-6.535 8.091-3.516 2.841-6.297 4.399-10.361 4.735-4.063 0.336-8.211 0.979-10.801-2.283-2.638-3.029-4.001-6.933-6.665-9.953-3.568-4.992-5.994-11.118-5.132-17.339 0.245-8.918-3.021-18.151 0.299-26.818 3.055-7.501 9.937-13.66 18.021-14.989l0.467-0.0051z" sodipodi:nodetypes="cccccczzcsccccccccccczsczcccccc" fill-rule="evenodd"/>
    <path id="path2330" d="m30.229 53.483c-0.531 0-6.187 2.299-5.657 3.359 0.53 1.061 4.508 2.74 6.806 2.033s8.485-3.005 8.839-3.801c0.353-0.795-9.988-1.591-9.988-1.591z" fill-opacity=".40341" fill="#682323" fill-rule="evenodd"/>
    <path id="path2317" d="m42.161 54.986s-6.187 4.331-10.783 4.596-7.524-2.466-7.524-2.466 0.183-1.567 1.023-2.554c0.782-0.919 1.666-1.557 3.575-1.936 5.569-0.884 9.909 0.946 9.909 0.946l3.8 1.414zm-3.27 0.088s-5.418-1.039-8.069-0.597c-2.652 0.442-2.506 0.262-3.92 1.102-1.48 0.879-1.243 1.436-1.685 1.436 1.213 0.258 2.599 0.435 6.036 0.004 3.498-0.439 7.638-1.945 7.638-1.945z" sodipodi:nodetypes="cccsccccczczc" fill="#d38686" fill-rule="evenodd"/>
    <path id="path2325" d="m37.009 54.812s-2.353-0.718-5.86-0.382-4.31 1.047-5.189 1.72c4.622-0.576 5.654-0.372 11.049-1.338z" sodipodi:nodetypes="czcc" fill="#f5f5f5" fill-rule="evenodd"/>
    <path id="path2787" d="m28.211 60.731s5.211 0.604 7.862-0.81l-1.218 1.591-0.53 1.642-1.143-0.81-0.405 2.069s-1.371-2.371-1.841-2.341c-0.533 0.034-0.602 0.915-0.602 0.915l-2.123-2.256z" fill-rule="evenodd" sodipodi:nodetypes="cccccczcc" fill-opacity=".70455" fill="#92665a"/>
    <path id="path2847" d="m60 48.75s-4 17.5-19 23.75c-15 2.25-15.25-3.25-15.25-3.25s1.25 3 3.25 4.5 8.75 2.25 13.75 0.25 17-14 17.25-25.25z" fill-rule="evenodd" sodipodi:nodetypes="cccccc" fill-opacity=".26705" fill="url(#linearGradient2863)"/>
  </g>
  <g id="layer7">
    <path id="path1432" d="m45.52 33.066s-1.37-1.724-4.596-1.503c-2.917 0.707-2.867 1.641-3.663 2.304-0.309 0.132-1.154 0.79-1.154 0.79s1.06-0.089 1.591-0.089c0.53 0 3.403 0.31 4.375 0.133s2.652-0.972 3.447-1.635z" sodipodi:nodetypes="ccccccc" fill="#fff" fill-rule="evenodd"/>
    <path id="path2482" d="m17.562 38.312c0.584-0.786 1.376-2.874 4.126-3.187s3.5 0.625 4 1.187c0.5 0.563 0.171 0.469-0.188 0.594-0.351 0.122-0.536 0.174-1.125 0.406-0.859 0.61-1.875 0.876-2.75 0.938s-2.259 0.1-4.063 0.062z" sodipodi:nodetypes="ccczccc" fill="#fff" fill-rule="evenodd"/>
    <path id="path2479" d="m23.562 35.094s1.032 1.687-0.031 2.562c-0.875 1-2.531 0.469-2.531 0.469s-1.469-0.813-1.031-2.313c0.812-1.062 3.593-0.718 3.593-0.718z" sodipodi:nodetypes="ccccc" fill="#4b7ca8" fill-rule="evenodd"/>
    <path id="path2488" d="m39.875 31.812s-1.125 1.813 0.75 2.938c1.937 0.25 2.813-0.531 2.813-0.531s0.624-1.094 0.124-2.344c-1.874-0.813-3.687-0.063-3.687-0.063z" sodipodi:nodetypes="ccccc" fill="#4b7ca8" fill-rule="evenodd"/>
    <path id="path2498" sodipodi:rx="0.81250000" sodipodi:ry="0.81250000" opacity=".75568" d="m2.6875 34.875a0.8125 0.8125 0 1 1 -1.625 0 0.8125 0.8125 0 1 1 1.625 0z" fill-opacity=".88636" transform="translate(20.188 1.5)" sodipodi:cy="34.875000" sodipodi:cx="1.8750000" sodipodi:type="arc"/>
    <path id="path2500" sodipodi:rx="0.81250000" sodipodi:ry="0.81250000" opacity=".75568" d="m2.6875 34.875a0.8125 0.8125 0 1 1 -1.625 0 0.8125 0.8125 0 1 1 1.625 0z" transform="matrix(.42308 0 0 .42308 21.394 21.495)" sodipodi:cy="34.875000" sodipodi:cx="1.8750000" sodipodi:type="arc" fill="#fff"/>
    <path id="path2504" sodipodi:rx="0.81250000" sodipodi:ry="0.81250000" opacity=".75568" d="m2.6875 34.875a0.8125 0.8125 0 1 1 -1.625 0 0.8125 0.8125 0 1 1 1.625 0z" fill-opacity=".88636" transform="translate(39.688 -1.875)" sodipodi:cy="34.875000" sodipodi:cx="1.8750000" sodipodi:type="arc"/>
    <path id="path2506" sodipodi:rx="0.81250000" sodipodi:ry="0.81250000" opacity=".75568" d="m2.6875 34.875a0.8125 0.8125 0 1 1 -1.625 0 0.8125 0.8125 0 1 1 1.625 0z" transform="matrix(.38462 0 0 .38462 40.779 19.462)" sodipodi:cy="34.875000" sodipodi:cx="1.8750000" sodipodi:type="arc" fill="#fff"/>
  </g>
  <metadata>
    <rdf:RDF>
      <cc:Work>
        <dc:format>image/svg+xml</dc:format>
        <dc:type rdf:resource="http://purl.org/dc/dcmitype/StillImage"/>
        <cc:license rdf:resource="http://creativecommons.org/licenses/publicdomain/"/>
        <dc:publisher>
          <cc:Agent rdf:about="http://openclipart.org/">
            <dc:title>Openclipart</dc:title>
          </cc:Agent>
        </dc:publisher>
        <dc:title>Rejon's Head</dc:title>
        <dc:date>2006-08-29T13:46:28</dc:date>
        <dc:description>This is a vectorized version of my head that is used on various websites that use http://planetplanet.org.</dc:description>
        <dc:source>http://openclipart.org/detail/64/rejons-head-by-rejon</dc:source>
        <dc:creator>
          <cc:Agent>
            <dc:title>rejon</dc:title>
          </cc:Agent>
        </dc:creator>
        <dc:subject>
          <rdf:Bag>
            <rdf:li>avatar</rdf:li>
            <rdf:li>clip art</rdf:li>
            <rdf:li>clipart</rdf:li>
            <rdf:li>colour</rdf:li>
            <rdf:li>contour</rdf:li>
            <rdf:li>face</rdf:li>
            <rdf:li>head</rdf:li>
            <rdf:li>icon</rdf:li>
            <rdf:li>man</rdf:li>
            <rdf:li>people</rdf:li>
            <rdf:li>traced</rdf:li>
            <rdf:li>vectorized</rdf:li>
          </rdf:Bag>
        </dc:subject>
      </cc:Work>
      <cc:License rdf:about="http://creativecommons.org/licenses/publicdomain/">
        <cc:permits rdf:resource="http://creativecommons.org/ns#Reproduction"/>
        <cc:permits rdf:resource="http://creativecommons.org/ns#Distribution"/>
        <cc:permits rdf:resource="http://creativecommons.org/ns#DerivativeWorks"/>
      </cc:License>
    </rdf:RDF>
  </metadata>
</svg>
