<?xml version="1.0" encoding="utf-8"?>
<!DOCTYPE svg PUBLIC "-//W3C//DTD SVG 1.1//EN" "http://www.w3.org/Graphics/SVG/1.1/DTD/svg11.dtd">
<svg version="1.1"
	 id="Layer_1" sodipodi:docname="Golden Off Balance Scale.svg" inkscape:version="0.91 r13725" xmlns:dc="http://purl.org/dc/elements/1.1/" xmlns:cc="http://creativecommons.org/ns#" xmlns:rdf="http://www.w3.org/1999/02/22-rdf-syntax-ns#" xmlns:svg="http://www.w3.org/2000/svg" xmlns:sodipodi="http://sodipodi.sourceforge.net/DTD/sodipodi-0.dtd" xmlns:inkscape="http://www.inkscape.org/namespaces/inkscape"
	 xmlns="http://www.w3.org/2000/svg" xmlns:xlink="http://www.w3.org/1999/xlink" x="0px" y="0px" viewBox="0 0 1427.7 1655"
	 enable-background="new 0 0 1427.7 1655" xml:space="preserve">
<sodipodi:namedview  id="namedview1082" inkscape:current-layer="Layer_1" fit-margin-bottom="25" fit-margin-right="25" inkscape:window-height="480" inkscape:window-width="640" inkscape:pageshadow="2" inkscape:pageopacity="0" inkscape:cy="824.67664" inkscape:cx="375.61082" inkscape:zoom="0.4776472" fit-margin-left="25" fit-margin-top="25" showgrid="false" guidetolerance="10" gridtolerance="10" objecttolerance="10" bordercolor="#666666" pagecolor="#ffffff" borderopacity="1">
	</sodipodi:namedview>
<g>
	<g id="g3">
		
			<linearGradient id="path3947_1_" gradientUnits="userSpaceOnUse" x1="1199.089" y1="1504.3451" x2="1329.5842" y2="1504.3451" gradientTransform="matrix(1 0 0 -1 -566.1373 1663.1316)">
			<stop  offset="0" style="stop-color:#BA8B01"/>
			<stop  offset="4.380000e-002" style="stop-color:#CDAA37"/>
			<stop  offset="0.1121" style="stop-color:#E8D886"/>
			<stop  offset="0.1607" style="stop-color:#F8F4B8"/>
			<stop  offset="0.1847" style="stop-color:#FFFFCB"/>
			<stop  offset="0.2986" style="stop-color:#FFFFCB"/>
			<stop  offset="0.3078" style="stop-color:#FDF9C1"/>
			<stop  offset="0.3415" style="stop-color:#F5E6A0"/>
			<stop  offset="0.374" style="stop-color:#F0D989"/>
			<stop  offset="0.4043" style="stop-color:#EDD17B"/>
			<stop  offset="0.4303" style="stop-color:#ECCE76"/>
			<stop  offset="0.4892" style="stop-color:#A26F14"/>
			<stop  offset="0.6051" style="stop-color:#A26F14"/>
			<stop  offset="0.6074" style="stop-color:#A67418"/>
			<stop  offset="0.624" style="stop-color:#C19234"/>
			<stop  offset="0.6402" style="stop-color:#D4A848"/>
			<stop  offset="0.6558" style="stop-color:#E0B654"/>
			<stop  offset="0.6699" style="stop-color:#E4BA58"/>
			<stop  offset="0.6716" style="stop-color:#D9A94D"/>
			<stop  offset="0.6756" style="stop-color:#C38737"/>
			<stop  offset="0.6793" style="stop-color:#B36F27"/>
			<stop  offset="0.6828" style="stop-color:#A9601D"/>
			<stop  offset="0.6857" style="stop-color:#A65B1A"/>
			<stop  offset="0.6954" style="stop-color:#AA6222"/>
			<stop  offset="0.7104" style="stop-color:#B57637"/>
			<stop  offset="0.7287" style="stop-color:#C6965B"/>
			<stop  offset="0.7498" style="stop-color:#DEC38B"/>
			<stop  offset="0.7728" style="stop-color:#FDFCC9"/>
			<stop  offset="0.7741" style="stop-color:#FFFFCD"/>
			<stop  offset="0.7957" style="stop-color:#FFFFCD"/>
			<stop  offset="0.8468" style="stop-color:#E5BD5D"/>
			<stop  offset="0.8861" style="stop-color:#BB913B"/>
			<stop  offset="0.9116" style="stop-color:#BB913B"/>
			<stop  offset="0.9147" style="stop-color:#BE9337"/>
			<stop  offset="0.925" style="stop-color:#C39830"/>
			<stop  offset="0.9509" style="stop-color:#C5992E"/>
			<stop  offset="1" style="stop-color:#7F470A"/>
		</linearGradient>
		
			<radialGradient id="path3947_2_" cx="1264.3367" cy="1506.5886" r="90.8329" gradientTransform="matrix(1 0 0 -1 -566.1373 1663.1316)" gradientUnits="userSpaceOnUse">
			<stop  offset="0" style="stop-color:#FFFBCC"/>
			<stop  offset="0.1146" style="stop-color:#FBF2BB"/>
			<stop  offset="0.3413" style="stop-color:#F0D98E"/>
			<stop  offset="0.3708" style="stop-color:#EED688"/>
			<stop  offset="0.6854" style="stop-color:#EBBB10"/>
			<stop  offset="1" style="stop-color:#C3922E"/>
		</radialGradient>
		
			<path id="path3947" sodipodi:nodetypes="csssc" inkscape:connector-curvature="0" fill="url(#path3947_1_)" stroke="url(#path3947_2_)" stroke-width="5" stroke-miterlimit="10" d="
			M698.2,54.4C683.9,91.7,633,170.6,633,206.6s29.2,56.5,65.2,56.5s65.2-20.5,65.2-56.5C763.4,170.6,712.5,91.7,698.2,54.4
			C698.2,54.4,698.2,54.4,698.2,54.4z"/>
		
			<linearGradient id="path3870_1_" gradientUnits="userSpaceOnUse" x1="1397.6262" y1="1159.0035" x2="1233.9026" y2="1442.5814" gradientTransform="matrix(1 0 0 -1 -566.1373 1663.1316)">
			<stop  offset="0" style="stop-color:#BA8B01"/>
			<stop  offset="4.380000e-002" style="stop-color:#CDAA37"/>
			<stop  offset="0.1121" style="stop-color:#E8D886"/>
			<stop  offset="0.1607" style="stop-color:#F8F4B8"/>
			<stop  offset="0.1847" style="stop-color:#FFFFCB"/>
			<stop  offset="0.2986" style="stop-color:#FFFFCB"/>
			<stop  offset="0.3078" style="stop-color:#FDF9C1"/>
			<stop  offset="0.3415" style="stop-color:#F5E6A0"/>
			<stop  offset="0.374" style="stop-color:#F0D989"/>
			<stop  offset="0.4043" style="stop-color:#EDD17B"/>
			<stop  offset="0.4303" style="stop-color:#ECCE76"/>
			<stop  offset="0.4892" style="stop-color:#A26F14"/>
			<stop  offset="0.6051" style="stop-color:#A26F14"/>
			<stop  offset="0.6074" style="stop-color:#A67418"/>
			<stop  offset="0.624" style="stop-color:#C19234"/>
			<stop  offset="0.6402" style="stop-color:#D4A848"/>
			<stop  offset="0.6558" style="stop-color:#E0B654"/>
			<stop  offset="0.6699" style="stop-color:#E4BA58"/>
			<stop  offset="0.6716" style="stop-color:#D9A94D"/>
			<stop  offset="0.6756" style="stop-color:#C38737"/>
			<stop  offset="0.6793" style="stop-color:#B36F27"/>
			<stop  offset="0.6828" style="stop-color:#A9601D"/>
			<stop  offset="0.6857" style="stop-color:#A65B1A"/>
			<stop  offset="0.6954" style="stop-color:#AA6222"/>
			<stop  offset="0.7104" style="stop-color:#B57637"/>
			<stop  offset="0.7287" style="stop-color:#C6965B"/>
			<stop  offset="0.7498" style="stop-color:#DEC38B"/>
			<stop  offset="0.7728" style="stop-color:#FDFCC9"/>
			<stop  offset="0.7741" style="stop-color:#FFFFCD"/>
			<stop  offset="0.7957" style="stop-color:#FFFFCD"/>
			<stop  offset="0.8468" style="stop-color:#E5BD5D"/>
			<stop  offset="0.8861" style="stop-color:#BB913B"/>
			<stop  offset="0.9116" style="stop-color:#BB913B"/>
			<stop  offset="0.9147" style="stop-color:#BE9337"/>
			<stop  offset="0.925" style="stop-color:#C39830"/>
			<stop  offset="0.9509" style="stop-color:#C5992E"/>
			<stop  offset="1" style="stop-color:#7F470A"/>
		</linearGradient>
		
			<radialGradient id="path3870_2_" cx="1313.9375" cy="1302.4553" r="476.0986" gradientTransform="matrix(1 0 0 -1 -566.1373 1663.1316)" gradientUnits="userSpaceOnUse">
			<stop  offset="0" style="stop-color:#FFFBCC"/>
			<stop  offset="0.1146" style="stop-color:#FBF2BB"/>
			<stop  offset="0.3413" style="stop-color:#F0D98E"/>
			<stop  offset="0.3708" style="stop-color:#EED688"/>
			<stop  offset="0.6854" style="stop-color:#EBBB10"/>
			<stop  offset="1" style="stop-color:#C3922E"/>
		</radialGradient>
		
			<path id="path3870" sodipodi:nodetypes="sscscccscccccccscccscscssscscscscscscscsccssccscccscccscscscscscccccccczccccccccscscscscscccscccsccssccscscscscscscscssscs" inkscape:connector-curvature="0" fill="url(#path3870_1_)" stroke="url(#path3870_2_)" stroke-width="5" stroke-miterlimit="10" d="
			M227.8,474.9c-10,4.9-19.1,11.3-27,18.9c-10.6,10.2-19.2,22.5-24.9,36.2c-8.8,20.9-11.3,44-7.4,65.9c1.2,6.9,3.1,13.6,5.6,20.2
			c6.1,16,15.7,30.5,27.9,42.4c11.9,11.6,26,20.5,41.1,26.5c15.6,6.1,32.2,9.1,48.6,8.9c16.4-0.2,32.8-3.5,47.9-9.8
			c10.7-4.6,20.2-10.9,28.1-18.5c7.8-7.5,14.1-15.6,19.3-23.5C481.7,509.9,569,402.3,729.4,319.6c166.7-69.2,305.1-66.5,467.2-53.6
			c9.4,1.1,19.7,1.5,30.5,0.4c10.9-1.2,21.9-4.3,32.3-9.5c14.6-7.5,27.6-17.8,38.3-30.2c10.7-12.4,19.2-27,24.6-42.9
			c5.2-15.4,7.5-31.9,6.3-48.5c-1.2-17-6.1-33.7-14.4-48.7c-3.4-6.2-7.4-11.9-11.8-17.3c-14.2-17.1-33.5-30.2-55.1-36.9
			c-14.2-4.4-29-5.9-43.7-4.3c-14.6,1.5-28.9,6.1-41.9,13.5c-11.2,6.6-20.8,15.2-28.5,25.2c-7.7,10-13.3,21.2-16.8,33.1
			c-3.6,12.5-4.5,25.6-2.8,38c1.7,12.5,6,24.4,12.6,34.9c5.9,9.2,13.3,17,21.7,22.9c8.4,6,17.7,10.3,27.3,12.7
			c10.7,2.7,21.5,2.9,31.7,1c10.1-1.9,19.6-5.8,27.6-11.5c7-5.1,12.6-11.3,16.8-18c4.2-6.7,7-13.9,8.4-21c1.7-8.7,1.1-17.3-1-24.8
			c-2.2-7.5-5.8-14.1-10.4-19.3c-4.3-4.7-9.2-7.9-14-10c-4.8-2.1-9.6-3.1-13.9-3.3c-2.9-0.2-5.7,0.1-8.2,0.6
			c-2.5,0.5-4.7,1.3-6.6,2.3c-2,1.1-3.6,2.2-4.8,3.4s-2.1,2.4-2.7,3.4c-1.2,2.1-1.4,3.8-1,4.7c0.4,0.9,1.4,1.1,2.9,0.8
			c1.5-0.2,3.5-0.9,6.1-1.2c1-0.1,2.1-0.2,3.2-0.1c2.4,0,5.4,0.6,8.6,1.8c2.4,0.9,5,2.3,7.3,4.2c2.4,1.8,4.5,4.2,6,6.9
			c1.9,3,3.1,6.8,3.5,11c0.4,4.2,0,8.8-1.4,13c-1.3,3.8-3.3,7.6-6,11c-2.7,3.4-6.1,6.4-9.9,8.5c-4.3,2.6-9.5,4.2-15.1,4.7
			c-5.6,0.5-11.6-0.1-17.2-1.9c-5.2-1.7-10.3-4.5-14.8-8.2c-4.5-3.6-8.4-8.1-11.2-13.2c-3.3-5.7-5.3-12.5-5.9-19.7
			c-0.6-7.1,0.2-14.7,2.5-21.6c2.2-6.7,5.8-13.2,10.5-18.9c4.7-5.7,10.4-10.6,16.8-14c7.1-4.1,15.6-6.5,24.3-7.2
			c8.8-0.7,17.9,0.4,26.3,3.2c8.3,2.7,16.3,7.1,23.2,12.8c6.9,5.7,12.8,12.8,17,20.6c4.9,9.1,7.9,19.4,8.6,29.9
			c0.7,10.1-0.7,20.6-4,30.5c-6.6,20-21.5,38.1-40,47.8c-5,2.7-10.8,4.5-16.9,5.4c-6.2,0.9-13.2,0.7-20.7,0.2
			c-15.9-1.3-33.7-5.3-53.5-6.9c-21.2-1.6-43.1-5.6-65.9-8.2c-126.6-15.8-219.3-45-388.6,33.6C523.6,319.3,486,409,416.4,515.9
			c-12.6,19.1-23.8,38.4-36.2,55.6c-11.5,16.2-19.9,32.3-29.2,45.3c-4.4,6.1-8.8,11.5-13.5,15.7c-4.6,4.1-9.7,7.4-15,9.4
			c-19.4,7.9-42.8,7.6-62.4-0.3c-9.7-3.9-18.6-9.6-25.9-16.7c-7.5-7.3-13.5-16.2-17.3-25.9c-3.3-8.2-4.8-17.3-4.7-26.3
			c0.1-9,1.8-17.9,5.1-26c3.3-8.2,8.4-15.9,14.6-22.1c6.2-6.2,13.4-11.1,21.1-13.9c6.8-2.7,14.2-3.9,21.5-3.8
			c7.4,0.1,14.7,1.5,21.2,4.2c6.8,2.7,13,7,18.1,12c5.1,5.1,9,11,11.2,17.2c2.1,5.4,2.9,11.3,2.8,17c-0.1,5.8-1.3,11.5-3.3,16.6
			c-2.2,5.4-5.5,10.4-9.5,14.3c-4,4-8.6,6.9-13.4,8.6c-4,1.5-8.5,2.2-12.8,2.1c-4.3-0.1-8.5-1-12.2-2.5c-4.2-1.6-8-4.3-10.9-7.3
			c-2.9-3-5-6.3-6.1-9.8c-1.1-2.9-1.5-6.1-1.4-9c0.1-3,0.7-5.8,1.5-8.3c1.1-3.2,2.6-5.8,4.1-7.7c0.7-0.9,1.5-1.7,2.2-2.4
			c1.9-1.8,3.7-2.9,4.9-3.9c1.1-1,1.6-1.9,1.2-2.7c-0.4-0.9-1.8-1.8-4.3-2.2c-1.2-0.2-2.7-0.3-4.4-0.1s-3.7,0.6-5.8,1.5
			c-2,0.8-4,2-6,3.5c-2,1.6-4,3.5-5.8,5.8c-2.6,3.4-4.9,7.7-6.5,12.7c-1.5,5.1-2.1,10.9-1.3,17.2c1,6.9,3.6,13.9,7.9,20.4
			c4.4,6.5,10.5,12.5,18.3,16.8c6.4,3.6,13.7,6.1,21.5,7.2c7.8,1.1,16.2,0.9,24.6-1.2c9.5-2.5,18.6-7.2,26.6-13.7
			c8-6.5,14.8-14.9,19.6-24.9c4.3-8.9,7.1-18.8,7.9-29.1c0.8-10.3-0.2-21-3.5-31.4c-3.9-11.8-10.2-22.8-18.6-32.1
			c-8.4-9.3-18.9-17.1-30.8-22.4c-11.3-5.1-23.6-8-36.2-8.5c-12.5-0.6-25.4,1.2-37.6,5.5C234.6,471.8,231.1,473.2,227.8,474.9
			L227.8,474.9L227.8,474.9L227.8,474.9z"/>
		
			<linearGradient id="path271_1_" gradientUnits="userSpaceOnUse" x1="1242.8951" y1="860.5938" x2="1314.3696" y2="860.5938" gradientTransform="matrix(1 0 0 -1 -566.1373 1663.1316)">
			<stop  offset="0" style="stop-color:#BA8B01"/>
			<stop  offset="4.380000e-002" style="stop-color:#CDAA37"/>
			<stop  offset="0.1121" style="stop-color:#E8D886"/>
			<stop  offset="0.1607" style="stop-color:#F8F4B8"/>
			<stop  offset="0.1847" style="stop-color:#FFFFCB"/>
			<stop  offset="0.2986" style="stop-color:#FFFFCB"/>
			<stop  offset="0.3078" style="stop-color:#FDF9C1"/>
			<stop  offset="0.3415" style="stop-color:#F5E6A0"/>
			<stop  offset="0.374" style="stop-color:#F0D989"/>
			<stop  offset="0.4043" style="stop-color:#EDD17B"/>
			<stop  offset="0.4303" style="stop-color:#ECCE76"/>
			<stop  offset="0.4892" style="stop-color:#A26F14"/>
			<stop  offset="0.6051" style="stop-color:#A26F14"/>
			<stop  offset="0.6074" style="stop-color:#A67418"/>
			<stop  offset="0.624" style="stop-color:#C19234"/>
			<stop  offset="0.6402" style="stop-color:#D4A848"/>
			<stop  offset="0.6558" style="stop-color:#E0B654"/>
			<stop  offset="0.6699" style="stop-color:#E4BA58"/>
			<stop  offset="0.6716" style="stop-color:#D9A94D"/>
			<stop  offset="0.6756" style="stop-color:#C38737"/>
			<stop  offset="0.6793" style="stop-color:#B36F27"/>
			<stop  offset="0.6828" style="stop-color:#A9601D"/>
			<stop  offset="0.6857" style="stop-color:#A65B1A"/>
			<stop  offset="0.6954" style="stop-color:#AA6222"/>
			<stop  offset="0.7104" style="stop-color:#B57637"/>
			<stop  offset="0.7287" style="stop-color:#C6965B"/>
			<stop  offset="0.7498" style="stop-color:#DEC38B"/>
			<stop  offset="0.7728" style="stop-color:#FDFCC9"/>
			<stop  offset="0.7741" style="stop-color:#FFFFCD"/>
			<stop  offset="0.7957" style="stop-color:#FFFFCD"/>
			<stop  offset="0.8468" style="stop-color:#E5BD5D"/>
			<stop  offset="0.8861" style="stop-color:#BB913B"/>
			<stop  offset="0.9116" style="stop-color:#BB913B"/>
			<stop  offset="0.9147" style="stop-color:#BE9337"/>
			<stop  offset="0.925" style="stop-color:#C39830"/>
			<stop  offset="0.9509" style="stop-color:#C5992E"/>
			<stop  offset="1" style="stop-color:#7F470A"/>
		</linearGradient>
		
			<radialGradient id="path271_2_" cx="1278.6323" cy="860.5938" r="370.6287" gradientTransform="matrix(1 0 0 -1 -566.1373 1663.1316)" gradientUnits="userSpaceOnUse">
			<stop  offset="0" style="stop-color:#FFFBCC"/>
			<stop  offset="0.1146" style="stop-color:#FBF2BB"/>
			<stop  offset="0.3413" style="stop-color:#F0D98E"/>
			<stop  offset="0.3708" style="stop-color:#EED688"/>
			<stop  offset="0.6854" style="stop-color:#EBBB10"/>
			<stop  offset="1" style="stop-color:#C3922E"/>
		</radialGradient>
		
			<path id="path271" inkscape:connector-curvature="0" fill="url(#path271_1_)" stroke="url(#path271_2_)" stroke-width="5" stroke-miterlimit="10" d="
			M748.2,349.3c0-37-13.9-67-31.1-67h-9.3v0c-17.2,0-31.1,30-31.1,67v100.4c0,7.5,0.6,14.7,1.6,21.4c-1.1,3.5-1.6,7.3-1.6,11.2
			v805.7c0,19.2,13.9,34.7,31.1,34.7h9.3c17.2,0,31.1-15.5,31.1-34.7V482.3c0-3.9-0.6-7.6-1.6-11.1c1.1-6.7,1.6-14,1.6-21.5V349.3
			L748.2,349.3z"/>
		
			<linearGradient id="path3962_1_" gradientUnits="userSpaceOnUse" x1="918.7885" y1="292.2396" x2="1638.4741" y2="292.2396" gradientTransform="matrix(1 0 0 -1 -566.1373 1663.1316)">
			<stop  offset="0" style="stop-color:#E4BA5E"/>
			<stop  offset="3.020000e-002" style="stop-color:#E0B55A"/>
			<stop  offset="6.630000e-002" style="stop-color:#D6A64C"/>
			<stop  offset="0.1055" style="stop-color:#C58E37"/>
			<stop  offset="0.1466" style="stop-color:#AD6D19"/>
			<stop  offset="0.1731" style="stop-color:#9B5302"/>
			<stop  offset="0.1881" style="stop-color:#9B5302"/>
			<stop  offset="0.2209" style="stop-color:#B37624"/>
			<stop  offset="0.2613" style="stop-color:#CC9B47"/>
			<stop  offset="0.2989" style="stop-color:#DEB660"/>
			<stop  offset="0.3324" style="stop-color:#E9C670"/>
			<stop  offset="0.3582" style="stop-color:#EDCC75"/>
			<stop  offset="0.3806" style="stop-color:#D7A036"/>
			<stop  offset="0.394" style="stop-color:#D7A036"/>
			<stop  offset="0.4224" style="stop-color:#FDF6DC"/>
			<stop  offset="0.5239" style="stop-color:#F6E284"/>
			<stop  offset="0.5866" style="stop-color:#F5C764"/>
			<stop  offset="0.6037" style="stop-color:#EFC15F"/>
			<stop  offset="0.6272" style="stop-color:#DFAF52"/>
			<stop  offset="0.6542" style="stop-color:#C5933B"/>
			<stop  offset="0.6716" style="stop-color:#B17C2A"/>
			<stop  offset="0.6791" style="stop-color:#C19540"/>
			<stop  offset="0.69" style="stop-color:#D4B35B"/>
			<stop  offset="0.7015" style="stop-color:#E3CA70"/>
			<stop  offset="0.7138" style="stop-color:#EEDB7F"/>
			<stop  offset="0.7274" style="stop-color:#F4E587"/>
			<stop  offset="0.7448" style="stop-color:#F6E88A"/>
			<stop  offset="0.8254" style="stop-color:#F5F1AC"/>
			<stop  offset="0.8582" style="stop-color:#F6F4D6"/>
			<stop  offset="0.8791" style="stop-color:#F3F4FF"/>
			<stop  offset="0.906" style="stop-color:#D59712"/>
			<stop  offset="0.9522" style="stop-color:#FCEEA5"/>
			<stop  offset="1" style="stop-color:#F9CA5D"/>
		</linearGradient>
		
			<radialGradient id="path3962_2_" cx="1278.6313" cy="292.2396" r="270.63" gradientTransform="matrix(1 0 0 -1 -566.1373 1663.1316)" gradientUnits="userSpaceOnUse">
			<stop  offset="0" style="stop-color:#FFFBCC"/>
			<stop  offset="0.1146" style="stop-color:#FBF2BB"/>
			<stop  offset="0.3413" style="stop-color:#F0D98E"/>
			<stop  offset="0.3708" style="stop-color:#EED688"/>
			<stop  offset="0.6854" style="stop-color:#EBBB10"/>
			<stop  offset="1" style="stop-color:#C3922E"/>
		</radialGradient>
		
			<path id="path3962" sodipodi:nodetypes="cccccc" inkscape:connector-curvature="0" fill="url(#path3962_1_)" stroke="url(#path3962_2_)" stroke-width="5" stroke-miterlimit="10" d="
			M712.5,1250.1c-78.3,82.1-152.3,179.5-355.9,193.2c-8.8,13,0,48.3,0,48.3h711.9c0,0,8.8-35.2,0-48.3
			C864.8,1429.7,790.8,1332.2,712.5,1250.1L712.5,1250.1L712.5,1250.1L712.5,1250.1z"/>
		
			<linearGradient id="rect3967_1_" gradientUnits="userSpaceOnUse" x1="794.1556" y1="133.0466" x2="1763.493" y2="133.0466" gradientTransform="matrix(1 0 0 -1 -566.1373 1663.1316)">
			<stop  offset="0" style="stop-color:#E4BA5E"/>
			<stop  offset="3.020000e-002" style="stop-color:#E0B55A"/>
			<stop  offset="6.630000e-002" style="stop-color:#D6A64C"/>
			<stop  offset="0.1055" style="stop-color:#C58E37"/>
			<stop  offset="0.1466" style="stop-color:#AD6D19"/>
			<stop  offset="0.1731" style="stop-color:#9B5302"/>
			<stop  offset="0.1881" style="stop-color:#9B5302"/>
			<stop  offset="0.2209" style="stop-color:#B37624"/>
			<stop  offset="0.2613" style="stop-color:#CC9B47"/>
			<stop  offset="0.2989" style="stop-color:#DEB660"/>
			<stop  offset="0.3324" style="stop-color:#E9C670"/>
			<stop  offset="0.3582" style="stop-color:#EDCC75"/>
			<stop  offset="0.3806" style="stop-color:#D7A036"/>
			<stop  offset="0.394" style="stop-color:#D7A036"/>
			<stop  offset="0.4224" style="stop-color:#FDF6DC"/>
			<stop  offset="0.5239" style="stop-color:#F6E284"/>
			<stop  offset="0.5866" style="stop-color:#F5C764"/>
			<stop  offset="0.6037" style="stop-color:#EFC15F"/>
			<stop  offset="0.6272" style="stop-color:#DFAF52"/>
			<stop  offset="0.6542" style="stop-color:#C5933B"/>
			<stop  offset="0.6716" style="stop-color:#B17C2A"/>
			<stop  offset="0.6791" style="stop-color:#C19540"/>
			<stop  offset="0.69" style="stop-color:#D4B35B"/>
			<stop  offset="0.7015" style="stop-color:#E3CA70"/>
			<stop  offset="0.7138" style="stop-color:#EEDB7F"/>
			<stop  offset="0.7274" style="stop-color:#F4E587"/>
			<stop  offset="0.7448" style="stop-color:#F6E88A"/>
			<stop  offset="0.8254" style="stop-color:#F5F1AC"/>
			<stop  offset="0.8582" style="stop-color:#F6F4D6"/>
			<stop  offset="0.8791" style="stop-color:#F3F4FF"/>
			<stop  offset="0.906" style="stop-color:#D59712"/>
			<stop  offset="0.9522" style="stop-color:#FCEEA5"/>
			<stop  offset="1" style="stop-color:#F9CA5D"/>
		</linearGradient>
		
			<radialGradient id="rect3967_2_" cx="1278.8243" cy="133.0466" r="346.2712" gradientTransform="matrix(1 0 0 -1 -566.1373 1663.1316)" gradientUnits="userSpaceOnUse">
			<stop  offset="0" style="stop-color:#FFFBCC"/>
			<stop  offset="0.1146" style="stop-color:#FBF2BB"/>
			<stop  offset="0.3413" style="stop-color:#F0D98E"/>
			<stop  offset="0.3708" style="stop-color:#EED688"/>
			<stop  offset="0.6854" style="stop-color:#EBBB10"/>
			<stop  offset="1" style="stop-color:#C3922E"/>
		</radialGradient>
		
			<path id="rect3967" sodipodi:nodetypes="ccccc" inkscape:connector-curvature="0" fill="url(#rect3967_1_)" stroke="url(#rect3967_2_)" stroke-width="5" stroke-miterlimit="10" d="
			M237.9,1482.8h949.2c15.4,16.5,8.8,48.5,8.8,66.4c-80.5,25.1-965.4,48.2-966.9,0C231.2,1534.5,221.3,1494.5,237.9,1482.8
			L237.9,1482.8L237.9,1482.8L237.9,1482.8z"/>
		
			<linearGradient id="path3970_1_" gradientUnits="userSpaceOnUse" x1="705.3879" y1="77.5107" x2="1850.4923" y2="77.5107" gradientTransform="matrix(1 0 0 -1 -566.1373 1663.1316)">
			<stop  offset="0" style="stop-color:#E4BA5E"/>
			<stop  offset="3.020000e-002" style="stop-color:#E0B55A"/>
			<stop  offset="6.630000e-002" style="stop-color:#D6A64C"/>
			<stop  offset="0.1055" style="stop-color:#C58E37"/>
			<stop  offset="0.1466" style="stop-color:#AD6D19"/>
			<stop  offset="0.1731" style="stop-color:#9B5302"/>
			<stop  offset="0.1881" style="stop-color:#9B5302"/>
			<stop  offset="0.2209" style="stop-color:#B37624"/>
			<stop  offset="0.2613" style="stop-color:#CC9B47"/>
			<stop  offset="0.2989" style="stop-color:#DEB660"/>
			<stop  offset="0.3324" style="stop-color:#E9C670"/>
			<stop  offset="0.3582" style="stop-color:#EDCC75"/>
			<stop  offset="0.3806" style="stop-color:#D7A036"/>
			<stop  offset="0.394" style="stop-color:#D7A036"/>
			<stop  offset="0.4224" style="stop-color:#FDF6DC"/>
			<stop  offset="0.5239" style="stop-color:#F6E284"/>
			<stop  offset="0.5866" style="stop-color:#F5C764"/>
			<stop  offset="0.6037" style="stop-color:#EFC15F"/>
			<stop  offset="0.6272" style="stop-color:#DFAF52"/>
			<stop  offset="0.6542" style="stop-color:#C5933B"/>
			<stop  offset="0.6716" style="stop-color:#B17C2A"/>
			<stop  offset="0.6791" style="stop-color:#C19540"/>
			<stop  offset="0.69" style="stop-color:#D4B35B"/>
			<stop  offset="0.7015" style="stop-color:#E3CA70"/>
			<stop  offset="0.7138" style="stop-color:#EEDB7F"/>
			<stop  offset="0.7274" style="stop-color:#F4E587"/>
			<stop  offset="0.7448" style="stop-color:#F6E88A"/>
			<stop  offset="0.8254" style="stop-color:#F5F1AC"/>
			<stop  offset="0.8582" style="stop-color:#F6F4D6"/>
			<stop  offset="0.8791" style="stop-color:#F3F4FF"/>
			<stop  offset="0.906" style="stop-color:#D59712"/>
			<stop  offset="0.9522" style="stop-color:#FCEEA5"/>
			<stop  offset="1" style="stop-color:#F9CA5D"/>
		</linearGradient>
		
			<radialGradient id="path3970_2_" cx="1277.9402" cy="77.5107" r="407.8324" gradientTransform="matrix(1 0 0 -1 -566.1373 1663.1316)" gradientUnits="userSpaceOnUse">
			<stop  offset="0" style="stop-color:#FFFBCC"/>
			<stop  offset="0.1146" style="stop-color:#FBF2BB"/>
			<stop  offset="0.3413" style="stop-color:#F0D98E"/>
			<stop  offset="0.3708" style="stop-color:#EED688"/>
			<stop  offset="0.6854" style="stop-color:#EBBB10"/>
			<stop  offset="1" style="stop-color:#C3922E"/>
		</radialGradient>
		
			<path id="path3970" sodipodi:nodetypes="ccccc" inkscape:connector-curvature="0" fill="url(#path3970_1_)" stroke="url(#path3970_2_)" stroke-width="5" stroke-miterlimit="10" d="
			M150.9,1543.7h1123.2c15.4,18.7,8.8,65.9,8.8,83.8H142C144.2,1612.8,129.9,1555.4,150.9,1543.7L150.9,1543.7L150.9,1543.7
			L150.9,1543.7z"/>
	</g>
	<g id="g6">
		
			<linearGradient id="path3836_1_" gradientUnits="userSpaceOnUse" x1="591.1373" y1="266.5616" x2="997.1738" y2="266.5616" gradientTransform="matrix(1 0 0 -1 -566.1373 1663.1316)">
			<stop  offset="1.770000e-002" style="stop-color:#550210"/>
			<stop  offset="0.1405" style="stop-color:#B20014"/>
			<stop  offset="0.3056" style="stop-color:#7B0922"/>
			<stop  offset="0.3452" style="stop-color:#620010"/>
			<stop  offset="0.4529" style="stop-color:#890017"/>
			<stop  offset="0.5416" style="stop-color:#D90522"/>
			<stop  offset="0.7162" style="stop-color:#D90522"/>
			<stop  offset="0.8295" style="stop-color:#610816"/>
			<stop  offset="0.8963" style="stop-color:#550110"/>
			<stop  offset="0.9427" style="stop-color:#550110"/>
			<stop  offset="0.9673" style="stop-color:#53050E"/>
			<stop  offset="1" style="stop-color:#441A20"/>
		</linearGradient>
		<path id="path3836" inkscape:connector-curvature="0" fill="url(#path3836_1_)" d="M25,1348.2c47.9,59,121.1,96.6,203,96.6
			s155.1-37.6,203-96.6H25L25,1348.2L25,1348.2z"/>
		
			<linearGradient id="path3843_1_" gradientUnits="userSpaceOnUse" x1="794.1577" y1="592.1018" x2="794.1577" y2="592.1018" gradientTransform="matrix(1 0 0 -1 -566.1373 1663.1316)">
			<stop  offset="1.770000e-002" style="stop-color:#550210"/>
			<stop  offset="0.1405" style="stop-color:#B20014"/>
			<stop  offset="0.3056" style="stop-color:#7B0922"/>
			<stop  offset="0.3452" style="stop-color:#620010"/>
			<stop  offset="0.4529" style="stop-color:#890017"/>
			<stop  offset="0.5416" style="stop-color:#D90522"/>
			<stop  offset="0.7162" style="stop-color:#D90522"/>
			<stop  offset="0.8295" style="stop-color:#610816"/>
			<stop  offset="0.8963" style="stop-color:#550110"/>
			<stop  offset="0.9427" style="stop-color:#550110"/>
			<stop  offset="0.9673" style="stop-color:#53050E"/>
			<stop  offset="1" style="stop-color:#441A20"/>
		</linearGradient>
		<path id="path3843" inkscape:connector-curvature="0" fill="url(#path3843_1_)" stroke="#000000" stroke-width="5.4" d="
			M228,1356.6V785.4"/>
		
			<linearGradient id="path3845_1_" gradientUnits="userSpaceOnUse" x1="795.5497" y1="594.2766" x2="986.9429" y2="594.2766" gradientTransform="matrix(1 0 0 -1 -566.1373 1663.1316)">
			<stop  offset="1.770000e-002" style="stop-color:#550210"/>
			<stop  offset="0.1405" style="stop-color:#B20014"/>
			<stop  offset="0.3056" style="stop-color:#7B0922"/>
			<stop  offset="0.3452" style="stop-color:#620010"/>
			<stop  offset="0.4529" style="stop-color:#890017"/>
			<stop  offset="0.5416" style="stop-color:#D90522"/>
			<stop  offset="0.7162" style="stop-color:#D90522"/>
			<stop  offset="0.8295" style="stop-color:#610816"/>
			<stop  offset="0.8963" style="stop-color:#550110"/>
			<stop  offset="0.9427" style="stop-color:#550110"/>
			<stop  offset="0.9673" style="stop-color:#53050E"/>
			<stop  offset="1" style="stop-color:#441A20"/>
		</linearGradient>
		
			<path id="path3845" sodipodi:nodetypes="cc" inkscape:connector-curvature="0" fill="url(#path3845_1_)" stroke="#000000" stroke-width="5.4" d="
			M420.8,1352.3L229.4,785.4"/>
		
			<linearGradient id="path3847_1_" gradientUnits="userSpaceOnUse" x1="601.3637" y1="594.2766" x2="792.7657" y2="594.2766" gradientTransform="matrix(1 0 0 -1 -566.1373 1663.1316)">
			<stop  offset="1.770000e-002" style="stop-color:#550210"/>
			<stop  offset="0.1405" style="stop-color:#B20014"/>
			<stop  offset="0.3056" style="stop-color:#7B0922"/>
			<stop  offset="0.3452" style="stop-color:#620010"/>
			<stop  offset="0.4529" style="stop-color:#890017"/>
			<stop  offset="0.5416" style="stop-color:#D90522"/>
			<stop  offset="0.7162" style="stop-color:#D90522"/>
			<stop  offset="0.8295" style="stop-color:#610816"/>
			<stop  offset="0.8963" style="stop-color:#550110"/>
			<stop  offset="0.9427" style="stop-color:#550110"/>
			<stop  offset="0.9673" style="stop-color:#53050E"/>
			<stop  offset="1" style="stop-color:#441A20"/>
		</linearGradient>
		
			<path id="path3847" sodipodi:nodetypes="cc" inkscape:connector-curvature="0" fill="url(#path3847_1_)" stroke="#000000" stroke-width="5.4" d="
			M35.2,1352.3l191.4-566.9"/>
		
			<linearGradient id="path3849_1_" gradientUnits="userSpaceOnUse" x1="767.7616" y1="905.0469" x2="820.5381" y2="905.0469" gradientTransform="matrix(1 0 0 -1 -566.1373 1663.1316)">
			<stop  offset="1.770000e-002" style="stop-color:#550210"/>
			<stop  offset="0.1405" style="stop-color:#B20014"/>
			<stop  offset="0.3056" style="stop-color:#7B0922"/>
			<stop  offset="0.3452" style="stop-color:#620010"/>
			<stop  offset="0.4529" style="stop-color:#890017"/>
			<stop  offset="0.5416" style="stop-color:#D90522"/>
			<stop  offset="0.7162" style="stop-color:#D90522"/>
			<stop  offset="0.8295" style="stop-color:#610816"/>
			<stop  offset="0.8963" style="stop-color:#550110"/>
			<stop  offset="0.9427" style="stop-color:#550110"/>
			<stop  offset="0.9673" style="stop-color:#53050E"/>
			<stop  offset="1" style="stop-color:#441A20"/>
		</linearGradient>
		<path id="path3849" inkscape:connector-curvature="0" fill="url(#path3849_1_)" d="M222.8,727.3c-11.7,0-21.2,13.8-21.2,30.8
			c0,17,9.5,30.8,21.2,30.8c1.8,0,3.5-0.4,5.2-1c-9.1-3.4-15.9-15.5-15.9-29.8c0-14.4,6.7-26.4,15.9-29.8
			C226.3,727.7,224.6,727.3,222.8,727.3L222.8,727.3L222.8,727.3L222.8,727.3z M228,728.3c9.2,3.4,15.9,15.4,15.9,29.8
			c0,14.4-6.8,26.4-15.9,29.8c1.7,0.6,3.5,1,5.3,1c11.7,0,21.1-13.8,21.1-30.8c0-17-9.4-30.8-21.1-30.8
			C231.5,727.3,229.7,727.7,228,728.3L228,728.3L228,728.3z"/>
		
			<linearGradient id="path3859_1_" gradientUnits="userSpaceOnUse" x1="765.4251" y1="959.8569" x2="817.2611" y2="959.8569" gradientTransform="matrix(1 0 0 -1 -566.1373 1663.1316)">
			<stop  offset="1.770000e-002" style="stop-color:#550210"/>
			<stop  offset="0.1405" style="stop-color:#B20014"/>
			<stop  offset="0.3056" style="stop-color:#7B0922"/>
			<stop  offset="0.3452" style="stop-color:#620010"/>
			<stop  offset="0.4529" style="stop-color:#890017"/>
			<stop  offset="0.5416" style="stop-color:#D90522"/>
			<stop  offset="0.7162" style="stop-color:#D90522"/>
			<stop  offset="0.8295" style="stop-color:#610816"/>
			<stop  offset="0.8963" style="stop-color:#550110"/>
			<stop  offset="0.9427" style="stop-color:#550110"/>
			<stop  offset="0.9673" style="stop-color:#53050E"/>
			<stop  offset="1" style="stop-color:#441A20"/>
		</linearGradient>
		<path id="path3859" sodipodi:nodetypes="sscsssss" inkscape:connector-curvature="0" fill="url(#path3859_1_)" d="M224.3,661.7
			c-5.8,2.5-5.4,21.3-1.5,31.1c4.3,10.7,22,26.5,0.6,36.3c-19.7,3-19.3-30.4-23.7-12.8c-3.2,12.9,11.8,28.6,26.4,28.6
			c14.6,0,25-10.6,25-26.4c0-9.4-6.6-18.3-15.2-28C226.3,679.6,227.4,660.4,224.3,661.7L224.3,661.7L224.3,661.7L224.3,661.7z"/>
	</g>
	<g id="g14">
		
			<linearGradient id="path3903_1_" gradientUnits="userSpaceOnUse" x1="1968.8627" y1="677.6296" x2="1562.8263" y2="677.6296" gradientTransform="matrix(1 0 0 -1 -566.1373 1663.1316)">
			<stop  offset="0" style="stop-color:#C77627"/>
			<stop  offset="4.850001e-002" style="stop-color:#E9A34A"/>
			<stop  offset="6.980000e-002" style="stop-color:#F0B663"/>
			<stop  offset="0.1006" style="stop-color:#F8CC82"/>
			<stop  offset="0.1269" style="stop-color:#FDDA94"/>
			<stop  offset="0.1455" style="stop-color:#FFDF9B"/>
			<stop  offset="0.1551" style="stop-color:#FFE1A2"/>
			<stop  offset="0.1692" style="stop-color:#FFE8B6"/>
			<stop  offset="0.1859" style="stop-color:#FEF2D6"/>
			<stop  offset="0.2" style="stop-color:#FEFDF6"/>
			<stop  offset="0.2303" style="stop-color:#FEFDF6"/>
			<stop  offset="0.244" style="stop-color:#FEF3D9"/>
			<stop  offset="0.2653" style="stop-color:#FFE6B3"/>
			<stop  offset="0.2849" style="stop-color:#FFDC98"/>
			<stop  offset="0.3021" style="stop-color:#FFD687"/>
			<stop  offset="0.3152" style="stop-color:#FFD481"/>
			<stop  offset="0.3406" style="stop-color:#FFD687"/>
			<stop  offset="0.375" style="stop-color:#FFDC98"/>
			<stop  offset="0.4145" style="stop-color:#FFE6B5"/>
			<stop  offset="0.4575" style="stop-color:#FEF4DC"/>
			<stop  offset="0.4826" style="stop-color:#FEFDF6"/>
			<stop  offset="0.491" style="stop-color:#FEF7E6"/>
			<stop  offset="0.5201" style="stop-color:#FEE4B6"/>
			<stop  offset="0.5477" style="stop-color:#FDD58F"/>
			<stop  offset="0.5731" style="stop-color:#FDCB74"/>
			<stop  offset="0.5953" style="stop-color:#FDC463"/>
			<stop  offset="0.6121" style="stop-color:#FDC25D"/>
			<stop  offset="0.6364" style="stop-color:#FFD484"/>
			<stop  offset="0.7273" style="stop-color:#FFFFFA"/>
			<stop  offset="0.8061" style="stop-color:#FFFFFA"/>
			<stop  offset="0.8848" style="stop-color:#FFD27A"/>
			<stop  offset="0.9576" style="stop-color:#E39E45"/>
			<stop  offset="1" style="stop-color:#C78133"/>
		</linearGradient>
		<path id="path3903" inkscape:connector-curvature="0" fill="url(#path3903_1_)" d="M1402.7,937.2c-47.9,59-121.1,96.6-203,96.6
			c-81.9,0-155.1-37.6-203-96.6H1402.7L1402.7,937.2L1402.7,937.2L1402.7,937.2z"/>
		
			<linearGradient id="path3905_1_" gradientUnits="userSpaceOnUse" x1="1765.8511" y1="1003.17" x2="1765.8511" y2="1003.17" gradientTransform="matrix(1 0 0 -1 -566.1373 1663.1316)">
			<stop  offset="0" style="stop-color:#C77627"/>
			<stop  offset="4.850001e-002" style="stop-color:#E9A34A"/>
			<stop  offset="6.980000e-002" style="stop-color:#F0B663"/>
			<stop  offset="0.1006" style="stop-color:#F8CC82"/>
			<stop  offset="0.1269" style="stop-color:#FDDA94"/>
			<stop  offset="0.1455" style="stop-color:#FFDF9B"/>
			<stop  offset="0.1551" style="stop-color:#FFE1A2"/>
			<stop  offset="0.1692" style="stop-color:#FFE8B6"/>
			<stop  offset="0.1859" style="stop-color:#FEF2D6"/>
			<stop  offset="0.2" style="stop-color:#FEFDF6"/>
			<stop  offset="0.2303" style="stop-color:#FEFDF6"/>
			<stop  offset="0.244" style="stop-color:#FEF3D9"/>
			<stop  offset="0.2653" style="stop-color:#FFE6B3"/>
			<stop  offset="0.2849" style="stop-color:#FFDC98"/>
			<stop  offset="0.3021" style="stop-color:#FFD687"/>
			<stop  offset="0.3152" style="stop-color:#FFD481"/>
			<stop  offset="0.3406" style="stop-color:#FFD687"/>
			<stop  offset="0.375" style="stop-color:#FFDC98"/>
			<stop  offset="0.4145" style="stop-color:#FFE6B5"/>
			<stop  offset="0.4575" style="stop-color:#FEF4DC"/>
			<stop  offset="0.4826" style="stop-color:#FEFDF6"/>
			<stop  offset="0.491" style="stop-color:#FEF7E6"/>
			<stop  offset="0.5201" style="stop-color:#FEE4B6"/>
			<stop  offset="0.5477" style="stop-color:#FDD58F"/>
			<stop  offset="0.5731" style="stop-color:#FDCB74"/>
			<stop  offset="0.5953" style="stop-color:#FDC463"/>
			<stop  offset="0.6121" style="stop-color:#FDC25D"/>
			<stop  offset="0.6364" style="stop-color:#FFD484"/>
			<stop  offset="0.7273" style="stop-color:#FFFFFA"/>
			<stop  offset="0.8061" style="stop-color:#FFFFFA"/>
			<stop  offset="0.8848" style="stop-color:#FFD27A"/>
			<stop  offset="0.9576" style="stop-color:#E39E45"/>
			<stop  offset="1" style="stop-color:#C78133"/>
		</linearGradient>
		<path id="path3905" inkscape:connector-curvature="0" fill="url(#path3905_1_)" stroke="#000000" stroke-width="5.4" d="
			M1199.7,945.6V374.4"/>
		
			<linearGradient id="path3907_1_" gradientUnits="userSpaceOnUse" x1="1764.459" y1="1005.3447" x2="1573.0658" y2="1005.3447" gradientTransform="matrix(1 0 0 -1 -566.1373 1663.1316)">
			<stop  offset="0" style="stop-color:#C77627"/>
			<stop  offset="4.850001e-002" style="stop-color:#E9A34A"/>
			<stop  offset="6.980000e-002" style="stop-color:#F0B663"/>
			<stop  offset="0.1006" style="stop-color:#F8CC82"/>
			<stop  offset="0.1269" style="stop-color:#FDDA94"/>
			<stop  offset="0.1455" style="stop-color:#FFDF9B"/>
			<stop  offset="0.1551" style="stop-color:#FFE1A2"/>
			<stop  offset="0.1692" style="stop-color:#FFE8B6"/>
			<stop  offset="0.1859" style="stop-color:#FEF2D6"/>
			<stop  offset="0.2" style="stop-color:#FEFDF6"/>
			<stop  offset="0.2303" style="stop-color:#FEFDF6"/>
			<stop  offset="0.244" style="stop-color:#FEF3D9"/>
			<stop  offset="0.2653" style="stop-color:#FFE6B3"/>
			<stop  offset="0.2849" style="stop-color:#FFDC98"/>
			<stop  offset="0.3021" style="stop-color:#FFD687"/>
			<stop  offset="0.3152" style="stop-color:#FFD481"/>
			<stop  offset="0.3406" style="stop-color:#FFD687"/>
			<stop  offset="0.375" style="stop-color:#FFDC98"/>
			<stop  offset="0.4145" style="stop-color:#FFE6B5"/>
			<stop  offset="0.4575" style="stop-color:#FEF4DC"/>
			<stop  offset="0.4826" style="stop-color:#FEFDF6"/>
			<stop  offset="0.491" style="stop-color:#FEF7E6"/>
			<stop  offset="0.5201" style="stop-color:#FEE4B6"/>
			<stop  offset="0.5477" style="stop-color:#FDD58F"/>
			<stop  offset="0.5731" style="stop-color:#FDCB74"/>
			<stop  offset="0.5953" style="stop-color:#FDC463"/>
			<stop  offset="0.6121" style="stop-color:#FDC25D"/>
			<stop  offset="0.6364" style="stop-color:#FFD484"/>
			<stop  offset="0.7273" style="stop-color:#FFFFFA"/>
			<stop  offset="0.8061" style="stop-color:#FFFFFA"/>
			<stop  offset="0.8848" style="stop-color:#FFD27A"/>
			<stop  offset="0.9576" style="stop-color:#E39E45"/>
			<stop  offset="1" style="stop-color:#C78133"/>
		</linearGradient>
		
			<path id="path3907" sodipodi:nodetypes="cc" inkscape:connector-curvature="0" fill="url(#path3907_1_)" stroke="#000000" stroke-width="5.4" d="
			M1006.9,941.2l191.4-566.9"/>
		
			<linearGradient id="path3909_1_" gradientUnits="userSpaceOnUse" x1="1958.6362" y1="1005.3447" x2="1767.243" y2="1005.3447" gradientTransform="matrix(1 0 0 -1 -566.1373 1663.1316)">
			<stop  offset="0" style="stop-color:#C77627"/>
			<stop  offset="4.850001e-002" style="stop-color:#E9A34A"/>
			<stop  offset="6.980000e-002" style="stop-color:#F0B663"/>
			<stop  offset="0.1006" style="stop-color:#F8CC82"/>
			<stop  offset="0.1269" style="stop-color:#FDDA94"/>
			<stop  offset="0.1455" style="stop-color:#FFDF9B"/>
			<stop  offset="0.1551" style="stop-color:#FFE1A2"/>
			<stop  offset="0.1692" style="stop-color:#FFE8B6"/>
			<stop  offset="0.1859" style="stop-color:#FEF2D6"/>
			<stop  offset="0.2" style="stop-color:#FEFDF6"/>
			<stop  offset="0.2303" style="stop-color:#FEFDF6"/>
			<stop  offset="0.244" style="stop-color:#FEF3D9"/>
			<stop  offset="0.2653" style="stop-color:#FFE6B3"/>
			<stop  offset="0.2849" style="stop-color:#FFDC98"/>
			<stop  offset="0.3021" style="stop-color:#FFD687"/>
			<stop  offset="0.3152" style="stop-color:#FFD481"/>
			<stop  offset="0.3406" style="stop-color:#FFD687"/>
			<stop  offset="0.375" style="stop-color:#FFDC98"/>
			<stop  offset="0.4145" style="stop-color:#FFE6B5"/>
			<stop  offset="0.4575" style="stop-color:#FEF4DC"/>
			<stop  offset="0.4826" style="stop-color:#FEFDF6"/>
			<stop  offset="0.491" style="stop-color:#FEF7E6"/>
			<stop  offset="0.5201" style="stop-color:#FEE4B6"/>
			<stop  offset="0.5477" style="stop-color:#FDD58F"/>
			<stop  offset="0.5731" style="stop-color:#FDCB74"/>
			<stop  offset="0.5953" style="stop-color:#FDC463"/>
			<stop  offset="0.6121" style="stop-color:#FDC25D"/>
			<stop  offset="0.6364" style="stop-color:#FFD484"/>
			<stop  offset="0.7273" style="stop-color:#FFFFFA"/>
			<stop  offset="0.8061" style="stop-color:#FFFFFA"/>
			<stop  offset="0.8848" style="stop-color:#FFD27A"/>
			<stop  offset="0.9576" style="stop-color:#E39E45"/>
			<stop  offset="1" style="stop-color:#C78133"/>
		</linearGradient>
		
			<path id="path3909" sodipodi:nodetypes="cc" inkscape:connector-curvature="0" fill="url(#path3909_1_)" stroke="#000000" stroke-width="5.4" d="
			M1392.5,941.2l-191.4-566.9"/>
		
			<linearGradient id="path3911_1_" gradientUnits="userSpaceOnUse" x1="1792.2468" y1="1316.115" x2="1739.4705" y2="1316.115" gradientTransform="matrix(1 0 0 -1 -566.1373 1663.1316)">
			<stop  offset="0" style="stop-color:#C77627"/>
			<stop  offset="4.850001e-002" style="stop-color:#E9A34A"/>
			<stop  offset="6.980000e-002" style="stop-color:#F0B663"/>
			<stop  offset="0.1006" style="stop-color:#F8CC82"/>
			<stop  offset="0.1269" style="stop-color:#FDDA94"/>
			<stop  offset="0.1455" style="stop-color:#FFDF9B"/>
			<stop  offset="0.1551" style="stop-color:#FFE1A2"/>
			<stop  offset="0.1692" style="stop-color:#FFE8B6"/>
			<stop  offset="0.1859" style="stop-color:#FEF2D6"/>
			<stop  offset="0.2" style="stop-color:#FEFDF6"/>
			<stop  offset="0.2303" style="stop-color:#FEFDF6"/>
			<stop  offset="0.244" style="stop-color:#FEF3D9"/>
			<stop  offset="0.2653" style="stop-color:#FFE6B3"/>
			<stop  offset="0.2849" style="stop-color:#FFDC98"/>
			<stop  offset="0.3021" style="stop-color:#FFD687"/>
			<stop  offset="0.3152" style="stop-color:#FFD481"/>
			<stop  offset="0.3406" style="stop-color:#FFD687"/>
			<stop  offset="0.375" style="stop-color:#FFDC98"/>
			<stop  offset="0.4145" style="stop-color:#FFE6B5"/>
			<stop  offset="0.4575" style="stop-color:#FEF4DC"/>
			<stop  offset="0.4826" style="stop-color:#FEFDF6"/>
			<stop  offset="0.491" style="stop-color:#FEF7E6"/>
			<stop  offset="0.5201" style="stop-color:#FEE4B6"/>
			<stop  offset="0.5477" style="stop-color:#FDD58F"/>
			<stop  offset="0.5731" style="stop-color:#FDCB74"/>
			<stop  offset="0.5953" style="stop-color:#FDC463"/>
			<stop  offset="0.6121" style="stop-color:#FDC25D"/>
			<stop  offset="0.6364" style="stop-color:#FFD484"/>
			<stop  offset="0.7273" style="stop-color:#FFFFFA"/>
			<stop  offset="0.8061" style="stop-color:#FFFFFA"/>
			<stop  offset="0.8848" style="stop-color:#FFD27A"/>
			<stop  offset="0.9576" style="stop-color:#E39E45"/>
			<stop  offset="1" style="stop-color:#C78133"/>
		</linearGradient>
		<path id="path3911" inkscape:connector-curvature="0" fill="url(#path3911_1_)" d="M1204.9,316.2c11.7,0,21.2,13.8,21.2,30.8
			c0,17-9.5,30.8-21.2,30.8c-1.8,0-3.5-0.4-5.2-1c9.1-3.4,15.9-15.5,15.9-29.8c0-14.4-6.7-26.4-15.9-29.8
			C1201.4,316.6,1203.1,316.2,1204.9,316.2L1204.9,316.2L1204.9,316.2L1204.9,316.2z M1199.7,317.2c-9.2,3.4-15.9,15.4-15.9,29.8
			c0,14.4,6.8,26.4,15.9,29.8c-1.7,0.6-3.5,1-5.3,1c-11.7,0-21.1-13.8-21.1-30.8c0-17,9.4-30.8,21.1-30.8
			C1196.3,316.2,1198.1,316.6,1199.7,317.2L1199.7,317.2L1199.7,317.2L1199.7,317.2z"/>
		
			<linearGradient id="path3913_1_" gradientUnits="userSpaceOnUse" x1="1794.5837" y1="1370.9247" x2="1742.7476" y2="1370.9247" gradientTransform="matrix(1 0 0 -1 -566.1373 1663.1316)">
			<stop  offset="0" style="stop-color:#C77627"/>
			<stop  offset="4.850001e-002" style="stop-color:#E9A34A"/>
			<stop  offset="6.980000e-002" style="stop-color:#F0B663"/>
			<stop  offset="0.1006" style="stop-color:#F8CC82"/>
			<stop  offset="0.1269" style="stop-color:#FDDA94"/>
			<stop  offset="0.1455" style="stop-color:#FFDF9B"/>
			<stop  offset="0.1551" style="stop-color:#FFE1A2"/>
			<stop  offset="0.1692" style="stop-color:#FFE8B6"/>
			<stop  offset="0.1859" style="stop-color:#FEF2D6"/>
			<stop  offset="0.2" style="stop-color:#FEFDF6"/>
			<stop  offset="0.2303" style="stop-color:#FEFDF6"/>
			<stop  offset="0.244" style="stop-color:#FEF3D9"/>
			<stop  offset="0.2653" style="stop-color:#FFE6B3"/>
			<stop  offset="0.2849" style="stop-color:#FFDC98"/>
			<stop  offset="0.3021" style="stop-color:#FFD687"/>
			<stop  offset="0.3152" style="stop-color:#FFD481"/>
			<stop  offset="0.3406" style="stop-color:#FFD687"/>
			<stop  offset="0.375" style="stop-color:#FFDC98"/>
			<stop  offset="0.4145" style="stop-color:#FFE6B5"/>
			<stop  offset="0.4575" style="stop-color:#FEF4DC"/>
			<stop  offset="0.4826" style="stop-color:#FEFDF6"/>
			<stop  offset="0.491" style="stop-color:#FEF7E6"/>
			<stop  offset="0.5201" style="stop-color:#FEE4B6"/>
			<stop  offset="0.5477" style="stop-color:#FDD58F"/>
			<stop  offset="0.5731" style="stop-color:#FDCB74"/>
			<stop  offset="0.5953" style="stop-color:#FDC463"/>
			<stop  offset="0.6121" style="stop-color:#FDC25D"/>
			<stop  offset="0.6364" style="stop-color:#FFD484"/>
			<stop  offset="0.7273" style="stop-color:#FFFFFA"/>
			<stop  offset="0.8061" style="stop-color:#FFFFFA"/>
			<stop  offset="0.8848" style="stop-color:#FFD27A"/>
			<stop  offset="0.9576" style="stop-color:#E39E45"/>
			<stop  offset="1" style="stop-color:#C78133"/>
		</linearGradient>
		<path id="path3913" sodipodi:nodetypes="sscsssss" inkscape:connector-curvature="0" fill="url(#path3913_1_)" d="M1203.4,250.6
			c5.8,2.5,5.4,21.3,1.5,31.1c-4.3,10.7-22,26.5-0.6,36.3c19.7,3,19.3-30.4,23.7-12.8c3.2,12.9-11.8,28.6-26.4,28.6
			c-14.6,0-25-10.6-25-26.4c0-9.4,6.6-18.3,15.2-28C1201.5,268.5,1200.4,249.3,1203.4,250.6L1203.4,250.6L1203.4,250.6L1203.4,250.6
			z"/>
	</g>
</g>
</svg>
