<?xml version="1.0" encoding="UTF-8" standalone="no"?>
<!-- Created with Inkscape (http://www.inkscape.org/) -->

<svg
   xmlns:dc="http://purl.org/dc/elements/1.1/"
   xmlns:cc="http://creativecommons.org/ns#"
   xmlns:rdf="http://www.w3.org/1999/02/22-rdf-syntax-ns#"
   xmlns:svg="http://www.w3.org/2000/svg"
   xmlns="http://www.w3.org/2000/svg"
   xmlns:sodipodi="http://sodipodi.sourceforge.net/DTD/sodipodi-0.dtd"
   xmlns:inkscape="http://www.inkscape.org/namespaces/inkscape"
   width="744.09448819"
   height="1052.3622047"
   id="svg2"
   version="1.1"
   inkscape:version="0.48.3.1 r9886"
   sodipodi:docname="cookie_cruch.svg">
  <defs
     id="defs4" />
  <sodipodi:namedview
     id="base"
     pagecolor="#ffffff"
     bordercolor="#666666"
     borderopacity="1.0"
     inkscape:pageopacity="0.0"
     inkscape:pageshadow="2"
     inkscape:zoom="0.35"
     inkscape:cx="934.19234"
     inkscape:cy="557.76772"
     inkscape:document-units="px"
     inkscape:current-layer="layer1"
     showgrid="false"
     inkscape:window-width="1366"
     inkscape:window-height="664"
     inkscape:window-x="-8"
     inkscape:window-y="1016"
     inkscape:window-maximized="1"
     showguides="true"
     inkscape:guide-bbox="true" />
  <metadata
     id="metadata7">
    <rdf:RDF>
      <cc:Work
         rdf:about="">
        <dc:format>image/svg+xml</dc:format>
        <dc:type
           rdf:resource="http://purl.org/dc/dcmitype/StillImage" />
        <dc:title></dc:title>
      </cc:Work>
    </rdf:RDF>
  </metadata>
  <g
     inkscape:label="Layer 1"
     inkscape:groupmode="layer"
     id="layer1">
    <rect
       style="fill:#cccccc;fill-opacity:1;fill-rule:nonzero;stroke:none"
       id="rect3026"
       width="592.90936"
       height="985.50037"
       x="78.519173"
       y="32.362179"
       inkscape:export-filename="C:\Users\iie\Desktop\cookie_priest.png"
       inkscape:export-xdpi="113"
       inkscape:export-ydpi="113" />
    <g
       id="g3325"
       transform="translate(-228.78002,-387.15051)"
       inkscape:export-filename="C:\Users\iie\Desktop\cookie_priest.png"
       inkscape:export-xdpi="113"
       inkscape:export-ydpi="113">
      <path
         inkscape:connector-curvature="0"
         id="path3209"
         d="m 377.14286,788.79076 13.57143,-12.85715 15.71428,-2.14285 13.57143,12.14285 -7.85714,51.42857 -6.42857,0.71429 8.57143,-45.71429 L 400,780.93361 l -18.57143,10 7.14286,46.42857 -6.42857,2.85715 z"
         style="fill:#ffeeaa;fill-opacity:1;stroke:none" />
      <path
         sodipodi:nodetypes="ccccccc"
         inkscape:connector-curvature="0"
         id="path3215"
         d="m 381.33259,859.42305 -1.13271,67.0272 23.35606,4.18855 21.71828,-7.07107 -6.56599,-68.69037 -16.60617,8.08059 z"
         style="opacity:0.5;fill:#9955ff;stroke:none" />
      <path
         inkscape:connector-curvature="0"
         id="path3211"
         d="m 378.8072,838.20984 12.12184,-8.58629 15.15228,-2.02031 11.11168,7.57615 4.54569,20.70812 -20.20305,7.57615 -23.73859,-3.53554 z"
         style="fill:#ffeeaa;fill-opacity:1;stroke:none" />
      <path
         sodipodi:nodetypes="ccccccc"
         inkscape:connector-curvature="0"
         id="path3213"
         d="m 379.31228,922.55758 21.2132,4.54569 26.26397,-9.09138 4.69888,18.02956 -27.93239,12.27502 -28.78935,-6.56599 z"
         style="fill:#ffe680;fill-opacity:1;stroke:none" />
      <path
         inkscape:connector-curvature="0"
         id="path3259"
         d="m 392.6968,919.77966 -8.33376,-36.61803 9.84899,-16.41498 9.09137,2.52538 4.04061,-4.79822 3.03046,14.39467 9.09137,25.00128 z"
         style="fill:#aa00d4;stroke:none" />
      <path
         inkscape:connector-curvature="0"
         id="path3257"
         d="m 396.73741,875.33295 -5.55584,15.9099 7.32361,24.24366 15.15229,-14.14213 -9.59645,-21.71828 1.51523,-7.57615 -8.33376,4.54569 z"
         style="fill:#d42aff;stroke:none" />
      <path
         inkscape:connector-curvature="0"
         id="path3255"
         d="m 400.27295,885.68701 -3.78808,9.59645 3.283,11.61676 7.32361,-13.8896 -8.08122,-7.82868 z"
         style="fill:#e580ff;stroke:none" />
      <path
         inkscape:connector-curvature="0"
         id="path3261"
         d="m 377.67857,850.21933 19.10715,5 22.67857,-7.32143 -1.78572,-12.14286 -11.96428,-8.57143 -15.71429,2.5 -11.78571,8.39286 z"
         style="fill:#ffe680;stroke:none" />
    </g>
    <path
       style="fill:#0b2822;fill-opacity:1;stroke:none"
       d="m 307.61098,329.84103 c -11.71575,17.09608 7.14868,49.2255 7.47205,102.51255 l 0.32618,53.75017 7.10159,16.25012 11.61668,-7.3529 60.86169,-95.9645 -41.41625,-122.22845 z"
       id="path3199"
       inkscape:connector-curvature="0"
       sodipodi:nodetypes="cscccccc"
       inkscape:export-filename="C:\Users\iie\Desktop\cookie_priest.png"
       inkscape:export-xdpi="113"
       inkscape:export-ydpi="113" />
    <path
       style="fill:#1a1a1a;stroke:none"
       d="m 488.57589,463.79464 -40.59375,58.59375 52.8961,173.91165 7.20701,55.17418 34.39689,97.78912 3.84375,28.4688 -3.84375,35.4688 -2.03125,10.0937 38.375,14.1563 29.8125,-19.1876 -16.65625,-27.2812 -13.15625,-23.25 -1.3125,-0.031 -9.96875,-22.1563 -10.75,-100.82122 -14.67656,-61.8796 -10.47969,-191.20543 z m -112.875,1.4375 c -15.33826,81.15689 -12.41656,155.11467 -28.44161,227.50731 l -0.11502,30.61179 3.09234,126.0059 -42.1875,33.5312 -38.37499,13.1563 -8.09375,10.0937 87.90624,2 8.0625,-3 29.3125,1 8.0625,-23.25 -14.75,-37.7812 17.05393,-97.06884 -6.03791,-49.57186 55.10452,-170.70305 z"
       id="path3065"
       inkscape:connector-curvature="0"
       sodipodi:nodetypes="cccccccccccccccccccccccccccccccccc"
       inkscape:export-filename="C:\Users\iie\Desktop\cookie_priest.png"
       inkscape:export-xdpi="113"
       inkscape:export-ydpi="113" />
    <path
       style="fill:#ffe6d5;fill-opacity:1;stroke:none"
       d="m 153.32907,418.61545 -6.97749,-48.2642 28.12414,-5.8464 28.57842,16.45132 2.9954,26.29887 z"
       id="path3082-7"
       inkscape:connector-curvature="0"
       sodipodi:nodetypes="cccccc"
       inkscape:export-filename="C:\Users\iie\Desktop\cookie_priest.png"
       inkscape:export-xdpi="113"
       inkscape:export-ydpi="113" />
    <path
       style="fill:#1a1a1a;fill-opacity:1;stroke:none"
       d="m 373.57143,230.93361 -77.14286,128.57143 -97.84843,10 -4.28572,44.28572 L 305,400.93361 400.71428,293.79076 z"
       id="path3090"
       inkscape:connector-curvature="0"
       sodipodi:nodetypes="ccccccc"
       inkscape:export-filename="C:\Users\iie\Desktop\cookie_priest.png"
       inkscape:export-xdpi="113"
       inkscape:export-ydpi="113" />
    <path
       style="fill:#ececec;fill-opacity:1;stroke:none"
       d="m 400.71428,194.50504 82.85715,-9.28572 -4.28572,37.14286 -42.85714,32.14286 -37.85714,-35 z"
       id="path3017"
       inkscape:connector-curvature="0"
       inkscape:export-filename="C:\Users\iie\Desktop\cookie_priest.png"
       inkscape:export-xdpi="113"
       inkscape:export-ydpi="113" />
    <path
       style="fill:#ffe6d5;stroke:none"
       d="m 430.71428,194.50504 -2.14285,34.28571 -2.85715,5.71429 15,5.71428 31.42857,-8.57143 4.28572,-12.14285 -7.14286,-7.85715 -7.85714,-28.57143 z"
       id="path3011"
       inkscape:connector-curvature="0"
       inkscape:export-filename="C:\Users\iie\Desktop\cookie_priest.png"
       inkscape:export-xdpi="113"
       inkscape:export-ydpi="113" />
    <path
       style="fill:#ffe6d5;fill-opacity:1;stroke:none"
       d="m 565.80648,518.65289 -2.0203,26.26397 7.07106,11.11168 -3.03045,6.06091 8.08122,4.04061 21.2132,-14.14213 -9.09137,-40.40611 z"
       id="path3056"
       inkscape:connector-curvature="0"
       inkscape:export-filename="C:\Users\iie\Desktop\cookie_priest.png"
       inkscape:export-xdpi="113"
       inkscape:export-ydpi="113" />
    <path
       style="fill:#1a1a1a;fill-opacity:1;stroke:none"
       d="m 533.30803,238.6741 -31.3125,23.21875 10.09375,42.4375 38.5,95.6875 7.31696,132.75446 48.80358,12.69643 -25.58929,-163.23214 1.6875,-1.125 -2.9375,-8.5 -0.0937,-0.59375 -0.0937,0.0937 z"
       id="path3052"
       inkscape:connector-curvature="0"
       sodipodi:nodetypes="cccccccccccc"
       inkscape:export-filename="C:\Users\iie\Desktop\cookie_priest.png"
       inkscape:export-xdpi="113"
       inkscape:export-ydpi="113" />
    <path
       style="fill:#165044;fill-opacity:1;stroke:none"
       d="m 541.46129,232.3613 53.53809,154.55334 -41.41626,92.93403 -3.03045,33.33505 -67.68022,-220.21326 c 18.92847,-20.50362 0.23095,-59.82024 58.58884,-60.60916 z"
       id="path3201"
       inkscape:connector-curvature="0"
       sodipodi:nodetypes="cccccc"
       inkscape:export-filename="C:\Users\iie\Desktop\cookie_priest.png"
       inkscape:export-xdpi="113"
       inkscape:export-ydpi="113" />
    <path
       style="fill:#165044;stroke:none"
       d="M 351.42857,564.50504 310,761.64789 428.57143,802.36214 593.57142,774.50504 541.42857,547.36218 z"
       id="path3189"
       inkscape:connector-curvature="0"
       sodipodi:nodetypes="cccccc"
       inkscape:export-filename="C:\Users\iie\Desktop\cookie_priest.png"
       inkscape:export-xdpi="113"
       inkscape:export-ydpi="113" />
    <path
       style="fill:#165044;fill-opacity:1;stroke:none"
       d="m 357.61353,230.341 -44.17228,89.28439 -7.85058,8.70041 20.81869,64.84975 7.97066,72.53099 c -0.0807,11.02865 3.28634,20.08884 -0.8226,29.77475 l 55.37084,-57.04887 5.05076,-158.59395 z"
       id="path3197"
       inkscape:connector-curvature="0"
       sodipodi:nodetypes="ccccccccc"
       inkscape:export-filename="C:\Users\iie\Desktop\cookie_priest.png"
       inkscape:export-xdpi="113"
       inkscape:export-ydpi="113" />
    <path
       style="fill:#008080;stroke:none"
       d="m 336.60804,227.32629 37.87643,0.88846 32.65838,-18.70971 25.71429,48.57143 31.42857,-50 53.71509,19.57732 62.39043,-3.61793 -52.15157,43.91189 -4.56285,139.03031 34.89462,169.66983 -61.94666,33.80361 -12.64109,159.37084 -54.43208,6.8067 -43.12308,-16.33262 -11.41819,-149.69739 -30.72462,-39.66542 27.52323,-155.64327 -5.43113,-159.06087 z"
       id="path2985"
       inkscape:connector-curvature="0"
       sodipodi:nodetypes="ccccccccccccccccccc"
       inkscape:export-filename="C:\Users\iie\Desktop\cookie_priest.png"
       inkscape:export-xdpi="113"
       inkscape:export-ydpi="113" />
    <path
       style="fill:#ffffff;stroke:none"
       d="m 384.88765,222.25978 -8.43748,187.94466 -29.42837,195.14769 52.03772,34.15502 0.93005,-245.51504 14.1925,-163.1054 z"
       id="path2989"
       inkscape:connector-curvature="0"
       sodipodi:nodetypes="ccccccc"
       inkscape:export-filename="C:\Users\iie\Desktop\cookie_priest.png"
       inkscape:export-xdpi="113"
       inkscape:export-ydpi="113" />
    <path
       style="fill:#ffffff;stroke:none"
       d="m 468.73031,222.25977 -2.81601,177.59804 -9.89756,247.61614 81.40394,-48.90517 -26.31433,-199.52592 4.09097,-168.15616 z"
       id="path2989-1"
       inkscape:connector-curvature="0"
       sodipodi:nodetypes="ccccccc"
       inkscape:export-filename="C:\Users\iie\Desktop\cookie_priest.png"
       inkscape:export-xdpi="113"
       inkscape:export-ydpi="113" />
    <path
       style="fill:#ffeeaa;fill-opacity:1;stroke:none"
       d="m 425.29376,279.3334 15.40482,-0.25254 -4.29315,15.15229 -7.3236,0 z"
       id="path3030"
       inkscape:connector-curvature="0"
       inkscape:export-filename="C:\Users\iie\Desktop\cookie_priest.png"
       inkscape:export-xdpi="113"
       inkscape:export-ydpi="113" />
    <path
       style="fill:#ffeeaa;stroke:none"
       d="m 387.41303,215.44125 8.08122,30.05204 16.92006,25.75889 16.92005,13.13198 25.50635,-7.07107 25.75889,-27.02158 17.1726,-34.34519 -1.76777,-2.52538 -3.283,0.75762 -14.64721,31.56726 -27.02158,28.28428 -20.20305,4.54568 -19.44544,-15.65736 -17.9302,-35.1028 -1.76777,-14.89975 -3.02624,-0.61155 z"
       id="path3028"
       inkscape:connector-curvature="0"
       sodipodi:nodetypes="ccccccccccccccccc"
       inkscape:export-filename="C:\Users\iie\Desktop\cookie_priest.png"
       inkscape:export-xdpi="113"
       inkscape:export-ydpi="113" />
    <path
       style="fill:#ffeeaa;fill-opacity:1;stroke:none"
       d="M 428.82929,294.73823 413.677,324.03265 c 13.98182,10.26997 30.63868,8.6324 40.65864,0.25254 l -17.67767,-30.55712 z"
       id="path3032"
       inkscape:connector-curvature="0"
       sodipodi:nodetypes="ccccc"
       inkscape:export-filename="C:\Users\iie\Desktop\cookie_priest.png"
       inkscape:export-xdpi="113"
       inkscape:export-ydpi="113" />
    <path
       style="fill:#e6e6e6;stroke:none"
       d="m 412.41431,171.75215 -6.69227,-13.13198 5.68211,1.01015 -5.17703,-14.89975 5.93465,1.76777 3.28299,-11.8693 2.77792,6.06092 9.84899,-15.9099 0.25254,8.58629 26.76904,-14.39467 -2.77792,9.09137 25.75889,-1.76776 -6.81853,11.86929 10.35407,5.80838 z"
       id="path3050"
       inkscape:connector-curvature="0"
       sodipodi:nodetypes="ccccccccccccccc"
       inkscape:export-filename="C:\Users\iie\Desktop\cookie_priest.png"
       inkscape:export-xdpi="113"
       inkscape:export-ydpi="113" />
    <path
       style="fill:#ffe6d5;stroke:none"
       d="m 426.42857,136.64789 -12.85714,17.14286 -2.14286,29.28571 4.28571,26.42858 25.71429,-0.71429 24.28571,-20 10,-17.14286 -2.85714,-32.85714 -21.42857,-12.14286 z"
       id="path3009"
       inkscape:connector-curvature="0"
       inkscape:export-filename="C:\Users\iie\Desktop\cookie_priest.png"
       inkscape:export-xdpi="113"
       inkscape:export-ydpi="113" />
    <path
       style="fill:#ffccaa;stroke:none"
       d="m 456.98729,169.73185 c -0.63135,0 -14.14214,8.83883 -14.14214,8.83883 l -9.84899,0.88388 7.82869,6.56599 21.71828,-17.80393 z"
       id="path3048"
       inkscape:connector-curvature="0"
       inkscape:export-filename="C:\Users\iie\Desktop\cookie_priest.png"
       inkscape:export-xdpi="113"
       inkscape:export-ydpi="113" />
    <path
       style="fill:#f2f2f2;stroke:none"
       d="m 387.14285,217.36218 21.42858,33.57143 40,15.71428 25.71428,-27.14285 L 490,210.93361 l -5.71429,-27.14286 -27.14286,25.71429 -41.42857,2.85714 -17.14285,-21.42857 z"
       id="path2987"
       inkscape:connector-curvature="0"
       sodipodi:nodetypes="cccccccccc"
       inkscape:export-filename="C:\Users\iie\Desktop\cookie_priest.png"
       inkscape:export-xdpi="113"
       inkscape:export-ydpi="113" />
    <path
       style="fill:#e6e6e6;fill-opacity:1;stroke:none"
       d="m 458.39285,156.29075 -7.85714,12.5 -1.07143,12.5 2.5,-2.5 -1.78572,10.35714 20,-15 z"
       id="path3207"
       inkscape:connector-curvature="0"
       inkscape:export-filename="C:\Users\iie\Desktop\cookie_priest.png"
       inkscape:export-xdpi="113"
       inkscape:export-ydpi="113" />
    <path
       style="fill:#ffffff;stroke:none"
       d="m 413.21428,156.64789 0.35715,-12.5 1.42857,2.14286 7.14285,-18.92857 0.35715,6.78571 21.42857,-17.14285 -4.64286,8.92857 31.42857,-6.42857 -10.35714,6.78571 25.35714,4.28571 -8.57143,3.21429 23.92858,5.71429 -13.57143,7.14285 9.64285,2.85715 -15.71428,8.21428 7.85714,0.71429 -8.57143,8.92857 5.71429,1.78571 -21.07143,15.35715 -2.85714,3.21428 0,-14.28571 -3.57143,5.71428 0.35714,-10 -6.78571,3.57143 5.71428,-18.57143 -0.71428,-7.85714 -5,1.42857 -1.07143,-5.35714 -18.21429,10.71428 z"
       id="path3024"
       inkscape:connector-curvature="0"
       inkscape:export-filename="C:\Users\iie\Desktop\cookie_priest.png"
       inkscape:export-xdpi="113"
       inkscape:export-ydpi="113" />
    <path
       style="fill:#333333;stroke:none"
       d="m 441.2933,901.74334 -22.25,3.5312 -16.15625,-2 -17.96875,49.0938 -33.03125,-1.125 -48.50002,-5.0625 8.09375,11.125 29.28126,22.7187 56.59376,12.4688 68.15625,-6.4063 59.375,-12.8437 40.125,-18.9688 -41.9375,4.8438 -67.65625,-4.3438 -8.59375,-0.2812 -5.53125,-52.75 z"
       id="path3013"
       inkscape:connector-curvature="0"
       inkscape:export-filename="C:\Users\iie\Desktop\cookie_priest.png"
       inkscape:export-xdpi="113"
       inkscape:export-ydpi="113" />
    <path
       style="fill:#ffffff;stroke:none"
       d="m 307.2995,876.67334 48.92857,13.5714 4.64286,-3.5714 -24.64286,-37.1429 z"
       id="path3191"
       inkscape:connector-curvature="0"
       inkscape:export-filename="C:\Users\iie\Desktop\cookie_priest.png"
       inkscape:export-xdpi="113"
       inkscape:export-ydpi="113" />
    <path
       style="fill:#ffffff;stroke:none"
       d="m 543.22906,877.09114 9.59645,-9.0913 20.70813,-3.7881 7.57614,2.5254 11.11168,23.2335 c 0,0 -9.34391,8.0812 -10.35406,8.0812 -1.01016,0 -25.50636,3.283 -25.50636,3.283 l -12.87944,-3.7881 z"
       id="path3193"
       inkscape:connector-curvature="0"
       inkscape:export-filename="C:\Users\iie\Desktop\cookie_priest.png"
       inkscape:export-xdpi="113"
       inkscape:export-ydpi="113" />
    <path
       style="fill:#ffeeaa;fill-opacity:1;stroke:none"
       d="m 360,470.93361 88.57143,45.71428 95.71428,-34.28571 -2.85714,-14.28571 -94.28572,35.71428 -84.28571,-48.57143 z"
       id="path3263"
       inkscape:connector-curvature="0"
       inkscape:export-filename="C:\Users\iie\Desktop\cookie_priest.png"
       inkscape:export-xdpi="113"
       inkscape:export-ydpi="113" />
    <path
       style="fill:#ffeeaa;fill-opacity:1;stroke:none"
       d="m 476.81153,504.34488 5.05076,43.94163 0.50508,-46.97209 z"
       id="path3267"
       inkscape:connector-curvature="0"
       inkscape:export-filename="C:\Users\iie\Desktop\cookie_priest.png"
       inkscape:export-xdpi="113"
       inkscape:export-ydpi="113" />
    <path
       style="fill:#f2f2f2;fill-opacity:1;stroke:none"
       d="m 433.57143,255.21932 -5,224.28572 64.12726,40.41225 -19.12726,-294.69797 z"
       id="path3019"
       inkscape:connector-curvature="0"
       sodipodi:nodetypes="ccccc"
       inkscape:export-filename="C:\Users\iie\Desktop\cookie_priest.png"
       inkscape:export-xdpi="113"
       inkscape:export-ydpi="113" />
    <path
       style="fill:#f2f2f2;fill-opacity:1;stroke:none"
       d="m 460,223.79075 16.42857,228.57143 35,-25 -28.57143,-214.28572 z"
       id="path3021"
       inkscape:connector-curvature="0"
       sodipodi:nodetypes="ccccc"
       inkscape:export-filename="C:\Users\iie\Desktop\cookie_priest.png"
       inkscape:export-xdpi="113"
       inkscape:export-ydpi="113" />
    <path
       style="fill:#cccccc;stroke:none"
       d="m 462.14285,261.64789 20,180 L 485,435.93361 468.57143,266.64789 z"
       id="path3205"
       inkscape:connector-curvature="0"
       sodipodi:nodetypes="ccccc"
       inkscape:export-filename="C:\Users\iie\Desktop\cookie_priest.png"
       inkscape:export-xdpi="113"
       inkscape:export-ydpi="113" />
    <path
       style="fill:#ffeeaa;fill-opacity:1;stroke:none"
       d="m 395.99933,486.91975 -1.01016,44.95178 7.07107,-40.91117 z"
       id="path3265"
       inkscape:connector-curvature="0"
       inkscape:export-filename="C:\Users\iie\Desktop\cookie_priest.png"
       inkscape:export-xdpi="113"
       inkscape:export-ydpi="113" />
    <path
       style="fill:#ffeeaa;fill-opacity:1;stroke:none"
       d="m 517.72271,485.65706 4.54568,49.49747 3.53554,-52.52793 z"
       id="path3269"
       inkscape:connector-curvature="0"
       inkscape:export-filename="C:\Users\iie\Desktop\cookie_priest.png"
       inkscape:export-xdpi="113"
       inkscape:export-ydpi="113" />
    <path
       style="fill:#ffeeaa;fill-opacity:1;stroke:none"
       d="m 523.27855,530.60884 -4.54569,8.08122 7.07107,5.05077 3.53553,-9.59645 z"
       id="path3271"
       inkscape:connector-curvature="0"
       inkscape:export-filename="C:\Users\iie\Desktop\cookie_priest.png"
       inkscape:export-xdpi="113"
       inkscape:export-ydpi="113" />
    <path
       style="fill:#ffeeaa;fill-opacity:1;stroke:none"
       d="m 480.85214,546.26621 -3.03046,7.57614 4.54569,4.54569 5.05076,-9.59645 z"
       id="path3273"
       inkscape:connector-curvature="0"
       inkscape:export-filename="C:\Users\iie\Desktop\cookie_priest.png"
       inkscape:export-xdpi="113"
       inkscape:export-ydpi="113" />
    <path
       style="fill:#ffeeaa;fill-opacity:1;stroke:none"
       d="m 392.46379,530.3563 -3.53553,5.05077 3.53553,6.56599 6.56599,-9.09137 z"
       id="path3275"
       inkscape:connector-curvature="0"
       inkscape:export-filename="C:\Users\iie\Desktop\cookie_priest.png"
       inkscape:export-xdpi="113"
       inkscape:export-ydpi="113" />
    <path
       style="fill:#ffeeaa;fill-opacity:1;stroke:none"
       d="m 370.66991,471.62124 -0.98269,42.03566 6.87877,-38.25717 z"
       id="path3265-9"
       inkscape:connector-curvature="0"
       inkscape:export-filename="C:\Users\iie\Desktop\cookie_priest.png"
       inkscape:export-xdpi="113"
       inkscape:export-ydpi="113" />
    <path
       style="fill:#ffeeaa;fill-opacity:1;stroke:none"
       d="m 367.23053,512.23997 -3.43938,4.72311 3.43938,6.14004 6.38741,-8.50159 z"
       id="path3275-4"
       inkscape:connector-curvature="0"
       inkscape:export-filename="C:\Users\iie\Desktop\cookie_priest.png"
       inkscape:export-xdpi="113"
       inkscape:export-ydpi="113" />
    <g
       id="g3311"
       transform="matrix(0.49224817,-0.8704549,0.8704549,0.49224817,-36.732957,992.28684)"
       inkscape:export-filename="C:\Users\iie\Desktop\cookie_priest.png"
       inkscape:export-xdpi="113"
       inkscape:export-ydpi="113">
      <path
         sodipodi:nodetypes="ccccccscccc"
         inkscape:connector-curvature="0"
         id="path3298"
         d="m 231.4671,390.61673 5.35714,0.71429 18.8707,-2.23784 16.48645,-10.26216 6.07142,41.78571 -8.92857,22.14286 c -10.09726,1.17263 -16.95044,9.0314 -24.58519,10.37408 l -10.05766,1.76877 -6.78572,-25 -2.61137,-13.96326 z"
         style="fill:#e6e6e6;stroke:none" />
      <path
         sodipodi:nodetypes="cccc"
         inkscape:connector-curvature="0"
         id="path3302"
         d="m 244.32424,415.34887 20.71429,-5.44643 -12.94643,10.71429 z"
         style="fill:#1a1a1a;stroke:none" />
      <path
         inkscape:connector-curvature="0"
         id="path3304"
         d="m 232.0686,438.16544 15.06123,0.2834 3.07582,2.22007 -17.84855,0.16699 z"
         style="fill:#1a1a1a;fill-opacity:1;stroke:none" />
      <path
         sodipodi:nodetypes="cccc"
         inkscape:connector-curvature="0"
         id="path3306"
         d="m 226.78571,415.75504 6.78571,0.98214 -4.55356,4.01786 z"
         style="fill:#1a1a1a;fill-opacity:1;stroke:none" />
    </g>
    <path
       style="fill:#ffffff;fill-opacity:1;stroke:none"
       d="m 414.81342,204.2033 -1.38896,9.34391 -1.01015,3.53553 21.97082,-4.92449 5.80838,-4.67196 -4.9245,1.01015 1.51523,-5.6821 -7.95495,3.28299 -1.01015,-3.15672 -5.30331,1.38895 -3.6618,-4.41941 -2.14657,3.53554 -2.39911,-3.40928 z"
       id="path3317"
       inkscape:connector-curvature="0"
       sodipodi:nodetypes="cccccccccccccc"
       inkscape:export-filename="C:\Users\iie\Desktop\cookie_priest.png"
       inkscape:export-xdpi="113"
       inkscape:export-ydpi="113" />
    <path
       style="fill:#ffffff;fill-opacity:1;stroke:none"
       d="m 420.11672,175.03515 1.89404,-6.81854 1.51522,3.40927 1.89404,-2.52538 1.64149,2.39911 9.849,-2.27284 5.42957,3.15673 -7.57615,-0.75762 z"
       id="path3319"
       inkscape:connector-curvature="0"
       sodipodi:nodetypes="ccccccccc"
       inkscape:export-filename="C:\Users\iie\Desktop\cookie_priest.png"
       inkscape:export-xdpi="113"
       inkscape:export-ydpi="113" />
    <path
       style="fill:#ffffff;fill-opacity:1;stroke:none"
       d="m 414.56088,174.27753 -2.65165,-6.06091 0.12627,4.54568 -2.52538,-0.50507 4.04061,3.15672 z"
       id="path3321"
       inkscape:connector-curvature="0"
       sodipodi:nodetypes="cccccc"
       inkscape:export-filename="C:\Users\iie\Desktop\cookie_priest.png"
       inkscape:export-xdpi="113"
       inkscape:export-ydpi="113" />
    <path
       style="fill:#666666;stroke:none"
       d="m 580.70089,557.54464 -33.5625,12.84375 28.9375,-5.03125 36.09375,327.6562 -21.875,-328.0312 35.40625,1.125 -45,-8.5625 z"
       id="path3335"
       inkscape:export-filename="C:\Users\iie\Desktop\cookie_priest.png"
       inkscape:export-xdpi="113"
       inkscape:export-ydpi="113"
       inkscape:connector-curvature="0" />
  </g>
</svg>
