<?xml version="1.0" encoding="UTF-8" standalone="no"?>
<!-- Created with Inkscape (http://www.inkscape.org/) -->

<svg
   xmlns:dc="http://purl.org/dc/elements/1.1/"
   xmlns:cc="http://creativecommons.org/ns#"
   xmlns:rdf="http://www.w3.org/1999/02/22-rdf-syntax-ns#"
   xmlns:svg="http://www.w3.org/2000/svg"
   xmlns="http://www.w3.org/2000/svg"
   xmlns:sodipodi="http://sodipodi.sourceforge.net/DTD/sodipodi-0.dtd"
   xmlns:inkscape="http://www.inkscape.org/namespaces/inkscape"
   id="svg2"
   version="1.1"
   inkscape:version="0.91 r13725"
   xml:space="preserve"
   width="1727.5"
   height="1727.5"
   viewBox="0 0 1727.5 1727.5"
   sodipodi:docname="STOP Hammer Time 1.svg"><metadata
     id="metadata8"><rdf:RDF><cc:Work
         rdf:about=""><dc:format>image/svg+xml</dc:format><dc:type
           rdf:resource="http://purl.org/dc/dcmitype/StillImage" /><dc:title></dc:title></cc:Work></rdf:RDF></metadata><defs
     id="defs6"><clipPath
       clipPathUnits="userSpaceOnUse"
       id="clipPath272"><path
         d="m 0,1382 1382,0 L 1382,0 0,0 0,1382 Z"
         id="path274"
         inkscape:connector-curvature="0" /></clipPath><clipPath
       clipPathUnits="userSpaceOnUse"
       id="clipPath352"><path
         d="m 687.54,702.12 351.77,0 0,-207.23 -351.77,0 0,207.23 z"
         id="path354"
         inkscape:connector-curvature="0" /></clipPath><radialGradient
       fx="0"
       fy="0"
       cx="0"
       cy="0"
       r="1"
       gradientUnits="userSpaceOnUse"
       gradientTransform="matrix(9.9998016,0,0,-9.9998016,693.60138,695.46313)"
       spreadMethod="pad"
       id="radialGradient376"><stop
         style="stop-opacity:1;stop-color:#ffffff"
         offset="0"
         id="stop378" /><stop
         style="stop-opacity:1;stop-color:#231f20"
         offset="1"
         id="stop380" /></radialGradient></defs><sodipodi:namedview
     pagecolor="#ffffff"
     bordercolor="#666666"
     borderopacity="1"
     objecttolerance="10"
     gridtolerance="10"
     guidetolerance="10"
     inkscape:pageopacity="0"
     inkscape:pageshadow="2"
     inkscape:window-width="640"
     inkscape:window-height="480"
     id="namedview4"
     showgrid="false"
     inkscape:zoom="0.75716353"
     inkscape:cx="740.70305"
     inkscape:cy="863.97012"
     inkscape:current-layer="g10" /><g
     id="g10"
     inkscape:groupmode="layer"
     inkscape:label="STOP Hammer Time 1"
     transform="matrix(1.25,0,0,-1.25,0,1727.5)"><g
       id="g12"
       transform="translate(425.9824,44)"><path
         d="m 0,0 -381.982,381.982 0,536.234 L 0.197,1294 l 535.838,0 375.983,-375.982 0,-535.838 L 536.233,0 0,0 Z"
         style="fill:#ff0000;fill-opacity:1;fill-rule:nonzero;stroke:none"
         id="path14"
         inkscape:connector-curvature="0" /></g><g
       id="g16"
       transform="translate(956.1001,1300)"><path
         d="m 0,0 -504.367,0 -369.733,-343.713 0,-504.74 369.548,-369.547 504.739,0 343.713,369.733 0,504.367 L 0,0 Z m -12.263,-30 326.163,-326.326 0,-480.15 -326.785,-351.524 -479.241,0 -351.974,351.974 0,479.241 L -492.576,-30 -12.1,-30"
         style="fill:#ffffff;fill-opacity:1;fill-rule:nonzero;stroke:none"
         id="path18"
         inkscape:connector-curvature="0" /></g><g
       id="g20"
       transform="translate(696,1171)"><path
         d="M 0,0 -10,10 -10,53 0,43 0,0 Z"
         style="fill:#000000;fill-opacity:1;fill-rule:nonzero;stroke:none"
         id="path22"
         inkscape:connector-curvature="0" /></g><g
       id="g24"
       transform="translate(645.799,1168.8932)"><path
         d="m 0,0 -10.99,8.9 -4.495,42.764 10.99,-8.9 L 0,0 Z"
         style="fill:#fcfcfc;fill-opacity:1;fill-rule:nonzero;stroke:none"
         id="path26"
         inkscape:connector-curvature="0" /></g><g
       id="g28"
       transform="translate(596.0931,1161.5504)"><path
         d="M 0,0 -11.861,7.702 -20.801,49.763 -8.94,42.06 0,0 Z"
         style="fill:#fcfcfc;fill-opacity:1;fill-rule:nonzero;stroke:none"
         id="path30"
         inkscape:connector-curvature="0" /></g><g
       id="g32"
       transform="translate(547.4271,1149.0522)"><path
         d="m 0,0 -12.601,6.42 -13.287,40.896 12.6,-6.421 L 0,0 Z"
         style="fill:#fcfcfc;fill-opacity:1;fill-rule:nonzero;stroke:none"
         id="path34"
         inkscape:connector-curvature="0" /></g><g
       id="g36"
       transform="translate(500.3341,1131.5355)"><path
         d="M 0,0 -13.203,5.068 -30.693,44.35 -17.49,39.282 0,0 Z"
         style="fill:#fcfcfc;fill-opacity:1;fill-rule:nonzero;stroke:none"
         id="path38"
         inkscape:connector-curvature="0" /></g><g
       id="g40"
       transform="translate(455.3301,1109.1921)"><path
         d="M 0,0 -13.66,3.66 -35.16,40.899 -21.5,37.239 0,0 Z"
         style="fill:#fcfcfc;fill-opacity:1;fill-rule:nonzero;stroke:none"
         id="path42"
         inkscape:connector-curvature="0" /></g><g
       id="g44"
       transform="translate(412.9082,1082.2671)"><path
         d="M 0,0 -13.968,2.212 -39.243,37 -25.275,34.788 0,0 Z"
         style="fill:#fcfcfc;fill-opacity:1;fill-rule:nonzero;stroke:none"
         id="path46"
         inkscape:connector-curvature="0" /></g><g
       id="g48"
       transform="translate(373.533,1051.0552)"><path
         d="M 0,0 -14.123,0.74 -42.895,32.695 -28.773,31.955 0,0 Z"
         style="fill:#fcfcfc;fill-opacity:1;fill-rule:nonzero;stroke:none"
         id="path50"
         inkscape:connector-curvature="0" /></g><g
       id="g52"
       transform="translate(337.6361,1015.8984)"><path
         d="M 0,0 -14.123,-0.74 -46.078,28.032 -31.955,28.773 0,0 Z"
         style="fill:#fcfcfc;fill-opacity:1;fill-rule:nonzero;stroke:none"
         id="path54"
         inkscape:connector-curvature="0" /></g><g
       id="g56"
       transform="translate(305.6108,977.182)"><path
         d="M 0,0 -13.968,-2.212 -48.756,23.062 -34.788,25.275 0,0 Z"
         style="fill:#fcfcfc;fill-opacity:1;fill-rule:nonzero;stroke:none"
         id="path58"
         inkscape:connector-curvature="0" /></g><g
       id="g60"
       transform="translate(277.8078,935.3301)"><path
         d="m 0,0 -13.66,-3.66 -37.239,21.5 13.66,3.66 L 0,0 Z"
         style="fill:#fcfcfc;fill-opacity:1;fill-rule:nonzero;stroke:none"
         id="path62"
         inkscape:connector-curvature="0" /></g><g
       id="g64"
       transform="translate(254.5319,890.8013)"><path
         d="M 0,0 -13.203,-5.068 -52.485,12.422 -39.282,17.49 0,0 Z"
         style="fill:#fcfcfc;fill-opacity:1;fill-rule:nonzero;stroke:none"
         id="path66"
         inkscape:connector-curvature="0" /></g><g
       id="g68"
       transform="translate(236.038,844.0834)"><path
         d="M 0,0 -12.601,-6.42 -53.496,6.867 -40.895,13.288 0,0 Z"
         style="fill:#fcfcfc;fill-opacity:1;fill-rule:nonzero;stroke:none"
         id="path70"
         inkscape:connector-curvature="0" /></g><g
       id="g72"
       transform="translate(222.5287,795.6884)"><path
         d="M 0,0 -11.861,-7.702 -53.921,1.238 -42.06,8.94 0,0 Z"
         style="fill:#fcfcfc;fill-opacity:1;fill-rule:nonzero;stroke:none"
         id="path74"
         inkscape:connector-curvature="0" /></g><g
       id="g76"
       transform="translate(214.1521,746.1463)"><path
         d="m 0,0 -10.99,-8.9 -42.765,4.495 10.991,8.9 L 0,0 Z"
         style="fill:#fcfcfc;fill-opacity:1;fill-rule:nonzero;stroke:none"
         id="path78"
         inkscape:connector-curvature="0" /></g><g
       id="g80"
       transform="translate(211,696)"><path
         d="m 0,0 -10,-10 -43,0 10,10 43,0 z"
         style="fill:#000000;fill-opacity:1;fill-rule:nonzero;stroke:none"
         id="path82"
         inkscape:connector-curvature="0" /></g><g
       id="g84"
       transform="translate(213.1068,645.799)"><path
         d="m 0,0 -8.9,-10.99 -42.764,-4.495 8.9,10.99 L 0,0 Z"
         style="fill:#fcfcfc;fill-opacity:1;fill-rule:nonzero;stroke:none"
         id="path86"
         inkscape:connector-curvature="0" /></g><g
       id="g88"
       transform="translate(220.4496,596.0931)"><path
         d="M 0,0 -7.702,-11.861 -49.763,-20.801 -42.06,-8.94 0,0 Z"
         style="fill:#fcfcfc;fill-opacity:1;fill-rule:nonzero;stroke:none"
         id="path90"
         inkscape:connector-curvature="0" /></g><g
       id="g92"
       transform="translate(232.9478,547.4271)"><path
         d="m 0,0 -6.42,-12.601 -40.896,-13.287 6.421,12.6 L 0,0 Z"
         style="fill:#fcfcfc;fill-opacity:1;fill-rule:nonzero;stroke:none"
         id="path94"
         inkscape:connector-curvature="0" /></g><g
       id="g96"
       transform="translate(250.4645,500.3341)"><path
         d="m 0,0 -5.068,-13.203 -39.283,-17.49 5.069,13.203 L 0,0 Z"
         style="fill:#fcfcfc;fill-opacity:1;fill-rule:nonzero;stroke:none"
         id="path98"
         inkscape:connector-curvature="0" /></g><g
       id="g100"
       transform="translate(272.8078,455.3301)"><path
         d="m 0,0 -3.66,-13.66 -37.239,-21.5 3.66,13.66 L 0,0 Z"
         style="fill:#fcfcfc;fill-opacity:1;fill-rule:nonzero;stroke:none"
         id="path102"
         inkscape:connector-curvature="0" /></g><g
       id="g104"
       transform="translate(299.7329,412.9082)"><path
         d="M 0,0 -2.212,-13.968 -37,-39.243 -34.788,-25.275 0,0 Z"
         style="fill:#fcfcfc;fill-opacity:1;fill-rule:nonzero;stroke:none"
         id="path106"
         inkscape:connector-curvature="0" /></g><g
       id="g108"
       transform="translate(330.9448,373.533)"><path
         d="m 0,0 -0.74,-14.123 -31.955,-28.772 0.74,14.122 L 0,0 Z"
         style="fill:#fcfcfc;fill-opacity:1;fill-rule:nonzero;stroke:none"
         id="path110"
         inkscape:connector-curvature="0" /></g><g
       id="g112"
       transform="translate(366.1016,337.6361)"><path
         d="M 0,0 0.74,-14.123 -28.032,-46.078 -28.773,-31.955 0,0 Z"
         style="fill:#fcfcfc;fill-opacity:1;fill-rule:nonzero;stroke:none"
         id="path114"
         inkscape:connector-curvature="0" /></g><g
       id="g116"
       transform="translate(404.818,305.6108)"><path
         d="M 0,0 2.212,-13.968 -23.062,-48.756 -25.275,-34.788 0,0 Z"
         style="fill:#fcfcfc;fill-opacity:1;fill-rule:nonzero;stroke:none"
         id="path118"
         inkscape:connector-curvature="0" /></g><g
       id="g120"
       transform="translate(446.6699,277.8078)"><path
         d="m 0,0 3.66,-13.66 -21.5,-37.239 -3.66,13.66 L 0,0 Z"
         style="fill:#fcfcfc;fill-opacity:1;fill-rule:nonzero;stroke:none"
         id="path122"
         inkscape:connector-curvature="0" /></g><g
       id="g124"
       transform="translate(491.1987,254.5319)"><path
         d="M 0,0 5.068,-13.203 -12.422,-52.485 -17.49,-39.282 0,0 Z"
         style="fill:#fcfcfc;fill-opacity:1;fill-rule:nonzero;stroke:none"
         id="path126"
         inkscape:connector-curvature="0" /></g><g
       id="g128"
       transform="translate(537.9166,236.038)"><path
         d="M 0,0 6.42,-12.601 -6.867,-53.496 -13.288,-40.895 0,0 Z"
         style="fill:#fcfcfc;fill-opacity:1;fill-rule:nonzero;stroke:none"
         id="path130"
         inkscape:connector-curvature="0" /></g><g
       id="g132"
       transform="translate(586.3116,222.5287)"><path
         d="M 0,0 7.702,-11.861 -1.238,-53.921 -8.94,-42.06 0,0 Z"
         style="fill:#fcfcfc;fill-opacity:1;fill-rule:nonzero;stroke:none"
         id="path134"
         inkscape:connector-curvature="0" /></g><g
       id="g136"
       transform="translate(635.8537,214.1521)"><path
         d="M 0,0 8.9,-10.99 4.405,-53.755 -4.495,-42.764 0,0 Z"
         style="fill:#fcfcfc;fill-opacity:1;fill-rule:nonzero;stroke:none"
         id="path138"
         inkscape:connector-curvature="0" /></g><g
       id="g140"
       transform="translate(686,211)"><path
         d="M 0,0 10,-10 10,-53 0,-43 0,0 Z"
         style="fill:#000000;fill-opacity:1;fill-rule:nonzero;stroke:none"
         id="path142"
         inkscape:connector-curvature="0" /></g><g
       id="g144"
       transform="translate(736.201,213.1068)"><path
         d="m 0,0 10.99,-8.9 4.495,-42.764 -10.99,8.9 L 0,0 Z"
         style="fill:#fcfcfc;fill-opacity:1;fill-rule:nonzero;stroke:none"
         id="path146"
         inkscape:connector-curvature="0" /></g><g
       id="g148"
       transform="translate(785.9069,220.4496)"><path
         d="M 0,0 11.861,-7.702 20.801,-49.763 8.94,-42.06 0,0 Z"
         style="fill:#fcfcfc;fill-opacity:1;fill-rule:nonzero;stroke:none"
         id="path150"
         inkscape:connector-curvature="0" /></g><g
       id="g152"
       transform="translate(834.5729,232.9478)"><path
         d="m 0,0 12.601,-6.42 13.287,-40.896 -12.6,6.421 L 0,0 Z"
         style="fill:#fcfcfc;fill-opacity:1;fill-rule:nonzero;stroke:none"
         id="path154"
         inkscape:connector-curvature="0" /></g><g
       id="g156"
       transform="translate(881.6658,250.4645)"><path
         d="M 0,0 13.203,-5.068 30.693,-44.351 17.49,-39.282 0,0 Z"
         style="fill:#fcfcfc;fill-opacity:1;fill-rule:nonzero;stroke:none"
         id="path158"
         inkscape:connector-curvature="0" /></g><g
       id="g160"
       transform="translate(926.6699,272.8078)"><path
         d="M 0,0 13.66,-3.66 35.16,-40.899 21.5,-37.239 0,0 Z"
         style="fill:#fcfcfc;fill-opacity:1;fill-rule:nonzero;stroke:none"
         id="path162"
         inkscape:connector-curvature="0" /></g><g
       id="g164"
       transform="translate(969.0919,299.7329)"><path
         d="M 0,0 13.968,-2.212 39.243,-37 25.275,-34.788 0,0 Z"
         style="fill:#fcfcfc;fill-opacity:1;fill-rule:nonzero;stroke:none"
         id="path166"
         inkscape:connector-curvature="0" /></g><g
       id="g168"
       transform="translate(1008.467,330.9448)"><path
         d="M 0,0 14.123,-0.74 42.895,-32.695 28.773,-31.955 0,0 Z"
         style="fill:#fcfcfc;fill-opacity:1;fill-rule:nonzero;stroke:none"
         id="path170"
         inkscape:connector-curvature="0" /></g><g
       id="g172"
       transform="translate(1044.3639,366.1016)"><path
         d="M 0,0 14.123,0.74 46.078,-28.032 31.955,-28.773 0,0 Z"
         style="fill:#fcfcfc;fill-opacity:1;fill-rule:nonzero;stroke:none"
         id="path174"
         inkscape:connector-curvature="0" /></g><g
       id="g176"
       transform="translate(1076.3893,404.818)"><path
         d="M 0,0 13.968,2.212 48.756,-23.062 34.788,-25.275 0,0 Z"
         style="fill:#fcfcfc;fill-opacity:1;fill-rule:nonzero;stroke:none"
         id="path178"
         inkscape:connector-curvature="0" /></g><g
       id="g180"
       transform="translate(1104.1921,446.6699)"><path
         d="M 0,0 13.66,3.66 50.899,-17.84 37.239,-21.5 0,0 Z"
         style="fill:#fcfcfc;fill-opacity:1;fill-rule:nonzero;stroke:none"
         id="path182"
         inkscape:connector-curvature="0" /></g><g
       id="g184"
       transform="translate(1127.4681,491.1987)"><path
         d="M 0,0 13.203,5.068 52.485,-12.422 39.282,-17.49 0,0 Z"
         style="fill:#fcfcfc;fill-opacity:1;fill-rule:nonzero;stroke:none"
         id="path186"
         inkscape:connector-curvature="0" /></g><g
       id="g188"
       transform="translate(1145.962,537.9166)"><path
         d="M 0,0 12.601,6.42 53.496,-6.867 40.895,-13.288 0,0 Z"
         style="fill:#fcfcfc;fill-opacity:1;fill-rule:nonzero;stroke:none"
         id="path190"
         inkscape:connector-curvature="0" /></g><g
       id="g192"
       transform="translate(1159.4713,586.3116)"><path
         d="M 0,0 11.861,7.702 53.921,-1.238 42.06,-8.94 0,0 Z"
         style="fill:#fcfcfc;fill-opacity:1;fill-rule:nonzero;stroke:none"
         id="path194"
         inkscape:connector-curvature="0" /></g><g
       id="g196"
       transform="translate(1167.8479,635.8537)"><path
         d="M 0,0 10.99,8.9 53.755,4.405 42.764,-4.495 0,0 Z"
         style="fill:#fcfcfc;fill-opacity:1;fill-rule:nonzero;stroke:none"
         id="path198"
         inkscape:connector-curvature="0" /></g><g
       id="g200"
       transform="translate(1171,686)"><path
         d="M 0,0 10,10 53,10 43,0 0,0 Z"
         style="fill:#000000;fill-opacity:1;fill-rule:nonzero;stroke:none"
         id="path202"
         inkscape:connector-curvature="0" /></g><g
       id="g204"
       transform="translate(1168.8932,736.201)"><path
         d="M 0,0 8.9,10.99 51.664,15.485 42.764,4.495 0,0 Z"
         style="fill:#fcfcfc;fill-opacity:1;fill-rule:nonzero;stroke:none"
         id="path206"
         inkscape:connector-curvature="0" /></g><g
       id="g208"
       transform="translate(1161.5504,785.9069)"><path
         d="M 0,0 7.702,11.861 49.763,20.801 42.06,8.94 0,0 Z"
         style="fill:#fcfcfc;fill-opacity:1;fill-rule:nonzero;stroke:none"
         id="path210"
         inkscape:connector-curvature="0" /></g><g
       id="g212"
       transform="translate(1149.0522,834.5729)"><path
         d="M 0,0 6.42,12.601 47.316,25.888 40.895,13.288 0,0 Z"
         style="fill:#fcfcfc;fill-opacity:1;fill-rule:nonzero;stroke:none"
         id="path214"
         inkscape:connector-curvature="0" /></g><g
       id="g216"
       transform="translate(1131.5355,881.6658)"><path
         d="M 0,0 5.068,13.203 44.35,30.693 39.282,17.49 0,0 Z"
         style="fill:#fcfcfc;fill-opacity:1;fill-rule:nonzero;stroke:none"
         id="path218"
         inkscape:connector-curvature="0" /></g><g
       id="g220"
       transform="translate(1109.1921,926.6699)"><path
         d="M 0,0 3.66,13.66 40.899,35.16 37.239,21.5 0,0 Z"
         style="fill:#fcfcfc;fill-opacity:1;fill-rule:nonzero;stroke:none"
         id="path222"
         inkscape:connector-curvature="0" /></g><g
       id="g224"
       transform="translate(1082.2671,969.0919)"><path
         d="M 0,0 2.212,13.968 37,39.243 34.788,25.275 0,0 Z"
         style="fill:#fcfcfc;fill-opacity:1;fill-rule:nonzero;stroke:none"
         id="path226"
         inkscape:connector-curvature="0" /></g><g
       id="g228"
       transform="translate(1051.0552,1008.467)"><path
         d="M 0,0 0.74,14.123 32.695,42.895 31.955,28.773 0,0 Z"
         style="fill:#fcfcfc;fill-opacity:1;fill-rule:nonzero;stroke:none"
         id="path230"
         inkscape:connector-curvature="0" /></g><g
       id="g232"
       transform="translate(1015.8984,1044.3639)"><path
         d="M 0,0 -0.74,14.123 28.032,46.078 28.773,31.955 0,0 Z"
         style="fill:#fcfcfc;fill-opacity:1;fill-rule:nonzero;stroke:none"
         id="path234"
         inkscape:connector-curvature="0" /></g><g
       id="g236"
       transform="translate(977.182,1076.3893)"><path
         d="M 0,0 -2.212,13.968 23.062,48.756 25.275,34.788 0,0 Z"
         style="fill:#fcfcfc;fill-opacity:1;fill-rule:nonzero;stroke:none"
         id="path238"
         inkscape:connector-curvature="0" /></g><g
       id="g240"
       transform="translate(935.3301,1104.1921)"><path
         d="M 0,0 -3.66,13.66 17.84,50.899 21.5,37.239 0,0 Z"
         style="fill:#fcfcfc;fill-opacity:1;fill-rule:nonzero;stroke:none"
         id="path242"
         inkscape:connector-curvature="0" /></g><g
       id="g244"
       transform="translate(890.8013,1127.4681)"><path
         d="M 0,0 -5.068,13.203 12.422,52.485 17.49,39.282 0,0 Z"
         style="fill:#fcfcfc;fill-opacity:1;fill-rule:nonzero;stroke:none"
         id="path246"
         inkscape:connector-curvature="0" /></g><g
       id="g248"
       transform="translate(844.0834,1145.962)"><path
         d="M 0,0 -6.42,12.601 6.867,53.496 13.288,40.895 0,0 Z"
         style="fill:#fcfcfc;fill-opacity:1;fill-rule:nonzero;stroke:none"
         id="path250"
         inkscape:connector-curvature="0" /></g><g
       id="g252"
       transform="translate(795.6884,1159.4713)"><path
         d="M 0,0 -7.702,11.861 1.238,53.921 8.94,42.06 0,0 Z"
         style="fill:#fcfcfc;fill-opacity:1;fill-rule:nonzero;stroke:none"
         id="path254"
         inkscape:connector-curvature="0" /></g><g
       id="g256"
       transform="translate(746.1463,1167.8479)"><path
         d="M 0,0 -8.9,10.99 -4.405,53.755 4.495,42.764 0,0 Z"
         style="fill:#fcfcfc;fill-opacity:1;fill-rule:nonzero;stroke:none"
         id="path258"
         inkscape:connector-curvature="0" /></g><text
       transform="matrix(1,0,0,-1,651.1953,1102.751)"
       style="font-variant:normal;font-weight:bold;font-stretch:normal;font-size:80px;font-family:'News701 BT';-inkscape-font-specification:News701BT-BoldA;writing-mode:lr-tb;fill:#ffffff;fill-opacity:1;fill-rule:nonzero;stroke:none"
       id="text260"><tspan
         x="0 44.799999"
         y="0"
         sodipodi:role="line"
         id="tspan262">12</tspan><tspan
         x="-424.56 464.48001"
         y="436.72"
         sodipodi:role="line"
         id="tspan264">93</tspan><tspan
         x="17.440001"
         y="879.76001"
         id="tspan266">6</tspan></text>
<g
       id="g268"><g
         id="g270"
         clip-path="url(#clipPath272)"><g
           id="g276"
           transform="translate(684.9535,987.2872)"><path
             d="m 0,0 c 1.989,-60.789 1.729,-115.521 -0.607,-166.849 -2.384,-51.299 -6.94,-96.849 -13.648,-138.688 4.566,-2.25 10.19,-3.011 16.91,-2.435 6.692,0.527 14.46,2.468 23.305,5.822 -1.754,29.265 -2.863,59.059 -3.396,90.958 -0.494,31.745 -0.623,63.01 0.152,98.504 0.661,35.466 1.926,72.432 3.847,112.665 C 17.689,0.008 8.825,-0.001 0,0"
             style="fill:#7f4008;fill-opacity:1;fill-rule:nonzero;stroke:none"
             id="path278"
             inkscape:connector-curvature="0" /></g><g
           id="g280"
           transform="translate(691.9202,971.502)"><path
             d="m 0,0 c -0.473,-13.643 1.942,-53.242 0.811,-87.968 -1.294,-35.053 -7.419,-93.293 -7.674,-119.097 -0.187,-25.582 4.482,-44.6 6.541,-33.381 2.011,11.575 4.685,71.2 5.566,101.042 0.841,29.505 -0.471,53.241 -0.718,75.326 C 4.079,-42.005 4.034,-19.257 3.248,-8.26 2.443,2.325 0.358,13.286 0,0"
             style="fill:#ffffc7;fill-opacity:1;fill-rule:nonzero;stroke:none"
             id="path282"
             inkscape:connector-curvature="0" /></g><g
           id="g284"
           transform="translate(701.9872,979.4519)"><path
             d="M 0,0 C -1.558,-5.212 -2.6,-23.776 -2.14,-34.938 -1.834,-45.976 1.093,-70.78 2.546,-65.8 3.999,-60.821 7.208,-16.752 6.816,-5.531 6.366,5.429 1.463,4.776 0,0"
             style="fill:#483622;fill-opacity:1;fill-rule:nonzero;stroke:none"
             id="path286"
             inkscape:connector-curvature="0" /></g><g
           id="g288"
           transform="translate(704.944,687.2817)"><path
             d="m 0,0 c 0.694,7.528 0.226,80.382 -0.279,107.426 -0.514,26.756 -1.95,58.838 -2.701,51.868 C -3.866,151.718 -5.617,90.689 -5.113,63.972 -4.675,37.034 -0.818,-7.028 0,0"
             style="fill:#483622;fill-opacity:1;fill-rule:nonzero;stroke:none"
             id="path290"
             inkscape:connector-curvature="0" /></g><g
           id="g292"
           transform="translate(792.0486,1015.5508)"><path
             d="m 0,0 c 0.166,9.971 -2.88,19.709 -9.396,30.258 l -42.216,-0.29 c -0.039,-4.751 -1.107,-7.672 -3.088,-9.229 -2.058,-1.577 -5.105,-1.48 -9.104,0.137 -1.652,6.123 -5.813,9.863 -12.524,11.375 -6.884,1.385 -21.43,-0.575 -27.728,-2.678 -6.24,-2.173 -9.356,-5.565 -9.501,-10.218 -3.528,-2.721 -7.134,-3.826 -10.662,-3.277 -3.73,0.54 -3.508,7.336 -10.661,6.367 -7.23,-1.152 -25.834,-8.291 -31.824,-12.771 -5.971,-4.719 -6.635,-9.42 -3.724,-14.208 2.922,-4.826 14.554,-11.156 21.043,-14.07 6.45,-2.924 11.988,-4.154 17.189,-3.55 4.183,4.028 8.067,5.652 11.538,4.68 3.412,-1.067 4.497,-7.538 9.208,-10.366 4.691,-2.913 12.535,-6.672 18.621,-6.828 5.951,-0.271 12.247,2.487 16.796,5.382 4.394,2.853 7.645,6.524 9.789,11.513 2.241,0.356 4.192,-0.422 5.97,-2.144 1.71,-1.778 3.287,-4.653 4.536,-8.509 3.605,-0.857 9.132,-1.232 16.621,-1.281 7.499,-0.087 16.768,0.266 28.151,0.986 C -3.85,-19.427 -0.349,-9.889 0,0"
             style="fill:#616161;fill-opacity:1;fill-rule:nonzero;stroke:none"
             id="path294"
             inkscape:connector-curvature="0" /></g><g
           id="g296"
           transform="translate(744.843,1018.2244)"><path
             d="m 0,0 c 2.912,-1.845 4.537,-4.749 5.257,-8.941 l 35.419,1.004 c 0.72,-0.107 0.969,-1.105 0.711,-2.846 -0.222,-1.893 -1.087,-4.317 -2.299,-7.808 -9.566,-0.468 -17.594,-0.717 -24.583,-0.705 -7.056,-0.047 -12.575,0.128 -17.055,0.56 -0.269,3.529 -1.45,5.643 -3.393,6.383 -2.008,0.685 -7.519,-3.266 -8.536,-2.132 -1.154,1.019 1.625,5.595 2.107,8.413 0.432,2.681 0.586,5.335 0.461,7.96 C -6.853,2.415 -2.921,1.722 0,0"
             style="fill:#a1a1a1;fill-opacity:1;fill-rule:nonzero;stroke:none"
             id="path298"
             inkscape:connector-curvature="0" /></g><g
           id="g300"
           transform="translate(658.4524,1013.5583)"><path
             d="m 0,0 c -3.067,1.646 -9.163,-1.757 -13.21,-0.276 -4.066,1.395 -7.199,8.537 -10.66,8.816 -3.643,0.03 -11.259,-4.159 -10.25,-7.379 1.153,-3.307 10.237,-9.578 16.765,-11.501 6.421,-1.992 18.708,-1.783 21.737,-0.005 C 7.189,-8.662 2.97,-1.75 0,0"
             style="fill:#a1a1a1;fill-opacity:1;fill-rule:nonzero;stroke:none"
             id="path302"
             inkscape:connector-curvature="0" /></g><g
           id="g304"
           transform="translate(727.3679,1022.9293)"><path
             d="m 0,0 c -3.48,1.664 -8.756,10.356 -13.486,12.934 -4.768,2.405 -10.806,1.55 -15.074,2.279 -4.336,0.675 -11.066,1.12 -10.786,2.127 0.316,0.858 6.912,3.076 12.354,3.7 5.403,0.45 14.612,1.362 19.468,-0.572 C -2.786,18.507 0.089,14.853 1.289,9.392 2.865,8.479 5.106,8.181 8.124,8.69 c 3.038,0.431 6.722,1.556 11.201,3.41 3.221,0.847 7.48,1.297 12.931,1.393 5.509,0.027 15.247,0.132 19.65,-1.138 4.211,-1.481 4.719,-4.01 5.951,-6.972 1.249,-3.038 1.747,-6.673 1.536,-11.057 L 26.281,-6.101 C 23.205,-1.802 20.11,0.938 16.919,2.429 13.738,3.881 10.535,3.776 7.237,2.422 5.767,-1.012 3.508,-1.78 0,0"
             style="fill:#212121;fill-opacity:1;fill-rule:nonzero;stroke:none"
             id="path306"
             inkscape:connector-curvature="0" /></g><g
           id="g308"
           transform="translate(647.6664,1018.1364)"><path
             d="M 0,0 C 3.345,-1.125 10.306,-0.531 11.633,1.68 12.73,3.834 10.212,12.112 6.954,13.217 3.579,14.132 -6.824,9.817 -7.959,7.654 -9.142,5.357 -3.307,0.972 0,0"
             style="fill:#212121;fill-opacity:1;fill-rule:nonzero;stroke:none"
             id="path310"
             inkscape:connector-curvature="0" /></g><g
           id="g312"
           transform="translate(427.3121,680.5005)"><path
             d="m 0,0 c 55.112,3.732 104.797,5.231 151.457,4.737 46.637,-0.538 88.124,-3.229 126.311,-7.992 1.898,4.216 2.41,9.345 1.675,15.426 -0.691,6.057 -2.699,13.046 -6.023,20.968 C 246.914,30.62 219.907,28.668 190.971,27.174 162.173,25.719 133.8,24.611 101.56,24.19 69.349,23.665 35.757,23.642 -0.821,24.11 -0.568,16.055 -0.279,8.01 0,0"
             style="fill:#7f4008;fill-opacity:1;fill-rule:nonzero;stroke:none"
             id="path314"
             inkscape:connector-curvature="0" /></g><g
           id="g316"
           transform="translate(441.4185,687.324)"><path
             d="m 0,0 c 12.398,0.003 48.263,3.45 79.817,3.524 31.857,-0.064 84.912,-3.777 108.34,-3.19 23.226,0.641 40.339,5.481 30.09,6.995 C 207.678,8.788 153.475,9.325 126.362,9.178 99.556,9.007 78.053,7.063 58.016,6.139 37.996,5.033 17.351,4.272 7.394,3.21 -2.188,2.143 -12.071,-0.096 0,0"
             style="fill:#ffffc7;fill-opacity:1;fill-rule:nonzero;stroke:none"
             id="path318"
             inkscape:connector-curvature="0" /></g><g
           id="g320"
           transform="translate(433.8837,696.2092)"><path
             d="M 0,0 C 4.78,-1.249 21.662,-1.606 31.779,-0.835 41.787,-0.208 64.208,3.236 59.642,4.396 55.076,5.557 14.976,7.073 4.804,6.362 -5.129,5.606 -4.381,1.176 0,0"
             style="fill:#483622;fill-opacity:1;fill-rule:nonzero;stroke:none"
             id="path322"
             inkscape:connector-curvature="0" /></g><g
           id="g324"
           transform="translate(698.9744,708.1534)"><path
             d="m 0,0 c -6.854,0.391 -72.965,-2.343 -97.495,-3.658 -24.268,-1.315 -53.341,-3.635 -46.991,-4.096 6.904,-0.564 62.351,-0.219 86.585,1.086 C -32.574,-5.312 7.227,-0.423 0,0"
             style="fill:#483622;fill-opacity:1;fill-rule:nonzero;stroke:none"
             id="path326"
             inkscape:connector-curvature="0" /></g><g
           id="g328"
           transform="translate(398.2645,776.8081)"><path
             d="m 0,0 c -9.055,-0.165 -17.798,-3.238 -27.166,-9.487 l 1.601,-38.308 c 4.314,0.115 7,-0.761 8.476,-2.51 1.496,-1.818 1.504,-4.587 0.164,-8.268 -5.506,-1.693 -8.768,-5.589 -9.928,-11.727 -1.039,-6.293 1.201,-19.433 3.309,-25.083 2.17,-5.594 5.348,-8.314 9.576,-8.299 2.581,-3.116 3.699,-6.353 3.312,-9.573 -0.372,-3.403 -6.547,-3.416 -5.441,-9.878 1.275,-6.526 8.344,-23.186 12.6,-28.481 4.473,-5.27 8.761,-5.723 13.014,-2.929 4.288,2.805 9.664,13.563 12.103,19.545 2.45,5.948 3.391,11.012 2.678,15.714 -3.789,3.669 -5.386,7.143 -4.613,10.324 0.86,3.131 6.698,4.321 9.116,8.686 2.495,4.35 5.659,11.589 5.607,17.117 0.058,5.411 -2.646,11.038 -5.417,15.075 -2.729,3.898 -6.164,6.732 -10.76,8.52 -0.394,2.022 0.251,3.818 1.756,5.486 1.56,1.608 4.12,3.131 7.58,4.387 0.664,3.299 0.829,8.328 0.636,15.127 -0.158,6.809 -0.773,15.211 -1.787,25.519 C 17.755,-2.878 8.987,-0.003 0,0"
             style="fill:#616161;fill-opacity:1;fill-rule:nonzero;stroke:none"
             id="path330"
             inkscape:connector-curvature="0" /></g><g
           id="g332"
           transform="translate(397.3341,733.8778)"><path
             d="M 0,0 C 1.583,2.702 4.167,4.268 7.948,5.055 L 5.915,37.171 c 0.074,0.656 0.972,0.915 2.561,0.735 1.725,-0.141 3.952,-0.85 7.159,-1.839 0.728,-8.668 1.209,-15.946 1.419,-22.29 C 17.32,7.374 17.336,2.36 17.086,-1.721 13.892,-2.076 12.01,-3.215 11.4,-5.002 c -0.557,-1.845 3.203,-6.721 2.206,-7.681 -0.889,-1.079 -5.129,1.298 -7.703,1.646 -2.447,0.307 -4.861,0.363 -7.239,0.167 C -1.974,-6.297 -1.47,-2.706 0,0"
             style="fill:#a1a1a1;fill-opacity:1;fill-rule:nonzero;stroke:none"
             id="path334"
             inkscape:connector-curvature="0" /></g><g
           id="g336"
           transform="translate(404.3074,655.6144)"><path
             d="m 0,0 c -1.396,-2.836 1.885,-8.261 0.67,-11.981 -1.138,-3.735 -7.521,-6.804 -7.665,-9.955 0.089,-3.308 4.132,-10.087 7.023,-9.069 2.965,1.151 8.369,9.595 9.907,15.58 1.604,5.892 1.026,17.038 -0.684,19.73 C 7.634,6.8 1.494,2.752 0,0"
             style="fill:#a1a1a1;fill-opacity:1;fill-rule:nonzero;stroke:none"
             id="path338"
             inkscape:connector-curvature="0" /></g><g
           id="g340"
           transform="translate(393.6176,717.8676)"><path
             d="m 0,0 c -1.4,-3.211 -9.122,-8.276 -11.312,-12.651 -2.031,-4.404 -1.064,-9.856 -1.591,-13.753 -0.475,-3.957 -0.665,-10.08 -1.588,-9.858 -0.789,0.261 -3.012,6.177 -3.75,11.096 -0.58,4.89 -1.7,13.22 -0.098,17.688 1.63,4.363 4.855,7.088 9.773,8.35 0.78,1.46 0.979,3.504 0.421,6.226 -0.488,2.744 -1.625,6.052 -3.45,10.059 -0.87,2.896 -1.414,6.748 -1.674,11.692 -0.199,4.999 -0.603,13.834 0.41,17.872 1.211,3.868 3.49,4.41 6.14,5.621 2.717,1.23 6.001,1.798 9.986,1.745 L 4.704,24.047 C 0.9,21.119 -1.489,18.223 -2.741,15.279 -3.958,12.346 -3.761,9.443 -2.428,6.492 0.736,5.267 1.504,3.24 0,0"
             style="fill:#212121;fill-opacity:1;fill-rule:nonzero;stroke:none"
             id="path342"
             inkscape:connector-curvature="0" /></g><g
           id="g344"
           transform="translate(400.4939,645.6795)"><path
             d="M 0,0 C 0.915,3.072 0.155,9.371 -1.894,10.505 -3.883,11.432 -11.317,8.885 -12.216,5.892 -12.94,2.8 -8.694,-6.505 -6.695,-7.466 -4.572,-8.467 -0.777,-3.032 0,0"
             style="fill:#212121;fill-opacity:1;fill-rule:nonzero;stroke:none"
             id="path346"
             inkscape:connector-curvature="0" /></g><g
           id="g348"><g
             id="g350" /><g
             id="g356"><g
               clip-path="url(#clipPath352)"
               id="g358"><g
                 transform="translate(1039.3101,494.89)"
                 id="g360"><path
                   d="m 0,0 -351.77,196.99 0,7.06 5.92,3.18 L 0,0 Z"
                   style="fill:#000000;fill-opacity:1;fill-rule:nonzero;stroke:none"
                   id="path362"
                   inkscape:connector-curvature="0" /></g></g></g></g></g></g><g
       id="g364"><g
         id="g366"><g
           id="g372"><g
             id="g374"><path
               d="m 683.601,695.463 c 0,-5.523 4.478,-10 10,-10 l 0,0 c 5.524,0 10,4.477 10,10 l 0,0 c 0,5.523 -4.476,10 -10,10 l 0,0 c -5.522,0 -10,-4.477 -10,-10"
               style="fill:url(#radialGradient376);stroke:none"
               id="path382"
               inkscape:connector-curvature="0" /></g></g></g></g></g></svg>