<?xml version="1.0"?>
<svg xmlns:rdf="http://www.w3.org/1999/02/22-rdf-syntax-ns#" xmlns="http://www.w3.org/2000/svg" xmlns:cc="http://creativecommons.org/ns#" xmlns:xlink="http://www.w3.org/1999/xlink" xmlns:dc="http://purl.org/dc/elements/1.1/" xmlns:svg="http://www.w3.org/2000/svg" id="svg2" viewBox="0 0 180 160" version="1.0">
  <defs id="defs5">
    <linearGradient id="linearGradient3546">
      <stop id="stop3548" stop-color="#216908" offset="0"/>
      <stop id="stop3550" stop-color="#2e3436" offset="1"/>
    </linearGradient>
    <linearGradient id="linearGradient3514">
      <stop id="stop3516" stop-color="#fff" stop-opacity=".005102" offset="0"/>
      <stop id="stop3518" stop-color="#fff" offset="1"/>
    </linearGradient>
    <linearGradient id="linearGradient3474">
      <stop id="stop3476" stop-color="#fff" stop-opacity="0" offset="0"/>
      <stop id="stop3482" stop-color="#fff" stop-opacity=".4949" offset=".5"/>
      <stop id="stop3478" stop-color="#fff" stop-opacity="0" offset="1"/>
    </linearGradient>
    <linearGradient id="linearGradient3444">
      <stop id="stop3446" stop-color="#a7d939" offset="0"/>
      <stop id="stop3448" stop-color="#3e8f07" offset="1"/>
    </linearGradient>
    <linearGradient id="linearGradient3436">
      <stop id="stop3438" stop-color="#fff" offset="0"/>
      <stop id="stop3440" stop-color="#fff" stop-opacity="0" offset="1"/>
    </linearGradient>
    <filter id="filter3560" color-interpolation-filters="sRGB">
      <feGaussianBlur id="feGaussianBlur3562" stdDeviation="0.35123498"/>
    </filter>
    <filter id="filter3586" color-interpolation-filters="sRGB">
      <feGaussianBlur id="feGaussianBlur3588" stdDeviation="0.30700343"/>
    </filter>
    <filter id="filter3616" color-interpolation-filters="sRGB">
      <feGaussianBlur id="feGaussianBlur3618" stdDeviation="0.57201804"/>
    </filter>
    <filter id="filter3671" height="1.2666" width="1.2615" y="-.13328" x="-.13075" color-interpolation-filters="sRGB">
      <feGaussianBlur id="feGaussianBlur3673" stdDeviation="0.61612433"/>
    </filter>
    <filter id="filter3699" height="1.0591" width="1.2563" y="-.029529" x="-.12817" color-interpolation-filters="sRGB">
      <feGaussianBlur id="feGaussianBlur3701" stdDeviation="0.65036443"/>
    </filter>
    <filter id="filter3749" height="1.2163" width="1.0432" y="-.10817" x="-.021593" color-interpolation-filters="sRGB">
      <feGaussianBlur id="feGaussianBlur3751" stdDeviation="0.31818877"/>
    </filter>
    <filter id="filter3904" color-interpolation-filters="sRGB">
      <feGaussianBlur id="feGaussianBlur3906" stdDeviation="0.14591903"/>
    </filter>
    <filter id="filter3934" color-interpolation-filters="sRGB">
      <feGaussianBlur id="feGaussianBlur3936" stdDeviation="0.082152475"/>
    </filter>
    <filter id="filter3485" color-interpolation-filters="sRGB">
      <feGaussianBlur id="feGaussianBlur3487" stdDeviation="0.42745586"/>
    </filter>
    <linearGradient id="linearGradient3233" y2="110.32" gradientUnits="userSpaceOnUse" x2="233.2" y1="103.64" x1="371.56">
      <stop id="stop3464" stop-color="#216908" offset="0"/>
      <stop id="stop3466" stop-color="#91d007" offset="1"/>
    </linearGradient>
    <linearGradient id="linearGradient3235" y2="197.63" gradientUnits="userSpaceOnUse" x2="365.86" y1="78.769" x1="365.86">
      <stop id="stop3428" stop-color="#217808" offset="0"/>
      <stop id="stop3430" stop-color="#216908" offset="1"/>
    </linearGradient>
    <linearGradient id="linearGradient3237" y2="193.79" gradientUnits="userSpaceOnUse" x2="415.77" y1="47.691" x1="413.22">
      <stop id="stop3420" stop-color="#91d007" offset="0"/>
      <stop id="stop3422" stop-color="#217808" offset="1"/>
    </linearGradient>
    <linearGradient id="linearGradient3239" y2="84.988" gradientUnits="userSpaceOnUse" x2="385.74" y1="86.024" x1="387.63">
      <stop id="stop3410" stop-color="#91d007" offset="0"/>
      <stop id="stop3412" stop-color="#91d04a" offset="1"/>
    </linearGradient>
    <radialGradient id="radialGradient3241" xlink:href="#linearGradient3514" gradientUnits="userSpaceOnUse" cy="164.79" cx="425.05" gradientTransform="matrix(2.7147 -.037117 .12248 8.9582 -706.71 -1308.2)" r="4.4872"/>
    <linearGradient id="linearGradient3243" y2="231.13" gradientUnits="userSpaceOnUse" x2="370.01" y1="106.75" x1="494.38">
      <stop id="stop3378" stop-color="#91d007" offset="0"/>
      <stop id="stop3380" stop-color="#217808" offset="1"/>
    </linearGradient>
    <linearGradient id="linearGradient3245" y2="218.84" gradientUnits="userSpaceOnUse" x2="285.06" gradientTransform="translate(0 -.51822)" y1="151.32" x1="381.41">
      <stop id="stop3386" stop-color="#91d007" offset="0"/>
      <stop id="stop3388" stop-color="#217808" offset="1"/>
    </linearGradient>
    <radialGradient id="radialGradient3247" xlink:href="#linearGradient3514" gradientUnits="userSpaceOnUse" cy="164.79" cx="425.05" gradientTransform="matrix(2.7147 -.037117 .12248 8.9582 -720.27 -1301.6)" r="4.4872"/>
    <radialGradient id="radialGradient3249" xlink:href="#linearGradient3514" gradientUnits="userSpaceOnUse" cy="164.79" cx="425.05" gradientTransform="matrix(2.7147 -.037117 .12248 8.9582 -734.56 -1295)" r="4.4872"/>
    <radialGradient id="radialGradient3251" xlink:href="#linearGradient3514" gradientUnits="userSpaceOnUse" cy="164.79" cx="425.05" gradientTransform="matrix(2.7147 -.037117 .12248 8.9582 -747.39 -1289.1)" r="4.4872"/>
    <linearGradient id="linearGradient3253" y2="118.22" xlink:href="#linearGradient3546" gradientUnits="userSpaceOnUse" x2="435.69" y1="144.97" x1="439.71"/>
    <linearGradient id="linearGradient3255" y2="145.7" gradientUnits="userSpaceOnUse" x2="388.79" y1="95.135" x1="499.45">
      <stop id="stop3402" stop-color="#91d007" offset="0"/>
      <stop id="stop3404" stop-color="#217808" offset="1"/>
    </linearGradient>
    <linearGradient id="linearGradient3257" y2="106.49" gradientUnits="userSpaceOnUse" x2="395.66" y1="106.49" x1="377.8">
      <stop id="stop3679" stop-color="#216908" offset="0"/>
      <stop id="stop3685" stop-color="#217808" offset=".67943"/>
      <stop id="stop3681" stop-color="#fdffff" offset="1"/>
    </linearGradient>
    <linearGradient id="linearGradient3259" y2="109.02" xlink:href="#linearGradient3546" gradientUnits="userSpaceOnUse" x2="387.84" gradientTransform="translate(-.38866 -.12955)" y1="109.02" x1="311.02"/>
    <linearGradient id="linearGradient3261" y2="123.34" gradientUnits="userSpaceOnUse" x2="270.51" y1="148.21" x1="383.48">
      <stop id="stop3394" stop-color="#91d007" offset="0"/>
      <stop id="stop3396" stop-color="#217808" offset="1"/>
    </linearGradient>
    <linearGradient id="linearGradient3263" y2="143.94" xlink:href="#linearGradient3444" gradientUnits="userSpaceOnUse" x2="397.04" y1="143.94" x1="384.69"/>
    <linearGradient id="linearGradient3265" y2="184.91" xlink:href="#linearGradient3444" gradientUnits="userSpaceOnUse" x2="401.61" y1="186.38" x1="380.36"/>
    <linearGradient id="linearGradient3267" y2="60.323" xlink:href="#linearGradient3436" gradientUnits="userSpaceOnUse" x2="389.89" y1="151.93" x1="392.09"/>
    <linearGradient id="linearGradient3269" y2="184.91" xlink:href="#linearGradient3474" gradientUnits="userSpaceOnUse" x2="395.12" y1="184.91" x1="384.68"/>
    <linearGradient id="linearGradient3271" y2="143.94" xlink:href="#linearGradient3474" gradientUnits="userSpaceOnUse" x2="397.04" y1="143.94" x1="384.69"/>
    <linearGradient id="linearGradient3273" y2="181.98" xlink:href="#linearGradient3436" gradientUnits="userSpaceOnUse" x2="323.2" y1="58.125" x1="414.81"/>
    <linearGradient id="linearGradient3275" y2="135.9" xlink:href="#linearGradient3546" gradientUnits="userSpaceOnUse" x2="334.25" y1="152.36" x1="330.11"/>
    <linearGradient id="linearGradient3277" y2="90.294" gradientUnits="userSpaceOnUse" x2="480.65" y1="90.294" x1="388.15">
      <stop id="stop3715" stop-color="#4d4d4d" stop-opacity="0" offset="0"/>
      <stop id="stop3721" stop-color="#4d4d4d" stop-opacity=".58163" offset=".5"/>
      <stop id="stop3717" stop-color="#4d4d4d" stop-opacity="0" offset="1"/>
    </linearGradient>
    <linearGradient id="linearGradient3279" y2="94.413" xlink:href="#linearGradient3546" gradientUnits="userSpaceOnUse" x2="394.71" y1="90.203" x1="409.42"/>
    <linearGradient id="linearGradient3281" y2="3.7765" gradientUnits="userSpaceOnUse" x2="37.672" y1="24.227" x1="26.362">
      <stop id="stop3862" stop-color="#bbbaff" offset="0"/>
      <stop id="stop3876" stop-color="#caedff" offset=".25"/>
      <stop id="stop3868" stop-color="#fff" offset=".45022"/>
      <stop id="stop3874" stop-color="#caedff" offset=".60697"/>
      <stop id="stop3870" stop-color="#dddcff" offset=".708"/>
      <stop id="stop3864" stop-color="#bbbaff" offset="1"/>
    </linearGradient>
    <radialGradient id="radialGradient3283" gradientUnits="userSpaceOnUse" cy="-6.7697" cx="66.254" gradientTransform="matrix(1 0 0 1.4059 0 2.5507)" r="1.6842">
      <stop id="stop3290" stop-color="#fff" offset="0"/>
      <stop id="stop3292" stop-color="#d3d2ff" offset="1"/>
    </radialGradient>
  </defs>
  <g id="g3161" transform="matrix(3.6419 0 0 3.6419 .61493 -410.4)">
    <g id="g3411" opacity=".5" filter="url(#filter3485)" transform="translate(-.12955 107.16)">
      <g id="g3413" transform="matrix(.21615 0 0 .21615 -59.472 -.26436)">
        <path id="path3415" d="m387.42 80.002-32.219 12.767s-1.1737-8.9557-11.005-6.8127c-7.2523 1.5808-8.9057 12.631-10.097 13.731l-44.746 15.714 2.5286 17.435 95.933-42.565c-0.14242 0.11832 0.4925-10.664-0.39482-10.268z" fill-rule="evenodd"/>
        <path id="path3417" d="m388.01 89.898-93.229 41.387 9.1523 66.341 84.637-20.153-0.56031-87.574zm-18.635 10.591-0.1875 52.208-8.4062 3.8438-0.009-52.378 8.6023-3.6734zm-14.156 5.3425 0.34375 53.896-8.4375 3.875-0.0668-54.178 8.1605-3.5938zm-14.183 6.9559 0.93322 53.347-9.25 4.5 0.64769-54.119 7.6691-3.7273zm-13.652 6.0668 0.96019 53.905-8.4375 3.875-1.0227-54.119 8.5-3.6605z" fill-rule="evenodd"/>
        <path id="path3419" d="m389.76 79.937c-0.73767 0.22159-1.4554 0.48184-2.1875 0.71875v75.031l5.875 58.625 85-42.5 4.2812-72.5h0.0312l0.78125-5.9375-1.5 0.25c-30.745-4.61-61.436-9.9961-92.281-13.688zm33.125 16.812 23.688 2.5c0.00001-0.00001-0.68022 1.2903-1.6562 2.25-1.519 1.36-11.927 1.5134-19.969-0.4375-1.5592-0.99881-2.0625-4.3125-2.0625-4.3125z" fill-rule="evenodd"/>
        <path id="path3421" d="m389.44 75.594c-1.6115 0.04237-3.2188 0.5-3.2188 0.5l-29.312 11.719c0.00001-0.000002-4.4819-7.8665-14.281-4.7812-9.37 2.947-10.63 13.937-10.63 13.937l-50.969 17.469c-0.00001 0-1.9466 0.83445-1.0625 2.1875 0.90296 1.382 3.25 1.4062 3.25 1.4062l103.28 18.16c-0.00001 0 3.1345 0.89118 4.3438 0.78125 1.2092-0.10993 4.0938-1.625 4.0938-1.625l40.031-16.75c-0.00001 0 2.6819-10.327 9.5312-13.188 6.9726-2.9117 10.25 3.6562 10.25 3.6562l35-14.656c0.00001 0.000003 2.8688-1.4746 1.7188-2.8438-1.0984-1.3076-5.2812-1.625-5.2812-1.625l-92.75-14.156c-0.0142 0.06206-1.7362-0.09759-3.3125-0.1875-0.22519-0.01284-0.45728-0.0061-0.6875 0zm-0.21875 4.0312c30.95 3.704 61.743 9.1297 92.594 13.75-7.7527 3.3646-15.638 6.4436-23.406 9.7812-2.1611 2.688-3.4798-0.33191-5.4375-1.375-9.4381-4.2373-18.481 4.6711-21.094 13.156-12.831 6.7882-27.65 11.752-41.219 17.906-33.284-5.7599-66.527-11.753-99.812-17.5 13.031-4.5949 26.218-8.8604 39.25-13.5 6.3671-1.271 6.007-6.0937 7.7188-9.8125 2.902-7.4062 15.492-7.498 17.25 0.78125 11.496-4.122 22.454-9.6722 34.156-13.188z" fill-rule="evenodd"/>
        <path id="path3423" d="m467.36 115.38 0.72572 54.685-7.6816 3.8088-0.10787 0.64642 8.4118-3.7685 0.5625-0.21875-0.0312-0.5625-0.52697-55.323-1.3523 0.73286z" fill-rule="evenodd"/>
        <path id="path3425" d="m486.76 106.02-92.312 43.219-0.375 68.906 86.469-45.438 6.2188-66.688zm-17.719 9.125-0.1875 54.406-8.4062 3.8438-0.375-53.844 8.9688-4.4062zm-14.156 6.625 0.34375 54.812-8.4375 3.875-0.25-55.094 8.3438-3.5938zm-14 6.4062 0.75 54.812-9.25 4.5 0.28125-55.219 8.2188-4.0938zm-13.469 6.25 0.59375 55.188-8.4375 3.875-0.65625-55.219 8.5-3.8438z" fill-rule="evenodd"/>
        <path id="path3427" d="m299.72 197.8 85.013 20.52 1.4657-66.691-38.972-6.681s-3.535 6.0149-5.9074 5.6c-2.3538-0.41161-20.469-3.3717-23.493-4.2232-3.1786-0.89518-2.8019-7.7136-2.8019-7.7136l-29.963-5.3041 14.657 64.493z" fill-rule="evenodd"/>
        <path id="path3429" d="m453.8 121.98 0.72572 54.685-7.6816 3.8088-0.10787 0.64642 8.4118-3.7685 0.5625-0.21875-0.0312-0.5625-0.52697-55.323-1.3523 0.73286z" fill-rule="evenodd"/>
        <path id="path3431" d="m439.51 128.57 0.72572 54.685-7.6816 3.8088-0.10787 0.64642 8.4118-3.7685 0.5625-0.21875-0.0312-0.5625-0.52697-55.323-1.3523 0.73286z" fill-rule="evenodd"/>
        <path id="path3433" d="m426.68 134.44 0.72572 54.685-7.6816 3.8088-0.10787 0.64642 8.4118-3.7685 0.5625-0.21875-0.0312-0.5625-0.52697-55.323-1.3523 0.73286z" fill-rule="evenodd"/>
        <path id="path3435" opacity=".5" filter="url(#filter3560)" d="m486.06 106.41-92.707 43.075 0.55266 4.7115 91.974-46.525 0.18022-1.2616z" fill-rule="evenodd"/>
        <path id="path3437" d="m489.23 94.932-35 14.656s-3.2774-6.5679-10.25-3.6562c-6.8494 2.8602-9.5313 13.188-9.5312 13.188l-40.031 16.75s-0.0603 0.0301-0.0625 0.0312v13.906l96-45.438c1.9304-13.874 3.4343-13.613-1.125-9.4375z" fill-rule="evenodd"/>
        <path id="path3439" opacity=".7" filter="url(#filter3699)" d="m385.3 81.36-1.8138 50.267 6.996 1.2956 4.9231-2.0729 0.25911-50.267-6.2186-0.51822-4.1458 1.2955z" fill-rule="evenodd"/>
        <path id="path3441" opacity=".7" filter="url(#filter3616)" d="m387.14 90.101-76.434 33.795-0.0768 3.7864 76.822-36.904-0.31187-0.67713z" fill-rule="evenodd"/>
        <path id="path3443" d="m279.41 116.64 3.5312 16.531 103.66 19.188v-16.406c-0.49322-0.12437-1.125-0.28125-1.125-0.28125l-103.28-18.16s-1.7184-0.0157-2.7812-0.875z" fill-rule="evenodd"/>
        <path id="path3445" d="m384.69 135.64 0.13234 16.586s4.7486 0.81125 6.1296 0.65678 6.0958-3.9187 6.0958-3.9187l-0.87527-13.98c-1.332 0.19643-3.9747 2.418-5.7593 1.9991l-5.7232-1.3433z" fill-rule="evenodd"/>
        <path id="path3447" d="m385.31 152.14-0.62792 66.035s4.0639 1.2847 5.5907 1.1946c1.6589-0.0979 4.8418-1.5353 4.8418-1.5353l-0.41146-67.398c-1.3501 0.78349-2.1262 2.1434-4.2091 2.0172l-5.184-0.31397z" fill-rule="evenodd"/>
        <path id="path3449" d="m389.44 75.594c-1.6115 0.04237-3.2188 0.5-3.2188 0.5l-29.312 11.719c0.00001-0.000002-4.4819-7.8665-14.281-4.7812-9.37 2.947-10.63 13.937-10.63 13.937l-50.969 17.469c-0.00001 0-1.9466 0.83445-1.0625 2.1875 0.90296 1.382 3.25 1.4062 3.25 1.4062l103.28 18.16c-0.00001 0 3.1345 0.89118 4.3438 0.78125 1.2092-0.10993 4.0938-1.625 4.0938-1.625l40.031-16.75c-0.00001 0 2.6819-10.327 9.5312-13.188 6.9726-2.9117 10.25 3.6562 10.25 3.6562l35-14.656c0.00001 0.000003 2.8688-1.4746 1.7188-2.8438-1.0984-1.3076-5.2812-1.625-5.2812-1.625l-92.75-14.156c-0.0142 0.06206-1.7362-0.09759-3.3125-0.1875-0.22519-0.01284-0.45728-0.0061-0.6875 0zm-0.21875 4.0312c30.95 3.704 61.743 9.1297 92.594 13.75-7.7527 3.3646-15.638 6.4436-23.406 9.7812-2.1611 2.688-3.4798-0.33191-5.4375-1.375-9.4381-4.2373-18.481 4.6711-21.094 13.156-12.831 6.7882-27.65 11.752-41.219 17.906-33.284-5.7599-66.527-11.753-99.812-17.5 13.031-4.5949 26.218-8.8604 39.25-13.5 6.3671-1.271 6.007-6.0937 7.7188-9.8125 2.902-7.4062 15.492-7.498 17.25 0.78125 11.496-4.122 22.454-9.6722 34.156-13.188z" fill-rule="evenodd"/>
        <path id="path3451" d="m385.13 151.41-0.4447 66.768s4.0639 1.2847 5.5907 1.1946c1.6589-0.0979 4.8418-1.5353 4.8418-1.5353l-0.8695-67.948c-1.3501 0.78349-2.133 2.2275-4.2091 2.0172l-4.9092-0.49719z" fill-rule="evenodd"/>
        <path id="path3453" d="m384.69 135.64 0.31556 15.487s4.0157 0.99447 5.3968 0.84c1.381-0.15447 6.6454-3.0026 6.6454-3.0026l-0.87527-13.98c-1.332 0.19643-3.9747 2.418-5.7593 1.9991l-5.7232-1.3433z" fill-rule="evenodd"/>
        <path id="path3455" d="m280.15 117.38 3.5312 16.531 2.1875 0.40625 3.1875 14c45.059 11.391 80.931 33.86 96.688 58.375l1.1875-53.656 0.40625 0.0625v-16.406c-0.49321-0.12436-1.125-0.28125-1.125-0.28125l-103.29-18.16c0.00001 0.00001-1.7184-0.0157-2.7812-0.875zm35.625 22.469 32.125 5.9375c-0.17593 0.29644-3.533 5.9041-5.8438 5.5-2.3538-0.41161-20.476-3.3672-23.5-4.2188-2.805-0.78995-2.8115-5.9596-2.7812-7.2188z" fill-rule="evenodd"/>
        <path id="path3457" opacity=".4" filter="url(#filter3671)" d="m385.35 151.49c0 7.6802 1.22 8.3937 5.6547 8.3937 4.4348 0 5.6547-3.4128 5.6547-11.093-0.16725-0.0717-1.0902 1.6963-5.838 2.9729-3.0404 0.0154-5.4607-0.18937-5.4715-0.27365z" transform="matrix(1 0 0 .80184 -.40438 29.948)"/>
        <path id="path3459" opacity=".5" filter="url(#filter3586)" d="m285.3 133.42 0.30857 1.1999 100.12 20.935 0.24089-3.9518-100.67-18.183z" fill-rule="evenodd"/>
        <path id="path3461" opacity=".7" d="m387.67 89.645 35.207 6.8371 40.484 4.9689 17.284-7.912s-84.704-13.395-88.615-13.474c-3.6525-0.0731-3.8866 0.25911-3.8866 0.25911l-0.47376 9.3206z" fill-rule="evenodd"/>
        <path id="path3463" opacity=".5" filter="url(#filter3749)" d="m392 89.455c-0.87047-0.06941-1.7386-0.12129-3.042 0.08464-1.31 0.206-2.08 1.085-2.08 1.085l0.1875 0.96875s1.3523 0.18493 2.6341-0.01759 2.5875-0.32627 3.1807-0.27897c1.3676 0.10905 3.6403 0.55567 3.6403 0.55567l25.723 4.6006-2.0797-1-23.05-4.829s-3.5659-1.0456-5.1256-1.1699z" fill-rule="evenodd"/>
      </g>
      <path id="path3465" filter="url(#filter3934)" d="m16.752 17.633 0.86352 1.0205 8.1642-9.8128c2.8062 0.34859 19.015 2.3378 19.155 3.1401 0.12638 0.72594-8.7922 11.932-8.7922 11.932l0.0785 0.94202 1.099-0.157 9.1847-12.325-0.31401-1.3345c-0.145-0.616-15.006-3.378-20.725-3.3759-1.919 0.8281-8.714 9.9699-8.714 9.9699z" fill-rule="evenodd" fill-opacity=".40357"/>
      <path id="path3467" opacity=".7" d="m67.368-6.2834c0 0.93016-0.75405 1.6842-1.6842 1.6842-0.93016 0-1.6842-0.75405-1.6842-1.6842 0-0.93016 0.75405-1.6842 1.6842-1.6842 0.93016 0 1.6842 0.75405 1.6842 1.6842z" transform="matrix(.68990 0 0 .67067 -8.3968 28.542)" fill-opacity=".40357"/>
      <g id="g3469" fill-rule="evenodd" transform="translate(.38866 -.32389)">
        <path id="path3471" stroke-width="0" d="m16.363 17.957 0.86352 1.0205 8.1642-9.8128c2.8062 0.34859 19.015 2.3378 19.155 3.1401 0.12638 0.72594-8.7922 11.932-8.7922 11.932l0.0785 0.94202 1.099-0.157 9.1847-12.325-0.31401-1.3345c-0.145-0.616-15.006-3.3781-20.725-3.376-1.918 0.8281-8.714 9.97-8.714 9.97z"/>
        <path id="path3473" d="m16.972 18.138 7.967-9.4578" stroke-opacity=".65357" filter="url(#filter3904)" stroke="#fff" stroke-width=".5"/>
        <path id="path3475" d="m36.534 24.615 8.907-12.243" stroke-opacity=".675" transform="matrix(.87605 0 0 .87605 4.4975 3.0821)" filter="url(#filter3904)" stroke="#fff" stroke-width=".5"/>
      </g>
      <path id="path3477" opacity=".7" d="m67.368-6.2834c0 0.93016-0.75405 1.6842-1.6842 1.6842-0.93016 0-1.6842-0.75405-1.6842-1.6842 0-0.93016 0.75405-1.6842 1.6842-1.6842 0.93016 0 1.6842 0.75405 1.6842 1.6842z" transform="matrix(.68990 0 0 .67067 -30.062 24.649)" fill-opacity=".40357"/>
      <path id="path3479" d="m67.368-6.2834c0 0.93016-0.75405 1.6842-1.6842 1.6842-0.93016 0-1.6842-0.75405-1.6842-1.6842 0-0.93016 0.75405-1.6842 1.6842-1.6842 0.93016 0 1.6842 0.75405 1.6842 1.6842z" transform="matrix(.48242 0 0 .46897 -16.371 23.309)"/>
    </g>
    <g id="g3296" transform="translate(0,106)">
      <g id="g3753" transform="matrix(.21615 0 0 .21615 -59.472 -.26436)">
        <path id="path2453" d="m387.42 80.002-32.219 12.767s-1.1737-8.9557-11.005-6.8127c-7.2523 1.5808-8.9057 12.631-10.097 13.731l-44.746 15.714 2.5286 17.435 95.933-42.565c-0.14242 0.11832 0.4925-10.664-0.39482-10.268z" fill="url(#linearGradient3233)" fill-rule="evenodd"/>
        <path id="path2451" d="m388.01 89.898-93.229 41.387 9.1523 66.341 84.637-20.153-0.56031-87.574zm-18.635 10.591-0.1875 52.208-8.4062 3.8438-0.009-52.378 8.6023-3.6734zm-14.156 5.3425 0.34375 53.896-8.4375 3.875-0.0668-54.178 8.1605-3.5938zm-14.183 6.9559 0.93322 53.347-9.25 4.5 0.64769-54.119 7.6691-3.7273zm-13.652 6.0668 0.96019 53.905-8.4375 3.875-1.0227-54.119 8.5-3.6605z" fill="url(#linearGradient3235)" fill-rule="evenodd"/>
        <path id="path2441" d="m389.76 79.937c-0.73767 0.22159-1.4554 0.48184-2.1875 0.71875v75.031l5.875 58.625 85-42.5 4.2812-72.5h0.0312l0.78125-5.9375-1.5 0.25c-30.745-4.61-61.436-9.9961-92.281-13.688zm33.125 16.812 23.688 2.5c0.00001-0.00001-0.68022 1.2903-1.6562 2.25-1.519 1.36-11.927 1.5134-19.969-0.4375-1.5592-0.99881-2.0625-4.3125-2.0625-4.3125z" fill="url(#linearGradient3237)" fill-rule="evenodd"/>
        <path id="path2386" d="m389.44 75.594c-1.6115 0.04237-3.2188 0.5-3.2188 0.5l-29.312 11.719c0.00001-0.000002-4.4819-7.8665-14.281-4.7812-9.37 2.947-10.63 13.937-10.63 13.937l-50.969 17.469c-0.00001 0-1.9466 0.83445-1.0625 2.1875 0.90296 1.382 3.25 1.4062 3.25 1.4062l103.28 18.16c-0.00001 0 3.1345 0.89118 4.3438 0.78125 1.2092-0.10993 4.0938-1.625 4.0938-1.625l40.031-16.75c-0.00001 0 2.6819-10.327 9.5312-13.188 6.9726-2.9117 10.25 3.6562 10.25 3.6562l35-14.656c0.00001 0.000003 2.8688-1.4746 1.7188-2.8438-1.0984-1.3076-5.2812-1.625-5.2812-1.625l-92.75-14.156c-0.0142 0.06206-1.7362-0.09759-3.3125-0.1875-0.22519-0.01284-0.45728-0.0061-0.6875 0zm-0.21875 4.0312c30.95 3.704 61.743 9.1297 92.594 13.75-7.7527 3.3646-15.638 6.4436-23.406 9.7812-2.1611 2.688-3.4798-0.33191-5.4375-1.375-9.4381-4.2373-18.481 4.6711-21.094 13.156-12.831 6.7882-27.65 11.752-41.219 17.906-33.284-5.7599-66.527-11.753-99.812-17.5 13.031-4.5949 26.218-8.8604 39.25-13.5 6.3671-1.271 6.007-6.0937 7.7188-9.8125 2.902-7.4062 15.492-7.498 17.25 0.78125 11.496-4.122 22.454-9.6722 34.156-13.188z" fill="url(#linearGradient3239)" fill-rule="evenodd"/>
        <path id="path3534" d="m467.36 115.38 0.72572 54.685-7.6816 3.8088-0.10787 0.64642 8.4118-3.7685 0.5625-0.21875-0.0312-0.5625-0.52697-55.323-1.3523 0.73286z" fill="url(#radialGradient3241)" fill-rule="evenodd"/>
        <path id="path2397" d="m486.76 106.02-92.312 43.219-0.375 68.906 86.469-45.438 6.2188-66.688zm-17.719 9.125-0.1875 54.406-8.4062 3.8438-0.375-53.844 8.9688-4.4062zm-14.156 6.625 0.34375 54.812-8.4375 3.875-0.25-55.094 8.3438-3.5938zm-14 6.4062 0.75 54.812-9.25 4.5 0.28125-55.219 8.2188-4.0938zm-13.469 6.25 0.59375 55.188-8.4375 3.875-0.65625-55.219 8.5-3.8438z" fill="url(#linearGradient3243)" fill-rule="evenodd"/>
        <path id="path2409" d="m299.72 197.8 85.013 20.52 1.4657-66.691-38.972-6.681s-3.535 6.0149-5.9074 5.6c-2.3538-0.41161-20.469-3.3717-23.493-4.2232-3.1786-0.89518-2.8019-7.7136-2.8019-7.7136l-29.963-5.3041 14.657 64.493z" fill="url(#linearGradient3245)" fill-rule="evenodd"/>
        <path id="path3530" d="m453.8 121.98 0.72572 54.685-7.6816 3.8088-0.10787 0.64642 8.4118-3.7685 0.5625-0.21875-0.0312-0.5625-0.52697-55.323-1.3523 0.73286z" fill="url(#radialGradient3247)" fill-rule="evenodd"/>
        <path id="path3526" d="m439.51 128.57 0.72572 54.685-7.6816 3.8088-0.10787 0.64642 8.4118-3.7685 0.5625-0.21875-0.0312-0.5625-0.52697-55.323-1.3523 0.73286z" fill="url(#radialGradient3249)" fill-rule="evenodd"/>
        <path id="path3506" d="m426.68 134.44 0.72572 54.685-7.6816 3.8088-0.10787 0.64642 8.4118-3.7685 0.5625-0.21875-0.0312-0.5625-0.52697-55.323-1.3523 0.73286z" fill="url(#radialGradient3251)" fill-rule="evenodd"/>
        <path id="path3538" opacity=".5" d="m486.06 106.41-92.707 43.075 0.55266 4.7115 91.974-46.525 0.18022-1.2616z" fill-rule="evenodd" filter="url(#filter3560)" fill="url(#linearGradient3253)"/>
        <path id="path2418" d="m489.23 94.932-35 14.656s-3.2774-6.5679-10.25-3.6562c-6.8494 2.8602-9.5313 13.188-9.5312 13.188l-40.031 16.75s-0.0603 0.0301-0.0625 0.0312v13.906l96-45.438c1.9304-13.874 3.4343-13.613-1.125-9.4375z" fill="url(#linearGradient3255)" fill-rule="evenodd"/>
        <path id="path3675" opacity=".7" d="m385.3 81.36-1.8138 50.267 6.996 1.2956 4.9231-2.0729 0.25911-50.267-6.2186-0.51822-4.1458 1.2955z" fill-rule="evenodd" filter="url(#filter3699)" fill="url(#linearGradient3257)"/>
        <path id="path3590" opacity=".7" d="m387.14 90.101-76.434 33.795-0.0768 3.7864 76.822-36.904-0.31187-0.67713z" fill-rule="evenodd" filter="url(#filter3616)" fill="url(#linearGradient3259)"/>
        <path id="path2420" d="m279.41 116.64 3.5312 16.531 103.66 19.188v-16.406c-0.49322-0.12437-1.125-0.28125-1.125-0.28125l-103.28-18.16s-1.7184-0.0157-2.7812-0.875z" fill="url(#linearGradient3261)" fill-rule="evenodd"/>
        <path id="path2455" d="m384.69 135.64 0.13234 16.586s4.7486 0.81125 6.1296 0.65678 6.0958-3.9187 6.0958-3.9187l-0.87527-13.98c-1.332 0.19643-3.9747 2.418-5.7593 1.9991l-5.7232-1.3433z" fill="url(#linearGradient3263)" fill-rule="evenodd"/>
        <path id="path2459" d="m385.31 152.14-0.62792 66.035s4.0639 1.2847 5.5907 1.1946c1.6589-0.0979 4.8418-1.5353 4.8418-1.5353l-0.41146-67.398c-1.3501 0.78349-2.1262 2.1434-4.2091 2.0172l-5.184-0.31397z" fill="url(#linearGradient3265)" fill-rule="evenodd"/>
        <path id="path3434" d="m389.44 75.594c-1.6115 0.04237-3.2188 0.5-3.2188 0.5l-29.312 11.719c0.00001-0.000002-4.4819-7.8665-14.281-4.7812-9.37 2.947-10.63 13.937-10.63 13.937l-50.969 17.469c-0.00001 0-1.9466 0.83445-1.0625 2.1875 0.90296 1.382 3.25 1.4062 3.25 1.4062l103.28 18.16c-0.00001 0 3.1345 0.89118 4.3438 0.78125 1.2092-0.10993 4.0938-1.625 4.0938-1.625l40.031-16.75c-0.00001 0 2.6819-10.327 9.5312-13.188 6.9726-2.9117 10.25 3.6562 10.25 3.6562l35-14.656c0.00001 0.000003 2.8688-1.4746 1.7188-2.8438-1.0984-1.3076-5.2812-1.625-5.2812-1.625l-92.75-14.156c-0.0142 0.06206-1.7362-0.09759-3.3125-0.1875-0.22519-0.01284-0.45728-0.0061-0.6875 0zm-0.21875 4.0312c30.95 3.704 61.743 9.1297 92.594 13.75-7.7527 3.3646-15.638 6.4436-23.406 9.7812-2.1611 2.688-3.4798-0.33191-5.4375-1.375-9.4381-4.2373-18.481 4.6711-21.094 13.156-12.831 6.7882-27.65 11.752-41.219 17.906-33.284-5.7599-66.527-11.753-99.812-17.5 13.031-4.5949 26.218-8.8604 39.25-13.5 6.3671-1.271 6.007-6.0937 7.7188-9.8125 2.902-7.4062 15.492-7.498 17.25 0.78125 11.496-4.122 22.454-9.6722 34.156-13.188z" fill="url(#linearGradient3267)" fill-rule="evenodd"/>
        <path id="path3472" d="m385.13 151.41-0.4447 66.768s4.0639 1.2847 5.5907 1.1946c1.6589-0.0979 4.8418-1.5353 4.8418-1.5353l-0.8695-67.948c-1.3501 0.78349-2.133 2.2275-4.2091 2.0172l-4.9092-0.49719z" fill="url(#linearGradient3269)" fill-rule="evenodd"/>
        <path id="path3484" d="m384.69 135.64 0.31556 15.487s4.0157 0.99447 5.3968 0.84c1.381-0.15447 6.6454-3.0026 6.6454-3.0026l-0.87527-13.98c-1.332 0.19643-3.9747 2.418-5.7593 1.9991l-5.7232-1.3433z" fill="url(#linearGradient3271)" fill-rule="evenodd"/>
        <path id="path3488" d="m280.15 117.38 3.5312 16.531 2.1875 0.40625 3.1875 14c45.059 11.391 80.931 33.86 96.688 58.375l1.1875-53.656 0.40625 0.0625v-16.406c-0.49321-0.12436-1.125-0.28125-1.125-0.28125l-103.29-18.16c0.00001 0.00001-1.7184-0.0157-2.7812-0.875zm35.625 22.469 32.125 5.9375c-0.17593 0.29644-3.533 5.9041-5.8438 5.5-2.3538-0.41161-20.476-3.3672-23.5-4.2188-2.805-0.78995-2.8115-5.9596-2.7812-7.2188z" fill="url(#linearGradient3273)" fill-rule="evenodd"/>
        <path id="path3620" opacity=".4" d="m385.35 151.49c0 7.6802 1.22 8.3937 5.6547 8.3937 4.4348 0 5.6547-3.4128 5.6547-11.093-0.16725-0.0717-1.0902 1.6963-5.838 2.9729-3.0404 0.0154-5.4607-0.18937-5.4715-0.27365z" transform="matrix(1 0 0 .80184 -.40438 29.948)" filter="url(#filter3671)" fill="#2e3436"/>
        <path id="path3564" opacity=".5" d="m285.3 133.42 0.30857 1.1999 100.12 20.935 0.24089-3.9518-100.67-18.183z" fill-rule="evenodd" filter="url(#filter3586)" fill="url(#linearGradient3275)"/>
        <path id="path3703" opacity=".7" d="m387.67 89.645 35.207 6.8371 40.484 4.9689 17.284-7.912s-84.704-13.395-88.615-13.474c-3.6525-0.0731-3.8866 0.25911-3.8866 0.25911l-0.47376 9.3206z" fill="url(#linearGradient3277)" fill-rule="evenodd"/>
        <path id="path3723" opacity=".5" d="m392 89.455c-0.87047-0.06941-1.7386-0.12129-3.042 0.08464-1.31 0.206-2.08 1.085-2.08 1.085l0.1875 0.96875s1.3523 0.18493 2.6341-0.01759 2.5875-0.32627 3.1807-0.27897c1.3676 0.10905 3.6403 0.55567 3.6403 0.55567l25.723 4.6006-2.0797-1-23.05-4.829s-3.5659-1.0456-5.1256-1.1699z" fill-rule="evenodd" filter="url(#filter3749)" fill="url(#linearGradient3279)"/>
      </g>
      <path id="path3921" filter="url(#filter3934)" d="m16.752 17.633 0.86352 1.0205 8.1642-9.8128c2.8062 0.34859 19.015 2.3378 19.155 3.1401 0.12638 0.72594-8.7922 11.932-8.7922 11.932l0.0785 0.94202 1.099-0.157 9.1847-12.325-0.31401-1.3345c-0.145-0.616-15.006-3.378-20.725-3.3759-1.919 0.8281-8.714 9.9699-8.714 9.9699z" fill-rule="evenodd" fill-opacity=".40357"/>
      <path id="path2512" opacity=".7" d="m67.368-6.2834c0 0.93016-0.75405 1.6842-1.6842 1.6842-0.93016 0-1.6842-0.75405-1.6842-1.6842 0-0.93016 0.75405-1.6842 1.6842-1.6842 0.93016 0 1.6842 0.75405 1.6842 1.6842z" transform="matrix(.68990 0 0 .67067 -8.3968 28.542)" fill-opacity=".40357"/>
      <g id="g3912" transform="translate(.38866 -.32389)">
        <path id="path3828" d="m16.363 17.957 0.86352 1.0205 8.1642-9.8128c2.8062 0.34859 19.015 2.3378 19.155 3.1401 0.12638 0.72594-8.7922 11.932-8.7922 11.932l0.0785 0.94202 1.099-0.157 9.1847-12.325-0.31401-1.3345c-0.145-0.616-15.006-3.3781-20.725-3.376-1.918 0.8281-8.714 9.97-8.714 9.97z" stroke-width="0" fill="url(#linearGradient3281)" fill-rule="evenodd"/>
        <path id="path3890" d="m16.972 18.138 7.967-9.4578" stroke-opacity=".65357" filter="url(#filter3904)" stroke="#fff" stroke-width=".5" fill="none"/>
        <path id="path3908" d="m36.534 24.615 8.907-12.243" stroke-opacity=".675" transform="matrix(.87605 0 0 .87605 4.4975 3.0821)" filter="url(#filter3904)" stroke="#fff" stroke-width=".5" fill="none"/>
      </g>
      <path id="path2514" opacity=".7" d="m67.368-6.2834c0 0.93016-0.75405 1.6842-1.6842 1.6842-0.93016 0-1.6842-0.75405-1.6842-1.6842 0-0.93016 0.75405-1.6842 1.6842-1.6842 0.93016 0 1.6842 0.75405 1.6842 1.6842z" transform="matrix(.68990 0 0 .67067 -30.062 24.649)" fill-opacity=".40357"/>
      <path id="path2516" d="m67.368-6.2834c0 0.93016-0.75405 1.6842-1.6842 1.6842-0.93016 0-1.6842-0.75405-1.6842-1.6842 0-0.93016 0.75405-1.6842 1.6842-1.6842 0.93016 0 1.6842 0.75405 1.6842 1.6842z" fill="url(#radialGradient3283)" transform="matrix(.48242 0 0 .46897 -16.371 23.309)"/>
    </g>
  </g>
  <metadata>
    <rdf:RDF>
      <cc:Work>
        <dc:format>image/svg+xml</dc:format>
        <dc:type rdf:resource="http://purl.org/dc/dcmitype/StillImage"/>
        <cc:license rdf:resource="http://creativecommons.org/licenses/publicdomain/"/>
        <dc:publisher>
          <cc:Agent rdf:about="http://openclipart.org/">
            <dc:title>Openclipart</dc:title>
          </cc:Agent>
        </dc:publisher>
        <dc:title>Shopping Basket</dc:title>
        <dc:date>2011-03-27T15:09:19</dc:date>
        <dc:description>basket, clip art, clipart, shopping, shopping basket, </dc:description>
        <dc:source>http://openclipart.org/detail/129439/shopping-basket-by-gnokii</dc:source>
        <dc:creator>
          <cc:Agent>
            <dc:title>gnokii</dc:title>
          </cc:Agent>
        </dc:creator>
        <dc:subject>
          <rdf:Bag>
            <rdf:li>basket</rdf:li>
            <rdf:li>clip art</rdf:li>
            <rdf:li>clipart</rdf:li>
            <rdf:li>shopping</rdf:li>
            <rdf:li>shopping basket</rdf:li>
          </rdf:Bag>
        </dc:subject>
      </cc:Work>
      <cc:License rdf:about="http://creativecommons.org/licenses/publicdomain/">
        <cc:permits rdf:resource="http://creativecommons.org/ns#Reproduction"/>
        <cc:permits rdf:resource="http://creativecommons.org/ns#Distribution"/>
        <cc:permits rdf:resource="http://creativecommons.org/ns#DerivativeWorks"/>
      </cc:License>
    </rdf:RDF>
  </metadata>
</svg>
