<?xml version="1.0" encoding="UTF-8" standalone="no"?>
<!-- Generator: Adobe Illustrator 16.0.3, SVG Export Plug-In . SVG Version: 6.00 Build 0)  -->

<svg
   xmlns:dc="http://purl.org/dc/elements/1.1/"
   xmlns:cc="http://creativecommons.org/ns#"
   xmlns:rdf="http://www.w3.org/1999/02/22-rdf-syntax-ns#"
   xmlns:svg="http://www.w3.org/2000/svg"
   xmlns="http://www.w3.org/2000/svg"
   xmlns:xlink="http://www.w3.org/1999/xlink"
   xmlns:sodipodi="http://sodipodi.sourceforge.net/DTD/sodipodi-0.dtd"
   xmlns:inkscape="http://www.inkscape.org/namespaces/inkscape"
   version="1.1"
   id="Layer_3"
   x="0px"
   y="0px"
   width="190.40152"
   height="184.92119"
   viewBox="0 0 190.40152 184.92119"
   xml:space="preserve"
   inkscape:version="0.91 r13725"
   sodipodi:docname="steampunk 1.svg"><metadata
     id="metadata19"><rdf:RDF><cc:Work
         rdf:about=""><dc:format>image/svg+xml</dc:format><dc:type
           rdf:resource="http://purl.org/dc/dcmitype/StillImage" /><dc:title></dc:title></cc:Work></rdf:RDF></metadata><defs
     id="defs17"><linearGradient
       inkscape:collect="always"
       id="linearGradient19799"><stop
         style="stop-color:#ffffff;stop-opacity:1;"
         offset="0"
         id="stop19801" /><stop
         id="stop19809"
         offset="0.76013309"
         style="stop-color:#c3c3c3;stop-opacity:1" /><stop
         id="stop19807"
         offset="0.89154816"
         style="stop-color:#494949;stop-opacity:1" /><stop
         style="stop-color:#282828;stop-opacity:1"
         offset="1"
         id="stop19803" /></linearGradient><linearGradient
       inkscape:collect="always"
       id="linearGradient19766"><stop
         style="stop-color:#2e2e2e;stop-opacity:1"
         offset="0"
         id="stop19768" /><stop
         style="stop-color:#1c1c1c;stop-opacity:1"
         offset="1"
         id="stop19770" /></linearGradient><linearGradient
       inkscape:collect="always"
       id="linearGradient19750"><stop
         style="stop-color:#9d9d9d;stop-opacity:1"
         offset="0"
         id="stop19752" /><stop
         id="stop19764"
         offset="0.48121068"
         style="stop-color:#6c6c6c;stop-opacity:1" /><stop
         style="stop-color:#2f2f2f;stop-opacity:1"
         offset="1"
         id="stop19754" /></linearGradient><linearGradient
       id="linearGradient19742"><stop
         offset="0"
         style="stop-color:#000000;stop-opacity:1"
         id="stop19744" /><stop
         offset="1"
         style="stop-color:#000000;stop-opacity:.49804"
         id="stop19746" /></linearGradient><linearGradient
       inkscape:collect="always"
       id="linearGradient4372"><stop
         style="stop-color:#f5d9d9;stop-opacity:1"
         offset="0"
         id="stop4374" /><stop
         style="stop-color:#f0c8c8;stop-opacity:1"
         offset="1"
         id="stop4376" /></linearGradient><pattern
       y="0"
       x="0"
       height="6"
       width="6"
       patternUnits="userSpaceOnUse"
       id="EMFhbasepattern" /><linearGradient
       inkscape:collect="always"
       xlink:href="#linearGradient4372"
       id="linearGradient4378"
       x1="357.34528"
       y1="288.05399"
       x2="444.48724"
       y2="421.87177"
       gradientUnits="userSpaceOnUse"
       gradientTransform="translate(-287.88828,-247.94207)" /><linearGradient
       id="linearGradient3935"><stop
         id="stop3937"
         style="stop-color:#000000;stop-opacity:.73563"
         offset="0" /><stop
         id="stop3939"
         style="stop-color:#000000;stop-opacity:.49804"
         offset=".69417" /><stop
         id="stop3941"
         style="stop-color:#000000;stop-opacity:0"
         offset="1" /></linearGradient><radialGradient
       inkscape:collect="always"
       xlink:href="#linearGradient19750"
       id="radialGradient19762"
       cx="357.56015"
       cy="203.67474"
       fx="357.56015"
       fy="203.67474"
       r="259.66687"
       gradientTransform="matrix(2.047806,-0.14354494,0.03624436,1.0502525,-397.26558,133.962)"
       gradientUnits="userSpaceOnUse" /><linearGradient
       inkscape:collect="always"
       xlink:href="#linearGradient19766"
       id="linearGradient19772"
       x1="184.81799"
       y1="462.93674"
       x2="911.76599"
       y2="555.54071"
       gradientUnits="userSpaceOnUse" /><linearGradient
       inkscape:collect="always"
       xlink:href="#linearGradient19766"
       id="linearGradient19778"
       gradientUnits="userSpaceOnUse"
       x1="184.81799"
       y1="462.93674"
       x2="911.76599"
       y2="555.54071" /><linearGradient
       inkscape:collect="always"
       xlink:href="#linearGradient19766"
       id="linearGradient19780"
       gradientUnits="userSpaceOnUse"
       x1="184.81799"
       y1="462.93674"
       x2="911.76599"
       y2="555.54071" /><linearGradient
       inkscape:collect="always"
       xlink:href="#linearGradient19799"
       id="linearGradient19805"
       x1="271.81677"
       y1="572.82874"
       x2="838.50055"
       y2="572.82874"
       gradientUnits="userSpaceOnUse" /></defs><sodipodi:namedview
     pagecolor="#ffffff"
     bordercolor="#666666"
     borderopacity="1"
     objecttolerance="10"
     gridtolerance="10"
     guidetolerance="10"
     inkscape:pageopacity="0"
     inkscape:pageshadow="2"
     inkscape:window-width="1366"
     inkscape:window-height="706"
     id="namedview15"
     showgrid="false"
     inkscape:zoom="2.3838384"
     inkscape:cx="137.15146"
     inkscape:cy="67.029548"
     inkscape:window-x="-8"
     inkscape:window-y="-8"
     inkscape:window-maximized="1"
     inkscape:current-layer="g26784"
     fit-margin-top="0"
     fit-margin-left="0"
     fit-margin-right="0"
     fit-margin-bottom="0" /><ellipse
     ry="19.428957"
     rx="20.615459"
     cy="82.064034"
     cx="32.494957"
     id="ellipse4364"
     style="opacity:1;fill:#f4d7d7;fill-opacity:1;stroke:#000000;stroke-width:1.79999995;stroke-linecap:round;stroke-linejoin:bevel;stroke-miterlimit:4;stroke-dasharray:none;stroke-dashoffset:0;stroke-opacity:1" /><ellipse
     style="opacity:1;fill:#f4d7d7;fill-opacity:1;stroke:#000000;stroke-width:1.79999995;stroke-linecap:round;stroke-linejoin:bevel;stroke-miterlimit:4;stroke-dasharray:none;stroke-dashoffset:0;stroke-opacity:1"
     id="path4353"
     cx="164.19662"
     cy="83.843788"
     rx="20.615459"
     ry="19.428957" /><path
     inkscape:connector-curvature="0"
     id="path4160"
     d="m 98.356759,35.432306 c -25.3074,0.0554 -49.25008,4.86737 -61.87534,27.60007 -12.68222,22.78807 -9.55437,49.281924 -1.5924,74.061324 2.50227,7.79888 6.93823,13.77249 11.99976,18.63989 12.85276,12.38897 33.83812,17.36698 51.86609,17.4223 l 0,0 c 0.11365,0 0.17061,0 0.28434,0 0.057,0 0.17062,0 0.28435,0 l 0,0 c 18.028211,-0.0554 37.648801,-5.03333 50.501681,-17.4223 5.06156,-4.8674 9.49752,-10.84101 11.99985,-18.63989 7.96122,-24.7794 11.03226,-51.273254 -1.5924,-74.061324 -12.62543,-22.7327 -36.56821,-27.54477 -61.875931,-27.60007 z"
     style="fill:url(#linearGradient4378);fill-opacity:1;fill-rule:nonzero;stroke:#1a1a1a;stroke-width:3.36512375px;stroke-linecap:round;stroke-linejoin:bevel;stroke-miterlimit:4;stroke-dasharray:none;stroke-opacity:1" /><path
     inkscape:connector-curvature="0"
     id="path4162"
     d="m 125.7687,137.42557 c 0,7.57765 -12.96665,13.66188 -29.004351,13.66188 -15.52561,0 -28.26471,-5.75236 -28.94717,-13.05344 z"
     style="fill:#000000;fill-opacity:1;fill-rule:nonzero;stroke:none" /><path
     inkscape:connector-curvature="0"
     id="path4164"
     d="m 125.7687,137.42557 c 0,7.57765 -12.96665,13.66188 -29.004351,13.66188 -15.52561,0 -28.26471,-5.75236 -28.94717,-13.05344"
     style="fill:none;stroke:#000000;stroke-width:0.67302477px;stroke-linecap:butt;stroke-linejoin:miter;stroke-miterlimit:4;stroke-dasharray:none;stroke-opacity:1" /><path
     inkscape:connector-curvature="0"
     id="path4166"
     d="m 101.6553,146.99443 c 3.41228,0.22133 6.19895,0.94028 7.56386,2.76555 -2.1611,0.27655 -4.20846,0.55312 -6.59706,0.66373 -0.51184,-1.60401 -2.1611,-2.37839 -4.322221,-3.26335 0.96683,-0.16593 2.104241,-0.27657 3.355421,-0.16593 z m -3.355421,0.16593 c -0.057,0.0554 -0.11365,0.0554 -0.11365,0.0554 2.104241,0.88496 5.857741,3.15274 4.265341,3.31867 -4.606571,0.5531 -9.611231,0.4978 -14.729641,-0.11053 -0.73912,-0.0554 -1.47843,-0.16594 -2.21776,-0.27658 0.68245,-2.5443 4.32198,-4.20363 8.70108,-3.92708 1.47865,0.11053 2.84356,0.4978 4.09474,0.94028 z"
     style="fill:#ff0000;fill-opacity:1;fill-rule:nonzero;stroke:#000000;stroke-width:0.84128094px;stroke-linecap:butt;stroke-linejoin:miter;stroke-miterlimit:4;stroke-dasharray:none;stroke-opacity:1" /><path
     inkscape:connector-curvature="0"
     id="path4168"
     d="m 129.18097,97.988686 c -13.36472,0.66373 -24.85273,-9.18144 -24.85273,-9.18144 0,0 10.06621,-15.81893 23.43097,-16.48259 13.36473,-0.60844 26.50199,6.25008 26.50199,6.25008 0,0 -11.71547,18.75021 -25.08023,19.41395 z"
     style="fill:#ffffff;fill-opacity:1;fill-rule:nonzero;stroke:#000000;stroke-width:0.89736629px;stroke-linecap:butt;stroke-linejoin:miter;stroke-miterlimit:4;stroke-dasharray:none;stroke-opacity:1" /><path
     inkscape:connector-curvature="0"
     id="path4170"
     d="m 124.8019,94.835946 c -4.72031,0.22133 -8.70131,-2.87619 -8.9288,-6.969 -0.22758,-4.0377 3.35542,-7.52223 8.07573,-7.74349 4.66345,-0.22133 8.64442,2.87612 8.87191,6.91382 0.22758,4.09304 -3.35539,7.57742 -8.01884,7.79867 z"
     style="fill:#241c1c;fill-opacity:1;fill-rule:nonzero;stroke:#000000;stroke-width:0.78519553px;stroke-linecap:butt;stroke-linejoin:miter;stroke-miterlimit:4;stroke-dasharray:none;stroke-opacity:1" /><path
     inkscape:connector-curvature="0"
     id="path4172"
     d="m 107.74052,114.58205 c 0,1.88059 -2.21798,3.65054 -5.74399,4.59082 -3.582891,0.94031 -7.962001,0.94031 -11.544891,0 -3.52579,-0.94028 -5.74377,-2.71023 -5.74377,-4.59082"
     style="fill:none;stroke:#000000;stroke-width:1.06562257px;stroke-linecap:round;stroke-linejoin:bevel;stroke-miterlimit:4;stroke-dasharray:none;stroke-opacity:1" /><path
     inkscape:connector-curvature="0"
     id="path4174"
     d="m 67.248539,97.712136 c 13.3646,0.88496 24.96612,-8.79427 24.96612,-8.79427 0,0 -9.78162,-15.92955 -23.20318,-16.81446 -13.36459,-0.82967 -26.61551,5.86292 -26.61551,5.86292 0,0 11.43104,18.91614 24.85257,19.74581 z"
     style="fill:#ffffff;fill-opacity:1;fill-rule:nonzero;stroke:#000000;stroke-width:0.89736629px;stroke-linecap:butt;stroke-linejoin:miter;stroke-miterlimit:4;stroke-dasharray:none;stroke-opacity:1" /><path
     inkscape:connector-curvature="0"
     id="path4176"
     d="m 71.513829,94.835946 c 4.66343,0.27655 8.70123,-2.76555 8.98558,-6.80307 0.34122,-4.09302 -3.24159,-7.63287 -7.90504,-7.90942 -4.7203,-0.27654 -8.70122,2.76548 -9.04245,6.8032 -0.28435,4.03773 3.29854,7.57742 7.96191,7.90929 z"
     style="fill:#241c1c;fill-opacity:1;fill-rule:nonzero;stroke:#000000;stroke-width:0.78519553px;stroke-linecap:butt;stroke-linejoin:miter;stroke-miterlimit:4;stroke-dasharray:none;stroke-opacity:1" /><path
     inkscape:connector-curvature="0"
     id="path4206"
     d="m 169.72943,51.638406 c -4.43596,86.340284 -4.5497,87.059344 -4.5497,87.059344 z"
     style="fill:#483737;fill-opacity:1;fill-rule:nonzero;stroke:none" /><path
     style="opacity:1;fill:#483737;fill-opacity:1;stroke:#000000;stroke-width:1.18033409;stroke-linecap:round;stroke-linejoin:bevel;stroke-miterlimit:4;stroke-dasharray:none;stroke-dashoffset:0;stroke-opacity:1"
     d="m 99.391641,34.541507 c -11.321395,-0.0871 -22.498361,0.837546 -32.306512,2.672652 -18.489576,3.463067 -21.426622,10.222328 -24.873907,13.121648 -3.447285,2.89932 -7.733296,8.050456 -7.733296,8.050456 l 1.005552,-0.0066 -10.998581,9.70606 25.681584,-2.886115 3.77814,11.056543 22.764513,-6.460542 8.468109,9.96091 14.01524,-10.185263 20.093467,7.765282 6.80456,-9.893383 21.12829,5.125304 -1.19496,-9.973978 24.9084,0.823359 -12.15838,-8.882699 0.86106,0 c -0.0159,-0.125666 -0.0354,-0.251282 -0.0586,-0.376829 l 2.04624,-0.246136 -2.08334,0 C 158.88727,46.996482 147.25577,40.681152 128.785,37.214174 119.83251,35.539207 109.72538,34.620194 99.391651,34.541522 Z"
     id="path4340"
     inkscape:connector-curvature="0"
     sodipodi:nodetypes="cczcccccccccccccccccccc" /><g
     id="g4147"
     transform="matrix(0.41152587,0,0,0.33232023,-26.895941,-106.1326)" /><rect
     transform="matrix(-0.99137973,-0.13101998,-0.13101998,0.99137973,0,0)"
     y="47.190739"
     x="-163.03102"
     height="11.116526"
     width="47.192799"
     id="rect4386"
     style="opacity:1;fill:#483737;fill-opacity:1;stroke:#000000;stroke-width:1.79999995;stroke-linecap:round;stroke-linejoin:bevel;stroke-miterlimit:4;stroke-dasharray:none;stroke-dashoffset:0;stroke-opacity:1" /><g
     id="g28107"
     transform="matrix(0.81645166,-0.02610646,0.05308397,1.6601444,11.32788,-102.20585)"><path
       sodipodi:nodetypes="czcczc"
       inkscape:connector-curvature="0"
       id="path4390"
       d="m 97.891072,173.7557 c 0,0 39.570958,-1.97635 45.344498,-8.6513 5.77355,-6.67494 0.2984,-6.78376 0.2984,-6.78376 l -91.9178,-1.2113 c 0,0 -5.73856,-0.84373 -0.256685,6.28623 5.481875,7.12997 46.531587,10.36013 46.531587,10.36013 z"
       style="opacity:1;fill:#483737;fill-opacity:1;stroke:#000000;stroke-width:1.4761827;stroke-linecap:round;stroke-linejoin:bevel;stroke-miterlimit:4;stroke-dasharray:none;stroke-dashoffset:0;stroke-opacity:1" /><g
       id="g28084"><g
         id="g4708"
         transform="matrix(1,0,0,-1,-287.88828,544.82481)"><path
           inkscape:tile-h="5.9774872"
           inkscape:tile-w="4.2075885"
           inkscape:tile-cy="381.73728"
           inkscape:tile-cx="341.88559"
           style="fill:none;fill-rule:evenodd;stroke:#000000;stroke-width:1.0866195px;stroke-linecap:butt;stroke-linejoin:miter;stroke-opacity:1"
           d="m 342.54257,379.8909 c -3.35012,6.45023 -3.35012,6.45023 -3.35012,6.45023"
           id="use4405"
           inkscape:connector-curvature="0"
           inkscape:tile-x0="339.7818"
           inkscape:tile-y0="378.74854" /><use
           id="use4530"
           xlink:href="#use4405"
           inkscape:tiled-clone-of="#use4405"
           y="0"
           x="0"
           width="100%"
           height="100%" /><use
           id="use4532"
           transform="matrix(1,0,0,1.1,5.0403506,-38.665107)"
           xlink:href="#use4405"
           inkscape:tiled-clone-of="#use4405"
           y="0"
           x="0"
           width="100%"
           height="100%" /><use
           id="use4534"
           transform="matrix(1,0,0,1.2,10.080701,-77.330215)"
           xlink:href="#use4405"
           inkscape:tiled-clone-of="#use4405"
           y="0"
           x="0"
           width="100%"
           height="100%" /><use
           id="use4536"
           transform="matrix(1,0,0,1.3,15.121052,-115.99533)"
           xlink:href="#use4405"
           inkscape:tiled-clone-of="#use4405"
           y="0"
           x="0"
           width="100%"
           height="100%" /><use
           id="use4538"
           transform="matrix(1,0,0,1.4,20.161403,-154.66043)"
           xlink:href="#use4405"
           inkscape:tiled-clone-of="#use4405"
           y="0"
           x="0"
           width="100%"
           height="100%" /><use
           id="use4540"
           transform="matrix(1,0,0,1.5,25.201753,-193.32553)"
           xlink:href="#use4405"
           inkscape:tiled-clone-of="#use4405"
           y="0"
           x="0"
           width="100%"
           height="100%" /><use
           id="use4542"
           transform="matrix(1,0,0,1.6,30.242103,-231.99064)"
           xlink:href="#use4405"
           inkscape:tiled-clone-of="#use4405"
           y="0"
           x="0"
           width="100%"
           height="100%" /><use
           id="use4544"
           transform="matrix(1,0,0,1.7,35.282454,-270.65576)"
           xlink:href="#use4405"
           inkscape:tiled-clone-of="#use4405"
           y="0"
           x="0"
           width="100%"
           height="100%" /></g><path
         style="fill:#000000;fill-opacity:0;fill-rule:evenodd;stroke:#000000;stroke-width:0.96544075px;stroke-linecap:butt;stroke-linejoin:miter;stroke-opacity:1"
         d="m 94.313429,170.64902 c 0,-10.71771 0,-10.45945 0,-10.45945 l 0.31755,0.0646 0,0"
         id="path4577"
         inkscape:connector-curvature="0" /><g
         id="g4719"
         transform="matrix(-1,0,0,-1,478.66562,546.30794)"><path
           inkscape:tile-y0="378.74854"
           inkscape:tile-x0="339.7818"
           inkscape:connector-curvature="0"
           id="path4721"
           d="m 342.54257,379.8909 c -3.35012,6.45023 -3.35012,6.45023 -3.35012,6.45023"
           style="fill:none;fill-rule:evenodd;stroke:#000000;stroke-width:1.0866195px;stroke-linecap:butt;stroke-linejoin:miter;stroke-opacity:1"
           inkscape:tile-cx="341.88559"
           inkscape:tile-cy="381.73728"
           inkscape:tile-w="4.2075885"
           inkscape:tile-h="5.9774872" /><use
           height="100%"
           width="100%"
           x="0"
           y="0"
           inkscape:tiled-clone-of="#use4405"
           xlink:href="#use4405"
           id="use4723" /><use
           height="100%"
           width="100%"
           x="0"
           y="0"
           inkscape:tiled-clone-of="#use4405"
           xlink:href="#use4405"
           transform="matrix(1,0,0,1.1,5.0403506,-38.665107)"
           id="use4725" /><use
           height="100%"
           width="100%"
           x="0"
           y="0"
           inkscape:tiled-clone-of="#use4405"
           xlink:href="#use4405"
           transform="matrix(1,0,0,1.2,10.080701,-77.330215)"
           id="use4727" /><use
           height="100%"
           width="100%"
           x="0"
           y="0"
           inkscape:tiled-clone-of="#use4405"
           xlink:href="#use4405"
           transform="matrix(1,0,0,1.3,15.121052,-115.99533)"
           id="use4729" /><use
           height="100%"
           width="100%"
           x="0"
           y="0"
           inkscape:tiled-clone-of="#use4405"
           xlink:href="#use4405"
           transform="matrix(1,0,0,1.4,20.161403,-154.66043)"
           id="use4731" /><use
           height="100%"
           width="100%"
           x="0"
           y="0"
           inkscape:tiled-clone-of="#use4405"
           xlink:href="#use4405"
           transform="matrix(1,0,0,1.5,25.201753,-193.32553)"
           id="use4733" /><use
           height="100%"
           width="100%"
           x="0"
           y="0"
           inkscape:tiled-clone-of="#use4405"
           xlink:href="#use4405"
           transform="matrix(1,0,0,1.6,30.242103,-231.99064)"
           id="use4735" /><use
           height="100%"
           width="100%"
           x="0"
           y="0"
           inkscape:tiled-clone-of="#use4405"
           xlink:href="#use4405"
           transform="matrix(1,0,0,1.7,35.282454,-270.65576)"
           id="use4737" /></g></g></g><rect
     style="opacity:1;fill:#483737;fill-opacity:1;stroke:#000000;stroke-width:1.79999995;stroke-linecap:round;stroke-linejoin:bevel;stroke-miterlimit:4;stroke-dasharray:none;stroke-dashoffset:0;stroke-opacity:1"
     id="rect4189"
     width="47.192799"
     height="11.116526"
     x="31.770664"
     y="72.93557"
     transform="matrix(0.99137973,-0.13101998,0.13101998,0.99137973,0,0)" /><path
     sodipodi:nodetypes="sssss"
     inkscape:connector-curvature="0"
     id="path19830"
     d="m 153.30805,146.43105 c 0,0 -0.87905,2.978 5.05454,2.34481 7.77757,-0.82998 9.95065,-20.89165 9.95065,-20.89165 1.70636,-20.26159 -0.21008,-66.049921 -4.0182,-65.467684 -6.80826,1.040938 4.82008,34.530512 -10.98699,84.014524 z"
     style="opacity:1;fill:#483737;fill-opacity:1;stroke:#000000;stroke-width:1.70000017;stroke-linecap:round;stroke-miterlimit:4;stroke-dasharray:none;stroke-opacity:1" /><path
     style="opacity:1;fill:#483737;fill-opacity:1;stroke:#000000;stroke-width:1.70000017;stroke-linecap:round;stroke-miterlimit:4;stroke-dasharray:none;stroke-opacity:1"
     d="m 41.365343,144.3928 c 0,0 0.73792,2.90576 -4.243041,2.28792 -6.528892,-0.80984 -8.353084,-20.3848 -8.353084,-20.3848 -1.43241,-19.77004 0.176347,-64.447526 3.373079,-63.879414 5.715205,1.015684 -4.046225,33.692787 9.223046,81.976294 z"
     id="path19832"
     inkscape:connector-curvature="0"
     sodipodi:nodetypes="sssss" /><g
     transform="matrix(0.23095175,0,0,0.16204857,-29.628164,-37.930334)"
     id="g3897"><path
       inkscape:connector-curvature="0"
       id="path3650"
       sodipodi:nodetypes="cszscc"
       style="opacity:1;fill:url(#radialGradient19762);fill-opacity:1;stroke:#000000;stroke-width:5.16912222px;stroke-opacity:1"
       d="m 831.049,628.32252 c -1.55387,-61.99433 6.65021,-122.93829 1.45057,-188.58086 C 826.76956,367.40542 787.33161,235.8151 552.53458,236.65625 317.74403,237.50352 283.69875,376.59021 282.72819,439.74166 l -2.90113,188.58086 c 191.27687,-32.82884 371.51087,-24.96726 551.22723,0 z" /><path
       inkscape:connector-curvature="0"
       id="path3061"
       sodipodi:nodetypes="cscsccszz"
       style="fill:#000000;fill-opacity:1"
       d="m 537.83159,606.81325 c 112.19736,0.68222 189.023,2.12062 281.39925,-9.56833 60.96876,-7.71489 125.47253,-2.67919 125.47253,-2.67919 -0.28679,0.17906 13.59978,0.65572 4.98192,6.32072 -21.58538,14.18983 -62.5001,33.36082 -139.15751,41.159 -185.82013,9.22387 -369.2462,7.72164 -551.19485,-0.38274 -44.43679,-1.61884 -76.13546,-16.03201 -106.61337,-31.02163 -26.91378,-13.23694 -37.64391,-32.84919 16.68079,-23.34728 53.34227,9.32968 256.22925,18.83778 368.43739,19.51995 z" /><path
       inkscape:connector-curvature="0"
       id="path2995"
       sodipodi:nodetypes="ccccc"
       style="fill:url(#linearGradient19805);fill-opacity:1;stroke:#000000;stroke-width:5.16912222px"
       d="m 277.99415,584.84727 -3.2886,-25.05784 c 182.41237,-29.63029 360.83465,-28.91207 560.85739,0.003 l -3.64922,24.57688 c -192.17195,34.93496 -377.1725,27.23083 -553.92324,0.47846 z" /><g
       id="g3793"
       transform="matrix(1.078406,0,0,1.1510905,-43.849798,-23.120804)"
       style="fill:url(#linearGradient19772);fill-opacity:1"><path
         inkscape:connector-curvature="0"
         id="path3791"
         sodipodi:nodetypes="cscssczz"
         style="fill:url(#linearGradient19778);fill-opacity:1"
         d="m 541.41,545.47 c 122.91,0.1047 226.2,-18.586 305.85,-36.382 53.219,-11.89 76.843,34.357 76.843,34.357 -62.383,-11.29 -167.69,28.892 -383.36,25.87 -99.866,-1.3996 -287.3,-23.264 -351.79,-40.034 -12.896,-3.3535 -23.782,3.8413 -27.633,10.723 -3.0487,0 -8.0723,-40.766 46.41,-30.38 54.483,10.386 210.77,35.741 333.68,35.845 z" /><path
         inkscape:connector-curvature="0"
         id="path3042"
         sodipodi:nodetypes="cscssczz"
         style="fill:url(#linearGradient19780);fill-opacity:1"
         d="m 541.41,545.47 c 122.91,0.1047 226.2,-18.586 305.85,-36.382 53.219,-11.89 76.843,34.357 76.843,34.357 -62.383,-11.29 -167.69,28.892 -383.36,25.87 -99.866,-1.3996 -287.3,-23.264 -351.79,-40.034 -12.896,-3.3535 -23.782,3.8413 -27.633,10.723 -3.0487,0 -8.0723,-40.766 46.41,-30.38 54.483,10.386 210.77,35.741 333.68,35.845 z" /></g><path
       style="fill:none;fill-rule:evenodd;stroke:#000000;stroke-width:4.56567717px;stroke-linecap:butt;stroke-linejoin:miter;stroke-opacity:1"
       d="m 537.28925,464.70862 c 4.42014,-1.06268 8.87263,-1.44996 13.25578,-1.0153 2.12706,0.21093 3.93958,0.86784 6.07557,0.43608 0.55233,-0.11164 1.65698,-1.9991 1.65698,-0.33493 0,3.54662 -3.401,-1.50128 -3.86627,-4.21101"
       id="path19819"
       inkscape:connector-curvature="0" /><g
       id="g26784"><path
         sodipodi:nodetypes="cc"
         style="fill:none;fill-rule:evenodd;stroke:#000000;stroke-width:12.40589237;stroke-linecap:butt;stroke-linejoin:miter;stroke-miterlimit:4;stroke-dasharray:none;stroke-opacity:1"
         d="m 798.38385,439.0891 31.31819,-18.02991"
         id="path19821"
         inkscape:connector-curvature="0" /><g
         transform="translate(711.31534,168.31411)"
         id="g19844"><ellipse
           ry="105.73283"
           rx="102.86927"
           cy="303.51926"
           cx="-27.283266"
           id="ellipse19834"
           style="opacity:1;fill:#fb0000;fill-opacity:0.48603354;stroke:#000000;stroke-width:8.78750706;stroke-linecap:round;stroke-miterlimit:4;stroke-dasharray:none;stroke-opacity:1" /><g
           id="g19861"><ellipse
             ry="124.25108"
             rx="120.63414"
             cy="305.34973"
             cx="-28.607922"
             id="ellipse19840"
             style="opacity:1;fill:#323232;fill-opacity:1;stroke:#000000;stroke-width:8.78750706;stroke-linecap:round;stroke-miterlimit:4;stroke-dasharray:none;stroke-opacity:1" /><ellipse
             ry="105.73283"
             rx="102.86927"
             cy="303.51926"
             cx="-27.283266"
             id="ellipse19842"
             style="opacity:1;fill:#750000;fill-opacity:0.78770949;stroke:#000000;stroke-width:8.78750706;stroke-linecap:round;stroke-miterlimit:4;stroke-dasharray:none;stroke-opacity:1" /><ellipse
             style="opacity:1;fill:#323232;fill-opacity:1;stroke:#000000;stroke-width:8.78750706;stroke-linecap:round;stroke-miterlimit:4;stroke-dasharray:none;stroke-opacity:1"
             id="ellipse19857"
             cx="-285.48001"
             cy="305.34973"
             rx="120.63414"
             ry="124.25108" /><ellipse
             style="opacity:1;fill:#750000;fill-opacity:0.78770949;stroke:#000000;stroke-width:8.78750706;stroke-linecap:round;stroke-miterlimit:4;stroke-dasharray:none;stroke-opacity:1"
             id="ellipse19859"
             cx="-284.15536"
             cy="303.51926"
             rx="102.86927"
             ry="105.73283" /></g></g><path
         inkscape:connector-curvature="0"
         id="path26782"
         d="M 309.46932,433.71413 284.06421,419.11229"
         style="fill:none;fill-rule:evenodd;stroke:#000000;stroke-width:12.40589237;stroke-linecap:butt;stroke-linejoin:miter;stroke-miterlimit:4;stroke-dasharray:none;stroke-opacity:1"
         sodipodi:nodetypes="cc" /></g></g><path
     style="fill:none;fill-rule:evenodd;stroke:#000000;stroke-width:0.56561059;stroke-linecap:round;stroke-linejoin:miter;stroke-miterlimit:4;stroke-dasharray:none;stroke-opacity:1"
     d="m 33.122354,139.02804 c 3.953959,0 4.481152,0 4.481152,0"
     id="path28132"
     inkscape:connector-curvature="0" /><path
     inkscape:connector-curvature="0"
     id="path28134"
     d="m 31.654134,133.05029 c 3.953959,0 4.481152,0 4.481152,0"
     style="fill:none;fill-rule:evenodd;stroke:#000000;stroke-width:0.56561059;stroke-linecap:round;stroke-linejoin:miter;stroke-miterlimit:4;stroke-dasharray:none;stroke-opacity:1" /><path
     style="fill:none;fill-rule:evenodd;stroke:#000000;stroke-width:0.56561059;stroke-linecap:round;stroke-linejoin:miter;stroke-miterlimit:4;stroke-dasharray:none;stroke-opacity:1"
     d="m 30.395659,126.75792 c 3.953959,0 4.481152,0 4.481152,0"
     id="path28136"
     inkscape:connector-curvature="0" /><path
     inkscape:connector-curvature="0"
     id="path28138"
     d="m 163.01895,139.02804 c -3.95396,0 -4.48116,0 -4.48116,0"
     style="fill:none;fill-rule:evenodd;stroke:#000000;stroke-width:0.56561059;stroke-linecap:round;stroke-linejoin:miter;stroke-miterlimit:4;stroke-dasharray:none;stroke-opacity:1" /><path
     style="fill:none;fill-rule:evenodd;stroke:#000000;stroke-width:0.56561059;stroke-linecap:round;stroke-linejoin:miter;stroke-miterlimit:4;stroke-dasharray:none;stroke-opacity:1"
     d="m 164.48717,133.05029 c -3.95396,0 -4.48116,0 -4.48116,0"
     id="path28140"
     inkscape:connector-curvature="0" /><path
     inkscape:connector-curvature="0"
     id="path28142"
     d="m 165.74564,126.75792 c -3.95396,0 -4.48115,0 -4.48115,0"
     style="fill:none;fill-rule:evenodd;stroke:#000000;stroke-width:0.56561059;stroke-linecap:round;stroke-linejoin:miter;stroke-miterlimit:4;stroke-dasharray:none;stroke-opacity:1" /></svg>