<?xml version="1.0" encoding="UTF-8" standalone="no"?>
<!-- Created with Inkscape (http://www.inkscape.org/) -->

<svg
   xmlns:dc="http://purl.org/dc/elements/1.1/"
   xmlns:cc="http://creativecommons.org/ns#"
   xmlns:rdf="http://www.w3.org/1999/02/22-rdf-syntax-ns#"
   xmlns:svg="http://www.w3.org/2000/svg"
   xmlns="http://www.w3.org/2000/svg"
   xmlns:xlink="http://www.w3.org/1999/xlink"
   xmlns:sodipodi="http://sodipodi.sourceforge.net/DTD/sodipodi-0.dtd"
   xmlns:inkscape="http://www.inkscape.org/namespaces/inkscape"
   width="660.14526"
   height="577.505"
   id="svg2"
   version="1.1"
   inkscape:version="0.92.3 (2405546, 2018-03-11)"
   sodipodi:docname="rocket-3.svg">
  <defs
     id="defs4">
    <linearGradient
       inkscape:collect="always"
       id="linearGradient4118">
      <stop
         style="stop-color:#ffffff;stop-opacity:1;"
         offset="0"
         id="stop4120" />
      <stop
         style="stop-color:#ffffff;stop-opacity:0;"
         offset="1"
         id="stop4122" />
    </linearGradient>
    <linearGradient
       inkscape:collect="always"
       id="linearGradient3835">
      <stop
         style="stop-color:#d54800;stop-opacity:1"
         offset="0"
         id="stop3837" />
      <stop
         style="stop-color:#ff5555;stop-opacity:0;"
         offset="1"
         id="stop3839" />
    </linearGradient>
    <linearGradient
       inkscape:collect="always"
       xlink:href="#linearGradient3835"
       id="linearGradient4107"
       gradientUnits="userSpaceOnUse"
       gradientTransform="matrix(0.55428588,0.83232636,-0.67361452,0.44859209,403.82917,16.105617)"
       x1="373.12918"
       y1="561.1463"
       x2="373.12918"
       y2="877.05011" />
    <linearGradient
       inkscape:collect="always"
       xlink:href="#linearGradient4118"
       id="linearGradient4124"
       x1="225.74922"
       y1="398.26691"
       x2="64.661842"
       y2="135.08186"
       gradientUnits="userSpaceOnUse" />
  </defs>
  <sodipodi:namedview
     id="base"
     pagecolor="#ffffff"
     bordercolor="#666666"
     borderopacity="1.0"
     inkscape:pageopacity="0.0"
     inkscape:pageshadow="2"
     inkscape:zoom="0.88150912"
     inkscape:cx="293.9134"
     inkscape:cy="316.71225"
     inkscape:document-units="px"
     inkscape:current-layer="layer1"
     showgrid="false"
     inkscape:window-width="1920"
     inkscape:window-height="1017"
     inkscape:window-x="-4"
     inkscape:window-y="9"
     inkscape:window-maximized="1"
     fit-margin-top="0"
     fit-margin-left="0"
     fit-margin-right="0"
     fit-margin-bottom="0"
     showborder="false" />
  <metadata
     id="metadata7">
    <rdf:RDF>
      <cc:Work
         rdf:about="">
        <dc:format>image/svg+xml</dc:format>
        <dc:type
           rdf:resource="http://purl.org/dc/dcmitype/StillImage" />
        <dc:title></dc:title>
      </cc:Work>
    </rdf:RDF>
  </metadata>
  <g
     inkscape:label="Ebene 1"
     inkscape:groupmode="layer"
     id="layer1"
     transform="translate(85.601196,-197.96253)"
     style="display:inline">
    <g
       id="g878">
      <path
         inkscape:connector-curvature="0"
         id="path3880"
         d="m 494.42892,289.09847 c -44.43163,2.8385 -85.85913,22.10543 -122.09375,46.9375 -54.2165,-22.29249 -119.33707,-19.42414 -169.375,12 18.31991,-0.62858 36.21087,7.99492 47.47699,22.43021 7.68811,10.3742 14.33339,21.40456 20.49176,32.72604 -6.79526,4.82967 -10.40189,12.93884 -12.84375,20.375 -14.27694,7.97358 -16.95331,27.11642 -12.09557,41.47619 8.43235,37.42098 32.03439,70.23524 61.84557,93.64881 10.6352,7.64677 25.53136,14.26241 38.21875,7.71875 3.59102,-3.28681 1.93898,2.75486 1.65625,4.875 -0.73971,6.47394 -6.12849,11.93897 -6.03125,18.5 1.3549,7.35209 11.89887,9.55616 16.53248,3.88751 24.29937,-17.43716 45.04368,-39.45407 61.56127,-64.38751 46.71877,-31.86699 99.08563,-59.76516 132.08462,-107.15506 16.89182,-23.0964 28.41802,-53.41898 19.70316,-82.02521 -7.84399,-26.9096 -33.2163,-46.88156 -60.94403,-50.03848 -5.30783,-0.83025 -10.77656,-1.11008 -16.1875,-0.96875 z"
         style="fill:#000000;fill-opacity:1;stroke:none" />
      <path
         inkscape:connector-curvature="0"
         id="path3970"
         d="m 234.2469,1.7617898 c -5.60873,9.7541062 -11.09679,19.5082582 -16.84271,29.2103852 -72.46806,0 -144.936132,0 -217.4041924375,0 C 4.5733643,48.465729 -3.3888863,68.940528 8.06897,84.459948 c 10.775096,27.712592 6.290128,58.600482 4.07594,87.515112 -4.5724757,31.12083 -15.7638036,62.4846 -8.6379186,94.1079 6.4708508,35.86782 27.1610206,69.52666 56.6050886,90.78409 -5.7072,7.35348 -4.75021,19.9916 4.157812,24.41833 -7.871416,11.13871 -12.24823,25.403 -8.949865,39.00591 15.039144,-2.46055 26.699315,-13.44379 35.306159,-25.33446 27.470924,14.77574 54.987344,29.45829 82.345804,44.4322 39.52084,-21.50253 79.15108,-42.80607 118.84992,-63.98801 1.4879,-6.84077 -3.545,-13.27622 -5.84902,-18.32256 46.80168,-34.43317 70.48694,-98.86201 53.33905,-155.12933 -7.55532,-36.53365 -12.37421,-75.02135 -3.58626,-111.745765 3.65279,-10.19997 10.67399,-19.802219 8.98505,-31.254054 -0.90891,-7.310148 0.018,-14.799846 -0.17624,-21.916598 -3.0182,-8.626801 -14.03214,-5.954865 -21.00047,-6.201481 -8.1121,-0.346325 -17.28217,1.935178 -24.77063,-1.409428 C 290.20321,23.157688 279.44341,21.567911 270.52162,15.961783 258.78774,10.603433 247.02579,5.3070186 235.26868,5.375e-6 L 234.703,0.97536303 Z"
         style="display:inline;fill:#000000;fill-opacity:1;stroke:none"
         transform="translate(-54.166402,197.96252)" />
      <g
         id="g4126"
         style="display:inline"
         transform="translate(-54.166402,197.96252)">
        <path
           style="fill:#0000d4;fill-opacity:1;stroke:none"
           d="m 15.102904,44.517901 v 25.074312 c 15.240737,17.11938 17.9732,72.225507 5.285353,133.709207 -1.590691,7.70828 -3.371136,15.18921 -5.285353,22.40748 v 17.71755 c 0,45.09271 24.984155,85.13066 63.56518,110.16756 l -9.090807,14.77483 103.381573,55.60489 103.41674,-55.60489 -9.0908,-14.77483 c 38.58099,-25.0369 63.56518,-65.07485 63.56518,-110.16756 V 225.7089 c -1.91423,-7.21827 -3.69462,-14.6992 -5.28536,-22.40748 -12.68789,-61.4837 -9.9554,-116.589827 5.28536,-133.709207 V 44.517901 Z"
           id="rect3923"
           inkscape:connector-curvature="0"
           sodipodi:nodetypes="ccscscccccscsccc" />
        <circle
           style="fill:#80b3ff;fill-opacity:1;stroke:none"
           id="path3948"
           transform="matrix(1.6465657,-0.74990113,0.74990113,1.6465657,-1449.8681,378.51274)"
           cx="831.10962"
           cy="302.67154"
           r="47.331211" />
        <path
           inkscape:connector-curvature="0"
           id="path3968"
           d="M 84.279274,97.381241 94.634575,109.40385 C 25.995253,197.90608 41.412191,315.92771 137.16474,317.2842 48.920685,279.47003 66.256677,206.71544 120.29731,137.28854 l 12.24147,14.17084 6.29206,-50.04127 z"
           style="opacity:0.8;fill:#333333;fill-opacity:1;stroke:none"
           sodipodi:nodetypes="ccccccc" />
        <path
           style="fill:#d40055;fill-opacity:1;stroke:none"
           d="M 76.035781,78.761182 87.374107,91.925077 C 12.218922,188.82873 29.099376,318.05403 133.94161,319.53929 37.320646,278.13546 58.771478,203.41266 117.94213,127.39515 l 13.40354,15.51607 4.42019,-59.729949 z"
           id="path3950"
           inkscape:connector-curvature="0" />
        <path
           style="fill:#ffff00;fill-opacity:1;stroke:none"
           d="M 240.95364,17.351084 98.219257,260.57175 164.75508,239.73301 69.46574,399.29786 241.40916,188.17015 171.00964,202.173 290.43492,39.936833 Z"
           id="rect3939"
           inkscape:connector-curvature="0"
           sodipodi:nodetypes="cccccccc" />
        <path
           sodipodi:type="star"
           style="fill:#ffff00;fill-opacity:1;stroke:none"
           id="path3962"
           sodipodi:sides="5"
           sodipodi:cx="1026.0612"
           sodipodi:cy="212.31194"
           sodipodi:r1="9.7640572"
           sodipodi:r2="28.717815"
           sodipodi:arg1="1.1174576"
           sodipodi:arg2="1.7457761"
           inkscape:flatsided="false"
           inkscape:rounded="0"
           inkscape:randomized="0"
           d="m 1030.3375,221.08972 -9.2758,19.50151 -2.0272,-21.49975 -21.41346,-2.79551 19.82106,-8.57183 -3.9585,-21.22923 14.2774,16.20206 18.9669,-10.32487 -10.9971,18.58526 15.6807,14.8481 z"
           transform="matrix(0.93437424,0,0,0.93437424,-690.73258,-45.676326)" />
        <path
           transform="matrix(0.80919184,0.46718712,-0.46718712,0.80919184,-444.80288,-450.5618)"
           d="m 1030.3375,221.08972 -9.2758,19.50151 -2.0272,-21.49975 -21.41346,-2.79551 19.82106,-8.57183 -3.9585,-21.22923 14.2774,16.20206 18.9669,-10.32487 -10.9971,18.58526 15.6807,14.8481 z"
           inkscape:randomized="0"
           inkscape:rounded="0"
           inkscape:flatsided="false"
           sodipodi:arg2="1.7457761"
           sodipodi:arg1="1.1174576"
           sodipodi:r2="28.717815"
           sodipodi:r1="9.7640572"
           sodipodi:cy="212.31194"
           sodipodi:cx="1026.0612"
           sodipodi:sides="5"
           id="path3964"
           style="fill:#ffff00;fill-opacity:1;stroke:none"
           sodipodi:type="star" />
        <path
           sodipodi:type="star"
           style="fill:#ffff00;fill-opacity:1;stroke:none"
           id="path3966"
           sodipodi:sides="5"
           sodipodi:cx="1026.0612"
           sodipodi:cy="212.31194"
           sodipodi:r1="9.7640572"
           sodipodi:r2="28.717815"
           sodipodi:arg1="1.1174576"
           sodipodi:arg2="1.7457761"
           inkscape:flatsided="false"
           inkscape:rounded="0"
           inkscape:randomized="0"
           d="m 1030.3375,221.08972 -9.2758,19.50151 -2.0272,-21.49975 -21.41346,-2.79551 19.82106,-8.57183 -3.9585,-21.22923 14.2774,16.20206 18.9669,-10.32487 -10.9971,18.58526 15.6807,14.8481 z"
           transform="matrix(0.92268017,0.14736529,-0.14736529,0.92268017,-666.06734,-93.310161)"
           inkscape:transform-center-x="-14.253352"
           inkscape:transform-center-y="-39.234702" />
        <path
           style="opacity:0.5;fill:url(#linearGradient4124);fill-opacity:1;stroke:none"
           d="m 277.40625,186.78125 c -92.88164,1.25027 -172.51311,134.1531 -242.625,123.0625 10.920088,17.16741 25.903215,32.08733 43.875,43.75 L 69.5625,368.375 172.96875,423.96875 276.375,368.375 267.28125,353.59375 c 38.58099,-25.0369 63.5625,-65.06354 63.5625,-110.15625 v -17.71875 c -1.91423,-7.21827 -3.69051,-14.69797 -5.28125,-22.40625 -0.35134,-1.70253 -0.7035,-3.40167 -1.03125,-5.09375 -16.08572,-8.22619 -31.77929,-11.64407 -47.125,-11.4375 z"
           id="path4112"
           inkscape:connector-curvature="0" />
      </g>
      <g
         transform="translate(-40)"
         id="g4137">
        <path
           style="fill:url(#linearGradient4107);fill-opacity:1;stroke:none"
           d="M 286.20149,464.6151 347.94723,557.3337 4.6590309,775.4675 -45.601196,699.99577 Z"
           id="rect3064"
           inkscape:connector-curvature="0"
           sodipodi:nodetypes="ccccc" />
        <path
           style="fill:#005522;fill-opacity:1;stroke:none"
           d="m 444.35222,365.28028 c -51.5694,-31.41952 -113.23718,-42.03897 -165.94828,-20.95754 21.38865,8.84425 59.36894,72.96701 55.5203,94.4968 z"
           id="rect3039"
           inkscape:connector-curvature="0"
           sodipodi:nodetypes="cccc" />
        <ellipse
           style="fill:#ffff00;fill-opacity:1;stroke:none"
           id="path3060"
           transform="matrix(0.39791209,0.59751247,-0.66173888,0.44068353,661.39027,164.49311)"
           cx="137.72899"
           cy="685.28192"
           rx="97.533401"
           ry="122.36008" />
        <path
           style="fill:#800000;fill-opacity:1;stroke:none"
           d="m 470.69097,409.65763 c -28.39873,-42.64406 -109.3721,22.98979 -123.86237,32.63956 -14.49027,9.64976 -44.89397,10.60448 -62.89068,22.58936 -10.98383,7.31465 -7.41598,35.88824 10.20252,62.34451 17.61849,26.45627 42.61515,40.7757 53.59897,33.46104 17.99672,-11.98487 30.5993,-39.67008 45.08958,-49.31985 14.49027,-9.64976 106.26069,-59.07056 77.86198,-101.71462 z"
           id="path3843"
           inkscape:connector-curvature="0"
           sodipodi:nodetypes="zzcsczz" />
        <path
           sodipodi:nodetypes="zzcsczz"
           inkscape:connector-curvature="0"
           id="path3011"
           d="m 495.65983,393.02767 c -35.37083,-53.11353 -126.10362,-2.13459 -140.59389,7.51517 -14.49027,9.64977 -35.99341,23.96973 -53.99013,35.95461 -10.98382,7.31465 -3.91049,41.15215 18.03349,74.10365 21.94398,32.9515 50.44797,52.5376 61.4318,45.22295 17.99672,-11.98488 39.49985,-26.30484 53.99013,-35.95461 14.49027,-9.64976 96.49943,-73.72825 61.1286,-126.84177 z"
           style="fill:#000080;fill-opacity:1;stroke:none" />
        <path
           id="path3917"
           d="m 544.69357,427.44091 c -94.91488,61.73714 -193.99608,81.34973 -242.4788,51.87504 3.88996,9.45938 8.52538,19.88288 15.11313,29.77517 23.37881,35.10607 53.81909,54.39566 66.31393,46.07475 l 94.70313,-63.06734 c 9.52961,-6.34623 45.53657,-32.17125 66.34861,-64.65762 z"
           style="opacity:0.25;fill:#ffffff;fill-opacity:1;stroke:none"
           inkscape:connector-curvature="0"
           sodipodi:nodetypes="ccsssc" />
        <path
           style="fill:#6f917c;fill-opacity:1;stroke:none"
           d="m 537.76672,364.98529 c -40.2367,-60.42021 -143.45134,-2.42825 -159.935,8.549 -16.48367,10.97726 -40.94493,27.26719 -61.41741,40.90078 -12.49484,8.32092 -4.44844,46.81335 20.51431,84.2979 24.96276,37.48455 57.38796,59.76506 69.8828,51.44415 20.47248,-13.6336 44.93374,-29.92353 61.41741,-40.90079 16.48365,-10.97725 109.77459,-83.87084 69.53789,-144.29104 z"
           id="path3009"
           inkscape:connector-curvature="0"
           sodipodi:nodetypes="zzcsczz" />
        <path
           inkscape:connector-curvature="0"
           style="opacity:0.25;fill:#ffffff;fill-opacity:1;stroke:none"
           d="m 566.47201,420.36335 c -94.96087,61.66808 -196.13123,79.5303 -246.54441,47.15679 4.26661,10.02495 9.96408,20.65651 16.99815,31.21902 24.96276,37.48455 57.39778,59.76949 69.89262,51.44857 l 94.70314,-63.06734 c 9.52961,-6.34622 44.72067,-33.39642 64.9505,-66.75704 z"
           id="path3915" />
        <path
           sodipodi:nodetypes="zzcsczz"
           inkscape:connector-curvature="0"
           id="path3007"
           d="m 549.41929,357.22528 c -40.23671,-60.42021 -143.45135,-2.42825 -159.935,8.54901 -16.48367,10.97726 -40.94493,27.26718 -61.41741,40.90078 -12.49484,8.32091 -4.44844,46.81334 20.51431,84.29789 24.96276,37.48455 57.38796,59.76507 69.8828,51.44415 20.47248,-13.63359 44.93374,-29.92352 61.41741,-40.90078 16.48365,-10.97725 109.77459,-83.87084 69.53789,-144.29105 z"
           style="fill:#005522;fill-opacity:1;stroke:none" />
        <path
           id="path3913"
           d="m 578.12458,412.60335 c -94.96087,61.66808 -196.13123,79.53029 -246.54441,47.15678 4.2666,10.02495 9.96408,20.65652 16.99815,31.21902 24.96276,37.48455 57.39778,59.76949 69.89262,51.44858 l 94.70314,-63.06734 c 9.52961,-6.34622 44.72067,-33.39643 64.9505,-66.75704 z"
           style="opacity:0.25;fill:#ffffff;fill-opacity:1;stroke:none"
           inkscape:connector-curvature="0" />
        <path
           style="fill:#00aa88;fill-opacity:1;stroke:none"
           d="m 592.70026,328.40242 c -40.2367,-60.42021 -143.45135,-2.42825 -159.935,8.549 -16.48367,10.97726 -74.23799,49.43862 -94.71046,63.07222 -12.49484,8.32091 -4.44844,46.81334 20.51431,84.29789 24.96275,37.48455 57.38796,59.76506 69.8828,51.44415 20.47247,-13.6336 78.22679,-52.09495 94.71046,-63.07222 16.48365,-10.97725 109.77459,-83.87084 69.53789,-144.29104 z"
           id="path2995"
           inkscape:connector-curvature="0"
           sodipodi:nodetypes="zzcsczz" />
        <path
           style="fill:#005522;fill-opacity:1;stroke:none"
           d="m 590.59416,325.47827 c -12.48641,-16.66814 -30.2045,-23.29536 -49.37368,-24.07604 l -138.55632,92.27128 c 3.93444,13.11302 105.49383,-13.29706 120.40752,-23.2288 z"
           id="path3024"
           inkscape:connector-curvature="0"
           sodipodi:nodetypes="cccsc" />
        <path
           style="fill:#2a7fff;fill-opacity:1;stroke:none"
           d="m 588.06489,322.35682 c -10.80033,-12.62854 -24.95679,-18.67159 -40.3876,-20.44868 -45.55621,30.34887 -91.14934,60.64243 -136.64895,91.07616 18.66223,1.05699 36.94325,-4.53157 55.16207,-8.16304 19.33648,-4.91023 39.2247,-9.3378 56.68429,-19.12627 21.79877,-14.34252 43.4747,-28.87006 65.19019,-43.33817 z"
           id="path3030"
           inkscape:connector-curvature="0" />
        <path
           style="opacity:0.25;fill:#ffffff;fill-opacity:1;stroke:none"
           d="m 588.06489,322.35682 c -1.81151,-2.11814 -3.71827,-4.0513 -5.70879,-5.80986 -16.10261,10.74188 -29.15909,19.46865 -47.26916,31.4037 -23.06453,14.74975 -66.84386,33.02788 -97.02532,26.99334 -9.0127,6.01472 -18.02704,12.01588 -27.03331,18.04025 18.66223,1.05699 36.94325,-4.53156 55.16207,-8.16303 19.33648,-4.91023 39.2247,-9.3378 56.68429,-19.12627 21.79877,-14.34252 43.47471,-28.87006 65.19019,-43.33817 z"
           id="path3055"
           inkscape:connector-curvature="0" />
        <path
           style="opacity:0.25;fill:#ffffff;fill-opacity:1;stroke:none"
           d="M 588.11249,405.95192 C 493.15163,467.62 391.98127,485.48221 341.56808,453.1087 c 4.26661,10.02495 9.96408,20.65652 16.99816,31.21902 24.96275,37.48455 57.39778,59.76949 69.89262,51.44858 l 94.70313,-63.06734 c 9.52962,-6.34622 44.72067,-33.39643 64.9505,-66.75704 z"
           id="path3876"
           inkscape:connector-curvature="0" />
        <path
           sodipodi:nodetypes="cccc"
           inkscape:connector-curvature="0"
           id="path3044"
           d="m 469.32426,478.47657 c -10.52844,35.7196 -35.59754,73.34693 -70.98885,99.81731 6.30535,-14.02461 -4.91535,-48.06653 -16.75494,-49.90674 z"
           style="fill:#005522;fill-opacity:1;stroke:none" />
      </g>
    </g>
  </g>
</svg>
