<?xml version="1.0"?>
<svg xmlns:rdf="http://www.w3.org/1999/02/22-rdf-syntax-ns#" xmlns="http://www.w3.org/2000/svg" xmlns:cc="http://creativecommons.org/ns#" xmlns:xlink="http://www.w3.org/1999/xlink" xmlns:dc="http://purl.org/dc/elements/1.1/" id="svg3071" viewBox="0 0 128 128" version="1.1">
  <title id="title3991">mortgage</title>
  <defs id="defs3073">
    <filter id="filter3963" color-interpolation-filters="sRGB">
      <feGaussianBlur id="feGaussianBlur3965" stdDeviation="0.46321022"/>
    </filter>
    <linearGradient id="linearGradient3973" x1="-27.69" gradientUnits="userSpaceOnUse" x2="-72.62" y1="49.551" y2="-35.65">
      <stop id="stop3969" offset="0"/>
      <stop id="stop3971" stop-opacity=".051765" offset="1"/>
    </linearGradient>
  </defs>
  <g id="layer1" transform="translate(0,64)">
    <g id="g3943" filter="url(#filter3963)" fill="url(#linearGradient3973)" transform="matrix(1.1454 0 0 1.1218 131.7 -.70153)">
      <g id="g3945" fill="url(#linearGradient3973)">
        <path id="path3947" stroke-width="0" fill="url(#linearGradient3973)" d="m-104.85 12.402 1.9241-18.328 15.496-13.676 15.651 13.621 2.6545 18.047-35.725 0.33521z"/>
        <rect id="rect3949" opacity="0" height="51.867" width="45.843" y="-34.539" x="-110.8" stroke-width="0"/>
        <path id="path3951" d="m-107.89-7.5881 20.376-15.976 19.317 15.448" stroke="#505c69" stroke-linecap="round" stroke-width="2.7429" fill="url(#linearGradient3973)"/>
        <path id="path3953" stroke-width="0" fill="url(#linearGradient3973)" d="m-28.585-15.328 4.8411-4.1576 0.65147 13.761-14.999-1.1268 4.8018-4.6885c-13.649-10.197-22.98-24.359-48.125-11.961 19.048-13.54 35.026-3.2286 52.829 8.1729z"/>
        <text id="text3955" font-size="48.946px" xml:space="preserve" transform="matrix(.97897 .26231 -.25537 .95306 0 0)" y="40.798405" x="-33.344456" font-family="Arial Black" line-height="125%" fill="url(#linearGradient3973)">
          <tspan id="tspan3957" y="40.798405" x="-33.344456" fill="url(#linearGradient3973)">$</tspan>
        </text>
        <path id="path3959" stroke-width="0" fill-rule="evenodd" fill="url(#linearGradient3973)" d="m-94.041-1.8286 12.539 0.37616 6.2694 13.73h-24.555l5.7469-14.106z"/>
        <path id="path3961" stroke-width="0" fill="url(#linearGradient3973)" d="m-84.28 26.689-4.8411 4.1576-0.65147-13.761 14.999 1.1268-4.8018 4.6885c13.649 10.197 22.98 24.359 48.125 11.961-19.048 13.54-35.026 3.2286-52.829-8.1729z"/>
      </g>
    </g>
    <g id="g3928" transform="matrix(1.1454 0 0 1.1218 132.3 -2.8445)">
      <g id="g3880">
        <path id="path3859" stroke-width="0" fill="#3e9ade" d="m-104.85 12.402 1.9241-18.328 15.496-13.676 15.651 13.621 2.6545 18.047-35.725 0.33521z"/>
        <rect id="rect5320" opacity="0" height="51.867" width="45.843" y="-34.539" x="-110.8" stroke-width="0"/>
        <path id="path3863" d="m-107.89-7.5881 20.376-15.976 19.317 15.448" stroke="#505c69" stroke-linecap="round" stroke-width="2.7429" fill="none"/>
        <path id="path3867" stroke-width="0" fill="#f93" d="m-28.585-15.328 4.8411-4.1576 0.65147 13.761-14.999-1.1268 4.8018-4.6885c-13.649-10.197-22.98-24.359-48.125-11.961 19.048-13.54 35.026-3.2286 52.829 8.1729z"/>
        <text id="text3869" font-size="48.946px" xml:space="preserve" transform="matrix(.97897 .26231 -.25537 .95306 0 0)" line-height="125%" y="40.798405" x="-33.344456" font-family="Arial Black" fill="#66cc33">
          <tspan id="tspan3871" y="40.798405" x="-33.344456">$</tspan>
        </text>
        <path id="rect3875" stroke-width="0" fill-rule="evenodd" fill="#deffff" d="m-94.041-1.8286 12.539 0.37616 6.2694 13.73h-24.555l5.7469-14.106z"/>
        <path id="path3878" stroke-width="0" fill="#fc0" d="m-84.28 26.689-4.8411 4.1576-0.65147-13.761 14.999 1.1268-4.8018 4.6885c13.649 10.197 22.98 24.359 48.125 11.961-19.048 13.54-35.026 3.2286-52.829-8.1729z"/>
      </g>
    </g>
  </g>
  <metadata>
    <rdf:RDF>
      <cc:Work>
        <dc:format>image/svg+xml</dc:format>
        <dc:type rdf:resource="http://purl.org/dc/dcmitype/StillImage"/>
        <cc:license rdf:resource="http://creativecommons.org/licenses/publicdomain/"/>
        <dc:publisher>
          <cc:Agent rdf:about="http://openclipart.org/">
            <dc:title>Openclipart</dc:title>
          </cc:Agent>
        </dc:publisher>
      </cc:Work>
      <cc:License rdf:about="http://creativecommons.org/licenses/publicdomain/">
        <cc:permits rdf:resource="http://creativecommons.org/ns#Reproduction"/>
        <cc:permits rdf:resource="http://creativecommons.org/ns#Distribution"/>
        <cc:permits rdf:resource="http://creativecommons.org/ns#DerivativeWorks"/>
      </cc:License>
    </rdf:RDF>
  </metadata>
</svg>
