<?xml version="1.0" encoding="UTF-8" standalone="no"?>
<!-- Created with Inkscape (http://www.inkscape.org/) -->

<svg
   xmlns:dc="http://purl.org/dc/elements/1.1/"
   xmlns:cc="http://creativecommons.org/ns#"
   xmlns:rdf="http://www.w3.org/1999/02/22-rdf-syntax-ns#"
   xmlns:svg="http://www.w3.org/2000/svg"
   xmlns="http://www.w3.org/2000/svg"
   xmlns:sodipodi="http://sodipodi.sourceforge.net/DTD/sodipodi-0.dtd"
   xmlns:inkscape="http://www.inkscape.org/namespaces/inkscape"
   width="150mm"
   height="150mm"
   viewBox="0 0 531.49606 531.49606"
   id="svg4199"
   version="1.1"
   inkscape:version="0.91 r13725"
   sodipodi:docname="pictogram_trein_001.svg">
  <defs
     id="defs4201" />
  <sodipodi:namedview
     id="base"
     pagecolor="#ffffff"
     bordercolor="#666666"
     borderopacity="1.0"
     inkscape:pageopacity="0.0"
     inkscape:pageshadow="2"
     inkscape:zoom="1.05"
     inkscape:cx="265.74803"
     inkscape:cy="265.74803"
     inkscape:document-units="mm"
     inkscape:current-layer="layer1"
     showgrid="false"
     inkscape:window-width="1920"
     inkscape:window-height="1017"
     inkscape:window-x="-8"
     inkscape:window-y="-8"
     inkscape:window-maximized="1" />
  <metadata
     id="metadata4204">
    <rdf:RDF>
      <cc:Work
         rdf:about="">
        <dc:format>image/svg+xml</dc:format>
        <dc:type
           rdf:resource="http://purl.org/dc/dcmitype/StillImage" />
        <dc:title></dc:title>
      </cc:Work>
    </rdf:RDF>
  </metadata>
  <g
     inkscape:groupmode="layer"
     id="layer4"
     inkscape:label="rand">
    <g
       id="g3122"
       transform="matrix(0.8503937,0,0,0.8503937,-50.40893,-182.85228)">
      <rect
         ry="85"
         y="227.52074"
         x="71.777168"
         height="600"
         width="600"
         id="rect3001"
         style="color:#000000;display:inline;overflow:visible;visibility:visible;fill:#000000;fill-opacity:1;fill-rule:evenodd;stroke:none;stroke-width:15;marker:none;enable-background:accumulate" />
      <rect
         ry="83.866669"
         y="231.52074"
         x="75.777168"
         height="592"
         width="592"
         id="rect3001-9"
         style="color:#000000;display:inline;overflow:visible;visibility:visible;fill:#ffffff;fill-opacity:1;fill-rule:evenodd;stroke:none;stroke-width:15;marker:none;enable-background:accumulate" />
      <rect
         ry="82.166672"
         y="237.52074"
         x="81.777168"
         height="580"
         width="580"
         id="rect3001-9-9"
         style="color:#000000;display:inline;overflow:visible;visibility:visible;fill:#007933;fill-opacity:1;fill-rule:evenodd;stroke:none;stroke-width:15;marker:none;enable-background:accumulate" />
    </g>
  </g>
  <g
     inkscape:label="trein"
     inkscape:groupmode="layer"
     id="layer1"
     transform="translate(0,-520.86614)">
    <path
       style="fill:#f2f2f2;fill-rule:evenodd;stroke:none;stroke-width:1.0629921;stroke-linecap:butt;stroke-linejoin:miter;stroke-miterlimit:4;stroke-dasharray:none;stroke-opacity:1"
       d="m 63.73097,791.51157 c 14.504834,-5.4393 50.71929,-9.72532 88.37707,-41.69284 44.25442,-37.56739 71.09169,-80.17083 82.72446,-101.53168 -0.45492,-0.15165 13.15578,-22.26939 33.76426,-26.29427 19.29345,-6.74893 107.73183,-7.70202 121.93655,-2.26531 11.36844,4.35114 36.98917,15.11825 42.82125,27.62743 3.25045,6.97186 27.68439,68.61487 28.34627,80.69165 l 5.66542,103.37039 c 1.62191,29.59314 -43.49446,65.53312 -51.66919,65.48718 -15.30856,-0.0861 -101.31623,1.5891 -101.31623,1.5891 -0.17913,-0.17914 -18.41037,-0.15684 -26.73796,-5.89366 -14.06904,-9.69206 -82.75579,-41.06352 -102.21425,-46.91672 -29.15746,-8.77063 -118.996909,-15.77483 -121.699779,-16.08968 -5.076067,-0.59132 -4.061285,-2.28759 -4.093355,-6.11978 l -0.221834,-26.51183 c -0.04576,-5.46396 4.120502,-4.56429 4.317318,-5.44998 z"
       id="path4157"
       inkscape:connector-curvature="0"
       sodipodi:nodetypes="csccssssscsssssc" />
    <path
       style="fill:#007933;fill-opacity:1;fill-rule:evenodd;stroke:none;stroke-width:1.0629921;stroke-linecap:butt;stroke-linejoin:miter;stroke-miterlimit:4;stroke-dasharray:none;stroke-opacity:1"
       d="m 68.173801,807.26985 c 13.545695,-0.85399 66.532579,-12.86411 79.686969,-17.94847 23.8105,-9.20319 46.56747,-21.25115 67.34615,-34.24408 l -0.21011,-45.95798 c -0.0113,-2.49434 -3.92351,-1.19449 -4.17237,-0.7568 -11.47933,20.18963 -33.47425,39.10297 -54.70349,54.01902 -28.06658,19.35188 -61.212933,29.95146 -88.261573,34.17887 -0.494887,3.89399 0.314424,10.70944 0.314424,10.70944 z"
       id="path4159"
       inkscape:connector-curvature="0"
       sodipodi:nodetypes="cscssccc" />
    <path
       style="fill:#007933;fill-opacity:1;fill-rule:evenodd;stroke:none;stroke-width:1.0629921;stroke-linecap:butt;stroke-linejoin:miter;stroke-miterlimit:4;stroke-dasharray:none;stroke-opacity:1"
       d="m 342.35402,657.41539 4.87307,69.35898 -84.73012,0.59096 c -2.19026,0.18845 -11.12688,-1.69631 -11.33965,-7.62377 l -1.73263,-48.26685 c 0,0 6.25618,-13.66324 16.22824,-13.66324 9.97207,0 76.70109,-0.39608 76.70109,-0.39608 z"
       id="path4161"
       inkscape:connector-curvature="0"
       sodipodi:nodetypes="cccscsc" />
    <path
       style="fill:#007933;fill-opacity:1;fill-rule:evenodd;stroke:none;stroke-width:1.0629921;stroke-linecap:butt;stroke-linejoin:miter;stroke-miterlimit:4;stroke-dasharray:none;stroke-opacity:1"
       d="m 350.83778,657.58871 66.84415,0.0932 c 2.08454,-0.0438 10.09713,2.08442 12.92076,9.7213 l 16.66031,45.06 c 0.85448,1.95173 2.57225,12.71744 -7.67916,13.16429 -9.96261,0.43426 -78.71133,1.01589 -78.71133,1.01589 z"
       id="path4163"
       inkscape:connector-curvature="0"
       sodipodi:nodetypes="ccscscc" />
    <ellipse
       style="fill:#007933;fill-opacity:1;stroke:none;stroke-width:1.0629921;stroke-miterlimit:4;stroke-dasharray:none;stroke-opacity:1"
       id="circle4169"
       cx="343.39047"
       cy="641.93915"
       rx="9.0236359"
       ry="8.8093567" />
    <path
       style="fill:#f2f2f2;fill-rule:evenodd;stroke:none;stroke-width:1.0629921;stroke-linecap:butt;stroke-linejoin:miter;stroke-miterlimit:4;stroke-dasharray:none;stroke-opacity:1"
       d="m 307.10674,902.72202 16.36129,-0.32032 23.54866,54.61566 -30.76302,0 z"
       id="path4171"
       inkscape:connector-curvature="0"
       sodipodi:nodetypes="ccccc" />
    <path
       style="fill:#f2f2f2;fill-rule:evenodd;stroke:none;stroke-width:1.0629921;stroke-linecap:butt;stroke-linejoin:miter;stroke-miterlimit:4;stroke-dasharray:none;stroke-opacity:1"
       d="m 390.48783,901.77745 20.32949,-1.18882 61.26547,53.64937 -37.35311,1.04768 z"
       id="path4173"
       inkscape:connector-curvature="0"
       sodipodi:nodetypes="ccccc" />
    <ellipse
       ry="14.976459"
       rx="15.340749"
       cy="826.672"
       cx="302.89139"
       id="ellipse4177"
       style="fill:#007933;fill-opacity:1;stroke:none;stroke-width:1.0629921;stroke-miterlimit:4;stroke-dasharray:none;stroke-opacity:1" />
    <ellipse
       style="fill:#007933;fill-opacity:1;stroke:none;stroke-width:1.0629921;stroke-miterlimit:4;stroke-dasharray:none;stroke-opacity:1"
       id="ellipse4179"
       cx="428.56705"
       cy="824.42206"
       rx="15.340749"
       ry="14.976459" />
  </g>
</svg>
