<?xml version="1.0" encoding="UTF-8" standalone="no"?>
<!-- Created with Inkscape (http://www.inkscape.org/) -->

<svg
   xmlns:dc="http://purl.org/dc/elements/1.1/"
   xmlns:cc="http://creativecommons.org/ns#"
   xmlns:rdf="http://www.w3.org/1999/02/22-rdf-syntax-ns#"
   xmlns:svg="http://www.w3.org/2000/svg"
   xmlns="http://www.w3.org/2000/svg"
   xmlns:xlink="http://www.w3.org/1999/xlink"
   xmlns:sodipodi="http://sodipodi.sourceforge.net/DTD/sodipodi-0.dtd"
   xmlns:inkscape="http://www.inkscape.org/namespaces/inkscape"
   width="885.82672"
   height="885.82672"
   id="svg2"
   version="1.1"
   inkscape:version="0.48+devel r9772"
   sodipodi:docname="OnlyWine-42.svg">
  <g
     inkscape:label="Background"
     inkscape:groupmode="layer"
     id="layer1"
     transform="translate(0,-166.5355)"
     sodipodi:insensitive="true">
    <rect
       style="color:#000000;fill:#ffffff;stroke:#800000;stroke-width:9.93276978;stroke-linecap:butt;stroke-linejoin:miter;stroke-miterlimit:4;stroke-opacity:1;stroke-dasharray:none;stroke-dashoffset:0;marker:none;visibility:visible;display:inline;overflow:visible;enable-background:accumulate"
       id="rect3840"
       width="875.90057"
       height="875.89392"
       x="4.9630871"
       y="171.50191" />
    <g
       id="g3889"
       style="fill:#800000">
      <path
         d="m 713.3786,1026.9622 -4.32,5.28 -10.92,0 -3.28,-5.28 0,-16.2 3.96,-4.88 10.68,0 3.88,4.88 0,16.2 m -5.32,-0.32 0,-15.72 -1.92,-2.36 -2.96,0 -1.48,2.36 0,15.72 1.6,2.92 2.88,0 1.88,-2.92"
         style="font-size:40px;font-style:normal;font-variant:normal;font-weight:normal;font-stretch:normal;text-align:start;line-height:125%;letter-spacing:0px;word-spacing:0px;writing-mode:lr-tb;text-anchor:start;fill:#800000;fill-opacity:1;stroke:none;font-family:LambrettistA;-inkscape-font-specification:LambrettistA"
         id="path3847"
         inkscape:connector-curvature="0" />
      <path
         d="m 737.71047,1008.0022 -23,0 0,-2.12 23,0 0,2.12 m -2.36,18.12 c -3.73335,0 -6.36001,0.013 -7.88,0.04 l 0,-10.6 -3.04,2 -0.04,8.56 -5.44,0.04 c 0,0 0,-3.8133 0,-11.44 l -2.88,0 c -0.0267,-1.52 -0.0267,-2.2666 0,-2.24 l 8.24,0 0,2.08 3.52,-2.08 5.08,0 c -2e-5,0 -2e-5,3.7734 0,11.32 l 2.44,0 0,2.32 m 2.68,6.08 -23.32,-0.04 0,-2.72 23.32,0.04 c -2e-5,0 -2e-5,0.9067 0,2.72"
         style="font-size:40px;font-style:normal;font-variant:normal;font-weight:normal;font-stretch:normal;text-align:start;line-height:125%;letter-spacing:0px;word-spacing:0px;writing-mode:lr-tb;text-anchor:start;fill:#800000;fill-opacity:1;stroke:none;font-family:LambrettistA;-inkscape-font-specification:LambrettistA"
         id="path3849"
         inkscape:connector-curvature="0" />
      <path
         d="m 751.53797,1008.0022 -3.72,0 c -10e-6,-0.7199 -10e-6,-1.1199 0,-1.2 -0.0267,-0.08 -0.04,-0.3866 -0.04,-0.92 l 3.76,0 0,2.12 m -3.08,18.12 -7.88,0 0.04,-21.12 -2.12,0 0,-2.32 7.76,0 0,20.92 2.2,0 0,2.52 m 3.2,6.08 -14.88,0 c 0,0 0,-0.92 0,-2.76 l 14.84,0 c -10e-6,0.7467 0.0133,1.6667 0.04,2.76"
         style="font-size:40px;font-style:normal;font-variant:normal;font-weight:normal;font-stretch:normal;text-align:start;line-height:125%;letter-spacing:0px;word-spacing:0px;writing-mode:lr-tb;text-anchor:start;fill:#800000;fill-opacity:1;stroke:none;font-family:LambrettistA;-inkscape-font-specification:LambrettistA"
         id="path3851"
         inkscape:connector-curvature="0" />
      <path
         d="m 769.71672,1008.0422 -18.92,0.04 c 0,-1.4666 0,-2.1999 0,-2.2 l 18.88,0 c 0.0267,1.3334 0.04,2.0534 0.04,2.16 m -1.76,24.88 -2.16,3.32 -10.68,0 0,-2.68 5.72,0 1.44,-1.44 0,-6.84 -0.84,0.84 -6.56,0 -1.72,-2.2 0,-11.44 5,0 0,11.36 4.12,0 0,-11.36 5.68,0 0,20.44 m -8.36,-0.72 -8.8,0 0,-2.76 8.8,0.04 0,2.72"
         style="font-size:40px;font-style:normal;font-variant:normal;font-weight:normal;font-stretch:normal;text-align:start;line-height:125%;letter-spacing:0px;word-spacing:0px;writing-mode:lr-tb;text-anchor:start;fill:#800000;fill-opacity:1;stroke:none;font-family:LambrettistA;-inkscape-font-specification:LambrettistA"
         id="path3853"
         inkscape:connector-curvature="0" />
      <path
         d="m 811.3811,1032.2422 -5.2,0 0,-2.72 5.2,0 0,2.72 m -2.64,-9.64 -9.64,9.68 c -2.00002,0 -3.80002,-0.013 -5.4,-0.04 -0.08,0 -0.10668,-1.3733 -0.08,-4.12 l -4.76,4.24 c -10e-6,-0.027 -0.0134,-0.053 -0.04,-0.08 l -5.12,0 c -10e-6,0 -10e-6,-7.8666 0,-23.6 l -3.48,0 -0.04,-2.76 8.96,0 0,23.08 4.36,-4.44 -0.04,-18.64 c 2.18665,10e-5 4.03998,-0.013 5.56,-0.04 l 0,22.76 4.2,-4.24 0.04,-18.52 c 1.38664,0.027 3.2133,0.04 5.48,0.04 -3e-5,3.2801 -3e-5,8.84 0,16.68"
         style="font-size:40px;font-style:normal;font-variant:normal;font-weight:normal;font-stretch:normal;text-align:start;line-height:125%;letter-spacing:0px;word-spacing:0px;writing-mode:lr-tb;text-anchor:start;fill:#800000;fill-opacity:1;stroke:none;font-family:LambrettistA;-inkscape-font-specification:LambrettistA"
         id="path3855"
         inkscape:connector-curvature="0" />
      <path
         d="m 820.20235,1008.0422 -5.72,0 0,-2.16 5.72,0 0,2.16 m -0.28,18.08 -5.52,0 c -0.0267,-2.16 -0.0267,-5.92 0,-11.28 l -2.84,0.04 c -0.0267,-1.5733 -0.0267,-2.3733 0,-2.4 l 8.36,0 0,13.64 m 3.6,6.04 -12.64,0 c 0,0 0,-0.9066 0,-2.72 l 12.64,0 0,2.72"
         style="font-size:40px;font-style:normal;font-variant:normal;font-weight:normal;font-stretch:normal;text-align:start;line-height:125%;letter-spacing:0px;word-spacing:0px;writing-mode:lr-tb;text-anchor:start;fill:#800000;fill-opacity:1;stroke:none;font-family:LambrettistA;-inkscape-font-specification:LambrettistA"
         id="path3857"
         inkscape:connector-curvature="0" />
      <path
         d="m 845.67922,1008.0022 -23,0 0,-2.12 23,0 0,2.12 m -2.36,18.12 c -3.73335,0 -6.36001,0.013 -7.88,0.04 l 0,-10.6 -3.04,2 -0.04,8.56 -5.44,0.04 c 0,0 0,-3.8133 0,-11.44 l -2.88,0 c -0.0267,-1.52 -0.0267,-2.2666 0,-2.24 l 8.24,0 0,2.08 3.52,-2.08 5.08,0 c -2e-5,0 -2e-5,3.7734 0,11.32 l 2.44,0 0,2.32 m 2.68,6.08 -23.32,-0.04 0,-2.72 23.32,0.04 c -2e-5,0 -2e-5,0.9067 0,2.72"
         style="font-size:40px;font-style:normal;font-variant:normal;font-weight:normal;font-stretch:normal;text-align:start;line-height:125%;letter-spacing:0px;word-spacing:0px;writing-mode:lr-tb;text-anchor:start;fill:#800000;fill-opacity:1;stroke:none;font-family:LambrettistA;-inkscape-font-specification:LambrettistA"
         id="path3859"
         inkscape:connector-curvature="0" />
      <path
         d="m 865.78672,1005.8422 -0.04,2.16 -21.48,0 c 0,10e-5 0,-0.7066 0,-2.12 l 21.52,-0.04 m -3,20.24 -12.84,0 -2.28,-1.68 0,-10.2 2.4,-1.88 10.24,0 2.32,1.84 0.04,5.52 -2.32,1.6 -7.32,0 c -10e-6,0.64 0.0133,1.0667 0.04,1.28 0.0533,0.2134 0.08,0.6134 0.08,1.2 l 9.64,0.04 c 0.0533,0.9067 0.0533,1.6667 0,2.28 m 3.04,6.08 -21.24,0 c 0,0 0,-0.92 0,-2.76 l 21.24,0 c -0.0533,1.4934 -0.0533,2.4134 0,2.76 m -8.4,-13.04 0,-4.44 -4.4,0 0,4.44 4.4,0"
         style="font-size:40px;font-style:normal;font-variant:normal;font-weight:normal;font-stretch:normal;text-align:start;line-height:125%;letter-spacing:0px;word-spacing:0px;writing-mode:lr-tb;text-anchor:start;fill:#800000;fill-opacity:1;stroke:none;font-family:LambrettistA;-inkscape-font-specification:LambrettistA"
         id="path3861"
         inkscape:connector-curvature="0" />
    </g>
  </g>
  <g
     inkscape:groupmode="layer"
     id="layer2"
     inkscape:label="Draw">
    <g
       id="g3604"
       transform="matrix(1.3448899,0,0,1.3448899,-98.021353,-53.751606)"
       style="fill:#2c5aa0;stroke:none">
      <path
         id="path3559"
         d="m 413.375,249.875 c -4.44837,-0.3307 -9.00605,0.26533 -13.4375,1.9375 -9.83304,3.71042 -14.15625,8.38527 -14.15625,15.28125 0,4.38167 0.68504,6.09129 3.53125,8.9375 5.24928,5.24927 11.478,4.9206 17.65625,-0.90625 9.88739,-9.325 20.46779,-10.90348 28.375,-4.25 6.71007,5.64615 8.73958,14.99061 5.3125,24.59375 -1.91296,5.36034 -1.46551,5.86153 1,1.09375 3.01155,-5.8237 3.59907,-14.75196 1.4375,-22.1875 -4.10115,-14.10745 -16.37365,-23.5079 -29.71875,-24.5 z"
         style="fill:#2c5aa0;stroke:none"
         inkscape:connector-curvature="0" />
      <path
         id="path3481"
         d="m 339.78125,249.5625 c -2.00499,-0.0773 -4.08398,0.72038 -6.1875,2.375 -5.55788,4.37182 -3.95887,13.34191 2.84375,15.9375 2.93449,1.11967 7.67667,-0.2969 9.9375,-2.96875 3.02818,-3.57868 2.66494,-8.99132 -0.84375,-12.5 -1.80527,-1.80528 -3.74501,-2.76648 -5.75,-2.84375 z"
         style="fill:#2c5aa0;stroke:none"
         inkscape:connector-curvature="0" />
      <path
         inkscape:connector-curvature="0"
         id="path3479"
         d="m 409.26996,213.3586 c -8.36464,9.32971 -7.84064,25.12092 4.14492,33.01089 2.77418,1.82622 7.16176,2.51179 16.798,2.57451 17.45592,0.11363 25.02516,2.72872 32.91136,11.39356 8.99457,9.88269 11.19207,20.34651 6.85654,32.63119 -3.15194,8.93094 -14.48602,20.22637 -24.92993,24.84213 -6.39041,2.82429 -7.08615,3.30773 -3.94907,2.87697 2.0864,-0.28649 6.80758,-2.11151 10.49163,-4.07618 9.26334,-4.94018 20.85554,-16.89507 25.71793,-26.51368 11.78723,-23.31705 5.32323,-53.75359 -14.93056,-70.34597 -12.9048,-10.57194 -30.02204,-15.92067 -41.86937,-13.04659 -4.66742,1.13228 -8.45324,3.54326 -11.24145,6.65317 z"
         style="fill:#2c5aa0;stroke:none" />
      <path
         id="path3477"
         d="m 344.5,156.3125 c -10.88614,0 -18.98704,5.93107 -21.65625,15.84375 -3.1971,11.87311 4.16372,24.66815 15.84375,27.53125 9.58271,2.34899 21.43631,-2.951 25.21875,-11.28125 4.07749,-8.9801 2.74414,-18.71475 -3.46875,-25.28125 -4.7359,-5.00543 -8.96997,-6.8125 -15.9375,-6.8125 z"
         style="fill:#2c5aa0;stroke:none"
         inkscape:connector-curvature="0" />
      <path
         inkscape:connector-curvature="0"
         id="path3552"
         d="m 411.60305,413.39021 -15.87054,0 c 0.67709,2.93983 1.12715,36.20033 1.12216,87.625 -0.008,82.2885 -0.15865,87.52245 -2.30844,92.0625 -2.7591,5.82679 -6.65833,9.51488 -12.76056,12 -3.69577,1.5051 -10.23895,1.84375 -34.0816,1.84375 -27.98538,0 -29.68145,0.13431 -32.76705,2.5 -1.78959,1.37206 -3.23824,3.53655 -3.23824,4.8125 0,2.27002 1.96289,2.3125 91.98503,2.3125 90.56778,0 91.98504,-0.0201 91.98504,-2.34375 0,-1.29822 -1.20672,-3.46272 -2.69318,-4.8125 -2.56951,-2.33325 -4.20844,-2.46875 -33.37624,-2.46875 -33.37231,0 -35.93534,-0.40428 -42.57795,-6.8125 -1.94467,-1.87605 -4.20811,-4.9296 -5.03369,-6.78125 -1.13381,-2.54304 -1.49535,-24.91382 -1.47483,-91.46875 0.0195,-63.34784 0.10229,-81.36353 1.09009,-88.46875 z"
         style="fill:#2c5aa0;stroke:none" />
      <path
         inkscape:connector-curvature="0"
         id="path3473"
         d="m 364.10253,122.10492 c -4.55202,-0.60818 -8.1536,3.8671 -6,8.59375 1.54857,3.39871 6.98299,4.32951 9.65625,1.65625 2.67326,-2.67326 1.74246,-8.1077 -1.65625,-9.65625 -0.67524,-0.30766 -1.34971,-0.50687 -2,-0.59375 z"
         style="fill:#2c5aa0;stroke:none" />
      <path
         sodipodi:nodetypes="ccccc"
         inkscape:connector-curvature="0"
         id="path3547"
         d="M 295.48288,298.05278 C 378.0416,256.18467 523.26847,439.08484 487.45443,216.29938 564.9955,395.82474 407.52141,386.99806 410.9968,415.8836 l -14.56336,0 c 1.29971,-27.91796 -87.28564,-3.20622 -100.95056,-117.83082 z"
         style="color:#000000;fill:#2c5aa0;stroke:none;stroke-width:1.31196808999999992px;stroke-linecap:butt;stroke-linejoin:miter;stroke-miterlimit:4;stroke-opacity:1;stroke-dasharray:none;stroke-dashoffset:0;marker:none;visibility:visible;display:inline;overflow:visible;enable-background:accumulate" />
      <path
         inkscape:connector-curvature="0"
         style="fill:#2c5aa0;stroke:none"
         d="m 365.42599,215.0936 c -2.84657,-0.10974 -5.7982,1.02275 -8.78465,3.37189 -7.89075,6.20685 -5.62057,18.94206 4.03739,22.62712 4.16621,1.58964 10.89888,-0.42152 14.10867,-4.21485 4.29924,-5.0808 3.78353,-12.76535 -1.1979,-17.74677 -2.56302,-2.56303 -5.31695,-3.92769 -8.16351,-4.03739 z"
         id="path3561" />
      <path
         inkscape:connector-curvature="0"
         style="fill:#2c5aa0;stroke:none"
         d="m 382.7687,173.93853 c -1.20911,-0.0466 -2.46285,0.43443 -3.73138,1.43225 -3.35168,2.63643 -2.3874,8.04584 1.71493,9.61112 1.76964,0.67521 4.62942,-0.17905 5.99281,-1.79031 1.82615,-2.15812 1.6071,-5.42222 -0.50882,-7.53813 -1.08867,-1.08868 -2.25843,-1.66833 -3.46754,-1.71493 z"
         id="path3570" />
      <path
         id="path3572"
         d="m 406.20779,154.47095 c -1.67666,-0.0646 -3.4152,0.60242 -5.17425,1.98608 -4.64771,3.65589 -3.31056,11.15703 2.37807,13.32758 2.45393,0.9363 6.41954,-0.24829 8.31013,-2.48259 2.53229,-2.99263 2.22854,-7.51891 -0.70557,-10.453 -1.50964,-1.50966 -3.13173,-2.31345 -4.80838,-2.37807 z"
         style="fill:#2c5aa0;stroke:none"
         inkscape:connector-curvature="0" />
    </g>
  </g>
</svg>
