<?xml version="1.0" encoding="UTF-8" standalone="no"?>
<!-- Created with Inkscape (http://www.inkscape.org/) -->

<svg
   xmlns:dc="http://purl.org/dc/elements/1.1/"
   xmlns:cc="http://creativecommons.org/ns#"
   xmlns:rdf="http://www.w3.org/1999/02/22-rdf-syntax-ns#"
   xmlns:svg="http://www.w3.org/2000/svg"
   xmlns="http://www.w3.org/2000/svg"
   xmlns:sodipodi="http://sodipodi.sourceforge.net/DTD/sodipodi-0.dtd"
   xmlns:inkscape="http://www.inkscape.org/namespaces/inkscape"
   width="140"
   height="140"
   id="svg3175"
   version="1.1"
   inkscape:version="0.48.5 r10040"
   sodipodi:docname="busloading.svg">
  <defs
     id="defs3177" />
  <sodipodi:namedview
     id="base"
     pagecolor="#ffffff"
     bordercolor="#666666"
     borderopacity="1.0"
     inkscape:pageopacity="0.0"
     inkscape:pageshadow="2"
     inkscape:zoom="0.55881078"
     inkscape:cx="17.880409"
     inkscape:cy="88.947584"
     inkscape:document-units="px"
     inkscape:current-layer="layer1"
     showgrid="false"
     inkscape:window-width="1307"
     inkscape:window-height="744"
     inkscape:window-x="53"
     inkscape:window-y="24"
     inkscape:window-maximized="1"
     fit-margin-top="0"
     fit-margin-left="0"
     fit-margin-right="0"
     fit-margin-bottom="0" />
  <metadata
     id="metadata3180">
    <rdf:RDF>
      <cc:Work
         rdf:about="">
        <dc:format>image/svg+xml</dc:format>
        <dc:type
           rdf:resource="http://purl.org/dc/dcmitype/StillImage" />
        <dc:title />
      </cc:Work>
    </rdf:RDF>
  </metadata>
  <g
     inkscape:label="Layer 1"
     inkscape:groupmode="layer"
     id="layer1"
     transform="translate(-518.57141,-498.07648)">
    <rect
       style="fill:#ff0000;fill-opacity:1;stroke:none"
       id="rect9310"
       width="140"
       height="140"
       x="518.57141"
       y="498.07648" />
    <g
       id="g3232"
       transform="matrix(2,0,0,2,-588.57141,-562.93306)">
      <g
         transform="matrix(1.1700073,0,0,1.1700073,-104.41252,-94.911121)"
         id="text9312"
         style="font-size:12px;font-style:oblique;font-variant:normal;font-weight:normal;font-stretch:normal;line-height:125%;letter-spacing:0px;word-spacing:0px;fill:#ffffff;fill-opacity:1;stroke:none;font-family:Franklin Gothic Medium;-inkscape-font-specification:Franklin Gothic Medium">
        <path
           inkscape:connector-curvature="0"
           id="path3218"
           style="font-style:normal;fill:#ffffff;font-family:FreeSans;-inkscape-font-specification:FreeSans"
           d="m 567.35548,579.32848 0,7.764 4.32,0 0,0.984 -5.436,0 0,-8.748 1.116,0" />
        <path
           inkscape:connector-curvature="0"
           id="path3220"
           style="font-style:normal;fill:#ffffff;font-family:FreeSans;-inkscape-font-specification:FreeSans"
           d="m 580.95748,583.84048 c -1e-5,1.296 -0.38401,2.372 -1.152,3.228 -0.76801,0.856 -1.79201,1.284 -3.072,1.284 -1.264,0 -2.284,-0.42 -3.06,-1.26 -0.776,-0.848 -1.164,-1.956 -1.164,-3.324 0,-1.368 0.388,-2.472 1.164,-3.312 0.776,-0.84799 1.792,-1.27199 3.048,-1.272 1.27999,10e-6 2.30399,0.42401 3.072,1.272 0.77599,0.848 1.16399,1.976 1.164,3.384 m -4.236,-3.672 c -0.928,0 -1.676,0.332 -2.244,0.996 -0.568,0.656 -0.852,1.524 -0.852,2.604 0,1.08 0.284,1.952 0.852,2.616 0.576,0.656 1.328,0.984 2.256,0.984 0.92799,0 1.67599,-0.328 2.244,-0.984 0.57599,-0.656 0.86399,-1.512 0.864,-2.568 -1e-5,-1.104 -0.28401,-1.988 -0.852,-2.652 -0.56801,-0.664 -1.32401,-0.996 -2.268,-0.996" />
        <path
           inkscape:connector-curvature="0"
           id="path3222"
           style="font-style:normal;fill:#ffffff;font-family:FreeSans;-inkscape-font-specification:FreeSans"
           d="m 587.09192,585.44848 -3.372,0 -0.924,2.628 -1.188,0 3.12,-8.748 1.44,0 3.072,8.748 -1.248,0 -0.9,-2.628 m -0.312,-0.936 -1.344,-3.984 -1.44,3.984 2.784,0" />
        <path
           inkscape:connector-curvature="0"
           id="path3224"
           style="font-style:normal;fill:#ffffff;font-family:FreeSans;-inkscape-font-specification:FreeSans"
           d="m 590.3801,588.07648 0,-8.748 3.372,0 c 1.112,10e-6 1.984,0.38801 2.616,1.164 0.632,0.776 0.948,1.844 0.948,3.204 0,1.36 -0.32,2.432 -0.96,3.216 -0.632,0.776 -1.5,1.164 -2.604,1.164 l -3.372,0 m 1.116,-0.984 2.064,0 c 0.864,0 1.52,-0.288 1.968,-0.864 0.448,-0.576 0.672,-1.416 0.672,-2.52 0,-1.112 -0.224,-1.956 -0.672,-2.532 -0.448,-0.576 -1.104,-0.864 -1.968,-0.864 l -2.064,0 0,6.78" />
        <path
           inkscape:connector-curvature="0"
           id="path3226"
           style="font-style:normal;fill:#ffffff;font-family:FreeSans;-inkscape-font-specification:FreeSans"
           d="m 600.11529,579.32848 0,8.748 -1.128,0 0,-8.748 1.128,0" />
        <path
           inkscape:connector-curvature="0"
           id="path3228"
           style="font-style:normal;fill:#ffffff;font-family:FreeSans;-inkscape-font-specification:FreeSans"
           d="m 608.91542,579.32848 0,8.748 -1.26,0 -4.524,-7.092 0,7.092 -1.056,0 0,-8.748 1.212,0 4.572,7.152 0,-7.152 1.056,0" />
        <path
           inkscape:connector-curvature="0"
           id="path3230"
           style="font-style:normal;fill:#ffffff;font-family:FreeSans;-inkscape-font-specification:FreeSans"
           d="m 611.47704,583.73248 c 0,0.304 0.028,0.612 0.084,0.924 0.056,0.304 0.156,0.624 0.3,0.96 0.144,0.336 0.328,0.632 0.552,0.888 0.232,0.248 0.536,0.456 0.912,0.624 0.376,0.16 0.804,0.24 1.284,0.24 0.8,0 1.456,-0.252 1.968,-0.756 0.52,-0.504 0.78,-1.148 0.78,-1.932 l 0,-0.24 -2.664,0 0,-0.984 3.648,0 0,4.668 -0.708,0 -0.276,-1.164 c -0.832,0.928 -1.828,1.392 -2.988,1.392 -1.184,0 -2.148,-0.424 -2.892,-1.272 -0.744,-0.848 -1.116,-1.944 -1.116,-3.288 0,-0.384 0.036,-0.768 0.108,-1.152 0.072,-0.392 0.208,-0.8 0.408,-1.224 0.2,-0.424 0.448,-0.796 0.744,-1.116 0.304,-0.31999 0.708,-0.58399 1.212,-0.792 0.512,-0.21599 1.088,-0.32399 1.728,-0.324 1,10e-6 1.82,0.24401 2.46,0.732 0.64799,0.488 1.04799,1.176 1.2,2.064 l -1.14,0 c -0.12,-0.56 -0.408,-1 -0.864,-1.32 -0.448,-0.328 -1.004,-0.492 -1.668,-0.492 -0.928,0 -1.672,0.328 -2.232,0.984 -0.56,0.648 -0.84,1.508 -0.84,2.58" />
      </g>
      <g
         id="g9318"
         transform="translate(380.16121,-294.06415)">
        <g
           transform="translate(4.89767,3.18373)"
           style="fill:#ffffff;stroke:none"
           id="g9320">
          <path
             sodipodi:nodetypes="cccccccc"
             inkscape:connector-curvature="0"
             id="path9322"
             d="m 174.90625,844.125 c -1.30896,1.3e-4 -2.49987,1.19104 -2.5,2.5 l 0,23.28125 5,0 0,-20.78125 8.125,0 0,-5 z"
             style="font-size:medium;font-style:normal;font-variant:normal;font-weight:normal;font-stretch:normal;text-indent:0;text-align:start;text-decoration:none;line-height:normal;letter-spacing:normal;word-spacing:normal;text-transform:none;direction:ltr;block-progression:tb;writing-mode:lr-tb;text-anchor:start;baseline-shift:baseline;color:#000000;fill:#ffffff;fill-opacity:1;stroke:none;stroke-width:5;marker:none;visibility:visible;display:inline;overflow:visible;enable-background:accumulate;font-family:Sans;-inkscape-font-specification:Sans" />
          <path
             inkscape:connector-curvature="0"
             id="path9324"
             d="m 193.30241,846.62995 -8.65,5 0,-10 8.65,5 z"
             style="fill:#ffffff;fill-rule:evenodd;stroke:none;stroke-width:1pt;marker-start:none" />
        </g>
        <path
           inkscape:connector-curvature="0"
           id="path9326"
           d="m 203.81627,831.60811 c 0,0 -2.98562,1.30063 -3.55875,4.67129 -0.57312,3.3707 -0.21505,23.48708 0.37578,30.1941 0.12146,1.37884 1.52518,1.86412 1.52518,1.86412 l 0.44208,0 0,2.19567 c 0,1.41706 0.70067,2.55669 1.56937,2.55669 l 3.76507,0 c 0.86872,0 1.56937,-1.13963 1.56937,-2.55669 l 0,-2.19567 9.8805,0 0.7147,0 9.88051,0 0,2.19567 c 0,1.41706 0.70065,2.55669 1.56938,2.55669 l 3.76506,0 c 0.86871,0 1.56939,-1.13963 1.56939,-2.55669 l 0,-2.19567 0.44207,0 c 0,0 1.40372,-0.48528 1.52517,-1.86412 0.59081,-6.70702 0.9489,-26.8234 0.37578,-30.1941 -0.57312,-3.37066 -3.55875,-4.67129 -3.55875,-4.67129 l -15.56861,0 -0.7147,0 -15.5686,0 z m 0.0958,2.07776 c 0.0991,-0.0137 0.1621,0.007 0.1621,0.007 l 15.31072,0 0.71469,0 15.31072,0 c 0,0 0.91728,-0.38728 1.75359,2.81458 0.83631,3.20183 0.75266,13.12516 -0.97257,16.47485 -1.72523,3.3497 -4.47976,3.89031 -4.47976,3.89031 l -11.61198,0 -0.71469,0 -11.61198,0 c 0,0 -2.75454,-0.54061 -4.47976,-3.89031 -1.72522,-3.34969 -1.80888,-13.27302 -0.97256,-16.47485 0.62722,-2.4014 1.2943,-2.78077 1.59148,-2.82196 z m -2.04093,26.08274 c 0,0 3.84834,0.70108 5.12813,1.40731 1.27979,0.70622 3.39665,2.89561 3.39665,2.89561 l -5.71021,-0.081 c -2.62983,-0.66448 -2.81457,-4.22188 -2.81457,-4.22188 z m 35.7422,0 c 0,0 -0.18474,3.55741 -2.81457,4.22189 l -5.71021,0.081 c 0,0 2.11686,-2.18938 3.39665,-2.8956 1.27978,-0.70623 5.12813,-1.40731 5.12813,-1.40731 z m -26.28905,3.47771 c 2.27623,0.61442 6.3044,0.71865 8.0606,0.7368 l 0,0.007 c 0.0687,-1.1e-4 0.25919,0 0.35366,0 0.0963,0 0.29119,-1.1e-4 0.36103,0 l 0,-0.007 c 1.75823,-0.0182 5.78589,-0.1228 8.06061,-0.7368 -2.30108,1.86235 -2.93247,2.68934 -2.93247,2.68934 l -5.12814,-0.13263 0,-0.0145 -0.36103,0.007 -0.35366,-0.007 0,0.0145 -5.12814,0.13263 c 0,0 -0.63138,-0.82699 -2.93246,-2.68934 z"
           style="opacity:0.98999999;fill:#ffffff;fill-opacity:1;stroke:none" />
      </g>
    </g>
  </g>
</svg>
