<?xml version="1.0" encoding="UTF-8" standalone="no"?>
<!--part of the rodentia icon theme by sixsixfive released under CC0 (https://creativecommons.org/publicdomain/zero/1.0/) on openclipart-->
<svg xmlns="http://www.w3.org/2000/svg" xmlns:xlink="http://www.w3.org/1999/xlink" viewBox="0 0 48 48">
 <defs id="0">
  <linearGradient id="2">
   <stop id="G" stop-color="#fff" stop-opacity="0.8"/>
   <stop id="H" offset="1" stop-color="#fff" stop-opacity="0"/>
  </linearGradient>
  <linearGradient id="3">
   <stop id="I" stop-color="#2e3436"/>
   <stop id="J" offset="1" stop-color="#2e3436" stop-opacity="0"/>
  </linearGradient>
  <linearGradient id="4">
   <stop id="K" stop-color="#fff"/>
   <stop id="L" offset="1" stop-color="#fff" stop-opacity="0"/>
  </linearGradient>
  <linearGradient x1="11.305" y1="-20.36" x2="26.879" y2="31.712" id="5" xlink:href="#4" gradientUnits="userSpaceOnUse" gradientTransform="translate(4.2663575e-7,1003.4432)"/>
  <radialGradient cx="32.977" cy="45.744" r="19.84" id="6" xlink:href="#3" gradientUnits="userSpaceOnUse" gradientTransform="matrix(1,0,0,0.05351171,0,43.29616)"/>
  <linearGradient y1="1021.03" x2="0" y2="1033.97" id="7" xlink:href="#2" gradientUnits="userSpaceOnUse"/>
 </defs>
 <g transform="translate(0,-1004.3622)" id="1">
  <path d="m 52.816938,45.743999 a 19.839529,1.0616471 0 1 1 -39.679058,0 19.839529,1.0616471 0 1 1 39.679058,0 z" transform="matrix(1.2019942,0,0,1.8125,-15.638655,959.64597)" id="8" opacity="0.8" fill="url(#6)"/>
  <path d="m 3.0000004,1019.9432 0,22.7285 41.9999996,0 0,-22.7285 -41.9999996,0 0,0 z" id="9" fill="#555753"/>
  <path d="m 4.0000004,1020.9432 0,20.658 39.9999996,0 0,-20.658 -39.9999996,0 0,0 z" id="A" fill="#d3d7cf"/>
  <rect width="27.809" height="15.564" x="6.405" y="1023.49" id="B" fill="#729fcf"/>
  <g transform="translate(0,-0.2080733)" id="C">
   <g transform="translate(0,0.9998533)" id="M">
    <rect width="7.806" height="12" x="7.576" y="1024.98" id="R" opacity="0.5" fill="#fff"/>
    <rect width="5.057" height="12" x="17.876" y="1024.98" id="S" opacity="0.5" fill="#fff"/>
   </g>
   <rect width="7.806" height="12" x="7.576" y="1024.98" id="N" fill="#555753"/>
   <rect width="5.057" height="12" x="17.876" y="1024.98" id="O" fill="#555753"/>
  </g>
  <path d="m 4.5,1021.4375 a 0.08762883,0.08762883 0 0 0 -0.03125,0.031 0.08762883,0.08762883 0 0 0 -0.03125,0.031 0.08762883,0.08762883 0 0 0 0,0.031 l 0,11.9376 a 0.08762883,0.08762883 0 0 0 0,0.031 0.08762883,0.08762883 0 0 0 0.03125,0.031 0.08762883,0.08762883 0 0 0 0.03125,0.031 0.08762883,0.08762883 0 0 0 0.03125,0 l 38.9375,0 a 0.08762883,0.08762883 0 0 0 0.03125,0 0.08762883,0.08762883 0 0 0 0.03125,-0.031 0.08762883,0.08762883 0 0 0 0.03125,-0.031 0.08762883,0.08762883 0 0 0 0,-0.031 l 0,-11.9376 a 0.08762883,0.08762883 0 0 0 0,-0.031 0.08762883,0.08762883 0 0 0 -0.03125,-0.031 0.08762883,0.08762883 0 0 0 -0.03125,-0.031 0.08762883,0.08762883 0 0 0 -0.03125,0 l -38.9375,0 a 0.08762883,0.08762883 0 0 0 -0.03125,0 z" transform="matrix(0.9931815,0,0,1.6124753,0.1636445,-625.52987)" id="D" fill="none" stroke="url(#7)" stroke-width="0.842"/>
  <path d="m 4.0000004,1020.9432 0,13 C 17.273072,1026.7996 30.530352,1022.5876 44,1021.0682 l 0,-0.125 -39.9999996,0 0,0 z" id="E" opacity="0.6" fill="url(#5)"/>
  <g transform="translate(0,-0.5353)" id="F">
   <path d="m 34.256,1023.9169 0,1.875 1.875,0 0,-1.875 -1.875,0 z m 1.875,1.875 0,13.0625 1.84375,0 0,-13.0625 -1.84375,0 z m 1.84375,0 1.875,0 0,-1.875 -1.875,0 0,1.875 z m 0,13.0625 0,1.8438 1.875,0 0,-1.8438 -1.875,0 z m -1.84375,0 -1.875,0 0,1.8438 1.875,0 0,-1.8438 z" id="P" fill="#fff"/>
   <path d="m 34.256,1022.9168 0,1.875 1.875,0 0,-1.875 -1.875,0 z m 1.875,1.875 0,13.0625 1.84375,0 0,-13.0625 -1.84375,0 z m 1.84375,0 1.875,0 0,-1.875 -1.875,0 0,1.875 z m 0,13.0625 0,1.8438 1.875,0 0,-1.8438 -1.875,0 z m -1.84375,0 -1.875,0 0,1.8438 1.875,0 0,-1.8438 z" id="Q" fill="#2e3436"/>
  </g>
 </g>
</svg>
