<?xml version="1.0"?>
<svg xmlns:rdf="http://www.w3.org/1999/02/22-rdf-syntax-ns#" xmlns="http://www.w3.org/2000/svg" xmlns:cc="http://web.resource.org/cc/" xmlns:xlink="http://www.w3.org/1999/xlink" xmlns:dc="http://purl.org/dc/elements/1.1/" xmlns:svg="http://www.w3.org/2000/svg" id="svg1350" height="6.1cm" width="10.15cm">
  <rect id="rect991" fill-rule="evenodd" height="216.05" width="359.65" stroke="#000" y=".093654" x=".069638" stroke-width=".125" fill="#fff"/>
  <path id="path809" d="m215.37 385.6c-16.01 7.41-19.92 17.16-26.99 24.93-7.07 7.78-17.61 24.5-38.11 18.85-0.64-4.19-3.29-15.74-11.02-20.97-4.77-2.91-10.6-7.07-11.66-14.14-8.48 2.12-29.724 3.82-30.749-7.42-0.353-3.89 2.977-9.84-0.585-13.94-0.804 0.02-5.312 0.11-6.494-0.44-1.237-1.46-0.016-6.78 0.88-7.96l-0.009-0.05c-2.116-0.19-7.576-5.18-0.861-8.71 1.771-2.08 1.461-3.78 1.455-5.7-1.109 0.01-3.836-0.02-4.235-0.05-7.078-0.02-6.169-4.59-4.13-9.45 1.414-3.18 9.384-18.38 10.798-20.5s1.414-3.18 0.354-5.3c-1.061-2.12-0.707-5.65 0-8.13 0.706-2.47 2.12-6.36 1.06-7.42s-0.707-4.6-0.354-5.3c0.354-0.71 0.354-2.48 0.354-3.18 0-0.71 0.353-2.48 1.414-3.18 1.06-0.71 1.767-3.19 1.06-3.89-0.707-0.71 0.353-5.66 1.414-6.01 1.058-0.35 3.178-1.06 4.238-3.54-0.12-3.49 2.62-7.45 4.24-9.18 1.06-1.06 0.71-4.6 0.71-4.6l3.11 0.07c0.34-0.11 2.9-3.6 5.37-4.31 2.48-0.71 8.13-3.53 8.13-3.53l3.89-4.25 3.53 1.77s2.83-1.06 5.31-1.41c2.47-0.36 7.77-2.12 9.54-4.95s1.41 3.36 1.47 3.7c0.22 0.06 3.12-1.58 8.07-1.23 4.95 0.36 10.6 2.48 12.37 1.77s3.54 1.41 3.54 1.41 3.53 2.13 6.36 2.13h5.3l0.35 2.47s5.3 1.82 7.78 2.88c2.47 1.06 4.59 2.42 7.77 2.77 3.18 0.36 4.25 1.42 4.25 1.42l-1.42 2.83s3.82 0.77 4.95 4.59c2.12 2.83 4.95 7.42 7.07 7.78 2.12 0.35 3.53 1.41 3.53 1.41l-2.82 3.53s0.7 1.06 2.12 2.48c1.41 1.41 4.24 3.89 4.24 3.89l-1.77 3.18s0 0.7 0.35 2.47c0.36 1.77 0.36 4.95 2.12 5.66 1.77 0.7 1.77 2.82 1.77 2.82s0.35 0.36-1.77 1.06c-2.12 0.71-3.53 0.71-2.47 2.12 1.06 1.42 2.83 3.89 2.83 3.89s-1.77 1.06-3.54 1.42c-1.76 0.35-3.53 0.35-3.53 0.35s1.41 6.71 2.83 7.77c1.41 1.06-2.12 1.77-4.25 0.71-2.12-1.06-0.79 3.18 0.62 3.54 1.42 0.35-0.51 0.84-2.17 0.86-1.41-0.35-3.23-0.11-2.42 1.98 1.06 2.83 2.21 4.22-0.62 5.64-2.83 1.41-5.39 7.77-3.98 9.89 1.42 2.12 2.21 5.31 2.21 5.31l-6.71 0.35s-0.46 1.06 1.31 2.83c1.76 1.76 3.53 3.78 3.28 4.27 0.06 0.77-5.32 0.46-5.26 1.22 4.57 22.59 15.42 28.93 15.44 30.12l-0.86 0.6z" stroke="#000" transform="translate(22.5 -228.75)" fill-rule="evenodd"/>
  <path id="path792" d="m102.76 277.38c-2.36 1.77-4.421 4.71-2.36 6.48 2.65 2.36 3.83 3.24 3.83 3.24s-4.713-1.47-5.596 0.29c-0.884 1.77-1.914 4.46 0 5.01 1.476 0.88 4.706 2.65 4.706 2.65s-7.356-0.88-5.59-0.59c-0.883 2.36-1.766 6.48 2.94 8.24 4.72 1.77 19.44 7.07 22.09 8.54s8.54 2.36 11.48 2.36 13.84 0.59 12.07 0.59l-6.48 1.76c-1.1 0.11 13.4 4.93 15.54 4.49 1.14-2.65 15.97-16.56 24.21 0.52 0.88 3.83-2.06 9.71-5 10.89-2.95 1.18-4.42 2.65-5.6 5.89s-4.19 9.02-7.43 8.54c-4.46-2.91-6.41-2.65-4.35-0.3 2.29 3.24 7.62 3.39 10.31-0.58 2.25-2.76 4.27-9.9 8.83-11.78 2.36-0.88 5.3-6.48 5.3-6.48s4.12-0.29 5.89 1.47c1.77 1.77 6.18 1.77 8.83 1.48 2.65-0.3 7.11-1.29 5.64-1.29-1.48 0 4.08-0.19 5.85 0.11 1.76 0.29 1.17-4.42-1.77-6.77-2.94-2.36-11.19-6.19-12.95-8.54-1.77-2.36-14.43-9.42-17.96-9.72-3.54-0.29-7.95-2.65-7.95-2.65s6.62-0.11 3.38-0.7-9.57-3.13-12.81-4.3c-3.23-1.18-5.88-1.18-9.42-1.18-3.53 0-26.99-5.75-32.84-9.32-4.42-1.47 20.95 5.9 23.9 6.19 5 0.74 6.59-0.26-1.66-4.23-3.53-2.06-19.27-10.31-31.86-13.76-1.29 1.29-0.82 1.69-3.17 3.45z" fill-rule="evenodd" transform="translate(22.5 -228.75)" stroke="#000" stroke-width=".125" fill="#fff"/>
  <path id="path817" d="m167.05 325.85c0.11 0.02 0.59 0.1 0.89 0.42 0.34 0.44 0.63 0.83 0.8 1.25 0.12 0.56 0.29 1.02 0.2 1.56-0.2 0.52-0.45 0.89-0.8 1.25-0.39 0.48-0.68 0.73-1.09 1.04-0.46 0.21-0.9 0.64-1.29 0.83-0.19 0.25-0.67 0.44-0.9 0.72-0.26 0.36-0.47 0.54-0.49 1.04-0.18 0.51-0.23 1.13-0.3 1.67-0.1 0.59-0.24 1.14-0.3 1.66-0.25 0.45-0.52 0.68-1.09 0.83-0.48 0.09-0.97 0.11-1.49 0.11-0.3-0.29-0.81-0.61-1.1-0.94v-0.83" transform="translate(22.5 -228.75)" stroke="#fff" stroke-linecap="round" stroke-width="2.5298" fill="none"/>
  <path id="path818" d="m158.77 323.53c2.54-4.08 18.45-11.6 14.58 2.99-0.88 1.54 0.78 2.21 1.22 1.1 4.09-17.23-13.48-10.05-16.24-5.52-1.11 1.88 0.44 1.54 0.44 1.43z" fill-rule="evenodd" transform="translate(22.5 -228.75)" stroke="#fff" fill="#fff"/>
  <path id="path823" d="m101.43 298.67c5.96-0.11 12.26 0.23 17.12 3.32s9.17 3.98 14.36 3.98c5.2 0 7.85 0.11 7.85 0.11v0" transform="translate(22.5 -228.75)" stroke="#000" stroke-linecap="round" stroke-width="2" fill="none"/>
  <path id="path824" d="m174.85 307.63c9.97 3.86 11.74 5 15.95 7.72s5.76 3.18 9.31 5.45c2.63 1.59 4.21 3.4 4.21 3.4 2.27 1.82-9.85-7.03-17.73-5.22-2.88 0-3.32 0-5.98-2.95s-5.76-5.45-10.19-7.26c-4.43-1.82-12.19-4.77-12.19-4.77" transform="translate(22.5 -228.75)" stroke="#000" stroke-width="1.9758" fill="none"/>
  <path id="path826" d="m185.93 324.88c0.6 0 3.12-0.09 4.09 0.23 0.84 0.12 2.19 0.22 2.95 0.46 1.28 0.15 2.46 0.42 3.86 0.45 1.49 0.01 2.03 0.47 3.4 0.68 0.43 0.54 1.24 1.18 1.82 1.59" transform="translate(22.5 -228.75)" stroke="#000" stroke-linecap="round" stroke-width="1.75" fill="none"/>
  <path id="path808" d="m103.56 316.52c3.66 5.05 9.27 7.81 15.4 9.13-0.16 1.48-7.44 1.58-10.16 5.02" transform="translate(22.5 -228.75)" stroke="#fff" stroke-width="2.25" fill="none"/>
  <g id="g895" stroke="#000" stroke-width="2" transform="translate(22.5 -228.75)" fill="none">
    <path id="path865" d="m240.5 258.37c0.12 1.29 0.52 6.92-0.04 6.98-3.18 0.45-5.37 0.99-8.09 3.71-2.73 2.72-8.96 7.36-12.5 1-1.81-3.64 2.61-5.34 4.88-5.34 2.23-0.07 5.74-1.8 9.37-2.71 3.63-0.9 5.1-3.24 5.56-2.78l0.82-0.86z"/>
    <g id="g885">
      <path id="path863" d="m254.81 272.27c0.5-0.27 2.86-3.42 1.64-7.25-1.77-2.65 8 2.85 5.94 5.79-2.61 2.04-7.78 2.01-7.58 1.46z"/>
      <g id="g877">
        <path id="path864" d="m231.56 259.98c-0.05-0.6-0.12-5.97-0.03-7.16 1.83-0.27 7.23-1.05 8.41 0.71 4.19 6.33-8.01 9.49-8.31 8.6l-0.07-2.15z"/>
        <g id="g871">
          <path id="path862" d="m221.7 272.67l7.66 26.5s4.32 18.81-8.83 23.85c-4.12 0.29-5.6-0.3-5.6-0.3l1.18 6.48c5.84 6.02 9.61 4.6 14.61 2.54 5.01-2.06 5.21-2.22 7.86-3.69 2.65-1.48 6.3-9.77 6.71-12.13 1.13-6.1 4.97-18.09 16.49-43.54-2.08-0.18-15.63 1.18-16.54 1.18-0.46 0.73-2.59 4.21-5.87 5.59-3.6 1.47-8.79-2.77-3.53-6.18 2.57-1.64 11.1 0.29 10.94-4.17-0.22-3.87-5.94-3.49-8.29-3.19-2.36 0.29-5.6 2.94-7.07 4.41-3.3 3.3-7.95 3.83-9.72 2.65z"/>
          <g id="g867">
            <path id="path859" d="m209.93 335.68c1.76 2.94 3.53 6.48 4.41 11.19 0.89 4.71 3.44 11.3 10.01 12.95 5.3 1.48 10.02 3.83 11.19 7.95 1.18 4.12 2.02 9.38 2.02 9.29l8.2-11.59c-0.09-1.55-0.16-5.33-0.16-9.75-0.09-6.42-4.85-7.99-9.56-9.76-4.71-1.76-9.99-3.96-11.46-6.61s-5.23-7.2-7.29-8.97-7.36 5.3-7.36 5.3z"/>
            <path id="path860" d="m218.59 390.34c4.55 8.18 5.59 18.69 7.46 26.52 3.25-6.17 8.31-10.57 13.64-14.03 0.31-6.14 1.86-14.62 3.63-17.27 8.53-12.43 2.53-19.55 2.53-19.55-8.53 10.01-8.82 17.17-27.25 24.31l-0.01 0.02z"/>
            <path id="path866" d="m210.48 415.63c-0.24 2.03 2.48 9.09 7.08 9.41 4.52 0.31 7.13-3.17 7.96-7.23l-2.27-13.65-12.77 11.47z"/>
          </g>
        </g>
      </g>
    </g>
  </g>
  <path id="path912" d="m210.45 325.11c-0.91-2.5 0.45-2.5 2.95-1.36 4.08 2.5 1.13 8.85-3.41 10.21-2.49 1.14-3.86-1.81-0.22-3.17 3.4-0.91 0.68-5.91 0.68-5.68h0.22-0.22z" fill-rule="evenodd" transform="translate(22.5 -228.75)" stroke="#000" fill="#fff"/>
  <path id="path955" d="m239.96 363.96v0.31c0-0.83-0.02-0.41 0.23 1.23 0 1.66 0.12 3.06 0.22 4.62 0 1.28-0.15 2.21-0.22 3.38" transform="translate(22.5 -228.75)" stroke="#000" stroke-width="1.25" fill="none"/>
  <path id="path956" d="m237.69 365.5v0.56c0-1.04-0.03-0.75 0.23 0.84 0.09 1.59 0.41 2.41 0.45 3.94 0 1.54-0.18 2.75-0.23 4.22" transform="translate(22.5 -228.75)" stroke="#000" stroke-width="1.25" fill="none"/>
  <path id="path957" d="m236.55 399.35h0.23c-0.06 0.21 0 1.43 0 2.24 0 1.22-0.02 2.42-0.23 3.2" transform="translate(22.5 -228.75)" stroke="#000" stroke-width="1.25" fill="none"/>
  <path id="path958" d="m234.06 400.48v0.46-0.46 0.46-0.46c0.05 1.68 0.22 2.61 0.22 4.32 0 0.52 0.1 0.91-0.22 1.13" transform="translate(22.5 -228.75)" stroke="#000" stroke-width="1.25" fill="none"/>
  <path id="path960" d="m231.79 401.84c0.09 1.83 0.4 3.03 0.45 4.91 0 0.94-0.19 1.05-0.23 1.9" transform="translate(22.5 -228.75)" stroke="#000" stroke-width="1.25" fill="none"/>
  <path id="path961" d="m229.06 403.23v0.28c0-0.77-0.01-0.38 0.23 1.15 0.04 1.41 0.23 2.17 0.23 3.73-0.05 1.5-0.38 2.12-0.46 3.44" transform="translate(22.5 -228.75)" stroke="#000" stroke-width="1.25" fill="none"/>
  <path id="path963" d="m227.02 404.11c0 0.41 0.12 1.98 0.23 2.96v3.17c-0.13 1.06-0.36 2.2-0.68 2.95v0.69" transform="translate(22.5 -228.75)" stroke="#000" stroke-width="1.25" fill="none"/>
  <path id="path977" d="m242.23 364.46c0.06 0.43 0.39 2.05 0 3.1 0 0.93-0.11 1.4-0.23 2.07" transform="translate(22.5 -228.75)" stroke="#000" stroke-width="1.25" fill="none"/>
  <path id="path978" d="m216.02 325.2c3.04 0.63 10.46 0 13.43-2.18l2.97-2.19" stroke="#000" fill="none" transform="translate(22.5 -228.75)"/>
  <path id="path979" d="m216.03 326.7c2.91 1.1 10.33 1.65 13.61-0.04l3.28-1.7" stroke="#000" fill="none" transform="translate(22.5 -228.75)"/>
  <path id="path980" d="m215.78 330.67c1.56 1.88 2.66 2.82 3.13 5.32l0.47 2.5" stroke="#000" fill="none" transform="translate(22.5 -228.75)"/>
  <path id="path981" d="m213.91 331.61c1.87 2.66 3.12 3.59 3.75 6.25l0.62 2.66" stroke="#000" fill="none" transform="translate(22.5 -228.75)"/>
  <path id="path982" d="m212.34 333.33c0.79 4.06 3.91 11.72 6.25 14.22 2.35 2.5 2.35 2.5 2.35 2.5" stroke="#000" fill="none" transform="translate(22.5 -228.75)"/>
  <path id="path983" d="m224.06 419.63c-1.58-0.21-4.64-2.75-5.33-3.67-0.69-0.91-0.74-1.3-0.74-1.3" transform="translate(22.5 -228.75)" stroke="#000" stroke-width="1.1958" fill="none"/>
  <path id="path984" d="m222.97 421.7c-1.71-0.42-5.02-3.21-5.77-4.15-0.74-0.95-0.89-1.19-0.89-1.19" transform="translate(22.5 -228.75)" stroke="#000" stroke-width="1.1957" fill="none"/>
  <path id="path985" d="m222.03 423.6c-1.8-0.2-5.52-3.02-6.39-4.04l-0.87-1.02" transform="translate(22.5 -228.75)" stroke="#000" stroke-width="1.3526" fill="none"/>
  <path id="path986" d="m244.4 282.04c-0.23 1.89-0.35 5.63 0.34 7.98l0.69 2.36" stroke="#000" fill="none" transform="translate(22.5 -228.75)"/>
  <path id="path987" d="m249.91 276.06c-1.32 0.46-3.27 1.5-3.9 2.36-0.64 0.86-0.64 0.86-0.64 0.86" stroke="#000" fill="none" transform="translate(22.5 -228.75)"/>
  <path id="path988" d="m233.97 277.76c2.84 5.01 1.96 21.35 1.37 23.21l-0.59 1.86" transform="translate(22.5 -228.75)" stroke="#000" stroke-width="1.3151" fill="none"/>
  <path id="path989" d="m224.69 267.63c-1.17 0.39-3.6 2.3-3.79 3.36" stroke="#000" fill="none" transform="translate(22.5 -228.75)"/>
  <path id="path990" d="m226.56 268.99c-1.17 0.39-3.59 2.31-3.79 3.36" stroke="#000" fill="none" transform="translate(22.5 -228.75)"/>
  <path id="path1049" d="m129.67 92.309c-2.32-0.125-2.51 6.605 0.48 6.449" stroke="#feffff" stroke-width="1.45" fill="none"/>
  <path id="path1051" d="m130.16 92.309c2.32-0.125 2.51 6.604-0.48 6.449" stroke="#feffff" stroke-width="1.45" fill="none"/>
  <path id="path1052" d="m130 92.443l-0.08 5.639" stroke="#feffff" stroke-width="3.5718" fill="none"/>
  <metadata>
    <rdf:RDF>
      <cc:Work>
        <dc:format>image/svg+xml</dc:format>
        <dc:type rdf:resource="http://purl.org/dc/dcmitype/StillImage"/>
        <cc:license rdf:resource="http://creativecommons.org/licenses/publicdomain/"/>
        <dc:publisher>
          <cc:Agent rdf:about="http://openclipart.org/">
            <dc:title>Openclipart</dc:title>
          </cc:Agent>
        </dc:publisher>
        <dc:title>france corsica</dc:title>
        <dc:date>2010-05-19T03:01:30</dc:date>
        <dc:description>originally uploaded by Patricia Fidi from OCAL 0.18</dc:description>
        <dc:source>http://openclipart.org/detail/60943/france-corsica-by-anonymous</dc:source>
        <dc:creator>
          <cc:Agent>
            <dc:title>Anonymous</dc:title>
          </cc:Agent>
        </dc:creator>
        <dc:subject>
          <rdf:Bag>
            <rdf:li>clip art</rdf:li>
            <rdf:li>clipart</rdf:li>
            <rdf:li>corsica</rdf:li>
            <rdf:li>europe</rdf:li>
            <rdf:li>flag</rdf:li>
            <rdf:li>france</rdf:li>
          </rdf:Bag>
        </dc:subject>
      </cc:Work>
      <cc:License rdf:about="http://creativecommons.org/licenses/publicdomain/">
        <cc:permits rdf:resource="http://creativecommons.org/ns#Reproduction"/>
        <cc:permits rdf:resource="http://creativecommons.org/ns#Distribution"/>
        <cc:permits rdf:resource="http://creativecommons.org/ns#DerivativeWorks"/>
      </cc:License>
    </rdf:RDF>
  </metadata>
</svg>
