<?xml version="1.0"?>
<svg xmlns:rdf="http://www.w3.org/1999/02/22-rdf-syntax-ns#" xmlns="http://www.w3.org/2000/svg" xmlns:cc="http://web.resource.org/cc/" xmlns:xlink="http://www.w3.org/1999/xlink" xmlns:dc="http://purl.org/dc/elements/1.1/" xmlns:svg="http://www.w3.org/2000/svg" id="svg4123" viewBox="0 0 308.43 234.62" version="1.0">
  <defs id="defs4125">
    <linearGradient id="linearGradient12737" x1="81.349" xlink:href="#linearGradient3534" gradientUnits="userSpaceOnUse" y1="55.915" gradientTransform="translate(-549.1 -163.2)" x2="114.71" y2="140.3"/>
    <linearGradient id="linearGradient12735" x1="75.485" xlink:href="#linearGradient3488" gradientUnits="userSpaceOnUse" y1="216.27" gradientTransform="translate(-549.1 -163.2)" x2="150.18" y2="78.338"/>
    <linearGradient id="linearGradient12733" x1="150.07" xlink:href="#linearGradient3534" gradientUnits="userSpaceOnUse" y1="69.702" gradientTransform="translate(-549.1 -163.2)" x2="153.64" y2="103.84"/>
    <linearGradient id="linearGradient12731" x1="-75.391" xlink:href="#linearGradient3488" gradientUnits="userSpaceOnUse" y1="321.59" gradientTransform="translate(-549.1 -163.2)" x2="127.22" y2="102.7"/>
    <linearGradient id="linearGradient12729" x1="198.59" gradientUnits="userSpaceOnUse" y1="97.137" gradientTransform="translate(-549.1 -163.2)" x2="58.949" y2="147.26">
      <stop id="stop3470" stop-color="#d8d8d8" offset="0"/>
      <stop id="stop3476" stop-color="#f0f0f0" offset=".22455"/>
      <stop id="stop3478" stop-color="#fff" offset=".46812"/>
      <stop id="stop3480" stop-color="#f3f3f3" offset=".76308"/>
      <stop id="stop3472" stop-color="#d6d6d6" offset="1"/>
    </linearGradient>
    <linearGradient id="linearGradient12727" x1="-4.734" gradientUnits="userSpaceOnUse" y1="184.18" gradientTransform="translate(-549.1 -163.2)" x2="227.46" y2="56.956">
      <stop id="stop3807" stop-color="#288a29" offset="0"/>
      <stop id="stop3809" stop-color="#00e91a" offset="1"/>
    </linearGradient>
    <linearGradient id="linearGradient12725" x1="664.32" gradientUnits="userSpaceOnUse" y1="393.51" gradientTransform="matrix(.31458 .0331 -.031703 .28489 -530.57 -223.1)" x2="255.14" y2="778.66">
      <stop id="stop3801" stop-color="#019300" stop-opacity=".8" offset="0"/>
      <stop id="stop3803" stop-color="#7dff85" stop-opacity=".71765" offset="1"/>
    </linearGradient>
    <linearGradient id="linearGradient12723" x1="78.742" xlink:href="#linearGradient3534" gradientUnits="userSpaceOnUse" y1="77.996" gradientTransform="translate(-529.08 -219.59)" x2="26.839" y2="35.083"/>
    <linearGradient id="linearGradient12721" x1="122.18" xlink:href="#linearGradient3534" gradientUnits="userSpaceOnUse" y1="38.275" gradientTransform="translate(-549.1 -163.2)" x2="50.208" y2="94.39"/>
    <linearGradient id="linearGradient12719" x1="-52.615" xlink:href="#linearGradient3488" gradientUnits="userSpaceOnUse" y1="111.33" gradientTransform="matrix(1.0011 0 0 .97714 -428.23 -61.49)" x2="-89.169" y2="-160.23"/>
    <linearGradient id="linearGradient12717" x1="79.246" xlink:href="#linearGradient3534" gradientUnits="userSpaceOnUse" y1="-126.4" gradientTransform="matrix(1 0 0 .66342 -549.1 -146.13)" x2="140.07" y2="166.59"/>
    <linearGradient id="linearGradient12715" x1="46.211" gradientUnits="userSpaceOnUse" y1="40.434" gradientTransform="translate(-549.1 -163.2)" x2="115.26" y2="167.01">
      <stop id="stop3813" stop-color="#288a2a" offset="0"/>
      <stop id="stop3815" stop-color="#00e910" offset="1"/>
    </linearGradient>
    <linearGradient id="linearGradient12713" x1="218.06" gradientUnits="userSpaceOnUse" y1="352.41" gradientTransform="matrix(.30595 -.029586 .042229 .31115 -530.13 -128.34)" x2="274.43" y2="77.316">
      <stop id="stop3795" stop-color="#2cc84e" offset="0"/>
      <stop id="stop3797" stop-color="#c2ffc8" offset="1"/>
    </linearGradient>
    <linearGradient id="linearGradient12759" x1="148.07" xlink:href="#linearGradient3534" gradientUnits="userSpaceOnUse" y1="69.702" gradientTransform="translate(-549.1 -163.2)" x2="153.64" y2="100.84"/>
    <linearGradient id="linearGradient12753" x1="-4.734" gradientUnits="userSpaceOnUse" y1="184.18" gradientTransform="translate(-549.1 -163.2)" x2="227.46" y2="56.956">
      <stop id="stop3671" stop-color="#8a6b28" offset="0"/>
      <stop id="stop3673" stop-color="#e99400" offset="1"/>
    </linearGradient>
    <linearGradient id="linearGradient12751" x1="664.32" gradientUnits="userSpaceOnUse" y1="393.51" gradientTransform="matrix(.31458 .0331 -.031703 .28489 -530.57 -223.1)" x2="255.14" y2="778.66">
      <stop id="stop3677" stop-color="#936200" stop-opacity=".8" offset="0"/>
      <stop id="stop3679" stop-color="#ffce7d" stop-opacity=".71765" offset="1"/>
    </linearGradient>
    <linearGradient id="linearGradient12741" x1="46.211" gradientUnits="userSpaceOnUse" y1="40.434" gradientTransform="translate(-549.1 -163.2)" x2="115.26" y2="167.01">
      <stop id="stop3665" stop-color="#8a6b28" offset="0"/>
      <stop id="stop3667" stop-color="#e99500" offset="1"/>
    </linearGradient>
    <linearGradient id="linearGradient12739" x1="218.06" gradientUnits="userSpaceOnUse" y1="352.41" gradientTransform="matrix(.30595 -.029586 .042229 .31115 -530.13 -128.34)" x2="274.43" y2="77.316">
      <stop id="stop3659" stop-color="#ffcd55" offset="0"/>
      <stop id="stop3661" stop-color="#ffebc2" offset="1"/>
    </linearGradient>
    <linearGradient id="linearGradient12779" x1="-4.734" xlink:href="#linearGradient3314" gradientUnits="userSpaceOnUse" y1="184.18" gradientTransform="translate(-549.1 -163.2)" x2="227.46" y2="56.956"/>
    <linearGradient id="linearGradient12777" x1="664.32" gradientUnits="userSpaceOnUse" y1="393.51" gradientTransform="matrix(.31458 .0331 -.031703 .28489 -530.57 -223.1)" x2="255.14" y2="778.66">
      <stop id="stop2409" stop-color="#003a93" stop-opacity=".79866" offset="0"/>
      <stop id="stop2411" stop-color="#7db1ff" stop-opacity=".71812" offset="1"/>
    </linearGradient>
    <linearGradient id="linearGradient3314">
      <stop id="stop3316" stop-color="#283f8a" offset="0"/>
      <stop id="stop3318" stop-color="#0089e9" offset="1"/>
    </linearGradient>
    <linearGradient id="linearGradient12767" x1="46.211" xlink:href="#linearGradient3314" gradientUnits="userSpaceOnUse" y1="40.434" gradientTransform="translate(-549.1 -163.2)" x2="115.26" y2="167.01"/>
    <linearGradient id="linearGradient12765" x1="218.06" gradientUnits="userSpaceOnUse" y1="352.41" gradientTransform="matrix(.30595 -.029586 .042229 .31115 -530.13 -128.34)" x2="274.43" y2="77.316">
      <stop id="stop2397" stop-color="#59f" offset="0"/>
      <stop id="stop2399" stop-color="#c2dbff" offset="1"/>
    </linearGradient>
    <filter id="filter3530">
      <feGaussianBlur id="feGaussianBlur3532" stdDeviation="1.0172855"/>
    </filter>
    <linearGradient id="linearGradient3534">
      <stop id="stop3536" stop-color="#fff" offset="0"/>
      <stop id="stop3538" stop-color="#fff" stop-opacity="0" offset="1"/>
    </linearGradient>
    <filter id="filter3500">
      <feGaussianBlur id="feGaussianBlur3502" stdDeviation="1.0208063"/>
    </filter>
    <linearGradient id="linearGradient3488">
      <stop id="stop3490" offset="0"/>
      <stop id="stop3492" stop-opacity="0" offset="1"/>
    </linearGradient>
    <linearGradient id="linearGradient12805" x1="-4.734" gradientUnits="userSpaceOnUse" y1="184.18" gradientTransform="translate(-549.1 -163.2)" x2="227.46" y2="56.956">
      <stop id="stop11492" stop-color="#8a2883" offset="0"/>
      <stop id="stop11494" stop-color="#e900de" offset="1"/>
    </linearGradient>
    <linearGradient id="linearGradient12803" x1="664.32" gradientUnits="userSpaceOnUse" y1="393.51" gradientTransform="matrix(.31458 .0331 -.031703 .28489 -530.57 -223.1)" x2="255.14" y2="778.66">
      <stop id="stop11486" stop-color="#930085" stop-opacity=".8" offset="0"/>
      <stop id="stop11488" stop-color="#ff7df9" stop-opacity=".71765" offset="1"/>
    </linearGradient>
    <filter id="filter3342" y="-.17679" width="1.0257" height="1.3536" x="-.012874">
      <feGaussianBlur id="feGaussianBlur3344" stdDeviation="0.73981434"/>
    </filter>
    <filter id="filter3384" y="-.021205" width="1.2382" height="1.0424" x="-.11909">
      <feGaussianBlur id="feGaussianBlur3386" stdDeviation="0.81591018"/>
    </filter>
    <linearGradient id="linearGradient12793" x1="46.211" gradientUnits="userSpaceOnUse" y1="40.434" gradientTransform="translate(-549.1 -163.2)" x2="115.26" y2="167.01">
      <stop id="stop11474" stop-color="#8a2884" offset="0"/>
      <stop id="stop11476" stop-color="#e900df" offset="1"/>
    </linearGradient>
    <linearGradient id="linearGradient12791" x1="218.06" gradientUnits="userSpaceOnUse" y1="352.41" gradientTransform="matrix(.30595 -.029586 .042229 .31115 -530.13 -128.34)" x2="274.43" y2="77.316">
      <stop id="stop11480" stop-color="#c82cbd" offset="0"/>
      <stop id="stop11482" stop-color="#ffc2fa" offset="1"/>
    </linearGradient>
  </defs>
  <g id="layer1" transform="translate(-30.235 -16.934)">
    <g id="g12333" transform="matrix(.86110 0 0 .86110 481.38 370.04)">
      <g id="g12335" transform="matrix(.76627 0 0 1 -124.26 -271.81)">
        <g id="g12337">
          <path id="path12339" stroke="url(#linearGradient12715)" stroke-width="1.5" fill="url(#linearGradient12713)" d="m-506.24-108.72l42.28-4.09c2.89-0.27 4.25 0.75 4.7 3.33l0.74 5.17 85.66-8.29c1.48-0.14 2.83 0.96 3.04 2.46l10.67 78.639c0.2 1.503-0.82 2.827-2.3 2.97l-132.17 12.782c-1.48 0.143-2.83-0.952-3.04-2.454l-11.88-87.547c-0.2-1.51 0.82-2.83 2.3-2.97z"/>
          <path id="path12341" opacity=".32114" fill="url(#linearGradient12717)" d="m-462.98-112.48c-0.31-0.01-0.64 0-1 0.02l-42.28 2.71c-1.48 0.1-2.51 0.98-2.31 1.97l7.58 38.833c10.62-6.466 25.44-17.117 46.54-19.01 41.26-3.662 62.91-10.743 84.71-15.203l-0.11-7.52c-0.21-1-1.56-1.73-3.03-1.64l-85.66 5.5-0.75-3.42c-0.39-1.5-1.48-2.21-3.69-2.24z"/>
          <path id="path12343" d="m-492.36-17.091c-1.48 0.14-2.83-0.93-3.04-2.398l-11.89-85.551c-0.21-1.47 0.82-2.76 2.3-2.9" filter="url(#filter3384)" stroke="url(#linearGradient12719)" stroke-width="1.4836" fill="none"/>
          <path id="path12345" d="m-507.13-107.5l42.28-4.09c2.89-0.27 4.25 0.75 4.7 3.33l0.74 5.17 85.67-8.29c1.47-0.14 2.83 0.96 3.03 2.46" filter="url(#filter3342)" stroke="url(#linearGradient12721)" stroke-width="1.5" fill="none"/>
          <rect id="rect12347" opacity=".85772" ry="1.3321" transform="matrix(.99454 -.10431 .10431 .99454 0 0)" width="41.653" y="-157.33" x="-490.92" height="6.7793" fill="url(#linearGradient12723)"/>
        </g>
        <g id="g12349">
          <path id="path12351" stroke="url(#linearGradient12727)" stroke-width="1.5" fill="url(#linearGradient12725)" d="m-477.4-80.856l134.94-13.381c1.49-0.147 2.24 0.689 1.67 1.875l-15.73 61.762c-0.57 1.186-2.23 2.259-3.72 2.406l-133.58 13.175c-1.5 0.148-2.24-0.689-1.68-1.875l14.38-61.556c0.57-1.186 2.23-2.259 3.72-2.406z"/>
          <path id="path12353" opacity=".80488" fill="url(#linearGradient12729)" d="m-350.51-56.712c-44.06 4.453-101.95 10.275-137.28 13.688l-5.91 25.218c-0.55 1.167 0.19 1.989 1.66 1.844l131.41-12.969c1.46-0.145 3.09-1.208 3.65-2.375l6.47-25.406z"/>
          <path id="path12355" opacity=".82114" fill="url(#linearGradient12731)" d="m-476.72-80.098l132.75-13.163c1.47-0.145 2.2 0.678 1.65 1.844l-15.49 60.761c-0.55 1.166-2.19 2.222-3.65 2.367l-131.42 12.961c-1.47 0.145-2.2-0.677-1.65-1.844l14.15-60.558c0.56-1.167 2.19-2.223 3.66-2.368z"/>
          <path id="path12357" opacity=".51626" fill="url(#linearGradient12733)" d="m-343.13-93.482l-132.75 13.156c-1.47 0.145-3.1 1.209-3.66 2.375l-8.09 34.625c17.47-8.015 37.19-14.444 54.18-16.312 38.02-4.177 64.41-6.536 89.88-23.875l2.06-8.125c0.56-1.167-0.15-1.989-1.62-1.844z"/>
          <path id="path12359" d="m-357.25-31.25c-0.56 1.148-2.2 2.187-3.67 2.329l-131.97 12.754c-1.48 0.142-2.21-0.667-1.65-1.815l14.2-59.586c0.56-1.147 2.2-2.186 3.68-2.329" filter="url(#filter3500)" stroke="url(#linearGradient12735)" stroke-width="1.4669" fill="none"/>
          <path id="path12361" d="m-478.57-79.88l134.94-13.381c1.5-0.147 2.24 0.689 1.68 1.875l-15.74 61.762" filter="url(#filter3530)" stroke="url(#linearGradient12737)" stroke-width="1.5" fill="none"/>
        </g>
      </g>
      <rect id="rect12363" ry="1.5435" height="148.65" width="148.65" y="-410.06" x="-523.92" fill="none"/>
    </g>
    <g id="g12365" transform="matrix(.86110 0 0 .86110 694.73 399.58)">
      <g id="g12367" transform="matrix(.76602 0 0 1 -480.61 -248.9)">
        <g id="g12369" transform="translate(232.8 -16.624)">
          <path id="path12371" stroke="url(#linearGradient12741)" stroke-width="1.5" fill="url(#linearGradient12739)" d="m-506.24-108.72l42.28-4.09c2.89-0.27 4.25 0.75 4.7 3.33l0.74 5.17 85.66-8.29c1.48-0.14 2.83 0.96 3.04 2.46l10.67 78.639c0.2 1.503-0.82 2.827-2.3 2.97l-132.17 12.782c-1.48 0.143-2.83-0.952-3.04-2.454l-11.88-87.547c-0.2-1.51 0.82-2.83 2.3-2.97z"/>
          <path id="path12373" opacity=".32114" fill="url(#linearGradient12717)" d="m-462.98-112.48c-0.31-0.01-0.64 0-1 0.02l-42.28 2.71c-1.48 0.1-2.51 0.98-2.31 1.97l7.58 38.833c10.62-6.466 25.44-17.117 46.54-19.01 41.26-3.662 62.91-10.743 84.71-15.203l-0.11-7.52c-0.21-1-1.56-1.73-3.03-1.64l-85.66 5.5-0.75-3.42c-0.39-1.5-1.48-2.21-3.69-2.24z"/>
          <path id="path12375" d="m-492.36-17.091c-1.48 0.14-2.83-0.93-3.04-2.398l-11.89-85.551c-0.21-1.47 0.82-2.76 2.3-2.9" filter="url(#filter3384)" stroke="url(#linearGradient12719)" stroke-width="1.4836" fill="none"/>
          <path id="path12377" d="m-507.13-107.5l42.28-4.09c2.89-0.27 4.25 0.75 4.7 3.33l0.74 5.17 85.67-8.29c1.47-0.14 2.83 0.96 3.03 2.46" filter="url(#filter3342)" stroke="url(#linearGradient12721)" stroke-width="1.5" fill="none"/>
          <rect id="rect12379" opacity=".85772" ry="1.3321" transform="matrix(.99454 -.10431 .10431 .99454 0 0)" width="41.653" y="-157.33" x="-490.92" height="6.7793" fill="url(#linearGradient12723)"/>
        </g>
        <g id="g12381" transform="translate(232.8 -16.624)">
          <path id="path12383" stroke="url(#linearGradient12753)" stroke-width="1.5" fill="url(#linearGradient12751)" d="m-477.4-80.856l134.94-13.381c1.49-0.147 2.24 0.689 1.67 1.875l-15.73 61.762c-0.57 1.186-2.23 2.259-3.72 2.406l-133.58 13.175c-1.5 0.148-2.24-0.689-1.68-1.875l14.38-61.556c0.57-1.186 2.23-2.259 3.72-2.406z"/>
          <path id="path12385" opacity=".80488" fill="url(#linearGradient12729)" d="m-350.51-56.712c-44.06 4.453-101.95 10.275-137.28 13.688l-5.91 25.218c-0.55 1.167 0.19 1.989 1.66 1.844l131.41-12.969c1.46-0.145 3.09-1.208 3.65-2.375l6.47-25.406z"/>
          <path id="path12387" opacity=".82114" fill="url(#linearGradient12731)" d="m-476.72-80.098l132.75-13.163c1.47-0.145 2.2 0.678 1.65 1.844l-15.49 60.761c-0.55 1.166-2.19 2.222-3.65 2.367l-131.42 12.961c-1.47 0.145-2.2-0.677-1.65-1.844l14.15-60.558c0.56-1.167 2.19-2.223 3.66-2.368z"/>
          <path id="path12389" opacity=".51626" fill="url(#linearGradient12759)" d="m-343.13-93.482l-132.75 13.156c-1.47 0.145-3.1 1.209-3.66 2.375l-8.09 34.625c17.47-8.015 37.19-14.444 54.18-16.312 38.02-4.177 64.41-6.536 89.88-23.875l2.06-8.125c0.56-1.167-0.15-1.989-1.62-1.844z"/>
          <path id="path12391" d="m-357.25-31.25c-0.56 1.148-2.2 2.187-3.67 2.329l-131.97 12.754c-1.48 0.142-2.21-0.667-1.65-1.815l14.2-59.586c0.56-1.147 2.2-2.186 3.68-2.329" filter="url(#filter3500)" stroke="url(#linearGradient12735)" stroke-width="1.4669" fill="none"/>
          <path id="path12393" d="m-478.57-79.88l134.94-13.381c1.5-0.147 2.24 0.689 1.68 1.875l-15.74 61.762" filter="url(#filter3530)" stroke="url(#linearGradient12737)" stroke-width="1.5" fill="none"/>
        </g>
      </g>
      <rect id="rect12395" ry="1.5435" height="148.65" width="148.65" y="-403.77" x="-701.84" fill="none"/>
    </g>
    <g id="g12397" transform="matrix(.86110 0 0 .86110 459.97 155.42)">
      <g id="g12399" transform="matrix(.76591 0 0 1 40.152 59.737)">
        <g id="g12401">
          <path id="path12403" stroke="url(#linearGradient12767)" stroke-width="1.5" fill="url(#linearGradient12765)" d="m-506.24-108.72l42.28-4.09c2.89-0.27 4.25 0.75 4.7 3.33l0.74 5.17 85.66-8.29c1.48-0.14 2.83 0.96 3.04 2.46l10.67 78.639c0.2 1.503-0.82 2.827-2.3 2.97l-132.17 12.782c-1.48 0.143-2.83-0.952-3.04-2.454l-11.88-87.547c-0.2-1.51 0.82-2.83 2.3-2.97z"/>
          <path id="path12405" opacity=".32114" fill="url(#linearGradient12717)" d="m-462.98-112.48c-0.31-0.01-0.64 0-1 0.02l-42.28 2.71c-1.48 0.1-2.51 0.98-2.31 1.97l7.58 38.833c10.62-6.466 25.44-17.117 46.54-19.01 41.26-3.662 62.91-10.743 84.71-15.203l-0.11-7.52c-0.21-1-1.56-1.73-3.03-1.64l-85.66 5.5-0.75-3.42c-0.39-1.5-1.48-2.21-3.69-2.24z"/>
          <path id="path12407" d="m-492.36-17.091c-1.48 0.14-2.83-0.93-3.04-2.398l-11.89-85.551c-0.21-1.47 0.82-2.76 2.3-2.9" filter="url(#filter3384)" stroke="url(#linearGradient12719)" stroke-width="1.4836" fill="none"/>
          <path id="path12409" d="m-507.13-107.5l42.28-4.09c2.89-0.27 4.25 0.75 4.7 3.33l0.74 5.17 85.67-8.29c1.47-0.14 2.83 0.96 3.03 2.46" filter="url(#filter3342)" stroke="url(#linearGradient12721)" stroke-width="1.5" fill="none"/>
          <rect id="rect12411" opacity=".85772" ry="1.3321" transform="matrix(.99454 -.10431 .10431 .99454 0 0)" width="41.653" y="-157.33" x="-490.92" height="6.7793" fill="url(#linearGradient12723)"/>
        </g>
        <g id="g12413">
          <path id="path12415" stroke="url(#linearGradient12779)" stroke-width="1.5" fill="url(#linearGradient12777)" d="m-477.4-80.856l134.94-13.381c1.49-0.147 2.24 0.689 1.67 1.875l-15.73 61.762c-0.57 1.186-2.23 2.259-3.72 2.406l-133.58 13.175c-1.5 0.148-2.24-0.689-1.68-1.875l14.38-61.556c0.57-1.186 2.23-2.259 3.72-2.406z"/>
          <path id="path12417" opacity=".80488" fill="url(#linearGradient12729)" d="m-350.51-56.712c-44.06 4.453-101.95 10.275-137.28 13.688l-5.91 25.218c-0.55 1.167 0.19 1.989 1.66 1.844l131.41-12.969c1.46-0.145 3.09-1.208 3.65-2.375l6.47-25.406z"/>
          <path id="path12419" opacity=".82114" fill="url(#linearGradient12731)" d="m-476.72-80.098l132.75-13.163c1.47-0.145 2.2 0.678 1.65 1.844l-15.49 60.761c-0.55 1.166-2.19 2.222-3.65 2.367l-131.42 12.961c-1.47 0.145-2.2-0.677-1.65-1.844l14.15-60.558c0.56-1.167 2.19-2.223 3.66-2.368z"/>
          <path id="path12421" opacity=".51626" fill="url(#linearGradient12733)" d="m-343.13-93.482l-132.75 13.156c-1.47 0.145-3.1 1.209-3.66 2.375l-8.09 34.625c17.47-8.015 37.19-14.444 54.18-16.312 38.02-4.177 64.41-6.536 89.88-23.875l2.06-8.125c0.56-1.167-0.15-1.989-1.62-1.844z"/>
          <path id="path12423" d="m-357.25-31.25c-0.56 1.148-2.2 2.187-3.67 2.329l-131.97 12.754c-1.48 0.142-2.21-0.667-1.65-1.815l14.2-59.586c0.56-1.147 2.2-2.186 3.68-2.329" filter="url(#filter3500)" stroke="url(#linearGradient12735)" stroke-width="1.4669" fill="none"/>
          <path id="path12425" d="m-478.57-79.88l134.94-13.381c1.5-0.147 2.24 0.689 1.68 1.875l-15.74 61.762" filter="url(#filter3530)" stroke="url(#linearGradient12737)" stroke-width="1.5" fill="none"/>
        </g>
      </g>
      <rect id="rect12427" ry="1.5435" height="148.65" width="148.65" y="-83.08" x="-359.37" fill="none"/>
    </g>
    <g id="g12429" transform="matrix(.86110 0 0 .86110 661.81 476.65)">
      <g id="g12431" transform="matrix(.76627 0 0 1 -124.26 -271.81)">
        <g id="g12433">
          <path id="path12435" stroke="url(#linearGradient12793)" stroke-width="1.5" fill="url(#linearGradient12791)" d="m-506.24-108.72l42.28-4.09c2.89-0.27 4.25 0.75 4.7 3.33l0.74 5.17 85.66-8.29c1.48-0.14 2.83 0.96 3.04 2.46l10.67 78.639c0.2 1.503-0.82 2.827-2.3 2.97l-132.17 12.782c-1.48 0.143-2.83-0.952-3.04-2.454l-11.88-87.547c-0.2-1.51 0.82-2.83 2.3-2.97z"/>
          <path id="path12437" opacity=".32114" fill="url(#linearGradient12717)" d="m-462.98-112.48c-0.31-0.01-0.64 0-1 0.02l-42.28 2.71c-1.48 0.1-2.51 0.98-2.31 1.97l7.58 38.833c10.62-6.466 25.44-17.117 46.54-19.01 41.26-3.662 62.91-10.743 84.71-15.203l-0.11-7.52c-0.21-1-1.56-1.73-3.03-1.64l-85.66 5.5-0.75-3.42c-0.39-1.5-1.48-2.21-3.69-2.24z"/>
          <path id="path12439" d="m-492.36-17.091c-1.48 0.14-2.83-0.93-3.04-2.398l-11.89-85.551c-0.21-1.47 0.82-2.76 2.3-2.9" filter="url(#filter3384)" stroke="url(#linearGradient12719)" stroke-width="1.4836" fill="none"/>
          <path id="path12441" d="m-507.13-107.5l42.28-4.09c2.89-0.27 4.25 0.75 4.7 3.33l0.74 5.17 85.67-8.29c1.47-0.14 2.83 0.96 3.03 2.46" filter="url(#filter3342)" stroke="url(#linearGradient12721)" stroke-width="1.5" fill="none"/>
          <rect id="rect12443" opacity=".85772" ry="1.3321" transform="matrix(.99454 -.10431 .10431 .99454 0 0)" width="41.653" y="-157.33" x="-490.92" height="6.7793" fill="url(#linearGradient12723)"/>
        </g>
        <g id="g12445">
          <path id="path12447" stroke="url(#linearGradient12805)" stroke-width="1.5" fill="url(#linearGradient12803)" d="m-477.4-80.856l134.94-13.381c1.49-0.147 2.24 0.689 1.67 1.875l-15.73 61.762c-0.57 1.186-2.23 2.259-3.72 2.406l-133.58 13.175c-1.5 0.148-2.24-0.689-1.68-1.875l14.38-61.556c0.57-1.186 2.23-2.259 3.72-2.406z"/>
          <path id="path12449" opacity=".80488" fill="url(#linearGradient12729)" d="m-350.51-56.712c-44.06 4.453-101.95 10.275-137.28 13.688l-5.91 25.218c-0.55 1.167 0.19 1.989 1.66 1.844l131.41-12.969c1.46-0.145 3.09-1.208 3.65-2.375l6.47-25.406z"/>
          <path id="path12451" opacity=".82114" fill="url(#linearGradient12731)" d="m-476.72-80.098l132.75-13.163c1.47-0.145 2.2 0.678 1.65 1.844l-15.49 60.761c-0.55 1.166-2.19 2.222-3.65 2.367l-131.42 12.961c-1.47 0.145-2.2-0.677-1.65-1.844l14.15-60.558c0.56-1.167 2.19-2.223 3.66-2.368z"/>
          <path id="path12453" opacity=".51626" fill="url(#linearGradient12733)" d="m-343.13-93.482l-132.75 13.156c-1.47 0.145-3.1 1.209-3.66 2.375l-8.09 34.625c17.47-8.015 37.19-14.444 54.18-16.312 38.02-4.177 64.41-6.536 89.88-23.875l2.06-8.125c0.56-1.167-0.15-1.989-1.62-1.844z"/>
          <path id="path12455" d="m-357.25-31.25c-0.56 1.148-2.2 2.187-3.67 2.329l-131.97 12.754c-1.48 0.142-2.21-0.667-1.65-1.815l14.2-59.586c0.56-1.147 2.2-2.186 3.68-2.329" filter="url(#filter3500)" stroke="url(#linearGradient12735)" stroke-width="1.4669" fill="none"/>
          <path id="path12457" d="m-478.57-79.88l134.94-13.381c1.5-0.147 2.24 0.689 1.68 1.875l-15.74 61.762" filter="url(#filter3530)" stroke="url(#linearGradient12737)" stroke-width="1.5" fill="none"/>
        </g>
      </g>
      <rect id="rect12459" ry="1.5435" height="148.65" width="148.65" y="-410.06" x="-523.92" fill="none"/>
    </g>
  </g>
  <metadata>
    <rdf:RDF>
      <cc:Work>
        <dc:format>image/svg+xml</dc:format>
        <dc:type rdf:resource="http://purl.org/dc/dcmitype/StillImage"/>
        <cc:license rdf:resource="http://creativecommons.org/licenses/publicdomain/"/>
        <dc:publisher>
          <cc:Agent rdf:about="http://openclipart.org/">
            <dc:title>Openclipart</dc:title>
          </cc:Agent>
        </dc:publisher>
        <dc:title>Simple Green Yellow Blue Violet Folders</dc:title>
        <dc:date>2008-02-12T18:07:57</dc:date>
        <dc:description>Colored version of folders used in my older works</dc:description>
        <dc:source>http://openclipart.org/detail/13763/simple-green-yellow-blue-violet-folders-by-sarxos</dc:source>
        <dc:creator>
          <cc:Agent>
            <dc:title>sarxos</dc:title>
          </cc:Agent>
        </dc:creator>
        <dc:subject>
          <rdf:Bag>
            <rdf:li>blue folder</rdf:li>
            <rdf:li>clip art</rdf:li>
            <rdf:li>clipart</rdf:li>
            <rdf:li>color folders</rdf:li>
            <rdf:li>green folder</rdf:li>
            <rdf:li>image</rdf:li>
            <rdf:li>media</rdf:li>
            <rdf:li>office</rdf:li>
            <rdf:li>orange folder</rdf:li>
            <rdf:li>png</rdf:li>
            <rdf:li>public domain</rdf:li>
            <rdf:li>svg</rdf:li>
            <rdf:li>violet folder</rdf:li>
          </rdf:Bag>
        </dc:subject>
      </cc:Work>
      <cc:License rdf:about="http://creativecommons.org/licenses/publicdomain/">
        <cc:permits rdf:resource="http://creativecommons.org/ns#Reproduction"/>
        <cc:permits rdf:resource="http://creativecommons.org/ns#Distribution"/>
        <cc:permits rdf:resource="http://creativecommons.org/ns#DerivativeWorks"/>
      </cc:License>
    </rdf:RDF>
  </metadata>
</svg>
