<?xml version="1.0" encoding="UTF-8" standalone="no"?>
<!-- Created with Inkscape (http://www.inkscape.org/) -->

<svg
   xmlns:dc="http://purl.org/dc/elements/1.1/"
   xmlns:cc="http://creativecommons.org/ns#"
   xmlns:rdf="http://www.w3.org/1999/02/22-rdf-syntax-ns#"
   xmlns:svg="http://www.w3.org/2000/svg"
   xmlns="http://www.w3.org/2000/svg"
   xmlns:sodipodi="http://sodipodi.sourceforge.net/DTD/sodipodi-0.dtd"
   xmlns:inkscape="http://www.inkscape.org/namespaces/inkscape"
   width="586.68115"
   height="541.84625"
   viewBox="0 0 155.22606 143.36349"
   version="1.1"
   id="svg8"
   inkscape:version="0.92.1 r15371"
   sodipodi:docname="Happy Mothers Day Card.svg">
  <defs
     id="defs2">
    <inkscape:path-effect
       only_selected="false"
       apply_with_weight="true"
       apply_no_weight="true"
       helper_size="0"
       steps="2"
       weight="33.333333"
       is_visible="true"
       id="path-effect4886"
       effect="bspline" />
    <inkscape:path-effect
       effect="bspline"
       id="path-effect4793"
       is_visible="true"
       weight="33.333333"
       steps="2"
       helper_size="0"
       apply_no_weight="true"
       apply_with_weight="true"
       only_selected="false" />
    <inkscape:path-effect
       only_selected="false"
       apply_with_weight="true"
       apply_no_weight="true"
       helper_size="0"
       steps="2"
       weight="33.333333"
       is_visible="true"
       id="path-effect4789"
       effect="bspline" />
    <inkscape:path-effect
       effect="bspline"
       id="path-effect4785"
       is_visible="true"
       weight="33.333333"
       steps="2"
       helper_size="0"
       apply_no_weight="true"
       apply_with_weight="true"
       only_selected="false" />
    <inkscape:path-effect
       effect="bspline"
       id="path-effect5050"
       is_visible="true"
       weight="33.333333"
       steps="2"
       helper_size="0"
       apply_no_weight="true"
       apply_with_weight="true"
       only_selected="false" />
    <inkscape:path-effect
       effect="bspline"
       id="path-effect4818"
       is_visible="true"
       weight="33.333333"
       steps="2"
       helper_size="0"
       apply_no_weight="true"
       apply_with_weight="true"
       only_selected="false" />
    <filter
       inkscape:collect="always"
       style="color-interpolation-filters:sRGB"
       id="filter4823"
       x="-0.041386403"
       width="1.0827729"
       y="-0.10904165"
       height="1.2180833">
      <feGaussianBlur
         inkscape:collect="always"
         stdDeviation="0.4678631"
         id="feGaussianBlur4825" />
    </filter>
    <filter
       inkscape:collect="always"
       style="color-interpolation-filters:sRGB"
       id="filter4867"
       x="-0.04966367"
       width="1.0993273"
       y="-0.13085006"
       height="1.2617002">
      <feGaussianBlur
         inkscape:collect="always"
         stdDeviation="0.42356986"
         id="feGaussianBlur4869" />
    </filter>
    <filter
       inkscape:collect="always"
       style="color-interpolation-filters:sRGB"
       id="filter4908"
       x="-0.10420462"
       width="1.2084092"
       y="-0.031181632"
       height="1.0623633">
      <feGaussianBlur
         inkscape:collect="always"
         stdDeviation="1.0315578"
         id="feGaussianBlur4910" />
    </filter>
    <filter
       inkscape:collect="always"
       style="color-interpolation-filters:sRGB"
       id="filter4920"
       x="-0.017276358"
       width="1.0345527"
       y="-0.039291553"
       height="1.0785831">
      <feGaussianBlur
         inkscape:collect="always"
         stdDeviation="0.29119373"
         id="feGaussianBlur4922" />
    </filter>
  </defs>
  <sodipodi:namedview
     id="base"
     pagecolor="#ffffff"
     bordercolor="#666666"
     borderopacity="1.0"
     inkscape:pageopacity="0.0"
     inkscape:pageshadow="2"
     inkscape:zoom="0.85079485"
     inkscape:cx="502.5567"
     inkscape:cy="270.92313"
     inkscape:document-units="px"
     inkscape:current-layer="layer1"
     showgrid="false"
     units="px"
     inkscape:window-width="1366"
     inkscape:window-height="714"
     inkscape:window-x="0"
     inkscape:window-y="25"
     inkscape:window-maximized="1"
     inkscape:pagecheckerboard="false"
     showguides="false"
     inkscape:object-nodes="false"
     fit-margin-top="22"
     fit-margin-left="22"
     fit-margin-right="22"
     fit-margin-bottom="22" />
  <metadata
     id="metadata5">
    <rdf:RDF>
      <cc:Work
         rdf:about="">
        <dc:format>image/svg+xml</dc:format>
        <dc:type
           rdf:resource="http://purl.org/dc/dcmitype/StillImage" />
        <dc:title></dc:title>
        <dc:creator>
          <cc:Agent>
            <dc:title>David Lyons</dc:title>
          </cc:Agent>
        </dc:creator>
        <dc:publisher>
          <cc:Agent>
            <dc:title>dlyons</dc:title>
          </cc:Agent>
        </dc:publisher>
        <cc:license
           rdf:resource="http://creativecommons.org/licenses/by-sa/4.0/" />
      </cc:Work>
      <cc:License
         rdf:about="http://creativecommons.org/licenses/by-sa/4.0/">
        <cc:permits
           rdf:resource="http://creativecommons.org/ns#Reproduction" />
        <cc:permits
           rdf:resource="http://creativecommons.org/ns#Distribution" />
        <cc:requires
           rdf:resource="http://creativecommons.org/ns#Notice" />
        <cc:requires
           rdf:resource="http://creativecommons.org/ns#Attribution" />
        <cc:permits
           rdf:resource="http://creativecommons.org/ns#DerivativeWorks" />
        <cc:requires
           rdf:resource="http://creativecommons.org/ns#ShareAlike" />
      </cc:License>
    </rdf:RDF>
  </metadata>
  <g
     inkscape:label="Layer 1"
     inkscape:groupmode="layer"
     id="layer1"
     transform="translate(-4.4944774,-88.070819)">
    <g
       id="g191">
      <path
         sodipodi:nodetypes="cccccccc"
         inkscape:original-d="m 8.3124726,120.46622 c -1.8282207,24.02246 -3.6568186,48.04516 -5.485793,72.06824 22.9995564,8.9567 45.9980714,17.91337 68.9968924,26.87053 23.173565,0.48774 46.346698,0.97575 69.519478,1.46401 7.0862,-26.07634 14.17203,-52.15231 21.25745,-78.22793 C 140.88628,123.75106 119.17168,104.86139 97.456667,85.972032 76.199588,88.230243 54.942123,90.488789 33.68427,92.747672 25.227392,101.98685 16.770136,111.22635 8.3124726,120.46622 Z"
         inkscape:path-effect="#path-effect4818"
         inkscape:connector-curvature="0"
         id="path4816"
         d="m 11.626997,127.85748 c -5.1430982,16.63117 -6.9716923,40.65387 3.61371,57.14394 10.585403,16.49006 33.583918,25.44673 56.670171,30.16916 23.086253,4.72242 46.259382,5.21042 61.388742,-7.58378 15.12936,-12.79421 22.21518,-38.87019 14.90075,-61.35277 C 140.88595,123.75144 119.17135,104.86177 97.685483,96.546153 76.199619,88.230534 54.942154,90.489081 40.084752,96.237946 25.227349,101.98681 16.770096,111.22631 11.626997,127.85748 Z"
         style="opacity:1;fill:#ffd5d5;fill-opacity:0.39506172;stroke:none;stroke-width:0.36716786px;stroke-linecap:butt;stroke-linejoin:miter;stroke-opacity:1" />
      <g
         style="stroke:none"
         transform="matrix(0.74553273,0,0,0.74553273,-124.51148,75.721819)"
         id="g4874">
        <path
           style="fill:#806600;stroke:none;stroke-width:0.20089896px;stroke-linecap:butt;stroke-linejoin:miter;stroke-opacity:1"
           d="m 238.41012,154.808 c -7.33228,0.96072 -14.66459,1.92144 -20.23861,0.26612 -5.57401,-1.65532 -9.39024,-5.92719 -13.20625,-10.19881 4.43759,-1.22447 8.87502,-2.44889 14.44938,-0.79337 5.57436,1.65551 12.28478,6.1907 18.99548,10.72606 z"
           id="path4783"
           inkscape:connector-curvature="0"
           inkscape:path-effect="#path-effect4785"
           inkscape:original-d="m 238.41012,154.808 c 0,0 -14.66456,1.92171 -21.99684,2.88216 -3.81591,-4.27124 -11.44802,-12.81485 -11.44802,-12.81485 0,0 8.87509,-2.44863 13.31277,-3.6734 6.71084,4.53573 20.13209,13.60609 20.13209,13.60609 z"
           sodipodi:nodetypes="ccccc" />
        <path
           sodipodi:nodetypes="ccccc"
           inkscape:original-d="m 232.30865,153.19084 c 0,0 -11.8963,1.55894 -17.84445,2.33809 -3.09558,-3.46495 -9.28696,-10.39577 -9.28696,-10.39577 0,0 7.19973,-1.9864 10.7997,-2.97997 5.44403,3.67952 16.33171,11.03765 16.33171,11.03765 z"
           inkscape:path-effect="#path-effect4789"
           inkscape:connector-curvature="0"
           id="path4787"
           d="m 232.30865,153.19084 c -5.94815,0.77936 -11.89633,1.55873 -16.41812,0.21589 -4.5218,-1.34285 -7.61764,-4.80831 -10.71329,-8.27357 3.5999,-0.99332 7.19967,-1.98661 11.72175,-0.64361 4.52208,1.34301 9.96576,5.02207 15.40966,8.70129 z"
           style="fill:#554400;stroke:none;stroke-width:0.16297489px;stroke-linecap:butt;stroke-linejoin:miter;stroke-opacity:1;filter:url(#filter4823)" />
        <path
           style="fill:#806600;stroke:none;stroke-width:0.12295486px;stroke-linecap:butt;stroke-linejoin:miter;stroke-opacity:1;filter:url(#filter4867)"
           d="m 225.12256,150.96138 c -4.48753,0.58798 -8.97508,1.17596 -12.3865,0.16287 -3.41143,-1.01309 -5.74706,-3.62758 -8.08254,-6.24191 2.71591,-0.7494 5.43173,-1.49878 8.84336,-0.48557 3.41163,1.01322 7.51858,3.78886 11.62568,6.56461 z"
           id="path4791"
           inkscape:connector-curvature="0"
           inkscape:path-effect="#path-effect4793"
           inkscape:original-d="m 225.12256,150.96138 c 0,0 -8.97506,1.17612 -13.46259,1.76394 -2.33542,-2.61409 -7.00645,-7.84298 -7.00645,-7.84298 0,0 5.43177,-1.49862 8.14773,-2.24821 4.10719,2.77597 12.32131,8.32725 12.32131,8.32725 z"
           sodipodi:nodetypes="ccccc" />
      </g>
      <g
         id="g4882"
         transform="matrix(-0.17680652,-0.72426411,-0.72426411,0.17680652,168.41623,300.33971)"
         style="stroke:none">
        <path
           sodipodi:nodetypes="ccccc"
           inkscape:original-d="m 238.41012,154.808 c 0,0 -14.66456,1.92171 -21.99684,2.88216 -3.81591,-4.27124 -11.44802,-12.81485 -11.44802,-12.81485 0,0 8.87509,-2.44863 13.31277,-3.6734 6.71084,4.53573 20.13209,13.60609 20.13209,13.60609 z"
           inkscape:path-effect="#path-effect4785"
           inkscape:connector-curvature="0"
           id="path4876"
           d="m 238.41012,154.808 c -7.33228,0.96072 -14.66459,1.92144 -20.23861,0.26612 -5.57401,-1.65532 -9.39024,-5.92719 -13.20625,-10.19881 4.43759,-1.22447 8.87502,-2.44889 14.44938,-0.79337 5.57436,1.65551 12.28478,6.1907 18.99548,10.72606 z"
           style="fill:#806600;stroke:none;stroke-width:0.20089896px;stroke-linecap:butt;stroke-linejoin:miter;stroke-opacity:1" />
        <path
           style="fill:#554400;stroke:none;stroke-width:0.16297489px;stroke-linecap:butt;stroke-linejoin:miter;stroke-opacity:1;filter:url(#filter4823)"
           d="m 232.30865,153.19084 c -5.94815,0.77936 -11.89633,1.55873 -16.41812,0.21589 -4.5218,-1.34285 -7.61764,-4.80831 -10.71329,-8.27357 3.5999,-0.99332 7.19967,-1.98661 11.72175,-0.64361 4.52208,1.34301 9.96576,5.02207 15.40966,8.70129 z"
           id="path4878"
           inkscape:connector-curvature="0"
           inkscape:path-effect="#path-effect4789"
           inkscape:original-d="m 232.30865,153.19084 c 0,0 -11.8963,1.55894 -17.84445,2.33809 -3.09558,-3.46495 -9.28696,-10.39577 -9.28696,-10.39577 0,0 7.19973,-1.9864 10.7997,-2.97997 5.44403,3.67952 16.33171,11.03765 16.33171,11.03765 z"
           sodipodi:nodetypes="ccccc" />
        <path
           sodipodi:nodetypes="ccccc"
           inkscape:original-d="m 225.12256,150.96138 c 0,0 -8.97506,1.17612 -13.46259,1.76394 -2.33542,-2.61409 -7.00645,-7.84298 -7.00645,-7.84298 0,0 5.43177,-1.49862 8.14773,-2.24821 4.10719,2.77597 12.32131,8.32725 12.32131,8.32725 z"
           inkscape:path-effect="#path-effect4793"
           inkscape:connector-curvature="0"
           id="path4880"
           d="m 225.12256,150.96138 c -4.48753,0.58798 -8.97508,1.17596 -12.3865,0.16287 -3.41143,-1.01309 -5.74706,-3.62758 -8.08254,-6.24191 2.71591,-0.7494 5.43173,-1.49878 8.84336,-0.48557 3.41163,1.01322 7.51858,3.78886 11.62568,6.56461 z"
           style="fill:#806600;stroke:none;stroke-width:0.12295486px;stroke-linecap:butt;stroke-linejoin:miter;stroke-opacity:1;filter:url(#filter4867)" />
      </g>
      <path
         sodipodi:nodetypes="cccccc"
         inkscape:original-d="M 8.2113916,212.84414 C 18.686244,191.54549 29.161017,170.24677 39.635354,148.94875 c 0.814883,8.03028 1.629558,16.06065 2.444085,24.0917 -7.91427,5.70288 -15.828169,11.40554 -23.742549,17.10861 2.095127,14.43154 4.189997,28.86287 6.284792,43.29524 -5.47006,-6.86712 -10.939992,-13.73363 -16.4102904,-20.60016 z"
         inkscape:path-effect="#path-effect5050"
         inkscape:connector-curvature="0"
         id="path5048"
         d="m 16.183816,205.62814 c 2.502342,-14.08269 12.977121,-35.38141 18.621664,-42.01525 5.644542,-6.63384 6.459217,1.39653 2.909466,8.2635 -3.549752,6.86697 -11.463648,12.56964 -14.3734,22.63694 -2.909751,10.0673 -0.81488,24.49863 -2.502511,28.28133 -1.68763,3.78269 -7.157561,-3.08382 -4.655219,-17.16652 z"
         style="fill:#554400;stroke:none;stroke-width:0.19725555px;stroke-linecap:butt;stroke-linejoin:miter;stroke-opacity:1" />
      <path
         sodipodi:nodetypes="zzzzzzzz"
         inkscape:connector-curvature="0"
         id="path4799"
         d="m 32.277825,125.45507 c 1.30617,-6.33715 -0.867997,-8.82513 2.938885,-12.67432 3.806882,-3.84917 14.012324,-6.55694 18.939476,-5.43185 4.927151,1.1251 9.13972,3.66712 7.510479,6.94071 -1.62924,3.27358 -8.850307,-1.38236 -12.735163,-0.90532 -3.884855,0.47704 -7.934249,0.62716 -10.122824,3.31946 -2.188575,2.69231 1.682099,8.71774 -0.653085,10.26017 -2.335184,1.54241 -7.183939,4.8283 -5.877768,-1.50885 z"
         style="fill:#ffaaaa;stroke:none;stroke-width:0.17734475px;stroke-linecap:butt;stroke-linejoin:miter;stroke-opacity:1" />
      <path
         style="fill:#ffaaaa;stroke:none;stroke-width:0.16453809px;stroke-linecap:butt;stroke-linejoin:miter;stroke-opacity:1"
         d="m 72.851777,118.16477 c 2.156834,5.68358 4.900119,6.11678 4.083209,11.58571 -0.816903,5.46893 -6.70452,14.35369 -10.728753,16.79719 -4.024226,2.44352 -8.232494,3.33347 -8.672943,-0.24129 -0.440454,-3.57475 6.91823,-4.87375 9.42844,-7.83564 2.510207,-2.96189 5.295381,-5.78578 5.53211,-9.2937 0.236729,-3.50794 -5.422536,-5.49046 -4.52368,-8.22381 0.898844,-2.73336 2.724784,-8.47203 4.881617,-2.78846 z"
         id="path4801"
         inkscape:connector-curvature="0"
         sodipodi:nodetypes="zzzzzzzz" />
      <path
         sodipodi:nodetypes="zzzzzzzz"
         inkscape:connector-curvature="0"
         id="path4803"
         d="m 42.259283,140.76534 c -5.426004,-0.71982 -7.002787,1.40298 -10.919276,-1.73194 -3.916496,-3.13495 -8.222159,-12.07893 -8.321528,-16.56958 -0.09937,-4.49065 1.101511,-8.44211 4.101036,-7.21578 2.999526,1.22632 0.698132,8.02096 1.886564,11.4649 1.188431,3.44394 2.144702,7.05834 4.786425,8.82662 2.641726,1.76829 6.747697,-2.12418 8.483877,-0.1431 1.736183,1.98108 5.408904,6.08867 -0.01709,5.36888 z"
         style="fill:#ffaaaa;stroke:none;stroke-width:0.1528772px;stroke-linecap:butt;stroke-linejoin:miter;stroke-opacity:1" />
      <path
         style="fill:#ffaaaa;stroke:none;stroke-width:0.16459355px;stroke-linecap:butt;stroke-linejoin:miter;stroke-opacity:1"
         d="m 55.426656,139.31372 c -2.87589,5.64048 -1.750898,8.53408 -6.025716,11.19844 -4.274819,2.66436 -13.596688,2.63609 -17.413975,0.33074 -3.817285,-2.30536 -6.637088,-5.76508 -4.350761,-8.43753 2.286328,-2.67245 7.036111,3.53932 10.429082,4.07176 3.39297,0.53244 6.832127,1.4145 9.424391,-0.56893 2.592264,-1.98343 1.03779,-8.63867 3.43003,-9.50166 2.392238,-0.86299 7.382843,-2.73332 4.506949,2.90718 z"
         id="path4805"
         inkscape:connector-curvature="0"
         sodipodi:nodetypes="zzzzzzzz" />
      <path
         sodipodi:nodetypes="zzzzzzzz"
         inkscape:connector-curvature="0"
         id="path4807"
         d="m 40.791758,124.95528 c 4.316764,-4.71981 4.368325,-8.41931 8.833223,-9.21523 4.464903,-0.79593 12.209174,3.81701 14.597777,8.20025 2.388603,4.38324 3.553611,9.53143 0.739975,11.3136 -2.813638,1.78218 -4.64497,-7.30728 -7.285565,-9.55408 -2.640595,-2.2468 -5.200314,-4.89648 -8.033325,-4.01393 -2.833012,0.88254 -3.810846,8.88356 -6.095171,8.64606 -2.284325,-0.2375 -7.073677,-0.65686 -2.756914,-5.37667 z"
         style="fill:#ff8080;stroke:none;stroke-width:0.17043358px;stroke-linecap:butt;stroke-linejoin:miter;stroke-opacity:1" />
      <path
         style="fill:#ffaaaa;stroke:none;stroke-width:0.1706852px;stroke-linecap:butt;stroke-linejoin:miter;stroke-opacity:1"
         d="m 53.974664,156.02943 c 6.414841,0.47544 7.472977,3.01267 13.007152,0.6652 5.534181,-2.34748 13.518367,-10.58391 15.183365,-15.18151 1.665006,-4.59759 1.666049,-8.93184 -2.166429,-8.34241 -3.83247,0.5894 -3.565577,8.09527 -6.106412,11.37199 -2.540835,3.2767 -4.876769,6.78082 -8.489955,8.00798 -3.613191,1.22714 -6.933844,-3.69745 -9.591535,-2.04843 -2.657693,1.649 -8.251024,5.05175 -1.836186,5.52718 z"
         id="path4809"
         inkscape:connector-curvature="0"
         sodipodi:nodetypes="zzzzzzzz" />
      <path
         sodipodi:nodetypes="zzzzzzzz"
         inkscape:connector-curvature="0"
         id="path4811"
         d="m 26.518827,108.87122 c 7.386097,-3.66712 7.250864,-5.95033 15.141032,-7.23176 7.890178,-1.28143 21.943126,0.1801 26.459126,2.45064 4.516006,2.27055 6.903262,5.2284 2.009677,6.82309 -4.893587,1.5947 -8.707379,-3.6676 -13.5404,-4.58019 -4.833023,-0.91258 -9.546954,-2.08717 -14.53017,-1.04203 -4.983215,1.04514 -6.231141,6.1368 -10.307441,6.39611 -4.076301,0.2593 -12.61792,0.85127 -5.231824,-2.81586 z"
         style="fill:#ffaaaa;stroke:none;stroke-width:0.1790656px;stroke-linecap:butt;stroke-linejoin:miter;stroke-opacity:1" />
      <path
         sodipodi:nodetypes="sssss"
         inkscape:connector-curvature="0"
         id="path4813"
         d="m 57.633342,129.89563 c -2e-6,3.08532 -3.103277,1.37162 -5.466058,-0.0734 -2.632073,-1.60979 -5.586479,1.47286 -5.586482,-1.61247 -10e-7,-3.08532 2.742001,-3.29842 5.827331,-3.29842 3.085331,0 5.225211,1.89904 5.225209,4.98436 z"
         style="opacity:1;fill:#ff5555;fill-opacity:1;stroke:none;stroke-width:0.11835333;stroke-miterlimit:4;stroke-dasharray:none;stroke-dashoffset:0;stroke-opacity:1" />
      <path
         sodipodi:nodetypes="csccc"
         inkscape:connector-curvature="0"
         id="path5052"
         d="m 26.585586,148.41858 c 0,0 3.718304,15.80245 10.214871,18.60141 7.524373,3.24179 23.784206,-6.19996 23.784206,-6.19996 l -21.415102,-1.83287 z"
         style="opacity:1;fill:#554400;stroke:none;stroke-width:0.19725555px;stroke-linecap:butt;stroke-linejoin:miter;stroke-opacity:1" />
      <path
         transform="matrix(0.65504609,0,0,0.65504609,0.60711895,29.689476)"
         style="opacity:1;fill:#2b2200;stroke:none;stroke-width:0.20666642px;stroke-linecap:butt;stroke-linejoin:miter;stroke-opacity:1;filter:url(#filter4920)"
         d="m 43.720174,190.61009 c 0,0 4.424039,14.57914 12.153655,17.16143 8.952496,2.99082 28.298446,-5.72001 28.298446,-5.72001 l -25.47969,-1.69099 z"
         id="path4518"
         inkscape:connector-curvature="0"
         sodipodi:nodetypes="csccc" />
      <path
         transform="matrix(0.74553273,0,0,0.74553273,-4.0090387,10.624457)"
         style="fill:#806600;stroke:none;stroke-width:0.1842901px;stroke-linecap:butt;stroke-linejoin:miter;stroke-opacity:1;filter:url(#filter4908)"
         d="m 28.896195,269.53436 c 1.391544,-13.35745 8.163185,-34.47326 14.123292,-47.87574 5.960106,-13.40249 11.108477,-19.09191 8.76555,-12.26026 -2.342928,6.83165 -12.176702,26.18329 -16.142507,42.38542 -3.965805,16.20213 -2.063302,29.25375 -3.106352,32.98041 -1.043049,3.72665 -5.031527,-1.87238 -3.639983,-15.22983 z"
         id="path4884"
         inkscape:connector-curvature="0"
         inkscape:path-effect="#path-effect4886"
         inkscape:original-d="m 23.516108,277.29269 c 6.771715,-21.11575 13.543351,-42.23156 20.314678,-63.34666 5.148821,-5.68989 10.297193,-11.37931 15.445772,-17.06899 -9.834344,19.35302 -19.66812,38.70466 -29.502375,58.05699 1.902839,13.05184 3.805342,26.10346 5.707712,39.15625 C 31.49343,288.49063 27.50495,282.8916 23.516108,277.29269 Z"
         sodipodi:nodetypes="cccccc" />
      <text
         id="text4926"
         y="157.91374"
         x="78.866089"
         style="font-style:normal;font-variant:normal;font-weight:normal;font-stretch:normal;font-size:20.03753471px;line-height:5.87041092px;font-family:Allura;-inkscape-font-specification:'Allura, Normal';font-variant-ligatures:normal;font-variant-caps:normal;font-variant-numeric:normal;font-feature-settings:normal;text-align:start;letter-spacing:0px;word-spacing:0px;writing-mode:lr-tb;text-anchor:start;fill:#000000;fill-opacity:1;stroke:none;stroke-width:0.23481643"
         xml:space="preserve"><tspan
           y="157.91374"
           x="78.866089"
           style="line-height:20.94576836px;stroke-width:0.23481643"
           id="tspan160"
           sodipodi:role="line">Happy </tspan><tspan
           y="178.85951"
           x="78.866089"
           style="line-height:20.94576836px;stroke-width:0.23481643"
           id="tspan162"
           sodipodi:role="line">Mothers </tspan><tspan
           y="199.80528"
           x="78.866089"
           style="line-height:20.94576836px;stroke-width:0.23481643"
           id="tspan164"
           sodipodi:role="line">Day</tspan></text>
    </g>
    <flowRoot
       xml:space="preserve"
       id="flowRoot50"
       style="font-style:normal;font-variant:normal;font-weight:normal;font-stretch:normal;font-size:40px;line-height:25px;font-family:sans-serif;-inkscape-font-specification:'sans-serif, Normal';font-variant-ligatures:normal;font-variant-caps:normal;font-variant-numeric:normal;font-feature-settings:normal;text-align:start;letter-spacing:0px;word-spacing:0px;writing-mode:lr-tb;text-anchor:start;fill:#000000;fill-opacity:1;stroke:none"
       transform="matrix(0.26458334,0,0,0.26458334,0,81.099997)"><flowRegion
         id="flowRegion52"><rect
           id="rect54"
           width="95.583511"
           height="61.952278"
           x="849.63123"
           y="396.49457" /></flowRegion><flowPara
         id="flowPara56"></flowPara></flowRoot>  </g>
</svg>
